<svg xmlns="http://www.w3.org/2000/svg" viewBox="0 0 1200 900" font-family="monospace">
<rect width="1200" height="900" fill="#0a0a0a"/>
<text x="600" y="28" text-anchor="middle" font-size="18" font-weight="bold" fill="#ff8844">FIX 7 — BTN_A bridge +3V3↔GND [HIGH]</text>
<text x="600" y="48" text-anchor="middle" font-size="12" fill="#aaa">B.Cu — trace verticale x=52.5mm — 4 TAGLI + ponticello AWG30</text>
<rect x="20" y="58" width="320" height="35" rx="4" fill="#111" stroke="#333"/>
<rect x="30" y="68" width="20" height="6" fill="#ff4444" rx="1"/><text x="55" y="75" font-size="9" fill="#ff8888">VBUS</text>
<rect x="100" y="68" width="20" height="6" fill="#44aaff" rx="1"/><text x="125" y="75" font-size="9" fill="#88ccff">+3V3</text>
<rect x="170" y="68" width="20" height="6" fill="#44ff44" rx="1"/><text x="195" y="75" font-size="9" fill="#88ff88">GND</text>
<rect x="230" y="68" width="20" height="6" fill="#ff0" rx="1"/><text x="255" y="75" font-size="9" fill="#ff0">TAGLIO</text>
<rect x="295" y="68" width="20" height="3" fill="#00ffaa" rx="1"/><text x="320" y="75" font-size="9" fill="#00ffaa">JUMP</text>
<rect x="408.55555555555554" y="98.0" width="382.88888888888886" height="624.0" rx="4" fill="#0a2a0a" stroke="#2a5a2a" stroke-width="2"/>
<defs>
  <clipPath id="clip-fix7">
    <rect x="410.55555555555554" y="100.0" width="378.88888888888886" height="620.0"/>
  </clipPath>
</defs>
<g clip-path="url(#clip-fix7)">
  <g transform="translate(-312.7777777777777,-485.55555555555554) scale(17.22222222222222)">


  
<g style="fill:#000000; fill-opacity:1.0000;stroke:#000000; stroke-opacity:1.0000;
stroke-linecap:round; stroke-linejoin:round;"
 transform="translate(0 0) scale(1 1)">
<path style="fill:#4D7FC4; fill-opacity:1.0000; stroke:none;fill-rule:evenodd;"
d="M 88.0250,22.7150
88.0250,21.8150
89.5250,21.8150
89.5250,22.7150
Z" /> 
<path style="fill:#4D7FC4; fill-opacity:1.0000; stroke:none;fill-rule:evenodd;"
d="M 88.0250,23.9850
88.0250,23.0850
89.5250,23.0850
89.5250,23.9850
Z" /> 
<path style="fill:#4D7FC4; fill-opacity:1.0000; stroke:none;fill-rule:evenodd;"
d="M 88.0250,25.2550
88.0250,24.3550
89.5250,24.3550
89.5250,25.2550
Z" /> 
<path style="fill:#4D7FC4; fill-opacity:1.0000; stroke:none;fill-rule:evenodd;"
d="M 88.0250,26.5250
88.0250,25.6250
89.5250,25.6250
89.5250,26.5250
Z" /> 
<path style="fill:#4D7FC4; fill-opacity:1.0000; stroke:none;fill-rule:evenodd;"
d="M 88.0250,27.7950
88.0250,26.8950
89.5250,26.8950
89.5250,27.7950
Z" /> 
<path style="fill:#4D7FC4; fill-opacity:1.0000; stroke:none;fill-rule:evenodd;"
d="M 88.0250,29.0650
88.0250,28.1650
89.5250,28.1650
89.5250,29.0650
Z" /> 
<path style="fill:#4D7FC4; fill-opacity:1.0000; stroke:none;fill-rule:evenodd;"
d="M 88.0250,30.3350
88.0250,29.4350
89.5250,29.4350
89.5250,30.3350
Z" /> 
<path style="fill:#4D7FC4; fill-opacity:1.0000; stroke:none;fill-rule:evenodd;"
d="M 88.0250,31.6050
88.0250,30.7050
89.5250,30.7050
89.5250,31.6050
Z" /> 
<path style="fill:#4D7FC4; fill-opacity:1.0000; stroke:none;fill-rule:evenodd;"
d="M 88.0250,32.8750
88.0250,31.9750
89.5250,31.9750
89.5250,32.8750
Z" /> 
<path style="fill:#4D7FC4; fill-opacity:1.0000; stroke:none;fill-rule:evenodd;"
d="M 88.0250,34.1450
88.0250,33.2450
89.5250,33.2450
89.5250,34.1450
Z" /> 
<path style="fill:#4D7FC4; fill-opacity:1.0000; stroke:none;fill-rule:evenodd;"
d="M 88.0250,35.4150
88.0250,34.5150
89.5250,34.5150
89.5250,35.4150
Z" /> 
<path style="fill:#4D7FC4; fill-opacity:1.0000; stroke:none;fill-rule:evenodd;"
d="M 88.0250,36.6850
88.0250,35.7850
89.5250,35.7850
89.5250,36.6850
Z" /> 
<path style="fill:#4D7FC4; fill-opacity:1.0000; stroke:none;fill-rule:evenodd;"
d="M 88.0250,37.9550
88.0250,37.0550
89.5250,37.0550
89.5250,37.9550
Z" /> 
<path style="fill:#4D7FC4; fill-opacity:1.0000; stroke:none;fill-rule:evenodd;"
d="M 88.0250,39.2250
88.0250,38.3250
89.5250,38.3250
89.5250,39.2250
Z" /> 
<path style="fill:#4D7FC4; fill-opacity:1.0000; stroke:none;fill-rule:evenodd;"
d="M 86.5600,40.7750
86.5600,39.2750
87.4600,39.2750
87.4600,40.7750
Z" /> 
<path style="fill:#4D7FC4; fill-opacity:1.0000; stroke:none;fill-rule:evenodd;"
d="M 85.2900,40.7750
85.2900,39.2750
86.1900,39.2750
86.1900,40.7750
Z" /> 
<path style="fill:#4D7FC4; fill-opacity:1.0000; stroke:none;fill-rule:evenodd;"
d="M 84.0200,40.7750
84.0200,39.2750
84.9200,39.2750
84.9200,40.7750
Z" /> 
<path style="fill:#4D7FC4; fill-opacity:1.0000; stroke:none;fill-rule:evenodd;"
d="M 82.7500,40.7750
82.7500,39.2750
83.6500,39.2750
83.6500,40.7750
Z" /> 
<path style="fill:#4D7FC4; fill-opacity:1.0000; stroke:none;fill-rule:evenodd;"
d="M 81.4800,40.7750
81.4800,39.2750
82.3800,39.2750
82.3800,40.7750
Z" /> 
<path style="fill:#4D7FC4; fill-opacity:1.0000; stroke:none;fill-rule:evenodd;"
d="M 80.2100,40.7750
80.2100,39.2750
81.1100,39.2750
81.1100,40.7750
Z" /> 
<path style="fill:#4D7FC4; fill-opacity:1.0000; stroke:none;fill-rule:evenodd;"
d="M 78.9400,40.7750
78.9400,39.2750
79.8400,39.2750
79.8400,40.7750
Z" /> 
<path style="fill:#4D7FC4; fill-opacity:1.0000; stroke:none;fill-rule:evenodd;"
d="M 77.6700,40.7750
77.6700,39.2750
78.5700,39.2750
78.5700,40.7750
Z" /> 
<path style="fill:#4D7FC4; fill-opacity:1.0000; stroke:none;fill-rule:evenodd;"
d="M 76.4000,40.7750
76.4000,39.2750
77.3000,39.2750
77.3000,40.7750
Z" /> 
<path style="fill:#4D7FC4; fill-opacity:1.0000; stroke:none;fill-rule:evenodd;"
d="M 75.1300,40.7750
75.1300,39.2750
76.0300,39.2750
76.0300,40.7750
Z" /> 
<path style="fill:#4D7FC4; fill-opacity:1.0000; stroke:none;fill-rule:evenodd;"
d="M 73.8600,40.7750
73.8600,39.2750
74.7600,39.2750
74.7600,40.7750
Z" /> 
<path style="fill:#4D7FC4; fill-opacity:1.0000; stroke:none;fill-rule:evenodd;"
d="M 72.5900,40.7750
72.5900,39.2750
73.4900,39.2750
73.4900,40.7750
Z" /> 
<path style="fill:#4D7FC4; fill-opacity:1.0000; stroke:none;fill-rule:evenodd;"
d="M 70.5250,39.2250
70.5250,38.3250
72.0250,38.3250
72.0250,39.2250
Z" /> 
<path style="fill:#4D7FC4; fill-opacity:1.0000; stroke:none;fill-rule:evenodd;"
d="M 70.5250,37.9550
70.5250,37.0550
72.0250,37.0550
72.0250,37.9550
Z" /> 
<path style="fill:#4D7FC4; fill-opacity:1.0000; stroke:none;fill-rule:evenodd;"
d="M 70.5250,36.6850
70.5250,35.7850
72.0250,35.7850
72.0250,36.6850
Z" /> 
<path style="fill:#4D7FC4; fill-opacity:1.0000; stroke:none;fill-rule:evenodd;"
d="M 70.5250,35.4150
70.5250,34.5150
72.0250,34.5150
72.0250,35.4150
Z" /> 
<path style="fill:#4D7FC4; fill-opacity:1.0000; stroke:none;fill-rule:evenodd;"
d="M 70.5250,34.1450
70.5250,33.2450
72.0250,33.2450
72.0250,34.1450
Z" /> 
<path style="fill:#4D7FC4; fill-opacity:1.0000; stroke:none;fill-rule:evenodd;"
d="M 70.5250,32.8750
70.5250,31.9750
72.0250,31.9750
72.0250,32.8750
Z" /> 
<path style="fill:#4D7FC4; fill-opacity:1.0000; stroke:none;fill-rule:evenodd;"
d="M 70.5250,31.6050
70.5250,30.7050
72.0250,30.7050
72.0250,31.6050
Z" /> 
<path style="fill:#4D7FC4; fill-opacity:1.0000; stroke:none;fill-rule:evenodd;"
d="M 70.5250,30.3350
70.5250,29.4350
72.0250,29.4350
72.0250,30.3350
Z" /> 
<path style="fill:#4D7FC4; fill-opacity:1.0000; stroke:none;fill-rule:evenodd;"
d="M 70.5250,29.0650
70.5250,28.1650
72.0250,28.1650
72.0250,29.0650
Z" /> 
<path style="fill:#4D7FC4; fill-opacity:1.0000; stroke:none;fill-rule:evenodd;"
d="M 70.5250,27.7950
70.5250,26.8950
72.0250,26.8950
72.0250,27.7950
Z" /> 
<path style="fill:#4D7FC4; fill-opacity:1.0000; stroke:none;fill-rule:evenodd;"
d="M 70.5250,26.5250
70.5250,25.6250
72.0250,25.6250
72.0250,26.5250
Z" /> 
<path style="fill:#4D7FC4; fill-opacity:1.0000; stroke:none;fill-rule:evenodd;"
d="M 70.5250,25.2550
70.5250,24.3550
72.0250,24.3550
72.0250,25.2550
Z" /> 
<path style="fill:#4D7FC4; fill-opacity:1.0000; stroke:none;fill-rule:evenodd;"
d="M 70.5250,23.9850
70.5250,23.0850
72.0250,23.0850
72.0250,23.9850
Z" /> 
<path style="fill:#4D7FC4; fill-opacity:1.0000; stroke:none;fill-rule:evenodd;"
d="M 70.5250,22.7150
70.5250,21.8150
72.0250,21.8150
72.0250,22.7150
Z" /> 
<path style="fill:#4D7FC4; fill-opacity:1.0000; stroke:none;fill-rule:evenodd;"
d="M 79.5750,31.9350
79.5750,28.0350
83.4750,28.0350
83.4750,31.9350
Z" /> 
<path style="fill:#4D7FC4; fill-opacity:1.0000; stroke:none;fill-rule:evenodd;"
d="M 12.7250,3.1250
12.7250,1.9250
13.6250,1.9250
13.6250,3.1250
Z" /> 
<path style="fill:#4D7FC4; fill-opacity:1.0000; stroke:none;fill-rule:evenodd;"
d="M 12.7250,9.1250
12.7250,7.9250
13.6250,7.9250
13.6250,9.1250
Z" /> 
<path style="fill:#4D7FC4; fill-opacity:1.0000; stroke:none;fill-rule:evenodd;"
d="M 16.4250,3.1250
16.4250,1.9250
17.3250,1.9250
17.3250,3.1250
Z" /> 
<path style="fill:#4D7FC4; fill-opacity:1.0000; stroke:none;fill-rule:evenodd;"
d="M 16.4250,9.1250
16.4250,7.9250
17.3250,7.9250
17.3250,9.1250
Z" /> 
<path style="fill:#4D7FC4; fill-opacity:1.0000; stroke:none;fill-rule:evenodd;"
d="M 142.7250,3.1250
142.7250,1.9250
143.6250,1.9250
143.6250,3.1250
Z" /> 
<path style="fill:#4D7FC4; fill-opacity:1.0000; stroke:none;fill-rule:evenodd;"
d="M 142.7250,9.1250
142.7250,7.9250
143.6250,7.9250
143.6250,9.1250
Z" /> 
<path style="fill:#4D7FC4; fill-opacity:1.0000; stroke:none;fill-rule:evenodd;"
d="M 146.4250,3.1250
146.4250,1.9250
147.3250,1.9250
147.3250,3.1250
Z" /> 
<path style="fill:#4D7FC4; fill-opacity:1.0000; stroke:none;fill-rule:evenodd;"
d="M 146.4250,9.1250
146.4250,7.9250
147.3250,7.9250
147.3250,9.1250
Z" /> 
<path style="fill:#4D7FC4; fill-opacity:1.0000; stroke:none;fill-rule:evenodd;"
d="M 132.9870,25.9250
132.9870,25.6250
134.4870,25.6250
134.4870,25.9250
Z" /> 
<path style="fill:#4D7FC4; fill-opacity:1.0000; stroke:none;fill-rule:evenodd;"
d="M 132.9870,26.4250
132.9870,26.1250
134.4870,26.1250
134.4870,26.4250
Z" /> 
<path style="fill:#4D7FC4; fill-opacity:1.0000; stroke:none;fill-rule:evenodd;"
d="M 132.9870,26.9250
132.9870,26.6250
134.4870,26.6250
134.4870,26.9250
Z" /> 
<path style="fill:#4D7FC4; fill-opacity:1.0000; stroke:none;fill-rule:evenodd;"
d="M 132.9870,27.4250
132.9870,27.1250
134.4870,27.1250
134.4870,27.4250
Z" /> 
<path style="fill:#4D7FC4; fill-opacity:1.0000; stroke:none;fill-rule:evenodd;"
d="M 132.9870,27.9250
132.9870,27.6250
134.4870,27.6250
134.4870,27.9250
Z" /> 
<path style="fill:#4D7FC4; fill-opacity:1.0000; stroke:none;fill-rule:evenodd;"
d="M 132.9870,28.4250
132.9870,28.1250
134.4870,28.1250
134.4870,28.4250
Z" /> 
<path style="fill:#4D7FC4; fill-opacity:1.0000; stroke:none;fill-rule:evenodd;"
d="M 132.9870,28.9250
132.9870,28.6250
134.4870,28.6250
134.4870,28.9250
Z" /> 
<path style="fill:#4D7FC4; fill-opacity:1.0000; stroke:none;fill-rule:evenodd;"
d="M 132.9870,29.4250
132.9870,29.1250
134.4870,29.1250
134.4870,29.4250
Z" /> 
<path style="fill:#4D7FC4; fill-opacity:1.0000; stroke:none;fill-rule:evenodd;"
d="M 132.9870,29.9250
132.9870,29.6250
134.4870,29.6250
134.4870,29.9250
Z" /> 
<path style="fill:#4D7FC4; fill-opacity:1.0000; stroke:none;fill-rule:evenodd;"
d="M 132.9870,30.4250
132.9870,30.1250
134.4870,30.1250
134.4870,30.4250
Z" /> 
<path style="fill:#4D7FC4; fill-opacity:1.0000; stroke:none;fill-rule:evenodd;"
d="M 132.9870,30.9250
132.9870,30.6250
134.4870,30.6250
134.4870,30.9250
Z" /> 
<path style="fill:#4D7FC4; fill-opacity:1.0000; stroke:none;fill-rule:evenodd;"
d="M 132.9870,31.4250
132.9870,31.1250
134.4870,31.1250
134.4870,31.4250
Z" /> 
<path style="fill:#4D7FC4; fill-opacity:1.0000; stroke:none;fill-rule:evenodd;"
d="M 132.9870,31.9250
132.9870,31.6250
134.4870,31.6250
134.4870,31.9250
Z" /> 
<path style="fill:#4D7FC4; fill-opacity:1.0000; stroke:none;fill-rule:evenodd;"
d="M 132.9870,32.4250
132.9870,32.1250
134.4870,32.1250
134.4870,32.4250
Z" /> 
<path style="fill:#4D7FC4; fill-opacity:1.0000; stroke:none;fill-rule:evenodd;"
d="M 132.9870,32.9250
132.9870,32.6250
134.4870,32.6250
134.4870,32.9250
Z" /> 
<path style="fill:#4D7FC4; fill-opacity:1.0000; stroke:none;fill-rule:evenodd;"
d="M 132.9870,33.4250
132.9870,33.1250
134.4870,33.1250
134.4870,33.4250
Z" /> 
<path style="fill:#4D7FC4; fill-opacity:1.0000; stroke:none;fill-rule:evenodd;"
d="M 132.9870,33.9250
132.9870,33.6250
134.4870,33.6250
134.4870,33.9250
Z" /> 
<path style="fill:#4D7FC4; fill-opacity:1.0000; stroke:none;fill-rule:evenodd;"
d="M 132.9870,34.4250
132.9870,34.1250
134.4870,34.1250
134.4870,34.4250
Z" /> 
<path style="fill:#4D7FC4; fill-opacity:1.0000; stroke:none;fill-rule:evenodd;"
d="M 132.9870,34.9250
132.9870,34.6250
134.4870,34.6250
134.4870,34.9250
Z" /> 
<path style="fill:#4D7FC4; fill-opacity:1.0000; stroke:none;fill-rule:evenodd;"
d="M 132.9870,35.4250
132.9870,35.1250
134.4870,35.1250
134.4870,35.4250
Z" /> 
<path style="fill:#4D7FC4; fill-opacity:1.0000; stroke:none;fill-rule:evenodd;"
d="M 132.9870,35.9250
132.9870,35.6250
134.4870,35.6250
134.4870,35.9250
Z" /> 
<path style="fill:#4D7FC4; fill-opacity:1.0000; stroke:none;fill-rule:evenodd;"
d="M 132.9870,36.4250
132.9870,36.1250
134.4870,36.1250
134.4870,36.4250
Z" /> 
<path style="fill:#4D7FC4; fill-opacity:1.0000; stroke:none;fill-rule:evenodd;"
d="M 132.9870,36.9250
132.9870,36.6250
134.4870,36.6250
134.4870,36.9250
Z" /> 
<path style="fill:#4D7FC4; fill-opacity:1.0000; stroke:none;fill-rule:evenodd;"
d="M 132.9870,37.4250
132.9870,37.1250
134.4870,37.1250
134.4870,37.4250
Z" /> 
<path style="fill:#4D7FC4; fill-opacity:1.0000; stroke:none;fill-rule:evenodd;"
d="M 132.9870,37.9250
132.9870,37.6250
134.4870,37.6250
134.4870,37.9250
Z" /> 
<path style="fill:#4D7FC4; fill-opacity:1.0000; stroke:none;fill-rule:evenodd;"
d="M 132.9870,38.4250
132.9870,38.1250
134.4870,38.1250
134.4870,38.4250
Z" /> 
<path style="fill:#4D7FC4; fill-opacity:1.0000; stroke:none;fill-rule:evenodd;"
d="M 132.9870,38.9250
132.9870,38.6250
134.4870,38.6250
134.4870,38.9250
Z" /> 
<path style="fill:#4D7FC4; fill-opacity:1.0000; stroke:none;fill-rule:evenodd;"
d="M 132.9870,39.4250
132.9870,39.1250
134.4870,39.1250
134.4870,39.4250
Z" /> 
<path style="fill:#4D7FC4; fill-opacity:1.0000; stroke:none;fill-rule:evenodd;"
d="M 132.9870,39.9250
132.9870,39.6250
134.4870,39.6250
134.4870,39.9250
Z" /> 
<path style="fill:#4D7FC4; fill-opacity:1.0000; stroke:none;fill-rule:evenodd;"
d="M 132.9870,40.4250
132.9870,40.1250
134.4870,40.1250
134.4870,40.4250
Z" /> 
<path style="fill:#4D7FC4; fill-opacity:1.0000; stroke:none;fill-rule:evenodd;"
d="M 132.9870,40.9250
132.9870,40.6250
134.4870,40.6250
134.4870,40.9250
Z" /> 
<path style="fill:#4D7FC4; fill-opacity:1.0000; stroke:none;fill-rule:evenodd;"
d="M 132.9870,41.4250
132.9870,41.1250
134.4870,41.1250
134.4870,41.4250
Z" /> 
<path style="fill:#4D7FC4; fill-opacity:1.0000; stroke:none;fill-rule:evenodd;"
d="M 132.9870,41.9250
132.9870,41.6250
134.4870,41.6250
134.4870,41.9250
Z" /> 
<path style="fill:#4D7FC4; fill-opacity:1.0000; stroke:none;fill-rule:evenodd;"
d="M 132.9870,42.4250
132.9870,42.1250
134.4870,42.1250
134.4870,42.4250
Z" /> 
<path style="fill:#4D7FC4; fill-opacity:1.0000; stroke:none;fill-rule:evenodd;"
d="M 132.9870,42.9250
132.9870,42.6250
134.4870,42.6250
134.4870,42.9250
Z" /> 
<path style="fill:#4D7FC4; fill-opacity:1.0000; stroke:none;fill-rule:evenodd;"
d="M 132.9870,43.4250
132.9870,43.1250
134.4870,43.1250
134.4870,43.4250
Z" /> 
<path style="fill:#4D7FC4; fill-opacity:1.0000; stroke:none;fill-rule:evenodd;"
d="M 132.9870,43.9250
132.9870,43.6250
134.4870,43.6250
134.4870,43.9250
Z" /> 
<path style="fill:#4D7FC4; fill-opacity:1.0000; stroke:none;fill-rule:evenodd;"
d="M 132.9870,44.4250
132.9870,44.1250
134.4870,44.1250
134.4870,44.4250
Z" /> 
<path style="fill:#4D7FC4; fill-opacity:1.0000; stroke:none;fill-rule:evenodd;"
d="M 132.9870,44.9250
132.9870,44.6250
134.4870,44.6250
134.4870,44.9250
Z" /> 
<path style="fill:#4D7FC4; fill-opacity:1.0000; stroke:none;fill-rule:evenodd;"
d="M 132.9870,45.4250
132.9870,45.1250
134.4870,45.1250
134.4870,45.4250
Z" /> 
<path style="fill:#4D7FC4; fill-opacity:1.0000; stroke:none;fill-rule:evenodd;"
d="M 135.0630,47.9650
135.0630,45.9650
137.5630,45.9650
137.5630,47.9650
Z" /> 
<path style="fill:#4D7FC4; fill-opacity:1.0000; stroke:none;fill-rule:evenodd;"
d="M 135.0630,25.0850
135.0630,23.0850
137.5630,23.0850
137.5630,25.0850
Z" /> 
<path style="fill:#4D7FC4; fill-opacity:1.0000; stroke:none;fill-rule:evenodd;"
d="M 82.9500,69.7000
82.9500,68.6000
83.5000,68.6000
83.5000,69.7000
Z" /> 
<path style="fill:#4D7FC4; fill-opacity:1.0000; stroke:none;fill-rule:evenodd;"
d="M 82.1500,69.7000
82.1500,68.6000
82.7000,68.6000
82.7000,69.7000
Z" /> 
<path style="fill:#4D7FC4; fill-opacity:1.0000; stroke:none;fill-rule:evenodd;"
d="M 77.3500,69.7000
77.3500,68.6000
77.9000,68.6000
77.9000,69.7000
Z" /> 
<path style="fill:#4D7FC4; fill-opacity:1.0000; stroke:none;fill-rule:evenodd;"
d="M 76.5500,69.7000
76.5500,68.6000
77.1000,68.6000
77.1000,69.7000
Z" /> 
<path style="fill:#4D7FC4; fill-opacity:1.0000; stroke:none;fill-rule:evenodd;"
d="M 81.6250,69.7000
81.6250,68.6000
81.9250,68.6000
81.9250,69.7000
Z" /> 
<path style="fill:#4D7FC4; fill-opacity:1.0000; stroke:none;fill-rule:evenodd;"
d="M 81.1250,69.7000
81.1250,68.6000
81.4250,68.6000
81.4250,69.7000
Z" /> 
<path style="fill:#4D7FC4; fill-opacity:1.0000; stroke:none;fill-rule:evenodd;"
d="M 80.6250,69.7000
80.6250,68.6000
80.9250,68.6000
80.9250,69.7000
Z" /> 
<path style="fill:#4D7FC4; fill-opacity:1.0000; stroke:none;fill-rule:evenodd;"
d="M 80.1250,69.7000
80.1250,68.6000
80.4250,68.6000
80.4250,69.7000
Z" /> 
<path style="fill:#4D7FC4; fill-opacity:1.0000; stroke:none;fill-rule:evenodd;"
d="M 79.6250,69.7000
79.6250,68.6000
79.9250,68.6000
79.9250,69.7000
Z" /> 
<path style="fill:#4D7FC4; fill-opacity:1.0000; stroke:none;fill-rule:evenodd;"
d="M 79.1250,69.7000
79.1250,68.6000
79.4250,68.6000
79.4250,69.7000
Z" /> 
<path style="fill:#4D7FC4; fill-opacity:1.0000; stroke:none;fill-rule:evenodd;"
d="M 78.6250,69.7000
78.6250,68.6000
78.9250,68.6000
78.9250,69.7000
Z" /> 
<path style="fill:#4D7FC4; fill-opacity:1.0000; stroke:none;fill-rule:evenodd;"
d="M 78.1250,69.7000
78.1250,68.6000
78.4250,68.6000
78.4250,69.7000
Z" /> 
</g>
<g style="fill:none; 
stroke:#4D7FC4; stroke-width:1.7000; stroke-opacity:1; 
stroke-linecap:round; stroke-linejoin:round;">
<path d="M84.3500 69.5500
L84.3500 69.8500
" />
<path d="M75.7000 69.5500
L75.7000 69.8500
" />
</g>
<g style="fill:none; 
stroke:#4D7FC4; stroke-width:1.4000; stroke-opacity:1; 
stroke-linecap:round; stroke-linejoin:round;">
<path d="M84.3500 73.7000
L84.3500 74.1000
" />
<path d="M75.7000 73.7000
L75.7000 74.1000
" />
<path style="fill:#4D7FC4; fill-opacity:1.0000; stroke:none;fill-rule:evenodd;"
d="M 137.4850,62.3990
137.4850,61.0990
138.0850,61.0990
138.0850,62.3990
Z" /> 
<path style="fill:#4D7FC4; fill-opacity:1.0000; stroke:none;fill-rule:evenodd;"
d="M 138.5850,62.3990
138.5850,61.0990
139.1850,61.0990
139.1850,62.3990
Z" /> 
<path style="fill:#4D7FC4; fill-opacity:1.0000; stroke:none;fill-rule:evenodd;"
d="M 139.6850,62.3990
139.6850,61.0990
140.2850,61.0990
140.2850,62.3990
Z" /> 
<path style="fill:#4D7FC4; fill-opacity:1.0000; stroke:none;fill-rule:evenodd;"
d="M 140.7850,62.3990
140.7850,61.0990
141.3850,61.0990
141.3850,62.3990
Z" /> 
<path style="fill:#4D7FC4; fill-opacity:1.0000; stroke:none;fill-rule:evenodd;"
d="M 141.8850,62.3990
141.8850,61.0990
142.4850,61.0990
142.4850,62.3990
Z" /> 
<path style="fill:#4D7FC4; fill-opacity:1.0000; stroke:none;fill-rule:evenodd;"
d="M 142.9850,62.3990
142.9850,61.0990
143.5850,61.0990
143.5850,62.3990
Z" /> 
<path style="fill:#4D7FC4; fill-opacity:1.0000; stroke:none;fill-rule:evenodd;"
d="M 144.0850,62.3990
144.0850,61.0990
144.6850,61.0990
144.6850,62.3990
Z" /> 
<path style="fill:#4D7FC4; fill-opacity:1.0000; stroke:none;fill-rule:evenodd;"
d="M 145.1850,62.3990
145.1850,61.0990
145.7850,61.0990
145.7850,62.3990
Z" /> 
<path style="fill:#4D7FC4; fill-opacity:1.0000; stroke:none;fill-rule:evenodd;"
d="M 146.2850,62.3990
146.2850,61.0990
146.8850,61.0990
146.8850,62.3990
Z" /> 
<path style="fill:#4D7FC4; fill-opacity:1.0000; stroke:none;fill-rule:evenodd;"
d="M 147.1850,63.2990
147.1850,61.8990
148.3850,61.8990
148.3850,63.2990
Z" /> 
<path style="fill:#4D7FC4; fill-opacity:1.0000; stroke:none;fill-rule:evenodd;"
d="M 132.5050,63.2990
132.5050,61.8990
133.7050,61.8990
133.7050,63.2990
Z" /> 
<path style="fill:#4D7FC4; fill-opacity:1.0000; stroke:none;fill-rule:evenodd;"
d="M 147.1850,73.3010
147.1850,71.3010
148.3850,71.3010
148.3850,73.3010
Z" /> 
<path style="fill:#4D7FC4; fill-opacity:1.0000; stroke:none;fill-rule:evenodd;"
d="M 131.6650,73.3010
131.6650,71.3010
132.8650,71.3010
132.8650,73.3010
Z" /> 
<path style="fill:#4D7FC4; fill-opacity:1.0000; stroke:none;fill-rule:evenodd;"
d="M 41.9750,71.0870
41.9750,69.5630
42.5750,69.5630
42.5750,71.0870
Z" /> 
<path style="fill:#4D7FC4; fill-opacity:1.0000; stroke:none;fill-rule:evenodd;"
d="M 38.9750,71.0870
38.9750,69.5630
39.5750,69.5630
39.5750,71.0870
Z" /> 
<path style="fill:#4D7FC4; fill-opacity:1.0000; stroke:none;fill-rule:evenodd;"
d="M 37.4750,71.0870
37.4750,69.5630
38.0750,69.5630
38.0750,71.0870
Z" /> 
<path style="fill:#4D7FC4; fill-opacity:1.0000; stroke:none;fill-rule:evenodd;"
d="M 43.0250,71.7750
43.0250,71.0750
44.2250,71.0750
44.2250,71.7750
Z" /> 
<path style="fill:#4D7FC4; fill-opacity:1.0000; stroke:none;fill-rule:evenodd;"
d="M 35.8250,71.7750
35.8250,71.0750
37.0250,71.0750
37.0250,71.7750
Z" /> 
<path style="fill:#4D7FC4; fill-opacity:1.0000; stroke:none;fill-rule:evenodd;"
d="M 43.0250,74.0750
43.0250,73.3750
44.2250,73.3750
44.2250,74.0750
Z" /> 
<path style="fill:#4D7FC4; fill-opacity:1.0000; stroke:none;fill-rule:evenodd;"
d="M 35.8250,74.0750
35.8250,73.3750
37.0250,73.3750
37.0250,74.0750
Z" /> 
<path style="fill:#4D7FC4; fill-opacity:1.0000; stroke:none;fill-rule:evenodd;"
d="M 38.5250,54.0250
38.5250,51.0250
40.5250,51.0250
40.5250,54.0250
Z" /> 
<path style="fill:#4D7FC4; fill-opacity:1.0000; stroke:none;fill-rule:evenodd;"
d="M 19.5250,54.0250
19.5250,51.0250
21.5250,51.0250
21.5250,54.0250
Z" /> 
<path style="fill:#4D7FC4; fill-opacity:1.0000; stroke:none;fill-rule:evenodd;"
d="M 112.1750,40.9200
112.1750,40.3200
113.8750,40.3200
113.8750,40.9200
Z" /> 
<path style="fill:#4D7FC4; fill-opacity:1.0000; stroke:none;fill-rule:evenodd;"
d="M 112.1750,42.1900
112.1750,41.5900
113.8750,41.5900
113.8750,42.1900
Z" /> 
<path style="fill:#4D7FC4; fill-opacity:1.0000; stroke:none;fill-rule:evenodd;"
d="M 112.1750,43.4600
112.1750,42.8600
113.8750,42.8600
113.8750,43.4600
Z" /> 
<path style="fill:#4D7FC4; fill-opacity:1.0000; stroke:none;fill-rule:evenodd;"
d="M 112.1750,44.7300
112.1750,44.1300
113.8750,44.1300
113.8750,44.7300
Z" /> 
<path style="fill:#4D7FC4; fill-opacity:1.0000; stroke:none;fill-rule:evenodd;"
d="M 106.1750,44.7300
106.1750,44.1300
107.8750,44.1300
107.8750,44.7300
Z" /> 
<path style="fill:#4D7FC4; fill-opacity:1.0000; stroke:none;fill-rule:evenodd;"
d="M 106.1750,43.4600
106.1750,42.8600
107.8750,42.8600
107.8750,43.4600
Z" /> 
<path style="fill:#4D7FC4; fill-opacity:1.0000; stroke:none;fill-rule:evenodd;"
d="M 106.1750,42.1900
106.1750,41.5900
107.8750,41.5900
107.8750,42.1900
Z" /> 
<path style="fill:#4D7FC4; fill-opacity:1.0000; stroke:none;fill-rule:evenodd;"
d="M 106.1750,40.9200
106.1750,40.3200
107.8750,40.3200
107.8750,40.9200
Z" /> 
<path style="fill:#4D7FC4; fill-opacity:1.0000; stroke:none;fill-rule:evenodd;"
d="M 108.3250,43.9250
108.3250,41.1250
111.7250,41.1250
111.7250,43.9250
Z" /> 
<path style="fill:#4D7FC4; fill-opacity:1.0000; stroke:none;fill-rule:evenodd;"
d="M 126.8250,59.4250
126.8250,57.9250
127.8250,57.9250
127.8250,59.4250
Z" /> 
<path style="fill:#4D7FC4; fill-opacity:1.0000; stroke:none;fill-rule:evenodd;"
d="M 124.5250,59.4250
124.5250,57.9250
125.5250,57.9250
125.5250,59.4250
Z" /> 
<path style="fill:#4D7FC4; fill-opacity:1.0000; stroke:none;fill-rule:evenodd;"
d="M 122.2250,59.4250
122.2250,57.9250
123.2250,57.9250
123.2250,59.4250
Z" /> 
<path style="fill:#4D7FC4; fill-opacity:1.0000; stroke:none;fill-rule:evenodd;"
d="M 123.2250,53.2750
123.2250,51.4750
126.8250,51.4750
126.8250,53.2750
Z" /> 
<path style="fill:#4D7FC4; fill-opacity:1.0000; stroke:none;fill-rule:evenodd;"
d="M 25.2800,27.6000
25.2800,26.0500
25.8800,26.0500
25.8800,27.6000
Z" /> 
<path style="fill:#4D7FC4; fill-opacity:1.0000; stroke:none;fill-rule:evenodd;"
d="M 26.5500,27.6000
26.5500,26.0500
27.1500,26.0500
27.1500,27.6000
Z" /> 
<path style="fill:#4D7FC4; fill-opacity:1.0000; stroke:none;fill-rule:evenodd;"
d="M 27.8200,27.6000
27.8200,26.0500
28.4200,26.0500
28.4200,27.6000
Z" /> 
<path style="fill:#4D7FC4; fill-opacity:1.0000; stroke:none;fill-rule:evenodd;"
d="M 29.0900,27.6000
29.0900,26.0500
29.6900,26.0500
29.6900,27.6000
Z" /> 
<path style="fill:#4D7FC4; fill-opacity:1.0000; stroke:none;fill-rule:evenodd;"
d="M 30.3600,27.6000
30.3600,26.0500
30.9600,26.0500
30.9600,27.6000
Z" /> 
<path style="fill:#4D7FC4; fill-opacity:1.0000; stroke:none;fill-rule:evenodd;"
d="M 31.6300,27.6000
31.6300,26.0500
32.2300,26.0500
32.2300,27.6000
Z" /> 
<path style="fill:#4D7FC4; fill-opacity:1.0000; stroke:none;fill-rule:evenodd;"
d="M 32.9000,27.6000
32.9000,26.0500
33.5000,26.0500
33.5000,27.6000
Z" /> 
<path style="fill:#4D7FC4; fill-opacity:1.0000; stroke:none;fill-rule:evenodd;"
d="M 34.1700,27.6000
34.1700,26.0500
34.7700,26.0500
34.7700,27.6000
Z" /> 
<path style="fill:#4D7FC4; fill-opacity:1.0000; stroke:none;fill-rule:evenodd;"
d="M 34.1700,33.0000
34.1700,31.4500
34.7700,31.4500
34.7700,33.0000
Z" /> 
<path style="fill:#4D7FC4; fill-opacity:1.0000; stroke:none;fill-rule:evenodd;"
d="M 32.9000,33.0000
32.9000,31.4500
33.5000,31.4500
33.5000,33.0000
Z" /> 
<path style="fill:#4D7FC4; fill-opacity:1.0000; stroke:none;fill-rule:evenodd;"
d="M 31.6300,33.0000
31.6300,31.4500
32.2300,31.4500
32.2300,33.0000
Z" /> 
<path style="fill:#4D7FC4; fill-opacity:1.0000; stroke:none;fill-rule:evenodd;"
d="M 30.3600,33.0000
30.3600,31.4500
30.9600,31.4500
30.9600,33.0000
Z" /> 
<path style="fill:#4D7FC4; fill-opacity:1.0000; stroke:none;fill-rule:evenodd;"
d="M 29.0900,33.0000
29.0900,31.4500
29.6900,31.4500
29.6900,33.0000
Z" /> 
<path style="fill:#4D7FC4; fill-opacity:1.0000; stroke:none;fill-rule:evenodd;"
d="M 27.8200,33.0000
27.8200,31.4500
28.4200,31.4500
28.4200,33.0000
Z" /> 
<path style="fill:#4D7FC4; fill-opacity:1.0000; stroke:none;fill-rule:evenodd;"
d="M 26.5500,33.0000
26.5500,31.4500
27.1500,31.4500
27.1500,33.0000
Z" /> 
<path style="fill:#4D7FC4; fill-opacity:1.0000; stroke:none;fill-rule:evenodd;"
d="M 25.2800,33.0000
25.2800,31.4500
25.8800,31.4500
25.8800,33.0000
Z" /> 
<path style="fill:#4D7FC4; fill-opacity:1.0000; stroke:none;fill-rule:evenodd;"
d="M 111.0250,54.2250
111.0250,50.8250
112.4250,50.8250
112.4250,54.2250
Z" /> 
<path style="fill:#4D7FC4; fill-opacity:1.0000; stroke:none;fill-rule:evenodd;"
d="M 107.6250,54.2250
107.6250,50.8250
109.0250,50.8250
109.0250,54.2250
Z" /> 
</g>
<g style="fill:#4D7FC4; fill-opacity:1.0000; stroke:none;">
<circle cx="81.0250" cy="57.5250" r="0.8000" /> 
<circle cx="79.0250" cy="57.5250" r="0.8000" /> 
<path style="fill:#4D7FC4; fill-opacity:1.0000; stroke:none;fill-rule:evenodd;"
d="M 74.4750,67.1750
74.4750,65.8750
75.4750,65.8750
75.4750,67.1750
Z" /> 
<path style="fill:#4D7FC4; fill-opacity:1.0000; stroke:none;fill-rule:evenodd;"
d="M 72.5750,67.1750
72.5750,65.8750
73.5750,65.8750
73.5750,67.1750
Z" /> 
<path style="fill:#4D7FC4; fill-opacity:1.0000; stroke:none;fill-rule:evenodd;"
d="M 86.4750,67.1750
86.4750,65.8750
87.4750,65.8750
87.4750,67.1750
Z" /> 
<path style="fill:#4D7FC4; fill-opacity:1.0000; stroke:none;fill-rule:evenodd;"
d="M 84.5750,67.1750
84.5750,65.8750
85.5750,65.8750
85.5750,67.1750
Z" /> 
<path style="fill:#4D7FC4; fill-opacity:1.0000; stroke:none;fill-rule:evenodd;"
d="M 65.4750,42.6750
65.4750,41.3750
66.4750,41.3750
66.4750,42.6750
Z" /> 
<path style="fill:#4D7FC4; fill-opacity:1.0000; stroke:none;fill-rule:evenodd;"
d="M 63.5750,42.6750
63.5750,41.3750
64.5750,41.3750
64.5750,42.6750
Z" /> 
<path style="fill:#4D7FC4; fill-opacity:1.0000; stroke:none;fill-rule:evenodd;"
d="M 69.9750,42.6750
69.9750,41.3750
70.9750,41.3750
70.9750,42.6750
Z" /> 
<path style="fill:#4D7FC4; fill-opacity:1.0000; stroke:none;fill-rule:evenodd;"
d="M 68.0750,42.6750
68.0750,41.3750
69.0750,41.3750
69.0750,42.6750
Z" /> 
<path style="fill:#4D7FC4; fill-opacity:1.0000; stroke:none;fill-rule:evenodd;"
d="M 92.4750,42.6750
92.4750,41.3750
93.4750,41.3750
93.4750,42.6750
Z" /> 
<path style="fill:#4D7FC4; fill-opacity:1.0000; stroke:none;fill-rule:evenodd;"
d="M 90.5750,42.6750
90.5750,41.3750
91.5750,41.3750
91.5750,42.6750
Z" /> 
<path style="fill:#4D7FC4; fill-opacity:1.0000; stroke:none;fill-rule:evenodd;"
d="M 25.4750,65.6750
25.4750,64.3750
26.4750,64.3750
26.4750,65.6750
Z" /> 
<path style="fill:#4D7FC4; fill-opacity:1.0000; stroke:none;fill-rule:evenodd;"
d="M 23.5750,65.6750
23.5750,64.3750
24.5750,64.3750
24.5750,65.6750
Z" /> 
<path style="fill:#4D7FC4; fill-opacity:1.0000; stroke:none;fill-rule:evenodd;"
d="M 32.4750,65.6750
32.4750,64.3750
33.4750,64.3750
33.4750,65.6750
Z" /> 
<path style="fill:#4D7FC4; fill-opacity:1.0000; stroke:none;fill-rule:evenodd;"
d="M 30.5750,65.6750
30.5750,64.3750
31.5750,64.3750
31.5750,65.6750
Z" /> 
<path style="fill:#4D7FC4; fill-opacity:1.0000; stroke:none;fill-rule:evenodd;"
d="M 43.4750,46.6750
43.4750,45.3750
44.4750,45.3750
44.4750,46.6750
Z" /> 
<path style="fill:#4D7FC4; fill-opacity:1.0000; stroke:none;fill-rule:evenodd;"
d="M 41.5750,46.6750
41.5750,45.3750
42.5750,45.3750
42.5750,46.6750
Z" /> 
<path style="fill:#4D7FC4; fill-opacity:1.0000; stroke:none;fill-rule:evenodd;"
d="M 48.4750,46.6750
48.4750,45.3750
49.4750,45.3750
49.4750,46.6750
Z" /> 
<path style="fill:#4D7FC4; fill-opacity:1.0000; stroke:none;fill-rule:evenodd;"
d="M 46.5750,46.6750
46.5750,45.3750
47.5750,45.3750
47.5750,46.6750
Z" /> 
<path style="fill:#4D7FC4; fill-opacity:1.0000; stroke:none;fill-rule:evenodd;"
d="M 53.4750,46.6750
53.4750,45.3750
54.4750,45.3750
54.4750,46.6750
Z" /> 
<path style="fill:#4D7FC4; fill-opacity:1.0000; stroke:none;fill-rule:evenodd;"
d="M 51.5750,46.6750
51.5750,45.3750
52.5750,45.3750
52.5750,46.6750
Z" /> 
<path style="fill:#4D7FC4; fill-opacity:1.0000; stroke:none;fill-rule:evenodd;"
d="M 58.4750,46.6750
58.4750,45.3750
59.4750,45.3750
59.4750,46.6750
Z" /> 
<path style="fill:#4D7FC4; fill-opacity:1.0000; stroke:none;fill-rule:evenodd;"
d="M 56.5750,46.6750
56.5750,45.3750
57.5750,45.3750
57.5750,46.6750
Z" /> 
<path style="fill:#4D7FC4; fill-opacity:1.0000; stroke:none;fill-rule:evenodd;"
d="M 63.4750,46.6750
63.4750,45.3750
64.4750,45.3750
64.4750,46.6750
Z" /> 
<path style="fill:#4D7FC4; fill-opacity:1.0000; stroke:none;fill-rule:evenodd;"
d="M 61.5750,46.6750
61.5750,45.3750
62.5750,45.3750
62.5750,46.6750
Z" /> 
<path style="fill:#4D7FC4; fill-opacity:1.0000; stroke:none;fill-rule:evenodd;"
d="M 68.4750,46.6750
68.4750,45.3750
69.4750,45.3750
69.4750,46.6750
Z" /> 
<path style="fill:#4D7FC4; fill-opacity:1.0000; stroke:none;fill-rule:evenodd;"
d="M 66.5750,46.6750
66.5750,45.3750
67.5750,45.3750
67.5750,46.6750
Z" /> 
<path style="fill:#4D7FC4; fill-opacity:1.0000; stroke:none;fill-rule:evenodd;"
d="M 73.4750,46.6750
73.4750,45.3750
74.4750,45.3750
74.4750,46.6750
Z" /> 
<path style="fill:#4D7FC4; fill-opacity:1.0000; stroke:none;fill-rule:evenodd;"
d="M 71.5750,46.6750
71.5750,45.3750
72.5750,45.3750
72.5750,46.6750
Z" /> 
<path style="fill:#4D7FC4; fill-opacity:1.0000; stroke:none;fill-rule:evenodd;"
d="M 78.4750,46.6750
78.4750,45.3750
79.4750,45.3750
79.4750,46.6750
Z" /> 
<path style="fill:#4D7FC4; fill-opacity:1.0000; stroke:none;fill-rule:evenodd;"
d="M 76.5750,46.6750
76.5750,45.3750
77.5750,45.3750
77.5750,46.6750
Z" /> 
<path style="fill:#4D7FC4; fill-opacity:1.0000; stroke:none;fill-rule:evenodd;"
d="M 83.4750,46.6750
83.4750,45.3750
84.4750,45.3750
84.4750,46.6750
Z" /> 
<path style="fill:#4D7FC4; fill-opacity:1.0000; stroke:none;fill-rule:evenodd;"
d="M 81.5750,46.6750
81.5750,45.3750
82.5750,45.3750
82.5750,46.6750
Z" /> 
<path style="fill:#4D7FC4; fill-opacity:1.0000; stroke:none;fill-rule:evenodd;"
d="M 88.4750,46.6750
88.4750,45.3750
89.4750,45.3750
89.4750,46.6750
Z" /> 
<path style="fill:#4D7FC4; fill-opacity:1.0000; stroke:none;fill-rule:evenodd;"
d="M 86.5750,46.6750
86.5750,45.3750
87.5750,45.3750
87.5750,46.6750
Z" /> 
<path style="fill:#4D7FC4; fill-opacity:1.0000; stroke:none;fill-rule:evenodd;"
d="M 93.4750,46.6750
93.4750,45.3750
94.4750,45.3750
94.4750,46.6750
Z" /> 
<path style="fill:#4D7FC4; fill-opacity:1.0000; stroke:none;fill-rule:evenodd;"
d="M 91.5750,46.6750
91.5750,45.3750
92.5750,45.3750
92.5750,46.6750
Z" /> 
<path style="fill:#4D7FC4; fill-opacity:1.0000; stroke:none;fill-rule:evenodd;"
d="M 98.4750,46.6750
98.4750,45.3750
99.4750,45.3750
99.4750,46.6750
Z" /> 
<path style="fill:#4D7FC4; fill-opacity:1.0000; stroke:none;fill-rule:evenodd;"
d="M 96.5750,46.6750
96.5750,45.3750
97.5750,45.3750
97.5750,46.6750
Z" /> 
<path style="fill:#4D7FC4; fill-opacity:1.0000; stroke:none;fill-rule:evenodd;"
d="M 103.4750,46.6750
103.4750,45.3750
104.4750,45.3750
104.4750,46.6750
Z" /> 
<path style="fill:#4D7FC4; fill-opacity:1.0000; stroke:none;fill-rule:evenodd;"
d="M 101.5750,46.6750
101.5750,45.3750
102.5750,45.3750
102.5750,46.6750
Z" /> 
<path style="fill:#4D7FC4; fill-opacity:1.0000; stroke:none;fill-rule:evenodd;"
d="M 115.4750,53.1750
115.4750,51.8750
116.4750,51.8750
116.4750,53.1750
Z" /> 
<path style="fill:#4D7FC4; fill-opacity:1.0000; stroke:none;fill-rule:evenodd;"
d="M 113.5750,53.1750
113.5750,51.8750
114.5750,51.8750
114.5750,53.1750
Z" /> 
<path style="fill:#4D7FC4; fill-opacity:1.0000; stroke:none;fill-rule:evenodd;"
d="M 43.4750,50.6750
43.4750,49.3750
44.4750,49.3750
44.4750,50.6750
Z" /> 
<path style="fill:#4D7FC4; fill-opacity:1.0000; stroke:none;fill-rule:evenodd;"
d="M 41.5750,50.6750
41.5750,49.3750
42.5750,49.3750
42.5750,50.6750
Z" /> 
<path style="fill:#4D7FC4; fill-opacity:1.0000; stroke:none;fill-rule:evenodd;"
d="M 48.4750,50.6750
48.4750,49.3750
49.4750,49.3750
49.4750,50.6750
Z" /> 
<path style="fill:#4D7FC4; fill-opacity:1.0000; stroke:none;fill-rule:evenodd;"
d="M 46.5750,50.6750
46.5750,49.3750
47.5750,49.3750
47.5750,50.6750
Z" /> 
<path style="fill:#4D7FC4; fill-opacity:1.0000; stroke:none;fill-rule:evenodd;"
d="M 53.4750,50.6750
53.4750,49.3750
54.4750,49.3750
54.4750,50.6750
Z" /> 
<path style="fill:#4D7FC4; fill-opacity:1.0000; stroke:none;fill-rule:evenodd;"
d="M 51.5750,50.6750
51.5750,49.3750
52.5750,49.3750
52.5750,50.6750
Z" /> 
<path style="fill:#4D7FC4; fill-opacity:1.0000; stroke:none;fill-rule:evenodd;"
d="M 58.4750,50.6750
58.4750,49.3750
59.4750,49.3750
59.4750,50.6750
Z" /> 
<path style="fill:#4D7FC4; fill-opacity:1.0000; stroke:none;fill-rule:evenodd;"
d="M 56.5750,50.6750
56.5750,49.3750
57.5750,49.3750
57.5750,50.6750
Z" /> 
<path style="fill:#4D7FC4; fill-opacity:1.0000; stroke:none;fill-rule:evenodd;"
d="M 63.4750,50.6750
63.4750,49.3750
64.4750,49.3750
64.4750,50.6750
Z" /> 
<path style="fill:#4D7FC4; fill-opacity:1.0000; stroke:none;fill-rule:evenodd;"
d="M 61.5750,50.6750
61.5750,49.3750
62.5750,49.3750
62.5750,50.6750
Z" /> 
<path style="fill:#4D7FC4; fill-opacity:1.0000; stroke:none;fill-rule:evenodd;"
d="M 68.4750,50.6750
68.4750,49.3750
69.4750,49.3750
69.4750,50.6750
Z" /> 
<path style="fill:#4D7FC4; fill-opacity:1.0000; stroke:none;fill-rule:evenodd;"
d="M 66.5750,50.6750
66.5750,49.3750
67.5750,49.3750
67.5750,50.6750
Z" /> 
<path style="fill:#4D7FC4; fill-opacity:1.0000; stroke:none;fill-rule:evenodd;"
d="M 73.4750,50.6750
73.4750,49.3750
74.4750,49.3750
74.4750,50.6750
Z" /> 
<path style="fill:#4D7FC4; fill-opacity:1.0000; stroke:none;fill-rule:evenodd;"
d="M 71.5750,50.6750
71.5750,49.3750
72.5750,49.3750
72.5750,50.6750
Z" /> 
<path style="fill:#4D7FC4; fill-opacity:1.0000; stroke:none;fill-rule:evenodd;"
d="M 78.4750,50.6750
78.4750,49.3750
79.4750,49.3750
79.4750,50.6750
Z" /> 
<path style="fill:#4D7FC4; fill-opacity:1.0000; stroke:none;fill-rule:evenodd;"
d="M 76.5750,50.6750
76.5750,49.3750
77.5750,49.3750
77.5750,50.6750
Z" /> 
<path style="fill:#4D7FC4; fill-opacity:1.0000; stroke:none;fill-rule:evenodd;"
d="M 83.4750,50.6750
83.4750,49.3750
84.4750,49.3750
84.4750,50.6750
Z" /> 
<path style="fill:#4D7FC4; fill-opacity:1.0000; stroke:none;fill-rule:evenodd;"
d="M 81.5750,50.6750
81.5750,49.3750
82.5750,49.3750
82.5750,50.6750
Z" /> 
<path style="fill:#4D7FC4; fill-opacity:1.0000; stroke:none;fill-rule:evenodd;"
d="M 88.4750,50.6750
88.4750,49.3750
89.4750,49.3750
89.4750,50.6750
Z" /> 
<path style="fill:#4D7FC4; fill-opacity:1.0000; stroke:none;fill-rule:evenodd;"
d="M 86.5750,50.6750
86.5750,49.3750
87.5750,49.3750
87.5750,50.6750
Z" /> 
<path style="fill:#4D7FC4; fill-opacity:1.0000; stroke:none;fill-rule:evenodd;"
d="M 93.4750,50.6750
93.4750,49.3750
94.4750,49.3750
94.4750,50.6750
Z" /> 
<path style="fill:#4D7FC4; fill-opacity:1.0000; stroke:none;fill-rule:evenodd;"
d="M 91.5750,50.6750
91.5750,49.3750
92.5750,49.3750
92.5750,50.6750
Z" /> 
<path style="fill:#4D7FC4; fill-opacity:1.0000; stroke:none;fill-rule:evenodd;"
d="M 98.4750,50.6750
98.4750,49.3750
99.4750,49.3750
99.4750,50.6750
Z" /> 
<path style="fill:#4D7FC4; fill-opacity:1.0000; stroke:none;fill-rule:evenodd;"
d="M 96.5750,50.6750
96.5750,49.3750
97.5750,49.3750
97.5750,50.6750
Z" /> 
<path style="fill:#4D7FC4; fill-opacity:1.0000; stroke:none;fill-rule:evenodd;"
d="M 103.4750,50.6750
103.4750,49.3750
104.4750,49.3750
104.4750,50.6750
Z" /> 
<path style="fill:#4D7FC4; fill-opacity:1.0000; stroke:none;fill-rule:evenodd;"
d="M 101.5750,50.6750
101.5750,49.3750
102.5750,49.3750
102.5750,50.6750
Z" /> 
<path style="fill:#4D7FC4; fill-opacity:1.0000; stroke:none;fill-rule:evenodd;"
d="M 110.4750,35.6750
110.4750,34.3750
111.4750,34.3750
111.4750,35.6750
Z" /> 
<path style="fill:#4D7FC4; fill-opacity:1.0000; stroke:none;fill-rule:evenodd;"
d="M 108.5750,35.6750
108.5750,34.3750
109.5750,34.3750
109.5750,35.6750
Z" /> 
<path style="fill:#4D7FC4; fill-opacity:1.0000; stroke:none;fill-rule:evenodd;"
d="M 118.4750,55.6750
118.4750,54.3750
119.4750,54.3750
119.4750,55.6750
Z" /> 
<path style="fill:#4D7FC4; fill-opacity:1.0000; stroke:none;fill-rule:evenodd;"
d="M 116.5750,55.6750
116.5750,54.3750
117.5750,54.3750
117.5750,55.6750
Z" /> 
<path style="fill:#4D7FC4; fill-opacity:1.0000; stroke:none;fill-rule:evenodd;"
d="M 110.9250,59.4250
110.9250,57.6250
112.1250,57.6250
112.1250,59.4250
Z" /> 
<path style="fill:#4D7FC4; fill-opacity:1.0000; stroke:none;fill-rule:evenodd;"
d="M 107.9250,59.4250
107.9250,57.6250
109.1250,57.6250
109.1250,59.4250
Z" /> 
<path style="fill:#4D7FC4; fill-opacity:1.0000; stroke:none;fill-rule:evenodd;"
d="M 32.5500,19.5750
32.5500,18.5750
33.8500,18.5750
33.8500,19.5750
Z" /> 
<path style="fill:#4D7FC4; fill-opacity:1.0000; stroke:none;fill-rule:evenodd;"
d="M 32.5500,21.4750
32.5500,20.4750
33.8500,20.4750
33.8500,21.4750
Z" /> 
<path style="fill:#4D7FC4; fill-opacity:1.0000; stroke:none;fill-rule:evenodd;"
d="M 38.4750,27.4750
38.4750,26.1750
39.4750,26.1750
39.4750,27.4750
Z" /> 
<path style="fill:#4D7FC4; fill-opacity:1.0000; stroke:none;fill-rule:evenodd;"
d="M 36.5750,27.4750
36.5750,26.1750
37.5750,26.1750
37.5750,27.4750
Z" /> 
<path style="fill:#4D7FC4; fill-opacity:1.0000; stroke:none;fill-rule:evenodd;"
d="M 38.4750,32.8750
38.4750,31.5750
39.4750,31.5750
39.4750,32.8750
Z" /> 
<path style="fill:#4D7FC4; fill-opacity:1.0000; stroke:none;fill-rule:evenodd;"
d="M 36.5750,32.8750
36.5750,31.5750
37.5750,31.5750
37.5750,32.8750
Z" /> 
<path style="fill:#4D7FC4; fill-opacity:1.0000; stroke:none;fill-rule:evenodd;"
d="M 38.4750,24.1750
38.4750,22.8750
39.4750,22.8750
39.4750,24.1750
Z" /> 
<path style="fill:#4D7FC4; fill-opacity:1.0000; stroke:none;fill-rule:evenodd;"
d="M 36.5750,24.1750
36.5750,22.8750
37.5750,22.8750
37.5750,24.1750
Z" /> 
<path style="fill:#4D7FC4; fill-opacity:1.0000; stroke:none;fill-rule:evenodd;"
d="M 37.3750,29.0750
37.3750,28.0750
38.6750,28.0750
38.6750,29.0750
Z" /> 
<path style="fill:#4D7FC4; fill-opacity:1.0000; stroke:none;fill-rule:evenodd;"
d="M 37.3750,30.9750
37.3750,29.9750
38.6750,29.9750
38.6750,30.9750
Z" /> 
<path style="fill:#4D7FC4; fill-opacity:1.0000; stroke:none;fill-rule:evenodd;"
d="M 28.7400,21.5750
28.7400,20.5750
30.0400,20.5750
30.0400,21.5750
Z" /> 
<path style="fill:#4D7FC4; fill-opacity:1.0000; stroke:none;fill-rule:evenodd;"
d="M 28.7400,23.4750
28.7400,22.4750
30.0400,22.4750
30.0400,23.4750
Z" /> 
<path style="fill:#4D7FC4; fill-opacity:1.0000; stroke:none;fill-rule:evenodd;"
d="M 30.8750,37.0750
30.8750,36.0750
32.1750,36.0750
32.1750,37.0750
Z" /> 
<path style="fill:#4D7FC4; fill-opacity:1.0000; stroke:none;fill-rule:evenodd;"
d="M 30.8750,38.9750
30.8750,37.9750
32.1750,37.9750
32.1750,38.9750
Z" /> 
<path style="fill:#4D7FC4; fill-opacity:1.0000; stroke:none;fill-rule:evenodd;"
d="M 122.4750,49.1750
122.4750,47.8750
123.4750,47.8750
123.4750,49.1750
Z" /> 
<path style="fill:#4D7FC4; fill-opacity:1.0000; stroke:none;fill-rule:evenodd;"
d="M 120.5750,49.1750
120.5750,47.8750
121.5750,47.8750
121.5750,49.1750
Z" /> 
<path style="fill:#4D7FC4; fill-opacity:1.0000; stroke:none;fill-rule:evenodd;"
d="M 125.9250,63.4250
125.9250,61.6250
127.1250,61.6250
127.1250,63.4250
Z" /> 
<path style="fill:#4D7FC4; fill-opacity:1.0000; stroke:none;fill-rule:evenodd;"
d="M 122.9250,63.4250
122.9250,61.6250
124.1250,61.6250
124.1250,63.4250
Z" /> 
<circle cx="82.0250" cy="61.0250" r="0.4500" /> 
<circle cx="111.0250" cy="40.1200" r="0.4500" /> 
<circle cx="112.4250" cy="45.5250" r="0.4500" /> 
<circle cx="127.3250" cy="60.6750" r="0.4500" /> 
<circle cx="77.0250" cy="57.5250" r="0.4500" /> 
<circle cx="76.8250" cy="67.4250" r="0.2300" /> 
<circle cx="80.0250" cy="35.0250" r="0.2300" /> 
<circle cx="141.0850" cy="61.7490" r="0.2300" /> 
<circle cx="143.2850" cy="61.7490" r="0.2300" /> 
<circle cx="148.7850" cy="62.5990" r="0.2300" /> 
<circle cx="131.2650" cy="72.3010" r="0.2300" /> 
<circle cx="107.5250" cy="39.1200" r="0.4500" /> 
<circle cx="122.7250" cy="56.6750" r="0.4500" /> 
<circle cx="112.4250" cy="49.5250" r="0.4500" /> 
<circle cx="115.9750" cy="54.5250" r="0.4500" /> 
<circle cx="125.0250" cy="49.3750" r="0.4500" /> 
<circle cx="88.7750" cy="21.0350" r="0.2300" /> 
<circle cx="105.5250" cy="46.1600" r="0.4500" /> 
<circle cx="80.5250" cy="46.1600" r="0.4500" /> 
<circle cx="39.2750" cy="68.3250" r="0.4500" /> 
<circle cx="38.0250" cy="46.1600" r="0.4500" /> 
<circle cx="80.6600" cy="38.1400" r="0.2300" /> 
<circle cx="101.0250" cy="38.1400" r="0.2550" /> 
<circle cx="110.0250" cy="38.1400" r="0.2550" /> 
<circle cx="124.0250" cy="38.1400" r="0.2300" /> 
<circle cx="124.0250" cy="5.0250" r="0.2300" /> 
<circle cx="140.4250" cy="5.0250" r="0.2300" /> 
<circle cx="78.1200" cy="36.8700" r="0.2300" /> 
<circle cx="101.5750" cy="36.8700" r="0.2550" /> 
<circle cx="108.2250" cy="36.8700" r="0.2550" /> 
<circle cx="122.9250" cy="36.8700" r="0.2300" /> 
<circle cx="122.9250" cy="6.0250" r="0.2300" /> 
<circle cx="139.7250" cy="6.0250" r="0.2300" /> 
<circle cx="85.7400" cy="35.6000" r="0.2300" /> 
<circle cx="102.3650" cy="35.6000" r="0.2550" /> 
<circle cx="107.6850" cy="35.6000" r="0.2550" /> 
<circle cx="121.8250" cy="35.6000" r="0.2300" /> 
<circle cx="121.8250" cy="7.0250" r="0.2300" /> 
<circle cx="139.0250" cy="7.0250" r="0.2300" /> 
<circle cx="87.0100" cy="34.3300" r="0.2300" /> 
<circle cx="120.7250" cy="34.3300" r="0.2300" /> 
<circle cx="120.7250" cy="8.0250" r="0.2300" /> 
<circle cx="138.3250" cy="8.0250" r="0.2300" /> 
<circle cx="79.3900" cy="33.0600" r="0.2300" /> 
<circle cx="119.6250" cy="33.0600" r="0.2300" /> 
<circle cx="119.6250" cy="9.0250" r="0.2300" /> 
<circle cx="137.6250" cy="9.0250" r="0.2300" /> 
<circle cx="90.7750" cy="26.0750" r="0.2300" /> 
<circle cx="118.5250" cy="26.0750" r="0.2300" /> 
<circle cx="118.5250" cy="10.0250" r="0.2300" /> 
<circle cx="136.9250" cy="10.0250" r="0.2300" /> 
<circle cx="90.7750" cy="27.3450" r="0.2300" /> 
<circle cx="117.4250" cy="27.3450" r="0.2300" /> 
<circle cx="117.4250" cy="11.0250" r="0.2300" /> 
<circle cx="136.2250" cy="11.0250" r="0.2300" /> 
<circle cx="90.7750" cy="28.6150" r="0.2300" /> 
<circle cx="116.3250" cy="28.6150" r="0.2300" /> 
<circle cx="116.3250" cy="12.0250" r="0.2300" /> 
<circle cx="135.5250" cy="12.0250" r="0.2300" /> 
<circle cx="90.7750" cy="29.8850" r="0.2300" /> 
<circle cx="115.2250" cy="29.8850" r="0.2300" /> 
<circle cx="115.2250" cy="13.0250" r="0.2300" /> 
<circle cx="134.8250" cy="13.0250" r="0.2300" /> 
<circle cx="90.7750" cy="36.2350" r="0.2300" /> 
<circle cx="99.5250" cy="36.2350" r="0.2550" /> 
<circle cx="111.5250" cy="36.2350" r="0.2550" /> 
<circle cx="114.1250" cy="36.2350" r="0.2300" /> 
<circle cx="114.1250" cy="14.0250" r="0.2300" /> 
<circle cx="134.1250" cy="14.0250" r="0.2300" /> 
<circle cx="84.4700" cy="31.7900" r="0.2300" /> 
<circle cx="113.0250" cy="31.7900" r="0.2300" /> 
<circle cx="113.0250" cy="15.0250" r="0.2300" /> 
<circle cx="131.0250" cy="15.0250" r="0.2300" /> 
<circle cx="83.2000" cy="20.5250" r="0.2300" /> 
<circle cx="111.9250" cy="20.5250" r="0.2300" /> 
<circle cx="111.9250" cy="16.0250" r="0.2300" /> 
<circle cx="131.7250" cy="16.0250" r="0.2300" /> 
<circle cx="81.9300" cy="19.5250" r="0.2300" /> 
<circle cx="110.8250" cy="19.5250" r="0.2300" /> 
<circle cx="110.8250" cy="17.0250" r="0.2300" /> 
<circle cx="132.4250" cy="17.0250" r="0.2300" /> 
<circle cx="73.0400" cy="27.9800" r="0.2300" /> 
<circle cx="109.7250" cy="27.9800" r="0.2300" /> 
<circle cx="109.7250" cy="18.0250" r="0.2300" /> 
<circle cx="133.1250" cy="18.0250" r="0.2300" /> 
<circle cx="133.6250" cy="25.2750" r="0.2250" /> 
<circle cx="133.6250" cy="27.4250" r="0.2250" /> 
<circle cx="133.6250" cy="28.2750" r="0.2250" /> 
<circle cx="133.1250" cy="43.2750" r="0.2300" /> 
<circle cx="143.5250" cy="43.2750" r="0.2300" /> 
<circle cx="143.5250" cy="50.2750" r="0.2300" /> 
<circle cx="133.6250" cy="37.7750" r="0.2250" /> 
<circle cx="133.6250" cy="26.2750" r="0.2250" /> 
<circle cx="132.0250" cy="50.2750" r="0.2300" /> 
<circle cx="72.2250" cy="36.2350" r="0.2300" /> 
<circle cx="75.0250" cy="36.2350" r="0.2300" /> 
<circle cx="75.0250" cy="1.5250" r="0.2300" /> 
<circle cx="141.2250" cy="1.5250" r="0.2300" /> 
<circle cx="141.2250" cy="66.0250" r="0.2300" /> 
<circle cx="139.9850" cy="66.0250" r="0.2300" /> 
<circle cx="72.2250" cy="34.9650" r="0.2300" /> 
<circle cx="76.0250" cy="34.9650" r="0.2300" /> 
<circle cx="76.0250" cy="2.2250" r="0.2300" /> 
<circle cx="145.6250" cy="2.2250" r="0.2300" /> 
<circle cx="145.6250" cy="67.5250" r="0.2300" /> 
<circle cx="144.3850" cy="67.5250" r="0.2300" /> 
<circle cx="72.2250" cy="33.6950" r="0.2300" /> 
<circle cx="77.0250" cy="33.6950" r="0.2300" /> 
<circle cx="77.0250" cy="2.9250" r="0.2300" /> 
<circle cx="152.5250" cy="2.9250" r="0.2300" /> 
<circle cx="152.5250" cy="70.5250" r="0.2300" /> 
<circle cx="142.1850" cy="70.5250" r="0.2300" /> 
<circle cx="72.2250" cy="32.4250" r="0.2300" /> 
<circle cx="78.0250" cy="32.4250" r="0.2300" /> 
<circle cx="78.0250" cy="3.6250" r="0.2300" /> 
<circle cx="153.5250" cy="3.6250" r="0.2300" /> 
<circle cx="153.5250" cy="72.0250" r="0.2300" /> 
<circle cx="138.8850" cy="72.0250" r="0.2300" /> 
<circle cx="87.7250" cy="18.0250" r="0.2300" /> 
<circle cx="33.2000" cy="18.0250" r="0.2300" /> 
<circle cx="24.5250" cy="22.5250" r="0.2300" /> 
<circle cx="39.5250" cy="22.5250" r="0.2300" /> 
<circle cx="28.1200" cy="23.7250" r="0.2300" /> 
<circle cx="20.5250" cy="23.7250" r="0.2300" /> 
<circle cx="31.9300" cy="28.8250" r="0.2300" /> 
<circle cx="29.3900" cy="28.7250" r="0.2300" /> 
<circle cx="26.8500" cy="24.8250" r="0.2300" /> 
<circle cx="26.8500" cy="34.3250" r="0.2300" /> 
<circle cx="31.9300" cy="34.3250" r="0.2300" /> 
<circle cx="38.9750" cy="25.3250" r="0.2300" /> 
<circle cx="33.2000" cy="32.2250" r="0.2300" /> 
<circle cx="37.0750" cy="32.2250" r="0.2300" /> 
<circle cx="38.9750" cy="33.7250" r="0.2300" /> 
<circle cx="38.9750" cy="24.5250" r="0.2300" /> 
<circle cx="31.9300" cy="25.8250" r="0.2300" /> 
<circle cx="38.0250" cy="25.8250" r="0.2300" /> 
<circle cx="38.0250" cy="30.9750" r="0.2300" /> 
<circle cx="29.3900" cy="20.5750" r="0.2300" /> 
<circle cx="31.5250" cy="38.9750" r="0.2300" /> 
<circle cx="80.6250" cy="66.1500" r="0.2300" /> 
<circle cx="90.2750" cy="66.1500" r="0.2300" /> 
<circle cx="79.7750" cy="64.9000" r="0.2300" /> 
<circle cx="91.7250" cy="64.9000" r="0.2300" /> 
<circle cx="78.2750" cy="72.5250" r="0.2300" /> 
<circle cx="86.9750" cy="72.5250" r="0.2300" /> 
<circle cx="73.0750" cy="65.5250" r="0.2300" /> 
<circle cx="85.0750" cy="64.0250" r="0.2300" /> 
<circle cx="22.2250" cy="21.6750" r="0.2300" /> 
<circle cx="22.2250" cy="62.0250" r="0.2300" /> 
<circle cx="67.4750" cy="62.0250" r="0.2300" /> 
<circle cx="67.4750" cy="31.1550" r="0.2300" /> 
<circle cx="69.2750" cy="31.1550" r="0.2300" /> 
<circle cx="16.0250" cy="25.8750" r="0.2300" /> 
<circle cx="22.9750" cy="39.6750" r="0.2300" /> 
<circle cx="22.9750" cy="63.2250" r="0.2300" /> 
<circle cx="65.5750" cy="63.2250" r="0.2300" /> 
<circle cx="65.5750" cy="29.8850" r="0.2300" /> 
<circle cx="69.2750" cy="29.8850" r="0.2300" /> 
<circle cx="16.0250" cy="43.8750" r="0.2300" /> 
<circle cx="13.2250" cy="30.6750" r="0.2300" /> 
<circle cx="13.2250" cy="64.4250" r="0.2300" /> 
<circle cx="62.4750" cy="64.4250" r="0.2300" /> 
<circle cx="62.4750" cy="28.6150" r="0.2300" /> 
<circle cx="69.2750" cy="28.6150" r="0.2300" /> 
<circle cx="7.5250" cy="34.8750" r="0.2300" /> 
<circle cx="34.2250" cy="30.6750" r="0.2300" /> 
<circle cx="34.2250" cy="65.6250" r="0.2300" /> 
<circle cx="58.5750" cy="65.6250" r="0.2300" /> 
<circle cx="58.5750" cy="24.8050" r="0.2300" /> 
<circle cx="69.2750" cy="24.8050" r="0.2300" /> 
<circle cx="25.5250" cy="34.8750" r="0.2300" /> 
<circle cx="130.3250" cy="20.6750" r="0.1750" /> 
<circle cx="130.3250" cy="66.8250" r="0.1750" /> 
<circle cx="52.4750" cy="66.8250" r="0.1750" /> 
<circle cx="52.4750" cy="23.5350" r="0.2300" /> 
<circle cx="69.2750" cy="23.5350" r="0.2300" /> 
<circle cx="143.5250" cy="24.8750" r="0.2300" /> 
<circle cx="142.8250" cy="30.6750" r="0.1750" /> 
<circle cx="142.8250" cy="68.0250" r="0.1750" /> 
<circle cx="45.4750" cy="68.0250" r="0.1750" /> 
<circle cx="45.4750" cy="41.5250" r="0.2300" /> 
<circle cx="73.2750" cy="41.5250" r="0.2300" /> 
<circle cx="154.0750" cy="34.8750" r="0.2300" /> 
<circle cx="129.8250" cy="40.6750" r="0.1750" /> 
<circle cx="129.8250" cy="69.2250" r="0.1750" /> 
<circle cx="36.4750" cy="69.2250" r="0.1750" /> 
<circle cx="36.4750" cy="42.7250" r="0.2300" /> 
<circle cx="73.5800" cy="42.7250" r="0.2300" /> 
<circle cx="143.5250" cy="44.8750" r="0.2300" /> 
<circle cx="129.3250" cy="30.6750" r="0.1750" /> 
<circle cx="129.3250" cy="70.4250" r="0.1750" /> 
<circle cx="27.4750" cy="70.4250" r="0.1750" /> 
<circle cx="27.4750" cy="43.9250" r="0.2300" /> 
<circle cx="74.8500" cy="43.9250" r="0.2300" /> 
<circle cx="140.0250" cy="49.0250" r="0.2300" /> 
<circle cx="12.2250" cy="52.6750" r="0.2300" /> 
<circle cx="12.2250" cy="71.6250" r="0.2300" /> 
<circle cx="100.4750" cy="71.6250" r="0.2300" /> 
<circle cx="100.4750" cy="34.9650" r="0.2300" /> 
<circle cx="90.7750" cy="34.9650" r="0.2300" /> 
<circle cx="6.5250" cy="56.8750" r="0.2300" /> 
<circle cx="34.9750" cy="52.6750" r="0.2300" /> 
<circle cx="34.9750" cy="72.8250" r="0.2300" /> 
<circle cx="60.4750" cy="72.8250" r="0.2300" /> 
<circle cx="60.4750" cy="45.1250" r="0.2300" /> 
<circle cx="73.2750" cy="45.1250" r="0.2300" /> 
<circle cx="26.5250" cy="56.8750" r="0.2300" /> 
<circle cx="16.8750" cy="73.5550" r="0.2300" /> 
<circle cx="68.0250" cy="73.5550" r="0.2300" /> 
<circle cx="68.0250" cy="37.5050" r="0.2300" /> 
<circle cx="14.6750" cy="8.5250" r="0.2300" /> 
<circle cx="146.8750" cy="65.4250" r="0.2300" /> 
<circle cx="76.2250" cy="65.4250" r="0.2300" /> 
<circle cx="76.2250" cy="45.0250" r="0.2300" /> 
<circle cx="65.0250" cy="42.1250" r="0.2300" /> 
<circle cx="144.6750" cy="8.5250" r="0.2300" /> 
<circle cx="41.8250" cy="44.5250" r="0.2300" /> 
<circle cx="46.8250" cy="44.5250" r="0.2300" /> 
<circle cx="51.8250" cy="44.5250" r="0.2300" /> 
<circle cx="56.8250" cy="44.5250" r="0.2300" /> 
<circle cx="61.8250" cy="44.5250" r="0.2300" /> 
<circle cx="66.8250" cy="44.5250" r="0.2300" /> 
<circle cx="71.8250" cy="47.5250" r="0.2300" /> 
<circle cx="76.9750" cy="44.5250" r="0.2300" /> 
<circle cx="81.8250" cy="44.5250" r="0.2300" /> 
<circle cx="86.8250" cy="44.5250" r="0.2300" /> 
<circle cx="92.2250" cy="44.5250" r="0.2300" /> 
<circle cx="96.8250" cy="44.5250" r="0.2300" /> 
<circle cx="101.8250" cy="44.5250" r="0.2300" /> 
<circle cx="41.8250" cy="52.0250" r="0.2300" /> 
<circle cx="46.8250" cy="52.0250" r="0.2300" /> 
<circle cx="51.8250" cy="52.0250" r="0.2300" /> 
<circle cx="56.8250" cy="52.0250" r="0.2300" /> 
<circle cx="61.8250" cy="52.0250" r="0.2300" /> 
<circle cx="66.8250" cy="52.0250" r="0.2300" /> 
<circle cx="71.8250" cy="52.0250" r="0.2300" /> 
<circle cx="76.9750" cy="52.0250" r="0.2300" /> 
<circle cx="81.8250" cy="52.0250" r="0.2300" /> 
<circle cx="86.8250" cy="52.0250" r="0.2300" /> 
<circle cx="92.2250" cy="52.0250" r="0.2300" /> 
<circle cx="96.8250" cy="52.0250" r="0.2300" /> 
<circle cx="101.8250" cy="52.0250" r="0.2300" /> 
<circle cx="70.4750" cy="44.5250" r="0.2300" /> 
<circle cx="68.5750" cy="40.0250" r="0.2300" /> 
<circle cx="92.9750" cy="40.6250" r="0.2300" /> 
<circle cx="91.0750" cy="40.0250" r="0.2300" /> 
<circle cx="122.9750" cy="46.0250" r="0.2300" /> 
<circle cx="121.0750" cy="46.0250" r="0.2300" /> 
<circle cx="123.5250" cy="64.5250" r="0.2300" /> 
<circle cx="110.9750" cy="33.6750" r="0.2300" /> 
<circle cx="109.0750" cy="37.5250" r="0.2300" /> 
<circle cx="118.9750" cy="52.5250" r="0.2300" /> 
<circle cx="117.0750" cy="57.5250" r="0.2300" /> 
<circle cx="113.0250" cy="56.5250" r="0.2300" /> 
<circle cx="108.5250" cy="59.5250" r="0.2300" /> 
<circle cx="25.9750" cy="62.6750" r="0.2300" /> 
<circle cx="24.0750" cy="66.2750" r="0.4000" /> 
<circle cx="26.6750" cy="67.5250" r="0.2300" /> 
<circle cx="32.9750" cy="62.6750" r="0.2300" /> 
<circle cx="31.0750" cy="66.2750" r="0.4000" /> 
<circle cx="33.6750" cy="67.5250" r="0.2300" /> 
</g>
<g style="fill:none; 
stroke:#4D7FC4; stroke-width:0.5000; stroke-opacity:1; 
stroke-linecap:round; stroke-linejoin:round;">
<path d="M82.4250 69.1500
L82.0250 69.1500
" />
<path d="M82.0250 69.1500
L82.0250 61.0250
" />
<path d="M111.0250 40.1200
L111.0250 40.6200
" />
<path d="M111.0250 40.6200
L113.0250 40.6200
" />
<path d="M76.8250 69.1500
L76.8250 67.4250
" />
<path d="M110.0250 42.5250
L110.0250 43.5250
" />
<path d="M110.0250 43.5250
L112.4250 43.5250
" />
<path d="M112.4250 43.5250
L112.4250 45.5250
" />
<path d="M127.3250 58.6750
L127.3250 60.6750
" />
</g>
<g style="fill:none; 
stroke:#4D7FC4; stroke-width:0.3000; stroke-opacity:1; 
stroke-linecap:round; stroke-linejoin:round;">
<path d="M81.5250 29.9850
L80.0250 29.9850
" />
</g>
<g style="fill:none; 
stroke:#4D7FC4; stroke-width:0.5000; stroke-opacity:1; 
stroke-linecap:round; stroke-linejoin:round;">
<path d="M80.0250 29.9850
L80.0250 35.0250
" />
<path d="M79.0250 57.5250
L77.0250 57.5250
" />
</g>
<g style="fill:none; 
stroke:#4D7FC4; stroke-width:0.3000; stroke-opacity:1; 
stroke-linecap:round; stroke-linejoin:round;">
<path d="M147.7850 62.5990
L148.7850 62.5990
" />
<path d="M132.2650 72.3010
L131.2650 72.3010
" />
</g>
<g style="fill:none; 
stroke:#4D7FC4; stroke-width:0.5000; stroke-opacity:1; 
stroke-linecap:round; stroke-linejoin:round;">
<path d="M107.0250 40.6200
L107.5250 40.6200
" />
<path d="M107.5250 40.6200
L107.5250 39.1200
" />
<path d="M122.7250 58.6750
L122.7250 56.6750
" />
<path d="M107.0250 41.8900
L104.5250 41.8900
" />
<path d="M104.5250 41.8900
L104.5250 52.5250
" />
<path d="M104.5250 52.5250
L108.3250 52.5250
" />
<path d="M111.7250 52.5250
L111.7250 49.5250
" />
<path d="M111.7250 49.5250
L112.4250 49.5250
" />
</g>
<g style="fill:none; 
stroke:#4D7FC4; stroke-width:0.2500; stroke-opacity:1; 
stroke-linecap:round; stroke-linejoin:round;">
<path d="M114.0750 52.5250
L114.0750 46.6300
" />
<path d="M114.0750 46.6300
L107.0250 46.6300
" />
<path d="M107.0250 46.6300
L107.0250 44.4300
" />
<path d="M115.9750 52.5250
L115.9750 54.5250
" />
</g>
<g style="fill:none; 
stroke:#4D7FC4; stroke-width:0.4000; stroke-opacity:1; 
stroke-linecap:round; stroke-linejoin:round;">
<path d="M125.0250 52.3750
L125.0250 49.3750
" />
<path d="M88.7750 23.5350
L88.7750 21.0350
" />
</g>
<g style="fill:none; 
stroke:#4D7FC4; stroke-width:0.5000; stroke-opacity:1; 
stroke-linecap:round; stroke-linejoin:round;">
<path d="M107.0250 43.1600
L105.5250 43.1600
" />
<path d="M105.5250 43.1600
L105.5250 46.1600
" />
<path d="M80.5250 46.1600
L81.0250 46.1600
" />
<path d="M81.0250 46.1600
L81.0250 57.5250
" />
<path d="M39.2750 70.3250
L39.2750 68.3250
" />
<path d="M39.2750 68.3250
L38.0250 68.3250
" />
<path d="M38.0250 68.3250
L38.0250 46.1600
" />
</g>
<g style="fill:none; 
stroke:#4D7FC4; stroke-width:0.2000; stroke-opacity:1; 
stroke-linecap:round; stroke-linejoin:round;">
<path d="M80.6600 40.0250
L80.6600 38.1400
" />
<path d="M101.0250 38.1400
L101.0250 33.0250
" />
<path d="M101.0250 33.0250
L110.0250 33.0250
" />
<path d="M110.0250 33.0250
L110.0250 38.1400
" />
<path d="M124.0250 38.1400
L124.0250 5.0250
" />
<path d="M140.4250 5.0250
L140.4250 41.2750
" />
<path d="M140.4250 41.2750
L133.7370 41.2750
" />
<path d="M78.1200 40.0250
L78.1200 36.8700
" />
<path d="M101.5750 36.8700
L101.5750 34.6250
" />
<path d="M101.5750 34.6250
L108.2250 34.6250
" />
<path d="M108.2250 34.6250
L108.2250 36.8700
" />
<path d="M122.9250 36.8700
L122.9250 6.0250
" />
<path d="M139.7250 6.0250
L139.7250 40.7750
" />
<path d="M139.7250 40.7750
L133.7370 40.7750
" />
<path d="M85.7400 40.0250
L85.7400 35.6000
" />
<path d="M102.3650 35.6000
L107.6850 35.6000
" />
<path d="M121.8250 35.6000
L121.8250 7.0250
" />
<path d="M139.0250 7.0250
L139.0250 40.2750
" />
<path d="M139.0250 40.2750
L133.7370 40.2750
" />
<path d="M87.0100 40.0250
L87.0100 34.3300
" />
<path d="M120.7250 34.3300
L120.7250 8.0250
" />
<path d="M138.3250 8.0250
L138.3250 39.7750
" />
<path d="M138.3250 39.7750
L133.7370 39.7750
" />
<path d="M79.3900 40.0250
L79.3900 33.0600
" />
<path d="M119.6250 33.0600
L119.6250 9.0250
" />
<path d="M137.6250 9.0250
L137.6250 38.2750
" />
<path d="M137.6250 38.2750
L133.7370 38.2750
" />
<path d="M88.7750 26.0750
L90.7750 26.0750
" />
<path d="M118.5250 26.0750
L118.5250 10.0250
" />
<path d="M136.9250 10.0250
L136.9250 37.2750
" />
<path d="M136.9250 37.2750
L133.7370 37.2750
" />
<path d="M88.7750 27.3450
L90.7750 27.3450
" />
<path d="M117.4250 27.3450
L117.4250 11.0250
" />
<path d="M136.2250 11.0250
L136.2250 36.7750
" />
<path d="M136.2250 36.7750
L133.7370 36.7750
" />
<path d="M88.7750 28.6150
L90.7750 28.6150
" />
<path d="M116.3250 28.6150
L116.3250 12.0250
" />
<path d="M135.5250 12.0250
L135.5250 36.2750
" />
<path d="M135.5250 36.2750
L133.7370 36.2750
" />
<path d="M88.7750 29.8850
L90.7750 29.8850
" />
<path d="M115.2250 29.8850
L115.2250 13.0250
" />
<path d="M134.8250 13.0250
L134.8250 35.7750
" />
<path d="M134.8250 35.7750
L133.7370 35.7750
" />
<path d="M88.7750 36.2350
L90.7750 36.2350
" />
<path d="M99.5250 36.2350
L99.5250 32.3250
" />
<path d="M99.5250 32.3250
L111.5250 32.3250
" />
<path d="M111.5250 32.3250
L111.5250 36.2350
" />
<path d="M114.1250 36.2350
L114.1250 14.0250
" />
<path d="M134.1250 14.0250
L134.1250 35.2750
" />
<path d="M134.1250 35.2750
L133.7370 35.2750
" />
<path d="M84.4700 40.0250
L84.4700 31.7900
" />
<path d="M113.0250 31.7900
L113.0250 15.0250
" />
<path d="M131.0250 15.0250
L131.0250 34.7750
" />
<path d="M131.0250 34.7750
L133.7370 34.7750
" />
<path d="M83.2000 40.0250
L83.2000 30.5200
" />
<path d="M83.2000 30.5200
L83.2000 20.5250
" />
<path d="M111.9250 20.5250
L111.9250 16.0250
" />
<path d="M131.7250 16.0250
L131.7250 34.2750
" />
<path d="M131.7250 34.2750
L133.7370 34.2750
" />
<path d="M81.9300 40.0250
L81.9300 29.2500
" />
<path d="M81.9300 29.2500
L81.9300 19.5250
" />
<path d="M110.8250 19.5250
L110.8250 17.0250
" />
<path d="M132.4250 17.0250
L132.4250 33.7750
" />
<path d="M132.4250 33.7750
L133.7370 33.7750
" />
<path d="M73.0400 40.0250
L73.0400 27.9800
" />
<path d="M109.7250 27.9800
L109.7250 18.0250
" />
<path d="M133.1250 18.0250
L133.1250 29.2750
" />
<path d="M133.1250 29.2750
L133.7370 29.2750
" />
<path d="M133.7370 25.7750
L133.6250 25.7750
" />
<path d="M133.6250 25.7750
L133.6250 25.2750
" />
</g>
<g style="fill:none; 
stroke:#4D7FC4; stroke-width:0.3000; stroke-opacity:1; 
stroke-linecap:round; stroke-linejoin:round;">
<path d="M133.7370 27.2750
L133.6250 27.2750
" />
<path d="M133.6250 27.2750
L133.6250 27.4250
" />
<path d="M133.7370 27.7750
L133.7370 27.2750
" />
<path d="M133.7370 28.2750
L133.6250 28.2750
" />
<path d="M133.7370 28.7750
L133.7370 28.2750
" />
<path d="M133.7370 43.2750
L133.1250 43.2750
" />
<path d="M143.5250 43.2750
L143.5250 50.2750
" />
<path d="M133.7370 37.7750
L133.6250 37.7750
" />
<path d="M133.7370 26.2750
L133.6250 26.2750
" />
<path d="M133.7370 26.7750
L133.7370 26.2750
" />
<path d="M133.7370 42.7750
L133.7370 42.2750
" />
<path d="M133.7370 42.2750
L132.0250 42.2750
" />
<path d="M132.0250 42.2750
L132.0250 50.2750
" />
<path d="M133.7370 42.2750
L133.7370 42.7750
" />
</g>
<g style="fill:none; 
stroke:#4D7FC4; stroke-width:0.2000; stroke-opacity:1; 
stroke-linecap:round; stroke-linejoin:round;">
<path d="M71.2750 36.2350
L72.2250 36.2350
" />
<path d="M75.0250 36.2350
L75.0250 1.5250
" />
<path d="M141.2250 1.5250
L141.2250 60.0250
" />
<path d="M141.2250 60.0250
L139.4350 60.0250
" />
<path d="M139.4350 60.0250
L139.4350 63.5250
" />
<path d="M139.4350 63.5250
L141.2250 63.5250
" />
<path d="M141.2250 63.5250
L141.2250 66.0250
" />
<path d="M139.9850 66.0250
L139.9850 61.7490
" />
<path d="M71.2750 34.9650
L72.2250 34.9650
" />
<path d="M76.0250 34.9650
L76.0250 2.2250
" />
<path d="M145.6250 2.2250
L145.6250 67.5250
" />
<path d="M144.3850 67.5250
L144.3850 61.7490
" />
<path d="M71.2750 33.6950
L72.2250 33.6950
" />
<path d="M77.0250 33.6950
L77.0250 2.9250
" />
<path d="M152.5250 2.9250
L152.5250 70.5250
" />
<path d="M142.1850 70.5250
L142.1850 61.7490
" />
<path d="M71.2750 32.4250
L72.2250 32.4250
" />
<path d="M78.0250 32.4250
L78.0250 3.6250
" />
<path d="M153.5250 3.6250
L153.5250 72.0250
" />
<path d="M138.8850 72.0250
L138.8850 61.7490
" />
<path d="M88.7750 33.6950
L87.7250 33.6950
" />
<path d="M87.7250 33.6950
L87.7250 18.0250
" />
<path d="M33.2000 18.0250
L33.2000 19.0750
" />
<path d="M33.2000 20.9750
L33.2000 32.2250
" />
<path d="M33.2000 32.2250
L33.2000 26.8250
" />
</g>
<g style="fill:none; 
stroke:#4D7FC4; stroke-width:0.3000; stroke-opacity:1; 
stroke-linecap:round; stroke-linejoin:round;">
<path d="M25.5800 32.2250
L24.5250 32.2250
" />
<path d="M24.5250 32.2250
L24.5250 22.5250
" />
<path d="M39.5250 22.5250
L39.5250 52.5250
" />
<path d="M28.1200 32.2250
L28.1200 23.7250
" />
<path d="M20.5250 23.7250
L20.5250 52.5250
" />
</g>
<g style="fill:none; 
stroke:#4D7FC4; stroke-width:0.5000; stroke-opacity:1; 
stroke-linecap:round; stroke-linejoin:round;">
<path d="M31.9300 26.8250
L30.6600 26.8250
" />
<path d="M30.6600 26.8250
L29.3900 26.8250
" />
<path d="M31.9300 26.8250
L31.9300 28.8250
" />
<path d="M30.6600 32.2250
L29.3900 32.2250
" />
<path d="M29.3900 32.2250
L29.3900 28.7250
" />
<path d="M29.3900 26.8250
L29.3900 32.2250
" />
<path d="M26.8500 26.8250
L26.8500 24.8250
" />
<path d="M26.8500 32.2250
L26.8500 34.3250
" />
<path d="M31.9300 32.2250
L31.9300 34.3250
" />
</g>
<g style="fill:none; 
stroke:#4D7FC4; stroke-width:0.2000; stroke-opacity:1; 
stroke-linecap:round; stroke-linejoin:round;">
<path d="M33.2000 26.8250
L37.0750 26.8250
" />
<path d="M38.9750 26.8250
L38.9750 25.3250
" />
<path d="M38.9750 32.2250
L38.9750 33.7250
" />
<path d="M34.4700 26.1750
L34.4700 23.5250
" />
<path d="M34.4700 23.5250
L37.0750 23.5250
" />
<path d="M38.9750 23.5250
L38.9750 24.5250
" />
</g>
<g style="fill:none; 
stroke:#4D7FC4; stroke-width:0.2500; stroke-opacity:1; 
stroke-linecap:round; stroke-linejoin:round;">
<path d="M31.9300 26.8250
L31.9300 25.8250
" />
<path d="M38.0250 25.8250
L38.0250 28.5750
" />
<path d="M38.0250 30.4750
L38.0250 30.9750
" />
<path d="M29.3900 26.8250
L29.3900 22.9750
" />
<path d="M29.3900 21.0750
L29.3900 20.5750
" />
<path d="M29.3900 32.2250
L29.3900 36.5750
" />
<path d="M29.3900 36.5750
L31.5250 36.5750
" />
<path d="M31.5250 38.4750
L31.5250 38.9750
" />
</g>
<g style="fill:none; 
stroke:#4D7FC4; stroke-width:0.2000; stroke-opacity:1; 
stroke-linecap:round; stroke-linejoin:round;">
<path d="M80.2750 69.1500
L80.2750 66.1500
" />
<path d="M80.2750 66.1500
L80.6250 66.1500
" />
<path d="M90.2750 66.1500
L90.2750 38.7750
" />
<path d="M90.2750 38.7750
L88.7750 38.7750
" />
<path d="M79.7750 69.1500
L79.7750 64.9000
" />
<path d="M91.7250 64.9000
L91.7250 37.5050
" />
<path d="M91.7250 37.5050
L88.7750 37.5050
" />
</g>
<g style="fill:none; 
stroke:#4D7FC4; stroke-width:0.2500; stroke-opacity:1; 
stroke-linecap:round; stroke-linejoin:round;">
<path d="M78.2750 69.1500
L78.2750 72.5250
" />
<path d="M86.9750 72.5250
L86.9750 67.0250
" />
<path d="M81.2750 69.1500
L81.2750 73.5250
" />
<path d="M81.2750 73.5250
L74.9750 73.5250
" />
<path d="M74.9750 73.5250
L74.9750 67.0250
" />
<path d="M73.0750 67.0250
L73.0750 65.5250
" />
<path d="M85.0750 67.0250
L85.0750 64.0250
" />
<path d="M22.2250 21.6750
L22.2250 62.0250
" />
<path d="M67.4750 62.0250
L67.4750 31.1550
" />
<path d="M69.2750 31.1550
L71.2750 31.1550
" />
<path d="M22.9750 39.6750
L22.9750 63.2250
" />
<path d="M65.5750 63.2250
L65.5750 29.8850
" />
<path d="M69.2750 29.8850
L71.2750 29.8850
" />
<path d="M13.2250 30.6750
L13.2250 64.4250
" />
<path d="M62.4750 64.4250
L62.4750 28.6150
" />
<path d="M69.2750 28.6150
L71.2750 28.6150
" />
<path d="M34.2250 30.6750
L34.2250 65.6250
" />
<path d="M58.5750 65.6250
L58.5750 24.8050
" />
<path d="M69.2750 24.8050
L71.2750 24.8050
" />
<path d="M130.3250 20.6750
L130.3250 66.8250
" />
<path d="M52.4750 66.8250
L52.4750 23.5350
" />
<path d="M69.2750 23.5350
L71.2750 23.5350
" />
<path d="M142.8250 30.6750
L142.8250 60.0250
" />
<path d="M142.8250 60.0250
L142.7350 60.0250
" />
<path d="M142.7350 60.0250
L142.7350 63.5250
" />
<path d="M142.7350 63.5250
L142.8250 63.5250
" />
<path d="M142.8250 63.5250
L142.8250 68.0250
" />
<path d="M45.4750 68.0250
L45.4750 41.5250
" />
<path d="M73.2750 41.5250
L74.3100 41.5250
" />
<path d="M74.3100 41.5250
L74.3100 40.0250
" />
<path d="M129.8250 40.6750
L129.8250 69.2250
" />
<path d="M36.4750 69.2250
L36.4750 42.7250
" />
<path d="M73.5800 42.7250
L75.5800 42.7250
" />
<path d="M75.5800 42.7250
L75.5800 40.0250
" />
<path d="M129.3250 30.6750
L129.3250 70.4250
" />
<path d="M27.4750 70.4250
L27.4750 43.9250
" />
<path d="M74.8500 43.9250
L76.8500 43.9250
" />
<path d="M76.8500 43.9250
L76.8500 40.0250
" />
<path d="M12.2250 52.6750
L12.2250 71.6250
" />
<path d="M100.4750 71.6250
L100.4750 34.9650
" />
<path d="M90.7750 34.9650
L88.7750 34.9650
" />
<path d="M34.9750 52.6750
L34.9750 72.8250
" />
<path d="M60.4750 72.8250
L60.4750 45.1250
" />
<path d="M73.2750 45.1250
L71.2750 45.1250
" />
<path d="M71.2750 45.1250
L71.2750 38.7750
" />
<path d="M16.8750 2.5250
L16.8750 73.5550
" />
</g>
<g style="fill:none; 
stroke:#4D7FC4; stroke-width:0.2000; stroke-opacity:1; 
stroke-linecap:round; stroke-linejoin:round;">
<path d="M68.0250 73.5550
L68.0250 37.5050
" />
</g>
<g style="fill:none; 
stroke:#4D7FC4; stroke-width:0.2500; stroke-opacity:1; 
stroke-linecap:round; stroke-linejoin:round;">
<path d="M13.1750 8.5250
L14.6750 8.5250
" />
<path d="M146.8750 2.5250
L146.8750 65.4250
" />
</g>
<g style="fill:none; 
stroke:#4D7FC4; stroke-width:0.2000; stroke-opacity:1; 
stroke-linecap:round; stroke-linejoin:round;">
<path d="M76.2250 65.4250
L76.2250 45.0250
" />
<path d="M65.0250 42.1250
L65.0250 27.3450
" />
<path d="M65.0250 27.3450
L71.2750 27.3450
" />
</g>
<g style="fill:none; 
stroke:#4D7FC4; stroke-width:0.2500; stroke-opacity:1; 
stroke-linecap:round; stroke-linejoin:round;">
<path d="M143.1750 8.5250
L144.6750 8.5250
" />
<path d="M42.0750 46.0250
L41.8250 46.0250
" />
<path d="M41.8250 46.0250
L41.8250 44.5250
" />
<path d="M47.0750 46.0250
L46.8250 46.0250
" />
<path d="M46.8250 46.0250
L46.8250 44.5250
" />
<path d="M52.0750 46.0250
L51.8250 46.0250
" />
<path d="M51.8250 46.0250
L51.8250 44.5250
" />
<path d="M57.0750 46.0250
L56.8250 46.0250
" />
<path d="M56.8250 46.0250
L56.8250 44.5250
" />
<path d="M62.0750 46.0250
L61.8250 46.0250
" />
<path d="M61.8250 46.0250
L61.8250 44.5250
" />
<path d="M67.0750 46.0250
L66.8250 46.0250
" />
<path d="M66.8250 46.0250
L66.8250 44.5250
" />
<path d="M72.0750 46.0250
L71.8250 46.0250
" />
<path d="M71.8250 46.0250
L71.8250 47.5250
" />
<path d="M77.0750 46.0250
L76.9750 46.0250
" />
<path d="M76.9750 46.0250
L76.9750 44.5250
" />
<path d="M82.0750 46.0250
L81.8250 46.0250
" />
<path d="M81.8250 46.0250
L81.8250 44.5250
" />
<path d="M87.0750 46.0250
L86.8250 46.0250
" />
<path d="M86.8250 46.0250
L86.8250 44.5250
" />
<path d="M92.0750 46.0250
L92.2250 46.0250
" />
<path d="M92.2250 46.0250
L92.2250 44.5250
" />
<path d="M97.0750 46.0250
L96.8250 46.0250
" />
<path d="M96.8250 46.0250
L96.8250 44.5250
" />
<path d="M102.0750 46.0250
L101.8250 46.0250
" />
<path d="M101.8250 46.0250
L101.8250 44.5250
" />
<path d="M42.0750 50.0250
L41.8250 50.0250
" />
<path d="M41.8250 50.0250
L41.8250 52.0250
" />
<path d="M47.0750 50.0250
L46.8250 50.0250
" />
<path d="M46.8250 50.0250
L46.8250 52.0250
" />
<path d="M52.0750 50.0250
L51.8250 50.0250
" />
<path d="M51.8250 50.0250
L51.8250 52.0250
" />
<path d="M57.0750 50.0250
L56.8250 50.0250
" />
<path d="M56.8250 50.0250
L56.8250 52.0250
" />
<path d="M62.0750 50.0250
L61.8250 50.0250
" />
<path d="M61.8250 50.0250
L61.8250 52.0250
" />
<path d="M67.0750 50.0250
L66.8250 50.0250
" />
<path d="M66.8250 50.0250
L66.8250 52.0250
" />
<path d="M72.0750 50.0250
L71.8250 50.0250
" />
<path d="M71.8250 50.0250
L71.8250 52.0250
" />
<path d="M77.0750 50.0250
L76.9750 50.0250
" />
<path d="M76.9750 50.0250
L76.9750 52.0250
" />
<path d="M82.0750 50.0250
L81.8250 50.0250
" />
<path d="M81.8250 50.0250
L81.8250 52.0250
" />
<path d="M87.0750 50.0250
L86.8250 50.0250
" />
<path d="M86.8250 50.0250
L86.8250 52.0250
" />
<path d="M92.0750 50.0250
L92.2250 50.0250
" />
<path d="M92.2250 50.0250
L92.2250 52.0250
" />
<path d="M97.0750 50.0250
L96.8250 50.0250
" />
<path d="M96.8250 50.0250
L96.8250 52.0250
" />
<path d="M102.0750 50.0250
L101.8250 50.0250
" />
<path d="M101.8250 50.0250
L101.8250 52.0250
" />
<path d="M43.9750 46.0250
L43.9750 50.0250
" />
<path d="M48.9750 46.0250
L48.9750 50.0250
" />
<path d="M53.9750 46.0250
L53.9750 50.0250
" />
<path d="M58.9750 46.0250
L58.9750 50.0250
" />
<path d="M63.9750 46.0250
L63.9750 50.0250
" />
<path d="M68.9750 46.0250
L68.9750 50.0250
" />
<path d="M73.9750 46.0250
L73.9750 50.0250
" />
<path d="M78.9750 46.0250
L78.9750 50.0250
" />
<path d="M83.9750 46.0250
L83.9750 50.0250
" />
<path d="M88.9750 46.0250
L88.9750 50.0250
" />
<path d="M93.9750 46.0250
L93.9750 50.0250
" />
<path d="M98.9750 46.0250
L98.9750 50.0250
" />
<path d="M103.9750 46.0250
L103.9750 50.0250
" />
<path d="M70.4750 42.0250
L70.4750 44.5250
" />
<path d="M68.5750 42.0250
L68.5750 40.0250
" />
<path d="M92.9750 42.0250
L92.9750 40.6250
" />
<path d="M91.0750 42.0250
L91.0750 40.0250
" />
<path d="M122.9750 48.5250
L122.9750 46.0250
" />
<path d="M121.0750 48.5250
L121.0750 46.0250
" />
<path d="M126.5250 62.5250
L125.0250 62.5250
" />
<path d="M125.0250 62.5250
L125.0250 52.3750
" />
<path d="M123.5250 62.5250
L123.5250 64.5250
" />
<path d="M110.9750 35.0250
L110.9750 33.6750
" />
<path d="M109.0750 35.0250
L109.0750 37.5250
" />
<path d="M118.9750 55.0250
L118.9750 52.5250
" />
<path d="M117.0750 55.0250
L117.0750 57.5250
" />
<path d="M111.5250 58.5250
L113.0250 58.5250
" />
<path d="M113.0250 58.5250
L113.0250 56.5250
" />
<path d="M108.5250 58.5250
L108.5250 59.5250
" />
<path d="M25.9750 62.6750
L25.9750 65.0250
" />
<path d="M24.0750 65.0250
L24.0750 66.2750
" />
<path d="M32.9750 62.6750
L32.9750 65.0250
" />
<path d="M31.0750 65.0250
L31.0750 66.2750
" />
</g>
<g style="fill:none; 
stroke:#D0D2CD; stroke-width:0.0500; stroke-opacity:1; 
stroke-linecap:round; stroke-linejoin:round;">
<path d="M6.0250 0.0250
L154.0250 0.0250
" />
<path d="M160.0250 6.0250
L160.0250 69.0250
" />
<path d="M154.0250 75.0250
L6.0250 75.0250
" />
<path d="M0.0250 69.0250
L0.0250 6.0250
" />
<path d="M6.0250 0.0250 A6.0000 6.0000 0.0 0 0 0.0250 6.0250" />
<path d="M160.0250 6.0250 A6.0000 6.0000 0.0 0 0 154.0250 0.0250" />
<path d="M154.0250 75.0250 A6.0000 6.0000 0.0 0 0 160.0250 69.0250" />
<path d="M0.0250 69.0250 A6.0000 6.0000 0.0 0 0 6.0250 75.0250" />
<path d="M125.5250 23.5250
L128.5250 23.5250
" />
<path d="M128.5250 23.5250
L128.5250 47.5250
" />
<path d="M128.5250 47.5250
L125.5250 47.5250
" />
<path d="M125.5250 47.5250
L125.5250 23.5250
" />
</g>
<g style="fill:#FFFFFF; fill-opacity:1.0000; stroke:none;">
<circle cx="82.0250" cy="61.0250" r="0.1750" /> 
<circle cx="111.0250" cy="40.1200" r="0.1750" /> 
<circle cx="112.4250" cy="45.5250" r="0.1750" /> 
<circle cx="127.3250" cy="60.6750" r="0.1750" /> 
<circle cx="77.0250" cy="57.5250" r="0.1750" /> 
<circle cx="76.8250" cy="67.4250" r="0.1000" /> 
<circle cx="80.0250" cy="35.0250" r="0.1000" /> 
<circle cx="141.0850" cy="61.7490" r="0.1000" /> 
<circle cx="143.2850" cy="61.7490" r="0.1000" /> 
<circle cx="148.7850" cy="62.5990" r="0.1000" /> 
<circle cx="131.2650" cy="72.3010" r="0.1000" /> 
<circle cx="107.5250" cy="39.1200" r="0.1750" /> 
<circle cx="122.7250" cy="56.6750" r="0.1750" /> 
<circle cx="112.4250" cy="49.5250" r="0.1750" /> 
<circle cx="115.9750" cy="54.5250" r="0.1750" /> 
<circle cx="125.0250" cy="49.3750" r="0.1750" /> 
<circle cx="88.7750" cy="21.0350" r="0.1000" /> 
<circle cx="105.5250" cy="46.1600" r="0.1750" /> 
<circle cx="80.5250" cy="46.1600" r="0.1750" /> 
<circle cx="39.2750" cy="68.3250" r="0.1750" /> 
<circle cx="38.0250" cy="46.1600" r="0.1750" /> 
<circle cx="80.6600" cy="38.1400" r="0.1000" /> 
<circle cx="101.0250" cy="38.1400" r="0.1250" /> 
<circle cx="110.0250" cy="38.1400" r="0.1250" /> 
<circle cx="124.0250" cy="38.1400" r="0.1000" /> 
<circle cx="124.0250" cy="5.0250" r="0.1000" /> 
<circle cx="140.4250" cy="5.0250" r="0.1000" /> 
<circle cx="78.1200" cy="36.8700" r="0.1000" /> 
<circle cx="101.5750" cy="36.8700" r="0.1250" /> 
<circle cx="108.2250" cy="36.8700" r="0.1250" /> 
<circle cx="122.9250" cy="36.8700" r="0.1000" /> 
<circle cx="122.9250" cy="6.0250" r="0.1000" /> 
<circle cx="139.7250" cy="6.0250" r="0.1000" /> 
<circle cx="85.7400" cy="35.6000" r="0.1000" /> 
<circle cx="102.3650" cy="35.6000" r="0.1250" /> 
<circle cx="107.6850" cy="35.6000" r="0.1250" /> 
<circle cx="121.8250" cy="35.6000" r="0.1000" /> 
<circle cx="121.8250" cy="7.0250" r="0.1000" /> 
<circle cx="139.0250" cy="7.0250" r="0.1000" /> 
<circle cx="87.0100" cy="34.3300" r="0.1000" /> 
<circle cx="120.7250" cy="34.3300" r="0.1000" /> 
<circle cx="120.7250" cy="8.0250" r="0.1000" /> 
<circle cx="138.3250" cy="8.0250" r="0.1000" /> 
<circle cx="79.3900" cy="33.0600" r="0.1000" /> 
<circle cx="119.6250" cy="33.0600" r="0.1000" /> 
<circle cx="119.6250" cy="9.0250" r="0.1000" /> 
<circle cx="137.6250" cy="9.0250" r="0.1000" /> 
<circle cx="90.7750" cy="26.0750" r="0.1000" /> 
<circle cx="118.5250" cy="26.0750" r="0.1000" /> 
<circle cx="118.5250" cy="10.0250" r="0.1000" /> 
<circle cx="136.9250" cy="10.0250" r="0.1000" /> 
<circle cx="90.7750" cy="27.3450" r="0.1000" /> 
<circle cx="117.4250" cy="27.3450" r="0.1000" /> 
<circle cx="117.4250" cy="11.0250" r="0.1000" /> 
<circle cx="136.2250" cy="11.0250" r="0.1000" /> 
<circle cx="90.7750" cy="28.6150" r="0.1000" /> 
<circle cx="116.3250" cy="28.6150" r="0.1000" /> 
<circle cx="116.3250" cy="12.0250" r="0.1000" /> 
<circle cx="135.5250" cy="12.0250" r="0.1000" /> 
<circle cx="90.7750" cy="29.8850" r="0.1000" /> 
<circle cx="115.2250" cy="29.8850" r="0.1000" /> 
<circle cx="115.2250" cy="13.0250" r="0.1000" /> 
<circle cx="134.8250" cy="13.0250" r="0.1000" /> 
<circle cx="90.7750" cy="36.2350" r="0.1000" /> 
<circle cx="99.5250" cy="36.2350" r="0.1250" /> 
<circle cx="111.5250" cy="36.2350" r="0.1250" /> 
<circle cx="114.1250" cy="36.2350" r="0.1000" /> 
<circle cx="114.1250" cy="14.0250" r="0.1000" /> 
<circle cx="134.1250" cy="14.0250" r="0.1000" /> 
<circle cx="84.4700" cy="31.7900" r="0.1000" /> 
<circle cx="113.0250" cy="31.7900" r="0.1000" /> 
<circle cx="113.0250" cy="15.0250" r="0.1000" /> 
<circle cx="131.0250" cy="15.0250" r="0.1000" /> 
<circle cx="83.2000" cy="20.5250" r="0.1000" /> 
<circle cx="111.9250" cy="20.5250" r="0.1000" /> 
<circle cx="111.9250" cy="16.0250" r="0.1000" /> 
<circle cx="131.7250" cy="16.0250" r="0.1000" /> 
<circle cx="81.9300" cy="19.5250" r="0.1000" /> 
<circle cx="110.8250" cy="19.5250" r="0.1000" /> 
<circle cx="110.8250" cy="17.0250" r="0.1000" /> 
<circle cx="132.4250" cy="17.0250" r="0.1000" /> 
<circle cx="73.0400" cy="27.9800" r="0.1000" /> 
<circle cx="109.7250" cy="27.9800" r="0.1000" /> 
<circle cx="109.7250" cy="18.0250" r="0.1000" /> 
<circle cx="133.1250" cy="18.0250" r="0.1000" /> 
<circle cx="133.6250" cy="25.2750" r="0.1000" /> 
<circle cx="133.6250" cy="27.4250" r="0.1000" /> 
<circle cx="133.6250" cy="28.2750" r="0.1000" /> 
<circle cx="133.1250" cy="43.2750" r="0.1000" /> 
<circle cx="143.5250" cy="43.2750" r="0.1000" /> 
<circle cx="143.5250" cy="50.2750" r="0.1000" /> 
<circle cx="133.6250" cy="37.7750" r="0.1000" /> 
<circle cx="133.6250" cy="26.2750" r="0.1000" /> 
<circle cx="132.0250" cy="50.2750" r="0.1000" /> 
<circle cx="72.2250" cy="36.2350" r="0.1000" /> 
<circle cx="75.0250" cy="36.2350" r="0.1000" /> 
<circle cx="75.0250" cy="1.5250" r="0.1000" /> 
<circle cx="141.2250" cy="1.5250" r="0.1000" /> 
<circle cx="141.2250" cy="66.0250" r="0.1000" /> 
<circle cx="139.9850" cy="66.0250" r="0.1000" /> 
<circle cx="72.2250" cy="34.9650" r="0.1000" /> 
<circle cx="76.0250" cy="34.9650" r="0.1000" /> 
<circle cx="76.0250" cy="2.2250" r="0.1000" /> 
<circle cx="145.6250" cy="2.2250" r="0.1000" /> 
<circle cx="145.6250" cy="67.5250" r="0.1000" /> 
<circle cx="144.3850" cy="67.5250" r="0.1000" /> 
<circle cx="72.2250" cy="33.6950" r="0.1000" /> 
<circle cx="77.0250" cy="33.6950" r="0.1000" /> 
<circle cx="77.0250" cy="2.9250" r="0.1000" /> 
<circle cx="152.5250" cy="2.9250" r="0.1000" /> 
<circle cx="152.5250" cy="70.5250" r="0.1000" /> 
<circle cx="142.1850" cy="70.5250" r="0.1000" /> 
<circle cx="72.2250" cy="32.4250" r="0.1000" /> 
<circle cx="78.0250" cy="32.4250" r="0.1000" /> 
<circle cx="78.0250" cy="3.6250" r="0.1000" /> 
<circle cx="153.5250" cy="3.6250" r="0.1000" /> 
<circle cx="153.5250" cy="72.0250" r="0.1000" /> 
<circle cx="138.8850" cy="72.0250" r="0.1000" /> 
<circle cx="87.7250" cy="18.0250" r="0.1000" /> 
<circle cx="33.2000" cy="18.0250" r="0.1000" /> 
<circle cx="24.5250" cy="22.5250" r="0.1000" /> 
<circle cx="39.5250" cy="22.5250" r="0.1000" /> 
<circle cx="28.1200" cy="23.7250" r="0.1000" /> 
<circle cx="20.5250" cy="23.7250" r="0.1000" /> 
<circle cx="31.9300" cy="28.8250" r="0.1000" /> 
<circle cx="29.3900" cy="28.7250" r="0.1000" /> 
<circle cx="26.8500" cy="24.8250" r="0.1000" /> 
<circle cx="26.8500" cy="34.3250" r="0.1000" /> 
<circle cx="31.9300" cy="34.3250" r="0.1000" /> 
<circle cx="38.9750" cy="25.3250" r="0.1000" /> 
<circle cx="33.2000" cy="32.2250" r="0.1000" /> 
<circle cx="37.0750" cy="32.2250" r="0.1000" /> 
<circle cx="38.9750" cy="33.7250" r="0.1000" /> 
<circle cx="38.9750" cy="24.5250" r="0.1000" /> 
<circle cx="31.9300" cy="25.8250" r="0.1000" /> 
<circle cx="38.0250" cy="25.8250" r="0.1000" /> 
<circle cx="38.0250" cy="30.9750" r="0.1000" /> 
<circle cx="29.3900" cy="20.5750" r="0.1000" /> 
<circle cx="31.5250" cy="38.9750" r="0.1000" /> 
<circle cx="80.6250" cy="66.1500" r="0.1000" /> 
<circle cx="90.2750" cy="66.1500" r="0.1000" /> 
<circle cx="79.7750" cy="64.9000" r="0.1000" /> 
<circle cx="91.7250" cy="64.9000" r="0.1000" /> 
<circle cx="78.2750" cy="72.5250" r="0.1000" /> 
<circle cx="86.9750" cy="72.5250" r="0.1000" /> 
<circle cx="73.0750" cy="65.5250" r="0.1000" /> 
<circle cx="85.0750" cy="64.0250" r="0.1000" /> 
<circle cx="22.2250" cy="21.6750" r="0.1000" /> 
<circle cx="22.2250" cy="62.0250" r="0.1000" /> 
<circle cx="67.4750" cy="62.0250" r="0.1000" /> 
<circle cx="67.4750" cy="31.1550" r="0.1000" /> 
<circle cx="69.2750" cy="31.1550" r="0.1000" /> 
<circle cx="16.0250" cy="25.8750" r="0.1000" /> 
<circle cx="22.9750" cy="39.6750" r="0.1000" /> 
<circle cx="22.9750" cy="63.2250" r="0.1000" /> 
<circle cx="65.5750" cy="63.2250" r="0.1000" /> 
<circle cx="65.5750" cy="29.8850" r="0.1000" /> 
<circle cx="69.2750" cy="29.8850" r="0.1000" /> 
<circle cx="16.0250" cy="43.8750" r="0.1000" /> 
<circle cx="13.2250" cy="30.6750" r="0.1000" /> 
<circle cx="13.2250" cy="64.4250" r="0.1000" /> 
<circle cx="62.4750" cy="64.4250" r="0.1000" /> 
<circle cx="62.4750" cy="28.6150" r="0.1000" /> 
<circle cx="69.2750" cy="28.6150" r="0.1000" /> 
<circle cx="7.5250" cy="34.8750" r="0.1000" /> 
<circle cx="34.2250" cy="30.6750" r="0.1000" /> 
<circle cx="34.2250" cy="65.6250" r="0.1000" /> 
<circle cx="58.5750" cy="65.6250" r="0.1000" /> 
<circle cx="58.5750" cy="24.8050" r="0.1000" /> 
<circle cx="69.2750" cy="24.8050" r="0.1000" /> 
<circle cx="25.5250" cy="34.8750" r="0.1000" /> 
<circle cx="130.3250" cy="20.6750" r="0.1000" /> 
<circle cx="130.3250" cy="66.8250" r="0.1000" /> 
<circle cx="52.4750" cy="66.8250" r="0.1000" /> 
<circle cx="52.4750" cy="23.5350" r="0.1000" /> 
<circle cx="69.2750" cy="23.5350" r="0.1000" /> 
<circle cx="143.5250" cy="24.8750" r="0.1000" /> 
<circle cx="142.8250" cy="30.6750" r="0.1000" /> 
<circle cx="142.8250" cy="68.0250" r="0.1000" /> 
<circle cx="45.4750" cy="68.0250" r="0.1000" /> 
<circle cx="45.4750" cy="41.5250" r="0.1000" /> 
<circle cx="73.2750" cy="41.5250" r="0.1000" /> 
<circle cx="154.0750" cy="34.8750" r="0.1000" /> 
<circle cx="129.8250" cy="40.6750" r="0.1000" /> 
<circle cx="129.8250" cy="69.2250" r="0.1000" /> 
<circle cx="36.4750" cy="69.2250" r="0.1000" /> 
<circle cx="36.4750" cy="42.7250" r="0.1000" /> 
<circle cx="73.5800" cy="42.7250" r="0.1000" /> 
<circle cx="143.5250" cy="44.8750" r="0.1000" /> 
<circle cx="129.3250" cy="30.6750" r="0.1000" /> 
<circle cx="129.3250" cy="70.4250" r="0.1000" /> 
<circle cx="27.4750" cy="70.4250" r="0.1000" /> 
<circle cx="27.4750" cy="43.9250" r="0.1000" /> 
<circle cx="74.8500" cy="43.9250" r="0.1000" /> 
<circle cx="140.0250" cy="49.0250" r="0.1000" /> 
<circle cx="12.2250" cy="52.6750" r="0.1000" /> 
<circle cx="12.2250" cy="71.6250" r="0.1000" /> 
<circle cx="100.4750" cy="71.6250" r="0.1000" /> 
<circle cx="100.4750" cy="34.9650" r="0.1000" /> 
<circle cx="90.7750" cy="34.9650" r="0.1000" /> 
<circle cx="6.5250" cy="56.8750" r="0.1000" /> 
<circle cx="34.9750" cy="52.6750" r="0.1000" /> 
<circle cx="34.9750" cy="72.8250" r="0.1000" /> 
<circle cx="60.4750" cy="72.8250" r="0.1000" /> 
<circle cx="60.4750" cy="45.1250" r="0.1000" /> 
<circle cx="73.2750" cy="45.1250" r="0.1000" /> 
<circle cx="26.5250" cy="56.8750" r="0.1000" /> 
<circle cx="16.8750" cy="73.5550" r="0.1000" /> 
<circle cx="68.0250" cy="73.5550" r="0.1000" /> 
<circle cx="68.0250" cy="37.5050" r="0.1000" /> 
<circle cx="14.6750" cy="8.5250" r="0.1000" /> 
<circle cx="146.8750" cy="65.4250" r="0.1000" /> 
<circle cx="76.2250" cy="65.4250" r="0.1000" /> 
<circle cx="76.2250" cy="45.0250" r="0.1000" /> 
<circle cx="65.0250" cy="42.1250" r="0.1000" /> 
<circle cx="144.6750" cy="8.5250" r="0.1000" /> 
<circle cx="41.8250" cy="44.5250" r="0.1000" /> 
<circle cx="46.8250" cy="44.5250" r="0.1000" /> 
<circle cx="51.8250" cy="44.5250" r="0.1000" /> 
<circle cx="56.8250" cy="44.5250" r="0.1000" /> 
<circle cx="61.8250" cy="44.5250" r="0.1000" /> 
<circle cx="66.8250" cy="44.5250" r="0.1000" /> 
<circle cx="71.8250" cy="47.5250" r="0.1000" /> 
<circle cx="76.9750" cy="44.5250" r="0.1000" /> 
<circle cx="81.8250" cy="44.5250" r="0.1000" /> 
<circle cx="86.8250" cy="44.5250" r="0.1000" /> 
<circle cx="92.2250" cy="44.5250" r="0.1000" /> 
<circle cx="96.8250" cy="44.5250" r="0.1000" /> 
<circle cx="101.8250" cy="44.5250" r="0.1000" /> 
<circle cx="41.8250" cy="52.0250" r="0.1000" /> 
<circle cx="46.8250" cy="52.0250" r="0.1000" /> 
<circle cx="51.8250" cy="52.0250" r="0.1000" /> 
<circle cx="56.8250" cy="52.0250" r="0.1000" /> 
<circle cx="61.8250" cy="52.0250" r="0.1000" /> 
<circle cx="66.8250" cy="52.0250" r="0.1000" /> 
<circle cx="71.8250" cy="52.0250" r="0.1000" /> 
<circle cx="76.9750" cy="52.0250" r="0.1000" /> 
<circle cx="81.8250" cy="52.0250" r="0.1000" /> 
<circle cx="86.8250" cy="52.0250" r="0.1000" /> 
<circle cx="92.2250" cy="52.0250" r="0.1000" /> 
<circle cx="96.8250" cy="52.0250" r="0.1000" /> 
<circle cx="101.8250" cy="52.0250" r="0.1000" /> 
<circle cx="70.4750" cy="44.5250" r="0.1000" /> 
<circle cx="68.5750" cy="40.0250" r="0.1000" /> 
<circle cx="92.9750" cy="40.6250" r="0.1000" /> 
<circle cx="91.0750" cy="40.0250" r="0.1000" /> 
<circle cx="122.9750" cy="46.0250" r="0.1000" /> 
<circle cx="121.0750" cy="46.0250" r="0.1000" /> 
<circle cx="123.5250" cy="64.5250" r="0.1000" /> 
<circle cx="110.9750" cy="33.6750" r="0.1000" /> 
<circle cx="109.0750" cy="37.5250" r="0.1000" /> 
<circle cx="118.9750" cy="52.5250" r="0.1000" /> 
<circle cx="117.0750" cy="57.5250" r="0.1000" /> 
<circle cx="113.0250" cy="56.5250" r="0.1000" /> 
<circle cx="108.5250" cy="59.5250" r="0.1000" /> 
<circle cx="25.9750" cy="62.6750" r="0.1000" /> 
<circle cx="24.0750" cy="66.2750" r="0.1750" /> 
<circle cx="26.6750" cy="67.5250" r="0.1000" /> 
<circle cx="32.9750" cy="62.6750" r="0.1000" /> 
<circle cx="31.0750" cy="66.2750" r="0.1750" /> 
<circle cx="33.6750" cy="67.5250" r="0.1000" /> 
</g>
<g style="fill:#000000; fill-opacity:1.0000; stroke:none;">
<circle cx="10.0250" cy="7.0250" r="1.2500" /> 
<circle cx="150.0250" cy="7.0250" r="1.2500" /> 
<circle cx="10.0250" cy="68.0250" r="1.2500" /> 
<circle cx="150.0250" cy="68.0250" r="1.2500" /> 
<circle cx="55.0250" cy="37.5250" r="1.2500" /> 
<circle cx="105.0250" cy="37.5250" r="1.2500" /> 
</g>
<g style="fill:#FFFFFF; fill-opacity:1.0000; stroke:none;">
<circle cx="84.3500" cy="69.7000" r="0.3000" /> 
</g>
<g style="fill:#FFFFFF; fill-opacity:1.0000; stroke:none;">
<circle cx="75.7000" cy="69.7000" r="0.3000" /> 
</g>
<g style="fill:#FFFFFF; fill-opacity:1.0000; stroke:none;">
<circle cx="84.3500" cy="73.9000" r="0.3000" /> 
</g>
<g style="fill:#FFFFFF; fill-opacity:1.0000; stroke:none;">
<circle cx="75.7000" cy="73.9000" r="0.3000" /> 
</g>
<g style="fill:#000000; fill-opacity:1.0000; stroke:none;">
<circle cx="82.9150" cy="70.2200" r="0.3250" /> 
<circle cx="77.1350" cy="70.2200" r="0.3250" /> 
<circle cx="144.9750" cy="72.5910" r="0.5000" /> 
<circle cx="136.9750" cy="72.5910" r="0.5000" /> 
<circle cx="41.5250" cy="72.5750" r="0.4500" /> 
<circle cx="38.5250" cy="72.5750" r="0.4500" /> 
</g>
<g style="fill:#FFFFFF; fill-opacity:1.0000; stroke:none;">
<circle cx="81.0250" cy="57.5250" r="0.4250" /> 
</g>
<g style="fill:#FFFFFF; fill-opacity:1.0000; stroke:none;">
<circle cx="79.0250" cy="57.5250" r="0.4250" /> 
</g> 

  </g>
</g>
<line x1="410.55555555555554" y1="100.0" x2="410.55555555555554" y2="720.0" stroke="#1a3a1a" stroke-width="0.5" stroke-dasharray="2,4"/>
<text x="410.55555555555554" y="97.0" text-anchor="middle" font-size="8" fill="#3a5a3a">x=42</text>
<line x1="496.66666666666663" y1="100.0" x2="496.66666666666663" y2="720.0" stroke="#1a3a1a" stroke-width="0.5" stroke-dasharray="2,4"/>
<text x="496.66666666666663" y="97.0" text-anchor="middle" font-size="8" fill="#3a5a3a">x=47</text>
<line x1="582.7777777777778" y1="100.0" x2="582.7777777777778" y2="720.0" stroke="#1a3a1a" stroke-width="0.5" stroke-dasharray="2,4"/>
<text x="582.7777777777778" y="97.0" text-anchor="middle" font-size="8" fill="#3a5a3a">x=52</text>
<line x1="668.8888888888889" y1="100.0" x2="668.8888888888889" y2="720.0" stroke="#1a3a1a" stroke-width="0.5" stroke-dasharray="2,4"/>
<text x="668.8888888888889" y="97.0" text-anchor="middle" font-size="8" fill="#3a5a3a">x=57</text>
<line x1="755.0" y1="100.0" x2="755.0" y2="720.0" stroke="#1a3a1a" stroke-width="0.5" stroke-dasharray="2,4"/>
<text x="755.0" y="97.0" text-anchor="middle" font-size="8" fill="#3a5a3a">x=62</text>
<line x1="410.55555555555554" y1="100.0" x2="789.4444444444443" y2="100.0" stroke="#1a3a1a" stroke-width="0.5" stroke-dasharray="2,4"/>
<text x="407.55555555555554" y="103.0" text-anchor="end" font-size="8" fill="#3a5a3a">y=34</text>
<line x1="410.55555555555554" y1="186.11111111111111" x2="789.4444444444443" y2="186.11111111111111" stroke="#1a3a1a" stroke-width="0.5" stroke-dasharray="2,4"/>
<text x="407.55555555555554" y="189.11111111111111" text-anchor="end" font-size="8" fill="#3a5a3a">y=39</text>
<line x1="410.55555555555554" y1="272.22222222222223" x2="789.4444444444443" y2="272.22222222222223" stroke="#1a3a1a" stroke-width="0.5" stroke-dasharray="2,4"/>
<text x="407.55555555555554" y="275.22222222222223" text-anchor="end" font-size="8" fill="#3a5a3a">y=44</text>
<line x1="410.55555555555554" y1="358.3333333333333" x2="789.4444444444443" y2="358.3333333333333" stroke="#1a3a1a" stroke-width="0.5" stroke-dasharray="2,4"/>
<text x="407.55555555555554" y="361.3333333333333" text-anchor="end" font-size="8" fill="#3a5a3a">y=49</text>
<line x1="410.55555555555554" y1="444.44444444444446" x2="789.4444444444443" y2="444.44444444444446" stroke="#1a3a1a" stroke-width="0.5" stroke-dasharray="2,4"/>
<text x="407.55555555555554" y="447.44444444444446" text-anchor="end" font-size="8" fill="#3a5a3a">y=54</text>
<line x1="410.55555555555554" y1="530.5555555555555" x2="789.4444444444443" y2="530.5555555555555" stroke="#1a3a1a" stroke-width="0.5" stroke-dasharray="2,4"/>
<text x="407.55555555555554" y="533.5555555555555" text-anchor="end" font-size="8" fill="#3a5a3a">y=59</text>
<line x1="410.55555555555554" y1="616.6666666666666" x2="789.4444444444443" y2="616.6666666666666" stroke="#1a3a1a" stroke-width="0.5" stroke-dasharray="2,4"/>
<text x="407.55555555555554" y="619.6666666666666" text-anchor="end" font-size="8" fill="#3a5a3a">y=64</text>
<line x1="410.55555555555554" y1="702.7777777777777" x2="789.4444444444443" y2="702.7777777777777" stroke="#1a3a1a" stroke-width="0.5" stroke-dasharray="2,4"/>
<text x="407.55555555555554" y="705.7777777777777" text-anchor="end" font-size="8" fill="#3a5a3a">y=69</text>
<circle cx="583.6388888888888" cy="282.55555555555554" r="7.75" fill="none" stroke="#44aaff" stroke-width="3" opacity="0.9"/>
<circle cx="583.6388888888888" cy="282.55555555555554" r="1.55" fill="#44aaff"/>
<text x="599.3888888888888" y="277.55555555555554" font-size="11" font-weight="bold" fill="#44aaff">+3V3</text>
<text x="599.3888888888888" y="289.55555555555554" font-size="9" fill="#44aaff">(52.05, 44.6)</text>
<circle cx="583.6388888888888" cy="410.0" r="7.75" fill="none" stroke="#44ff44" stroke-width="3" opacity="0.9"/>
<circle cx="583.6388888888888" cy="410.0" r="1.55" fill="#44ff44"/>
<text x="599.3888888888888" y="405.0" font-size="11" font-weight="bold" fill="#44ff44">GND</text>
<text x="599.3888888888888" y="417.0" font-size="9" fill="#44ff44">(52.05, 52.0)</text>
<line x1="591.3888888888889" y1="-80.83333333333331" x2="591.3888888888889" y2="664.8888888888888" stroke="#ff6666" stroke-width="2" opacity="0.6" stroke-dasharray="6,3"/>
<text x="583.3888888888889" y="292.0277777777777" text-anchor="end" font-size="10" fill="#ff6666" transform="rotate(-90,583.3888888888889,292.0277777777777)">BTN_A</text>
<line x1="570.7222222222223" y1="251.55555555555557" x2="612.0555555555555" y2="292.8888888888889" stroke="#ff0" stroke-width="3"/>
<line x1="612.0555555555555" y1="251.55555555555557" x2="570.7222222222223" y2="292.8888888888889" stroke="#ff0" stroke-width="3"/>
<rect x="615.0555555555555" y="264.22222222222223" width="16" height="16" rx="3" fill="#ff0" opacity="0.8"/>
<text x="623.0555555555555" y="276.22222222222223" text-anchor="middle" font-size="11" font-weight="bold" fill="#000">A</text>
<line x1="570.7222222222223" y1="272.22222222222223" x2="612.0555555555555" y2="313.5555555555556" stroke="#ff0" stroke-width="3"/>
<line x1="612.0555555555555" y1="272.22222222222223" x2="570.7222222222223" y2="313.5555555555556" stroke="#ff0" stroke-width="3"/>
<rect x="615.0555555555555" y="284.8888888888889" width="16" height="16" rx="3" fill="#ff0" opacity="0.8"/>
<text x="623.0555555555555" y="296.8888888888889" text-anchor="middle" font-size="11" font-weight="bold" fill="#000">B</text>
<line x1="570.7222222222223" y1="378.99999999999994" x2="612.0555555555555" y2="420.3333333333333" stroke="#ff0" stroke-width="3"/>
<line x1="612.0555555555555" y1="378.99999999999994" x2="570.7222222222223" y2="420.3333333333333" stroke="#ff0" stroke-width="3"/>
<rect x="615.0555555555555" y="391.66666666666663" width="16" height="16" rx="3" fill="#ff0" opacity="0.8"/>
<text x="623.0555555555555" y="403.66666666666663" text-anchor="middle" font-size="11" font-weight="bold" fill="#000">C</text>
<line x1="570.7222222222223" y1="399.6666666666667" x2="612.0555555555555" y2="441.00000000000006" stroke="#ff0" stroke-width="3"/>
<line x1="612.0555555555555" y1="399.6666666666667" x2="570.7222222222223" y2="441.00000000000006" stroke="#ff0" stroke-width="3"/>
<rect x="615.0555555555555" y="412.33333333333337" width="16" height="16" rx="3" fill="#ff0" opacity="0.8"/>
<text x="623.0555555555555" y="424.33333333333337" text-anchor="middle" font-size="11" font-weight="bold" fill="#000">D</text>
<path d="M591.3888888888889,263.6111111111111 C522.5,263.6111111111111 522.5,428.94444444444446 591.3888888888889,428.94444444444446" fill="none" stroke="#00ffaa" stroke-width="2.5" stroke-dasharray="6,4"/>
<rect x="20" y="730" width="1160" height="160" rx="6" fill="#111" stroke="#333"/>
<text x="30" y="748" font-size="13" font-weight="bold" fill="#ccc">ISTRUZIONI:</text>
<text x="30" y="768" font-size="11" fill="#aaa">• +3V3 via (52.05, 44.60) — overlap -0.175mm</text>
<text x="30" y="786" font-size="11" fill="#aaa">• GND via (52.05, 52.00) — overlap -0.175mm</text>
<text x="30" y="804" font-size="11" fill="#aaa">• Ponticello: sopra A → sotto D</text>
<text x="30" y="822" font-size="11" fill="#faa">• NOTA: anche FIX #18 su F.Cu (BTN_A→GND)</text>
<text x="1170" y="748" text-anchor="end" font-size="10" fill="#555">Coordinate in mm PCB</text>
<text x="1170" y="763" text-anchor="end" font-size="10" fill="#555">Layer: B.Cu</text>
</svg>