<svg xmlns="http://www.w3.org/2000/svg" viewBox="0 0 1200 900" font-family="monospace">
<rect width="1200" height="900" fill="#0a0a0a"/>
<text x="600" y="28" text-anchor="middle" font-size="18" font-weight="bold" fill="#ff8844">FIX 3 — LCD_RST bridge VBUS↔GND [CRITICO]</text>
<text x="600" y="48" text-anchor="middle" font-size="12" fill="#aaa">F.Cu — trace orizzontale y=33mm — 1 TAGLIO, no ponticello</text>
<rect x="20" y="58" width="320" height="35" rx="4" fill="#111" stroke="#333"/>
<rect x="30" y="68" width="20" height="6" fill="#ff4444" rx="1"/><text x="55" y="75" font-size="9" fill="#ff8888">VBUS</text>
<rect x="100" y="68" width="20" height="6" fill="#44aaff" rx="1"/><text x="125" y="75" font-size="9" fill="#88ccff">+3V3</text>
<rect x="170" y="68" width="20" height="6" fill="#44ff44" rx="1"/><text x="195" y="75" font-size="9" fill="#88ff88">GND</text>
<rect x="230" y="68" width="20" height="6" fill="#ff0" rx="1"/><text x="255" y="75" font-size="9" fill="#ff0">TAGLIO</text>
<rect x="295" y="68" width="20" height="3" fill="#00ffaa" rx="1"/><text x="320" y="75" font-size="9" fill="#00ffaa">JUMP</text>
<rect x="18.0" y="208.625" width="1164.0" height="402.75" rx="4" fill="#0a2a0a" stroke="#2a5a2a" stroke-width="2"/>
<defs>
  <clipPath id="clip-fix3">
    <rect x="20.0" y="210.625" width="1160.0" height="398.75"/>
  </clipPath>
</defs>
<g clip-path="url(#clip-fix3)">
  <g transform="translate(-1212.5,-224.375) scale(18.125)">


  
<g style="fill:#000000; fill-opacity:1.0000;stroke:#000000; stroke-opacity:1.0000;
stroke-linecap:round; stroke-linejoin:round;"
 transform="translate(0 0) scale(1 1)">
<path style="fill:#C83434; fill-opacity:1.0000; stroke:none;fill-rule:evenodd;"
d="M 14.4250,22.1250
14.4250,21.2250
15.6250,21.2250
15.6250,22.1250
Z" /> 
<path style="fill:#C83434; fill-opacity:1.0000; stroke:none;fill-rule:evenodd;"
d="M 20.4250,22.1250
20.4250,21.2250
21.6250,21.2250
21.6250,22.1250
Z" /> 
<path style="fill:#C83434; fill-opacity:1.0000; stroke:none;fill-rule:evenodd;"
d="M 14.4250,25.8250
14.4250,24.9250
15.6250,24.9250
15.6250,25.8250
Z" /> 
<path style="fill:#C83434; fill-opacity:1.0000; stroke:none;fill-rule:evenodd;"
d="M 20.4250,25.8250
20.4250,24.9250
21.6250,24.9250
21.6250,25.8250
Z" /> 
<path style="fill:#C83434; fill-opacity:1.0000; stroke:none;fill-rule:evenodd;"
d="M 14.4250,40.1250
14.4250,39.2250
15.6250,39.2250
15.6250,40.1250
Z" /> 
<path style="fill:#C83434; fill-opacity:1.0000; stroke:none;fill-rule:evenodd;"
d="M 20.4250,40.1250
20.4250,39.2250
21.6250,39.2250
21.6250,40.1250
Z" /> 
<path style="fill:#C83434; fill-opacity:1.0000; stroke:none;fill-rule:evenodd;"
d="M 14.4250,43.8250
14.4250,42.9250
15.6250,42.9250
15.6250,43.8250
Z" /> 
<path style="fill:#C83434; fill-opacity:1.0000; stroke:none;fill-rule:evenodd;"
d="M 20.4250,43.8250
20.4250,42.9250
21.6250,42.9250
21.6250,43.8250
Z" /> 
<path style="fill:#C83434; fill-opacity:1.0000; stroke:none;fill-rule:evenodd;"
d="M 5.4250,31.1250
5.4250,30.2250
6.6250,30.2250
6.6250,31.1250
Z" /> 
<path style="fill:#C83434; fill-opacity:1.0000; stroke:none;fill-rule:evenodd;"
d="M 11.4250,31.1250
11.4250,30.2250
12.6250,30.2250
12.6250,31.1250
Z" /> 
<path style="fill:#C83434; fill-opacity:1.0000; stroke:none;fill-rule:evenodd;"
d="M 5.4250,34.8250
5.4250,33.9250
6.6250,33.9250
6.6250,34.8250
Z" /> 
<path style="fill:#C83434; fill-opacity:1.0000; stroke:none;fill-rule:evenodd;"
d="M 11.4250,34.8250
11.4250,33.9250
12.6250,33.9250
12.6250,34.8250
Z" /> 
<path style="fill:#C83434; fill-opacity:1.0000; stroke:none;fill-rule:evenodd;"
d="M 23.4250,31.1250
23.4250,30.2250
24.6250,30.2250
24.6250,31.1250
Z" /> 
<path style="fill:#C83434; fill-opacity:1.0000; stroke:none;fill-rule:evenodd;"
d="M 29.4250,31.1250
29.4250,30.2250
30.6250,30.2250
30.6250,31.1250
Z" /> 
<path style="fill:#C83434; fill-opacity:1.0000; stroke:none;fill-rule:evenodd;"
d="M 23.4250,34.8250
23.4250,33.9250
24.6250,33.9250
24.6250,34.8250
Z" /> 
<path style="fill:#C83434; fill-opacity:1.0000; stroke:none;fill-rule:evenodd;"
d="M 29.4250,34.8250
29.4250,33.9250
30.6250,33.9250
30.6250,34.8250
Z" /> 
<path style="fill:#C83434; fill-opacity:1.0000; stroke:none;fill-rule:evenodd;"
d="M 138.4250,21.1250
138.4250,20.2250
139.6250,20.2250
139.6250,21.1250
Z" /> 
<path style="fill:#C83434; fill-opacity:1.0000; stroke:none;fill-rule:evenodd;"
d="M 144.4250,21.1250
144.4250,20.2250
145.6250,20.2250
145.6250,21.1250
Z" /> 
<path style="fill:#C83434; fill-opacity:1.0000; stroke:none;fill-rule:evenodd;"
d="M 138.4250,24.8250
138.4250,23.9250
139.6250,23.9250
139.6250,24.8250
Z" /> 
<path style="fill:#C83434; fill-opacity:1.0000; stroke:none;fill-rule:evenodd;"
d="M 144.4250,24.8250
144.4250,23.9250
145.6250,23.9250
145.6250,24.8250
Z" /> 
<path style="fill:#C83434; fill-opacity:1.0000; stroke:none;fill-rule:evenodd;"
d="M 148.4250,31.1250
148.4250,30.2250
149.6250,30.2250
149.6250,31.1250
Z" /> 
<path style="fill:#C83434; fill-opacity:1.0000; stroke:none;fill-rule:evenodd;"
d="M 154.4250,31.1250
154.4250,30.2250
155.6250,30.2250
155.6250,31.1250
Z" /> 
<path style="fill:#C83434; fill-opacity:1.0000; stroke:none;fill-rule:evenodd;"
d="M 148.4250,34.8250
148.4250,33.9250
149.6250,33.9250
149.6250,34.8250
Z" /> 
<path style="fill:#C83434; fill-opacity:1.0000; stroke:none;fill-rule:evenodd;"
d="M 154.4250,34.8250
154.4250,33.9250
155.6250,33.9250
155.6250,34.8250
Z" /> 
<path style="fill:#C83434; fill-opacity:1.0000; stroke:none;fill-rule:evenodd;"
d="M 138.4250,41.1250
138.4250,40.2250
139.6250,40.2250
139.6250,41.1250
Z" /> 
<path style="fill:#C83434; fill-opacity:1.0000; stroke:none;fill-rule:evenodd;"
d="M 144.4250,41.1250
144.4250,40.2250
145.6250,40.2250
145.6250,41.1250
Z" /> 
<path style="fill:#C83434; fill-opacity:1.0000; stroke:none;fill-rule:evenodd;"
d="M 138.4250,44.8250
138.4250,43.9250
139.6250,43.9250
139.6250,44.8250
Z" /> 
<path style="fill:#C83434; fill-opacity:1.0000; stroke:none;fill-rule:evenodd;"
d="M 144.4250,44.8250
144.4250,43.9250
145.6250,43.9250
145.6250,44.8250
Z" /> 
<path style="fill:#C83434; fill-opacity:1.0000; stroke:none;fill-rule:evenodd;"
d="M 129.4250,31.1250
129.4250,30.2250
130.6250,30.2250
130.6250,31.1250
Z" /> 
<path style="fill:#C83434; fill-opacity:1.0000; stroke:none;fill-rule:evenodd;"
d="M 135.4250,31.1250
135.4250,30.2250
136.6250,30.2250
136.6250,31.1250
Z" /> 
<path style="fill:#C83434; fill-opacity:1.0000; stroke:none;fill-rule:evenodd;"
d="M 129.4250,34.8250
129.4250,33.9250
130.6250,33.9250
130.6250,34.8250
Z" /> 
<path style="fill:#C83434; fill-opacity:1.0000; stroke:none;fill-rule:evenodd;"
d="M 135.4250,34.8250
135.4250,33.9250
136.6250,33.9250
136.6250,34.8250
Z" /> 
<path style="fill:#C83434; fill-opacity:1.0000; stroke:none;fill-rule:evenodd;"
d="M 4.4250,53.1250
4.4250,52.2250
5.6250,52.2250
5.6250,53.1250
Z" /> 
<path style="fill:#C83434; fill-opacity:1.0000; stroke:none;fill-rule:evenodd;"
d="M 10.4250,53.1250
10.4250,52.2250
11.6250,52.2250
11.6250,53.1250
Z" /> 
<path style="fill:#C83434; fill-opacity:1.0000; stroke:none;fill-rule:evenodd;"
d="M 4.4250,56.8250
4.4250,55.9250
5.6250,55.9250
5.6250,56.8250
Z" /> 
<path style="fill:#C83434; fill-opacity:1.0000; stroke:none;fill-rule:evenodd;"
d="M 10.4250,56.8250
10.4250,55.9250
11.6250,55.9250
11.6250,56.8250
Z" /> 
<path style="fill:#C83434; fill-opacity:1.0000; stroke:none;fill-rule:evenodd;"
d="M 24.4250,53.1250
24.4250,52.2250
25.6250,52.2250
25.6250,53.1250
Z" /> 
<path style="fill:#C83434; fill-opacity:1.0000; stroke:none;fill-rule:evenodd;"
d="M 30.4250,53.1250
30.4250,52.2250
31.6250,52.2250
31.6250,53.1250
Z" /> 
<path style="fill:#C83434; fill-opacity:1.0000; stroke:none;fill-rule:evenodd;"
d="M 24.4250,56.8250
24.4250,55.9250
25.6250,55.9250
25.6250,56.8250
Z" /> 
<path style="fill:#C83434; fill-opacity:1.0000; stroke:none;fill-rule:evenodd;"
d="M 30.4250,56.8250
30.4250,55.9250
31.6250,55.9250
31.6250,56.8250
Z" /> 
<path style="fill:#C83434; fill-opacity:1.0000; stroke:none;fill-rule:evenodd;"
d="M 138.4250,61.8250
138.4250,60.9250
139.6250,60.9250
139.6250,61.8250
Z" /> 
<path style="fill:#C83434; fill-opacity:1.0000; stroke:none;fill-rule:evenodd;"
d="M 144.4250,61.8250
144.4250,60.9250
145.6250,60.9250
145.6250,61.8250
Z" /> 
<path style="fill:#C83434; fill-opacity:1.0000; stroke:none;fill-rule:evenodd;"
d="M 138.4250,65.5250
138.4250,64.6250
139.6250,64.6250
139.6250,65.5250
Z" /> 
<path style="fill:#C83434; fill-opacity:1.0000; stroke:none;fill-rule:evenodd;"
d="M 144.4250,65.5250
144.4250,64.6250
145.6250,64.6250
145.6250,65.5250
Z" /> 
<path style="fill:#C83434; fill-opacity:1.0000; stroke:none;fill-rule:evenodd;"
d="M 23.5750,68.1750
23.5750,66.8750
24.5750,66.8750
24.5750,68.1750
Z" /> 
<path style="fill:#C83434; fill-opacity:1.0000; stroke:none;fill-rule:evenodd;"
d="M 25.4750,68.1750
25.4750,66.8750
26.4750,66.8750
26.4750,68.1750
Z" /> 
<path style="fill:#C83434; fill-opacity:1.0000; stroke:none;fill-rule:evenodd;"
d="M 30.5750,68.1750
30.5750,66.8750
31.5750,66.8750
31.5750,68.1750
Z" /> 
<path style="fill:#C83434; fill-opacity:1.0000; stroke:none;fill-rule:evenodd;"
d="M 32.4750,68.1750
32.4750,66.8750
33.4750,66.8750
33.4750,68.1750
Z" /> 
</g>
<g style="fill:none; 
stroke:#C83434; stroke-width:1.7000; stroke-opacity:1; 
stroke-linecap:round; stroke-linejoin:round;">
<path d="M84.3500 69.5500
L84.3500 69.8500
" />
<path d="M75.7000 69.5500
L75.7000 69.8500
" />
</g>
<g style="fill:none; 
stroke:#C83434; stroke-width:1.4000; stroke-opacity:1; 
stroke-linecap:round; stroke-linejoin:round;">
<path d="M84.3500 73.7000
L84.3500 74.1000
" />
<path d="M75.7000 73.7000
L75.7000 74.1000
" />
</g>
<g style="fill:#C83434; fill-opacity:1.0000; stroke:none;">
<circle cx="81.0250" cy="57.5250" r="0.8000" /> 
<circle cx="79.0250" cy="57.5250" r="0.8000" /> 
<circle cx="82.0250" cy="61.0250" r="0.4500" /> 
<circle cx="111.0250" cy="40.1200" r="0.4500" /> 
<circle cx="112.4250" cy="45.5250" r="0.4500" /> 
<circle cx="127.3250" cy="60.6750" r="0.4500" /> 
<circle cx="77.0250" cy="57.5250" r="0.4500" /> 
<circle cx="76.8250" cy="67.4250" r="0.2300" /> 
<circle cx="80.0250" cy="35.0250" r="0.2300" /> 
<circle cx="141.0850" cy="61.7490" r="0.2300" /> 
<circle cx="143.2850" cy="61.7490" r="0.2300" /> 
<circle cx="148.7850" cy="62.5990" r="0.2300" /> 
<circle cx="131.2650" cy="72.3010" r="0.2300" /> 
<circle cx="107.5250" cy="39.1200" r="0.4500" /> 
<circle cx="122.7250" cy="56.6750" r="0.4500" /> 
<circle cx="112.4250" cy="49.5250" r="0.4500" /> 
<circle cx="115.9750" cy="54.5250" r="0.4500" /> 
<circle cx="125.0250" cy="49.3750" r="0.4500" /> 
<circle cx="88.7750" cy="21.0350" r="0.2300" /> 
<circle cx="105.5250" cy="46.1600" r="0.4500" /> 
<circle cx="80.5250" cy="46.1600" r="0.4500" /> 
<circle cx="39.2750" cy="68.3250" r="0.4500" /> 
<circle cx="38.0250" cy="46.1600" r="0.4500" /> 
<circle cx="80.6600" cy="38.1400" r="0.2300" /> 
<circle cx="101.0250" cy="38.1400" r="0.2550" /> 
<circle cx="110.0250" cy="38.1400" r="0.2550" /> 
<circle cx="124.0250" cy="38.1400" r="0.2300" /> 
<circle cx="124.0250" cy="5.0250" r="0.2300" /> 
<circle cx="140.4250" cy="5.0250" r="0.2300" /> 
<circle cx="78.1200" cy="36.8700" r="0.2300" /> 
<circle cx="101.5750" cy="36.8700" r="0.2550" /> 
<circle cx="108.2250" cy="36.8700" r="0.2550" /> 
<circle cx="122.9250" cy="36.8700" r="0.2300" /> 
<circle cx="122.9250" cy="6.0250" r="0.2300" /> 
<circle cx="139.7250" cy="6.0250" r="0.2300" /> 
<circle cx="85.7400" cy="35.6000" r="0.2300" /> 
<circle cx="102.3650" cy="35.6000" r="0.2550" /> 
<circle cx="107.6850" cy="35.6000" r="0.2550" /> 
<circle cx="121.8250" cy="35.6000" r="0.2300" /> 
<circle cx="121.8250" cy="7.0250" r="0.2300" /> 
<circle cx="139.0250" cy="7.0250" r="0.2300" /> 
<circle cx="87.0100" cy="34.3300" r="0.2300" /> 
<circle cx="120.7250" cy="34.3300" r="0.2300" /> 
<circle cx="120.7250" cy="8.0250" r="0.2300" /> 
<circle cx="138.3250" cy="8.0250" r="0.2300" /> 
<circle cx="79.3900" cy="33.0600" r="0.2300" /> 
<circle cx="119.6250" cy="33.0600" r="0.2300" /> 
<circle cx="119.6250" cy="9.0250" r="0.2300" /> 
<circle cx="137.6250" cy="9.0250" r="0.2300" /> 
<circle cx="90.7750" cy="26.0750" r="0.2300" /> 
<circle cx="118.5250" cy="26.0750" r="0.2300" /> 
<circle cx="118.5250" cy="10.0250" r="0.2300" /> 
<circle cx="136.9250" cy="10.0250" r="0.2300" /> 
<circle cx="90.7750" cy="27.3450" r="0.2300" /> 
<circle cx="117.4250" cy="27.3450" r="0.2300" /> 
<circle cx="117.4250" cy="11.0250" r="0.2300" /> 
<circle cx="136.2250" cy="11.0250" r="0.2300" /> 
<circle cx="90.7750" cy="28.6150" r="0.2300" /> 
<circle cx="116.3250" cy="28.6150" r="0.2300" /> 
<circle cx="116.3250" cy="12.0250" r="0.2300" /> 
<circle cx="135.5250" cy="12.0250" r="0.2300" /> 
<circle cx="90.7750" cy="29.8850" r="0.2300" /> 
<circle cx="115.2250" cy="29.8850" r="0.2300" /> 
<circle cx="115.2250" cy="13.0250" r="0.2300" /> 
<circle cx="134.8250" cy="13.0250" r="0.2300" /> 
<circle cx="90.7750" cy="36.2350" r="0.2300" /> 
<circle cx="99.5250" cy="36.2350" r="0.2550" /> 
<circle cx="111.5250" cy="36.2350" r="0.2550" /> 
<circle cx="114.1250" cy="36.2350" r="0.2300" /> 
<circle cx="114.1250" cy="14.0250" r="0.2300" /> 
<circle cx="134.1250" cy="14.0250" r="0.2300" /> 
<circle cx="84.4700" cy="31.7900" r="0.2300" /> 
<circle cx="113.0250" cy="31.7900" r="0.2300" /> 
<circle cx="113.0250" cy="15.0250" r="0.2300" /> 
<circle cx="131.0250" cy="15.0250" r="0.2300" /> 
<circle cx="83.2000" cy="20.5250" r="0.2300" /> 
<circle cx="111.9250" cy="20.5250" r="0.2300" /> 
<circle cx="111.9250" cy="16.0250" r="0.2300" /> 
<circle cx="131.7250" cy="16.0250" r="0.2300" /> 
<circle cx="81.9300" cy="19.5250" r="0.2300" /> 
<circle cx="110.8250" cy="19.5250" r="0.2300" /> 
<circle cx="110.8250" cy="17.0250" r="0.2300" /> 
<circle cx="132.4250" cy="17.0250" r="0.2300" /> 
<circle cx="73.0400" cy="27.9800" r="0.2300" /> 
<circle cx="109.7250" cy="27.9800" r="0.2300" /> 
<circle cx="109.7250" cy="18.0250" r="0.2300" /> 
<circle cx="133.1250" cy="18.0250" r="0.2300" /> 
<circle cx="133.6250" cy="25.2750" r="0.2250" /> 
<circle cx="133.6250" cy="27.4250" r="0.2250" /> 
<circle cx="133.6250" cy="28.2750" r="0.2250" /> 
<circle cx="133.1250" cy="43.2750" r="0.2300" /> 
<circle cx="143.5250" cy="43.2750" r="0.2300" /> 
<circle cx="143.5250" cy="50.2750" r="0.2300" /> 
<circle cx="133.6250" cy="37.7750" r="0.2250" /> 
<circle cx="133.6250" cy="26.2750" r="0.2250" /> 
<circle cx="132.0250" cy="50.2750" r="0.2300" /> 
<circle cx="72.2250" cy="36.2350" r="0.2300" /> 
<circle cx="75.0250" cy="36.2350" r="0.2300" /> 
<circle cx="75.0250" cy="1.5250" r="0.2300" /> 
<circle cx="141.2250" cy="1.5250" r="0.2300" /> 
<circle cx="141.2250" cy="66.0250" r="0.2300" /> 
<circle cx="139.9850" cy="66.0250" r="0.2300" /> 
<circle cx="72.2250" cy="34.9650" r="0.2300" /> 
<circle cx="76.0250" cy="34.9650" r="0.2300" /> 
<circle cx="76.0250" cy="2.2250" r="0.2300" /> 
<circle cx="145.6250" cy="2.2250" r="0.2300" /> 
<circle cx="145.6250" cy="67.5250" r="0.2300" /> 
<circle cx="144.3850" cy="67.5250" r="0.2300" /> 
<circle cx="72.2250" cy="33.6950" r="0.2300" /> 
<circle cx="77.0250" cy="33.6950" r="0.2300" /> 
<circle cx="77.0250" cy="2.9250" r="0.2300" /> 
<circle cx="152.5250" cy="2.9250" r="0.2300" /> 
<circle cx="152.5250" cy="70.5250" r="0.2300" /> 
<circle cx="142.1850" cy="70.5250" r="0.2300" /> 
<circle cx="72.2250" cy="32.4250" r="0.2300" /> 
<circle cx="78.0250" cy="32.4250" r="0.2300" /> 
<circle cx="78.0250" cy="3.6250" r="0.2300" /> 
<circle cx="153.5250" cy="3.6250" r="0.2300" /> 
<circle cx="153.5250" cy="72.0250" r="0.2300" /> 
<circle cx="138.8850" cy="72.0250" r="0.2300" /> 
<circle cx="87.7250" cy="18.0250" r="0.2300" /> 
<circle cx="33.2000" cy="18.0250" r="0.2300" /> 
<circle cx="24.5250" cy="22.5250" r="0.2300" /> 
<circle cx="39.5250" cy="22.5250" r="0.2300" /> 
<circle cx="28.1200" cy="23.7250" r="0.2300" /> 
<circle cx="20.5250" cy="23.7250" r="0.2300" /> 
<circle cx="31.9300" cy="28.8250" r="0.2300" /> 
<circle cx="29.3900" cy="28.7250" r="0.2300" /> 
<circle cx="26.8500" cy="24.8250" r="0.2300" /> 
<circle cx="26.8500" cy="34.3250" r="0.2300" /> 
<circle cx="31.9300" cy="34.3250" r="0.2300" /> 
<circle cx="38.9750" cy="25.3250" r="0.2300" /> 
<circle cx="33.2000" cy="32.2250" r="0.2300" /> 
<circle cx="37.0750" cy="32.2250" r="0.2300" /> 
<circle cx="38.9750" cy="33.7250" r="0.2300" /> 
<circle cx="38.9750" cy="24.5250" r="0.2300" /> 
<circle cx="31.9300" cy="25.8250" r="0.2300" /> 
<circle cx="38.0250" cy="25.8250" r="0.2300" /> 
<circle cx="38.0250" cy="30.9750" r="0.2300" /> 
<circle cx="29.3900" cy="20.5750" r="0.2300" /> 
<circle cx="31.5250" cy="38.9750" r="0.2300" /> 
<circle cx="80.6250" cy="66.1500" r="0.2300" /> 
<circle cx="90.2750" cy="66.1500" r="0.2300" /> 
<circle cx="79.7750" cy="64.9000" r="0.2300" /> 
<circle cx="91.7250" cy="64.9000" r="0.2300" /> 
<circle cx="78.2750" cy="72.5250" r="0.2300" /> 
<circle cx="86.9750" cy="72.5250" r="0.2300" /> 
<circle cx="73.0750" cy="65.5250" r="0.2300" /> 
<circle cx="85.0750" cy="64.0250" r="0.2300" /> 
<circle cx="22.2250" cy="21.6750" r="0.2300" /> 
<circle cx="22.2250" cy="62.0250" r="0.2300" /> 
<circle cx="67.4750" cy="62.0250" r="0.2300" /> 
<circle cx="67.4750" cy="31.1550" r="0.2300" /> 
<circle cx="69.2750" cy="31.1550" r="0.2300" /> 
<circle cx="16.0250" cy="25.8750" r="0.2300" /> 
<circle cx="22.9750" cy="39.6750" r="0.2300" /> 
<circle cx="22.9750" cy="63.2250" r="0.2300" /> 
<circle cx="65.5750" cy="63.2250" r="0.2300" /> 
<circle cx="65.5750" cy="29.8850" r="0.2300" /> 
<circle cx="69.2750" cy="29.8850" r="0.2300" /> 
<circle cx="16.0250" cy="43.8750" r="0.2300" /> 
<circle cx="13.2250" cy="30.6750" r="0.2300" /> 
<circle cx="13.2250" cy="64.4250" r="0.2300" /> 
<circle cx="62.4750" cy="64.4250" r="0.2300" /> 
<circle cx="62.4750" cy="28.6150" r="0.2300" /> 
<circle cx="69.2750" cy="28.6150" r="0.2300" /> 
<circle cx="7.5250" cy="34.8750" r="0.2300" /> 
<circle cx="34.2250" cy="30.6750" r="0.2300" /> 
<circle cx="34.2250" cy="65.6250" r="0.2300" /> 
<circle cx="58.5750" cy="65.6250" r="0.2300" /> 
<circle cx="58.5750" cy="24.8050" r="0.2300" /> 
<circle cx="69.2750" cy="24.8050" r="0.2300" /> 
<circle cx="25.5250" cy="34.8750" r="0.2300" /> 
<circle cx="130.3250" cy="20.6750" r="0.1750" /> 
<circle cx="130.3250" cy="66.8250" r="0.1750" /> 
<circle cx="52.4750" cy="66.8250" r="0.1750" /> 
<circle cx="52.4750" cy="23.5350" r="0.2300" /> 
<circle cx="69.2750" cy="23.5350" r="0.2300" /> 
<circle cx="143.5250" cy="24.8750" r="0.2300" /> 
<circle cx="142.8250" cy="30.6750" r="0.1750" /> 
<circle cx="142.8250" cy="68.0250" r="0.1750" /> 
<circle cx="45.4750" cy="68.0250" r="0.1750" /> 
<circle cx="45.4750" cy="41.5250" r="0.2300" /> 
<circle cx="73.2750" cy="41.5250" r="0.2300" /> 
<circle cx="154.0750" cy="34.8750" r="0.2300" /> 
<circle cx="129.8250" cy="40.6750" r="0.1750" /> 
<circle cx="129.8250" cy="69.2250" r="0.1750" /> 
<circle cx="36.4750" cy="69.2250" r="0.1750" /> 
<circle cx="36.4750" cy="42.7250" r="0.2300" /> 
<circle cx="73.5800" cy="42.7250" r="0.2300" /> 
<circle cx="143.5250" cy="44.8750" r="0.2300" /> 
<circle cx="129.3250" cy="30.6750" r="0.1750" /> 
<circle cx="129.3250" cy="70.4250" r="0.1750" /> 
<circle cx="27.4750" cy="70.4250" r="0.1750" /> 
<circle cx="27.4750" cy="43.9250" r="0.2300" /> 
<circle cx="74.8500" cy="43.9250" r="0.2300" /> 
<circle cx="140.0250" cy="49.0250" r="0.2300" /> 
<circle cx="12.2250" cy="52.6750" r="0.2300" /> 
<circle cx="12.2250" cy="71.6250" r="0.2300" /> 
<circle cx="100.4750" cy="71.6250" r="0.2300" /> 
<circle cx="100.4750" cy="34.9650" r="0.2300" /> 
<circle cx="90.7750" cy="34.9650" r="0.2300" /> 
<circle cx="6.5250" cy="56.8750" r="0.2300" /> 
<circle cx="34.9750" cy="52.6750" r="0.2300" /> 
<circle cx="34.9750" cy="72.8250" r="0.2300" /> 
<circle cx="60.4750" cy="72.8250" r="0.2300" /> 
<circle cx="60.4750" cy="45.1250" r="0.2300" /> 
<circle cx="73.2750" cy="45.1250" r="0.2300" /> 
<circle cx="26.5250" cy="56.8750" r="0.2300" /> 
<circle cx="16.8750" cy="73.5550" r="0.2300" /> 
<circle cx="68.0250" cy="73.5550" r="0.2300" /> 
<circle cx="68.0250" cy="37.5050" r="0.2300" /> 
<circle cx="14.6750" cy="8.5250" r="0.2300" /> 
<circle cx="146.8750" cy="65.4250" r="0.2300" /> 
<circle cx="76.2250" cy="65.4250" r="0.2300" /> 
<circle cx="76.2250" cy="45.0250" r="0.2300" /> 
<circle cx="65.0250" cy="42.1250" r="0.2300" /> 
<circle cx="144.6750" cy="8.5250" r="0.2300" /> 
<circle cx="41.8250" cy="44.5250" r="0.2300" /> 
<circle cx="46.8250" cy="44.5250" r="0.2300" /> 
<circle cx="51.8250" cy="44.5250" r="0.2300" /> 
<circle cx="56.8250" cy="44.5250" r="0.2300" /> 
<circle cx="61.8250" cy="44.5250" r="0.2300" /> 
<circle cx="66.8250" cy="44.5250" r="0.2300" /> 
<circle cx="71.8250" cy="47.5250" r="0.2300" /> 
<circle cx="76.9750" cy="44.5250" r="0.2300" /> 
<circle cx="81.8250" cy="44.5250" r="0.2300" /> 
<circle cx="86.8250" cy="44.5250" r="0.2300" /> 
<circle cx="92.2250" cy="44.5250" r="0.2300" /> 
<circle cx="96.8250" cy="44.5250" r="0.2300" /> 
<circle cx="101.8250" cy="44.5250" r="0.2300" /> 
<circle cx="41.8250" cy="52.0250" r="0.2300" /> 
<circle cx="46.8250" cy="52.0250" r="0.2300" /> 
<circle cx="51.8250" cy="52.0250" r="0.2300" /> 
<circle cx="56.8250" cy="52.0250" r="0.2300" /> 
<circle cx="61.8250" cy="52.0250" r="0.2300" /> 
<circle cx="66.8250" cy="52.0250" r="0.2300" /> 
<circle cx="71.8250" cy="52.0250" r="0.2300" /> 
<circle cx="76.9750" cy="52.0250" r="0.2300" /> 
<circle cx="81.8250" cy="52.0250" r="0.2300" /> 
<circle cx="86.8250" cy="52.0250" r="0.2300" /> 
<circle cx="92.2250" cy="52.0250" r="0.2300" /> 
<circle cx="96.8250" cy="52.0250" r="0.2300" /> 
<circle cx="101.8250" cy="52.0250" r="0.2300" /> 
<circle cx="70.4750" cy="44.5250" r="0.2300" /> 
<circle cx="68.5750" cy="40.0250" r="0.2300" /> 
<circle cx="92.9750" cy="40.6250" r="0.2300" /> 
<circle cx="91.0750" cy="40.0250" r="0.2300" /> 
<circle cx="122.9750" cy="46.0250" r="0.2300" /> 
<circle cx="121.0750" cy="46.0250" r="0.2300" /> 
<circle cx="123.5250" cy="64.5250" r="0.2300" /> 
<circle cx="110.9750" cy="33.6750" r="0.2300" /> 
<circle cx="109.0750" cy="37.5250" r="0.2300" /> 
<circle cx="118.9750" cy="52.5250" r="0.2300" /> 
<circle cx="117.0750" cy="57.5250" r="0.2300" /> 
<circle cx="113.0250" cy="56.5250" r="0.2300" /> 
<circle cx="108.5250" cy="59.5250" r="0.2300" /> 
<circle cx="25.9750" cy="62.6750" r="0.2300" /> 
<circle cx="24.0750" cy="66.2750" r="0.4000" /> 
<circle cx="26.6750" cy="67.5250" r="0.2300" /> 
<circle cx="32.9750" cy="62.6750" r="0.2300" /> 
<circle cx="31.0750" cy="66.2750" r="0.4000" /> 
<circle cx="33.6750" cy="67.5250" r="0.2300" /> 
</g>
<g style="fill:none; 
stroke:#C83434; stroke-width:0.5000; stroke-opacity:1; 
stroke-linecap:round; stroke-linejoin:round;">
<path d="M82.0250 61.0250
L111.0250 61.0250
" />
<path d="M111.0250 61.0250
L111.0250 40.1200
" />
<path d="M105.5250 46.1600
L80.5250 46.1600
" />
<path d="M38.0250 46.1600
L81.0250 46.1600
" />
</g>
<g style="fill:none; 
stroke:#C83434; stroke-width:0.2000; stroke-opacity:1; 
stroke-linecap:round; stroke-linejoin:round;">
<path d="M80.6600 38.1400
L101.0250 38.1400
" />
<path d="M110.0250 38.1400
L124.0250 38.1400
" />
<path d="M124.0250 5.0250
L140.4250 5.0250
" />
<path d="M78.1200 36.8700
L101.5750 36.8700
" />
<path d="M108.2250 36.8700
L122.9250 36.8700
" />
<path d="M122.9250 6.0250
L139.7250 6.0250
" />
<path d="M85.7400 35.6000
L102.3650 35.6000
" />
<path d="M107.6850 35.6000
L121.8250 35.6000
" />
<path d="M121.8250 7.0250
L139.0250 7.0250
" />
<path d="M87.0100 34.3300
L120.7250 34.3300
" />
<path d="M120.7250 8.0250
L138.3250 8.0250
" />
<path d="M79.3900 33.0600
L119.6250 33.0600
" />
<path d="M119.6250 9.0250
L137.6250 9.0250
" />
<path d="M90.7750 26.0750
L118.5250 26.0750
" />
<path d="M118.5250 10.0250
L136.9250 10.0250
" />
<path d="M90.7750 27.3450
L117.4250 27.3450
" />
<path d="M117.4250 11.0250
L136.2250 11.0250
" />
<path d="M90.7750 28.6150
L116.3250 28.6150
" />
<path d="M116.3250 12.0250
L135.5250 12.0250
" />
<path d="M90.7750 29.8850
L115.2250 29.8850
" />
<path d="M115.2250 13.0250
L134.8250 13.0250
" />
<path d="M90.7750 36.2350
L99.5250 36.2350
" />
<path d="M111.5250 36.2350
L114.1250 36.2350
" />
<path d="M114.1250 14.0250
L134.1250 14.0250
" />
<path d="M84.4700 31.7900
L113.0250 31.7900
" />
<path d="M113.0250 15.0250
L131.0250 15.0250
" />
<path d="M83.2000 20.5250
L111.9250 20.5250
" />
<path d="M111.9250 16.0250
L131.7250 16.0250
" />
<path d="M81.9300 19.5250
L110.8250 19.5250
" />
<path d="M110.8250 17.0250
L132.4250 17.0250
" />
<path d="M73.0400 27.9800
L109.7250 27.9800
" />
<path d="M109.7250 18.0250
L133.1250 18.0250
" />
</g>
<g style="fill:none; 
stroke:#C83434; stroke-width:0.3000; stroke-opacity:1; 
stroke-linecap:round; stroke-linejoin:round;">
<path d="M133.1250 43.2750
L143.5250 43.2750
" />
</g>
<g style="fill:none; 
stroke:#C83434; stroke-width:0.2000; stroke-opacity:1; 
stroke-linecap:round; stroke-linejoin:round;">
<path d="M72.2250 36.2350
L75.0250 36.2350
" />
<path d="M75.0250 1.5250
L141.2250 1.5250
" />
<path d="M141.2250 66.0250
L139.9850 66.0250
" />
<path d="M72.2250 34.9650
L76.0250 34.9650
" />
<path d="M76.0250 2.2250
L145.6250 2.2250
" />
<path d="M145.6250 67.5250
L144.3850 67.5250
" />
<path d="M72.2250 33.6950
L77.0250 33.6950
" />
<path d="M77.0250 2.9250
L152.5250 2.9250
" />
<path d="M152.5250 70.5250
L142.1850 70.5250
" />
<path d="M72.2250 32.4250
L78.0250 32.4250
" />
<path d="M78.0250 3.6250
L153.5250 3.6250
" />
<path d="M153.5250 72.0250
L138.8850 72.0250
" />
<path d="M87.7250 18.0250
L33.2000 18.0250
" />
</g>
<g style="fill:none; 
stroke:#C83434; stroke-width:0.3000; stroke-opacity:1; 
stroke-linecap:round; stroke-linejoin:round;">
<path d="M24.5250 22.5250
L39.5250 22.5250
" />
<path d="M28.1200 23.7250
L20.5250 23.7250
" />
</g>
<g style="fill:none; 
stroke:#C83434; stroke-width:0.2000; stroke-opacity:1; 
stroke-linecap:round; stroke-linejoin:round;">
<path d="M33.2000 32.2250
L37.0750 32.2250
" />
</g>
<g style="fill:none; 
stroke:#C83434; stroke-width:0.2500; stroke-opacity:1; 
stroke-linecap:round; stroke-linejoin:round;">
<path d="M31.9300 25.8250
L38.0250 25.8250
" />
</g>
<g style="fill:none; 
stroke:#C83434; stroke-width:0.2000; stroke-opacity:1; 
stroke-linecap:round; stroke-linejoin:round;">
<path d="M80.6250 66.1500
L90.2750 66.1500
" />
<path d="M79.7750 64.9000
L91.7250 64.9000
" />
</g>
<g style="fill:none; 
stroke:#C83434; stroke-width:0.2500; stroke-opacity:1; 
stroke-linecap:round; stroke-linejoin:round;">
<path d="M78.2750 72.5250
L86.9750 72.5250
" />
<path d="M21.0250 21.6750
L22.2250 21.6750
" />
<path d="M22.2250 62.0250
L67.4750 62.0250
" />
<path d="M67.4750 31.1550
L69.2750 31.1550
" />
<path d="M15.0250 25.3750
L16.0250 25.3750
" />
<path d="M16.0250 25.3750
L16.0250 25.8750
" />
<path d="M21.0250 39.6750
L22.9750 39.6750
" />
<path d="M22.9750 63.2250
L65.5750 63.2250
" />
<path d="M65.5750 29.8850
L69.2750 29.8850
" />
<path d="M15.0250 43.3750
L16.0250 43.3750
" />
<path d="M16.0250 43.3750
L16.0250 43.8750
" />
<path d="M12.0250 30.6750
L13.2250 30.6750
" />
<path d="M13.2250 64.4250
L62.4750 64.4250
" />
<path d="M62.4750 28.6150
L69.2750 28.6150
" />
<path d="M6.0250 34.3750
L7.5250 34.3750
" />
<path d="M7.5250 34.3750
L7.5250 34.8750
" />
<path d="M30.0250 30.6750
L34.2250 30.6750
" />
<path d="M34.2250 65.6250
L58.5750 65.6250
" />
<path d="M58.5750 24.8050
L69.2750 24.8050
" />
<path d="M24.0250 34.3750
L25.5250 34.3750
" />
<path d="M25.5250 34.3750
L25.5250 34.8750
" />
<path d="M139.0250 20.6750
L130.3250 20.6750
" />
<path d="M130.3250 66.8250
L52.4750 66.8250
" />
<path d="M52.4750 23.5350
L69.2750 23.5350
" />
<path d="M145.0250 24.3750
L143.5250 24.3750
" />
<path d="M143.5250 24.3750
L143.5250 24.8750
" />
<path d="M149.0250 30.6750
L142.8250 30.6750
" />
<path d="M142.8250 68.0250
L45.4750 68.0250
" />
<path d="M45.4750 41.5250
L73.2750 41.5250
" />
<path d="M155.0250 34.3750
L154.0750 34.3750
" />
<path d="M154.0750 34.3750
L154.0750 34.8750
" />
<path d="M139.0250 40.6750
L129.8250 40.6750
" />
<path d="M129.8250 69.2250
L36.4750 69.2250
" />
<path d="M36.4750 42.7250
L73.5800 42.7250
" />
<path d="M145.0250 44.3750
L143.5250 44.3750
" />
<path d="M143.5250 44.3750
L143.5250 44.8750
" />
<path d="M130.0250 30.6750
L129.3250 30.6750
" />
<path d="M129.3250 70.4250
L27.4750 70.4250
" />
<path d="M27.4750 43.9250
L74.8500 43.9250
" />
<path d="M136.0250 34.3750
L140.0250 34.3750
" />
<path d="M140.0250 34.3750
L140.0250 49.0250
" />
<path d="M11.0250 52.6750
L12.2250 52.6750
" />
<path d="M12.2250 71.6250
L100.4750 71.6250
" />
<path d="M100.4750 34.9650
L90.7750 34.9650
" />
<path d="M5.0250 56.3750
L6.5250 56.3750
" />
<path d="M6.5250 56.3750
L6.5250 56.8750
" />
<path d="M31.0250 52.6750
L34.9750 52.6750
" />
<path d="M34.9750 72.8250
L60.4750 72.8250
" />
<path d="M60.4750 45.1250
L73.2750 45.1250
" />
<path d="M25.0250 56.3750
L26.5250 56.3750
" />
<path d="M26.5250 56.3750
L26.5250 56.8750
" />
</g>
<g style="fill:none; 
stroke:#C83434; stroke-width:0.2000; stroke-opacity:1; 
stroke-linecap:round; stroke-linejoin:round;">
<path d="M16.8750 73.5550
L68.0250 73.5550
" />
<path d="M68.0250 37.5050
L71.2750 37.5050
" />
<path d="M146.8750 65.4250
L76.2250 65.4250
" />
<path d="M76.2250 45.0250
L76.2250 42.1250
" />
<path d="M76.2250 42.1250
L65.0250 42.1250
" />
</g>
<g style="fill:none; 
stroke:#C83434; stroke-width:0.2500; stroke-opacity:1; 
stroke-linecap:round; stroke-linejoin:round;">
<path d="M24.0750 66.2750
L24.0750 67.5250
" />
<path d="M25.9750 67.5250
L26.6750 67.5250
" />
<path d="M31.0750 66.2750
L31.0750 67.5250
" />
<path d="M32.9750 67.5250
L33.6750 67.5250
" />
</g>
<g style="fill:none; 
stroke:#D0D2CD; stroke-width:0.0500; stroke-opacity:1; 
stroke-linecap:round; stroke-linejoin:round;">
<path d="M6.0250 0.0250
L154.0250 0.0250
" />
<path d="M160.0250 6.0250
L160.0250 69.0250
" />
<path d="M154.0250 75.0250
L6.0250 75.0250
" />
<path d="M0.0250 69.0250
L0.0250 6.0250
" />
<path d="M6.0250 0.0250 A6.0000 6.0000 0.0 0 0 0.0250 6.0250" />
<path d="M160.0250 6.0250 A6.0000 6.0000 0.0 0 0 154.0250 0.0250" />
<path d="M154.0250 75.0250 A6.0000 6.0000 0.0 0 0 160.0250 69.0250" />
<path d="M0.0250 69.0250 A6.0000 6.0000 0.0 0 0 6.0250 75.0250" />
<path d="M125.5250 23.5250
L128.5250 23.5250
" />
<path d="M128.5250 23.5250
L128.5250 47.5250
" />
<path d="M128.5250 47.5250
L125.5250 47.5250
" />
<path d="M125.5250 47.5250
L125.5250 23.5250
" />
</g>
<g style="fill:#FFFFFF; fill-opacity:1.0000; stroke:none;">
<circle cx="82.0250" cy="61.0250" r="0.1750" /> 
<circle cx="111.0250" cy="40.1200" r="0.1750" /> 
<circle cx="112.4250" cy="45.5250" r="0.1750" /> 
<circle cx="127.3250" cy="60.6750" r="0.1750" /> 
<circle cx="77.0250" cy="57.5250" r="0.1750" /> 
<circle cx="76.8250" cy="67.4250" r="0.1000" /> 
<circle cx="80.0250" cy="35.0250" r="0.1000" /> 
<circle cx="141.0850" cy="61.7490" r="0.1000" /> 
<circle cx="143.2850" cy="61.7490" r="0.1000" /> 
<circle cx="148.7850" cy="62.5990" r="0.1000" /> 
<circle cx="131.2650" cy="72.3010" r="0.1000" /> 
<circle cx="107.5250" cy="39.1200" r="0.1750" /> 
<circle cx="122.7250" cy="56.6750" r="0.1750" /> 
<circle cx="112.4250" cy="49.5250" r="0.1750" /> 
<circle cx="115.9750" cy="54.5250" r="0.1750" /> 
<circle cx="125.0250" cy="49.3750" r="0.1750" /> 
<circle cx="88.7750" cy="21.0350" r="0.1000" /> 
<circle cx="105.5250" cy="46.1600" r="0.1750" /> 
<circle cx="80.5250" cy="46.1600" r="0.1750" /> 
<circle cx="39.2750" cy="68.3250" r="0.1750" /> 
<circle cx="38.0250" cy="46.1600" r="0.1750" /> 
<circle cx="80.6600" cy="38.1400" r="0.1000" /> 
<circle cx="101.0250" cy="38.1400" r="0.1250" /> 
<circle cx="110.0250" cy="38.1400" r="0.1250" /> 
<circle cx="124.0250" cy="38.1400" r="0.1000" /> 
<circle cx="124.0250" cy="5.0250" r="0.1000" /> 
<circle cx="140.4250" cy="5.0250" r="0.1000" /> 
<circle cx="78.1200" cy="36.8700" r="0.1000" /> 
<circle cx="101.5750" cy="36.8700" r="0.1250" /> 
<circle cx="108.2250" cy="36.8700" r="0.1250" /> 
<circle cx="122.9250" cy="36.8700" r="0.1000" /> 
<circle cx="122.9250" cy="6.0250" r="0.1000" /> 
<circle cx="139.7250" cy="6.0250" r="0.1000" /> 
<circle cx="85.7400" cy="35.6000" r="0.1000" /> 
<circle cx="102.3650" cy="35.6000" r="0.1250" /> 
<circle cx="107.6850" cy="35.6000" r="0.1250" /> 
<circle cx="121.8250" cy="35.6000" r="0.1000" /> 
<circle cx="121.8250" cy="7.0250" r="0.1000" /> 
<circle cx="139.0250" cy="7.0250" r="0.1000" /> 
<circle cx="87.0100" cy="34.3300" r="0.1000" /> 
<circle cx="120.7250" cy="34.3300" r="0.1000" /> 
<circle cx="120.7250" cy="8.0250" r="0.1000" /> 
<circle cx="138.3250" cy="8.0250" r="0.1000" /> 
<circle cx="79.3900" cy="33.0600" r="0.1000" /> 
<circle cx="119.6250" cy="33.0600" r="0.1000" /> 
<circle cx="119.6250" cy="9.0250" r="0.1000" /> 
<circle cx="137.6250" cy="9.0250" r="0.1000" /> 
<circle cx="90.7750" cy="26.0750" r="0.1000" /> 
<circle cx="118.5250" cy="26.0750" r="0.1000" /> 
<circle cx="118.5250" cy="10.0250" r="0.1000" /> 
<circle cx="136.9250" cy="10.0250" r="0.1000" /> 
<circle cx="90.7750" cy="27.3450" r="0.1000" /> 
<circle cx="117.4250" cy="27.3450" r="0.1000" /> 
<circle cx="117.4250" cy="11.0250" r="0.1000" /> 
<circle cx="136.2250" cy="11.0250" r="0.1000" /> 
<circle cx="90.7750" cy="28.6150" r="0.1000" /> 
<circle cx="116.3250" cy="28.6150" r="0.1000" /> 
<circle cx="116.3250" cy="12.0250" r="0.1000" /> 
<circle cx="135.5250" cy="12.0250" r="0.1000" /> 
<circle cx="90.7750" cy="29.8850" r="0.1000" /> 
<circle cx="115.2250" cy="29.8850" r="0.1000" /> 
<circle cx="115.2250" cy="13.0250" r="0.1000" /> 
<circle cx="134.8250" cy="13.0250" r="0.1000" /> 
<circle cx="90.7750" cy="36.2350" r="0.1000" /> 
<circle cx="99.5250" cy="36.2350" r="0.1250" /> 
<circle cx="111.5250" cy="36.2350" r="0.1250" /> 
<circle cx="114.1250" cy="36.2350" r="0.1000" /> 
<circle cx="114.1250" cy="14.0250" r="0.1000" /> 
<circle cx="134.1250" cy="14.0250" r="0.1000" /> 
<circle cx="84.4700" cy="31.7900" r="0.1000" /> 
<circle cx="113.0250" cy="31.7900" r="0.1000" /> 
<circle cx="113.0250" cy="15.0250" r="0.1000" /> 
<circle cx="131.0250" cy="15.0250" r="0.1000" /> 
<circle cx="83.2000" cy="20.5250" r="0.1000" /> 
<circle cx="111.9250" cy="20.5250" r="0.1000" /> 
<circle cx="111.9250" cy="16.0250" r="0.1000" /> 
<circle cx="131.7250" cy="16.0250" r="0.1000" /> 
<circle cx="81.9300" cy="19.5250" r="0.1000" /> 
<circle cx="110.8250" cy="19.5250" r="0.1000" /> 
<circle cx="110.8250" cy="17.0250" r="0.1000" /> 
<circle cx="132.4250" cy="17.0250" r="0.1000" /> 
<circle cx="73.0400" cy="27.9800" r="0.1000" /> 
<circle cx="109.7250" cy="27.9800" r="0.1000" /> 
<circle cx="109.7250" cy="18.0250" r="0.1000" /> 
<circle cx="133.1250" cy="18.0250" r="0.1000" /> 
<circle cx="133.6250" cy="25.2750" r="0.1000" /> 
<circle cx="133.6250" cy="27.4250" r="0.1000" /> 
<circle cx="133.6250" cy="28.2750" r="0.1000" /> 
<circle cx="133.1250" cy="43.2750" r="0.1000" /> 
<circle cx="143.5250" cy="43.2750" r="0.1000" /> 
<circle cx="143.5250" cy="50.2750" r="0.1000" /> 
<circle cx="133.6250" cy="37.7750" r="0.1000" /> 
<circle cx="133.6250" cy="26.2750" r="0.1000" /> 
<circle cx="132.0250" cy="50.2750" r="0.1000" /> 
<circle cx="72.2250" cy="36.2350" r="0.1000" /> 
<circle cx="75.0250" cy="36.2350" r="0.1000" /> 
<circle cx="75.0250" cy="1.5250" r="0.1000" /> 
<circle cx="141.2250" cy="1.5250" r="0.1000" /> 
<circle cx="141.2250" cy="66.0250" r="0.1000" /> 
<circle cx="139.9850" cy="66.0250" r="0.1000" /> 
<circle cx="72.2250" cy="34.9650" r="0.1000" /> 
<circle cx="76.0250" cy="34.9650" r="0.1000" /> 
<circle cx="76.0250" cy="2.2250" r="0.1000" /> 
<circle cx="145.6250" cy="2.2250" r="0.1000" /> 
<circle cx="145.6250" cy="67.5250" r="0.1000" /> 
<circle cx="144.3850" cy="67.5250" r="0.1000" /> 
<circle cx="72.2250" cy="33.6950" r="0.1000" /> 
<circle cx="77.0250" cy="33.6950" r="0.1000" /> 
<circle cx="77.0250" cy="2.9250" r="0.1000" /> 
<circle cx="152.5250" cy="2.9250" r="0.1000" /> 
<circle cx="152.5250" cy="70.5250" r="0.1000" /> 
<circle cx="142.1850" cy="70.5250" r="0.1000" /> 
<circle cx="72.2250" cy="32.4250" r="0.1000" /> 
<circle cx="78.0250" cy="32.4250" r="0.1000" /> 
<circle cx="78.0250" cy="3.6250" r="0.1000" /> 
<circle cx="153.5250" cy="3.6250" r="0.1000" /> 
<circle cx="153.5250" cy="72.0250" r="0.1000" /> 
<circle cx="138.8850" cy="72.0250" r="0.1000" /> 
<circle cx="87.7250" cy="18.0250" r="0.1000" /> 
<circle cx="33.2000" cy="18.0250" r="0.1000" /> 
<circle cx="24.5250" cy="22.5250" r="0.1000" /> 
<circle cx="39.5250" cy="22.5250" r="0.1000" /> 
<circle cx="28.1200" cy="23.7250" r="0.1000" /> 
<circle cx="20.5250" cy="23.7250" r="0.1000" /> 
<circle cx="31.9300" cy="28.8250" r="0.1000" /> 
<circle cx="29.3900" cy="28.7250" r="0.1000" /> 
<circle cx="26.8500" cy="24.8250" r="0.1000" /> 
<circle cx="26.8500" cy="34.3250" r="0.1000" /> 
<circle cx="31.9300" cy="34.3250" r="0.1000" /> 
<circle cx="38.9750" cy="25.3250" r="0.1000" /> 
<circle cx="33.2000" cy="32.2250" r="0.1000" /> 
<circle cx="37.0750" cy="32.2250" r="0.1000" /> 
<circle cx="38.9750" cy="33.7250" r="0.1000" /> 
<circle cx="38.9750" cy="24.5250" r="0.1000" /> 
<circle cx="31.9300" cy="25.8250" r="0.1000" /> 
<circle cx="38.0250" cy="25.8250" r="0.1000" /> 
<circle cx="38.0250" cy="30.9750" r="0.1000" /> 
<circle cx="29.3900" cy="20.5750" r="0.1000" /> 
<circle cx="31.5250" cy="38.9750" r="0.1000" /> 
<circle cx="80.6250" cy="66.1500" r="0.1000" /> 
<circle cx="90.2750" cy="66.1500" r="0.1000" /> 
<circle cx="79.7750" cy="64.9000" r="0.1000" /> 
<circle cx="91.7250" cy="64.9000" r="0.1000" /> 
<circle cx="78.2750" cy="72.5250" r="0.1000" /> 
<circle cx="86.9750" cy="72.5250" r="0.1000" /> 
<circle cx="73.0750" cy="65.5250" r="0.1000" /> 
<circle cx="85.0750" cy="64.0250" r="0.1000" /> 
<circle cx="22.2250" cy="21.6750" r="0.1000" /> 
<circle cx="22.2250" cy="62.0250" r="0.1000" /> 
<circle cx="67.4750" cy="62.0250" r="0.1000" /> 
<circle cx="67.4750" cy="31.1550" r="0.1000" /> 
<circle cx="69.2750" cy="31.1550" r="0.1000" /> 
<circle cx="16.0250" cy="25.8750" r="0.1000" /> 
<circle cx="22.9750" cy="39.6750" r="0.1000" /> 
<circle cx="22.9750" cy="63.2250" r="0.1000" /> 
<circle cx="65.5750" cy="63.2250" r="0.1000" /> 
<circle cx="65.5750" cy="29.8850" r="0.1000" /> 
<circle cx="69.2750" cy="29.8850" r="0.1000" /> 
<circle cx="16.0250" cy="43.8750" r="0.1000" /> 
<circle cx="13.2250" cy="30.6750" r="0.1000" /> 
<circle cx="13.2250" cy="64.4250" r="0.1000" /> 
<circle cx="62.4750" cy="64.4250" r="0.1000" /> 
<circle cx="62.4750" cy="28.6150" r="0.1000" /> 
<circle cx="69.2750" cy="28.6150" r="0.1000" /> 
<circle cx="7.5250" cy="34.8750" r="0.1000" /> 
<circle cx="34.2250" cy="30.6750" r="0.1000" /> 
<circle cx="34.2250" cy="65.6250" r="0.1000" /> 
<circle cx="58.5750" cy="65.6250" r="0.1000" /> 
<circle cx="58.5750" cy="24.8050" r="0.1000" /> 
<circle cx="69.2750" cy="24.8050" r="0.1000" /> 
<circle cx="25.5250" cy="34.8750" r="0.1000" /> 
<circle cx="130.3250" cy="20.6750" r="0.1000" /> 
<circle cx="130.3250" cy="66.8250" r="0.1000" /> 
<circle cx="52.4750" cy="66.8250" r="0.1000" /> 
<circle cx="52.4750" cy="23.5350" r="0.1000" /> 
<circle cx="69.2750" cy="23.5350" r="0.1000" /> 
<circle cx="143.5250" cy="24.8750" r="0.1000" /> 
<circle cx="142.8250" cy="30.6750" r="0.1000" /> 
<circle cx="142.8250" cy="68.0250" r="0.1000" /> 
<circle cx="45.4750" cy="68.0250" r="0.1000" /> 
<circle cx="45.4750" cy="41.5250" r="0.1000" /> 
<circle cx="73.2750" cy="41.5250" r="0.1000" /> 
<circle cx="154.0750" cy="34.8750" r="0.1000" /> 
<circle cx="129.8250" cy="40.6750" r="0.1000" /> 
<circle cx="129.8250" cy="69.2250" r="0.1000" /> 
<circle cx="36.4750" cy="69.2250" r="0.1000" /> 
<circle cx="36.4750" cy="42.7250" r="0.1000" /> 
<circle cx="73.5800" cy="42.7250" r="0.1000" /> 
<circle cx="143.5250" cy="44.8750" r="0.1000" /> 
<circle cx="129.3250" cy="30.6750" r="0.1000" /> 
<circle cx="129.3250" cy="70.4250" r="0.1000" /> 
<circle cx="27.4750" cy="70.4250" r="0.1000" /> 
<circle cx="27.4750" cy="43.9250" r="0.1000" /> 
<circle cx="74.8500" cy="43.9250" r="0.1000" /> 
<circle cx="140.0250" cy="49.0250" r="0.1000" /> 
<circle cx="12.2250" cy="52.6750" r="0.1000" /> 
<circle cx="12.2250" cy="71.6250" r="0.1000" /> 
<circle cx="100.4750" cy="71.6250" r="0.1000" /> 
<circle cx="100.4750" cy="34.9650" r="0.1000" /> 
<circle cx="90.7750" cy="34.9650" r="0.1000" /> 
<circle cx="6.5250" cy="56.8750" r="0.1000" /> 
<circle cx="34.9750" cy="52.6750" r="0.1000" /> 
<circle cx="34.9750" cy="72.8250" r="0.1000" /> 
<circle cx="60.4750" cy="72.8250" r="0.1000" /> 
<circle cx="60.4750" cy="45.1250" r="0.1000" /> 
<circle cx="73.2750" cy="45.1250" r="0.1000" /> 
<circle cx="26.5250" cy="56.8750" r="0.1000" /> 
<circle cx="16.8750" cy="73.5550" r="0.1000" /> 
<circle cx="68.0250" cy="73.5550" r="0.1000" /> 
<circle cx="68.0250" cy="37.5050" r="0.1000" /> 
<circle cx="14.6750" cy="8.5250" r="0.1000" /> 
<circle cx="146.8750" cy="65.4250" r="0.1000" /> 
<circle cx="76.2250" cy="65.4250" r="0.1000" /> 
<circle cx="76.2250" cy="45.0250" r="0.1000" /> 
<circle cx="65.0250" cy="42.1250" r="0.1000" /> 
<circle cx="144.6750" cy="8.5250" r="0.1000" /> 
<circle cx="41.8250" cy="44.5250" r="0.1000" /> 
<circle cx="46.8250" cy="44.5250" r="0.1000" /> 
<circle cx="51.8250" cy="44.5250" r="0.1000" /> 
<circle cx="56.8250" cy="44.5250" r="0.1000" /> 
<circle cx="61.8250" cy="44.5250" r="0.1000" /> 
<circle cx="66.8250" cy="44.5250" r="0.1000" /> 
<circle cx="71.8250" cy="47.5250" r="0.1000" /> 
<circle cx="76.9750" cy="44.5250" r="0.1000" /> 
<circle cx="81.8250" cy="44.5250" r="0.1000" /> 
<circle cx="86.8250" cy="44.5250" r="0.1000" /> 
<circle cx="92.2250" cy="44.5250" r="0.1000" /> 
<circle cx="96.8250" cy="44.5250" r="0.1000" /> 
<circle cx="101.8250" cy="44.5250" r="0.1000" /> 
<circle cx="41.8250" cy="52.0250" r="0.1000" /> 
<circle cx="46.8250" cy="52.0250" r="0.1000" /> 
<circle cx="51.8250" cy="52.0250" r="0.1000" /> 
<circle cx="56.8250" cy="52.0250" r="0.1000" /> 
<circle cx="61.8250" cy="52.0250" r="0.1000" /> 
<circle cx="66.8250" cy="52.0250" r="0.1000" /> 
<circle cx="71.8250" cy="52.0250" r="0.1000" /> 
<circle cx="76.9750" cy="52.0250" r="0.1000" /> 
<circle cx="81.8250" cy="52.0250" r="0.1000" /> 
<circle cx="86.8250" cy="52.0250" r="0.1000" /> 
<circle cx="92.2250" cy="52.0250" r="0.1000" /> 
<circle cx="96.8250" cy="52.0250" r="0.1000" /> 
<circle cx="101.8250" cy="52.0250" r="0.1000" /> 
<circle cx="70.4750" cy="44.5250" r="0.1000" /> 
<circle cx="68.5750" cy="40.0250" r="0.1000" /> 
<circle cx="92.9750" cy="40.6250" r="0.1000" /> 
<circle cx="91.0750" cy="40.0250" r="0.1000" /> 
<circle cx="122.9750" cy="46.0250" r="0.1000" /> 
<circle cx="121.0750" cy="46.0250" r="0.1000" /> 
<circle cx="123.5250" cy="64.5250" r="0.1000" /> 
<circle cx="110.9750" cy="33.6750" r="0.1000" /> 
<circle cx="109.0750" cy="37.5250" r="0.1000" /> 
<circle cx="118.9750" cy="52.5250" r="0.1000" /> 
<circle cx="117.0750" cy="57.5250" r="0.1000" /> 
<circle cx="113.0250" cy="56.5250" r="0.1000" /> 
<circle cx="108.5250" cy="59.5250" r="0.1000" /> 
<circle cx="25.9750" cy="62.6750" r="0.1000" /> 
<circle cx="24.0750" cy="66.2750" r="0.1750" /> 
<circle cx="26.6750" cy="67.5250" r="0.1000" /> 
<circle cx="32.9750" cy="62.6750" r="0.1000" /> 
<circle cx="31.0750" cy="66.2750" r="0.1750" /> 
<circle cx="33.6750" cy="67.5250" r="0.1000" /> 
</g>
<g style="fill:#000000; fill-opacity:1.0000; stroke:none;">
<circle cx="10.0250" cy="7.0250" r="1.2500" /> 
<circle cx="150.0250" cy="7.0250" r="1.2500" /> 
<circle cx="10.0250" cy="68.0250" r="1.2500" /> 
<circle cx="150.0250" cy="68.0250" r="1.2500" /> 
<circle cx="55.0250" cy="37.5250" r="1.2500" /> 
<circle cx="105.0250" cy="37.5250" r="1.2500" /> 
</g>
<g style="fill:#FFFFFF; fill-opacity:1.0000; stroke:none;">
<circle cx="84.3500" cy="69.7000" r="0.3000" /> 
</g>
<g style="fill:#FFFFFF; fill-opacity:1.0000; stroke:none;">
<circle cx="75.7000" cy="69.7000" r="0.3000" /> 
</g>
<g style="fill:#FFFFFF; fill-opacity:1.0000; stroke:none;">
<circle cx="84.3500" cy="73.9000" r="0.3000" /> 
</g>
<g style="fill:#FFFFFF; fill-opacity:1.0000; stroke:none;">
<circle cx="75.7000" cy="73.9000" r="0.3000" /> 
</g>
<g style="fill:#000000; fill-opacity:1.0000; stroke:none;">
<circle cx="82.9150" cy="70.2200" r="0.3250" /> 
<circle cx="77.1350" cy="70.2200" r="0.3250" /> 
<circle cx="144.9750" cy="72.5910" r="0.5000" /> 
<circle cx="136.9750" cy="72.5910" r="0.5000" /> 
<circle cx="41.5250" cy="72.5750" r="0.4500" /> 
<circle cx="38.5250" cy="72.5750" r="0.4500" /> 
</g>
<g style="fill:#FFFFFF; fill-opacity:1.0000; stroke:none;">
<circle cx="81.0250" cy="57.5250" r="0.4250" /> 
</g>
<g style="fill:#FFFFFF; fill-opacity:1.0000; stroke:none;">
<circle cx="79.0250" cy="57.5250" r="0.4250" /> 
</g> 

  </g>
</g>
<line x1="20.0" y1="210.625" x2="20.0" y2="609.375" stroke="#1a3a1a" stroke-width="0.5" stroke-dasharray="2,4"/>
<text x="20.0" y="207.625" text-anchor="middle" font-size="8" fill="#3a5a3a">x=68</text>
<line x1="110.625" y1="210.625" x2="110.625" y2="609.375" stroke="#1a3a1a" stroke-width="0.5" stroke-dasharray="2,4"/>
<text x="110.625" y="207.625" text-anchor="middle" font-size="8" fill="#3a5a3a">x=73</text>
<line x1="201.25" y1="210.625" x2="201.25" y2="609.375" stroke="#1a3a1a" stroke-width="0.5" stroke-dasharray="2,4"/>
<text x="201.25" y="207.625" text-anchor="middle" font-size="8" fill="#3a5a3a">x=78</text>
<line x1="291.875" y1="210.625" x2="291.875" y2="609.375" stroke="#1a3a1a" stroke-width="0.5" stroke-dasharray="2,4"/>
<text x="291.875" y="207.625" text-anchor="middle" font-size="8" fill="#3a5a3a">x=83</text>
<line x1="382.5" y1="210.625" x2="382.5" y2="609.375" stroke="#1a3a1a" stroke-width="0.5" stroke-dasharray="2,4"/>
<text x="382.5" y="207.625" text-anchor="middle" font-size="8" fill="#3a5a3a">x=88</text>
<line x1="473.125" y1="210.625" x2="473.125" y2="609.375" stroke="#1a3a1a" stroke-width="0.5" stroke-dasharray="2,4"/>
<text x="473.125" y="207.625" text-anchor="middle" font-size="8" fill="#3a5a3a">x=93</text>
<line x1="563.75" y1="210.625" x2="563.75" y2="609.375" stroke="#1a3a1a" stroke-width="0.5" stroke-dasharray="2,4"/>
<text x="563.75" y="207.625" text-anchor="middle" font-size="8" fill="#3a5a3a">x=98</text>
<line x1="654.375" y1="210.625" x2="654.375" y2="609.375" stroke="#1a3a1a" stroke-width="0.5" stroke-dasharray="2,4"/>
<text x="654.375" y="207.625" text-anchor="middle" font-size="8" fill="#3a5a3a">x=103</text>
<line x1="745.0" y1="210.625" x2="745.0" y2="609.375" stroke="#1a3a1a" stroke-width="0.5" stroke-dasharray="2,4"/>
<text x="745.0" y="207.625" text-anchor="middle" font-size="8" fill="#3a5a3a">x=108</text>
<line x1="835.625" y1="210.625" x2="835.625" y2="609.375" stroke="#1a3a1a" stroke-width="0.5" stroke-dasharray="2,4"/>
<text x="835.625" y="207.625" text-anchor="middle" font-size="8" fill="#3a5a3a">x=113</text>
<line x1="926.25" y1="210.625" x2="926.25" y2="609.375" stroke="#1a3a1a" stroke-width="0.5" stroke-dasharray="2,4"/>
<text x="926.25" y="207.625" text-anchor="middle" font-size="8" fill="#3a5a3a">x=118</text>
<line x1="1016.875" y1="210.625" x2="1016.875" y2="609.375" stroke="#1a3a1a" stroke-width="0.5" stroke-dasharray="2,4"/>
<text x="1016.875" y="207.625" text-anchor="middle" font-size="8" fill="#3a5a3a">x=123</text>
<line x1="1107.5" y1="210.625" x2="1107.5" y2="609.375" stroke="#1a3a1a" stroke-width="0.5" stroke-dasharray="2,4"/>
<text x="1107.5" y="207.625" text-anchor="middle" font-size="8" fill="#3a5a3a">x=128</text>
<line x1="20.0" y1="210.625" x2="1180.0" y2="210.625" stroke="#1a3a1a" stroke-width="0.5" stroke-dasharray="2,4"/>
<text x="17.0" y="213.625" text-anchor="end" font-size="8" fill="#3a5a3a">y=24</text>
<line x1="20.0" y1="301.25" x2="1180.0" y2="301.25" stroke="#1a3a1a" stroke-width="0.5" stroke-dasharray="2,4"/>
<text x="17.0" y="304.25" text-anchor="end" font-size="8" fill="#3a5a3a">y=29</text>
<line x1="20.0" y1="391.875" x2="1180.0" y2="391.875" stroke="#1a3a1a" stroke-width="0.5" stroke-dasharray="2,4"/>
<text x="17.0" y="394.875" text-anchor="end" font-size="8" fill="#3a5a3a">y=34</text>
<line x1="20.0" y1="482.5" x2="1180.0" y2="482.5" stroke="#1a3a1a" stroke-width="0.5" stroke-dasharray="2,4"/>
<text x="17.0" y="485.5" text-anchor="end" font-size="8" fill="#3a5a3a">y=39</text>
<line x1="20.0" y1="573.125" x2="1180.0" y2="573.125" stroke="#1a3a1a" stroke-width="0.5" stroke-dasharray="2,4"/>
<text x="17.0" y="576.125" text-anchor="end" font-size="8" fill="#3a5a3a">y=44</text>
<circle cx="264.6875" cy="373.025" r="8.15625" fill="none" stroke="#44ff44" stroke-width="3" opacity="0.9"/>
<circle cx="264.6875" cy="373.025" r="1.63125" fill="#44ff44"/>
<text x="280.84375" y="368.025" font-size="11" font-weight="bold" fill="#44ff44">GND</text>
<text x="280.84375" y="380.025" font-size="9" fill="#44ff44">(81.5, 32.96)</text>
<circle cx="798.46875" cy="373.75" r="8.15625" fill="none" stroke="#ff4444" stroke-width="3" opacity="0.9"/>
<circle cx="798.46875" cy="373.75" r="1.63125" fill="#ff4444"/>
<text x="814.625" y="368.75" font-size="11" font-weight="bold" fill="#ff4444">VBUS</text>
<text x="814.625" y="380.75" font-size="9" fill="#ff4444">(110.95, 33.0)</text>
<line x1="226.6250000000001" y1="373.75" x2="955.2499999999999" y2="373.75" stroke="#ffaa00" stroke-width="2" opacity="0.6" stroke-dasharray="6,3"/>
<text x="590.9375" y="365.75" text-anchor="middle" font-size="10" fill="#ffaa00">LCD_RST</text>
<line x1="494.875" y1="359.25" x2="523.875" y2="388.25" stroke="#ff0" stroke-width="3"/>
<line x1="523.875" y1="359.25" x2="494.875" y2="388.25" stroke="#ff0" stroke-width="3"/>
<text x="509.375" y="400.25" text-anchor="middle" font-size="10" font-weight="bold" fill="#ff0">TAGLIA QUI</text>
<text x="509.375" y="412.25" text-anchor="middle" font-size="10" font-weight="bold" fill="#ff0">raschia ~1mm</text>
<rect x="20" y="730" width="1160" height="160" rx="6" fill="#111" stroke="#333"/>
<text x="30" y="748" font-size="13" font-weight="bold" fill="#ccc">ISTRUZIONI:</text>
<text x="30" y="768" font-size="11" fill="#aaa">• GND via (81.50, 32.96) — overlap -0.475mm</text>
<text x="30" y="786" font-size="11" fill="#faa">• VBUS via (110.95, 33.00) — overlap -0.515mm</text>
<text x="30" y="804" font-size="11" fill="#aaa">• Dopo il taglio: LCD_RST funziona via B.Cu</text>
<text x="30" y="822" font-size="11" fill="#faa">• Verifica: C17+ (VBUS) vs C17- (GND) > 1MΩ</text>
<text x="1170" y="748" text-anchor="end" font-size="10" fill="#555">Coordinate in mm PCB</text>
<text x="1170" y="763" text-anchor="end" font-size="10" fill="#555">Layer: F.Cu</text>
</svg>