<svg xmlns="http://www.w3.org/2000/svg" viewBox="0 0 1200 900" font-family="monospace">
  <rect width="1200" height="900" fill="#0d1117"/>

  <text x="600" y="30" text-anchor="middle" font-size="22" font-weight="bold" fill="#fff">PCB v1 — MAPPA COMPLETA REWORK (160x75mm)</text>
  <text x="600" y="52" text-anchor="middle" font-size="13" fill="#aaa">44 violazioni: 3 critiche (rosso), 5 high (arancione), 19 medium (giallo), 11 opzionali (grigio)</text>

  <!-- Legend -->
  <rect x="20" y="65" width="280" height="180" rx="6" fill="#161b22" stroke="#333"/>
  <text x="30" y="85" font-size="13" font-weight="bold" fill="#ccc">LEGENDA:</text>
  <circle cx="45" cy="105" r="8" fill="#ff2222"/><text x="60" y="109" font-size="11" fill="#ff6666">FIX 1-3: CRITICO (VBUS-GND bridge)</text>
  <circle cx="45" cy="125" r="8" fill="#ff8800"/><text x="60" y="129" font-size="11" fill="#ffaa44">FIX 4-8: HIGH (+3V3-GND bridge, 4 tagli)</text>
  <circle cx="45" cy="145" r="8" fill="#ffcc00"/><text x="60" y="149" font-size="11" fill="#ffee44">FIX 9-27: MEDIUM (raschiatura singola)</text>
  <circle cx="45" cy="165" r="8" fill="#666"/><text x="60" y="169" font-size="11" fill="#999">FIX 28-38: OPZIONALE (misurare prima)</text>
  <rect x="30" y="180" width="15" height="8" fill="#ff4444" rx="2"/><text x="55" y="188" font-size="11" fill="#ff8888">VBUS (5V)</text>
  <rect x="130" y="180" width="15" height="8" fill="#44aaff" rx="2"/><text x="155" y="188" font-size="11" fill="#88ccff">+3V3</text>
  <rect x="30" y="198" width="15" height="8" fill="#44ff44" rx="2"/><text x="55" y="206" font-size="11" fill="#88ff88">GND</text>
  <rect x="130" y="198" width="15" height="8" fill="#ff8800" rx="2"/><text x="155" y="206" font-size="11" fill="#ffaa44">+5V</text>
  <text x="30" y="230" font-size="10" fill="#888">Scala: 1mm PCB = ~6px SVG</text>

  <!-- ========== PCB OUTLINE ========== -->
  <!-- Board: 160x75mm → 960x450px, offset at (120, 270) -->
  <rect x="120" y="270" width="960" height="450" rx="12" fill="#1a2a1a" stroke="#4a4" stroke-width="3"/>

  <!-- Grid labels (PCB coordinates) -->
  <text x="120" y="265" font-size="9" fill="#555">x=0</text>
  <text x="280" y="265" font-size="9" fill="#555">x=25</text>
  <text x="480" y="265" font-size="9" fill="#555">x=60</text>
  <text x="600" y="265" font-size="9" fill="#555">x=80</text>
  <text x="780" y="265" font-size="9" fill="#555">x=110</text>
  <text x="900" y="265" font-size="9" fill="#555">x=130</text>
  <text x="1020" y="265" font-size="9" fill="#555">x=150</text>
  <text x="105" y="340" text-anchor="end" font-size="9" fill="#555">y=20</text>
  <text x="105" y="400" text-anchor="end" font-size="9" fill="#555">y=33</text>
  <text x="105" y="440" text-anchor="end" font-size="9" fill="#555">y=44</text>
  <text x="105" y="490" text-anchor="end" font-size="9" fill="#555">y=52</text>
  <text x="105" y="570" text-anchor="end" font-size="9" fill="#555">y=63</text>
  <text x="105" y="610" text-anchor="end" font-size="9" fill="#555">y=67</text>

  <!-- ========== COMPONENTS (reference) ========== -->
  <!-- ESP32-S3 -->
  <rect x="480" y="310" width="180" height="120" rx="4" fill="#222" stroke="#555" stroke-width="1"/>
  <text x="570" y="375" text-anchor="middle" font-size="12" fill="#777">ESP32-S3</text>
  <text x="570" y="390" text-anchor="middle" font-size="9" fill="#555">(80, 27.5)</text>

  <!-- FPC J4 -->
  <rect x="870" y="290" width="90" height="120" rx="3" fill="#1a1a2e" stroke="#555"/>
  <text x="915" y="355" text-anchor="middle" font-size="10" fill="#777">FPC J4</text>

  <!-- IP5306 -->
  <rect x="760" y="480" width="60" height="30" rx="2" fill="#1a1a2e" stroke="#555"/>
  <text x="790" y="500" text-anchor="middle" font-size="8" fill="#666">IP5306</text>

  <!-- PAM8403 -->
  <rect x="270" y="330" width="70" height="60" rx="2" fill="#1a1a2e" stroke="#555"/>
  <text x="305" y="365" text-anchor="middle" font-size="8" fill="#666">PAM8403</text>

  <!-- USB-C -->
  <rect x="540" y="670" width="60" height="30" rx="2" fill="#1a1a2e" stroke="#555"/>
  <text x="570" y="690" text-anchor="middle" font-size="8" fill="#666">USB-C</text>

  <!-- SD card -->
  <rect x="400" y="670" width="50" height="30" rx="2" fill="#1a1a2e" stroke="#555"/>
  <text x="425" y="690" text-anchor="middle" font-size="8" fill="#666">SD</text>

  <!-- ========== FIX 1 & 2 (DONE) ========== -->
  <circle cx="771" cy="633" r="8" fill="#4a4" opacity="0.5"/>
  <text x="771" y="637" text-anchor="middle" font-size="7" font-weight="bold" fill="#fff">1</text>
  <circle cx="789" cy="609" r="8" fill="#4a4" opacity="0.5"/>
  <text x="789" y="613" text-anchor="middle" font-size="7" font-weight="bold" fill="#fff">2</text>

  <!-- ========== FIX 3 — LCD_RST VBUS-GND (CRITICO) ========== -->
  <!-- LCD_RST trace at y=33mm → y=468px, from x=79→x=120 → px 594→840 -->
  <line x1="610" y1="468" x2="786" y2="468" stroke="#ffaa00" stroke-width="2" opacity="0.5"/>
  <!-- GND via at (81.5, 33) -->
  <circle cx="609" cy="468" r="7" fill="none" stroke="#44ff44" stroke-width="2"/>
  <!-- VBUS via at (110.95, 33) -->
  <circle cx="786" cy="468" r="7" fill="none" stroke="#ff4444" stroke-width="2"/>
  <!-- Cut point at x=95 -->
  <circle cx="690" cy="468" r="10" fill="#ff2222"/>
  <text x="690" y="472" text-anchor="middle" font-size="7" font-weight="bold" fill="#fff">3</text>
  <text x="690" y="458" text-anchor="middle" font-size="8" fill="#ff4444">TAGLIA</text>

  <!-- ========== FIX 4-8 — +3V3/GND bridges (HIGH) ========== -->
  <!-- All at y=44.6 (+3V3) and y=52.0 (GND) — px ~537 and ~582 -->

  <!-- FIX 4: USB_D- at x=91.7 → px=670 -->
  <circle cx="670" cy="537" r="6" fill="none" stroke="#44aaff" stroke-width="2"/>
  <circle cx="670" cy="582" r="6" fill="none" stroke="#44ff44" stroke-width="2"/>
  <line x1="670" y1="531" x2="670" y2="588" stroke="#ff44ff" stroke-width="1" opacity="0.5"/>
  <circle cx="670" cy="560" r="9" fill="#ff8800"/>
  <text x="670" y="564" text-anchor="middle" font-size="7" font-weight="bold" fill="#fff">4</text>

  <!-- FIX 5: BTN_UP at x=67.5 → px=525 -->
  <circle cx="525" cy="537" r="6" fill="none" stroke="#44aaff" stroke-width="2"/>
  <circle cx="525" cy="582" r="6" fill="none" stroke="#44ff44" stroke-width="2"/>
  <line x1="525" y1="531" x2="525" y2="588" stroke="#ff9944" stroke-width="1" opacity="0.5"/>
  <circle cx="525" cy="560" r="9" fill="#ff8800"/>
  <text x="525" y="564" text-anchor="middle" font-size="7" font-weight="bold" fill="#fff">5</text>

  <!-- FIX 6: BTN_LEFT at x=62.5 → px=495 -->
  <circle cx="495" cy="537" r="6" fill="none" stroke="#44aaff" stroke-width="2"/>
  <circle cx="495" cy="582" r="6" fill="none" stroke="#44ff44" stroke-width="2"/>
  <line x1="495" y1="531" x2="495" y2="588" stroke="#44ddaa" stroke-width="1" opacity="0.5"/>
  <circle cx="495" cy="560" r="9" fill="#ff8800"/>
  <text x="495" y="564" text-anchor="middle" font-size="7" font-weight="bold" fill="#fff">6</text>

  <!-- FIX 7: BTN_A at x=52.5 → px=435 -->
  <circle cx="435" cy="537" r="6" fill="none" stroke="#44aaff" stroke-width="2"/>
  <circle cx="435" cy="582" r="6" fill="none" stroke="#44ff44" stroke-width="2"/>
  <line x1="435" y1="531" x2="435" y2="588" stroke="#ff6666" stroke-width="1" opacity="0.5"/>
  <circle cx="435" cy="560" r="9" fill="#ff8800"/>
  <text x="435" y="564" text-anchor="middle" font-size="7" font-weight="bold" fill="#fff">7</text>

  <!-- FIX 8: BTN_L at x=72.5 → px=555 -->
  <circle cx="555" cy="537" r="6" fill="none" stroke="#44aaff" stroke-width="2"/>
  <circle cx="555" cy="582" r="6" fill="none" stroke="#44ff44" stroke-width="2"/>
  <line x1="555" y1="531" x2="555" y2="588" stroke="#cc88ff" stroke-width="1" opacity="0.5"/>
  <circle cx="555" cy="560" r="9" fill="#ff8800"/>
  <text x="555" y="564" text-anchor="middle" font-size="7" font-weight="bold" fill="#fff">8</text>

  <!-- ========== FIX 9-27 — Signal shorts (MEDIUM) ========== -->
  <!-- FIX 9: BTN_Y @ F.Cu (70.45, 44.00) → px=(543, 534) -->
  <circle cx="543" cy="534" r="6" fill="#ffcc00"/>
  <text x="543" y="538" text-anchor="middle" font-size="6" font-weight="bold" fill="#000">9</text>

  <!-- FIX 10: USB_D+ @ F.Cu (85.05, 66.00) → px=(630, 666) -->
  <circle cx="630" cy="666" r="6" fill="#ffcc00"/>
  <text x="630" y="670" text-anchor="middle" font-size="6" font-weight="bold" fill="#000">10</text>

  <!-- FIX 11: LCD_DC @ F.Cu (109.05, 37.00) → px=(774, 492) -->
  <circle cx="774" cy="492" r="6" fill="#ffcc00"/>
  <text x="774" y="496" text-anchor="middle" font-size="6" font-weight="bold" fill="#000">11</text>

  <!-- FIX 12: BTN_DOWN @ F.Cu (25.95, 63.00) → px=(276, 648) -->
  <circle cx="276" cy="648" r="6" fill="#ffcc00"/>
  <text x="276" y="652" text-anchor="middle" font-size="6" font-weight="bold" fill="#000">12</text>

  <!-- FIX 13: BTN_DOWN @ F.Cu (32.95, 63.00) → px=(318, 648) -->
  <circle cx="318" cy="648" r="6" fill="#ffcc00"/>
  <text x="318" y="652" text-anchor="middle" font-size="6" font-weight="bold" fill="#000">13</text>

  <!-- FIX 14: LCD_D0 @ B.Cu (134.50, 34.85) → px=(927, 479) -->
  <circle cx="927" cy="479" r="6" fill="#ffcc00"/>
  <text x="927" y="483" text-anchor="middle" font-size="6" font-weight="bold" fill="#000">14</text>

  <!-- FIX 15: SD_CS @ B.Cu (153.50, 34.85) → px=(1041, 479) -->
  <circle cx="1041" cy="479" r="6" fill="#ffcc00"/>
  <text x="1041" y="483" text-anchor="middle" font-size="6" font-weight="bold" fill="#000">15</text>

  <!-- FIX 16: LCD_D5 @ B.Cu (134.50, 34.85) — same via as 14 -->
  <circle cx="935" cy="487" r="6" fill="#ffcc00"/>
  <text x="935" y="491" text-anchor="middle" font-size="6" font-weight="bold" fill="#000">16</text>

  <!-- FIX 17: BTN_B @ B.Cu (143.00, 50.25) → px=(978, 572) -->
  <circle cx="978" cy="572" r="6" fill="#ffcc00"/>
  <text x="978" y="576" text-anchor="middle" font-size="6" font-weight="bold" fill="#000">17</text>

  <!-- FIX 18: BTN_A @ F.Cu (76.80, 67.12) → px=(581, 673) -->
  <circle cx="581" cy="673" r="6" fill="#ffcc00"/>
  <text x="581" y="677" text-anchor="middle" font-size="6" font-weight="bold" fill="#000">18</text>

  <!-- FIX 19: LCD_D7 @ B.Cu (81.50, 32.96) → px=(609, 468) -->
  <circle cx="615" cy="475" r="6" fill="#ffcc00"/>
  <text x="615" y="479" text-anchor="middle" font-size="6" font-weight="bold" fill="#000">19</text>

  <!-- FIX 20-22: BTN_SELECT @ F.Cu (62-72, 44.60) -->
  <circle cx="492" cy="540" r="6" fill="#ffcc00"/>
  <text x="492" y="544" text-anchor="middle" font-size="5" font-weight="bold" fill="#000">20</text>
  <circle cx="522" cy="540" r="6" fill="#ffcc00"/>
  <text x="522" y="544" text-anchor="middle" font-size="5" font-weight="bold" fill="#000">21</text>
  <circle cx="552" cy="540" r="6" fill="#ffcc00"/>
  <text x="552" y="544" text-anchor="middle" font-size="5" font-weight="bold" fill="#000">22</text>

  <!-- FIX 23: BTN_R @ F.Cu (123.50, 64.50) → px=(861, 657) -->
  <circle cx="861" cy="657" r="6" fill="#ffcc00"/>
  <text x="861" y="661" text-anchor="middle" font-size="6" font-weight="bold" fill="#000">23</text>

  <!-- FIX 24: BTN_SELECT @ B.Cu (72.05, 44.60) -->
  <circle cx="552" cy="548" r="6" fill="#ffcc00"/>
  <text x="552" y="552" text-anchor="middle" font-size="5" font-weight="bold" fill="#000">24</text>

  <!-- FIX 25: LCD_D4 @ B.Cu (134.50, 34.85) -->
  <circle cx="919" cy="487" r="6" fill="#ffcc00"/>
  <text x="919" y="491" text-anchor="middle" font-size="6" font-weight="bold" fill="#000">25</text>

  <!-- FIX 26: LCD_D6 @ F.Cu (88.75, 21.01) → px=(652, 396) -->
  <circle cx="652" cy="396" r="6" fill="#ffcc00"/>
  <text x="652" y="400" text-anchor="middle" font-size="6" font-weight="bold" fill="#000">26</text>

  <!-- FIX 27: LCD_D4 @ B.Cu (110.95, 33.00) — VBUS! -->
  <circle cx="786" cy="476" r="6" fill="#ffcc00"/>
  <text x="786" y="480" text-anchor="middle" font-size="6" font-weight="bold" fill="#000">27</text>

  <!-- ========== FIX 28-38 zone (grey) ========== -->
  <rect x="900" y="415" width="60" height="65" rx="4" fill="none" stroke="#666" stroke-width="1" stroke-dasharray="4,3"/>
  <text x="930" y="440" text-anchor="middle" font-size="8" fill="#666">28-38</text>
  <text x="930" y="452" text-anchor="middle" font-size="7" fill="#555">opzionali</text>
  <text x="930" y="464" text-anchor="middle" font-size="7" fill="#555">x~133.45</text>

  <!-- ========== POWER RAIL ZONES ========== -->
  <!-- +3V3 via row at y~44.6 -->
  <line x1="420" y1="537" x2="700" y2="537" stroke="#44aaff" stroke-width="1" opacity="0.3" stroke-dasharray="3,5"/>
  <text x="710" y="540" font-size="8" fill="#44aaff" opacity="0.5">+3V3 via row</text>

  <!-- GND via row at y~52 -->
  <line x1="420" y1="582" x2="700" y2="582" stroke="#44ff44" stroke-width="1" opacity="0.3" stroke-dasharray="3,5"/>
  <text x="710" y="585" font-size="8" fill="#44ff44" opacity="0.5">GND via row</text>

  <!-- ========== BOTTOM INFO ========== -->
  <rect x="20" y="740" width="1160" height="145" rx="8" fill="#161b22" stroke="#555"/>

  <text x="40" y="765" font-size="14" font-weight="bold" fill="#ff2222">ORDINE DI LAVORO:</text>
  <text x="40" y="790" font-size="12" fill="#ff6666">1. FIX 3 (CRITICO) → taglia LCD_RST a x=95 y=33 su F.Cu → verifica VBUS-GND aperta</text>
  <text x="40" y="810" font-size="12" fill="#ffaa44">2. FIX 4-8 (HIGH) → 4 tagli + ponticello ciascuno su B.Cu → verifica +3V3-GND aperta</text>
  <text x="40" y="830" font-size="12" fill="#ffee44">3. FIX 9-27 (MEDIUM) → raschiatura singola F.Cu/B.Cu → verifica segnali isolati</text>
  <text x="40" y="850" font-size="12" fill="#999">4. FIX 28-38 (OPT) → solo se multimetro da continuita chiusa</text>
  <text x="40" y="875" font-size="12" font-weight="bold" fill="#4f4">5. TEST: accensione con limite 100mA → corrente &lt;50mA → tensioni OK → segnali OK</text>

  <!-- Net summary -->
  <text x="750" y="765" font-size="12" font-weight="bold" fill="#ccc">NET COINVOLTE:</text>
  <text x="750" y="785" font-size="11" fill="#ff8888">VBUS (5V USB): FIX 1,2,3,27</text>
  <text x="750" y="802" font-size="11" fill="#ffaa44">+5V: FIX 2</text>
  <text x="750" y="819" font-size="11" fill="#88ccff">+3V3: FIX 4-9,12-13,20-22,24,26</text>
  <text x="750" y="836" font-size="11" fill="#88ff88">GND: FIX 1,3-8,10-11,14-19,23,25,28-38</text>
</svg>