%TF.GenerationSoftware,KiCad,Pcbnew,10.0.5*%
%TF.CreationDate,2026-08-02T17:49:14+02:00*%
%TF.ProjectId,esp32-emu-turbo,65737033-322d-4656-9d75-2d747572626f,rev?*%
%TF.SameCoordinates,Original*%
%TF.FileFunction,Copper,L4,Bot*%
%TF.FilePolarity,Positive*%
%FSLAX46Y46*%
G04 Gerber Fmt 4.6, Leading zero omitted, Abs format (unit mm)*
G04 Created by KiCad (PCBNEW 10.0.5) date 2026-08-02 17:49:14*
%MOMM*%
%LPD*%
G01*
G04 APERTURE LIST*
G04 Aperture macros list*
%AMRoundRect*
0 Rectangle with rounded corners*
0 $1 Rounding radius*
0 $2 $3 $4 $5 $6 $7 $8 $9 X,Y pos of 4 corners*
0 Add a 4 corners polygon primitive as box body*
4,1,4,$2,$3,$4,$5,$6,$7,$8,$9,$2,$3,0*
0 Add four circle primitives for the rounded corners*
1,1,$1+$1,$2,$3*
1,1,$1+$1,$4,$5*
1,1,$1+$1,$6,$7*
1,1,$1+$1,$8,$9*
0 Add four rect primitives between the rounded corners*
20,1,$1+$1,$2,$3,$4,$5,0*
20,1,$1+$1,$4,$5,$6,$7,0*
20,1,$1+$1,$6,$7,$8,$9,0*
20,1,$1+$1,$8,$9,$2,$3,0*%
G04 Aperture macros list end*
%TA.AperFunction,SMDPad,CuDef*%
%ADD10R,1.500000X0.900000*%
%TD*%
%TA.AperFunction,SMDPad,CuDef*%
%ADD11R,0.900000X1.500000*%
%TD*%
%TA.AperFunction,SMDPad,CuDef*%
%ADD12R,3.900000X3.900000*%
%TD*%
%TA.AperFunction,SMDPad,CuDef*%
%ADD13R,0.700000X1.000000*%
%TD*%
%TA.AperFunction,SMDPad,CuDef*%
%ADD14R,1.000000X0.300000*%
%TD*%
%TA.AperFunction,SMDPad,CuDef*%
%ADD15R,2.500000X2.000000*%
%TD*%
%TA.AperFunction,SMDPad,CuDef*%
%ADD16RoundRect,0.137500X-0.137500X-0.412500X0.137500X-0.412500X0.137500X0.412500X-0.137500X0.412500X0*%
%TD*%
%TA.AperFunction,SMDPad,CuDef*%
%ADD17R,0.300000X1.100000*%
%TD*%
%TA.AperFunction,ComponentPad*%
%ADD18O,1.200000X2.120000*%
%TD*%
%TA.AperFunction,ComponentPad*%
%ADD19O,1.200000X1.920000*%
%TD*%
%TA.AperFunction,SMDPad,CuDef*%
%ADD20R,0.500000X1.300000*%
%TD*%
%TA.AperFunction,SMDPad,CuDef*%
%ADD21R,1.200000X1.400000*%
%TD*%
%TA.AperFunction,SMDPad,CuDef*%
%ADD22R,1.200000X2.000000*%
%TD*%
%TA.AperFunction,SMDPad,CuDef*%
%ADD23R,0.600000X1.524000*%
%TD*%
%TA.AperFunction,SMDPad,CuDef*%
%ADD24R,1.200000X0.700000*%
%TD*%
%TA.AperFunction,SMDPad,CuDef*%
%ADD25R,2.000000X3.000000*%
%TD*%
%TA.AperFunction,SMDPad,CuDef*%
%ADD26R,1.700000X0.600000*%
%TD*%
%TA.AperFunction,SMDPad,CuDef*%
%ADD27R,3.400000X2.800000*%
%TD*%
%TA.AperFunction,SMDPad,CuDef*%
%ADD28R,1.100000X0.600000*%
%TD*%
%TA.AperFunction,SMDPad,CuDef*%
%ADD29R,0.600000X1.550000*%
%TD*%
%TA.AperFunction,SMDPad,CuDef*%
%ADD30R,1.400000X3.400000*%
%TD*%
%TA.AperFunction,SMDPad,CuDef*%
%ADD31R,1.500000X4.000000*%
%TD*%
%TA.AperFunction,SMDPad,CuDef*%
%ADD32R,1.000000X2.500000*%
%TD*%
%TA.AperFunction,SMDPad,CuDef*%
%ADD33R,1.500000X3.400000*%
%TD*%
%TA.AperFunction,SMDPad,CuDef*%
%ADD34R,1.000000X0.700000*%
%TD*%
%TA.AperFunction,SMDPad,CuDef*%
%ADD35R,0.600000X0.700000*%
%TD*%
%TA.AperFunction,SMDPad,CuDef*%
%ADD36R,1.300000X1.000000*%
%TD*%
%TA.AperFunction,SMDPad,CuDef*%
%ADD37R,1.000000X1.300000*%
%TD*%
%TA.AperFunction,SMDPad,CuDef*%
%ADD38R,0.620000X0.560000*%
%TD*%
%TA.AperFunction,SMDPad,CuDef*%
%ADD39R,1.800000X1.200000*%
%TD*%
%TA.AperFunction,SMDPad,CuDef*%
%ADD40R,1.900000X3.800000*%
%TD*%
%TA.AperFunction,SMDPad,CuDef*%
%ADD41R,1.200000X1.800000*%
%TD*%
%TA.AperFunction,ViaPad*%
%ADD42C,0.900000*%
%TD*%
%TA.AperFunction,ViaPad*%
%ADD43C,0.600000*%
%TD*%
%TA.AperFunction,ViaPad*%
%ADD44C,0.800000*%
%TD*%
%TA.AperFunction,ViaPad*%
%ADD45C,0.500000*%
%TD*%
%TA.AperFunction,ViaPad*%
%ADD46C,0.460000*%
%TD*%
%TA.AperFunction,ViaPad*%
%ADD47C,0.850000*%
%TD*%
%TA.AperFunction,Conductor*%
%ADD48C,0.600000*%
%TD*%
%TA.AperFunction,Conductor*%
%ADD49C,0.300000*%
%TD*%
%TA.AperFunction,Conductor*%
%ADD50C,0.400000*%
%TD*%
%TA.AperFunction,Conductor*%
%ADD51C,0.760000*%
%TD*%
%TA.AperFunction,Conductor*%
%ADD52C,0.250000*%
%TD*%
%TA.AperFunction,Conductor*%
%ADD53C,0.200000*%
%TD*%
%TA.AperFunction,Conductor*%
%ADD54C,0.500000*%
%TD*%
%TA.AperFunction,Conductor*%
%ADD55C,0.273000*%
%TD*%
%TA.AperFunction,Conductor*%
%ADD56C,0.150000*%
%TD*%
%TA.AperFunction,Conductor*%
%ADD57C,0.180000*%
%TD*%
%TA.AperFunction,Conductor*%
%ADD58C,0.550000*%
%TD*%
G04 APERTURE END LIST*
D10*
%TO.P,U1,1*%
%TO.N,N/C*%
X88750000Y-22240000D03*
%TO.P,U1,2*%
%TO.N,+3V3*%
X88750000Y-23510000D03*
%TO.P,U1,3*%
%TO.N,EN*%
X88750000Y-24780000D03*
%TO.P,U1,4*%
%TO.N,LCD_D0*%
X88750000Y-26050000D03*
%TO.P,U1,5*%
%TO.N,LCD_D1*%
X88750000Y-27320000D03*
%TO.P,U1,6*%
%TO.N,LCD_D2*%
X88750000Y-28590000D03*
%TO.P,U1,7*%
%TO.N,LCD_D3*%
X88750000Y-29860000D03*
%TO.P,U1,8*%
%TO.N,LED_HB*%
X88750000Y-31130000D03*
%TO.P,U1,9*%
%TO.N,N/C*%
X88750000Y-32400000D03*
%TO.P,U1,10*%
%TO.N,I2S_DOUT*%
X88750000Y-33670000D03*
%TO.P,U1,11*%
%TO.N,BTN_START*%
X88750000Y-34940000D03*
%TO.P,U1,12*%
%TO.N,LCD_D4*%
X88750000Y-36210000D03*
%TO.P,U1,13*%
%TO.N,USB_DM_MCU*%
X88750000Y-37480000D03*
%TO.P,U1,14*%
%TO.N,USB_DP_MCU*%
X88750000Y-38750000D03*
D11*
%TO.P,U1,15*%
%TO.N,BTN_R*%
X86985000Y-40000000D03*
%TO.P,U1,16*%
%TO.N,LCD_WR*%
X85715000Y-40000000D03*
%TO.P,U1,17*%
%TO.N,LCD_D5*%
X84445000Y-40000000D03*
%TO.P,U1,18*%
%TO.N,LCD_D6*%
X83175000Y-40000000D03*
%TO.P,U1,19*%
%TO.N,LCD_D7*%
X81905000Y-40000000D03*
%TO.P,U1,20*%
%TO.N,LCD_CS*%
X80635000Y-40000000D03*
%TO.P,U1,21*%
%TO.N,LCD_RST*%
X79365000Y-40000000D03*
%TO.P,U1,22*%
%TO.N,LCD_DC*%
X78095000Y-40000000D03*
%TO.P,U1,23*%
%TO.N,BTN_Y*%
X76825000Y-40000000D03*
%TO.P,U1,24*%
%TO.N,BTN_X*%
X75555000Y-40000000D03*
%TO.P,U1,25*%
%TO.N,BTN_B*%
X74285000Y-40000000D03*
%TO.P,U1,26*%
%TO.N,BTN_L*%
X73015000Y-40000000D03*
D10*
%TO.P,U1,27*%
%TO.N,BTN_SELECT*%
X71250000Y-38750000D03*
%TO.P,U1,28*%
%TO.N,N/C*%
X71250000Y-37480000D03*
%TO.P,U1,29*%
X71250000Y-36210000D03*
%TO.P,U1,30*%
X71250000Y-34940000D03*
%TO.P,U1,31*%
%TO.N,SD_CLK*%
X71250000Y-33670000D03*
%TO.P,U1,32*%
%TO.N,SD_CS*%
X71250000Y-32400000D03*
%TO.P,U1,33*%
%TO.N,BTN_UP*%
X71250000Y-31130000D03*
%TO.P,U1,34*%
%TO.N,BTN_DOWN*%
X71250000Y-29860000D03*
%TO.P,U1,35*%
%TO.N,BTN_LEFT*%
X71250000Y-28590000D03*
%TO.P,U1,36*%
%TO.N,SD_MOSI*%
X71250000Y-27320000D03*
%TO.P,U1,37*%
%TO.N,SD_MISO*%
X71250000Y-26050000D03*
%TO.P,U1,38*%
%TO.N,BTN_RIGHT*%
X71250000Y-24780000D03*
%TO.P,U1,39*%
%TO.N,BTN_A*%
X71250000Y-23510000D03*
%TO.P,U1,40*%
%TO.N,N/C*%
X71250000Y-22240000D03*
D12*
%TO.P,U1,41*%
%TO.N,GND*%
X81500000Y-29960000D03*
%TD*%
D13*
%TO.P,SW11,1*%
%TO.N,N/C*%
X13150000Y-2500000D03*
%TO.P,SW11,2*%
%TO.N,GND*%
X13150000Y-8500000D03*
%TO.P,SW11,3*%
%TO.N,BTN_L*%
X16850000Y-2500000D03*
%TO.P,SW11,4*%
%TO.N,N/C*%
X16850000Y-8500000D03*
%TD*%
%TO.P,SW12,1*%
%TO.N,N/C*%
X143150000Y-2500000D03*
%TO.P,SW12,2*%
%TO.N,GND*%
X143150000Y-8500000D03*
%TO.P,SW12,3*%
%TO.N,BTN_R*%
X146850000Y-2500000D03*
%TO.P,SW12,4*%
%TO.N,N/C*%
X146850000Y-8500000D03*
%TD*%
D14*
%TO.P,J4,1*%
%TO.N,GND*%
X133712000Y-25750000D03*
%TO.P,J4,2*%
%TO.N,+3V3*%
X133712000Y-26250000D03*
%TO.P,J4,3*%
X133712000Y-26750000D03*
%TO.P,J4,4*%
%TO.N,GND*%
X133712000Y-27250000D03*
%TO.P,J4,5*%
X133712000Y-27750000D03*
%TO.P,J4,6*%
X133712000Y-28250000D03*
%TO.P,J4,7*%
X133712000Y-28750000D03*
%TO.P,J4,8*%
%TO.N,LED_BLA*%
X133712000Y-29250000D03*
%TO.P,J4,9*%
%TO.N,N/C*%
X133712000Y-29750000D03*
%TO.P,J4,10*%
X133712000Y-30250000D03*
%TO.P,J4,11*%
X133712000Y-30750000D03*
%TO.P,J4,12*%
X133712000Y-31250000D03*
%TO.P,J4,13*%
X133712000Y-31750000D03*
%TO.P,J4,14*%
X133712000Y-32250000D03*
%TO.P,J4,15*%
X133712000Y-32750000D03*
%TO.P,J4,16*%
X133712000Y-33250000D03*
%TO.P,J4,17*%
%TO.N,LCD_D7*%
X133712000Y-33750000D03*
%TO.P,J4,18*%
%TO.N,LCD_D6*%
X133712000Y-34250000D03*
%TO.P,J4,19*%
%TO.N,LCD_D5*%
X133712000Y-34750000D03*
%TO.P,J4,20*%
%TO.N,LCD_D4*%
X133712000Y-35250000D03*
%TO.P,J4,21*%
%TO.N,LCD_D3*%
X133712000Y-35750000D03*
%TO.P,J4,22*%
%TO.N,LCD_D2*%
X133712000Y-36250000D03*
%TO.P,J4,23*%
%TO.N,LCD_D1*%
X133712000Y-36750000D03*
%TO.P,J4,24*%
%TO.N,LCD_D0*%
X133712000Y-37250000D03*
%TO.P,J4,25*%
%TO.N,GND*%
X133712000Y-37750000D03*
%TO.P,J4,26*%
%TO.N,LCD_RST*%
X133712000Y-38250000D03*
%TO.P,J4,27*%
%TO.N,N/C*%
X133712000Y-38750000D03*
%TO.P,J4,28*%
%TO.N,+3V3*%
X133712000Y-39250000D03*
%TO.P,J4,29*%
X133712000Y-39750000D03*
%TO.P,J4,30*%
%TO.N,LCD_WR*%
X133712000Y-40250000D03*
%TO.P,J4,31*%
%TO.N,LCD_DC*%
X133712000Y-40750000D03*
%TO.P,J4,32*%
%TO.N,LCD_CS*%
X133712000Y-41250000D03*
%TO.P,J4,33*%
%TO.N,N/C*%
X133712000Y-41750000D03*
%TO.P,J4,34*%
%TO.N,+3V3*%
X133712000Y-42250000D03*
%TO.P,J4,35*%
X133712000Y-42750000D03*
%TO.P,J4,36*%
%TO.N,GND*%
X133712000Y-43250000D03*
%TO.P,J4,37*%
%TO.N,N/C*%
X133712000Y-43750000D03*
%TO.P,J4,38*%
X133712000Y-44250000D03*
%TO.P,J4,39*%
X133712000Y-44750000D03*
%TO.P,J4,40*%
X133712000Y-45250000D03*
D15*
%TO.P,J4,41*%
X136288000Y-46940000D03*
%TO.P,J4,42*%
X136288000Y-24060000D03*
%TD*%
D16*
%TO.P,J1,1*%
%TO.N,GND*%
X83200000Y-68775000D03*
%TO.P,J1,2*%
%TO.N,VBUS_IN*%
X82400000Y-68775000D03*
%TO.P,J1,11*%
X77600000Y-68775000D03*
%TO.P,J1,12*%
%TO.N,GND*%
X76800000Y-68775000D03*
D17*
%TO.P,J1,3*%
%TO.N,N/C*%
X81750000Y-68775000D03*
%TO.P,J1,4*%
%TO.N,USB_CC1*%
X81250000Y-68775000D03*
%TO.P,J1,5*%
%TO.N,USB_D-*%
X80750000Y-68775000D03*
%TO.P,J1,6*%
%TO.N,USB_D+*%
X80250000Y-68775000D03*
%TO.P,J1,7*%
%TO.N,USB_D-*%
X79750000Y-68775000D03*
%TO.P,J1,8*%
%TO.N,USB_D+*%
X79250000Y-68775000D03*
%TO.P,J1,9*%
%TO.N,N/C*%
X78750000Y-68775000D03*
%TO.P,J1,10*%
%TO.N,USB_CC2*%
X78250000Y-68775000D03*
D18*
%TO.P,J1,13*%
%TO.N,GND*%
X84325000Y-69325000D03*
D19*
X84325000Y-73525000D03*
D18*
%TO.P,J1,14*%
X75675000Y-69325000D03*
D19*
X75675000Y-73525000D03*
%TD*%
D20*
%TO.P,U6,1*%
%TO.N,N/C*%
X137760000Y-61724000D03*
%TO.P,U6,2*%
%TO.N,SD_CS*%
X138860000Y-61724000D03*
%TO.P,U6,3*%
%TO.N,SD_MOSI*%
X139960000Y-61724000D03*
%TO.P,U6,4*%
%TO.N,+3V3*%
X141060000Y-61724000D03*
%TO.P,U6,5*%
%TO.N,SD_CLK*%
X142160000Y-61724000D03*
%TO.P,U6,6*%
%TO.N,GND*%
X143260000Y-61724000D03*
%TO.P,U6,7*%
%TO.N,SD_MISO*%
X144360000Y-61724000D03*
%TO.P,U6,8*%
X145460000Y-61724000D03*
%TO.P,U6,9*%
%TO.N,N/C*%
X146560000Y-61724000D03*
D21*
%TO.P,U6,10*%
%TO.N,GND*%
X147760000Y-62574000D03*
%TO.P,U6,13*%
%TO.N,N/C*%
X133080000Y-62574000D03*
D22*
%TO.P,U6,11*%
X147760000Y-72276000D03*
%TO.P,U6,12*%
%TO.N,GND*%
X132240000Y-72276000D03*
%TD*%
D23*
%TO.P,SW16,1*%
%TO.N,N/C*%
X42250000Y-70300000D03*
%TO.P,SW16,2*%
%TO.N,BAT+*%
X39250000Y-70300000D03*
%TO.P,SW16,3*%
%TO.N,N/C*%
X37750000Y-70300000D03*
D24*
%TO.P,SW16,4a*%
X43600000Y-71400000D03*
%TO.P,SW16,4b*%
%TO.N,BTN_SELECT*%
X36400000Y-71400000D03*
%TO.P,SW16,4c*%
%TO.N,N/C*%
X43600000Y-73700000D03*
%TO.P,SW16,4d*%
%TO.N,BTN_SELECT*%
X36400000Y-73700000D03*
%TD*%
D25*
%TO.P,SPK1,1*%
%TO.N,SPK+*%
X39500000Y-52500000D03*
%TO.P,SPK1,2*%
%TO.N,SPK-*%
X20500000Y-52500000D03*
%TD*%
D26*
%TO.P,U2,1*%
%TO.N,VBUS*%
X113000000Y-40595000D03*
%TO.P,U2,2*%
%TO.N,N/C*%
X113000000Y-41865000D03*
%TO.P,U2,3*%
X113000000Y-43135000D03*
%TO.P,U2,4*%
X113000000Y-44405000D03*
%TO.P,U2,5*%
%TO.N,IP5306_KEY*%
X107000000Y-44405000D03*
%TO.P,U2,6*%
%TO.N,BAT+*%
X107000000Y-43135000D03*
%TO.P,U2,7*%
%TO.N,LX*%
X107000000Y-41865000D03*
%TO.P,U2,8*%
%TO.N,+5V*%
X107000000Y-40595000D03*
D27*
%TO.P,U2,EP*%
%TO.N,GND*%
X110000000Y-42500000D03*
%TD*%
D28*
%TO.P,U3,1*%
%TO.N,+5V*%
X121100000Y-52550000D03*
%TO.P,U3,2*%
%TO.N,GND*%
X121100000Y-53500000D03*
%TO.P,U3,3*%
%TO.N,BUCK_LX*%
X121100000Y-54450000D03*
%TO.P,U3,4*%
%TO.N,+5V*%
X118500000Y-54450000D03*
%TO.P,U3,5*%
%TO.N,BUCK_FB*%
X118500000Y-52550000D03*
%TD*%
D29*
%TO.P,U5,1*%
%TO.N,N/C*%
X25555000Y-26800000D03*
%TO.P,U5,2*%
%TO.N,GND*%
X26825000Y-26800000D03*
%TO.P,U5,3*%
%TO.N,N/C*%
X28095000Y-26800000D03*
%TO.P,U5,4*%
%TO.N,+5V*%
X29365000Y-26800000D03*
%TO.P,U5,5*%
X30635000Y-26800000D03*
%TO.P,U5,6*%
X31905000Y-26800000D03*
%TO.P,U5,7*%
%TO.N,PAM_IN_AC*%
X33175000Y-26800000D03*
%TO.P,U5,8*%
%TO.N,PAM_VREF*%
X34445000Y-26800000D03*
%TO.P,U5,9*%
%TO.N,N/C*%
X34445000Y-32200000D03*
%TO.P,U5,10*%
%TO.N,PAM_IN_AC*%
X33175000Y-32200000D03*
%TO.P,U5,11*%
%TO.N,GND*%
X31905000Y-32200000D03*
%TO.P,U5,12*%
%TO.N,+5V*%
X30635000Y-32200000D03*
%TO.P,U5,13*%
X29365000Y-32200000D03*
%TO.P,U5,14*%
%TO.N,SPK-*%
X28095000Y-32200000D03*
%TO.P,U5,15*%
%TO.N,GND*%
X26825000Y-32200000D03*
%TO.P,U5,16*%
%TO.N,SPK+*%
X25555000Y-32200000D03*
%TD*%
D30*
%TO.P,L1,1*%
%TO.N,BAT+*%
X111700000Y-52500000D03*
%TO.P,L1,2*%
%TO.N,LX*%
X108300000Y-52500000D03*
%TD*%
D31*
%TO.P,L2,1*%
%TO.N,+3V3*%
X127800000Y-54450000D03*
%TO.P,L2,2*%
%TO.N,BUCK_LX*%
X124200000Y-54450000D03*
%TD*%
D32*
%TO.P,J3,1*%
%TO.N,BAT_IN*%
X79000000Y-62500000D03*
%TO.P,J3,2*%
%TO.N,GND*%
X81000000Y-62500000D03*
D33*
%TO.P,J3,3*%
%TO.N,N/C*%
X76650000Y-56650000D03*
%TO.P,J3,4*%
X83350000Y-56650000D03*
%TD*%
D34*
%TO.P,SW15,1*%
%TO.N,EN*%
X98000000Y-63650000D03*
%TO.P,SW15,2*%
%TO.N,N/C*%
X92000000Y-63650000D03*
%TO.P,SW15,3*%
%TO.N,GND*%
X98000000Y-67350000D03*
%TO.P,SW15,4*%
X92000000Y-67350000D03*
%TD*%
%TO.P,SW14,1*%
%TO.N,N/C*%
X108000000Y-63650000D03*
%TO.P,SW14,2*%
%TO.N,BTN_SELECT*%
X102000000Y-63650000D03*
%TO.P,SW14,3*%
%TO.N,GND*%
X108000000Y-67350000D03*
%TO.P,SW14,4*%
X102000000Y-67350000D03*
%TD*%
D35*
%TO.P,D1,1*%
%TO.N,BTN_START*%
X100275000Y-55400000D03*
%TO.P,D1,2*%
%TO.N,BTN_SELECT*%
X102175000Y-55400000D03*
%TO.P,D1,3*%
%TO.N,MENU_K*%
X101225000Y-57600000D03*
%TD*%
%TO.P,Q1,1*%
%TO.N,RPP_GATE*%
X84050000Y-51900000D03*
%TO.P,Q1,2*%
%TO.N,BAT+*%
X85950000Y-51900000D03*
%TO.P,Q1,3*%
%TO.N,BAT_IN*%
X85000000Y-54100000D03*
%TD*%
D36*
%TO.P,R24,1*%
%TO.N,RPP_GATE*%
X85400000Y-49250000D03*
%TO.P,R24,2*%
%TO.N,GND*%
X85400000Y-47350000D03*
%TD*%
D37*
%TO.P,R1,1*%
%TO.N,USB_CC1*%
X74950000Y-67000000D03*
%TO.P,R1,2*%
%TO.N,GND*%
X73050000Y-67000000D03*
%TD*%
%TO.P,R2,1*%
%TO.N,USB_CC2*%
X78950000Y-67000000D03*
%TO.P,R2,2*%
%TO.N,GND*%
X77050000Y-67000000D03*
%TD*%
D35*
%TO.P,U4,1*%
%TO.N,USB_D-*%
X91900000Y-61100000D03*
%TO.P,U4,2*%
%TO.N,GND*%
X90950000Y-61100000D03*
%TO.P,U4,3*%
%TO.N,USB_D+*%
X90000000Y-61100000D03*
%TO.P,U4,4*%
X90000000Y-58900000D03*
%TO.P,U4,5*%
%TO.N,VBUS*%
X90950000Y-58900000D03*
%TO.P,U4,6*%
%TO.N,USB_D-*%
X91900000Y-58900000D03*
%TD*%
D38*
%TO.P,R22,1*%
%TO.N,USB_DP_MCU*%
X90250000Y-39520000D03*
%TO.P,R22,2*%
%TO.N,USB_D+*%
X90250000Y-40480000D03*
%TD*%
%TO.P,R23,1*%
%TO.N,USB_DM_MCU*%
X91650000Y-38020000D03*
%TO.P,R23,2*%
%TO.N,USB_D-*%
X91650000Y-38980000D03*
%TD*%
D37*
%TO.P,C3,1*%
%TO.N,+3V3*%
X70500000Y-42000000D03*
%TO.P,C3,2*%
%TO.N,GND*%
X68600000Y-42000000D03*
%TD*%
%TO.P,C4,1*%
%TO.N,+3V3*%
X92950000Y-42000000D03*
%TO.P,C4,2*%
%TO.N,GND*%
X91050000Y-42000000D03*
%TD*%
D36*
%TO.P,C26,1*%
%TO.N,+3V3*%
X91500000Y-20050000D03*
%TO.P,C26,2*%
%TO.N,GND*%
X91500000Y-21950000D03*
%TD*%
%TO.P,R3,1*%
%TO.N,+3V3*%
X94000000Y-21350000D03*
%TO.P,R3,2*%
%TO.N,EN*%
X94000000Y-23250000D03*
%TD*%
%TO.P,C31,1*%
%TO.N,GND*%
X96200000Y-21350000D03*
%TO.P,C31,2*%
%TO.N,EN*%
X96200000Y-23250000D03*
%TD*%
D39*
%TO.P,R27,1*%
%TO.N,LED_BLA*%
X121700000Y-44000000D03*
%TO.P,R27,2*%
%TO.N,+5V*%
X121700000Y-47000000D03*
%TD*%
D40*
%TO.P,F1,1*%
%TO.N,VBUS_IN*%
X83600000Y-60600000D03*
%TO.P,F1,2*%
%TO.N,VBUS*%
X88000000Y-60600000D03*
%TD*%
D37*
%TO.P,R17,1*%
%TO.N,LED1_RA*%
X25950000Y-65000000D03*
%TO.P,R17,2*%
%TO.N,+3V3*%
X24050000Y-65000000D03*
%TD*%
%TO.P,R18,1*%
%TO.N,LED2_RA*%
X32950000Y-65000000D03*
%TO.P,R18,2*%
%TO.N,+3V3*%
X31050000Y-65000000D03*
%TD*%
%TO.P,R4,1*%
%TO.N,BTN_UP*%
X43950000Y-46000000D03*
%TO.P,R4,2*%
%TO.N,+3V3*%
X42050000Y-46000000D03*
%TD*%
%TO.P,R5,1*%
%TO.N,BTN_DOWN*%
X48950000Y-46000000D03*
%TO.P,R5,2*%
%TO.N,+3V3*%
X47050000Y-46000000D03*
%TD*%
%TO.P,R6,1*%
%TO.N,BTN_LEFT*%
X53950000Y-46000000D03*
%TO.P,R6,2*%
%TO.N,+3V3*%
X52050000Y-46000000D03*
%TD*%
%TO.P,R7,1*%
%TO.N,BTN_RIGHT*%
X58950000Y-46000000D03*
%TO.P,R7,2*%
%TO.N,+3V3*%
X57050000Y-46000000D03*
%TD*%
%TO.P,R8,1*%
%TO.N,BTN_A*%
X63950000Y-46000000D03*
%TO.P,R8,2*%
%TO.N,+3V3*%
X62050000Y-46000000D03*
%TD*%
%TO.P,R9,1*%
%TO.N,BTN_B*%
X68950000Y-46000000D03*
%TO.P,R9,2*%
%TO.N,+3V3*%
X67050000Y-46000000D03*
%TD*%
%TO.P,R10,1*%
%TO.N,BTN_X*%
X73950000Y-46000000D03*
%TO.P,R10,2*%
%TO.N,+3V3*%
X72050000Y-46000000D03*
%TD*%
%TO.P,R11,1*%
%TO.N,BTN_Y*%
X78950000Y-46000000D03*
%TO.P,R11,2*%
%TO.N,+3V3*%
X77050000Y-46000000D03*
%TD*%
%TO.P,R12,1*%
%TO.N,BTN_START*%
X83950000Y-46000000D03*
%TO.P,R12,2*%
%TO.N,+3V3*%
X82050000Y-46000000D03*
%TD*%
%TO.P,R13,1*%
%TO.N,BTN_SELECT*%
X88950000Y-46000000D03*
%TO.P,R13,2*%
%TO.N,+3V3*%
X87050000Y-46000000D03*
%TD*%
%TO.P,R14,1*%
%TO.N,BTN_L*%
X93950000Y-46000000D03*
%TO.P,R14,2*%
%TO.N,N/C*%
X92050000Y-46000000D03*
%TD*%
%TO.P,R15,1*%
%TO.N,BTN_R*%
X98950000Y-46000000D03*
%TO.P,R15,2*%
%TO.N,+3V3*%
X97050000Y-46000000D03*
%TD*%
%TO.P,R16,1*%
%TO.N,+5V*%
X115950000Y-52500000D03*
%TO.P,R16,2*%
%TO.N,IP5306_KEY*%
X114050000Y-52500000D03*
%TD*%
%TO.P,C5,1*%
%TO.N,BTN_UP*%
X43950000Y-50000000D03*
%TO.P,C5,2*%
%TO.N,GND*%
X42050000Y-50000000D03*
%TD*%
%TO.P,C6,1*%
%TO.N,BTN_DOWN*%
X48950000Y-50000000D03*
%TO.P,C6,2*%
%TO.N,GND*%
X47050000Y-50000000D03*
%TD*%
%TO.P,C7,1*%
%TO.N,BTN_LEFT*%
X53950000Y-50000000D03*
%TO.P,C7,2*%
%TO.N,GND*%
X52050000Y-50000000D03*
%TD*%
%TO.P,C8,1*%
%TO.N,BTN_RIGHT*%
X58950000Y-50000000D03*
%TO.P,C8,2*%
%TO.N,GND*%
X57050000Y-50000000D03*
%TD*%
%TO.P,C9,1*%
%TO.N,BTN_A*%
X63950000Y-50000000D03*
%TO.P,C9,2*%
%TO.N,GND*%
X62050000Y-50000000D03*
%TD*%
%TO.P,C10,1*%
%TO.N,BTN_B*%
X68950000Y-50000000D03*
%TO.P,C10,2*%
%TO.N,GND*%
X67050000Y-50000000D03*
%TD*%
%TO.P,C11,1*%
%TO.N,BTN_X*%
X73950000Y-50000000D03*
%TO.P,C11,2*%
%TO.N,GND*%
X72050000Y-50000000D03*
%TD*%
%TO.P,C12,1*%
%TO.N,BTN_Y*%
X78950000Y-50000000D03*
%TO.P,C12,2*%
%TO.N,GND*%
X77050000Y-50000000D03*
%TD*%
%TO.P,C13,1*%
%TO.N,BTN_START*%
X83950000Y-50000000D03*
%TO.P,C13,2*%
%TO.N,GND*%
X82050000Y-50000000D03*
%TD*%
%TO.P,C14,1*%
%TO.N,BTN_SELECT*%
X88950000Y-50000000D03*
%TO.P,C14,2*%
%TO.N,GND*%
X87050000Y-50000000D03*
%TD*%
%TO.P,C15,1*%
%TO.N,BTN_L*%
X93950000Y-50000000D03*
%TO.P,C15,2*%
%TO.N,GND*%
X92050000Y-50000000D03*
%TD*%
%TO.P,C16,1*%
%TO.N,BTN_R*%
X98950000Y-50000000D03*
%TO.P,C16,2*%
%TO.N,GND*%
X97050000Y-50000000D03*
%TD*%
%TO.P,C17,1*%
%TO.N,VBUS*%
X110950000Y-35000000D03*
%TO.P,C17,2*%
%TO.N,GND*%
X109050000Y-35000000D03*
%TD*%
%TO.P,C18,1*%
%TO.N,BAT+*%
X116950000Y-49000000D03*
%TO.P,C18,2*%
%TO.N,GND*%
X115050000Y-49000000D03*
%TD*%
D41*
%TO.P,C19,1*%
%TO.N,+5V*%
X111500000Y-58500000D03*
%TO.P,C19,2*%
%TO.N,GND*%
X108500000Y-58500000D03*
%TD*%
D37*
%TO.P,C27,1*%
%TO.N,GND*%
X108950000Y-39000000D03*
%TO.P,C27,2*%
%TO.N,+5V*%
X107050000Y-39000000D03*
%TD*%
D36*
%TO.P,C28,1*%
%TO.N,+3V3*%
X86000000Y-25050000D03*
%TO.P,C28,2*%
%TO.N,GND*%
X86000000Y-26950000D03*
%TD*%
%TO.P,C22,1*%
%TO.N,I2S_DOUT*%
X33175000Y-19050000D03*
%TO.P,C22,2*%
%TO.N,PAM_IN_AC*%
X33175000Y-20950000D03*
%TD*%
D37*
%TO.P,R20,1*%
%TO.N,PAM_VREF*%
X38950000Y-26500000D03*
%TO.P,R20,2*%
%TO.N,PAM_IN_AC*%
X37050000Y-26500000D03*
%TD*%
%TO.P,R21,1*%
%TO.N,PAM_VREF*%
X38950000Y-32500000D03*
%TO.P,R21,2*%
%TO.N,PAM_IN_AC*%
X37050000Y-32500000D03*
%TD*%
%TO.P,C21,1*%
%TO.N,GND*%
X38950000Y-23500000D03*
%TO.P,C21,2*%
%TO.N,PAM_VREF*%
X37050000Y-23500000D03*
%TD*%
D36*
%TO.P,C23,1*%
%TO.N,+5V*%
X38000000Y-28550000D03*
%TO.P,C23,2*%
%TO.N,GND*%
X38000000Y-30450000D03*
%TD*%
%TO.P,C24,1*%
%TO.N,GND*%
X29365000Y-21050000D03*
%TO.P,C24,2*%
%TO.N,+5V*%
X29365000Y-22950000D03*
%TD*%
%TO.P,C25,1*%
%TO.N,+5V*%
X31500000Y-36550000D03*
%TO.P,C25,2*%
%TO.N,GND*%
X31500000Y-38450000D03*
%TD*%
D41*
%TO.P,C1,1*%
%TO.N,+5V*%
X118300000Y-56600000D03*
%TO.P,C1,2*%
%TO.N,GND*%
X121300000Y-56600000D03*
%TD*%
D39*
%TO.P,C30,1*%
%TO.N,+3V3*%
X127800000Y-57400000D03*
%TO.P,C30,2*%
%TO.N,GND*%
X127800000Y-60400000D03*
%TD*%
D37*
%TO.P,R25,1*%
%TO.N,+3V3*%
X117050000Y-63400000D03*
%TO.P,R25,2*%
%TO.N,BUCK_FB*%
X118950000Y-63400000D03*
%TD*%
%TO.P,R26,1*%
%TO.N,BUCK_FB*%
X120250000Y-63400000D03*
%TO.P,R26,2*%
%TO.N,GND*%
X122150000Y-63400000D03*
%TD*%
%TO.P,C29,1*%
%TO.N,+3V3*%
X117050000Y-60300000D03*
%TO.P,C29,2*%
%TO.N,BUCK_FB*%
X118950000Y-60300000D03*
%TD*%
D42*
%TO.N,VBUS*%
X88000000Y-59300000D03*
X86900000Y-59300000D03*
X85800000Y-59300000D03*
X111000000Y-40095000D03*
X111000000Y-39020000D03*
%TO.N,GND*%
X81000000Y-59000000D03*
D43*
X76800000Y-66200000D03*
X80200000Y-35000000D03*
X80200000Y-36000000D03*
X81000000Y-35500000D03*
D42*
%TO.N,+5V*%
X118300000Y-58300000D03*
X119600000Y-58300000D03*
D43*
%TO.N,GND*%
X122400000Y-53500000D03*
D44*
X122400000Y-51800000D03*
X122400000Y-50600000D03*
D43*
X122600000Y-56600000D03*
%TO.N,+5V*%
X121100000Y-51200000D03*
D42*
%TO.N,+3V3*%
X126000000Y-57400000D03*
X124600000Y-57400000D03*
X125300000Y-58600000D03*
D43*
%TO.N,GND*%
X126300000Y-60400000D03*
X125000000Y-60400000D03*
D45*
%TO.N,BUCK_FB*%
X118500000Y-51200000D03*
X118950000Y-61850000D03*
D43*
%TO.N,+3V3*%
X115550000Y-63400000D03*
%TO.N,GND*%
X123550000Y-63400000D03*
D44*
X108550000Y-44300000D03*
X109550000Y-44300000D03*
X108550000Y-45300000D03*
X109550000Y-45300000D03*
D43*
%TO.N,+3V3*%
X141060000Y-61724000D03*
D45*
%TO.N,GND*%
X143260000Y-61724000D03*
D43*
X148760000Y-62574000D03*
X131240000Y-72276000D03*
X129740000Y-72276000D03*
D42*
%TO.N,+5V*%
X107500000Y-39095000D03*
X105600000Y-40595000D03*
X107500000Y-37900000D03*
D46*
%TO.N,BAT+*%
X107800000Y-46100000D03*
D42*
%TO.N,+5V*%
X115250000Y-54500000D03*
D46*
%TO.N,+3V3*%
X88750000Y-23700000D03*
D42*
%TO.N,BAT+*%
X105500000Y-46135000D03*
X105500000Y-47210000D03*
X104300000Y-46135000D03*
X104300000Y-47210000D03*
X106600000Y-47550000D03*
X107700000Y-47550000D03*
X108800000Y-47550000D03*
X109900000Y-47550000D03*
D45*
X80010000Y-46135000D03*
D44*
X80900000Y-46135000D03*
D47*
X79725000Y-47275000D03*
X80750000Y-47275000D03*
X81775000Y-47275000D03*
X82800000Y-47275000D03*
D43*
%TO.N,GND*%
X85400000Y-47350000D03*
D42*
%TO.N,BAT+*%
X38000000Y-46135000D03*
D43*
%TO.N,+5V*%
X105500000Y-48850000D03*
X39000000Y-48850000D03*
D45*
%TO.N,LCD_CS*%
X80635000Y-38115000D03*
X101030000Y-38115000D03*
X110000000Y-38115000D03*
X124000000Y-38115000D03*
X124000000Y-5000000D03*
D43*
X140800000Y-5000000D03*
D45*
%TO.N,LCD_DC*%
X78095000Y-36845000D03*
X101600000Y-36845000D03*
X108270000Y-36845000D03*
X122900000Y-36845000D03*
X122900000Y-6000000D03*
D43*
X140100000Y-6000000D03*
D45*
%TO.N,LCD_WR*%
X85715000Y-35575000D03*
X102350000Y-35575000D03*
X107650000Y-35575000D03*
X121800000Y-35575000D03*
X121800000Y-7000000D03*
D43*
X139400000Y-7000000D03*
D45*
%TO.N,LCD_RST*%
X79365000Y-34305000D03*
X120700000Y-34305000D03*
X120700000Y-8000000D03*
D43*
X138700000Y-8000000D03*
D45*
%TO.N,LCD_D0*%
X90750000Y-26050000D03*
X119600000Y-26050000D03*
X119600000Y-9000000D03*
D43*
X138000000Y-9000000D03*
D45*
%TO.N,LCD_D1*%
X90750000Y-27320000D03*
X118500000Y-27320000D03*
X118500000Y-10000000D03*
D43*
X137300000Y-10000000D03*
D45*
X137300000Y-22480000D03*
X137300000Y-25520000D03*
%TO.N,LCD_D2*%
X90750000Y-28590000D03*
X117400000Y-28590000D03*
X117400000Y-11000000D03*
D43*
X136600000Y-11000000D03*
D45*
X136600000Y-22200000D03*
X136600000Y-25800000D03*
%TO.N,LCD_D3*%
X90750000Y-29860000D03*
X116300000Y-29860000D03*
X116300000Y-12000000D03*
D43*
X135900000Y-12000000D03*
D45*
X135900000Y-22480000D03*
X135900000Y-25520000D03*
%TO.N,LCD_D4*%
X90750000Y-36210000D03*
X99500000Y-36210000D03*
X111800000Y-36210000D03*
X115200000Y-36210000D03*
X115200000Y-13000000D03*
D43*
X135200000Y-13000000D03*
D45*
X135200000Y-22200000D03*
X135200000Y-25800000D03*
%TO.N,LCD_D5*%
X84445000Y-33035000D03*
X114100000Y-33035000D03*
X114100000Y-14000000D03*
D43*
X134500000Y-14000000D03*
D45*
%TO.N,LCD_D6*%
X83175000Y-32360000D03*
X113000000Y-21500000D03*
X113000000Y-15000000D03*
D43*
X131000000Y-15000000D03*
D45*
%TO.N,LCD_D7*%
X81905000Y-32360000D03*
X111900000Y-20500000D03*
X111900000Y-16000000D03*
D43*
X131700000Y-16000000D03*
D46*
%TO.N,GND*%
X133600000Y-25500000D03*
X133600000Y-27400000D03*
X133600000Y-28250000D03*
X132600000Y-43750000D03*
D43*
X143500000Y-43750000D03*
X143500000Y-50250000D03*
D45*
X131000000Y-37750000D03*
D46*
%TO.N,+3V3*%
X133600000Y-26400000D03*
D45*
X131000000Y-39750000D03*
%TO.N,LED_BLA*%
X132500000Y-29250000D03*
X124750000Y-22300000D03*
D43*
%TO.N,+5V*%
X121700000Y-48500000D03*
%TO.N,+3V3*%
X132000000Y-52000000D03*
%TO.N,SD_MOSI*%
X72200000Y-27320000D03*
X75000000Y-27320000D03*
X75000000Y-1500000D03*
X141500000Y-1500000D03*
X141500000Y-66000000D03*
X139960000Y-66000000D03*
%TO.N,SD_MISO*%
X72200000Y-26050000D03*
X76000000Y-26050000D03*
X76000000Y-2200000D03*
X145600000Y-2200000D03*
X145600000Y-67500000D03*
X144360000Y-67500000D03*
%TO.N,SD_CLK*%
X72200000Y-33670000D03*
X77000000Y-33670000D03*
X77000000Y-2900000D03*
X152500000Y-2900000D03*
X152500000Y-70500000D03*
X142160000Y-70500000D03*
%TO.N,SD_CS*%
X72200000Y-32400000D03*
X78000000Y-32400000D03*
X78000000Y-3600000D03*
X153500000Y-3600000D03*
X153500000Y-71250000D03*
X138860000Y-71250000D03*
%TO.N,I2S_DOUT*%
X87700000Y-18000000D03*
X33175000Y-18000000D03*
%TO.N,SPK+*%
X24500000Y-21500000D03*
X40000000Y-21500000D03*
%TO.N,SPK-*%
X28095000Y-28100000D03*
X28095000Y-25500000D03*
X28095000Y-23700000D03*
X20500000Y-23700000D03*
%TO.N,+5V*%
X31905000Y-28800000D03*
X29365000Y-28700000D03*
%TO.N,GND*%
X26825000Y-24800000D03*
X26825000Y-34300000D03*
X31905000Y-34300000D03*
X26500000Y-27000000D03*
X26500000Y-29500000D03*
X26500000Y-32000000D03*
%TO.N,PAM_IN_AC*%
X33175000Y-32200000D03*
X37050000Y-32500000D03*
%TO.N,GND*%
X38850000Y-24500000D03*
D45*
%TO.N,+5V*%
X31905000Y-25800000D03*
X38000000Y-25800000D03*
D43*
%TO.N,GND*%
X38000000Y-30950000D03*
X29365000Y-20550000D03*
X31500000Y-38950000D03*
%TO.N,USB_D+*%
X80600000Y-65875000D03*
X90250000Y-65875000D03*
%TO.N,USB_D-*%
X79750000Y-64525000D03*
X91650000Y-62800000D03*
%TO.N,GND*%
X90950000Y-61900000D03*
D44*
%TO.N,VBUS*%
X90950000Y-59300000D03*
D43*
%TO.N,USB_CC1*%
X81250000Y-67400000D03*
X74950000Y-67400000D03*
%TO.N,GND*%
X73050000Y-65500000D03*
X77050000Y-63800000D03*
D45*
%TO.N,USB_D-*%
X79750000Y-70000000D03*
X80750000Y-70000000D03*
%TO.N,BTN_UP*%
X22200000Y-21650000D03*
X22200000Y-62000000D03*
X67830000Y-62000000D03*
D43*
X67830000Y-31130000D03*
X69250000Y-31130000D03*
%TO.N,GND*%
X16000000Y-25850000D03*
D45*
%TO.N,BTN_DOWN*%
X22950000Y-39650000D03*
X22950000Y-63200000D03*
X65550000Y-63200000D03*
D43*
X65550000Y-29860000D03*
X69250000Y-29860000D03*
%TO.N,GND*%
X16000000Y-43850000D03*
D45*
%TO.N,BTN_LEFT*%
X13200000Y-30650000D03*
X13200000Y-64400000D03*
X63100000Y-64400000D03*
D43*
X63100000Y-28590000D03*
X69250000Y-28590000D03*
%TO.N,GND*%
X7500000Y-34850000D03*
D45*
%TO.N,BTN_RIGHT*%
X35200000Y-30650000D03*
X35200000Y-65600000D03*
X58100000Y-65600000D03*
D43*
X58100000Y-24780000D03*
X69250000Y-24780000D03*
%TO.N,GND*%
X25500000Y-34850000D03*
D45*
%TO.N,BTN_A*%
X130420000Y-20650000D03*
X130420000Y-66800000D03*
X53100000Y-66800000D03*
D43*
X53100000Y-23510000D03*
X69250000Y-23510000D03*
%TO.N,GND*%
X143500000Y-24850000D03*
D45*
%TO.N,BTN_B*%
X142800000Y-30650000D03*
X142800000Y-68000000D03*
X45550000Y-68000000D03*
D43*
X45550000Y-41500000D03*
X73250000Y-41500000D03*
%TO.N,GND*%
X154080000Y-34850000D03*
D45*
%TO.N,BTN_X*%
X129830000Y-40650000D03*
X129830000Y-70810000D03*
X34300000Y-70810000D03*
D43*
X34300000Y-42700000D03*
X73555000Y-42700000D03*
%TO.N,GND*%
X143500000Y-44850000D03*
D45*
%TO.N,BTN_Y*%
X129240000Y-30650000D03*
X129240000Y-71560000D03*
X27450000Y-71560000D03*
D43*
X27450000Y-43900000D03*
X74825000Y-43900000D03*
%TO.N,GND*%
X140000000Y-49000000D03*
D46*
%TO.N,BTN_START*%
X12200000Y-52650000D03*
X12200000Y-73955000D03*
X100450000Y-73955000D03*
D43*
X100450000Y-34940000D03*
X90750000Y-34940000D03*
%TO.N,GND*%
X6500000Y-56850000D03*
D46*
%TO.N,BTN_SELECT*%
X35950000Y-52650000D03*
X35950000Y-74460000D03*
X60450000Y-74460000D03*
D43*
X60450000Y-45100000D03*
D46*
X73030000Y-45100000D03*
D43*
%TO.N,GND*%
X26500000Y-56850000D03*
%TO.N,BTN_L*%
X16850000Y-7500000D03*
X16850000Y-9500000D03*
D46*
X16850000Y-73420000D03*
X64750000Y-73420000D03*
D43*
X64750000Y-40000000D03*
X73015000Y-40000000D03*
%TO.N,GND*%
X14650000Y-8500000D03*
%TO.N,BTN_R*%
X146850000Y-7500000D03*
X146850000Y-9500000D03*
X146850000Y-65290000D03*
X76200000Y-65290000D03*
X76200000Y-48000000D03*
X87985000Y-48000000D03*
%TO.N,GND*%
X144650000Y-8500000D03*
%TO.N,+3V3*%
X41800000Y-44500000D03*
X46800000Y-44500000D03*
X51800000Y-44500000D03*
X56800000Y-44500000D03*
X61800000Y-44500000D03*
X66800000Y-44500000D03*
X71800000Y-47500000D03*
X76950000Y-44500000D03*
X81800000Y-44500000D03*
X86800000Y-44500000D03*
X96800000Y-44500000D03*
%TO.N,GND*%
X41800000Y-52000000D03*
X46800000Y-52000000D03*
X51800000Y-52000000D03*
X56800000Y-52000000D03*
X61800000Y-52000000D03*
X66800000Y-52000000D03*
X71800000Y-52000000D03*
X76950000Y-52000000D03*
X82200000Y-51500000D03*
X86800000Y-52000000D03*
D45*
X92200000Y-52000000D03*
D43*
X96800000Y-52000000D03*
%TO.N,+3V3*%
X70500000Y-44500000D03*
%TO.N,GND*%
X68600000Y-40000000D03*
%TO.N,+3V3*%
X92950000Y-40600000D03*
%TO.N,GND*%
X91050000Y-40000000D03*
%TO.N,+3V3*%
X91500000Y-18550000D03*
%TO.N,GND*%
X91500000Y-23450000D03*
%TO.N,+3V3*%
X94000000Y-19600000D03*
%TO.N,GND*%
X96200000Y-19600000D03*
%TO.N,+3V3*%
X86000000Y-23550000D03*
%TO.N,GND*%
X86000000Y-28450000D03*
X109050000Y-37700000D03*
X115050000Y-51000000D03*
%TO.N,+5V*%
X113000000Y-56500000D03*
%TO.N,GND*%
X108500000Y-59500000D03*
X108950000Y-40500000D03*
%TO.N,+3V3*%
X24050000Y-63800000D03*
D44*
%TO.N,LED1_RA*%
X25950000Y-66250000D03*
D43*
%TO.N,GND*%
X23350000Y-67500000D03*
%TO.N,+3V3*%
X31050000Y-63800000D03*
D44*
%TO.N,LED2_RA*%
X32950000Y-66250000D03*
D43*
%TO.N,GND*%
X30350000Y-67500000D03*
X131850000Y-58000000D03*
X137850000Y-58000000D03*
X143850000Y-58000000D03*
X149850000Y-58000000D03*
%TO.N,+5V*%
X119750000Y-48750000D03*
%TO.N,+3V3*%
X144250000Y-51600000D03*
%TO.N,LED_HB*%
X97000000Y-31130000D03*
%TO.N,GND*%
X98000000Y-69350000D03*
X92000000Y-69350000D03*
X108000000Y-69350000D03*
X102000000Y-69350000D03*
%TO.N,BTN_SELECT*%
X102000000Y-60000000D03*
%TO.N,MENU_K*%
X101225000Y-62400000D03*
%TO.N,GND*%
X135000000Y-63550000D03*
X148000000Y-66500000D03*
D45*
%TO.N,BTN_B*%
X69550000Y-41500000D03*
%TO.N,BTN_Y*%
X78950000Y-43000000D03*
%TO.N,BTN_R*%
X98950000Y-47000000D03*
%TO.N,BTN_START*%
X83950000Y-43000000D03*
X100450000Y-43000000D03*
D46*
%TO.N,BTN_A*%
X63950000Y-55000000D03*
X53100000Y-55000000D03*
%TO.N,BTN_LEFT*%
X53950000Y-55500000D03*
X63100000Y-55500000D03*
%TO.N,BTN_DOWN*%
X48950000Y-56000000D03*
X65550000Y-56000000D03*
%TO.N,BTN_RIGHT*%
X58950000Y-56500000D03*
X58100000Y-56500000D03*
%TO.N,BTN_UP*%
X43950000Y-57000000D03*
X67830000Y-57000000D03*
%TO.N,BTN_SELECT*%
X88950000Y-58000000D03*
%TO.N,BTN_L*%
X93950000Y-57500000D03*
X64750000Y-57500000D03*
%TO.N,BTN_SELECT*%
X60450000Y-58000000D03*
%TD*%
%TO.N,VBUS_IN*%
D48*
X82400000Y-68775000D02*
X82400000Y-61000000D01*
X82400000Y-61000000D02*
X83600000Y-61000000D01*
X83600000Y-61000000D02*
X83600000Y-60600000D01*
%TO.N,VBUS*%
X88000000Y-60600000D02*
X88000000Y-59300000D01*
X88000000Y-59300000D02*
X86900000Y-59300000D01*
X86900000Y-59300000D02*
X85800000Y-59300000D01*
X111000000Y-40095000D02*
X111000000Y-40595000D01*
X111000000Y-40595000D02*
X113000000Y-40595000D01*
%TO.N,GND*%
X76800000Y-68775000D02*
X76800000Y-66200000D01*
D49*
X81500000Y-29960000D02*
X80200000Y-29960000D01*
D50*
X80200000Y-29960000D02*
X80200000Y-35000000D01*
X80200000Y-35000000D02*
X80200000Y-35500000D01*
X80200000Y-35500000D02*
X80200000Y-36000000D01*
X80200000Y-35500000D02*
X81000000Y-35500000D01*
%TO.N,+5V*%
D51*
X118300000Y-58300000D02*
X119600000Y-58300000D01*
X118300000Y-56600000D02*
X118300000Y-58300000D01*
X118500000Y-54450000D02*
X118500000Y-56600000D01*
X118500000Y-56600000D02*
X118300000Y-56600000D01*
%TO.N,GND*%
D48*
X121100000Y-53500000D02*
X122400000Y-53500000D01*
X122400000Y-53500000D02*
X122400000Y-51800000D01*
X122400000Y-51800000D02*
X122400000Y-50600000D01*
X121300000Y-56600000D02*
X122600000Y-56600000D01*
%TO.N,+5V*%
D52*
X121100000Y-52550000D02*
X121100000Y-51200000D01*
%TO.N,BUCK_LX*%
D51*
X121100000Y-54450000D02*
X124200000Y-54450000D01*
%TO.N,+3V3*%
X127800000Y-54450000D02*
X127800000Y-57400000D01*
X127800000Y-57400000D02*
X126000000Y-57400000D01*
X126000000Y-57400000D02*
X125300000Y-57400000D01*
X125300000Y-57400000D02*
X124600000Y-57400000D01*
X125300000Y-57400000D02*
X125300000Y-58600000D01*
%TO.N,GND*%
D48*
X127800000Y-60400000D02*
X126300000Y-60400000D01*
X126300000Y-60400000D02*
X125000000Y-60400000D01*
%TO.N,BUCK_FB*%
D52*
X118500000Y-52550000D02*
X118500000Y-51200000D01*
X118950000Y-60300000D02*
X118950000Y-63400000D01*
X118950000Y-63400000D02*
X120250000Y-63400000D01*
%TO.N,+3V3*%
X117050000Y-60300000D02*
X117050000Y-63400000D01*
X117050000Y-63400000D02*
X115550000Y-63400000D01*
%TO.N,GND*%
X122150000Y-63400000D02*
X123550000Y-63400000D01*
D48*
X81000000Y-62500000D02*
X81000000Y-59000000D01*
X108550000Y-45300000D02*
X108550000Y-44300000D01*
X108550000Y-44300000D02*
X108550000Y-42500000D01*
X109550000Y-45300000D02*
X109550000Y-44300000D01*
X109550000Y-44300000D02*
X109550000Y-42500000D01*
X108550000Y-42500000D02*
X109550000Y-42500000D01*
X109550000Y-42500000D02*
X110000000Y-42500000D01*
D50*
X147760000Y-62574000D02*
X148760000Y-62574000D01*
X132240000Y-72276000D02*
X131240000Y-72276000D01*
X131240000Y-72276000D02*
X129740000Y-72276000D01*
%TO.N,+5V*%
D48*
X107000000Y-40595000D02*
X107500000Y-40595000D01*
X107500000Y-40595000D02*
X107500000Y-39095000D01*
X107000000Y-40595000D02*
X105600000Y-40595000D01*
X107500000Y-39095000D02*
X107500000Y-37900000D01*
%TO.N,LX*%
D51*
X107000000Y-41865000D02*
X104400000Y-41865000D01*
X104400000Y-41865000D02*
X104400000Y-44500000D01*
X104400000Y-44500000D02*
X103000000Y-44500000D01*
X103000000Y-44500000D02*
X103000000Y-51500000D01*
X103000000Y-51500000D02*
X104400000Y-51500000D01*
X104400000Y-51500000D02*
X104400000Y-52500000D01*
X104400000Y-52500000D02*
X108300000Y-52500000D01*
%TO.N,BAT+*%
X111700000Y-52500000D02*
X111700000Y-49900000D01*
D49*
X107800000Y-46100000D02*
X116950000Y-46100000D01*
%TO.N,IP5306_KEY*%
D52*
X114050000Y-52500000D02*
X114050000Y-46605000D01*
X114050000Y-46605000D02*
X107000000Y-46605000D01*
X107000000Y-46605000D02*
X107000000Y-44405000D01*
%TO.N,+5V*%
D48*
X115950000Y-52500000D02*
X115250000Y-52500000D01*
X115250000Y-52500000D02*
X115250000Y-54500000D01*
%TO.N,+3V3*%
X88750000Y-23510000D02*
X88750000Y-23700000D01*
%TO.N,BAT+*%
D51*
X107000000Y-43135000D02*
X105500000Y-43135000D01*
X105500000Y-43135000D02*
X105500000Y-46135000D01*
X105500000Y-46135000D02*
X105500000Y-47210000D01*
X105500000Y-46135000D02*
X104300000Y-46135000D01*
X105500000Y-47210000D02*
X104300000Y-47210000D01*
X104300000Y-47210000D02*
X104300000Y-46135000D01*
X105500000Y-47210000D02*
X105500000Y-47550000D01*
X105500000Y-47550000D02*
X106600000Y-47550000D01*
X106600000Y-47550000D02*
X107700000Y-47550000D01*
X107700000Y-47550000D02*
X108800000Y-47550000D01*
X108800000Y-47550000D02*
X109900000Y-47550000D01*
X109900000Y-47550000D02*
X109900000Y-49900000D01*
X109900000Y-49900000D02*
X111700000Y-49900000D01*
X80010000Y-46135000D02*
X80900000Y-46135000D01*
X79725000Y-47275000D02*
X80010000Y-47275000D01*
X80010000Y-47275000D02*
X80750000Y-47275000D01*
X80750000Y-47275000D02*
X81775000Y-47275000D01*
X81775000Y-47275000D02*
X82800000Y-47275000D01*
X80010000Y-46135000D02*
X80010000Y-47275000D01*
X80010000Y-47275000D02*
X80010000Y-52900000D01*
D48*
X80010000Y-52900000D02*
X85950000Y-52900000D01*
X85950000Y-52900000D02*
X85950000Y-51900000D01*
%TO.N,BAT_IN*%
X85000000Y-54100000D02*
X79000000Y-54100000D01*
X79000000Y-54100000D02*
X79000000Y-62500000D01*
%TO.N,RPP_GATE*%
D52*
X84050000Y-51900000D02*
X84050000Y-51100000D01*
X84050000Y-51100000D02*
X85400000Y-51100000D01*
X85400000Y-51100000D02*
X85400000Y-49250000D01*
%TO.N,BAT+*%
D51*
X39250000Y-70300000D02*
X39250000Y-68300000D01*
X39250000Y-68300000D02*
X38000000Y-68300000D01*
X38000000Y-68300000D02*
X38000000Y-55000000D01*
D48*
X38000000Y-55000000D02*
X38000000Y-50000000D01*
D51*
X38000000Y-50000000D02*
X38000000Y-46135000D01*
%TO.N,LCD_CS*%
D53*
X80635000Y-40000000D02*
X80635000Y-38115000D01*
X101030000Y-38115000D02*
X101030000Y-33000000D01*
X101030000Y-33000000D02*
X110000000Y-33000000D01*
X110000000Y-33000000D02*
X110000000Y-38115000D01*
X124000000Y-38115000D02*
X124000000Y-5000000D01*
X140800000Y-5000000D02*
X140800000Y-41250000D01*
X140800000Y-41250000D02*
X133712000Y-41250000D01*
%TO.N,LCD_DC*%
X78095000Y-40000000D02*
X78095000Y-36845000D01*
X101600000Y-36845000D02*
X101600000Y-34600000D01*
X101600000Y-34600000D02*
X108270000Y-34600000D01*
X108270000Y-34600000D02*
X108270000Y-36845000D01*
X122900000Y-36845000D02*
X122900000Y-6000000D01*
X140100000Y-6000000D02*
X140100000Y-40750000D01*
X140100000Y-40750000D02*
X133712000Y-40750000D01*
%TO.N,LCD_WR*%
X85715000Y-40000000D02*
X85715000Y-35575000D01*
X102350000Y-35575000D02*
X107650000Y-35575000D01*
X121800000Y-35575000D02*
X121800000Y-7000000D01*
X139400000Y-7000000D02*
X139400000Y-40250000D01*
X139400000Y-40250000D02*
X133712000Y-40250000D01*
%TO.N,LCD_RST*%
X79365000Y-40000000D02*
X79365000Y-34305000D01*
X120700000Y-34305000D02*
X120700000Y-8000000D01*
X138700000Y-8000000D02*
X138700000Y-38250000D01*
X138700000Y-38250000D02*
X133712000Y-38250000D01*
%TO.N,LCD_D0*%
X88750000Y-26050000D02*
X90750000Y-26050000D01*
X119600000Y-26050000D02*
X119600000Y-9000000D01*
X138000000Y-9000000D02*
X138000000Y-37250000D01*
X138000000Y-37250000D02*
X133712000Y-37250000D01*
%TO.N,LCD_D1*%
X88750000Y-27320000D02*
X90750000Y-27320000D01*
X118500000Y-27320000D02*
X118500000Y-10000000D01*
X137300000Y-10000000D02*
X137300000Y-22480000D01*
X137300000Y-25520000D02*
X137300000Y-36750000D01*
X137300000Y-36750000D02*
X133712000Y-36750000D01*
%TO.N,LCD_D2*%
X88750000Y-28590000D02*
X90750000Y-28590000D01*
X117400000Y-28590000D02*
X117400000Y-11000000D01*
X136600000Y-11000000D02*
X136600000Y-22200000D01*
X136600000Y-25800000D02*
X136600000Y-36250000D01*
X136600000Y-36250000D02*
X133712000Y-36250000D01*
%TO.N,LCD_D3*%
X88750000Y-29860000D02*
X90750000Y-29860000D01*
X116300000Y-29860000D02*
X116300000Y-12000000D01*
X135900000Y-12000000D02*
X135900000Y-22480000D01*
X135900000Y-25520000D02*
X135900000Y-35750000D01*
X135900000Y-35750000D02*
X133712000Y-35750000D01*
%TO.N,LCD_D4*%
X88750000Y-36210000D02*
X90750000Y-36210000D01*
X99500000Y-36210000D02*
X99500000Y-32300000D01*
X99500000Y-32300000D02*
X111800000Y-32300000D01*
X111800000Y-32300000D02*
X111800000Y-36210000D01*
X115200000Y-36210000D02*
X115200000Y-13000000D01*
X135200000Y-13000000D02*
X135200000Y-22200000D01*
X135200000Y-25800000D02*
X135200000Y-35250000D01*
X135200000Y-35250000D02*
X133712000Y-35250000D01*
%TO.N,LCD_D5*%
X84445000Y-40000000D02*
X84445000Y-33035000D01*
X114100000Y-33035000D02*
X114100000Y-14000000D01*
X134500000Y-14000000D02*
X134500000Y-34750000D01*
X134500000Y-34750000D02*
X133712000Y-34750000D01*
%TO.N,LCD_D6*%
X83175000Y-40000000D02*
X83175000Y-32360000D01*
X113000000Y-21500000D02*
X113000000Y-15000000D01*
X131000000Y-15000000D02*
X131000000Y-34250000D01*
X131000000Y-34250000D02*
X133712000Y-34250000D01*
%TO.N,LCD_D7*%
X81905000Y-40000000D02*
X81905000Y-32360000D01*
X111900000Y-20500000D02*
X111900000Y-16000000D01*
X131700000Y-16000000D02*
X131700000Y-33750000D01*
X131700000Y-33750000D02*
X133712000Y-33750000D01*
%TO.N,GND*%
D49*
X133712000Y-25750000D02*
X133600000Y-25750000D01*
X133600000Y-25750000D02*
X133600000Y-25500000D01*
D52*
X133712000Y-27250000D02*
X133600000Y-27250000D01*
X133600000Y-27250000D02*
X133600000Y-27400000D01*
X133712000Y-27750000D02*
X133712000Y-27250000D01*
X133712000Y-28250000D02*
X133600000Y-28250000D01*
X133712000Y-28750000D02*
X133712000Y-28250000D01*
X133712000Y-27750000D02*
X133712000Y-28250000D01*
D49*
X133712000Y-43250000D02*
X132600000Y-43250000D01*
D50*
X132600000Y-43250000D02*
X132600000Y-43750000D01*
X143500000Y-43750000D02*
X143500000Y-50250000D01*
D52*
X133712000Y-37750000D02*
X131000000Y-37750000D01*
%TO.N,+3V3*%
X133712000Y-26250000D02*
X133600000Y-26250000D01*
X133600000Y-26250000D02*
X133600000Y-26400000D01*
X133712000Y-26750000D02*
X133712000Y-26250000D01*
X133712000Y-39750000D02*
X131000000Y-39750000D01*
X133712000Y-39250000D02*
X133712000Y-39750000D01*
%TO.N,LED_BLA*%
X133712000Y-29250000D02*
X132500000Y-29250000D01*
D49*
X121700000Y-44000000D02*
X121700000Y-41300000D01*
X121700000Y-41300000D02*
X124750000Y-41300000D01*
X124750000Y-41300000D02*
X124750000Y-22300000D01*
%TO.N,+5V*%
X121700000Y-47000000D02*
X121700000Y-48500000D01*
%TO.N,+3V3*%
D52*
X133712000Y-42750000D02*
X133712000Y-42250000D01*
D49*
X133712000Y-42250000D02*
X132000000Y-42250000D01*
X132000000Y-42250000D02*
X132000000Y-52000000D01*
%TO.N,SD_MOSI*%
D53*
X71250000Y-27320000D02*
X72200000Y-27320000D01*
X75000000Y-27320000D02*
X75000000Y-1500000D01*
X141500000Y-1500000D02*
X141500000Y-60000000D01*
X141500000Y-60000000D02*
X139410000Y-60000000D01*
X139410000Y-60000000D02*
X139410000Y-63500000D01*
X139410000Y-63500000D02*
X141500000Y-63500000D01*
X141500000Y-63500000D02*
X141500000Y-66000000D01*
X139960000Y-66000000D02*
X139960000Y-61724000D01*
%TO.N,SD_MISO*%
X71250000Y-26050000D02*
X72200000Y-26050000D01*
X76000000Y-26050000D02*
X76000000Y-2200000D01*
X145600000Y-2200000D02*
X145600000Y-67500000D01*
X144360000Y-67500000D02*
X144360000Y-61724000D01*
%TO.N,SD_CLK*%
X71250000Y-33670000D02*
X72200000Y-33670000D01*
X77000000Y-33670000D02*
X77000000Y-2900000D01*
X152500000Y-2900000D02*
X152500000Y-70500000D01*
X142160000Y-70500000D02*
X142160000Y-61724000D01*
%TO.N,SD_CS*%
X71250000Y-32400000D02*
X72200000Y-32400000D01*
X78000000Y-32400000D02*
X78000000Y-3600000D01*
X153500000Y-3600000D02*
X153500000Y-71250000D01*
X138860000Y-71250000D02*
X138860000Y-61724000D01*
%TO.N,I2S_DOUT*%
X88750000Y-33670000D02*
X87700000Y-33670000D01*
X87700000Y-33670000D02*
X87700000Y-18000000D01*
X33175000Y-18000000D02*
X33175000Y-19050000D01*
%TO.N,PAM_IN_AC*%
X33175000Y-20950000D02*
X33175000Y-26800000D01*
X33175000Y-32200000D02*
X33175000Y-28000000D01*
X33175000Y-28000000D02*
X33175000Y-26800000D01*
%TO.N,SPK+*%
D49*
X25555000Y-32200000D02*
X24500000Y-32200000D01*
X24500000Y-32200000D02*
X24500000Y-21500000D01*
X40000000Y-21500000D02*
X40000000Y-52500000D01*
X40000000Y-52500000D02*
X39500000Y-52500000D01*
%TO.N,SPK-*%
X28095000Y-32200000D02*
X28095000Y-28100000D01*
X28095000Y-25500000D02*
X28095000Y-23700000D01*
X20500000Y-23700000D02*
X20500000Y-52500000D01*
%TO.N,+5V*%
D48*
X31905000Y-26800000D02*
X30635000Y-26800000D01*
X30635000Y-26800000D02*
X29365000Y-26800000D01*
X31905000Y-26800000D02*
X31905000Y-28800000D01*
X30635000Y-32200000D02*
X29365000Y-32200000D01*
X29365000Y-32200000D02*
X29365000Y-28700000D01*
X29365000Y-26800000D02*
X29365000Y-28700000D01*
%TO.N,GND*%
X26825000Y-26800000D02*
X26825000Y-24800000D01*
X26825000Y-32200000D02*
X26825000Y-34300000D01*
X31905000Y-32200000D02*
X31905000Y-34300000D01*
D49*
X26500000Y-27000000D02*
X26500000Y-29500000D01*
X26500000Y-29500000D02*
X26500000Y-32000000D01*
%TO.N,PAM_IN_AC*%
D53*
X33175000Y-28000000D02*
X37050000Y-28000000D01*
X37050000Y-28000000D02*
X37050000Y-26500000D01*
%TO.N,PAM_VREF*%
X34445000Y-26150000D02*
X34445000Y-23500000D01*
X34445000Y-23500000D02*
X37050000Y-23500000D01*
%TO.N,GND*%
D49*
X38950000Y-23500000D02*
X38850000Y-24500000D01*
%TO.N,PAM_VREF*%
D53*
X37050000Y-23500000D02*
X37050000Y-25200000D01*
X37050000Y-25200000D02*
X38950000Y-25200000D01*
X38950000Y-25200000D02*
X38950000Y-26500000D01*
X38950000Y-26500000D02*
X38950000Y-32500000D01*
%TO.N,+5V*%
D48*
X31905000Y-26800000D02*
X31905000Y-25800000D01*
D54*
X38000000Y-25800000D02*
X38000000Y-28550000D01*
%TO.N,GND*%
D49*
X38000000Y-30450000D02*
X38000000Y-30950000D01*
%TO.N,+5V*%
D48*
X29365000Y-26800000D02*
X29365000Y-22950000D01*
%TO.N,GND*%
D49*
X29365000Y-21050000D02*
X29365000Y-20550000D01*
%TO.N,+5V*%
D48*
X29365000Y-32200000D02*
X29365000Y-36550000D01*
X29365000Y-36550000D02*
X31500000Y-36550000D01*
%TO.N,GND*%
D49*
X31500000Y-38450000D02*
X31500000Y-38950000D01*
%TO.N,USB_D+*%
D53*
X80250000Y-68775000D02*
X80250000Y-65875000D01*
X80250000Y-65875000D02*
X80600000Y-65875000D01*
X90250000Y-65875000D02*
X90250000Y-40480000D01*
%TO.N,USB_DP_MCU*%
X90250000Y-39520000D02*
X90250000Y-38750000D01*
X90250000Y-38750000D02*
X88750000Y-38750000D01*
%TO.N,USB_D-*%
X79750000Y-68775000D02*
X79750000Y-64525000D01*
X91650000Y-62800000D02*
X91650000Y-53000000D01*
X91650000Y-53000000D02*
X91100000Y-53000000D01*
X91100000Y-53000000D02*
X91100000Y-43500000D01*
X91100000Y-43500000D02*
X91650000Y-43500000D01*
X91650000Y-43500000D02*
X91650000Y-43000000D01*
X91650000Y-43000000D02*
X91850000Y-43000000D01*
X91850000Y-43000000D02*
X91850000Y-41000000D01*
X91850000Y-41000000D02*
X91650000Y-41000000D01*
X91650000Y-41000000D02*
X91650000Y-38980000D01*
%TO.N,USB_DM_MCU*%
X91650000Y-38020000D02*
X91650000Y-37480000D01*
X91650000Y-37480000D02*
X88750000Y-37480000D01*
%TO.N,GND*%
D52*
X90950000Y-61100000D02*
X90950000Y-61900000D01*
%TO.N,VBUS*%
D48*
X90950000Y-58900000D02*
X90950000Y-59300000D01*
%TO.N,USB_CC1*%
D52*
X81250000Y-68775000D02*
X81250000Y-67400000D01*
X74950000Y-67400000D02*
X74950000Y-67000000D01*
%TO.N,USB_CC2*%
X78250000Y-68775000D02*
X78250000Y-67000000D01*
X78250000Y-67000000D02*
X78950000Y-67000000D01*
%TO.N,GND*%
D49*
X73050000Y-67000000D02*
X73050000Y-65500000D01*
X77050000Y-67000000D02*
X77050000Y-63800000D01*
D48*
X83200000Y-68775000D02*
X84325000Y-68775000D01*
X84325000Y-68775000D02*
X84325000Y-69325000D01*
%TO.N,VBUS_IN*%
D55*
X77600000Y-68775000D02*
X77537000Y-68999000D01*
X82400000Y-68775000D02*
X82463000Y-68999000D01*
X77537000Y-68999000D02*
X78188000Y-70239000D01*
D51*
X78188000Y-70239000D02*
X78188000Y-72100000D01*
X78188000Y-72100000D02*
X81812000Y-72100000D01*
X81812000Y-72100000D02*
X81812000Y-70239000D01*
D55*
X81812000Y-70239000D02*
X82463000Y-68999000D01*
%TO.N,USB_D-*%
D56*
X79750000Y-68775000D02*
X79750000Y-70000000D01*
X80750000Y-70000000D02*
X80750000Y-68775000D01*
%TO.N,USB_D+*%
X79250000Y-68775000D02*
X79250000Y-71400000D01*
X79250000Y-71400000D02*
X80250000Y-71400000D01*
X80250000Y-71400000D02*
X80250000Y-68775000D01*
%TO.N,BTN_UP*%
D52*
X22200000Y-21650000D02*
X22200000Y-62000000D01*
X67830000Y-31130000D02*
X67830000Y-40800000D01*
D57*
X67830000Y-40800000D02*
X67830000Y-43200000D01*
D52*
X67830000Y-43200000D02*
X67830000Y-62000000D01*
X69250000Y-31130000D02*
X71250000Y-31130000D01*
%TO.N,BTN_DOWN*%
X22950000Y-39650000D02*
X22950000Y-63200000D01*
X65550000Y-63200000D02*
X65550000Y-29860000D01*
X69250000Y-29860000D02*
X71250000Y-29860000D01*
%TO.N,BTN_LEFT*%
X13200000Y-30650000D02*
X13200000Y-64400000D01*
X63100000Y-64400000D02*
X63100000Y-28590000D01*
X69250000Y-28590000D02*
X71250000Y-28590000D01*
%TO.N,BTN_RIGHT*%
X35200000Y-30650000D02*
X35200000Y-65600000D01*
X58100000Y-65600000D02*
X58100000Y-24780000D01*
X69250000Y-24780000D02*
X71250000Y-24780000D01*
%TO.N,BTN_A*%
X130420000Y-20650000D02*
X130420000Y-66800000D01*
X53100000Y-66800000D02*
X53100000Y-23510000D01*
X69250000Y-23510000D02*
X71250000Y-23510000D01*
%TO.N,BTN_B*%
X142800000Y-30650000D02*
X142800000Y-60000000D01*
D53*
X142800000Y-60000000D02*
X142710000Y-60000000D01*
X142710000Y-60000000D02*
X142710000Y-63500000D01*
X142710000Y-63500000D02*
X142800000Y-63500000D01*
D52*
X142800000Y-63500000D02*
X142800000Y-68000000D01*
X45550000Y-68000000D02*
X45550000Y-41500000D01*
X73250000Y-41500000D02*
X74285000Y-41500000D01*
X74285000Y-41500000D02*
X74285000Y-40000000D01*
%TO.N,BTN_X*%
X129830000Y-40650000D02*
X129830000Y-70810000D01*
X34300000Y-70810000D02*
X34300000Y-42700000D01*
X73555000Y-42700000D02*
X75555000Y-42700000D01*
X75555000Y-42700000D02*
X75555000Y-40000000D01*
%TO.N,BTN_Y*%
X129240000Y-30650000D02*
X129240000Y-71560000D01*
X27450000Y-71560000D02*
X27450000Y-43900000D01*
X74825000Y-43900000D02*
X76825000Y-43900000D01*
X76825000Y-43900000D02*
X76825000Y-40000000D01*
%TO.N,BTN_START*%
X12200000Y-52650000D02*
X12200000Y-73955000D01*
X100450000Y-73955000D02*
X100450000Y-55400000D01*
X100450000Y-55400000D02*
X100450000Y-34940000D01*
X90750000Y-34940000D02*
X88750000Y-34940000D01*
%TO.N,BTN_SELECT*%
X35950000Y-52650000D02*
X35950000Y-74460000D01*
X60450000Y-74460000D02*
X60450000Y-45100000D01*
D57*
X73030000Y-45100000D02*
X71250000Y-45100000D01*
X71250000Y-45100000D02*
X71250000Y-38750000D01*
%TO.N,BTN_L*%
D52*
X16850000Y-2500000D02*
X16850000Y-7500000D01*
X16850000Y-9500000D02*
X16850000Y-73420000D01*
D53*
X64750000Y-73420000D02*
X64750000Y-40000000D01*
%TO.N,GND*%
D49*
X13150000Y-8500000D02*
X14650000Y-8500000D01*
%TO.N,BTN_R*%
D52*
X146850000Y-2500000D02*
X146850000Y-7500000D01*
X146850000Y-9500000D02*
X146850000Y-60000000D01*
X146850000Y-60000000D02*
X149600000Y-60000000D01*
X149600000Y-60000000D02*
X149600000Y-64500000D01*
X149600000Y-64500000D02*
X146850000Y-64500000D01*
X146850000Y-64500000D02*
X146850000Y-65290000D01*
D53*
X76200000Y-65290000D02*
X76200000Y-58850000D01*
X76200000Y-58850000D02*
X75200000Y-58850000D01*
X75200000Y-58850000D02*
X75200000Y-54450000D01*
X75200000Y-54450000D02*
X76200000Y-54450000D01*
X76200000Y-54450000D02*
X76200000Y-48000000D01*
X87985000Y-48000000D02*
X87985000Y-40000000D01*
X87985000Y-40000000D02*
X86985000Y-40000000D01*
%TO.N,GND*%
D49*
X143150000Y-8500000D02*
X144650000Y-8500000D01*
%TO.N,+3V3*%
D52*
X42050000Y-46000000D02*
X41800000Y-46000000D01*
X41800000Y-46000000D02*
X41800000Y-44500000D01*
X47050000Y-46000000D02*
X46800000Y-46000000D01*
X46800000Y-46000000D02*
X46800000Y-44500000D01*
X52050000Y-46000000D02*
X51800000Y-46000000D01*
X51800000Y-46000000D02*
X51800000Y-44500000D01*
X57050000Y-46000000D02*
X56800000Y-46000000D01*
X56800000Y-46000000D02*
X56800000Y-44500000D01*
X62050000Y-46000000D02*
X61800000Y-46000000D01*
X61800000Y-46000000D02*
X61800000Y-44500000D01*
X67050000Y-46000000D02*
X66800000Y-46000000D01*
X66800000Y-46000000D02*
X66800000Y-44500000D01*
X72050000Y-46000000D02*
X71800000Y-46000000D01*
X71800000Y-46000000D02*
X71800000Y-47500000D01*
X77050000Y-46000000D02*
X76950000Y-46000000D01*
X76950000Y-46000000D02*
X76950000Y-44500000D01*
X82050000Y-46000000D02*
X81800000Y-46000000D01*
X81800000Y-46000000D02*
X81800000Y-44500000D01*
X87050000Y-46000000D02*
X86800000Y-46000000D01*
X86800000Y-46000000D02*
X86800000Y-44500000D01*
X97050000Y-46000000D02*
X96800000Y-46000000D01*
X96800000Y-46000000D02*
X96800000Y-44500000D01*
%TO.N,GND*%
D53*
X42050000Y-50000000D02*
X41800000Y-50000000D01*
X41800000Y-50000000D02*
X41800000Y-52000000D01*
X47050000Y-50000000D02*
X46800000Y-50000000D01*
X46800000Y-50000000D02*
X46800000Y-52000000D01*
X52050000Y-50000000D02*
X51800000Y-50000000D01*
X51800000Y-50000000D02*
X51800000Y-52000000D01*
X57050000Y-50000000D02*
X56800000Y-50000000D01*
X56800000Y-50000000D02*
X56800000Y-52000000D01*
X62050000Y-50000000D02*
X61800000Y-50000000D01*
X61800000Y-50000000D02*
X61800000Y-52000000D01*
X67050000Y-50000000D02*
X66800000Y-50000000D01*
X66800000Y-50000000D02*
X66800000Y-52000000D01*
X72050000Y-50000000D02*
X71800000Y-50000000D01*
X71800000Y-50000000D02*
X71800000Y-52000000D01*
X77050000Y-50000000D02*
X76950000Y-50000000D01*
X76950000Y-50000000D02*
X76950000Y-52000000D01*
X82050000Y-50000000D02*
X82200000Y-50000000D01*
X82200000Y-50000000D02*
X82200000Y-51500000D01*
X87050000Y-50000000D02*
X86800000Y-50000000D01*
X86800000Y-50000000D02*
X86800000Y-52000000D01*
X92050000Y-50000000D02*
X92200000Y-50000000D01*
X92200000Y-50000000D02*
X92200000Y-52000000D01*
X97050000Y-50000000D02*
X96800000Y-50000000D01*
X96800000Y-50000000D02*
X96800000Y-52000000D01*
%TO.N,BTN_UP*%
D52*
X43950000Y-46000000D02*
X43950000Y-50000000D01*
%TO.N,BTN_DOWN*%
X48950000Y-46000000D02*
X48950000Y-50000000D01*
%TO.N,BTN_LEFT*%
X53950000Y-46000000D02*
X53950000Y-50000000D01*
%TO.N,BTN_RIGHT*%
X58950000Y-46000000D02*
X58950000Y-50000000D01*
%TO.N,BTN_A*%
X63950000Y-46000000D02*
X63950000Y-50000000D01*
%TO.N,BTN_B*%
X68950000Y-46000000D02*
X68950000Y-50000000D01*
%TO.N,BTN_X*%
X73950000Y-46000000D02*
X73950000Y-50000000D01*
%TO.N,BTN_Y*%
X78950000Y-46000000D02*
X78950000Y-50000000D01*
%TO.N,BTN_START*%
X83950000Y-46000000D02*
X83950000Y-50000000D01*
%TO.N,BTN_SELECT*%
X88950000Y-46000000D02*
X88950000Y-50000000D01*
%TO.N,BTN_L*%
X93950000Y-46000000D02*
X93950000Y-50000000D01*
%TO.N,BTN_R*%
X98950000Y-46000000D02*
X98950000Y-50000000D01*
%TO.N,+3V3*%
D49*
X70500000Y-42000000D02*
X70500000Y-44500000D01*
%TO.N,GND*%
X68600000Y-42000000D02*
X68600000Y-40000000D01*
%TO.N,+3V3*%
X92950000Y-42000000D02*
X92950000Y-40600000D01*
%TO.N,GND*%
X91050000Y-42000000D02*
X91050000Y-40000000D01*
%TO.N,+3V3*%
X91500000Y-20050000D02*
X91500000Y-18550000D01*
%TO.N,GND*%
X91500000Y-21950000D02*
X91500000Y-23450000D01*
%TO.N,+3V3*%
X94000000Y-21350000D02*
X94000000Y-19600000D01*
%TO.N,EN*%
D52*
X94000000Y-23250000D02*
X94000000Y-24780000D01*
%TO.N,GND*%
D49*
X96200000Y-21350000D02*
X96200000Y-19600000D01*
%TO.N,EN*%
D52*
X96200000Y-23250000D02*
X96200000Y-24780000D01*
%TO.N,+3V3*%
D49*
X86000000Y-25050000D02*
X86000000Y-23550000D01*
%TO.N,GND*%
X86000000Y-26950000D02*
X86000000Y-28450000D01*
%TO.N,VBUS*%
D58*
X110950000Y-35000000D02*
X110950000Y-40095000D01*
X110950000Y-40095000D02*
X111000000Y-40095000D01*
%TO.N,GND*%
D49*
X109050000Y-35000000D02*
X109050000Y-37700000D01*
%TO.N,BAT+*%
D51*
X116950000Y-49000000D02*
X116950000Y-46100000D01*
%TO.N,GND*%
D49*
X115050000Y-49000000D02*
X115050000Y-51000000D01*
%TO.N,+5V*%
D48*
X111500000Y-58500000D02*
X113000000Y-58500000D01*
X113000000Y-58500000D02*
X113000000Y-56500000D01*
%TO.N,GND*%
X108500000Y-58500000D02*
X108500000Y-59500000D01*
%TO.N,+5V*%
X107050000Y-39000000D02*
X107500000Y-39000000D01*
X107500000Y-39000000D02*
X107500000Y-39090000D01*
%TO.N,GND*%
D49*
X108950000Y-39000000D02*
X108950000Y-40500000D01*
%TO.N,+3V3*%
X24050000Y-63800000D02*
X24050000Y-65000000D01*
%TO.N,LED1_RA*%
D52*
X25950000Y-65000000D02*
X25950000Y-66250000D01*
%TO.N,+3V3*%
D49*
X31050000Y-63800000D02*
X31050000Y-65000000D01*
%TO.N,LED2_RA*%
D52*
X32950000Y-65000000D02*
X32950000Y-66250000D01*
%TO.N,LED_HB*%
X88750000Y-31130000D02*
X97000000Y-31130000D01*
%TO.N,GND*%
D49*
X98000000Y-67350000D02*
X98000000Y-69350000D01*
X92000000Y-67350000D02*
X92000000Y-69350000D01*
%TO.N,EN*%
D52*
X98000000Y-63650000D02*
X98000000Y-24780000D01*
X98000000Y-24780000D02*
X96200000Y-24780000D01*
X96200000Y-24780000D02*
X94000000Y-24780000D01*
X94000000Y-24780000D02*
X88750000Y-24780000D01*
%TO.N,GND*%
D49*
X108000000Y-67350000D02*
X108000000Y-69350000D01*
X102000000Y-67350000D02*
X102000000Y-69350000D01*
%TO.N,BTN_SELECT*%
D52*
X102000000Y-63650000D02*
X102000000Y-60000000D01*
%TO.N,BTN_START*%
X100275000Y-55400000D02*
X100450000Y-55400000D01*
%TO.N,BTN_SELECT*%
X102175000Y-55400000D02*
X102000000Y-55400000D01*
X102000000Y-55400000D02*
X102000000Y-60000000D01*
%TO.N,MENU_K*%
X101225000Y-57600000D02*
X101225000Y-62400000D01*
%TO.N,BTN_B*%
X68950000Y-46000000D02*
X69550000Y-46000000D01*
X69550000Y-46000000D02*
X69550000Y-41500000D01*
%TO.N,BTN_X*%
X73950000Y-46000000D02*
X73555000Y-46000000D01*
X73555000Y-46000000D02*
X73555000Y-42700000D01*
%TO.N,BTN_Y*%
X78950000Y-46000000D02*
X78950000Y-43000000D01*
%TO.N,BTN_START*%
X83950000Y-46000000D02*
X83950000Y-43000000D01*
%TO.N,BTN_A*%
X63950000Y-50000000D02*
X63950000Y-55000000D01*
%TO.N,BTN_LEFT*%
X53950000Y-50000000D02*
X53950000Y-55500000D01*
%TO.N,BTN_DOWN*%
X48950000Y-50000000D02*
X48950000Y-56000000D01*
%TO.N,BTN_RIGHT*%
X58950000Y-50000000D02*
X58950000Y-56500000D01*
%TO.N,BTN_UP*%
X43950000Y-50000000D02*
X43950000Y-57000000D01*
%TO.N,BTN_SELECT*%
X88950000Y-50000000D02*
X88950000Y-58000000D01*
%TO.N,BTN_L*%
X93950000Y-50000000D02*
X93950000Y-57500000D01*
%TD*%
M02*
