#VRML V2.0 utf8
# 3D model generated by easyeda2kicad.py (https://github.com/uPesy/easyeda2kicad.py)

Shape{
    appearance Appearance {
        material  Material 	{
            diffuseColor 0.7529411764705882 0.7529411764705882 0.7529411764705882
            specularColor 0.3764705882352941 0.3764705882352941 0.3764705882352941
            ambientIntensity 0.7529
            transparency 0.0
            shininess 0.5
        }
    }
    geometry IndexedFaceSet {
        ccw TRUE
        solid FALSE
        coord DEF co Coordinate {
            point [
                0.5787 -0.0787 0.3445, 0.5787 -0.1969 0.3445, 0.5709 -0.0787 0.3445, 0.5709 -0.1969 0.3445, 0.6299 -0.1969 0.3563, 0.6299 -0.0787 0.3563, 0.6269 -0.0787 0.3714, 0.6269 -0.1969 0.3714, 0.6184 -0.0787 0.3841, 0.6184 -0.1969 0.3841, 0.6056 -0.0787 0.3927, 0.6056 -0.1969 0.3927, 0.5906 -0.0787 0.3957, 0.5906 -0.1969 0.3957
            ]
        }
        coordIndex [
            0,1,2,-1,2,1,3,-1,4,5,6,-1,4,6,7,-1,7,6,8,-1,7,8,9,-1,9,8,10,-1,9,10,11,-1,11,10,12,-1,11,12,13,-1,
        ]
    }
}
Shape{
    appearance Appearance {
        material  Material 	{
            diffuseColor 1.0 1.0 0.0
            specularColor 0.5019607843137255 0.5019607843137255 0.0
            ambientIntensity 0.886
            transparency 0.0
            shininess 0.5
        }
    }
    geometry IndexedFaceSet {
        ccw TRUE
        solid FALSE
        coord DEF co Coordinate {
            point [
                0.4651 -0.2956 0.6299, 0.4651 0.2956 0.6299, 0.4069 -0.2956 0.6299, 0.4069 0.2956 0.6299
            ]
        }
        coordIndex [
            0,1,2,-1,2,1,3,-1,
        ]
    }
}
Shape{
    appearance Appearance {
        material  Material 	{
            diffuseColor 0.7529411764705882 0.7529411764705882 0.7529411764705882
            specularColor 0.3764705882352941 0.3764705882352941 0.3764705882352941
            ambientIntensity 0.7529
            transparency 0.0
            shininess 0.5
        }
    }
    geometry IndexedFaceSet {
        ccw TRUE
        solid FALSE
        coord DEF co Coordinate {
            point [
                0.0006 -0.2559 0.0, -0.2559 -0.2559 0.0, -0.2559 -0.0042 0.0, 0.1843 0.0756 0.0, 0.1843 0.0049 0.0, 0.154 0.0049 0.0, 0.0076 0.0675 0.0, 0.045 0.0675 0.0, 0.045 0.0433 0.0, 0.1449 0.0367 0.0, 0.1399 0.0568 0.0, 0.2559 0.2559 0.0, 0.0076 0.0433 0.0, 0.0076 0.0352 0.0, 0.0006 -0.0042 0.0, 0.0076 0.0756 0.0, 0.0006 0.2559 0.0, 0.0521 0.0756 0.0, 0.1914 -0.0031 0.0, 0.1081 -0.0042 0.0, 0.154 -0.0031 0.0, 0.1203 -0.002 0.0, 0.0833 0.0736 0.0, 0.0753 0.0686 0.0, 0.1425 0.0217 0.0, 0.0707 0.0642 0.0, 0.0682 0.0611 0.0, 0.045 0.0352 0.0, 0.045 0.0049 0.0, 0.0076 0.0049 0.0, 0.0076 -0.0031 0.0, 0.0521 -0.0031 0.0, 0.0682 0.0113 0.0, 0.0833 -0.0011 0.0, 0.1264 0.071 0.0, 0.106 0.0775 0.0, 0.1026 0.0776 0.0, 0.1205 0.0652 0.0, 0.1327 0.0542 0.0, 0.103 0.0695 0.0, 0.1377 0.0393 0.0, 0.1379 0.0361 0.0, 0.1338 0.0199 0.0, 0.1229 0.0085 0.0, 0.1075 0.0032 0.0, 0.0923 -0.0041 0.0, 0.0925 -0.0042 0.0, 0.128 0.0022 0.0, 0.1325 0.0059 0.0, 0.1349 0.0086 0.0, 0.0744 0.016 0.0, 0.0744 0.0564 0.0, 0.087 0.0062 0.0, 0.0872 0.0663 0.0, 0.1025 0.0029 0.0, 0.0946 0.0687 0.0, 0.0997 0.0694 0.0, 0.0985 -0.005 0.0, 0.1025 -0.0052 0.0, 0.2559 -0.2559 0.0, 0.2559 -0.0042 0.0, 0.1914 0.0756 0.0, -0.1482 -0.0031 0.0, -0.0812 -0.0031 0.0, -0.0553 0.0024 0.0, -0.0394 -0.0027 0.0, -0.0474 0.0728 0.0, -0.0616 0.0632 0.0, -0.1185 0.0756 0.0, -0.0309 -0.0031 0.0, -0.0889 -0.0031 0.0, -0.1009 0.0221 0.0, -0.1366 0.0221 0.0, -0.035 0.0751 0.0, -0.2559 0.2559 0.0, -0.1196 0.0756 0.0, -0.1559 -0.0031 0.0, -0.0696 0.0476 0.0, -0.0711 0.0352 0.0, -0.0667 0.0154 0.0, -0.0065 -0.0031 0.0, -0.0065 0.0756 0.0, -0.0224 0.0756 0.0
            ]
        }
        coordIndex [
            0,1,2,-1,3,4,5,-1,6,7,8,-1,9,10,11,-1,12,13,14,-1,8,12,6,-1,6,12,14,-1,6,14,15,-1,15,14,16,-1,15,16,17,-1,18,19,20,-1,20,19,21,-1,16,22,23,-1,24,9,5,-1,5,9,11,-1,5,11,3,-1,23,25,16,-1,16,25,26,-1,16,26,17,-1,27,28,13,-1,13,28,29,-1,13,29,14,-1,14,29,30,-1,14,30,31,-1,31,32,33,-1,10,34,11,-1,11,34,35,-1,11,35,16,-1,16,35,36,-1,16,36,22,-1,37,38,39,-1,39,38,40,-1,39,40,41,-1,41,42,39,-1,39,42,43,-1,39,43,44,-1,33,45,31,-1,31,45,46,-1,31,46,14,-1,21,47,20,-1,20,47,48,-1,20,48,5,-1,5,48,49,-1,5,49,24,-1,31,17,32,-1,32,17,26,-1,32,26,50,-1,50,26,51,-1,50,51,52,-1,52,51,53,-1,52,53,54,-1,54,53,55,-1,54,55,44,-1,44,55,56,-1,44,56,39,-1,46,57,0,-1,0,57,58,-1,0,58,59,-1,59,58,19,-1,59,19,60,-1,60,19,18,-1,60,18,11,-1,11,18,61,-1,11,61,3,-1,46,0,14,-1,14,0,2,-1,14,2,62,-1,63,64,65,-1,66,67,68,-1,65,69,63,-1,63,69,14,-1,63,14,70,-1,70,14,62,-1,70,62,71,-1,71,62,72,-1,73,66,16,-1,16,66,68,-1,16,68,74,-1,74,68,75,-1,74,75,2,-1,2,75,76,-1,2,76,62,-1,67,77,68,-1,68,77,78,-1,68,78,63,-1,63,78,79,-1,63,79,64,-1,69,80,14,-1,14,80,81,-1,14,81,16,-1,16,81,82,-1,16,82,73,-1,
        ]
    }
}
Shape{
    appearance Appearance {
        material  Material 	{
            diffuseColor 1.0 1.0 0.0
            specularColor 0.5019607843137255 0.5019607843137255 0.0
            ambientIntensity 0.886
            transparency 0.0
            shininess 0.5
        }
    }
    geometry IndexedFaceSet {
        ccw TRUE
        solid FALSE
        coord DEF co Coordinate {
            point [
                -0.5342 0.296 0.0591, 0.5342 0.296 0.0591, -0.2559 0.2559 0.0591, 0.2559 0.2559 0.0591, -0.5342 -0.296 0.0591, -0.2559 -0.2559 0.0591, 0.2559 -0.2559 0.0591, 0.5342 -0.296 0.0591, -0.5709 -0.1969 0.3445, -0.5709 -0.315 0.3445, -0.5643 -0.1969 0.3957, -0.5342 -0.2956 0.6299, -0.5643 0.1969 0.3957, -0.5342 0.2956 0.6299, -0.5709 0.1969 0.3445, -0.5709 0.315 0.3445, 0.5709 0.1969 0.3445, 0.5709 0.315 0.3445, 0.5643 0.1969 0.3957, 0.5421 0.2998 0.5685, 0.5643 -0.1969 0.3957, 0.5421 -0.2998 0.5685, 0.5709 -0.1969 0.3445, 0.5709 -0.315 0.3445, 0.3345 0.2956 0.6299, 0.3345 -0.2956 0.6299, 0.5709 0.0787 0.3445, 0.5774 0.0787 0.3957, 0.5774 -0.0787 0.3957, 0.5709 -0.0787 0.3445, 0.4651 0.2956 0.6299, 0.4069 0.2956 0.6299, 0.4651 -0.2956 0.6299, 0.4069 -0.2956 0.6299
            ]
        }
        coordIndex [
            0,1,2,-1,2,1,3,-1,0,2,4,-1,4,2,5,-1,4,5,6,-1,3,1,6,-1,6,1,7,-1,6,7,4,-1,8,9,10,-1,10,9,11,-1,10,11,12,-1,12,11,13,-1,12,13,14,-1,14,13,15,-1,16,17,18,-1,18,17,19,-1,18,19,20,-1,20,19,21,-1,20,21,22,-1,22,21,23,-1,13,11,24,-1,24,11,25,-1,26,27,28,-1,1,29,7,-1,7,29,22,-1,7,22,23,-1,28,29,26,-1,26,29,1,-1,26,1,16,-1,16,1,17,-1,15,0,14,-1,14,0,4,-1,14,4,8,-1,8,4,9,-1,17,15,13,-1,30,19,31,-1,31,19,17,-1,31,17,24,-1,24,17,13,-1,4,7,9,-1,9,7,23,-1,23,21,32,-1,11,9,25,-1,25,9,23,-1,25,23,33,-1,33,23,32,-1,0,15,1,-1,1,15,17,-1,
        ]
    }
}
Shape{
    appearance Appearance {
        material  Material 	{
            diffuseColor 0.7529411764705882 0.7529411764705882 0.7529411764705882
            specularColor 0.3764705882352941 0.3764705882352941 0.3764705882352941
            ambientIntensity 0.7529
            transparency 0.0
            shininess 0.5
        }
    }
    geometry IndexedFaceSet {
        ccw TRUE
        solid FALSE
        coord DEF co Coordinate {
            point [
                0.5709 0.0787 0.3445, 0.5709 0.1969 0.3445, 0.5787 0.0787 0.3445, 0.5787 0.1969 0.3445, 0.5787 0.0787 0.3007, 0.5787 0.1969 0.0906, 0.5787 -0.0787 0.3007, 0.5787 -0.1969 0.0906, 0.5787 -0.0787 0.3445, 0.5787 -0.1969 0.3445, 0.5757 -0.1969 0.0755, 0.5757 0.1969 0.0755, 0.5672 -0.1969 0.0627, 0.5672 0.1969 0.0627, 0.5544 -0.1969 0.0542, 0.5544 0.1969 0.0542, 0.5394 -0.1969 0.0512, 0.5394 0.1969 0.0512, 0.315 -0.1969 0.0512, 0.315 0.1969 0.0512, 0.315 -0.1969 0.0, 0.315 0.1969 0.0, 0.5906 -0.1969 0.0, 0.5906 0.1969 0.0, 0.6056 0.1969 0.003, 0.6056 -0.1969 0.003, 0.6184 0.1969 0.0115, 0.6184 -0.1969 0.0115, 0.6269 0.1969 0.0243, 0.6269 -0.1969 0.0243, 0.6299 0.1969 0.0394, 0.6299 -0.1969 0.0394, 0.6299 -0.0787 0.3563, 0.6299 -0.1969 0.3563, 0.6299 -0.0787 0.3007, 0.6299 0.0787 0.3007, 0.6299 0.0787 0.3563, 0.6299 0.1969 0.3563, 0.6269 0.1969 0.3714, 0.6269 0.0787 0.3714, 0.6184 0.1969 0.3841, 0.6184 0.0787 0.3841, 0.6056 0.1969 0.3927, 0.6056 0.0787 0.3927, 0.5906 0.1969 0.3957, 0.5906 0.0787 0.3957, 0.5774 0.0787 0.3957, 0.5643 0.1969 0.3957, 0.5774 -0.0787 0.3957, 0.5643 -0.1969 0.3957, 0.5906 -0.0787 0.3957, 0.5906 -0.1969 0.3957, 0.5709 -0.1969 0.3445, 0.6056 -0.1969 0.3927, 0.6184 -0.1969 0.3841, 0.6269 -0.1969 0.3714, -0.6299 -0.1969 0.0394, -0.6299 0.1969 0.0394, -0.6269 0.1969 0.0243, -0.6269 -0.1969 0.0243, -0.6184 0.1969 0.0115, -0.6184 -0.1969 0.0115, -0.6056 0.1969 0.003, -0.6056 -0.1969 0.003, -0.5906 0.1969 0.0, -0.5906 -0.1969 0.0, -0.315 -0.1969 0.0, -0.315 0.1969 0.0, -0.315 -0.1969 0.0512, -0.315 0.1969 0.0512, -0.5394 -0.1969 0.0512, -0.5394 0.1969 0.0512, -0.5544 -0.1969 0.0542, -0.5544 0.1969 0.0542, -0.5672 -0.1969 0.0627, -0.5672 0.1969 0.0627, -0.5757 -0.1969 0.0755, -0.5757 0.1969 0.0755, -0.5787 -0.1969 0.0906, -0.5787 0.1969 0.0906, -0.5787 -0.1969 0.3445, -0.5787 0.1969 0.3445, -0.5709 -0.1969 0.3445, -0.5709 0.1969 0.3445, -0.5906 -0.1969 0.3957, -0.5643 -0.1969 0.3957, -0.5906 0.1969 0.3957, -0.5643 0.1969 0.3957, -0.6056 0.1969 0.3927, -0.6056 -0.1969 0.3927, -0.6184 0.1969 0.3841, -0.6184 -0.1969 0.3841, -0.6269 0.1969 0.3714, -0.6269 -0.1969 0.3714, -0.6299 0.1969 0.3563, -0.6299 -0.1969 0.3563, -0.2559 0.2559 0.0, -0.2559 0.2559 0.0591, 0.0006 0.2559 0.0, 0.2559 0.2559 0.0591, 0.2559 0.2559 0.0, -0.2559 -0.2559 0.0, -0.2559 -0.2559 0.0591, -0.2559 -0.0042 0.0, 0.2559 -0.2559 0.0, 0.2559 -0.2559 0.0591, 0.0006 -0.2559 0.0, 0.2559 -0.0042 0.0, -0.1185 0.0756 0.0039, -0.1196 0.0756 0.0039, -0.1185 0.0756 0.0, -0.1196 0.0756 0.0, -0.1559 -0.0031 0.0039, -0.1559 -0.0031 0.0, -0.1482 -0.0031 0.0039, -0.1482 -0.0031 0.0, -0.1366 0.0221 0.0039, -0.1366 0.0221 0.0, -0.1009 0.0221 0.0039, -0.1009 0.0221 0.0, -0.0889 -0.0031 0.0039, -0.0889 -0.0031 0.0, -0.0812 -0.0031 0.0039, -0.0812 -0.0031 0.0, -0.1329 0.0302 0.0039, -0.1047 0.0302 0.0039, -0.119 0.0602 0.0039, -0.1329 0.0302 0.0, -0.119 0.0602 0.0, -0.1047 0.0302 0.0, -0.0309 -0.0031 0.0039, -0.0065 -0.0031 0.0039, -0.0309 -0.0031 0.0, -0.0065 -0.0031 0.0, -0.0065 0.0756 0.0039, -0.0065 0.0756 0.0, -0.0224 0.0756 0.0039, -0.0224 0.0756 0.0, -0.0474 0.0728 0.0039, -0.0474 0.0728 0.0, -0.035 0.0751 0.0, -0.035 0.0751 0.0039, -0.0711 0.0352 0.0039, -0.0711 0.0352 0.0, -0.0696 0.0476 0.0, -0.0696 0.0476 0.0039, -0.0616 0.0632 0.0, -0.0616 0.0632 0.0039, -0.0394 -0.0027 0.0, -0.0394 -0.0027 0.0039, -0.0553 0.0024 0.0, -0.0553 0.0024 0.0039, -0.0667 0.0154 0.0, -0.0667 0.0154 0.0039, -0.0628 0.0254 0.0039, -0.0564 0.0139 0.0039, -0.0451 0.0069 0.0039, -0.0339 0.0052 0.0039, -0.0226 0.0049 0.0039, -0.0136 0.0049 0.0039, -0.0136 0.0675 0.0039, -0.0191 0.0675 0.0039, -0.0313 0.0671 0.0039, -0.0433 0.0653 0.0039, -0.052 0.0611 0.0039, -0.0606 0.051 0.0039, -0.064 0.0352 0.0039, -0.0136 0.0675 0.0, -0.0136 0.0049 0.0, -0.0191 0.0675 0.0, -0.0313 0.0671 0.0, -0.0433 0.0653 0.0, -0.052 0.0611 0.0, -0.0606 0.051 0.0, -0.064 0.0352 0.0, -0.0628 0.0254 0.0, -0.0564 0.0139 0.0, -0.0451 0.0069 0.0, -0.0339 0.0052 0.0, -0.0226 0.0049 0.0, 0.0521 -0.0031 0.0039, 0.0521 0.0756 0.0039, 0.0521 -0.0031 0.0, 0.0521 0.0756 0.0, 0.0076 0.0756 0.0039, 0.0076 0.0756 0.0, 0.0076 0.0675 0.0039, 0.0076 0.0675 0.0, 0.045 0.0675 0.0039, 0.045 0.0675 0.0, 0.045 0.0433 0.0039, 0.045 0.0433 0.0, 0.0076 0.0433 0.0039, 0.0076 0.0433 0.0, 0.0076 0.0352 0.0039, 0.0076 0.0352 0.0, 0.045 0.0352 0.0039, 0.045 0.0352 0.0, 0.045 0.0049 0.0039, 0.045 0.0049 0.0, 0.0076 0.0049 0.0039, 0.0076 0.0049 0.0, 0.0076 -0.0031 0.0039, 0.0076 -0.0031 0.0, 0.0682 0.0611 0.0039, 0.0682 0.0611 0.0, 0.0707 0.0642 0.0, 0.0707 0.0642 0.0039, 0.0753 0.0686 0.0, 0.0753 0.0686 0.0039, 0.0833 0.0736 0.0, 0.0833 0.0736 0.0039, 0.1026 0.0776 0.0, 0.1026 0.0776 0.0039, 0.0744 0.0564 0.0039, 0.0744 0.0564 0.0, 0.103 0.0695 0.0039, 0.103 0.0695 0.0, 0.0997 0.0694 0.0, 0.0997 0.0694 0.0039, 0.0946 0.0687 0.0, 0.0946 0.0687 0.0039, 0.0872 0.0663 0.0, 0.0872 0.0663 0.0039, 0.1379 0.0361 0.0039, 0.1379 0.0361 0.0, 0.1377 0.0393 0.0, 0.1377 0.0393 0.0039, 0.1327 0.0542 0.0, 0.1327 0.0542 0.0039, 0.1205 0.0652 0.0, 0.1205 0.0652 0.0039, 0.1025 0.0029 0.0039, 0.1025 0.0029 0.0, 0.1075 0.0032 0.0, 0.1075 0.0032 0.0039, 0.1229 0.0085 0.0, 0.1229 0.0085 0.0039, 0.1338 0.0199 0.0, 0.1338 0.0199 0.0039, 0.0744 0.016 0.0039, 0.0744 0.016 0.0, 0.087 0.0062 0.0, 0.087 0.0062 0.0039, 0.0682 0.0113 0.0039, 0.0682 0.0113 0.0, 0.1025 -0.0052 0.0039, 0.1025 -0.0052 0.0, 0.0985 -0.005 0.0, 0.0985 -0.005 0.0039, 0.0925 -0.0042 0.0, 0.0923 -0.0041 0.0039, 0.0923 -0.0041 0.0, 0.0833 -0.0011 0.0, 0.0833 -0.0011 0.0039, 0.1349 0.0086 0.0039, 0.1349 0.0086 0.0, 0.1325 0.0059 0.0, 0.1325 0.0059 0.0039, 0.128 0.0022 0.0, 0.128 0.0022 0.0039, 0.1203 -0.002 0.0, 0.1203 -0.002 0.0039, 0.1081 -0.0042 0.0, 0.1449 0.0367 0.0039, 0.1449 0.0367 0.0, 0.1425 0.0217 0.0, 0.1425 0.0217 0.0039, 0.106 0.0775 0.0, 0.106 0.0775 0.0039, 0.1264 0.071 0.0, 0.1264 0.071 0.0039, 0.1399 0.0568 0.0, 0.1399 0.0568 0.0039, 0.1914 -0.0031 0.0039, 0.1914 0.0756 0.0039, 0.1914 -0.0031 0.0, 0.1914 0.0756 0.0, 0.1843 0.0756 0.0039, 0.1843 0.0756 0.0, 0.1843 0.0049 0.0039, 0.1843 0.0049 0.0, 0.154 0.0049 0.0039, 0.154 0.0049 0.0, 0.154 -0.0031 0.0039, 0.154 -0.0031 0.0
            ]
        }
        coordIndex [
            0,1,2,-1,2,1,3,-1,2,3,4,-1,4,3,5,-1,4,5,6,-1,6,5,7,-1,6,7,8,-1,8,7,9,-1,7,5,10,-1,10,5,11,-1,10,11,12,-1,12,11,13,-1,12,13,14,-1,14,13,15,-1,14,15,16,-1,16,15,17,-1,18,16,19,-1,19,16,17,-1,20,18,21,-1,21,18,19,-1,22,20,23,-1,23,20,21,-1,22,23,24,-1,22,24,25,-1,25,24,26,-1,25,26,27,-1,27,26,28,-1,27,28,29,-1,29,28,30,-1,29,30,31,-1,32,33,34,-1,34,33,31,-1,34,31,35,-1,35,31,30,-1,35,30,36,-1,36,30,37,-1,36,37,38,-1,36,38,39,-1,39,38,40,-1,39,40,41,-1,41,40,42,-1,41,42,43,-1,43,42,44,-1,43,44,45,-1,45,44,46,-1,46,44,47,-1,46,47,48,-1,48,47,49,-1,48,49,50,-1,50,49,51,-1,49,52,51,-1,51,52,9,-1,51,9,53,-1,53,9,54,-1,18,20,16,-1,16,20,22,-1,16,22,14,-1,14,22,25,-1,14,25,12,-1,31,10,29,-1,29,10,12,-1,29,12,27,-1,27,12,25,-1,55,54,33,-1,33,54,9,-1,33,9,31,-1,31,9,7,-1,31,7,10,-1,23,21,19,-1,42,40,44,-1,44,40,3,-1,44,3,47,-1,47,3,1,-1,19,17,23,-1,23,17,15,-1,23,15,24,-1,24,15,13,-1,40,38,3,-1,3,38,37,-1,3,37,5,-1,5,37,30,-1,5,30,11,-1,11,30,28,-1,11,28,13,-1,13,28,26,-1,13,26,24,-1,56,57,58,-1,56,58,59,-1,59,58,60,-1,59,60,61,-1,61,60,62,-1,61,62,63,-1,63,62,64,-1,63,64,65,-1,66,65,67,-1,67,65,64,-1,68,66,69,-1,69,66,67,-1,70,68,71,-1,71,68,69,-1,70,71,72,-1,72,71,73,-1,72,73,74,-1,74,73,75,-1,74,75,76,-1,76,75,77,-1,76,77,78,-1,78,77,79,-1,80,78,81,-1,81,78,79,-1,82,80,83,-1,83,80,81,-1,84,85,86,-1,86,85,87,-1,84,86,88,-1,84,88,89,-1,89,88,90,-1,89,90,91,-1,91,90,92,-1,91,92,93,-1,93,92,94,-1,93,94,95,-1,56,95,57,-1,57,95,94,-1,89,91,84,-1,84,91,80,-1,84,80,85,-1,85,80,82,-1,65,66,68,-1,68,70,65,-1,65,70,72,-1,65,72,63,-1,63,72,74,-1,91,93,80,-1,80,93,95,-1,80,95,78,-1,78,95,56,-1,78,56,76,-1,76,56,59,-1,76,59,74,-1,74,59,61,-1,74,61,63,-1,87,83,86,-1,86,83,81,-1,86,81,88,-1,88,81,90,-1,57,77,58,-1,58,77,75,-1,69,67,71,-1,71,67,64,-1,71,64,73,-1,73,64,62,-1,73,62,75,-1,75,62,60,-1,75,60,58,-1,92,90,94,-1,94,90,81,-1,94,81,57,-1,57,81,79,-1,57,79,77,-1,96,97,98,-1,98,97,99,-1,98,99,100,-1,101,102,103,-1,103,102,97,-1,103,97,96,-1,104,105,106,-1,106,105,102,-1,106,102,101,-1,100,99,107,-1,107,99,105,-1,107,105,104,-1,108,109,110,-1,110,109,111,-1,109,112,111,-1,111,112,113,-1,112,114,113,-1,113,114,115,-1,114,116,115,-1,115,116,117,-1,116,118,117,-1,117,118,119,-1,118,120,119,-1,119,120,121,-1,120,122,121,-1,121,122,123,-1,122,108,123,-1,123,108,110,-1,124,112,109,-1,108,125,109,-1,109,125,126,-1,109,126,124,-1,122,120,118,-1,114,112,116,-1,116,112,124,-1,116,124,118,-1,118,124,125,-1,118,125,122,-1,122,125,108,-1,124,126,127,-1,127,126,128,-1,125,124,129,-1,129,124,127,-1,126,125,128,-1,128,125,129,-1,130,131,132,-1,132,131,133,-1,131,134,133,-1,133,134,135,-1,134,136,135,-1,135,136,137,-1,138,139,140,-1,138,140,141,-1,141,140,137,-1,141,137,136,-1,142,143,144,-1,142,144,145,-1,145,144,146,-1,145,146,147,-1,147,146,139,-1,147,139,138,-1,130,132,148,-1,130,148,149,-1,149,148,150,-1,149,150,151,-1,151,150,152,-1,151,152,153,-1,153,152,143,-1,153,143,142,-1,154,155,151,-1,151,155,156,-1,151,156,149,-1,149,156,157,-1,149,157,130,-1,130,157,158,-1,130,158,131,-1,131,158,159,-1,131,159,134,-1,134,159,160,-1,134,160,136,-1,136,160,161,-1,136,161,141,-1,141,161,162,-1,141,162,138,-1,138,162,163,-1,138,163,147,-1,147,163,164,-1,147,164,145,-1,145,164,165,-1,145,165,142,-1,142,165,166,-1,142,166,153,-1,153,166,154,-1,153,154,151,-1,160,159,167,-1,167,159,168,-1,161,160,169,-1,169,160,167,-1,161,169,170,-1,161,170,162,-1,162,170,171,-1,162,171,163,-1,163,171,172,-1,163,172,164,-1,164,172,173,-1,164,173,165,-1,165,173,174,-1,165,174,166,-1,166,174,175,-1,166,175,154,-1,154,175,176,-1,154,176,155,-1,155,176,177,-1,155,177,156,-1,156,177,178,-1,156,178,157,-1,157,178,179,-1,157,179,158,-1,159,158,168,-1,168,158,179,-1,180,181,182,-1,182,181,183,-1,181,184,183,-1,183,184,185,-1,184,186,185,-1,185,186,187,-1,186,188,187,-1,187,188,189,-1,188,190,189,-1,189,190,191,-1,190,192,191,-1,191,192,193,-1,192,194,193,-1,193,194,195,-1,194,196,195,-1,195,196,197,-1,196,198,197,-1,197,198,199,-1,198,200,199,-1,199,200,201,-1,200,202,201,-1,201,202,203,-1,202,180,203,-1,203,180,182,-1,180,202,200,-1,200,198,180,-1,180,198,196,-1,180,196,181,-1,186,184,188,-1,188,184,181,-1,188,181,190,-1,190,181,196,-1,190,196,192,-1,192,196,194,-1,204,205,206,-1,204,206,207,-1,207,206,208,-1,207,208,209,-1,209,208,210,-1,209,210,211,-1,211,210,212,-1,211,212,213,-1,204,214,205,-1,205,214,215,-1,216,217,218,-1,216,218,219,-1,219,218,220,-1,219,220,221,-1,221,220,222,-1,221,222,223,-1,223,222,215,-1,223,215,214,-1,224,225,226,-1,224,226,227,-1,227,226,228,-1,227,228,229,-1,229,228,230,-1,229,230,231,-1,231,230,217,-1,231,217,216,-1,232,233,234,-1,232,234,235,-1,235,234,236,-1,235,236,237,-1,237,236,238,-1,237,238,239,-1,239,238,225,-1,239,225,224,-1,240,241,242,-1,240,242,243,-1,243,242,233,-1,243,233,232,-1,240,244,241,-1,241,244,245,-1,246,247,248,-1,246,248,249,-1,249,248,250,-1,249,250,251,-1,250,252,251,-1,251,252,253,-1,251,253,254,-1,254,253,245,-1,254,245,244,-1,255,256,257,-1,255,257,258,-1,258,257,259,-1,258,259,260,-1,260,259,261,-1,260,261,262,-1,262,261,246,-1,246,261,263,-1,246,263,247,-1,264,265,266,-1,264,266,267,-1,267,266,256,-1,267,256,255,-1,213,212,268,-1,213,268,269,-1,269,268,270,-1,269,270,271,-1,271,270,272,-1,271,272,273,-1,273,272,265,-1,273,265,264,-1,244,240,254,-1,254,240,243,-1,264,267,239,-1,239,267,237,-1,237,267,255,-1,237,255,258,-1,214,204,207,-1,214,207,223,-1,223,207,209,-1,223,209,211,-1,258,260,237,-1,237,260,262,-1,237,262,235,-1,235,262,246,-1,235,246,232,-1,232,246,249,-1,232,249,243,-1,243,249,251,-1,243,251,254,-1,239,224,264,-1,264,224,227,-1,264,227,273,-1,273,227,229,-1,273,229,271,-1,271,229,231,-1,271,231,269,-1,269,231,216,-1,269,216,213,-1,213,216,219,-1,213,219,211,-1,211,219,221,-1,211,221,223,-1,274,275,276,-1,276,275,277,-1,275,278,277,-1,277,278,279,-1,278,280,279,-1,279,280,281,-1,280,282,281,-1,281,282,283,-1,282,284,283,-1,283,284,285,-1,284,274,285,-1,285,274,276,-1,278,275,280,-1,280,275,274,-1,280,274,282,-1,282,274,284,-1,128,129,127,-1,167,168,169,-1,169,168,179,-1,169,179,170,-1,170,179,178,-1,170,178,171,-1,177,176,178,-1,178,176,175,-1,178,175,174,-1,174,173,178,-1,178,173,172,-1,178,172,171,-1,
        ]
    }
}
Shape{
    appearance Appearance {
        material  Material 	{
            diffuseColor 1.0 1.0 0.0
            specularColor 0.5019607843137255 0.5019607843137255 0.0
            ambientIntensity 0.886
            transparency 0.0
            shininess 0.5
        }
    }
    geometry IndexedFaceSet {
        ccw TRUE
        solid FALSE
        coord DEF co Coordinate {
            point [
                0.5421 -0.2998 0.5685, 0.5421 0.2998 0.5685, 0.4651 -0.2956 0.6299, 0.4651 0.2956 0.6299
            ]
        }
        coordIndex [
            0,1,2,-1,2,1,3,-1,
        ]
    }
}
Shape{
    appearance Appearance {
        material  Material 	{
            diffuseColor 0.5019607843137255 0.25098039215686274 0.0
            specularColor 0.25098039215686274 0.12549019607843137 0.0
            ambientIntensity 0.2974
            transparency 0.0
            shininess 0.5
        }
    }
    geometry IndexedFaceSet {
        ccw TRUE
        solid FALSE
        coord DEF co Coordinate {
            point [
                0.4069 0.2956 0.6339, 0.4069 -0.2956 0.6339, 0.4069 0.2956 0.6299, 0.4069 -0.2956 0.6299, 0.3345 0.2956 0.6339, 0.3345 0.2956 0.6299, 0.3345 -0.2956 0.6339, 0.3345 -0.2956 0.6299
            ]
        }
        coordIndex [
            0,1,2,-1,2,1,3,-1,4,0,5,-1,5,0,2,-1,6,4,7,-1,7,4,5,-1,1,6,3,-1,3,6,7,-1,4,6,0,-1,0,6,1,-1,
        ]
    }
}
Shape{
    appearance Appearance {
        material  Material 	{
            diffuseColor 0.7529411764705882 0.7529411764705882 0.7529411764705882
            specularColor 0.3764705882352941 0.3764705882352941 0.3764705882352941
            ambientIntensity 0.7529
            transparency 0.0
            shininess 0.5
        }
    }
    geometry IndexedFaceSet {
        ccw TRUE
        solid FALSE
        coord DEF co Coordinate {
            point [
                0.6299 0.0787 0.3007, 0.5787 0.0787 0.3007, 0.6299 -0.0787 0.3007, 0.5787 -0.0787 0.3007, 0.6299 -0.0787 0.3563, 0.5787 -0.0787 0.3445, 0.6269 -0.0787 0.3714, 0.6184 -0.0787 0.3841, 0.6056 -0.0787 0.3927, 0.5906 -0.0787 0.3957, 0.5774 -0.0787 0.3957, 0.5709 -0.0787 0.3445, 0.5774 0.0787 0.3957, 0.5709 0.0787 0.3445, 0.5906 0.0787 0.3957, 0.5787 0.0787 0.3445, 0.6056 0.0787 0.3927, 0.6184 0.0787 0.3841, 0.6269 0.0787 0.3714, 0.6299 0.0787 0.3563
            ]
        }
        coordIndex [
            0,1,2,-1,2,1,3,-1,2,3,4,-1,4,3,5,-1,4,5,6,-1,6,5,7,-1,8,7,9,-1,9,7,5,-1,9,5,10,-1,10,5,11,-1,12,13,14,-1,14,13,15,-1,14,15,16,-1,16,15,17,-1,18,17,19,-1,19,17,15,-1,19,15,0,-1,0,15,1,-1,
        ]
    }
}