solid OpenSCAD_Model
  facet normal -0.9914448613738113 -0.13052619222004494 2.0431159668124548e-18
    outer loop
      vertex -58.69037019600587 -17.45293332892941 23.5
      vertex -58.75 -17 25.2
      vertex -58.75 -17 23.5
    endloop
  endfacet
  facet normal -0.9914448613738113 -0.13052619222004494 0
    outer loop
      vertex -58.69037019600587 -17.45293332892941 23.5
      vertex -58.69037019600587 -17.45293332892941 25.2
      vertex -58.75 -17 25.2
    endloop
  endfacet
  facet normal -0.9238795325112861 -0.3826834323650911 7.713603580467363e-18
    outer loop
      vertex -58.51554445662277 -17.875 23.5
      vertex -58.69037019600587 -17.45293332892941 25.2
      vertex -58.69037019600587 -17.45293332892941 23.5
    endloop
  endfacet
  facet normal -0.9238795325112861 -0.3826834323650911 0
    outer loop
      vertex -58.51554445662277 -17.875 23.5
      vertex -58.51554445662277 -17.875 25.2
      vertex -58.69037019600587 -17.45293332892941 25.2
    endloop
  endfacet
  facet normal -0.793353340291235 -0.6087614290087208 -8.18611016739914e-19
    outer loop
      vertex -58.23743686707646 -18.237436867076458 23.5
      vertex -58.51554445662277 -17.875 25.2
      vertex -58.51554445662277 -17.875 23.5
    endloop
  endfacet
  facet normal -0.793353340291235 -0.6087614290087208 0
    outer loop
      vertex -58.23743686707646 -18.237436867076458 23.5
      vertex -58.23743686707646 -18.237436867076458 25.2
      vertex -58.51554445662277 -17.875 25.2
    endloop
  endfacet
  facet normal -0.6087614290087169 -0.7933533402912379 -4.312810643965161e-18
    outer loop
      vertex -57.875 -18.515544456622766 23.5
      vertex -58.23743686707646 -18.237436867076458 25.2
      vertex -58.23743686707646 -18.237436867076458 23.5
    endloop
  endfacet
  facet normal -0.6087614290087169 -0.7933533402912379 0
    outer loop
      vertex -57.875 -18.515544456622766 23.5
      vertex -57.875 -18.515544456622766 25.2
      vertex -58.23743686707646 -18.237436867076458 25.2
    endloop
  endfacet
  facet normal -0.3826834323650911 -0.9238795325112861 7.713603580467363e-18
    outer loop
      vertex -57.45293332892941 -18.69037019600587 23.5
      vertex -57.875 -18.515544456622766 25.2
      vertex -57.875 -18.515544456622766 23.5
    endloop
  endfacet
  facet normal -0.3826834323650911 -0.9238795325112861 0
    outer loop
      vertex -57.45293332892941 -18.69037019600587 23.5
      vertex -57.45293332892941 -18.69037019600587 25.2
      vertex -57.875 -18.515544456622766 25.2
    endloop
  endfacet
  facet normal -0.13052619222005257 -0.9914448613738103 -1.5473859302346656e-18
    outer loop
      vertex -57 -18.75 23.5
      vertex -57.45293332892941 -18.69037019600587 25.2
      vertex -57.45293332892941 -18.69037019600587 23.5
    endloop
  endfacet
  facet normal -0.13052619222005257 -0.9914448613738103 0
    outer loop
      vertex -57 -18.75 23.5
      vertex -57 -18.75 25.2
      vertex -57.45293332892941 -18.69037019600587 25.2
    endloop
  endfacet
  facet normal 0 -1 0
    outer loop
      vertex -51 -18.75 23.5
      vertex -57 -18.75 25.2
      vertex -57 -18.75 23.5
    endloop
  endfacet
  facet normal 0 -1 0
    outer loop
      vertex -51 -18.75 23.5
      vertex -51 -18.75 25.2
      vertex -57 -18.75 25.2
    endloop
  endfacet
  facet normal 0.13052619222005257 -0.9914448613738103 1.5473859302346656e-18
    outer loop
      vertex -50.54706667107059 -18.69037019600587 23.5
      vertex -51 -18.75 25.2
      vertex -51 -18.75 23.5
    endloop
  endfacet
  facet normal 0.13052619222005257 -0.9914448613738103 0
    outer loop
      vertex -50.54706667107059 -18.69037019600587 23.5
      vertex -50.54706667107059 -18.69037019600587 25.2
      vertex -51 -18.75 25.2
    endloop
  endfacet
  facet normal 0.3826834323650911 -0.9238795325112861 -7.713603580467363e-18
    outer loop
      vertex -50.125 -18.515544456622766 23.5
      vertex -50.54706667107059 -18.69037019600587 25.2
      vertex -50.54706667107059 -18.69037019600587 23.5
    endloop
  endfacet
  facet normal 0.3826834323650911 -0.9238795325112861 0
    outer loop
      vertex -50.125 -18.515544456622766 23.5
      vertex -50.125 -18.515544456622766 25.2
      vertex -50.54706667107059 -18.69037019600587 25.2
    endloop
  endfacet
  facet normal 0.6087614290087169 -0.7933533402912379 4.312810643965161e-18
    outer loop
      vertex -49.76256313292354 -18.237436867076458 23.5
      vertex -50.125 -18.515544456622766 25.2
      vertex -50.125 -18.515544456622766 23.5
    endloop
  endfacet
  facet normal 0.6087614290087169 -0.7933533402912379 0
    outer loop
      vertex -49.76256313292354 -18.237436867076458 23.5
      vertex -49.76256313292354 -18.237436867076458 25.2
      vertex -50.125 -18.515544456622766 25.2
    endloop
  endfacet
  facet normal 0.793353340291235 -0.6087614290087208 8.18611016739914e-19
    outer loop
      vertex -49.48445554337723 -17.875 23.5
      vertex -49.76256313292354 -18.237436867076458 25.2
      vertex -49.76256313292354 -18.237436867076458 23.5
    endloop
  endfacet
  facet normal 0.793353340291235 -0.6087614290087208 0
    outer loop
      vertex -49.48445554337723 -17.875 23.5
      vertex -49.48445554337723 -17.875 25.2
      vertex -49.76256313292354 -18.237436867076458 25.2
    endloop
  endfacet
  facet normal 0.9238795325112861 -0.3826834323650911 -7.713603580467363e-18
    outer loop
      vertex -49.30962980399413 -17.45293332892941 23.5
      vertex -49.48445554337723 -17.875 25.2
      vertex -49.48445554337723 -17.875 23.5
    endloop
  endfacet
  facet normal 0.9238795325112861 -0.3826834323650911 0
    outer loop
      vertex -49.30962980399413 -17.45293332892941 23.5
      vertex -49.30962980399413 -17.45293332892941 25.2
      vertex -49.48445554337723 -17.875 25.2
    endloop
  endfacet
  facet normal 0.9914448613738113 -0.13052619222004494 -2.0431159668124548e-18
    outer loop
      vertex -49.25 -17 23.5
      vertex -49.30962980399413 -17.45293332892941 25.2
      vertex -49.30962980399413 -17.45293332892941 23.5
    endloop
  endfacet
  facet normal 0.9914448613738113 -0.13052619222004494 0
    outer loop
      vertex -49.25 -17 23.5
      vertex -49.25 -17 25.2
      vertex -49.30962980399413 -17.45293332892941 25.2
    endloop
  endfacet
  facet normal 0.9914448613738113 0.13052619222004494 2.0431159668124548e-18
    outer loop
      vertex -49.30962980399413 -16.54706667107059 23.5
      vertex -49.25 -17 25.2
      vertex -49.25 -17 23.5
    endloop
  endfacet
  facet normal 0.9914448613738113 0.13052619222004494 0
    outer loop
      vertex -49.30962980399413 -16.54706667107059 23.5
      vertex -49.30962980399413 -16.54706667107059 25.2
      vertex -49.25 -17 25.2
    endloop
  endfacet
  facet normal 0.9238795325112861 0.3826834323650911 7.713603580467363e-18
    outer loop
      vertex -49.48445554337723 -16.125 23.5
      vertex -49.30962980399413 -16.54706667107059 25.2
      vertex -49.30962980399413 -16.54706667107059 23.5
    endloop
  endfacet
  facet normal 0.9238795325112861 0.3826834323650911 0
    outer loop
      vertex -49.48445554337723 -16.125 23.5
      vertex -49.48445554337723 -16.125 25.2
      vertex -49.30962980399413 -16.54706667107059 25.2
    endloop
  endfacet
  facet normal 0.793353340291235 0.6087614290087208 -8.18611016739914e-19
    outer loop
      vertex -49.76256313292354 -15.762563132923542 23.5
      vertex -49.48445554337723 -16.125 25.2
      vertex -49.48445554337723 -16.125 23.5
    endloop
  endfacet
  facet normal 0.793353340291235 0.6087614290087208 0
    outer loop
      vertex -49.76256313292354 -15.762563132923542 23.5
      vertex -49.76256313292354 -15.762563132923542 25.2
      vertex -49.48445554337723 -16.125 25.2
    endloop
  endfacet
  facet normal 0.6087614290087193 0.7933533402912362 6.55312309220128e-18
    outer loop
      vertex -50.125 -15.484455543377232 23.5
      vertex -49.76256313292354 -15.762563132923542 25.2
      vertex -49.76256313292354 -15.762563132923542 23.5
    endloop
  endfacet
  facet normal 0.6087614290087193 0.7933533402912362 0
    outer loop
      vertex -50.125 -15.484455543377232 23.5
      vertex -50.125 -15.484455543377232 25.2
      vertex -49.76256313292354 -15.762563132923542 25.2
    endloop
  endfacet
  facet normal 0.38268343236508784 0.9238795325112875 8.152005196773079e-18
    outer loop
      vertex -50.54706667107059 -15.309629803994131 23.5
      vertex -50.125 -15.484455543377232 25.2
      vertex -50.125 -15.484455543377232 23.5
    endloop
  endfacet
  facet normal 0.38268343236508784 0.9238795325112875 0
    outer loop
      vertex -50.54706667107059 -15.309629803994131 23.5
      vertex -50.54706667107059 -15.309629803994131 25.2
      vertex -50.125 -15.484455543377232 25.2
    endloop
  endfacet
  facet normal 0.13052619222005257 0.9914448613738103 -1.5473859302346656e-18
    outer loop
      vertex -51 -15.25 23.5
      vertex -50.54706667107059 -15.309629803994131 25.2
      vertex -50.54706667107059 -15.309629803994131 23.5
    endloop
  endfacet
  facet normal 0.13052619222005257 0.9914448613738103 0
    outer loop
      vertex -51 -15.25 23.5
      vertex -51 -15.25 25.2
      vertex -50.54706667107059 -15.309629803994131 25.2
    endloop
  endfacet
  facet normal 0 1 0
    outer loop
      vertex -57 -15.25 23.5
      vertex -51 -15.25 25.2
      vertex -51 -15.25 23.5
    endloop
  endfacet
  facet normal 0 1 0
    outer loop
      vertex -57 -15.25 23.5
      vertex -57 -15.25 25.2
      vertex -51 -15.25 25.2
    endloop
  endfacet
  facet normal -0.13052619222005257 0.9914448613738103 1.5473859302346656e-18
    outer loop
      vertex -57.45293332892941 -15.309629803994131 23.5
      vertex -57 -15.25 25.2
      vertex -57 -15.25 23.5
    endloop
  endfacet
  facet normal -0.13052619222005257 0.9914448613738103 0
    outer loop
      vertex -57.45293332892941 -15.309629803994131 23.5
      vertex -57.45293332892941 -15.309629803994131 25.2
      vertex -57 -15.25 25.2
    endloop
  endfacet
  facet normal -0.38268343236508784 0.9238795325112875 -8.152005196773079e-18
    outer loop
      vertex -57.875 -15.484455543377232 23.5
      vertex -57.45293332892941 -15.309629803994131 25.2
      vertex -57.45293332892941 -15.309629803994131 23.5
    endloop
  endfacet
  facet normal -0.38268343236508784 0.9238795325112875 0
    outer loop
      vertex -57.875 -15.484455543377232 23.5
      vertex -57.875 -15.484455543377232 25.2
      vertex -57.45293332892941 -15.309629803994131 25.2
    endloop
  endfacet
  facet normal -0.6087614290087193 0.7933533402912362 -6.55312309220128e-18
    outer loop
      vertex -58.23743686707646 -15.762563132923542 23.5
      vertex -57.875 -15.484455543377232 25.2
      vertex -57.875 -15.484455543377232 23.5
    endloop
  endfacet
  facet normal -0.6087614290087193 0.7933533402912362 0
    outer loop
      vertex -58.23743686707646 -15.762563132923542 23.5
      vertex -58.23743686707646 -15.762563132923542 25.2
      vertex -57.875 -15.484455543377232 25.2
    endloop
  endfacet
  facet normal -0.793353340291235 0.6087614290087208 8.18611016739914e-19
    outer loop
      vertex -58.51554445662277 -16.125 23.5
      vertex -58.23743686707646 -15.762563132923542 25.2
      vertex -58.23743686707646 -15.762563132923542 23.5
    endloop
  endfacet
  facet normal -0.793353340291235 0.6087614290087208 0
    outer loop
      vertex -58.51554445662277 -16.125 23.5
      vertex -58.51554445662277 -16.125 25.2
      vertex -58.23743686707646 -15.762563132923542 25.2
    endloop
  endfacet
  facet normal -0.9238795325112861 0.3826834323650911 -7.713603580467363e-18
    outer loop
      vertex -58.69037019600587 -16.54706667107059 23.5
      vertex -58.51554445662277 -16.125 25.2
      vertex -58.51554445662277 -16.125 23.5
    endloop
  endfacet
  facet normal -0.9238795325112861 0.3826834323650911 0
    outer loop
      vertex -58.69037019600587 -16.54706667107059 23.5
      vertex -58.69037019600587 -16.54706667107059 25.2
      vertex -58.51554445662277 -16.125 25.2
    endloop
  endfacet
  facet normal -0.9914448613738113 0.13052619222004494 -2.0431159668124548e-18
    outer loop
      vertex -58.75 -17 23.5
      vertex -58.69037019600587 -16.54706667107059 25.2
      vertex -58.69037019600587 -16.54706667107059 23.5
    endloop
  endfacet
  facet normal -0.9914448613738113 0.13052619222004494 0
    outer loop
      vertex -58.75 -17 23.5
      vertex -58.75 -17 25.2
      vertex -58.69037019600587 -16.54706667107059 25.2
    endloop
  endfacet
  facet normal 0 0 -1
    outer loop
      vertex -58.69037019600587 -16.54706667107059 23.5
      vertex -58.69037019600587 -17.45293332892941 23.5
      vertex -58.75 -17 23.5
    endloop
  endfacet
  facet normal 0 0 -1
    outer loop
      vertex -58.69037019600587 -16.54706667107059 23.5
      vertex -58.51554445662277 -16.125 23.5
      vertex -58.69037019600587 -17.45293332892941 23.5
    endloop
  endfacet
  facet normal 0 0 -1
    outer loop
      vertex -58.51554445662277 -16.125 23.5
      vertex -58.51554445662277 -17.875 23.5
      vertex -58.69037019600587 -17.45293332892941 23.5
    endloop
  endfacet
  facet normal 0 0 -1
    outer loop
      vertex -58.51554445662277 -16.125 23.5
      vertex -58.23743686707646 -15.762563132923542 23.5
      vertex -58.51554445662277 -17.875 23.5
    endloop
  endfacet
  facet normal 0 0 -1
    outer loop
      vertex -58.23743686707646 -15.762563132923542 23.5
      vertex -58.23743686707646 -18.237436867076458 23.5
      vertex -58.51554445662277 -17.875 23.5
    endloop
  endfacet
  facet normal 0 0 -1
    outer loop
      vertex -58.23743686707646 -15.762563132923542 23.5
      vertex -57.875 -15.484455543377232 23.5
      vertex -58.23743686707646 -18.237436867076458 23.5
    endloop
  endfacet
  facet normal 0 0 -1
    outer loop
      vertex -57.875 -15.484455543377232 23.5
      vertex -57.875 -18.515544456622766 23.5
      vertex -58.23743686707646 -18.237436867076458 23.5
    endloop
  endfacet
  facet normal 0 0 -1
    outer loop
      vertex -57.875 -15.484455543377232 23.5
      vertex -57.45293332892941 -15.309629803994131 23.5
      vertex -57.875 -18.515544456622766 23.5
    endloop
  endfacet
  facet normal 0 0 -1
    outer loop
      vertex -57.45293332892941 -15.309629803994131 23.5
      vertex -57.45293332892941 -18.69037019600587 23.5
      vertex -57.875 -18.515544456622766 23.5
    endloop
  endfacet
  facet normal 0 0 -1
    outer loop
      vertex -57.45293332892941 -15.309629803994131 23.5
      vertex -57 -15.25 23.5
      vertex -57.45293332892941 -18.69037019600587 23.5
    endloop
  endfacet
  facet normal 0 0 -1
    outer loop
      vertex -57 -15.25 23.5
      vertex -57 -18.75 23.5
      vertex -57.45293332892941 -18.69037019600587 23.5
    endloop
  endfacet
  facet normal 0 0 -1
    outer loop
      vertex -57 -15.25 23.5
      vertex -51 -15.25 23.5
      vertex -57 -18.75 23.5
    endloop
  endfacet
  facet normal 0 0 -1
    outer loop
      vertex -51 -15.25 23.5
      vertex -51 -18.75 23.5
      vertex -57 -18.75 23.5
    endloop
  endfacet
  facet normal 0 0 -1
    outer loop
      vertex -51 -15.25 23.5
      vertex -50.54706667107059 -15.309629803994131 23.5
      vertex -51 -18.75 23.5
    endloop
  endfacet
  facet normal 0 0 -1
    outer loop
      vertex -50.54706667107059 -15.309629803994131 23.5
      vertex -50.54706667107059 -18.69037019600587 23.5
      vertex -51 -18.75 23.5
    endloop
  endfacet
  facet normal 0 0 -1
    outer loop
      vertex -50.54706667107059 -15.309629803994131 23.5
      vertex -50.125 -15.484455543377232 23.5
      vertex -50.54706667107059 -18.69037019600587 23.5
    endloop
  endfacet
  facet normal 0 0 -1
    outer loop
      vertex -50.125 -15.484455543377232 23.5
      vertex -50.125 -18.515544456622766 23.5
      vertex -50.54706667107059 -18.69037019600587 23.5
    endloop
  endfacet
  facet normal 0 0 -1
    outer loop
      vertex -50.125 -15.484455543377232 23.5
      vertex -49.76256313292354 -15.762563132923542 23.5
      vertex -50.125 -18.515544456622766 23.5
    endloop
  endfacet
  facet normal 0 0 -1
    outer loop
      vertex -49.76256313292354 -15.762563132923542 23.5
      vertex -49.76256313292354 -18.237436867076458 23.5
      vertex -50.125 -18.515544456622766 23.5
    endloop
  endfacet
  facet normal 0 0 -1
    outer loop
      vertex -49.76256313292354 -15.762563132923542 23.5
      vertex -49.48445554337723 -16.125 23.5
      vertex -49.76256313292354 -18.237436867076458 23.5
    endloop
  endfacet
  facet normal 0 0 -1
    outer loop
      vertex -49.48445554337723 -16.125 23.5
      vertex -49.48445554337723 -17.875 23.5
      vertex -49.76256313292354 -18.237436867076458 23.5
    endloop
  endfacet
  facet normal 0 0 -1
    outer loop
      vertex -49.48445554337723 -16.125 23.5
      vertex -49.30962980399413 -16.54706667107059 23.5
      vertex -49.48445554337723 -17.875 23.5
    endloop
  endfacet
  facet normal 0 0 -1
    outer loop
      vertex -49.30962980399413 -16.54706667107059 23.5
      vertex -49.30962980399413 -17.45293332892941 23.5
      vertex -49.48445554337723 -17.875 23.5
    endloop
  endfacet
  facet normal 0 0 -1
    outer loop
      vertex -49.30962980399413 -16.54706667107059 23.5
      vertex -49.25 -17 23.5
      vertex -49.30962980399413 -17.45293332892941 23.5
    endloop
  endfacet
  facet normal 0 0 1
    outer loop
      vertex -58.75 -17 25.2
      vertex -58.69037019600587 -17.45293332892941 25.2
      vertex -58.69037019600587 -16.54706667107059 25.2
    endloop
  endfacet
  facet normal 0 0 1
    outer loop
      vertex -58.69037019600587 -17.45293332892941 25.2
      vertex -58.51554445662277 -16.125 25.2
      vertex -58.69037019600587 -16.54706667107059 25.2
    endloop
  endfacet
  facet normal 0 0 1
    outer loop
      vertex -58.69037019600587 -17.45293332892941 25.2
      vertex -58.51554445662277 -17.875 25.2
      vertex -58.51554445662277 -16.125 25.2
    endloop
  endfacet
  facet normal 0 0 1
    outer loop
      vertex -58.51554445662277 -17.875 25.2
      vertex -58.23743686707646 -15.762563132923542 25.2
      vertex -58.51554445662277 -16.125 25.2
    endloop
  endfacet
  facet normal 0 0 1
    outer loop
      vertex -58.51554445662277 -17.875 25.2
      vertex -58.23743686707646 -18.237436867076458 25.2
      vertex -58.23743686707646 -15.762563132923542 25.2
    endloop
  endfacet
  facet normal 0 0 1
    outer loop
      vertex -58.23743686707646 -18.237436867076458 25.2
      vertex -57.875 -15.484455543377232 25.2
      vertex -58.23743686707646 -15.762563132923542 25.2
    endloop
  endfacet
  facet normal 0 0 1
    outer loop
      vertex -58.23743686707646 -18.237436867076458 25.2
      vertex -57.875 -18.515544456622766 25.2
      vertex -57.875 -15.484455543377232 25.2
    endloop
  endfacet
  facet normal 0 0 1
    outer loop
      vertex -57.875 -18.515544456622766 25.2
      vertex -57.45293332892941 -15.309629803994131 25.2
      vertex -57.875 -15.484455543377232 25.2
    endloop
  endfacet
  facet normal 0 0 1
    outer loop
      vertex -57.875 -18.515544456622766 25.2
      vertex -57.45293332892941 -18.69037019600587 25.2
      vertex -57.45293332892941 -15.309629803994131 25.2
    endloop
  endfacet
  facet normal 0 0 1
    outer loop
      vertex -57.45293332892941 -18.69037019600587 25.2
      vertex -57 -15.25 25.2
      vertex -57.45293332892941 -15.309629803994131 25.2
    endloop
  endfacet
  facet normal 0 0 1
    outer loop
      vertex -57.45293332892941 -18.69037019600587 25.2
      vertex -57 -18.75 25.2
      vertex -57 -15.25 25.2
    endloop
  endfacet
  facet normal 0 0 1
    outer loop
      vertex -57 -18.75 25.2
      vertex -51 -15.25 25.2
      vertex -57 -15.25 25.2
    endloop
  endfacet
  facet normal 0 0 1
    outer loop
      vertex -57 -18.75 25.2
      vertex -51 -18.75 25.2
      vertex -51 -15.25 25.2
    endloop
  endfacet
  facet normal 0 0 1
    outer loop
      vertex -51 -18.75 25.2
      vertex -50.54706667107059 -15.309629803994131 25.2
      vertex -51 -15.25 25.2
    endloop
  endfacet
  facet normal 0 0 1
    outer loop
      vertex -51 -18.75 25.2
      vertex -50.54706667107059 -18.69037019600587 25.2
      vertex -50.54706667107059 -15.309629803994131 25.2
    endloop
  endfacet
  facet normal 0 0 1
    outer loop
      vertex -50.54706667107059 -18.69037019600587 25.2
      vertex -50.125 -15.484455543377232 25.2
      vertex -50.54706667107059 -15.309629803994131 25.2
    endloop
  endfacet
  facet normal 0 0 1
    outer loop
      vertex -50.54706667107059 -18.69037019600587 25.2
      vertex -50.125 -18.515544456622766 25.2
      vertex -50.125 -15.484455543377232 25.2
    endloop
  endfacet
  facet normal 0 0 1
    outer loop
      vertex -50.125 -18.515544456622766 25.2
      vertex -49.76256313292354 -15.762563132923542 25.2
      vertex -50.125 -15.484455543377232 25.2
    endloop
  endfacet
  facet normal 0 0 1
    outer loop
      vertex -50.125 -18.515544456622766 25.2
      vertex -49.76256313292354 -18.237436867076458 25.2
      vertex -49.76256313292354 -15.762563132923542 25.2
    endloop
  endfacet
  facet normal 0 0 1
    outer loop
      vertex -49.76256313292354 -18.237436867076458 25.2
      vertex -49.48445554337723 -16.125 25.2
      vertex -49.76256313292354 -15.762563132923542 25.2
    endloop
  endfacet
  facet normal 0 0 1
    outer loop
      vertex -49.76256313292354 -18.237436867076458 25.2
      vertex -49.48445554337723 -17.875 25.2
      vertex -49.48445554337723 -16.125 25.2
    endloop
  endfacet
  facet normal 0 0 1
    outer loop
      vertex -49.48445554337723 -17.875 25.2
      vertex -49.30962980399413 -16.54706667107059 25.2
      vertex -49.48445554337723 -16.125 25.2
    endloop
  endfacet
  facet normal 0 0 1
    outer loop
      vertex -49.48445554337723 -17.875 25.2
      vertex -49.30962980399413 -17.45293332892941 25.2
      vertex -49.30962980399413 -16.54706667107059 25.2
    endloop
  endfacet
  facet normal 0 0 1
    outer loop
      vertex -49.30962980399413 -17.45293332892941 25.2
      vertex -49.25 -17 25.2
      vertex -49.30962980399413 -16.54706667107059 25.2
    endloop
  endfacet
endsolid OpenSCAD_Model
