solid OpenSCAD_Model
  facet normal 0.9951847266721972 0.09801714032955686 -2.6592787427604102e-18
    outer loop
      vertex 78.5 5 25.3
      vertex 78.43274848141131 5.682816127056449 23.5
      vertex 78.43274848141131 5.682816127056449 25.3
    endloop
  endfacet
  facet normal 0.9951847266721972 0.09801714032955686 -2.6592787427604102e-18
    outer loop
      vertex 78.43274848141131 5.682816127056449 23.5
      vertex 78.5 5 25.3
      vertex 78.5 5 23.5
    endloop
  endfacet
  facet normal 0.9569403357322083 0.2902846772544641 -5.456976591582325e-19
    outer loop
      vertex 78.43274848141131 5.682816127056449 25.3
      vertex 78.2335783637895 6.3393920132778145 23.5
      vertex 78.2335783637895 6.3393920132778145 25.3
    endloop
  endfacet
  facet normal 0.9569403357322083 0.2902846772544641 -5.456976591582325e-19
    outer loop
      vertex 78.2335783637895 6.3393920132778145 23.5
      vertex 78.43274848141131 5.682816127056449 25.3
      vertex 78.43274848141131 5.682816127056449 23.5
    endloop
  endfacet
  facet normal 0.8819212643483504 0.47139673682600636 -3.604371880372028e-18
    outer loop
      vertex 78.2335783637895 6.3393920132778145 25.3
      vertex 77.9101436430589 6.944495815568608 23.5
      vertex 77.9101436430589 6.944495815568608 25.3
    endloop
  endfacet
  facet normal 0.8819212643483504 0.47139673682600636 -3.604371880372028e-18
    outer loop
      vertex 77.9101436430589 6.944495815568608 23.5
      vertex 78.2335783637895 6.3393920132778145 25.3
      vertex 78.2335783637895 6.3393920132778145 23.5
    endloop
  endfacet
  facet normal 0.7730104533627458 0.6343932841636346 -7.788670387394861e-18
    outer loop
      vertex 77.9101436430589 6.944495815568608 25.3
      vertex 77.47487373415292 7.474873734152917 23.5
      vertex 77.47487373415292 7.474873734152917 25.3
    endloop
  endfacet
  facet normal 0.7730104533627458 0.6343932841636346 -7.788670387394861e-18
    outer loop
      vertex 77.47487373415292 7.474873734152917 23.5
      vertex 77.9101436430589 6.944495815568608 25.3
      vertex 77.9101436430589 6.944495815568608 23.5
    endloop
  endfacet
  facet normal 0.6343932841636366 0.7730104533627443 0
    outer loop
      vertex 77.47487373415292 7.474873734152917 23.5
      vertex 76.9444958155686 7.910143643058909 25.3
      vertex 77.47487373415292 7.474873734152917 25.3
    endloop
  endfacet
  facet normal 0.6343932841636366 0.7730104533627443 0
    outer loop
      vertex 76.9444958155686 7.910143643058909 25.3
      vertex 77.47487373415292 7.474873734152917 23.5
      vertex 76.9444958155686 7.910143643058909 23.5
    endloop
  endfacet
  facet normal 0.4713967368260017 0.8819212643483529 0
    outer loop
      vertex 76.9444958155686 7.910143643058909 23.5
      vertex 76.33939201327782 8.233578363789503 25.3
      vertex 76.9444958155686 7.910143643058909 25.3
    endloop
  endfacet
  facet normal 0.4713967368260017 0.8819212643483529 0
    outer loop
      vertex 76.33939201327782 8.233578363789503 25.3
      vertex 76.9444958155686 7.910143643058909 23.5
      vertex 76.33939201327782 8.233578363789503 23.5
    endloop
  endfacet
  facet normal 0.2902846772544635 0.9569403357322086 0
    outer loop
      vertex 76.33939201327782 8.233578363789503 23.5
      vertex 75.68281612705646 8.432748481411306 25.3
      vertex 76.33939201327782 8.233578363789503 25.3
    endloop
  endfacet
  facet normal 0.2902846772544635 0.9569403357322086 0
    outer loop
      vertex 75.68281612705646 8.432748481411306 25.3
      vertex 76.33939201327782 8.233578363789503 23.5
      vertex 75.68281612705646 8.432748481411306 23.5
    endloop
  endfacet
  facet normal 0.09801714032956112 0.9951847266721969 0
    outer loop
      vertex 75.68281612705646 8.432748481411306 23.5
      vertex 75 8.5 25.3
      vertex 75.68281612705646 8.432748481411306 25.3
    endloop
  endfacet
  facet normal 0.09801714032956112 0.9951847266721969 0
    outer loop
      vertex 75 8.5 25.3
      vertex 75.68281612705646 8.432748481411306 23.5
      vertex 75 8.5 23.5
    endloop
  endfacet
  facet normal -0.09801714032956112 0.9951847266721969 0
    outer loop
      vertex 75 8.5 23.5
      vertex 74.31718387294354 8.432748481411306 25.3
      vertex 75 8.5 25.3
    endloop
  endfacet
  facet normal -0.09801714032956112 0.9951847266721969 0
    outer loop
      vertex 74.31718387294354 8.432748481411306 25.3
      vertex 75 8.5 23.5
      vertex 74.31718387294354 8.432748481411306 23.5
    endloop
  endfacet
  facet normal -0.2902846772544635 0.9569403357322086 0
    outer loop
      vertex 74.31718387294354 8.432748481411306 23.5
      vertex 73.66060798672218 8.233578363789503 25.3
      vertex 74.31718387294354 8.432748481411306 25.3
    endloop
  endfacet
  facet normal -0.2902846772544635 0.9569403357322086 0
    outer loop
      vertex 73.66060798672218 8.233578363789503 25.3
      vertex 74.31718387294354 8.432748481411306 23.5
      vertex 73.66060798672218 8.233578363789503 23.5
    endloop
  endfacet
  facet normal -0.4713967368260017 0.8819212643483529 0
    outer loop
      vertex 73.66060798672218 8.233578363789503 23.5
      vertex 73.0555041844314 7.910143643058909 25.3
      vertex 73.66060798672218 8.233578363789503 25.3
    endloop
  endfacet
  facet normal -0.4713967368260017 0.8819212643483529 0
    outer loop
      vertex 73.0555041844314 7.910143643058909 25.3
      vertex 73.66060798672218 8.233578363789503 23.5
      vertex 73.0555041844314 7.910143643058909 23.5
    endloop
  endfacet
  facet normal -0.6343932841636366 0.7730104533627443 0
    outer loop
      vertex 73.0555041844314 7.910143643058909 23.5
      vertex 72.52512626584708 7.474873734152917 25.3
      vertex 73.0555041844314 7.910143643058909 25.3
    endloop
  endfacet
  facet normal -0.6343932841636366 0.7730104533627443 0
    outer loop
      vertex 72.52512626584708 7.474873734152917 25.3
      vertex 73.0555041844314 7.910143643058909 23.5
      vertex 72.52512626584708 7.474873734152917 23.5
    endloop
  endfacet
  facet normal -0.7730104533627458 0.6343932841636346 7.788670387394861e-18
    outer loop
      vertex 72.0898563569411 6.944495815568608 23.5
      vertex 72.52512626584708 7.474873734152917 25.3
      vertex 72.52512626584708 7.474873734152917 23.5
    endloop
  endfacet
  facet normal -0.7730104533627458 0.6343932841636346 7.788670387394861e-18
    outer loop
      vertex 72.52512626584708 7.474873734152917 25.3
      vertex 72.0898563569411 6.944495815568608 23.5
      vertex 72.0898563569411 6.944495815568608 25.3
    endloop
  endfacet
  facet normal -0.8819212643483504 0.47139673682600636 3.604371880372028e-18
    outer loop
      vertex 71.7664216362105 6.3393920132778145 23.5
      vertex 72.0898563569411 6.944495815568608 25.3
      vertex 72.0898563569411 6.944495815568608 23.5
    endloop
  endfacet
  facet normal -0.8819212643483504 0.47139673682600636 3.604371880372028e-18
    outer loop
      vertex 72.0898563569411 6.944495815568608 25.3
      vertex 71.7664216362105 6.3393920132778145 23.5
      vertex 71.7664216362105 6.3393920132778145 25.3
    endloop
  endfacet
  facet normal -0.9569403357322083 0.2902846772544641 5.456976591582325e-19
    outer loop
      vertex 71.56725151858869 5.682816127056449 23.5
      vertex 71.7664216362105 6.3393920132778145 25.3
      vertex 71.7664216362105 6.3393920132778145 23.5
    endloop
  endfacet
  facet normal -0.9569403357322083 0.2902846772544641 5.456976591582325e-19
    outer loop
      vertex 71.7664216362105 6.3393920132778145 25.3
      vertex 71.56725151858869 5.682816127056449 23.5
      vertex 71.56725151858869 5.682816127056449 25.3
    endloop
  endfacet
  facet normal -0.9951847266721972 0.09801714032955686 2.6592787427604102e-18
    outer loop
      vertex 71.5 5 23.5
      vertex 71.56725151858869 5.682816127056449 25.3
      vertex 71.56725151858869 5.682816127056449 23.5
    endloop
  endfacet
  facet normal -0.9951847266721972 0.09801714032955686 2.6592787427604102e-18
    outer loop
      vertex 71.56725151858869 5.682816127056449 25.3
      vertex 71.5 5 23.5
      vertex 71.5 5 25.3
    endloop
  endfacet
  facet normal -0.9951847266721972 -0.09801714032955686 -2.6592787427604102e-18
    outer loop
      vertex 71.56725151858869 4.317183872943551 23.5
      vertex 71.5 5 25.3
      vertex 71.5 5 23.5
    endloop
  endfacet
  facet normal -0.9951847266721972 -0.09801714032955686 -2.6592787427604102e-18
    outer loop
      vertex 71.5 5 25.3
      vertex 71.56725151858869 4.317183872943551 23.5
      vertex 71.56725151858869 4.317183872943551 25.3
    endloop
  endfacet
  facet normal -0.9569403357322083 -0.2902846772544641 -5.456976591582325e-19
    outer loop
      vertex 71.7664216362105 3.6606079867221855 23.5
      vertex 71.56725151858869 4.317183872943551 25.3
      vertex 71.56725151858869 4.317183872943551 23.5
    endloop
  endfacet
  facet normal -0.9569403357322083 -0.2902846772544641 -5.456976591582325e-19
    outer loop
      vertex 71.56725151858869 4.317183872943551 25.3
      vertex 71.7664216362105 3.6606079867221855 23.5
      vertex 71.7664216362105 3.6606079867221855 25.3
    endloop
  endfacet
  facet normal -0.8819212643483503 -0.47139673682600663 3.275541954089389e-19
    outer loop
      vertex 72.0898563569411 3.0555041844313924 23.5
      vertex 71.7664216362105 3.6606079867221855 25.3
      vertex 71.7664216362105 3.6606079867221855 23.5
    endloop
  endfacet
  facet normal -0.8819212643483503 -0.47139673682600663 3.275541954089389e-19
    outer loop
      vertex 71.7664216362105 3.6606079867221855 25.3
      vertex 72.0898563569411 3.0555041844313924 23.5
      vertex 72.0898563569411 3.0555041844313924 25.3
    endloop
  endfacet
  facet normal -0.7730104533627458 -0.6343932841636346 -7.788670387394861e-18
    outer loop
      vertex 72.52512626584708 2.5251262658470837 23.5
      vertex 72.0898563569411 3.0555041844313924 25.3
      vertex 72.0898563569411 3.0555041844313924 23.5
    endloop
  endfacet
  facet normal -0.7730104533627458 -0.6343932841636346 -7.788670387394861e-18
    outer loop
      vertex 72.0898563569411 3.0555041844313924 25.3
      vertex 72.52512626584708 2.5251262658470837 23.5
      vertex 72.52512626584708 2.5251262658470837 25.3
    endloop
  endfacet
  facet normal -0.6343932841636366 -0.7730104533627443 0
    outer loop
      vertex 72.52512626584708 2.5251262658470837 23.5
      vertex 73.0555041844314 2.0898563569410915 25.3
      vertex 72.52512626584708 2.5251262658470837 25.3
    endloop
  endfacet
  facet normal -0.6343932841636366 -0.7730104533627443 0
    outer loop
      vertex 73.0555041844314 2.0898563569410915 25.3
      vertex 72.52512626584708 2.5251262658470837 23.5
      vertex 73.0555041844314 2.0898563569410915 23.5
    endloop
  endfacet
  facet normal -0.47139673682600275 -0.8819212643483523 0
    outer loop
      vertex 73.0555041844314 2.0898563569410915 23.5
      vertex 73.66060798672218 1.7664216362104965 25.3
      vertex 73.0555041844314 2.0898563569410915 25.3
    endloop
  endfacet
  facet normal -0.47139673682600275 -0.8819212643483523 0
    outer loop
      vertex 73.66060798672218 1.7664216362104965 25.3
      vertex 73.0555041844314 2.0898563569410915 23.5
      vertex 73.66060798672218 1.7664216362104965 23.5
    endloop
  endfacet
  facet normal -0.29028467725446416 -0.9569403357322084 0
    outer loop
      vertex 73.66060798672218 1.7664216362104965 23.5
      vertex 74.31718387294354 1.5672515185886935 25.3
      vertex 73.66060798672218 1.7664216362104965 25.3
    endloop
  endfacet
  facet normal -0.29028467725446416 -0.9569403357322084 0
    outer loop
      vertex 74.31718387294354 1.5672515185886935 25.3
      vertex 73.66060798672218 1.7664216362104965 23.5
      vertex 74.31718387294354 1.5672515185886935 23.5
    endloop
  endfacet
  facet normal -0.09801714032955983 -0.9951847266721969 0
    outer loop
      vertex 74.31718387294354 1.5672515185886935 23.5
      vertex 75 1.5 25.3
      vertex 74.31718387294354 1.5672515185886935 25.3
    endloop
  endfacet
  facet normal -0.09801714032955983 -0.9951847266721969 0
    outer loop
      vertex 75 1.5 25.3
      vertex 74.31718387294354 1.5672515185886935 23.5
      vertex 75 1.5 23.5
    endloop
  endfacet
  facet normal 0.09801714032955983 -0.9951847266721969 0
    outer loop
      vertex 75 1.5 23.5
      vertex 75.68281612705646 1.5672515185886935 25.3
      vertex 75 1.5 25.3
    endloop
  endfacet
  facet normal 0.09801714032955983 -0.9951847266721969 0
    outer loop
      vertex 75.68281612705646 1.5672515185886935 25.3
      vertex 75 1.5 23.5
      vertex 75.68281612705646 1.5672515185886935 23.5
    endloop
  endfacet
  facet normal 0.29028467725446416 -0.9569403357322084 0
    outer loop
      vertex 75.68281612705646 1.5672515185886935 23.5
      vertex 76.33939201327782 1.7664216362104965 25.3
      vertex 75.68281612705646 1.5672515185886935 25.3
    endloop
  endfacet
  facet normal 0.29028467725446416 -0.9569403357322084 0
    outer loop
      vertex 76.33939201327782 1.7664216362104965 25.3
      vertex 75.68281612705646 1.5672515185886935 23.5
      vertex 76.33939201327782 1.7664216362104965 23.5
    endloop
  endfacet
  facet normal 0.47139673682600275 -0.8819212643483523 0
    outer loop
      vertex 76.33939201327782 1.7664216362104965 23.5
      vertex 76.9444958155686 2.0898563569410915 25.3
      vertex 76.33939201327782 1.7664216362104965 25.3
    endloop
  endfacet
  facet normal 0.47139673682600275 -0.8819212643483523 0
    outer loop
      vertex 76.9444958155686 2.0898563569410915 25.3
      vertex 76.33939201327782 1.7664216362104965 23.5
      vertex 76.9444958155686 2.0898563569410915 23.5
    endloop
  endfacet
  facet normal 0.6343932841636366 -0.7730104533627443 0
    outer loop
      vertex 76.9444958155686 2.0898563569410915 23.5
      vertex 77.47487373415292 2.5251262658470837 25.3
      vertex 76.9444958155686 2.0898563569410915 25.3
    endloop
  endfacet
  facet normal 0.6343932841636366 -0.7730104533627443 0
    outer loop
      vertex 77.47487373415292 2.5251262658470837 25.3
      vertex 76.9444958155686 2.0898563569410915 23.5
      vertex 77.47487373415292 2.5251262658470837 23.5
    endloop
  endfacet
  facet normal 0.7730104533627458 -0.6343932841636346 7.788670387394861e-18
    outer loop
      vertex 77.47487373415292 2.5251262658470837 25.3
      vertex 77.9101436430589 3.0555041844313924 23.5
      vertex 77.9101436430589 3.0555041844313924 25.3
    endloop
  endfacet
  facet normal 0.7730104533627458 -0.6343932841636346 7.788670387394861e-18
    outer loop
      vertex 77.9101436430589 3.0555041844313924 23.5
      vertex 77.47487373415292 2.5251262658470837 25.3
      vertex 77.47487373415292 2.5251262658470837 23.5
    endloop
  endfacet
  facet normal 0.8819212643483503 -0.47139673682600663 -3.275541954089389e-19
    outer loop
      vertex 77.9101436430589 3.0555041844313924 25.3
      vertex 78.2335783637895 3.6606079867221855 23.5
      vertex 78.2335783637895 3.6606079867221855 25.3
    endloop
  endfacet
  facet normal 0.8819212643483503 -0.47139673682600663 -3.275541954089389e-19
    outer loop
      vertex 78.2335783637895 3.6606079867221855 23.5
      vertex 77.9101436430589 3.0555041844313924 25.3
      vertex 77.9101436430589 3.0555041844313924 23.5
    endloop
  endfacet
  facet normal 0.9569403357322083 -0.2902846772544641 5.456976591582325e-19
    outer loop
      vertex 78.2335783637895 3.6606079867221855 25.3
      vertex 78.43274848141131 4.317183872943551 23.5
      vertex 78.43274848141131 4.317183872943551 25.3
    endloop
  endfacet
  facet normal 0.9569403357322083 -0.2902846772544641 5.456976591582325e-19
    outer loop
      vertex 78.43274848141131 4.317183872943551 23.5
      vertex 78.2335783637895 3.6606079867221855 25.3
      vertex 78.2335783637895 3.6606079867221855 23.5
    endloop
  endfacet
  facet normal 0.9951847266721972 -0.09801714032955686 2.6592787427604102e-18
    outer loop
      vertex 78.43274848141131 4.317183872943551 25.3
      vertex 78.5 5 23.5
      vertex 78.5 5 25.3
    endloop
  endfacet
  facet normal 0.9951847266721972 -0.09801714032955686 2.6592787427604102e-18
    outer loop
      vertex 78.5 5 23.5
      vertex 78.43274848141131 4.317183872943551 25.3
      vertex 78.43274848141131 4.317183872943551 23.5
    endloop
  endfacet
  facet normal 0 0 -1
    outer loop
      vertex 78.43274848141131 4.317183872943551 23.5
      vertex 78.43274848141131 5.682816127056449 23.5
      vertex 78.5 5 23.5
    endloop
  endfacet
  facet normal 0 0 -1
    outer loop
      vertex 78.2335783637895 3.6606079867221855 23.5
      vertex 78.43274848141131 5.682816127056449 23.5
      vertex 78.43274848141131 4.317183872943551 23.5
    endloop
  endfacet
  facet normal 0 0 -1
    outer loop
      vertex 78.2335783637895 3.6606079867221855 23.5
      vertex 78.2335783637895 6.3393920132778145 23.5
      vertex 78.43274848141131 5.682816127056449 23.5
    endloop
  endfacet
  facet normal 0 0 -1
    outer loop
      vertex 77.9101436430589 3.0555041844313924 23.5
      vertex 78.2335783637895 6.3393920132778145 23.5
      vertex 78.2335783637895 3.6606079867221855 23.5
    endloop
  endfacet
  facet normal 0 0 -1
    outer loop
      vertex 77.9101436430589 3.0555041844313924 23.5
      vertex 77.9101436430589 6.944495815568608 23.5
      vertex 78.2335783637895 6.3393920132778145 23.5
    endloop
  endfacet
  facet normal 0 0 -1
    outer loop
      vertex 77.47487373415292 2.5251262658470837 23.5
      vertex 77.9101436430589 6.944495815568608 23.5
      vertex 77.9101436430589 3.0555041844313924 23.5
    endloop
  endfacet
  facet normal 0 0 -1
    outer loop
      vertex 77.47487373415292 2.5251262658470837 23.5
      vertex 77.47487373415292 7.474873734152917 23.5
      vertex 77.9101436430589 6.944495815568608 23.5
    endloop
  endfacet
  facet normal 0 0 -1
    outer loop
      vertex 76.9444958155686 2.0898563569410915 23.5
      vertex 77.47487373415292 7.474873734152917 23.5
      vertex 77.47487373415292 2.5251262658470837 23.5
    endloop
  endfacet
  facet normal 0 0 -1
    outer loop
      vertex 76.9444958155686 2.0898563569410915 23.5
      vertex 76.9444958155686 7.910143643058909 23.5
      vertex 77.47487373415292 7.474873734152917 23.5
    endloop
  endfacet
  facet normal 0 0 -1
    outer loop
      vertex 76.33939201327782 1.7664216362104965 23.5
      vertex 76.9444958155686 7.910143643058909 23.5
      vertex 76.9444958155686 2.0898563569410915 23.5
    endloop
  endfacet
  facet normal 0 0 -1
    outer loop
      vertex 76.33939201327782 1.7664216362104965 23.5
      vertex 76.33939201327782 8.233578363789503 23.5
      vertex 76.9444958155686 7.910143643058909 23.5
    endloop
  endfacet
  facet normal 0 0 -1
    outer loop
      vertex 75.68281612705646 1.5672515185886935 23.5
      vertex 76.33939201327782 8.233578363789503 23.5
      vertex 76.33939201327782 1.7664216362104965 23.5
    endloop
  endfacet
  facet normal 0 0 -1
    outer loop
      vertex 75.68281612705646 1.5672515185886935 23.5
      vertex 75.68281612705646 8.432748481411306 23.5
      vertex 76.33939201327782 8.233578363789503 23.5
    endloop
  endfacet
  facet normal 0 0 -1
    outer loop
      vertex 75 1.5 23.5
      vertex 75.68281612705646 8.432748481411306 23.5
      vertex 75.68281612705646 1.5672515185886935 23.5
    endloop
  endfacet
  facet normal 0 0 -1
    outer loop
      vertex 75 1.5 23.5
      vertex 75 8.5 23.5
      vertex 75.68281612705646 8.432748481411306 23.5
    endloop
  endfacet
  facet normal 0 0 -1
    outer loop
      vertex 74.31718387294354 1.5672515185886935 23.5
      vertex 75 8.5 23.5
      vertex 75 1.5 23.5
    endloop
  endfacet
  facet normal 0 0 -1
    outer loop
      vertex 74.31718387294354 1.5672515185886935 23.5
      vertex 74.31718387294354 8.432748481411306 23.5
      vertex 75 8.5 23.5
    endloop
  endfacet
  facet normal 0 0 -1
    outer loop
      vertex 73.66060798672218 1.7664216362104965 23.5
      vertex 74.31718387294354 8.432748481411306 23.5
      vertex 74.31718387294354 1.5672515185886935 23.5
    endloop
  endfacet
  facet normal 0 0 -1
    outer loop
      vertex 73.66060798672218 1.7664216362104965 23.5
      vertex 73.66060798672218 8.233578363789503 23.5
      vertex 74.31718387294354 8.432748481411306 23.5
    endloop
  endfacet
  facet normal 0 0 -1
    outer loop
      vertex 73.0555041844314 2.0898563569410915 23.5
      vertex 73.66060798672218 8.233578363789503 23.5
      vertex 73.66060798672218 1.7664216362104965 23.5
    endloop
  endfacet
  facet normal 0 0 -1
    outer loop
      vertex 73.0555041844314 2.0898563569410915 23.5
      vertex 73.0555041844314 7.910143643058909 23.5
      vertex 73.66060798672218 8.233578363789503 23.5
    endloop
  endfacet
  facet normal 0 0 -1
    outer loop
      vertex 72.52512626584708 2.5251262658470837 23.5
      vertex 73.0555041844314 7.910143643058909 23.5
      vertex 73.0555041844314 2.0898563569410915 23.5
    endloop
  endfacet
  facet normal 0 0 -1
    outer loop
      vertex 72.52512626584708 2.5251262658470837 23.5
      vertex 72.52512626584708 7.474873734152917 23.5
      vertex 73.0555041844314 7.910143643058909 23.5
    endloop
  endfacet
  facet normal 0 0 -1
    outer loop
      vertex 72.0898563569411 3.0555041844313924 23.5
      vertex 72.52512626584708 7.474873734152917 23.5
      vertex 72.52512626584708 2.5251262658470837 23.5
    endloop
  endfacet
  facet normal 0 0 -1
    outer loop
      vertex 72.0898563569411 3.0555041844313924 23.5
      vertex 72.0898563569411 6.944495815568608 23.5
      vertex 72.52512626584708 7.474873734152917 23.5
    endloop
  endfacet
  facet normal 0 0 -1
    outer loop
      vertex 71.7664216362105 3.6606079867221855 23.5
      vertex 72.0898563569411 6.944495815568608 23.5
      vertex 72.0898563569411 3.0555041844313924 23.5
    endloop
  endfacet
  facet normal 0 0 -1
    outer loop
      vertex 71.7664216362105 3.6606079867221855 23.5
      vertex 71.7664216362105 6.3393920132778145 23.5
      vertex 72.0898563569411 6.944495815568608 23.5
    endloop
  endfacet
  facet normal 0 0 -1
    outer loop
      vertex 71.56725151858869 4.317183872943551 23.5
      vertex 71.7664216362105 6.3393920132778145 23.5
      vertex 71.7664216362105 3.6606079867221855 23.5
    endloop
  endfacet
  facet normal 0 0 -1
    outer loop
      vertex 71.56725151858869 4.317183872943551 23.5
      vertex 71.56725151858869 5.682816127056449 23.5
      vertex 71.7664216362105 6.3393920132778145 23.5
    endloop
  endfacet
  facet normal 0 0 -1
    outer loop
      vertex 71.56725151858869 5.682816127056449 23.5
      vertex 71.56725151858869 4.317183872943551 23.5
      vertex 71.5 5 23.5
    endloop
  endfacet
  facet normal 0 0 1
    outer loop
      vertex 78.43274848141131 5.682816127056449 25.3
      vertex 78.43274848141131 4.317183872943551 25.3
      vertex 78.5 5 25.3
    endloop
  endfacet
  facet normal 0 0 1
    outer loop
      vertex 78.2335783637895 6.3393920132778145 25.3
      vertex 78.43274848141131 4.317183872943551 25.3
      vertex 78.43274848141131 5.682816127056449 25.3
    endloop
  endfacet
  facet normal 0 0 1
    outer loop
      vertex 78.2335783637895 6.3393920132778145 25.3
      vertex 78.2335783637895 3.6606079867221855 25.3
      vertex 78.43274848141131 4.317183872943551 25.3
    endloop
  endfacet
  facet normal 0 0 1
    outer loop
      vertex 77.9101436430589 6.944495815568608 25.3
      vertex 78.2335783637895 3.6606079867221855 25.3
      vertex 78.2335783637895 6.3393920132778145 25.3
    endloop
  endfacet
  facet normal 0 0 1
    outer loop
      vertex 77.9101436430589 6.944495815568608 25.3
      vertex 77.9101436430589 3.0555041844313924 25.3
      vertex 78.2335783637895 3.6606079867221855 25.3
    endloop
  endfacet
  facet normal 0 0 1
    outer loop
      vertex 77.47487373415292 7.474873734152917 25.3
      vertex 77.9101436430589 3.0555041844313924 25.3
      vertex 77.9101436430589 6.944495815568608 25.3
    endloop
  endfacet
  facet normal 0 0 1
    outer loop
      vertex 77.47487373415292 7.474873734152917 25.3
      vertex 77.47487373415292 2.5251262658470837 25.3
      vertex 77.9101436430589 3.0555041844313924 25.3
    endloop
  endfacet
  facet normal 0 0 1
    outer loop
      vertex 76.9444958155686 7.910143643058909 25.3
      vertex 77.47487373415292 2.5251262658470837 25.3
      vertex 77.47487373415292 7.474873734152917 25.3
    endloop
  endfacet
  facet normal 0 0 1
    outer loop
      vertex 76.9444958155686 7.910143643058909 25.3
      vertex 76.9444958155686 2.0898563569410915 25.3
      vertex 77.47487373415292 2.5251262658470837 25.3
    endloop
  endfacet
  facet normal 0 0 1
    outer loop
      vertex 76.33939201327782 8.233578363789503 25.3
      vertex 76.9444958155686 2.0898563569410915 25.3
      vertex 76.9444958155686 7.910143643058909 25.3
    endloop
  endfacet
  facet normal 0 0 1
    outer loop
      vertex 76.33939201327782 8.233578363789503 25.3
      vertex 76.33939201327782 1.7664216362104965 25.3
      vertex 76.9444958155686 2.0898563569410915 25.3
    endloop
  endfacet
  facet normal 0 0 1
    outer loop
      vertex 75.68281612705646 8.432748481411306 25.3
      vertex 76.33939201327782 1.7664216362104965 25.3
      vertex 76.33939201327782 8.233578363789503 25.3
    endloop
  endfacet
  facet normal 0 0 1
    outer loop
      vertex 75.68281612705646 8.432748481411306 25.3
      vertex 75.68281612705646 1.5672515185886935 25.3
      vertex 76.33939201327782 1.7664216362104965 25.3
    endloop
  endfacet
  facet normal 0 0 1
    outer loop
      vertex 75 8.5 25.3
      vertex 75.68281612705646 1.5672515185886935 25.3
      vertex 75.68281612705646 8.432748481411306 25.3
    endloop
  endfacet
  facet normal 0 0 1
    outer loop
      vertex 75 8.5 25.3
      vertex 75 1.5 25.3
      vertex 75.68281612705646 1.5672515185886935 25.3
    endloop
  endfacet
  facet normal 0 0 1
    outer loop
      vertex 74.31718387294354 8.432748481411306 25.3
      vertex 75 1.5 25.3
      vertex 75 8.5 25.3
    endloop
  endfacet
  facet normal 0 0 1
    outer loop
      vertex 74.31718387294354 8.432748481411306 25.3
      vertex 74.31718387294354 1.5672515185886935 25.3
      vertex 75 1.5 25.3
    endloop
  endfacet
  facet normal 0 0 1
    outer loop
      vertex 73.66060798672218 8.233578363789503 25.3
      vertex 74.31718387294354 1.5672515185886935 25.3
      vertex 74.31718387294354 8.432748481411306 25.3
    endloop
  endfacet
  facet normal 0 0 1
    outer loop
      vertex 73.66060798672218 8.233578363789503 25.3
      vertex 73.66060798672218 1.7664216362104965 25.3
      vertex 74.31718387294354 1.5672515185886935 25.3
    endloop
  endfacet
  facet normal 0 0 1
    outer loop
      vertex 73.0555041844314 7.910143643058909 25.3
      vertex 73.66060798672218 1.7664216362104965 25.3
      vertex 73.66060798672218 8.233578363789503 25.3
    endloop
  endfacet
  facet normal 0 0 1
    outer loop
      vertex 73.0555041844314 7.910143643058909 25.3
      vertex 73.0555041844314 2.0898563569410915 25.3
      vertex 73.66060798672218 1.7664216362104965 25.3
    endloop
  endfacet
  facet normal 0 0 1
    outer loop
      vertex 72.52512626584708 7.474873734152917 25.3
      vertex 73.0555041844314 2.0898563569410915 25.3
      vertex 73.0555041844314 7.910143643058909 25.3
    endloop
  endfacet
  facet normal 0 0 1
    outer loop
      vertex 72.52512626584708 7.474873734152917 25.3
      vertex 72.52512626584708 2.5251262658470837 25.3
      vertex 73.0555041844314 2.0898563569410915 25.3
    endloop
  endfacet
  facet normal 0 0 1
    outer loop
      vertex 72.0898563569411 6.944495815568608 25.3
      vertex 72.52512626584708 2.5251262658470837 25.3
      vertex 72.52512626584708 7.474873734152917 25.3
    endloop
  endfacet
  facet normal 0 0 1
    outer loop
      vertex 72.0898563569411 6.944495815568608 25.3
      vertex 72.0898563569411 3.0555041844313924 25.3
      vertex 72.52512626584708 2.5251262658470837 25.3
    endloop
  endfacet
  facet normal 0 0 1
    outer loop
      vertex 71.7664216362105 6.3393920132778145 25.3
      vertex 72.0898563569411 3.0555041844313924 25.3
      vertex 72.0898563569411 6.944495815568608 25.3
    endloop
  endfacet
  facet normal 0 0 1
    outer loop
      vertex 71.7664216362105 6.3393920132778145 25.3
      vertex 71.7664216362105 3.6606079867221855 25.3
      vertex 72.0898563569411 3.0555041844313924 25.3
    endloop
  endfacet
  facet normal 0 0 1
    outer loop
      vertex 71.56725151858869 5.682816127056449 25.3
      vertex 71.7664216362105 3.6606079867221855 25.3
      vertex 71.7664216362105 6.3393920132778145 25.3
    endloop
  endfacet
  facet normal 0 0 1
    outer loop
      vertex 71.56725151858869 5.682816127056449 25.3
      vertex 71.56725151858869 4.317183872943551 25.3
      vertex 71.7664216362105 3.6606079867221855 25.3
    endloop
  endfacet
  facet normal 0 0 1
    outer loop
      vertex 71.56725151858869 4.317183872943551 25.3
      vertex 71.56725151858869 5.682816127056449 25.3
      vertex 71.5 5 25.3
    endloop
  endfacet
endsolid OpenSCAD_Model
