solid OpenSCAD_Model
  facet normal 0 -0.7933533402912286 -0.6087614290087291
    outer loop
      vertex -47.199999999999996 36.73397459621556 12.8
      vertex -49.3 36.73397459621556 12.8
      vertex -47.199999999999996 36.892893218813455 12.592893218813453
    endloop
  endfacet
  facet normal 1 0 0
    outer loop
      vertex -47.199999999999996 36.634074173710935 13.04118095489748
      vertex -47.199999999999996 36.634074173710935 13.55881904510252
      vertex -47.199999999999996 36.6 13.3
    endloop
  endfacet
  facet normal 1 0 0
    outer loop
      vertex -47.199999999999996 36.73397459621556 12.8
      vertex -47.199999999999996 36.73397459621556 13.8
      vertex -47.199999999999996 36.634074173710935 13.04118095489748
    endloop
  endfacet
  facet normal 1 0 0
    outer loop
      vertex -47.199999999999996 36.73397459621556 12.8
      vertex -47.199999999999996 36.892893218813455 12.592893218813453
      vertex -47.199999999999996 36.892893218813455 14.007106781186549
    endloop
  endfacet
  facet normal -2.9311795824331264e-18 -0.9238795325112936 -0.3826834323650732
    outer loop
      vertex -47.199999999999996 36.73397459621556 12.8
      vertex -47.199999999999996 36.634074173710935 13.04118095489748
      vertex -49.3 36.634074173710935 13.04118095489748
    endloop
  endfacet
  facet normal -1.0867754810743732e-18 -0.9914448613738094 -0.13052619222006073
    outer loop
      vertex -47.199999999999996 36.634074173710935 13.04118095489748
      vertex -47.199999999999996 36.6 13.3
      vertex -49.3 36.6 13.3
    endloop
  endfacet
  facet normal 0 -0.9238795325112936 -0.3826834323650732
    outer loop
      vertex -47.199999999999996 36.73397459621556 12.8
      vertex -49.3 36.634074173710935 13.04118095489748
      vertex -49.3 36.73397459621556 12.8
    endloop
  endfacet
  facet normal 0 -0.7933533402912286 -0.6087614290087291
    outer loop
      vertex -47.199999999999996 36.892893218813455 12.592893218813453
      vertex -49.3 36.73397459621556 12.8
      vertex -49.3 36.892893218813455 12.592893218813453
    endloop
  endfacet
  facet normal 0 -0.9914448613738094 -0.13052619222006073
    outer loop
      vertex -47.199999999999996 36.634074173710935 13.04118095489748
      vertex -49.3 36.6 13.3
      vertex -49.3 36.634074173710935 13.04118095489748
    endloop
  endfacet
  facet normal 0 -0.9914448613738094 0.13052619222006073
    outer loop
      vertex -47.199999999999996 36.6 13.3
      vertex -49.3 36.634074173710935 13.55881904510252
      vertex -49.3 36.6 13.3
    endloop
  endfacet
  facet normal 1 0 0
    outer loop
      vertex -47.199999999999996 36.634074173710935 13.04118095489748
      vertex -47.199999999999996 36.73397459621556 13.8
      vertex -47.199999999999996 36.634074173710935 13.55881904510252
    endloop
  endfacet
  facet normal 1 0 0
    outer loop
      vertex -47.199999999999996 36.73397459621556 12.8
      vertex -47.199999999999996 36.892893218813455 14.007106781186549
      vertex -47.199999999999996 36.73397459621556 13.8
    endloop
  endfacet
  facet normal 1.0867754810743732e-18 -0.9914448613738094 0.13052619222006073
    outer loop
      vertex -47.199999999999996 36.6 13.3
      vertex -47.199999999999996 36.634074173710935 13.55881904510252
      vertex -49.3 36.634074173710935 13.55881904510252
    endloop
  endfacet
  facet normal 2.9311795824331264e-18 -0.9238795325112936 0.3826834323650732
    outer loop
      vertex -47.199999999999996 36.634074173710935 13.55881904510252
      vertex -47.199999999999996 36.73397459621556 13.8
      vertex -49.3 36.73397459621556 13.8
    endloop
  endfacet
  facet normal 6.193869635370268e-18 -0.7933533402912286 0.6087614290087291
    outer loop
      vertex -47.199999999999996 36.73397459621556 13.8
      vertex -47.199999999999996 36.892893218813455 14.007106781186549
      vertex -49.3 36.892893218813455 14.007106781186549
    endloop
  endfacet
  facet normal 0 -0.9238795325112936 0.3826834323650732
    outer loop
      vertex -47.199999999999996 36.634074173710935 13.55881904510252
      vertex -49.3 36.73397459621556 13.8
      vertex -49.3 36.634074173710935 13.55881904510252
    endloop
  endfacet
  facet normal 0 -0.7933533402912286 0.6087614290087291
    outer loop
      vertex -47.199999999999996 36.73397459621556 13.8
      vertex -49.3 36.892893218813455 14.007106781186549
      vertex -49.3 36.73397459621556 13.8
    endloop
  endfacet
  facet normal 0 -0.3826834323650848 -0.9238795325112887
    outer loop
      vertex -47.199999999999996 37.1 12.433974596215561
      vertex -49.3 37.1 12.433974596215561
      vertex -47.199999999999996 37.34118095489748 12.334074173710933
    endloop
  endfacet
  facet normal 0 -0.13052619222005404 -0.9914448613738102
    outer loop
      vertex -47.199999999999996 37.34118095489748 12.334074173710933
      vertex -49.3 37.34118095489748 12.334074173710933
      vertex -47.199999999999996 37.6 12.3
    endloop
  endfacet
  facet normal 0 0.13052619222005404 -0.9914448613738102
    outer loop
      vertex -47.199999999999996 37.6 12.3
      vertex -49.3 37.6 12.3
      vertex -47.199999999999996 37.85881904510252 12.334074173710933
    endloop
  endfacet
  facet normal 0 -0.3826834323650848 -0.9238795325112887
    outer loop
      vertex -47.199999999999996 37.34118095489748 12.334074173710933
      vertex -49.3 37.1 12.433974596215561
      vertex -49.3 37.34118095489748 12.334074173710933
    endloop
  endfacet
  facet normal 0 -0.13052619222005404 -0.9914448613738102
    outer loop
      vertex -47.199999999999996 37.6 12.3
      vertex -49.3 37.34118095489748 12.334074173710933
      vertex -49.3 37.6 12.3
    endloop
  endfacet
  facet normal 0 0.13052619222005404 -0.9914448613738102
    outer loop
      vertex -47.199999999999996 37.85881904510252 12.334074173710933
      vertex -49.3 37.6 12.3
      vertex -49.3 37.85881904510252 12.334074173710933
    endloop
  endfacet
  facet normal 2.7239042362359565e-18 0.3826834323650848 -0.9238795325112888
    outer loop
      vertex -47.199999999999996 37.85881904510252 12.334074173710933
      vertex -49.309999999999995 38.1 12.433974596215561
      vertex -47.199999999999996 38.1 12.433974596215561
    endloop
  endfacet
  facet normal 0 0.38268343236508023 -0.9238795325112907
    outer loop
      vertex -47.199999999999996 37.85881904510252 12.334074173710933
      vertex -49.3 37.85881904510252 12.334074173710933
      vertex -49.3 37.9 12.351131883740942
    endloop
  endfacet
  facet normal 1.2676641346265186e-16 0.38268343236508573 -0.9238795325112884
    outer loop
      vertex -47.199999999999996 37.85881904510252 12.334074173710933
      vertex -49.3 37.9 12.351131883740942
      vertex -49.309999999999995 38.1 12.433974596215561
    endloop
  endfacet
  facet normal -5.372968711846706e-16 0.38268343236508573 -0.9238795325112884
    outer loop
      vertex -49.309999999999995 38.1 12.433974596215561
      vertex -49.3 37.9 12.351131883740942
      vertex -49.309999999999995 37.9 12.351131883740942
    endloop
  endfacet
  facet normal 0 -0.6087614290087238 -0.7933533402912328
    outer loop
      vertex -47.199999999999996 36.892893218813455 12.592893218813453
      vertex -49.3 36.892893218813455 12.592893218813453
      vertex -47.199999999999996 37.1 12.433974596215561
    endloop
  endfacet
  facet normal 1 0 0
    outer loop
      vertex -47.199999999999996 36.892893218813455 12.592893218813453
      vertex -47.199999999999996 37.1 12.433974596215561
      vertex -47.199999999999996 37.1 14.16602540378444
    endloop
  endfacet
  facet normal 1 0 0
    outer loop
      vertex -47.199999999999996 37.1 12.433974596215561
      vertex -47.199999999999996 37.34118095489748 12.334074173710933
      vertex -47.199999999999996 37.34118095489748 14.265925826289068
    endloop
  endfacet
  facet normal 1 0 0
    outer loop
      vertex -47.199999999999996 37.34118095489748 12.334074173710933
      vertex -47.199999999999996 37.6 12.3
      vertex -47.199999999999996 37.6 14.3
    endloop
  endfacet
  facet normal 1 0 0
    outer loop
      vertex -47.199999999999996 37.6 12.3
      vertex -47.199999999999996 37.85881904510252 12.334074173710933
      vertex -47.199999999999996 37.85881904510252 14.265925826289068
    endloop
  endfacet
  facet normal 0 -0.6087614290087238 -0.7933533402912328
    outer loop
      vertex -47.199999999999996 37.1 12.433974596215561
      vertex -49.3 36.892893218813455 12.592893218813453
      vertex -49.3 37.1 12.433974596215561
    endloop
  endfacet
  facet normal 1 0 0
    outer loop
      vertex -47.199999999999996 36.892893218813455 12.592893218813453
      vertex -47.199999999999996 37.1 14.16602540378444
      vertex -47.199999999999996 36.892893218813455 14.007106781186549
    endloop
  endfacet
  facet normal 1 0 0
    outer loop
      vertex -47.199999999999996 37.1 12.433974596215561
      vertex -47.199999999999996 37.34118095489748 14.265925826289068
      vertex -47.199999999999996 37.1 14.16602540378444
    endloop
  endfacet
  facet normal -2.942714185152529e-18 -0.6087614290087238 0.7933533402912328
    outer loop
      vertex -47.199999999999996 36.892893218813455 14.007106781186549
      vertex -47.199999999999996 37.1 14.16602540378444
      vertex -49.3 37.1 14.16602540378444
    endloop
  endfacet
  facet normal 2.7368752087894585e-18 -0.3826834323650848 0.9238795325112887
    outer loop
      vertex -47.199999999999996 37.1 14.16602540378444
      vertex -47.199999999999996 37.34118095489748 14.265925826289068
      vertex -49.3 37.34118095489748 14.265925826289068
    endloop
  endfacet
  facet normal 1 0 0
    outer loop
      vertex -47.199999999999996 37.34118095489748 12.334074173710933
      vertex -47.199999999999996 37.6 14.3
      vertex -47.199999999999996 37.34118095489748 14.265925826289068
    endloop
  endfacet
  facet normal 1 0 0
    outer loop
      vertex -47.199999999999996 37.6 12.3
      vertex -47.199999999999996 37.85881904510252 14.265925826289068
      vertex -47.199999999999996 37.6 14.3
    endloop
  endfacet
  facet normal 9.896232942525476e-19 -0.13052619222005404 0.9914448613738102
    outer loop
      vertex -47.199999999999996 37.34118095489748 14.265925826289068
      vertex -47.199999999999996 37.6 14.3
      vertex -49.3 37.6 14.3
    endloop
  endfacet
  facet normal -9.896232942525476e-19 0.13052619222005404 0.9914448613738102
    outer loop
      vertex -47.199999999999996 37.6 14.3
      vertex -47.199999999999996 37.85881904510252 14.265925826289068
      vertex -49.3 37.85881904510252 14.265925826289068
    endloop
  endfacet
  facet normal 0 -0.6087614290087238 0.7933533402912328
    outer loop
      vertex -47.199999999999996 36.892893218813455 14.007106781186549
      vertex -49.3 37.1 14.16602540378444
      vertex -49.3 36.892893218813455 14.007106781186549
    endloop
  endfacet
  facet normal 0 -0.3826834323650848 0.9238795325112887
    outer loop
      vertex -47.199999999999996 37.1 14.16602540378444
      vertex -49.3 37.34118095489748 14.265925826289068
      vertex -49.3 37.1 14.16602540378444
    endloop
  endfacet
  facet normal 0 -0.13052619222005404 0.9914448613738102
    outer loop
      vertex -47.199999999999996 37.34118095489748 14.265925826289068
      vertex -49.3 37.6 14.3
      vertex -49.3 37.34118095489748 14.265925826289068
    endloop
  endfacet
  facet normal 0 0.13052619222005404 0.9914448613738102
    outer loop
      vertex -47.199999999999996 37.6 14.3
      vertex -49.3 37.85881904510252 14.265925826289068
      vertex -49.3 37.6 14.3
    endloop
  endfacet
  facet normal 1 0 0
    outer loop
      vertex -47.199999999999996 37.85881904510252 12.334074173710933
      vertex -47.199999999999996 38.1 12.433974596215561
      vertex -47.199999999999996 38.1 14.16602540378444
    endloop
  endfacet
  facet normal -2.9287676724266905e-18 0.6087614290087239 -0.7933533402912328
    outer loop
      vertex -47.199999999999996 38.1 12.433974596215561
      vertex -49.309999999999995 38.30710678118655 12.592893218813453
      vertex -47.199999999999996 38.30710678118655 12.592893218813453
    endloop
  endfacet
  facet normal 0 0.7933533402912286 -0.6087614290087291
    outer loop
      vertex -47.199999999999996 38.30710678118655 12.592893218813453
      vertex -49.309999999999995 38.30710678118655 12.592893218813453
      vertex -47.199999999999996 38.46602540378444 12.8
    endloop
  endfacet
  facet normal 0 0.9238795325112936 -0.3826834323650732
    outer loop
      vertex -47.199999999999996 38.46602540378444 12.8
      vertex -49.309999999999995 38.46602540378444 12.8
      vertex -47.199999999999996 38.56592582628907 13.04118095489748
    endloop
  endfacet
  facet normal 1 0 0
    outer loop
      vertex -47.199999999999996 38.1 12.433974596215561
      vertex -47.199999999999996 38.30710678118655 12.592893218813453
      vertex -47.199999999999996 38.30710678118655 14.007106781186549
    endloop
  endfacet
  facet normal 1 0 0
    outer loop
      vertex -47.199999999999996 38.30710678118655 12.592893218813453
      vertex -47.199999999999996 38.46602540378444 12.8
      vertex -47.199999999999996 38.46602540378444 13.8
    endloop
  endfacet
  facet normal 1 0 0
    outer loop
      vertex -47.199999999999996 38.46602540378444 12.8
      vertex -47.199999999999996 38.56592582628907 13.04118095489748
      vertex -47.199999999999996 38.56592582628907 13.55881904510252
    endloop
  endfacet
  facet normal 1 0 0
    outer loop
      vertex -47.199999999999996 38.46602540378444 12.8
      vertex -47.199999999999996 38.56592582628907 13.55881904510252
      vertex -47.199999999999996 38.46602540378444 13.8
    endloop
  endfacet
  facet normal 1 0 0
    outer loop
      vertex -47.199999999999996 38.56592582628907 13.04118095489748
      vertex -47.199999999999996 38.6 13.3
      vertex -47.199999999999996 38.56592582628907 13.55881904510252
    endloop
  endfacet
  facet normal 0 0.9914448613738093 -0.13052619222006073
    outer loop
      vertex -47.199999999999996 38.56592582628907 13.04118095489748
      vertex -49.309999999999995 38.56592582628907 13.04118095489748
      vertex -47.199999999999996 38.6 13.3
    endloop
  endfacet
  facet normal 0 0.9914448613738093 0.13052619222006073
    outer loop
      vertex -47.199999999999996 38.6 13.3
      vertex -49.309999999999995 38.6 13.3
      vertex -47.199999999999996 38.56592582628907 13.55881904510252
    endloop
  endfacet
  facet normal 0 0.6087614290087239 -0.7933533402912328
    outer loop
      vertex -47.199999999999996 38.1 12.433974596215561
      vertex -49.309999999999995 38.1 12.433974596215561
      vertex -49.309999999999995 38.30710678118655 12.592893218813453
    endloop
  endfacet
  facet normal -1 0 0
    outer loop
      vertex -49.309999999999995 38.1 12.433974596215561
      vertex -49.309999999999995 37.9 12.351131883740942
      vertex -49.309999999999995 38.1 14.16602540378444
    endloop
  endfacet
  facet normal -1 0 0
    outer loop
      vertex -49.309999999999995 38.1 12.433974596215561
      vertex -49.309999999999995 38.1 14.16602540378444
      vertex -49.309999999999995 38.30710678118655 12.592893218813453
    endloop
  endfacet
  facet normal 0 0.7933533402912286 -0.6087614290087291
    outer loop
      vertex -47.199999999999996 38.46602540378444 12.8
      vertex -49.309999999999995 38.30710678118655 12.592893218813453
      vertex -49.309999999999995 38.46602540378444 12.8
    endloop
  endfacet
  facet normal 0 0.9238795325112936 -0.3826834323650732
    outer loop
      vertex -47.199999999999996 38.56592582628907 13.04118095489748
      vertex -49.309999999999995 38.46602540378444 12.8
      vertex -49.309999999999995 38.56592582628907 13.04118095489748
    endloop
  endfacet
  facet normal 0 0.9914448613738093 -0.13052619222006073
    outer loop
      vertex -47.199999999999996 38.6 13.3
      vertex -49.309999999999995 38.56592582628907 13.04118095489748
      vertex -49.309999999999995 38.6 13.3
    endloop
  endfacet
  facet normal -1 0 0
    outer loop
      vertex -49.309999999999995 38.30710678118655 12.592893218813453
      vertex -49.309999999999995 38.30710678118655 14.007106781186549
      vertex -49.309999999999995 38.46602540378444 12.8
    endloop
  endfacet
  facet normal -1 0 0
    outer loop
      vertex -49.309999999999995 38.46602540378444 12.8
      vertex -49.309999999999995 38.46602540378444 13.8
      vertex -49.309999999999995 38.56592582628907 13.04118095489748
    endloop
  endfacet
  facet normal -1 0 0
    outer loop
      vertex -49.309999999999995 38.56592582628907 13.04118095489748
      vertex -49.309999999999995 38.56592582628907 13.55881904510252
      vertex -49.309999999999995 38.6 13.3
    endloop
  endfacet
  facet normal 1 0 0
    outer loop
      vertex -47.199999999999996 37.85881904510252 12.334074173710933
      vertex -47.199999999999996 38.1 14.16602540378444
      vertex -47.199999999999996 37.85881904510252 14.265925826289068
    endloop
  endfacet
  facet normal 1 0 0
    outer loop
      vertex -47.199999999999996 38.1 12.433974596215561
      vertex -47.199999999999996 38.30710678118655 14.007106781186549
      vertex -47.199999999999996 38.1 14.16602540378444
    endloop
  endfacet
  facet normal -6.772837688743174e-16 0.3826834323650848 0.9238795325112887
    outer loop
      vertex -47.199999999999996 37.85881904510252 14.265925826289068
      vertex -47.199999999999996 38.1 14.16602540378444
      vertex -49.3 37.9 14.248868116259057
    endloop
  endfacet
  facet normal 0 0.6087614290087239 0.7933533402912328
    outer loop
      vertex -47.199999999999996 38.1 14.16602540378444
      vertex -47.199999999999996 38.30710678118655 14.007106781186549
      vertex -49.309999999999995 38.1 14.16602540378444
    endloop
  endfacet
  facet normal 1 0 0
    outer loop
      vertex -47.199999999999996 38.30710678118655 12.592893218813453
      vertex -47.199999999999996 38.46602540378444 13.8
      vertex -47.199999999999996 38.30710678118655 14.007106781186549
    endloop
  endfacet
  facet normal 0 0.9238795325112936 0.3826834323650732
    outer loop
      vertex -47.199999999999996 38.56592582628907 13.55881904510252
      vertex -49.309999999999995 38.56592582628907 13.55881904510252
      vertex -47.199999999999996 38.46602540378444 13.8
    endloop
  endfacet
  facet normal 0 0.7933533402912286 0.6087614290087291
    outer loop
      vertex -47.199999999999996 38.46602540378444 13.8
      vertex -49.309999999999995 38.46602540378444 13.8
      vertex -47.199999999999996 38.30710678118655 14.007106781186549
    endloop
  endfacet
  facet normal -1 0 0
    outer loop
      vertex -49.309999999999995 38.1 14.16602540378444
      vertex -49.309999999999995 37.9 12.351131883740942
      vertex -49.309999999999995 37.9 14.24886811625906
    endloop
  endfacet
  facet normal 0 0.38268343236511426 0.9238795325112766
    outer loop
      vertex -47.199999999999996 37.85881904510252 14.265925826289068
      vertex -49.3 37.9 14.248868116259057
      vertex -49.3 37.85881904510252 14.265925826289068
    endloop
  endfacet
  facet normal 0 0.38268343236507874 0.9238795325112913
    outer loop
      vertex -47.199999999999996 38.1 14.16602540378444
      vertex -49.309999999999995 38.1 14.16602540378444
      vertex -49.3 37.9 14.248868116259057
    endloop
  endfacet
  facet normal 1.6465126950705064e-13 0.38268343236508573 0.9238795325112884
    outer loop
      vertex -49.309999999999995 38.1 14.16602540378444
      vertex -49.309999999999995 37.9 14.24886811625906
      vertex -49.3 37.9 14.248868116259057
    endloop
  endfacet
  facet normal -1.0816248863773392e-18 0.9914448613738093 0.13052619222006073
    outer loop
      vertex -49.309999999999995 38.6 13.3
      vertex -49.309999999999995 38.56592582628907 13.55881904510252
      vertex -47.199999999999996 38.56592582628907 13.55881904510252
    endloop
  endfacet
  facet normal 0 0.9238795325112936 0.3826834323650732
    outer loop
      vertex -47.199999999999996 38.46602540378444 13.8
      vertex -49.309999999999995 38.56592582628907 13.55881904510252
      vertex -49.309999999999995 38.46602540378444 13.8
    endloop
  endfacet
  facet normal -1 0 0
    outer loop
      vertex -49.309999999999995 38.30710678118655 12.592893218813453
      vertex -49.309999999999995 38.1 14.16602540378444
      vertex -49.309999999999995 38.30710678118655 14.007106781186549
    endloop
  endfacet
  facet normal -1 0 0
    outer loop
      vertex -49.309999999999995 38.46602540378444 12.8
      vertex -49.309999999999995 38.30710678118655 14.007106781186549
      vertex -49.309999999999995 38.46602540378444 13.8
    endloop
  endfacet
  facet normal -1 0 0
    outer loop
      vertex -49.309999999999995 38.56592582628907 13.04118095489748
      vertex -49.309999999999995 38.46602540378444 13.8
      vertex -49.309999999999995 38.56592582628907 13.55881904510252
    endloop
  endfacet
  facet normal 0 0.6087614290087239 0.7933533402912328
    outer loop
      vertex -47.199999999999996 38.30710678118655 14.007106781186549
      vertex -49.309999999999995 38.30710678118655 14.007106781186549
      vertex -49.309999999999995 38.1 14.16602540378444
    endloop
  endfacet
  facet normal 0 0.7933533402912286 0.6087614290087291
    outer loop
      vertex -47.199999999999996 38.30710678118655 14.007106781186549
      vertex -49.309999999999995 38.46602540378444 13.8
      vertex -49.309999999999995 38.30710678118655 14.007106781186549
    endloop
  endfacet
  facet normal 0 -0.7933533402912286 -0.608761429008729
    outer loop
      vertex -69 36.73397459621556 12.8
      vertex -66.9 36.892893218813455 12.592893218813453
      vertex -66.9 36.73397459621556 12.8
    endloop
  endfacet
  facet normal 0 -0.9238795325112936 -0.3826834323650732
    outer loop
      vertex -69 36.634074173710935 13.04118095489748
      vertex -66.9 36.73397459621556 12.8
      vertex -66.9 36.634074173710935 13.04118095489748
    endloop
  endfacet
  facet normal 0 -0.9914448613738092 -0.1305261922200607
    outer loop
      vertex -69 36.6 13.3
      vertex -66.9 36.634074173710935 13.04118095489748
      vertex -66.9 36.6 13.3
    endloop
  endfacet
  facet normal 0 -0.9238795325112936 -0.3826834323650732
    outer loop
      vertex -69 36.73397459621556 12.8
      vertex -66.9 36.73397459621556 12.8
      vertex -69 36.634074173710935 13.04118095489748
    endloop
  endfacet
  facet normal -6.193869635370288e-18 -0.7933533402912286 -0.608761429008729
    outer loop
      vertex -69 36.73397459621556 12.8
      vertex -69 36.892893218813455 12.592893218813453
      vertex -66.9 36.892893218813455 12.592893218813453
    endloop
  endfacet
  facet normal 0 -0.9914448613738092 -0.1305261922200607
    outer loop
      vertex -69 36.634074173710935 13.04118095489748
      vertex -66.9 36.634074173710935 13.04118095489748
      vertex -69 36.6 13.3
    endloop
  endfacet
  facet normal 0 -0.9914448613738092 0.1305261922200607
    outer loop
      vertex -69 36.6 13.3
      vertex -66.9 36.6 13.3
      vertex -69 36.634074173710935 13.55881904510252
    endloop
  endfacet
  facet normal -1 0 0
    outer loop
      vertex -69 36.73397459621556 12.8
      vertex -69 36.634074173710935 13.04118095489748
      vertex -69 36.634074173710935 13.55881904510252
    endloop
  endfacet
  facet normal -1 0 0
    outer loop
      vertex -69 36.634074173710935 13.04118095489748
      vertex -69 36.6 13.3
      vertex -69 36.634074173710935 13.55881904510252
    endloop
  endfacet
  facet normal -1 0 0
    outer loop
      vertex -69 36.73397459621556 12.8
      vertex -69 36.634074173710935 13.55881904510252
      vertex -69 36.73397459621556 13.8
    endloop
  endfacet
  facet normal -1 0 0
    outer loop
      vertex -69 36.73397459621556 12.8
      vertex -69 36.73397459621556 13.8
      vertex -69 36.892893218813455 12.592893218813453
    endloop
  endfacet
  facet normal 0 -0.9914448613738092 0.1305261922200607
    outer loop
      vertex -69 36.634074173710935 13.55881904510252
      vertex -66.9 36.6 13.3
      vertex -66.9 36.634074173710935 13.55881904510252
    endloop
  endfacet
  facet normal 0 -0.9238795325112936 0.3826834323650732
    outer loop
      vertex -69 36.73397459621556 13.8
      vertex -66.9 36.634074173710935 13.55881904510252
      vertex -66.9 36.73397459621556 13.8
    endloop
  endfacet
  facet normal 0 -0.7933533402912286 0.608761429008729
    outer loop
      vertex -69 36.892893218813455 14.007106781186549
      vertex -66.9 36.73397459621556 13.8
      vertex -66.9 36.892893218813455 14.007106781186549
    endloop
  endfacet
  facet normal 0 -0.9238795325112936 0.3826834323650732
    outer loop
      vertex -69 36.634074173710935 13.55881904510252
      vertex -66.9 36.634074173710935 13.55881904510252
      vertex -69 36.73397459621556 13.8
    endloop
  endfacet
  facet normal -1 0 0
    outer loop
      vertex -69 36.892893218813455 12.592893218813453
      vertex -69 36.73397459621556 13.8
      vertex -69 36.892893218813455 14.007106781186549
    endloop
  endfacet
  facet normal 0 -0.7933533402912286 0.608761429008729
    outer loop
      vertex -69 36.73397459621556 13.8
      vertex -66.9 36.73397459621556 13.8
      vertex -69 36.892893218813455 14.007106781186549
    endloop
  endfacet
  facet normal 0 -0.3826834323650848 -0.9238795325112887
    outer loop
      vertex -69 37.1 12.433974596215561
      vertex -66.9 37.34118095489748 12.334074173710933
      vertex -66.9 37.1 12.433974596215561
    endloop
  endfacet
  facet normal 0 -0.13052619222005404 -0.9914448613738102
    outer loop
      vertex -69 37.34118095489748 12.334074173710933
      vertex -66.9 37.6 12.3
      vertex -66.9 37.34118095489748 12.334074173710933
    endloop
  endfacet
  facet normal 0 0.13052619222005404 -0.9914448613738102
    outer loop
      vertex -69 37.6 12.3
      vertex -66.9 37.85881904510252 12.334074173710933
      vertex -66.9 37.6 12.3
    endloop
  endfacet
  facet normal -2.7368752087894674e-18 -0.3826834323650848 -0.9238795325112887
    outer loop
      vertex -69 37.1 12.433974596215561
      vertex -69 37.34118095489748 12.334074173710933
      vertex -66.9 37.34118095489748 12.334074173710933
    endloop
  endfacet
  facet normal -9.89623294252551e-19 -0.13052619222005404 -0.9914448613738102
    outer loop
      vertex -69 37.34118095489748 12.334074173710933
      vertex -69 37.6 12.3
      vertex -66.9 37.6 12.3
    endloop
  endfacet
  facet normal 9.89623294252551e-19 0.13052619222005404 -0.9914448613738102
    outer loop
      vertex -69 37.6 12.3
      vertex -69 37.85881904510252 12.334074173710933
      vertex -66.9 37.85881904510252 12.334074173710933
    endloop
  endfacet
  facet normal -1.6465126950693366e-13 0.38268343236508573 -0.9238795325112884
    outer loop
      vertex -66.89 38.1 12.433974596215561
      vertex -66.89 37.9 12.351131883740942
      vertex -66.9 37.9 12.351131883740944
    endloop
  endfacet
  facet normal 0 0.38268343236511426 -0.9238795325112766
    outer loop
      vertex -69 37.85881904510252 12.334074173710933
      vertex -66.9 37.9 12.351131883740944
      vertex -66.9 37.85881904510252 12.334074173710933
    endloop
  endfacet
  facet normal 0 0.38268343236507874 -0.9238795325112913
    outer loop
      vertex -66.89 38.1 12.433974596215561
      vertex -66.9 37.9 12.351131883740944
      vertex -69 38.1 12.433974596215561
    endloop
  endfacet
  facet normal 6.772837688743196e-16 0.3826834323650848 -0.9238795325112887
    outer loop
      vertex -69 37.85881904510252 12.334074173710933
      vertex -69 38.1 12.433974596215561
      vertex -66.9 37.9 12.351131883740944
    endloop
  endfacet
  facet normal 0 -0.6087614290087238 -0.7933533402912327
    outer loop
      vertex -69 36.892893218813455 12.592893218813453
      vertex -66.9 37.1 12.433974596215561
      vertex -66.9 36.892893218813455 12.592893218813453
    endloop
  endfacet
  facet normal 2.9427141851525387e-18 -0.6087614290087238 -0.7933533402912327
    outer loop
      vertex -69 36.892893218813455 12.592893218813453
      vertex -69 37.1 12.433974596215561
      vertex -66.9 37.1 12.433974596215561
    endloop
  endfacet
  facet normal -1 0 0
    outer loop
      vertex -69 36.892893218813455 12.592893218813453
      vertex -69 36.892893218813455 14.007106781186549
      vertex -69 37.1 12.433974596215561
    endloop
  endfacet
  facet normal -1 0 0
    outer loop
      vertex -69 37.1 12.433974596215561
      vertex -69 37.1 14.16602540378444
      vertex -69 37.34118095489748 12.334074173710933
    endloop
  endfacet
  facet normal -1 0 0
    outer loop
      vertex -69 37.34118095489748 12.334074173710933
      vertex -69 37.34118095489748 14.265925826289068
      vertex -69 37.6 12.3
    endloop
  endfacet
  facet normal -1 0 0
    outer loop
      vertex -69 37.6 12.3
      vertex -69 37.6 14.3
      vertex -69 37.85881904510252 12.334074173710933
    endloop
  endfacet
  facet normal 0 -0.6087614290087238 0.7933533402912327
    outer loop
      vertex -69 37.1 14.16602540378444
      vertex -66.9 36.892893218813455 14.007106781186549
      vertex -66.9 37.1 14.16602540378444
    endloop
  endfacet
  facet normal 0 -0.3826834323650848 0.9238795325112887
    outer loop
      vertex -69 37.34118095489748 14.265925826289068
      vertex -66.9 37.1 14.16602540378444
      vertex -66.9 37.34118095489748 14.265925826289068
    endloop
  endfacet
  facet normal 0 -0.13052619222005404 0.9914448613738102
    outer loop
      vertex -69 37.6 14.3
      vertex -66.9 37.34118095489748 14.265925826289068
      vertex -66.9 37.6 14.3
    endloop
  endfacet
  facet normal 0 0.13052619222005404 0.9914448613738102
    outer loop
      vertex -69 37.85881904510252 14.265925826289068
      vertex -66.9 37.6 14.3
      vertex -66.9 37.85881904510252 14.265925826289068
    endloop
  endfacet
  facet normal -1 0 0
    outer loop
      vertex -69 36.892893218813455 14.007106781186549
      vertex -69 37.1 14.16602540378444
      vertex -69 37.1 12.433974596215561
    endloop
  endfacet
  facet normal -1 0 0
    outer loop
      vertex -69 37.34118095489748 12.334074173710933
      vertex -69 37.1 14.16602540378444
      vertex -69 37.34118095489748 14.265925826289068
    endloop
  endfacet
  facet normal 0 -0.6087614290087238 0.7933533402912327
    outer loop
      vertex -69 36.892893218813455 14.007106781186549
      vertex -66.9 36.892893218813455 14.007106781186549
      vertex -69 37.1 14.16602540378444
    endloop
  endfacet
  facet normal 0 -0.3826834323650848 0.9238795325112887
    outer loop
      vertex -69 37.1 14.16602540378444
      vertex -66.9 37.1 14.16602540378444
      vertex -69 37.34118095489748 14.265925826289068
    endloop
  endfacet
  facet normal -1 0 0
    outer loop
      vertex -69 37.6 12.3
      vertex -69 37.34118095489748 14.265925826289068
      vertex -69 37.6 14.3
    endloop
  endfacet
  facet normal -1 0 0
    outer loop
      vertex -69 37.85881904510252 12.334074173710933
      vertex -69 37.6 14.3
      vertex -69 37.85881904510252 14.265925826289068
    endloop
  endfacet
  facet normal 0 -0.13052619222005404 0.9914448613738102
    outer loop
      vertex -69 37.34118095489748 14.265925826289068
      vertex -66.9 37.34118095489748 14.265925826289068
      vertex -69 37.6 14.3
    endloop
  endfacet
  facet normal 0 0.13052619222005404 0.9914448613738102
    outer loop
      vertex -69 37.6 14.3
      vertex -66.9 37.6 14.3
      vertex -69 37.85881904510252 14.265925826289068
    endloop
  endfacet
  facet normal 1 0 0
    outer loop
      vertex -66.89 38.1 12.433974596215561
      vertex -66.89 37.9 14.24886811625906
      vertex -66.89 37.9 12.351131883740942
    endloop
  endfacet
  facet normal -2.9287676724266905e-18 0.6087614290087239 -0.7933533402912328
    outer loop
      vertex -66.89 38.1 12.433974596215561
      vertex -69 38.30710678118655 12.592893218813453
      vertex -66.89 38.30710678118655 12.592893218813453
    endloop
  endfacet
  facet normal 0 0.7933533402912286 -0.6087614290087291
    outer loop
      vertex -66.89 38.30710678118655 12.592893218813453
      vertex -69 38.30710678118655 12.592893218813453
      vertex -66.89 38.46602540378444 12.8
    endloop
  endfacet
  facet normal 0 0.9238795325112936 -0.3826834323650732
    outer loop
      vertex -66.89 38.46602540378444 12.8
      vertex -69 38.46602540378444 12.8
      vertex -66.89 38.56592582628907 13.04118095489748
    endloop
  endfacet
  facet normal 1 0 0
    outer loop
      vertex -66.89 38.1 12.433974596215561
      vertex -66.89 38.30710678118655 12.592893218813453
      vertex -66.89 38.30710678118655 14.007106781186549
    endloop
  endfacet
  facet normal 1 0 0
    outer loop
      vertex -66.89 38.30710678118655 12.592893218813453
      vertex -66.89 38.46602540378444 12.8
      vertex -66.89 38.46602540378444 13.8
    endloop
  endfacet
  facet normal 1 0 0
    outer loop
      vertex -66.89 38.46602540378444 12.8
      vertex -66.89 38.56592582628907 13.04118095489748
      vertex -66.89 38.56592582628907 13.55881904510252
    endloop
  endfacet
  facet normal 1 0 0
    outer loop
      vertex -66.89 38.46602540378444 12.8
      vertex -66.89 38.56592582628907 13.55881904510252
      vertex -66.89 38.46602540378444 13.8
    endloop
  endfacet
  facet normal 1 0 0
    outer loop
      vertex -66.89 38.56592582628907 13.04118095489748
      vertex -66.89 38.6 13.3
      vertex -66.89 38.56592582628907 13.55881904510252
    endloop
  endfacet
  facet normal 0 0.9914448613738093 -0.13052619222006073
    outer loop
      vertex -66.89 38.56592582628907 13.04118095489748
      vertex -69 38.56592582628907 13.04118095489748
      vertex -66.89 38.6 13.3
    endloop
  endfacet
  facet normal 0 0.9914448613738093 0.13052619222006073
    outer loop
      vertex -66.89 38.6 13.3
      vertex -69 38.6 13.3
      vertex -66.89 38.56592582628907 13.55881904510252
    endloop
  endfacet
  facet normal 0 0.6087614290087239 -0.7933533402912328
    outer loop
      vertex -66.89 38.1 12.433974596215561
      vertex -69 38.1 12.433974596215561
      vertex -69 38.30710678118655 12.592893218813453
    endloop
  endfacet
  facet normal -1 0 0
    outer loop
      vertex -69 37.85881904510252 12.334074173710933
      vertex -69 37.85881904510252 14.265925826289068
      vertex -69 38.1 12.433974596215561
    endloop
  endfacet
  facet normal -1 0 0
    outer loop
      vertex -69 38.1 12.433974596215561
      vertex -69 38.1 14.16602540378444
      vertex -69 38.30710678118655 12.592893218813453
    endloop
  endfacet
  facet normal 0 0.7933533402912286 -0.6087614290087291
    outer loop
      vertex -66.89 38.46602540378444 12.8
      vertex -69 38.30710678118655 12.592893218813453
      vertex -69 38.46602540378444 12.8
    endloop
  endfacet
  facet normal 0 0.9238795325112936 -0.3826834323650732
    outer loop
      vertex -66.89 38.56592582628907 13.04118095489748
      vertex -69 38.46602540378444 12.8
      vertex -69 38.56592582628907 13.04118095489748
    endloop
  endfacet
  facet normal 0 0.9914448613738093 -0.13052619222006073
    outer loop
      vertex -66.89 38.6 13.3
      vertex -69 38.56592582628907 13.04118095489748
      vertex -69 38.6 13.3
    endloop
  endfacet
  facet normal -1 0 0
    outer loop
      vertex -69 38.30710678118655 12.592893218813453
      vertex -69 38.30710678118655 14.007106781186549
      vertex -69 38.46602540378444 12.8
    endloop
  endfacet
  facet normal -1 0 0
    outer loop
      vertex -69 38.46602540378444 12.8
      vertex -69 38.46602540378444 13.8
      vertex -69 38.56592582628907 13.04118095489748
    endloop
  endfacet
  facet normal -1 0 0
    outer loop
      vertex -69 38.56592582628907 13.04118095489748
      vertex -69 38.56592582628907 13.55881904510252
      vertex -69 38.6 13.3
    endloop
  endfacet
  facet normal 1 0 0
    outer loop
      vertex -66.89 38.1 12.433974596215561
      vertex -66.89 38.30710678118655 14.007106781186549
      vertex -66.89 38.1 14.16602540378444
    endloop
  endfacet
  facet normal 1 0 0
    outer loop
      vertex -66.89 38.1 12.433974596215561
      vertex -66.89 38.1 14.16602540378444
      vertex -66.89 37.9 14.24886811625906
    endloop
  endfacet
  facet normal 5.372968711842889e-16 0.38268343236508573 0.9238795325112884
    outer loop
      vertex -66.89 38.1 14.16602540378444
      vertex -66.9 37.9 14.24886811625906
      vertex -66.89 37.9 14.24886811625906
    endloop
  endfacet
  facet normal 0 0.38268343236508023 0.9238795325112906
    outer loop
      vertex -69 37.85881904510252 14.265925826289068
      vertex -66.9 37.85881904510252 14.265925826289068
      vertex -66.9 37.9 14.24886811625906
    endloop
  endfacet
  facet normal -1.252763012330416e-16 0.3826834323650858 0.9238795325112885
    outer loop
      vertex -66.89 38.1 14.16602540378444
      vertex -69 37.85881904510252 14.265925826289068
      vertex -66.9 37.9 14.24886811625906
    endloop
  endfacet
  facet normal 0 0.6087614290087239 0.7933533402912328
    outer loop
      vertex -66.89 38.1 14.16602540378444
      vertex -66.89 38.30710678118655 14.007106781186549
      vertex -69 38.1 14.16602540378444
    endloop
  endfacet
  facet normal 1 0 0
    outer loop
      vertex -66.89 38.30710678118655 12.592893218813453
      vertex -66.89 38.46602540378444 13.8
      vertex -66.89 38.30710678118655 14.007106781186549
    endloop
  endfacet
  facet normal 0 0.9238795325112936 0.3826834323650732
    outer loop
      vertex -66.89 38.56592582628907 13.55881904510252
      vertex -69 38.56592582628907 13.55881904510252
      vertex -66.89 38.46602540378444 13.8
    endloop
  endfacet
  facet normal 0 0.7933533402912286 0.6087614290087291
    outer loop
      vertex -66.89 38.46602540378444 13.8
      vertex -69 38.46602540378444 13.8
      vertex -66.89 38.30710678118655 14.007106781186549
    endloop
  endfacet
  facet normal -1 0 0
    outer loop
      vertex -69 38.1 12.433974596215561
      vertex -69 37.85881904510252 14.265925826289068
      vertex -69 38.1 14.16602540378444
    endloop
  endfacet
  facet normal 0 0.3826834323650848 0.9238795325112888
    outer loop
      vertex -66.89 38.1 14.16602540378444
      vertex -69 38.1 14.16602540378444
      vertex -69 37.85881904510252 14.265925826289068
    endloop
  endfacet
  facet normal -1.0816248863773392e-18 0.9914448613738093 0.13052619222006073
    outer loop
      vertex -69 38.6 13.3
      vertex -69 38.56592582628907 13.55881904510252
      vertex -66.89 38.56592582628907 13.55881904510252
    endloop
  endfacet
  facet normal 0 0.9238795325112936 0.3826834323650732
    outer loop
      vertex -66.89 38.46602540378444 13.8
      vertex -69 38.56592582628907 13.55881904510252
      vertex -69 38.46602540378444 13.8
    endloop
  endfacet
  facet normal -1 0 0
    outer loop
      vertex -69 38.30710678118655 12.592893218813453
      vertex -69 38.1 14.16602540378444
      vertex -69 38.30710678118655 14.007106781186549
    endloop
  endfacet
  facet normal -1 0 0
    outer loop
      vertex -69 38.46602540378444 12.8
      vertex -69 38.30710678118655 14.007106781186549
      vertex -69 38.46602540378444 13.8
    endloop
  endfacet
  facet normal -1 0 0
    outer loop
      vertex -69 38.56592582628907 13.04118095489748
      vertex -69 38.46602540378444 13.8
      vertex -69 38.56592582628907 13.55881904510252
    endloop
  endfacet
  facet normal 0 0.6087614290087239 0.7933533402912328
    outer loop
      vertex -66.89 38.30710678118655 14.007106781186549
      vertex -69 38.30710678118655 14.007106781186549
      vertex -69 38.1 14.16602540378444
    endloop
  endfacet
  facet normal 0 0.7933533402912286 0.6087614290087291
    outer loop
      vertex -66.89 38.30710678118655 14.007106781186549
      vertex -69 38.46602540378444 13.8
      vertex -69 38.30710678118655 14.007106781186549
    endloop
  endfacet
  facet normal 1 0 0
    outer loop
      vertex -49.3 35.5 11.6
      vertex -49.3 37.1 12.433974596215561
      vertex -49.3 36.892893218813455 12.592893218813453
    endloop
  endfacet
  facet normal 1 0 0
    outer loop
      vertex -49.3 35.5 11.6
      vertex -49.3 36.892893218813455 12.592893218813453
      vertex -49.3 36.73397459621556 12.8
    endloop
  endfacet
  facet normal 1 0 0
    outer loop
      vertex -49.3 35.5 11.6
      vertex -49.3 37.9 11.6
      vertex -49.3 37.34118095489748 12.334074173710933
    endloop
  endfacet
  facet normal 1 0 0
    outer loop
      vertex -49.3 35.5 11.6
      vertex -49.3 37.34118095489748 12.334074173710933
      vertex -49.3 37.1 12.433974596215561
    endloop
  endfacet
  facet normal 0 0 -1
    outer loop
      vertex -49.3 35.5 11.6
      vertex -55.5 36.4 11.6
      vertex -49.3 37.9 11.6
    endloop
  endfacet
  facet normal 1 0 0
    outer loop
      vertex -49.3 35.5 11.6
      vertex -49.3 36.634074173710935 13.04118095489748
      vertex -49.3 35.5 14.3
    endloop
  endfacet
  facet normal 1 0 0
    outer loop
      vertex -49.3 35.5 11.6
      vertex -49.3 36.73397459621556 12.8
      vertex -49.3 36.634074173710935 13.04118095489748
    endloop
  endfacet
  facet normal 1 0 0
    outer loop
      vertex -49.3 35.5 14.3
      vertex -49.3 36.634074173710935 13.04118095489748
      vertex -49.3 36.6 13.3
    endloop
  endfacet
  facet normal 1 0 0
    outer loop
      vertex -49.3 35.5 14.3
      vertex -49.3 36.6 13.3
      vertex -49.3 36.634074173710935 13.55881904510252
    endloop
  endfacet
  facet normal 1 0 0
    outer loop
      vertex -49.3 35.5 14.3
      vertex -49.3 36.634074173710935 13.55881904510252
      vertex -49.3 36.73397459621556 13.8
    endloop
  endfacet
  facet normal 1 0 0
    outer loop
      vertex -49.3 35.5 14.3
      vertex -49.3 36.73397459621556 13.8
      vertex -49.3 36.892893218813455 14.007106781186549
    endloop
  endfacet
  facet normal 1 0 0
    outer loop
      vertex -49.3 35.5 14.3
      vertex -49.3 36.892893218813455 14.007106781186549
      vertex -49.3 37.1 14.16602540378444
    endloop
  endfacet
  facet normal 1 0 0
    outer loop
      vertex -49.3 35.5 14.3
      vertex -49.3 37.1 14.16602540378444
      vertex -49.3 37.34118095489748 14.265925826289068
    endloop
  endfacet
  facet normal 1 0 0
    outer loop
      vertex -49.3 35.5 14.3
      vertex -49.3 37.34118095489748 14.265925826289068
      vertex -49.3 37.6 14.3
    endloop
  endfacet
  facet normal 1 0 0
    outer loop
      vertex -49.3 37.9 11.6
      vertex -49.3 37.6 12.3
      vertex -49.3 37.34118095489748 12.334074173710933
    endloop
  endfacet
  facet normal 1 0 0
    outer loop
      vertex -49.3 37.9 11.6
      vertex -49.3 37.85881904510252 12.334074173710933
      vertex -49.3 37.6 12.3
    endloop
  endfacet
  facet normal 1 0 0
    outer loop
      vertex -49.3 37.9 11.6
      vertex -49.3 37.9 12.351131883740942
      vertex -49.3 37.85881904510252 12.334074173710933
    endloop
  endfacet
  facet normal 0 1 0
    outer loop
      vertex -49.3 37.9 11.6
      vertex -49.309999999999995 37.9 12.351131883740942
      vertex -49.3 37.9 12.351131883740942
    endloop
  endfacet
  facet normal 0 1 0
    outer loop
      vertex -49.3 37.9 11.6
      vertex -55.5 37.9 11.61
      vertex -49.309999999999995 37.9 12.351131883740942
    endloop
  endfacet
  facet normal 1 0 0
    outer loop
      vertex -49.3 37.9 14.3
      vertex -49.3 37.6 14.3
      vertex -49.3 37.85881904510252 14.265925826289068
    endloop
  endfacet
  facet normal 0 1 0
    outer loop
      vertex -49.3 37.9 14.3
      vertex -49.3 37.9 14.248868116259057
      vertex -49.309999999999995 37.9 14.24886811625906
    endloop
  endfacet
  facet normal 1 0 0
    outer loop
      vertex -49.3 37.9 14.3
      vertex -49.3 37.85881904510252 14.265925826289068
      vertex -49.3 37.9 14.248868116259057
    endloop
  endfacet
  facet normal 0 1 0
    outer loop
      vertex -55.5 37.9 11.61
      vertex -49.309999999999995 37.9 14.24886811625906
      vertex -49.309999999999995 37.9 12.351131883740942
    endloop
  endfacet
  facet normal 0 1 0
    outer loop
      vertex -49.3 37.9 14.3
      vertex -49.309999999999995 37.9 14.24886811625906
      vertex -55.5 37.9 11.61
    endloop
  endfacet
  facet normal 0 0 -1
    outer loop
      vertex -49.3 35.5 11.6
      vertex -66.9 35.5 11.6
      vertex -55.5 36.4 11.6
    endloop
  endfacet
  facet normal 0 -1 0
    outer loop
      vertex -49.3 35.5 11.6
      vertex -49.3 35.5 14.3
      vertex -63.5 35.5 12.6
    endloop
  endfacet
  facet normal 0 0 1
    outer loop
      vertex -49.3 35.5 14.3
      vertex -49.3 37.6 14.3
      vertex -63.5 35.5 14.3
    endloop
  endfacet
  facet normal 0 0 -1
    outer loop
      vertex -49.3 37.9 11.6
      vertex -55.5 36.4 11.6
      vertex -55.5 37.9 11.6
    endloop
  endfacet
  facet normal 0 1 0
    outer loop
      vertex -49.3 37.9 11.6
      vertex -55.5 37.9 11.6
      vertex -55.5 37.9 11.61
    endloop
  endfacet
  facet normal 0 0 1
    outer loop
      vertex -49.3 37.9 14.3
      vertex -63.5 35.5 14.3
      vertex -49.3 37.6 14.3
    endloop
  endfacet
  facet normal 0 1 0
    outer loop
      vertex -49.3 37.9 14.3
      vertex -55.5 37.9 11.61
      vertex -59.5 37.9 11.61
    endloop
  endfacet
  facet normal 0 -1 0
    outer loop
      vertex -49.3 35.5 11.6
      vertex -63.5 35.5 12.6
      vertex -66.9 35.5 11.6
    endloop
  endfacet
  facet normal 0 0 -1
    outer loop
      vertex -66.9 35.5 11.6
      vertex -59.5 36.4 11.6
      vertex -55.5 36.4 11.6
    endloop
  endfacet
  facet normal 0 -1 0
    outer loop
      vertex -49.3 35.5 14.3
      vertex -63.5 35.5 14.3
      vertex -63.5 35.5 12.6
    endloop
  endfacet
  facet normal 0 0 1
    outer loop
      vertex -49.3 37.9 14.3
      vertex -66.5 35.5 14.3
      vertex -63.5 35.5 14.3
    endloop
  endfacet
  facet normal 0 0 1
    outer loop
      vertex -49.3 37.9 14.3
      vertex -66.9 35.5 14.3
      vertex -66.5 35.5 14.3
    endloop
  endfacet
  facet normal 0 0 -1
    outer loop
      vertex -66.9 37.9 11.6
      vertex -59.5 37.9 11.6
      vertex -59.5 36.4 11.6
    endloop
  endfacet
  facet normal 0 1 0
    outer loop
      vertex -66.9 37.9 11.6
      vertex -59.5 37.9 11.61
      vertex -59.5 37.9 11.6
    endloop
  endfacet
  facet normal 0 1 0
    outer loop
      vertex -49.3 37.9 14.3
      vertex -59.5 37.9 11.61
      vertex -66.9 37.9 11.6
    endloop
  endfacet
  facet normal 0 0 1
    outer loop
      vertex -49.3 37.9 14.3
      vertex -66.9 37.6 14.3
      vertex -66.9 35.5 14.3
    endloop
  endfacet
  facet normal 0 1 0
    outer loop
      vertex -49.3 37.9 14.3
      vertex -66.9 37.9 11.6
      vertex -66.89 37.9 12.351131883740942
    endloop
  endfacet
  facet normal 0 1 0
    outer loop
      vertex -49.3 37.9 14.3
      vertex -66.89 37.9 12.351131883740942
      vertex -66.89 37.9 14.24886811625906
    endloop
  endfacet
  facet normal 0 0 1
    outer loop
      vertex -49.3 37.9 14.3
      vertex -66.9 37.9 14.3
      vertex -66.9 37.6 14.3
    endloop
  endfacet
  facet normal 0 1 0
    outer loop
      vertex -49.3 37.9 14.3
      vertex -66.89 37.9 14.24886811625906
      vertex -66.9 37.9 14.3
    endloop
  endfacet
  facet normal 0 -1 0
    outer loop
      vertex -66.9 35.5 11.6
      vertex -63.5 35.5 12.6
      vertex -66.5 35.5 12.6
    endloop
  endfacet
  facet normal 0 0 -1
    outer loop
      vertex -66.9 35.5 11.6
      vertex -66.9 37.9 11.6
      vertex -59.5 36.4 11.6
    endloop
  endfacet
  facet normal -1 0 0
    outer loop
      vertex -66.9 35.5 11.6
      vertex -66.9 36.892893218813455 12.592893218813453
      vertex -66.9 37.1 12.433974596215561
    endloop
  endfacet
  facet normal -1 0 0
    outer loop
      vertex -66.9 35.5 11.6
      vertex -66.9 36.73397459621556 12.8
      vertex -66.9 36.892893218813455 12.592893218813453
    endloop
  endfacet
  facet normal -1 0 0
    outer loop
      vertex -66.9 35.5 11.6
      vertex -66.9 37.34118095489748 12.334074173710933
      vertex -66.9 37.9 11.6
    endloop
  endfacet
  facet normal -1 0 0
    outer loop
      vertex -66.9 35.5 11.6
      vertex -66.9 37.1 12.433974596215561
      vertex -66.9 37.34118095489748 12.334074173710933
    endloop
  endfacet
  facet normal 0 -1 0
    outer loop
      vertex -66.9 35.5 11.6
      vertex -66.5 35.5 12.6
      vertex -66.5 35.5 14.3
    endloop
  endfacet
  facet normal -1 0 0
    outer loop
      vertex -66.9 35.5 11.6
      vertex -66.9 35.5 14.3
      vertex -66.9 36.73397459621556 12.8
    endloop
  endfacet
  facet normal 0 -1 0
    outer loop
      vertex -66.9 35.5 11.6
      vertex -66.5 35.5 14.3
      vertex -66.9 35.5 14.3
    endloop
  endfacet
  facet normal -1 0 0
    outer loop
      vertex -66.9 35.5 14.3
      vertex -66.9 36.634074173710935 13.04118095489748
      vertex -66.9 36.73397459621556 12.8
    endloop
  endfacet
  facet normal -1 0 0
    outer loop
      vertex -66.9 35.5 14.3
      vertex -66.9 36.6 13.3
      vertex -66.9 36.634074173710935 13.04118095489748
    endloop
  endfacet
  facet normal -1 0 0
    outer loop
      vertex -66.9 35.5 14.3
      vertex -66.9 36.634074173710935 13.55881904510252
      vertex -66.9 36.6 13.3
    endloop
  endfacet
  facet normal -1 0 0
    outer loop
      vertex -66.9 35.5 14.3
      vertex -66.9 36.73397459621556 13.8
      vertex -66.9 36.634074173710935 13.55881904510252
    endloop
  endfacet
  facet normal -1 0 0
    outer loop
      vertex -66.9 35.5 14.3
      vertex -66.9 36.892893218813455 14.007106781186549
      vertex -66.9 36.73397459621556 13.8
    endloop
  endfacet
  facet normal -1 0 0
    outer loop
      vertex -66.9 35.5 14.3
      vertex -66.9 37.1 14.16602540378444
      vertex -66.9 36.892893218813455 14.007106781186549
    endloop
  endfacet
  facet normal -1 0 0
    outer loop
      vertex -66.9 35.5 14.3
      vertex -66.9 37.34118095489748 14.265925826289068
      vertex -66.9 37.1 14.16602540378444
    endloop
  endfacet
  facet normal -1 0 0
    outer loop
      vertex -66.9 35.5 14.3
      vertex -66.9 37.6 14.3
      vertex -66.9 37.34118095489748 14.265925826289068
    endloop
  endfacet
  facet normal -1 0 0
    outer loop
      vertex -66.9 37.9 11.6
      vertex -66.9 37.34118095489748 12.334074173710933
      vertex -66.9 37.6 12.3
    endloop
  endfacet
  facet normal -1 0 0
    outer loop
      vertex -66.9 37.9 11.6
      vertex -66.9 37.6 12.3
      vertex -66.9 37.85881904510252 12.334074173710933
    endloop
  endfacet
  facet normal -1 0 0
    outer loop
      vertex -66.9 37.9 11.6
      vertex -66.9 37.85881904510252 12.334074173710933
      vertex -66.9 37.9 12.351131883740944
    endloop
  endfacet
  facet normal 0 1 0
    outer loop
      vertex -66.9 37.9 11.6
      vertex -66.9 37.9 12.351131883740944
      vertex -66.89 37.9 12.351131883740942
    endloop
  endfacet
  facet normal -1 0 0
    outer loop
      vertex -66.9 37.9 14.3
      vertex -66.9 37.85881904510252 14.265925826289068
      vertex -66.9 37.6 14.3
    endloop
  endfacet
  facet normal 0 1 0
    outer loop
      vertex -66.9 37.9 14.3
      vertex -66.89 37.9 14.24886811625906
      vertex -66.9 37.9 14.24886811625906
    endloop
  endfacet
  facet normal -1 0 0
    outer loop
      vertex -66.9 37.9 14.3
      vertex -66.9 37.9 14.24886811625906
      vertex -66.9 37.85881904510252 14.265925826289068
    endloop
  endfacet
  facet normal 1 0 0
    outer loop
      vertex -63.5 32 12.6
      vertex -63.5 35.5 12.6
      vertex -63.5 32 14.3
    endloop
  endfacet
  facet normal 1 0 0
    outer loop
      vertex -63.5 32 14.3
      vertex -63.5 35.5 12.6
      vertex -63.5 35.5 14.3
    endloop
  endfacet
  facet normal 0 -1 0
    outer loop
      vertex -63.5 32 12.6
      vertex -66.5 32 14.3
      vertex -66.5 32 12.6
    endloop
  endfacet
  facet normal 0 -1 0
    outer loop
      vertex -63.5 32 12.6
      vertex -63.5 32 14.3
      vertex -66.5 32 14.3
    endloop
  endfacet
  facet normal 0 0 -1
    outer loop
      vertex -63.5 32 12.6
      vertex -66.5 32 12.6
      vertex -66.5 35.5 12.6
    endloop
  endfacet
  facet normal 0 0 1
    outer loop
      vertex -63.5 32 14.3
      vertex -63.5 35.5 14.3
      vertex -66.5 32 14.3
    endloop
  endfacet
  facet normal -1 0 0
    outer loop
      vertex -66.5 32 12.6
      vertex -66.5 32 14.3
      vertex -66.5 35.5 14.3
    endloop
  endfacet
  facet normal 0 0 -1
    outer loop
      vertex -63.5 32 12.6
      vertex -66.5 35.5 12.6
      vertex -63.5 35.5 12.6
    endloop
  endfacet
  facet normal 0 0 1
    outer loop
      vertex -66.5 32 14.3
      vertex -63.5 35.5 14.3
      vertex -66.5 35.5 14.3
    endloop
  endfacet
  facet normal -1 0 0
    outer loop
      vertex -66.5 32 12.6
      vertex -66.5 35.5 14.3
      vertex -66.5 35.5 12.6
    endloop
  endfacet
  facet normal 0 -1 0
    outer loop
      vertex -55.5 36.4 7
      vertex -55.5 36.4 11.6
      vertex -59.5 36.4 7
    endloop
  endfacet
  facet normal 1 0 0
    outer loop
      vertex -55.5 36.4 7
      vertex -55.5 37.9 11.6
      vertex -55.5 36.4 11.6
    endloop
  endfacet
  facet normal 1 0 0
    outer loop
      vertex -55.5 36.4 7
      vertex -55.5 37.57573593128807 7.275735931288071
      vertex -55.5 37.44567228049323 7.4703899405809455
    endloop
  endfacet
  facet normal 1 0 0
    outer loop
      vertex -55.5 36.4 7
      vertex -55.5 37.44567228049323 7.4703899405809455
      vertex -55.5 37.4 7.699999999999999
    endloop
  endfacet
  facet normal 1 0 0
    outer loop
      vertex -55.5 36.4 7
      vertex -55.5 37.77038994058095 7.145672280493227
      vertex -55.5 37.57573593128807 7.275735931288071
    endloop
  endfacet
  facet normal 1 0 0
    outer loop
      vertex -55.5 36.4 7
      vertex -55.5 38 7
      vertex -55.5 37.77038994058095 7.145672280493227
    endloop
  endfacet
  facet normal 0 0 -1
    outer loop
      vertex -55.5 36.4 7
      vertex -59.5 38 7
      vertex -55.5 38 7
    endloop
  endfacet
  facet normal 1 0 0
    outer loop
      vertex -55.5 36.4 7
      vertex -55.5 37.4 7.699999999999999
      vertex -55.5 38 11.61
    endloop
  endfacet
  facet normal 1 0 0
    outer loop
      vertex -55.5 37.77038994058095 7.145672280493227
      vertex -55.5 38 7
      vertex -55.5 38 7.1
    endloop
  endfacet
  facet normal 0 1 0
    outer loop
      vertex -55.5 38 7
      vertex -59.5 38 7
      vertex -55.5 38 7.1
    endloop
  endfacet
  facet normal 1 0 0
    outer loop
      vertex -55.5 37.4 7.699999999999999
      vertex -55.5 37.44567228049323 7.929610059419053
      vertex -55.5 38 11.61
    endloop
  endfacet
  facet normal 1 0 0
    outer loop
      vertex -55.5 37.44567228049323 7.929610059419053
      vertex -55.5 37.57573593128807 8.124264068711927
      vertex -55.5 38 11.61
    endloop
  endfacet
  facet normal 1 0 0
    outer loop
      vertex -55.5 36.4 7
      vertex -55.5 38 11.61
      vertex -55.5 37.9 11.6
    endloop
  endfacet
  facet normal 1 0 0
    outer loop
      vertex -55.5 37.57573593128807 8.124264068711927
      vertex -55.5 37.77038994058095 8.25432771950677
      vertex -55.5 38 11.61
    endloop
  endfacet
  facet normal 1 0 0
    outer loop
      vertex -55.5 37.77038994058095 8.25432771950677
      vertex -55.5 38 8.299999999999999
      vertex -55.5 38 11.61
    endloop
  endfacet
  facet normal 0 1 0
    outer loop
      vertex -55.5 38 8.299999999999999
      vertex -59.5 38 8.299999999999999
      vertex -55.5 38 11.61
    endloop
  endfacet
  facet normal 1 0 0
    outer loop
      vertex -55.5 38 11.61
      vertex -55.5 37.9 11.61
      vertex -55.5 37.9 11.6
    endloop
  endfacet
  facet normal 0 0 1
    outer loop
      vertex -55.5 38 11.61
      vertex -59.5 37.9 11.61
      vertex -55.5 37.9 11.61
    endloop
  endfacet
  facet normal 0 0 -1
    outer loop
      vertex -55.5 36.4 7
      vertex -59.5 36.4 7
      vertex -59.5 38 7
    endloop
  endfacet
  facet normal -1 0 0
    outer loop
      vertex -59.5 36.4 7
      vertex -59.5 36.4 11.6
      vertex -59.5 37.4 7.699999999999999
    endloop
  endfacet
  facet normal 0 -1 0
    outer loop
      vertex -59.5 36.4 7
      vertex -55.5 36.4 11.6
      vertex -59.5 36.4 11.6
    endloop
  endfacet
  facet normal -1 0 0
    outer loop
      vertex -59.5 36.4 7
      vertex -59.5 37.44567228049323 7.4703899405809455
      vertex -59.5 37.57573593128807 7.275735931288071
    endloop
  endfacet
  facet normal -1 0 0
    outer loop
      vertex -59.5 36.4 7
      vertex -59.5 37.4 7.699999999999999
      vertex -59.5 37.44567228049323 7.4703899405809455
    endloop
  endfacet
  facet normal -1 0 0
    outer loop
      vertex -59.5 36.4 7
      vertex -59.5 37.57573593128807 7.275735931288071
      vertex -59.5 37.77038994058095 7.145672280493227
    endloop
  endfacet
  facet normal -1 0 0
    outer loop
      vertex -59.5 36.4 7
      vertex -59.5 37.77038994058095 7.145672280493227
      vertex -59.5 38 7
    endloop
  endfacet
  facet normal 0 1 0
    outer loop
      vertex -55.5 38 7.1
      vertex -59.5 38 7
      vertex -59.5 38 7.1
    endloop
  endfacet
  facet normal -1 0 0
    outer loop
      vertex -59.5 37.77038994058095 7.145672280493227
      vertex -59.5 38 7.1
      vertex -59.5 38 7
    endloop
  endfacet
  facet normal -1 0 0
    outer loop
      vertex -59.5 37.4 7.699999999999999
      vertex -59.5 36.4 11.6
      vertex -59.5 37.44567228049323 7.929610059419053
    endloop
  endfacet
  facet normal -1 0 0
    outer loop
      vertex -59.5 37.44567228049323 7.929610059419053
      vertex -59.5 36.4 11.6
      vertex -59.5 37.57573593128807 8.124264068711927
    endloop
  endfacet
  facet normal -1 0 0
    outer loop
      vertex -59.5 37.57573593128807 8.124264068711927
      vertex -59.5 36.4 11.6
      vertex -59.5 37.77038994058095 8.25432771950677
    endloop
  endfacet
  facet normal -1 0 0
    outer loop
      vertex -59.5 37.77038994058095 8.25432771950677
      vertex -59.5 36.4 11.6
      vertex -59.5 38 8.299999999999999
    endloop
  endfacet
  facet normal -1 0 0
    outer loop
      vertex -59.5 38 8.299999999999999
      vertex -59.5 36.4 11.6
      vertex -59.5 37.9 11.6
    endloop
  endfacet
  facet normal 0 1 0
    outer loop
      vertex -55.5 38 11.61
      vertex -59.5 38 8.299999999999999
      vertex -59.5 38 11.61
    endloop
  endfacet
  facet normal -1 0 0
    outer loop
      vertex -59.5 38 8.299999999999999
      vertex -59.5 37.9 11.6
      vertex -59.5 38 11.61
    endloop
  endfacet
  facet normal 0 0 1
    outer loop
      vertex -55.5 38 11.61
      vertex -59.5 38 11.61
      vertex -59.5 37.9 11.61
    endloop
  endfacet
  facet normal -1 0 0
    outer loop
      vertex -59.5 38 11.61
      vertex -59.5 37.9 11.6
      vertex -59.5 37.9 11.61
    endloop
  endfacet
  facet normal 1 0 0
    outer loop
      vertex -55.5 37.57573593128807 7.275735931288071
      vertex -55.5 37.57573593128807 8.124264068711927
      vertex -55.5 37.44567228049323 7.4703899405809455
    endloop
  endfacet
  facet normal 1 0 0
    outer loop
      vertex -55.5 37.44567228049323 7.4703899405809455
      vertex -55.5 37.44567228049323 7.929610059419053
      vertex -55.5 37.4 7.699999999999999
    endloop
  endfacet
  facet normal 1 0 0
    outer loop
      vertex -55.5 37.44567228049323 7.4703899405809455
      vertex -55.5 37.57573593128807 8.124264068711927
      vertex -55.5 37.44567228049323 7.929610059419053
    endloop
  endfacet
  facet normal 1 0 0
    outer loop
      vertex -55.5 37.77038994058095 7.145672280493227
      vertex -55.5 37.77038994058095 8.25432771950677
      vertex -55.5 37.57573593128807 7.275735931288071
    endloop
  endfacet
  facet normal 1 0 0
    outer loop
      vertex -55.5 37.57573593128807 7.275735931288071
      vertex -55.5 37.77038994058095 8.25432771950677
      vertex -55.5 37.57573593128807 8.124264068711927
    endloop
  endfacet
  facet normal 1 0 0
    outer loop
      vertex -55.5 37.77038994058095 7.145672280493227
      vertex -55.5 38 7.1
      vertex -55.5 38 8.299999999999999
    endloop
  endfacet
  facet normal 1 0 0
    outer loop
      vertex -55.5 37.77038994058095 7.145672280493227
      vertex -55.5 38 8.299999999999999
      vertex -55.5 37.77038994058095 8.25432771950677
    endloop
  endfacet
  facet normal 1 0 0
    outer loop
      vertex -55.5 38 7.1
      vertex -55.5 38.22961005941905 7.145672280493227
      vertex -55.5 38.22961005941905 8.25432771950677
    endloop
  endfacet
  facet normal 1 0 0
    outer loop
      vertex -55.5 38 7.1
      vertex -55.5 38.22961005941905 8.25432771950677
      vertex -55.5 38 8.299999999999999
    endloop
  endfacet
  facet normal 1 0 0
    outer loop
      vertex -55.5 38.22961005941905 7.145672280493227
      vertex -55.5 38.42426406871193 7.275735931288071
      vertex -55.5 38.42426406871193 8.124264068711927
    endloop
  endfacet
  facet normal 1 0 0
    outer loop
      vertex -55.5 38.22961005941905 7.145672280493227
      vertex -55.5 38.42426406871193 8.124264068711927
      vertex -55.5 38.22961005941905 8.25432771950677
    endloop
  endfacet
  facet normal 1 0 0
    outer loop
      vertex -55.5 38.42426406871193 7.275735931288071
      vertex -55.5 38.55432771950677 7.4703899405809455
      vertex -55.5 38.55432771950677 7.929610059419053
    endloop
  endfacet
  facet normal 1 0 0
    outer loop
      vertex -55.5 38.42426406871193 7.275735931288071
      vertex -55.5 38.55432771950677 7.929610059419053
      vertex -55.5 38.42426406871193 8.124264068711927
    endloop
  endfacet
  facet normal 1 0 0
    outer loop
      vertex -55.5 38.55432771950677 7.4703899405809455
      vertex -55.5 38.6 7.699999999999999
      vertex -55.5 38.55432771950677 7.929610059419053
    endloop
  endfacet
  facet normal 8.011792682911457e-19 0.19509032201612783 -0.9807852804032305
    outer loop
      vertex -55.5 38 7.1
      vertex -59.5 38.22961005941905 7.145672280493227
      vertex -55.5 38.22961005941905 7.145672280493227
    endloop
  endfacet
  facet normal 1.561558484769913e-19 0.5555702330196004 -0.8314696123025465
    outer loop
      vertex -55.5 38.22961005941905 7.145672280493227
      vertex -59.5 38.42426406871193 7.275735931288071
      vertex -55.5 38.42426406871193 7.275735931288071
    endloop
  endfacet
  facet normal 0 0.8314696123025418 -0.5555702330196074
    outer loop
      vertex -55.5 38.42426406871193 7.275735931288071
      vertex -59.5 38.42426406871193 7.275735931288071
      vertex -55.5 38.55432771950677 7.4703899405809455
    endloop
  endfacet
  facet normal 0 0.9807852804032301 -0.19509032201613002
    outer loop
      vertex -55.5 38.55432771950677 7.4703899405809455
      vertex -59.5 38.55432771950677 7.4703899405809455
      vertex -55.5 38.6 7.699999999999999
    endloop
  endfacet
  facet normal 0 0.9807852804032301 0.19509032201613002
    outer loop
      vertex -55.5 38.6 7.699999999999999
      vertex -59.5 38.6 7.699999999999999
      vertex -55.5 38.55432771950677 7.929610059419053
    endloop
  endfacet
  facet normal 0 0.1950903220161315 0.9807852804032298
    outer loop
      vertex -55.5 38 8.299999999999999
      vertex -55.5 38.22961005941905 8.25432771950677
      vertex -59.5 38 8.299999999999999
    endloop
  endfacet
  facet normal 0 0.5555702330196004 0.8314696123025465
    outer loop
      vertex -55.5 38.22961005941905 8.25432771950677
      vertex -55.5 38.42426406871193 8.124264068711927
      vertex -59.5 38.22961005941905 8.25432771950677
    endloop
  endfacet
  facet normal -4.1647935348833027e-19 0.8314696123025406 0.5555702330196092
    outer loop
      vertex -55.5 38.42426406871193 8.124264068711927
      vertex -55.5 38.55432771950677 7.929610059419053
      vertex -59.5 38.55432771950677 7.929610059419053
    endloop
  endfacet
  facet normal -1 0 0
    outer loop
      vertex -59.5 37.57573593128807 7.275735931288071
      vertex -59.5 37.44567228049323 7.4703899405809455
      vertex -59.5 37.44567228049323 7.929610059419053
    endloop
  endfacet
  facet normal -1 0 0
    outer loop
      vertex -59.5 37.44567228049323 7.4703899405809455
      vertex -59.5 37.4 7.699999999999999
      vertex -59.5 37.44567228049323 7.929610059419053
    endloop
  endfacet
  facet normal -1 0 0
    outer loop
      vertex -59.5 37.57573593128807 7.275735931288071
      vertex -59.5 37.44567228049323 7.929610059419053
      vertex -59.5 37.57573593128807 8.124264068711927
    endloop
  endfacet
  facet normal -1 0 0
    outer loop
      vertex -59.5 37.77038994058095 7.145672280493227
      vertex -59.5 37.57573593128807 7.275735931288071
      vertex -59.5 37.57573593128807 8.124264068711927
    endloop
  endfacet
  facet normal -1 0 0
    outer loop
      vertex -59.5 37.77038994058095 7.145672280493227
      vertex -59.5 37.57573593128807 8.124264068711927
      vertex -59.5 37.77038994058095 8.25432771950677
    endloop
  endfacet
  facet normal 0 0.19509032201612783 -0.9807852804032305
    outer loop
      vertex -55.5 38 7.1
      vertex -59.5 38 7.1
      vertex -59.5 38.22961005941905 7.145672280493227
    endloop
  endfacet
  facet normal 0 0.5555702330196004 -0.8314696123025465
    outer loop
      vertex -55.5 38.22961005941905 7.145672280493227
      vertex -59.5 38.22961005941905 7.145672280493227
      vertex -59.5 38.42426406871193 7.275735931288071
    endloop
  endfacet
  facet normal 0 0.8314696123025418 -0.5555702330196074
    outer loop
      vertex -55.5 38.55432771950677 7.4703899405809455
      vertex -59.5 38.42426406871193 7.275735931288071
      vertex -59.5 38.55432771950677 7.4703899405809455
    endloop
  endfacet
  facet normal 0 0.9807852804032301 -0.19509032201613002
    outer loop
      vertex -55.5 38.6 7.699999999999999
      vertex -59.5 38.55432771950677 7.4703899405809455
      vertex -59.5 38.6 7.699999999999999
    endloop
  endfacet
  facet normal 0 0.9807852804032301 0.19509032201613002
    outer loop
      vertex -55.5 38.55432771950677 7.929610059419053
      vertex -59.5 38.6 7.699999999999999
      vertex -59.5 38.55432771950677 7.929610059419053
    endloop
  endfacet
  facet normal -1 0 0
    outer loop
      vertex -59.5 37.77038994058095 7.145672280493227
      vertex -59.5 37.77038994058095 8.25432771950677
      vertex -59.5 38 7.1
    endloop
  endfacet
  facet normal -1 0 0
    outer loop
      vertex -59.5 37.77038994058095 8.25432771950677
      vertex -59.5 38 8.299999999999999
      vertex -59.5 38 7.1
    endloop
  endfacet
  facet normal -1 0 0
    outer loop
      vertex -59.5 38 7.1
      vertex -59.5 38 8.299999999999999
      vertex -59.5 38.22961005941905 7.145672280493227
    endloop
  endfacet
  facet normal -1 0 0
    outer loop
      vertex -59.5 38.22961005941905 7.145672280493227
      vertex -59.5 38 8.299999999999999
      vertex -59.5 38.22961005941905 8.25432771950677
    endloop
  endfacet
  facet normal -1 0 0
    outer loop
      vertex -59.5 38.22961005941905 7.145672280493227
      vertex -59.5 38.22961005941905 8.25432771950677
      vertex -59.5 38.42426406871193 7.275735931288071
    endloop
  endfacet
  facet normal -1 0 0
    outer loop
      vertex -59.5 38.42426406871193 7.275735931288071
      vertex -59.5 38.22961005941905 8.25432771950677
      vertex -59.5 38.42426406871193 8.124264068711927
    endloop
  endfacet
  facet normal -1 0 0
    outer loop
      vertex -59.5 38.42426406871193 7.275735931288071
      vertex -59.5 38.42426406871193 8.124264068711927
      vertex -59.5 38.55432771950677 7.4703899405809455
    endloop
  endfacet
  facet normal -1 0 0
    outer loop
      vertex -59.5 38.55432771950677 7.4703899405809455
      vertex -59.5 38.55432771950677 7.929610059419053
      vertex -59.5 38.6 7.699999999999999
    endloop
  endfacet
  facet normal -1 0 0
    outer loop
      vertex -59.5 38.55432771950677 7.4703899405809455
      vertex -59.5 38.42426406871193 8.124264068711927
      vertex -59.5 38.55432771950677 7.929610059419053
    endloop
  endfacet
  facet normal 0 0.1950903220161315 0.9807852804032298
    outer loop
      vertex -55.5 38.22961005941905 8.25432771950677
      vertex -59.5 38.22961005941905 8.25432771950677
      vertex -59.5 38 8.299999999999999
    endloop
  endfacet
  facet normal 0 0.5555702330196004 0.8314696123025465
    outer loop
      vertex -55.5 38.42426406871193 8.124264068711927
      vertex -59.5 38.42426406871193 8.124264068711927
      vertex -59.5 38.22961005941905 8.25432771950677
    endloop
  endfacet
  facet normal 0 0.8314696123025406 0.5555702330196092
    outer loop
      vertex -55.5 38.42426406871193 8.124264068711927
      vertex -59.5 38.55432771950677 7.929610059419053
      vertex -59.5 38.42426406871193 8.124264068711927
    endloop
  endfacet
endsolid OpenSCAD_Model
