solid OpenSCAD_Model
  facet normal 0 -1 0
    outer loop
      vertex -48 29.5 2.3
      vertex -49.55 29.5 3.2436774163324666
      vertex -49.55 29.5 2.3
    endloop
  endfacet
  facet normal 0 0 -1
    outer loop
      vertex -48 29.5 2.3
      vertex -49.55 29.5 2.3
      vertex -48 34.5 2.3
    endloop
  endfacet
  facet normal 0 0 -1
    outer loop
      vertex -51.25 29.5 2.3
      vertex -52.099999999999994 29.5 2.3
      vertex -51.25 34.5 2.3
    endloop
  endfacet
  facet normal 0 -1 0
    outer loop
      vertex -48 29.5 2.3
      vertex -49.469630456468806 29.5 3.324046959863656
      vertex -49.55 29.5 3.2436774163324666
    endloop
  endfacet
  facet normal 0 -1 0
    outer loop
      vertex -48 29.5 2.3
      vertex -49.30628500626057 29.5 3.6446304564688106
      vertex -49.469630456468806 29.5 3.324046959863656
    endloop
  endfacet
  facet normal 0 -1 0
    outer loop
      vertex -48 29.5 2.3
      vertex -49.25 29.5 4
      vertex -49.30628500626057 29.5 3.6446304564688106
    endloop
  endfacet
  facet normal 0 -1 0
    outer loop
      vertex -48 29.5 2.3
      vertex -48 29.5 6.5
      vertex -49.25 29.5 4
    endloop
  endfacet
  facet normal 0 -1 0
    outer loop
      vertex -49.25 29.5 4
      vertex -48 29.5 6.5
      vertex -49.30628500626057 29.5 4.355369543531189
    endloop
  endfacet
  facet normal 0 -1 0
    outer loop
      vertex -49.30628500626057 29.5 4.355369543531189
      vertex -48 29.5 6.5
      vertex -49.469630456468806 29.5 4.675953040136344
    endloop
  endfacet
  facet normal 0 -1 0
    outer loop
      vertex -49.469630456468806 29.5 4.675953040136344
      vertex -48 29.5 6.5
      vertex -49.72404695986366 29.5 4.93036954353119
    endloop
  endfacet
  facet normal 0 -1 0
    outer loop
      vertex -48 29.5 6.5
      vertex -50.04463045646881 29.5 5.093714993739426
      vertex -49.72404695986366 29.5 4.93036954353119
    endloop
  endfacet
  facet normal 1 0 0
    outer loop
      vertex -48 29.5 2.3
      vertex -48 34.5 6.5
      vertex -48 29.5 6.5
    endloop
  endfacet
  facet normal 0 -1 0
    outer loop
      vertex -48 29.5 6.5
      vertex -55.8 29.5 6.5
      vertex -50.04463045646881 29.5 5.093714993739426
    endloop
  endfacet
  facet normal 0 -1 0
    outer loop
      vertex -50.04463045646881 29.5 5.093714993739426
      vertex -55.8 29.5 6.5
      vertex -50.4 29.5 5.15
    endloop
  endfacet
  facet normal 0 -1 0
    outer loop
      vertex -50.4 29.5 5.15
      vertex -55.8 29.5 6.5
      vertex -50.75536954353119 29.5 5.093714993739426
    endloop
  endfacet
  facet normal 0 -1 0
    outer loop
      vertex -50.75536954353119 29.5 5.093714993739426
      vertex -55.8 29.5 6.5
      vertex -51.07595304013634 29.5 4.93036954353119
    endloop
  endfacet
  facet normal 0 0 1
    outer loop
      vertex -48 29.5 6.5
      vertex -48 34.5 6.5
      vertex -55.8 29.5 6.5
    endloop
  endfacet
  facet normal 0 -1 0
    outer loop
      vertex -52.099999999999994 29.5 2.3
      vertex -53 29.5 3.2
      vertex -53 29.5 2.3
    endloop
  endfacet
  facet normal 0 -1 0
    outer loop
      vertex -51.25 29.5 2.3
      vertex -55.8 29.5 6.5
      vertex -52.099999999999994 29.5 2.3
    endloop
  endfacet
  facet normal 0 -1 0
    outer loop
      vertex -51.25 29.5 2.3
      vertex -51.25 29.5 3.2436774163324666
      vertex -55.8 29.5 6.5
    endloop
  endfacet
  facet normal 0 -1 0
    outer loop
      vertex -51.25 29.5 3.2436774163324666
      vertex -51.33036954353119 29.5 3.324046959863656
      vertex -55.8 29.5 6.5
    endloop
  endfacet
  facet normal 0 -1 0
    outer loop
      vertex -51.33036954353119 29.5 3.324046959863656
      vertex -51.493714993739424 29.5 3.6446304564688106
      vertex -55.8 29.5 6.5
    endloop
  endfacet
  facet normal 0 -1 0
    outer loop
      vertex -51.493714993739424 29.5 3.6446304564688106
      vertex -51.55 29.5 4
      vertex -55.8 29.5 6.5
    endloop
  endfacet
  facet normal 0 -1 0
    outer loop
      vertex -52.099999999999994 29.5 2.3
      vertex -55.8 29.5 6.5
      vertex -53 29.5 3.2
    endloop
  endfacet
  facet normal 0 -1 0
    outer loop
      vertex -55.8 29.5 6.5
      vertex -55.8 29.5 3.2
      vertex -53 29.5 3.2
    endloop
  endfacet
  facet normal 0 -1 0
    outer loop
      vertex -51.493714993739424 29.5 4.355369543531189
      vertex -55.8 29.5 6.5
      vertex -51.55 29.5 4
    endloop
  endfacet
  facet normal 0 -1 0
    outer loop
      vertex -51.493714993739424 29.5 4.355369543531189
      vertex -51.33036954353119 29.5 4.675953040136344
      vertex -55.8 29.5 6.5
    endloop
  endfacet
  facet normal 0 -1 0
    outer loop
      vertex -51.33036954353119 29.5 4.675953040136344
      vertex -51.07595304013634 29.5 4.93036954353119
      vertex -55.8 29.5 6.5
    endloop
  endfacet
  facet normal -1 0 0
    outer loop
      vertex -55.8 29.5 6.5
      vertex -55.8 34.5 3.2
      vertex -55.8 29.5 3.2
    endloop
  endfacet
  facet normal 0 0 -1
    outer loop
      vertex -49.55 29.5 2.3
      vertex -49.55 34.5 2.3
      vertex -48 34.5 2.3
    endloop
  endfacet
  facet normal 0 1 0
    outer loop
      vertex -48 34.5 2.3
      vertex -49.55 34.5 2.3
      vertex -49.55 34.5 3.2436774163324666
    endloop
  endfacet
  facet normal 0 0 -1
    outer loop
      vertex -52.099999999999994 29.5 2.3
      vertex -52.099999999999994 34.5 2.3
      vertex -51.25 34.5 2.3
    endloop
  endfacet
  facet normal 0 1 0
    outer loop
      vertex -51.25 34.5 2.3
      vertex -52.099999999999994 34.5 2.3
      vertex -51.25 34.5 3.2436774163324666
    endloop
  endfacet
  facet normal 1 0 0
    outer loop
      vertex -48 29.5 2.3
      vertex -48 34.5 2.3
      vertex -48 34.5 6.5
    endloop
  endfacet
  facet normal 0 1 0
    outer loop
      vertex -48 34.5 2.3
      vertex -49.55 34.5 3.2436774163324666
      vertex -49.469630456468806 34.5 3.324046959863656
    endloop
  endfacet
  facet normal 0 1 0
    outer loop
      vertex -48 34.5 2.3
      vertex -49.469630456468806 34.5 3.324046959863656
      vertex -49.30628500626057 34.5 3.6446304564688106
    endloop
  endfacet
  facet normal 0 1 0
    outer loop
      vertex -48 34.5 2.3
      vertex -49.30628500626057 34.5 3.6446304564688106
      vertex -48 34.5 6.5
    endloop
  endfacet
  facet normal 0 1 0
    outer loop
      vertex -49.30628500626057 34.5 3.6446304564688106
      vertex -49.25 34.5 4
      vertex -48 34.5 6.5
    endloop
  endfacet
  facet normal 0 1 0
    outer loop
      vertex -49.25 34.5 4
      vertex -49.30628500626057 34.5 4.355369543531189
      vertex -48 34.5 6.5
    endloop
  endfacet
  facet normal 0 1 0
    outer loop
      vertex -49.30628500626057 34.5 4.355369543531189
      vertex -49.469630456468806 34.5 4.675953040136344
      vertex -48 34.5 6.5
    endloop
  endfacet
  facet normal 0 1 0
    outer loop
      vertex -49.469630456468806 34.5 4.675953040136344
      vertex -49.72404695986366 34.5 4.93036954353119
      vertex -48 34.5 6.5
    endloop
  endfacet
  facet normal 0 1 0
    outer loop
      vertex -48 34.5 6.5
      vertex -49.72404695986366 34.5 4.93036954353119
      vertex -50.04463045646881 34.5 5.093714993739426
    endloop
  endfacet
  facet normal 0 1 0
    outer loop
      vertex -48 34.5 6.5
      vertex -50.04463045646881 34.5 5.093714993739426
      vertex -50.4 34.5 5.15
    endloop
  endfacet
  facet normal 0 1 0
    outer loop
      vertex -52.099999999999994 34.5 2.3
      vertex -51.33036954353119 34.5 3.324046959863656
      vertex -51.25 34.5 3.2436774163324666
    endloop
  endfacet
  facet normal 0 1 0
    outer loop
      vertex -52.099999999999994 34.5 2.3
      vertex -51.493714993739424 34.5 3.6446304564688106
      vertex -51.33036954353119 34.5 3.324046959863656
    endloop
  endfacet
  facet normal 0 1 0
    outer loop
      vertex -52.099999999999994 34.5 2.3
      vertex -51.55 34.5 4
      vertex -51.493714993739424 34.5 3.6446304564688106
    endloop
  endfacet
  facet normal 0 1 0
    outer loop
      vertex -52.099999999999994 34.5 2.3
      vertex -53 34.5 2.3
      vertex -51.55 34.5 4
    endloop
  endfacet
  facet normal 0 1 0
    outer loop
      vertex -51.55 34.5 4
      vertex -53 34.5 2.3
      vertex -53 34.5 3.2
    endloop
  endfacet
  facet normal 0 1 0
    outer loop
      vertex -51.493714993739424 34.5 4.355369543531189
      vertex -51.55 34.5 4
      vertex -53 34.5 3.2
    endloop
  endfacet
  facet normal 0 1 0
    outer loop
      vertex -51.493714993739424 34.5 4.355369543531189
      vertex -53 34.5 3.2
      vertex -51.33036954353119 34.5 4.675953040136344
    endloop
  endfacet
  facet normal 0 1 0
    outer loop
      vertex -51.33036954353119 34.5 4.675953040136344
      vertex -53 34.5 3.2
      vertex -51.07595304013634 34.5 4.93036954353119
    endloop
  endfacet
  facet normal 0 1 0
    outer loop
      vertex -48 34.5 6.5
      vertex -50.4 34.5 5.15
      vertex -55.8 34.5 6.5
    endloop
  endfacet
  facet normal 0 1 0
    outer loop
      vertex -50.4 34.5 5.15
      vertex -50.75536954353119 34.5 5.093714993739426
      vertex -55.8 34.5 6.5
    endloop
  endfacet
  facet normal 0 1 0
    outer loop
      vertex -50.75536954353119 34.5 5.093714993739426
      vertex -51.07595304013634 34.5 4.93036954353119
      vertex -55.8 34.5 6.5
    endloop
  endfacet
  facet normal 0 0 1
    outer loop
      vertex -55.8 29.5 6.5
      vertex -48 34.5 6.5
      vertex -55.8 34.5 6.5
    endloop
  endfacet
  facet normal 0 1 0
    outer loop
      vertex -55.8 34.5 6.5
      vertex -53 34.5 3.2
      vertex -55.8 34.5 3.2
    endloop
  endfacet
  facet normal 0 1 0
    outer loop
      vertex -51.07595304013634 34.5 4.93036954353119
      vertex -53 34.5 3.2
      vertex -55.8 34.5 6.5
    endloop
  endfacet
  facet normal -1 0 0
    outer loop
      vertex -55.8 29.5 6.5
      vertex -55.8 34.5 6.5
      vertex -55.8 34.5 3.2
    endloop
  endfacet
  facet normal 1 0 0
    outer loop
      vertex -52.099999999999994 29.5 1
      vertex -52.099999999999994 30.45110404563147 2
      vertex -52.099999999999994 29.5 2.3
    endloop
  endfacet
  facet normal 0 0 -1
    outer loop
      vertex -52.099999999999994 29.5 1
      vertex -52.6301861198024 29.5 1
      vertex -52.51625414771418 29.638826509666693 1
    endloop
  endfacet
  facet normal 0 -1 0
    outer loop
      vertex -52.099999999999994 29.5 1
      vertex -52.6301861198024 29.5 2
      vertex -52.6301861198024 29.5 1
    endloop
  endfacet
  facet normal 0 -1 0
    outer loop
      vertex -52.099999999999994 29.5 1
      vertex -52.099999999999994 29.5 2.3
      vertex -52.6301861198024 29.5 2
    endloop
  endfacet
  facet normal 0 0 -1
    outer loop
      vertex -52.099999999999994 29.5 1
      vertex -52.51625414771418 29.638826509666693 1
      vertex -52.123511986827026 30.373595412448367 1
    endloop
  endfacet
  facet normal 0 -1 0
    outer loop
      vertex -52.099999999999994 29.5 2.3
      vertex -53 29.5 2.3
      vertex -52.6301861198024 29.5 2
    endloop
  endfacet
  facet normal 0 0 -1
    outer loop
      vertex -52.099999999999994 29.5 1
      vertex -52.123511986827026 30.373595412448367 1
      vertex -52.099999999999994 30.45110404563147 1
    endloop
  endfacet
  facet normal 1 0 0
    outer loop
      vertex -52.099999999999994 29.5 1
      vertex -52.099999999999994 30.45110404563147 1
      vertex -52.099999999999994 30.45110404563147 2
    endloop
  endfacet
  facet normal 1 0 0
    outer loop
      vertex -52.099999999999994 29.5 2.3
      vertex -52.099999999999994 30.45110404563147 2
      vertex -52.099999999999994 33.54889595436853 2
    endloop
  endfacet
  facet normal 0 -1 0
    outer loop
      vertex -52.6301861198024 29.5 2
      vertex -53 29.5 2.3
      vertex -53 29.5 2
    endloop
  endfacet
  facet normal 1 0 0
    outer loop
      vertex -52.099999999999994 29.5 2.3
      vertex -52.099999999999994 33.54889595436853 2
      vertex -52.099999999999994 34.5 2.3
    endloop
  endfacet
  facet normal 1 0 0
    outer loop
      vertex -52.099999999999994 33.54889595436853 1
      vertex -52.099999999999994 34.5 1
      vertex -52.099999999999994 33.54889595436853 2
    endloop
  endfacet
  facet normal 0 0 -1
    outer loop
      vertex -52.099999999999994 33.54889595436853 1
      vertex -52.123511986827026 33.62640458755163 1
      vertex -52.099999999999994 34.5 1
    endloop
  endfacet
  facet normal 1 0 0
    outer loop
      vertex -52.099999999999994 33.54889595436853 2
      vertex -52.099999999999994 34.5 1
      vertex -52.099999999999994 34.5 2.3
    endloop
  endfacet
  facet normal 0 0 -1
    outer loop
      vertex -52.123511986827026 33.62640458755163 1
      vertex -52.51625414771418 34.36117349033331 1
      vertex -52.099999999999994 34.5 1
    endloop
  endfacet
  facet normal 0 0 -1
    outer loop
      vertex -52.51625414771418 34.36117349033331 1
      vertex -52.6301861198024 34.5 1
      vertex -52.099999999999994 34.5 1
    endloop
  endfacet
  facet normal 0 1 0
    outer loop
      vertex -52.099999999999994 34.5 1
      vertex -52.6301861198024 34.5 1
      vertex -52.6301861198024 34.5 2
    endloop
  endfacet
  facet normal 0 1 0
    outer loop
      vertex -52.099999999999994 34.5 1
      vertex -52.6301861198024 34.5 2
      vertex -52.099999999999994 34.5 2.3
    endloop
  endfacet
  facet normal 0 1 0
    outer loop
      vertex -52.099999999999994 34.5 2.3
      vertex -52.6301861198024 34.5 2
      vertex -53 34.5 2.3
    endloop
  endfacet
  facet normal 0 1 0
    outer loop
      vertex -52.6301861198024 34.5 2
      vertex -53 34.5 2
      vertex -53 34.5 2.3
    endloop
  endfacet
  facet normal -0.7071067811865416 0 0.7071067811865533
    outer loop
      vertex -49.55 29.5 3.2436774163324666
      vertex -49.469630456468806 29.5 3.324046959863656
      vertex -49.55 34.5 3.2436774163324666
    endloop
  endfacet
  facet normal -0.8910065241883723 0 0.453990499739538
    outer loop
      vertex -49.30628500626057 29.5 3.6446304564688106
      vertex -49.469630456468806 34.5 3.324046959863656
      vertex -49.469630456468806 29.5 3.324046959863656
    endloop
  endfacet
  facet normal -0.9876883405951377 0 0.15643446504023067
    outer loop
      vertex -49.30628500626057 29.5 3.6446304564688106
      vertex -49.25 29.5 4
      vertex -49.30628500626057 34.5 3.6446304564688106
    endloop
  endfacet
  facet normal -0.9876883405951377 0 -0.15643446504023067
    outer loop
      vertex -49.25 29.5 4
      vertex -49.30628500626057 29.5 4.355369543531189
      vertex -49.25 34.5 4
    endloop
  endfacet
  facet normal -0.8910065241883723 0 -0.453990499739538
    outer loop
      vertex -49.30628500626057 29.5 4.355369543531189
      vertex -49.469630456468806 29.5 4.675953040136344
      vertex -49.30628500626057 34.5 4.355369543531189
    endloop
  endfacet
  facet normal -0.7071067811865414 0 -0.7071067811865537
    outer loop
      vertex -49.469630456468806 29.5 4.675953040136344
      vertex -49.72404695986366 29.5 4.93036954353119
      vertex -49.469630456468806 34.5 4.675953040136344
    endloop
  endfacet
  facet normal -0.4539904997395478 0 -0.8910065241883673
    outer loop
      vertex -49.72404695986366 29.5 4.93036954353119
      vertex -50.04463045646881 29.5 5.093714993739426
      vertex -49.72404695986366 34.5 4.93036954353119
    endloop
  endfacet
  facet normal -0.1564344650402331 0 -0.9876883405951373
    outer loop
      vertex -50.04463045646881 29.5 5.093714993739426
      vertex -50.4 29.5 5.15
      vertex -50.04463045646881 34.5 5.093714993739426
    endloop
  endfacet
  facet normal 0.7071067811865416 0 0.7071067811865533
    outer loop
      vertex -51.25 29.5 3.2436774163324666
      vertex -51.33036954353119 34.5 3.324046959863656
      vertex -51.33036954353119 29.5 3.324046959863656
    endloop
  endfacet
  facet normal 0.8910065241883723 0 0.453990499739538
    outer loop
      vertex -51.33036954353119 29.5 3.324046959863656
      vertex -51.493714993739424 34.5 3.6446304564688106
      vertex -51.493714993739424 29.5 3.6446304564688106
    endloop
  endfacet
  facet normal 0.9876883405951377 0 -0.15643446504023067
    outer loop
      vertex -51.493714993739424 29.5 4.355369543531189
      vertex -51.55 29.5 4
      vertex -51.493714993739424 34.5 4.355369543531189
    endloop
  endfacet
  facet normal 0.8910065241883723 0 -0.453990499739538
    outer loop
      vertex -51.493714993739424 29.5 4.355369543531189
      vertex -51.33036954353119 34.5 4.675953040136344
      vertex -51.33036954353119 29.5 4.675953040136344
    endloop
  endfacet
  facet normal 0.9876883405951377 0 0.15643446504023067
    outer loop
      vertex -51.493714993739424 29.5 3.6446304564688106
      vertex -51.55 34.5 4
      vertex -51.55 29.5 4
    endloop
  endfacet
  facet normal 0.1564344650402331 0 -0.9876883405951373
    outer loop
      vertex -50.4 29.5 5.15
      vertex -50.75536954353119 29.5 5.093714993739426
      vertex -50.4 34.5 5.15
    endloop
  endfacet
  facet normal 0.4539904997395478 0 -0.8910065241883673
    outer loop
      vertex -50.75536954353119 29.5 5.093714993739426
      vertex -51.07595304013634 29.5 4.93036954353119
      vertex -50.75536954353119 34.5 5.093714993739426
    endloop
  endfacet
  facet normal 0.7071067811865414 0 -0.7071067811865537
    outer loop
      vertex -51.33036954353119 29.5 4.675953040136344
      vertex -51.07595304013634 34.5 4.93036954353119
      vertex -51.07595304013634 29.5 4.93036954353119
    endloop
  endfacet
  facet normal -0.7071067811865416 0 0.7071067811865533
    outer loop
      vertex -49.469630456468806 29.5 3.324046959863656
      vertex -49.469630456468806 34.5 3.324046959863656
      vertex -49.55 34.5 3.2436774163324666
    endloop
  endfacet
  facet normal -0.8910065241883723 0 0.453990499739538
    outer loop
      vertex -49.30628500626057 29.5 3.6446304564688106
      vertex -49.30628500626057 34.5 3.6446304564688106
      vertex -49.469630456468806 34.5 3.324046959863656
    endloop
  endfacet
  facet normal -0.9876883405951377 0 0.15643446504023067
    outer loop
      vertex -49.25 29.5 4
      vertex -49.25 34.5 4
      vertex -49.30628500626057 34.5 3.6446304564688106
    endloop
  endfacet
  facet normal -0.9876883405951377 0 -0.15643446504023067
    outer loop
      vertex -49.30628500626057 29.5 4.355369543531189
      vertex -49.30628500626057 34.5 4.355369543531189
      vertex -49.25 34.5 4
    endloop
  endfacet
  facet normal -0.8910065241883723 0 -0.453990499739538
    outer loop
      vertex -49.469630456468806 29.5 4.675953040136344
      vertex -49.469630456468806 34.5 4.675953040136344
      vertex -49.30628500626057 34.5 4.355369543531189
    endloop
  endfacet
  facet normal -0.7071067811865414 0 -0.7071067811865537
    outer loop
      vertex -49.72404695986366 29.5 4.93036954353119
      vertex -49.72404695986366 34.5 4.93036954353119
      vertex -49.469630456468806 34.5 4.675953040136344
    endloop
  endfacet
  facet normal -0.4539904997395478 0 -0.8910065241883673
    outer loop
      vertex -50.04463045646881 29.5 5.093714993739426
      vertex -50.04463045646881 34.5 5.093714993739426
      vertex -49.72404695986366 34.5 4.93036954353119
    endloop
  endfacet
  facet normal -0.1564344650402331 0 -0.9876883405951373
    outer loop
      vertex -50.4 29.5 5.15
      vertex -50.4 34.5 5.15
      vertex -50.04463045646881 34.5 5.093714993739426
    endloop
  endfacet
  facet normal 0.7071067811865416 0 0.7071067811865533
    outer loop
      vertex -51.25 29.5 3.2436774163324666
      vertex -51.25 34.5 3.2436774163324666
      vertex -51.33036954353119 34.5 3.324046959863656
    endloop
  endfacet
  facet normal 0.8910065241883723 0 0.453990499739538
    outer loop
      vertex -51.33036954353119 29.5 3.324046959863656
      vertex -51.33036954353119 34.5 3.324046959863656
      vertex -51.493714993739424 34.5 3.6446304564688106
    endloop
  endfacet
  facet normal 0.9876883405951377 0 0.15643446504023067
    outer loop
      vertex -51.493714993739424 29.5 3.6446304564688106
      vertex -51.493714993739424 34.5 3.6446304564688106
      vertex -51.55 34.5 4
    endloop
  endfacet
  facet normal 0.8910065241883723 0 -0.453990499739538
    outer loop
      vertex -51.493714993739424 29.5 4.355369543531189
      vertex -51.493714993739424 34.5 4.355369543531189
      vertex -51.33036954353119 34.5 4.675953040136344
    endloop
  endfacet
  facet normal 0.9876883405951377 0 -0.15643446504023067
    outer loop
      vertex -51.55 29.5 4
      vertex -51.55 34.5 4
      vertex -51.493714993739424 34.5 4.355369543531189
    endloop
  endfacet
  facet normal 0.1564344650402331 0 -0.9876883405951373
    outer loop
      vertex -50.75536954353119 29.5 5.093714993739426
      vertex -50.75536954353119 34.5 5.093714993739426
      vertex -50.4 34.5 5.15
    endloop
  endfacet
  facet normal 0.4539904997395478 0 -0.8910065241883673
    outer loop
      vertex -51.07595304013634 29.5 4.93036954353119
      vertex -51.07595304013634 34.5 4.93036954353119
      vertex -50.75536954353119 34.5 5.093714993739426
    endloop
  endfacet
  facet normal 0.7071067811865414 0 -0.7071067811865537
    outer loop
      vertex -51.33036954353119 29.5 4.675953040136344
      vertex -51.33036954353119 34.5 4.675953040136344
      vertex -51.07595304013634 34.5 4.93036954353119
    endloop
  endfacet
  facet normal 1 0 0
    outer loop
      vertex -51.25 29.5 2.3
      vertex -51.25 34.5 2.3
      vertex -51.25 29.5 3.2436774163324666
    endloop
  endfacet
  facet normal -1 0 0
    outer loop
      vertex -49.55 29.5 2.3
      vertex -49.55 29.5 3.2436774163324666
      vertex -49.55 34.5 3.2436774163324666
    endloop
  endfacet
  facet normal -1 0 0
    outer loop
      vertex -49.55 29.5 2.3
      vertex -49.55 34.5 3.2436774163324666
      vertex -49.55 34.5 2.3
    endloop
  endfacet
  facet normal 1 0 0
    outer loop
      vertex -51.25 29.5 3.2436774163324666
      vertex -51.25 34.5 2.3
      vertex -51.25 34.5 3.2436774163324666
    endloop
  endfacet
  facet normal 0.8819212643483534 -0.4713967368260006 0
    outer loop
      vertex -52.51625414771418 29.638826509666693 -1
      vertex -52.123511986827026 30.373595412448367 -1
      vertex -52.51625414771418 29.638826509666693 1
    endloop
  endfacet
  facet normal 0.7730104533627385 -0.6343932841636436 0
    outer loop
      vertex -52.51625414771418 29.638826509666693 -1
      vertex -52.51625414771418 29.638826509666693 1
      vertex -52.6301861198024 29.5 1
    endloop
  endfacet
  facet normal 0.8819212643483534 -0.4713967368260006 0
    outer loop
      vertex -52.51625414771418 29.638826509666693 1
      vertex -52.123511986827026 30.373595412448367 -1
      vertex -52.123511986827026 30.373595412448367 1
    endloop
  endfacet
  facet normal 0.956940335732212 -0.2902846772544519 0
    outer loop
      vertex -52.123511986827026 30.373595412448367 -1
      vertex -52.099999999999994 30.45110404563147 1
      vertex -52.123511986827026 30.373595412448367 1
    endloop
  endfacet
  facet normal 0.9569403357322092 -0.2902846772544611 0
    outer loop
      vertex -52.123511986827026 30.373595412448367 -1
      vertex -51.881662558286266 31.170866131431456 -1
      vertex -51.881662558286266 31.170866131431456 2
    endloop
  endfacet
  facet normal 0.9569403357322087 -0.29028467725446266 4.582694424726805e-16
    outer loop
      vertex -52.123511986827026 30.373595412448367 -1
      vertex -51.881662558286266 31.170866131431456 2
      vertex -52.099999999999994 30.45110404563147 1
    endloop
  endfacet
  facet normal 0 0 -1
    outer loop
      vertex -52.123511986827026 30.373595412448367 -1
      vertex -52.123511986827026 33.62640458755163 -1
      vertex -51.881662558286266 31.170866131431456 -1
    endloop
  endfacet
  facet normal 0 0 -1
    outer loop
      vertex -52.51625414771418 29.638826509666693 -1
      vertex -52.51625414771418 34.36117349033331 -1
      vertex -52.123511986827026 30.373595412448367 -1
    endloop
  endfacet
  facet normal 0.9951847266721972 -0.0980171403295582 0
    outer loop
      vertex -51.881662558286266 31.170866131431456 -1
      vertex -51.8 32 -1
      vertex -51.8 32 2
    endloop
  endfacet
  facet normal 0.9569403357322089 -0.2902846772544621 0
    outer loop
      vertex -52.099999999999994 30.45110404563147 1
      vertex -51.881662558286266 31.170866131431456 2
      vertex -52.099999999999994 30.45110404563147 2
    endloop
  endfacet
  facet normal 0.9951847266721972 -0.0980171403295582 0
    outer loop
      vertex -51.881662558286266 31.170866131431456 -1
      vertex -51.8 32 2
      vertex -51.881662558286266 31.170866131431456 2
    endloop
  endfacet
  facet normal 0 0 1
    outer loop
      vertex -52.099999999999994 30.45110404563147 2
      vertex -51.881662558286266 31.170866131431456 2
      vertex -51.881662558286266 32.82913386856855 2
    endloop
  endfacet
  facet normal 0.2902846772544662 -0.9569403357322076 0
    outer loop
      vertex -55.22086613143145 27.83166255828627 -1
      vertex -54.423595412448364 28.073511986827032 2
      vertex -55.22086613143145 27.83166255828627 2
    endloop
  endfacet
  facet normal 0.6343932841636437 -0.7730104533627383 0
    outer loop
      vertex -53.68882650966669 28.46625414771418 -1
      vertex -53.04479617995717 28.994796179957174 -1
      vertex -53.04479617995717 28.994796179957174 2
    endloop
  endfacet
  facet normal 0.4713967368259973 -0.8819212643483553 0
    outer loop
      vertex -53.68882650966669 28.46625414771418 -1
      vertex -53.68882650966669 28.46625414771418 2
      vertex -54.423595412448364 28.073511986827032 -1
    endloop
  endfacet
  facet normal 0.2902846772544662 -0.9569403357322076 0
    outer loop
      vertex -54.423595412448364 28.073511986827032 -1
      vertex -54.423595412448364 28.073511986827032 2
      vertex -55.22086613143145 27.83166255828627 -1
    endloop
  endfacet
  facet normal 0.7730104533627391 -0.6343932841636429 -9.522601347057583e-17
    outer loop
      vertex -52.6301861198024 29.5 2
      vertex -53 29.049380483167855 2
      vertex -53.04479617995717 28.994796179957174 -1
    endloop
  endfacet
  facet normal 0.7730104533627365 -0.6343932841636459 0
    outer loop
      vertex -53.04479617995717 28.994796179957174 -1
      vertex -53 29.049380483167855 2
      vertex -53.04479617995717 28.994796179957174 2
    endloop
  endfacet
  facet normal 0.6343932841636437 -0.7730104533627383 0
    outer loop
      vertex -53.68882650966669 28.46625414771418 -1
      vertex -53.04479617995717 28.994796179957174 2
      vertex -53.68882650966669 28.46625414771418 2
    endloop
  endfacet
  facet normal 0.4713967368259973 -0.8819212643483553 0
    outer loop
      vertex -54.423595412448364 28.073511986827032 -1
      vertex -53.68882650966669 28.46625414771418 2
      vertex -54.423595412448364 28.073511986827032 2
    endloop
  endfacet
  facet normal 0.09801714032955779 -0.9951847266721972 0
    outer loop
      vertex -55.22086613143145 27.83166255828627 -1
      vertex -55.22086613143145 27.83166255828627 2
      vertex -56.05 27.75 -1
    endloop
  endfacet
  facet normal 0.09801714032955779 -0.9951847266721972 0
    outer loop
      vertex -56.05 27.75 -1
      vertex -55.22086613143145 27.83166255828627 2
      vertex -56.05 27.75 2
    endloop
  endfacet
  facet normal 0.7730104533627388 -0.6343932841636434 3.3314192050020714e-17
    outer loop
      vertex -52.51625414771418 29.638826509666693 -1
      vertex -52.6301861198024 29.5 1
      vertex -53.04479617995717 28.994796179957174 -1
    endloop
  endfacet
  facet normal 0.7730104533627388 -0.6343932841636433 0
    outer loop
      vertex -52.6301861198024 29.5 1
      vertex -52.6301861198024 29.5 2
      vertex -53.04479617995717 28.994796179957174 -1
    endloop
  endfacet
  facet normal 0 0 1
    outer loop
      vertex -52.6301861198024 29.5 2
      vertex -53 29.5 2
      vertex -53 29.049380483167855 2
    endloop
  endfacet
  facet normal 0 0 -1
    outer loop
      vertex -52.51625414771418 29.638826509666693 -1
      vertex -53.04479617995717 28.994796179957174 -1
      vertex -53.04479617995717 35.00520382004283 -1
    endloop
  endfacet
  facet normal 0 0 -1
    outer loop
      vertex -53.68882650966669 28.46625414771418 -1
      vertex -53.68882650966669 35.53374585228582 -1
      vertex -53.04479617995717 28.994796179957174 -1
    endloop
  endfacet
  facet normal 0 0 -1
    outer loop
      vertex -53.68882650966669 28.46625414771418 -1
      vertex -54.423595412448364 28.073511986827032 -1
      vertex -54.423595412448364 35.92648801317297 -1
    endloop
  endfacet
  facet normal 0 0 -1
    outer loop
      vertex -54.423595412448364 28.073511986827032 -1
      vertex -55.22086613143145 27.83166255828627 -1
      vertex -55.22086613143145 36.16833744171373 -1
    endloop
  endfacet
  facet normal 0 0 -1
    outer loop
      vertex -55.22086613143145 27.83166255828627 -1
      vertex -56.05 27.75 -1
      vertex -56.05 36.25 -1
    endloop
  endfacet
  facet normal 0 0 -1
    outer loop
      vertex -51.881662558286266 31.170866131431456 -1
      vertex -51.881662558286266 32.82913386856855 -1
      vertex -51.8 32 -1
    endloop
  endfacet
  facet normal 0 0 -1
    outer loop
      vertex -51.881662558286266 31.170866131431456 -1
      vertex -52.123511986827026 33.62640458755163 -1
      vertex -51.881662558286266 32.82913386856855 -1
    endloop
  endfacet
  facet normal 0.9951847266721972 0.09801714032955779 0
    outer loop
      vertex -51.8 32 -1
      vertex -51.881662558286266 32.82913386856855 -1
      vertex -51.881662558286266 32.82913386856855 2
    endloop
  endfacet
  facet normal 0.9569403357322089 0.29028467725446233 -6.662838410004151e-17
    outer loop
      vertex -51.881662558286266 32.82913386856855 -1
      vertex -52.123511986827026 33.62640458755163 -1
      vertex -52.099999999999994 33.54889595436853 1
    endloop
  endfacet
  facet normal 0 0 -1
    outer loop
      vertex -52.123511986827026 30.373595412448367 -1
      vertex -52.51625414771418 34.36117349033331 -1
      vertex -52.123511986827026 33.62640458755163 -1
    endloop
  endfacet
  facet normal 0 0 -1
    outer loop
      vertex -52.51625414771418 29.638826509666693 -1
      vertex -53.04479617995717 35.00520382004283 -1
      vertex -52.51625414771418 34.36117349033331 -1
    endloop
  endfacet
  facet normal 0.9569403357322089 0.2902846772544621 0
    outer loop
      vertex -51.881662558286266 32.82913386856855 -1
      vertex -52.099999999999994 33.54889595436853 1
      vertex -52.099999999999994 33.54889595436853 2
    endloop
  endfacet
  facet normal 0.9951847266721972 0.09801714032955779 0
    outer loop
      vertex -51.8 32 -1
      vertex -51.881662558286266 32.82913386856855 2
      vertex -51.8 32 2
    endloop
  endfacet
  facet normal 0 0 1
    outer loop
      vertex -51.881662558286266 31.170866131431456 2
      vertex -51.8 32 2
      vertex -51.881662558286266 32.82913386856855 2
    endloop
  endfacet
  facet normal 0 0 1
    outer loop
      vertex -52.099999999999994 30.45110404563147 2
      vertex -51.881662558286266 32.82913386856855 2
      vertex -52.099999999999994 33.54889595436853 2
    endloop
  endfacet
  facet normal 0.9569403357322088 0.29028467725446205 0
    outer loop
      vertex -51.881662558286266 32.82913386856855 -1
      vertex -52.099999999999994 33.54889595436853 2
      vertex -51.881662558286266 32.82913386856855 2
    endloop
  endfacet
  facet normal 0.8819212643483534 0.4713967368260006 0
    outer loop
      vertex -52.123511986827026 33.62640458755163 -1
      vertex -52.51625414771418 34.36117349033331 -1
      vertex -52.123511986827026 33.62640458755163 1
    endloop
  endfacet
  facet normal 0.9569403357322084 0.29028467725446405 0
    outer loop
      vertex -52.123511986827026 33.62640458755163 -1
      vertex -52.123511986827026 33.62640458755163 1
      vertex -52.099999999999994 33.54889595436853 1
    endloop
  endfacet
  facet normal 0.8819212643483534 0.4713967368260006 0
    outer loop
      vertex -52.123511986827026 33.62640458755163 1
      vertex -52.51625414771418 34.36117349033331 -1
      vertex -52.51625414771418 34.36117349033331 1
    endloop
  endfacet
  facet normal 0.7730104533627385 0.6343932841636436 0
    outer loop
      vertex -52.51625414771418 34.36117349033331 -1
      vertex -52.6301861198024 34.5 1
      vertex -52.51625414771418 34.36117349033331 1
    endloop
  endfacet
  facet normal 0 0 -1
    outer loop
      vertex -53.04479617995717 28.994796179957174 -1
      vertex -53.68882650966669 35.53374585228582 -1
      vertex -53.04479617995717 35.00520382004283 -1
    endloop
  endfacet
  facet normal 0 0 -1
    outer loop
      vertex -53.68882650966669 28.46625414771418 -1
      vertex -54.423595412448364 35.92648801317297 -1
      vertex -53.68882650966669 35.53374585228582 -1
    endloop
  endfacet
  facet normal 0.7730104533627413 0.63439328416364 4.0617363562530966e-16
    outer loop
      vertex -52.51625414771418 34.36117349033331 -1
      vertex -53.04479617995717 35.00520382004283 2
      vertex -52.6301861198024 34.5 1
    endloop
  endfacet
  facet normal 0 0 -1
    outer loop
      vertex -54.423595412448364 28.073511986827032 -1
      vertex -55.22086613143145 36.16833744171373 -1
      vertex -54.423595412448364 35.92648801317297 -1
    endloop
  endfacet
  facet normal 0.7730104533627415 0.63439328416364 0
    outer loop
      vertex -52.6301861198024 34.5 1
      vertex -53 34.95061951683215 2
      vertex -52.6301861198024 34.5 2
    endloop
  endfacet
  facet normal 0 0 1
    outer loop
      vertex -52.6301861198024 34.5 2
      vertex -53 34.95061951683215 2
      vertex -53 34.5 2
    endloop
  endfacet
  facet normal 0 0 -1
    outer loop
      vertex -55.22086613143145 27.83166255828627 -1
      vertex -56.05 36.25 -1
      vertex -55.22086613143145 36.16833744171373 -1
    endloop
  endfacet
  facet normal 0.7730104533627404 0.6343932841636412 0
    outer loop
      vertex -52.51625414771418 34.36117349033331 -1
      vertex -53.04479617995717 35.00520382004283 -1
      vertex -53.04479617995717 35.00520382004283 2
    endloop
  endfacet
  facet normal 0.6343932841636412 0.7730104533627404 0
    outer loop
      vertex -53.04479617995717 35.00520382004283 -1
      vertex -53.68882650966669 35.53374585228582 -1
      vertex -53.68882650966669 35.53374585228582 2
    endloop
  endfacet
  facet normal 0.47139673682600064 0.8819212643483535 0
    outer loop
      vertex -53.68882650966669 35.53374585228582 -1
      vertex -54.423595412448364 35.92648801317297 -1
      vertex -54.423595412448364 35.92648801317297 2
    endloop
  endfacet
  facet normal 0.7730104533627367 0.634393284163646 -4.3237494500727915e-15
    outer loop
      vertex -52.6301861198024 34.5 1
      vertex -53.04479617995717 35.00520382004283 2
      vertex -53 34.95061951683215 2
    endloop
  endfacet
  facet normal 0.6343932841636412 0.7730104533627404 0
    outer loop
      vertex -53.04479617995717 35.00520382004283 -1
      vertex -53.68882650966669 35.53374585228582 2
      vertex -53.04479617995717 35.00520382004283 2
    endloop
  endfacet
  facet normal 0.47139673682600064 0.8819212643483535 0
    outer loop
      vertex -53.68882650966669 35.53374585228582 -1
      vertex -54.423595412448364 35.92648801317297 2
      vertex -53.68882650966669 35.53374585228582 2
    endloop
  endfacet
  facet normal 0.2902846772544623 0.9569403357322088 0
    outer loop
      vertex -54.423595412448364 35.92648801317297 -1
      vertex -55.22086613143145 36.16833744171373 2
      vertex -54.423595412448364 35.92648801317297 2
    endloop
  endfacet
  facet normal 0.2902846772544623 0.9569403357322088 0
    outer loop
      vertex -54.423595412448364 35.92648801317297 -1
      vertex -55.22086613143145 36.16833744171373 -1
      vertex -55.22086613143145 36.16833744171373 2
    endloop
  endfacet
  facet normal 0.09801714032955779 0.9951847266721972 0
    outer loop
      vertex -55.22086613143145 36.16833744171373 -1
      vertex -56.05 36.25 -1
      vertex -56.05 36.25 2
    endloop
  endfacet
  facet normal 0.09801714032955779 0.9951847266721972 0
    outer loop
      vertex -55.22086613143145 36.16833744171373 -1
      vertex -56.05 36.25 2
      vertex -55.22086613143145 36.16833744171373 2
    endloop
  endfacet
  facet normal 0 -1 0
    outer loop
      vertex -56.05 27.75 -1
      vertex -56.05 27.75 2
      vertex -61.55 27.75 -1
    endloop
  endfacet
  facet normal 0 -1 0
    outer loop
      vertex -61.55 27.75 -1
      vertex -56.05 27.75 2
      vertex -61.55 27.75 2
    endloop
  endfacet
  facet normal -0.09801714032955779 -0.9951847266721972 0
    outer loop
      vertex -61.55 27.75 -1
      vertex -61.55 27.75 2
      vertex -62.379133868568545 27.83166255828627 -1
    endloop
  endfacet
  facet normal 0 0 -1
    outer loop
      vertex -56.05 27.75 -1
      vertex -61.55 27.75 -1
      vertex -61.55 36.25 -1
    endloop
  endfacet
  facet normal -0.2902846772544662 -0.9569403357322076 0
    outer loop
      vertex -62.379133868568545 27.83166255828627 -1
      vertex -62.379133868568545 27.83166255828627 2
      vertex -63.17640458755163 28.073511986827032 -1
    endloop
  endfacet
  facet normal -0.09801714032955779 -0.9951847266721972 0
    outer loop
      vertex -62.379133868568545 27.83166255828627 -1
      vertex -61.55 27.75 2
      vertex -62.379133868568545 27.83166255828627 2
    endloop
  endfacet
  facet normal -0.4713967368259973 -0.8819212643483553 0
    outer loop
      vertex -63.17640458755163 28.073511986827032 -1
      vertex -63.17640458755163 28.073511986827032 2
      vertex -63.911173490333304 28.46625414771418 -1
    endloop
  endfacet
  facet normal -0.634393284163648 -0.773010453362735 0
    outer loop
      vertex -63.911173490333304 28.46625414771418 -1
      vertex -63.911173490333304 28.46625414771418 2
      vertex -64.55520382004282 28.994796179957174 -1
    endloop
  endfacet
  facet normal -0.2902846772544662 -0.9569403357322076 0
    outer loop
      vertex -63.17640458755163 28.073511986827032 -1
      vertex -62.379133868568545 27.83166255828627 2
      vertex -63.17640458755163 28.073511986827032 2
    endloop
  endfacet
  facet normal -0.4713967368259973 -0.8819212643483553 0
    outer loop
      vertex -63.911173490333304 28.46625414771418 -1
      vertex -63.17640458755163 28.073511986827032 2
      vertex -63.911173490333304 28.46625414771418 2
    endloop
  endfacet
  facet normal -0.634393284163648 -0.773010453362735 0
    outer loop
      vertex -64.55520382004282 28.994796179957174 -1
      vertex -63.911173490333304 28.46625414771418 2
      vertex -64.55520382004282 28.994796179957174 2
    endloop
  endfacet
  facet normal -0.7730104533627347 -0.6343932841636485 0
    outer loop
      vertex -64.55520382004282 28.994796179957174 -1
      vertex -64.55520382004282 28.994796179957174 2
      vertex -65.08374585228582 29.638826509666693 -1
    endloop
  endfacet
  facet normal 0 0 -1
    outer loop
      vertex -61.55 27.75 -1
      vertex -62.379133868568545 27.83166255828627 -1
      vertex -62.379133868568545 36.16833744171373 -1
    endloop
  endfacet
  facet normal 0 0 -1
    outer loop
      vertex -62.379133868568545 27.83166255828627 -1
      vertex -63.17640458755163 28.073511986827032 -1
      vertex -63.17640458755163 35.92648801317297 -1
    endloop
  endfacet
  facet normal 0 0 -1
    outer loop
      vertex -63.17640458755163 28.073511986827032 -1
      vertex -63.911173490333304 28.46625414771418 -1
      vertex -63.911173490333304 35.53374585228582 -1
    endloop
  endfacet
  facet normal 0 0 -1
    outer loop
      vertex -63.911173490333304 28.46625414771418 -1
      vertex -64.55520382004282 28.994796179957174 -1
      vertex -64.55520382004282 35.00520382004283 -1
    endloop
  endfacet
  facet normal -0.8819212643483535 -0.47139673682600064 0
    outer loop
      vertex -65.08374585228582 29.638826509666693 -1
      vertex -65.08374585228582 29.638826509666693 2
      vertex -65.47648801317297 30.373595412448367 -1
    endloop
  endfacet
  facet normal -0.7730104533627347 -0.6343932841636485 0
    outer loop
      vertex -65.08374585228582 29.638826509666693 -1
      vertex -64.55520382004282 28.994796179957174 2
      vertex -65.08374585228582 29.638826509666693 2
    endloop
  endfacet
  facet normal -0.8819212643483535 -0.47139673682600064 0
    outer loop
      vertex -65.47648801317297 30.373595412448367 -1
      vertex -65.08374585228582 29.638826509666693 2
      vertex -65.47648801317297 30.373595412448367 2
    endloop
  endfacet
  facet normal 0 0 -1
    outer loop
      vertex -64.55520382004282 28.994796179957174 -1
      vertex -65.08374585228582 29.638826509666693 -1
      vertex -65.08374585228582 34.36117349033331 -1
    endloop
  endfacet
  facet normal 0 0 -1
    outer loop
      vertex -65.08374585228582 29.638826509666693 -1
      vertex -65.47648801317297 30.373595412448367 -1
      vertex -65.47648801317297 33.62640458755163 -1
    endloop
  endfacet
  facet normal -0.9569403357322092 -0.2902846772544611 0
    outer loop
      vertex -65.47648801317297 30.373595412448367 -1
      vertex -65.47648801317297 30.373595412448367 2
      vertex -65.71833744171373 31.170866131431456 -1
    endloop
  endfacet
  facet normal 0 0 -1
    outer loop
      vertex -65.47648801317297 30.373595412448367 -1
      vertex -65.71833744171373 31.170866131431456 -1
      vertex -65.71833744171373 32.82913386856855 -1
    endloop
  endfacet
  facet normal -0.9951847266721972 -0.0980171403295582 0
    outer loop
      vertex -65.71833744171373 31.170866131431456 -1
      vertex -65.71833744171373 31.170866131431456 2
      vertex -65.8 32 -1
    endloop
  endfacet
  facet normal -0.9569403357322092 -0.2902846772544611 0
    outer loop
      vertex -65.71833744171373 31.170866131431456 -1
      vertex -65.47648801317297 30.373595412448367 2
      vertex -65.71833744171373 31.170866131431456 2
    endloop
  endfacet
  facet normal -0.9951847266721972 -0.0980171403295582 0
    outer loop
      vertex -65.8 32 -1
      vertex -65.71833744171373 31.170866131431456 2
      vertex -65.8 32 2
    endloop
  endfacet
  facet normal 0 0 -1
    outer loop
      vertex -56.05 27.75 -1
      vertex -61.55 36.25 -1
      vertex -56.05 36.25 -1
    endloop
  endfacet
  facet normal 0 0 -1
    outer loop
      vertex -61.55 27.75 -1
      vertex -62.379133868568545 36.16833744171373 -1
      vertex -61.55 36.25 -1
    endloop
  endfacet
  facet normal 0 1 0
    outer loop
      vertex -56.05 36.25 -1
      vertex -61.55 36.25 -1
      vertex -61.55 36.25 2
    endloop
  endfacet
  facet normal 0 1 0
    outer loop
      vertex -56.05 36.25 -1
      vertex -61.55 36.25 2
      vertex -56.05 36.25 2
    endloop
  endfacet
  facet normal -0.09801714032955779 0.9951847266721972 0
    outer loop
      vertex -61.55 36.25 -1
      vertex -62.379133868568545 36.16833744171373 2
      vertex -61.55 36.25 2
    endloop
  endfacet
  facet normal 0 0 -1
    outer loop
      vertex -62.379133868568545 27.83166255828627 -1
      vertex -63.17640458755163 35.92648801317297 -1
      vertex -62.379133868568545 36.16833744171373 -1
    endloop
  endfacet
  facet normal 0 0 -1
    outer loop
      vertex -63.17640458755163 28.073511986827032 -1
      vertex -63.911173490333304 35.53374585228582 -1
      vertex -63.17640458755163 35.92648801317297 -1
    endloop
  endfacet
  facet normal 0 0 -1
    outer loop
      vertex -63.911173490333304 28.46625414771418 -1
      vertex -64.55520382004282 35.00520382004283 -1
      vertex -63.911173490333304 35.53374585228582 -1
    endloop
  endfacet
  facet normal 0 0 -1
    outer loop
      vertex -65.47648801317297 30.373595412448367 -1
      vertex -65.71833744171373 32.82913386856855 -1
      vertex -65.47648801317297 33.62640458755163 -1
    endloop
  endfacet
  facet normal 0 0 -1
    outer loop
      vertex -65.08374585228582 29.638826509666693 -1
      vertex -65.47648801317297 33.62640458755163 -1
      vertex -65.08374585228582 34.36117349033331 -1
    endloop
  endfacet
  facet normal 0 0 -1
    outer loop
      vertex -64.55520382004282 28.994796179957174 -1
      vertex -65.08374585228582 34.36117349033331 -1
      vertex -64.55520382004282 35.00520382004283 -1
    endloop
  endfacet
  facet normal 0 0 -1
    outer loop
      vertex -65.71833744171373 31.170866131431456 -1
      vertex -65.8 32 -1
      vertex -65.71833744171373 32.82913386856855 -1
    endloop
  endfacet
  facet normal -0.9951847266721972 0.09801714032955779 0
    outer loop
      vertex -65.8 32 -1
      vertex -65.8 32 2
      vertex -65.71833744171373 32.82913386856855 -1
    endloop
  endfacet
  facet normal -0.9569403357322088 0.2902846772544623 0
    outer loop
      vertex -65.71833744171373 32.82913386856855 -1
      vertex -65.71833744171373 32.82913386856855 2
      vertex -65.47648801317297 33.62640458755163 -1
    endloop
  endfacet
  facet normal -0.9569403357322088 0.2902846772544623 0
    outer loop
      vertex -65.47648801317297 33.62640458755163 -1
      vertex -65.71833744171373 32.82913386856855 2
      vertex -65.47648801317297 33.62640458755163 2
    endloop
  endfacet
  facet normal -0.9951847266721972 0.09801714032955779 0
    outer loop
      vertex -65.71833744171373 32.82913386856855 -1
      vertex -65.8 32 2
      vertex -65.71833744171373 32.82913386856855 2
    endloop
  endfacet
  facet normal -0.8819212643483535 0.47139673682600064 0
    outer loop
      vertex -65.47648801317297 33.62640458755163 -1
      vertex -65.47648801317297 33.62640458755163 2
      vertex -65.08374585228582 34.36117349033331 -1
    endloop
  endfacet
  facet normal -0.7730104533627363 0.6343932841636464 0
    outer loop
      vertex -65.08374585228582 34.36117349033331 -1
      vertex -65.08374585228582 34.36117349033331 2
      vertex -64.55520382004282 35.00520382004283 -1
    endloop
  endfacet
  facet normal -0.8819212643483535 0.47139673682600064 0
    outer loop
      vertex -65.08374585228582 34.36117349033331 -1
      vertex -65.47648801317297 33.62640458755163 2
      vertex -65.08374585228582 34.36117349033331 2
    endloop
  endfacet
  facet normal -0.2902846772544623 0.9569403357322088 0
    outer loop
      vertex -62.379133868568545 36.16833744171373 -1
      vertex -63.17640458755163 35.92648801317297 -1
      vertex -63.17640458755163 35.92648801317297 2
    endloop
  endfacet
  facet normal -0.6343932841636455 0.7730104533627371 0
    outer loop
      vertex -63.911173490333304 35.53374585228582 -1
      vertex -64.55520382004282 35.00520382004283 -1
      vertex -64.55520382004282 35.00520382004283 2
    endloop
  endfacet
  facet normal -0.47139673682600064 0.8819212643483535 0
    outer loop
      vertex -63.17640458755163 35.92648801317297 -1
      vertex -63.911173490333304 35.53374585228582 -1
      vertex -63.911173490333304 35.53374585228582 2
    endloop
  endfacet
  facet normal -0.6343932841636455 0.7730104533627371 0
    outer loop
      vertex -63.911173490333304 35.53374585228582 -1
      vertex -64.55520382004282 35.00520382004283 2
      vertex -63.911173490333304 35.53374585228582 2
    endloop
  endfacet
  facet normal -0.47139673682600064 0.8819212643483535 0
    outer loop
      vertex -63.17640458755163 35.92648801317297 -1
      vertex -63.911173490333304 35.53374585228582 2
      vertex -63.17640458755163 35.92648801317297 2
    endloop
  endfacet
  facet normal -0.09801714032955779 0.9951847266721972 0
    outer loop
      vertex -61.55 36.25 -1
      vertex -62.379133868568545 36.16833744171373 -1
      vertex -62.379133868568545 36.16833744171373 2
    endloop
  endfacet
  facet normal -0.2902846772544623 0.9569403357322088 0
    outer loop
      vertex -62.379133868568545 36.16833744171373 -1
      vertex -63.17640458755163 35.92648801317297 2
      vertex -62.379133868568545 36.16833744171373 2
    endloop
  endfacet
  facet normal -0.7730104533627363 0.6343932841636464 0
    outer loop
      vertex -64.55520382004282 35.00520382004283 -1
      vertex -65.08374585228582 34.36117349033331 2
      vertex -64.55520382004282 35.00520382004283 2
    endloop
  endfacet
  facet normal 0.47139673592937803 -0.8819212648276081 0
    outer loop
      vertex -53.96215331554413 26.95949223637581 2
      vertex -53.01891642808914 27.46366285532713 3.2
      vertex -53.96215331554413 26.95949223637581 3.2
    endloop
  endfacet
  facet normal 0.634393321348425 -0.7730104228459757 0
    outer loop
      vertex -53.01891642808914 27.46366285532713 2
      vertex -53 27.479187168180943 2
      vertex -53 27.479187168180943 3.2
    endloop
  endfacet
  facet normal 0.634393321348425 -0.7730104228459757 0
    outer loop
      vertex -53.01891642808914 27.46366285532713 2
      vertex -53 27.479187168180943 3.2
      vertex -53.01891642808914 27.46366285532713 3.2
    endloop
  endfacet
  facet normal 0.47139673592937803 -0.8819212648276081 0
    outer loop
      vertex -53.01891642808914 27.46366285532713 2
      vertex -53.01891642808914 27.46366285532713 3.2
      vertex -53.96215331554413 26.95949223637581 2
    endloop
  endfacet
  facet normal 0 0 -1
    outer loop
      vertex -53.01891642808914 27.46366285532713 2
      vertex -54.423595412448364 28.073511986827032 2
      vertex -53 27.479187168180943 2
    endloop
  endfacet
  facet normal 0.29028467548307013 -0.9569403362695548 0
    outer loop
      vertex -53.96215331554413 26.95949223637581 2
      vertex -53.96215331554413 26.95949223637581 3.2
      vertex -54.98562499135733 26.64902549982071 2
    endloop
  endfacet
  facet normal 0.29028467548307013 -0.9569403362695548 0
    outer loop
      vertex -54.98562499135733 26.64902549982071 2
      vertex -53.96215331554413 26.95949223637581 3.2
      vertex -54.98562499135733 26.64902549982071 3.2
    endloop
  endfacet
  facet normal 0 0 -1
    outer loop
      vertex -53.01891642808914 27.46366285532713 2
      vertex -53.96215331554413 26.95949223637581 2
      vertex -55.22086613143145 27.83166255828627 2
    endloop
  endfacet
  facet normal 0 0 -1
    outer loop
      vertex -53.01891642808914 27.46366285532713 2
      vertex -55.22086613143145 27.83166255828627 2
      vertex -54.423595412448364 28.073511986827032 2
    endloop
  endfacet
  facet normal 1 0 0
    outer loop
      vertex -53 27.479187168180943 2
      vertex -53 29.5 2.3
      vertex -53 27.479187168180943 3.2
    endloop
  endfacet
  facet normal 0 0 -1
    outer loop
      vertex -53 27.479187168180943 2
      vertex -53.68882650966669 28.46625414771418 2
      vertex -53.04479617995717 28.994796179957174 2
    endloop
  endfacet
  facet normal 0 0 -1
    outer loop
      vertex -53 27.479187168180943 2
      vertex -53.04479617995717 28.994796179957174 2
      vertex -53 29.049380483167855 2
    endloop
  endfacet
  facet normal 0 0 -1
    outer loop
      vertex -53 27.479187168180943 2
      vertex -54.423595412448364 28.073511986827032 2
      vertex -53.68882650966669 28.46625414771418 2
    endloop
  endfacet
  facet normal 1 0 0
    outer loop
      vertex -53 27.479187168180943 2
      vertex -53 29.049380483167855 2
      vertex -53 29.5 2.3
    endloop
  endfacet
  facet normal 0.09801714194954807 -0.995184726512642 0
    outer loop
      vertex -54.98562499135733 26.64902549982071 2
      vertex -54.98562499135733 26.64902549982071 3.2
      vertex -55.99104777723551 26.549999997019768 2
    endloop
  endfacet
  facet normal 0.09801714194954807 -0.995184726512642 0
    outer loop
      vertex -55.99104777723551 26.549999997019768 2
      vertex -54.98562499135733 26.64902549982071 3.2
      vertex -55.99104777723551 26.549999997019768 3.2
    endloop
  endfacet
  facet normal 0 0 -1
    outer loop
      vertex -53.96215331554413 26.95949223637581 2
      vertex -56.05 27.75 2
      vertex -55.22086613143145 27.83166255828627 2
    endloop
  endfacet
  facet normal 0 0 -1
    outer loop
      vertex -53.96215331554413 26.95949223637581 2
      vertex -61.55 27.75 2
      vertex -56.05 27.75 2
    endloop
  endfacet
  facet normal 1 0 0
    outer loop
      vertex -53 27.479187168180943 3.2
      vertex -53 29.5 2.3
      vertex -53 29.5 3.2
    endloop
  endfacet
  facet normal 0 0 1
    outer loop
      vertex -53 27.479187168180943 3.2
      vertex -53 29.5 3.2
      vertex -55.8 29.5 3.2
    endloop
  endfacet
  facet normal 1 0 0
    outer loop
      vertex -53 29.5 2
      vertex -53 29.5 2.3
      vertex -53 29.049380483167855 2
    endloop
  endfacet
  facet normal 1 0 0
    outer loop
      vertex -53 34.5 2.3
      vertex -53 34.5 2
      vertex -53 34.95061951683215 2
    endloop
  endfacet
  facet normal 0 0 1
    outer loop
      vertex -53 36.52081283181906 3.2
      vertex -63.3 32 3.2
      vertex -55.8 34.5 3.2
    endloop
  endfacet
  facet normal 1 0 0
    outer loop
      vertex -53 36.52081283181906 3.2
      vertex -53 34.5 2.3
      vertex -53 34.95061951683215 2
    endloop
  endfacet
  facet normal 0 0 -1
    outer loop
      vertex -53 36.52081283181906 2
      vertex -53 34.95061951683215 2
      vertex -53.04479617995717 35.00520382004283 2
    endloop
  endfacet
  facet normal 0 0 -1
    outer loop
      vertex -53 36.52081283181906 2
      vertex -53.04479617995717 35.00520382004283 2
      vertex -53.68882650966669 35.53374585228582 2
    endloop
  endfacet
  facet normal 1 0 0
    outer loop
      vertex -53 36.52081283181906 2
      vertex -53 36.52081283181906 3.2
      vertex -53 34.95061951683215 2
    endloop
  endfacet
  facet normal 0 0 -1
    outer loop
      vertex -53 36.52081283181906 2
      vertex -53.68882650966669 35.53374585228582 2
      vertex -54.423595412448364 35.92648801317297 2
    endloop
  endfacet
  facet normal 0.634393321348425 0.7730104228459757 0
    outer loop
      vertex -53 36.52081283181906 2
      vertex -53.01891642808914 36.53633714467287 2
      vertex -53.01891642808914 36.53633714467287 3.2
    endloop
  endfacet
  facet normal 0.634393321348425 0.7730104228459757 0
    outer loop
      vertex -53 36.52081283181906 2
      vertex -53.01891642808914 36.53633714467287 3.2
      vertex -53 36.52081283181906 3.2
    endloop
  endfacet
  facet normal 0 0 -1
    outer loop
      vertex -53 36.52081283181906 2
      vertex -55.22086613143145 36.16833744171373 2
      vertex -53.01891642808914 36.53633714467287 2
    endloop
  endfacet
  facet normal 0.47139673592937803 0.8819212648276081 0
    outer loop
      vertex -53.01891642808914 36.53633714467287 2
      vertex -53.96215331554413 37.04050776362419 3.2
      vertex -53.01891642808914 36.53633714467287 3.2
    endloop
  endfacet
  facet normal 0.47139673592937803 0.8819212648276081 0
    outer loop
      vertex -53.01891642808914 36.53633714467287 2
      vertex -53.96215331554413 37.04050776362419 2
      vertex -53.96215331554413 37.04050776362419 3.2
    endloop
  endfacet
  facet normal 0 0 -1
    outer loop
      vertex -53 36.52081283181906 2
      vertex -54.423595412448364 35.92648801317297 2
      vertex -55.22086613143145 36.16833744171373 2
    endloop
  endfacet
  facet normal 0 0 -1
    outer loop
      vertex -53.01891642808914 36.53633714467287 2
      vertex -55.22086613143145 36.16833744171373 2
      vertex -53.96215331554413 37.04050776362419 2
    endloop
  endfacet
  facet normal 0.29028467548307013 0.9569403362695548 0
    outer loop
      vertex -53.96215331554413 37.04050776362419 2
      vertex -54.98562499135733 37.35097450017929 3.2
      vertex -53.96215331554413 37.04050776362419 3.2
    endloop
  endfacet
  facet normal 0.29028467548307013 0.9569403362695548 0
    outer loop
      vertex -53.96215331554413 37.04050776362419 2
      vertex -54.98562499135733 37.35097450017929 2
      vertex -54.98562499135733 37.35097450017929 3.2
    endloop
  endfacet
  facet normal 0 0 -1
    outer loop
      vertex -53.96215331554413 37.04050776362419 2
      vertex -55.22086613143145 36.16833744171373 2
      vertex -56.05 36.25 2
    endloop
  endfacet
  facet normal 0.09801714194954807 0.995184726512642 0
    outer loop
      vertex -54.98562499135733 37.35097450017929 2
      vertex -55.99104777723551 37.45000000298023 3.2
      vertex -54.98562499135733 37.35097450017929 3.2
    endloop
  endfacet
  facet normal 0.09801714194954807 0.995184726512642 0
    outer loop
      vertex -54.98562499135733 37.35097450017929 2
      vertex -55.99104777723551 37.45000000298023 2
      vertex -55.99104777723551 37.45000000298023 3.2
    endloop
  endfacet
  facet normal 0 0 -1
    outer loop
      vertex -53.96215331554413 37.04050776362419 2
      vertex -56.05 36.25 2
      vertex -61.55 36.25 2
    endloop
  endfacet
  facet normal 0 0 -1
    outer loop
      vertex -53.96215331554413 37.04050776362419 2
      vertex -61.55 36.25 2
      vertex -54.98562499135733 37.35097450017929 2
    endloop
  endfacet
  facet normal 1 0 0
    outer loop
      vertex -53 36.52081283181906 3.2
      vertex -53 34.5 3.2
      vertex -53 34.5 2.3
    endloop
  endfacet
  facet normal 0 0 1
    outer loop
      vertex -53 36.52081283181906 3.2
      vertex -55.8 34.5 3.2
      vertex -53 34.5 3.2
    endloop
  endfacet
  facet normal 0 -1 0
    outer loop
      vertex -55.99104777723551 26.549999997019768 2
      vertex -55.99104777723551 26.549999997019768 3.2
      vertex -61.60895221680403 26.549999997019768 2
    endloop
  endfacet
  facet normal 0 0 -1
    outer loop
      vertex -54.98562499135733 26.64902549982071 2
      vertex -55.99104777723551 26.549999997019768 2
      vertex -64.5810835659504 27.46366285532713 2
    endloop
  endfacet
  facet normal 0 0 -1
    outer loop
      vertex -53.96215331554413 26.95949223637581 2
      vertex -54.98562499135733 26.64902549982071 2
      vertex -65.40783762186766 28.14216237515211 2
    endloop
  endfacet
  facet normal 0 -1 0
    outer loop
      vertex -55.99104777723551 26.549999997019768 3.2
      vertex -61.60895221680403 26.549999997019768 3.2
      vertex -61.60895221680403 26.549999997019768 2
    endloop
  endfacet
  facet normal 0 0 -1
    outer loop
      vertex -53.96215331554413 26.95949223637581 2
      vertex -62.379133868568545 27.83166255828627 2
      vertex -61.55 27.75 2
    endloop
  endfacet
  facet normal 0 0 -1
    outer loop
      vertex -55.99104777723551 26.549999997019768 2
      vertex -61.60895221680403 26.549999997019768 2
      vertex -63.63784667849541 26.95949223637581 2
    endloop
  endfacet
  facet normal 0 0 -1
    outer loop
      vertex -53.96215331554413 26.95949223637581 2
      vertex -65.40783762186766 28.14216237515211 2
      vertex -62.379133868568545 27.83166255828627 2
    endloop
  endfacet
  facet normal 0 0 -1
    outer loop
      vertex -55.99104777723551 26.549999997019768 2
      vertex -63.63784667849541 26.95949223637581 2
      vertex -64.5810835659504 27.46366285532713 2
    endloop
  endfacet
  facet normal -0.09801714194954807 -0.995184726512642 0
    outer loop
      vertex -61.60895221680403 26.549999997019768 2
      vertex -61.60895221680403 26.549999997019768 3.2
      vertex -62.61437500268221 26.64902549982071 2
    endloop
  endfacet
  facet normal 0 0 -1
    outer loop
      vertex -54.98562499135733 26.64902549982071 2
      vertex -64.5810835659504 27.46366285532713 2
      vertex -65.40783762186766 28.14216237515211 2
    endloop
  endfacet
  facet normal 0 0 1
    outer loop
      vertex -54.98562499135733 26.64902549982071 3.2
      vertex -64.5810835659504 27.46366285532713 3.2
      vertex -55.99104777723551 26.549999997019768 3.2
    endloop
  endfacet
  facet normal 0 0 1
    outer loop
      vertex -53.01891642808914 27.46366285532713 3.2
      vertex -66.08633714169264 28.968916431069374 3.2
      vertex -53.96215331554413 26.95949223637581 3.2
    endloop
  endfacet
  facet normal 0 0 1
    outer loop
      vertex -53.96215331554413 26.95949223637581 3.2
      vertex -65.40783762186766 28.14216237515211 3.2
      vertex -54.98562499135733 26.64902549982071 3.2
    endloop
  endfacet
  facet normal 0 0 1
    outer loop
      vertex -53.01891642808914 27.46366285532713 3.2
      vertex -53 27.479187168180943 3.2
      vertex -66.59050776064396 29.91215331852436 3.2
    endloop
  endfacet
  facet normal 0 0 1
    outer loop
      vertex -53 27.479187168180943 3.2
      vertex -55.8 29.5 3.2
      vertex -64.47467110956259 30.38320392229824 3.2
    endloop
  endfacet
  facet normal 0 0 1
    outer loop
      vertex -55.99104777723551 26.549999997019768 3.2
      vertex -63.63784667849541 26.95949223637581 3.2
      vertex -61.60895221680403 26.549999997019768 3.2
    endloop
  endfacet
  facet normal 0 0 1
    outer loop
      vertex -55.99104777723551 26.549999997019768 3.2
      vertex -64.5810835659504 27.46366285532713 3.2
      vertex -63.63784667849541 26.95949223637581 3.2
    endloop
  endfacet
  facet normal 0 0 1
    outer loop
      vertex -54.98562499135733 26.64902549982071 3.2
      vertex -65.40783762186766 28.14216237515211 3.2
      vertex -64.5810835659504 27.46366285532713 3.2
    endloop
  endfacet
  facet normal 0 0 1
    outer loop
      vertex -53.96215331554413 26.95949223637581 3.2
      vertex -66.08633714169264 28.968916431069374 3.2
      vertex -65.40783762186766 28.14216237515211 3.2
    endloop
  endfacet
  facet normal 0 0 1
    outer loop
      vertex -53.01891642808914 27.46366285532713 3.2
      vertex -66.59050776064396 29.91215331852436 3.2
      vertex -66.08633714169264 28.968916431069374 3.2
    endloop
  endfacet
  facet normal 0 0 1
    outer loop
      vertex -53 27.479187168180943 3.2
      vertex -64.47467110956259 30.38320392229824 3.2
      vertex -65 30.3 3.2
    endloop
  endfacet
  facet normal 0 0 1
    outer loop
      vertex -53 27.479187168180943 3.2
      vertex -65 30.3 3.2
      vertex -65.52532889043741 30.38320392229824 3.2
    endloop
  endfacet
  facet normal 0 0 1
    outer loop
      vertex -53 27.479187168180943 3.2
      vertex -65.52532889043741 30.38320392229824 3.2
      vertex -66.79999999701977 30.602756679058075 3.2
    endloop
  endfacet
  facet normal 0 0 1
    outer loop
      vertex -55.8 29.5 3.2
      vertex -64.00076507110279 30.62467110956259 3.2
      vertex -64.47467110956259 30.38320392229824 3.2
    endloop
  endfacet
  facet normal 0 0 1
    outer loop
      vertex -55.8 29.5 3.2
      vertex -63.62467110956259 31.000765071102794 3.2
      vertex -64.00076507110279 30.62467110956259 3.2
    endloop
  endfacet
  facet normal 0 0 1
    outer loop
      vertex -55.8 29.5 3.2
      vertex -63.3 32 3.2
      vertex -63.383203922298236 31.47467110956259 3.2
    endloop
  endfacet
  facet normal 0 0 1
    outer loop
      vertex -55.8 29.5 3.2
      vertex -63.383203922298236 31.47467110956259 3.2
      vertex -63.62467110956259 31.000765071102794 3.2
    endloop
  endfacet
  facet normal 0 0 -1
    outer loop
      vertex -61.60895221680403 26.549999997019768 2
      vertex -62.61437500268221 26.64902549982071 2
      vertex -63.63784667849541 26.95949223637581 2
    endloop
  endfacet
  facet normal -0.09801714194954807 -0.995184726512642 0
    outer loop
      vertex -62.61437500268221 26.64902549982071 2
      vertex -61.60895221680403 26.549999997019768 3.2
      vertex -62.61437500268221 26.64902549982071 3.2
    endloop
  endfacet
  facet normal -0.29028467548307013 -0.9569403362695548 0
    outer loop
      vertex -62.61437500268221 26.64902549982071 2
      vertex -62.61437500268221 26.64902549982071 3.2
      vertex -63.63784667849541 26.95949223637581 2
    endloop
  endfacet
  facet normal -0.29028467548307013 -0.9569403362695548 0
    outer loop
      vertex -63.63784667849541 26.95949223637581 2
      vertex -62.61437500268221 26.64902549982071 3.2
      vertex -63.63784667849541 26.95949223637581 3.2
    endloop
  endfacet
  facet normal -0.47139673592937803 -0.8819212648276081 0
    outer loop
      vertex -63.63784667849541 26.95949223637581 2
      vertex -63.63784667849541 26.95949223637581 3.2
      vertex -64.5810835659504 27.46366285532713 2
    endloop
  endfacet
  facet normal -0.47139673592937803 -0.8819212648276081 0
    outer loop
      vertex -64.5810835659504 27.46366285532713 2
      vertex -63.63784667849541 26.95949223637581 3.2
      vertex -64.5810835659504 27.46366285532713 3.2
    endloop
  endfacet
  facet normal 0 0 -1
    outer loop
      vertex -65.40783762186766 28.14216237515211 2
      vertex -63.17640458755163 28.073511986827032 2
      vertex -62.379133868568545 27.83166255828627 2
    endloop
  endfacet
  facet normal 0 0 -1
    outer loop
      vertex -65.40783762186766 28.14216237515211 2
      vertex -63.911173490333304 28.46625414771418 2
      vertex -63.17640458755163 28.073511986827032 2
    endloop
  endfacet
  facet normal -0.6343932846676565 -0.7730104529491059 0
    outer loop
      vertex -64.5810835659504 27.46366285532713 2
      vertex -64.5810835659504 27.46366285532713 3.2
      vertex -65.40783762186766 28.14216237515211 2
    endloop
  endfacet
  facet normal -0.6343932846676565 -0.7730104529491059 0
    outer loop
      vertex -65.40783762186766 28.14216237515211 2
      vertex -64.5810835659504 27.46366285532713 3.2
      vertex -65.40783762186766 28.14216237515211 3.2
    endloop
  endfacet
  facet normal 0 0 -1
    outer loop
      vertex -65.40783762186766 28.14216237515211 2
      vertex -66.08633714169264 28.968916431069374 2
      vertex -63.911173490333304 28.46625414771418 2
    endloop
  endfacet
  facet normal 0 0 -1
    outer loop
      vertex -66.08633714169264 28.968916431069374 2
      vertex -64.55520382004282 28.994796179957174 2
      vertex -63.911173490333304 28.46625414771418 2
    endloop
  endfacet
  facet normal 0 0 -1
    outer loop
      vertex -66.08633714169264 28.968916431069374 2
      vertex -65.08374585228582 29.638826509666693 2
      vertex -64.55520382004282 28.994796179957174 2
    endloop
  endfacet
  facet normal -0.7730104529491059 -0.6343932846676565 0
    outer loop
      vertex -65.40783762186766 28.14216237515211 2
      vertex -65.40783762186766 28.14216237515211 3.2
      vertex -66.08633714169264 28.968916431069374 2
    endloop
  endfacet
  facet normal -0.7730104529491059 -0.6343932846676565 0
    outer loop
      vertex -66.08633714169264 28.968916431069374 2
      vertex -65.40783762186766 28.14216237515211 3.2
      vertex -66.08633714169264 28.968916431069374 3.2
    endloop
  endfacet
  facet normal 0 0 1
    outer loop
      vertex -61.60895221680403 26.549999997019768 3.2
      vertex -63.63784667849541 26.95949223637581 3.2
      vertex -62.61437500268221 26.64902549982071 3.2
    endloop
  endfacet
  facet normal 0 0 -1
    outer loop
      vertex -66.08633714169264 28.968916431069374 2
      vertex -66.59050776064396 29.91215331852436 2
      vertex -65.08374585228582 29.638826509666693 2
    endloop
  endfacet
  facet normal -0.8819212648276081 -0.47139673592937803 0
    outer loop
      vertex -66.08633714169264 28.968916431069374 2
      vertex -66.08633714169264 28.968916431069374 3.2
      vertex -66.59050776064396 29.91215331852436 2
    endloop
  endfacet
  facet normal -0.8819212648276081 -0.47139673592937803 0
    outer loop
      vertex -66.59050776064396 29.91215331852436 2
      vertex -66.08633714169264 28.968916431069374 3.2
      vertex -66.59050776064396 29.91215331852436 3.2
    endloop
  endfacet
  facet normal 0 0 -1
    outer loop
      vertex -66.79999999701977 30.602756679058075 2
      vertex -65.47648801317297 30.373595412448367 2
      vertex -65.08374585228582 29.638826509666693 2
    endloop
  endfacet
  facet normal 0 0 -1
    outer loop
      vertex -66.59050776064396 29.91215331852436 2
      vertex -66.79999999701977 30.602756679058075 2
      vertex -65.08374585228582 29.638826509666693 2
    endloop
  endfacet
  facet normal -0.9569403367830966 -0.2902846737901498 0
    outer loop
      vertex -66.59050776064396 29.91215331852436 2
      vertex -66.59050776064396 29.91215331852436 3.2
      vertex -66.79999999701977 30.602756679058075 2
    endloop
  endfacet
  facet normal -0.9569403367830966 -0.2902846737901498 0
    outer loop
      vertex -66.79999999701977 30.602756679058075 2
      vertex -66.59050776064396 29.91215331852436 3.2
      vertex -66.79999999701977 30.602756679058075 3.2
    endloop
  endfacet
  facet normal 0 0 -1
    outer loop
      vertex -66.79999999701977 30.602756679058075 2
      vertex -65.71833744171373 31.170866131431456 2
      vertex -65.47648801317297 30.373595412448367 2
    endloop
  endfacet
  facet normal 0 0 -1
    outer loop
      vertex -66.79999999701977 30.602756679058075 2
      vertex -65.8 32 2
      vertex -65.71833744171373 31.170866131431456 2
    endloop
  endfacet
  facet normal -1 0 0
    outer loop
      vertex -66.79999999701977 30.602756679058075 2
      vertex -66.79999999701977 30.602756679058075 3.2
      vertex -66.79999999701977 33.397243320941925 2
    endloop
  endfacet
  facet normal 0 0 1
    outer loop
      vertex -53 27.479187168180943 3.2
      vertex -66.79999999701977 30.602756679058075 3.2
      vertex -66.59050776064396 29.91215331852436 3.2
    endloop
  endfacet
  facet normal 0 0 1
    outer loop
      vertex -66.79999999701977 30.602756679058075 3.2
      vertex -65.52532889043741 30.38320392229824 3.2
      vertex -65.99923492889721 30.62467110956259 3.2
    endloop
  endfacet
  facet normal 0 0 1
    outer loop
      vertex -66.79999999701977 30.602756679058075 3.2
      vertex -65.99923492889721 30.62467110956259 3.2
      vertex -66.37532889043742 31.000765071102794 3.2
    endloop
  endfacet
  facet normal 0 0 1
    outer loop
      vertex -66.79999999701977 30.602756679058075 3.2
      vertex -66.37532889043742 31.000765071102794 3.2
      vertex -66.61679607770176 31.47467110956259 3.2
    endloop
  endfacet
  facet normal 0 0 1
    outer loop
      vertex -66.79999999701977 30.602756679058075 3.2
      vertex -66.61679607770176 31.47467110956259 3.2
      vertex -66.7 32 3.2
    endloop
  endfacet
  facet normal 0 0 1
    outer loop
      vertex -55.8 29.5 3.2
      vertex -55.8 34.5 3.2
      vertex -63.3 32 3.2
    endloop
  endfacet
  facet normal 0 0 1
    outer loop
      vertex -53 36.52081283181906 3.2
      vertex -63.383203922298236 32.52532889043741 3.2
      vertex -63.3 32 3.2
    endloop
  endfacet
  facet normal 0 0 1
    outer loop
      vertex -53 36.52081283181906 3.2
      vertex -63.62467110956259 32.9992349288972 3.2
      vertex -63.383203922298236 32.52532889043741 3.2
    endloop
  endfacet
  facet normal 0 0 1
    outer loop
      vertex -53 36.52081283181906 3.2
      vertex -64.00076507110279 33.37532889043741 3.2
      vertex -63.62467110956259 32.9992349288972 3.2
    endloop
  endfacet
  facet normal 0 0 1
    outer loop
      vertex -53 36.52081283181906 3.2
      vertex -64.47467110956259 33.616796077701764 3.2
      vertex -64.00076507110279 33.37532889043741 3.2
    endloop
  endfacet
  facet normal 0 0 1
    outer loop
      vertex -53 36.52081283181906 3.2
      vertex -65 33.7 3.2
      vertex -64.47467110956259 33.616796077701764 3.2
    endloop
  endfacet
  facet normal 0 0 1
    outer loop
      vertex -53 36.52081283181906 3.2
      vertex -65.52532889043741 33.616796077701764 3.2
      vertex -65 33.7 3.2
    endloop
  endfacet
  facet normal 0 0 1
    outer loop
      vertex -53 36.52081283181906 3.2
      vertex -66.79999999701977 33.397243320941925 3.2
      vertex -65.52532889043741 33.616796077701764 3.2
    endloop
  endfacet
  facet normal 0 1 0
    outer loop
      vertex -55.99104777723551 37.45000000298023 2
      vertex -61.60895221680403 37.45000000298023 3.2
      vertex -55.99104777723551 37.45000000298023 3.2
    endloop
  endfacet
  facet normal 0 0 -1
    outer loop
      vertex -54.98562499135733 37.35097450017929 2
      vertex -61.55 36.25 2
      vertex -62.379133868568545 36.16833744171373 2
    endloop
  endfacet
  facet normal 0 0 -1
    outer loop
      vertex -54.98562499135733 37.35097450017929 2
      vertex -65.40783762186766 35.85783762484789 2
      vertex -55.99104777723551 37.45000000298023 2
    endloop
  endfacet
  facet normal 0 1 0
    outer loop
      vertex -55.99104777723551 37.45000000298023 2
      vertex -61.60895221680403 37.45000000298023 2
      vertex -61.60895221680403 37.45000000298023 3.2
    endloop
  endfacet
  facet normal 0 0 -1
    outer loop
      vertex -54.98562499135733 37.35097450017929 2
      vertex -62.379133868568545 36.16833744171373 2
      vertex -65.40783762186766 35.85783762484789 2
    endloop
  endfacet
  facet normal 0 0 -1
    outer loop
      vertex -55.99104777723551 37.45000000298023 2
      vertex -64.5810835659504 36.53633714467287 2
      vertex -61.60895221680403 37.45000000298023 2
    endloop
  endfacet
  facet normal 0 0 -1
    outer loop
      vertex -55.99104777723551 37.45000000298023 2
      vertex -65.40783762186766 35.85783762484789 2
      vertex -64.5810835659504 36.53633714467287 2
    endloop
  endfacet
  facet normal -0.09801714194954807 0.995184726512642 0
    outer loop
      vertex -61.60895221680403 37.45000000298023 2
      vertex -62.61437500268221 37.35097450017929 3.2
      vertex -61.60895221680403 37.45000000298023 3.2
    endloop
  endfacet
  facet normal 0 0 1
    outer loop
      vertex -53 36.52081283181906 3.2
      vertex -53.01891642808914 36.53633714467287 3.2
      vertex -66.79999999701977 33.397243320941925 3.2
    endloop
  endfacet
  facet normal 0 0 1
    outer loop
      vertex -53.01891642808914 36.53633714467287 3.2
      vertex -53.96215331554413 37.04050776362419 3.2
      vertex -66.59050776064396 34.08784668147564 3.2
    endloop
  endfacet
  facet normal 0 0 1
    outer loop
      vertex -53.96215331554413 37.04050776362419 3.2
      vertex -54.98562499135733 37.35097450017929 3.2
      vertex -66.08633714169264 35.031083568930626 3.2
    endloop
  endfacet
  facet normal 0 0 1
    outer loop
      vertex -54.98562499135733 37.35097450017929 3.2
      vertex -55.99104777723551 37.45000000298023 3.2
      vertex -65.40783762186766 35.85783762484789 3.2
    endloop
  endfacet
  facet normal 0 0 1
    outer loop
      vertex -55.99104777723551 37.45000000298023 3.2
      vertex -61.60895221680403 37.45000000298023 3.2
      vertex -64.5810835659504 36.53633714467287 3.2
    endloop
  endfacet
  facet normal 0 0 1
    outer loop
      vertex -55.99104777723551 37.45000000298023 3.2
      vertex -64.5810835659504 36.53633714467287 3.2
      vertex -65.40783762186766 35.85783762484789 3.2
    endloop
  endfacet
  facet normal 0 0 -1
    outer loop
      vertex -66.79999999701977 30.602756679058075 2
      vertex -66.79999999701977 33.397243320941925 2
      vertex -65.8 32 2
    endloop
  endfacet
  facet normal -1 0 0
    outer loop
      vertex -66.79999999701977 30.602756679058075 3.2
      vertex -66.79999999701977 33.397243320941925 3.2
      vertex -66.79999999701977 33.397243320941925 2
    endloop
  endfacet
  facet normal 0 0 -1
    outer loop
      vertex -66.79999999701977 33.397243320941925 2
      vertex -65.71833744171373 32.82913386856855 2
      vertex -65.8 32 2
    endloop
  endfacet
  facet normal 0 0 -1
    outer loop
      vertex -66.79999999701977 33.397243320941925 2
      vertex -65.47648801317297 33.62640458755163 2
      vertex -65.71833744171373 32.82913386856855 2
    endloop
  endfacet
  facet normal 0 0 -1
    outer loop
      vertex -66.59050776064396 34.08784668147564 2
      vertex -65.08374585228582 34.36117349033331 2
      vertex -65.47648801317297 33.62640458755163 2
    endloop
  endfacet
  facet normal -0.9569403367830966 0.2902846737901498 0
    outer loop
      vertex -66.79999999701977 33.397243320941925 2
      vertex -66.79999999701977 33.397243320941925 3.2
      vertex -66.59050776064396 34.08784668147564 2
    endloop
  endfacet
  facet normal 0 0 -1
    outer loop
      vertex -66.79999999701977 33.397243320941925 2
      vertex -66.59050776064396 34.08784668147564 2
      vertex -65.47648801317297 33.62640458755163 2
    endloop
  endfacet
  facet normal -0.9569403367830966 0.2902846737901498 0
    outer loop
      vertex -66.59050776064396 34.08784668147564 2
      vertex -66.79999999701977 33.397243320941925 3.2
      vertex -66.59050776064396 34.08784668147564 3.2
    endloop
  endfacet
  facet normal 0 0 -1
    outer loop
      vertex -66.59050776064396 34.08784668147564 2
      vertex -66.08633714169264 35.031083568930626 2
      vertex -65.08374585228582 34.36117349033331 2
    endloop
  endfacet
  facet normal -0.8819212648276081 0.47139673592937803 0
    outer loop
      vertex -66.59050776064396 34.08784668147564 2
      vertex -66.59050776064396 34.08784668147564 3.2
      vertex -66.08633714169264 35.031083568930626 2
    endloop
  endfacet
  facet normal -0.8819212648276081 0.47139673592937803 0
    outer loop
      vertex -66.08633714169264 35.031083568930626 2
      vertex -66.59050776064396 34.08784668147564 3.2
      vertex -66.08633714169264 35.031083568930626 3.2
    endloop
  endfacet
  facet normal 0 0 1
    outer loop
      vertex -53.01891642808914 36.53633714467287 3.2
      vertex -66.59050776064396 34.08784668147564 3.2
      vertex -66.79999999701977 33.397243320941925 3.2
    endloop
  endfacet
  facet normal 0 0 1
    outer loop
      vertex -66.79999999701977 30.602756679058075 3.2
      vertex -66.7 32 3.2
      vertex -66.79999999701977 33.397243320941925 3.2
    endloop
  endfacet
  facet normal 0 0 1
    outer loop
      vertex -66.79999999701977 33.397243320941925 3.2
      vertex -66.7 32 3.2
      vertex -66.61679607770176 32.52532889043741 3.2
    endloop
  endfacet
  facet normal 0 0 1
    outer loop
      vertex -66.79999999701977 33.397243320941925 3.2
      vertex -66.61679607770176 32.52532889043741 3.2
      vertex -66.37532889043742 32.9992349288972 3.2
    endloop
  endfacet
  facet normal 0 0 1
    outer loop
      vertex -66.79999999701977 33.397243320941925 3.2
      vertex -66.37532889043742 32.9992349288972 3.2
      vertex -65.99923492889721 33.37532889043741 3.2
    endloop
  endfacet
  facet normal 0 0 1
    outer loop
      vertex -66.79999999701977 33.397243320941925 3.2
      vertex -65.99923492889721 33.37532889043741 3.2
      vertex -65.52532889043741 33.616796077701764 3.2
    endloop
  endfacet
  facet normal 0 0 -1
    outer loop
      vertex -65.40783762186766 35.85783762484789 2
      vertex -62.379133868568545 36.16833744171373 2
      vertex -63.17640458755163 35.92648801317297 2
    endloop
  endfacet
  facet normal 0 0 -1
    outer loop
      vertex -65.40783762186766 35.85783762484789 2
      vertex -63.17640458755163 35.92648801317297 2
      vertex -63.911173490333304 35.53374585228582 2
    endloop
  endfacet
  facet normal 0 0 -1
    outer loop
      vertex -61.60895221680403 37.45000000298023 2
      vertex -63.63784667849541 37.04050776362419 2
      vertex -62.61437500268221 37.35097450017929 2
    endloop
  endfacet
  facet normal -0.09801714194954807 0.995184726512642 0
    outer loop
      vertex -61.60895221680403 37.45000000298023 2
      vertex -62.61437500268221 37.35097450017929 2
      vertex -62.61437500268221 37.35097450017929 3.2
    endloop
  endfacet
  facet normal -0.29028467548307013 0.9569403362695548 0
    outer loop
      vertex -62.61437500268221 37.35097450017929 2
      vertex -63.63784667849541 37.04050776362419 3.2
      vertex -62.61437500268221 37.35097450017929 3.2
    endloop
  endfacet
  facet normal -0.47139673592937803 0.8819212648276081 0
    outer loop
      vertex -63.63784667849541 37.04050776362419 2
      vertex -64.5810835659504 36.53633714467287 2
      vertex -64.5810835659504 36.53633714467287 3.2
    endloop
  endfacet
  facet normal 0 0 -1
    outer loop
      vertex -61.60895221680403 37.45000000298023 2
      vertex -64.5810835659504 36.53633714467287 2
      vertex -63.63784667849541 37.04050776362419 2
    endloop
  endfacet
  facet normal -0.29028467548307013 0.9569403362695548 0
    outer loop
      vertex -62.61437500268221 37.35097450017929 2
      vertex -63.63784667849541 37.04050776362419 2
      vertex -63.63784667849541 37.04050776362419 3.2
    endloop
  endfacet
  facet normal -0.47139673592937803 0.8819212648276081 0
    outer loop
      vertex -63.63784667849541 37.04050776362419 2
      vertex -64.5810835659504 36.53633714467287 3.2
      vertex -63.63784667849541 37.04050776362419 3.2
    endloop
  endfacet
  facet normal 0 0 -1
    outer loop
      vertex -66.08633714169264 35.031083568930626 2
      vertex -64.55520382004282 35.00520382004283 2
      vertex -65.08374585228582 34.36117349033331 2
    endloop
  endfacet
  facet normal 0 0 -1
    outer loop
      vertex -65.40783762186766 35.85783762484789 2
      vertex -64.55520382004282 35.00520382004283 2
      vertex -66.08633714169264 35.031083568930626 2
    endloop
  endfacet
  facet normal 0 0 -1
    outer loop
      vertex -65.40783762186766 35.85783762484789 2
      vertex -63.911173490333304 35.53374585228582 2
      vertex -64.55520382004282 35.00520382004283 2
    endloop
  endfacet
  facet normal -0.6343932846676565 0.7730104529491059 0
    outer loop
      vertex -64.5810835659504 36.53633714467287 2
      vertex -65.40783762186766 35.85783762484789 2
      vertex -65.40783762186766 35.85783762484789 3.2
    endloop
  endfacet
  facet normal -0.7730104529491059 0.6343932846676565 0
    outer loop
      vertex -65.40783762186766 35.85783762484789 2
      vertex -66.08633714169264 35.031083568930626 2
      vertex -66.08633714169264 35.031083568930626 3.2
    endloop
  endfacet
  facet normal -0.7730104529491059 0.6343932846676565 0
    outer loop
      vertex -65.40783762186766 35.85783762484789 2
      vertex -66.08633714169264 35.031083568930626 3.2
      vertex -65.40783762186766 35.85783762484789 3.2
    endloop
  endfacet
  facet normal -0.6343932846676565 0.7730104529491059 0
    outer loop
      vertex -64.5810835659504 36.53633714467287 2
      vertex -65.40783762186766 35.85783762484789 3.2
      vertex -64.5810835659504 36.53633714467287 3.2
    endloop
  endfacet
  facet normal 0 0 1
    outer loop
      vertex -53.96215331554413 37.04050776362419 3.2
      vertex -66.08633714169264 35.031083568930626 3.2
      vertex -66.59050776064396 34.08784668147564 3.2
    endloop
  endfacet
  facet normal 0 0 1
    outer loop
      vertex -54.98562499135733 37.35097450017929 3.2
      vertex -65.40783762186766 35.85783762484789 3.2
      vertex -66.08633714169264 35.031083568930626 3.2
    endloop
  endfacet
  facet normal 0 0 1
    outer loop
      vertex -61.60895221680403 37.45000000298023 3.2
      vertex -62.61437500268221 37.35097450017929 3.2
      vertex -63.63784667849541 37.04050776362419 3.2
    endloop
  endfacet
  facet normal 0 0 1
    outer loop
      vertex -61.60895221680403 37.45000000298023 3.2
      vertex -63.63784667849541 37.04050776362419 3.2
      vertex -64.5810835659504 36.53633714467287 3.2
    endloop
  endfacet
  facet normal 0.45399049973954236 -0.8910065241883701 0
    outer loop
      vertex -64.00076507110279 30.62467110956259 14.290000000000003
      vertex -64.47467110956259 30.38320392229824 3.2
      vertex -64.00076507110279 30.62467110956259 3.2
    endloop
  endfacet
  facet normal 0.7071067811865508 -0.7071067811865441 0
    outer loop
      vertex -63.62467110956259 31.000765071102794 14.290000000000003
      vertex -64.00076507110279 30.62467110956259 3.2
      vertex -63.62467110956259 31.000765071102794 3.2
    endloop
  endfacet
  facet normal 0.8910065241883646 -0.4539904997395531 0
    outer loop
      vertex -63.383203922298236 31.47467110956259 14.290000000000003
      vertex -63.62467110956259 31.000765071102794 3.2
      vertex -63.383203922298236 31.47467110956259 3.2
    endloop
  endfacet
  facet normal 0.9876883405951378 -0.15643446504023056 0
    outer loop
      vertex -63.3 32 14.290000000000003
      vertex -63.383203922298236 31.47467110956259 3.2
      vertex -63.3 32 3.2
    endloop
  endfacet
  facet normal 0.1564344650402316 -0.9876883405951375 0
    outer loop
      vertex -64.47467110956259 30.38320392229824 14.290000000000003
      vertex -65 30.3 3.2
      vertex -64.47467110956259 30.38320392229824 3.2
    endloop
  endfacet
  facet normal -0.1564344650402316 -0.9876883405951375 0
    outer loop
      vertex -65 30.3 14.290000000000003
      vertex -65.52532889043741 30.38320392229824 3.2
      vertex -65 30.3 3.2
    endloop
  endfacet
  facet normal -0.45399049973954236 -0.8910065241883701 0
    outer loop
      vertex -65.52532889043741 30.38320392229824 14.290000000000003
      vertex -65.99923492889721 30.62467110956259 3.2
      vertex -65.52532889043741 30.38320392229824 3.2
    endloop
  endfacet
  facet normal -0.7071067811865442 -0.707106781186551 0
    outer loop
      vertex -65.99923492889721 30.62467110956259 14.290000000000003
      vertex -66.37532889043742 31.000765071102794 3.2
      vertex -65.99923492889721 30.62467110956259 3.2
    endloop
  endfacet
  facet normal -0.8910065241883701 -0.4539904997395425 0
    outer loop
      vertex -66.37532889043742 31.000765071102794 14.290000000000003
      vertex -66.61679607770176 31.47467110956259 3.2
      vertex -66.37532889043742 31.000765071102794 3.2
    endloop
  endfacet
  facet normal -0.9876883405951378 -0.15643446504023056 0
    outer loop
      vertex -66.61679607770176 31.47467110956259 14.290000000000003
      vertex -66.7 32 3.2
      vertex -66.61679607770176 31.47467110956259 3.2
    endloop
  endfacet
  facet normal 0.45399049973954236 -0.8910065241883701 0
    outer loop
      vertex -64.00076507110279 30.62467110956259 14.290000000000003
      vertex -64.47467110956259 30.38320392229824 14.290000000000003
      vertex -64.47467110956259 30.38320392229824 3.2
    endloop
  endfacet
  facet normal 0.8910065241883646 -0.4539904997395531 0
    outer loop
      vertex -63.62467110956259 31.000765071102794 14.290000000000003
      vertex -63.62467110956259 31.000765071102794 3.2
      vertex -63.383203922298236 31.47467110956259 14.290000000000003
    endloop
  endfacet
  facet normal 0.7071067811865508 -0.7071067811865441 0
    outer loop
      vertex -64.00076507110279 30.62467110956259 14.290000000000003
      vertex -64.00076507110279 30.62467110956259 3.2
      vertex -63.62467110956259 31.000765071102794 14.290000000000003
    endloop
  endfacet
  facet normal 0.9876883405951378 -0.15643446504023056 0
    outer loop
      vertex -63.383203922298236 31.47467110956259 14.290000000000003
      vertex -63.383203922298236 31.47467110956259 3.2
      vertex -63.3 32 14.290000000000003
    endloop
  endfacet
  facet normal 0 0 1
    outer loop
      vertex -64.00076507110279 30.62467110956259 14.290000000000003
      vertex -63.62467110956259 31.000765071102794 14.290000000000003
      vertex -63.62467110956259 32.9992349288972 14.290000000000003
    endloop
  endfacet
  facet normal 0 0 1
    outer loop
      vertex -63.62467110956259 31.000765071102794 14.290000000000003
      vertex -63.383203922298236 31.47467110956259 14.290000000000003
      vertex -63.383203922298236 32.52532889043741 14.290000000000003
    endloop
  endfacet
  facet normal 0 0 1
    outer loop
      vertex -64.00076507110279 30.62467110956259 14.290000000000003
      vertex -64.00076507110279 33.37532889043741 14.290000000000003
      vertex -64.47467110956259 30.38320392229824 14.290000000000003
    endloop
  endfacet
  facet normal 0.1564344650402316 -0.9876883405951375 0
    outer loop
      vertex -64.47467110956259 30.38320392229824 14.290000000000003
      vertex -65 30.3 14.290000000000003
      vertex -65 30.3 3.2
    endloop
  endfacet
  facet normal -0.1564344650402316 -0.9876883405951375 0
    outer loop
      vertex -65 30.3 14.290000000000003
      vertex -65.52532889043741 30.38320392229824 14.290000000000003
      vertex -65.52532889043741 30.38320392229824 3.2
    endloop
  endfacet
  facet normal -0.45399049973954236 -0.8910065241883701 0
    outer loop
      vertex -65.52532889043741 30.38320392229824 14.290000000000003
      vertex -65.99923492889721 30.62467110956259 14.290000000000003
      vertex -65.99923492889721 30.62467110956259 3.2
    endloop
  endfacet
  facet normal -0.7071067811865442 -0.707106781186551 0
    outer loop
      vertex -65.99923492889721 30.62467110956259 14.290000000000003
      vertex -66.37532889043742 31.000765071102794 14.290000000000003
      vertex -66.37532889043742 31.000765071102794 3.2
    endloop
  endfacet
  facet normal -0.8910065241883701 -0.4539904997395425 0
    outer loop
      vertex -66.37532889043742 31.000765071102794 14.290000000000003
      vertex -66.61679607770176 31.47467110956259 14.290000000000003
      vertex -66.61679607770176 31.47467110956259 3.2
    endloop
  endfacet
  facet normal -0.9876883405951378 -0.15643446504023056 0
    outer loop
      vertex -66.61679607770176 31.47467110956259 14.290000000000003
      vertex -66.7 32 14.290000000000003
      vertex -66.7 32 3.2
    endloop
  endfacet
  facet normal 0 0 1
    outer loop
      vertex -64.47467110956259 30.38320392229824 14.290000000000003
      vertex -64.47467110956259 33.616796077701764 14.290000000000003
      vertex -65 30.3 14.290000000000003
    endloop
  endfacet
  facet normal 0 0 1
    outer loop
      vertex -65 30.3 14.290000000000003
      vertex -65 33.7 14.290000000000003
      vertex -65.52532889043741 30.38320392229824 14.290000000000003
    endloop
  endfacet
  facet normal 0 0 1
    outer loop
      vertex -65.52532889043741 30.38320392229824 14.290000000000003
      vertex -65.52532889043741 33.616796077701764 14.290000000000003
      vertex -65.99923492889721 30.62467110956259 14.290000000000003
    endloop
  endfacet
  facet normal 0 0 1
    outer loop
      vertex -65.99923492889721 30.62467110956259 14.290000000000003
      vertex -65.99923492889721 33.37532889043741 14.290000000000003
      vertex -66.37532889043742 31.000765071102794 14.290000000000003
    endloop
  endfacet
  facet normal 0 0 1
    outer loop
      vertex -66.37532889043742 31.000765071102794 14.290000000000003
      vertex -66.37532889043742 32.9992349288972 14.290000000000003
      vertex -66.61679607770176 31.47467110956259 14.290000000000003
    endloop
  endfacet
  facet normal 0.9876883405951375 0.1564344650402316 0
    outer loop
      vertex -63.383203922298236 32.52532889043741 14.290000000000003
      vertex -63.3 32 3.2
      vertex -63.383203922298236 32.52532889043741 3.2
    endloop
  endfacet
  facet normal 0.8910065241883646 0.4539904997395531 0
    outer loop
      vertex -63.62467110956259 32.9992349288972 14.290000000000003
      vertex -63.383203922298236 32.52532889043741 3.2
      vertex -63.62467110956259 32.9992349288972 3.2
    endloop
  endfacet
  facet normal 0.7071067811865542 0.7071067811865409 0
    outer loop
      vertex -64.00076507110279 33.37532889043741 14.290000000000003
      vertex -63.62467110956259 32.9992349288972 3.2
      vertex -64.00076507110279 33.37532889043741 3.2
    endloop
  endfacet
  facet normal 0.4539904997395477 0.8910065241883675 0
    outer loop
      vertex -64.47467110956259 33.616796077701764 14.290000000000003
      vertex -64.00076507110279 33.37532889043741 3.2
      vertex -64.47467110956259 33.616796077701764 3.2
    endloop
  endfacet
  facet normal -0.9876883405951375 0.1564344650402316 0
    outer loop
      vertex -66.7 32 14.290000000000003
      vertex -66.61679607770176 32.52532889043741 3.2
      vertex -66.7 32 3.2
    endloop
  endfacet
  facet normal -0.8910065241883701 0.4539904997395425 0
    outer loop
      vertex -66.61679607770176 32.52532889043741 14.290000000000003
      vertex -66.37532889043742 32.9992349288972 3.2
      vertex -66.61679607770176 32.52532889043741 3.2
    endloop
  endfacet
  facet normal -0.7071067811865476 0.7071067811865476 0
    outer loop
      vertex -66.37532889043742 32.9992349288972 14.290000000000003
      vertex -65.99923492889721 33.37532889043741 3.2
      vertex -66.37532889043742 32.9992349288972 3.2
    endloop
  endfacet
  facet normal 0.1564344650402316 0.9876883405951375 0
    outer loop
      vertex -65 33.7 14.290000000000003
      vertex -64.47467110956259 33.616796077701764 3.2
      vertex -65 33.7 3.2
    endloop
  endfacet
  facet normal -0.1564344650402316 0.9876883405951375 0
    outer loop
      vertex -65.52532889043741 33.616796077701764 14.290000000000003
      vertex -65 33.7 3.2
      vertex -65.52532889043741 33.616796077701764 3.2
    endloop
  endfacet
  facet normal -0.4539904997395477 0.8910065241883675 0
    outer loop
      vertex -65.99923492889721 33.37532889043741 14.290000000000003
      vertex -65.52532889043741 33.616796077701764 3.2
      vertex -65.99923492889721 33.37532889043741 3.2
    endloop
  endfacet
  facet normal 0.9876883405951375 0.1564344650402316 0
    outer loop
      vertex -63.3 32 14.290000000000003
      vertex -63.3 32 3.2
      vertex -63.383203922298236 32.52532889043741 14.290000000000003
    endloop
  endfacet
  facet normal 0.8910065241883646 0.4539904997395531 0
    outer loop
      vertex -63.383203922298236 32.52532889043741 14.290000000000003
      vertex -63.383203922298236 32.52532889043741 3.2
      vertex -63.62467110956259 32.9992349288972 14.290000000000003
    endloop
  endfacet
  facet normal 0.7071067811865542 0.7071067811865409 0
    outer loop
      vertex -63.62467110956259 32.9992349288972 14.290000000000003
      vertex -63.62467110956259 32.9992349288972 3.2
      vertex -64.00076507110279 33.37532889043741 14.290000000000003
    endloop
  endfacet
  facet normal 0 0 1
    outer loop
      vertex -63.383203922298236 31.47467110956259 14.290000000000003
      vertex -63.3 32 14.290000000000003
      vertex -63.383203922298236 32.52532889043741 14.290000000000003
    endloop
  endfacet
  facet normal 0 0 1
    outer loop
      vertex -63.62467110956259 31.000765071102794 14.290000000000003
      vertex -63.383203922298236 32.52532889043741 14.290000000000003
      vertex -63.62467110956259 32.9992349288972 14.290000000000003
    endloop
  endfacet
  facet normal 0 0 1
    outer loop
      vertex -64.00076507110279 30.62467110956259 14.290000000000003
      vertex -63.62467110956259 32.9992349288972 14.290000000000003
      vertex -64.00076507110279 33.37532889043741 14.290000000000003
    endloop
  endfacet
  facet normal 0 0 1
    outer loop
      vertex -64.47467110956259 30.38320392229824 14.290000000000003
      vertex -64.00076507110279 33.37532889043741 14.290000000000003
      vertex -64.47467110956259 33.616796077701764 14.290000000000003
    endloop
  endfacet
  facet normal 0.4539904997395477 0.8910065241883675 0
    outer loop
      vertex -64.00076507110279 33.37532889043741 14.290000000000003
      vertex -64.00076507110279 33.37532889043741 3.2
      vertex -64.47467110956259 33.616796077701764 14.290000000000003
    endloop
  endfacet
  facet normal -0.9876883405951375 0.1564344650402316 0
    outer loop
      vertex -66.7 32 14.290000000000003
      vertex -66.61679607770176 32.52532889043741 14.290000000000003
      vertex -66.61679607770176 32.52532889043741 3.2
    endloop
  endfacet
  facet normal -0.7071067811865476 0.7071067811865476 0
    outer loop
      vertex -66.37532889043742 32.9992349288972 14.290000000000003
      vertex -65.99923492889721 33.37532889043741 14.290000000000003
      vertex -65.99923492889721 33.37532889043741 3.2
    endloop
  endfacet
  facet normal -0.8910065241883701 0.4539904997395425 0
    outer loop
      vertex -66.61679607770176 32.52532889043741 14.290000000000003
      vertex -66.37532889043742 32.9992349288972 14.290000000000003
      vertex -66.37532889043742 32.9992349288972 3.2
    endloop
  endfacet
  facet normal 0 0 1
    outer loop
      vertex -65 30.3 14.290000000000003
      vertex -64.47467110956259 33.616796077701764 14.290000000000003
      vertex -65 33.7 14.290000000000003
    endloop
  endfacet
  facet normal 0 0 1
    outer loop
      vertex -65.52532889043741 30.38320392229824 14.290000000000003
      vertex -65 33.7 14.290000000000003
      vertex -65.52532889043741 33.616796077701764 14.290000000000003
    endloop
  endfacet
  facet normal 0 0 1
    outer loop
      vertex -65.99923492889721 30.62467110956259 14.290000000000003
      vertex -65.52532889043741 33.616796077701764 14.290000000000003
      vertex -65.99923492889721 33.37532889043741 14.290000000000003
    endloop
  endfacet
  facet normal 0 0 1
    outer loop
      vertex -66.61679607770176 31.47467110956259 14.290000000000003
      vertex -66.61679607770176 32.52532889043741 14.290000000000003
      vertex -66.7 32 14.290000000000003
    endloop
  endfacet
  facet normal 0 0 1
    outer loop
      vertex -66.61679607770176 31.47467110956259 14.290000000000003
      vertex -66.37532889043742 32.9992349288972 14.290000000000003
      vertex -66.61679607770176 32.52532889043741 14.290000000000003
    endloop
  endfacet
  facet normal 0 0 1
    outer loop
      vertex -66.37532889043742 31.000765071102794 14.290000000000003
      vertex -65.99923492889721 33.37532889043741 14.290000000000003
      vertex -66.37532889043742 32.9992349288972 14.290000000000003
    endloop
  endfacet
  facet normal 0.1564344650402316 0.9876883405951375 0
    outer loop
      vertex -64.47467110956259 33.616796077701764 14.290000000000003
      vertex -64.47467110956259 33.616796077701764 3.2
      vertex -65 33.7 14.290000000000003
    endloop
  endfacet
  facet normal -0.1564344650402316 0.9876883405951375 0
    outer loop
      vertex -65 33.7 14.290000000000003
      vertex -65 33.7 3.2
      vertex -65.52532889043741 33.616796077701764 14.290000000000003
    endloop
  endfacet
  facet normal -0.4539904997395477 0.8910065241883675 0
    outer loop
      vertex -65.52532889043741 33.616796077701764 14.290000000000003
      vertex -65.52532889043741 33.616796077701764 3.2
      vertex -65.99923492889721 33.37532889043741 14.290000000000003
    endloop
  endfacet
endsolid OpenSCAD_Model
