solid OpenSCAD_Model
  facet normal 0 0 1
    outer loop
      vertex -1.1999999999999993 29.1 4.199999999999999
      vertex -1.1086554390135426 28.640779881161894 4.199999999999999
      vertex -1.1086554390135426 29.55922011883811 4.199999999999999
    endloop
  endfacet
  facet normal 0 0 1
    outer loop
      vertex -1.1086554390135426 29.55922011883811 4.199999999999999
      vertex -1.1086554390135426 28.640779881161894 4.199999999999999
      vertex -0.8485281374238554 28.251471862576146 4.199999999999999
    endloop
  endfacet
  facet normal 0 0 1
    outer loop
      vertex -1.1086554390135426 29.55922011883811 4.199999999999999
      vertex -0.8485281374238554 28.251471862576146 4.199999999999999
      vertex -0.8485281374238554 29.948528137423857 4.199999999999999
    endloop
  endfacet
  facet normal 0 0 1
    outer loop
      vertex -0.8485281374238554 29.948528137423857 4.199999999999999
      vertex -0.8485281374238554 28.251471862576146 4.199999999999999
      vertex -0.45922011883810754 27.99134456098646 4.199999999999999
    endloop
  endfacet
  facet normal -0.9807852804032301 0.19509032201613002 0
    outer loop
      vertex -1.1999999999999993 29.1 4.199999999999999
      vertex -1.1086554390135426 29.55922011883811 4.199999999999999
      vertex -1.1086554390135426 29.55922011883811 1.1999999999999993
    endloop
  endfacet
  facet normal -0.9807852804032301 -0.19509032201613002 0
    outer loop
      vertex -1.1999999999999993 29.1 4.199999999999999
      vertex -1.1999999999999993 29.1 1.1999999999999993
      vertex -1.1086554390135426 28.640779881161894 4.199999999999999
    endloop
  endfacet
  facet normal -0.8314696123025442 -0.555570233019604 0
    outer loop
      vertex -1.1086554390135426 28.640779881161894 4.199999999999999
      vertex -1.1086554390135426 28.640779881161894 1.1999999999999993
      vertex -0.8485281374238554 28.251471862576146 4.199999999999999
    endloop
  endfacet
  facet normal -0.8314696123025442 0.555570233019604 0
    outer loop
      vertex -1.1086554390135426 29.55922011883811 4.199999999999999
      vertex -0.8485281374238554 29.948528137423857 4.199999999999999
      vertex -0.8485281374238554 29.948528137423857 1.1999999999999993
    endloop
  endfacet
  facet normal -0.555570233019604 -0.8314696123025442 0
    outer loop
      vertex -0.8485281374238554 28.251471862576146 4.199999999999999
      vertex -0.8485281374238554 28.251471862576146 1.1999999999999993
      vertex -0.45922011883810754 27.99134456098646 4.199999999999999
    endloop
  endfacet
  facet normal 0 0 1
    outer loop
      vertex -0.8485281374238554 29.948528137423857 4.199999999999999
      vertex -0.45922011883810754 27.99134456098646 4.199999999999999
      vertex -0.45922011883810754 30.208655439013544 4.199999999999999
    endloop
  endfacet
  facet normal 0 0 1
    outer loop
      vertex -0.45922011883810754 30.208655439013544 4.199999999999999
      vertex -0.45922011883810754 27.99134456098646 4.199999999999999
      vertex 0 27.900000000000002 4.199999999999999
    endloop
  endfacet
  facet normal 0 0 1
    outer loop
      vertex -0.45922011883810754 30.208655439013544 4.199999999999999
      vertex 0 27.900000000000002 4.199999999999999
      vertex 0 30.3 4.199999999999999
    endloop
  endfacet
  facet normal -0.555570233019604 0.8314696123025442 0
    outer loop
      vertex -0.8485281374238554 29.948528137423857 4.199999999999999
      vertex -0.45922011883810754 30.208655439013544 4.199999999999999
      vertex -0.45922011883810754 30.208655439013544 1.1999999999999993
    endloop
  endfacet
  facet normal -0.19509032201613002 -0.9807852804032301 0
    outer loop
      vertex -0.45922011883810754 27.99134456098646 4.199999999999999
      vertex -0.45922011883810754 27.99134456098646 1.1999999999999993
      vertex 0 27.900000000000002 4.199999999999999
    endloop
  endfacet
  facet normal -0.19509032201613002 0.9807852804032301 0
    outer loop
      vertex -0.45922011883810754 30.208655439013544 4.199999999999999
      vertex 0 30.3 4.199999999999999
      vertex 0 30.3 1.1999999999999993
    endloop
  endfacet
  facet normal -0.9807852804032301 0.19509032201613002 0
    outer loop
      vertex -1.1999999999999993 29.1 4.199999999999999
      vertex -1.1086554390135426 29.55922011883811 1.1999999999999993
      vertex -1.1999999999999993 29.1 1.1999999999999993
    endloop
  endfacet
  facet normal -0.9807852804032301 -0.19509032201613002 0
    outer loop
      vertex -1.1086554390135426 28.640779881161894 4.199999999999999
      vertex -1.1999999999999993 29.1 1.1999999999999993
      vertex -1.1086554390135426 28.640779881161894 1.1999999999999993
    endloop
  endfacet
  facet normal -0.8314696123025442 0.555570233019604 0
    outer loop
      vertex -1.1086554390135426 29.55922011883811 4.199999999999999
      vertex -0.8485281374238554 29.948528137423857 1.1999999999999993
      vertex -1.1086554390135426 29.55922011883811 1.1999999999999993
    endloop
  endfacet
  facet normal -0.8314696123025442 -0.555570233019604 0
    outer loop
      vertex -0.8485281374238554 28.251471862576146 4.199999999999999
      vertex -1.1086554390135426 28.640779881161894 1.1999999999999993
      vertex -0.8485281374238554 28.251471862576146 1.1999999999999993
    endloop
  endfacet
  facet normal -0.555570233019604 0.8314696123025442 0
    outer loop
      vertex -0.8485281374238554 29.948528137423857 4.199999999999999
      vertex -0.45922011883810754 30.208655439013544 1.1999999999999993
      vertex -0.8485281374238554 29.948528137423857 1.1999999999999993
    endloop
  endfacet
  facet normal -0.555570233019604 -0.8314696123025442 0
    outer loop
      vertex -0.45922011883810754 27.99134456098646 4.199999999999999
      vertex -0.8485281374238554 28.251471862576146 1.1999999999999993
      vertex -0.45922011883810754 27.99134456098646 1.1999999999999993
    endloop
  endfacet
  facet normal -0.19509032201613002 0.9807852804032301 0
    outer loop
      vertex -0.45922011883810754 30.208655439013544 4.199999999999999
      vertex 0 30.3 1.1999999999999993
      vertex -0.45922011883810754 30.208655439013544 1.1999999999999993
    endloop
  endfacet
  facet normal -0.19509032201613002 -0.9807852804032301 0
    outer loop
      vertex 0 27.900000000000002 4.199999999999999
      vertex -0.45922011883810754 27.99134456098646 1.1999999999999993
      vertex 0 27.900000000000002 1.1999999999999993
    endloop
  endfacet
  facet normal 0 0 1
    outer loop
      vertex 0 30.3 4.199999999999999
      vertex 0 27.900000000000002 4.199999999999999
      vertex 0.45922011883810754 27.99134456098646 4.199999999999999
    endloop
  endfacet
  facet normal 0 0 1
    outer loop
      vertex 0 30.3 4.199999999999999
      vertex 0.45922011883810754 27.99134456098646 4.199999999999999
      vertex 0.45922011883810754 30.208655439013544 4.199999999999999
    endloop
  endfacet
  facet normal 0 0 1
    outer loop
      vertex 0.45922011883810754 30.208655439013544 4.199999999999999
      vertex 0.45922011883810754 27.99134456098646 4.199999999999999
      vertex 0.8485281374238554 28.251471862576146 4.199999999999999
    endloop
  endfacet
  facet normal 0.19509032201613002 -0.9807852804032301 0
    outer loop
      vertex 0 27.900000000000002 4.199999999999999
      vertex 0 27.900000000000002 1.1999999999999993
      vertex 0.45922011883810754 27.99134456098646 4.199999999999999
    endloop
  endfacet
  facet normal 0.19509032201613002 0.9807852804032301 0
    outer loop
      vertex 0 30.3 4.199999999999999
      vertex 0.45922011883810754 30.208655439013544 4.199999999999999
      vertex 0.45922011883810754 30.208655439013544 1.1999999999999993
    endloop
  endfacet
  facet normal 0.555570233019604 -0.8314696123025442 0
    outer loop
      vertex 0.45922011883810754 27.99134456098646 4.199999999999999
      vertex 0.45922011883810754 27.99134456098646 1.1999999999999993
      vertex 0.8485281374238554 28.251471862576146 4.199999999999999
    endloop
  endfacet
  facet normal 0 0 1
    outer loop
      vertex 0.45922011883810754 30.208655439013544 4.199999999999999
      vertex 0.8485281374238554 28.251471862576146 4.199999999999999
      vertex 0.8485281374238554 29.948528137423857 4.199999999999999
    endloop
  endfacet
  facet normal 0 0 1
    outer loop
      vertex 0.8485281374238554 29.948528137423857 4.199999999999999
      vertex 0.8485281374238554 28.251471862576146 4.199999999999999
      vertex 1.1086554390135426 28.640779881161894 4.199999999999999
    endloop
  endfacet
  facet normal 0 0 1
    outer loop
      vertex 0.8485281374238554 29.948528137423857 4.199999999999999
      vertex 1.1086554390135426 28.640779881161894 4.199999999999999
      vertex 1.1086554390135426 29.55922011883811 4.199999999999999
    endloop
  endfacet
  facet normal 0 0 1
    outer loop
      vertex 1.1086554390135426 29.55922011883811 4.199999999999999
      vertex 1.1086554390135426 28.640779881161894 4.199999999999999
      vertex 1.1999999999999993 29.1 4.199999999999999
    endloop
  endfacet
  facet normal 0.555570233019604 0.8314696123025442 0
    outer loop
      vertex 0.45922011883810754 30.208655439013544 4.199999999999999
      vertex 0.8485281374238554 29.948528137423857 4.199999999999999
      vertex 0.8485281374238554 29.948528137423857 1.1999999999999993
    endloop
  endfacet
  facet normal 0.8314696123025442 -0.555570233019604 0
    outer loop
      vertex 0.8485281374238554 28.251471862576146 4.199999999999999
      vertex 0.8485281374238554 28.251471862576146 1.1999999999999993
      vertex 1.1086554390135426 28.640779881161894 4.199999999999999
    endloop
  endfacet
  facet normal 0.8314696123025442 0.555570233019604 0
    outer loop
      vertex 0.8485281374238554 29.948528137423857 4.199999999999999
      vertex 1.1086554390135426 29.55922011883811 4.199999999999999
      vertex 1.1086554390135426 29.55922011883811 1.1999999999999993
    endloop
  endfacet
  facet normal 0.9807852804032301 0.19509032201613002 0
    outer loop
      vertex 1.1086554390135426 29.55922011883811 4.199999999999999
      vertex 1.1999999999999993 29.1 4.199999999999999
      vertex 1.1999999999999993 29.1 1.1999999999999993
    endloop
  endfacet
  facet normal 0.9807852804032301 -0.19509032201613002 0
    outer loop
      vertex 1.1086554390135426 28.640779881161894 4.199999999999999
      vertex 1.1086554390135426 28.640779881161894 1.1999999999999993
      vertex 1.1999999999999993 29.1 4.199999999999999
    endloop
  endfacet
  facet normal 0.19509032201613002 0.9807852804032301 0
    outer loop
      vertex 0 30.3 4.199999999999999
      vertex 0.45922011883810754 30.208655439013544 1.1999999999999993
      vertex 0 30.3 1.1999999999999993
    endloop
  endfacet
  facet normal 0.19509032201613002 -0.9807852804032301 0
    outer loop
      vertex 0.45922011883810754 27.99134456098646 4.199999999999999
      vertex 0 27.900000000000002 1.1999999999999993
      vertex 0.45922011883810754 27.99134456098646 1.1999999999999993
    endloop
  endfacet
  facet normal 0.555570233019604 0.8314696123025442 0
    outer loop
      vertex 0.45922011883810754 30.208655439013544 4.199999999999999
      vertex 0.8485281374238554 29.948528137423857 1.1999999999999993
      vertex 0.45922011883810754 30.208655439013544 1.1999999999999993
    endloop
  endfacet
  facet normal 0.555570233019604 -0.8314696123025442 0
    outer loop
      vertex 0.8485281374238554 28.251471862576146 4.199999999999999
      vertex 0.45922011883810754 27.99134456098646 1.1999999999999993
      vertex 0.8485281374238554 28.251471862576146 1.1999999999999993
    endloop
  endfacet
  facet normal 0.8314696123025442 0.555570233019604 0
    outer loop
      vertex 0.8485281374238554 29.948528137423857 4.199999999999999
      vertex 1.1086554390135426 29.55922011883811 1.1999999999999993
      vertex 0.8485281374238554 29.948528137423857 1.1999999999999993
    endloop
  endfacet
  facet normal 0.8314696123025442 -0.555570233019604 0
    outer loop
      vertex 1.1086554390135426 28.640779881161894 4.199999999999999
      vertex 0.8485281374238554 28.251471862576146 1.1999999999999993
      vertex 1.1086554390135426 28.640779881161894 1.1999999999999993
    endloop
  endfacet
  facet normal 0.9807852804032301 0.19509032201613002 0
    outer loop
      vertex 1.1086554390135426 29.55922011883811 4.199999999999999
      vertex 1.1999999999999993 29.1 1.1999999999999993
      vertex 1.1086554390135426 29.55922011883811 1.1999999999999993
    endloop
  endfacet
  facet normal 0.9807852804032301 -0.19509032201613002 0
    outer loop
      vertex 1.1999999999999993 29.1 4.199999999999999
      vertex 1.1086554390135426 28.640779881161894 1.1999999999999993
      vertex 1.1999999999999993 29.1 1.1999999999999993
    endloop
  endfacet
  facet normal 0 0 1
    outer loop
      vertex -1.1999999999999993 -29.1 4.199999999999999
      vertex -1.1086554390135426 -29.559220118838113 4.199999999999999
      vertex -1.1086554390135426 -28.64077988116189 4.199999999999999
    endloop
  endfacet
  facet normal 0 0 1
    outer loop
      vertex -1.1086554390135426 -28.64077988116189 4.199999999999999
      vertex -1.1086554390135426 -29.559220118838113 4.199999999999999
      vertex -0.8485281374238554 -29.948528137423857 4.199999999999999
    endloop
  endfacet
  facet normal 0 0 1
    outer loop
      vertex -1.1086554390135426 -28.64077988116189 4.199999999999999
      vertex -0.8485281374238554 -29.948528137423857 4.199999999999999
      vertex -0.8485281374238554 -28.251471862576146 4.199999999999999
    endloop
  endfacet
  facet normal 0 0 1
    outer loop
      vertex -0.8485281374238554 -28.251471862576146 4.199999999999999
      vertex -0.8485281374238554 -29.948528137423857 4.199999999999999
      vertex -0.45922011883810754 -30.20865543901354 4.199999999999999
    endloop
  endfacet
  facet normal -0.9807852804032304 0.19509032201612858 0
    outer loop
      vertex -1.1999999999999993 -29.1 4.199999999999999
      vertex -1.1086554390135426 -28.64077988116189 4.199999999999999
      vertex -1.1086554390135426 -28.64077988116189 1.1999999999999993
    endloop
  endfacet
  facet normal -0.9807852804032304 -0.19509032201612858 0
    outer loop
      vertex -1.1999999999999993 -29.1 4.199999999999999
      vertex -1.1999999999999993 -29.1 1.1999999999999993
      vertex -1.1086554390135426 -29.559220118838113 4.199999999999999
    endloop
  endfacet
  facet normal -0.8314696123025418 -0.5555702330196074 0
    outer loop
      vertex -1.1086554390135426 -29.559220118838113 4.199999999999999
      vertex -1.1086554390135426 -29.559220118838113 1.1999999999999993
      vertex -0.8485281374238554 -29.948528137423857 4.199999999999999
    endloop
  endfacet
  facet normal -0.8314696123025418 0.5555702330196074 0
    outer loop
      vertex -1.1086554390135426 -28.64077988116189 4.199999999999999
      vertex -0.8485281374238554 -28.251471862576146 4.199999999999999
      vertex -0.8485281374238554 -28.251471862576146 1.1999999999999993
    endloop
  endfacet
  facet normal -0.5555702330195986 -0.8314696123025477 0
    outer loop
      vertex -0.8485281374238554 -29.948528137423857 4.199999999999999
      vertex -0.8485281374238554 -29.948528137423857 1.1999999999999993
      vertex -0.45922011883810754 -30.20865543901354 4.199999999999999
    endloop
  endfacet
  facet normal 0 0 1
    outer loop
      vertex -0.8485281374238554 -28.251471862576146 4.199999999999999
      vertex -0.45922011883810754 -30.20865543901354 4.199999999999999
      vertex -0.45922011883810754 -27.991344560986462 4.199999999999999
    endloop
  endfacet
  facet normal 0 0 1
    outer loop
      vertex -0.45922011883810754 -27.991344560986462 4.199999999999999
      vertex -0.45922011883810754 -30.20865543901354 4.199999999999999
      vertex 0 -30.299999999999997 4.199999999999999
    endloop
  endfacet
  facet normal 0 0 1
    outer loop
      vertex -0.45922011883810754 -27.991344560986462 4.199999999999999
      vertex 0 -30.299999999999997 4.199999999999999
      vertex 0 -27.900000000000006 4.199999999999999
    endloop
  endfacet
  facet normal -0.5555702330195986 0.8314696123025477 0
    outer loop
      vertex -0.8485281374238554 -28.251471862576146 4.199999999999999
      vertex -0.45922011883810754 -27.991344560986462 4.199999999999999
      vertex -0.45922011883810754 -27.991344560986462 1.1999999999999993
    endloop
  endfacet
  facet normal -0.19509032201613002 -0.9807852804032301 0
    outer loop
      vertex -0.45922011883810754 -30.20865543901354 4.199999999999999
      vertex -0.45922011883810754 -30.20865543901354 1.1999999999999993
      vertex 0 -30.299999999999997 4.199999999999999
    endloop
  endfacet
  facet normal -0.19509032201613002 0.9807852804032301 0
    outer loop
      vertex -0.45922011883810754 -27.991344560986462 4.199999999999999
      vertex 0 -27.900000000000006 4.199999999999999
      vertex 0 -27.900000000000006 1.1999999999999993
    endloop
  endfacet
  facet normal -0.9807852804032304 0.19509032201612858 0
    outer loop
      vertex -1.1999999999999993 -29.1 4.199999999999999
      vertex -1.1086554390135426 -28.64077988116189 1.1999999999999993
      vertex -1.1999999999999993 -29.1 1.1999999999999993
    endloop
  endfacet
  facet normal -0.9807852804032304 -0.19509032201612858 0
    outer loop
      vertex -1.1086554390135426 -29.559220118838113 4.199999999999999
      vertex -1.1999999999999993 -29.1 1.1999999999999993
      vertex -1.1086554390135426 -29.559220118838113 1.1999999999999993
    endloop
  endfacet
  facet normal -0.8314696123025418 0.5555702330196074 0
    outer loop
      vertex -1.1086554390135426 -28.64077988116189 4.199999999999999
      vertex -0.8485281374238554 -28.251471862576146 1.1999999999999993
      vertex -1.1086554390135426 -28.64077988116189 1.1999999999999993
    endloop
  endfacet
  facet normal -0.8314696123025418 -0.5555702330196074 0
    outer loop
      vertex -0.8485281374238554 -29.948528137423857 4.199999999999999
      vertex -1.1086554390135426 -29.559220118838113 1.1999999999999993
      vertex -0.8485281374238554 -29.948528137423857 1.1999999999999993
    endloop
  endfacet
  facet normal -0.5555702330195986 0.8314696123025477 0
    outer loop
      vertex -0.8485281374238554 -28.251471862576146 4.199999999999999
      vertex -0.45922011883810754 -27.991344560986462 1.1999999999999993
      vertex -0.8485281374238554 -28.251471862576146 1.1999999999999993
    endloop
  endfacet
  facet normal -0.5555702330195986 -0.8314696123025477 0
    outer loop
      vertex -0.45922011883810754 -30.20865543901354 4.199999999999999
      vertex -0.8485281374238554 -29.948528137423857 1.1999999999999993
      vertex -0.45922011883810754 -30.20865543901354 1.1999999999999993
    endloop
  endfacet
  facet normal -0.19509032201613002 0.9807852804032301 0
    outer loop
      vertex -0.45922011883810754 -27.991344560986462 4.199999999999999
      vertex 0 -27.900000000000006 1.1999999999999993
      vertex -0.45922011883810754 -27.991344560986462 1.1999999999999993
    endloop
  endfacet
  facet normal -0.19509032201613002 -0.9807852804032301 0
    outer loop
      vertex 0 -30.299999999999997 4.199999999999999
      vertex -0.45922011883810754 -30.20865543901354 1.1999999999999993
      vertex 0 -30.299999999999997 1.1999999999999993
    endloop
  endfacet
  facet normal 0 0 1
    outer loop
      vertex 0 -27.900000000000006 4.199999999999999
      vertex 0 -30.299999999999997 4.199999999999999
      vertex 0.45922011883810754 -30.20865543901354 4.199999999999999
    endloop
  endfacet
  facet normal 0 0 1
    outer loop
      vertex 0 -27.900000000000006 4.199999999999999
      vertex 0.45922011883810754 -30.20865543901354 4.199999999999999
      vertex 0.45922011883810754 -27.991344560986462 4.199999999999999
    endloop
  endfacet
  facet normal 0 0 1
    outer loop
      vertex 0.45922011883810754 -27.991344560986462 4.199999999999999
      vertex 0.45922011883810754 -30.20865543901354 4.199999999999999
      vertex 0.8485281374238554 -29.948528137423857 4.199999999999999
    endloop
  endfacet
  facet normal 0.19509032201613002 -0.9807852804032301 0
    outer loop
      vertex 0 -30.299999999999997 4.199999999999999
      vertex 0 -30.299999999999997 1.1999999999999993
      vertex 0.45922011883810754 -30.20865543901354 4.199999999999999
    endloop
  endfacet
  facet normal 0.19509032201613002 0.9807852804032301 0
    outer loop
      vertex 0 -27.900000000000006 4.199999999999999
      vertex 0.45922011883810754 -27.991344560986462 4.199999999999999
      vertex 0.45922011883810754 -27.991344560986462 1.1999999999999993
    endloop
  endfacet
  facet normal 0.5555702330195986 -0.8314696123025477 0
    outer loop
      vertex 0.45922011883810754 -30.20865543901354 4.199999999999999
      vertex 0.45922011883810754 -30.20865543901354 1.1999999999999993
      vertex 0.8485281374238554 -29.948528137423857 4.199999999999999
    endloop
  endfacet
  facet normal 0 0 1
    outer loop
      vertex 0.45922011883810754 -27.991344560986462 4.199999999999999
      vertex 0.8485281374238554 -29.948528137423857 4.199999999999999
      vertex 0.8485281374238554 -28.251471862576146 4.199999999999999
    endloop
  endfacet
  facet normal 0 0 1
    outer loop
      vertex 0.8485281374238554 -28.251471862576146 4.199999999999999
      vertex 0.8485281374238554 -29.948528137423857 4.199999999999999
      vertex 1.1086554390135426 -29.559220118838113 4.199999999999999
    endloop
  endfacet
  facet normal 0 0 1
    outer loop
      vertex 0.8485281374238554 -28.251471862576146 4.199999999999999
      vertex 1.1086554390135426 -29.559220118838113 4.199999999999999
      vertex 1.1086554390135426 -28.64077988116189 4.199999999999999
    endloop
  endfacet
  facet normal 0 0 1
    outer loop
      vertex 1.1086554390135426 -28.64077988116189 4.199999999999999
      vertex 1.1086554390135426 -29.559220118838113 4.199999999999999
      vertex 1.1999999999999993 -29.1 4.199999999999999
    endloop
  endfacet
  facet normal 0.5555702330195986 0.8314696123025477 0
    outer loop
      vertex 0.45922011883810754 -27.991344560986462 4.199999999999999
      vertex 0.8485281374238554 -28.251471862576146 4.199999999999999
      vertex 0.8485281374238554 -28.251471862576146 1.1999999999999993
    endloop
  endfacet
  facet normal 0.8314696123025418 -0.5555702330196074 0
    outer loop
      vertex 0.8485281374238554 -29.948528137423857 4.199999999999999
      vertex 0.8485281374238554 -29.948528137423857 1.1999999999999993
      vertex 1.1086554390135426 -29.559220118838113 4.199999999999999
    endloop
  endfacet
  facet normal 0.8314696123025418 0.5555702330196074 0
    outer loop
      vertex 0.8485281374238554 -28.251471862576146 4.199999999999999
      vertex 1.1086554390135426 -28.64077988116189 4.199999999999999
      vertex 1.1086554390135426 -28.64077988116189 1.1999999999999993
    endloop
  endfacet
  facet normal 0.9807852804032304 0.19509032201612858 0
    outer loop
      vertex 1.1086554390135426 -28.64077988116189 4.199999999999999
      vertex 1.1999999999999993 -29.1 4.199999999999999
      vertex 1.1999999999999993 -29.1 1.1999999999999993
    endloop
  endfacet
  facet normal 0.9807852804032304 -0.19509032201612858 0
    outer loop
      vertex 1.1086554390135426 -29.559220118838113 4.199999999999999
      vertex 1.1086554390135426 -29.559220118838113 1.1999999999999993
      vertex 1.1999999999999993 -29.1 4.199999999999999
    endloop
  endfacet
  facet normal 0.19509032201613002 0.9807852804032301 0
    outer loop
      vertex 0 -27.900000000000006 4.199999999999999
      vertex 0.45922011883810754 -27.991344560986462 1.1999999999999993
      vertex 0 -27.900000000000006 1.1999999999999993
    endloop
  endfacet
  facet normal 0.19509032201613002 -0.9807852804032301 0
    outer loop
      vertex 0.45922011883810754 -30.20865543901354 4.199999999999999
      vertex 0 -30.299999999999997 1.1999999999999993
      vertex 0.45922011883810754 -30.20865543901354 1.1999999999999993
    endloop
  endfacet
  facet normal 0.5555702330195986 0.8314696123025477 0
    outer loop
      vertex 0.45922011883810754 -27.991344560986462 4.199999999999999
      vertex 0.8485281374238554 -28.251471862576146 1.1999999999999993
      vertex 0.45922011883810754 -27.991344560986462 1.1999999999999993
    endloop
  endfacet
  facet normal 0.5555702330195986 -0.8314696123025477 0
    outer loop
      vertex 0.8485281374238554 -29.948528137423857 4.199999999999999
      vertex 0.45922011883810754 -30.20865543901354 1.1999999999999993
      vertex 0.8485281374238554 -29.948528137423857 1.1999999999999993
    endloop
  endfacet
  facet normal 0.8314696123025418 0.5555702330196074 0
    outer loop
      vertex 0.8485281374238554 -28.251471862576146 4.199999999999999
      vertex 1.1086554390135426 -28.64077988116189 1.1999999999999993
      vertex 0.8485281374238554 -28.251471862576146 1.1999999999999993
    endloop
  endfacet
  facet normal 0.8314696123025418 -0.5555702330196074 0
    outer loop
      vertex 1.1086554390135426 -29.559220118838113 4.199999999999999
      vertex 0.8485281374238554 -29.948528137423857 1.1999999999999993
      vertex 1.1086554390135426 -29.559220118838113 1.1999999999999993
    endloop
  endfacet
  facet normal 0.9807852804032304 0.19509032201612858 0
    outer loop
      vertex 1.1086554390135426 -28.64077988116189 4.199999999999999
      vertex 1.1999999999999993 -29.1 1.1999999999999993
      vertex 1.1086554390135426 -28.64077988116189 1.1999999999999993
    endloop
  endfacet
  facet normal 0.9807852804032304 -0.19509032201612858 0
    outer loop
      vertex 1.1999999999999993 -29.1 4.199999999999999
      vertex 1.1086554390135426 -29.559220118838113 1.1999999999999993
      vertex 1.1999999999999993 -29.1 1.1999999999999993
    endloop
  endfacet
  facet normal 0 0 1
    outer loop
      vertex -2.5 31.7 1.1999999999999993
      vertex -1.1999999999999993 29.1 1.1999999999999993
      vertex -1.1086554390135426 29.55922011883811 1.1999999999999993
    endloop
  endfacet
  facet normal 0 0 1
    outer loop
      vertex -2.5 31.7 1.1999999999999993
      vertex -1.1086554390135426 29.55922011883811 1.1999999999999993
      vertex -0.8485281374238554 29.948528137423857 1.1999999999999993
    endloop
  endfacet
  facet normal 0 0 1
    outer loop
      vertex -2.5 31.7 1.1999999999999993
      vertex -0.8485281374238554 29.948528137423857 1.1999999999999993
      vertex -0.45922011883810754 30.208655439013544 1.1999999999999993
    endloop
  endfacet
  facet normal -1 0 0
    outer loop
      vertex -2.5 31.7 1.1999999999999993
      vertex -2.5 31.7 0
      vertex -2.5 -31.700000000000003 0
    endloop
  endfacet
  facet normal 0 0 1
    outer loop
      vertex -2.5 31.7 1.1999999999999993
      vertex -0.45922011883810754 30.208655439013544 1.1999999999999993
      vertex 0 30.3 1.1999999999999993
    endloop
  endfacet
  facet normal 0 1 0
    outer loop
      vertex -2.5 31.7 1.1999999999999993
      vertex 2.5 31.7 0
      vertex -2.5 31.7 0
    endloop
  endfacet
  facet normal 0 0 1
    outer loop
      vertex -2.5 31.7 1.1999999999999993
      vertex 2.5 -31.700000000000003 1.1999999999999993
      vertex -1.1999999999999993 29.1 1.1999999999999993
    endloop
  endfacet
  facet normal 0 0 -1
    outer loop
      vertex -2.5 31.7 0
      vertex 2.5 31.7 0
      vertex -2.5 -31.700000000000003 0
    endloop
  endfacet
  facet normal 0 0 1
    outer loop
      vertex -2.5 31.7 1.1999999999999993
      vertex -2.5 -31.700000000000003 1.1999999999999993
      vertex -1.1999999999999993 -29.1 1.1999999999999993
    endloop
  endfacet
  facet normal 0 0 1
    outer loop
      vertex -2.5 31.7 1.1999999999999993
      vertex -1.1999999999999993 -29.1 1.1999999999999993
      vertex -1.1086554390135426 -28.64077988116189 1.1999999999999993
    endloop
  endfacet
  facet normal 0 0 1
    outer loop
      vertex -2.5 31.7 1.1999999999999993
      vertex -1.1086554390135426 -28.64077988116189 1.1999999999999993
      vertex -0.8485281374238554 -28.251471862576146 1.1999999999999993
    endloop
  endfacet
  facet normal 0 0 1
    outer loop
      vertex -2.5 31.7 1.1999999999999993
      vertex -0.8485281374238554 -28.251471862576146 1.1999999999999993
      vertex -0.45922011883810754 -27.991344560986462 1.1999999999999993
    endloop
  endfacet
  facet normal -1 0 0
    outer loop
      vertex -2.5 31.7 1.1999999999999993
      vertex -2.5 -31.700000000000003 0
      vertex -2.5 -31.700000000000003 1.1999999999999993
    endloop
  endfacet
  facet normal 0 0 1
    outer loop
      vertex -2.5 -31.700000000000003 1.1999999999999993
      vertex -1.1086554390135426 -29.559220118838113 1.1999999999999993
      vertex -1.1999999999999993 -29.1 1.1999999999999993
    endloop
  endfacet
  facet normal 0 0 1
    outer loop
      vertex -2.5 -31.700000000000003 1.1999999999999993
      vertex -0.8485281374238554 -29.948528137423857 1.1999999999999993
      vertex -1.1086554390135426 -29.559220118838113 1.1999999999999993
    endloop
  endfacet
  facet normal 0 0 1
    outer loop
      vertex -2.5 -31.700000000000003 1.1999999999999993
      vertex -0.45922011883810754 -30.20865543901354 1.1999999999999993
      vertex -0.8485281374238554 -29.948528137423857 1.1999999999999993
    endloop
  endfacet
  facet normal 0 0 1
    outer loop
      vertex -2.5 31.7 1.1999999999999993
      vertex -0.45922011883810754 -27.991344560986462 1.1999999999999993
      vertex 0 -27.900000000000006 1.1999999999999993
    endloop
  endfacet
  facet normal 0 0 1
    outer loop
      vertex -2.5 31.7 1.1999999999999993
      vertex 0 -27.900000000000006 1.1999999999999993
      vertex 0.45922011883810754 -27.991344560986462 1.1999999999999993
    endloop
  endfacet
  facet normal 0 0 1
    outer loop
      vertex -2.5 31.7 1.1999999999999993
      vertex 0.45922011883810754 -27.991344560986462 1.1999999999999993
      vertex 0.8485281374238554 -28.251471862576146 1.1999999999999993
    endloop
  endfacet
  facet normal 0 0 1
    outer loop
      vertex -2.5 31.7 1.1999999999999993
      vertex 0.8485281374238554 -28.251471862576146 1.1999999999999993
      vertex 1.1086554390135426 -28.64077988116189 1.1999999999999993
    endloop
  endfacet
  facet normal 0 0 1
    outer loop
      vertex -2.5 31.7 1.1999999999999993
      vertex 1.1086554390135426 -28.64077988116189 1.1999999999999993
      vertex 1.1999999999999993 -29.1 1.1999999999999993
    endloop
  endfacet
  facet normal 0 0 1
    outer loop
      vertex -2.5 -31.700000000000003 1.1999999999999993
      vertex 0 -30.299999999999997 1.1999999999999993
      vertex -0.45922011883810754 -30.20865543901354 1.1999999999999993
    endloop
  endfacet
  facet normal 0 -1 0
    outer loop
      vertex -2.5 -31.700000000000003 1.1999999999999993
      vertex -2.5 -31.700000000000003 0
      vertex 2.5 -31.700000000000003 1.1999999999999993
    endloop
  endfacet
  facet normal 0 0 1
    outer loop
      vertex -2.5 31.7 1.1999999999999993
      vertex 0 30.3 1.1999999999999993
      vertex 2.5 31.7 1.1999999999999993
    endloop
  endfacet
  facet normal 0 0 1
    outer loop
      vertex 2.5 31.7 1.1999999999999993
      vertex 0 30.3 1.1999999999999993
      vertex 0.45922011883810754 30.208655439013544 1.1999999999999993
    endloop
  endfacet
  facet normal 0 1 0
    outer loop
      vertex -2.5 31.7 1.1999999999999993
      vertex 2.5 31.7 1.1999999999999993
      vertex 2.5 31.7 0
    endloop
  endfacet
  facet normal 0 0 1
    outer loop
      vertex 2.5 -31.700000000000003 1.1999999999999993
      vertex -1.1086554390135426 28.640779881161894 1.1999999999999993
      vertex -1.1999999999999993 29.1 1.1999999999999993
    endloop
  endfacet
  facet normal 0 0 1
    outer loop
      vertex 2.5 -31.700000000000003 1.1999999999999993
      vertex -0.8485281374238554 28.251471862576146 1.1999999999999993
      vertex -1.1086554390135426 28.640779881161894 1.1999999999999993
    endloop
  endfacet
  facet normal 0 0 1
    outer loop
      vertex 2.5 -31.700000000000003 1.1999999999999993
      vertex -0.45922011883810754 27.99134456098646 1.1999999999999993
      vertex -0.8485281374238554 28.251471862576146 1.1999999999999993
    endloop
  endfacet
  facet normal 0 0 1
    outer loop
      vertex 2.5 -31.700000000000003 1.1999999999999993
      vertex 0 27.900000000000002 1.1999999999999993
      vertex -0.45922011883810754 27.99134456098646 1.1999999999999993
    endloop
  endfacet
  facet normal 0 0 1
    outer loop
      vertex 2.5 -31.700000000000003 1.1999999999999993
      vertex 0.45922011883810754 27.99134456098646 1.1999999999999993
      vertex 0 27.900000000000002 1.1999999999999993
    endloop
  endfacet
  facet normal 0 0 1
    outer loop
      vertex 2.5 31.7 1.1999999999999993
      vertex 0.45922011883810754 30.208655439013544 1.1999999999999993
      vertex 0.8485281374238554 29.948528137423857 1.1999999999999993
    endloop
  endfacet
  facet normal 0 0 1
    outer loop
      vertex 2.5 31.7 1.1999999999999993
      vertex 0.8485281374238554 29.948528137423857 1.1999999999999993
      vertex 1.1086554390135426 29.55922011883811 1.1999999999999993
    endloop
  endfacet
  facet normal 0 0 1
    outer loop
      vertex 2.5 31.7 1.1999999999999993
      vertex 1.1086554390135426 29.55922011883811 1.1999999999999993
      vertex 1.1999999999999993 29.1 1.1999999999999993
    endloop
  endfacet
  facet normal 0 0 1
    outer loop
      vertex 2.5 -31.700000000000003 1.1999999999999993
      vertex 0.8485281374238554 28.251471862576146 1.1999999999999993
      vertex 0.45922011883810754 27.99134456098646 1.1999999999999993
    endloop
  endfacet
  facet normal 0 0 1
    outer loop
      vertex 2.5 -31.700000000000003 1.1999999999999993
      vertex 1.1086554390135426 28.640779881161894 1.1999999999999993
      vertex 0.8485281374238554 28.251471862576146 1.1999999999999993
    endloop
  endfacet
  facet normal 0 0 1
    outer loop
      vertex 2.5 -31.700000000000003 1.1999999999999993
      vertex 1.1999999999999993 29.1 1.1999999999999993
      vertex 1.1086554390135426 28.640779881161894 1.1999999999999993
    endloop
  endfacet
  facet normal 0 0 1
    outer loop
      vertex 2.5 31.7 1.1999999999999993
      vertex 1.1999999999999993 29.1 1.1999999999999993
      vertex 2.5 -31.700000000000003 1.1999999999999993
    endloop
  endfacet
  facet normal 1 0 0
    outer loop
      vertex 2.5 31.7 1.1999999999999993
      vertex 2.5 -31.700000000000003 1.1999999999999993
      vertex 2.5 31.7 0
    endloop
  endfacet
  facet normal 0 0 1
    outer loop
      vertex -2.5 31.7 1.1999999999999993
      vertex 1.1999999999999993 -29.1 1.1999999999999993
      vertex 2.5 -31.700000000000003 1.1999999999999993
    endloop
  endfacet
  facet normal 0 0 -1
    outer loop
      vertex -2.5 -31.700000000000003 0
      vertex 2.5 31.7 0
      vertex 2.5 -31.700000000000003 0
    endloop
  endfacet
  facet normal 0 0 1
    outer loop
      vertex -2.5 -31.700000000000003 1.1999999999999993
      vertex 2.5 -31.700000000000003 1.1999999999999993
      vertex 0 -30.299999999999997 1.1999999999999993
    endloop
  endfacet
  facet normal 0 0 1
    outer loop
      vertex 2.5 -31.700000000000003 1.1999999999999993
      vertex 0.45922011883810754 -30.20865543901354 1.1999999999999993
      vertex 0 -30.299999999999997 1.1999999999999993
    endloop
  endfacet
  facet normal 0 -1 0
    outer loop
      vertex -2.5 -31.700000000000003 0
      vertex 2.5 -31.700000000000003 0
      vertex 2.5 -31.700000000000003 1.1999999999999993
    endloop
  endfacet
  facet normal 1 0 0
    outer loop
      vertex 2.5 31.7 0
      vertex 2.5 -31.700000000000003 1.1999999999999993
      vertex 2.5 -31.700000000000003 0
    endloop
  endfacet
  facet normal 0 0 1
    outer loop
      vertex 2.5 -31.700000000000003 1.1999999999999993
      vertex 0.8485281374238554 -29.948528137423857 1.1999999999999993
      vertex 0.45922011883810754 -30.20865543901354 1.1999999999999993
    endloop
  endfacet
  facet normal 0 0 1
    outer loop
      vertex 2.5 -31.700000000000003 1.1999999999999993
      vertex 1.1086554390135426 -29.559220118838113 1.1999999999999993
      vertex 0.8485281374238554 -29.948528137423857 1.1999999999999993
    endloop
  endfacet
  facet normal 0 0 1
    outer loop
      vertex 2.5 -31.700000000000003 1.1999999999999993
      vertex 1.1999999999999993 -29.1 1.1999999999999993
      vertex 1.1086554390135426 -29.559220118838113 1.1999999999999993
    endloop
  endfacet
endsolid OpenSCAD_Model
