solid OpenSCAD_Model
  facet normal 0 0.7933533402912286 0.6087614290087291
    outer loop
      vertex -10.300000000000004 0.866025403784441 1.5
      vertex -10.300000000000004 0.7071067811865461 1.707106781186548
      vertex -8.200000000000003 0.866025403784441 1.5
    endloop
  endfacet
  facet normal -1 0 0
    outer loop
      vertex -10.300000000000004 0.965925826289066 1.2588190451025199
      vertex -10.300000000000004 1 1
      vertex -10.300000000000004 0.965925826289066 0.7411809548974801
    endloop
  endfacet
  facet normal -1 0 0
    outer loop
      vertex -10.300000000000004 0.866025403784441 1.5
      vertex -10.300000000000004 0.965925826289066 1.2588190451025199
      vertex -10.300000000000004 0.866025403784441 0.5
    endloop
  endfacet
  facet normal -1 0 0
    outer loop
      vertex -10.300000000000004 0.866025403784441 1.5
      vertex -10.300000000000004 0.7071067811865461 0.2928932188134521
      vertex -10.300000000000004 0.7071067811865461 1.707106781186548
    endloop
  endfacet
  facet normal -2.9311795824331264e-18 0.9238795325112936 0.3826834323650732
    outer loop
      vertex -10.300000000000004 0.866025403784441 1.5
      vertex -8.200000000000003 0.965925826289066 1.2588190451025199
      vertex -10.300000000000004 0.965925826289066 1.2588190451025199
    endloop
  endfacet
  facet normal -1.0867754810743732e-18 0.9914448613738094 0.13052619222006073
    outer loop
      vertex -10.300000000000004 0.965925826289066 1.2588190451025199
      vertex -8.200000000000003 1 1
      vertex -10.300000000000004 1 1
    endloop
  endfacet
  facet normal 0 0.9238795325112936 0.3826834323650732
    outer loop
      vertex -10.300000000000004 0.866025403784441 1.5
      vertex -8.200000000000003 0.866025403784441 1.5
      vertex -8.200000000000003 0.965925826289066 1.2588190451025199
    endloop
  endfacet
  facet normal 0 0.7933533402912286 0.6087614290087291
    outer loop
      vertex -10.300000000000004 0.7071067811865461 1.707106781186548
      vertex -8.200000000000003 0.7071067811865461 1.707106781186548
      vertex -8.200000000000003 0.866025403784441 1.5
    endloop
  endfacet
  facet normal 0 0.9914448613738094 0.13052619222006073
    outer loop
      vertex -10.300000000000004 0.965925826289066 1.2588190451025199
      vertex -8.200000000000003 0.965925826289066 1.2588190451025199
      vertex -8.200000000000003 1 1
    endloop
  endfacet
  facet normal 0 0.9914448613738094 -0.13052619222006073
    outer loop
      vertex -10.300000000000004 1 1
      vertex -8.200000000000003 1 1
      vertex -8.200000000000003 0.965925826289066 0.7411809548974801
    endloop
  endfacet
  facet normal -1 0 0
    outer loop
      vertex -10.300000000000004 0.965925826289066 1.2588190451025199
      vertex -10.300000000000004 0.965925826289066 0.7411809548974801
      vertex -10.300000000000004 0.866025403784441 0.5
    endloop
  endfacet
  facet normal -1 0 0
    outer loop
      vertex -10.300000000000004 0.866025403784441 1.5
      vertex -10.300000000000004 0.866025403784441 0.5
      vertex -10.300000000000004 0.7071067811865461 0.2928932188134521
    endloop
  endfacet
  facet normal 1.0867754810743732e-18 0.9914448613738094 -0.13052619222006073
    outer loop
      vertex -10.300000000000004 1 1
      vertex -8.200000000000003 0.965925826289066 0.7411809548974801
      vertex -10.300000000000004 0.965925826289066 0.7411809548974801
    endloop
  endfacet
  facet normal 2.9311795824331264e-18 0.9238795325112936 -0.3826834323650732
    outer loop
      vertex -10.300000000000004 0.965925826289066 0.7411809548974801
      vertex -8.200000000000003 0.866025403784441 0.5
      vertex -10.300000000000004 0.866025403784441 0.5
    endloop
  endfacet
  facet normal 6.193869635370268e-18 0.7933533402912286 -0.6087614290087291
    outer loop
      vertex -10.300000000000004 0.866025403784441 0.5
      vertex -8.200000000000003 0.7071067811865461 0.2928932188134521
      vertex -10.300000000000004 0.7071067811865461 0.2928932188134521
    endloop
  endfacet
  facet normal 0 0.9238795325112936 -0.3826834323650732
    outer loop
      vertex -10.300000000000004 0.965925826289066 0.7411809548974801
      vertex -8.200000000000003 0.965925826289066 0.7411809548974801
      vertex -8.200000000000003 0.866025403784441 0.5
    endloop
  endfacet
  facet normal 0 0.7933533402912286 -0.6087614290087291
    outer loop
      vertex -10.300000000000004 0.866025403784441 0.5
      vertex -8.200000000000003 0.866025403784441 0.5
      vertex -8.200000000000003 0.7071067811865461 0.2928932188134521
    endloop
  endfacet
  facet normal 0 0.3826834323650848 0.9238795325112887
    outer loop
      vertex -10.300000000000004 0.5 1.8660254037844393
      vertex -10.300000000000004 0.25881904510251985 1.9659258262890678
      vertex -8.200000000000003 0.5 1.8660254037844393
    endloop
  endfacet
  facet normal 0 0.13052619222005404 0.9914448613738102
    outer loop
      vertex -10.300000000000004 0.25881904510251985 1.9659258262890678
      vertex -10.300000000000004 0 2
      vertex -8.200000000000003 0.25881904510251985 1.9659258262890678
    endloop
  endfacet
  facet normal 0 -0.13052619222005404 0.9914448613738102
    outer loop
      vertex -10.300000000000004 0 2
      vertex -10.300000000000004 -0.25881904510251985 1.9659258262890678
      vertex -8.200000000000003 0 2
    endloop
  endfacet
  facet normal 0 0.3826834323650848 0.9238795325112887
    outer loop
      vertex -10.300000000000004 0.25881904510251985 1.9659258262890678
      vertex -8.200000000000003 0.25881904510251985 1.9659258262890678
      vertex -8.200000000000003 0.5 1.8660254037844393
    endloop
  endfacet
  facet normal 0 0.13052619222005404 0.9914448613738102
    outer loop
      vertex -10.300000000000004 0 2
      vertex -8.200000000000003 0 2
      vertex -8.200000000000003 0.25881904510251985 1.9659258262890678
    endloop
  endfacet
  facet normal 0 -0.13052619222005404 0.9914448613738102
    outer loop
      vertex -10.300000000000004 -0.25881904510251985 1.9659258262890678
      vertex -8.200000000000003 -0.25881904510251985 1.9659258262890678
      vertex -8.200000000000003 0 2
    endloop
  endfacet
  facet normal 2.7239042362359565e-18 -0.3826834323650848 0.9238795325112888
    outer loop
      vertex -10.300000000000004 -0.25881904510251985 1.9659258262890678
      vertex -10.300000000000004 -0.5 1.8660254037844393
      vertex -8.190000000000005 -0.5 1.8660254037844393
    endloop
  endfacet
  facet normal 0 -0.38268343236508023 0.9238795325112907
    outer loop
      vertex -10.300000000000004 -0.25881904510251985 1.9659258262890678
      vertex -8.200000000000003 -0.29999999999999716 1.9488681162590584
      vertex -8.200000000000003 -0.25881904510251985 1.9659258262890678
    endloop
  endfacet
  facet normal -1.2579229035937426e-16 -0.3826834323650858 0.9238795325112884
    outer loop
      vertex -10.300000000000004 -0.25881904510251985 1.9659258262890678
      vertex -8.190000000000005 -0.5 1.8660254037844393
      vertex -8.200000000000003 -0.29999999999999716 1.9488681162590584
    endloop
  endfacet
  facet normal -5.372968711846706e-16 -0.38268343236508573 0.9238795325112884
    outer loop
      vertex -8.190000000000005 -0.5 1.8660254037844393
      vertex -8.190000000000005 -0.29999999999999716 1.9488681162590584
      vertex -8.200000000000003 -0.29999999999999716 1.9488681162590584
    endloop
  endfacet
  facet normal 0 0.6087614290087238 0.7933533402912328
    outer loop
      vertex -10.300000000000004 0.7071067811865461 1.707106781186548
      vertex -10.300000000000004 0.5 1.8660254037844393
      vertex -8.200000000000003 0.7071067811865461 1.707106781186548
    endloop
  endfacet
  facet normal -1 0 0
    outer loop
      vertex -10.300000000000004 0.7071067811865461 1.707106781186548
      vertex -10.300000000000004 0.5 0.13397459621556074
      vertex -10.300000000000004 0.5 1.8660254037844393
    endloop
  endfacet
  facet normal -1 0 0
    outer loop
      vertex -10.300000000000004 0.5 1.8660254037844393
      vertex -10.300000000000004 0.25881904510251985 0.03407417371093224
      vertex -10.300000000000004 0.25881904510251985 1.9659258262890678
    endloop
  endfacet
  facet normal -1 0 0
    outer loop
      vertex -10.300000000000004 0.25881904510251985 1.9659258262890678
      vertex -10.300000000000004 0 0
      vertex -10.300000000000004 0 2
    endloop
  endfacet
  facet normal -1 0 0
    outer loop
      vertex -10.300000000000004 0 2
      vertex -10.300000000000004 -0.25881904510251985 0.03407417371093224
      vertex -10.300000000000004 -0.25881904510251985 1.9659258262890678
    endloop
  endfacet
  facet normal 0 0.6087614290087238 0.7933533402912328
    outer loop
      vertex -10.300000000000004 0.5 1.8660254037844393
      vertex -8.200000000000003 0.5 1.8660254037844393
      vertex -8.200000000000003 0.7071067811865461 1.707106781186548
    endloop
  endfacet
  facet normal -1 0 0
    outer loop
      vertex -10.300000000000004 0.7071067811865461 1.707106781186548
      vertex -10.300000000000004 0.7071067811865461 0.2928932188134521
      vertex -10.300000000000004 0.5 0.13397459621556074
    endloop
  endfacet
  facet normal -1 0 0
    outer loop
      vertex -10.300000000000004 0.5 1.8660254037844393
      vertex -10.300000000000004 0.5 0.13397459621556074
      vertex -10.300000000000004 0.25881904510251985 0.03407417371093224
    endloop
  endfacet
  facet normal -2.942714185152529e-18 0.6087614290087238 -0.7933533402912328
    outer loop
      vertex -10.300000000000004 0.7071067811865461 0.2928932188134521
      vertex -8.200000000000003 0.5 0.13397459621556074
      vertex -10.300000000000004 0.5 0.13397459621556074
    endloop
  endfacet
  facet normal 2.7368752087894585e-18 0.3826834323650848 -0.9238795325112887
    outer loop
      vertex -10.300000000000004 0.5 0.13397459621556074
      vertex -8.200000000000003 0.25881904510251985 0.03407417371093224
      vertex -10.300000000000004 0.25881904510251985 0.03407417371093224
    endloop
  endfacet
  facet normal -1 0 0
    outer loop
      vertex -10.300000000000004 0.25881904510251985 1.9659258262890678
      vertex -10.300000000000004 0.25881904510251985 0.03407417371093224
      vertex -10.300000000000004 0 0
    endloop
  endfacet
  facet normal -1 0 0
    outer loop
      vertex -10.300000000000004 0 2
      vertex -10.300000000000004 0 0
      vertex -10.300000000000004 -0.25881904510251985 0.03407417371093224
    endloop
  endfacet
  facet normal 9.896232942525476e-19 0.13052619222005404 -0.9914448613738102
    outer loop
      vertex -10.300000000000004 0.25881904510251985 0.03407417371093224
      vertex -8.200000000000003 0 0
      vertex -10.300000000000004 0 0
    endloop
  endfacet
  facet normal -9.896232942525476e-19 -0.13052619222005404 -0.9914448613738102
    outer loop
      vertex -10.300000000000004 0 0
      vertex -8.200000000000003 -0.25881904510251985 0.03407417371093224
      vertex -10.300000000000004 -0.25881904510251985 0.03407417371093224
    endloop
  endfacet
  facet normal 0 0.6087614290087238 -0.7933533402912328
    outer loop
      vertex -10.300000000000004 0.7071067811865461 0.2928932188134521
      vertex -8.200000000000003 0.7071067811865461 0.2928932188134521
      vertex -8.200000000000003 0.5 0.13397459621556074
    endloop
  endfacet
  facet normal 0 0.3826834323650848 -0.9238795325112887
    outer loop
      vertex -10.300000000000004 0.5 0.13397459621556074
      vertex -8.200000000000003 0.5 0.13397459621556074
      vertex -8.200000000000003 0.25881904510251985 0.03407417371093224
    endloop
  endfacet
  facet normal 0 0.13052619222005404 -0.9914448613738102
    outer loop
      vertex -10.300000000000004 0.25881904510251985 0.03407417371093224
      vertex -8.200000000000003 0.25881904510251985 0.03407417371093224
      vertex -8.200000000000003 0 0
    endloop
  endfacet
  facet normal 0 -0.13052619222005404 -0.9914448613738102
    outer loop
      vertex -10.300000000000004 0 0
      vertex -8.200000000000003 0 0
      vertex -8.200000000000003 -0.25881904510251985 0.03407417371093224
    endloop
  endfacet
  facet normal -1 0 0
    outer loop
      vertex -10.300000000000004 -0.25881904510251985 1.9659258262890678
      vertex -10.300000000000004 -0.5 0.13397459621556074
      vertex -10.300000000000004 -0.5 1.8660254037844393
    endloop
  endfacet
  facet normal -2.9287676724266905e-18 -0.6087614290087239 0.7933533402912328
    outer loop
      vertex -10.300000000000004 -0.5 1.8660254037844393
      vertex -10.300000000000004 -0.7071067811865461 1.707106781186548
      vertex -8.190000000000005 -0.7071067811865461 1.707106781186548
    endloop
  endfacet
  facet normal 0 -0.7933533402912286 0.6087614290087291
    outer loop
      vertex -10.300000000000004 -0.7071067811865461 1.707106781186548
      vertex -10.300000000000004 -0.866025403784441 1.5
      vertex -8.190000000000005 -0.7071067811865461 1.707106781186548
    endloop
  endfacet
  facet normal 0 -0.9238795325112936 0.3826834323650732
    outer loop
      vertex -10.300000000000004 -0.866025403784441 1.5
      vertex -10.300000000000004 -0.965925826289066 1.2588190451025199
      vertex -8.190000000000005 -0.866025403784441 1.5
    endloop
  endfacet
  facet normal -1 0 0
    outer loop
      vertex -10.300000000000004 -0.5 1.8660254037844393
      vertex -10.300000000000004 -0.7071067811865461 0.2928932188134521
      vertex -10.300000000000004 -0.7071067811865461 1.707106781186548
    endloop
  endfacet
  facet normal -1 0 0
    outer loop
      vertex -10.300000000000004 -0.7071067811865461 1.707106781186548
      vertex -10.300000000000004 -0.866025403784441 0.5
      vertex -10.300000000000004 -0.866025403784441 1.5
    endloop
  endfacet
  facet normal -1 0 0
    outer loop
      vertex -10.300000000000004 -0.866025403784441 1.5
      vertex -10.300000000000004 -0.965925826289066 0.7411809548974801
      vertex -10.300000000000004 -0.965925826289066 1.2588190451025199
    endloop
  endfacet
  facet normal -1 0 0
    outer loop
      vertex -10.300000000000004 -0.866025403784441 1.5
      vertex -10.300000000000004 -0.866025403784441 0.5
      vertex -10.300000000000004 -0.965925826289066 0.7411809548974801
    endloop
  endfacet
  facet normal -1 0 0
    outer loop
      vertex -10.300000000000004 -0.965925826289066 1.2588190451025199
      vertex -10.300000000000004 -0.965925826289066 0.7411809548974801
      vertex -10.300000000000004 -1 1
    endloop
  endfacet
  facet normal 0 -0.9914448613738093 0.13052619222006073
    outer loop
      vertex -10.300000000000004 -0.965925826289066 1.2588190451025199
      vertex -10.300000000000004 -1 1
      vertex -8.190000000000005 -0.965925826289066 1.2588190451025199
    endloop
  endfacet
  facet normal 0 -0.9914448613738093 -0.13052619222006073
    outer loop
      vertex -10.300000000000004 -1 1
      vertex -10.300000000000004 -0.965925826289066 0.7411809548974801
      vertex -8.190000000000005 -1 1
    endloop
  endfacet
  facet normal 0 -0.6087614290087239 0.7933533402912328
    outer loop
      vertex -10.300000000000004 -0.5 1.8660254037844393
      vertex -8.190000000000005 -0.7071067811865461 1.707106781186548
      vertex -8.190000000000005 -0.5 1.8660254037844393
    endloop
  endfacet
  facet normal 1 0 0
    outer loop
      vertex -8.190000000000005 -0.5 1.8660254037844393
      vertex -8.190000000000005 -0.5 0.13397459621556074
      vertex -8.190000000000005 -0.29999999999999716 1.9488681162590584
    endloop
  endfacet
  facet normal 1 0 0
    outer loop
      vertex -8.190000000000005 -0.5 1.8660254037844393
      vertex -8.190000000000005 -0.7071067811865461 1.707106781186548
      vertex -8.190000000000005 -0.5 0.13397459621556074
    endloop
  endfacet
  facet normal 0 -0.7933533402912286 0.6087614290087291
    outer loop
      vertex -10.300000000000004 -0.866025403784441 1.5
      vertex -8.190000000000005 -0.866025403784441 1.5
      vertex -8.190000000000005 -0.7071067811865461 1.707106781186548
    endloop
  endfacet
  facet normal 0 -0.9238795325112936 0.3826834323650732
    outer loop
      vertex -10.300000000000004 -0.965925826289066 1.2588190451025199
      vertex -8.190000000000005 -0.965925826289066 1.2588190451025199
      vertex -8.190000000000005 -0.866025403784441 1.5
    endloop
  endfacet
  facet normal 0 -0.9914448613738093 0.13052619222006073
    outer loop
      vertex -10.300000000000004 -1 1
      vertex -8.190000000000005 -1 1
      vertex -8.190000000000005 -0.965925826289066 1.2588190451025199
    endloop
  endfacet
  facet normal 1 0 0
    outer loop
      vertex -8.190000000000005 -0.7071067811865461 1.707106781186548
      vertex -8.190000000000005 -0.866025403784441 1.5
      vertex -8.190000000000005 -0.7071067811865461 0.2928932188134521
    endloop
  endfacet
  facet normal 1 0 0
    outer loop
      vertex -8.190000000000005 -0.866025403784441 1.5
      vertex -8.190000000000005 -0.965925826289066 1.2588190451025199
      vertex -8.190000000000005 -0.866025403784441 0.5
    endloop
  endfacet
  facet normal 1 0 0
    outer loop
      vertex -8.190000000000005 -0.965925826289066 1.2588190451025199
      vertex -8.190000000000005 -1 1
      vertex -8.190000000000005 -0.965925826289066 0.7411809548974801
    endloop
  endfacet
  facet normal -1 0 0
    outer loop
      vertex -10.300000000000004 -0.25881904510251985 1.9659258262890678
      vertex -10.300000000000004 -0.25881904510251985 0.03407417371093224
      vertex -10.300000000000004 -0.5 0.13397459621556074
    endloop
  endfacet
  facet normal -1 0 0
    outer loop
      vertex -10.300000000000004 -0.5 1.8660254037844393
      vertex -10.300000000000004 -0.5 0.13397459621556074
      vertex -10.300000000000004 -0.7071067811865461 0.2928932188134521
    endloop
  endfacet
  facet normal 6.765739187196529e-16 -0.3826834323650848 -0.9238795325112887
    outer loop
      vertex -10.300000000000004 -0.25881904510251985 0.03407417371093224
      vertex -8.200000000000003 -0.29999999999999716 0.05113188374094335
      vertex -10.300000000000004 -0.5 0.13397459621556074
    endloop
  endfacet
  facet normal 0 -0.6087614290087239 -0.7933533402912328
    outer loop
      vertex -10.300000000000004 -0.5 0.13397459621556074
      vertex -8.190000000000005 -0.5 0.13397459621556074
      vertex -10.300000000000004 -0.7071067811865461 0.2928932188134521
    endloop
  endfacet
  facet normal -1 0 0
    outer loop
      vertex -10.300000000000004 -0.7071067811865461 1.707106781186548
      vertex -10.300000000000004 -0.7071067811865461 0.2928932188134521
      vertex -10.300000000000004 -0.866025403784441 0.5
    endloop
  endfacet
  facet normal 0 -0.9238795325112936 -0.3826834323650732
    outer loop
      vertex -10.300000000000004 -0.965925826289066 0.7411809548974801
      vertex -10.300000000000004 -0.866025403784441 0.5
      vertex -8.190000000000005 -0.965925826289066 0.7411809548974801
    endloop
  endfacet
  facet normal 0 -0.7933533402912286 -0.6087614290087291
    outer loop
      vertex -10.300000000000004 -0.866025403784441 0.5
      vertex -10.300000000000004 -0.7071067811865461 0.2928932188134521
      vertex -8.190000000000005 -0.866025403784441 0.5
    endloop
  endfacet
  facet normal 1 0 0
    outer loop
      vertex -8.190000000000005 -0.5 0.13397459621556074
      vertex -8.190000000000005 -0.29999999999999716 0.051131883740941575
      vertex -8.190000000000005 -0.29999999999999716 1.9488681162590584
    endloop
  endfacet
  facet normal 0 -0.38268343236511426 -0.9238795325112766
    outer loop
      vertex -10.300000000000004 -0.25881904510251985 0.03407417371093224
      vertex -8.200000000000003 -0.25881904510251985 0.03407417371093224
      vertex -8.200000000000003 -0.29999999999999716 0.05113188374094335
    endloop
  endfacet
  facet normal 0 -0.38268343236507874 -0.9238795325112913
    outer loop
      vertex -10.300000000000004 -0.5 0.13397459621556074
      vertex -8.200000000000003 -0.29999999999999716 0.05113188374094335
      vertex -8.190000000000005 -0.5 0.13397459621556074
    endloop
  endfacet
  facet normal -1.6453828107309224e-13 -0.38268343236508573 -0.9238795325112884
    outer loop
      vertex -8.190000000000005 -0.5 0.13397459621556074
      vertex -8.200000000000003 -0.29999999999999716 0.05113188374094335
      vertex -8.190000000000005 -0.29999999999999716 0.051131883740941575
    endloop
  endfacet
  facet normal -1.0816248863773392e-18 -0.9914448613738093 -0.13052619222006073
    outer loop
      vertex -8.190000000000005 -1 1
      vertex -10.300000000000004 -0.965925826289066 0.7411809548974801
      vertex -8.190000000000005 -0.965925826289066 0.7411809548974801
    endloop
  endfacet
  facet normal 0 -0.9238795325112936 -0.3826834323650732
    outer loop
      vertex -10.300000000000004 -0.866025403784441 0.5
      vertex -8.190000000000005 -0.866025403784441 0.5
      vertex -8.190000000000005 -0.965925826289066 0.7411809548974801
    endloop
  endfacet
  facet normal 1 0 0
    outer loop
      vertex -8.190000000000005 -0.7071067811865461 1.707106781186548
      vertex -8.190000000000005 -0.7071067811865461 0.2928932188134521
      vertex -8.190000000000005 -0.5 0.13397459621556074
    endloop
  endfacet
  facet normal 1 0 0
    outer loop
      vertex -8.190000000000005 -0.866025403784441 1.5
      vertex -8.190000000000005 -0.866025403784441 0.5
      vertex -8.190000000000005 -0.7071067811865461 0.2928932188134521
    endloop
  endfacet
  facet normal 1 0 0
    outer loop
      vertex -8.190000000000005 -0.965925826289066 1.2588190451025199
      vertex -8.190000000000005 -0.965925826289066 0.7411809548974801
      vertex -8.190000000000005 -0.866025403784441 0.5
    endloop
  endfacet
  facet normal 0 -0.6087614290087239 -0.7933533402912328
    outer loop
      vertex -10.300000000000004 -0.7071067811865461 0.2928932188134521
      vertex -8.190000000000005 -0.5 0.13397459621556074
      vertex -8.190000000000005 -0.7071067811865461 0.2928932188134521
    endloop
  endfacet
  facet normal 0 -0.7933533402912286 -0.6087614290087291
    outer loop
      vertex -10.300000000000004 -0.7071067811865461 0.2928932188134521
      vertex -8.190000000000005 -0.7071067811865461 0.2928932188134521
      vertex -8.190000000000005 -0.866025403784441 0.5
    endloop
  endfacet
  facet normal 0 0.7933533402912286 0.608761429008729
    outer loop
      vertex 11.5 0.866025403784441 1.5
      vertex 9.400000000000006 0.866025403784441 1.5
      vertex 9.400000000000006 0.7071067811865461 1.707106781186548
    endloop
  endfacet
  facet normal 0 0.9238795325112936 0.3826834323650732
    outer loop
      vertex 11.5 0.965925826289066 1.2588190451025199
      vertex 9.400000000000006 0.965925826289066 1.2588190451025199
      vertex 9.400000000000006 0.866025403784441 1.5
    endloop
  endfacet
  facet normal 0 0.9914448613738092 0.1305261922200607
    outer loop
      vertex 11.5 1 1
      vertex 9.400000000000006 1 1
      vertex 9.400000000000006 0.965925826289066 1.2588190451025199
    endloop
  endfacet
  facet normal 0 0.9238795325112936 0.3826834323650732
    outer loop
      vertex 11.5 0.866025403784441 1.5
      vertex 11.5 0.965925826289066 1.2588190451025199
      vertex 9.400000000000006 0.866025403784441 1.5
    endloop
  endfacet
  facet normal -6.193869635370288e-18 0.7933533402912286 0.608761429008729
    outer loop
      vertex 11.5 0.866025403784441 1.5
      vertex 9.400000000000006 0.7071067811865461 1.707106781186548
      vertex 11.5 0.7071067811865461 1.707106781186548
    endloop
  endfacet
  facet normal 0 0.9914448613738092 0.1305261922200607
    outer loop
      vertex 11.5 0.965925826289066 1.2588190451025199
      vertex 11.5 1 1
      vertex 9.400000000000006 0.965925826289066 1.2588190451025199
    endloop
  endfacet
  facet normal 0 0.9914448613738092 -0.1305261922200607
    outer loop
      vertex 11.5 1 1
      vertex 11.5 0.965925826289066 0.7411809548974801
      vertex 9.400000000000006 1 1
    endloop
  endfacet
  facet normal 1 0 0
    outer loop
      vertex 11.5 0.866025403784441 1.5
      vertex 11.5 0.965925826289066 0.7411809548974801
      vertex 11.5 0.965925826289066 1.2588190451025199
    endloop
  endfacet
  facet normal 1 0 0
    outer loop
      vertex 11.5 0.965925826289066 1.2588190451025199
      vertex 11.5 0.965925826289066 0.7411809548974801
      vertex 11.5 1 1
    endloop
  endfacet
  facet normal 1 0 0
    outer loop
      vertex 11.5 0.866025403784441 1.5
      vertex 11.5 0.866025403784441 0.5
      vertex 11.5 0.965925826289066 0.7411809548974801
    endloop
  endfacet
  facet normal 1 0 0
    outer loop
      vertex 11.5 0.866025403784441 1.5
      vertex 11.5 0.7071067811865461 1.707106781186548
      vertex 11.5 0.866025403784441 0.5
    endloop
  endfacet
  facet normal 0 0.9914448613738092 -0.1305261922200607
    outer loop
      vertex 11.5 0.965925826289066 0.7411809548974801
      vertex 9.400000000000006 0.965925826289066 0.7411809548974801
      vertex 9.400000000000006 1 1
    endloop
  endfacet
  facet normal 0 0.9238795325112936 -0.3826834323650732
    outer loop
      vertex 11.5 0.866025403784441 0.5
      vertex 9.400000000000006 0.866025403784441 0.5
      vertex 9.400000000000006 0.965925826289066 0.7411809548974801
    endloop
  endfacet
  facet normal 0 0.7933533402912286 -0.608761429008729
    outer loop
      vertex 11.5 0.7071067811865461 0.2928932188134521
      vertex 9.400000000000006 0.7071067811865461 0.2928932188134521
      vertex 9.400000000000006 0.866025403784441 0.5
    endloop
  endfacet
  facet normal 0 0.9238795325112936 -0.3826834323650732
    outer loop
      vertex 11.5 0.965925826289066 0.7411809548974801
      vertex 11.5 0.866025403784441 0.5
      vertex 9.400000000000006 0.965925826289066 0.7411809548974801
    endloop
  endfacet
  facet normal 1 0 0
    outer loop
      vertex 11.5 0.7071067811865461 1.707106781186548
      vertex 11.5 0.7071067811865461 0.2928932188134521
      vertex 11.5 0.866025403784441 0.5
    endloop
  endfacet
  facet normal 0 0.7933533402912286 -0.608761429008729
    outer loop
      vertex 11.5 0.866025403784441 0.5
      vertex 11.5 0.7071067811865461 0.2928932188134521
      vertex 9.400000000000006 0.866025403784441 0.5
    endloop
  endfacet
  facet normal 0 0.3826834323650848 0.9238795325112887
    outer loop
      vertex 11.5 0.5 1.8660254037844393
      vertex 9.400000000000006 0.5 1.8660254037844393
      vertex 9.400000000000006 0.25881904510251985 1.9659258262890678
    endloop
  endfacet
  facet normal 0 0.13052619222005404 0.9914448613738102
    outer loop
      vertex 11.5 0.25881904510251985 1.9659258262890678
      vertex 9.400000000000006 0.25881904510251985 1.9659258262890678
      vertex 9.400000000000006 0 2
    endloop
  endfacet
  facet normal 0 -0.13052619222005404 0.9914448613738102
    outer loop
      vertex 11.5 0 2
      vertex 9.400000000000006 0 2
      vertex 9.400000000000006 -0.25881904510251985 1.9659258262890678
    endloop
  endfacet
  facet normal -2.7368752087894674e-18 0.3826834323650848 0.9238795325112887
    outer loop
      vertex 11.5 0.5 1.8660254037844393
      vertex 9.400000000000006 0.25881904510251985 1.9659258262890678
      vertex 11.5 0.25881904510251985 1.9659258262890678
    endloop
  endfacet
  facet normal -9.89623294252551e-19 0.13052619222005404 0.9914448613738102
    outer loop
      vertex 11.5 0.25881904510251985 1.9659258262890678
      vertex 9.400000000000006 0 2
      vertex 11.5 0 2
    endloop
  endfacet
  facet normal 9.89623294252551e-19 -0.13052619222005404 0.9914448613738102
    outer loop
      vertex 11.5 0 2
      vertex 9.400000000000006 -0.25881904510251985 1.9659258262890678
      vertex 11.5 -0.25881904510251985 1.9659258262890678
    endloop
  endfacet
  facet normal 1.645382810729753e-13 -0.38268343236508573 0.9238795325112884
    outer loop
      vertex 9.39 -0.5 1.8660254037844393
      vertex 9.400000000000006 -0.29999999999999716 1.9488681162590566
      vertex 9.39 -0.29999999999999716 1.9488681162590584
    endloop
  endfacet
  facet normal 0 -0.38268343236511426 0.9238795325112766
    outer loop
      vertex 11.5 -0.25881904510251985 1.9659258262890678
      vertex 9.400000000000006 -0.25881904510251985 1.9659258262890678
      vertex 9.400000000000006 -0.29999999999999716 1.9488681162590566
    endloop
  endfacet
  facet normal 0 -0.38268343236507874 0.9238795325112913
    outer loop
      vertex 9.39 -0.5 1.8660254037844393
      vertex 11.5 -0.5 1.8660254037844393
      vertex 9.400000000000006 -0.29999999999999716 1.9488681162590566
    endloop
  endfacet
  facet normal -6.76573918719655e-16 -0.3826834323650848 0.9238795325112887
    outer loop
      vertex 11.5 -0.25881904510251985 1.9659258262890678
      vertex 9.400000000000006 -0.29999999999999716 1.9488681162590566
      vertex 11.5 -0.5 1.8660254037844393
    endloop
  endfacet
  facet normal 0 0.6087614290087238 0.7933533402912327
    outer loop
      vertex 11.5 0.7071067811865461 1.707106781186548
      vertex 9.400000000000006 0.7071067811865461 1.707106781186548
      vertex 9.400000000000006 0.5 1.8660254037844393
    endloop
  endfacet
  facet normal 2.9427141851525387e-18 0.6087614290087238 0.7933533402912327
    outer loop
      vertex 11.5 0.7071067811865461 1.707106781186548
      vertex 9.400000000000006 0.5 1.8660254037844393
      vertex 11.5 0.5 1.8660254037844393
    endloop
  endfacet
  facet normal 1 0 0
    outer loop
      vertex 11.5 0.7071067811865461 1.707106781186548
      vertex 11.5 0.5 1.8660254037844393
      vertex 11.5 0.7071067811865461 0.2928932188134521
    endloop
  endfacet
  facet normal 1 0 0
    outer loop
      vertex 11.5 0.5 1.8660254037844393
      vertex 11.5 0.25881904510251985 1.9659258262890678
      vertex 11.5 0.5 0.13397459621556074
    endloop
  endfacet
  facet normal 1 0 0
    outer loop
      vertex 11.5 0.25881904510251985 1.9659258262890678
      vertex 11.5 0 2
      vertex 11.5 0.25881904510251985 0.03407417371093224
    endloop
  endfacet
  facet normal 1 0 0
    outer loop
      vertex 11.5 0 2
      vertex 11.5 -0.25881904510251985 1.9659258262890678
      vertex 11.5 0 0
    endloop
  endfacet
  facet normal 0 0.6087614290087238 -0.7933533402912327
    outer loop
      vertex 11.5 0.5 0.13397459621556074
      vertex 9.400000000000006 0.5 0.13397459621556074
      vertex 9.400000000000006 0.7071067811865461 0.2928932188134521
    endloop
  endfacet
  facet normal 0 0.3826834323650848 -0.9238795325112887
    outer loop
      vertex 11.5 0.25881904510251985 0.03407417371093224
      vertex 9.400000000000006 0.25881904510251985 0.03407417371093224
      vertex 9.400000000000006 0.5 0.13397459621556074
    endloop
  endfacet
  facet normal 0 0.13052619222005404 -0.9914448613738102
    outer loop
      vertex 11.5 0 0
      vertex 9.400000000000006 0 0
      vertex 9.400000000000006 0.25881904510251985 0.03407417371093224
    endloop
  endfacet
  facet normal 0 -0.13052619222005404 -0.9914448613738102
    outer loop
      vertex 11.5 -0.25881904510251985 0.03407417371093224
      vertex 9.400000000000006 -0.25881904510251985 0.03407417371093224
      vertex 9.400000000000006 0 0
    endloop
  endfacet
  facet normal 1 0 0
    outer loop
      vertex 11.5 0.7071067811865461 0.2928932188134521
      vertex 11.5 0.5 1.8660254037844393
      vertex 11.5 0.5 0.13397459621556074
    endloop
  endfacet
  facet normal 1 0 0
    outer loop
      vertex 11.5 0.25881904510251985 1.9659258262890678
      vertex 11.5 0.25881904510251985 0.03407417371093224
      vertex 11.5 0.5 0.13397459621556074
    endloop
  endfacet
  facet normal 0 0.6087614290087238 -0.7933533402912327
    outer loop
      vertex 11.5 0.7071067811865461 0.2928932188134521
      vertex 11.5 0.5 0.13397459621556074
      vertex 9.400000000000006 0.7071067811865461 0.2928932188134521
    endloop
  endfacet
  facet normal 0 0.3826834323650848 -0.9238795325112887
    outer loop
      vertex 11.5 0.5 0.13397459621556074
      vertex 11.5 0.25881904510251985 0.03407417371093224
      vertex 9.400000000000006 0.5 0.13397459621556074
    endloop
  endfacet
  facet normal 1 0 0
    outer loop
      vertex 11.5 0 2
      vertex 11.5 0 0
      vertex 11.5 0.25881904510251985 0.03407417371093224
    endloop
  endfacet
  facet normal 1 0 0
    outer loop
      vertex 11.5 -0.25881904510251985 1.9659258262890678
      vertex 11.5 -0.25881904510251985 0.03407417371093224
      vertex 11.5 0 0
    endloop
  endfacet
  facet normal 0 0.13052619222005404 -0.9914448613738102
    outer loop
      vertex 11.5 0.25881904510251985 0.03407417371093224
      vertex 11.5 0 0
      vertex 9.400000000000006 0.25881904510251985 0.03407417371093224
    endloop
  endfacet
  facet normal 0 -0.13052619222005404 -0.9914448613738102
    outer loop
      vertex 11.5 0 0
      vertex 11.5 -0.25881904510251985 0.03407417371093224
      vertex 9.400000000000006 0 0
    endloop
  endfacet
  facet normal -1 0 0
    outer loop
      vertex 9.39 -0.5 1.8660254037844393
      vertex 9.39 -0.29999999999999716 1.9488681162590584
      vertex 9.39 -0.29999999999999716 0.051131883740941575
    endloop
  endfacet
  facet normal -2.9287676724266905e-18 -0.6087614290087239 0.7933533402912328
    outer loop
      vertex 9.39 -0.5 1.8660254037844393
      vertex 9.39 -0.7071067811865461 1.707106781186548
      vertex 11.5 -0.7071067811865461 1.707106781186548
    endloop
  endfacet
  facet normal 0 -0.7933533402912286 0.6087614290087291
    outer loop
      vertex 9.39 -0.7071067811865461 1.707106781186548
      vertex 9.39 -0.866025403784441 1.5
      vertex 11.5 -0.7071067811865461 1.707106781186548
    endloop
  endfacet
  facet normal 0 -0.9238795325112936 0.3826834323650732
    outer loop
      vertex 9.39 -0.866025403784441 1.5
      vertex 9.39 -0.965925826289066 1.2588190451025199
      vertex 11.5 -0.866025403784441 1.5
    endloop
  endfacet
  facet normal -1 0 0
    outer loop
      vertex 9.39 -0.5 1.8660254037844393
      vertex 9.39 -0.7071067811865461 0.2928932188134521
      vertex 9.39 -0.7071067811865461 1.707106781186548
    endloop
  endfacet
  facet normal -1 0 0
    outer loop
      vertex 9.39 -0.7071067811865461 1.707106781186548
      vertex 9.39 -0.866025403784441 0.5
      vertex 9.39 -0.866025403784441 1.5
    endloop
  endfacet
  facet normal -1 0 0
    outer loop
      vertex 9.39 -0.866025403784441 1.5
      vertex 9.39 -0.965925826289066 0.7411809548974801
      vertex 9.39 -0.965925826289066 1.2588190451025199
    endloop
  endfacet
  facet normal -1 0 0
    outer loop
      vertex 9.39 -0.866025403784441 1.5
      vertex 9.39 -0.866025403784441 0.5
      vertex 9.39 -0.965925826289066 0.7411809548974801
    endloop
  endfacet
  facet normal -1 0 0
    outer loop
      vertex 9.39 -0.965925826289066 1.2588190451025199
      vertex 9.39 -0.965925826289066 0.7411809548974801
      vertex 9.39 -1 1
    endloop
  endfacet
  facet normal 0 -0.9914448613738093 0.13052619222006073
    outer loop
      vertex 9.39 -0.965925826289066 1.2588190451025199
      vertex 9.39 -1 1
      vertex 11.5 -0.965925826289066 1.2588190451025199
    endloop
  endfacet
  facet normal 0 -0.9914448613738093 -0.13052619222006073
    outer loop
      vertex 9.39 -1 1
      vertex 9.39 -0.965925826289066 0.7411809548974801
      vertex 11.5 -1 1
    endloop
  endfacet
  facet normal 0 -0.6087614290087239 0.7933533402912328
    outer loop
      vertex 9.39 -0.5 1.8660254037844393
      vertex 11.5 -0.7071067811865461 1.707106781186548
      vertex 11.5 -0.5 1.8660254037844393
    endloop
  endfacet
  facet normal 1 0 0
    outer loop
      vertex 11.5 -0.25881904510251985 1.9659258262890678
      vertex 11.5 -0.5 1.8660254037844393
      vertex 11.5 -0.25881904510251985 0.03407417371093224
    endloop
  endfacet
  facet normal 1 0 0
    outer loop
      vertex 11.5 -0.5 1.8660254037844393
      vertex 11.5 -0.7071067811865461 1.707106781186548
      vertex 11.5 -0.5 0.13397459621556074
    endloop
  endfacet
  facet normal 0 -0.7933533402912286 0.6087614290087291
    outer loop
      vertex 9.39 -0.866025403784441 1.5
      vertex 11.5 -0.866025403784441 1.5
      vertex 11.5 -0.7071067811865461 1.707106781186548
    endloop
  endfacet
  facet normal 0 -0.9238795325112936 0.3826834323650732
    outer loop
      vertex 9.39 -0.965925826289066 1.2588190451025199
      vertex 11.5 -0.965925826289066 1.2588190451025199
      vertex 11.5 -0.866025403784441 1.5
    endloop
  endfacet
  facet normal 0 -0.9914448613738093 0.13052619222006073
    outer loop
      vertex 9.39 -1 1
      vertex 11.5 -1 1
      vertex 11.5 -0.965925826289066 1.2588190451025199
    endloop
  endfacet
  facet normal 1 0 0
    outer loop
      vertex 11.5 -0.7071067811865461 1.707106781186548
      vertex 11.5 -0.866025403784441 1.5
      vertex 11.5 -0.7071067811865461 0.2928932188134521
    endloop
  endfacet
  facet normal 1 0 0
    outer loop
      vertex 11.5 -0.866025403784441 1.5
      vertex 11.5 -0.965925826289066 1.2588190451025199
      vertex 11.5 -0.866025403784441 0.5
    endloop
  endfacet
  facet normal 1 0 0
    outer loop
      vertex 11.5 -0.965925826289066 1.2588190451025199
      vertex 11.5 -1 1
      vertex 11.5 -0.965925826289066 0.7411809548974801
    endloop
  endfacet
  facet normal -1 0 0
    outer loop
      vertex 9.39 -0.5 1.8660254037844393
      vertex 9.39 -0.5 0.13397459621556074
      vertex 9.39 -0.7071067811865461 0.2928932188134521
    endloop
  endfacet
  facet normal -1 0 0
    outer loop
      vertex 9.39 -0.5 1.8660254037844393
      vertex 9.39 -0.29999999999999716 0.051131883740941575
      vertex 9.39 -0.5 0.13397459621556074
    endloop
  endfacet
  facet normal 5.372968711842889e-16 -0.38268343236508573 -0.9238795325112884
    outer loop
      vertex 9.39 -0.5 0.13397459621556074
      vertex 9.39 -0.29999999999999716 0.051131883740941575
      vertex 9.400000000000006 -0.29999999999999716 0.051131883740941575
    endloop
  endfacet
  facet normal 0 -0.38268343236508023 -0.9238795325112906
    outer loop
      vertex 11.5 -0.25881904510251985 0.03407417371093224
      vertex 9.400000000000006 -0.29999999999999716 0.051131883740941575
      vertex 9.400000000000006 -0.25881904510251985 0.03407417371093224
    endloop
  endfacet
  facet normal 1.2346276335581494e-16 -0.38268343236508573 -0.9238795325112885
    outer loop
      vertex 9.39 -0.5 0.13397459621556074
      vertex 9.400000000000006 -0.29999999999999716 0.051131883740941575
      vertex 11.5 -0.25881904510251985 0.03407417371093224
    endloop
  endfacet
  facet normal 0 -0.6087614290087239 -0.7933533402912328
    outer loop
      vertex 9.39 -0.5 0.13397459621556074
      vertex 11.5 -0.5 0.13397459621556074
      vertex 9.39 -0.7071067811865461 0.2928932188134521
    endloop
  endfacet
  facet normal -1 0 0
    outer loop
      vertex 9.39 -0.7071067811865461 1.707106781186548
      vertex 9.39 -0.7071067811865461 0.2928932188134521
      vertex 9.39 -0.866025403784441 0.5
    endloop
  endfacet
  facet normal 0 -0.9238795325112936 -0.3826834323650732
    outer loop
      vertex 9.39 -0.965925826289066 0.7411809548974801
      vertex 9.39 -0.866025403784441 0.5
      vertex 11.5 -0.965925826289066 0.7411809548974801
    endloop
  endfacet
  facet normal 0 -0.7933533402912286 -0.6087614290087291
    outer loop
      vertex 9.39 -0.866025403784441 0.5
      vertex 9.39 -0.7071067811865461 0.2928932188134521
      vertex 11.5 -0.866025403784441 0.5
    endloop
  endfacet
  facet normal 1 0 0
    outer loop
      vertex 11.5 -0.5 1.8660254037844393
      vertex 11.5 -0.5 0.13397459621556074
      vertex 11.5 -0.25881904510251985 0.03407417371093224
    endloop
  endfacet
  facet normal 0 -0.3826834323650848 -0.9238795325112888
    outer loop
      vertex 9.39 -0.5 0.13397459621556074
      vertex 11.5 -0.25881904510251985 0.03407417371093224
      vertex 11.5 -0.5 0.13397459621556074
    endloop
  endfacet
  facet normal -1.0816248863773392e-18 -0.9914448613738093 -0.13052619222006073
    outer loop
      vertex 11.5 -1 1
      vertex 9.39 -0.965925826289066 0.7411809548974801
      vertex 11.5 -0.965925826289066 0.7411809548974801
    endloop
  endfacet
  facet normal 0 -0.9238795325112936 -0.3826834323650732
    outer loop
      vertex 9.39 -0.866025403784441 0.5
      vertex 11.5 -0.866025403784441 0.5
      vertex 11.5 -0.965925826289066 0.7411809548974801
    endloop
  endfacet
  facet normal 1 0 0
    outer loop
      vertex 11.5 -0.7071067811865461 1.707106781186548
      vertex 11.5 -0.7071067811865461 0.2928932188134521
      vertex 11.5 -0.5 0.13397459621556074
    endloop
  endfacet
  facet normal 1 0 0
    outer loop
      vertex 11.5 -0.866025403784441 1.5
      vertex 11.5 -0.866025403784441 0.5
      vertex 11.5 -0.7071067811865461 0.2928932188134521
    endloop
  endfacet
  facet normal 1 0 0
    outer loop
      vertex 11.5 -0.965925826289066 1.2588190451025199
      vertex 11.5 -0.965925826289066 0.7411809548974801
      vertex 11.5 -0.866025403784441 0.5
    endloop
  endfacet
  facet normal 0 -0.6087614290087239 -0.7933533402912328
    outer loop
      vertex 9.39 -0.7071067811865461 0.2928932188134521
      vertex 11.5 -0.5 0.13397459621556074
      vertex 11.5 -0.7071067811865461 0.2928932188134521
    endloop
  endfacet
  facet normal 0 -0.7933533402912286 -0.6087614290087291
    outer loop
      vertex 9.39 -0.7071067811865461 0.2928932188134521
      vertex 11.5 -0.7071067811865461 0.2928932188134521
      vertex 11.5 -0.866025403784441 0.5
    endloop
  endfacet
  facet normal -1 0 0
    outer loop
      vertex -8.200000000000003 2.1000000000000014 2.700000000000001
      vertex -8.200000000000003 0.7071067811865461 1.707106781186548
      vertex -8.200000000000003 0.5 1.8660254037844393
    endloop
  endfacet
  facet normal -1 0 0
    outer loop
      vertex -8.200000000000003 2.1000000000000014 2.700000000000001
      vertex -8.200000000000003 0.866025403784441 1.5
      vertex -8.200000000000003 0.7071067811865461 1.707106781186548
    endloop
  endfacet
  facet normal -1 0 0
    outer loop
      vertex -8.200000000000003 2.1000000000000014 2.700000000000001
      vertex -8.200000000000003 0.25881904510251985 1.9659258262890678
      vertex -8.200000000000003 -0.29999999999999716 2.700000000000001
    endloop
  endfacet
  facet normal -1 0 0
    outer loop
      vertex -8.200000000000003 2.1000000000000014 2.700000000000001
      vertex -8.200000000000003 0.5 1.8660254037844393
      vertex -8.200000000000003 0.25881904510251985 1.9659258262890678
    endloop
  endfacet
  facet normal 0 0 1
    outer loop
      vertex -8.200000000000003 2.1000000000000014 2.700000000000001
      vertex -8.200000000000003 -0.29999999999999716 2.700000000000001
      vertex -2 1.2000000000000028 2.700000000000001
    endloop
  endfacet
  facet normal -1 0 0
    outer loop
      vertex -8.200000000000003 2.1000000000000014 2.700000000000001
      vertex -8.200000000000003 2.1000000000000014 0
      vertex -8.200000000000003 0.965925826289066 1.2588190451025199
    endloop
  endfacet
  facet normal -1 0 0
    outer loop
      vertex -8.200000000000003 2.1000000000000014 2.700000000000001
      vertex -8.200000000000003 0.965925826289066 1.2588190451025199
      vertex -8.200000000000003 0.866025403784441 1.5
    endloop
  endfacet
  facet normal -1 0 0
    outer loop
      vertex -8.200000000000003 2.1000000000000014 0
      vertex -8.200000000000003 1 1
      vertex -8.200000000000003 0.965925826289066 1.2588190451025199
    endloop
  endfacet
  facet normal -1 0 0
    outer loop
      vertex -8.200000000000003 2.1000000000000014 0
      vertex -8.200000000000003 0.965925826289066 0.7411809548974801
      vertex -8.200000000000003 1 1
    endloop
  endfacet
  facet normal -1 0 0
    outer loop
      vertex -8.200000000000003 2.1000000000000014 0
      vertex -8.200000000000003 0.866025403784441 0.5
      vertex -8.200000000000003 0.965925826289066 0.7411809548974801
    endloop
  endfacet
  facet normal -1 0 0
    outer loop
      vertex -8.200000000000003 2.1000000000000014 0
      vertex -8.200000000000003 0.7071067811865461 0.2928932188134521
      vertex -8.200000000000003 0.866025403784441 0.5
    endloop
  endfacet
  facet normal -1 0 0
    outer loop
      vertex -8.200000000000003 2.1000000000000014 0
      vertex -8.200000000000003 0.5 0.13397459621556074
      vertex -8.200000000000003 0.7071067811865461 0.2928932188134521
    endloop
  endfacet
  facet normal -1 0 0
    outer loop
      vertex -8.200000000000003 2.1000000000000014 0
      vertex -8.200000000000003 0.25881904510251985 0.03407417371093224
      vertex -8.200000000000003 0.5 0.13397459621556074
    endloop
  endfacet
  facet normal -1 0 0
    outer loop
      vertex -8.200000000000003 2.1000000000000014 0
      vertex -8.200000000000003 0 0
      vertex -8.200000000000003 0.25881904510251985 0.03407417371093224
    endloop
  endfacet
  facet normal -1 0 0
    outer loop
      vertex -8.200000000000003 -0.29999999999999716 2.700000000000001
      vertex -8.200000000000003 0.25881904510251985 1.9659258262890678
      vertex -8.200000000000003 0 2
    endloop
  endfacet
  facet normal -1 0 0
    outer loop
      vertex -8.200000000000003 -0.29999999999999716 2.700000000000001
      vertex -8.200000000000003 0 2
      vertex -8.200000000000003 -0.25881904510251985 1.9659258262890678
    endloop
  endfacet
  facet normal -1 0 0
    outer loop
      vertex -8.200000000000003 -0.29999999999999716 2.700000000000001
      vertex -8.200000000000003 -0.25881904510251985 1.9659258262890678
      vertex -8.200000000000003 -0.29999999999999716 1.9488681162590584
    endloop
  endfacet
  facet normal 0 -1 0
    outer loop
      vertex -8.200000000000003 -0.29999999999999716 2.700000000000001
      vertex -8.200000000000003 -0.29999999999999716 1.9488681162590584
      vertex -8.190000000000005 -0.29999999999999716 1.9488681162590584
    endloop
  endfacet
  facet normal 0 -1 0
    outer loop
      vertex -8.200000000000003 -0.29999999999999716 2.700000000000001
      vertex -8.190000000000005 -0.29999999999999716 1.9488681162590584
      vertex -2 -0.29999999999999716 2.6900000000000013
    endloop
  endfacet
  facet normal -1 0 0
    outer loop
      vertex -8.200000000000003 -0.29999999999999716 0
      vertex -8.200000000000003 -0.25881904510251985 0.03407417371093224
      vertex -8.200000000000003 0 0
    endloop
  endfacet
  facet normal 0 -1 0
    outer loop
      vertex -8.200000000000003 -0.29999999999999716 0
      vertex -8.190000000000005 -0.29999999999999716 0.051131883740941575
      vertex -8.200000000000003 -0.29999999999999716 0.05113188374094335
    endloop
  endfacet
  facet normal -1 0 0
    outer loop
      vertex -8.200000000000003 -0.29999999999999716 0
      vertex -8.200000000000003 -0.29999999999999716 0.05113188374094335
      vertex -8.200000000000003 -0.25881904510251985 0.03407417371093224
    endloop
  endfacet
  facet normal 0 -1 0
    outer loop
      vertex -2 -0.29999999999999716 2.6900000000000013
      vertex -8.190000000000005 -0.29999999999999716 1.9488681162590584
      vertex -8.190000000000005 -0.29999999999999716 0.051131883740941575
    endloop
  endfacet
  facet normal 0 -1 0
    outer loop
      vertex -8.200000000000003 -0.29999999999999716 0
      vertex -2 -0.29999999999999716 2.6900000000000013
      vertex -8.190000000000005 -0.29999999999999716 0.051131883740941575
    endloop
  endfacet
  facet normal 0 0 1
    outer loop
      vertex -8.200000000000003 2.1000000000000014 2.700000000000001
      vertex -2 1.2000000000000028 2.700000000000001
      vertex 9.400000000000006 2.1000000000000014 2.700000000000001
    endloop
  endfacet
  facet normal 0 1 0
    outer loop
      vertex -8.200000000000003 2.1000000000000014 2.700000000000001
      vertex 6 2.1000000000000014 1.700000000000001
      vertex -8.200000000000003 2.1000000000000014 0
    endloop
  endfacet
  facet normal 0 0 -1
    outer loop
      vertex -8.200000000000003 2.1000000000000014 0
      vertex 6 2.1000000000000014 0
      vertex -8.200000000000003 0 0
    endloop
  endfacet
  facet normal 0 0 1
    outer loop
      vertex -8.200000000000003 -0.29999999999999716 2.700000000000001
      vertex -2 -0.29999999999999716 2.700000000000001
      vertex -2 1.2000000000000028 2.700000000000001
    endloop
  endfacet
  facet normal 0 -1 0
    outer loop
      vertex -8.200000000000003 -0.29999999999999716 2.700000000000001
      vertex -2 -0.29999999999999716 2.6900000000000013
      vertex -2 -0.29999999999999716 2.700000000000001
    endloop
  endfacet
  facet normal 0 0 -1
    outer loop
      vertex -8.200000000000003 -0.29999999999999716 0
      vertex -8.200000000000003 0 0
      vertex 6 2.1000000000000014 0
    endloop
  endfacet
  facet normal 0 -1 0
    outer loop
      vertex -8.200000000000003 -0.29999999999999716 0
      vertex 2 -0.29999999999999716 2.6900000000000013
      vertex -2 -0.29999999999999716 2.6900000000000013
    endloop
  endfacet
  facet normal 0 1 0
    outer loop
      vertex -8.200000000000003 2.1000000000000014 2.700000000000001
      vertex 9.400000000000006 2.1000000000000014 2.700000000000001
      vertex 6 2.1000000000000014 1.700000000000001
    endloop
  endfacet
  facet normal 0 0 1
    outer loop
      vertex 9.400000000000006 2.1000000000000014 2.700000000000001
      vertex -2 1.2000000000000028 2.700000000000001
      vertex 2 1.2000000000000028 2.700000000000001
    endloop
  endfacet
  facet normal 0 1 0
    outer loop
      vertex -8.200000000000003 2.1000000000000014 0
      vertex 6 2.1000000000000014 1.700000000000001
      vertex 6 2.1000000000000014 0
    endloop
  endfacet
  facet normal 0 0 -1
    outer loop
      vertex -8.200000000000003 -0.29999999999999716 0
      vertex 6 2.1000000000000014 0
      vertex 9 2.1000000000000014 0
    endloop
  endfacet
  facet normal 0 0 -1
    outer loop
      vertex -8.200000000000003 -0.29999999999999716 0
      vertex 9 2.1000000000000014 0
      vertex 9.400000000000006 2.1000000000000014 0
    endloop
  endfacet
  facet normal 0 0 1
    outer loop
      vertex 9.400000000000006 -0.29999999999999716 2.700000000000001
      vertex 2 1.2000000000000028 2.700000000000001
      vertex 2 -0.29999999999999716 2.700000000000001
    endloop
  endfacet
  facet normal 0 -1 0
    outer loop
      vertex 9.400000000000006 -0.29999999999999716 2.700000000000001
      vertex 2 -0.29999999999999716 2.700000000000001
      vertex 2 -0.29999999999999716 2.6900000000000013
    endloop
  endfacet
  facet normal 0 -1 0
    outer loop
      vertex -8.200000000000003 -0.29999999999999716 0
      vertex 9.400000000000006 -0.29999999999999716 2.700000000000001
      vertex 2 -0.29999999999999716 2.6900000000000013
    endloop
  endfacet
  facet normal 0 0 -1
    outer loop
      vertex -8.200000000000003 -0.29999999999999716 0
      vertex 9.400000000000006 2.1000000000000014 0
      vertex 9.400000000000006 0 0
    endloop
  endfacet
  facet normal 0 -1 0
    outer loop
      vertex -8.200000000000003 -0.29999999999999716 0
      vertex 9.39 -0.29999999999999716 1.9488681162590584
      vertex 9.400000000000006 -0.29999999999999716 2.700000000000001
    endloop
  endfacet
  facet normal 0 -1 0
    outer loop
      vertex -8.200000000000003 -0.29999999999999716 0
      vertex 9.39 -0.29999999999999716 0.051131883740941575
      vertex 9.39 -0.29999999999999716 1.9488681162590584
    endloop
  endfacet
  facet normal 0 0 -1
    outer loop
      vertex -8.200000000000003 -0.29999999999999716 0
      vertex 9.400000000000006 0 0
      vertex 9.400000000000006 -0.29999999999999716 0
    endloop
  endfacet
  facet normal 0 -1 0
    outer loop
      vertex -8.200000000000003 -0.29999999999999716 0
      vertex 9.400000000000006 -0.29999999999999716 0
      vertex 9.39 -0.29999999999999716 0.051131883740941575
    endloop
  endfacet
  facet normal 0 1 0
    outer loop
      vertex 9.400000000000006 2.1000000000000014 2.700000000000001
      vertex 9 2.1000000000000014 1.700000000000001
      vertex 6 2.1000000000000014 1.700000000000001
    endloop
  endfacet
  facet normal 0 0 1
    outer loop
      vertex 9.400000000000006 2.1000000000000014 2.700000000000001
      vertex 2 1.2000000000000028 2.700000000000001
      vertex 9.400000000000006 -0.29999999999999716 2.700000000000001
    endloop
  endfacet
  facet normal 1 0 0
    outer loop
      vertex 9.400000000000006 2.1000000000000014 2.700000000000001
      vertex 9.400000000000006 0.5 1.8660254037844393
      vertex 9.400000000000006 0.7071067811865461 1.707106781186548
    endloop
  endfacet
  facet normal 1 0 0
    outer loop
      vertex 9.400000000000006 2.1000000000000014 2.700000000000001
      vertex 9.400000000000006 0.7071067811865461 1.707106781186548
      vertex 9.400000000000006 0.866025403784441 1.5
    endloop
  endfacet
  facet normal 1 0 0
    outer loop
      vertex 9.400000000000006 2.1000000000000014 2.700000000000001
      vertex 9.400000000000006 -0.29999999999999716 2.700000000000001
      vertex 9.400000000000006 0.25881904510251985 1.9659258262890678
    endloop
  endfacet
  facet normal 1 0 0
    outer loop
      vertex 9.400000000000006 2.1000000000000014 2.700000000000001
      vertex 9.400000000000006 0.25881904510251985 1.9659258262890678
      vertex 9.400000000000006 0.5 1.8660254037844393
    endloop
  endfacet
  facet normal 0 1 0
    outer loop
      vertex 9.400000000000006 2.1000000000000014 2.700000000000001
      vertex 9 2.1000000000000014 0
      vertex 9 2.1000000000000014 1.700000000000001
    endloop
  endfacet
  facet normal 1 0 0
    outer loop
      vertex 9.400000000000006 2.1000000000000014 2.700000000000001
      vertex 9.400000000000006 0.866025403784441 1.5
      vertex 9.400000000000006 2.1000000000000014 0
    endloop
  endfacet
  facet normal 0 1 0
    outer loop
      vertex 9.400000000000006 2.1000000000000014 2.700000000000001
      vertex 9.400000000000006 2.1000000000000014 0
      vertex 9 2.1000000000000014 0
    endloop
  endfacet
  facet normal 1 0 0
    outer loop
      vertex 9.400000000000006 2.1000000000000014 0
      vertex 9.400000000000006 0.866025403784441 1.5
      vertex 9.400000000000006 0.965925826289066 1.2588190451025199
    endloop
  endfacet
  facet normal 1 0 0
    outer loop
      vertex 9.400000000000006 2.1000000000000014 0
      vertex 9.400000000000006 0.965925826289066 1.2588190451025199
      vertex 9.400000000000006 1 1
    endloop
  endfacet
  facet normal 1 0 0
    outer loop
      vertex 9.400000000000006 2.1000000000000014 0
      vertex 9.400000000000006 1 1
      vertex 9.400000000000006 0.965925826289066 0.7411809548974801
    endloop
  endfacet
  facet normal 1 0 0
    outer loop
      vertex 9.400000000000006 2.1000000000000014 0
      vertex 9.400000000000006 0.965925826289066 0.7411809548974801
      vertex 9.400000000000006 0.866025403784441 0.5
    endloop
  endfacet
  facet normal 1 0 0
    outer loop
      vertex 9.400000000000006 2.1000000000000014 0
      vertex 9.400000000000006 0.866025403784441 0.5
      vertex 9.400000000000006 0.7071067811865461 0.2928932188134521
    endloop
  endfacet
  facet normal 1 0 0
    outer loop
      vertex 9.400000000000006 2.1000000000000014 0
      vertex 9.400000000000006 0.7071067811865461 0.2928932188134521
      vertex 9.400000000000006 0.5 0.13397459621556074
    endloop
  endfacet
  facet normal 1 0 0
    outer loop
      vertex 9.400000000000006 2.1000000000000014 0
      vertex 9.400000000000006 0.5 0.13397459621556074
      vertex 9.400000000000006 0.25881904510251985 0.03407417371093224
    endloop
  endfacet
  facet normal 1 0 0
    outer loop
      vertex 9.400000000000006 2.1000000000000014 0
      vertex 9.400000000000006 0.25881904510251985 0.03407417371093224
      vertex 9.400000000000006 0 0
    endloop
  endfacet
  facet normal 1 0 0
    outer loop
      vertex 9.400000000000006 -0.29999999999999716 2.700000000000001
      vertex 9.400000000000006 0 2
      vertex 9.400000000000006 0.25881904510251985 1.9659258262890678
    endloop
  endfacet
  facet normal 1 0 0
    outer loop
      vertex 9.400000000000006 -0.29999999999999716 2.700000000000001
      vertex 9.400000000000006 -0.25881904510251985 1.9659258262890678
      vertex 9.400000000000006 0 2
    endloop
  endfacet
  facet normal 1 0 0
    outer loop
      vertex 9.400000000000006 -0.29999999999999716 2.700000000000001
      vertex 9.400000000000006 -0.29999999999999716 1.9488681162590566
      vertex 9.400000000000006 -0.25881904510251985 1.9659258262890678
    endloop
  endfacet
  facet normal 0 -1 0
    outer loop
      vertex 9.400000000000006 -0.29999999999999716 2.700000000000001
      vertex 9.39 -0.29999999999999716 1.9488681162590584
      vertex 9.400000000000006 -0.29999999999999716 1.9488681162590566
    endloop
  endfacet
  facet normal 1 0 0
    outer loop
      vertex 9.400000000000006 -0.29999999999999716 0
      vertex 9.400000000000006 0 0
      vertex 9.400000000000006 -0.25881904510251985 0.03407417371093224
    endloop
  endfacet
  facet normal 0 -1 0
    outer loop
      vertex 9.400000000000006 -0.29999999999999716 0
      vertex 9.400000000000006 -0.29999999999999716 0.051131883740941575
      vertex 9.39 -0.29999999999999716 0.051131883740941575
    endloop
  endfacet
  facet normal 1 0 0
    outer loop
      vertex 9.400000000000006 -0.29999999999999716 0
      vertex 9.400000000000006 -0.25881904510251985 0.03407417371093224
      vertex 9.400000000000006 -0.29999999999999716 0.051131883740941575
    endloop
  endfacet
  facet normal -1 0 0
    outer loop
      vertex 6 5.600000000000001 1.700000000000001
      vertex 6 5.600000000000001 0
      vertex 6 2.1000000000000014 1.700000000000001
    endloop
  endfacet
  facet normal -1 0 0
    outer loop
      vertex 6 5.600000000000001 0
      vertex 6 2.1000000000000014 0
      vertex 6 2.1000000000000014 1.700000000000001
    endloop
  endfacet
  facet normal 0 1 0
    outer loop
      vertex 6 5.600000000000001 1.700000000000001
      vertex 9 5.600000000000001 1.700000000000001
      vertex 9 5.600000000000001 0
    endloop
  endfacet
  facet normal 0 1 0
    outer loop
      vertex 6 5.600000000000001 1.700000000000001
      vertex 9 5.600000000000001 0
      vertex 6 5.600000000000001 0
    endloop
  endfacet
  facet normal 0 0 1
    outer loop
      vertex 6 5.600000000000001 1.700000000000001
      vertex 9 2.1000000000000014 1.700000000000001
      vertex 9 5.600000000000001 1.700000000000001
    endloop
  endfacet
  facet normal 0 0 -1
    outer loop
      vertex 6 5.600000000000001 0
      vertex 9 5.600000000000001 0
      vertex 6 2.1000000000000014 0
    endloop
  endfacet
  facet normal 1 0 0
    outer loop
      vertex 9 5.600000000000001 1.700000000000001
      vertex 9 2.1000000000000014 0
      vertex 9 5.600000000000001 0
    endloop
  endfacet
  facet normal 0 0 1
    outer loop
      vertex 6 5.600000000000001 1.700000000000001
      vertex 6 2.1000000000000014 1.700000000000001
      vertex 9 2.1000000000000014 1.700000000000001
    endloop
  endfacet
  facet normal 0 0 -1
    outer loop
      vertex 9 5.600000000000001 0
      vertex 9 2.1000000000000014 0
      vertex 6 2.1000000000000014 0
    endloop
  endfacet
  facet normal 1 0 0
    outer loop
      vertex 9 5.600000000000001 1.700000000000001
      vertex 9 2.1000000000000014 1.700000000000001
      vertex 9 2.1000000000000014 0
    endloop
  endfacet
  facet normal 0 1 0
    outer loop
      vertex -2 1.2000000000000028 7.300000000000001
      vertex 2 1.2000000000000028 7.300000000000001
      vertex -2 1.2000000000000028 2.700000000000001
    endloop
  endfacet
  facet normal -1 0 0
    outer loop
      vertex -2 1.2000000000000028 7.300000000000001
      vertex -2 1.2000000000000028 2.700000000000001
      vertex -2 -0.29999999999999716 2.700000000000001
    endloop
  endfacet
  facet normal -1 0 0
    outer loop
      vertex -2 1.2000000000000028 7.300000000000001
      vertex -2 0.15432771950677449 6.829610059419055
      vertex -2 0.0242640687119291 7.02426406871193
    endloop
  endfacet
  facet normal -1 0 0
    outer loop
      vertex -2 1.2000000000000028 7.300000000000001
      vertex -2 0.20000000000000284 6.600000000000001
      vertex -2 0.15432771950677449 6.829610059419055
    endloop
  endfacet
  facet normal -1 0 0
    outer loop
      vertex -2 1.2000000000000028 7.300000000000001
      vertex -2 0.0242640687119291 7.02426406871193
      vertex -2 -0.1703899405809466 7.154327719506774
    endloop
  endfacet
  facet normal -1 0 0
    outer loop
      vertex -2 1.2000000000000028 7.300000000000001
      vertex -2 -0.1703899405809466 7.154327719506774
      vertex -2 -0.3999999999999986 7.300000000000001
    endloop
  endfacet
  facet normal 0 0 1
    outer loop
      vertex -2 1.2000000000000028 7.300000000000001
      vertex -2 -0.3999999999999986 7.300000000000001
      vertex 2 -0.3999999999999986 7.300000000000001
    endloop
  endfacet
  facet normal -1 0 0
    outer loop
      vertex -2 1.2000000000000028 7.300000000000001
      vertex -2 -0.3999999999999986 2.6900000000000013
      vertex -2 0.20000000000000284 6.600000000000001
    endloop
  endfacet
  facet normal -1 0 0
    outer loop
      vertex -2 -0.1703899405809466 7.154327719506774
      vertex -2 -0.3999999999999986 7.200000000000001
      vertex -2 -0.3999999999999986 7.300000000000001
    endloop
  endfacet
  facet normal 0 -1 0
    outer loop
      vertex -2 -0.3999999999999986 7.300000000000001
      vertex -2 -0.3999999999999986 7.200000000000001
      vertex 2 -0.3999999999999986 7.300000000000001
    endloop
  endfacet
  facet normal -1 0 0
    outer loop
      vertex -2 0.20000000000000284 6.600000000000001
      vertex -2 -0.3999999999999986 2.6900000000000013
      vertex -2 0.15432771950677449 6.370389940580948
    endloop
  endfacet
  facet normal -1 0 0
    outer loop
      vertex -2 0.15432771950677449 6.370389940580948
      vertex -2 -0.3999999999999986 2.6900000000000013
      vertex -2 0.0242640687119291 6.175735931288074
    endloop
  endfacet
  facet normal -1 0 0
    outer loop
      vertex -2 1.2000000000000028 7.300000000000001
      vertex -2 -0.29999999999999716 2.700000000000001
      vertex -2 -0.3999999999999986 2.6900000000000013
    endloop
  endfacet
  facet normal -1 0 0
    outer loop
      vertex -2 0.0242640687119291 6.175735931288074
      vertex -2 -0.3999999999999986 2.6900000000000013
      vertex -2 -0.1703899405809466 6.04567228049323
    endloop
  endfacet
  facet normal -1 0 0
    outer loop
      vertex -2 -0.1703899405809466 6.04567228049323
      vertex -2 -0.3999999999999986 2.6900000000000013
      vertex -2 -0.3999999999999986 6.000000000000002
    endloop
  endfacet
  facet normal 0 -1 0
    outer loop
      vertex -2 -0.3999999999999986 6.000000000000002
      vertex -2 -0.3999999999999986 2.6900000000000013
      vertex 2 -0.3999999999999986 6.000000000000002
    endloop
  endfacet
  facet normal -1 0 0
    outer loop
      vertex -2 -0.3999999999999986 2.6900000000000013
      vertex -2 -0.29999999999999716 2.700000000000001
      vertex -2 -0.29999999999999716 2.6900000000000013
    endloop
  endfacet
  facet normal 0 0 -1
    outer loop
      vertex -2 -0.3999999999999986 2.6900000000000013
      vertex -2 -0.29999999999999716 2.6900000000000013
      vertex 2 -0.29999999999999716 2.6900000000000013
    endloop
  endfacet
  facet normal 0 0 1
    outer loop
      vertex -2 1.2000000000000028 7.300000000000001
      vertex 2 -0.3999999999999986 7.300000000000001
      vertex 2 1.2000000000000028 7.300000000000001
    endloop
  endfacet
  facet normal 1 0 0
    outer loop
      vertex 2 1.2000000000000028 7.300000000000001
      vertex 2 0.20000000000000284 6.600000000000001
      vertex 2 1.2000000000000028 2.700000000000001
    endloop
  endfacet
  facet normal 0 1 0
    outer loop
      vertex 2 1.2000000000000028 7.300000000000001
      vertex 2 1.2000000000000028 2.700000000000001
      vertex -2 1.2000000000000028 2.700000000000001
    endloop
  endfacet
  facet normal 1 0 0
    outer loop
      vertex 2 1.2000000000000028 7.300000000000001
      vertex 2 0.0242640687119291 7.02426406871193
      vertex 2 0.15432771950677449 6.829610059419055
    endloop
  endfacet
  facet normal 1 0 0
    outer loop
      vertex 2 1.2000000000000028 7.300000000000001
      vertex 2 0.15432771950677449 6.829610059419055
      vertex 2 0.20000000000000284 6.600000000000001
    endloop
  endfacet
  facet normal 1 0 0
    outer loop
      vertex 2 1.2000000000000028 7.300000000000001
      vertex 2 -0.1703899405809466 7.154327719506774
      vertex 2 0.0242640687119291 7.02426406871193
    endloop
  endfacet
  facet normal 1 0 0
    outer loop
      vertex 2 1.2000000000000028 7.300000000000001
      vertex 2 -0.3999999999999986 7.300000000000001
      vertex 2 -0.1703899405809466 7.154327719506774
    endloop
  endfacet
  facet normal 0 -1 0
    outer loop
      vertex -2 -0.3999999999999986 7.200000000000001
      vertex 2 -0.3999999999999986 7.200000000000001
      vertex 2 -0.3999999999999986 7.300000000000001
    endloop
  endfacet
  facet normal 1 0 0
    outer loop
      vertex 2 -0.1703899405809466 7.154327719506774
      vertex 2 -0.3999999999999986 7.300000000000001
      vertex 2 -0.3999999999999986 7.200000000000001
    endloop
  endfacet
  facet normal 1 0 0
    outer loop
      vertex 2 0.20000000000000284 6.600000000000001
      vertex 2 0.15432771950677449 6.370389940580948
      vertex 2 1.2000000000000028 2.700000000000001
    endloop
  endfacet
  facet normal 1 0 0
    outer loop
      vertex 2 0.15432771950677449 6.370389940580948
      vertex 2 0.0242640687119291 6.175735931288074
      vertex 2 1.2000000000000028 2.700000000000001
    endloop
  endfacet
  facet normal 1 0 0
    outer loop
      vertex 2 0.0242640687119291 6.175735931288074
      vertex 2 -0.1703899405809466 6.04567228049323
      vertex 2 1.2000000000000028 2.700000000000001
    endloop
  endfacet
  facet normal 1 0 0
    outer loop
      vertex 2 -0.1703899405809466 6.04567228049323
      vertex 2 -0.3999999999999986 6.000000000000002
      vertex 2 1.2000000000000028 2.700000000000001
    endloop
  endfacet
  facet normal 1 0 0
    outer loop
      vertex 2 -0.3999999999999986 6.000000000000002
      vertex 2 -0.29999999999999716 2.700000000000001
      vertex 2 1.2000000000000028 2.700000000000001
    endloop
  endfacet
  facet normal 0 -1 0
    outer loop
      vertex -2 -0.3999999999999986 2.6900000000000013
      vertex 2 -0.3999999999999986 2.6900000000000013
      vertex 2 -0.3999999999999986 6.000000000000002
    endloop
  endfacet
  facet normal 1 0 0
    outer loop
      vertex 2 -0.3999999999999986 6.000000000000002
      vertex 2 -0.3999999999999986 2.6900000000000013
      vertex 2 -0.29999999999999716 2.700000000000001
    endloop
  endfacet
  facet normal 0 0 -1
    outer loop
      vertex -2 -0.3999999999999986 2.6900000000000013
      vertex 2 -0.29999999999999716 2.6900000000000013
      vertex 2 -0.3999999999999986 2.6900000000000013
    endloop
  endfacet
  facet normal 1 0 0
    outer loop
      vertex 2 -0.3999999999999986 2.6900000000000013
      vertex 2 -0.29999999999999716 2.6900000000000013
      vertex 2 -0.29999999999999716 2.700000000000001
    endloop
  endfacet
  facet normal -1 0 0
    outer loop
      vertex -2 0.0242640687119291 7.02426406871193
      vertex -2 0.15432771950677449 6.829610059419055
      vertex -2 0.0242640687119291 6.175735931288074
    endloop
  endfacet
  facet normal -1 0 0
    outer loop
      vertex -2 0.15432771950677449 6.829610059419055
      vertex -2 0.20000000000000284 6.600000000000001
      vertex -2 0.15432771950677449 6.370389940580948
    endloop
  endfacet
  facet normal -1 0 0
    outer loop
      vertex -2 0.15432771950677449 6.829610059419055
      vertex -2 0.15432771950677449 6.370389940580948
      vertex -2 0.0242640687119291 6.175735931288074
    endloop
  endfacet
  facet normal -1 0 0
    outer loop
      vertex -2 -0.1703899405809466 7.154327719506774
      vertex -2 0.0242640687119291 7.02426406871193
      vertex -2 -0.1703899405809466 6.04567228049323
    endloop
  endfacet
  facet normal -1 0 0
    outer loop
      vertex -2 0.0242640687119291 7.02426406871193
      vertex -2 0.0242640687119291 6.175735931288074
      vertex -2 -0.1703899405809466 6.04567228049323
    endloop
  endfacet
  facet normal -1 0 0
    outer loop
      vertex -2 -0.1703899405809466 7.154327719506774
      vertex -2 -0.3999999999999986 6.000000000000002
      vertex -2 -0.3999999999999986 7.200000000000001
    endloop
  endfacet
  facet normal -1 0 0
    outer loop
      vertex -2 -0.1703899405809466 7.154327719506774
      vertex -2 -0.1703899405809466 6.04567228049323
      vertex -2 -0.3999999999999986 6.000000000000002
    endloop
  endfacet
  facet normal -1 0 0
    outer loop
      vertex -2 -0.3999999999999986 7.200000000000001
      vertex -2 -0.6296100594190506 6.04567228049323
      vertex -2 -0.6296100594190506 7.154327719506774
    endloop
  endfacet
  facet normal -1 0 0
    outer loop
      vertex -2 -0.3999999999999986 7.200000000000001
      vertex -2 -0.3999999999999986 6.000000000000002
      vertex -2 -0.6296100594190506 6.04567228049323
    endloop
  endfacet
  facet normal -1 0 0
    outer loop
      vertex -2 -0.6296100594190506 7.154327719506774
      vertex -2 -0.8242640687119263 6.175735931288074
      vertex -2 -0.8242640687119263 7.02426406871193
    endloop
  endfacet
  facet normal -1 0 0
    outer loop
      vertex -2 -0.6296100594190506 7.154327719506774
      vertex -2 -0.6296100594190506 6.04567228049323
      vertex -2 -0.8242640687119263 6.175735931288074
    endloop
  endfacet
  facet normal -1 0 0
    outer loop
      vertex -2 -0.8242640687119263 7.02426406871193
      vertex -2 -0.9543277195067716 6.370389940580948
      vertex -2 -0.9543277195067716 6.829610059419055
    endloop
  endfacet
  facet normal -1 0 0
    outer loop
      vertex -2 -0.8242640687119263 7.02426406871193
      vertex -2 -0.8242640687119263 6.175735931288074
      vertex -2 -0.9543277195067716 6.370389940580948
    endloop
  endfacet
  facet normal -1 0 0
    outer loop
      vertex -2 -0.9543277195067716 6.829610059419055
      vertex -2 -0.9543277195067716 6.370389940580948
      vertex -2 -1 6.600000000000001
    endloop
  endfacet
  facet normal 8.011792682911457e-19 -0.19509032201612783 0.9807852804032305
    outer loop
      vertex -2 -0.3999999999999986 7.200000000000001
      vertex -2 -0.6296100594190506 7.154327719506774
      vertex 2 -0.6296100594190506 7.154327719506774
    endloop
  endfacet
  facet normal 1.561558484769913e-19 -0.5555702330196004 0.8314696123025465
    outer loop
      vertex -2 -0.6296100594190506 7.154327719506774
      vertex -2 -0.8242640687119263 7.02426406871193
      vertex 2 -0.8242640687119263 7.02426406871193
    endloop
  endfacet
  facet normal 0 -0.8314696123025418 0.5555702330196074
    outer loop
      vertex -2 -0.8242640687119263 7.02426406871193
      vertex -2 -0.9543277195067716 6.829610059419055
      vertex 2 -0.8242640687119263 7.02426406871193
    endloop
  endfacet
  facet normal 0 -0.9807852804032301 0.19509032201613002
    outer loop
      vertex -2 -0.9543277195067716 6.829610059419055
      vertex -2 -1 6.600000000000001
      vertex 2 -0.9543277195067716 6.829610059419055
    endloop
  endfacet
  facet normal 0 -0.9807852804032301 -0.19509032201613002
    outer loop
      vertex -2 -1 6.600000000000001
      vertex -2 -0.9543277195067716 6.370389940580948
      vertex 2 -1 6.600000000000001
    endloop
  endfacet
  facet normal 0 -0.1950903220161315 -0.9807852804032298
    outer loop
      vertex -2 -0.3999999999999986 6.000000000000002
      vertex 2 -0.3999999999999986 6.000000000000002
      vertex -2 -0.6296100594190506 6.04567228049323
    endloop
  endfacet
  facet normal 0 -0.5555702330196004 -0.8314696123025465
    outer loop
      vertex -2 -0.6296100594190506 6.04567228049323
      vertex 2 -0.6296100594190506 6.04567228049323
      vertex -2 -0.8242640687119263 6.175735931288074
    endloop
  endfacet
  facet normal -4.1647935348833027e-19 -0.8314696123025406 -0.5555702330196092
    outer loop
      vertex -2 -0.8242640687119263 6.175735931288074
      vertex 2 -0.9543277195067716 6.370389940580948
      vertex -2 -0.9543277195067716 6.370389940580948
    endloop
  endfacet
  facet normal 1 0 0
    outer loop
      vertex 2 0.0242640687119291 7.02426406871193
      vertex 2 0.15432771950677449 6.370389940580948
      vertex 2 0.15432771950677449 6.829610059419055
    endloop
  endfacet
  facet normal 1 0 0
    outer loop
      vertex 2 0.15432771950677449 6.829610059419055
      vertex 2 0.15432771950677449 6.370389940580948
      vertex 2 0.20000000000000284 6.600000000000001
    endloop
  endfacet
  facet normal 1 0 0
    outer loop
      vertex 2 0.0242640687119291 7.02426406871193
      vertex 2 0.0242640687119291 6.175735931288074
      vertex 2 0.15432771950677449 6.370389940580948
    endloop
  endfacet
  facet normal 1 0 0
    outer loop
      vertex 2 -0.1703899405809466 7.154327719506774
      vertex 2 0.0242640687119291 6.175735931288074
      vertex 2 0.0242640687119291 7.02426406871193
    endloop
  endfacet
  facet normal 1 0 0
    outer loop
      vertex 2 -0.1703899405809466 7.154327719506774
      vertex 2 -0.1703899405809466 6.04567228049323
      vertex 2 0.0242640687119291 6.175735931288074
    endloop
  endfacet
  facet normal 0 -0.19509032201612783 0.9807852804032305
    outer loop
      vertex -2 -0.3999999999999986 7.200000000000001
      vertex 2 -0.6296100594190506 7.154327719506774
      vertex 2 -0.3999999999999986 7.200000000000001
    endloop
  endfacet
  facet normal 0 -0.5555702330196004 0.8314696123025465
    outer loop
      vertex -2 -0.6296100594190506 7.154327719506774
      vertex 2 -0.8242640687119263 7.02426406871193
      vertex 2 -0.6296100594190506 7.154327719506774
    endloop
  endfacet
  facet normal 0 -0.8314696123025418 0.5555702330196074
    outer loop
      vertex -2 -0.9543277195067716 6.829610059419055
      vertex 2 -0.9543277195067716 6.829610059419055
      vertex 2 -0.8242640687119263 7.02426406871193
    endloop
  endfacet
  facet normal 0 -0.9807852804032301 0.19509032201613002
    outer loop
      vertex -2 -1 6.600000000000001
      vertex 2 -1 6.600000000000001
      vertex 2 -0.9543277195067716 6.829610059419055
    endloop
  endfacet
  facet normal 0 -0.9807852804032301 -0.19509032201613002
    outer loop
      vertex -2 -0.9543277195067716 6.370389940580948
      vertex 2 -0.9543277195067716 6.370389940580948
      vertex 2 -1 6.600000000000001
    endloop
  endfacet
  facet normal 1 0 0
    outer loop
      vertex 2 -0.1703899405809466 7.154327719506774
      vertex 2 -0.3999999999999986 7.200000000000001
      vertex 2 -0.1703899405809466 6.04567228049323
    endloop
  endfacet
  facet normal 1 0 0
    outer loop
      vertex 2 -0.1703899405809466 6.04567228049323
      vertex 2 -0.3999999999999986 7.200000000000001
      vertex 2 -0.3999999999999986 6.000000000000002
    endloop
  endfacet
  facet normal 1 0 0
    outer loop
      vertex 2 -0.3999999999999986 7.200000000000001
      vertex 2 -0.6296100594190506 7.154327719506774
      vertex 2 -0.3999999999999986 6.000000000000002
    endloop
  endfacet
  facet normal 1 0 0
    outer loop
      vertex 2 -0.6296100594190506 7.154327719506774
      vertex 2 -0.6296100594190506 6.04567228049323
      vertex 2 -0.3999999999999986 6.000000000000002
    endloop
  endfacet
  facet normal 1 0 0
    outer loop
      vertex 2 -0.6296100594190506 7.154327719506774
      vertex 2 -0.8242640687119263 7.02426406871193
      vertex 2 -0.6296100594190506 6.04567228049323
    endloop
  endfacet
  facet normal 1 0 0
    outer loop
      vertex 2 -0.8242640687119263 7.02426406871193
      vertex 2 -0.8242640687119263 6.175735931288074
      vertex 2 -0.6296100594190506 6.04567228049323
    endloop
  endfacet
  facet normal 1 0 0
    outer loop
      vertex 2 -0.8242640687119263 7.02426406871193
      vertex 2 -0.9543277195067716 6.829610059419055
      vertex 2 -0.8242640687119263 6.175735931288074
    endloop
  endfacet
  facet normal 1 0 0
    outer loop
      vertex 2 -0.9543277195067716 6.829610059419055
      vertex 2 -1 6.600000000000001
      vertex 2 -0.9543277195067716 6.370389940580948
    endloop
  endfacet
  facet normal 1 0 0
    outer loop
      vertex 2 -0.9543277195067716 6.829610059419055
      vertex 2 -0.9543277195067716 6.370389940580948
      vertex 2 -0.8242640687119263 6.175735931288074
    endloop
  endfacet
  facet normal 0 -0.1950903220161315 -0.9807852804032298
    outer loop
      vertex -2 -0.6296100594190506 6.04567228049323
      vertex 2 -0.3999999999999986 6.000000000000002
      vertex 2 -0.6296100594190506 6.04567228049323
    endloop
  endfacet
  facet normal 0 -0.5555702330196004 -0.8314696123025465
    outer loop
      vertex -2 -0.8242640687119263 6.175735931288074
      vertex 2 -0.6296100594190506 6.04567228049323
      vertex 2 -0.8242640687119263 6.175735931288074
    endloop
  endfacet
  facet normal 0 -0.8314696123025406 -0.5555702330196092
    outer loop
      vertex -2 -0.8242640687119263 6.175735931288074
      vertex 2 -0.8242640687119263 6.175735931288074
      vertex 2 -0.9543277195067716 6.370389940580948
    endloop
  endfacet
endsolid OpenSCAD_Model
