%TF.GenerationSoftware,KiCad,Pcbnew,9.99.0-5542-g9c1654c496*%
%TF.CreationDate,2026-02-21T09:19:07+00:00*%
%TF.ProjectId,esp32-emu-turbo,65737033-322d-4656-9d75-2d747572626f,rev?*%
%TF.SameCoordinates,Original*%
%TF.FileFunction,Drillmap*%
%TF.FilePolarity,Positive*%
%FSLAX45Y45*%
G04 Gerber Fmt 4.5, Leading zero omitted, Abs format (unit mm)*
G04 Created by KiCad (PCBNEW 9.99.0-5542-g9c1654c496) date 2026-02-21 09:19:07*
%MOMM*%
%LPD*%
G01*
G04 APERTURE LIST*
%ADD10C,0.050000*%
%ADD11C,0.200000*%
%ADD12C,0.100000*%
%ADD13C,0.250000*%
G04 APERTURE END LIST*
D10*
X0Y-600000D02*
G75*
G02*
X600000Y0I600000J0D01*
G01*
X0Y-6900000D02*
X0Y-600000D01*
X600000Y0D02*
X15400000Y0D01*
X600000Y-7500000D02*
G75*
G02*
X0Y-6900000I0J600000D01*
G01*
X12550000Y-2350000D02*
X12850000Y-2350000D01*
X12550000Y-4750000D02*
X12550000Y-2350000D01*
X12850000Y-2350000D02*
X12850000Y-4750000D01*
X12850000Y-4750000D02*
X12550000Y-4750000D01*
X15400000Y0D02*
G75*
G02*
X16000000Y-600000I0J-600000D01*
G01*
X15400000Y-7500000D02*
X600000Y-7500000D01*
X16000000Y-600000D02*
X16000000Y-6900000D01*
X16000000Y-6900000D02*
G75*
G02*
X15400000Y-7500000I-600000J0D01*
G01*
D11*
D12*
X1085000Y-5435000D02*
X1115000Y-5465000D01*
X1115000Y-5435000D02*
X1085000Y-5465000D01*
X1085000Y-5685000D02*
X1115000Y-5715000D01*
X1115000Y-5685000D02*
X1085000Y-5715000D01*
X1185000Y-3235000D02*
X1215000Y-3265000D01*
X1215000Y-3235000D02*
X1185000Y-3265000D01*
X1185000Y-4985000D02*
X1215000Y-5015000D01*
X1215000Y-4985000D02*
X1185000Y-5015000D01*
X1485000Y-5785000D02*
X1515000Y-5815000D01*
X1515000Y-5785000D02*
X1485000Y-5815000D01*
X2035000Y-3135000D02*
X2065000Y-3165000D01*
X2065000Y-3135000D02*
X2035000Y-3165000D01*
X2085000Y-4135000D02*
X2115000Y-4165000D01*
X2115000Y-4135000D02*
X2085000Y-4165000D01*
X2085000Y-5085000D02*
X2115000Y-5115000D01*
X2115000Y-5085000D02*
X2085000Y-5115000D01*
X2185000Y-2335000D02*
X2215000Y-2365000D01*
X2215000Y-2335000D02*
X2185000Y-2365000D01*
X2185000Y-5185000D02*
X2215000Y-5215000D01*
X2215000Y-5185000D02*
X2185000Y-5215000D01*
X2385000Y-6535000D02*
X2415000Y-6565000D01*
X2415000Y-6535000D02*
X2385000Y-6565000D01*
X2585000Y-6535000D02*
X2615000Y-6565000D01*
X2615000Y-6535000D02*
X2585000Y-6565000D01*
X2985000Y-2735000D02*
X3015000Y-2765000D01*
X3015000Y-2735000D02*
X2985000Y-2765000D01*
X2985000Y-2862000D02*
X3015000Y-2892000D01*
X3015000Y-2862000D02*
X2985000Y-2892000D01*
X2985000Y-2989000D02*
X3015000Y-3019000D01*
X3015000Y-2989000D02*
X2985000Y-3019000D01*
X2985000Y-3235000D02*
X3015000Y-3265000D01*
X3015000Y-3235000D02*
X2985000Y-3265000D01*
X2985000Y-4885000D02*
X3015000Y-4915000D01*
X3015000Y-4885000D02*
X2985000Y-4915000D01*
X3085000Y-5285000D02*
X3115000Y-5315000D01*
X3115000Y-5285000D02*
X3085000Y-5315000D01*
X3085000Y-5435000D02*
X3115000Y-5465000D01*
X3115000Y-5435000D02*
X3085000Y-5465000D01*
X3085000Y-6535000D02*
X3115000Y-6565000D01*
X3115000Y-6535000D02*
X3085000Y-6565000D01*
X3285000Y-6535000D02*
X3315000Y-6565000D01*
X3315000Y-6535000D02*
X3285000Y-6565000D01*
X3475000Y-2785000D02*
X3505000Y-2815000D01*
X3505000Y-2785000D02*
X3475000Y-2815000D01*
X3475000Y-3135000D02*
X3505000Y-3165000D01*
X3505000Y-3135000D02*
X3475000Y-3165000D01*
X3935000Y-2785000D02*
X3965000Y-2815000D01*
X3965000Y-2785000D02*
X3935000Y-2815000D01*
X3985000Y-4535000D02*
X4015000Y-4565000D01*
X4015000Y-4535000D02*
X3985000Y-4565000D01*
X4190000Y-4585000D02*
X4220000Y-4615000D01*
X4220000Y-4585000D02*
X4190000Y-4615000D01*
X4190000Y-5185000D02*
X4220000Y-5215000D01*
X4220000Y-5185000D02*
X4190000Y-5215000D01*
X4690000Y-4585000D02*
X4720000Y-4615000D01*
X4720000Y-4585000D02*
X4690000Y-4615000D01*
X4690000Y-5185000D02*
X4720000Y-5215000D01*
X4720000Y-5185000D02*
X4690000Y-5215000D01*
X5190000Y-4585000D02*
X5220000Y-4615000D01*
X5220000Y-4585000D02*
X5190000Y-4615000D01*
X5190000Y-5185000D02*
X5220000Y-5215000D01*
X5220000Y-5185000D02*
X5190000Y-5215000D01*
X5485000Y-1585000D02*
X5515000Y-1615000D01*
X5515000Y-1585000D02*
X5485000Y-1615000D01*
X5485000Y-3878000D02*
X5515000Y-3908000D01*
X5515000Y-3878000D02*
X5485000Y-3908000D01*
X5585000Y-1635000D02*
X5615000Y-1665000D01*
X5615000Y-1635000D02*
X5585000Y-1665000D01*
X5585000Y-3751000D02*
X5615000Y-3781000D01*
X5615000Y-3751000D02*
X5585000Y-3781000D01*
X5690000Y-4585000D02*
X5720000Y-4615000D01*
X5720000Y-4585000D02*
X5690000Y-4615000D01*
X5690000Y-5185000D02*
X5720000Y-5215000D01*
X5720000Y-5185000D02*
X5690000Y-5215000D01*
X5785000Y-985000D02*
X5815000Y-1015000D01*
X5815000Y-985000D02*
X5785000Y-1015000D01*
X5785000Y-2100000D02*
X5815000Y-2130000D01*
X5815000Y-2100000D02*
X5785000Y-2130000D01*
X5885000Y-1035000D02*
X5915000Y-1065000D01*
X5915000Y-1035000D02*
X5885000Y-1065000D01*
X5885000Y-2227000D02*
X5915000Y-2257000D01*
X5915000Y-2227000D02*
X5885000Y-2257000D01*
X5985000Y-1085000D02*
X6015000Y-1115000D01*
X6015000Y-1085000D02*
X5985000Y-1115000D01*
X5985000Y-2354000D02*
X6015000Y-2384000D01*
X6015000Y-2354000D02*
X5985000Y-2384000D01*
X6085000Y-1135000D02*
X6115000Y-1165000D01*
X6115000Y-1135000D02*
X6085000Y-1165000D01*
X6085000Y-2481000D02*
X6115000Y-2511000D01*
X6115000Y-2481000D02*
X6085000Y-2511000D01*
X6185000Y-1185000D02*
X6215000Y-1215000D01*
X6215000Y-1185000D02*
X6185000Y-1215000D01*
X6185000Y-3243000D02*
X6215000Y-3273000D01*
X6215000Y-3243000D02*
X6185000Y-3273000D01*
X6190000Y-4585000D02*
X6220000Y-4615000D01*
X6220000Y-4585000D02*
X6190000Y-4615000D01*
X6190000Y-5185000D02*
X6220000Y-5215000D01*
X6220000Y-5185000D02*
X6190000Y-5215000D01*
X6285000Y-1235000D02*
X6315000Y-1265000D01*
X6315000Y-1235000D02*
X6285000Y-1265000D01*
X6285000Y-4005000D02*
X6315000Y-4035000D01*
X6315000Y-4005000D02*
X6285000Y-4035000D01*
X6385000Y-1285000D02*
X6415000Y-1315000D01*
X6415000Y-1285000D02*
X6385000Y-1315000D01*
X6385000Y-4132000D02*
X6415000Y-4162000D01*
X6415000Y-4132000D02*
X6385000Y-4162000D01*
X6485000Y-1335000D02*
X6515000Y-1365000D01*
X6515000Y-1335000D02*
X6485000Y-1365000D01*
X6485000Y-4259000D02*
X6515000Y-4289000D01*
X6515000Y-4259000D02*
X6485000Y-4289000D01*
X6690000Y-4585000D02*
X6720000Y-4615000D01*
X6720000Y-4585000D02*
X6690000Y-4615000D01*
X6690000Y-5185000D02*
X6720000Y-5215000D01*
X6720000Y-5185000D02*
X6690000Y-5215000D01*
X6735000Y-3116000D02*
X6765000Y-3146000D01*
X6765000Y-3116000D02*
X6735000Y-3146000D01*
X6735000Y-5685000D02*
X6765000Y-5715000D01*
X6765000Y-5685000D02*
X6735000Y-5715000D01*
X6935000Y-2100000D02*
X6965000Y-2130000D01*
X6965000Y-2100000D02*
X6935000Y-2130000D01*
X6935000Y-2227000D02*
X6965000Y-2257000D01*
X6965000Y-2227000D02*
X6935000Y-2257000D01*
X6935000Y-2354000D02*
X6965000Y-2384000D01*
X6965000Y-2354000D02*
X6935000Y-2384000D01*
X6935000Y-2481000D02*
X6965000Y-2511000D01*
X6965000Y-2481000D02*
X6935000Y-2511000D01*
X6935000Y-2735000D02*
X6965000Y-2765000D01*
X6965000Y-2735000D02*
X6935000Y-2765000D01*
X6935000Y-2862000D02*
X6965000Y-2892000D01*
X6965000Y-2862000D02*
X6935000Y-2892000D01*
X6935000Y-2989000D02*
X6965000Y-3019000D01*
X6965000Y-2989000D02*
X6935000Y-3019000D01*
X6935000Y-3243000D02*
X6965000Y-3273000D01*
X6965000Y-3243000D02*
X6935000Y-3273000D01*
X6935000Y-3751000D02*
X6965000Y-3781000D01*
X6965000Y-3751000D02*
X6935000Y-3781000D01*
X6935000Y-3878000D02*
X6965000Y-3908000D01*
X6965000Y-3878000D02*
X6935000Y-3908000D01*
X6935000Y-4005000D02*
X6965000Y-4035000D01*
X6965000Y-4005000D02*
X6935000Y-4035000D01*
X6935000Y-4132000D02*
X6965000Y-4162000D01*
X6965000Y-4132000D02*
X6935000Y-4162000D01*
X6935000Y-4259000D02*
X6965000Y-4289000D01*
X6965000Y-4259000D02*
X6935000Y-4289000D01*
X6985000Y-4185000D02*
X7015000Y-4215000D01*
X7015000Y-4185000D02*
X6985000Y-4215000D01*
X7085000Y-3116000D02*
X7115000Y-3146000D01*
X7115000Y-3116000D02*
X7085000Y-3146000D01*
X7190000Y-4585000D02*
X7220000Y-4615000D01*
X7220000Y-4585000D02*
X7190000Y-4615000D01*
X7190000Y-5185000D02*
X7220000Y-5215000D01*
X7220000Y-5185000D02*
X7190000Y-5215000D01*
X7485000Y-3624000D02*
X7515000Y-3654000D01*
X7515000Y-3624000D02*
X7485000Y-3654000D01*
X7485000Y-6735000D02*
X7515000Y-6765000D01*
X7515000Y-6735000D02*
X7485000Y-6765000D01*
X7635000Y-3497000D02*
X7665000Y-3527000D01*
X7665000Y-3497000D02*
X7635000Y-3527000D01*
X7635000Y-6835000D02*
X7665000Y-6865000D01*
X7665000Y-6835000D02*
X7635000Y-6865000D01*
X7685000Y-5735000D02*
X7715000Y-5765000D01*
X7715000Y-5735000D02*
X7685000Y-5765000D01*
X7685000Y-6985000D02*
X7715000Y-7015000D01*
X7715000Y-6985000D02*
X7685000Y-7015000D01*
X7690000Y-4585000D02*
X7720000Y-4615000D01*
X7720000Y-4585000D02*
X7690000Y-4615000D01*
X7690000Y-5185000D02*
X7720000Y-5215000D01*
X7720000Y-5185000D02*
X7690000Y-5215000D01*
X7935000Y-6735000D02*
X7965000Y-6765000D01*
X7965000Y-6735000D02*
X7935000Y-6765000D01*
X7985000Y-4135000D02*
X8015000Y-4165000D01*
X8015000Y-4135000D02*
X7985000Y-4165000D01*
X7985000Y-4535000D02*
X8015000Y-4565000D01*
X8015000Y-4535000D02*
X7985000Y-4565000D01*
X8035000Y-6835000D02*
X8065000Y-6865000D01*
X8065000Y-6835000D02*
X8035000Y-6865000D01*
X8190000Y-4585000D02*
X8220000Y-4615000D01*
X8220000Y-4585000D02*
X8190000Y-4615000D01*
X8190000Y-5185000D02*
X8220000Y-5215000D01*
X8220000Y-5185000D02*
X8190000Y-5215000D01*
X8285000Y-6985000D02*
X8315000Y-7015000D01*
X8315000Y-6985000D02*
X8285000Y-7015000D01*
X8485000Y-3985000D02*
X8515000Y-4015000D01*
X8515000Y-3985000D02*
X8485000Y-4015000D01*
X8690000Y-4585000D02*
X8720000Y-4615000D01*
X8720000Y-4585000D02*
X8690000Y-4615000D01*
X8690000Y-5185000D02*
X8720000Y-5215000D01*
X8720000Y-5185000D02*
X8690000Y-5215000D01*
X8885000Y-2481000D02*
X8915000Y-2511000D01*
X8915000Y-2481000D02*
X8885000Y-2511000D01*
X8885000Y-2608000D02*
X8915000Y-2638000D01*
X8915000Y-2608000D02*
X8885000Y-2638000D01*
X8885000Y-2735000D02*
X8915000Y-2765000D01*
X8915000Y-2735000D02*
X8885000Y-2765000D01*
X8885000Y-2989000D02*
X8915000Y-3019000D01*
X8915000Y-2989000D02*
X8885000Y-3019000D01*
X8885000Y-3751000D02*
X8915000Y-3781000D01*
X8915000Y-3751000D02*
X8885000Y-3781000D01*
X8885000Y-3878000D02*
X8915000Y-3908000D01*
X8915000Y-3878000D02*
X8885000Y-3908000D01*
X8885000Y-4005000D02*
X8915000Y-4035000D01*
X8915000Y-4005000D02*
X8885000Y-4035000D01*
X8885000Y-4259000D02*
X8915000Y-4289000D01*
X8915000Y-4259000D02*
X8885000Y-4289000D01*
X8885000Y-4386000D02*
X8915000Y-4416000D01*
X8915000Y-4386000D02*
X8885000Y-4416000D01*
X9035000Y-2100000D02*
X9065000Y-2130000D01*
X9065000Y-2100000D02*
X9035000Y-2130000D01*
X9035000Y-2227000D02*
X9065000Y-2257000D01*
X9065000Y-2227000D02*
X9035000Y-2257000D01*
X9035000Y-2354000D02*
X9065000Y-2384000D01*
X9065000Y-2354000D02*
X9035000Y-2384000D01*
X9035000Y-2862000D02*
X9065000Y-2892000D01*
X9065000Y-2862000D02*
X9035000Y-2892000D01*
X9035000Y-4386000D02*
X9065000Y-4416000D01*
X9065000Y-4386000D02*
X9035000Y-4416000D01*
X9035000Y-4785000D02*
X9065000Y-4815000D01*
X9065000Y-4785000D02*
X9035000Y-4815000D01*
X9085000Y-3243000D02*
X9115000Y-3273000D01*
X9115000Y-3243000D02*
X9085000Y-3273000D01*
X9135000Y-3370000D02*
X9165000Y-3400000D01*
X9165000Y-3370000D02*
X9135000Y-3400000D01*
X9135000Y-4259000D02*
X9165000Y-4289000D01*
X9165000Y-4259000D02*
X9135000Y-4289000D01*
X9135000Y-4885000D02*
X9165000Y-4915000D01*
X9165000Y-4885000D02*
X9135000Y-4915000D01*
X9185000Y-3497000D02*
X9215000Y-3527000D01*
X9215000Y-3497000D02*
X9185000Y-3527000D01*
X9190000Y-4585000D02*
X9220000Y-4615000D01*
X9220000Y-4585000D02*
X9190000Y-4615000D01*
X9190000Y-5185000D02*
X9220000Y-5215000D01*
X9220000Y-5185000D02*
X9190000Y-5215000D01*
X9235000Y-3624000D02*
X9265000Y-3654000D01*
X9265000Y-3624000D02*
X9235000Y-3654000D01*
X9235000Y-4005000D02*
X9265000Y-4035000D01*
X9265000Y-4005000D02*
X9235000Y-4035000D01*
X9235000Y-4985000D02*
X9265000Y-5015000D01*
X9265000Y-4985000D02*
X9235000Y-5015000D01*
X9285000Y-2235000D02*
X9315000Y-2265000D01*
X9315000Y-2235000D02*
X9285000Y-2265000D01*
X9335000Y-3878000D02*
X9365000Y-3908000D01*
X9365000Y-3878000D02*
X9335000Y-3908000D01*
X9335000Y-5085000D02*
X9365000Y-5115000D01*
X9365000Y-5085000D02*
X9335000Y-5115000D01*
X9435000Y-3751000D02*
X9465000Y-3781000D01*
X9465000Y-3751000D02*
X9435000Y-3781000D01*
X9435000Y-5185000D02*
X9465000Y-5215000D01*
X9465000Y-5185000D02*
X9435000Y-5215000D01*
X9535000Y-2989000D02*
X9565000Y-3019000D01*
X9565000Y-2989000D02*
X9535000Y-3019000D01*
X9535000Y-5285000D02*
X9565000Y-5315000D01*
X9565000Y-5285000D02*
X9535000Y-5315000D01*
X9635000Y-2735000D02*
X9665000Y-2765000D01*
X9665000Y-2735000D02*
X9635000Y-2765000D01*
X9635000Y-5385000D02*
X9665000Y-5415000D01*
X9665000Y-5385000D02*
X9635000Y-5415000D01*
X9690000Y-4585000D02*
X9720000Y-4615000D01*
X9720000Y-4585000D02*
X9690000Y-4615000D01*
X9690000Y-5185000D02*
X9720000Y-5215000D01*
X9720000Y-5185000D02*
X9690000Y-5215000D01*
X9735000Y-2608000D02*
X9765000Y-2638000D01*
X9765000Y-2608000D02*
X9735000Y-2638000D01*
X9735000Y-5485000D02*
X9765000Y-5515000D01*
X9765000Y-5485000D02*
X9735000Y-5515000D01*
X9785000Y-4385000D02*
X9815000Y-4415000D01*
X9815000Y-4385000D02*
X9785000Y-4415000D01*
X9835000Y-2481000D02*
X9865000Y-2511000D01*
X9865000Y-2481000D02*
X9835000Y-2511000D01*
X9835000Y-5585000D02*
X9865000Y-5615000D01*
X9865000Y-5585000D02*
X9835000Y-5615000D01*
X9985000Y-1435000D02*
X10015000Y-1465000D01*
X10015000Y-1435000D02*
X9985000Y-1465000D01*
X9985000Y-2227000D02*
X10015000Y-2257000D01*
X10015000Y-2227000D02*
X9985000Y-2257000D01*
X10035000Y-3116000D02*
X10065000Y-3146000D01*
X10065000Y-3116000D02*
X10035000Y-3146000D01*
X10035000Y-5785000D02*
X10065000Y-5815000D01*
X10065000Y-5785000D02*
X10035000Y-5815000D01*
X10085000Y-1485000D02*
X10115000Y-1515000D01*
X10115000Y-1485000D02*
X10085000Y-1515000D01*
X10085000Y-2100000D02*
X10115000Y-2130000D01*
X10115000Y-2100000D02*
X10085000Y-2130000D01*
X10185000Y-1535000D02*
X10215000Y-1565000D01*
X10215000Y-1535000D02*
X10185000Y-1565000D01*
X10185000Y-2354000D02*
X10215000Y-2384000D01*
X10215000Y-2354000D02*
X10185000Y-2384000D01*
X10190000Y-4585000D02*
X10220000Y-4615000D01*
X10220000Y-4585000D02*
X10190000Y-4615000D01*
X10190000Y-5185000D02*
X10220000Y-5215000D01*
X10220000Y-5185000D02*
X10190000Y-5215000D01*
X10285000Y-1685000D02*
X10315000Y-1715000D01*
X10315000Y-1685000D02*
X10285000Y-1715000D01*
X10285000Y-2862000D02*
X10315000Y-2892000D01*
X10315000Y-2862000D02*
X10285000Y-2892000D01*
X10585000Y-4535000D02*
X10615000Y-4565000D01*
X10615000Y-4535000D02*
X10585000Y-4565000D01*
X10685000Y-6985000D02*
X10715000Y-7015000D01*
X10715000Y-6985000D02*
X10685000Y-7015000D01*
X10985000Y-3285000D02*
X11015000Y-3315000D01*
X11015000Y-3285000D02*
X10985000Y-3315000D01*
X10985000Y-4035000D02*
X11015000Y-4065000D01*
X11015000Y-4035000D02*
X10985000Y-4065000D01*
X10985000Y-5035000D02*
X11015000Y-5065000D01*
X11015000Y-5035000D02*
X10985000Y-5065000D01*
X11185000Y-3624000D02*
X11215000Y-3654000D01*
X11215000Y-3624000D02*
X11185000Y-3654000D01*
X11185000Y-5705000D02*
X11215000Y-5735000D01*
X11215000Y-5705000D02*
X11185000Y-5735000D01*
X11285000Y-4535000D02*
X11315000Y-4565000D01*
X11315000Y-4535000D02*
X11285000Y-4565000D01*
X11385000Y-3497000D02*
X11415000Y-3527000D01*
X11415000Y-3497000D02*
X11385000Y-3527000D01*
X11385000Y-5805000D02*
X11415000Y-5835000D01*
X11415000Y-5805000D02*
X11385000Y-5835000D01*
X11485000Y-5435000D02*
X11515000Y-5465000D01*
X11515000Y-5435000D02*
X11485000Y-5465000D01*
X11585000Y-3535000D02*
X11615000Y-3565000D01*
X11615000Y-3535000D02*
X11585000Y-3565000D01*
X11785000Y-3370000D02*
X11815000Y-3400000D01*
X11815000Y-3370000D02*
X11785000Y-3400000D01*
X11785000Y-5905000D02*
X11815000Y-5935000D01*
X11815000Y-5905000D02*
X11785000Y-5935000D01*
X11985000Y-3243000D02*
X12015000Y-3273000D01*
X12015000Y-3243000D02*
X11985000Y-3273000D01*
X11985000Y-6005000D02*
X12015000Y-6035000D01*
X12015000Y-6005000D02*
X11985000Y-6035000D01*
X12185000Y-5535000D02*
X12215000Y-5565000D01*
X12215000Y-5535000D02*
X12185000Y-5565000D01*
X12285000Y-4385000D02*
X12315000Y-4415000D01*
X12315000Y-4385000D02*
X12285000Y-4415000D01*
X12485000Y-4835000D02*
X12515000Y-4865000D01*
X12515000Y-4835000D02*
X12485000Y-4865000D01*
X12685000Y-5735000D02*
X12715000Y-5765000D01*
X12715000Y-5735000D02*
X12685000Y-5765000D01*
X12935000Y-985000D02*
X12965000Y-1015000D01*
X12965000Y-985000D02*
X12935000Y-1015000D01*
X12935000Y-3060000D02*
X12965000Y-3090000D01*
X12965000Y-3060000D02*
X12935000Y-3090000D01*
X12975000Y-1035000D02*
X13005000Y-1065000D01*
X13005000Y-1035000D02*
X12975000Y-1065000D01*
X12975000Y-3110000D02*
X13005000Y-3140000D01*
X13005000Y-3110000D02*
X12975000Y-3140000D01*
X12985000Y-3235000D02*
X13015000Y-3265000D01*
X13015000Y-3235000D02*
X12985000Y-3265000D01*
X12985000Y-5585000D02*
X13015000Y-5615000D01*
X13015000Y-5585000D02*
X12985000Y-5615000D01*
X13015000Y-1085000D02*
X13045000Y-1115000D01*
X13045000Y-1085000D02*
X13015000Y-1115000D01*
X13015000Y-3160000D02*
X13045000Y-3190000D01*
X13045000Y-3160000D02*
X13015000Y-3190000D01*
X13055000Y-1135000D02*
X13085000Y-1165000D01*
X13085000Y-1135000D02*
X13055000Y-1165000D01*
X13055000Y-3210000D02*
X13085000Y-3240000D01*
X13085000Y-3210000D02*
X13055000Y-3240000D01*
X13095000Y-1185000D02*
X13125000Y-1215000D01*
X13125000Y-1185000D02*
X13095000Y-1215000D01*
X13095000Y-3260000D02*
X13125000Y-3290000D01*
X13125000Y-3260000D02*
X13095000Y-3290000D01*
X13135000Y-1235000D02*
X13165000Y-1265000D01*
X13165000Y-1235000D02*
X13135000Y-1265000D01*
X13135000Y-3310000D02*
X13165000Y-3340000D01*
X13165000Y-3310000D02*
X13135000Y-3340000D01*
X13175000Y-1285000D02*
X13205000Y-1315000D01*
X13205000Y-1285000D02*
X13175000Y-1315000D01*
X13175000Y-3360000D02*
X13205000Y-3390000D01*
X13205000Y-3360000D02*
X13175000Y-3390000D01*
X13215000Y-1335000D02*
X13245000Y-1365000D01*
X13245000Y-1335000D02*
X13215000Y-1365000D01*
X13215000Y-3410000D02*
X13245000Y-3440000D01*
X13245000Y-3410000D02*
X13215000Y-3440000D01*
X13255000Y-1435000D02*
X13285000Y-1465000D01*
X13285000Y-1435000D02*
X13255000Y-1465000D01*
X13255000Y-2810000D02*
X13285000Y-2840000D01*
X13285000Y-2810000D02*
X13255000Y-2840000D01*
X13295000Y-1485000D02*
X13325000Y-1515000D01*
X13325000Y-1485000D02*
X13295000Y-1515000D01*
X13295000Y-2860000D02*
X13325000Y-2890000D01*
X13325000Y-2860000D02*
X13295000Y-2890000D01*
X13335000Y-1535000D02*
X13365000Y-1565000D01*
X13365000Y-1535000D02*
X13335000Y-1565000D01*
X13335000Y-2910000D02*
X13365000Y-2940000D01*
X13365000Y-2910000D02*
X13335000Y-2940000D01*
X13375000Y-1585000D02*
X13405000Y-1615000D01*
X13405000Y-1585000D02*
X13375000Y-1615000D01*
X13375000Y-2960000D02*
X13405000Y-2990000D01*
X13405000Y-2960000D02*
X13375000Y-2990000D01*
X13415000Y-1635000D02*
X13445000Y-1665000D01*
X13445000Y-1635000D02*
X13415000Y-1665000D01*
X13415000Y-3010000D02*
X13445000Y-3040000D01*
X13445000Y-3010000D02*
X13415000Y-3040000D01*
X13455000Y-1685000D02*
X13485000Y-1715000D01*
X13485000Y-1685000D02*
X13455000Y-1715000D01*
X13455000Y-2660000D02*
X13485000Y-2690000D01*
X13485000Y-2660000D02*
X13455000Y-2690000D01*
X13655000Y-5905000D02*
X13685000Y-5935000D01*
X13685000Y-5905000D02*
X13655000Y-5935000D01*
X13765000Y-5805000D02*
X13795000Y-5835000D01*
X13795000Y-5805000D02*
X13765000Y-5835000D01*
X13875000Y-5705000D02*
X13905000Y-5735000D01*
X13905000Y-5705000D02*
X13875000Y-5735000D01*
X13985000Y-2235000D02*
X14015000Y-2265000D01*
X14015000Y-2235000D02*
X13985000Y-2265000D01*
X13985000Y-4785000D02*
X14015000Y-4815000D01*
X14015000Y-4785000D02*
X13985000Y-4815000D01*
X14085000Y-4235000D02*
X14115000Y-4265000D01*
X14115000Y-4235000D02*
X14085000Y-4265000D01*
X14085000Y-5485000D02*
X14115000Y-5515000D01*
X14115000Y-5485000D02*
X14085000Y-5515000D01*
X14985000Y-3235000D02*
X15015000Y-3265000D01*
X15015000Y-3235000D02*
X14985000Y-3265000D01*
X14985000Y-5385000D02*
X15015000Y-5415000D01*
X15015000Y-5385000D02*
X14985000Y-5415000D01*
X7600500Y-6889500D02*
G75*
G02*
X7535500Y-6889500I-32500J0D01*
G01*
X7535500Y-6889500D02*
G75*
G02*
X7600500Y-6889500I32500J0D01*
G01*
X7600500Y-7307500D02*
G75*
G02*
X7535500Y-7307500I-32500J0D01*
G01*
X7535500Y-7307500D02*
G75*
G02*
X7600500Y-7307500I32500J0D01*
G01*
X8464500Y-6889500D02*
G75*
G02*
X8399500Y-6889500I-32500J0D01*
G01*
X8399500Y-6889500D02*
G75*
G02*
X8464500Y-6889500I32500J0D01*
G01*
X8464500Y-7307500D02*
G75*
G02*
X8399500Y-7307500I-32500J0D01*
G01*
X8399500Y-7307500D02*
G75*
G02*
X8464500Y-7307500I32500J0D01*
G01*
X7900000Y-5712500D02*
X7900000Y-5787500D01*
X7862500Y-5750000D02*
X7937500Y-5750000D01*
X8100000Y-5712500D02*
X8100000Y-5787500D01*
X8062500Y-5750000D02*
X8137500Y-5750000D01*
D13*
X1088389Y-788389D02*
X1088389Y-611611D01*
X911611Y-611611D01*
X911611Y-788389D01*
X1088389Y-788389D01*
X1088389Y-6888389D02*
X1088389Y-6711611D01*
X911611Y-6711611D01*
X911611Y-6888389D01*
X1088389Y-6888389D01*
X5588389Y-3838389D02*
X5588389Y-3661611D01*
X5411611Y-3661611D01*
X5411611Y-3838389D01*
X5588389Y-3838389D01*
X10588389Y-3838389D02*
X10588389Y-3661611D01*
X10411611Y-3661611D01*
X10411611Y-3838389D01*
X10588389Y-3838389D01*
X15088389Y-788389D02*
X15088389Y-611611D01*
X14911611Y-611611D01*
X14911611Y-788389D01*
X15088389Y-788389D01*
X15088389Y-6888389D02*
X15088389Y-6711611D01*
X14911611Y-6711611D01*
X14911611Y-6888389D01*
X15088389Y-6888389D01*
D11*
X258277Y-7813984D02*
X258277Y-7613984D01*
X258277Y-7613984D02*
X305896Y-7613984D01*
X305896Y-7613984D02*
X334467Y-7623508D01*
X334467Y-7623508D02*
X353515Y-7642555D01*
X353515Y-7642555D02*
X363039Y-7661603D01*
X363039Y-7661603D02*
X372562Y-7699698D01*
X372562Y-7699698D02*
X372562Y-7728269D01*
X372562Y-7728269D02*
X363039Y-7766365D01*
X363039Y-7766365D02*
X353515Y-7785412D01*
X353515Y-7785412D02*
X334467Y-7804460D01*
X334467Y-7804460D02*
X305896Y-7813984D01*
X305896Y-7813984D02*
X258277Y-7813984D01*
X458277Y-7813984D02*
X458277Y-7680650D01*
X458277Y-7718746D02*
X467801Y-7699698D01*
X467801Y-7699698D02*
X477324Y-7690174D01*
X477324Y-7690174D02*
X496372Y-7680650D01*
X496372Y-7680650D02*
X515420Y-7680650D01*
X582086Y-7813984D02*
X582086Y-7680650D01*
X582086Y-7613984D02*
X572563Y-7623508D01*
X572563Y-7623508D02*
X582086Y-7633031D01*
X582086Y-7633031D02*
X591610Y-7623508D01*
X591610Y-7623508D02*
X582086Y-7613984D01*
X582086Y-7613984D02*
X582086Y-7633031D01*
X705896Y-7813984D02*
X686848Y-7804460D01*
X686848Y-7804460D02*
X677324Y-7785412D01*
X677324Y-7785412D02*
X677324Y-7613984D01*
X810658Y-7813984D02*
X791610Y-7804460D01*
X791610Y-7804460D02*
X782086Y-7785412D01*
X782086Y-7785412D02*
X782086Y-7613984D01*
X1039229Y-7813984D02*
X1039229Y-7613984D01*
X1039229Y-7613984D02*
X1105896Y-7756841D01*
X1105896Y-7756841D02*
X1172563Y-7613984D01*
X1172563Y-7613984D02*
X1172563Y-7813984D01*
X1353515Y-7813984D02*
X1353515Y-7709222D01*
X1353515Y-7709222D02*
X1343991Y-7690174D01*
X1343991Y-7690174D02*
X1324944Y-7680650D01*
X1324944Y-7680650D02*
X1286848Y-7680650D01*
X1286848Y-7680650D02*
X1267801Y-7690174D01*
X1353515Y-7804460D02*
X1334467Y-7813984D01*
X1334467Y-7813984D02*
X1286848Y-7813984D01*
X1286848Y-7813984D02*
X1267801Y-7804460D01*
X1267801Y-7804460D02*
X1258277Y-7785412D01*
X1258277Y-7785412D02*
X1258277Y-7766365D01*
X1258277Y-7766365D02*
X1267801Y-7747317D01*
X1267801Y-7747317D02*
X1286848Y-7737793D01*
X1286848Y-7737793D02*
X1334467Y-7737793D01*
X1334467Y-7737793D02*
X1353515Y-7728269D01*
X1448753Y-7680650D02*
X1448753Y-7880650D01*
X1448753Y-7690174D02*
X1467801Y-7680650D01*
X1467801Y-7680650D02*
X1505896Y-7680650D01*
X1505896Y-7680650D02*
X1524943Y-7690174D01*
X1524943Y-7690174D02*
X1534467Y-7699698D01*
X1534467Y-7699698D02*
X1543991Y-7718746D01*
X1543991Y-7718746D02*
X1543991Y-7775888D01*
X1543991Y-7775888D02*
X1534467Y-7794936D01*
X1534467Y-7794936D02*
X1524943Y-7804460D01*
X1524943Y-7804460D02*
X1505896Y-7813984D01*
X1505896Y-7813984D02*
X1467801Y-7813984D01*
X1467801Y-7813984D02*
X1448753Y-7804460D01*
X1629705Y-7794936D02*
X1639229Y-7804460D01*
X1639229Y-7804460D02*
X1629705Y-7813984D01*
X1629705Y-7813984D02*
X1620182Y-7804460D01*
X1620182Y-7804460D02*
X1629705Y-7794936D01*
X1629705Y-7794936D02*
X1629705Y-7813984D01*
X1629705Y-7690174D02*
X1639229Y-7699698D01*
X1639229Y-7699698D02*
X1629705Y-7709222D01*
X1629705Y-7709222D02*
X1620182Y-7699698D01*
X1620182Y-7699698D02*
X1629705Y-7690174D01*
X1629705Y-7690174D02*
X1629705Y-7709222D01*
D12*
X-32500Y-8127500D02*
X-2500Y-8157500D01*
X-2500Y-8127500D02*
X-32500Y-8157500D01*
D11*
X296372Y-8033984D02*
X315420Y-8033984D01*
X315420Y-8033984D02*
X334467Y-8043508D01*
X334467Y-8043508D02*
X343991Y-8053031D01*
X343991Y-8053031D02*
X353515Y-8072079D01*
X353515Y-8072079D02*
X363039Y-8110174D01*
X363039Y-8110174D02*
X363039Y-8157793D01*
X363039Y-8157793D02*
X353515Y-8195888D01*
X353515Y-8195888D02*
X343991Y-8214936D01*
X343991Y-8214936D02*
X334467Y-8224460D01*
X334467Y-8224460D02*
X315420Y-8233984D01*
X315420Y-8233984D02*
X296372Y-8233984D01*
X296372Y-8233984D02*
X277324Y-8224460D01*
X277324Y-8224460D02*
X267801Y-8214936D01*
X267801Y-8214936D02*
X258277Y-8195888D01*
X258277Y-8195888D02*
X248753Y-8157793D01*
X248753Y-8157793D02*
X248753Y-8110174D01*
X248753Y-8110174D02*
X258277Y-8072079D01*
X258277Y-8072079D02*
X267801Y-8053031D01*
X267801Y-8053031D02*
X277324Y-8043508D01*
X277324Y-8043508D02*
X296372Y-8033984D01*
X448753Y-8214936D02*
X458277Y-8224460D01*
X458277Y-8224460D02*
X448753Y-8233984D01*
X448753Y-8233984D02*
X439229Y-8224460D01*
X439229Y-8224460D02*
X448753Y-8214936D01*
X448753Y-8214936D02*
X448753Y-8233984D01*
X524944Y-8033984D02*
X648753Y-8033984D01*
X648753Y-8033984D02*
X582086Y-8110174D01*
X582086Y-8110174D02*
X610658Y-8110174D01*
X610658Y-8110174D02*
X629705Y-8119698D01*
X629705Y-8119698D02*
X639229Y-8129222D01*
X639229Y-8129222D02*
X648753Y-8148269D01*
X648753Y-8148269D02*
X648753Y-8195888D01*
X648753Y-8195888D02*
X639229Y-8214936D01*
X639229Y-8214936D02*
X629705Y-8224460D01*
X629705Y-8224460D02*
X610658Y-8233984D01*
X610658Y-8233984D02*
X553515Y-8233984D01*
X553515Y-8233984D02*
X534467Y-8224460D01*
X534467Y-8224460D02*
X524944Y-8214936D01*
X772562Y-8033984D02*
X791610Y-8033984D01*
X791610Y-8033984D02*
X810658Y-8043508D01*
X810658Y-8043508D02*
X820182Y-8053031D01*
X820182Y-8053031D02*
X829705Y-8072079D01*
X829705Y-8072079D02*
X839229Y-8110174D01*
X839229Y-8110174D02*
X839229Y-8157793D01*
X839229Y-8157793D02*
X829705Y-8195888D01*
X829705Y-8195888D02*
X820182Y-8214936D01*
X820182Y-8214936D02*
X810658Y-8224460D01*
X810658Y-8224460D02*
X791610Y-8233984D01*
X791610Y-8233984D02*
X772562Y-8233984D01*
X772562Y-8233984D02*
X753515Y-8224460D01*
X753515Y-8224460D02*
X743991Y-8214936D01*
X743991Y-8214936D02*
X734467Y-8195888D01*
X734467Y-8195888D02*
X724943Y-8157793D01*
X724943Y-8157793D02*
X724943Y-8110174D01*
X724943Y-8110174D02*
X734467Y-8072079D01*
X734467Y-8072079D02*
X743991Y-8053031D01*
X743991Y-8053031D02*
X753515Y-8043508D01*
X753515Y-8043508D02*
X772562Y-8033984D01*
X963039Y-8033984D02*
X982086Y-8033984D01*
X982086Y-8033984D02*
X1001134Y-8043508D01*
X1001134Y-8043508D02*
X1010658Y-8053031D01*
X1010658Y-8053031D02*
X1020182Y-8072079D01*
X1020182Y-8072079D02*
X1029705Y-8110174D01*
X1029705Y-8110174D02*
X1029705Y-8157793D01*
X1029705Y-8157793D02*
X1020182Y-8195888D01*
X1020182Y-8195888D02*
X1010658Y-8214936D01*
X1010658Y-8214936D02*
X1001134Y-8224460D01*
X1001134Y-8224460D02*
X982086Y-8233984D01*
X982086Y-8233984D02*
X963039Y-8233984D01*
X963039Y-8233984D02*
X943991Y-8224460D01*
X943991Y-8224460D02*
X934467Y-8214936D01*
X934467Y-8214936D02*
X924943Y-8195888D01*
X924943Y-8195888D02*
X915420Y-8157793D01*
X915420Y-8157793D02*
X915420Y-8110174D01*
X915420Y-8110174D02*
X924943Y-8072079D01*
X924943Y-8072079D02*
X934467Y-8053031D01*
X934467Y-8053031D02*
X943991Y-8043508D01*
X943991Y-8043508D02*
X963039Y-8033984D01*
X1115420Y-8233984D02*
X1115420Y-8100650D01*
X1115420Y-8119698D02*
X1124944Y-8110174D01*
X1124944Y-8110174D02*
X1143991Y-8100650D01*
X1143991Y-8100650D02*
X1172563Y-8100650D01*
X1172563Y-8100650D02*
X1191610Y-8110174D01*
X1191610Y-8110174D02*
X1201134Y-8129222D01*
X1201134Y-8129222D02*
X1201134Y-8233984D01*
X1201134Y-8129222D02*
X1210658Y-8110174D01*
X1210658Y-8110174D02*
X1229705Y-8100650D01*
X1229705Y-8100650D02*
X1258277Y-8100650D01*
X1258277Y-8100650D02*
X1277325Y-8110174D01*
X1277325Y-8110174D02*
X1286848Y-8129222D01*
X1286848Y-8129222D02*
X1286848Y-8233984D01*
X1382086Y-8233984D02*
X1382086Y-8100650D01*
X1382086Y-8119698D02*
X1391610Y-8110174D01*
X1391610Y-8110174D02*
X1410658Y-8100650D01*
X1410658Y-8100650D02*
X1439229Y-8100650D01*
X1439229Y-8100650D02*
X1458277Y-8110174D01*
X1458277Y-8110174D02*
X1467801Y-8129222D01*
X1467801Y-8129222D02*
X1467801Y-8233984D01*
X1467801Y-8129222D02*
X1477324Y-8110174D01*
X1477324Y-8110174D02*
X1496372Y-8100650D01*
X1496372Y-8100650D02*
X1524943Y-8100650D01*
X1524943Y-8100650D02*
X1543991Y-8110174D01*
X1543991Y-8110174D02*
X1553515Y-8129222D01*
X1553515Y-8129222D02*
X1553515Y-8233984D01*
X1943991Y-8024460D02*
X1772563Y-8281603D01*
X2201134Y-8033984D02*
X2220182Y-8033984D01*
X2220182Y-8033984D02*
X2239229Y-8043508D01*
X2239229Y-8043508D02*
X2248753Y-8053031D01*
X2248753Y-8053031D02*
X2258277Y-8072079D01*
X2258277Y-8072079D02*
X2267801Y-8110174D01*
X2267801Y-8110174D02*
X2267801Y-8157793D01*
X2267801Y-8157793D02*
X2258277Y-8195888D01*
X2258277Y-8195888D02*
X2248753Y-8214936D01*
X2248753Y-8214936D02*
X2239229Y-8224460D01*
X2239229Y-8224460D02*
X2220182Y-8233984D01*
X2220182Y-8233984D02*
X2201134Y-8233984D01*
X2201134Y-8233984D02*
X2182087Y-8224460D01*
X2182087Y-8224460D02*
X2172563Y-8214936D01*
X2172563Y-8214936D02*
X2163039Y-8195888D01*
X2163039Y-8195888D02*
X2153515Y-8157793D01*
X2153515Y-8157793D02*
X2153515Y-8110174D01*
X2153515Y-8110174D02*
X2163039Y-8072079D01*
X2163039Y-8072079D02*
X2172563Y-8053031D01*
X2172563Y-8053031D02*
X2182087Y-8043508D01*
X2182087Y-8043508D02*
X2201134Y-8033984D01*
X2353515Y-8214936D02*
X2363039Y-8224460D01*
X2363039Y-8224460D02*
X2353515Y-8233984D01*
X2353515Y-8233984D02*
X2343991Y-8224460D01*
X2343991Y-8224460D02*
X2353515Y-8214936D01*
X2353515Y-8214936D02*
X2353515Y-8233984D01*
X2486848Y-8033984D02*
X2505896Y-8033984D01*
X2505896Y-8033984D02*
X2524944Y-8043508D01*
X2524944Y-8043508D02*
X2534468Y-8053031D01*
X2534468Y-8053031D02*
X2543991Y-8072079D01*
X2543991Y-8072079D02*
X2553515Y-8110174D01*
X2553515Y-8110174D02*
X2553515Y-8157793D01*
X2553515Y-8157793D02*
X2543991Y-8195888D01*
X2543991Y-8195888D02*
X2534468Y-8214936D01*
X2534468Y-8214936D02*
X2524944Y-8224460D01*
X2524944Y-8224460D02*
X2505896Y-8233984D01*
X2505896Y-8233984D02*
X2486848Y-8233984D01*
X2486848Y-8233984D02*
X2467801Y-8224460D01*
X2467801Y-8224460D02*
X2458277Y-8214936D01*
X2458277Y-8214936D02*
X2448753Y-8195888D01*
X2448753Y-8195888D02*
X2439229Y-8157793D01*
X2439229Y-8157793D02*
X2439229Y-8110174D01*
X2439229Y-8110174D02*
X2448753Y-8072079D01*
X2448753Y-8072079D02*
X2458277Y-8053031D01*
X2458277Y-8053031D02*
X2467801Y-8043508D01*
X2467801Y-8043508D02*
X2486848Y-8033984D01*
X2743991Y-8233984D02*
X2629706Y-8233984D01*
X2686848Y-8233984D02*
X2686848Y-8033984D01*
X2686848Y-8033984D02*
X2667801Y-8062555D01*
X2667801Y-8062555D02*
X2648753Y-8081603D01*
X2648753Y-8081603D02*
X2629706Y-8091127D01*
X2934467Y-8233984D02*
X2820182Y-8233984D01*
X2877325Y-8233984D02*
X2877325Y-8033984D01*
X2877325Y-8033984D02*
X2858277Y-8062555D01*
X2858277Y-8062555D02*
X2839229Y-8081603D01*
X2839229Y-8081603D02*
X2820182Y-8091127D01*
X3048753Y-8119698D02*
X3029706Y-8110174D01*
X3029706Y-8110174D02*
X3020182Y-8100650D01*
X3020182Y-8100650D02*
X3010658Y-8081603D01*
X3010658Y-8081603D02*
X3010658Y-8072079D01*
X3010658Y-8072079D02*
X3020182Y-8053031D01*
X3020182Y-8053031D02*
X3029706Y-8043508D01*
X3029706Y-8043508D02*
X3048753Y-8033984D01*
X3048753Y-8033984D02*
X3086848Y-8033984D01*
X3086848Y-8033984D02*
X3105896Y-8043508D01*
X3105896Y-8043508D02*
X3115420Y-8053031D01*
X3115420Y-8053031D02*
X3124944Y-8072079D01*
X3124944Y-8072079D02*
X3124944Y-8081603D01*
X3124944Y-8081603D02*
X3115420Y-8100650D01*
X3115420Y-8100650D02*
X3105896Y-8110174D01*
X3105896Y-8110174D02*
X3086848Y-8119698D01*
X3086848Y-8119698D02*
X3048753Y-8119698D01*
X3048753Y-8119698D02*
X3029706Y-8129222D01*
X3029706Y-8129222D02*
X3020182Y-8138746D01*
X3020182Y-8138746D02*
X3010658Y-8157793D01*
X3010658Y-8157793D02*
X3010658Y-8195888D01*
X3010658Y-8195888D02*
X3020182Y-8214936D01*
X3020182Y-8214936D02*
X3029706Y-8224460D01*
X3029706Y-8224460D02*
X3048753Y-8233984D01*
X3048753Y-8233984D02*
X3086848Y-8233984D01*
X3086848Y-8233984D02*
X3105896Y-8224460D01*
X3105896Y-8224460D02*
X3115420Y-8214936D01*
X3115420Y-8214936D02*
X3124944Y-8195888D01*
X3124944Y-8195888D02*
X3124944Y-8157793D01*
X3124944Y-8157793D02*
X3115420Y-8138746D01*
X3115420Y-8138746D02*
X3105896Y-8129222D01*
X3105896Y-8129222D02*
X3086848Y-8119698D01*
X3201134Y-8033984D02*
X3201134Y-8072079D01*
X3277325Y-8033984D02*
X3277325Y-8072079D01*
X3572563Y-8310174D02*
X3563039Y-8300650D01*
X3563039Y-8300650D02*
X3543991Y-8272079D01*
X3543991Y-8272079D02*
X3534468Y-8253031D01*
X3534468Y-8253031D02*
X3524944Y-8224460D01*
X3524944Y-8224460D02*
X3515420Y-8176841D01*
X3515420Y-8176841D02*
X3515420Y-8138746D01*
X3515420Y-8138746D02*
X3524944Y-8091127D01*
X3524944Y-8091127D02*
X3534468Y-8062555D01*
X3534468Y-8062555D02*
X3543991Y-8043508D01*
X3543991Y-8043508D02*
X3563039Y-8014936D01*
X3563039Y-8014936D02*
X3572563Y-8005412D01*
X3639229Y-8053031D02*
X3648753Y-8043508D01*
X3648753Y-8043508D02*
X3667801Y-8033984D01*
X3667801Y-8033984D02*
X3715420Y-8033984D01*
X3715420Y-8033984D02*
X3734468Y-8043508D01*
X3734468Y-8043508D02*
X3743991Y-8053031D01*
X3743991Y-8053031D02*
X3753515Y-8072079D01*
X3753515Y-8072079D02*
X3753515Y-8091127D01*
X3753515Y-8091127D02*
X3743991Y-8119698D01*
X3743991Y-8119698D02*
X3629706Y-8233984D01*
X3629706Y-8233984D02*
X3753515Y-8233984D01*
X3877325Y-8033984D02*
X3896372Y-8033984D01*
X3896372Y-8033984D02*
X3915420Y-8043508D01*
X3915420Y-8043508D02*
X3924944Y-8053031D01*
X3924944Y-8053031D02*
X3934468Y-8072079D01*
X3934468Y-8072079D02*
X3943991Y-8110174D01*
X3943991Y-8110174D02*
X3943991Y-8157793D01*
X3943991Y-8157793D02*
X3934468Y-8195888D01*
X3934468Y-8195888D02*
X3924944Y-8214936D01*
X3924944Y-8214936D02*
X3915420Y-8224460D01*
X3915420Y-8224460D02*
X3896372Y-8233984D01*
X3896372Y-8233984D02*
X3877325Y-8233984D01*
X3877325Y-8233984D02*
X3858277Y-8224460D01*
X3858277Y-8224460D02*
X3848753Y-8214936D01*
X3848753Y-8214936D02*
X3839229Y-8195888D01*
X3839229Y-8195888D02*
X3829706Y-8157793D01*
X3829706Y-8157793D02*
X3829706Y-8110174D01*
X3829706Y-8110174D02*
X3839229Y-8072079D01*
X3839229Y-8072079D02*
X3848753Y-8053031D01*
X3848753Y-8053031D02*
X3858277Y-8043508D01*
X3858277Y-8043508D02*
X3877325Y-8033984D01*
X4115420Y-8033984D02*
X4077325Y-8033984D01*
X4077325Y-8033984D02*
X4058277Y-8043508D01*
X4058277Y-8043508D02*
X4048753Y-8053031D01*
X4048753Y-8053031D02*
X4029706Y-8081603D01*
X4029706Y-8081603D02*
X4020182Y-8119698D01*
X4020182Y-8119698D02*
X4020182Y-8195888D01*
X4020182Y-8195888D02*
X4029706Y-8214936D01*
X4029706Y-8214936D02*
X4039229Y-8224460D01*
X4039229Y-8224460D02*
X4058277Y-8233984D01*
X4058277Y-8233984D02*
X4096372Y-8233984D01*
X4096372Y-8233984D02*
X4115420Y-8224460D01*
X4115420Y-8224460D02*
X4124944Y-8214936D01*
X4124944Y-8214936D02*
X4134468Y-8195888D01*
X4134468Y-8195888D02*
X4134468Y-8148269D01*
X4134468Y-8148269D02*
X4124944Y-8129222D01*
X4124944Y-8129222D02*
X4115420Y-8119698D01*
X4115420Y-8119698D02*
X4096372Y-8110174D01*
X4096372Y-8110174D02*
X4058277Y-8110174D01*
X4058277Y-8110174D02*
X4039229Y-8119698D01*
X4039229Y-8119698D02*
X4029706Y-8129222D01*
X4029706Y-8129222D02*
X4020182Y-8148269D01*
X4372563Y-8233984D02*
X4372563Y-8033984D01*
X4458277Y-8233984D02*
X4458277Y-8129222D01*
X4458277Y-8129222D02*
X4448753Y-8110174D01*
X4448753Y-8110174D02*
X4429706Y-8100650D01*
X4429706Y-8100650D02*
X4401134Y-8100650D01*
X4401134Y-8100650D02*
X4382087Y-8110174D01*
X4382087Y-8110174D02*
X4372563Y-8119698D01*
X4582087Y-8233984D02*
X4563039Y-8224460D01*
X4563039Y-8224460D02*
X4553515Y-8214936D01*
X4553515Y-8214936D02*
X4543992Y-8195888D01*
X4543992Y-8195888D02*
X4543992Y-8138746D01*
X4543992Y-8138746D02*
X4553515Y-8119698D01*
X4553515Y-8119698D02*
X4563039Y-8110174D01*
X4563039Y-8110174D02*
X4582087Y-8100650D01*
X4582087Y-8100650D02*
X4610658Y-8100650D01*
X4610658Y-8100650D02*
X4629706Y-8110174D01*
X4629706Y-8110174D02*
X4639230Y-8119698D01*
X4639230Y-8119698D02*
X4648753Y-8138746D01*
X4648753Y-8138746D02*
X4648753Y-8195888D01*
X4648753Y-8195888D02*
X4639230Y-8214936D01*
X4639230Y-8214936D02*
X4629706Y-8224460D01*
X4629706Y-8224460D02*
X4610658Y-8233984D01*
X4610658Y-8233984D02*
X4582087Y-8233984D01*
X4763039Y-8233984D02*
X4743992Y-8224460D01*
X4743992Y-8224460D02*
X4734468Y-8205412D01*
X4734468Y-8205412D02*
X4734468Y-8033984D01*
X4915420Y-8224460D02*
X4896373Y-8233984D01*
X4896373Y-8233984D02*
X4858277Y-8233984D01*
X4858277Y-8233984D02*
X4839230Y-8224460D01*
X4839230Y-8224460D02*
X4829706Y-8205412D01*
X4829706Y-8205412D02*
X4829706Y-8129222D01*
X4829706Y-8129222D02*
X4839230Y-8110174D01*
X4839230Y-8110174D02*
X4858277Y-8100650D01*
X4858277Y-8100650D02*
X4896373Y-8100650D01*
X4896373Y-8100650D02*
X4915420Y-8110174D01*
X4915420Y-8110174D02*
X4924944Y-8129222D01*
X4924944Y-8129222D02*
X4924944Y-8148269D01*
X4924944Y-8148269D02*
X4829706Y-8167317D01*
X5001134Y-8224460D02*
X5020182Y-8233984D01*
X5020182Y-8233984D02*
X5058277Y-8233984D01*
X5058277Y-8233984D02*
X5077325Y-8224460D01*
X5077325Y-8224460D02*
X5086849Y-8205412D01*
X5086849Y-8205412D02*
X5086849Y-8195888D01*
X5086849Y-8195888D02*
X5077325Y-8176841D01*
X5077325Y-8176841D02*
X5058277Y-8167317D01*
X5058277Y-8167317D02*
X5029706Y-8167317D01*
X5029706Y-8167317D02*
X5010658Y-8157793D01*
X5010658Y-8157793D02*
X5001134Y-8138746D01*
X5001134Y-8138746D02*
X5001134Y-8129222D01*
X5001134Y-8129222D02*
X5010658Y-8110174D01*
X5010658Y-8110174D02*
X5029706Y-8100650D01*
X5029706Y-8100650D02*
X5058277Y-8100650D01*
X5058277Y-8100650D02*
X5077325Y-8110174D01*
X5153515Y-8310174D02*
X5163039Y-8300650D01*
X5163039Y-8300650D02*
X5182087Y-8272079D01*
X5182087Y-8272079D02*
X5191611Y-8253031D01*
X5191611Y-8253031D02*
X5201134Y-8224460D01*
X5201134Y-8224460D02*
X5210658Y-8176841D01*
X5210658Y-8176841D02*
X5210658Y-8138746D01*
X5210658Y-8138746D02*
X5201134Y-8091127D01*
X5201134Y-8091127D02*
X5191611Y-8062555D01*
X5191611Y-8062555D02*
X5182087Y-8043508D01*
X5182087Y-8043508D02*
X5163039Y-8014936D01*
X5163039Y-8014936D02*
X5153515Y-8005412D01*
D12*
X-2500Y-8406500D02*
G75*
G02*
X-67500Y-8406500I-32500J0D01*
G01*
X-67500Y-8406500D02*
G75*
G02*
X-2500Y-8406500I32500J0D01*
G01*
D11*
X296372Y-8297984D02*
X315420Y-8297984D01*
X315420Y-8297984D02*
X334467Y-8307508D01*
X334467Y-8307508D02*
X343991Y-8317031D01*
X343991Y-8317031D02*
X353515Y-8336079D01*
X353515Y-8336079D02*
X363039Y-8374174D01*
X363039Y-8374174D02*
X363039Y-8421793D01*
X363039Y-8421793D02*
X353515Y-8459889D01*
X353515Y-8459889D02*
X343991Y-8478936D01*
X343991Y-8478936D02*
X334467Y-8488460D01*
X334467Y-8488460D02*
X315420Y-8497984D01*
X315420Y-8497984D02*
X296372Y-8497984D01*
X296372Y-8497984D02*
X277324Y-8488460D01*
X277324Y-8488460D02*
X267801Y-8478936D01*
X267801Y-8478936D02*
X258277Y-8459889D01*
X258277Y-8459889D02*
X248753Y-8421793D01*
X248753Y-8421793D02*
X248753Y-8374174D01*
X248753Y-8374174D02*
X258277Y-8336079D01*
X258277Y-8336079D02*
X267801Y-8317031D01*
X267801Y-8317031D02*
X277324Y-8307508D01*
X277324Y-8307508D02*
X296372Y-8297984D01*
X448753Y-8478936D02*
X458277Y-8488460D01*
X458277Y-8488460D02*
X448753Y-8497984D01*
X448753Y-8497984D02*
X439229Y-8488460D01*
X439229Y-8488460D02*
X448753Y-8478936D01*
X448753Y-8478936D02*
X448753Y-8497984D01*
X629705Y-8297984D02*
X591610Y-8297984D01*
X591610Y-8297984D02*
X572563Y-8307508D01*
X572563Y-8307508D02*
X563039Y-8317031D01*
X563039Y-8317031D02*
X543991Y-8345603D01*
X543991Y-8345603D02*
X534467Y-8383698D01*
X534467Y-8383698D02*
X534467Y-8459889D01*
X534467Y-8459889D02*
X543991Y-8478936D01*
X543991Y-8478936D02*
X553515Y-8488460D01*
X553515Y-8488460D02*
X572563Y-8497984D01*
X572563Y-8497984D02*
X610658Y-8497984D01*
X610658Y-8497984D02*
X629705Y-8488460D01*
X629705Y-8488460D02*
X639229Y-8478936D01*
X639229Y-8478936D02*
X648753Y-8459889D01*
X648753Y-8459889D02*
X648753Y-8412270D01*
X648753Y-8412270D02*
X639229Y-8393222D01*
X639229Y-8393222D02*
X629705Y-8383698D01*
X629705Y-8383698D02*
X610658Y-8374174D01*
X610658Y-8374174D02*
X572563Y-8374174D01*
X572563Y-8374174D02*
X553515Y-8383698D01*
X553515Y-8383698D02*
X543991Y-8393222D01*
X543991Y-8393222D02*
X534467Y-8412270D01*
X829705Y-8297984D02*
X734467Y-8297984D01*
X734467Y-8297984D02*
X724943Y-8393222D01*
X724943Y-8393222D02*
X734467Y-8383698D01*
X734467Y-8383698D02*
X753515Y-8374174D01*
X753515Y-8374174D02*
X801134Y-8374174D01*
X801134Y-8374174D02*
X820182Y-8383698D01*
X820182Y-8383698D02*
X829705Y-8393222D01*
X829705Y-8393222D02*
X839229Y-8412270D01*
X839229Y-8412270D02*
X839229Y-8459889D01*
X839229Y-8459889D02*
X829705Y-8478936D01*
X829705Y-8478936D02*
X820182Y-8488460D01*
X820182Y-8488460D02*
X801134Y-8497984D01*
X801134Y-8497984D02*
X753515Y-8497984D01*
X753515Y-8497984D02*
X734467Y-8488460D01*
X734467Y-8488460D02*
X724943Y-8478936D01*
X963039Y-8297984D02*
X982086Y-8297984D01*
X982086Y-8297984D02*
X1001134Y-8307508D01*
X1001134Y-8307508D02*
X1010658Y-8317031D01*
X1010658Y-8317031D02*
X1020182Y-8336079D01*
X1020182Y-8336079D02*
X1029705Y-8374174D01*
X1029705Y-8374174D02*
X1029705Y-8421793D01*
X1029705Y-8421793D02*
X1020182Y-8459889D01*
X1020182Y-8459889D02*
X1010658Y-8478936D01*
X1010658Y-8478936D02*
X1001134Y-8488460D01*
X1001134Y-8488460D02*
X982086Y-8497984D01*
X982086Y-8497984D02*
X963039Y-8497984D01*
X963039Y-8497984D02*
X943991Y-8488460D01*
X943991Y-8488460D02*
X934467Y-8478936D01*
X934467Y-8478936D02*
X924943Y-8459889D01*
X924943Y-8459889D02*
X915420Y-8421793D01*
X915420Y-8421793D02*
X915420Y-8374174D01*
X915420Y-8374174D02*
X924943Y-8336079D01*
X924943Y-8336079D02*
X934467Y-8317031D01*
X934467Y-8317031D02*
X943991Y-8307508D01*
X943991Y-8307508D02*
X963039Y-8297984D01*
X1115420Y-8497984D02*
X1115420Y-8364650D01*
X1115420Y-8383698D02*
X1124944Y-8374174D01*
X1124944Y-8374174D02*
X1143991Y-8364650D01*
X1143991Y-8364650D02*
X1172563Y-8364650D01*
X1172563Y-8364650D02*
X1191610Y-8374174D01*
X1191610Y-8374174D02*
X1201134Y-8393222D01*
X1201134Y-8393222D02*
X1201134Y-8497984D01*
X1201134Y-8393222D02*
X1210658Y-8374174D01*
X1210658Y-8374174D02*
X1229705Y-8364650D01*
X1229705Y-8364650D02*
X1258277Y-8364650D01*
X1258277Y-8364650D02*
X1277325Y-8374174D01*
X1277325Y-8374174D02*
X1286848Y-8393222D01*
X1286848Y-8393222D02*
X1286848Y-8497984D01*
X1382086Y-8497984D02*
X1382086Y-8364650D01*
X1382086Y-8383698D02*
X1391610Y-8374174D01*
X1391610Y-8374174D02*
X1410658Y-8364650D01*
X1410658Y-8364650D02*
X1439229Y-8364650D01*
X1439229Y-8364650D02*
X1458277Y-8374174D01*
X1458277Y-8374174D02*
X1467801Y-8393222D01*
X1467801Y-8393222D02*
X1467801Y-8497984D01*
X1467801Y-8393222D02*
X1477324Y-8374174D01*
X1477324Y-8374174D02*
X1496372Y-8364650D01*
X1496372Y-8364650D02*
X1524943Y-8364650D01*
X1524943Y-8364650D02*
X1543991Y-8374174D01*
X1543991Y-8374174D02*
X1553515Y-8393222D01*
X1553515Y-8393222D02*
X1553515Y-8497984D01*
X1943991Y-8288460D02*
X1772563Y-8545603D01*
X2201134Y-8297984D02*
X2220182Y-8297984D01*
X2220182Y-8297984D02*
X2239229Y-8307508D01*
X2239229Y-8307508D02*
X2248753Y-8317031D01*
X2248753Y-8317031D02*
X2258277Y-8336079D01*
X2258277Y-8336079D02*
X2267801Y-8374174D01*
X2267801Y-8374174D02*
X2267801Y-8421793D01*
X2267801Y-8421793D02*
X2258277Y-8459889D01*
X2258277Y-8459889D02*
X2248753Y-8478936D01*
X2248753Y-8478936D02*
X2239229Y-8488460D01*
X2239229Y-8488460D02*
X2220182Y-8497984D01*
X2220182Y-8497984D02*
X2201134Y-8497984D01*
X2201134Y-8497984D02*
X2182087Y-8488460D01*
X2182087Y-8488460D02*
X2172563Y-8478936D01*
X2172563Y-8478936D02*
X2163039Y-8459889D01*
X2163039Y-8459889D02*
X2153515Y-8421793D01*
X2153515Y-8421793D02*
X2153515Y-8374174D01*
X2153515Y-8374174D02*
X2163039Y-8336079D01*
X2163039Y-8336079D02*
X2172563Y-8317031D01*
X2172563Y-8317031D02*
X2182087Y-8307508D01*
X2182087Y-8307508D02*
X2201134Y-8297984D01*
X2353515Y-8478936D02*
X2363039Y-8488460D01*
X2363039Y-8488460D02*
X2353515Y-8497984D01*
X2353515Y-8497984D02*
X2343991Y-8488460D01*
X2343991Y-8488460D02*
X2353515Y-8478936D01*
X2353515Y-8478936D02*
X2353515Y-8497984D01*
X2486848Y-8297984D02*
X2505896Y-8297984D01*
X2505896Y-8297984D02*
X2524944Y-8307508D01*
X2524944Y-8307508D02*
X2534468Y-8317031D01*
X2534468Y-8317031D02*
X2543991Y-8336079D01*
X2543991Y-8336079D02*
X2553515Y-8374174D01*
X2553515Y-8374174D02*
X2553515Y-8421793D01*
X2553515Y-8421793D02*
X2543991Y-8459889D01*
X2543991Y-8459889D02*
X2534468Y-8478936D01*
X2534468Y-8478936D02*
X2524944Y-8488460D01*
X2524944Y-8488460D02*
X2505896Y-8497984D01*
X2505896Y-8497984D02*
X2486848Y-8497984D01*
X2486848Y-8497984D02*
X2467801Y-8488460D01*
X2467801Y-8488460D02*
X2458277Y-8478936D01*
X2458277Y-8478936D02*
X2448753Y-8459889D01*
X2448753Y-8459889D02*
X2439229Y-8421793D01*
X2439229Y-8421793D02*
X2439229Y-8374174D01*
X2439229Y-8374174D02*
X2448753Y-8336079D01*
X2448753Y-8336079D02*
X2458277Y-8317031D01*
X2458277Y-8317031D02*
X2467801Y-8307508D01*
X2467801Y-8307508D02*
X2486848Y-8297984D01*
X2629706Y-8317031D02*
X2639229Y-8307508D01*
X2639229Y-8307508D02*
X2658277Y-8297984D01*
X2658277Y-8297984D02*
X2705896Y-8297984D01*
X2705896Y-8297984D02*
X2724944Y-8307508D01*
X2724944Y-8307508D02*
X2734468Y-8317031D01*
X2734468Y-8317031D02*
X2743991Y-8336079D01*
X2743991Y-8336079D02*
X2743991Y-8355127D01*
X2743991Y-8355127D02*
X2734468Y-8383698D01*
X2734468Y-8383698D02*
X2620182Y-8497984D01*
X2620182Y-8497984D02*
X2743991Y-8497984D01*
X2924944Y-8297984D02*
X2829706Y-8297984D01*
X2829706Y-8297984D02*
X2820182Y-8393222D01*
X2820182Y-8393222D02*
X2829706Y-8383698D01*
X2829706Y-8383698D02*
X2848753Y-8374174D01*
X2848753Y-8374174D02*
X2896372Y-8374174D01*
X2896372Y-8374174D02*
X2915420Y-8383698D01*
X2915420Y-8383698D02*
X2924944Y-8393222D01*
X2924944Y-8393222D02*
X2934467Y-8412270D01*
X2934467Y-8412270D02*
X2934467Y-8459889D01*
X2934467Y-8459889D02*
X2924944Y-8478936D01*
X2924944Y-8478936D02*
X2915420Y-8488460D01*
X2915420Y-8488460D02*
X2896372Y-8497984D01*
X2896372Y-8497984D02*
X2848753Y-8497984D01*
X2848753Y-8497984D02*
X2829706Y-8488460D01*
X2829706Y-8488460D02*
X2820182Y-8478936D01*
X3105896Y-8297984D02*
X3067801Y-8297984D01*
X3067801Y-8297984D02*
X3048753Y-8307508D01*
X3048753Y-8307508D02*
X3039229Y-8317031D01*
X3039229Y-8317031D02*
X3020182Y-8345603D01*
X3020182Y-8345603D02*
X3010658Y-8383698D01*
X3010658Y-8383698D02*
X3010658Y-8459889D01*
X3010658Y-8459889D02*
X3020182Y-8478936D01*
X3020182Y-8478936D02*
X3029706Y-8488460D01*
X3029706Y-8488460D02*
X3048753Y-8497984D01*
X3048753Y-8497984D02*
X3086848Y-8497984D01*
X3086848Y-8497984D02*
X3105896Y-8488460D01*
X3105896Y-8488460D02*
X3115420Y-8478936D01*
X3115420Y-8478936D02*
X3124944Y-8459889D01*
X3124944Y-8459889D02*
X3124944Y-8412270D01*
X3124944Y-8412270D02*
X3115420Y-8393222D01*
X3115420Y-8393222D02*
X3105896Y-8383698D01*
X3105896Y-8383698D02*
X3086848Y-8374174D01*
X3086848Y-8374174D02*
X3048753Y-8374174D01*
X3048753Y-8374174D02*
X3029706Y-8383698D01*
X3029706Y-8383698D02*
X3020182Y-8393222D01*
X3020182Y-8393222D02*
X3010658Y-8412270D01*
X3201134Y-8297984D02*
X3201134Y-8336079D01*
X3277325Y-8297984D02*
X3277325Y-8336079D01*
X3572563Y-8574174D02*
X3563039Y-8564650D01*
X3563039Y-8564650D02*
X3543991Y-8536079D01*
X3543991Y-8536079D02*
X3534468Y-8517031D01*
X3534468Y-8517031D02*
X3524944Y-8488460D01*
X3524944Y-8488460D02*
X3515420Y-8440841D01*
X3515420Y-8440841D02*
X3515420Y-8402746D01*
X3515420Y-8402746D02*
X3524944Y-8355127D01*
X3524944Y-8355127D02*
X3534468Y-8326555D01*
X3534468Y-8326555D02*
X3543991Y-8307508D01*
X3543991Y-8307508D02*
X3563039Y-8278936D01*
X3563039Y-8278936D02*
X3572563Y-8269412D01*
X3734468Y-8364650D02*
X3734468Y-8497984D01*
X3686848Y-8288460D02*
X3639229Y-8431317D01*
X3639229Y-8431317D02*
X3763039Y-8431317D01*
X3991610Y-8497984D02*
X3991610Y-8297984D01*
X4077325Y-8497984D02*
X4077325Y-8393222D01*
X4077325Y-8393222D02*
X4067801Y-8374174D01*
X4067801Y-8374174D02*
X4048753Y-8364650D01*
X4048753Y-8364650D02*
X4020182Y-8364650D01*
X4020182Y-8364650D02*
X4001134Y-8374174D01*
X4001134Y-8374174D02*
X3991610Y-8383698D01*
X4201134Y-8497984D02*
X4182087Y-8488460D01*
X4182087Y-8488460D02*
X4172563Y-8478936D01*
X4172563Y-8478936D02*
X4163039Y-8459889D01*
X4163039Y-8459889D02*
X4163039Y-8402746D01*
X4163039Y-8402746D02*
X4172563Y-8383698D01*
X4172563Y-8383698D02*
X4182087Y-8374174D01*
X4182087Y-8374174D02*
X4201134Y-8364650D01*
X4201134Y-8364650D02*
X4229706Y-8364650D01*
X4229706Y-8364650D02*
X4248753Y-8374174D01*
X4248753Y-8374174D02*
X4258277Y-8383698D01*
X4258277Y-8383698D02*
X4267801Y-8402746D01*
X4267801Y-8402746D02*
X4267801Y-8459889D01*
X4267801Y-8459889D02*
X4258277Y-8478936D01*
X4258277Y-8478936D02*
X4248753Y-8488460D01*
X4248753Y-8488460D02*
X4229706Y-8497984D01*
X4229706Y-8497984D02*
X4201134Y-8497984D01*
X4382087Y-8497984D02*
X4363039Y-8488460D01*
X4363039Y-8488460D02*
X4353515Y-8469412D01*
X4353515Y-8469412D02*
X4353515Y-8297984D01*
X4534468Y-8488460D02*
X4515420Y-8497984D01*
X4515420Y-8497984D02*
X4477325Y-8497984D01*
X4477325Y-8497984D02*
X4458277Y-8488460D01*
X4458277Y-8488460D02*
X4448753Y-8469412D01*
X4448753Y-8469412D02*
X4448753Y-8393222D01*
X4448753Y-8393222D02*
X4458277Y-8374174D01*
X4458277Y-8374174D02*
X4477325Y-8364650D01*
X4477325Y-8364650D02*
X4515420Y-8364650D01*
X4515420Y-8364650D02*
X4534468Y-8374174D01*
X4534468Y-8374174D02*
X4543992Y-8393222D01*
X4543992Y-8393222D02*
X4543992Y-8412270D01*
X4543992Y-8412270D02*
X4448753Y-8431317D01*
X4620182Y-8488460D02*
X4639230Y-8497984D01*
X4639230Y-8497984D02*
X4677325Y-8497984D01*
X4677325Y-8497984D02*
X4696373Y-8488460D01*
X4696373Y-8488460D02*
X4705896Y-8469412D01*
X4705896Y-8469412D02*
X4705896Y-8459889D01*
X4705896Y-8459889D02*
X4696373Y-8440841D01*
X4696373Y-8440841D02*
X4677325Y-8431317D01*
X4677325Y-8431317D02*
X4648753Y-8431317D01*
X4648753Y-8431317D02*
X4629706Y-8421793D01*
X4629706Y-8421793D02*
X4620182Y-8402746D01*
X4620182Y-8402746D02*
X4620182Y-8393222D01*
X4620182Y-8393222D02*
X4629706Y-8374174D01*
X4629706Y-8374174D02*
X4648753Y-8364650D01*
X4648753Y-8364650D02*
X4677325Y-8364650D01*
X4677325Y-8364650D02*
X4696373Y-8374174D01*
X4772563Y-8574174D02*
X4782087Y-8564650D01*
X4782087Y-8564650D02*
X4801134Y-8536079D01*
X4801134Y-8536079D02*
X4810658Y-8517031D01*
X4810658Y-8517031D02*
X4820182Y-8488460D01*
X4820182Y-8488460D02*
X4829706Y-8440841D01*
X4829706Y-8440841D02*
X4829706Y-8402746D01*
X4829706Y-8402746D02*
X4820182Y-8355127D01*
X4820182Y-8355127D02*
X4810658Y-8326555D01*
X4810658Y-8326555D02*
X4801134Y-8307508D01*
X4801134Y-8307508D02*
X4782087Y-8278936D01*
X4782087Y-8278936D02*
X4772563Y-8269412D01*
D12*
X-40000Y-8633000D02*
X-40000Y-8708000D01*
X-77500Y-8670500D02*
X-2500Y-8670500D01*
D11*
X296372Y-8561984D02*
X315420Y-8561984D01*
X315420Y-8561984D02*
X334467Y-8571508D01*
X334467Y-8571508D02*
X343991Y-8581031D01*
X343991Y-8581031D02*
X353515Y-8600079D01*
X353515Y-8600079D02*
X363039Y-8638174D01*
X363039Y-8638174D02*
X363039Y-8685793D01*
X363039Y-8685793D02*
X353515Y-8723889D01*
X353515Y-8723889D02*
X343991Y-8742936D01*
X343991Y-8742936D02*
X334467Y-8752460D01*
X334467Y-8752460D02*
X315420Y-8761984D01*
X315420Y-8761984D02*
X296372Y-8761984D01*
X296372Y-8761984D02*
X277324Y-8752460D01*
X277324Y-8752460D02*
X267801Y-8742936D01*
X267801Y-8742936D02*
X258277Y-8723889D01*
X258277Y-8723889D02*
X248753Y-8685793D01*
X248753Y-8685793D02*
X248753Y-8638174D01*
X248753Y-8638174D02*
X258277Y-8600079D01*
X258277Y-8600079D02*
X267801Y-8581031D01*
X267801Y-8581031D02*
X277324Y-8571508D01*
X277324Y-8571508D02*
X296372Y-8561984D01*
X448753Y-8742936D02*
X458277Y-8752460D01*
X458277Y-8752460D02*
X448753Y-8761984D01*
X448753Y-8761984D02*
X439229Y-8752460D01*
X439229Y-8752460D02*
X448753Y-8742936D01*
X448753Y-8742936D02*
X448753Y-8761984D01*
X524944Y-8561984D02*
X658277Y-8561984D01*
X658277Y-8561984D02*
X572563Y-8761984D01*
X829705Y-8561984D02*
X734467Y-8561984D01*
X734467Y-8561984D02*
X724943Y-8657222D01*
X724943Y-8657222D02*
X734467Y-8647698D01*
X734467Y-8647698D02*
X753515Y-8638174D01*
X753515Y-8638174D02*
X801134Y-8638174D01*
X801134Y-8638174D02*
X820182Y-8647698D01*
X820182Y-8647698D02*
X829705Y-8657222D01*
X829705Y-8657222D02*
X839229Y-8676270D01*
X839229Y-8676270D02*
X839229Y-8723889D01*
X839229Y-8723889D02*
X829705Y-8742936D01*
X829705Y-8742936D02*
X820182Y-8752460D01*
X820182Y-8752460D02*
X801134Y-8761984D01*
X801134Y-8761984D02*
X753515Y-8761984D01*
X753515Y-8761984D02*
X734467Y-8752460D01*
X734467Y-8752460D02*
X724943Y-8742936D01*
X963039Y-8561984D02*
X982086Y-8561984D01*
X982086Y-8561984D02*
X1001134Y-8571508D01*
X1001134Y-8571508D02*
X1010658Y-8581031D01*
X1010658Y-8581031D02*
X1020182Y-8600079D01*
X1020182Y-8600079D02*
X1029705Y-8638174D01*
X1029705Y-8638174D02*
X1029705Y-8685793D01*
X1029705Y-8685793D02*
X1020182Y-8723889D01*
X1020182Y-8723889D02*
X1010658Y-8742936D01*
X1010658Y-8742936D02*
X1001134Y-8752460D01*
X1001134Y-8752460D02*
X982086Y-8761984D01*
X982086Y-8761984D02*
X963039Y-8761984D01*
X963039Y-8761984D02*
X943991Y-8752460D01*
X943991Y-8752460D02*
X934467Y-8742936D01*
X934467Y-8742936D02*
X924943Y-8723889D01*
X924943Y-8723889D02*
X915420Y-8685793D01*
X915420Y-8685793D02*
X915420Y-8638174D01*
X915420Y-8638174D02*
X924943Y-8600079D01*
X924943Y-8600079D02*
X934467Y-8581031D01*
X934467Y-8581031D02*
X943991Y-8571508D01*
X943991Y-8571508D02*
X963039Y-8561984D01*
X1115420Y-8761984D02*
X1115420Y-8628650D01*
X1115420Y-8647698D02*
X1124944Y-8638174D01*
X1124944Y-8638174D02*
X1143991Y-8628650D01*
X1143991Y-8628650D02*
X1172563Y-8628650D01*
X1172563Y-8628650D02*
X1191610Y-8638174D01*
X1191610Y-8638174D02*
X1201134Y-8657222D01*
X1201134Y-8657222D02*
X1201134Y-8761984D01*
X1201134Y-8657222D02*
X1210658Y-8638174D01*
X1210658Y-8638174D02*
X1229705Y-8628650D01*
X1229705Y-8628650D02*
X1258277Y-8628650D01*
X1258277Y-8628650D02*
X1277325Y-8638174D01*
X1277325Y-8638174D02*
X1286848Y-8657222D01*
X1286848Y-8657222D02*
X1286848Y-8761984D01*
X1382086Y-8761984D02*
X1382086Y-8628650D01*
X1382086Y-8647698D02*
X1391610Y-8638174D01*
X1391610Y-8638174D02*
X1410658Y-8628650D01*
X1410658Y-8628650D02*
X1439229Y-8628650D01*
X1439229Y-8628650D02*
X1458277Y-8638174D01*
X1458277Y-8638174D02*
X1467801Y-8657222D01*
X1467801Y-8657222D02*
X1467801Y-8761984D01*
X1467801Y-8657222D02*
X1477324Y-8638174D01*
X1477324Y-8638174D02*
X1496372Y-8628650D01*
X1496372Y-8628650D02*
X1524943Y-8628650D01*
X1524943Y-8628650D02*
X1543991Y-8638174D01*
X1543991Y-8638174D02*
X1553515Y-8657222D01*
X1553515Y-8657222D02*
X1553515Y-8761984D01*
X1943991Y-8552460D02*
X1772563Y-8809603D01*
X2201134Y-8561984D02*
X2220182Y-8561984D01*
X2220182Y-8561984D02*
X2239229Y-8571508D01*
X2239229Y-8571508D02*
X2248753Y-8581031D01*
X2248753Y-8581031D02*
X2258277Y-8600079D01*
X2258277Y-8600079D02*
X2267801Y-8638174D01*
X2267801Y-8638174D02*
X2267801Y-8685793D01*
X2267801Y-8685793D02*
X2258277Y-8723889D01*
X2258277Y-8723889D02*
X2248753Y-8742936D01*
X2248753Y-8742936D02*
X2239229Y-8752460D01*
X2239229Y-8752460D02*
X2220182Y-8761984D01*
X2220182Y-8761984D02*
X2201134Y-8761984D01*
X2201134Y-8761984D02*
X2182087Y-8752460D01*
X2182087Y-8752460D02*
X2172563Y-8742936D01*
X2172563Y-8742936D02*
X2163039Y-8723889D01*
X2163039Y-8723889D02*
X2153515Y-8685793D01*
X2153515Y-8685793D02*
X2153515Y-8638174D01*
X2153515Y-8638174D02*
X2163039Y-8600079D01*
X2163039Y-8600079D02*
X2172563Y-8581031D01*
X2172563Y-8581031D02*
X2182087Y-8571508D01*
X2182087Y-8571508D02*
X2201134Y-8561984D01*
X2353515Y-8742936D02*
X2363039Y-8752460D01*
X2363039Y-8752460D02*
X2353515Y-8761984D01*
X2353515Y-8761984D02*
X2343991Y-8752460D01*
X2343991Y-8752460D02*
X2353515Y-8742936D01*
X2353515Y-8742936D02*
X2353515Y-8761984D01*
X2486848Y-8561984D02*
X2505896Y-8561984D01*
X2505896Y-8561984D02*
X2524944Y-8571508D01*
X2524944Y-8571508D02*
X2534468Y-8581031D01*
X2534468Y-8581031D02*
X2543991Y-8600079D01*
X2543991Y-8600079D02*
X2553515Y-8638174D01*
X2553515Y-8638174D02*
X2553515Y-8685793D01*
X2553515Y-8685793D02*
X2543991Y-8723889D01*
X2543991Y-8723889D02*
X2534468Y-8742936D01*
X2534468Y-8742936D02*
X2524944Y-8752460D01*
X2524944Y-8752460D02*
X2505896Y-8761984D01*
X2505896Y-8761984D02*
X2486848Y-8761984D01*
X2486848Y-8761984D02*
X2467801Y-8752460D01*
X2467801Y-8752460D02*
X2458277Y-8742936D01*
X2458277Y-8742936D02*
X2448753Y-8723889D01*
X2448753Y-8723889D02*
X2439229Y-8685793D01*
X2439229Y-8685793D02*
X2439229Y-8638174D01*
X2439229Y-8638174D02*
X2448753Y-8600079D01*
X2448753Y-8600079D02*
X2458277Y-8581031D01*
X2458277Y-8581031D02*
X2467801Y-8571508D01*
X2467801Y-8571508D02*
X2486848Y-8561984D01*
X2629706Y-8581031D02*
X2639229Y-8571508D01*
X2639229Y-8571508D02*
X2658277Y-8561984D01*
X2658277Y-8561984D02*
X2705896Y-8561984D01*
X2705896Y-8561984D02*
X2724944Y-8571508D01*
X2724944Y-8571508D02*
X2734468Y-8581031D01*
X2734468Y-8581031D02*
X2743991Y-8600079D01*
X2743991Y-8600079D02*
X2743991Y-8619127D01*
X2743991Y-8619127D02*
X2734468Y-8647698D01*
X2734468Y-8647698D02*
X2620182Y-8761984D01*
X2620182Y-8761984D02*
X2743991Y-8761984D01*
X2839229Y-8761984D02*
X2877325Y-8761984D01*
X2877325Y-8761984D02*
X2896372Y-8752460D01*
X2896372Y-8752460D02*
X2905896Y-8742936D01*
X2905896Y-8742936D02*
X2924944Y-8714365D01*
X2924944Y-8714365D02*
X2934467Y-8676270D01*
X2934467Y-8676270D02*
X2934467Y-8600079D01*
X2934467Y-8600079D02*
X2924944Y-8581031D01*
X2924944Y-8581031D02*
X2915420Y-8571508D01*
X2915420Y-8571508D02*
X2896372Y-8561984D01*
X2896372Y-8561984D02*
X2858277Y-8561984D01*
X2858277Y-8561984D02*
X2839229Y-8571508D01*
X2839229Y-8571508D02*
X2829706Y-8581031D01*
X2829706Y-8581031D02*
X2820182Y-8600079D01*
X2820182Y-8600079D02*
X2820182Y-8647698D01*
X2820182Y-8647698D02*
X2829706Y-8666746D01*
X2829706Y-8666746D02*
X2839229Y-8676270D01*
X2839229Y-8676270D02*
X2858277Y-8685793D01*
X2858277Y-8685793D02*
X2896372Y-8685793D01*
X2896372Y-8685793D02*
X2915420Y-8676270D01*
X2915420Y-8676270D02*
X2924944Y-8666746D01*
X2924944Y-8666746D02*
X2934467Y-8647698D01*
X3115420Y-8561984D02*
X3020182Y-8561984D01*
X3020182Y-8561984D02*
X3010658Y-8657222D01*
X3010658Y-8657222D02*
X3020182Y-8647698D01*
X3020182Y-8647698D02*
X3039229Y-8638174D01*
X3039229Y-8638174D02*
X3086848Y-8638174D01*
X3086848Y-8638174D02*
X3105896Y-8647698D01*
X3105896Y-8647698D02*
X3115420Y-8657222D01*
X3115420Y-8657222D02*
X3124944Y-8676270D01*
X3124944Y-8676270D02*
X3124944Y-8723889D01*
X3124944Y-8723889D02*
X3115420Y-8742936D01*
X3115420Y-8742936D02*
X3105896Y-8752460D01*
X3105896Y-8752460D02*
X3086848Y-8761984D01*
X3086848Y-8761984D02*
X3039229Y-8761984D01*
X3039229Y-8761984D02*
X3020182Y-8752460D01*
X3020182Y-8752460D02*
X3010658Y-8742936D01*
X3201134Y-8561984D02*
X3201134Y-8600079D01*
X3277325Y-8561984D02*
X3277325Y-8600079D01*
X3572563Y-8838174D02*
X3563039Y-8828650D01*
X3563039Y-8828650D02*
X3543991Y-8800079D01*
X3543991Y-8800079D02*
X3534468Y-8781031D01*
X3534468Y-8781031D02*
X3524944Y-8752460D01*
X3524944Y-8752460D02*
X3515420Y-8704841D01*
X3515420Y-8704841D02*
X3515420Y-8666746D01*
X3515420Y-8666746D02*
X3524944Y-8619127D01*
X3524944Y-8619127D02*
X3534468Y-8590555D01*
X3534468Y-8590555D02*
X3543991Y-8571508D01*
X3543991Y-8571508D02*
X3563039Y-8542936D01*
X3563039Y-8542936D02*
X3572563Y-8533412D01*
X3639229Y-8581031D02*
X3648753Y-8571508D01*
X3648753Y-8571508D02*
X3667801Y-8561984D01*
X3667801Y-8561984D02*
X3715420Y-8561984D01*
X3715420Y-8561984D02*
X3734468Y-8571508D01*
X3734468Y-8571508D02*
X3743991Y-8581031D01*
X3743991Y-8581031D02*
X3753515Y-8600079D01*
X3753515Y-8600079D02*
X3753515Y-8619127D01*
X3753515Y-8619127D02*
X3743991Y-8647698D01*
X3743991Y-8647698D02*
X3629706Y-8761984D01*
X3629706Y-8761984D02*
X3753515Y-8761984D01*
X3991610Y-8761984D02*
X3991610Y-8561984D01*
X4077325Y-8761984D02*
X4077325Y-8657222D01*
X4077325Y-8657222D02*
X4067801Y-8638174D01*
X4067801Y-8638174D02*
X4048753Y-8628650D01*
X4048753Y-8628650D02*
X4020182Y-8628650D01*
X4020182Y-8628650D02*
X4001134Y-8638174D01*
X4001134Y-8638174D02*
X3991610Y-8647698D01*
X4201134Y-8761984D02*
X4182087Y-8752460D01*
X4182087Y-8752460D02*
X4172563Y-8742936D01*
X4172563Y-8742936D02*
X4163039Y-8723889D01*
X4163039Y-8723889D02*
X4163039Y-8666746D01*
X4163039Y-8666746D02*
X4172563Y-8647698D01*
X4172563Y-8647698D02*
X4182087Y-8638174D01*
X4182087Y-8638174D02*
X4201134Y-8628650D01*
X4201134Y-8628650D02*
X4229706Y-8628650D01*
X4229706Y-8628650D02*
X4248753Y-8638174D01*
X4248753Y-8638174D02*
X4258277Y-8647698D01*
X4258277Y-8647698D02*
X4267801Y-8666746D01*
X4267801Y-8666746D02*
X4267801Y-8723889D01*
X4267801Y-8723889D02*
X4258277Y-8742936D01*
X4258277Y-8742936D02*
X4248753Y-8752460D01*
X4248753Y-8752460D02*
X4229706Y-8761984D01*
X4229706Y-8761984D02*
X4201134Y-8761984D01*
X4382087Y-8761984D02*
X4363039Y-8752460D01*
X4363039Y-8752460D02*
X4353515Y-8733412D01*
X4353515Y-8733412D02*
X4353515Y-8561984D01*
X4534468Y-8752460D02*
X4515420Y-8761984D01*
X4515420Y-8761984D02*
X4477325Y-8761984D01*
X4477325Y-8761984D02*
X4458277Y-8752460D01*
X4458277Y-8752460D02*
X4448753Y-8733412D01*
X4448753Y-8733412D02*
X4448753Y-8657222D01*
X4448753Y-8657222D02*
X4458277Y-8638174D01*
X4458277Y-8638174D02*
X4477325Y-8628650D01*
X4477325Y-8628650D02*
X4515420Y-8628650D01*
X4515420Y-8628650D02*
X4534468Y-8638174D01*
X4534468Y-8638174D02*
X4543992Y-8657222D01*
X4543992Y-8657222D02*
X4543992Y-8676270D01*
X4543992Y-8676270D02*
X4448753Y-8695317D01*
X4620182Y-8752460D02*
X4639230Y-8761984D01*
X4639230Y-8761984D02*
X4677325Y-8761984D01*
X4677325Y-8761984D02*
X4696373Y-8752460D01*
X4696373Y-8752460D02*
X4705896Y-8733412D01*
X4705896Y-8733412D02*
X4705896Y-8723889D01*
X4705896Y-8723889D02*
X4696373Y-8704841D01*
X4696373Y-8704841D02*
X4677325Y-8695317D01*
X4677325Y-8695317D02*
X4648753Y-8695317D01*
X4648753Y-8695317D02*
X4629706Y-8685793D01*
X4629706Y-8685793D02*
X4620182Y-8666746D01*
X4620182Y-8666746D02*
X4620182Y-8657222D01*
X4620182Y-8657222D02*
X4629706Y-8638174D01*
X4629706Y-8638174D02*
X4648753Y-8628650D01*
X4648753Y-8628650D02*
X4677325Y-8628650D01*
X4677325Y-8628650D02*
X4696373Y-8638174D01*
X4772563Y-8838174D02*
X4782087Y-8828650D01*
X4782087Y-8828650D02*
X4801134Y-8800079D01*
X4801134Y-8800079D02*
X4810658Y-8781031D01*
X4810658Y-8781031D02*
X4820182Y-8752460D01*
X4820182Y-8752460D02*
X4829706Y-8704841D01*
X4829706Y-8704841D02*
X4829706Y-8666746D01*
X4829706Y-8666746D02*
X4820182Y-8619127D01*
X4820182Y-8619127D02*
X4810658Y-8590555D01*
X4810658Y-8590555D02*
X4801134Y-8571508D01*
X4801134Y-8571508D02*
X4782087Y-8542936D01*
X4782087Y-8542936D02*
X4772563Y-8533412D01*
X-31789Y-9005211D02*
X-31789Y-8863789D01*
X-173211Y-8863789D01*
X-173211Y-9005211D01*
X-31789Y-9005211D01*
X248753Y-8845031D02*
X258277Y-8835508D01*
X258277Y-8835508D02*
X277324Y-8825984D01*
X277324Y-8825984D02*
X324944Y-8825984D01*
X324944Y-8825984D02*
X343991Y-8835508D01*
X343991Y-8835508D02*
X353515Y-8845031D01*
X353515Y-8845031D02*
X363039Y-8864079D01*
X363039Y-8864079D02*
X363039Y-8883127D01*
X363039Y-8883127D02*
X353515Y-8911698D01*
X353515Y-8911698D02*
X239229Y-9025984D01*
X239229Y-9025984D02*
X363039Y-9025984D01*
X448753Y-9006936D02*
X458277Y-9016460D01*
X458277Y-9016460D02*
X448753Y-9025984D01*
X448753Y-9025984D02*
X439229Y-9016460D01*
X439229Y-9016460D02*
X448753Y-9006936D01*
X448753Y-9006936D02*
X448753Y-9025984D01*
X639229Y-8825984D02*
X543991Y-8825984D01*
X543991Y-8825984D02*
X534467Y-8921222D01*
X534467Y-8921222D02*
X543991Y-8911698D01*
X543991Y-8911698D02*
X563039Y-8902174D01*
X563039Y-8902174D02*
X610658Y-8902174D01*
X610658Y-8902174D02*
X629705Y-8911698D01*
X629705Y-8911698D02*
X639229Y-8921222D01*
X639229Y-8921222D02*
X648753Y-8940270D01*
X648753Y-8940270D02*
X648753Y-8987889D01*
X648753Y-8987889D02*
X639229Y-9006936D01*
X639229Y-9006936D02*
X629705Y-9016460D01*
X629705Y-9016460D02*
X610658Y-9025984D01*
X610658Y-9025984D02*
X563039Y-9025984D01*
X563039Y-9025984D02*
X543991Y-9016460D01*
X543991Y-9016460D02*
X534467Y-9006936D01*
X772562Y-8825984D02*
X791610Y-8825984D01*
X791610Y-8825984D02*
X810658Y-8835508D01*
X810658Y-8835508D02*
X820182Y-8845031D01*
X820182Y-8845031D02*
X829705Y-8864079D01*
X829705Y-8864079D02*
X839229Y-8902174D01*
X839229Y-8902174D02*
X839229Y-8949793D01*
X839229Y-8949793D02*
X829705Y-8987889D01*
X829705Y-8987889D02*
X820182Y-9006936D01*
X820182Y-9006936D02*
X810658Y-9016460D01*
X810658Y-9016460D02*
X791610Y-9025984D01*
X791610Y-9025984D02*
X772562Y-9025984D01*
X772562Y-9025984D02*
X753515Y-9016460D01*
X753515Y-9016460D02*
X743991Y-9006936D01*
X743991Y-9006936D02*
X734467Y-8987889D01*
X734467Y-8987889D02*
X724943Y-8949793D01*
X724943Y-8949793D02*
X724943Y-8902174D01*
X724943Y-8902174D02*
X734467Y-8864079D01*
X734467Y-8864079D02*
X743991Y-8845031D01*
X743991Y-8845031D02*
X753515Y-8835508D01*
X753515Y-8835508D02*
X772562Y-8825984D01*
X963039Y-8825984D02*
X982086Y-8825984D01*
X982086Y-8825984D02*
X1001134Y-8835508D01*
X1001134Y-8835508D02*
X1010658Y-8845031D01*
X1010658Y-8845031D02*
X1020182Y-8864079D01*
X1020182Y-8864079D02*
X1029705Y-8902174D01*
X1029705Y-8902174D02*
X1029705Y-8949793D01*
X1029705Y-8949793D02*
X1020182Y-8987889D01*
X1020182Y-8987889D02*
X1010658Y-9006936D01*
X1010658Y-9006936D02*
X1001134Y-9016460D01*
X1001134Y-9016460D02*
X982086Y-9025984D01*
X982086Y-9025984D02*
X963039Y-9025984D01*
X963039Y-9025984D02*
X943991Y-9016460D01*
X943991Y-9016460D02*
X934467Y-9006936D01*
X934467Y-9006936D02*
X924943Y-8987889D01*
X924943Y-8987889D02*
X915420Y-8949793D01*
X915420Y-8949793D02*
X915420Y-8902174D01*
X915420Y-8902174D02*
X924943Y-8864079D01*
X924943Y-8864079D02*
X934467Y-8845031D01*
X934467Y-8845031D02*
X943991Y-8835508D01*
X943991Y-8835508D02*
X963039Y-8825984D01*
X1115420Y-9025984D02*
X1115420Y-8892650D01*
X1115420Y-8911698D02*
X1124944Y-8902174D01*
X1124944Y-8902174D02*
X1143991Y-8892650D01*
X1143991Y-8892650D02*
X1172563Y-8892650D01*
X1172563Y-8892650D02*
X1191610Y-8902174D01*
X1191610Y-8902174D02*
X1201134Y-8921222D01*
X1201134Y-8921222D02*
X1201134Y-9025984D01*
X1201134Y-8921222D02*
X1210658Y-8902174D01*
X1210658Y-8902174D02*
X1229705Y-8892650D01*
X1229705Y-8892650D02*
X1258277Y-8892650D01*
X1258277Y-8892650D02*
X1277325Y-8902174D01*
X1277325Y-8902174D02*
X1286848Y-8921222D01*
X1286848Y-8921222D02*
X1286848Y-9025984D01*
X1382086Y-9025984D02*
X1382086Y-8892650D01*
X1382086Y-8911698D02*
X1391610Y-8902174D01*
X1391610Y-8902174D02*
X1410658Y-8892650D01*
X1410658Y-8892650D02*
X1439229Y-8892650D01*
X1439229Y-8892650D02*
X1458277Y-8902174D01*
X1458277Y-8902174D02*
X1467801Y-8921222D01*
X1467801Y-8921222D02*
X1467801Y-9025984D01*
X1467801Y-8921222D02*
X1477324Y-8902174D01*
X1477324Y-8902174D02*
X1496372Y-8892650D01*
X1496372Y-8892650D02*
X1524943Y-8892650D01*
X1524943Y-8892650D02*
X1543991Y-8902174D01*
X1543991Y-8902174D02*
X1553515Y-8921222D01*
X1553515Y-8921222D02*
X1553515Y-9025984D01*
X1943991Y-8816460D02*
X1772563Y-9073603D01*
X2201134Y-8825984D02*
X2220182Y-8825984D01*
X2220182Y-8825984D02*
X2239229Y-8835508D01*
X2239229Y-8835508D02*
X2248753Y-8845031D01*
X2248753Y-8845031D02*
X2258277Y-8864079D01*
X2258277Y-8864079D02*
X2267801Y-8902174D01*
X2267801Y-8902174D02*
X2267801Y-8949793D01*
X2267801Y-8949793D02*
X2258277Y-8987889D01*
X2258277Y-8987889D02*
X2248753Y-9006936D01*
X2248753Y-9006936D02*
X2239229Y-9016460D01*
X2239229Y-9016460D02*
X2220182Y-9025984D01*
X2220182Y-9025984D02*
X2201134Y-9025984D01*
X2201134Y-9025984D02*
X2182087Y-9016460D01*
X2182087Y-9016460D02*
X2172563Y-9006936D01*
X2172563Y-9006936D02*
X2163039Y-8987889D01*
X2163039Y-8987889D02*
X2153515Y-8949793D01*
X2153515Y-8949793D02*
X2153515Y-8902174D01*
X2153515Y-8902174D02*
X2163039Y-8864079D01*
X2163039Y-8864079D02*
X2172563Y-8845031D01*
X2172563Y-8845031D02*
X2182087Y-8835508D01*
X2182087Y-8835508D02*
X2201134Y-8825984D01*
X2353515Y-9006936D02*
X2363039Y-9016460D01*
X2363039Y-9016460D02*
X2353515Y-9025984D01*
X2353515Y-9025984D02*
X2343991Y-9016460D01*
X2343991Y-9016460D02*
X2353515Y-9006936D01*
X2353515Y-9006936D02*
X2353515Y-9025984D01*
X2486848Y-8825984D02*
X2505896Y-8825984D01*
X2505896Y-8825984D02*
X2524944Y-8835508D01*
X2524944Y-8835508D02*
X2534468Y-8845031D01*
X2534468Y-8845031D02*
X2543991Y-8864079D01*
X2543991Y-8864079D02*
X2553515Y-8902174D01*
X2553515Y-8902174D02*
X2553515Y-8949793D01*
X2553515Y-8949793D02*
X2543991Y-8987889D01*
X2543991Y-8987889D02*
X2534468Y-9006936D01*
X2534468Y-9006936D02*
X2524944Y-9016460D01*
X2524944Y-9016460D02*
X2505896Y-9025984D01*
X2505896Y-9025984D02*
X2486848Y-9025984D01*
X2486848Y-9025984D02*
X2467801Y-9016460D01*
X2467801Y-9016460D02*
X2458277Y-9006936D01*
X2458277Y-9006936D02*
X2448753Y-8987889D01*
X2448753Y-8987889D02*
X2439229Y-8949793D01*
X2439229Y-8949793D02*
X2439229Y-8902174D01*
X2439229Y-8902174D02*
X2448753Y-8864079D01*
X2448753Y-8864079D02*
X2458277Y-8845031D01*
X2458277Y-8845031D02*
X2467801Y-8835508D01*
X2467801Y-8835508D02*
X2486848Y-8825984D01*
X2648753Y-9025984D02*
X2686848Y-9025984D01*
X2686848Y-9025984D02*
X2705896Y-9016460D01*
X2705896Y-9016460D02*
X2715420Y-9006936D01*
X2715420Y-9006936D02*
X2734468Y-8978365D01*
X2734468Y-8978365D02*
X2743991Y-8940270D01*
X2743991Y-8940270D02*
X2743991Y-8864079D01*
X2743991Y-8864079D02*
X2734468Y-8845031D01*
X2734468Y-8845031D02*
X2724944Y-8835508D01*
X2724944Y-8835508D02*
X2705896Y-8825984D01*
X2705896Y-8825984D02*
X2667801Y-8825984D01*
X2667801Y-8825984D02*
X2648753Y-8835508D01*
X2648753Y-8835508D02*
X2639229Y-8845031D01*
X2639229Y-8845031D02*
X2629706Y-8864079D01*
X2629706Y-8864079D02*
X2629706Y-8911698D01*
X2629706Y-8911698D02*
X2639229Y-8930746D01*
X2639229Y-8930746D02*
X2648753Y-8940270D01*
X2648753Y-8940270D02*
X2667801Y-8949793D01*
X2667801Y-8949793D02*
X2705896Y-8949793D01*
X2705896Y-8949793D02*
X2724944Y-8940270D01*
X2724944Y-8940270D02*
X2734468Y-8930746D01*
X2734468Y-8930746D02*
X2743991Y-8911698D01*
X2858277Y-8911698D02*
X2839229Y-8902174D01*
X2839229Y-8902174D02*
X2829706Y-8892650D01*
X2829706Y-8892650D02*
X2820182Y-8873603D01*
X2820182Y-8873603D02*
X2820182Y-8864079D01*
X2820182Y-8864079D02*
X2829706Y-8845031D01*
X2829706Y-8845031D02*
X2839229Y-8835508D01*
X2839229Y-8835508D02*
X2858277Y-8825984D01*
X2858277Y-8825984D02*
X2896372Y-8825984D01*
X2896372Y-8825984D02*
X2915420Y-8835508D01*
X2915420Y-8835508D02*
X2924944Y-8845031D01*
X2924944Y-8845031D02*
X2934467Y-8864079D01*
X2934467Y-8864079D02*
X2934467Y-8873603D01*
X2934467Y-8873603D02*
X2924944Y-8892650D01*
X2924944Y-8892650D02*
X2915420Y-8902174D01*
X2915420Y-8902174D02*
X2896372Y-8911698D01*
X2896372Y-8911698D02*
X2858277Y-8911698D01*
X2858277Y-8911698D02*
X2839229Y-8921222D01*
X2839229Y-8921222D02*
X2829706Y-8930746D01*
X2829706Y-8930746D02*
X2820182Y-8949793D01*
X2820182Y-8949793D02*
X2820182Y-8987889D01*
X2820182Y-8987889D02*
X2829706Y-9006936D01*
X2829706Y-9006936D02*
X2839229Y-9016460D01*
X2839229Y-9016460D02*
X2858277Y-9025984D01*
X2858277Y-9025984D02*
X2896372Y-9025984D01*
X2896372Y-9025984D02*
X2915420Y-9016460D01*
X2915420Y-9016460D02*
X2924944Y-9006936D01*
X2924944Y-9006936D02*
X2934467Y-8987889D01*
X2934467Y-8987889D02*
X2934467Y-8949793D01*
X2934467Y-8949793D02*
X2924944Y-8930746D01*
X2924944Y-8930746D02*
X2915420Y-8921222D01*
X2915420Y-8921222D02*
X2896372Y-8911698D01*
X3105896Y-8892650D02*
X3105896Y-9025984D01*
X3058277Y-8816460D02*
X3010658Y-8959317D01*
X3010658Y-8959317D02*
X3134467Y-8959317D01*
X3201134Y-8825984D02*
X3201134Y-8864079D01*
X3277325Y-8825984D02*
X3277325Y-8864079D01*
X3572563Y-9102174D02*
X3563039Y-9092650D01*
X3563039Y-9092650D02*
X3543991Y-9064079D01*
X3543991Y-9064079D02*
X3534468Y-9045031D01*
X3534468Y-9045031D02*
X3524944Y-9016460D01*
X3524944Y-9016460D02*
X3515420Y-8968841D01*
X3515420Y-8968841D02*
X3515420Y-8930746D01*
X3515420Y-8930746D02*
X3524944Y-8883127D01*
X3524944Y-8883127D02*
X3534468Y-8854555D01*
X3534468Y-8854555D02*
X3543991Y-8835508D01*
X3543991Y-8835508D02*
X3563039Y-8806936D01*
X3563039Y-8806936D02*
X3572563Y-8797412D01*
X3734468Y-8825984D02*
X3696372Y-8825984D01*
X3696372Y-8825984D02*
X3677325Y-8835508D01*
X3677325Y-8835508D02*
X3667801Y-8845031D01*
X3667801Y-8845031D02*
X3648753Y-8873603D01*
X3648753Y-8873603D02*
X3639229Y-8911698D01*
X3639229Y-8911698D02*
X3639229Y-8987889D01*
X3639229Y-8987889D02*
X3648753Y-9006936D01*
X3648753Y-9006936D02*
X3658277Y-9016460D01*
X3658277Y-9016460D02*
X3677325Y-9025984D01*
X3677325Y-9025984D02*
X3715420Y-9025984D01*
X3715420Y-9025984D02*
X3734468Y-9016460D01*
X3734468Y-9016460D02*
X3743991Y-9006936D01*
X3743991Y-9006936D02*
X3753515Y-8987889D01*
X3753515Y-8987889D02*
X3753515Y-8940270D01*
X3753515Y-8940270D02*
X3743991Y-8921222D01*
X3743991Y-8921222D02*
X3734468Y-8911698D01*
X3734468Y-8911698D02*
X3715420Y-8902174D01*
X3715420Y-8902174D02*
X3677325Y-8902174D01*
X3677325Y-8902174D02*
X3658277Y-8911698D01*
X3658277Y-8911698D02*
X3648753Y-8921222D01*
X3648753Y-8921222D02*
X3639229Y-8940270D01*
X3991610Y-9025984D02*
X3991610Y-8825984D01*
X4077325Y-9025984D02*
X4077325Y-8921222D01*
X4077325Y-8921222D02*
X4067801Y-8902174D01*
X4067801Y-8902174D02*
X4048753Y-8892650D01*
X4048753Y-8892650D02*
X4020182Y-8892650D01*
X4020182Y-8892650D02*
X4001134Y-8902174D01*
X4001134Y-8902174D02*
X3991610Y-8911698D01*
X4201134Y-9025984D02*
X4182087Y-9016460D01*
X4182087Y-9016460D02*
X4172563Y-9006936D01*
X4172563Y-9006936D02*
X4163039Y-8987889D01*
X4163039Y-8987889D02*
X4163039Y-8930746D01*
X4163039Y-8930746D02*
X4172563Y-8911698D01*
X4172563Y-8911698D02*
X4182087Y-8902174D01*
X4182087Y-8902174D02*
X4201134Y-8892650D01*
X4201134Y-8892650D02*
X4229706Y-8892650D01*
X4229706Y-8892650D02*
X4248753Y-8902174D01*
X4248753Y-8902174D02*
X4258277Y-8911698D01*
X4258277Y-8911698D02*
X4267801Y-8930746D01*
X4267801Y-8930746D02*
X4267801Y-8987889D01*
X4267801Y-8987889D02*
X4258277Y-9006936D01*
X4258277Y-9006936D02*
X4248753Y-9016460D01*
X4248753Y-9016460D02*
X4229706Y-9025984D01*
X4229706Y-9025984D02*
X4201134Y-9025984D01*
X4382087Y-9025984D02*
X4363039Y-9016460D01*
X4363039Y-9016460D02*
X4353515Y-8997412D01*
X4353515Y-8997412D02*
X4353515Y-8825984D01*
X4534468Y-9016460D02*
X4515420Y-9025984D01*
X4515420Y-9025984D02*
X4477325Y-9025984D01*
X4477325Y-9025984D02*
X4458277Y-9016460D01*
X4458277Y-9016460D02*
X4448753Y-8997412D01*
X4448753Y-8997412D02*
X4448753Y-8921222D01*
X4448753Y-8921222D02*
X4458277Y-8902174D01*
X4458277Y-8902174D02*
X4477325Y-8892650D01*
X4477325Y-8892650D02*
X4515420Y-8892650D01*
X4515420Y-8892650D02*
X4534468Y-8902174D01*
X4534468Y-8902174D02*
X4543992Y-8921222D01*
X4543992Y-8921222D02*
X4543992Y-8940270D01*
X4543992Y-8940270D02*
X4448753Y-8959317D01*
X4620182Y-9016460D02*
X4639230Y-9025984D01*
X4639230Y-9025984D02*
X4677325Y-9025984D01*
X4677325Y-9025984D02*
X4696373Y-9016460D01*
X4696373Y-9016460D02*
X4705896Y-8997412D01*
X4705896Y-8997412D02*
X4705896Y-8987889D01*
X4705896Y-8987889D02*
X4696373Y-8968841D01*
X4696373Y-8968841D02*
X4677325Y-8959317D01*
X4677325Y-8959317D02*
X4648753Y-8959317D01*
X4648753Y-8959317D02*
X4629706Y-8949793D01*
X4629706Y-8949793D02*
X4620182Y-8930746D01*
X4620182Y-8930746D02*
X4620182Y-8921222D01*
X4620182Y-8921222D02*
X4629706Y-8902174D01*
X4629706Y-8902174D02*
X4648753Y-8892650D01*
X4648753Y-8892650D02*
X4677325Y-8892650D01*
X4677325Y-8892650D02*
X4696373Y-8902174D01*
X4772563Y-9102174D02*
X4782087Y-9092650D01*
X4782087Y-9092650D02*
X4801134Y-9064079D01*
X4801134Y-9064079D02*
X4810658Y-9045031D01*
X4810658Y-9045031D02*
X4820182Y-9016460D01*
X4820182Y-9016460D02*
X4829706Y-8968841D01*
X4829706Y-8968841D02*
X4829706Y-8930746D01*
X4829706Y-8930746D02*
X4820182Y-8883127D01*
X4820182Y-8883127D02*
X4810658Y-8854555D01*
X4810658Y-8854555D02*
X4801134Y-8835508D01*
X4801134Y-8835508D02*
X4782087Y-8806936D01*
X4782087Y-8806936D02*
X4772563Y-8797412D01*
M02*
