%TF.GenerationSoftware,KiCad,Pcbnew,10.0.0*%
%TF.CreationDate,2026-04-10T21:26:35+02:00*%
%TF.ProjectId,esp32-emu-turbo,65737033-322d-4656-9d75-2d747572626f,rev?*%
%TF.SameCoordinates,Original*%
%TF.FileFunction,Legend,Bot*%
%TF.FilePolarity,Positive*%
%FSLAX46Y46*%
G04 Gerber Fmt 4.6, Leading zero omitted, Abs format (unit mm)*
G04 Created by KiCad (PCBNEW 10.0.0) date 2026-04-10 21:26:35*
%MOMM*%
%LPD*%
G01*
G04 APERTURE LIST*
%ADD10C,0.200000*%
%ADD11C,2.500000*%
%ADD12R,1.500000X0.900000*%
%ADD13R,0.900000X1.500000*%
%ADD14R,3.900000X3.900000*%
%ADD15R,0.700000X1.000000*%
%ADD16R,1.000000X0.150000*%
%ADD17R,2.500000X2.000000*%
%ADD18R,0.350000X1.100000*%
%ADD19R,0.150000X1.100000*%
%ADD20O,1.100000X2.000000*%
%ADD21O,1.400000X1.800000*%
%ADD22C,0.650000*%
%ADD23R,0.500000X1.300000*%
%ADD24R,1.200000X1.400000*%
%ADD25R,1.200000X2.000000*%
%ADD26C,1.000000*%
%ADD27R,0.600000X1.524000*%
%ADD28R,1.200000X0.700000*%
%ADD29C,0.900000*%
%ADD30R,2.000000X3.000000*%
%ADD31R,1.700000X0.600000*%
%ADD32R,3.400000X2.800000*%
%ADD33R,1.000000X1.500000*%
%ADD34R,3.600000X1.800000*%
%ADD35R,0.600000X1.550000*%
%ADD36R,1.400000X3.400000*%
%ADD37R,1.000000X2.500000*%
%ADD38R,1.000000X0.700000*%
%ADD39R,0.600000X0.700000*%
%ADD40R,1.000000X1.300000*%
%ADD41R,0.620000X0.560000*%
%ADD42R,1.300000X1.000000*%
%ADD43R,1.200000X1.800000*%
G04 APERTURE END LIST*
D10*
X83714285Y-11428409D02*
X83380952Y-11428409D01*
X83238095Y-11952219D02*
X83714285Y-11952219D01*
X83714285Y-11952219D02*
X83714285Y-10952219D01*
X83714285Y-10952219D02*
X83238095Y-10952219D01*
X82857142Y-11904600D02*
X82714285Y-11952219D01*
X82714285Y-11952219D02*
X82476190Y-11952219D01*
X82476190Y-11952219D02*
X82380952Y-11904600D01*
X82380952Y-11904600D02*
X82333333Y-11856980D01*
X82333333Y-11856980D02*
X82285714Y-11761742D01*
X82285714Y-11761742D02*
X82285714Y-11666504D01*
X82285714Y-11666504D02*
X82333333Y-11571266D01*
X82333333Y-11571266D02*
X82380952Y-11523647D01*
X82380952Y-11523647D02*
X82476190Y-11476028D01*
X82476190Y-11476028D02*
X82666666Y-11428409D01*
X82666666Y-11428409D02*
X82761904Y-11380790D01*
X82761904Y-11380790D02*
X82809523Y-11333171D01*
X82809523Y-11333171D02*
X82857142Y-11237933D01*
X82857142Y-11237933D02*
X82857142Y-11142695D01*
X82857142Y-11142695D02*
X82809523Y-11047457D01*
X82809523Y-11047457D02*
X82761904Y-10999838D01*
X82761904Y-10999838D02*
X82666666Y-10952219D01*
X82666666Y-10952219D02*
X82428571Y-10952219D01*
X82428571Y-10952219D02*
X82285714Y-10999838D01*
X81857142Y-11952219D02*
X81857142Y-10952219D01*
X81857142Y-10952219D02*
X81476190Y-10952219D01*
X81476190Y-10952219D02*
X81380952Y-10999838D01*
X81380952Y-10999838D02*
X81333333Y-11047457D01*
X81333333Y-11047457D02*
X81285714Y-11142695D01*
X81285714Y-11142695D02*
X81285714Y-11285552D01*
X81285714Y-11285552D02*
X81333333Y-11380790D01*
X81333333Y-11380790D02*
X81380952Y-11428409D01*
X81380952Y-11428409D02*
X81476190Y-11476028D01*
X81476190Y-11476028D02*
X81857142Y-11476028D01*
X80952380Y-10952219D02*
X80333333Y-10952219D01*
X80333333Y-10952219D02*
X80666666Y-11333171D01*
X80666666Y-11333171D02*
X80523809Y-11333171D01*
X80523809Y-11333171D02*
X80428571Y-11380790D01*
X80428571Y-11380790D02*
X80380952Y-11428409D01*
X80380952Y-11428409D02*
X80333333Y-11523647D01*
X80333333Y-11523647D02*
X80333333Y-11761742D01*
X80333333Y-11761742D02*
X80380952Y-11856980D01*
X80380952Y-11856980D02*
X80428571Y-11904600D01*
X80428571Y-11904600D02*
X80523809Y-11952219D01*
X80523809Y-11952219D02*
X80809523Y-11952219D01*
X80809523Y-11952219D02*
X80904761Y-11904600D01*
X80904761Y-11904600D02*
X80952380Y-11856980D01*
X79952380Y-11047457D02*
X79904761Y-10999838D01*
X79904761Y-10999838D02*
X79809523Y-10952219D01*
X79809523Y-10952219D02*
X79571428Y-10952219D01*
X79571428Y-10952219D02*
X79476190Y-10999838D01*
X79476190Y-10999838D02*
X79428571Y-11047457D01*
X79428571Y-11047457D02*
X79380952Y-11142695D01*
X79380952Y-11142695D02*
X79380952Y-11237933D01*
X79380952Y-11237933D02*
X79428571Y-11380790D01*
X79428571Y-11380790D02*
X79999999Y-11952219D01*
X79999999Y-11952219D02*
X79380952Y-11952219D01*
X78952380Y-11571266D02*
X78190476Y-11571266D01*
X77761904Y-11904600D02*
X77619047Y-11952219D01*
X77619047Y-11952219D02*
X77380952Y-11952219D01*
X77380952Y-11952219D02*
X77285714Y-11904600D01*
X77285714Y-11904600D02*
X77238095Y-11856980D01*
X77238095Y-11856980D02*
X77190476Y-11761742D01*
X77190476Y-11761742D02*
X77190476Y-11666504D01*
X77190476Y-11666504D02*
X77238095Y-11571266D01*
X77238095Y-11571266D02*
X77285714Y-11523647D01*
X77285714Y-11523647D02*
X77380952Y-11476028D01*
X77380952Y-11476028D02*
X77571428Y-11428409D01*
X77571428Y-11428409D02*
X77666666Y-11380790D01*
X77666666Y-11380790D02*
X77714285Y-11333171D01*
X77714285Y-11333171D02*
X77761904Y-11237933D01*
X77761904Y-11237933D02*
X77761904Y-11142695D01*
X77761904Y-11142695D02*
X77714285Y-11047457D01*
X77714285Y-11047457D02*
X77666666Y-10999838D01*
X77666666Y-10999838D02*
X77571428Y-10952219D01*
X77571428Y-10952219D02*
X77333333Y-10952219D01*
X77333333Y-10952219D02*
X77190476Y-10999838D01*
X76857142Y-10952219D02*
X76238095Y-10952219D01*
X76238095Y-10952219D02*
X76571428Y-11333171D01*
X76571428Y-11333171D02*
X76428571Y-11333171D01*
X76428571Y-11333171D02*
X76333333Y-11380790D01*
X76333333Y-11380790D02*
X76285714Y-11428409D01*
X76285714Y-11428409D02*
X76238095Y-11523647D01*
X76238095Y-11523647D02*
X76238095Y-11761742D01*
X76238095Y-11761742D02*
X76285714Y-11856980D01*
X76285714Y-11856980D02*
X76333333Y-11904600D01*
X76333333Y-11904600D02*
X76428571Y-11952219D01*
X76428571Y-11952219D02*
X76714285Y-11952219D01*
X76714285Y-11952219D02*
X76809523Y-11904600D01*
X76809523Y-11904600D02*
X76857142Y-11856980D01*
X112404761Y-32952219D02*
X112404761Y-31952219D01*
X111928571Y-32952219D02*
X111928571Y-31952219D01*
X111928571Y-31952219D02*
X111547619Y-31952219D01*
X111547619Y-31952219D02*
X111452381Y-31999838D01*
X111452381Y-31999838D02*
X111404762Y-32047457D01*
X111404762Y-32047457D02*
X111357143Y-32142695D01*
X111357143Y-32142695D02*
X111357143Y-32285552D01*
X111357143Y-32285552D02*
X111404762Y-32380790D01*
X111404762Y-32380790D02*
X111452381Y-32428409D01*
X111452381Y-32428409D02*
X111547619Y-32476028D01*
X111547619Y-32476028D02*
X111928571Y-32476028D01*
X110452381Y-31952219D02*
X110928571Y-31952219D01*
X110928571Y-31952219D02*
X110976190Y-32428409D01*
X110976190Y-32428409D02*
X110928571Y-32380790D01*
X110928571Y-32380790D02*
X110833333Y-32333171D01*
X110833333Y-32333171D02*
X110595238Y-32333171D01*
X110595238Y-32333171D02*
X110500000Y-32380790D01*
X110500000Y-32380790D02*
X110452381Y-32428409D01*
X110452381Y-32428409D02*
X110404762Y-32523647D01*
X110404762Y-32523647D02*
X110404762Y-32761742D01*
X110404762Y-32761742D02*
X110452381Y-32856980D01*
X110452381Y-32856980D02*
X110500000Y-32904600D01*
X110500000Y-32904600D02*
X110595238Y-32952219D01*
X110595238Y-32952219D02*
X110833333Y-32952219D01*
X110833333Y-32952219D02*
X110928571Y-32904600D01*
X110928571Y-32904600D02*
X110976190Y-32856980D01*
X110071428Y-31952219D02*
X109452381Y-31952219D01*
X109452381Y-31952219D02*
X109785714Y-32333171D01*
X109785714Y-32333171D02*
X109642857Y-32333171D01*
X109642857Y-32333171D02*
X109547619Y-32380790D01*
X109547619Y-32380790D02*
X109500000Y-32428409D01*
X109500000Y-32428409D02*
X109452381Y-32523647D01*
X109452381Y-32523647D02*
X109452381Y-32761742D01*
X109452381Y-32761742D02*
X109500000Y-32856980D01*
X109500000Y-32856980D02*
X109547619Y-32904600D01*
X109547619Y-32904600D02*
X109642857Y-32952219D01*
X109642857Y-32952219D02*
X109928571Y-32952219D01*
X109928571Y-32952219D02*
X110023809Y-32904600D01*
X110023809Y-32904600D02*
X110071428Y-32856980D01*
X108833333Y-31952219D02*
X108738095Y-31952219D01*
X108738095Y-31952219D02*
X108642857Y-31999838D01*
X108642857Y-31999838D02*
X108595238Y-32047457D01*
X108595238Y-32047457D02*
X108547619Y-32142695D01*
X108547619Y-32142695D02*
X108500000Y-32333171D01*
X108500000Y-32333171D02*
X108500000Y-32571266D01*
X108500000Y-32571266D02*
X108547619Y-32761742D01*
X108547619Y-32761742D02*
X108595238Y-32856980D01*
X108595238Y-32856980D02*
X108642857Y-32904600D01*
X108642857Y-32904600D02*
X108738095Y-32952219D01*
X108738095Y-32952219D02*
X108833333Y-32952219D01*
X108833333Y-32952219D02*
X108928571Y-32904600D01*
X108928571Y-32904600D02*
X108976190Y-32856980D01*
X108976190Y-32856980D02*
X109023809Y-32761742D01*
X109023809Y-32761742D02*
X109071428Y-32571266D01*
X109071428Y-32571266D02*
X109071428Y-32333171D01*
X109071428Y-32333171D02*
X109023809Y-32142695D01*
X109023809Y-32142695D02*
X108976190Y-32047457D01*
X108976190Y-32047457D02*
X108928571Y-31999838D01*
X108928571Y-31999838D02*
X108833333Y-31952219D01*
X107642857Y-31952219D02*
X107833333Y-31952219D01*
X107833333Y-31952219D02*
X107928571Y-31999838D01*
X107928571Y-31999838D02*
X107976190Y-32047457D01*
X107976190Y-32047457D02*
X108071428Y-32190314D01*
X108071428Y-32190314D02*
X108119047Y-32380790D01*
X108119047Y-32380790D02*
X108119047Y-32761742D01*
X108119047Y-32761742D02*
X108071428Y-32856980D01*
X108071428Y-32856980D02*
X108023809Y-32904600D01*
X108023809Y-32904600D02*
X107928571Y-32952219D01*
X107928571Y-32952219D02*
X107738095Y-32952219D01*
X107738095Y-32952219D02*
X107642857Y-32904600D01*
X107642857Y-32904600D02*
X107595238Y-32856980D01*
X107595238Y-32856980D02*
X107547619Y-32761742D01*
X107547619Y-32761742D02*
X107547619Y-32523647D01*
X107547619Y-32523647D02*
X107595238Y-32428409D01*
X107595238Y-32428409D02*
X107642857Y-32380790D01*
X107642857Y-32380790D02*
X107738095Y-32333171D01*
X107738095Y-32333171D02*
X107928571Y-32333171D01*
X107928571Y-32333171D02*
X108023809Y-32380790D01*
X108023809Y-32380790D02*
X108071428Y-32428409D01*
X108071428Y-32428409D02*
X108119047Y-32523647D01*
X136190475Y-52666504D02*
X135714285Y-52666504D01*
X136285713Y-52952219D02*
X135952380Y-51952219D01*
X135952380Y-51952219D02*
X135619047Y-52952219D01*
X135285713Y-52952219D02*
X135285713Y-51952219D01*
X135285713Y-51952219D02*
X134952380Y-52666504D01*
X134952380Y-52666504D02*
X134619047Y-51952219D01*
X134619047Y-51952219D02*
X134619047Y-52952219D01*
X134190475Y-52904600D02*
X134047618Y-52952219D01*
X134047618Y-52952219D02*
X133809523Y-52952219D01*
X133809523Y-52952219D02*
X133714285Y-52904600D01*
X133714285Y-52904600D02*
X133666666Y-52856980D01*
X133666666Y-52856980D02*
X133619047Y-52761742D01*
X133619047Y-52761742D02*
X133619047Y-52666504D01*
X133619047Y-52666504D02*
X133666666Y-52571266D01*
X133666666Y-52571266D02*
X133714285Y-52523647D01*
X133714285Y-52523647D02*
X133809523Y-52476028D01*
X133809523Y-52476028D02*
X133999999Y-52428409D01*
X133999999Y-52428409D02*
X134095237Y-52380790D01*
X134095237Y-52380790D02*
X134142856Y-52333171D01*
X134142856Y-52333171D02*
X134190475Y-52237933D01*
X134190475Y-52237933D02*
X134190475Y-52142695D01*
X134190475Y-52142695D02*
X134142856Y-52047457D01*
X134142856Y-52047457D02*
X134095237Y-51999838D01*
X134095237Y-51999838D02*
X133999999Y-51952219D01*
X133999999Y-51952219D02*
X133761904Y-51952219D01*
X133761904Y-51952219D02*
X133619047Y-51999838D01*
X132666666Y-52952219D02*
X133238094Y-52952219D01*
X132952380Y-52952219D02*
X132952380Y-51952219D01*
X132952380Y-51952219D02*
X133047618Y-52095076D01*
X133047618Y-52095076D02*
X133142856Y-52190314D01*
X133142856Y-52190314D02*
X133238094Y-52237933D01*
X131714285Y-52952219D02*
X132285713Y-52952219D01*
X131999999Y-52952219D02*
X131999999Y-51952219D01*
X131999999Y-51952219D02*
X132095237Y-52095076D01*
X132095237Y-52095076D02*
X132190475Y-52190314D01*
X132190475Y-52190314D02*
X132285713Y-52237933D01*
X130761904Y-52952219D02*
X131333332Y-52952219D01*
X131047618Y-52952219D02*
X131047618Y-51952219D01*
X131047618Y-51952219D02*
X131142856Y-52095076D01*
X131142856Y-52095076D02*
X131238094Y-52190314D01*
X131238094Y-52190314D02*
X131333332Y-52237933D01*
X130428570Y-51952219D02*
X129761904Y-51952219D01*
X129761904Y-51952219D02*
X130190475Y-52952219D01*
X33166666Y-24952219D02*
X33166666Y-23952219D01*
X33166666Y-23952219D02*
X32785714Y-23952219D01*
X32785714Y-23952219D02*
X32690476Y-23999838D01*
X32690476Y-23999838D02*
X32642857Y-24047457D01*
X32642857Y-24047457D02*
X32595238Y-24142695D01*
X32595238Y-24142695D02*
X32595238Y-24285552D01*
X32595238Y-24285552D02*
X32642857Y-24380790D01*
X32642857Y-24380790D02*
X32690476Y-24428409D01*
X32690476Y-24428409D02*
X32785714Y-24476028D01*
X32785714Y-24476028D02*
X33166666Y-24476028D01*
X32214285Y-24666504D02*
X31738095Y-24666504D01*
X32309523Y-24952219D02*
X31976190Y-23952219D01*
X31976190Y-23952219D02*
X31642857Y-24952219D01*
X31309523Y-24952219D02*
X31309523Y-23952219D01*
X31309523Y-23952219D02*
X30976190Y-24666504D01*
X30976190Y-24666504D02*
X30642857Y-23952219D01*
X30642857Y-23952219D02*
X30642857Y-24952219D01*
X30023809Y-24380790D02*
X30119047Y-24333171D01*
X30119047Y-24333171D02*
X30166666Y-24285552D01*
X30166666Y-24285552D02*
X30214285Y-24190314D01*
X30214285Y-24190314D02*
X30214285Y-24142695D01*
X30214285Y-24142695D02*
X30166666Y-24047457D01*
X30166666Y-24047457D02*
X30119047Y-23999838D01*
X30119047Y-23999838D02*
X30023809Y-23952219D01*
X30023809Y-23952219D02*
X29833333Y-23952219D01*
X29833333Y-23952219D02*
X29738095Y-23999838D01*
X29738095Y-23999838D02*
X29690476Y-24047457D01*
X29690476Y-24047457D02*
X29642857Y-24142695D01*
X29642857Y-24142695D02*
X29642857Y-24190314D01*
X29642857Y-24190314D02*
X29690476Y-24285552D01*
X29690476Y-24285552D02*
X29738095Y-24333171D01*
X29738095Y-24333171D02*
X29833333Y-24380790D01*
X29833333Y-24380790D02*
X30023809Y-24380790D01*
X30023809Y-24380790D02*
X30119047Y-24428409D01*
X30119047Y-24428409D02*
X30166666Y-24476028D01*
X30166666Y-24476028D02*
X30214285Y-24571266D01*
X30214285Y-24571266D02*
X30214285Y-24761742D01*
X30214285Y-24761742D02*
X30166666Y-24856980D01*
X30166666Y-24856980D02*
X30119047Y-24904600D01*
X30119047Y-24904600D02*
X30023809Y-24952219D01*
X30023809Y-24952219D02*
X29833333Y-24952219D01*
X29833333Y-24952219D02*
X29738095Y-24904600D01*
X29738095Y-24904600D02*
X29690476Y-24856980D01*
X29690476Y-24856980D02*
X29642857Y-24761742D01*
X29642857Y-24761742D02*
X29642857Y-24571266D01*
X29642857Y-24571266D02*
X29690476Y-24476028D01*
X29690476Y-24476028D02*
X29738095Y-24428409D01*
X29738095Y-24428409D02*
X29833333Y-24380790D01*
X28785714Y-24285552D02*
X28785714Y-24952219D01*
X29023809Y-23904600D02*
X29261904Y-24618885D01*
X29261904Y-24618885D02*
X28642857Y-24618885D01*
X28071428Y-23952219D02*
X27976190Y-23952219D01*
X27976190Y-23952219D02*
X27880952Y-23999838D01*
X27880952Y-23999838D02*
X27833333Y-24047457D01*
X27833333Y-24047457D02*
X27785714Y-24142695D01*
X27785714Y-24142695D02*
X27738095Y-24333171D01*
X27738095Y-24333171D02*
X27738095Y-24571266D01*
X27738095Y-24571266D02*
X27785714Y-24761742D01*
X27785714Y-24761742D02*
X27833333Y-24856980D01*
X27833333Y-24856980D02*
X27880952Y-24904600D01*
X27880952Y-24904600D02*
X27976190Y-24952219D01*
X27976190Y-24952219D02*
X28071428Y-24952219D01*
X28071428Y-24952219D02*
X28166666Y-24904600D01*
X28166666Y-24904600D02*
X28214285Y-24856980D01*
X28214285Y-24856980D02*
X28261904Y-24761742D01*
X28261904Y-24761742D02*
X28309523Y-24571266D01*
X28309523Y-24571266D02*
X28309523Y-24333171D01*
X28309523Y-24333171D02*
X28261904Y-24142695D01*
X28261904Y-24142695D02*
X28214285Y-24047457D01*
X28214285Y-24047457D02*
X28166666Y-23999838D01*
X28166666Y-23999838D02*
X28071428Y-23952219D01*
X27404761Y-23952219D02*
X26785714Y-23952219D01*
X26785714Y-23952219D02*
X27119047Y-24333171D01*
X27119047Y-24333171D02*
X26976190Y-24333171D01*
X26976190Y-24333171D02*
X26880952Y-24380790D01*
X26880952Y-24380790D02*
X26833333Y-24428409D01*
X26833333Y-24428409D02*
X26785714Y-24523647D01*
X26785714Y-24523647D02*
X26785714Y-24761742D01*
X26785714Y-24761742D02*
X26833333Y-24856980D01*
X26833333Y-24856980D02*
X26880952Y-24904600D01*
X26880952Y-24904600D02*
X26976190Y-24952219D01*
X26976190Y-24952219D02*
X27261904Y-24952219D01*
X27261904Y-24952219D02*
X27357142Y-24904600D01*
X27357142Y-24904600D02*
X27404761Y-24856980D01*
X82380951Y-64652219D02*
X82380951Y-65461742D01*
X82380951Y-65461742D02*
X82333332Y-65556980D01*
X82333332Y-65556980D02*
X82285713Y-65604600D01*
X82285713Y-65604600D02*
X82190475Y-65652219D01*
X82190475Y-65652219D02*
X81999999Y-65652219D01*
X81999999Y-65652219D02*
X81904761Y-65604600D01*
X81904761Y-65604600D02*
X81857142Y-65556980D01*
X81857142Y-65556980D02*
X81809523Y-65461742D01*
X81809523Y-65461742D02*
X81809523Y-64652219D01*
X81380951Y-65604600D02*
X81238094Y-65652219D01*
X81238094Y-65652219D02*
X80999999Y-65652219D01*
X80999999Y-65652219D02*
X80904761Y-65604600D01*
X80904761Y-65604600D02*
X80857142Y-65556980D01*
X80857142Y-65556980D02*
X80809523Y-65461742D01*
X80809523Y-65461742D02*
X80809523Y-65366504D01*
X80809523Y-65366504D02*
X80857142Y-65271266D01*
X80857142Y-65271266D02*
X80904761Y-65223647D01*
X80904761Y-65223647D02*
X80999999Y-65176028D01*
X80999999Y-65176028D02*
X81190475Y-65128409D01*
X81190475Y-65128409D02*
X81285713Y-65080790D01*
X81285713Y-65080790D02*
X81333332Y-65033171D01*
X81333332Y-65033171D02*
X81380951Y-64937933D01*
X81380951Y-64937933D02*
X81380951Y-64842695D01*
X81380951Y-64842695D02*
X81333332Y-64747457D01*
X81333332Y-64747457D02*
X81285713Y-64699838D01*
X81285713Y-64699838D02*
X81190475Y-64652219D01*
X81190475Y-64652219D02*
X80952380Y-64652219D01*
X80952380Y-64652219D02*
X80809523Y-64699838D01*
X80047618Y-65128409D02*
X79904761Y-65176028D01*
X79904761Y-65176028D02*
X79857142Y-65223647D01*
X79857142Y-65223647D02*
X79809523Y-65318885D01*
X79809523Y-65318885D02*
X79809523Y-65461742D01*
X79809523Y-65461742D02*
X79857142Y-65556980D01*
X79857142Y-65556980D02*
X79904761Y-65604600D01*
X79904761Y-65604600D02*
X79999999Y-65652219D01*
X79999999Y-65652219D02*
X80380951Y-65652219D01*
X80380951Y-65652219D02*
X80380951Y-64652219D01*
X80380951Y-64652219D02*
X80047618Y-64652219D01*
X80047618Y-64652219D02*
X79952380Y-64699838D01*
X79952380Y-64699838D02*
X79904761Y-64747457D01*
X79904761Y-64747457D02*
X79857142Y-64842695D01*
X79857142Y-64842695D02*
X79857142Y-64937933D01*
X79857142Y-64937933D02*
X79904761Y-65033171D01*
X79904761Y-65033171D02*
X79952380Y-65080790D01*
X79952380Y-65080790D02*
X80047618Y-65128409D01*
X80047618Y-65128409D02*
X80380951Y-65128409D01*
X79380951Y-65271266D02*
X78619047Y-65271266D01*
X77571428Y-65556980D02*
X77619047Y-65604600D01*
X77619047Y-65604600D02*
X77761904Y-65652219D01*
X77761904Y-65652219D02*
X77857142Y-65652219D01*
X77857142Y-65652219D02*
X77999999Y-65604600D01*
X77999999Y-65604600D02*
X78095237Y-65509361D01*
X78095237Y-65509361D02*
X78142856Y-65414123D01*
X78142856Y-65414123D02*
X78190475Y-65223647D01*
X78190475Y-65223647D02*
X78190475Y-65080790D01*
X78190475Y-65080790D02*
X78142856Y-64890314D01*
X78142856Y-64890314D02*
X78095237Y-64795076D01*
X78095237Y-64795076D02*
X77999999Y-64699838D01*
X77999999Y-64699838D02*
X77857142Y-64652219D01*
X77857142Y-64652219D02*
X77761904Y-64652219D01*
X77761904Y-64652219D02*
X77619047Y-64699838D01*
X77619047Y-64699838D02*
X77571428Y-64747457D01*
X140785713Y-59404600D02*
X140642856Y-59452219D01*
X140642856Y-59452219D02*
X140404761Y-59452219D01*
X140404761Y-59452219D02*
X140309523Y-59404600D01*
X140309523Y-59404600D02*
X140261904Y-59356980D01*
X140261904Y-59356980D02*
X140214285Y-59261742D01*
X140214285Y-59261742D02*
X140214285Y-59166504D01*
X140214285Y-59166504D02*
X140261904Y-59071266D01*
X140261904Y-59071266D02*
X140309523Y-59023647D01*
X140309523Y-59023647D02*
X140404761Y-58976028D01*
X140404761Y-58976028D02*
X140595237Y-58928409D01*
X140595237Y-58928409D02*
X140690475Y-58880790D01*
X140690475Y-58880790D02*
X140738094Y-58833171D01*
X140738094Y-58833171D02*
X140785713Y-58737933D01*
X140785713Y-58737933D02*
X140785713Y-58642695D01*
X140785713Y-58642695D02*
X140738094Y-58547457D01*
X140738094Y-58547457D02*
X140690475Y-58499838D01*
X140690475Y-58499838D02*
X140595237Y-58452219D01*
X140595237Y-58452219D02*
X140357142Y-58452219D01*
X140357142Y-58452219D02*
X140214285Y-58499838D01*
X139785713Y-59452219D02*
X139785713Y-58452219D01*
X139785713Y-58452219D02*
X139547618Y-58452219D01*
X139547618Y-58452219D02*
X139404761Y-58499838D01*
X139404761Y-58499838D02*
X139309523Y-58595076D01*
X139309523Y-58595076D02*
X139261904Y-58690314D01*
X139261904Y-58690314D02*
X139214285Y-58880790D01*
X139214285Y-58880790D02*
X139214285Y-59023647D01*
X139214285Y-59023647D02*
X139261904Y-59214123D01*
X139261904Y-59214123D02*
X139309523Y-59309361D01*
X139309523Y-59309361D02*
X139404761Y-59404600D01*
X139404761Y-59404600D02*
X139547618Y-59452219D01*
X139547618Y-59452219D02*
X139785713Y-59452219D01*
X81119047Y-57428409D02*
X80976190Y-57476028D01*
X80976190Y-57476028D02*
X80928571Y-57523647D01*
X80928571Y-57523647D02*
X80880952Y-57618885D01*
X80880952Y-57618885D02*
X80880952Y-57761742D01*
X80880952Y-57761742D02*
X80928571Y-57856980D01*
X80928571Y-57856980D02*
X80976190Y-57904600D01*
X80976190Y-57904600D02*
X81071428Y-57952219D01*
X81071428Y-57952219D02*
X81452380Y-57952219D01*
X81452380Y-57952219D02*
X81452380Y-56952219D01*
X81452380Y-56952219D02*
X81119047Y-56952219D01*
X81119047Y-56952219D02*
X81023809Y-56999838D01*
X81023809Y-56999838D02*
X80976190Y-57047457D01*
X80976190Y-57047457D02*
X80928571Y-57142695D01*
X80928571Y-57142695D02*
X80928571Y-57237933D01*
X80928571Y-57237933D02*
X80976190Y-57333171D01*
X80976190Y-57333171D02*
X81023809Y-57380790D01*
X81023809Y-57380790D02*
X81119047Y-57428409D01*
X81119047Y-57428409D02*
X81452380Y-57428409D01*
X80499999Y-57666504D02*
X80023809Y-57666504D01*
X80595237Y-57952219D02*
X80261904Y-56952219D01*
X80261904Y-56952219D02*
X79928571Y-57952219D01*
X79738094Y-56952219D02*
X79166666Y-56952219D01*
X79452380Y-57952219D02*
X79452380Y-56952219D01*
X78976189Y-56952219D02*
X78404761Y-56952219D01*
X78690475Y-57952219D02*
X78690475Y-56952219D01*
X135690476Y-21952219D02*
X136166666Y-21952219D01*
X136166666Y-21952219D02*
X136166666Y-20952219D01*
X134785714Y-21856980D02*
X134833333Y-21904600D01*
X134833333Y-21904600D02*
X134976190Y-21952219D01*
X134976190Y-21952219D02*
X135071428Y-21952219D01*
X135071428Y-21952219D02*
X135214285Y-21904600D01*
X135214285Y-21904600D02*
X135309523Y-21809361D01*
X135309523Y-21809361D02*
X135357142Y-21714123D01*
X135357142Y-21714123D02*
X135404761Y-21523647D01*
X135404761Y-21523647D02*
X135404761Y-21380790D01*
X135404761Y-21380790D02*
X135357142Y-21190314D01*
X135357142Y-21190314D02*
X135309523Y-21095076D01*
X135309523Y-21095076D02*
X135214285Y-20999838D01*
X135214285Y-20999838D02*
X135071428Y-20952219D01*
X135071428Y-20952219D02*
X134976190Y-20952219D01*
X134976190Y-20952219D02*
X134833333Y-20999838D01*
X134833333Y-20999838D02*
X134785714Y-21047457D01*
X134357142Y-21952219D02*
X134357142Y-20952219D01*
X134357142Y-20952219D02*
X134119047Y-20952219D01*
X134119047Y-20952219D02*
X133976190Y-20999838D01*
X133976190Y-20999838D02*
X133880952Y-21095076D01*
X133880952Y-21095076D02*
X133833333Y-21190314D01*
X133833333Y-21190314D02*
X133785714Y-21380790D01*
X133785714Y-21380790D02*
X133785714Y-21523647D01*
X133785714Y-21523647D02*
X133833333Y-21714123D01*
X133833333Y-21714123D02*
X133880952Y-21809361D01*
X133880952Y-21809361D02*
X133976190Y-21904600D01*
X133976190Y-21904600D02*
X134119047Y-21952219D01*
X134119047Y-21952219D02*
X134357142Y-21952219D01*
X41333332Y-67452219D02*
X41333332Y-66452219D01*
X41333332Y-66452219D02*
X40952380Y-66452219D01*
X40952380Y-66452219D02*
X40857142Y-66499838D01*
X40857142Y-66499838D02*
X40809523Y-66547457D01*
X40809523Y-66547457D02*
X40761904Y-66642695D01*
X40761904Y-66642695D02*
X40761904Y-66785552D01*
X40761904Y-66785552D02*
X40809523Y-66880790D01*
X40809523Y-66880790D02*
X40857142Y-66928409D01*
X40857142Y-66928409D02*
X40952380Y-66976028D01*
X40952380Y-66976028D02*
X41333332Y-66976028D01*
X40428570Y-66452219D02*
X40190475Y-67452219D01*
X40190475Y-67452219D02*
X39999999Y-66737933D01*
X39999999Y-66737933D02*
X39809523Y-67452219D01*
X39809523Y-67452219D02*
X39571428Y-66452219D01*
X38619047Y-67452219D02*
X38952380Y-66976028D01*
X39190475Y-67452219D02*
X39190475Y-66452219D01*
X39190475Y-66452219D02*
X38809523Y-66452219D01*
X38809523Y-66452219D02*
X38714285Y-66499838D01*
X38714285Y-66499838D02*
X38666666Y-66547457D01*
X38666666Y-66547457D02*
X38619047Y-66642695D01*
X38619047Y-66642695D02*
X38619047Y-66785552D01*
X38619047Y-66785552D02*
X38666666Y-66880790D01*
X38666666Y-66880790D02*
X38714285Y-66928409D01*
X38714285Y-66928409D02*
X38809523Y-66976028D01*
X38809523Y-66976028D02*
X39190475Y-66976028D01*
X33119047Y-52904600D02*
X32976190Y-52952219D01*
X32976190Y-52952219D02*
X32738095Y-52952219D01*
X32738095Y-52952219D02*
X32642857Y-52904600D01*
X32642857Y-52904600D02*
X32595238Y-52856980D01*
X32595238Y-52856980D02*
X32547619Y-52761742D01*
X32547619Y-52761742D02*
X32547619Y-52666504D01*
X32547619Y-52666504D02*
X32595238Y-52571266D01*
X32595238Y-52571266D02*
X32642857Y-52523647D01*
X32642857Y-52523647D02*
X32738095Y-52476028D01*
X32738095Y-52476028D02*
X32928571Y-52428409D01*
X32928571Y-52428409D02*
X33023809Y-52380790D01*
X33023809Y-52380790D02*
X33071428Y-52333171D01*
X33071428Y-52333171D02*
X33119047Y-52237933D01*
X33119047Y-52237933D02*
X33119047Y-52142695D01*
X33119047Y-52142695D02*
X33071428Y-52047457D01*
X33071428Y-52047457D02*
X33023809Y-51999838D01*
X33023809Y-51999838D02*
X32928571Y-51952219D01*
X32928571Y-51952219D02*
X32690476Y-51952219D01*
X32690476Y-51952219D02*
X32547619Y-51999838D01*
X32119047Y-52952219D02*
X32119047Y-51952219D01*
X32119047Y-51952219D02*
X31738095Y-51952219D01*
X31738095Y-51952219D02*
X31642857Y-51999838D01*
X31642857Y-51999838D02*
X31595238Y-52047457D01*
X31595238Y-52047457D02*
X31547619Y-52142695D01*
X31547619Y-52142695D02*
X31547619Y-52285552D01*
X31547619Y-52285552D02*
X31595238Y-52380790D01*
X31595238Y-52380790D02*
X31642857Y-52428409D01*
X31642857Y-52428409D02*
X31738095Y-52476028D01*
X31738095Y-52476028D02*
X32119047Y-52476028D01*
X31119047Y-52428409D02*
X30785714Y-52428409D01*
X30642857Y-52952219D02*
X31119047Y-52952219D01*
X31119047Y-52952219D02*
X31119047Y-51952219D01*
X31119047Y-51952219D02*
X30642857Y-51952219D01*
X30261904Y-52666504D02*
X29785714Y-52666504D01*
X30357142Y-52952219D02*
X30023809Y-51952219D01*
X30023809Y-51952219D02*
X29690476Y-52952219D01*
X29357142Y-52952219D02*
X29357142Y-51952219D01*
X28785714Y-52952219D02*
X29214285Y-52380790D01*
X28785714Y-51952219D02*
X29357142Y-52523647D01*
X28357142Y-52428409D02*
X28023809Y-52428409D01*
X27880952Y-52952219D02*
X28357142Y-52952219D01*
X28357142Y-52952219D02*
X28357142Y-51952219D01*
X28357142Y-51952219D02*
X27880952Y-51952219D01*
X26880952Y-52952219D02*
X27214285Y-52476028D01*
X27452380Y-52952219D02*
X27452380Y-51952219D01*
X27452380Y-51952219D02*
X27071428Y-51952219D01*
X27071428Y-51952219D02*
X26976190Y-51999838D01*
X26976190Y-51999838D02*
X26928571Y-52047457D01*
X26928571Y-52047457D02*
X26880952Y-52142695D01*
X26880952Y-52142695D02*
X26880952Y-52285552D01*
X26880952Y-52285552D02*
X26928571Y-52380790D01*
X26928571Y-52380790D02*
X26976190Y-52428409D01*
X26976190Y-52428409D02*
X27071428Y-52476028D01*
X27071428Y-52476028D02*
X27452380Y-52476028D01*
X14690476Y-10952219D02*
X15166666Y-10952219D01*
X15166666Y-10952219D02*
X15166666Y-9952219D01*
X144690476Y-10952219D02*
X145023809Y-10476028D01*
X145261904Y-10952219D02*
X145261904Y-9952219D01*
X145261904Y-9952219D02*
X144880952Y-9952219D01*
X144880952Y-9952219D02*
X144785714Y-9999838D01*
X144785714Y-9999838D02*
X144738095Y-10047457D01*
X144738095Y-10047457D02*
X144690476Y-10142695D01*
X144690476Y-10142695D02*
X144690476Y-10285552D01*
X144690476Y-10285552D02*
X144738095Y-10380790D01*
X144738095Y-10380790D02*
X144785714Y-10428409D01*
X144785714Y-10428409D02*
X144880952Y-10476028D01*
X144880952Y-10476028D02*
X145261904Y-10476028D01*
X86857142Y-3430457D02*
X86914285Y-3487600D01*
X86914285Y-3487600D02*
X87085713Y-3544742D01*
X87085713Y-3544742D02*
X87199999Y-3544742D01*
X87199999Y-3544742D02*
X87371428Y-3487600D01*
X87371428Y-3487600D02*
X87485713Y-3373314D01*
X87485713Y-3373314D02*
X87542856Y-3259028D01*
X87542856Y-3259028D02*
X87599999Y-3030457D01*
X87599999Y-3030457D02*
X87599999Y-2859028D01*
X87599999Y-2859028D02*
X87542856Y-2630457D01*
X87542856Y-2630457D02*
X87485713Y-2516171D01*
X87485713Y-2516171D02*
X87371428Y-2401885D01*
X87371428Y-2401885D02*
X87199999Y-2344742D01*
X87199999Y-2344742D02*
X87085713Y-2344742D01*
X87085713Y-2344742D02*
X86914285Y-2401885D01*
X86914285Y-2401885D02*
X86857142Y-2459028D01*
X86342856Y-3544742D02*
X86342856Y-2344742D01*
X86342856Y-2344742D02*
X85885713Y-2344742D01*
X85885713Y-2344742D02*
X85771428Y-2401885D01*
X85771428Y-2401885D02*
X85714285Y-2459028D01*
X85714285Y-2459028D02*
X85657142Y-2573314D01*
X85657142Y-2573314D02*
X85657142Y-2744742D01*
X85657142Y-2744742D02*
X85714285Y-2859028D01*
X85714285Y-2859028D02*
X85771428Y-2916171D01*
X85771428Y-2916171D02*
X85885713Y-2973314D01*
X85885713Y-2973314D02*
X86342856Y-2973314D01*
X84799999Y-2344742D02*
X84799999Y-3201885D01*
X84799999Y-3201885D02*
X84857142Y-3373314D01*
X84857142Y-3373314D02*
X84971428Y-3487600D01*
X84971428Y-3487600D02*
X85142856Y-3544742D01*
X85142856Y-3544742D02*
X85257142Y-3544742D01*
X83257142Y-3544742D02*
X83314285Y-3544742D01*
X83314285Y-3544742D02*
X83428570Y-3487600D01*
X83428570Y-3487600D02*
X83599999Y-3316171D01*
X83599999Y-3316171D02*
X83885713Y-2973314D01*
X83885713Y-2973314D02*
X83999999Y-2801885D01*
X83999999Y-2801885D02*
X84057142Y-2630457D01*
X84057142Y-2630457D02*
X84057142Y-2516171D01*
X84057142Y-2516171D02*
X83999999Y-2401885D01*
X83999999Y-2401885D02*
X83885713Y-2344742D01*
X83885713Y-2344742D02*
X83828570Y-2344742D01*
X83828570Y-2344742D02*
X83714285Y-2401885D01*
X83714285Y-2401885D02*
X83657142Y-2516171D01*
X83657142Y-2516171D02*
X83657142Y-2573314D01*
X83657142Y-2573314D02*
X83714285Y-2687600D01*
X83714285Y-2687600D02*
X83771427Y-2744742D01*
X83771427Y-2744742D02*
X84114285Y-2973314D01*
X84114285Y-2973314D02*
X84171427Y-3030457D01*
X84171427Y-3030457D02*
X84228570Y-3144742D01*
X84228570Y-3144742D02*
X84228570Y-3316171D01*
X84228570Y-3316171D02*
X84171427Y-3430457D01*
X84171427Y-3430457D02*
X84114285Y-3487600D01*
X84114285Y-3487600D02*
X83999999Y-3544742D01*
X83999999Y-3544742D02*
X83828570Y-3544742D01*
X83828570Y-3544742D02*
X83714285Y-3487600D01*
X83714285Y-3487600D02*
X83657142Y-3430457D01*
X83657142Y-3430457D02*
X83485713Y-3201885D01*
X83485713Y-3201885D02*
X83428570Y-3030457D01*
X83428570Y-3030457D02*
X83428570Y-2916171D01*
X82057142Y-3430457D02*
X82114285Y-3487600D01*
X82114285Y-3487600D02*
X82285713Y-3544742D01*
X82285713Y-3544742D02*
X82399999Y-3544742D01*
X82399999Y-3544742D02*
X82571428Y-3487600D01*
X82571428Y-3487600D02*
X82685713Y-3373314D01*
X82685713Y-3373314D02*
X82742856Y-3259028D01*
X82742856Y-3259028D02*
X82799999Y-3030457D01*
X82799999Y-3030457D02*
X82799999Y-2859028D01*
X82799999Y-2859028D02*
X82742856Y-2630457D01*
X82742856Y-2630457D02*
X82685713Y-2516171D01*
X82685713Y-2516171D02*
X82571428Y-2401885D01*
X82571428Y-2401885D02*
X82399999Y-2344742D01*
X82399999Y-2344742D02*
X82285713Y-2344742D01*
X82285713Y-2344742D02*
X82114285Y-2401885D01*
X82114285Y-2401885D02*
X82057142Y-2459028D01*
X81542856Y-3544742D02*
X81542856Y-2344742D01*
X81542856Y-2344742D02*
X81085713Y-2344742D01*
X81085713Y-2344742D02*
X80971428Y-2401885D01*
X80971428Y-2401885D02*
X80914285Y-2459028D01*
X80914285Y-2459028D02*
X80857142Y-2573314D01*
X80857142Y-2573314D02*
X80857142Y-2744742D01*
X80857142Y-2744742D02*
X80914285Y-2859028D01*
X80914285Y-2859028D02*
X80971428Y-2916171D01*
X80971428Y-2916171D02*
X81085713Y-2973314D01*
X81085713Y-2973314D02*
X81542856Y-2973314D01*
X79485713Y-2459028D02*
X79428570Y-2401885D01*
X79428570Y-2401885D02*
X79314285Y-2344742D01*
X79314285Y-2344742D02*
X79028570Y-2344742D01*
X79028570Y-2344742D02*
X78914285Y-2401885D01*
X78914285Y-2401885D02*
X78857142Y-2459028D01*
X78857142Y-2459028D02*
X78799999Y-2573314D01*
X78799999Y-2573314D02*
X78799999Y-2687600D01*
X78799999Y-2687600D02*
X78857142Y-2859028D01*
X78857142Y-2859028D02*
X79542856Y-3544742D01*
X79542856Y-3544742D02*
X78799999Y-3544742D01*
X78057142Y-2344742D02*
X77942856Y-2344742D01*
X77942856Y-2344742D02*
X77828570Y-2401885D01*
X77828570Y-2401885D02*
X77771428Y-2459028D01*
X77771428Y-2459028D02*
X77714285Y-2573314D01*
X77714285Y-2573314D02*
X77657142Y-2801885D01*
X77657142Y-2801885D02*
X77657142Y-3087600D01*
X77657142Y-3087600D02*
X77714285Y-3316171D01*
X77714285Y-3316171D02*
X77771428Y-3430457D01*
X77771428Y-3430457D02*
X77828570Y-3487600D01*
X77828570Y-3487600D02*
X77942856Y-3544742D01*
X77942856Y-3544742D02*
X78057142Y-3544742D01*
X78057142Y-3544742D02*
X78171428Y-3487600D01*
X78171428Y-3487600D02*
X78228570Y-3430457D01*
X78228570Y-3430457D02*
X78285713Y-3316171D01*
X78285713Y-3316171D02*
X78342856Y-3087600D01*
X78342856Y-3087600D02*
X78342856Y-2801885D01*
X78342856Y-2801885D02*
X78285713Y-2573314D01*
X78285713Y-2573314D02*
X78228570Y-2459028D01*
X78228570Y-2459028D02*
X78171428Y-2401885D01*
X78171428Y-2401885D02*
X78057142Y-2344742D01*
X77199999Y-2459028D02*
X77142856Y-2401885D01*
X77142856Y-2401885D02*
X77028571Y-2344742D01*
X77028571Y-2344742D02*
X76742856Y-2344742D01*
X76742856Y-2344742D02*
X76628571Y-2401885D01*
X76628571Y-2401885D02*
X76571428Y-2459028D01*
X76571428Y-2459028D02*
X76514285Y-2573314D01*
X76514285Y-2573314D02*
X76514285Y-2687600D01*
X76514285Y-2687600D02*
X76571428Y-2859028D01*
X76571428Y-2859028D02*
X77257142Y-3544742D01*
X77257142Y-3544742D02*
X76514285Y-3544742D01*
X75485714Y-2344742D02*
X75714285Y-2344742D01*
X75714285Y-2344742D02*
X75828571Y-2401885D01*
X75828571Y-2401885D02*
X75885714Y-2459028D01*
X75885714Y-2459028D02*
X75999999Y-2630457D01*
X75999999Y-2630457D02*
X76057142Y-2859028D01*
X76057142Y-2859028D02*
X76057142Y-3316171D01*
X76057142Y-3316171D02*
X75999999Y-3430457D01*
X75999999Y-3430457D02*
X75942856Y-3487600D01*
X75942856Y-3487600D02*
X75828571Y-3544742D01*
X75828571Y-3544742D02*
X75599999Y-3544742D01*
X75599999Y-3544742D02*
X75485714Y-3487600D01*
X75485714Y-3487600D02*
X75428571Y-3430457D01*
X75428571Y-3430457D02*
X75371428Y-3316171D01*
X75371428Y-3316171D02*
X75371428Y-3030457D01*
X75371428Y-3030457D02*
X75428571Y-2916171D01*
X75428571Y-2916171D02*
X75485714Y-2859028D01*
X75485714Y-2859028D02*
X75599999Y-2801885D01*
X75599999Y-2801885D02*
X75828571Y-2801885D01*
X75828571Y-2801885D02*
X75942856Y-2859028D01*
X75942856Y-2859028D02*
X75999999Y-2916171D01*
X75999999Y-2916171D02*
X76057142Y-3030457D01*
X74057142Y-2744742D02*
X73771428Y-3544742D01*
X73771428Y-3544742D02*
X73485713Y-2744742D01*
X73085713Y-2459028D02*
X73028570Y-2401885D01*
X73028570Y-2401885D02*
X72914285Y-2344742D01*
X72914285Y-2344742D02*
X72628570Y-2344742D01*
X72628570Y-2344742D02*
X72514285Y-2401885D01*
X72514285Y-2401885D02*
X72457142Y-2459028D01*
X72457142Y-2459028D02*
X72399999Y-2573314D01*
X72399999Y-2573314D02*
X72399999Y-2687600D01*
X72399999Y-2687600D02*
X72457142Y-2859028D01*
X72457142Y-2859028D02*
X73142856Y-3544742D01*
X73142856Y-3544742D02*
X72399999Y-3544742D01*
%LPC*%
D11*
%TO.C,*%
X10000000Y-7000000D03*
%TD*%
%TO.C,*%
X150000000Y-7000000D03*
%TD*%
%TO.C,*%
X10000000Y-68000000D03*
%TD*%
%TO.C,*%
X150000000Y-68000000D03*
%TD*%
%TO.C,*%
X55000000Y-37500000D03*
%TD*%
%TO.C,*%
X105000000Y-37500000D03*
%TD*%
D12*
%TO.C,U1*%
X88750000Y-22240000D03*
X88750000Y-23510000D03*
X88750000Y-24780000D03*
X88750000Y-26050000D03*
X88750000Y-27320000D03*
X88750000Y-28590000D03*
X88750000Y-29860000D03*
X88750000Y-31130000D03*
X88750000Y-32400000D03*
X88750000Y-33670000D03*
X88750000Y-34940000D03*
X88750000Y-36210000D03*
X88750000Y-37480000D03*
X88750000Y-38750000D03*
D13*
X86985000Y-40000000D03*
X85715000Y-40000000D03*
X84445000Y-40000000D03*
X83175000Y-40000000D03*
X81905000Y-40000000D03*
X80635000Y-40000000D03*
X79365000Y-40000000D03*
X78095000Y-40000000D03*
X76825000Y-40000000D03*
X75555000Y-40000000D03*
X74285000Y-40000000D03*
X73015000Y-40000000D03*
D12*
X71250000Y-38750000D03*
X71250000Y-37480000D03*
X71250000Y-36210000D03*
X71250000Y-34940000D03*
X71250000Y-33670000D03*
X71250000Y-32400000D03*
X71250000Y-31130000D03*
X71250000Y-29860000D03*
X71250000Y-28590000D03*
X71250000Y-27320000D03*
X71250000Y-26050000D03*
X71250000Y-24780000D03*
X71250000Y-23510000D03*
X71250000Y-22240000D03*
D14*
X81500000Y-29960000D03*
%TD*%
D15*
%TO.C,SW11*%
X13150000Y-2500000D03*
X13150000Y-8500000D03*
X16850000Y-2500000D03*
X16850000Y-8500000D03*
%TD*%
%TO.C,SW12*%
X143150000Y-2500000D03*
X143150000Y-8500000D03*
X146850000Y-2500000D03*
X146850000Y-8500000D03*
%TD*%
D16*
%TO.C,J4*%
X133712000Y-25750000D03*
X133712000Y-26250000D03*
X133712000Y-26750000D03*
X133712000Y-27250000D03*
X133712000Y-27750000D03*
X133712000Y-28250000D03*
X133712000Y-28750000D03*
X133712000Y-29250000D03*
X133712000Y-29750000D03*
X133712000Y-30250000D03*
X133712000Y-30750000D03*
X133712000Y-31250000D03*
X133712000Y-31750000D03*
X133712000Y-32250000D03*
X133712000Y-32750000D03*
X133712000Y-33250000D03*
X133712000Y-33750000D03*
X133712000Y-34250000D03*
X133712000Y-34750000D03*
X133712000Y-35250000D03*
X133712000Y-35750000D03*
X133712000Y-36250000D03*
X133712000Y-36750000D03*
X133712000Y-37250000D03*
X133712000Y-37750000D03*
X133712000Y-38250000D03*
X133712000Y-38750000D03*
X133712000Y-39250000D03*
X133712000Y-39750000D03*
X133712000Y-40250000D03*
X133712000Y-40750000D03*
X133712000Y-41250000D03*
X133712000Y-41750000D03*
X133712000Y-42250000D03*
X133712000Y-42750000D03*
X133712000Y-43250000D03*
X133712000Y-43750000D03*
X133712000Y-44250000D03*
X133712000Y-44750000D03*
X133712000Y-45250000D03*
D17*
X136288000Y-46940000D03*
X136288000Y-24060000D03*
%TD*%
D18*
%TO.C,J1*%
X83200000Y-68825000D03*
X82400000Y-68825000D03*
X77600000Y-68825000D03*
X76800000Y-68825000D03*
D19*
X81750000Y-68825000D03*
X81250000Y-68825000D03*
X80750000Y-68825000D03*
X80250000Y-68825000D03*
X79750000Y-68825000D03*
X79250000Y-68825000D03*
X78750000Y-68825000D03*
X78250000Y-68825000D03*
D20*
X84325000Y-69375000D03*
X75675000Y-69375000D03*
D21*
X84325000Y-73575000D03*
X75675000Y-73575000D03*
D22*
X82890000Y-69895000D03*
X77110000Y-69895000D03*
%TD*%
D23*
%TO.C,U6*%
X137760000Y-61724000D03*
X138860000Y-61724000D03*
X139960000Y-61724000D03*
X141060000Y-61724000D03*
X142160000Y-61724000D03*
X143260000Y-61724000D03*
X144360000Y-61724000D03*
X145460000Y-61724000D03*
X146560000Y-61724000D03*
D24*
X147760000Y-62574000D03*
X133080000Y-62574000D03*
D25*
X147760000Y-72276000D03*
X132240000Y-72276000D03*
D26*
X144950000Y-72566000D03*
X136950000Y-72566000D03*
%TD*%
D27*
%TO.C,SW_PWR*%
X42250000Y-70300000D03*
X39250000Y-70300000D03*
X37750000Y-70300000D03*
D28*
X43600000Y-71400000D03*
X36400000Y-71400000D03*
X43600000Y-73700000D03*
X36400000Y-73700000D03*
D29*
X41500000Y-72550000D03*
X38500000Y-72550000D03*
%TD*%
D30*
%TO.C,SPK1*%
X39500000Y-52500000D03*
X20500000Y-52500000D03*
%TD*%
D31*
%TO.C,U2*%
X113000000Y-40595000D03*
X113000000Y-41865000D03*
X113000000Y-43135000D03*
X113000000Y-44405000D03*
X107000000Y-44405000D03*
X107000000Y-43135000D03*
X107000000Y-41865000D03*
X107000000Y-40595000D03*
D32*
X110000000Y-42500000D03*
%TD*%
D33*
%TO.C,U3*%
X127300000Y-58650000D03*
X125000000Y-58650000D03*
X122700000Y-58650000D03*
D34*
X125000000Y-52350000D03*
%TD*%
D35*
%TO.C,U5*%
X25555000Y-26800000D03*
X26825000Y-26800000D03*
X28095000Y-26800000D03*
X29365000Y-26800000D03*
X30635000Y-26800000D03*
X31905000Y-26800000D03*
X33175000Y-26800000D03*
X34445000Y-26800000D03*
X34445000Y-32200000D03*
X33175000Y-32200000D03*
X31905000Y-32200000D03*
X30635000Y-32200000D03*
X29365000Y-32200000D03*
X28095000Y-32200000D03*
X26825000Y-32200000D03*
X25555000Y-32200000D03*
%TD*%
D36*
%TO.C,L1*%
X111700000Y-52500000D03*
X108300000Y-52500000D03*
%TD*%
D37*
%TO.C,J3*%
X79000000Y-62500000D03*
X81000000Y-62500000D03*
%TD*%
D38*
%TO.C,SW_RST*%
X98000000Y-63650000D03*
X92000000Y-63650000D03*
X98000000Y-67350000D03*
X92000000Y-67350000D03*
%TD*%
%TO.C,SW_BOOT*%
X108000000Y-63650000D03*
X102000000Y-63650000D03*
X108000000Y-67350000D03*
X102000000Y-67350000D03*
%TD*%
D39*
%TO.C,D1*%
X156950000Y-53600000D03*
X155050000Y-53600000D03*
X156000000Y-51400000D03*
%TD*%
D40*
%TO.C,R1*%
X74950000Y-67000000D03*
X73050000Y-67000000D03*
%TD*%
%TO.C,R2*%
X78950000Y-67000000D03*
X77050000Y-67000000D03*
%TD*%
D39*
%TO.C,U4*%
X91900000Y-61100000D03*
X90950000Y-61100000D03*
X90000000Y-61100000D03*
X90000000Y-58900000D03*
X90950000Y-58900000D03*
X91900000Y-58900000D03*
%TD*%
D41*
%TO.C,R22*%
X90250000Y-39520000D03*
X90250000Y-40480000D03*
%TD*%
%TO.C,R23*%
X91650000Y-38020000D03*
X91650000Y-38980000D03*
%TD*%
D40*
%TO.C,C3*%
X70500000Y-42000000D03*
X68600000Y-42000000D03*
%TD*%
%TO.C,C4*%
X92950000Y-42000000D03*
X91050000Y-42000000D03*
%TD*%
D42*
%TO.C,C26*%
X91500000Y-20050000D03*
X91500000Y-21950000D03*
%TD*%
D40*
%TO.C,R17*%
X25950000Y-65000000D03*
X24050000Y-65000000D03*
%TD*%
%TO.C,R18*%
X32950000Y-65000000D03*
X31050000Y-65000000D03*
%TD*%
%TO.C,R4*%
X43950000Y-46000000D03*
X42050000Y-46000000D03*
%TD*%
%TO.C,R5*%
X48950000Y-46000000D03*
X47050000Y-46000000D03*
%TD*%
%TO.C,R6*%
X53950000Y-46000000D03*
X52050000Y-46000000D03*
%TD*%
%TO.C,R7*%
X58950000Y-46000000D03*
X57050000Y-46000000D03*
%TD*%
%TO.C,R8*%
X63950000Y-46000000D03*
X62050000Y-46000000D03*
%TD*%
%TO.C,R9*%
X68950000Y-46000000D03*
X67050000Y-46000000D03*
%TD*%
%TO.C,R10*%
X73950000Y-46000000D03*
X72050000Y-46000000D03*
%TD*%
%TO.C,R11*%
X78950000Y-46000000D03*
X77050000Y-46000000D03*
%TD*%
%TO.C,R12*%
X83950000Y-46000000D03*
X82050000Y-46000000D03*
%TD*%
%TO.C,R13*%
X88950000Y-46000000D03*
X87050000Y-46000000D03*
%TD*%
%TO.C,R14*%
X93950000Y-46000000D03*
X92050000Y-46000000D03*
%TD*%
%TO.C,R15*%
X98950000Y-46000000D03*
X97050000Y-46000000D03*
%TD*%
%TO.C,R19*%
X103950000Y-46000000D03*
X102050000Y-46000000D03*
%TD*%
%TO.C,R16*%
X115950000Y-52500000D03*
X114050000Y-52500000D03*
%TD*%
%TO.C,C5*%
X43950000Y-50000000D03*
X42050000Y-50000000D03*
%TD*%
%TO.C,C6*%
X48950000Y-50000000D03*
X47050000Y-50000000D03*
%TD*%
%TO.C,C7*%
X53950000Y-50000000D03*
X52050000Y-50000000D03*
%TD*%
%TO.C,C8*%
X58950000Y-50000000D03*
X57050000Y-50000000D03*
%TD*%
%TO.C,C9*%
X63950000Y-50000000D03*
X62050000Y-50000000D03*
%TD*%
%TO.C,C10*%
X68950000Y-50000000D03*
X67050000Y-50000000D03*
%TD*%
%TO.C,C11*%
X73950000Y-50000000D03*
X72050000Y-50000000D03*
%TD*%
%TO.C,C12*%
X78950000Y-50000000D03*
X77050000Y-50000000D03*
%TD*%
%TO.C,C13*%
X83950000Y-50000000D03*
X82050000Y-50000000D03*
%TD*%
%TO.C,C14*%
X88950000Y-50000000D03*
X87050000Y-50000000D03*
%TD*%
%TO.C,C15*%
X93950000Y-50000000D03*
X92050000Y-50000000D03*
%TD*%
%TO.C,C16*%
X98950000Y-50000000D03*
X97050000Y-50000000D03*
%TD*%
%TO.C,C20*%
X103950000Y-50000000D03*
X102050000Y-50000000D03*
%TD*%
%TO.C,C17*%
X110950000Y-35000000D03*
X109050000Y-35000000D03*
%TD*%
%TO.C,C18*%
X116950000Y-49000000D03*
X115050000Y-49000000D03*
%TD*%
D43*
%TO.C,C19*%
X111500000Y-58500000D03*
X108500000Y-58500000D03*
%TD*%
D40*
%TO.C,C27*%
X108950000Y-39000000D03*
X107050000Y-39000000D03*
%TD*%
D42*
%TO.C,C28*%
X86000000Y-25050000D03*
X86000000Y-26950000D03*
%TD*%
%TO.C,C22*%
X33175000Y-19050000D03*
X33175000Y-20950000D03*
%TD*%
D40*
%TO.C,R20*%
X38950000Y-26500000D03*
X37050000Y-26500000D03*
%TD*%
%TO.C,R21*%
X38950000Y-32500000D03*
X37050000Y-32500000D03*
%TD*%
%TO.C,C21*%
X38950000Y-23500000D03*
X37050000Y-23500000D03*
%TD*%
D42*
%TO.C,C23*%
X38000000Y-28550000D03*
X38000000Y-30450000D03*
%TD*%
%TO.C,C24*%
X29365000Y-21050000D03*
X29365000Y-22950000D03*
%TD*%
%TO.C,C25*%
X31500000Y-36550000D03*
X31500000Y-38450000D03*
%TD*%
D40*
%TO.C,C1*%
X120950000Y-57000000D03*
X119050000Y-57000000D03*
%TD*%
D43*
%TO.C,C2*%
X126500000Y-62500000D03*
X123500000Y-62500000D03*
%TD*%
%LPD*%
M02*
