%TF.GenerationSoftware,KiCad,Pcbnew,9.99.0-5542-g9c1654c496*%
%TF.CreationDate,2026-02-21T09:19:05+00:00*%
%TF.ProjectId,esp32-emu-turbo,65737033-322d-4656-9d75-2d747572626f,rev?*%
%TF.SameCoordinates,Original*%
%TF.FileFunction,Paste,Top*%
%TF.FilePolarity,Positive*%
%FSLAX46Y46*%
G04 Gerber Fmt 4.6, Leading zero omitted, Abs format (unit mm)*
G04 Created by KiCad (PCBNEW 9.99.0-5542-g9c1654c496) date 2026-02-21 09:19:05*
%MOMM*%
%LPD*%
G01*
G04 APERTURE LIST*
%ADD10R,1.000000X0.750000*%
%ADD11R,1.000000X1.300000*%
G04 APERTURE END LIST*
D10*
%TO.C,SW1*%
X15000000Y-21650000D03*
X21000000Y-21650000D03*
X15000000Y-25350000D03*
X21000000Y-25350000D03*
%TD*%
%TO.C,SW2*%
X15000000Y-39650000D03*
X21000000Y-39650000D03*
X15000000Y-43350000D03*
X21000000Y-43350000D03*
%TD*%
%TO.C,SW3*%
X6000000Y-30650000D03*
X12000000Y-30650000D03*
X6000000Y-34350000D03*
X12000000Y-34350000D03*
%TD*%
%TO.C,SW4*%
X24000000Y-30650000D03*
X30000000Y-30650000D03*
X24000000Y-34350000D03*
X30000000Y-34350000D03*
%TD*%
%TO.C,SW5*%
X139000000Y-20650000D03*
X145000000Y-20650000D03*
X139000000Y-24350000D03*
X145000000Y-24350000D03*
%TD*%
%TO.C,SW6*%
X149000000Y-30650000D03*
X155000000Y-30650000D03*
X149000000Y-34350000D03*
X155000000Y-34350000D03*
%TD*%
%TO.C,SW7*%
X139000000Y-40650000D03*
X145000000Y-40650000D03*
X139000000Y-44350000D03*
X145000000Y-44350000D03*
%TD*%
%TO.C,SW8*%
X129000000Y-30650000D03*
X135000000Y-30650000D03*
X129000000Y-34350000D03*
X135000000Y-34350000D03*
%TD*%
%TO.C,SW9*%
X5000000Y-52650000D03*
X11000000Y-52650000D03*
X5000000Y-56350000D03*
X11000000Y-56350000D03*
%TD*%
%TO.C,SW10*%
X25000000Y-52650000D03*
X31000000Y-52650000D03*
X25000000Y-56350000D03*
X31000000Y-56350000D03*
%TD*%
%TO.C,SW13*%
X139000000Y-60650000D03*
X145000000Y-60650000D03*
X139000000Y-64350000D03*
X145000000Y-64350000D03*
%TD*%
D11*
%TO.C,LED1*%
X24050000Y-67500000D03*
X25950000Y-67500000D03*
%TD*%
%TO.C,LED2*%
X31050000Y-67500000D03*
X32950000Y-67500000D03*
%TD*%
M02*
