M48
; DRILL file KiCad 10.0.0 date 2026-03-30T21:15:25
; FORMAT={-:-/ absolute / metric / decimal}
; #@! TF.CreationDate,2026-03-30T21:15:25+02:00
; #@! TF.GenerationSoftware,Kicad,Pcbnew,10.0.0
; #@! TF.FileFunction,MixedPlating,1,4
FMAT,2
METRIC
; #@! TA.AperFunction,Plated,PTH,ViaDrill
T1C0.200
; #@! TA.AperFunction,Plated,PTH,ViaDrill
T2C0.250
; #@! TA.AperFunction,Plated,PTH,ViaDrill
T3C0.350
; #@! TA.AperFunction,Plated,PTH,ComponentDrill
T4C0.600
; #@! TA.AperFunction,Plated,PTH,ComponentDrill
T5C0.850
; #@! TA.AperFunction,NonPlated,NPTH,ComponentDrill
T6C0.650
; #@! TA.AperFunction,NonPlated,NPTH,ComponentDrill
T7C0.900
; #@! TA.AperFunction,NonPlated,NPTH,ComponentDrill
T8C1.000
; #@! TA.AperFunction,NonPlated,NPTH,ComponentDrill
T9C2.500
%
G90
G05
T1
X6.5Y-56.85
X7.5Y-34.85
X12.2Y-52.65
X12.2Y-71.6
X13.2Y-30.65
X13.2Y-64.4
X14.65Y-8.5
X16.0Y-25.85
X16.0Y-43.85
X16.85Y-73.53
X20.5Y-23.7
X22.2Y-21.65
X22.2Y-62.0
X22.95Y-39.65
X22.95Y-63.2
X23.35Y-67.5
X24.05Y-62.65
X24.5Y-22.5
X25.5Y-34.85
X26.5Y-56.85
X26.825Y-24.8
X26.825Y-34.3
X27.45Y-43.9
X27.45Y-70.4
X28.095Y-23.7
X29.365Y-20.55
X29.365Y-28.7
X30.35Y-67.5
X31.05Y-62.65
X31.5Y-38.95
X31.905Y-25.8
X31.905Y-28.8
X31.905Y-34.3
X33.175Y-18.0
X33.175Y-32.2
X34.2Y-30.65
X34.2Y-65.6
X34.95Y-52.65
X34.95Y-72.8
X36.45Y-42.7
X36.45Y-69.2
X37.05Y-32.2
X38.0Y-25.8
X38.0Y-30.95
X38.85Y-24.5
X38.85Y-25.3
X38.85Y-33.7
X39.5Y-22.5
X41.8Y-44.5
X41.8Y-52.0
X45.45Y-41.5
X45.45Y-68.0
X46.8Y-44.5
X46.8Y-52.0
X51.8Y-44.5
X51.8Y-52.0
X52.45Y-23.51
X52.45Y-66.8
X56.8Y-44.5
X56.8Y-52.0
X58.55Y-24.78
X58.55Y-65.6
X60.45Y-45.1
X60.45Y-72.8
X61.8Y-44.5
X61.8Y-52.0
X62.45Y-28.59
X62.45Y-64.4
X65.0Y-42.1
X65.55Y-29.86
X65.55Y-63.2
X66.8Y-44.5
X66.8Y-52.0
X67.45Y-31.13
X67.45Y-62.0
X68.0Y-37.48
X68.0Y-73.53
X68.55Y-40.0
X69.25Y-23.51
X69.25Y-24.78
X69.25Y-28.59
X69.25Y-29.86
X69.25Y-31.13
X70.45Y-44.5
X71.8Y-47.5
X71.8Y-52.0
X72.2Y-32.4
X72.2Y-33.67
X72.2Y-34.94
X72.2Y-36.21
X73.015Y-27.955
X73.05Y-65.5
X73.25Y-41.5
X73.25Y-45.1
X73.555Y-42.7
X74.825Y-43.9
X75.0Y-1.5
X75.0Y-36.21
X76.0Y-2.2
X76.0Y-34.94
X76.2Y-45.0
X76.2Y-65.4
X76.8Y-67.4
X76.95Y-44.5
X76.95Y-52.0
X77.0Y-2.9
X77.0Y-33.67
X78.0Y-3.6
X78.0Y-32.4
X78.095Y-36.845
X78.25Y-72.5
X79.365Y-33.035
X79.75Y-64.575
X80.0Y-35.0
X80.6Y-65.925
X80.635Y-38.115
X81.8Y-44.5
X81.8Y-52.0
X81.905Y-19.5
X83.175Y-20.5
X84.445Y-31.765
X85.05Y-64.0
X85.715Y-35.575
X86.8Y-44.5
X86.8Y-52.0
X86.95Y-72.5
X86.985Y-34.305
X87.7Y-18.0
X88.75Y-21.01
X90.25Y-65.925
X90.75Y-26.05
X90.75Y-27.32
X90.75Y-28.59
X90.75Y-29.86
X90.75Y-34.94
X90.75Y-36.21
X91.05Y-40.0
X91.65Y-64.575
X92.2Y-44.5
X92.2Y-52.0
X92.95Y-40.6
X96.8Y-44.5
X96.8Y-52.0
X100.45Y-34.94
X100.45Y-71.6
X101.8Y-44.5
X101.8Y-52.0
X108.5Y-59.5
X109.05Y-37.5
X109.7Y-18.0
X109.7Y-27.955
X110.8Y-17.0
X110.8Y-19.5
X110.95Y-33.65
X111.9Y-16.0
X111.9Y-20.5
X113.0Y-15.0
X113.0Y-31.765
X113.0Y-56.5
X114.1Y-14.0
X114.1Y-36.21
X115.2Y-13.0
X115.2Y-29.86
X116.3Y-12.0
X116.3Y-28.59
X117.05Y-57.5
X117.4Y-11.0
X117.4Y-27.32
X118.5Y-10.0
X118.5Y-26.05
X118.95Y-52.5
X119.6Y-9.0
X119.6Y-33.035
X120.7Y-8.0
X120.7Y-34.305
X121.05Y-46.0
X121.8Y-7.0
X121.8Y-35.575
X122.9Y-6.0
X122.9Y-36.845
X122.95Y-46.0
X123.5Y-64.5
X124.0Y-5.0
X124.0Y-38.115
X129.28Y-30.65
X129.28Y-70.4
X129.79Y-40.65
X129.79Y-69.2
X130.3Y-20.65
X130.3Y-66.8
X131.0Y-15.0
X131.24Y-72.276
X131.7Y-16.0
X132.0Y-50.25
X132.4Y-17.0
X133.1Y-18.0
X133.1Y-43.25
X133.6Y-25.25
X133.6Y-26.25
X133.6Y-27.4
X133.6Y-28.25
X133.6Y-37.75
X134.1Y-14.0
X134.8Y-13.0
X135.5Y-12.0
X136.2Y-11.0
X136.9Y-10.0
X137.6Y-9.0
X138.3Y-8.0
X138.86Y-72.0
X139.0Y-7.0
X139.7Y-6.0
X139.96Y-66.0
X140.0Y-49.0
X140.4Y-5.0
X141.06Y-61.724
X141.2Y-1.5
X141.2Y-66.0
X142.16Y-70.5
X142.8Y-30.65
X142.8Y-68.0
X143.26Y-61.724
X143.5Y-24.85
X143.5Y-43.25
X143.5Y-44.85
X143.5Y-50.25
X144.36Y-67.5
X144.65Y-8.5
X145.6Y-2.2
X145.6Y-67.5
X146.85Y-65.4
X148.76Y-62.574
X152.5Y-2.9
X152.5Y-70.5
X153.5Y-3.6
X153.5Y-72.0
X154.05Y-34.85
T2
X99.5Y-36.21
X101.0Y-38.115
X101.55Y-36.845
X102.34Y-35.575
X107.66Y-35.575
X108.2Y-36.845
X110.0Y-38.115
X111.5Y-36.21
T3
X25.95Y-66.25
X32.95Y-66.25
X38.0Y-46.135
X39.25Y-68.3
X77.0Y-62.5
X80.5Y-46.135
X82.0Y-61.0
X105.5Y-46.135
X107.5Y-39.095
X111.0Y-40.095
X112.4Y-45.5
X112.4Y-49.5
X115.95Y-54.5
X122.7Y-56.65
X125.0Y-49.35
X127.3Y-60.65
T4
X75.675Y-69.375
X75.675Y-73.575
X84.325Y-69.375
X84.325Y-73.575
T5
X79.0Y-62.5
X81.0Y-62.5
T6
X77.11Y-69.895
X82.89Y-69.895
T7
X38.5Y-72.55
X41.5Y-72.55
T8
X136.95Y-72.566
X144.95Y-72.566
T9
X10.0Y-7.0
X10.0Y-68.0
X55.0Y-37.5
X105.0Y-37.5
X150.0Y-7.0
X150.0Y-68.0
M30
