%TF.GenerationSoftware,KiCad,Pcbnew,9.0.7*%
%TF.CreationDate,2026-02-14T09:26:10+00:00*%
%TF.ProjectId,esp32-emu-turbo,65737033-322d-4656-9d75-2d747572626f,rev?*%
%TF.SameCoordinates,Original*%
%TF.FileFunction,Soldermask,Bot*%
%TF.FilePolarity,Negative*%
%FSLAX46Y46*%
G04 Gerber Fmt 4.6, Leading zero omitted, Abs format (unit mm)*
G04 Created by KiCad (PCBNEW 9.0.7) date 2026-02-14 09:26:10*
%MOMM*%
%LPD*%
G01*
G04 APERTURE LIST*
G04 Aperture macros list*
%AMRoundRect*
0 Rectangle with rounded corners*
0 $1 Rounding radius*
0 $2 $3 $4 $5 $6 $7 $8 $9 X,Y pos of 4 corners*
0 Add a 4 corners polygon primitive as box body*
4,1,4,$2,$3,$4,$5,$6,$7,$8,$9,$2,$3,0*
0 Add four circle primitives for the rounded corners*
1,1,$1+$1,$2,$3*
1,1,$1+$1,$4,$5*
1,1,$1+$1,$6,$7*
1,1,$1+$1,$8,$9*
0 Add four rect primitives between the rounded corners*
20,1,$1+$1,$2,$3,$4,$5,0*
20,1,$1+$1,$4,$5,$6,$7,0*
20,1,$1+$1,$6,$7,$8,$9,0*
20,1,$1+$1,$8,$9,$2,$3,0*%
G04 Aperture macros list end*
%ADD10C,5.100000*%
%ADD11RoundRect,0.050000X-0.900000X-0.450000X0.900000X-0.450000X0.900000X0.450000X-0.900000X0.450000X0*%
%ADD12RoundRect,0.050000X-5.000000X-5.000000X5.000000X-5.000000X5.000000X5.000000X-5.000000X5.000000X0*%
%ADD13RoundRect,0.050000X-0.800000X-0.500000X0.800000X-0.500000X0.800000X0.500000X-0.800000X0.500000X0*%
%ADD14RoundRect,0.050000X-0.150000X-0.600000X0.150000X-0.600000X0.150000X0.600000X-0.150000X0.600000X0*%
%ADD15RoundRect,0.050000X-0.600000X-1.000000X0.600000X-1.000000X0.600000X1.000000X-0.600000X1.000000X0*%
%ADD16RoundRect,0.050000X-0.150000X-0.500000X0.150000X-0.500000X0.150000X0.500000X-0.150000X0.500000X0*%
%ADD17O,1.100000X1.900000*%
%ADD18RoundRect,0.050000X-0.350000X-0.900000X0.350000X-0.900000X0.350000X0.900000X-0.350000X0.900000X0*%
%ADD19RoundRect,0.050000X-0.600000X-0.750000X0.600000X-0.750000X0.600000X0.750000X-0.600000X0.750000X0*%
%ADD20C,1.600000*%
%ADD21RoundRect,0.050000X-1.000000X-1.500000X1.000000X-1.500000X1.000000X1.500000X-1.000000X1.500000X0*%
%ADD22RoundRect,0.050000X-0.850000X-0.300000X0.850000X-0.300000X0.850000X0.300000X-0.850000X0.300000X0*%
%ADD23RoundRect,0.050000X-1.700000X-1.700000X1.700000X-1.700000X1.700000X1.700000X-1.700000X1.700000X0*%
%ADD24RoundRect,0.050000X-0.500000X-0.750000X0.500000X-0.750000X0.500000X0.750000X-0.500000X0.750000X0*%
%ADD25RoundRect,0.050000X-1.800000X-0.900000X1.800000X-0.900000X1.800000X0.900000X-1.800000X0.900000X0*%
%ADD26RoundRect,0.050000X-0.700000X-1.700000X0.700000X-1.700000X0.700000X1.700000X-0.700000X1.700000X0*%
%ADD27RoundRect,0.050000X-0.500000X-0.650000X0.500000X-0.650000X0.500000X0.650000X-0.500000X0.650000X0*%
%ADD28RoundRect,0.050000X-0.600000X-0.900000X0.600000X-0.900000X0.600000X0.900000X-0.600000X0.900000X0*%
G04 APERTURE END LIST*
D10*
%TO.C,*%
X10000000Y-7000000D03*
%TD*%
%TO.C,*%
X150000000Y-7000000D03*
%TD*%
%TO.C,*%
X10000000Y-68000000D03*
%TD*%
%TO.C,*%
X150000000Y-68000000D03*
%TD*%
%TO.C,*%
X55000000Y-37500000D03*
%TD*%
%TO.C,*%
X105000000Y-37500000D03*
%TD*%
D11*
%TO.C,U1*%
X88600000Y-16070000D03*
X88600000Y-17340000D03*
X88600000Y-18610000D03*
X88600000Y-19880000D03*
X88600000Y-21150000D03*
X88600000Y-22420000D03*
X88600000Y-23690000D03*
X88600000Y-24960000D03*
X88600000Y-26230000D03*
X88600000Y-27500000D03*
X88600000Y-28770000D03*
X88600000Y-30040000D03*
X88600000Y-31310000D03*
X88600000Y-32580000D03*
X88600000Y-33850000D03*
X88600000Y-35120000D03*
X88600000Y-36390000D03*
X88600000Y-37660000D03*
X88600000Y-38930000D03*
X88600000Y-40200000D03*
X71400000Y-38930000D03*
X71400000Y-37660000D03*
X71400000Y-36390000D03*
X71400000Y-35120000D03*
X71400000Y-33850000D03*
X71400000Y-32580000D03*
X71400000Y-31310000D03*
X71400000Y-30040000D03*
X71400000Y-28770000D03*
X71400000Y-27500000D03*
X71400000Y-26230000D03*
X71400000Y-24960000D03*
X71400000Y-23690000D03*
X71400000Y-22420000D03*
X71400000Y-21150000D03*
X71400000Y-19880000D03*
X71400000Y-18610000D03*
X71400000Y-17340000D03*
X71400000Y-16070000D03*
D12*
X80000000Y-32500000D03*
%TD*%
D13*
%TO.C,SW11*%
X13150000Y250000D03*
X16850000Y250000D03*
X13150000Y-5250000D03*
X16850000Y-5250000D03*
%TD*%
%TO.C,SW12*%
X143150000Y250000D03*
X146850000Y250000D03*
X143150000Y-5250000D03*
X146850000Y-5250000D03*
%TD*%
D14*
%TO.C,J4*%
X135000000Y-25750000D03*
X135000000Y-26250000D03*
X135000000Y-26750000D03*
X135000000Y-27250000D03*
X135000000Y-27750000D03*
X135000000Y-28250000D03*
X135000000Y-28750000D03*
X135000000Y-29250000D03*
X135000000Y-29750000D03*
X135000000Y-30250000D03*
X135000000Y-30750000D03*
X135000000Y-31250000D03*
X135000000Y-31750000D03*
X135000000Y-32250000D03*
X135000000Y-32750000D03*
X135000000Y-33250000D03*
X135000000Y-33750000D03*
X135000000Y-34250000D03*
X135000000Y-34750000D03*
X135000000Y-35250000D03*
X135000000Y-35750000D03*
X135000000Y-36250000D03*
X135000000Y-36750000D03*
X135000000Y-37250000D03*
X135000000Y-37750000D03*
X135000000Y-38250000D03*
X135000000Y-38750000D03*
X135000000Y-39250000D03*
X135000000Y-39750000D03*
X135000000Y-40250000D03*
X135000000Y-40750000D03*
X135000000Y-41250000D03*
X135000000Y-41750000D03*
X135000000Y-42250000D03*
X135000000Y-42750000D03*
X135000000Y-43250000D03*
X135000000Y-43750000D03*
X135000000Y-44250000D03*
X135000000Y-44750000D03*
X135000000Y-45250000D03*
D15*
X135000000Y-23500000D03*
X135000000Y-47500000D03*
%TD*%
D16*
%TO.C,J1*%
X81750000Y-68800000D03*
X81250000Y-68800000D03*
X80750000Y-68800000D03*
X80250000Y-68800000D03*
X79750000Y-68800000D03*
X79250000Y-68800000D03*
X78750000Y-68800000D03*
X78250000Y-68800000D03*
X78250000Y-69800000D03*
X78750000Y-69800000D03*
X79250000Y-69800000D03*
X79750000Y-69800000D03*
X80250000Y-69800000D03*
X80750000Y-69800000D03*
X81250000Y-69800000D03*
X81750000Y-69800000D03*
D17*
X75680000Y-70500000D03*
X75680000Y-73500000D03*
X84320000Y-70500000D03*
X84320000Y-73500000D03*
%TD*%
D18*
%TO.C,U6*%
X144400000Y-60200000D03*
X143300000Y-60200000D03*
X142200000Y-60200000D03*
X141100000Y-60200000D03*
X140000000Y-60200000D03*
X138900000Y-60200000D03*
X137800000Y-60200000D03*
X136700000Y-60200000D03*
X135600000Y-60200000D03*
D19*
X133000000Y-66000000D03*
X133000000Y-73500000D03*
X147000000Y-66000000D03*
X147000000Y-73500000D03*
%TD*%
D20*
%TO.C,SW_PWR*%
X42500000Y-72000000D03*
X40000000Y-72000000D03*
X37500000Y-72000000D03*
%TD*%
D21*
%TO.C,SPK1*%
X39500000Y-52500000D03*
X20500000Y-52500000D03*
%TD*%
D22*
%TO.C,U2*%
X113000000Y-40595000D03*
X113000000Y-41865000D03*
X113000000Y-43135000D03*
X113000000Y-44405000D03*
X107000000Y-44405000D03*
X107000000Y-43135000D03*
X107000000Y-41865000D03*
X107000000Y-40595000D03*
D23*
X110000000Y-42500000D03*
%TD*%
D24*
%TO.C,U3*%
X127300000Y-58650000D03*
X125000000Y-58650000D03*
X122700000Y-58650000D03*
D25*
X125000000Y-52350000D03*
%TD*%
D22*
%TO.C,U5*%
X25555000Y-24600000D03*
X26825000Y-24600000D03*
X28095000Y-24600000D03*
X29365000Y-24600000D03*
X30635000Y-24600000D03*
X31905000Y-24600000D03*
X33175000Y-24600000D03*
X34445000Y-24600000D03*
X34445000Y-34400000D03*
X33175000Y-34400000D03*
X31905000Y-34400000D03*
X30635000Y-34400000D03*
X29365000Y-34400000D03*
X28095000Y-34400000D03*
X26825000Y-34400000D03*
X25555000Y-34400000D03*
%TD*%
D26*
%TO.C,L1*%
X111700000Y-52500000D03*
X108300000Y-52500000D03*
%TD*%
D20*
%TO.C,J3*%
X81000000Y-57500000D03*
X79000000Y-57500000D03*
%TD*%
D27*
%TO.C,R1*%
X74950000Y-67000000D03*
X73050000Y-67000000D03*
%TD*%
%TO.C,R2*%
X86950000Y-67000000D03*
X85050000Y-67000000D03*
%TD*%
%TO.C,R3*%
X65950000Y-42000000D03*
X64050000Y-42000000D03*
%TD*%
%TO.C,C3*%
X70950000Y-42000000D03*
X69050000Y-42000000D03*
%TD*%
%TO.C,R17*%
X75950000Y-42000000D03*
X74050000Y-42000000D03*
%TD*%
%TO.C,R18*%
X80950000Y-42000000D03*
X79050000Y-42000000D03*
%TD*%
%TO.C,C4*%
X85950000Y-42000000D03*
X84050000Y-42000000D03*
%TD*%
%TO.C,R4*%
X43950000Y-46000000D03*
X42050000Y-46000000D03*
%TD*%
%TO.C,R5*%
X48950000Y-46000000D03*
X47050000Y-46000000D03*
%TD*%
%TO.C,R6*%
X53950000Y-46000000D03*
X52050000Y-46000000D03*
%TD*%
%TO.C,R7*%
X58950000Y-46000000D03*
X57050000Y-46000000D03*
%TD*%
%TO.C,R8*%
X63950000Y-46000000D03*
X62050000Y-46000000D03*
%TD*%
%TO.C,R9*%
X68950000Y-46000000D03*
X67050000Y-46000000D03*
%TD*%
%TO.C,R10*%
X73950000Y-46000000D03*
X72050000Y-46000000D03*
%TD*%
%TO.C,R11*%
X78950000Y-46000000D03*
X77050000Y-46000000D03*
%TD*%
%TO.C,R12*%
X83950000Y-46000000D03*
X82050000Y-46000000D03*
%TD*%
%TO.C,R13*%
X88950000Y-46000000D03*
X87050000Y-46000000D03*
%TD*%
%TO.C,R14*%
X93950000Y-46000000D03*
X92050000Y-46000000D03*
%TD*%
%TO.C,R15*%
X98950000Y-46000000D03*
X97050000Y-46000000D03*
%TD*%
%TO.C,R19*%
X103950000Y-46000000D03*
X102050000Y-46000000D03*
%TD*%
%TO.C,R16*%
X115950000Y-52500000D03*
X114050000Y-52500000D03*
%TD*%
%TO.C,C5*%
X43950000Y-50000000D03*
X42050000Y-50000000D03*
%TD*%
%TO.C,C6*%
X48950000Y-50000000D03*
X47050000Y-50000000D03*
%TD*%
%TO.C,C7*%
X53950000Y-50000000D03*
X52050000Y-50000000D03*
%TD*%
%TO.C,C8*%
X58950000Y-50000000D03*
X57050000Y-50000000D03*
%TD*%
%TO.C,C9*%
X63950000Y-50000000D03*
X62050000Y-50000000D03*
%TD*%
%TO.C,C10*%
X68950000Y-50000000D03*
X67050000Y-50000000D03*
%TD*%
%TO.C,C11*%
X73950000Y-50000000D03*
X72050000Y-50000000D03*
%TD*%
%TO.C,C12*%
X78950000Y-50000000D03*
X77050000Y-50000000D03*
%TD*%
%TO.C,C13*%
X83950000Y-50000000D03*
X82050000Y-50000000D03*
%TD*%
%TO.C,C14*%
X88950000Y-50000000D03*
X87050000Y-50000000D03*
%TD*%
%TO.C,C15*%
X93950000Y-50000000D03*
X92050000Y-50000000D03*
%TD*%
%TO.C,C16*%
X98950000Y-50000000D03*
X97050000Y-50000000D03*
%TD*%
%TO.C,C20*%
X103950000Y-50000000D03*
X102050000Y-50000000D03*
%TD*%
%TO.C,C17*%
X110950000Y-35000000D03*
X109050000Y-35000000D03*
%TD*%
%TO.C,C18*%
X116950000Y-37500000D03*
X115050000Y-37500000D03*
%TD*%
D28*
%TO.C,C19*%
X111500000Y-58500000D03*
X108500000Y-58500000D03*
%TD*%
D27*
%TO.C,C1*%
X125950000Y-50500000D03*
X124050000Y-50500000D03*
%TD*%
D28*
%TO.C,C2*%
X126500000Y-60500000D03*
X123500000Y-60500000D03*
%TD*%
M02*
