%TF.GenerationSoftware,KiCad,Pcbnew,10.0.0-rc1.1-492-ge2a9f06420*%
%TF.CreationDate,2026-02-27T01:04:24+00:00*%
%TF.ProjectId,esp32-emu-turbo,65737033-322d-4656-9d75-2d747572626f,rev?*%
%TF.SameCoordinates,Original*%
%TF.FileFunction,Copper,L4,Bot*%
%TF.FilePolarity,Positive*%
%FSLAX46Y46*%
G04 Gerber Fmt 4.6, Leading zero omitted, Abs format (unit mm)*
G04 Created by KiCad (PCBNEW 10.0.0-rc1.1-492-ge2a9f06420) date 2026-02-27 01:04:24*
%MOMM*%
%LPD*%
G01*
G04 APERTURE LIST*
%TA.AperFunction,ComponentPad*%
%ADD10C,3.500000*%
%TD*%
%TA.AperFunction,SMDPad,CuDef*%
%ADD11R,1.500000X0.900000*%
%TD*%
%TA.AperFunction,SMDPad,CuDef*%
%ADD12R,0.900000X1.500000*%
%TD*%
%TA.AperFunction,SMDPad,CuDef*%
%ADD13R,3.900000X3.900000*%
%TD*%
%TA.AperFunction,SMDPad,CuDef*%
%ADD14R,0.750000X1.000000*%
%TD*%
%TA.AperFunction,SMDPad,CuDef*%
%ADD15R,1.300000X0.300000*%
%TD*%
%TA.AperFunction,SMDPad,CuDef*%
%ADD16R,1.600000X1.600000*%
%TD*%
%TA.AperFunction,SMDPad,CuDef*%
%ADD17R,0.600000X1.300000*%
%TD*%
%TA.AperFunction,SMDPad,CuDef*%
%ADD18R,0.300000X1.300000*%
%TD*%
%TA.AperFunction,ComponentPad*%
%ADD19O,1.300000X2.100000*%
%TD*%
%TA.AperFunction,ComponentPad*%
%ADD20O,1.300000X1.600000*%
%TD*%
%TA.AperFunction,SMDPad,CuDef*%
%ADD21R,1.200000X1.400000*%
%TD*%
%TA.AperFunction,SMDPad,CuDef*%
%ADD22R,1.200000X2.000000*%
%TD*%
%TA.AperFunction,SMDPad,CuDef*%
%ADD23R,1.050000X0.700000*%
%TD*%
%TA.AperFunction,SMDPad,CuDef*%
%ADD24R,2.000000X3.000000*%
%TD*%
%TA.AperFunction,SMDPad,CuDef*%
%ADD25R,1.700000X0.600000*%
%TD*%
%TA.AperFunction,SMDPad,CuDef*%
%ADD26R,3.400000X3.400000*%
%TD*%
%TA.AperFunction,SMDPad,CuDef*%
%ADD27R,1.000000X1.500000*%
%TD*%
%TA.AperFunction,SMDPad,CuDef*%
%ADD28R,3.600000X1.800000*%
%TD*%
%TA.AperFunction,SMDPad,CuDef*%
%ADD29R,0.600000X1.550000*%
%TD*%
%TA.AperFunction,SMDPad,CuDef*%
%ADD30R,1.400000X3.400000*%
%TD*%
%TA.AperFunction,ComponentPad*%
%ADD31C,1.600000*%
%TD*%
%TA.AperFunction,SMDPad,CuDef*%
%ADD32R,1.000000X1.300000*%
%TD*%
%TA.AperFunction,SMDPad,CuDef*%
%ADD33R,1.200000X1.800000*%
%TD*%
%TA.AperFunction,ViaPad*%
%ADD34C,0.900000*%
%TD*%
%TA.AperFunction,ViaPad*%
%ADD35C,0.700000*%
%TD*%
%TA.AperFunction,ViaPad*%
%ADD36C,0.800000*%
%TD*%
%TA.AperFunction,Conductor*%
%ADD37C,0.500000*%
%TD*%
%TA.AperFunction,Conductor*%
%ADD38C,0.250000*%
%TD*%
%TA.AperFunction,Conductor*%
%ADD39C,0.400000*%
%TD*%
%TA.AperFunction,Conductor*%
%ADD40C,0.200000*%
%TD*%
%TA.AperFunction,Conductor*%
%ADD41C,0.300000*%
%TD*%
G04 APERTURE END LIST*
D10*
%TO.P,,*%
%TO.N,*%
X10000000Y-7000000D03*
%TD*%
%TO.P,,*%
%TO.N,*%
X150000000Y-7000000D03*
%TD*%
%TO.P,,*%
%TO.N,*%
X10000000Y-68000000D03*
%TD*%
%TO.P,,*%
%TO.N,*%
X150000000Y-68000000D03*
%TD*%
%TO.P,,*%
%TO.N,*%
X55000000Y-37500000D03*
%TD*%
%TO.P,,*%
%TO.N,*%
X105000000Y-37500000D03*
%TD*%
D11*
%TO.P,U1,1*%
%TO.N,N/C*%
X88750000Y-22240000D03*
%TO.P,U1,2*%
X88750000Y-23510000D03*
%TO.P,U1,3*%
X88750000Y-24780000D03*
%TO.P,U1,4*%
X88750000Y-26050000D03*
%TO.P,U1,5*%
X88750000Y-27320000D03*
%TO.P,U1,6*%
X88750000Y-28590000D03*
%TO.P,U1,7*%
X88750000Y-29860000D03*
%TO.P,U1,8*%
X88750000Y-31130000D03*
%TO.P,U1,9*%
X88750000Y-32400000D03*
%TO.P,U1,10*%
X88750000Y-33670000D03*
%TO.P,U1,11*%
X88750000Y-34940000D03*
%TO.P,U1,12*%
X88750000Y-36210000D03*
%TO.P,U1,13*%
X88750000Y-37480000D03*
%TO.P,U1,14*%
X88750000Y-38750000D03*
D12*
%TO.P,U1,15*%
X86985000Y-40000000D03*
%TO.P,U1,16*%
X85715000Y-40000000D03*
%TO.P,U1,17*%
X84445000Y-40000000D03*
%TO.P,U1,18*%
X83175000Y-40000000D03*
%TO.P,U1,19*%
X81905000Y-40000000D03*
%TO.P,U1,20*%
X80635000Y-40000000D03*
%TO.P,U1,21*%
X79365000Y-40000000D03*
%TO.P,U1,22*%
X78095000Y-40000000D03*
%TO.P,U1,23*%
X76825000Y-40000000D03*
%TO.P,U1,24*%
X75555000Y-40000000D03*
%TO.P,U1,25*%
X74285000Y-40000000D03*
%TO.P,U1,26*%
X73015000Y-40000000D03*
D11*
%TO.P,U1,27*%
X71250000Y-38750000D03*
%TO.P,U1,28*%
X71250000Y-37480000D03*
%TO.P,U1,29*%
X71250000Y-36210000D03*
%TO.P,U1,30*%
X71250000Y-34940000D03*
%TO.P,U1,31*%
X71250000Y-33670000D03*
%TO.P,U1,32*%
X71250000Y-32400000D03*
%TO.P,U1,33*%
X71250000Y-31130000D03*
%TO.P,U1,34*%
X71250000Y-29860000D03*
%TO.P,U1,35*%
X71250000Y-28590000D03*
%TO.P,U1,36*%
X71250000Y-27320000D03*
%TO.P,U1,37*%
X71250000Y-26050000D03*
%TO.P,U1,38*%
X71250000Y-24780000D03*
%TO.P,U1,39*%
X71250000Y-23510000D03*
%TO.P,U1,40*%
X71250000Y-22240000D03*
D13*
%TO.P,U1,41*%
X81500000Y-29960000D03*
%TD*%
D14*
%TO.P,SW11,1*%
%TO.N,N/C*%
X13150000Y-2500000D03*
%TO.P,SW11,2*%
X13150000Y-8500000D03*
%TO.P,SW11,3*%
X16850000Y-2500000D03*
%TO.P,SW11,4*%
X16850000Y-8500000D03*
%TD*%
%TO.P,SW12,1*%
%TO.N,N/C*%
X143150000Y-2500000D03*
%TO.P,SW12,2*%
X143150000Y-8500000D03*
%TO.P,SW12,3*%
X146850000Y-2500000D03*
%TO.P,SW12,4*%
X146850000Y-8500000D03*
%TD*%
D15*
%TO.P,J4,1*%
%TO.N,N/C*%
X133150000Y-25750000D03*
%TO.P,J4,2*%
X133150000Y-26250000D03*
%TO.P,J4,3*%
X133150000Y-26750000D03*
%TO.P,J4,4*%
X133150000Y-27250000D03*
%TO.P,J4,5*%
X133150000Y-27750000D03*
%TO.P,J4,6*%
X133150000Y-28250000D03*
%TO.P,J4,7*%
X133150000Y-28750000D03*
%TO.P,J4,8*%
X133150000Y-29250000D03*
%TO.P,J4,9*%
X133150000Y-29750000D03*
%TO.P,J4,10*%
X133150000Y-30250000D03*
%TO.P,J4,11*%
X133150000Y-30750000D03*
%TO.P,J4,12*%
X133150000Y-31250000D03*
%TO.P,J4,13*%
X133150000Y-31750000D03*
%TO.P,J4,14*%
X133150000Y-32250000D03*
%TO.P,J4,15*%
X133150000Y-32750000D03*
%TO.P,J4,16*%
X133150000Y-33250000D03*
%TO.P,J4,17*%
X133150000Y-33750000D03*
%TO.P,J4,18*%
X133150000Y-34250000D03*
%TO.P,J4,19*%
X133150000Y-34750000D03*
%TO.P,J4,20*%
X133150000Y-35250000D03*
%TO.P,J4,21*%
X133150000Y-35750000D03*
%TO.P,J4,22*%
X133150000Y-36250000D03*
%TO.P,J4,23*%
X133150000Y-36750000D03*
%TO.P,J4,24*%
X133150000Y-37250000D03*
%TO.P,J4,25*%
X133150000Y-37750000D03*
%TO.P,J4,26*%
X133150000Y-38250000D03*
%TO.P,J4,27*%
X133150000Y-38750000D03*
%TO.P,J4,28*%
X133150000Y-39250000D03*
%TO.P,J4,29*%
X133150000Y-39750000D03*
%TO.P,J4,30*%
X133150000Y-40250000D03*
%TO.P,J4,31*%
X133150000Y-40750000D03*
%TO.P,J4,32*%
X133150000Y-41250000D03*
%TO.P,J4,33*%
X133150000Y-41750000D03*
%TO.P,J4,34*%
X133150000Y-42250000D03*
%TO.P,J4,35*%
X133150000Y-42750000D03*
%TO.P,J4,36*%
X133150000Y-43250000D03*
%TO.P,J4,37*%
X133150000Y-43750000D03*
%TO.P,J4,38*%
X133150000Y-44250000D03*
%TO.P,J4,39*%
X133150000Y-44750000D03*
%TO.P,J4,40*%
X133150000Y-45250000D03*
D16*
%TO.P,J4,MP1*%
X133150000Y-24000000D03*
%TO.P,J4,MP2*%
X133150000Y-47000000D03*
%TD*%
D17*
%TO.P,J1,A1*%
%TO.N,N/C*%
X83200000Y-68255000D03*
%TO.P,J1,A4*%
X82400000Y-68255000D03*
%TO.P,J1,A9*%
X77600000Y-68255000D03*
%TO.P,J1,A12*%
X76800000Y-68255000D03*
D18*
%TO.P,J1,A5*%
X81250000Y-68255000D03*
%TO.P,J1,A6*%
X80250000Y-68255000D03*
%TO.P,J1,A7*%
X79750000Y-68255000D03*
%TO.P,J1,A8*%
X78750000Y-68255000D03*
%TO.P,J1,B8*%
X81750000Y-68255000D03*
%TO.P,J1,B7*%
X80750000Y-68255000D03*
%TO.P,J1,B6*%
X79250000Y-68255000D03*
%TO.P,J1,B5*%
X78250000Y-68255000D03*
D19*
%TO.P,J1,S*%
X84320000Y-68895000D03*
X75680000Y-68895000D03*
D20*
X84320000Y-73075000D03*
X75680000Y-73075000D03*
%TD*%
D17*
%TO.P,U6,1*%
%TO.N,N/C*%
X137760000Y-61550000D03*
%TO.P,U6,2*%
X138860000Y-61550000D03*
%TO.P,U6,3*%
X139960000Y-61550000D03*
%TO.P,U6,4*%
X141060000Y-61550000D03*
%TO.P,U6,5*%
X142160000Y-61550000D03*
%TO.P,U6,6*%
X143260000Y-61550000D03*
%TO.P,U6,7*%
X144360000Y-61550000D03*
%TO.P,U6,8*%
X145460000Y-61550000D03*
%TO.P,U6,9*%
X146560000Y-61550000D03*
D21*
%TO.P,U6,10*%
X147760000Y-62400000D03*
%TO.P,U6,13*%
X133080000Y-62400000D03*
D22*
%TO.P,U6,11*%
X147760000Y-72100000D03*
%TO.P,U6,12*%
X132240000Y-72100000D03*
%TD*%
D17*
%TO.P,SW_PWR,1*%
%TO.N,N/C*%
X42250000Y-70050000D03*
%TO.P,SW_PWR,2*%
X39250000Y-70050000D03*
%TO.P,SW_PWR,3*%
X37750000Y-70050000D03*
D23*
%TO.P,SW_PWR,SH*%
X43675000Y-70900000D03*
X43675000Y-73100000D03*
X36325000Y-70900000D03*
X36325000Y-73100000D03*
%TD*%
D24*
%TO.P,SPK1,1*%
%TO.N,N/C*%
X39500000Y-52500000D03*
%TO.P,SPK1,2*%
X20500000Y-52500000D03*
%TD*%
D25*
%TO.P,U2,1*%
%TO.N,N/C*%
X113000000Y-40595000D03*
%TO.P,U2,2*%
X113000000Y-41865000D03*
%TO.P,U2,3*%
X113000000Y-43135000D03*
%TO.P,U2,4*%
X113000000Y-44405000D03*
%TO.P,U2,5*%
X107000000Y-44405000D03*
%TO.P,U2,6*%
X107000000Y-43135000D03*
%TO.P,U2,7*%
X107000000Y-41865000D03*
%TO.P,U2,8*%
X107000000Y-40595000D03*
D26*
%TO.P,U2,EP*%
X110000000Y-42500000D03*
%TD*%
D27*
%TO.P,U3,1*%
%TO.N,N/C*%
X127300000Y-58650000D03*
%TO.P,U3,2*%
X125000000Y-58650000D03*
%TO.P,U3,3*%
X122700000Y-58650000D03*
D28*
%TO.P,U3,4*%
X125000000Y-52350000D03*
%TD*%
D29*
%TO.P,U5,1*%
%TO.N,N/C*%
X25555000Y-26800000D03*
%TO.P,U5,2*%
X26825000Y-26800000D03*
%TO.P,U5,3*%
X28095000Y-26800000D03*
%TO.P,U5,4*%
X29365000Y-26800000D03*
%TO.P,U5,5*%
X30635000Y-26800000D03*
%TO.P,U5,6*%
X31905000Y-26800000D03*
%TO.P,U5,7*%
X33175000Y-26800000D03*
%TO.P,U5,8*%
X34445000Y-26800000D03*
%TO.P,U5,9*%
X34445000Y-32200000D03*
%TO.P,U5,10*%
X33175000Y-32200000D03*
%TO.P,U5,11*%
X31905000Y-32200000D03*
%TO.P,U5,12*%
X30635000Y-32200000D03*
%TO.P,U5,13*%
X29365000Y-32200000D03*
%TO.P,U5,14*%
X28095000Y-32200000D03*
%TO.P,U5,15*%
X26825000Y-32200000D03*
%TO.P,U5,16*%
X25555000Y-32200000D03*
%TD*%
D30*
%TO.P,L1,1*%
%TO.N,N/C*%
X111700000Y-52500000D03*
%TO.P,L1,2*%
X108300000Y-52500000D03*
%TD*%
D31*
%TO.P,J3,1*%
%TO.N,N/C*%
X81000000Y-57500000D03*
%TO.P,J3,2*%
X79000000Y-57500000D03*
%TD*%
D32*
%TO.P,R1,1*%
%TO.N,N/C*%
X74950000Y-67000000D03*
%TO.P,R1,2*%
X73050000Y-67000000D03*
%TD*%
%TO.P,R2,1*%
%TO.N,N/C*%
X86950000Y-67000000D03*
%TO.P,R2,2*%
X85050000Y-67000000D03*
%TD*%
%TO.P,R3,1*%
%TO.N,N/C*%
X65950000Y-42000000D03*
%TO.P,R3,2*%
X64050000Y-42000000D03*
%TD*%
%TO.P,C3,1*%
%TO.N,N/C*%
X70950000Y-42000000D03*
%TO.P,C3,2*%
X69050000Y-42000000D03*
%TD*%
%TO.P,C4,1*%
%TO.N,N/C*%
X85950000Y-42000000D03*
%TO.P,C4,2*%
X84050000Y-42000000D03*
%TD*%
%TO.P,R17,1*%
%TO.N,N/C*%
X25950000Y-65000000D03*
%TO.P,R17,2*%
X24050000Y-65000000D03*
%TD*%
%TO.P,R18,1*%
%TO.N,N/C*%
X32950000Y-65000000D03*
%TO.P,R18,2*%
X31050000Y-65000000D03*
%TD*%
%TO.P,R4,1*%
%TO.N,N/C*%
X43950000Y-46000000D03*
%TO.P,R4,2*%
X42050000Y-46000000D03*
%TD*%
%TO.P,R5,1*%
%TO.N,N/C*%
X48950000Y-46000000D03*
%TO.P,R5,2*%
X47050000Y-46000000D03*
%TD*%
%TO.P,R6,1*%
%TO.N,N/C*%
X53950000Y-46000000D03*
%TO.P,R6,2*%
X52050000Y-46000000D03*
%TD*%
%TO.P,R7,1*%
%TO.N,N/C*%
X58950000Y-46000000D03*
%TO.P,R7,2*%
X57050000Y-46000000D03*
%TD*%
%TO.P,R8,1*%
%TO.N,N/C*%
X63950000Y-46000000D03*
%TO.P,R8,2*%
X62050000Y-46000000D03*
%TD*%
%TO.P,R9,1*%
%TO.N,N/C*%
X68950000Y-46000000D03*
%TO.P,R9,2*%
X67050000Y-46000000D03*
%TD*%
%TO.P,R10,1*%
%TO.N,N/C*%
X73950000Y-46000000D03*
%TO.P,R10,2*%
X72050000Y-46000000D03*
%TD*%
%TO.P,R11,1*%
%TO.N,N/C*%
X78950000Y-46000000D03*
%TO.P,R11,2*%
X77050000Y-46000000D03*
%TD*%
%TO.P,R12,1*%
%TO.N,N/C*%
X83950000Y-46000000D03*
%TO.P,R12,2*%
X82050000Y-46000000D03*
%TD*%
%TO.P,R13,1*%
%TO.N,N/C*%
X88950000Y-46000000D03*
%TO.P,R13,2*%
X87050000Y-46000000D03*
%TD*%
%TO.P,R14,1*%
%TO.N,N/C*%
X93950000Y-46000000D03*
%TO.P,R14,2*%
X92050000Y-46000000D03*
%TD*%
%TO.P,R15,1*%
%TO.N,N/C*%
X98950000Y-46000000D03*
%TO.P,R15,2*%
X97050000Y-46000000D03*
%TD*%
%TO.P,R19,1*%
%TO.N,N/C*%
X103950000Y-46000000D03*
%TO.P,R19,2*%
X102050000Y-46000000D03*
%TD*%
%TO.P,R16,1*%
%TO.N,N/C*%
X115950000Y-52500000D03*
%TO.P,R16,2*%
X114050000Y-52500000D03*
%TD*%
%TO.P,C5,1*%
%TO.N,N/C*%
X43950000Y-50000000D03*
%TO.P,C5,2*%
X42050000Y-50000000D03*
%TD*%
%TO.P,C6,1*%
%TO.N,N/C*%
X48950000Y-50000000D03*
%TO.P,C6,2*%
X47050000Y-50000000D03*
%TD*%
%TO.P,C7,1*%
%TO.N,N/C*%
X53950000Y-50000000D03*
%TO.P,C7,2*%
X52050000Y-50000000D03*
%TD*%
%TO.P,C8,1*%
%TO.N,N/C*%
X58950000Y-50000000D03*
%TO.P,C8,2*%
X57050000Y-50000000D03*
%TD*%
%TO.P,C9,1*%
%TO.N,N/C*%
X63950000Y-50000000D03*
%TO.P,C9,2*%
X62050000Y-50000000D03*
%TD*%
%TO.P,C10,1*%
%TO.N,N/C*%
X68950000Y-50000000D03*
%TO.P,C10,2*%
X67050000Y-50000000D03*
%TD*%
%TO.P,C11,1*%
%TO.N,N/C*%
X73950000Y-50000000D03*
%TO.P,C11,2*%
X72050000Y-50000000D03*
%TD*%
%TO.P,C12,1*%
%TO.N,N/C*%
X78950000Y-50000000D03*
%TO.P,C12,2*%
X77050000Y-50000000D03*
%TD*%
%TO.P,C13,1*%
%TO.N,N/C*%
X83950000Y-50000000D03*
%TO.P,C13,2*%
X82050000Y-50000000D03*
%TD*%
%TO.P,C14,1*%
%TO.N,N/C*%
X88950000Y-50000000D03*
%TO.P,C14,2*%
X87050000Y-50000000D03*
%TD*%
%TO.P,C15,1*%
%TO.N,N/C*%
X93950000Y-50000000D03*
%TO.P,C15,2*%
X92050000Y-50000000D03*
%TD*%
%TO.P,C16,1*%
%TO.N,N/C*%
X98950000Y-50000000D03*
%TO.P,C16,2*%
X97050000Y-50000000D03*
%TD*%
%TO.P,C20,1*%
%TO.N,N/C*%
X103950000Y-50000000D03*
%TO.P,C20,2*%
X102050000Y-50000000D03*
%TD*%
%TO.P,C17,1*%
%TO.N,N/C*%
X110950000Y-35000000D03*
%TO.P,C17,2*%
X109050000Y-35000000D03*
%TD*%
%TO.P,C18,1*%
%TO.N,N/C*%
X116950000Y-37500000D03*
%TO.P,C18,2*%
X115050000Y-37500000D03*
%TD*%
D33*
%TO.P,C19,1*%
%TO.N,N/C*%
X111500000Y-58500000D03*
%TO.P,C19,2*%
X108500000Y-58500000D03*
%TD*%
D32*
%TO.P,C1,1*%
%TO.N,N/C*%
X122950000Y-48500000D03*
%TO.P,C1,2*%
X121050000Y-48500000D03*
%TD*%
D33*
%TO.P,C2,1*%
%TO.N,N/C*%
X126500000Y-62500000D03*
%TO.P,C2,2*%
X123500000Y-62500000D03*
%TD*%
D34*
%TO.N,VBUS*%
X82400000Y-66255000D03*
X111000000Y-40595000D03*
X76800000Y-66255000D03*
X110000000Y-45500000D03*
%TO.N,GND*%
X127300000Y-60650000D03*
%TO.N,VBUS*%
X81500000Y-31960000D03*
%TO.N,GND*%
X77000000Y-57500000D03*
%TO.N,VBUS*%
X107000000Y-38595000D03*
%TO.N,+5V*%
X122700000Y-56650000D03*
%TO.N,BAT+*%
X111700000Y-50500000D03*
%TO.N,+5V*%
X115950000Y-54500000D03*
%TO.N,VBUS*%
X123000000Y-49350000D03*
X98000000Y-49350000D03*
X88750000Y-21510000D03*
X107000000Y-46135000D03*
X81000000Y-46135000D03*
X39250000Y-68050000D03*
X90750000Y-26050000D03*
D35*
X124000000Y-26050000D03*
X124000000Y-5000000D03*
X130000000Y-37250000D03*
D34*
X90750000Y-27320000D03*
D35*
X122900000Y-27320000D03*
X122900000Y-6000000D03*
X131000000Y-36750000D03*
D34*
X90750000Y-28590000D03*
D35*
X121800000Y-28590000D03*
X121800000Y-7000000D03*
X132000000Y-36250000D03*
D34*
X90750000Y-29860000D03*
D35*
X120700000Y-29860000D03*
X120700000Y-8000000D03*
X133000000Y-35750000D03*
D34*
X90750000Y-36210000D03*
D35*
X119600000Y-36210000D03*
X119600000Y-9000000D03*
X134000000Y-35250000D03*
D34*
X84445000Y-38115000D03*
D35*
X118500000Y-38115000D03*
X118500000Y-10000000D03*
X135000000Y-34750000D03*
D34*
X83175000Y-36845000D03*
D35*
X117400000Y-36845000D03*
X117400000Y-11000000D03*
X136000000Y-34250000D03*
D34*
X81905000Y-35575000D03*
D35*
X116300000Y-35575000D03*
X116300000Y-12000000D03*
X137000000Y-33750000D03*
D34*
X79365000Y-34305000D03*
D35*
X115200000Y-34305000D03*
X115200000Y-13000000D03*
X138000000Y-38250000D03*
D34*
X80635000Y-33035000D03*
D35*
X114100000Y-33035000D03*
X114100000Y-14000000D03*
X139000000Y-41250000D03*
D34*
X78095000Y-31765000D03*
D35*
X113000000Y-31765000D03*
X113000000Y-15000000D03*
X140000000Y-40750000D03*
D34*
X85715000Y-30495000D03*
D35*
X111900000Y-30495000D03*
X111900000Y-16000000D03*
X141000000Y-40250000D03*
D34*
X86985000Y-29225000D03*
D35*
X110800000Y-29225000D03*
X110800000Y-17000000D03*
X142000000Y-39750000D03*
D34*
X73015000Y-27955000D03*
D35*
X109700000Y-27955000D03*
X109700000Y-18000000D03*
X143000000Y-29250000D03*
%TO.N,GND*%
X133850000Y-43250000D03*
X133850000Y-39750000D03*
%TO.N,VBUS*%
X140850000Y-25750000D03*
X133850000Y-30250000D03*
X139850000Y-30750000D03*
X133850000Y-25250000D03*
X133850000Y-27750000D03*
X139850000Y-39750000D03*
%TO.N,GND*%
X133850000Y-44250000D03*
%TO.N,VBUS*%
X133850000Y-23750000D03*
X139850000Y-28250000D03*
D34*
X69750000Y-36210000D03*
X50000000Y-36210000D03*
X50000000Y-19000000D03*
X135000000Y-61550000D03*
X69250000Y-34940000D03*
X51000000Y-34940000D03*
X51000000Y-20000000D03*
X136000000Y-60550000D03*
X68750000Y-33670000D03*
X52000000Y-33670000D03*
X52000000Y-21000000D03*
X137000000Y-59550000D03*
X68250000Y-32400000D03*
X53000000Y-32400000D03*
X53000000Y-22000000D03*
X138000000Y-58550000D03*
X87250000Y-33670000D03*
X26825000Y-33670000D03*
%TO.N,SPK+*%
X35945000Y-22500000D03*
X39500000Y-22500000D03*
%TO.N,VBUS*%
X31905000Y-21000000D03*
X20500000Y-21000000D03*
X28095000Y-34200000D03*
X30635000Y-24800000D03*
X33175000Y-34200000D03*
%TO.N,GND*%
X33175000Y-24800000D03*
%TO.N,VBUS*%
X28095000Y-24800000D03*
X80250000Y-65255000D03*
X90750000Y-65255000D03*
X79750000Y-64255000D03*
X91750000Y-64255000D03*
X73050000Y-65500000D03*
X85050000Y-65500000D03*
X22000000Y-21650000D03*
X22000000Y-62000000D03*
X69950000Y-62000000D03*
D35*
%TO.N,GND*%
X15000000Y-26350000D03*
D34*
%TO.N,VBUS*%
X23000000Y-39650000D03*
X23000000Y-63000000D03*
X68050000Y-63000000D03*
X68050000Y-29860000D03*
X71250000Y-29860000D03*
D35*
%TO.N,GND*%
X15000000Y-44350000D03*
D34*
%TO.N,VBUS*%
X13000000Y-30650000D03*
X13000000Y-64000000D03*
X70950000Y-64000000D03*
D35*
%TO.N,GND*%
X6000000Y-35350000D03*
D34*
%TO.N,VBUS*%
X31000000Y-30650000D03*
X31000000Y-65000000D03*
X66050000Y-65000000D03*
X66050000Y-27320000D03*
X71250000Y-27320000D03*
D35*
%TO.N,GND*%
X24000000Y-35350000D03*
D34*
%TO.N,VBUS*%
X138000000Y-20650000D03*
X138000000Y-66000000D03*
X65050000Y-66000000D03*
X65050000Y-26050000D03*
X71250000Y-26050000D03*
D35*
%TO.N,GND*%
X145000000Y-25350000D03*
D34*
%TO.N,VBUS*%
X148000000Y-30650000D03*
X148000000Y-67000000D03*
X71950000Y-67000000D03*
X71950000Y-38000000D03*
X74285000Y-38000000D03*
D35*
%TO.N,GND*%
X155000000Y-35350000D03*
D34*
%TO.N,VBUS*%
X139000000Y-40650000D03*
X139000000Y-68000000D03*
X71950000Y-68000000D03*
X71950000Y-37000000D03*
X75555000Y-37000000D03*
D35*
%TO.N,GND*%
X145000000Y-45350000D03*
D34*
%TO.N,VBUS*%
X130000000Y-30650000D03*
X130000000Y-69000000D03*
X71950000Y-69000000D03*
X71950000Y-36000000D03*
X76825000Y-36000000D03*
D35*
X137000000Y-35350000D03*
D34*
X12000000Y-52650000D03*
X12000000Y-70000000D03*
X98050000Y-70000000D03*
X98050000Y-34940000D03*
X88750000Y-34940000D03*
D35*
%TO.N,GND*%
X5000000Y-57350000D03*
D34*
%TO.N,VBUS*%
X32000000Y-52650000D03*
X32000000Y-71000000D03*
X60250000Y-71000000D03*
X60250000Y-35000000D03*
X71250000Y-35000000D03*
D35*
%TO.N,GND*%
X25000000Y-57350000D03*
D34*
%TO.N,VBUS*%
X13150000Y-68000000D03*
X69250000Y-68000000D03*
%TO.N,GND*%
X17850000Y-2500000D03*
%TO.N,+3V3*%
X42050000Y-45000000D03*
X47050000Y-45000000D03*
X52050000Y-45000000D03*
X57050000Y-45000000D03*
X62050000Y-45000000D03*
X67050000Y-45000000D03*
%TO.N,VBUS*%
X72050000Y-45000000D03*
%TO.N,+3V3*%
X77050000Y-45000000D03*
X82050000Y-45000000D03*
X87050000Y-45000000D03*
%TO.N,VBUS*%
X92050000Y-45000000D03*
%TO.N,+3V3*%
X97050000Y-45000000D03*
X102050000Y-45000000D03*
%TO.N,GND*%
X42050000Y-52000000D03*
X47050000Y-52000000D03*
X52050000Y-52000000D03*
X57050000Y-52000000D03*
X62050000Y-52000000D03*
X67050000Y-52000000D03*
%TO.N,VBUS*%
X72050000Y-52000000D03*
%TO.N,GND*%
X77050000Y-52000000D03*
X82050000Y-52000000D03*
X87050000Y-52000000D03*
%TO.N,VBUS*%
X92050000Y-52000000D03*
%TO.N,GND*%
X97050000Y-52000000D03*
X102050000Y-52000000D03*
%TO.N,VBUS*%
X70950000Y-41000000D03*
X69050000Y-40000000D03*
X85950000Y-41000000D03*
X84050000Y-40000000D03*
X122950000Y-46000000D03*
%TO.N,GND*%
X121050000Y-46000000D03*
X123500000Y-64500000D03*
%TO.N,VBUS*%
X110950000Y-33000000D03*
X109050000Y-37000000D03*
X116950000Y-35000000D03*
%TO.N,GND*%
X115050000Y-40000000D03*
%TO.N,VBUS*%
X111500000Y-56500000D03*
%TO.N,GND*%
X108500000Y-60500000D03*
%TO.N,VBUS*%
X25950000Y-63000000D03*
D36*
X24050000Y-66500000D03*
D34*
X27450000Y-67500000D03*
X32950000Y-63000000D03*
D36*
X31050000Y-66500000D03*
D34*
X34450000Y-67500000D03*
%TD*%
%TO.N,VBUS*%
D37*
X82400000Y-68255000D02*
X82400000Y-66255000D01*
X111000000Y-40595000D02*
X113000000Y-40595000D01*
X76800000Y-68255000D02*
X76800000Y-66255000D01*
X110000000Y-42500000D02*
X110000000Y-45500000D01*
%TO.N,GND*%
X127300000Y-58650000D02*
X127300000Y-60650000D01*
%TO.N,VBUS*%
X81500000Y-29960000D02*
X81500000Y-31960000D01*
%TO.N,GND*%
X79000000Y-57500000D02*
X77000000Y-57500000D01*
%TO.N,VBUS*%
X107000000Y-40595000D02*
X107000000Y-38595000D01*
%TO.N,+5V*%
X122700000Y-58650000D02*
X122700000Y-56650000D01*
%TO.N,VBUS*%
X107000000Y-41865000D02*
X107000000Y-52500000D01*
X107000000Y-52500000D02*
X108300000Y-52500000D01*
%TO.N,BAT+*%
X111700000Y-52500000D02*
X111700000Y-50500000D01*
%TO.N,VBUS*%
D38*
X114050000Y-52500000D02*
X114050000Y-44405000D01*
X114050000Y-44405000D02*
X107000000Y-44405000D01*
%TO.N,+5V*%
X115950000Y-52500000D02*
X115950000Y-54500000D01*
%TO.N,VBUS*%
D39*
X125000000Y-52350000D02*
X123000000Y-52350000D01*
X123000000Y-52350000D02*
X123000000Y-49350000D01*
X88750000Y-23510000D02*
X88750000Y-21510000D01*
D37*
X107000000Y-43135000D02*
X107000000Y-46135000D01*
X81000000Y-46135000D02*
X81000000Y-57500000D01*
X39250000Y-70050000D02*
X39250000Y-68050000D01*
D40*
X88750000Y-26050000D02*
X90750000Y-26050000D01*
X124000000Y-26050000D02*
X124000000Y-5000000D01*
X130000000Y-37250000D02*
X136850000Y-37250000D01*
X88750000Y-27320000D02*
X90750000Y-27320000D01*
X122900000Y-27320000D02*
X122900000Y-6000000D01*
X131000000Y-36750000D02*
X136850000Y-36750000D01*
X88750000Y-28590000D02*
X90750000Y-28590000D01*
X121800000Y-28590000D02*
X121800000Y-7000000D01*
X132000000Y-36250000D02*
X136850000Y-36250000D01*
X88750000Y-29860000D02*
X90750000Y-29860000D01*
X120700000Y-29860000D02*
X120700000Y-8000000D01*
X133000000Y-35750000D02*
X136850000Y-35750000D01*
X88750000Y-36210000D02*
X90750000Y-36210000D01*
X119600000Y-36210000D02*
X119600000Y-9000000D01*
X134000000Y-35250000D02*
X136850000Y-35250000D01*
X84445000Y-40000000D02*
X84445000Y-38115000D01*
X118500000Y-38115000D02*
X118500000Y-10000000D01*
X135000000Y-34750000D02*
X136850000Y-34750000D01*
X83175000Y-40000000D02*
X83175000Y-36845000D01*
X117400000Y-36845000D02*
X117400000Y-11000000D01*
X136000000Y-34250000D02*
X136850000Y-34250000D01*
X81905000Y-40000000D02*
X81905000Y-35575000D01*
X116300000Y-35575000D02*
X116300000Y-12000000D01*
X137000000Y-33750000D02*
X136850000Y-33750000D01*
X79365000Y-40000000D02*
X79365000Y-34305000D01*
X115200000Y-34305000D02*
X115200000Y-13000000D01*
X138000000Y-38250000D02*
X136850000Y-38250000D01*
X80635000Y-40000000D02*
X80635000Y-33035000D01*
X114100000Y-33035000D02*
X114100000Y-14000000D01*
X139000000Y-41250000D02*
X136850000Y-41250000D01*
X78095000Y-40000000D02*
X78095000Y-31765000D01*
X113000000Y-31765000D02*
X113000000Y-15000000D01*
X140000000Y-40750000D02*
X136850000Y-40750000D01*
X85715000Y-40000000D02*
X85715000Y-30495000D01*
X111900000Y-30495000D02*
X111900000Y-16000000D01*
X141000000Y-40250000D02*
X136850000Y-40250000D01*
X86985000Y-40000000D02*
X86985000Y-29225000D01*
X110800000Y-29225000D02*
X110800000Y-17000000D01*
X142000000Y-39750000D02*
X136850000Y-39750000D01*
X73015000Y-40000000D02*
X73015000Y-27955000D01*
X109700000Y-27955000D02*
X109700000Y-18000000D01*
X143000000Y-29250000D02*
X136850000Y-29250000D01*
%TO.N,GND*%
D41*
X136850000Y-43250000D02*
X133850000Y-43250000D01*
X136850000Y-37750000D02*
X133850000Y-39750000D01*
%TO.N,VBUS*%
X136850000Y-28750000D02*
X140850000Y-25750000D01*
X136850000Y-28250000D02*
X133850000Y-30250000D01*
X136850000Y-27750000D02*
X139850000Y-30750000D01*
X136850000Y-27250000D02*
X133850000Y-25250000D01*
X136850000Y-25750000D02*
X133850000Y-27750000D01*
X136850000Y-42750000D02*
X139850000Y-39750000D01*
%TO.N,GND*%
X136850000Y-42250000D02*
X133850000Y-44250000D01*
%TO.N,VBUS*%
X136850000Y-26750000D02*
X133850000Y-23750000D01*
X136850000Y-26250000D02*
X139850000Y-28250000D01*
D40*
X71250000Y-36210000D02*
X69750000Y-36210000D01*
X50000000Y-36210000D02*
X50000000Y-19000000D01*
X135000000Y-61550000D02*
X139960000Y-61550000D01*
X71250000Y-34940000D02*
X69250000Y-34940000D01*
X51000000Y-34940000D02*
X51000000Y-20000000D01*
X136000000Y-60550000D02*
X144360000Y-60550000D01*
X144360000Y-60550000D02*
X144360000Y-61550000D01*
X71250000Y-33670000D02*
X68750000Y-33670000D01*
X52000000Y-33670000D02*
X52000000Y-21000000D01*
X137000000Y-59550000D02*
X142160000Y-59550000D01*
X142160000Y-59550000D02*
X142160000Y-61550000D01*
X71250000Y-32400000D02*
X68250000Y-32400000D01*
X53000000Y-32400000D02*
X53000000Y-22000000D01*
X138000000Y-58550000D02*
X138860000Y-58550000D01*
X138860000Y-58550000D02*
X138860000Y-61550000D01*
X88750000Y-33670000D02*
X87250000Y-33670000D01*
X26825000Y-33670000D02*
X26825000Y-26800000D01*
X26825000Y-26800000D02*
X26825000Y-32200000D01*
%TO.N,SPK+*%
D41*
X34445000Y-26800000D02*
X35945000Y-26800000D01*
X35945000Y-26800000D02*
X35945000Y-22500000D01*
X39500000Y-22500000D02*
X39500000Y-52500000D01*
%TO.N,VBUS*%
X31905000Y-26800000D02*
X31905000Y-21000000D01*
X20500000Y-21000000D02*
X20500000Y-52500000D01*
D37*
X28095000Y-32200000D02*
X29365000Y-32200000D01*
X29365000Y-32200000D02*
X30635000Y-32200000D01*
X28095000Y-32200000D02*
X28095000Y-34200000D01*
X29365000Y-26800000D02*
X30635000Y-26800000D01*
X30635000Y-26800000D02*
X30635000Y-24800000D01*
X28095000Y-32200000D02*
X28095000Y-26800000D01*
X28095000Y-26800000D02*
X30635000Y-26800000D01*
X33175000Y-32200000D02*
X33175000Y-34200000D01*
%TO.N,GND*%
X33175000Y-26800000D02*
X33175000Y-24800000D01*
%TO.N,VBUS*%
X28095000Y-26800000D02*
X28095000Y-24800000D01*
D40*
X80250000Y-68255000D02*
X80250000Y-65255000D01*
X90750000Y-65255000D02*
X90750000Y-38750000D01*
X90750000Y-38750000D02*
X88750000Y-38750000D01*
X79750000Y-68255000D02*
X79750000Y-64255000D01*
X91750000Y-64255000D02*
X91750000Y-37480000D01*
X91750000Y-37480000D02*
X88750000Y-37480000D01*
D38*
X81250000Y-68255000D02*
X81250000Y-67000000D01*
X81250000Y-67000000D02*
X74950000Y-67000000D01*
X78250000Y-68255000D02*
X78250000Y-67000000D01*
X78250000Y-67000000D02*
X86950000Y-67000000D01*
X73050000Y-67000000D02*
X73050000Y-65500000D01*
X85050000Y-67000000D02*
X85050000Y-65500000D01*
X22000000Y-21650000D02*
X22000000Y-62000000D01*
X69950000Y-62000000D02*
X69950000Y-31130000D01*
X69950000Y-31130000D02*
X71250000Y-31130000D01*
X23000000Y-39650000D02*
X23000000Y-63000000D01*
X68050000Y-63000000D02*
X68050000Y-29860000D01*
X13000000Y-30650000D02*
X13000000Y-64000000D01*
X70950000Y-64000000D02*
X70950000Y-28590000D01*
X70950000Y-28590000D02*
X71250000Y-28590000D01*
X31000000Y-30650000D02*
X31000000Y-65000000D01*
X66050000Y-65000000D02*
X66050000Y-27320000D01*
X138000000Y-20650000D02*
X138000000Y-66000000D01*
X65050000Y-66000000D02*
X65050000Y-26050000D01*
X148000000Y-30650000D02*
X148000000Y-67000000D01*
X71950000Y-67000000D02*
X71950000Y-38000000D01*
X74285000Y-38000000D02*
X74285000Y-40000000D01*
X139000000Y-40650000D02*
X139000000Y-68000000D01*
X71950000Y-68000000D02*
X71950000Y-37000000D01*
X75555000Y-37000000D02*
X75555000Y-40000000D01*
X130000000Y-30650000D02*
X130000000Y-69000000D01*
X71950000Y-69000000D02*
X71950000Y-36000000D01*
X76825000Y-36000000D02*
X76825000Y-40000000D01*
X12000000Y-52650000D02*
X12000000Y-70000000D01*
X98050000Y-70000000D02*
X98050000Y-34940000D01*
X32000000Y-52650000D02*
X32000000Y-71000000D01*
X60250000Y-71000000D02*
X60250000Y-35000000D01*
X71250000Y-35000000D02*
X71250000Y-38750000D01*
X13150000Y-8500000D02*
X13150000Y-68000000D01*
X69250000Y-68000000D02*
X69250000Y-37480000D01*
X69250000Y-37480000D02*
X71250000Y-37480000D01*
%TO.N,GND*%
X16850000Y-2500000D02*
X17850000Y-2500000D01*
%TO.N,+3V3*%
X42050000Y-46000000D02*
X42050000Y-45000000D01*
X47050000Y-46000000D02*
X47050000Y-45000000D01*
X52050000Y-46000000D02*
X52050000Y-45000000D01*
X57050000Y-46000000D02*
X57050000Y-45000000D01*
X62050000Y-46000000D02*
X62050000Y-45000000D01*
X67050000Y-46000000D02*
X67050000Y-45000000D01*
%TO.N,VBUS*%
X72050000Y-46000000D02*
X72050000Y-45000000D01*
%TO.N,+3V3*%
X77050000Y-46000000D02*
X77050000Y-45000000D01*
X82050000Y-46000000D02*
X82050000Y-45000000D01*
X87050000Y-46000000D02*
X87050000Y-45000000D01*
%TO.N,VBUS*%
X92050000Y-46000000D02*
X92050000Y-45000000D01*
%TO.N,+3V3*%
X97050000Y-46000000D02*
X97050000Y-45000000D01*
X102050000Y-46000000D02*
X102050000Y-45000000D01*
%TO.N,GND*%
X42050000Y-50000000D02*
X42050000Y-52000000D01*
X47050000Y-50000000D02*
X47050000Y-52000000D01*
X52050000Y-50000000D02*
X52050000Y-52000000D01*
X57050000Y-50000000D02*
X57050000Y-52000000D01*
X62050000Y-50000000D02*
X62050000Y-52000000D01*
X67050000Y-50000000D02*
X67050000Y-52000000D01*
%TO.N,VBUS*%
X72050000Y-50000000D02*
X72050000Y-52000000D01*
%TO.N,GND*%
X77050000Y-50000000D02*
X77050000Y-52000000D01*
X82050000Y-50000000D02*
X82050000Y-52000000D01*
X87050000Y-50000000D02*
X87050000Y-52000000D01*
%TO.N,VBUS*%
X92050000Y-50000000D02*
X92050000Y-52000000D01*
%TO.N,GND*%
X97050000Y-50000000D02*
X97050000Y-52000000D01*
X102050000Y-50000000D02*
X102050000Y-52000000D01*
%TO.N,BTN_UP*%
X43950000Y-46000000D02*
X43950000Y-50000000D01*
%TO.N,BTN_DOWN*%
X48950000Y-46000000D02*
X48950000Y-50000000D01*
%TO.N,BTN_LEFT*%
X53950000Y-46000000D02*
X53950000Y-50000000D01*
%TO.N,BTN_RIGHT*%
X58950000Y-46000000D02*
X58950000Y-50000000D01*
%TO.N,BTN_A*%
X63950000Y-46000000D02*
X63950000Y-50000000D01*
%TO.N,VBUS*%
X68950000Y-46000000D02*
X68950000Y-50000000D01*
%TO.N,BTN_X*%
X73950000Y-46000000D02*
X73950000Y-50000000D01*
%TO.N,BTN_Y*%
X78950000Y-46000000D02*
X78950000Y-50000000D01*
%TO.N,BTN_START*%
X83950000Y-46000000D02*
X83950000Y-50000000D01*
%TO.N,BTN_SELECT*%
X88950000Y-46000000D02*
X88950000Y-50000000D01*
%TO.N,BTN_L*%
X93950000Y-46000000D02*
X93950000Y-50000000D01*
%TO.N,BTN_R*%
X98950000Y-46000000D02*
X98950000Y-50000000D01*
%TO.N,BTN_MENU*%
X103950000Y-46000000D02*
X103950000Y-50000000D01*
%TO.N,VBUS*%
X70950000Y-42000000D02*
X70950000Y-41000000D01*
X69050000Y-42000000D02*
X69050000Y-40000000D01*
X85950000Y-42000000D02*
X85950000Y-41000000D01*
X84050000Y-42000000D02*
X84050000Y-40000000D01*
X122950000Y-48500000D02*
X122950000Y-46000000D01*
%TO.N,GND*%
X121050000Y-48500000D02*
X121050000Y-46000000D01*
%TO.N,VBUS*%
X126500000Y-62500000D02*
X125000000Y-62500000D01*
X125000000Y-62500000D02*
X125000000Y-52350000D01*
%TO.N,GND*%
X123500000Y-62500000D02*
X123500000Y-64500000D01*
%TO.N,VBUS*%
X110950000Y-35000000D02*
X110950000Y-33000000D01*
X109050000Y-35000000D02*
X109050000Y-37000000D01*
X116950000Y-37500000D02*
X116950000Y-35000000D01*
%TO.N,GND*%
X115050000Y-37500000D02*
X115050000Y-40000000D01*
%TO.N,VBUS*%
X111500000Y-58500000D02*
X111500000Y-56500000D01*
%TO.N,GND*%
X108500000Y-58500000D02*
X108500000Y-60500000D01*
%TO.N,VBUS*%
X25950000Y-63000000D02*
X25950000Y-65000000D01*
X24050000Y-65000000D02*
X24050000Y-66500000D01*
X32950000Y-63000000D02*
X32950000Y-65000000D01*
X31050000Y-65000000D02*
X31050000Y-66500000D01*
%TD*%
M02*
