M48
; DRILL file KiCad 9.99.0-5542-g9c1654c496 date 2026-02-20T21:21:04
; FORMAT={-:-/ absolute / metric / decimal}
; #@! TF.CreationDate,2026-02-20T21:21:04+00:00
; #@! TF.GenerationSoftware,Kicad,Pcbnew,9.99.0-5542-g9c1654c496
; #@! TF.FileFunction,MixedPlating,1,4
FMAT,2
METRIC
; #@! TA.AperFunction,Plated,PTH,ViaDrill
T1C0.300
; #@! TA.AperFunction,Plated,PTH,ComponentDrill
T2C0.650
; #@! TA.AperFunction,Plated,PTH,ComponentDrill
T3C0.750
; #@! TA.AperFunction,Plated,PTH,ComponentDrill
T4C0.800
; #@! TA.AperFunction,Plated,PTH,ComponentDrill
T5C2.500
%
G90
G05
T1
X11.0Y-54.5
X11.0Y-57.0
X12.0Y-32.5
X12.0Y-50.0
X15.0Y-58.0
X20.5Y-31.5
X21.0Y-41.5
X21.0Y-51.0
X22.0Y-23.5
X22.0Y-52.0
X24.0Y-65.5
X26.0Y-65.5
X30.0Y-27.5
X30.0Y-28.77
X30.0Y-30.04
X30.0Y-32.5
X30.0Y-49.0
X31.0Y-53.0
X31.0Y-54.5
X31.0Y-65.5
X33.0Y-65.5
X34.9Y-28.0
X34.9Y-31.5
X39.5Y-28.0
X40.0Y-45.5
X42.05Y-46.0
X42.05Y-52.0
X47.05Y-46.0
X47.05Y-52.0
X52.05Y-46.0
X52.05Y-52.0
X55.0Y-16.0
X55.0Y-38.93
X56.0Y-16.5
X56.0Y-37.66
X57.05Y-46.0
X57.05Y-52.0
X58.0Y-10.0
X58.0Y-21.15
X59.0Y-10.5
X59.0Y-22.42
X60.0Y-11.0
X60.0Y-23.69
X61.0Y-11.5
X61.0Y-24.96
X62.0Y-12.0
X62.0Y-32.58
X62.05Y-46.0
X62.05Y-52.0
X63.0Y-12.5
X63.0Y-40.2
X64.0Y-13.0
X64.0Y-41.47
X65.0Y-13.5
X65.0Y-42.74
X67.05Y-46.0
X67.05Y-52.0
X67.5Y-31.31
X67.5Y-57.0
X69.5Y-21.15
X69.5Y-22.42
X69.5Y-23.69
X69.5Y-24.96
X69.5Y-27.5
X69.5Y-28.77
X69.5Y-30.04
X69.5Y-32.58
X69.5Y-37.66
X69.5Y-38.93
X69.5Y-40.2
X69.5Y-41.47
X69.5Y-42.74
X70.0Y-42.0
X71.0Y-31.31
X72.05Y-46.0
X72.05Y-52.0
X75.0Y-36.39
X75.0Y-67.5
X76.5Y-35.12
X76.5Y-68.5
X77.0Y-57.5
X77.0Y-70.0
X77.05Y-46.0
X77.05Y-52.0
X79.5Y-67.5
X80.0Y-41.5
X80.0Y-45.5
X80.5Y-68.5
X82.05Y-46.0
X82.05Y-52.0
X83.0Y-70.0
X85.0Y-40.0
X87.05Y-46.0
X87.05Y-52.0
X89.0Y-24.96
X89.0Y-26.23
X89.0Y-27.5
X89.0Y-30.04
X89.0Y-37.66
X89.0Y-38.93
X89.0Y-40.2
X89.0Y-42.74
X89.0Y-44.01
X90.5Y-21.15
X90.5Y-22.42
X90.5Y-23.69
X90.5Y-28.77
X90.5Y-44.01
X90.5Y-48.0
X91.0Y-32.58
X91.5Y-33.85
X91.5Y-42.74
X91.5Y-49.0
X92.0Y-35.12
X92.05Y-46.0
X92.05Y-52.0
X92.5Y-36.39
X92.5Y-40.2
X92.5Y-50.0
X93.0Y-22.5
X93.5Y-38.93
X93.5Y-51.0
X94.5Y-37.66
X94.5Y-52.0
X95.5Y-30.04
X95.5Y-53.0
X96.5Y-27.5
X96.5Y-54.0
X97.05Y-46.0
X97.05Y-52.0
X97.5Y-26.23
X97.5Y-55.0
X98.0Y-44.0
X98.5Y-24.96
X98.5Y-56.0
X100.0Y-14.5
X100.0Y-22.42
X100.5Y-31.31
X100.5Y-58.0
X101.0Y-15.0
X101.0Y-21.15
X102.0Y-15.5
X102.0Y-23.69
X102.05Y-46.0
X102.05Y-52.0
X103.0Y-17.0
X103.0Y-28.77
X106.0Y-45.5
X107.0Y-70.0
X110.0Y-33.0
X110.0Y-40.5
X110.0Y-50.5
X112.0Y-36.39
X112.0Y-57.2
X113.0Y-45.5
X114.0Y-35.12
X114.0Y-58.2
X115.0Y-54.5
X116.0Y-35.5
X118.0Y-33.85
X118.0Y-59.2
X120.0Y-32.58
X120.0Y-60.2
X122.0Y-55.5
X123.0Y-44.0
X125.0Y-48.5
X127.0Y-57.5
X129.5Y-10.0
X129.5Y-30.75
X129.9Y-10.5
X129.9Y-31.25
X130.0Y-32.5
X130.0Y-56.0
X130.3Y-11.0
X130.3Y-31.75
X130.7Y-11.5
X130.7Y-32.25
X131.1Y-12.0
X131.1Y-32.75
X131.5Y-12.5
X131.5Y-33.25
X131.9Y-13.0
X131.9Y-33.75
X132.3Y-13.5
X132.3Y-34.25
X132.7Y-14.5
X132.7Y-28.25
X133.1Y-15.0
X133.1Y-28.75
X133.5Y-15.5
X133.5Y-29.25
X133.9Y-16.0
X133.9Y-29.75
X134.3Y-16.5
X134.3Y-30.25
X134.7Y-17.0
X134.7Y-26.75
X136.7Y-59.2
X137.8Y-58.2
X138.9Y-57.2
X140.0Y-22.5
X140.0Y-48.0
X141.0Y-42.5
X141.0Y-55.0
X150.0Y-32.5
X150.0Y-54.0
T2
X75.68Y-70.5
X75.68Y-73.5
X84.32Y-70.5
X84.32Y-73.5
T3
X79.0Y-57.5
X81.0Y-57.5
T4
X37.5Y-72.0
X40.0Y-72.0
X42.5Y-72.0
T5
X10.0Y-7.0
X10.0Y-68.0
X55.0Y-37.5
X105.0Y-37.5
X150.0Y-7.0
X150.0Y-68.0
M30
