%TF.GenerationSoftware,KiCad,Pcbnew,9.0.7*%
%TF.CreationDate,2026-02-14T09:26:10+00:00*%
%TF.ProjectId,esp32-emu-turbo,65737033-322d-4656-9d75-2d747572626f,rev?*%
%TF.SameCoordinates,Original*%
%TF.FileFunction,Paste,Bot*%
%TF.FilePolarity,Positive*%
%FSLAX46Y46*%
G04 Gerber Fmt 4.6, Leading zero omitted, Abs format (unit mm)*
G04 Created by KiCad (PCBNEW 9.0.7) date 2026-02-14 09:26:10*
%MOMM*%
%LPD*%
G01*
G04 APERTURE LIST*
%ADD10R,1.800000X0.900000*%
%ADD11R,10.000000X10.000000*%
%ADD12R,1.600000X1.000000*%
%ADD13R,0.300000X1.200000*%
%ADD14R,1.200000X2.000000*%
%ADD15R,0.300000X1.000000*%
%ADD16R,0.700000X1.800000*%
%ADD17R,1.200000X1.500000*%
%ADD18R,2.000000X3.000000*%
%ADD19R,1.700000X0.600000*%
%ADD20R,3.400000X3.400000*%
%ADD21R,1.000000X1.500000*%
%ADD22R,3.600000X1.800000*%
%ADD23R,1.400000X3.400000*%
%ADD24R,1.000000X1.300000*%
%ADD25R,1.200000X1.800000*%
G04 APERTURE END LIST*
D10*
%TO.C,U1*%
X88600000Y-16070000D03*
X88600000Y-17340000D03*
X88600000Y-18610000D03*
X88600000Y-19880000D03*
X88600000Y-21150000D03*
X88600000Y-22420000D03*
X88600000Y-23690000D03*
X88600000Y-24960000D03*
X88600000Y-26230000D03*
X88600000Y-27500000D03*
X88600000Y-28770000D03*
X88600000Y-30040000D03*
X88600000Y-31310000D03*
X88600000Y-32580000D03*
X88600000Y-33850000D03*
X88600000Y-35120000D03*
X88600000Y-36390000D03*
X88600000Y-37660000D03*
X88600000Y-38930000D03*
X88600000Y-40200000D03*
X71400000Y-38930000D03*
X71400000Y-37660000D03*
X71400000Y-36390000D03*
X71400000Y-35120000D03*
X71400000Y-33850000D03*
X71400000Y-32580000D03*
X71400000Y-31310000D03*
X71400000Y-30040000D03*
X71400000Y-28770000D03*
X71400000Y-27500000D03*
X71400000Y-26230000D03*
X71400000Y-24960000D03*
X71400000Y-23690000D03*
X71400000Y-22420000D03*
X71400000Y-21150000D03*
X71400000Y-19880000D03*
X71400000Y-18610000D03*
X71400000Y-17340000D03*
X71400000Y-16070000D03*
D11*
X80000000Y-32500000D03*
%TD*%
D12*
%TO.C,SW11*%
X13150000Y250000D03*
X16850000Y250000D03*
X13150000Y-5250000D03*
X16850000Y-5250000D03*
%TD*%
%TO.C,SW12*%
X143150000Y250000D03*
X146850000Y250000D03*
X143150000Y-5250000D03*
X146850000Y-5250000D03*
%TD*%
D13*
%TO.C,J4*%
X135000000Y-25750000D03*
X135000000Y-26250000D03*
X135000000Y-26750000D03*
X135000000Y-27250000D03*
X135000000Y-27750000D03*
X135000000Y-28250000D03*
X135000000Y-28750000D03*
X135000000Y-29250000D03*
X135000000Y-29750000D03*
X135000000Y-30250000D03*
X135000000Y-30750000D03*
X135000000Y-31250000D03*
X135000000Y-31750000D03*
X135000000Y-32250000D03*
X135000000Y-32750000D03*
X135000000Y-33250000D03*
X135000000Y-33750000D03*
X135000000Y-34250000D03*
X135000000Y-34750000D03*
X135000000Y-35250000D03*
X135000000Y-35750000D03*
X135000000Y-36250000D03*
X135000000Y-36750000D03*
X135000000Y-37250000D03*
X135000000Y-37750000D03*
X135000000Y-38250000D03*
X135000000Y-38750000D03*
X135000000Y-39250000D03*
X135000000Y-39750000D03*
X135000000Y-40250000D03*
X135000000Y-40750000D03*
X135000000Y-41250000D03*
X135000000Y-41750000D03*
X135000000Y-42250000D03*
X135000000Y-42750000D03*
X135000000Y-43250000D03*
X135000000Y-43750000D03*
X135000000Y-44250000D03*
X135000000Y-44750000D03*
X135000000Y-45250000D03*
D14*
X135000000Y-23500000D03*
X135000000Y-47500000D03*
%TD*%
D15*
%TO.C,J1*%
X81750000Y-68800000D03*
X81250000Y-68800000D03*
X80750000Y-68800000D03*
X80250000Y-68800000D03*
X79750000Y-68800000D03*
X79250000Y-68800000D03*
X78750000Y-68800000D03*
X78250000Y-68800000D03*
X78250000Y-69800000D03*
X78750000Y-69800000D03*
X79250000Y-69800000D03*
X79750000Y-69800000D03*
X80250000Y-69800000D03*
X80750000Y-69800000D03*
X81250000Y-69800000D03*
X81750000Y-69800000D03*
%TD*%
D16*
%TO.C,U6*%
X144400000Y-60200000D03*
X143300000Y-60200000D03*
X142200000Y-60200000D03*
X141100000Y-60200000D03*
X140000000Y-60200000D03*
X138900000Y-60200000D03*
X137800000Y-60200000D03*
X136700000Y-60200000D03*
X135600000Y-60200000D03*
D17*
X133000000Y-66000000D03*
X133000000Y-73500000D03*
X147000000Y-66000000D03*
X147000000Y-73500000D03*
%TD*%
D18*
%TO.C,SPK1*%
X39500000Y-52500000D03*
X20500000Y-52500000D03*
%TD*%
D19*
%TO.C,U2*%
X113000000Y-40595000D03*
X113000000Y-41865000D03*
X113000000Y-43135000D03*
X113000000Y-44405000D03*
X107000000Y-44405000D03*
X107000000Y-43135000D03*
X107000000Y-41865000D03*
X107000000Y-40595000D03*
D20*
X110000000Y-42500000D03*
%TD*%
D21*
%TO.C,U3*%
X127300000Y-58650000D03*
X125000000Y-58650000D03*
X122700000Y-58650000D03*
D22*
X125000000Y-52350000D03*
%TD*%
D19*
%TO.C,U5*%
X25555000Y-24600000D03*
X26825000Y-24600000D03*
X28095000Y-24600000D03*
X29365000Y-24600000D03*
X30635000Y-24600000D03*
X31905000Y-24600000D03*
X33175000Y-24600000D03*
X34445000Y-24600000D03*
X34445000Y-34400000D03*
X33175000Y-34400000D03*
X31905000Y-34400000D03*
X30635000Y-34400000D03*
X29365000Y-34400000D03*
X28095000Y-34400000D03*
X26825000Y-34400000D03*
X25555000Y-34400000D03*
%TD*%
D23*
%TO.C,L1*%
X111700000Y-52500000D03*
X108300000Y-52500000D03*
%TD*%
D24*
%TO.C,R1*%
X74950000Y-67000000D03*
X73050000Y-67000000D03*
%TD*%
%TO.C,R2*%
X86950000Y-67000000D03*
X85050000Y-67000000D03*
%TD*%
%TO.C,R3*%
X65950000Y-42000000D03*
X64050000Y-42000000D03*
%TD*%
%TO.C,C3*%
X70950000Y-42000000D03*
X69050000Y-42000000D03*
%TD*%
%TO.C,R17*%
X75950000Y-42000000D03*
X74050000Y-42000000D03*
%TD*%
%TO.C,R18*%
X80950000Y-42000000D03*
X79050000Y-42000000D03*
%TD*%
%TO.C,C4*%
X85950000Y-42000000D03*
X84050000Y-42000000D03*
%TD*%
%TO.C,R4*%
X43950000Y-46000000D03*
X42050000Y-46000000D03*
%TD*%
%TO.C,R5*%
X48950000Y-46000000D03*
X47050000Y-46000000D03*
%TD*%
%TO.C,R6*%
X53950000Y-46000000D03*
X52050000Y-46000000D03*
%TD*%
%TO.C,R7*%
X58950000Y-46000000D03*
X57050000Y-46000000D03*
%TD*%
%TO.C,R8*%
X63950000Y-46000000D03*
X62050000Y-46000000D03*
%TD*%
%TO.C,R9*%
X68950000Y-46000000D03*
X67050000Y-46000000D03*
%TD*%
%TO.C,R10*%
X73950000Y-46000000D03*
X72050000Y-46000000D03*
%TD*%
%TO.C,R11*%
X78950000Y-46000000D03*
X77050000Y-46000000D03*
%TD*%
%TO.C,R12*%
X83950000Y-46000000D03*
X82050000Y-46000000D03*
%TD*%
%TO.C,R13*%
X88950000Y-46000000D03*
X87050000Y-46000000D03*
%TD*%
%TO.C,R14*%
X93950000Y-46000000D03*
X92050000Y-46000000D03*
%TD*%
%TO.C,R15*%
X98950000Y-46000000D03*
X97050000Y-46000000D03*
%TD*%
%TO.C,R19*%
X103950000Y-46000000D03*
X102050000Y-46000000D03*
%TD*%
%TO.C,R16*%
X115950000Y-52500000D03*
X114050000Y-52500000D03*
%TD*%
%TO.C,C5*%
X43950000Y-50000000D03*
X42050000Y-50000000D03*
%TD*%
%TO.C,C6*%
X48950000Y-50000000D03*
X47050000Y-50000000D03*
%TD*%
%TO.C,C7*%
X53950000Y-50000000D03*
X52050000Y-50000000D03*
%TD*%
%TO.C,C8*%
X58950000Y-50000000D03*
X57050000Y-50000000D03*
%TD*%
%TO.C,C9*%
X63950000Y-50000000D03*
X62050000Y-50000000D03*
%TD*%
%TO.C,C10*%
X68950000Y-50000000D03*
X67050000Y-50000000D03*
%TD*%
%TO.C,C11*%
X73950000Y-50000000D03*
X72050000Y-50000000D03*
%TD*%
%TO.C,C12*%
X78950000Y-50000000D03*
X77050000Y-50000000D03*
%TD*%
%TO.C,C13*%
X83950000Y-50000000D03*
X82050000Y-50000000D03*
%TD*%
%TO.C,C14*%
X88950000Y-50000000D03*
X87050000Y-50000000D03*
%TD*%
%TO.C,C15*%
X93950000Y-50000000D03*
X92050000Y-50000000D03*
%TD*%
%TO.C,C16*%
X98950000Y-50000000D03*
X97050000Y-50000000D03*
%TD*%
%TO.C,C20*%
X103950000Y-50000000D03*
X102050000Y-50000000D03*
%TD*%
%TO.C,C17*%
X110950000Y-35000000D03*
X109050000Y-35000000D03*
%TD*%
%TO.C,C18*%
X116950000Y-37500000D03*
X115050000Y-37500000D03*
%TD*%
D25*
%TO.C,C19*%
X111500000Y-58500000D03*
X108500000Y-58500000D03*
%TD*%
D24*
%TO.C,C1*%
X125950000Y-50500000D03*
X124050000Y-50500000D03*
%TD*%
D25*
%TO.C,C2*%
X126500000Y-60500000D03*
X123500000Y-60500000D03*
%TD*%
M02*
