M48
; DRILL file {KiCad 9.0.7} date 2026-02-25T20:47:32+0100
; FORMAT={-:-/ absolute / metric / decimal}
; #@! TF.CreationDate,2026-02-25T20:47:32+01:00
; #@! TF.GenerationSoftware,Kicad,Pcbnew,9.0.7
; #@! TF.FileFunction,MixedPlating,1,4
FMAT,2
METRIC
; #@! TA.AperFunction,Plated,PTH,ViaDrill
T1C0.300
; #@! TA.AperFunction,Plated,PTH,ComponentDrill
T2C0.650
; #@! TA.AperFunction,Plated,PTH,ComponentDrill
T3C0.750
; #@! TA.AperFunction,Plated,PTH,ComponentDrill
T4C2.500
%
G90
G05
T1
X5.0Y-56.35
X6.0Y-34.35
X12.0Y-52.65
X12.0Y-70.0
X13.0Y-30.65
X13.0Y-64.0
X13.15Y-68.0
X15.0Y-25.35
X15.0Y-43.35
X16.85Y0.5
X20.5Y-21.0
X22.0Y-21.65
X22.0Y-62.0
X23.0Y-39.65
X23.0Y-63.0
X24.0Y-34.35
X24.0Y-65.0
X25.0Y-56.35
X26.0Y-65.0
X29.365Y-31.13
X29.365Y-32.4
X30.635Y-33.67
X31.0Y-30.65
X31.0Y-63.5
X31.0Y-65.0
X31.905Y-21.0
X32.0Y-52.65
X32.0Y-71.0
X33.0Y-63.5
X33.405Y-23.0
X39.25Y-68.05
X39.5Y-23.0
X42.05Y-46.0
X42.05Y-52.0
X47.05Y-46.0
X47.05Y-52.0
X50.0Y-18.0
X50.0Y-36.21
X51.0Y-18.5
X51.0Y-34.94
X52.0Y-19.0
X52.0Y-33.67
X52.05Y-46.0
X52.05Y-52.0
X53.0Y-19.5
X53.0Y-32.4
X57.05Y-46.0
X57.05Y-52.0
X62.05Y-46.0
X62.05Y-52.0
X63.45Y-35.6
X63.45Y-71.0
X66.55Y-26.05
X66.55Y-66.0
X67.05Y-46.0
X67.05Y-52.0
X67.55Y-27.32
X67.55Y-65.0
X68.05Y-28.59
X68.05Y-64.0
X68.25Y-32.4
X68.45Y-29.86
X68.45Y-63.0
X68.75Y-33.67
X69.05Y-40.0
X69.25Y-34.94
X69.25Y-68.0
X69.45Y-31.13
X69.45Y-62.0
X69.75Y-36.21
X69.85Y-38.0
X69.85Y-67.0
X70.25Y-37.2
X70.25Y-68.0
X70.65Y-36.4
X70.65Y-69.0
X70.95Y-42.0
X71.25Y-26.05
X71.25Y-27.32
X71.25Y-28.59
X71.25Y-29.86
X71.25Y-31.13
X71.25Y-35.6
X72.05Y-46.0
X72.05Y-52.0
X73.015Y-33.2
X74.285Y-38.0
X75.555Y-37.2
X76.8Y-66.255
X76.825Y-36.4
X77.05Y-46.0
X77.05Y-52.0
X78.095Y-35.0
X79.0Y-57.5
X79.365Y-36.2
X79.75Y-64.255
X80.25Y-65.255
X80.635Y-35.6
X81.0Y-43.595
X81.5Y-31.96
X81.905Y-36.8
X82.05Y-46.0
X82.05Y-52.0
X82.4Y-66.255
X83.175Y-37.4
X84.05Y-40.0
X84.445Y-38.0
X85.715Y-34.4
X85.95Y-42.0
X86.985Y-33.8
X87.05Y-46.0
X87.05Y-52.0
X87.25Y-31.13
X87.25Y-32.4
X87.25Y-33.67
X88.75Y-21.51
X88.75Y-34.94
X90.25Y-26.05
X90.25Y-27.32
X90.25Y-28.59
X90.25Y-29.86
X90.25Y-36.21
X90.75Y-65.255
X91.75Y-64.255
X92.05Y-46.0
X92.05Y-52.0
X95.55Y-34.94
X95.55Y-70.0
X97.05Y-46.0
X97.05Y-52.0
X98.0Y-49.35
X102.05Y-46.0
X102.05Y-52.0
X107.0Y-43.595
X108.5Y-60.5
X109.05Y-37.0
X110.95Y-33.0
X111.0Y-40.595
X111.7Y-50.5
X113.0Y-46.405
X113.6Y-14.5
X113.6Y-33.2
X114.05Y-54.5
X114.4Y-14.0
X114.4Y-33.8
X115.0Y-43.135
X115.05Y-39.5
X115.2Y-13.5
X115.2Y-34.4
X116.0Y-13.0
X116.0Y-35.0
X116.8Y-12.5
X116.8Y-35.6
X116.95Y-35.5
X117.6Y-12.0
X117.6Y-36.2
X118.4Y-11.5
X118.4Y-36.8
X119.2Y-11.0
X119.2Y-37.4
X120.0Y-10.5
X120.0Y-38.0
X120.8Y-10.0
X120.8Y-36.21
X121.6Y-9.5
X121.6Y-29.86
X122.4Y-9.0
X122.4Y-28.59
X122.7Y-56.65
X123.0Y-49.35
X123.2Y-8.5
X123.2Y-27.32
X123.5Y-62.5
X124.0Y-8.0
X124.0Y-26.05
X124.05Y-48.5
X125.95Y-48.5
X127.3Y-60.65
X129.6Y-30.65
X129.6Y-69.0
X130.0Y-37.25
X130.4Y-36.75
X130.8Y-36.25
X131.2Y-35.75
X131.6Y-35.25
X132.0Y-34.75
X132.4Y-34.25
X132.8Y-33.75
X133.2Y-38.25
X133.6Y-41.25
X134.0Y-40.75
X134.4Y-40.25
X134.8Y-39.75
X134.85Y-25.75
X134.85Y-25.75
X134.85Y-27.25
X134.85Y-28.25
X134.85Y-37.75
X134.85Y-42.25
X134.85Y-43.25
X135.0Y-34.35
X135.0Y-61.55
X135.2Y-29.25
X136.0Y-60.55
X137.0Y-59.55
X138.0Y-20.65
X138.0Y-58.55
X138.0Y-66.0
X138.85Y-26.25
X138.85Y-27.75
X138.85Y-28.75
X138.85Y-40.75
X139.0Y-40.65
X139.0Y-68.0
X145.0Y-24.35
X145.0Y-44.35
X148.0Y-30.65
X148.0Y-67.0
X155.0Y-34.35
T2
X75.68Y-68.895
X75.68Y-73.075
X84.32Y-68.895
X84.32Y-73.075
T3
X79.0Y-57.5
X81.0Y-57.5
T4
X10.0Y-7.0
X10.0Y-68.0
X55.0Y-37.5
X105.0Y-37.5
X150.0Y-7.0
X150.0Y-68.0
M30
