%TF.GenerationSoftware,KiCad,Pcbnew,9.0.7-9.0.7~ubuntu24.04.1*%
%TF.CreationDate,2026-03-01T21:26:36+01:00*%
%TF.ProjectId,esp32-emu-turbo,65737033-322d-4656-9d75-2d747572626f,rev?*%
%TF.SameCoordinates,Original*%
%TF.FileFunction,Copper,L4,Bot*%
%TF.FilePolarity,Positive*%
%FSLAX46Y46*%
G04 Gerber Fmt 4.6, Leading zero omitted, Abs format (unit mm)*
G04 Created by KiCad (PCBNEW 9.0.7-9.0.7~ubuntu24.04.1) date 2026-03-01 21:26:36*
%MOMM*%
%LPD*%
G01*
G04 APERTURE LIST*
%TA.AperFunction,SMDPad,CuDef*%
%ADD10R,1.500000X0.900000*%
%TD*%
%TA.AperFunction,SMDPad,CuDef*%
%ADD11R,0.900000X1.500000*%
%TD*%
%TA.AperFunction,SMDPad,CuDef*%
%ADD12R,3.900000X3.900000*%
%TD*%
%TA.AperFunction,SMDPad,CuDef*%
%ADD13R,0.900000X1.200000*%
%TD*%
%TA.AperFunction,SMDPad,CuDef*%
%ADD14R,1.300000X0.300000*%
%TD*%
%TA.AperFunction,SMDPad,CuDef*%
%ADD15R,1.600000X1.600000*%
%TD*%
%TA.AperFunction,SMDPad,CuDef*%
%ADD16R,0.600000X1.300000*%
%TD*%
%TA.AperFunction,SMDPad,CuDef*%
%ADD17R,0.300000X1.300000*%
%TD*%
%TA.AperFunction,ComponentPad*%
%ADD18O,1.300000X2.100000*%
%TD*%
%TA.AperFunction,ComponentPad*%
%ADD19O,1.300000X1.600000*%
%TD*%
%TA.AperFunction,SMDPad,CuDef*%
%ADD20R,1.200000X1.400000*%
%TD*%
%TA.AperFunction,SMDPad,CuDef*%
%ADD21R,1.200000X2.000000*%
%TD*%
%TA.AperFunction,SMDPad,CuDef*%
%ADD22R,1.050000X0.700000*%
%TD*%
%TA.AperFunction,SMDPad,CuDef*%
%ADD23R,2.000000X3.000000*%
%TD*%
%TA.AperFunction,SMDPad,CuDef*%
%ADD24R,1.700000X0.600000*%
%TD*%
%TA.AperFunction,SMDPad,CuDef*%
%ADD25R,3.400000X2.800000*%
%TD*%
%TA.AperFunction,SMDPad,CuDef*%
%ADD26R,1.000000X1.500000*%
%TD*%
%TA.AperFunction,SMDPad,CuDef*%
%ADD27R,3.600000X1.800000*%
%TD*%
%TA.AperFunction,SMDPad,CuDef*%
%ADD28R,0.600000X1.550000*%
%TD*%
%TA.AperFunction,SMDPad,CuDef*%
%ADD29R,1.400000X3.400000*%
%TD*%
%TA.AperFunction,ComponentPad*%
%ADD30C,1.600000*%
%TD*%
%TA.AperFunction,SMDPad,CuDef*%
%ADD31R,1.000000X1.300000*%
%TD*%
%TA.AperFunction,SMDPad,CuDef*%
%ADD32R,1.200000X1.800000*%
%TD*%
%TA.AperFunction,ViaPad*%
%ADD33C,0.900000*%
%TD*%
%TA.AperFunction,ViaPad*%
%ADD34C,0.700000*%
%TD*%
%TA.AperFunction,ViaPad*%
%ADD35C,0.800000*%
%TD*%
%TA.AperFunction,Conductor*%
%ADD36C,0.500000*%
%TD*%
%TA.AperFunction,Conductor*%
%ADD37C,0.250000*%
%TD*%
%TA.AperFunction,Conductor*%
%ADD38C,0.400000*%
%TD*%
%TA.AperFunction,Conductor*%
%ADD39C,0.200000*%
%TD*%
%TA.AperFunction,Conductor*%
%ADD40C,0.300000*%
%TD*%
G04 APERTURE END LIST*
D10*
%TO.P,U1,1*%
%TO.N,N/C*%
X88750000Y-22240000D03*
%TO.P,U1,2*%
X88750000Y-23510000D03*
%TO.P,U1,3*%
X88750000Y-24780000D03*
%TO.P,U1,4*%
X88750000Y-26050000D03*
%TO.P,U1,5*%
X88750000Y-27320000D03*
%TO.P,U1,6*%
X88750000Y-28590000D03*
%TO.P,U1,7*%
X88750000Y-29860000D03*
%TO.P,U1,8*%
X88750000Y-31130000D03*
%TO.P,U1,9*%
X88750000Y-32400000D03*
%TO.P,U1,10*%
X88750000Y-33670000D03*
%TO.P,U1,11*%
X88750000Y-34940000D03*
%TO.P,U1,12*%
X88750000Y-36210000D03*
%TO.P,U1,13*%
X88750000Y-37480000D03*
%TO.P,U1,14*%
X88750000Y-38750000D03*
D11*
%TO.P,U1,15*%
X86985000Y-40000000D03*
%TO.P,U1,16*%
X85715000Y-40000000D03*
%TO.P,U1,17*%
X84445000Y-40000000D03*
%TO.P,U1,18*%
X83175000Y-40000000D03*
%TO.P,U1,19*%
X81905000Y-40000000D03*
%TO.P,U1,20*%
X80635000Y-40000000D03*
%TO.P,U1,21*%
X79365000Y-40000000D03*
%TO.P,U1,22*%
X78095000Y-40000000D03*
%TO.P,U1,23*%
X76825000Y-40000000D03*
%TO.P,U1,24*%
X75555000Y-40000000D03*
%TO.P,U1,25*%
X74285000Y-40000000D03*
%TO.P,U1,26*%
X73015000Y-40000000D03*
D10*
%TO.P,U1,27*%
X71250000Y-38750000D03*
%TO.P,U1,28*%
X71250000Y-37480000D03*
%TO.P,U1,29*%
X71250000Y-36210000D03*
%TO.P,U1,30*%
X71250000Y-34940000D03*
%TO.P,U1,31*%
X71250000Y-33670000D03*
%TO.P,U1,32*%
X71250000Y-32400000D03*
%TO.P,U1,33*%
X71250000Y-31130000D03*
%TO.P,U1,34*%
X71250000Y-29860000D03*
%TO.P,U1,35*%
X71250000Y-28590000D03*
%TO.P,U1,36*%
X71250000Y-27320000D03*
%TO.P,U1,37*%
X71250000Y-26050000D03*
%TO.P,U1,38*%
X71250000Y-24780000D03*
%TO.P,U1,39*%
X71250000Y-23510000D03*
%TO.P,U1,40*%
X71250000Y-22240000D03*
D12*
%TO.P,U1,41*%
X81500000Y-29960000D03*
%TD*%
D13*
%TO.P,SW11,1*%
%TO.N,N/C*%
X13150000Y-2500000D03*
%TO.P,SW11,2*%
X13150000Y-8500000D03*
%TO.P,SW11,3*%
X16850000Y-2500000D03*
%TO.P,SW11,4*%
X16850000Y-8500000D03*
%TD*%
%TO.P,SW12,1*%
%TO.N,N/C*%
X143150000Y-2500000D03*
%TO.P,SW12,2*%
X143150000Y-8500000D03*
%TO.P,SW12,3*%
X146850000Y-2500000D03*
%TO.P,SW12,4*%
X146850000Y-8500000D03*
%TD*%
D14*
%TO.P,J4,1*%
%TO.N,N/C*%
X133150000Y-25750000D03*
%TO.P,J4,2*%
X133150000Y-26250000D03*
%TO.P,J4,3*%
X133150000Y-26750000D03*
%TO.P,J4,4*%
X133150000Y-27250000D03*
%TO.P,J4,5*%
X133150000Y-27750000D03*
%TO.P,J4,6*%
X133150000Y-28250000D03*
%TO.P,J4,7*%
X133150000Y-28750000D03*
%TO.P,J4,8*%
X133150000Y-29250000D03*
%TO.P,J4,9*%
X133150000Y-29750000D03*
%TO.P,J4,10*%
X133150000Y-30250000D03*
%TO.P,J4,11*%
X133150000Y-30750000D03*
%TO.P,J4,12*%
X133150000Y-31250000D03*
%TO.P,J4,13*%
X133150000Y-31750000D03*
%TO.P,J4,14*%
X133150000Y-32250000D03*
%TO.P,J4,15*%
X133150000Y-32750000D03*
%TO.P,J4,16*%
X133150000Y-33250000D03*
%TO.P,J4,17*%
X133150000Y-33750000D03*
%TO.P,J4,18*%
X133150000Y-34250000D03*
%TO.P,J4,19*%
X133150000Y-34750000D03*
%TO.P,J4,20*%
X133150000Y-35250000D03*
%TO.P,J4,21*%
X133150000Y-35750000D03*
%TO.P,J4,22*%
X133150000Y-36250000D03*
%TO.P,J4,23*%
X133150000Y-36750000D03*
%TO.P,J4,24*%
X133150000Y-37250000D03*
%TO.P,J4,25*%
X133150000Y-37750000D03*
%TO.P,J4,26*%
X133150000Y-38250000D03*
%TO.P,J4,27*%
X133150000Y-38750000D03*
%TO.P,J4,28*%
X133150000Y-39250000D03*
%TO.P,J4,29*%
X133150000Y-39750000D03*
%TO.P,J4,30*%
X133150000Y-40250000D03*
%TO.P,J4,31*%
X133150000Y-40750000D03*
%TO.P,J4,32*%
X133150000Y-41250000D03*
%TO.P,J4,33*%
X133150000Y-41750000D03*
%TO.P,J4,34*%
X133150000Y-42250000D03*
%TO.P,J4,35*%
X133150000Y-42750000D03*
%TO.P,J4,36*%
X133150000Y-43250000D03*
%TO.P,J4,37*%
X133150000Y-43750000D03*
%TO.P,J4,38*%
X133150000Y-44250000D03*
%TO.P,J4,39*%
X133150000Y-44750000D03*
%TO.P,J4,40*%
X133150000Y-45250000D03*
D15*
%TO.P,J4,MP1*%
X133150000Y-24000000D03*
%TO.P,J4,MP2*%
X133150000Y-47000000D03*
%TD*%
D16*
%TO.P,J1,A1*%
%TO.N,N/C*%
X83200000Y-68255000D03*
%TO.P,J1,A4*%
X82400000Y-68255000D03*
%TO.P,J1,A9*%
X77600000Y-68255000D03*
%TO.P,J1,A12*%
X76800000Y-68255000D03*
D17*
%TO.P,J1,A5*%
X81250000Y-68255000D03*
%TO.P,J1,A6*%
X80250000Y-68255000D03*
%TO.P,J1,A7*%
X79750000Y-68255000D03*
%TO.P,J1,A8*%
X78750000Y-68255000D03*
%TO.P,J1,B8*%
X81750000Y-68255000D03*
%TO.P,J1,B7*%
X80750000Y-68255000D03*
%TO.P,J1,B6*%
X79250000Y-68255000D03*
%TO.P,J1,B5*%
X78250000Y-68255000D03*
D18*
%TO.P,J1,S1*%
X84320000Y-68895000D03*
%TO.P,J1,S2*%
X75680000Y-68895000D03*
D19*
%TO.P,J1,S3*%
X84320000Y-73075000D03*
%TO.P,J1,S4*%
X75680000Y-73075000D03*
%TD*%
D16*
%TO.P,U6,1*%
%TO.N,N/C*%
X137760000Y-61550000D03*
%TO.P,U6,2*%
X138860000Y-61550000D03*
%TO.P,U6,3*%
X139960000Y-61550000D03*
%TO.P,U6,4*%
X141060000Y-61550000D03*
%TO.P,U6,5*%
X142160000Y-61550000D03*
%TO.P,U6,6*%
X143260000Y-61550000D03*
%TO.P,U6,7*%
X144360000Y-61550000D03*
%TO.P,U6,8*%
X145460000Y-61550000D03*
%TO.P,U6,9*%
X146560000Y-61550000D03*
D20*
%TO.P,U6,10*%
X147760000Y-62400000D03*
%TO.P,U6,13*%
X133080000Y-62400000D03*
D21*
%TO.P,U6,11*%
X147760000Y-72100000D03*
%TO.P,U6,12*%
X132240000Y-72100000D03*
%TD*%
D16*
%TO.P,SW_PWR,1*%
%TO.N,N/C*%
X42250000Y-70050000D03*
%TO.P,SW_PWR,2*%
X39250000Y-70050000D03*
%TO.P,SW_PWR,3*%
X37750000Y-70050000D03*
D22*
%TO.P,SW_PWR,SH1*%
X43675000Y-70900000D03*
%TO.P,SW_PWR,SH2*%
X43675000Y-73100000D03*
%TO.P,SW_PWR,SH3*%
X36325000Y-70900000D03*
%TO.P,SW_PWR,SH4*%
X36325000Y-73100000D03*
%TD*%
D23*
%TO.P,SPK1,1*%
%TO.N,N/C*%
X39500000Y-52500000D03*
%TO.P,SPK1,2*%
X20500000Y-52500000D03*
%TD*%
D24*
%TO.P,U2,1*%
%TO.N,N/C*%
X113000000Y-40595000D03*
%TO.P,U2,2*%
X113000000Y-41865000D03*
%TO.P,U2,3*%
X113000000Y-43135000D03*
%TO.P,U2,4*%
X113000000Y-44405000D03*
%TO.P,U2,5*%
X107000000Y-44405000D03*
%TO.P,U2,6*%
X107000000Y-43135000D03*
%TO.P,U2,7*%
X107000000Y-41865000D03*
%TO.P,U2,8*%
X107000000Y-40595000D03*
D25*
%TO.P,U2,EP*%
X110000000Y-42500000D03*
%TD*%
D26*
%TO.P,U3,1*%
%TO.N,N/C*%
X127300000Y-58650000D03*
%TO.P,U3,2*%
X125000000Y-58650000D03*
%TO.P,U3,3*%
X122700000Y-58650000D03*
D27*
%TO.P,U3,4*%
X125000000Y-52350000D03*
%TD*%
D28*
%TO.P,U5,1*%
%TO.N,N/C*%
X25555000Y-26800000D03*
%TO.P,U5,2*%
X26825000Y-26800000D03*
%TO.P,U5,3*%
X28095000Y-26800000D03*
%TO.P,U5,4*%
X29365000Y-26800000D03*
%TO.P,U5,5*%
X30635000Y-26800000D03*
%TO.P,U5,6*%
X31905000Y-26800000D03*
%TO.P,U5,7*%
X33175000Y-26800000D03*
%TO.P,U5,8*%
X34445000Y-26800000D03*
%TO.P,U5,9*%
X34445000Y-32200000D03*
%TO.P,U5,10*%
X33175000Y-32200000D03*
%TO.P,U5,11*%
X31905000Y-32200000D03*
%TO.P,U5,12*%
X30635000Y-32200000D03*
%TO.P,U5,13*%
X29365000Y-32200000D03*
%TO.P,U5,14*%
X28095000Y-32200000D03*
%TO.P,U5,15*%
X26825000Y-32200000D03*
%TO.P,U5,16*%
X25555000Y-32200000D03*
%TD*%
D29*
%TO.P,L1,1*%
%TO.N,N/C*%
X111700000Y-52500000D03*
%TO.P,L1,2*%
X108300000Y-52500000D03*
%TD*%
D30*
%TO.P,J3,1*%
%TO.N,N/C*%
X81000000Y-57500000D03*
%TO.P,J3,2*%
X79000000Y-57500000D03*
%TD*%
D31*
%TO.P,R1,1*%
%TO.N,N/C*%
X74950000Y-67000000D03*
%TO.P,R1,2*%
X73050000Y-67000000D03*
%TD*%
%TO.P,R2,1*%
%TO.N,N/C*%
X86950000Y-67000000D03*
%TO.P,R2,2*%
X85050000Y-67000000D03*
%TD*%
%TO.P,R3,1*%
%TO.N,N/C*%
X65950000Y-42000000D03*
%TO.P,R3,2*%
X64050000Y-42000000D03*
%TD*%
%TO.P,C3,1*%
%TO.N,N/C*%
X70450000Y-42000000D03*
%TO.P,C3,2*%
X68550000Y-42000000D03*
%TD*%
%TO.P,C4,1*%
%TO.N,N/C*%
X92950000Y-42000000D03*
%TO.P,C4,2*%
X91050000Y-42000000D03*
%TD*%
%TO.P,R17,1*%
%TO.N,N/C*%
X25950000Y-65000000D03*
%TO.P,R17,2*%
X24050000Y-65000000D03*
%TD*%
%TO.P,R18,1*%
%TO.N,N/C*%
X32950000Y-65000000D03*
%TO.P,R18,2*%
X31050000Y-65000000D03*
%TD*%
%TO.P,R4,1*%
%TO.N,N/C*%
X43950000Y-46000000D03*
%TO.P,R4,2*%
X42050000Y-46000000D03*
%TD*%
%TO.P,R5,1*%
%TO.N,N/C*%
X48950000Y-46000000D03*
%TO.P,R5,2*%
X47050000Y-46000000D03*
%TD*%
%TO.P,R6,1*%
%TO.N,N/C*%
X53950000Y-46000000D03*
%TO.P,R6,2*%
X52050000Y-46000000D03*
%TD*%
%TO.P,R7,1*%
%TO.N,N/C*%
X58950000Y-46000000D03*
%TO.P,R7,2*%
X57050000Y-46000000D03*
%TD*%
%TO.P,R8,1*%
%TO.N,N/C*%
X63950000Y-46000000D03*
%TO.P,R8,2*%
X62050000Y-46000000D03*
%TD*%
%TO.P,R9,1*%
%TO.N,N/C*%
X68950000Y-46000000D03*
%TO.P,R9,2*%
X67050000Y-46000000D03*
%TD*%
%TO.P,R10,1*%
%TO.N,N/C*%
X73950000Y-46000000D03*
%TO.P,R10,2*%
X72050000Y-46000000D03*
%TD*%
%TO.P,R11,1*%
%TO.N,N/C*%
X78950000Y-46000000D03*
%TO.P,R11,2*%
X77050000Y-46000000D03*
%TD*%
%TO.P,R12,1*%
%TO.N,N/C*%
X83950000Y-46000000D03*
%TO.P,R12,2*%
X82050000Y-46000000D03*
%TD*%
%TO.P,R13,1*%
%TO.N,N/C*%
X88950000Y-46000000D03*
%TO.P,R13,2*%
X87050000Y-46000000D03*
%TD*%
%TO.P,R14,1*%
%TO.N,N/C*%
X93950000Y-46000000D03*
%TO.P,R14,2*%
X92050000Y-46000000D03*
%TD*%
%TO.P,R15,1*%
%TO.N,N/C*%
X98950000Y-46000000D03*
%TO.P,R15,2*%
X97050000Y-46000000D03*
%TD*%
%TO.P,R19,1*%
%TO.N,N/C*%
X103950000Y-46000000D03*
%TO.P,R19,2*%
X102050000Y-46000000D03*
%TD*%
%TO.P,R16,1*%
%TO.N,N/C*%
X115950000Y-52500000D03*
%TO.P,R16,2*%
X114050000Y-52500000D03*
%TD*%
%TO.P,C5,1*%
%TO.N,N/C*%
X43950000Y-50000000D03*
%TO.P,C5,2*%
X42050000Y-50000000D03*
%TD*%
%TO.P,C6,1*%
%TO.N,N/C*%
X48950000Y-50000000D03*
%TO.P,C6,2*%
X47050000Y-50000000D03*
%TD*%
%TO.P,C7,1*%
%TO.N,N/C*%
X53950000Y-50000000D03*
%TO.P,C7,2*%
X52050000Y-50000000D03*
%TD*%
%TO.P,C8,1*%
%TO.N,N/C*%
X58950000Y-50000000D03*
%TO.P,C8,2*%
X57050000Y-50000000D03*
%TD*%
%TO.P,C9,1*%
%TO.N,N/C*%
X63950000Y-50000000D03*
%TO.P,C9,2*%
X62050000Y-50000000D03*
%TD*%
%TO.P,C10,1*%
%TO.N,N/C*%
X68950000Y-50000000D03*
%TO.P,C10,2*%
X67050000Y-50000000D03*
%TD*%
%TO.P,C11,1*%
%TO.N,N/C*%
X73950000Y-50000000D03*
%TO.P,C11,2*%
X72050000Y-50000000D03*
%TD*%
%TO.P,C12,1*%
%TO.N,N/C*%
X78950000Y-50000000D03*
%TO.P,C12,2*%
X77050000Y-50000000D03*
%TD*%
%TO.P,C13,1*%
%TO.N,N/C*%
X83950000Y-50000000D03*
%TO.P,C13,2*%
X82050000Y-50000000D03*
%TD*%
%TO.P,C14,1*%
%TO.N,N/C*%
X88950000Y-50000000D03*
%TO.P,C14,2*%
X87050000Y-50000000D03*
%TD*%
%TO.P,C15,1*%
%TO.N,N/C*%
X93950000Y-50000000D03*
%TO.P,C15,2*%
X92050000Y-50000000D03*
%TD*%
%TO.P,C16,1*%
%TO.N,N/C*%
X98950000Y-50000000D03*
%TO.P,C16,2*%
X97050000Y-50000000D03*
%TD*%
%TO.P,C20,1*%
%TO.N,N/C*%
X103950000Y-50000000D03*
%TO.P,C20,2*%
X102050000Y-50000000D03*
%TD*%
%TO.P,C17,1*%
%TO.N,N/C*%
X110950000Y-35000000D03*
%TO.P,C17,2*%
X109050000Y-35000000D03*
%TD*%
%TO.P,C18,1*%
%TO.N,N/C*%
X118950000Y-55000000D03*
%TO.P,C18,2*%
X117050000Y-55000000D03*
%TD*%
D32*
%TO.P,C19,1*%
%TO.N,N/C*%
X111500000Y-58500000D03*
%TO.P,C19,2*%
X108500000Y-58500000D03*
%TD*%
D31*
%TO.P,C1,1*%
%TO.N,N/C*%
X122950000Y-48500000D03*
%TO.P,C1,2*%
X121050000Y-48500000D03*
%TD*%
D32*
%TO.P,C2,1*%
%TO.N,N/C*%
X126500000Y-62500000D03*
%TO.P,C2,2*%
X123500000Y-62500000D03*
%TD*%
D33*
%TO.N,GND*%
X82400000Y-60000000D03*
X111000000Y-40095000D03*
X76800000Y-66255000D03*
X112400000Y-45500000D03*
X127300000Y-60650000D03*
X81500000Y-32960000D03*
X77000000Y-57500000D03*
X107000000Y-38595000D03*
%TO.N,+5V*%
X122700000Y-56650000D03*
%TO.N,BAT+*%
X112400000Y-49500000D03*
%TO.N,+5V*%
X115950000Y-54500000D03*
%TO.N,+3V3*%
X125000000Y-49350000D03*
%TO.N,GND*%
X88750000Y-21010000D03*
X105500000Y-46135000D03*
X80500000Y-46135000D03*
X39250000Y-68050000D03*
X38000000Y-46135000D03*
X80635000Y-38115000D03*
D34*
X124000000Y-38115000D03*
X124000000Y-5000000D03*
X134500000Y-5000000D03*
D33*
X78095000Y-36845000D03*
D34*
X122900000Y-36845000D03*
X122900000Y-6000000D03*
X134950000Y-6000000D03*
D33*
X85715000Y-35575000D03*
D34*
X121800000Y-35575000D03*
X121800000Y-7000000D03*
X135400000Y-7000000D03*
D33*
%TO.N,LCD_RD*%
X86985000Y-34305000D03*
D34*
X120700000Y-34305000D03*
X120700000Y-8000000D03*
X135850000Y-8000000D03*
D33*
%TO.N,GND*%
X79365000Y-33035000D03*
D34*
X119600000Y-33035000D03*
X119600000Y-9000000D03*
X136300000Y-9000000D03*
D33*
%TO.N,LCD_D0*%
X90750000Y-26050000D03*
D34*
X118500000Y-26050000D03*
X118500000Y-10000000D03*
X136750000Y-10000000D03*
D33*
X90750000Y-27320000D03*
D34*
X117400000Y-27320000D03*
X117400000Y-11000000D03*
X137200000Y-11000000D03*
D33*
X90750000Y-28590000D03*
D34*
X116300000Y-28590000D03*
X116300000Y-12000000D03*
X137650000Y-12000000D03*
D33*
X90750000Y-29860000D03*
D34*
X115200000Y-29860000D03*
X115200000Y-13000000D03*
X138100000Y-13000000D03*
D33*
X90750000Y-36210000D03*
D34*
X114100000Y-36210000D03*
X114100000Y-14000000D03*
X138550000Y-14000000D03*
D33*
X84445000Y-31765000D03*
D34*
X113000000Y-31765000D03*
X113000000Y-15000000D03*
X139000000Y-15000000D03*
D33*
%TO.N,GND*%
X83175000Y-20500000D03*
D34*
X111900000Y-20500000D03*
X111900000Y-16000000D03*
X139450000Y-16000000D03*
D33*
X81905000Y-19500000D03*
D34*
X110800000Y-19500000D03*
X110800000Y-17000000D03*
X139900000Y-17000000D03*
D33*
X73015000Y-27955000D03*
D34*
X109700000Y-27955000D03*
X109700000Y-18000000D03*
X140350000Y-18000000D03*
X132500000Y-30750000D03*
%TO.N,LCD_D0*%
X132500000Y-36250000D03*
%TO.N,GND*%
X133150000Y-46250000D03*
X133150000Y-44750000D03*
X136150000Y-46250000D03*
X133150000Y-47750000D03*
X133150000Y-49250000D03*
X133150000Y-24250000D03*
X133150000Y-25750000D03*
X133150000Y-41250000D03*
X136150000Y-48250000D03*
D33*
X71900000Y-36210000D03*
X71900000Y-17000000D03*
X141200000Y-17000000D03*
X141200000Y-66000000D03*
X139960000Y-66000000D03*
X72250000Y-34940000D03*
X72250000Y-18000000D03*
X146000000Y-18000000D03*
X146000000Y-67000000D03*
X144360000Y-67000000D03*
X72600000Y-33670000D03*
X72600000Y-19000000D03*
X145000000Y-19000000D03*
X145000000Y-68000000D03*
X142160000Y-68000000D03*
X72950000Y-32400000D03*
X72950000Y-20000000D03*
X148000000Y-20000000D03*
X148000000Y-69000000D03*
X138860000Y-69000000D03*
X85750000Y-33670000D03*
X33175000Y-33670000D03*
X27055000Y-22500000D03*
X39500000Y-22500000D03*
%TO.N,SPK-*%
X28095000Y-23500000D03*
X20500000Y-23500000D03*
%TO.N,+5V*%
X31905000Y-28800000D03*
X29365000Y-28700000D03*
%TO.N,GND*%
X26825000Y-24800000D03*
X26825000Y-34200000D03*
%TO.N,+5V*%
X31905000Y-34200000D03*
%TO.N,GND*%
X80250000Y-65255000D03*
X90250000Y-65255000D03*
X79750000Y-64255000D03*
X91250000Y-64255000D03*
X73050000Y-65500000D03*
X85050000Y-65500000D03*
X22200000Y-21650000D03*
X22200000Y-62000000D03*
X67450000Y-62000000D03*
X67450000Y-31130000D03*
X69250000Y-31130000D03*
D34*
X16500000Y-25850000D03*
D33*
X22600000Y-39650000D03*
X22600000Y-63000000D03*
X65550000Y-63000000D03*
X65550000Y-29860000D03*
X69250000Y-29860000D03*
D34*
X16500000Y-43850000D03*
D33*
X13200000Y-30650000D03*
X13200000Y-64000000D03*
X62450000Y-64000000D03*
X62450000Y-28590000D03*
X69250000Y-28590000D03*
D34*
X7500000Y-34850000D03*
D33*
X34200000Y-30650000D03*
X34200000Y-65000000D03*
X58550000Y-65000000D03*
X58550000Y-27320000D03*
X69250000Y-27320000D03*
D34*
X25500000Y-34850000D03*
D33*
X131800000Y-20650000D03*
X131800000Y-66000000D03*
X52450000Y-66000000D03*
X52450000Y-26050000D03*
X69250000Y-26050000D03*
D34*
X143500000Y-24850000D03*
D33*
X131400000Y-30650000D03*
X131400000Y-67000000D03*
X45450000Y-67000000D03*
X45450000Y-35500000D03*
X73520000Y-35500000D03*
D34*
X153500000Y-34850000D03*
D33*
X131000000Y-40650000D03*
X131000000Y-68000000D03*
X36450000Y-68000000D03*
X36450000Y-34300000D03*
X73555000Y-34300000D03*
D34*
X143500000Y-44850000D03*
D33*
X130300000Y-30650000D03*
X130300000Y-69000000D03*
X25950000Y-69000000D03*
X25950000Y-33100000D03*
X74825000Y-33100000D03*
D34*
%TO.N,LCD_D0*%
X134500000Y-34850000D03*
D33*
%TO.N,GND*%
X12200000Y-52650000D03*
X12200000Y-70000000D03*
X100450000Y-70000000D03*
X100450000Y-34940000D03*
X90750000Y-34940000D03*
D34*
X6500000Y-56850000D03*
D33*
X34600000Y-52650000D03*
X34600000Y-71000000D03*
X60450000Y-71000000D03*
X60450000Y-31900000D03*
X70750000Y-31900000D03*
D34*
X26500000Y-56850000D03*
D33*
X16850000Y-74000000D03*
X72250000Y-74000000D03*
X14650000Y-8500000D03*
X146850000Y-69500000D03*
X91600000Y-69500000D03*
X91600000Y-37480000D03*
X90450000Y-37480000D03*
X144650000Y-8500000D03*
%TO.N,+3V3*%
X42050000Y-44600000D03*
X47050000Y-44600000D03*
%TO.N,GND*%
X52050000Y-44600000D03*
%TO.N,+3V3*%
X57050000Y-44600000D03*
%TO.N,GND*%
X62050000Y-44600000D03*
X67050000Y-44600000D03*
X72050000Y-44600000D03*
%TO.N,+3V3*%
X77050000Y-44600000D03*
X82050000Y-44600000D03*
X87050000Y-44600000D03*
%TO.N,GND*%
X92050000Y-44600000D03*
%TO.N,+3V3*%
X97050000Y-44600000D03*
X102050000Y-44600000D03*
%TO.N,GND*%
X42050000Y-52000000D03*
X47050000Y-52000000D03*
X52050000Y-52000000D03*
X57050000Y-52000000D03*
X62050000Y-52000000D03*
X67050000Y-52000000D03*
X72050000Y-52000000D03*
X77050000Y-52000000D03*
X82050000Y-52000000D03*
X87050000Y-52000000D03*
X92050000Y-52000000D03*
X97050000Y-52000000D03*
X102050000Y-52000000D03*
%TO.N,+3V3*%
X70450000Y-44000000D03*
%TO.N,GND*%
X68550000Y-40000000D03*
%TO.N,+3V3*%
X92950000Y-40600000D03*
%TO.N,GND*%
X91050000Y-40000000D03*
%TO.N,+5V*%
X122950000Y-46000000D03*
%TO.N,GND*%
X121050000Y-46000000D03*
X123500000Y-64500000D03*
X110950000Y-33000000D03*
X109050000Y-37000000D03*
%TO.N,BAT+*%
X118950000Y-52500000D03*
%TO.N,GND*%
X117050000Y-57500000D03*
X111500000Y-56500000D03*
X108500000Y-60500000D03*
X25950000Y-63000000D03*
D35*
%TO.N,*%
X24050000Y-66250000D03*
D33*
%TO.N,GND*%
X26650000Y-67500000D03*
X32950000Y-63000000D03*
D35*
%TO.N,*%
X31050000Y-66250000D03*
D33*
%TO.N,GND*%
X33650000Y-67500000D03*
%TD*%
D36*
%TO.N,GND*%
X82400000Y-68255000D02*
X82400000Y-60000000D01*
X111000000Y-40095000D02*
X111000000Y-40595000D01*
X111000000Y-40595000D02*
X113000000Y-40595000D01*
X76800000Y-68255000D02*
X76800000Y-66255000D01*
X110000000Y-42500000D02*
X110000000Y-43500000D01*
X110000000Y-43500000D02*
X112400000Y-43500000D01*
X112400000Y-43500000D02*
X112400000Y-45500000D01*
X127300000Y-58650000D02*
X127300000Y-60650000D01*
X81500000Y-29960000D02*
X80000000Y-29960000D01*
X80000000Y-29960000D02*
X80000000Y-32960000D01*
X79000000Y-57500000D02*
X77000000Y-57500000D01*
X107000000Y-40595000D02*
X107000000Y-38595000D01*
%TO.N,+5V*%
X122700000Y-58650000D02*
X122700000Y-56650000D01*
%TO.N,LX*%
X107000000Y-41865000D02*
X104500000Y-41865000D01*
X104500000Y-41865000D02*
X104500000Y-52500000D01*
X104500000Y-52500000D02*
X108300000Y-52500000D01*
%TO.N,BAT+*%
X111700000Y-52500000D02*
X111700000Y-49500000D01*
X111700000Y-49500000D02*
X112400000Y-49500000D01*
D37*
%TO.N,GND*%
X114050000Y-52500000D02*
X114050000Y-45405000D01*
X114050000Y-45405000D02*
X107000000Y-45405000D01*
X107000000Y-45405000D02*
X107000000Y-44405000D01*
%TO.N,+5V*%
X115950000Y-52500000D02*
X115950000Y-54500000D01*
D38*
%TO.N,+3V3*%
X125000000Y-52350000D02*
X125000000Y-49350000D01*
%TO.N,GND*%
X88750000Y-23510000D02*
X88750000Y-21010000D01*
D36*
X107000000Y-43135000D02*
X105500000Y-43135000D01*
X105500000Y-43135000D02*
X105500000Y-46135000D01*
X80500000Y-46135000D02*
X81000000Y-46135000D01*
X81000000Y-46135000D02*
X81000000Y-57500000D01*
X39250000Y-70050000D02*
X39250000Y-68050000D01*
X39250000Y-68050000D02*
X38000000Y-68050000D01*
X38000000Y-68050000D02*
X38000000Y-46135000D01*
D39*
X80635000Y-40000000D02*
X80635000Y-38115000D01*
X124000000Y-38115000D02*
X124000000Y-5000000D01*
X134500000Y-5000000D02*
X134500000Y-29750000D01*
X134500000Y-29750000D02*
X133150000Y-29750000D01*
X78095000Y-40000000D02*
X78095000Y-36845000D01*
X122900000Y-36845000D02*
X122900000Y-6000000D01*
X134950000Y-6000000D02*
X134950000Y-30250000D01*
X134950000Y-30250000D02*
X133150000Y-30250000D01*
X85715000Y-40000000D02*
X85715000Y-35575000D01*
X121800000Y-35575000D02*
X121800000Y-7000000D01*
X135400000Y-7000000D02*
X135400000Y-30750000D01*
X135400000Y-30750000D02*
X133150000Y-30750000D01*
%TO.N,LCD_RD*%
X86985000Y-40000000D02*
X86985000Y-34305000D01*
X120700000Y-34305000D02*
X120700000Y-8000000D01*
X135850000Y-8000000D02*
X135850000Y-31250000D01*
X135850000Y-31250000D02*
X133150000Y-31250000D01*
%TO.N,GND*%
X79365000Y-40000000D02*
X79365000Y-33035000D01*
X119600000Y-33035000D02*
X119600000Y-9000000D01*
X136300000Y-9000000D02*
X136300000Y-32750000D01*
X136300000Y-32750000D02*
X133150000Y-32750000D01*
%TO.N,LCD_D0*%
X88750000Y-26050000D02*
X90750000Y-26050000D01*
X118500000Y-26050000D02*
X118500000Y-10000000D01*
X136750000Y-10000000D02*
X136750000Y-33750000D01*
X136750000Y-33750000D02*
X133150000Y-33750000D01*
X88750000Y-27320000D02*
X90750000Y-27320000D01*
X117400000Y-27320000D02*
X117400000Y-11000000D01*
X137200000Y-11000000D02*
X137200000Y-34250000D01*
X137200000Y-34250000D02*
X133150000Y-34250000D01*
X88750000Y-28590000D02*
X90750000Y-28590000D01*
X116300000Y-28590000D02*
X116300000Y-12000000D01*
X137650000Y-12000000D02*
X137650000Y-34750000D01*
X137650000Y-34750000D02*
X133150000Y-34750000D01*
X88750000Y-29860000D02*
X90750000Y-29860000D01*
X115200000Y-29860000D02*
X115200000Y-13000000D01*
X138100000Y-13000000D02*
X138100000Y-35250000D01*
X138100000Y-35250000D02*
X133150000Y-35250000D01*
X88750000Y-36210000D02*
X90750000Y-36210000D01*
X114100000Y-36210000D02*
X114100000Y-14000000D01*
X138550000Y-14000000D02*
X138550000Y-35750000D01*
X138550000Y-35750000D02*
X133150000Y-35750000D01*
X84445000Y-40000000D02*
X84445000Y-31765000D01*
X113000000Y-31765000D02*
X113000000Y-15000000D01*
X139000000Y-15000000D02*
X139000000Y-36250000D01*
X139000000Y-36250000D02*
X133150000Y-36250000D01*
%TO.N,GND*%
X83175000Y-40000000D02*
X83175000Y-30495000D01*
X83175000Y-30495000D02*
X83175000Y-20500000D01*
X111900000Y-20500000D02*
X111900000Y-16000000D01*
X139450000Y-16000000D02*
X139450000Y-36750000D01*
X139450000Y-36750000D02*
X133150000Y-36750000D01*
X81905000Y-40000000D02*
X81905000Y-29225000D01*
X81905000Y-29225000D02*
X81905000Y-19500000D01*
X110800000Y-19500000D02*
X110800000Y-17000000D01*
X139900000Y-17000000D02*
X139900000Y-37250000D01*
X139900000Y-37250000D02*
X133150000Y-37250000D01*
X73015000Y-40000000D02*
X73015000Y-27955000D01*
X109700000Y-27955000D02*
X109700000Y-18000000D01*
X140350000Y-18000000D02*
X140350000Y-41750000D01*
X140350000Y-41750000D02*
X133150000Y-41750000D01*
D40*
X133150000Y-27750000D02*
X132500000Y-27750000D01*
X132500000Y-27750000D02*
X132500000Y-30750000D01*
%TO.N,LCD_D0*%
X133150000Y-33250000D02*
X132500000Y-33250000D01*
X132500000Y-33250000D02*
X132500000Y-36250000D01*
%TO.N,GND*%
X133150000Y-42250000D02*
X133150000Y-42250000D01*
X133150000Y-42250000D02*
X133150000Y-46250000D01*
X133150000Y-42750000D02*
X133150000Y-42750000D01*
X133150000Y-42750000D02*
X133150000Y-44750000D01*
X133150000Y-43250000D02*
X136150000Y-43250000D01*
X136150000Y-43250000D02*
X136150000Y-46250000D01*
X133150000Y-43750000D02*
X133150000Y-43750000D01*
X133150000Y-43750000D02*
X133150000Y-47750000D01*
X133150000Y-45250000D02*
X133150000Y-45250000D01*
X133150000Y-45250000D02*
X133150000Y-49250000D01*
X133150000Y-28250000D02*
X133150000Y-28250000D01*
X133150000Y-28250000D02*
X133150000Y-24250000D01*
X133150000Y-28750000D02*
X133150000Y-28750000D01*
X133150000Y-28750000D02*
X133150000Y-25750000D01*
X133150000Y-44250000D02*
X133150000Y-44250000D01*
X133150000Y-44250000D02*
X133150000Y-41250000D01*
X133150000Y-44750000D02*
X136150000Y-44750000D01*
X136150000Y-44750000D02*
X136150000Y-48250000D01*
D39*
X71250000Y-36210000D02*
X71900000Y-36210000D01*
X71900000Y-36210000D02*
X71900000Y-17000000D01*
X141200000Y-17000000D02*
X141200000Y-66000000D01*
X139960000Y-66000000D02*
X139960000Y-61550000D01*
X71250000Y-34940000D02*
X72250000Y-34940000D01*
X72250000Y-34940000D02*
X72250000Y-18000000D01*
X146000000Y-18000000D02*
X146000000Y-67000000D01*
X144360000Y-67000000D02*
X144360000Y-61550000D01*
X71250000Y-33670000D02*
X72600000Y-33670000D01*
X72600000Y-33670000D02*
X72600000Y-19000000D01*
X145000000Y-19000000D02*
X145000000Y-68000000D01*
X142160000Y-68000000D02*
X142160000Y-61550000D01*
X71250000Y-32400000D02*
X72950000Y-32400000D01*
X72950000Y-32400000D02*
X72950000Y-20000000D01*
X148000000Y-20000000D02*
X148000000Y-69000000D01*
X138860000Y-69000000D02*
X138860000Y-61550000D01*
X88750000Y-33670000D02*
X85750000Y-33670000D01*
X33175000Y-33670000D02*
X33175000Y-32200000D01*
X33175000Y-32200000D02*
X33175000Y-26800000D01*
D40*
X25555000Y-32200000D02*
X27055000Y-32200000D01*
X27055000Y-32200000D02*
X27055000Y-22500000D01*
X39500000Y-22500000D02*
X39500000Y-52500000D01*
%TO.N,SPK-*%
X28095000Y-32200000D02*
X28095000Y-23500000D01*
X20500000Y-23500000D02*
X20500000Y-52500000D01*
D36*
%TO.N,+5V*%
X31905000Y-26800000D02*
X30635000Y-26800000D01*
X30635000Y-26800000D02*
X29365000Y-26800000D01*
X31905000Y-26800000D02*
X31905000Y-28800000D01*
X30635000Y-32200000D02*
X29365000Y-32200000D01*
X29365000Y-32200000D02*
X29365000Y-28700000D01*
X31905000Y-26800000D02*
X31905000Y-32200000D01*
X31905000Y-32200000D02*
X29365000Y-32200000D01*
%TO.N,GND*%
X26825000Y-26800000D02*
X26825000Y-24800000D01*
X26825000Y-32200000D02*
X26825000Y-34200000D01*
%TO.N,+5V*%
X31905000Y-32200000D02*
X31905000Y-34200000D01*
D39*
%TO.N,GND*%
X80250000Y-68255000D02*
X80250000Y-65255000D01*
X90250000Y-65255000D02*
X90250000Y-38750000D01*
X90250000Y-38750000D02*
X88750000Y-38750000D01*
X79750000Y-68255000D02*
X79750000Y-64255000D01*
X91250000Y-64255000D02*
X91250000Y-37480000D01*
X91250000Y-37480000D02*
X88750000Y-37480000D01*
D37*
X78250000Y-68255000D02*
X87500000Y-68255000D01*
X87500000Y-68255000D02*
X87500000Y-69505000D01*
X87500000Y-69505000D02*
X86950000Y-69505000D01*
X86950000Y-69505000D02*
X86950000Y-67000000D01*
X81250000Y-68255000D02*
X81250000Y-73505000D01*
X81250000Y-73505000D02*
X74950000Y-73505000D01*
X74950000Y-73505000D02*
X74950000Y-67000000D01*
X73050000Y-67000000D02*
X73050000Y-65500000D01*
X85050000Y-67000000D02*
X85050000Y-65500000D01*
X22200000Y-21650000D02*
X22200000Y-62000000D01*
X67450000Y-62000000D02*
X67450000Y-31130000D01*
X69250000Y-31130000D02*
X71250000Y-31130000D01*
X22600000Y-39650000D02*
X22600000Y-63000000D01*
X65550000Y-63000000D02*
X65550000Y-29860000D01*
X69250000Y-29860000D02*
X71250000Y-29860000D01*
X13200000Y-30650000D02*
X13200000Y-64000000D01*
X62450000Y-64000000D02*
X62450000Y-28590000D01*
X69250000Y-28590000D02*
X71250000Y-28590000D01*
X34200000Y-30650000D02*
X34200000Y-65000000D01*
X58550000Y-65000000D02*
X58550000Y-27320000D01*
X69250000Y-27320000D02*
X71250000Y-27320000D01*
X131800000Y-20650000D02*
X131800000Y-66000000D01*
X52450000Y-66000000D02*
X52450000Y-26050000D01*
X69250000Y-26050000D02*
X71250000Y-26050000D01*
X131400000Y-30650000D02*
X131400000Y-67000000D01*
X45450000Y-67000000D02*
X45450000Y-35500000D01*
X73520000Y-35500000D02*
X74285000Y-35500000D01*
X74285000Y-35500000D02*
X74285000Y-40000000D01*
X131000000Y-40650000D02*
X131000000Y-68000000D01*
X36450000Y-68000000D02*
X36450000Y-34300000D01*
X73555000Y-34300000D02*
X75555000Y-34300000D01*
X75555000Y-34300000D02*
X75555000Y-40000000D01*
X130300000Y-30650000D02*
X130300000Y-69000000D01*
X25950000Y-69000000D02*
X25950000Y-33100000D01*
X74825000Y-33100000D02*
X76825000Y-33100000D01*
X76825000Y-33100000D02*
X76825000Y-40000000D01*
X12200000Y-52650000D02*
X12200000Y-70000000D01*
X100450000Y-70000000D02*
X100450000Y-34940000D01*
X90750000Y-34940000D02*
X88750000Y-34940000D01*
X34600000Y-52650000D02*
X34600000Y-71000000D01*
X60450000Y-71000000D02*
X60450000Y-31900000D01*
X70750000Y-31900000D02*
X71250000Y-31900000D01*
X71250000Y-31900000D02*
X71250000Y-38750000D01*
X16850000Y-2500000D02*
X16850000Y-74000000D01*
X72250000Y-74000000D02*
X72250000Y-37480000D01*
X72250000Y-37480000D02*
X71250000Y-37480000D01*
X13150000Y-8500000D02*
X14650000Y-8500000D01*
X146850000Y-2500000D02*
X146850000Y-69500000D01*
X91600000Y-69500000D02*
X91600000Y-37480000D01*
X90450000Y-37480000D02*
X88750000Y-37480000D01*
X143150000Y-8500000D02*
X144650000Y-8500000D01*
%TO.N,+3V3*%
X42050000Y-46000000D02*
X42050000Y-44600000D01*
X47050000Y-46000000D02*
X47050000Y-44600000D01*
%TO.N,GND*%
X52050000Y-46000000D02*
X52050000Y-44600000D01*
%TO.N,+3V3*%
X57050000Y-46000000D02*
X57050000Y-44600000D01*
%TO.N,GND*%
X62050000Y-46000000D02*
X62050000Y-44600000D01*
X67050000Y-46000000D02*
X67050000Y-44600000D01*
X72050000Y-46000000D02*
X72050000Y-44600000D01*
%TO.N,+3V3*%
X77050000Y-46000000D02*
X77050000Y-44600000D01*
X82050000Y-46000000D02*
X82050000Y-44600000D01*
X87050000Y-46000000D02*
X87050000Y-44600000D01*
%TO.N,GND*%
X92050000Y-46000000D02*
X92050000Y-44600000D01*
%TO.N,+3V3*%
X97050000Y-46000000D02*
X97050000Y-44600000D01*
X102050000Y-46000000D02*
X102050000Y-44600000D01*
%TO.N,GND*%
X42050000Y-50000000D02*
X42050000Y-52000000D01*
X47050000Y-50000000D02*
X47050000Y-52000000D01*
X52050000Y-50000000D02*
X52050000Y-52000000D01*
X57050000Y-50000000D02*
X57050000Y-52000000D01*
X62050000Y-50000000D02*
X62050000Y-52000000D01*
X67050000Y-50000000D02*
X67050000Y-52000000D01*
X72050000Y-50000000D02*
X72050000Y-52000000D01*
X77050000Y-50000000D02*
X77050000Y-52000000D01*
X82050000Y-50000000D02*
X82050000Y-52000000D01*
X87050000Y-50000000D02*
X87050000Y-52000000D01*
X92050000Y-50000000D02*
X92050000Y-52000000D01*
X97050000Y-50000000D02*
X97050000Y-52000000D01*
X102050000Y-50000000D02*
X102050000Y-52000000D01*
%TO.N,BTN_UP*%
X43950000Y-46000000D02*
X43950000Y-50000000D01*
%TO.N,BTN_DOWN*%
X48950000Y-46000000D02*
X48950000Y-50000000D01*
%TO.N,BTN_LEFT*%
X53950000Y-46000000D02*
X53950000Y-50000000D01*
%TO.N,GND*%
X58950000Y-46000000D02*
X58950000Y-50000000D01*
%TO.N,BTN_A*%
X63950000Y-46000000D02*
X63950000Y-50000000D01*
%TO.N,BTN_B*%
X68950000Y-46000000D02*
X68950000Y-50000000D01*
%TO.N,BTN_X*%
X73950000Y-46000000D02*
X73950000Y-50000000D01*
%TO.N,BTN_Y*%
X78950000Y-46000000D02*
X78950000Y-50000000D01*
%TO.N,BTN_START*%
X83950000Y-46000000D02*
X83950000Y-50000000D01*
%TO.N,BTN_SELECT*%
X88950000Y-46000000D02*
X88950000Y-50000000D01*
%TO.N,BTN_L*%
X93950000Y-46000000D02*
X93950000Y-50000000D01*
%TO.N,BTN_R*%
X98950000Y-46000000D02*
X98950000Y-50000000D01*
%TO.N,LX*%
X103950000Y-46000000D02*
X103950000Y-50000000D01*
%TO.N,+3V3*%
X70450000Y-42000000D02*
X70450000Y-44000000D01*
%TO.N,GND*%
X68550000Y-42000000D02*
X68550000Y-40000000D01*
%TO.N,+3V3*%
X92950000Y-42000000D02*
X92950000Y-40600000D01*
%TO.N,GND*%
X91050000Y-42000000D02*
X91050000Y-40000000D01*
%TO.N,+5V*%
X122950000Y-48500000D02*
X122950000Y-46000000D01*
%TO.N,GND*%
X121050000Y-48500000D02*
X121050000Y-46000000D01*
%TO.N,+3V3*%
X126500000Y-62500000D02*
X125000000Y-62500000D01*
X125000000Y-62500000D02*
X125000000Y-52350000D01*
%TO.N,GND*%
X123500000Y-62500000D02*
X123500000Y-64500000D01*
X110950000Y-35000000D02*
X110950000Y-33000000D01*
X109050000Y-35000000D02*
X109050000Y-37000000D01*
%TO.N,BAT+*%
X118950000Y-55000000D02*
X118950000Y-52500000D01*
%TO.N,GND*%
X117050000Y-55000000D02*
X117050000Y-57500000D01*
X111500000Y-58500000D02*
X111500000Y-56500000D01*
X108500000Y-58500000D02*
X108500000Y-60500000D01*
X25950000Y-63000000D02*
X25950000Y-65000000D01*
%TO.N,*%
X24050000Y-65000000D02*
X24050000Y-66250000D01*
%TO.N,GND*%
X32950000Y-63000000D02*
X32950000Y-65000000D01*
%TO.N,*%
X31050000Y-65000000D02*
X31050000Y-66250000D01*
%TD*%
M02*
