%TF.GenerationSoftware,KiCad,Pcbnew,9.0.7*%
%TF.CreationDate,2026-03-03T11:44:22+01:00*%
%TF.ProjectId,esp32-emu-turbo,65737033-322d-4656-9d75-2d747572626f,rev?*%
%TF.SameCoordinates,Original*%
%TF.FileFunction,Drillmap*%
%TF.FilePolarity,Positive*%
%FSLAX45Y45*%
G04 Gerber Fmt 4.5, Leading zero omitted, Abs format (unit mm)*
G04 Created by KiCad (PCBNEW 9.0.7) date 2026-03-03 11:44:22*
%MOMM*%
%LPD*%
G01*
G04 APERTURE LIST*
%ADD10C,0.050000*%
%ADD11C,0.200000*%
%ADD12C,0.100000*%
%ADD13C,0.250000*%
G04 APERTURE END LIST*
D10*
X600000Y0D02*
X15400000Y0D01*
X16000000Y-600000D02*
X16000000Y-6900000D01*
X15400000Y-7500000D02*
X600000Y-7500000D01*
X0Y-6900000D02*
X0Y-600000D01*
X0Y-600000D02*
G75*
G02*
X600000Y0I600000J0D01*
G01*
X15400000Y0D02*
G75*
G02*
X16000000Y-600000I0J-600000D01*
G01*
X16000000Y-6900000D02*
G75*
G02*
X15400000Y-7500000I-600000J0D01*
G01*
X600000Y-7500000D02*
G75*
G02*
X0Y-6900000I0J600000D01*
G01*
X12550000Y-2350000D02*
X12850000Y-2350000D01*
X12850000Y-2350000D02*
X12850000Y-4750000D01*
X12850000Y-4750000D02*
X12550000Y-4750000D01*
X12550000Y-4750000D02*
X12550000Y-2350000D01*
D11*
D12*
X13305000Y-2765000D02*
X13325000Y-2785000D01*
X13325000Y-2765000D02*
X13305000Y-2785000D01*
X13305000Y-2815000D02*
X13325000Y-2835000D01*
X13325000Y-2815000D02*
X13305000Y-2835000D01*
X13305000Y-2865000D02*
X13325000Y-2885000D01*
X13325000Y-2865000D02*
X13305000Y-2885000D01*
X665000Y-5685000D02*
G75*
G02*
X635000Y-5685000I-15000J0D01*
G01*
X635000Y-5685000D02*
G75*
G02*
X665000Y-5685000I15000J0D01*
G01*
X765000Y-3485000D02*
G75*
G02*
X735000Y-3485000I-15000J0D01*
G01*
X735000Y-3485000D02*
G75*
G02*
X765000Y-3485000I15000J0D01*
G01*
X1615000Y-2585000D02*
G75*
G02*
X1585000Y-2585000I-15000J0D01*
G01*
X1585000Y-2585000D02*
G75*
G02*
X1615000Y-2585000I15000J0D01*
G01*
X1615000Y-4385000D02*
G75*
G02*
X1585000Y-4385000I-15000J0D01*
G01*
X1585000Y-4385000D02*
G75*
G02*
X1615000Y-4385000I15000J0D01*
G01*
X2565000Y-3485000D02*
G75*
G02*
X2535000Y-3485000I-15000J0D01*
G01*
X2535000Y-3485000D02*
G75*
G02*
X2565000Y-3485000I15000J0D01*
G01*
X2665000Y-5685000D02*
G75*
G02*
X2635000Y-5685000I-15000J0D01*
G01*
X2635000Y-5685000D02*
G75*
G02*
X2665000Y-5685000I15000J0D01*
G01*
X7235000Y-3240000D02*
G75*
G02*
X7205000Y-3240000I-15000J0D01*
G01*
X7205000Y-3240000D02*
G75*
G02*
X7235000Y-3240000I15000J0D01*
G01*
X7235000Y-3367000D02*
G75*
G02*
X7205000Y-3367000I-15000J0D01*
G01*
X7205000Y-3367000D02*
G75*
G02*
X7235000Y-3367000I15000J0D01*
G01*
X7235000Y-3494000D02*
G75*
G02*
X7205000Y-3494000I-15000J0D01*
G01*
X7205000Y-3494000D02*
G75*
G02*
X7235000Y-3494000I15000J0D01*
G01*
X7235000Y-3621000D02*
G75*
G02*
X7205000Y-3621000I-15000J0D01*
G01*
X7205000Y-3621000D02*
G75*
G02*
X7235000Y-3621000I15000J0D01*
G01*
X7515000Y-150000D02*
G75*
G02*
X7485000Y-150000I-15000J0D01*
G01*
X7485000Y-150000D02*
G75*
G02*
X7515000Y-150000I15000J0D01*
G01*
X7515000Y-3621000D02*
G75*
G02*
X7485000Y-3621000I-15000J0D01*
G01*
X7485000Y-3621000D02*
G75*
G02*
X7515000Y-3621000I15000J0D01*
G01*
X7615000Y-220000D02*
G75*
G02*
X7585000Y-220000I-15000J0D01*
G01*
X7585000Y-220000D02*
G75*
G02*
X7615000Y-220000I15000J0D01*
G01*
X7615000Y-3494000D02*
G75*
G02*
X7585000Y-3494000I-15000J0D01*
G01*
X7585000Y-3494000D02*
G75*
G02*
X7615000Y-3494000I15000J0D01*
G01*
X7715000Y-290000D02*
G75*
G02*
X7685000Y-290000I-15000J0D01*
G01*
X7685000Y-290000D02*
G75*
G02*
X7715000Y-290000I15000J0D01*
G01*
X7715000Y-3367000D02*
G75*
G02*
X7685000Y-3367000I-15000J0D01*
G01*
X7685000Y-3367000D02*
G75*
G02*
X7715000Y-3367000I15000J0D01*
G01*
X7815000Y-360000D02*
G75*
G02*
X7785000Y-360000I-15000J0D01*
G01*
X7785000Y-360000D02*
G75*
G02*
X7815000Y-360000I15000J0D01*
G01*
X7815000Y-3240000D02*
G75*
G02*
X7785000Y-3240000I-15000J0D01*
G01*
X7785000Y-3240000D02*
G75*
G02*
X7815000Y-3240000I15000J0D01*
G01*
X10985000Y-1800000D02*
G75*
G02*
X10955000Y-1800000I-15000J0D01*
G01*
X10955000Y-1800000D02*
G75*
G02*
X10985000Y-1800000I15000J0D01*
G01*
X10985000Y-2795500D02*
G75*
G02*
X10955000Y-2795500I-15000J0D01*
G01*
X10955000Y-2795500D02*
G75*
G02*
X10985000Y-2795500I15000J0D01*
G01*
X11095000Y-1700000D02*
G75*
G02*
X11065000Y-1700000I-15000J0D01*
G01*
X11065000Y-1700000D02*
G75*
G02*
X11095000Y-1700000I15000J0D01*
G01*
X11095000Y-1950000D02*
G75*
G02*
X11065000Y-1950000I-15000J0D01*
G01*
X11065000Y-1950000D02*
G75*
G02*
X11095000Y-1950000I15000J0D01*
G01*
X11205000Y-1600000D02*
G75*
G02*
X11175000Y-1600000I-15000J0D01*
G01*
X11175000Y-1600000D02*
G75*
G02*
X11205000Y-1600000I15000J0D01*
G01*
X11205000Y-2050000D02*
G75*
G02*
X11175000Y-2050000I-15000J0D01*
G01*
X11175000Y-2050000D02*
G75*
G02*
X11205000Y-2050000I15000J0D01*
G01*
X11315000Y-1500000D02*
G75*
G02*
X11285000Y-1500000I-15000J0D01*
G01*
X11285000Y-1500000D02*
G75*
G02*
X11315000Y-1500000I15000J0D01*
G01*
X11315000Y-3176500D02*
G75*
G02*
X11285000Y-3176500I-15000J0D01*
G01*
X11285000Y-3176500D02*
G75*
G02*
X11315000Y-3176500I15000J0D01*
G01*
X11425000Y-1400000D02*
G75*
G02*
X11395000Y-1400000I-15000J0D01*
G01*
X11395000Y-1400000D02*
G75*
G02*
X11425000Y-1400000I15000J0D01*
G01*
X11425000Y-3621000D02*
G75*
G02*
X11395000Y-3621000I-15000J0D01*
G01*
X11395000Y-3621000D02*
G75*
G02*
X11425000Y-3621000I15000J0D01*
G01*
X11535000Y-1300000D02*
G75*
G02*
X11505000Y-1300000I-15000J0D01*
G01*
X11505000Y-1300000D02*
G75*
G02*
X11535000Y-1300000I15000J0D01*
G01*
X11535000Y-2986000D02*
G75*
G02*
X11505000Y-2986000I-15000J0D01*
G01*
X11505000Y-2986000D02*
G75*
G02*
X11535000Y-2986000I15000J0D01*
G01*
X11645000Y-1200000D02*
G75*
G02*
X11615000Y-1200000I-15000J0D01*
G01*
X11615000Y-1200000D02*
G75*
G02*
X11645000Y-1200000I15000J0D01*
G01*
X11645000Y-2859000D02*
G75*
G02*
X11615000Y-2859000I-15000J0D01*
G01*
X11615000Y-2859000D02*
G75*
G02*
X11645000Y-2859000I15000J0D01*
G01*
X11755000Y-1100000D02*
G75*
G02*
X11725000Y-1100000I-15000J0D01*
G01*
X11725000Y-1100000D02*
G75*
G02*
X11755000Y-1100000I15000J0D01*
G01*
X11755000Y-2732000D02*
G75*
G02*
X11725000Y-2732000I-15000J0D01*
G01*
X11725000Y-2732000D02*
G75*
G02*
X11755000Y-2732000I15000J0D01*
G01*
X11865000Y-1000000D02*
G75*
G02*
X11835000Y-1000000I-15000J0D01*
G01*
X11835000Y-1000000D02*
G75*
G02*
X11865000Y-1000000I15000J0D01*
G01*
X11865000Y-2605000D02*
G75*
G02*
X11835000Y-2605000I-15000J0D01*
G01*
X11835000Y-2605000D02*
G75*
G02*
X11865000Y-2605000I15000J0D01*
G01*
X11975000Y-900000D02*
G75*
G02*
X11945000Y-900000I-15000J0D01*
G01*
X11945000Y-900000D02*
G75*
G02*
X11975000Y-900000I15000J0D01*
G01*
X11975000Y-3303500D02*
G75*
G02*
X11945000Y-3303500I-15000J0D01*
G01*
X11945000Y-3303500D02*
G75*
G02*
X11975000Y-3303500I15000J0D01*
G01*
X12085000Y-800000D02*
G75*
G02*
X12055000Y-800000I-15000J0D01*
G01*
X12055000Y-800000D02*
G75*
G02*
X12085000Y-800000I15000J0D01*
G01*
X12085000Y-3430500D02*
G75*
G02*
X12055000Y-3430500I-15000J0D01*
G01*
X12055000Y-3430500D02*
G75*
G02*
X12085000Y-3430500I15000J0D01*
G01*
X12195000Y-700000D02*
G75*
G02*
X12165000Y-700000I-15000J0D01*
G01*
X12165000Y-700000D02*
G75*
G02*
X12195000Y-700000I15000J0D01*
G01*
X12195000Y-3557500D02*
G75*
G02*
X12165000Y-3557500I-15000J0D01*
G01*
X12165000Y-3557500D02*
G75*
G02*
X12195000Y-3557500I15000J0D01*
G01*
X12305000Y-600000D02*
G75*
G02*
X12275000Y-600000I-15000J0D01*
G01*
X12275000Y-600000D02*
G75*
G02*
X12305000Y-600000I15000J0D01*
G01*
X12305000Y-3684500D02*
G75*
G02*
X12275000Y-3684500I-15000J0D01*
G01*
X12275000Y-3684500D02*
G75*
G02*
X12305000Y-3684500I15000J0D01*
G01*
X12415000Y-500000D02*
G75*
G02*
X12385000Y-500000I-15000J0D01*
G01*
X12385000Y-500000D02*
G75*
G02*
X12415000Y-500000I15000J0D01*
G01*
X12415000Y-3811500D02*
G75*
G02*
X12385000Y-3811500I-15000J0D01*
G01*
X12385000Y-3811500D02*
G75*
G02*
X12415000Y-3811500I15000J0D01*
G01*
X13115000Y-500000D02*
G75*
G02*
X13085000Y-500000I-15000J0D01*
G01*
X13085000Y-500000D02*
G75*
G02*
X13115000Y-500000I15000J0D01*
G01*
X13185000Y-600000D02*
G75*
G02*
X13155000Y-600000I-15000J0D01*
G01*
X13155000Y-600000D02*
G75*
G02*
X13185000Y-600000I15000J0D01*
G01*
X13215000Y-4125000D02*
G75*
G02*
X13185000Y-4125000I-15000J0D01*
G01*
X13185000Y-4125000D02*
G75*
G02*
X13215000Y-4125000I15000J0D01*
G01*
X13255000Y-700000D02*
G75*
G02*
X13225000Y-700000I-15000J0D01*
G01*
X13225000Y-700000D02*
G75*
G02*
X13255000Y-700000I15000J0D01*
G01*
X13325000Y-800000D02*
G75*
G02*
X13295000Y-800000I-15000J0D01*
G01*
X13295000Y-800000D02*
G75*
G02*
X13325000Y-800000I15000J0D01*
G01*
X13330000Y-3325000D02*
G75*
G02*
X13300000Y-3325000I-15000J0D01*
G01*
X13300000Y-3325000D02*
G75*
G02*
X13330000Y-3325000I15000J0D01*
G01*
X13395000Y-900000D02*
G75*
G02*
X13365000Y-900000I-15000J0D01*
G01*
X13365000Y-900000D02*
G75*
G02*
X13395000Y-900000I15000J0D01*
G01*
X13415000Y-4825000D02*
G75*
G02*
X13385000Y-4825000I-15000J0D01*
G01*
X13385000Y-4825000D02*
G75*
G02*
X13415000Y-4825000I15000J0D01*
G01*
X13415000Y-5025000D02*
G75*
G02*
X13385000Y-5025000I-15000J0D01*
G01*
X13385000Y-5025000D02*
G75*
G02*
X13415000Y-5025000I15000J0D01*
G01*
X13415000Y-5225000D02*
G75*
G02*
X13385000Y-5225000I-15000J0D01*
G01*
X13385000Y-5225000D02*
G75*
G02*
X13415000Y-5225000I15000J0D01*
G01*
X13415000Y-5425000D02*
G75*
G02*
X13385000Y-5425000I-15000J0D01*
G01*
X13385000Y-5425000D02*
G75*
G02*
X13415000Y-5425000I15000J0D01*
G01*
X13465000Y-1000000D02*
G75*
G02*
X13435000Y-1000000I-15000J0D01*
G01*
X13435000Y-1000000D02*
G75*
G02*
X13465000Y-1000000I15000J0D01*
G01*
X13465000Y-3485000D02*
G75*
G02*
X13435000Y-3485000I-15000J0D01*
G01*
X13435000Y-3485000D02*
G75*
G02*
X13465000Y-3485000I15000J0D01*
G01*
X13535000Y-1100000D02*
G75*
G02*
X13505000Y-1100000I-15000J0D01*
G01*
X13505000Y-1100000D02*
G75*
G02*
X13535000Y-1100000I15000J0D01*
G01*
X13605000Y-1200000D02*
G75*
G02*
X13575000Y-1200000I-15000J0D01*
G01*
X13575000Y-1200000D02*
G75*
G02*
X13605000Y-1200000I15000J0D01*
G01*
X13630000Y-4625000D02*
G75*
G02*
X13600000Y-4625000I-15000J0D01*
G01*
X13600000Y-4625000D02*
G75*
G02*
X13630000Y-4625000I15000J0D01*
G01*
X13675000Y-1300000D02*
G75*
G02*
X13645000Y-1300000I-15000J0D01*
G01*
X13645000Y-1300000D02*
G75*
G02*
X13675000Y-1300000I15000J0D01*
G01*
X13730000Y-5500000D02*
G75*
G02*
X13700000Y-5500000I-15000J0D01*
G01*
X13700000Y-5500000D02*
G75*
G02*
X13730000Y-5500000I15000J0D01*
G01*
X13745000Y-1400000D02*
G75*
G02*
X13715000Y-1400000I-15000J0D01*
G01*
X13715000Y-1400000D02*
G75*
G02*
X13745000Y-1400000I15000J0D01*
G01*
X13815000Y-1500000D02*
G75*
G02*
X13785000Y-1500000I-15000J0D01*
G01*
X13785000Y-1500000D02*
G75*
G02*
X13815000Y-1500000I15000J0D01*
G01*
X13885000Y-1600000D02*
G75*
G02*
X13855000Y-1600000I-15000J0D01*
G01*
X13855000Y-1600000D02*
G75*
G02*
X13885000Y-1600000I15000J0D01*
G01*
X13955000Y-1700000D02*
G75*
G02*
X13925000Y-1700000I-15000J0D01*
G01*
X13925000Y-1700000D02*
G75*
G02*
X13955000Y-1700000I15000J0D01*
G01*
X14025000Y-1800000D02*
G75*
G02*
X13995000Y-1800000I-15000J0D01*
G01*
X13995000Y-1800000D02*
G75*
G02*
X14025000Y-1800000I15000J0D01*
G01*
X14135000Y-150000D02*
G75*
G02*
X14105000Y-150000I-15000J0D01*
G01*
X14105000Y-150000D02*
G75*
G02*
X14135000Y-150000I15000J0D01*
G01*
X14365000Y-2485000D02*
G75*
G02*
X14335000Y-2485000I-15000J0D01*
G01*
X14335000Y-2485000D02*
G75*
G02*
X14365000Y-2485000I15000J0D01*
G01*
X14365000Y-4485000D02*
G75*
G02*
X14335000Y-4485000I-15000J0D01*
G01*
X14335000Y-4485000D02*
G75*
G02*
X14365000Y-4485000I15000J0D01*
G01*
X14615000Y-220000D02*
G75*
G02*
X14585000Y-220000I-15000J0D01*
G01*
X14585000Y-220000D02*
G75*
G02*
X14615000Y-220000I15000J0D01*
G01*
X14815000Y-360000D02*
G75*
G02*
X14785000Y-360000I-15000J0D01*
G01*
X14785000Y-360000D02*
G75*
G02*
X14815000Y-360000I15000J0D01*
G01*
X15265000Y-290000D02*
G75*
G02*
X15235000Y-290000I-15000J0D01*
G01*
X15235000Y-290000D02*
G75*
G02*
X15265000Y-290000I15000J0D01*
G01*
X15365000Y-3485000D02*
G75*
G02*
X15335000Y-3485000I-15000J0D01*
G01*
X15335000Y-3485000D02*
G75*
G02*
X15365000Y-3485000I15000J0D01*
G01*
X1220000Y-5247500D02*
X1220000Y-5282500D01*
X1202500Y-5265000D02*
X1237500Y-5265000D01*
X1220000Y-7142500D02*
X1220000Y-7177500D01*
X1202500Y-7160000D02*
X1237500Y-7160000D01*
X1320000Y-3047500D02*
X1320000Y-3082500D01*
X1302500Y-3065000D02*
X1337500Y-3065000D01*
X1320000Y-6422500D02*
X1320000Y-6457500D01*
X1302500Y-6440000D02*
X1337500Y-6440000D01*
X1465000Y-832500D02*
X1465000Y-867500D01*
X1447500Y-850000D02*
X1482500Y-850000D01*
X1685000Y-7335500D02*
X1685000Y-7370500D01*
X1667500Y-7353000D02*
X1702500Y-7353000D01*
X2050000Y-2352500D02*
X2050000Y-2387500D01*
X2032500Y-2370000D02*
X2067500Y-2370000D01*
X2220000Y-2147500D02*
X2220000Y-2182500D01*
X2202500Y-2165000D02*
X2237500Y-2165000D01*
X2220000Y-6182500D02*
X2220000Y-6217500D01*
X2202500Y-6200000D02*
X2237500Y-6200000D01*
X2295000Y-3947500D02*
X2295000Y-3982500D01*
X2277500Y-3965000D02*
X2312500Y-3965000D01*
X2295000Y-6302500D02*
X2295000Y-6337500D01*
X2277500Y-6320000D02*
X2312500Y-6320000D01*
X2405000Y-6607500D02*
X2405000Y-6642500D01*
X2387500Y-6625000D02*
X2422500Y-6625000D01*
X2450000Y-2232500D02*
X2450000Y-2267500D01*
X2432500Y-2250000D02*
X2467500Y-2250000D01*
X2595000Y-6282500D02*
X2595000Y-6317500D01*
X2577500Y-6300000D02*
X2612500Y-6300000D01*
X2665000Y-6732500D02*
X2665000Y-6767500D01*
X2647500Y-6750000D02*
X2682500Y-6750000D01*
X2682500Y-2462500D02*
X2682500Y-2497500D01*
X2665000Y-2480000D02*
X2700000Y-2480000D01*
X2682500Y-3412500D02*
X2682500Y-3447500D01*
X2665000Y-3430000D02*
X2700000Y-3430000D01*
X2745000Y-4372500D02*
X2745000Y-4407500D01*
X2727500Y-4390000D02*
X2762500Y-4390000D01*
X2745000Y-7022500D02*
X2745000Y-7057500D01*
X2727500Y-7040000D02*
X2762500Y-7040000D01*
X2809500Y-2352500D02*
X2809500Y-2387500D01*
X2792000Y-2370000D02*
X2827000Y-2370000D01*
X2936500Y-2852500D02*
X2936500Y-2887500D01*
X2919000Y-2870000D02*
X2954000Y-2870000D01*
X3105000Y-6607500D02*
X3105000Y-6642500D01*
X3087500Y-6625000D02*
X3122500Y-6625000D01*
X3190500Y-2862500D02*
X3190500Y-2897500D01*
X3173000Y-2880000D02*
X3208000Y-2880000D01*
X3190500Y-3412500D02*
X3190500Y-3447500D01*
X3173000Y-3430000D02*
X3208000Y-3430000D01*
X3295000Y-6282500D02*
X3295000Y-6317500D01*
X3277500Y-6300000D02*
X3312500Y-6300000D01*
X3317500Y-1782500D02*
X3317500Y-1817500D01*
X3300000Y-1800000D02*
X3335000Y-1800000D01*
X3365000Y-6732500D02*
X3365000Y-6767500D01*
X3347500Y-6750000D02*
X3382500Y-6750000D01*
X3420000Y-3047500D02*
X3420000Y-3082500D01*
X3402500Y-3065000D02*
X3437500Y-3065000D01*
X3420000Y-6542500D02*
X3420000Y-6577500D01*
X3402500Y-6560000D02*
X3437500Y-6560000D01*
X3495000Y-5247500D02*
X3495000Y-5282500D01*
X3477500Y-5265000D02*
X3512500Y-5265000D01*
X3495000Y-7262500D02*
X3495000Y-7297500D01*
X3477500Y-7280000D02*
X3512500Y-7280000D01*
X3645000Y-4252500D02*
X3645000Y-4287500D01*
X3627500Y-4270000D02*
X3662500Y-4270000D01*
X3645000Y-6902500D02*
X3645000Y-6937500D01*
X3627500Y-6920000D02*
X3662500Y-6920000D01*
X3800000Y-4596000D02*
X3800000Y-4631000D01*
X3782500Y-4613500D02*
X3817500Y-4613500D01*
X3925000Y-6787500D02*
X3925000Y-6822500D01*
X3907500Y-6805000D02*
X3942500Y-6805000D01*
X3950000Y-2232500D02*
X3950000Y-2267500D01*
X3932500Y-2250000D02*
X3967500Y-2250000D01*
X4205000Y-4442500D02*
X4205000Y-4477500D01*
X4187500Y-4460000D02*
X4222500Y-4460000D01*
X4205000Y-5182500D02*
X4205000Y-5217500D01*
X4187500Y-5200000D02*
X4222500Y-5200000D01*
X4545000Y-4132500D02*
X4545000Y-4167500D01*
X4527500Y-4150000D02*
X4562500Y-4150000D01*
X4545000Y-6782500D02*
X4545000Y-6817500D01*
X4527500Y-6800000D02*
X4562500Y-6800000D01*
X4705000Y-4442500D02*
X4705000Y-4477500D01*
X4687500Y-4460000D02*
X4722500Y-4460000D01*
X4705000Y-5182500D02*
X4705000Y-5217500D01*
X4687500Y-5200000D02*
X4722500Y-5200000D01*
X5205000Y-4442500D02*
X5205000Y-4477500D01*
X5187500Y-4460000D02*
X5222500Y-4460000D01*
X5205000Y-5182500D02*
X5205000Y-5217500D01*
X5187500Y-5200000D02*
X5222500Y-5200000D01*
X5245000Y-2587500D02*
X5245000Y-2622500D01*
X5227500Y-2605000D02*
X5262500Y-2605000D01*
X5245000Y-6662500D02*
X5245000Y-6697500D01*
X5227500Y-6680000D02*
X5262500Y-6680000D01*
X5705000Y-4442500D02*
X5705000Y-4477500D01*
X5687500Y-4460000D02*
X5722500Y-4460000D01*
X5705000Y-5182500D02*
X5705000Y-5217500D01*
X5687500Y-5200000D02*
X5722500Y-5200000D01*
X5855000Y-2714500D02*
X5855000Y-2749500D01*
X5837500Y-2732000D02*
X5872500Y-2732000D01*
X5855000Y-6542500D02*
X5855000Y-6577500D01*
X5837500Y-6560000D02*
X5872500Y-6560000D01*
X6045000Y-4492500D02*
X6045000Y-4527500D01*
X6027500Y-4510000D02*
X6062500Y-4510000D01*
X6045000Y-7262500D02*
X6045000Y-7297500D01*
X6027500Y-7280000D02*
X6062500Y-7280000D01*
X6205000Y-4442500D02*
X6205000Y-4477500D01*
X6187500Y-4460000D02*
X6222500Y-4460000D01*
X6205000Y-5182500D02*
X6205000Y-5217500D01*
X6187500Y-5200000D02*
X6222500Y-5200000D01*
X6245000Y-2841500D02*
X6245000Y-2876500D01*
X6227500Y-2859000D02*
X6262500Y-2859000D01*
X6245000Y-6422500D02*
X6245000Y-6457500D01*
X6227500Y-6440000D02*
X6262500Y-6440000D01*
X6555000Y-2968500D02*
X6555000Y-3003500D01*
X6537500Y-2986000D02*
X6572500Y-2986000D01*
X6555000Y-6302500D02*
X6555000Y-6337500D01*
X6537500Y-6320000D02*
X6572500Y-6320000D01*
X6705000Y-4442500D02*
X6705000Y-4477500D01*
X6687500Y-4460000D02*
X6722500Y-4460000D01*
X6705000Y-5182500D02*
X6705000Y-5217500D01*
X6687500Y-5200000D02*
X6722500Y-5200000D01*
X6745000Y-3095500D02*
X6745000Y-3130500D01*
X6727500Y-3113000D02*
X6762500Y-3113000D01*
X6745000Y-6182500D02*
X6745000Y-6217500D01*
X6727500Y-6200000D02*
X6762500Y-6200000D01*
X6855000Y-3982500D02*
X6855000Y-4017500D01*
X6837500Y-4000000D02*
X6872500Y-4000000D01*
X6925000Y-2587500D02*
X6925000Y-2622500D01*
X6907500Y-2605000D02*
X6942500Y-2605000D01*
X6925000Y-2714500D02*
X6925000Y-2749500D01*
X6907500Y-2732000D02*
X6942500Y-2732000D01*
X6925000Y-2841500D02*
X6925000Y-2876500D01*
X6907500Y-2859000D02*
X6942500Y-2859000D01*
X6925000Y-2968500D02*
X6925000Y-3003500D01*
X6907500Y-2986000D02*
X6942500Y-2986000D01*
X6925000Y-3095500D02*
X6925000Y-3130500D01*
X6907500Y-3113000D02*
X6942500Y-3113000D01*
X6925000Y-4492500D02*
X6925000Y-4527500D01*
X6907500Y-4510000D02*
X6942500Y-4510000D01*
X7045000Y-4382500D02*
X7045000Y-4417500D01*
X7027500Y-4400000D02*
X7062500Y-4400000D01*
X7205000Y-4442500D02*
X7205000Y-4477500D01*
X7187500Y-4460000D02*
X7222500Y-4460000D01*
X7205000Y-5182500D02*
X7205000Y-5217500D01*
X7187500Y-5200000D02*
X7222500Y-5200000D01*
X7250000Y-7335500D02*
X7250000Y-7370500D01*
X7232500Y-7353000D02*
X7267500Y-7353000D01*
X7301500Y-2778000D02*
X7301500Y-2813000D01*
X7284000Y-2795500D02*
X7319000Y-2795500D01*
X7305000Y-6532500D02*
X7305000Y-6567500D01*
X7287500Y-6550000D02*
X7322500Y-6550000D01*
X7325000Y-4132500D02*
X7325000Y-4167500D01*
X7307500Y-4150000D02*
X7342500Y-4150000D01*
X7355500Y-4252500D02*
X7355500Y-4287500D01*
X7338000Y-4270000D02*
X7373000Y-4270000D01*
X7482500Y-4372500D02*
X7482500Y-4407500D01*
X7465000Y-4390000D02*
X7500000Y-4390000D01*
X7680000Y-6608000D02*
X7680000Y-6643000D01*
X7662500Y-6625500D02*
X7697500Y-6625500D01*
X7700000Y-5732500D02*
X7700000Y-5767500D01*
X7682500Y-5750000D02*
X7717500Y-5750000D01*
X7705000Y-4442500D02*
X7705000Y-4477500D01*
X7687500Y-4460000D02*
X7722500Y-4460000D01*
X7705000Y-5182500D02*
X7705000Y-5217500D01*
X7687500Y-5200000D02*
X7722500Y-5200000D01*
X7809500Y-3540000D02*
X7809500Y-3575000D01*
X7792000Y-3557500D02*
X7827000Y-3557500D01*
X7825000Y-7182500D02*
X7825000Y-7217500D01*
X7807500Y-7200000D02*
X7842500Y-7200000D01*
X7936500Y-3286000D02*
X7936500Y-3321000D01*
X7919000Y-3303500D02*
X7954000Y-3303500D01*
X7975000Y-6383000D02*
X7975000Y-6418000D01*
X7957500Y-6400500D02*
X7992500Y-6400500D01*
X8050000Y-4596000D02*
X8050000Y-4631000D01*
X8032500Y-4613500D02*
X8067500Y-4613500D01*
X8060000Y-6508000D02*
X8060000Y-6543000D01*
X8042500Y-6525500D02*
X8077500Y-6525500D01*
X8063500Y-3413000D02*
X8063500Y-3448000D01*
X8046000Y-3430500D02*
X8081000Y-3430500D01*
X8150000Y-3278500D02*
X8150000Y-3313500D01*
X8132500Y-3296000D02*
X8167500Y-3296000D01*
X8190500Y-1932500D02*
X8190500Y-1967500D01*
X8173000Y-1950000D02*
X8208000Y-1950000D01*
X8200000Y-6082500D02*
X8200000Y-6117500D01*
X8182500Y-6100000D02*
X8217500Y-6100000D01*
X8205000Y-4442500D02*
X8205000Y-4477500D01*
X8187500Y-4460000D02*
X8222500Y-4460000D01*
X8205000Y-5182500D02*
X8205000Y-5217500D01*
X8187500Y-5200000D02*
X8222500Y-5200000D01*
X8317500Y-2032500D02*
X8317500Y-2067500D01*
X8300000Y-2050000D02*
X8335000Y-2050000D01*
X8444500Y-3159000D02*
X8444500Y-3194000D01*
X8427000Y-3176500D02*
X8462000Y-3176500D01*
X8505000Y-6582500D02*
X8505000Y-6617500D01*
X8487500Y-6600000D02*
X8522500Y-6600000D01*
X8571500Y-3667000D02*
X8571500Y-3702000D01*
X8554000Y-3684500D02*
X8589000Y-3684500D01*
X8695000Y-7182500D02*
X8695000Y-7217500D01*
X8677500Y-7200000D02*
X8712500Y-7200000D01*
X8698500Y-3794000D02*
X8698500Y-3829000D01*
X8681000Y-3811500D02*
X8716000Y-3811500D01*
X8705000Y-4442500D02*
X8705000Y-4477500D01*
X8687500Y-4460000D02*
X8722500Y-4460000D01*
X8705000Y-5182500D02*
X8705000Y-5217500D01*
X8687500Y-5200000D02*
X8722500Y-5200000D01*
X8770000Y-1782500D02*
X8770000Y-1817500D01*
X8752500Y-1800000D02*
X8787500Y-1800000D01*
X8875000Y-2083500D02*
X8875000Y-2118500D01*
X8857500Y-2101000D02*
X8892500Y-2101000D01*
X9025000Y-6508000D02*
X9025000Y-6543000D01*
X9007500Y-6525500D02*
X9042500Y-6525500D01*
X9045000Y-3730500D02*
X9045000Y-3765500D01*
X9027500Y-3748000D02*
X9062500Y-3748000D01*
X9075000Y-2587500D02*
X9075000Y-2622500D01*
X9057500Y-2605000D02*
X9092500Y-2605000D01*
X9075000Y-2714500D02*
X9075000Y-2749500D01*
X9057500Y-2732000D02*
X9092500Y-2732000D01*
X9075000Y-2841500D02*
X9075000Y-2876500D01*
X9057500Y-2859000D02*
X9092500Y-2859000D01*
X9075000Y-2968500D02*
X9075000Y-3003500D01*
X9057500Y-2986000D02*
X9092500Y-2986000D01*
X9075000Y-3476500D02*
X9075000Y-3511500D01*
X9057500Y-3494000D02*
X9092500Y-3494000D01*
X9075000Y-3603500D02*
X9075000Y-3638500D01*
X9057500Y-3621000D02*
X9092500Y-3621000D01*
X9105000Y-3982500D02*
X9105000Y-4017500D01*
X9087500Y-4000000D02*
X9122500Y-4000000D01*
X9175000Y-6383000D02*
X9175000Y-6418000D01*
X9157500Y-6400500D02*
X9192500Y-6400500D01*
X9205000Y-4442500D02*
X9205000Y-4477500D01*
X9187500Y-4460000D02*
X9222500Y-4460000D01*
X9205000Y-5182500D02*
X9205000Y-5217500D01*
X9187500Y-5200000D02*
X9222500Y-5200000D01*
X9295000Y-4042500D02*
X9295000Y-4077500D01*
X9277500Y-4060000D02*
X9312500Y-4060000D01*
X9350000Y-3730500D02*
X9350000Y-3765500D01*
X9332500Y-3748000D02*
X9367500Y-3748000D01*
X9350000Y-6482500D02*
X9350000Y-6517500D01*
X9332500Y-6500000D02*
X9367500Y-6500000D01*
X9705000Y-4442500D02*
X9705000Y-4477500D01*
X9687500Y-4460000D02*
X9722500Y-4460000D01*
X9705000Y-5182500D02*
X9705000Y-5217500D01*
X9687500Y-5200000D02*
X9722500Y-5200000D01*
X10045000Y-3476500D02*
X10045000Y-3511500D01*
X10027500Y-3494000D02*
X10062500Y-3494000D01*
X10045000Y-7142500D02*
X10045000Y-7177500D01*
X10027500Y-7160000D02*
X10062500Y-7160000D01*
X10205000Y-4442500D02*
X10205000Y-4477500D01*
X10187500Y-4460000D02*
X10222500Y-4460000D01*
X10205000Y-5182500D02*
X10205000Y-5217500D01*
X10187500Y-5200000D02*
X10222500Y-5200000D01*
X10550000Y-4596000D02*
X10550000Y-4631000D01*
X10532500Y-4613500D02*
X10567500Y-4613500D01*
X10750000Y-3892000D02*
X10750000Y-3927000D01*
X10732500Y-3909500D02*
X10767500Y-3909500D01*
X10850000Y-6032500D02*
X10850000Y-6067500D01*
X10832500Y-6050000D02*
X10867500Y-6050000D01*
X10905000Y-3682500D02*
X10905000Y-3717500D01*
X10887500Y-3700000D02*
X10922500Y-3700000D01*
X11095000Y-3282500D02*
X11095000Y-3317500D01*
X11077500Y-3300000D02*
X11112500Y-3300000D01*
X11100000Y-3992000D02*
X11100000Y-4027000D01*
X11082500Y-4009500D02*
X11117500Y-4009500D01*
X11150000Y-5632500D02*
X11150000Y-5667500D01*
X11132500Y-5650000D02*
X11167500Y-5650000D01*
X11240000Y-4532500D02*
X11240000Y-4567500D01*
X11222500Y-4550000D02*
X11257500Y-4550000D01*
X11240000Y-4932500D02*
X11240000Y-4967500D01*
X11222500Y-4950000D02*
X11257500Y-4950000D01*
X11595000Y-5432500D02*
X11595000Y-5467500D01*
X11577500Y-5450000D02*
X11612500Y-5450000D01*
X11705000Y-5732500D02*
X11705000Y-5767500D01*
X11687500Y-5750000D02*
X11722500Y-5750000D01*
X11895000Y-5232500D02*
X11895000Y-5267500D01*
X11877500Y-5250000D02*
X11912500Y-5250000D01*
X12105000Y-4582500D02*
X12105000Y-4617500D01*
X12087500Y-4600000D02*
X12122500Y-4600000D01*
X12270000Y-5647500D02*
X12270000Y-5682500D01*
X12252500Y-5665000D02*
X12287500Y-5665000D01*
X12295000Y-4582500D02*
X12295000Y-4617500D01*
X12277500Y-4600000D02*
X12312500Y-4600000D01*
X12350000Y-6432500D02*
X12350000Y-6467500D01*
X12332500Y-6450000D02*
X12367500Y-6450000D01*
X12500000Y-4917500D02*
X12500000Y-4952500D01*
X12482500Y-4935000D02*
X12517500Y-4935000D01*
X12730000Y-6047500D02*
X12730000Y-6082500D01*
X12712500Y-6065000D02*
X12747500Y-6065000D01*
X12946000Y-3047500D02*
X12946000Y-3082500D01*
X12928500Y-3065000D02*
X12963500Y-3065000D01*
X12946000Y-7022500D02*
X12946000Y-7057500D01*
X12928500Y-7040000D02*
X12963500Y-7040000D01*
X12988000Y-4047500D02*
X12988000Y-4082500D01*
X12970500Y-4065000D02*
X13005500Y-4065000D01*
X12988000Y-6902500D02*
X12988000Y-6937500D01*
X12970500Y-6920000D02*
X13005500Y-6920000D01*
X13030000Y-2047500D02*
X13030000Y-2082500D01*
X13012500Y-2065000D02*
X13047500Y-2065000D01*
X13030000Y-6662500D02*
X13030000Y-6697500D01*
X13012500Y-6680000D02*
X13047500Y-6680000D01*
X13886000Y-7182500D02*
X13886000Y-7217500D01*
X13868500Y-7200000D02*
X13903500Y-7200000D01*
X13996000Y-6582500D02*
X13996000Y-6617500D01*
X13978500Y-6600000D02*
X14013500Y-6600000D01*
X14120000Y-6582500D02*
X14120000Y-6617500D01*
X14102500Y-6600000D02*
X14137500Y-6600000D01*
X14216000Y-6982500D02*
X14216000Y-7017500D01*
X14198500Y-7000000D02*
X14233500Y-7000000D01*
X14280000Y-3047500D02*
X14280000Y-3082500D01*
X14262500Y-3065000D02*
X14297500Y-3065000D01*
X14280000Y-6782500D02*
X14280000Y-6817500D01*
X14262500Y-6800000D02*
X14297500Y-6800000D01*
X14436000Y-6732500D02*
X14436000Y-6767500D01*
X14418500Y-6750000D02*
X14453500Y-6750000D01*
X14465000Y-832500D02*
X14465000Y-867500D01*
X14447500Y-850000D02*
X14482500Y-850000D01*
X14600000Y-6732500D02*
X14600000Y-6767500D01*
X14582500Y-6750000D02*
X14617500Y-6750000D01*
X14685000Y-6482500D02*
X14685000Y-6517500D01*
X14667500Y-6500000D02*
X14702500Y-6500000D01*
X14800000Y-7182500D02*
X14800000Y-7217500D01*
X14782500Y-7200000D02*
X14817500Y-7200000D01*
X15250000Y-6982500D02*
X15250000Y-7017500D01*
X15232500Y-7000000D02*
X15267500Y-7000000D01*
X7596284Y-6917784D02*
X7596284Y-6861215D01*
X7539715Y-6861215D01*
X7539715Y-6917784D01*
X7596284Y-6917784D01*
X7596284Y-7335784D02*
X7596284Y-7279215D01*
X7539715Y-7279215D01*
X7539715Y-7335784D01*
X7596284Y-7335784D01*
X8460285Y-6917784D02*
X8460285Y-6861215D01*
X8403716Y-6861215D01*
X8403716Y-6917784D01*
X8460285Y-6917784D01*
X8460285Y-7335784D02*
X8460285Y-7279215D01*
X8403716Y-7279215D01*
X8403716Y-7335784D01*
X8460285Y-7335784D01*
X7900000Y-5792500D02*
X7942500Y-5750000D01*
X7900000Y-5707500D01*
X7857500Y-5750000D01*
X7900000Y-5792500D01*
X8100000Y-5792500D02*
X8142500Y-5750000D01*
X8100000Y-5707500D01*
X8057500Y-5750000D01*
X8100000Y-5792500D01*
D13*
X875000Y-575000D02*
X1125000Y-825000D01*
X1125000Y-575000D02*
X875000Y-825000D01*
X1125000Y-700000D02*
G75*
G02*
X875000Y-700000I-125000J0D01*
G01*
X875000Y-700000D02*
G75*
G02*
X1125000Y-700000I125000J0D01*
G01*
X875000Y-6675000D02*
X1125000Y-6925000D01*
X1125000Y-6675000D02*
X875000Y-6925000D01*
X1125000Y-6800000D02*
G75*
G02*
X875000Y-6800000I-125000J0D01*
G01*
X875000Y-6800000D02*
G75*
G02*
X1125000Y-6800000I125000J0D01*
G01*
X5375000Y-3625000D02*
X5625000Y-3875000D01*
X5625000Y-3625000D02*
X5375000Y-3875000D01*
X5625000Y-3750000D02*
G75*
G02*
X5375000Y-3750000I-125000J0D01*
G01*
X5375000Y-3750000D02*
G75*
G02*
X5625000Y-3750000I125000J0D01*
G01*
X10375000Y-3625000D02*
X10625000Y-3875000D01*
X10625000Y-3625000D02*
X10375000Y-3875000D01*
X10625000Y-3750000D02*
G75*
G02*
X10375000Y-3750000I-125000J0D01*
G01*
X10375000Y-3750000D02*
G75*
G02*
X10625000Y-3750000I125000J0D01*
G01*
X14875000Y-575000D02*
X15125000Y-825000D01*
X15125000Y-575000D02*
X14875000Y-825000D01*
X15125000Y-700000D02*
G75*
G02*
X14875000Y-700000I-125000J0D01*
G01*
X14875000Y-700000D02*
G75*
G02*
X15125000Y-700000I125000J0D01*
G01*
X14875000Y-6675000D02*
X15125000Y-6925000D01*
X15125000Y-6675000D02*
X14875000Y-6925000D01*
X15125000Y-6800000D02*
G75*
G02*
X14875000Y-6800000I-125000J0D01*
G01*
X14875000Y-6800000D02*
G75*
G02*
X15125000Y-6800000I125000J0D01*
G01*
D11*
X258277Y-7813984D02*
X258277Y-7613984D01*
X258277Y-7613984D02*
X305896Y-7613984D01*
X305896Y-7613984D02*
X334467Y-7623508D01*
X334467Y-7623508D02*
X353515Y-7642555D01*
X353515Y-7642555D02*
X363039Y-7661603D01*
X363039Y-7661603D02*
X372562Y-7699698D01*
X372562Y-7699698D02*
X372562Y-7728269D01*
X372562Y-7728269D02*
X363039Y-7766365D01*
X363039Y-7766365D02*
X353515Y-7785412D01*
X353515Y-7785412D02*
X334467Y-7804460D01*
X334467Y-7804460D02*
X305896Y-7813984D01*
X305896Y-7813984D02*
X258277Y-7813984D01*
X458277Y-7813984D02*
X458277Y-7680650D01*
X458277Y-7718746D02*
X467801Y-7699698D01*
X467801Y-7699698D02*
X477324Y-7690174D01*
X477324Y-7690174D02*
X496372Y-7680650D01*
X496372Y-7680650D02*
X515420Y-7680650D01*
X582086Y-7813984D02*
X582086Y-7680650D01*
X582086Y-7613984D02*
X572563Y-7623508D01*
X572563Y-7623508D02*
X582086Y-7633031D01*
X582086Y-7633031D02*
X591610Y-7623508D01*
X591610Y-7623508D02*
X582086Y-7613984D01*
X582086Y-7613984D02*
X582086Y-7633031D01*
X705896Y-7813984D02*
X686848Y-7804460D01*
X686848Y-7804460D02*
X677324Y-7785412D01*
X677324Y-7785412D02*
X677324Y-7613984D01*
X810658Y-7813984D02*
X791610Y-7804460D01*
X791610Y-7804460D02*
X782086Y-7785412D01*
X782086Y-7785412D02*
X782086Y-7613984D01*
X1039229Y-7813984D02*
X1039229Y-7613984D01*
X1039229Y-7613984D02*
X1105896Y-7756841D01*
X1105896Y-7756841D02*
X1172563Y-7613984D01*
X1172563Y-7613984D02*
X1172563Y-7813984D01*
X1353515Y-7813984D02*
X1353515Y-7709222D01*
X1353515Y-7709222D02*
X1343991Y-7690174D01*
X1343991Y-7690174D02*
X1324944Y-7680650D01*
X1324944Y-7680650D02*
X1286848Y-7680650D01*
X1286848Y-7680650D02*
X1267801Y-7690174D01*
X1353515Y-7804460D02*
X1334467Y-7813984D01*
X1334467Y-7813984D02*
X1286848Y-7813984D01*
X1286848Y-7813984D02*
X1267801Y-7804460D01*
X1267801Y-7804460D02*
X1258277Y-7785412D01*
X1258277Y-7785412D02*
X1258277Y-7766365D01*
X1258277Y-7766365D02*
X1267801Y-7747317D01*
X1267801Y-7747317D02*
X1286848Y-7737793D01*
X1286848Y-7737793D02*
X1334467Y-7737793D01*
X1334467Y-7737793D02*
X1353515Y-7728269D01*
X1448753Y-7680650D02*
X1448753Y-7880650D01*
X1448753Y-7690174D02*
X1467801Y-7680650D01*
X1467801Y-7680650D02*
X1505896Y-7680650D01*
X1505896Y-7680650D02*
X1524943Y-7690174D01*
X1524943Y-7690174D02*
X1534467Y-7699698D01*
X1534467Y-7699698D02*
X1543991Y-7718746D01*
X1543991Y-7718746D02*
X1543991Y-7775888D01*
X1543991Y-7775888D02*
X1534467Y-7794936D01*
X1534467Y-7794936D02*
X1524943Y-7804460D01*
X1524943Y-7804460D02*
X1505896Y-7813984D01*
X1505896Y-7813984D02*
X1467801Y-7813984D01*
X1467801Y-7813984D02*
X1448753Y-7804460D01*
X1629705Y-7794936D02*
X1639229Y-7804460D01*
X1639229Y-7804460D02*
X1629705Y-7813984D01*
X1629705Y-7813984D02*
X1620182Y-7804460D01*
X1620182Y-7804460D02*
X1629705Y-7794936D01*
X1629705Y-7794936D02*
X1629705Y-7813984D01*
X1629705Y-7690174D02*
X1639229Y-7699698D01*
X1639229Y-7699698D02*
X1629705Y-7709222D01*
X1629705Y-7709222D02*
X1620182Y-7699698D01*
X1620182Y-7699698D02*
X1629705Y-7690174D01*
X1629705Y-7690174D02*
X1629705Y-7709222D01*
D12*
X-22500Y-8132500D02*
X-2500Y-8152500D01*
X-2500Y-8132500D02*
X-22500Y-8152500D01*
D11*
X296372Y-8033984D02*
X315420Y-8033984D01*
X315420Y-8033984D02*
X334467Y-8043508D01*
X334467Y-8043508D02*
X343991Y-8053031D01*
X343991Y-8053031D02*
X353515Y-8072079D01*
X353515Y-8072079D02*
X363039Y-8110174D01*
X363039Y-8110174D02*
X363039Y-8157793D01*
X363039Y-8157793D02*
X353515Y-8195888D01*
X353515Y-8195888D02*
X343991Y-8214936D01*
X343991Y-8214936D02*
X334467Y-8224460D01*
X334467Y-8224460D02*
X315420Y-8233984D01*
X315420Y-8233984D02*
X296372Y-8233984D01*
X296372Y-8233984D02*
X277324Y-8224460D01*
X277324Y-8224460D02*
X267801Y-8214936D01*
X267801Y-8214936D02*
X258277Y-8195888D01*
X258277Y-8195888D02*
X248753Y-8157793D01*
X248753Y-8157793D02*
X248753Y-8110174D01*
X248753Y-8110174D02*
X258277Y-8072079D01*
X258277Y-8072079D02*
X267801Y-8053031D01*
X267801Y-8053031D02*
X277324Y-8043508D01*
X277324Y-8043508D02*
X296372Y-8033984D01*
X448753Y-8214936D02*
X458277Y-8224460D01*
X458277Y-8224460D02*
X448753Y-8233984D01*
X448753Y-8233984D02*
X439229Y-8224460D01*
X439229Y-8224460D02*
X448753Y-8214936D01*
X448753Y-8214936D02*
X448753Y-8233984D01*
X534467Y-8053031D02*
X543991Y-8043508D01*
X543991Y-8043508D02*
X563039Y-8033984D01*
X563039Y-8033984D02*
X610658Y-8033984D01*
X610658Y-8033984D02*
X629705Y-8043508D01*
X629705Y-8043508D02*
X639229Y-8053031D01*
X639229Y-8053031D02*
X648753Y-8072079D01*
X648753Y-8072079D02*
X648753Y-8091127D01*
X648753Y-8091127D02*
X639229Y-8119698D01*
X639229Y-8119698D02*
X524944Y-8233984D01*
X524944Y-8233984D02*
X648753Y-8233984D01*
X772562Y-8033984D02*
X791610Y-8033984D01*
X791610Y-8033984D02*
X810658Y-8043508D01*
X810658Y-8043508D02*
X820182Y-8053031D01*
X820182Y-8053031D02*
X829705Y-8072079D01*
X829705Y-8072079D02*
X839229Y-8110174D01*
X839229Y-8110174D02*
X839229Y-8157793D01*
X839229Y-8157793D02*
X829705Y-8195888D01*
X829705Y-8195888D02*
X820182Y-8214936D01*
X820182Y-8214936D02*
X810658Y-8224460D01*
X810658Y-8224460D02*
X791610Y-8233984D01*
X791610Y-8233984D02*
X772562Y-8233984D01*
X772562Y-8233984D02*
X753515Y-8224460D01*
X753515Y-8224460D02*
X743991Y-8214936D01*
X743991Y-8214936D02*
X734467Y-8195888D01*
X734467Y-8195888D02*
X724943Y-8157793D01*
X724943Y-8157793D02*
X724943Y-8110174D01*
X724943Y-8110174D02*
X734467Y-8072079D01*
X734467Y-8072079D02*
X743991Y-8053031D01*
X743991Y-8053031D02*
X753515Y-8043508D01*
X753515Y-8043508D02*
X772562Y-8033984D01*
X963039Y-8033984D02*
X982086Y-8033984D01*
X982086Y-8033984D02*
X1001134Y-8043508D01*
X1001134Y-8043508D02*
X1010658Y-8053031D01*
X1010658Y-8053031D02*
X1020182Y-8072079D01*
X1020182Y-8072079D02*
X1029705Y-8110174D01*
X1029705Y-8110174D02*
X1029705Y-8157793D01*
X1029705Y-8157793D02*
X1020182Y-8195888D01*
X1020182Y-8195888D02*
X1010658Y-8214936D01*
X1010658Y-8214936D02*
X1001134Y-8224460D01*
X1001134Y-8224460D02*
X982086Y-8233984D01*
X982086Y-8233984D02*
X963039Y-8233984D01*
X963039Y-8233984D02*
X943991Y-8224460D01*
X943991Y-8224460D02*
X934467Y-8214936D01*
X934467Y-8214936D02*
X924943Y-8195888D01*
X924943Y-8195888D02*
X915420Y-8157793D01*
X915420Y-8157793D02*
X915420Y-8110174D01*
X915420Y-8110174D02*
X924943Y-8072079D01*
X924943Y-8072079D02*
X934467Y-8053031D01*
X934467Y-8053031D02*
X943991Y-8043508D01*
X943991Y-8043508D02*
X963039Y-8033984D01*
X1115420Y-8233984D02*
X1115420Y-8100650D01*
X1115420Y-8119698D02*
X1124944Y-8110174D01*
X1124944Y-8110174D02*
X1143991Y-8100650D01*
X1143991Y-8100650D02*
X1172563Y-8100650D01*
X1172563Y-8100650D02*
X1191610Y-8110174D01*
X1191610Y-8110174D02*
X1201134Y-8129222D01*
X1201134Y-8129222D02*
X1201134Y-8233984D01*
X1201134Y-8129222D02*
X1210658Y-8110174D01*
X1210658Y-8110174D02*
X1229705Y-8100650D01*
X1229705Y-8100650D02*
X1258277Y-8100650D01*
X1258277Y-8100650D02*
X1277325Y-8110174D01*
X1277325Y-8110174D02*
X1286848Y-8129222D01*
X1286848Y-8129222D02*
X1286848Y-8233984D01*
X1382086Y-8233984D02*
X1382086Y-8100650D01*
X1382086Y-8119698D02*
X1391610Y-8110174D01*
X1391610Y-8110174D02*
X1410658Y-8100650D01*
X1410658Y-8100650D02*
X1439229Y-8100650D01*
X1439229Y-8100650D02*
X1458277Y-8110174D01*
X1458277Y-8110174D02*
X1467801Y-8129222D01*
X1467801Y-8129222D02*
X1467801Y-8233984D01*
X1467801Y-8129222D02*
X1477324Y-8110174D01*
X1477324Y-8110174D02*
X1496372Y-8100650D01*
X1496372Y-8100650D02*
X1524943Y-8100650D01*
X1524943Y-8100650D02*
X1543991Y-8110174D01*
X1543991Y-8110174D02*
X1553515Y-8129222D01*
X1553515Y-8129222D02*
X1553515Y-8233984D01*
X1943991Y-8024460D02*
X1772563Y-8281603D01*
X2201134Y-8033984D02*
X2220182Y-8033984D01*
X2220182Y-8033984D02*
X2239229Y-8043508D01*
X2239229Y-8043508D02*
X2248753Y-8053031D01*
X2248753Y-8053031D02*
X2258277Y-8072079D01*
X2258277Y-8072079D02*
X2267801Y-8110174D01*
X2267801Y-8110174D02*
X2267801Y-8157793D01*
X2267801Y-8157793D02*
X2258277Y-8195888D01*
X2258277Y-8195888D02*
X2248753Y-8214936D01*
X2248753Y-8214936D02*
X2239229Y-8224460D01*
X2239229Y-8224460D02*
X2220182Y-8233984D01*
X2220182Y-8233984D02*
X2201134Y-8233984D01*
X2201134Y-8233984D02*
X2182087Y-8224460D01*
X2182087Y-8224460D02*
X2172563Y-8214936D01*
X2172563Y-8214936D02*
X2163039Y-8195888D01*
X2163039Y-8195888D02*
X2153515Y-8157793D01*
X2153515Y-8157793D02*
X2153515Y-8110174D01*
X2153515Y-8110174D02*
X2163039Y-8072079D01*
X2163039Y-8072079D02*
X2172563Y-8053031D01*
X2172563Y-8053031D02*
X2182087Y-8043508D01*
X2182087Y-8043508D02*
X2201134Y-8033984D01*
X2353515Y-8214936D02*
X2363039Y-8224460D01*
X2363039Y-8224460D02*
X2353515Y-8233984D01*
X2353515Y-8233984D02*
X2343991Y-8224460D01*
X2343991Y-8224460D02*
X2353515Y-8214936D01*
X2353515Y-8214936D02*
X2353515Y-8233984D01*
X2486848Y-8033984D02*
X2505896Y-8033984D01*
X2505896Y-8033984D02*
X2524944Y-8043508D01*
X2524944Y-8043508D02*
X2534468Y-8053031D01*
X2534468Y-8053031D02*
X2543991Y-8072079D01*
X2543991Y-8072079D02*
X2553515Y-8110174D01*
X2553515Y-8110174D02*
X2553515Y-8157793D01*
X2553515Y-8157793D02*
X2543991Y-8195888D01*
X2543991Y-8195888D02*
X2534468Y-8214936D01*
X2534468Y-8214936D02*
X2524944Y-8224460D01*
X2524944Y-8224460D02*
X2505896Y-8233984D01*
X2505896Y-8233984D02*
X2486848Y-8233984D01*
X2486848Y-8233984D02*
X2467801Y-8224460D01*
X2467801Y-8224460D02*
X2458277Y-8214936D01*
X2458277Y-8214936D02*
X2448753Y-8195888D01*
X2448753Y-8195888D02*
X2439229Y-8157793D01*
X2439229Y-8157793D02*
X2439229Y-8110174D01*
X2439229Y-8110174D02*
X2448753Y-8072079D01*
X2448753Y-8072079D02*
X2458277Y-8053031D01*
X2458277Y-8053031D02*
X2467801Y-8043508D01*
X2467801Y-8043508D02*
X2486848Y-8033984D01*
X2677325Y-8033984D02*
X2696372Y-8033984D01*
X2696372Y-8033984D02*
X2715420Y-8043508D01*
X2715420Y-8043508D02*
X2724944Y-8053031D01*
X2724944Y-8053031D02*
X2734468Y-8072079D01*
X2734468Y-8072079D02*
X2743991Y-8110174D01*
X2743991Y-8110174D02*
X2743991Y-8157793D01*
X2743991Y-8157793D02*
X2734468Y-8195888D01*
X2734468Y-8195888D02*
X2724944Y-8214936D01*
X2724944Y-8214936D02*
X2715420Y-8224460D01*
X2715420Y-8224460D02*
X2696372Y-8233984D01*
X2696372Y-8233984D02*
X2677325Y-8233984D01*
X2677325Y-8233984D02*
X2658277Y-8224460D01*
X2658277Y-8224460D02*
X2648753Y-8214936D01*
X2648753Y-8214936D02*
X2639229Y-8195888D01*
X2639229Y-8195888D02*
X2629706Y-8157793D01*
X2629706Y-8157793D02*
X2629706Y-8110174D01*
X2629706Y-8110174D02*
X2639229Y-8072079D01*
X2639229Y-8072079D02*
X2648753Y-8053031D01*
X2648753Y-8053031D02*
X2658277Y-8043508D01*
X2658277Y-8043508D02*
X2677325Y-8033984D01*
X2810658Y-8033984D02*
X2943991Y-8033984D01*
X2943991Y-8033984D02*
X2858277Y-8233984D01*
X3029706Y-8233984D02*
X3067801Y-8233984D01*
X3067801Y-8233984D02*
X3086848Y-8224460D01*
X3086848Y-8224460D02*
X3096372Y-8214936D01*
X3096372Y-8214936D02*
X3115420Y-8186365D01*
X3115420Y-8186365D02*
X3124944Y-8148269D01*
X3124944Y-8148269D02*
X3124944Y-8072079D01*
X3124944Y-8072079D02*
X3115420Y-8053031D01*
X3115420Y-8053031D02*
X3105896Y-8043508D01*
X3105896Y-8043508D02*
X3086848Y-8033984D01*
X3086848Y-8033984D02*
X3048753Y-8033984D01*
X3048753Y-8033984D02*
X3029706Y-8043508D01*
X3029706Y-8043508D02*
X3020182Y-8053031D01*
X3020182Y-8053031D02*
X3010658Y-8072079D01*
X3010658Y-8072079D02*
X3010658Y-8119698D01*
X3010658Y-8119698D02*
X3020182Y-8138746D01*
X3020182Y-8138746D02*
X3029706Y-8148269D01*
X3029706Y-8148269D02*
X3048753Y-8157793D01*
X3048753Y-8157793D02*
X3086848Y-8157793D01*
X3086848Y-8157793D02*
X3105896Y-8148269D01*
X3105896Y-8148269D02*
X3115420Y-8138746D01*
X3115420Y-8138746D02*
X3124944Y-8119698D01*
X3201134Y-8033984D02*
X3201134Y-8072079D01*
X3277325Y-8033984D02*
X3277325Y-8072079D01*
X3572563Y-8310174D02*
X3563039Y-8300650D01*
X3563039Y-8300650D02*
X3543991Y-8272079D01*
X3543991Y-8272079D02*
X3534468Y-8253031D01*
X3534468Y-8253031D02*
X3524944Y-8224460D01*
X3524944Y-8224460D02*
X3515420Y-8176841D01*
X3515420Y-8176841D02*
X3515420Y-8138746D01*
X3515420Y-8138746D02*
X3524944Y-8091127D01*
X3524944Y-8091127D02*
X3534468Y-8062555D01*
X3534468Y-8062555D02*
X3543991Y-8043508D01*
X3543991Y-8043508D02*
X3563039Y-8014936D01*
X3563039Y-8014936D02*
X3572563Y-8005412D01*
X3629706Y-8033984D02*
X3753515Y-8033984D01*
X3753515Y-8033984D02*
X3686848Y-8110174D01*
X3686848Y-8110174D02*
X3715420Y-8110174D01*
X3715420Y-8110174D02*
X3734468Y-8119698D01*
X3734468Y-8119698D02*
X3743991Y-8129222D01*
X3743991Y-8129222D02*
X3753515Y-8148269D01*
X3753515Y-8148269D02*
X3753515Y-8195888D01*
X3753515Y-8195888D02*
X3743991Y-8214936D01*
X3743991Y-8214936D02*
X3734468Y-8224460D01*
X3734468Y-8224460D02*
X3715420Y-8233984D01*
X3715420Y-8233984D02*
X3658277Y-8233984D01*
X3658277Y-8233984D02*
X3639229Y-8224460D01*
X3639229Y-8224460D02*
X3629706Y-8214936D01*
X3991610Y-8233984D02*
X3991610Y-8033984D01*
X4077325Y-8233984D02*
X4077325Y-8129222D01*
X4077325Y-8129222D02*
X4067801Y-8110174D01*
X4067801Y-8110174D02*
X4048753Y-8100650D01*
X4048753Y-8100650D02*
X4020182Y-8100650D01*
X4020182Y-8100650D02*
X4001134Y-8110174D01*
X4001134Y-8110174D02*
X3991610Y-8119698D01*
X4201134Y-8233984D02*
X4182087Y-8224460D01*
X4182087Y-8224460D02*
X4172563Y-8214936D01*
X4172563Y-8214936D02*
X4163039Y-8195888D01*
X4163039Y-8195888D02*
X4163039Y-8138746D01*
X4163039Y-8138746D02*
X4172563Y-8119698D01*
X4172563Y-8119698D02*
X4182087Y-8110174D01*
X4182087Y-8110174D02*
X4201134Y-8100650D01*
X4201134Y-8100650D02*
X4229706Y-8100650D01*
X4229706Y-8100650D02*
X4248753Y-8110174D01*
X4248753Y-8110174D02*
X4258277Y-8119698D01*
X4258277Y-8119698D02*
X4267801Y-8138746D01*
X4267801Y-8138746D02*
X4267801Y-8195888D01*
X4267801Y-8195888D02*
X4258277Y-8214936D01*
X4258277Y-8214936D02*
X4248753Y-8224460D01*
X4248753Y-8224460D02*
X4229706Y-8233984D01*
X4229706Y-8233984D02*
X4201134Y-8233984D01*
X4382087Y-8233984D02*
X4363039Y-8224460D01*
X4363039Y-8224460D02*
X4353515Y-8205412D01*
X4353515Y-8205412D02*
X4353515Y-8033984D01*
X4534468Y-8224460D02*
X4515420Y-8233984D01*
X4515420Y-8233984D02*
X4477325Y-8233984D01*
X4477325Y-8233984D02*
X4458277Y-8224460D01*
X4458277Y-8224460D02*
X4448753Y-8205412D01*
X4448753Y-8205412D02*
X4448753Y-8129222D01*
X4448753Y-8129222D02*
X4458277Y-8110174D01*
X4458277Y-8110174D02*
X4477325Y-8100650D01*
X4477325Y-8100650D02*
X4515420Y-8100650D01*
X4515420Y-8100650D02*
X4534468Y-8110174D01*
X4534468Y-8110174D02*
X4543992Y-8129222D01*
X4543992Y-8129222D02*
X4543992Y-8148269D01*
X4543992Y-8148269D02*
X4448753Y-8167317D01*
X4620182Y-8224460D02*
X4639230Y-8233984D01*
X4639230Y-8233984D02*
X4677325Y-8233984D01*
X4677325Y-8233984D02*
X4696373Y-8224460D01*
X4696373Y-8224460D02*
X4705896Y-8205412D01*
X4705896Y-8205412D02*
X4705896Y-8195888D01*
X4705896Y-8195888D02*
X4696373Y-8176841D01*
X4696373Y-8176841D02*
X4677325Y-8167317D01*
X4677325Y-8167317D02*
X4648753Y-8167317D01*
X4648753Y-8167317D02*
X4629706Y-8157793D01*
X4629706Y-8157793D02*
X4620182Y-8138746D01*
X4620182Y-8138746D02*
X4620182Y-8129222D01*
X4620182Y-8129222D02*
X4629706Y-8110174D01*
X4629706Y-8110174D02*
X4648753Y-8100650D01*
X4648753Y-8100650D02*
X4677325Y-8100650D01*
X4677325Y-8100650D02*
X4696373Y-8110174D01*
X4772563Y-8310174D02*
X4782087Y-8300650D01*
X4782087Y-8300650D02*
X4801134Y-8272079D01*
X4801134Y-8272079D02*
X4810658Y-8253031D01*
X4810658Y-8253031D02*
X4820182Y-8224460D01*
X4820182Y-8224460D02*
X4829706Y-8176841D01*
X4829706Y-8176841D02*
X4829706Y-8138746D01*
X4829706Y-8138746D02*
X4820182Y-8091127D01*
X4820182Y-8091127D02*
X4810658Y-8062555D01*
X4810658Y-8062555D02*
X4801134Y-8043508D01*
X4801134Y-8043508D02*
X4782087Y-8014936D01*
X4782087Y-8014936D02*
X4772563Y-8005412D01*
D12*
X-2500Y-8406500D02*
G75*
G02*
X-32500Y-8406500I-15000J0D01*
G01*
X-32500Y-8406500D02*
G75*
G02*
X-2500Y-8406500I15000J0D01*
G01*
D11*
X296372Y-8297984D02*
X315420Y-8297984D01*
X315420Y-8297984D02*
X334467Y-8307508D01*
X334467Y-8307508D02*
X343991Y-8317031D01*
X343991Y-8317031D02*
X353515Y-8336079D01*
X353515Y-8336079D02*
X363039Y-8374174D01*
X363039Y-8374174D02*
X363039Y-8421793D01*
X363039Y-8421793D02*
X353515Y-8459889D01*
X353515Y-8459889D02*
X343991Y-8478936D01*
X343991Y-8478936D02*
X334467Y-8488460D01*
X334467Y-8488460D02*
X315420Y-8497984D01*
X315420Y-8497984D02*
X296372Y-8497984D01*
X296372Y-8497984D02*
X277324Y-8488460D01*
X277324Y-8488460D02*
X267801Y-8478936D01*
X267801Y-8478936D02*
X258277Y-8459889D01*
X258277Y-8459889D02*
X248753Y-8421793D01*
X248753Y-8421793D02*
X248753Y-8374174D01*
X248753Y-8374174D02*
X258277Y-8336079D01*
X258277Y-8336079D02*
X267801Y-8317031D01*
X267801Y-8317031D02*
X277324Y-8307508D01*
X277324Y-8307508D02*
X296372Y-8297984D01*
X448753Y-8478936D02*
X458277Y-8488460D01*
X458277Y-8488460D02*
X448753Y-8497984D01*
X448753Y-8497984D02*
X439229Y-8488460D01*
X439229Y-8488460D02*
X448753Y-8478936D01*
X448753Y-8478936D02*
X448753Y-8497984D01*
X524944Y-8297984D02*
X648753Y-8297984D01*
X648753Y-8297984D02*
X582086Y-8374174D01*
X582086Y-8374174D02*
X610658Y-8374174D01*
X610658Y-8374174D02*
X629705Y-8383698D01*
X629705Y-8383698D02*
X639229Y-8393222D01*
X639229Y-8393222D02*
X648753Y-8412270D01*
X648753Y-8412270D02*
X648753Y-8459889D01*
X648753Y-8459889D02*
X639229Y-8478936D01*
X639229Y-8478936D02*
X629705Y-8488460D01*
X629705Y-8488460D02*
X610658Y-8497984D01*
X610658Y-8497984D02*
X553515Y-8497984D01*
X553515Y-8497984D02*
X534467Y-8488460D01*
X534467Y-8488460D02*
X524944Y-8478936D01*
X772562Y-8297984D02*
X791610Y-8297984D01*
X791610Y-8297984D02*
X810658Y-8307508D01*
X810658Y-8307508D02*
X820182Y-8317031D01*
X820182Y-8317031D02*
X829705Y-8336079D01*
X829705Y-8336079D02*
X839229Y-8374174D01*
X839229Y-8374174D02*
X839229Y-8421793D01*
X839229Y-8421793D02*
X829705Y-8459889D01*
X829705Y-8459889D02*
X820182Y-8478936D01*
X820182Y-8478936D02*
X810658Y-8488460D01*
X810658Y-8488460D02*
X791610Y-8497984D01*
X791610Y-8497984D02*
X772562Y-8497984D01*
X772562Y-8497984D02*
X753515Y-8488460D01*
X753515Y-8488460D02*
X743991Y-8478936D01*
X743991Y-8478936D02*
X734467Y-8459889D01*
X734467Y-8459889D02*
X724943Y-8421793D01*
X724943Y-8421793D02*
X724943Y-8374174D01*
X724943Y-8374174D02*
X734467Y-8336079D01*
X734467Y-8336079D02*
X743991Y-8317031D01*
X743991Y-8317031D02*
X753515Y-8307508D01*
X753515Y-8307508D02*
X772562Y-8297984D01*
X963039Y-8297984D02*
X982086Y-8297984D01*
X982086Y-8297984D02*
X1001134Y-8307508D01*
X1001134Y-8307508D02*
X1010658Y-8317031D01*
X1010658Y-8317031D02*
X1020182Y-8336079D01*
X1020182Y-8336079D02*
X1029705Y-8374174D01*
X1029705Y-8374174D02*
X1029705Y-8421793D01*
X1029705Y-8421793D02*
X1020182Y-8459889D01*
X1020182Y-8459889D02*
X1010658Y-8478936D01*
X1010658Y-8478936D02*
X1001134Y-8488460D01*
X1001134Y-8488460D02*
X982086Y-8497984D01*
X982086Y-8497984D02*
X963039Y-8497984D01*
X963039Y-8497984D02*
X943991Y-8488460D01*
X943991Y-8488460D02*
X934467Y-8478936D01*
X934467Y-8478936D02*
X924943Y-8459889D01*
X924943Y-8459889D02*
X915420Y-8421793D01*
X915420Y-8421793D02*
X915420Y-8374174D01*
X915420Y-8374174D02*
X924943Y-8336079D01*
X924943Y-8336079D02*
X934467Y-8317031D01*
X934467Y-8317031D02*
X943991Y-8307508D01*
X943991Y-8307508D02*
X963039Y-8297984D01*
X1115420Y-8497984D02*
X1115420Y-8364650D01*
X1115420Y-8383698D02*
X1124944Y-8374174D01*
X1124944Y-8374174D02*
X1143991Y-8364650D01*
X1143991Y-8364650D02*
X1172563Y-8364650D01*
X1172563Y-8364650D02*
X1191610Y-8374174D01*
X1191610Y-8374174D02*
X1201134Y-8393222D01*
X1201134Y-8393222D02*
X1201134Y-8497984D01*
X1201134Y-8393222D02*
X1210658Y-8374174D01*
X1210658Y-8374174D02*
X1229705Y-8364650D01*
X1229705Y-8364650D02*
X1258277Y-8364650D01*
X1258277Y-8364650D02*
X1277325Y-8374174D01*
X1277325Y-8374174D02*
X1286848Y-8393222D01*
X1286848Y-8393222D02*
X1286848Y-8497984D01*
X1382086Y-8497984D02*
X1382086Y-8364650D01*
X1382086Y-8383698D02*
X1391610Y-8374174D01*
X1391610Y-8374174D02*
X1410658Y-8364650D01*
X1410658Y-8364650D02*
X1439229Y-8364650D01*
X1439229Y-8364650D02*
X1458277Y-8374174D01*
X1458277Y-8374174D02*
X1467801Y-8393222D01*
X1467801Y-8393222D02*
X1467801Y-8497984D01*
X1467801Y-8393222D02*
X1477324Y-8374174D01*
X1477324Y-8374174D02*
X1496372Y-8364650D01*
X1496372Y-8364650D02*
X1524943Y-8364650D01*
X1524943Y-8364650D02*
X1543991Y-8374174D01*
X1543991Y-8374174D02*
X1553515Y-8393222D01*
X1553515Y-8393222D02*
X1553515Y-8497984D01*
X1943991Y-8288460D02*
X1772563Y-8545603D01*
X2201134Y-8297984D02*
X2220182Y-8297984D01*
X2220182Y-8297984D02*
X2239229Y-8307508D01*
X2239229Y-8307508D02*
X2248753Y-8317031D01*
X2248753Y-8317031D02*
X2258277Y-8336079D01*
X2258277Y-8336079D02*
X2267801Y-8374174D01*
X2267801Y-8374174D02*
X2267801Y-8421793D01*
X2267801Y-8421793D02*
X2258277Y-8459889D01*
X2258277Y-8459889D02*
X2248753Y-8478936D01*
X2248753Y-8478936D02*
X2239229Y-8488460D01*
X2239229Y-8488460D02*
X2220182Y-8497984D01*
X2220182Y-8497984D02*
X2201134Y-8497984D01*
X2201134Y-8497984D02*
X2182087Y-8488460D01*
X2182087Y-8488460D02*
X2172563Y-8478936D01*
X2172563Y-8478936D02*
X2163039Y-8459889D01*
X2163039Y-8459889D02*
X2153515Y-8421793D01*
X2153515Y-8421793D02*
X2153515Y-8374174D01*
X2153515Y-8374174D02*
X2163039Y-8336079D01*
X2163039Y-8336079D02*
X2172563Y-8317031D01*
X2172563Y-8317031D02*
X2182087Y-8307508D01*
X2182087Y-8307508D02*
X2201134Y-8297984D01*
X2353515Y-8478936D02*
X2363039Y-8488460D01*
X2363039Y-8488460D02*
X2353515Y-8497984D01*
X2353515Y-8497984D02*
X2343991Y-8488460D01*
X2343991Y-8488460D02*
X2353515Y-8478936D01*
X2353515Y-8478936D02*
X2353515Y-8497984D01*
X2486848Y-8297984D02*
X2505896Y-8297984D01*
X2505896Y-8297984D02*
X2524944Y-8307508D01*
X2524944Y-8307508D02*
X2534468Y-8317031D01*
X2534468Y-8317031D02*
X2543991Y-8336079D01*
X2543991Y-8336079D02*
X2553515Y-8374174D01*
X2553515Y-8374174D02*
X2553515Y-8421793D01*
X2553515Y-8421793D02*
X2543991Y-8459889D01*
X2543991Y-8459889D02*
X2534468Y-8478936D01*
X2534468Y-8478936D02*
X2524944Y-8488460D01*
X2524944Y-8488460D02*
X2505896Y-8497984D01*
X2505896Y-8497984D02*
X2486848Y-8497984D01*
X2486848Y-8497984D02*
X2467801Y-8488460D01*
X2467801Y-8488460D02*
X2458277Y-8478936D01*
X2458277Y-8478936D02*
X2448753Y-8459889D01*
X2448753Y-8459889D02*
X2439229Y-8421793D01*
X2439229Y-8421793D02*
X2439229Y-8374174D01*
X2439229Y-8374174D02*
X2448753Y-8336079D01*
X2448753Y-8336079D02*
X2458277Y-8317031D01*
X2458277Y-8317031D02*
X2467801Y-8307508D01*
X2467801Y-8307508D02*
X2486848Y-8297984D01*
X2743991Y-8497984D02*
X2629706Y-8497984D01*
X2686848Y-8497984D02*
X2686848Y-8297984D01*
X2686848Y-8297984D02*
X2667801Y-8326555D01*
X2667801Y-8326555D02*
X2648753Y-8345603D01*
X2648753Y-8345603D02*
X2629706Y-8355127D01*
X2934467Y-8497984D02*
X2820182Y-8497984D01*
X2877325Y-8497984D02*
X2877325Y-8297984D01*
X2877325Y-8297984D02*
X2858277Y-8326555D01*
X2858277Y-8326555D02*
X2839229Y-8345603D01*
X2839229Y-8345603D02*
X2820182Y-8355127D01*
X3048753Y-8383698D02*
X3029706Y-8374174D01*
X3029706Y-8374174D02*
X3020182Y-8364650D01*
X3020182Y-8364650D02*
X3010658Y-8345603D01*
X3010658Y-8345603D02*
X3010658Y-8336079D01*
X3010658Y-8336079D02*
X3020182Y-8317031D01*
X3020182Y-8317031D02*
X3029706Y-8307508D01*
X3029706Y-8307508D02*
X3048753Y-8297984D01*
X3048753Y-8297984D02*
X3086848Y-8297984D01*
X3086848Y-8297984D02*
X3105896Y-8307508D01*
X3105896Y-8307508D02*
X3115420Y-8317031D01*
X3115420Y-8317031D02*
X3124944Y-8336079D01*
X3124944Y-8336079D02*
X3124944Y-8345603D01*
X3124944Y-8345603D02*
X3115420Y-8364650D01*
X3115420Y-8364650D02*
X3105896Y-8374174D01*
X3105896Y-8374174D02*
X3086848Y-8383698D01*
X3086848Y-8383698D02*
X3048753Y-8383698D01*
X3048753Y-8383698D02*
X3029706Y-8393222D01*
X3029706Y-8393222D02*
X3020182Y-8402746D01*
X3020182Y-8402746D02*
X3010658Y-8421793D01*
X3010658Y-8421793D02*
X3010658Y-8459889D01*
X3010658Y-8459889D02*
X3020182Y-8478936D01*
X3020182Y-8478936D02*
X3029706Y-8488460D01*
X3029706Y-8488460D02*
X3048753Y-8497984D01*
X3048753Y-8497984D02*
X3086848Y-8497984D01*
X3086848Y-8497984D02*
X3105896Y-8488460D01*
X3105896Y-8488460D02*
X3115420Y-8478936D01*
X3115420Y-8478936D02*
X3124944Y-8459889D01*
X3124944Y-8459889D02*
X3124944Y-8421793D01*
X3124944Y-8421793D02*
X3115420Y-8402746D01*
X3115420Y-8402746D02*
X3105896Y-8393222D01*
X3105896Y-8393222D02*
X3086848Y-8383698D01*
X3201134Y-8297984D02*
X3201134Y-8336079D01*
X3277325Y-8297984D02*
X3277325Y-8336079D01*
X3572563Y-8574174D02*
X3563039Y-8564650D01*
X3563039Y-8564650D02*
X3543991Y-8536079D01*
X3543991Y-8536079D02*
X3534468Y-8517031D01*
X3534468Y-8517031D02*
X3524944Y-8488460D01*
X3524944Y-8488460D02*
X3515420Y-8440841D01*
X3515420Y-8440841D02*
X3515420Y-8402746D01*
X3515420Y-8402746D02*
X3524944Y-8355127D01*
X3524944Y-8355127D02*
X3534468Y-8326555D01*
X3534468Y-8326555D02*
X3543991Y-8307508D01*
X3543991Y-8307508D02*
X3563039Y-8278936D01*
X3563039Y-8278936D02*
X3572563Y-8269412D01*
X3629706Y-8297984D02*
X3763039Y-8297984D01*
X3763039Y-8297984D02*
X3677325Y-8497984D01*
X3924944Y-8297984D02*
X3886848Y-8297984D01*
X3886848Y-8297984D02*
X3867801Y-8307508D01*
X3867801Y-8307508D02*
X3858277Y-8317031D01*
X3858277Y-8317031D02*
X3839229Y-8345603D01*
X3839229Y-8345603D02*
X3829706Y-8383698D01*
X3829706Y-8383698D02*
X3829706Y-8459889D01*
X3829706Y-8459889D02*
X3839229Y-8478936D01*
X3839229Y-8478936D02*
X3848753Y-8488460D01*
X3848753Y-8488460D02*
X3867801Y-8497984D01*
X3867801Y-8497984D02*
X3905896Y-8497984D01*
X3905896Y-8497984D02*
X3924944Y-8488460D01*
X3924944Y-8488460D02*
X3934468Y-8478936D01*
X3934468Y-8478936D02*
X3943991Y-8459889D01*
X3943991Y-8459889D02*
X3943991Y-8412270D01*
X3943991Y-8412270D02*
X3934468Y-8393222D01*
X3934468Y-8393222D02*
X3924944Y-8383698D01*
X3924944Y-8383698D02*
X3905896Y-8374174D01*
X3905896Y-8374174D02*
X3867801Y-8374174D01*
X3867801Y-8374174D02*
X3848753Y-8383698D01*
X3848753Y-8383698D02*
X3839229Y-8393222D01*
X3839229Y-8393222D02*
X3829706Y-8412270D01*
X4182087Y-8497984D02*
X4182087Y-8297984D01*
X4267801Y-8497984D02*
X4267801Y-8393222D01*
X4267801Y-8393222D02*
X4258277Y-8374174D01*
X4258277Y-8374174D02*
X4239230Y-8364650D01*
X4239230Y-8364650D02*
X4210658Y-8364650D01*
X4210658Y-8364650D02*
X4191610Y-8374174D01*
X4191610Y-8374174D02*
X4182087Y-8383698D01*
X4391611Y-8497984D02*
X4372563Y-8488460D01*
X4372563Y-8488460D02*
X4363039Y-8478936D01*
X4363039Y-8478936D02*
X4353515Y-8459889D01*
X4353515Y-8459889D02*
X4353515Y-8402746D01*
X4353515Y-8402746D02*
X4363039Y-8383698D01*
X4363039Y-8383698D02*
X4372563Y-8374174D01*
X4372563Y-8374174D02*
X4391611Y-8364650D01*
X4391611Y-8364650D02*
X4420182Y-8364650D01*
X4420182Y-8364650D02*
X4439230Y-8374174D01*
X4439230Y-8374174D02*
X4448753Y-8383698D01*
X4448753Y-8383698D02*
X4458277Y-8402746D01*
X4458277Y-8402746D02*
X4458277Y-8459889D01*
X4458277Y-8459889D02*
X4448753Y-8478936D01*
X4448753Y-8478936D02*
X4439230Y-8488460D01*
X4439230Y-8488460D02*
X4420182Y-8497984D01*
X4420182Y-8497984D02*
X4391611Y-8497984D01*
X4572563Y-8497984D02*
X4553515Y-8488460D01*
X4553515Y-8488460D02*
X4543992Y-8469412D01*
X4543992Y-8469412D02*
X4543992Y-8297984D01*
X4724944Y-8488460D02*
X4705896Y-8497984D01*
X4705896Y-8497984D02*
X4667801Y-8497984D01*
X4667801Y-8497984D02*
X4648753Y-8488460D01*
X4648753Y-8488460D02*
X4639230Y-8469412D01*
X4639230Y-8469412D02*
X4639230Y-8393222D01*
X4639230Y-8393222D02*
X4648753Y-8374174D01*
X4648753Y-8374174D02*
X4667801Y-8364650D01*
X4667801Y-8364650D02*
X4705896Y-8364650D01*
X4705896Y-8364650D02*
X4724944Y-8374174D01*
X4724944Y-8374174D02*
X4734468Y-8393222D01*
X4734468Y-8393222D02*
X4734468Y-8412270D01*
X4734468Y-8412270D02*
X4639230Y-8431317D01*
X4810658Y-8488460D02*
X4829706Y-8497984D01*
X4829706Y-8497984D02*
X4867801Y-8497984D01*
X4867801Y-8497984D02*
X4886849Y-8488460D01*
X4886849Y-8488460D02*
X4896373Y-8469412D01*
X4896373Y-8469412D02*
X4896373Y-8459889D01*
X4896373Y-8459889D02*
X4886849Y-8440841D01*
X4886849Y-8440841D02*
X4867801Y-8431317D01*
X4867801Y-8431317D02*
X4839230Y-8431317D01*
X4839230Y-8431317D02*
X4820182Y-8421793D01*
X4820182Y-8421793D02*
X4810658Y-8402746D01*
X4810658Y-8402746D02*
X4810658Y-8393222D01*
X4810658Y-8393222D02*
X4820182Y-8374174D01*
X4820182Y-8374174D02*
X4839230Y-8364650D01*
X4839230Y-8364650D02*
X4867801Y-8364650D01*
X4867801Y-8364650D02*
X4886849Y-8374174D01*
X4963039Y-8574174D02*
X4972563Y-8564650D01*
X4972563Y-8564650D02*
X4991611Y-8536079D01*
X4991611Y-8536079D02*
X5001134Y-8517031D01*
X5001134Y-8517031D02*
X5010658Y-8488460D01*
X5010658Y-8488460D02*
X5020182Y-8440841D01*
X5020182Y-8440841D02*
X5020182Y-8402746D01*
X5020182Y-8402746D02*
X5010658Y-8355127D01*
X5010658Y-8355127D02*
X5001134Y-8326555D01*
X5001134Y-8326555D02*
X4991611Y-8307508D01*
X4991611Y-8307508D02*
X4972563Y-8278936D01*
X4972563Y-8278936D02*
X4963039Y-8269412D01*
D12*
X-20000Y-8653000D02*
X-20000Y-8688000D01*
X-37500Y-8670500D02*
X-2500Y-8670500D01*
D11*
X296372Y-8561984D02*
X315420Y-8561984D01*
X315420Y-8561984D02*
X334467Y-8571508D01*
X334467Y-8571508D02*
X343991Y-8581031D01*
X343991Y-8581031D02*
X353515Y-8600079D01*
X353515Y-8600079D02*
X363039Y-8638174D01*
X363039Y-8638174D02*
X363039Y-8685793D01*
X363039Y-8685793D02*
X353515Y-8723889D01*
X353515Y-8723889D02*
X343991Y-8742936D01*
X343991Y-8742936D02*
X334467Y-8752460D01*
X334467Y-8752460D02*
X315420Y-8761984D01*
X315420Y-8761984D02*
X296372Y-8761984D01*
X296372Y-8761984D02*
X277324Y-8752460D01*
X277324Y-8752460D02*
X267801Y-8742936D01*
X267801Y-8742936D02*
X258277Y-8723889D01*
X258277Y-8723889D02*
X248753Y-8685793D01*
X248753Y-8685793D02*
X248753Y-8638174D01*
X248753Y-8638174D02*
X258277Y-8600079D01*
X258277Y-8600079D02*
X267801Y-8581031D01*
X267801Y-8581031D02*
X277324Y-8571508D01*
X277324Y-8571508D02*
X296372Y-8561984D01*
X448753Y-8742936D02*
X458277Y-8752460D01*
X458277Y-8752460D02*
X448753Y-8761984D01*
X448753Y-8761984D02*
X439229Y-8752460D01*
X439229Y-8752460D02*
X448753Y-8742936D01*
X448753Y-8742936D02*
X448753Y-8761984D01*
X524944Y-8561984D02*
X648753Y-8561984D01*
X648753Y-8561984D02*
X582086Y-8638174D01*
X582086Y-8638174D02*
X610658Y-8638174D01*
X610658Y-8638174D02*
X629705Y-8647698D01*
X629705Y-8647698D02*
X639229Y-8657222D01*
X639229Y-8657222D02*
X648753Y-8676270D01*
X648753Y-8676270D02*
X648753Y-8723889D01*
X648753Y-8723889D02*
X639229Y-8742936D01*
X639229Y-8742936D02*
X629705Y-8752460D01*
X629705Y-8752460D02*
X610658Y-8761984D01*
X610658Y-8761984D02*
X553515Y-8761984D01*
X553515Y-8761984D02*
X534467Y-8752460D01*
X534467Y-8752460D02*
X524944Y-8742936D01*
X829705Y-8561984D02*
X734467Y-8561984D01*
X734467Y-8561984D02*
X724943Y-8657222D01*
X724943Y-8657222D02*
X734467Y-8647698D01*
X734467Y-8647698D02*
X753515Y-8638174D01*
X753515Y-8638174D02*
X801134Y-8638174D01*
X801134Y-8638174D02*
X820182Y-8647698D01*
X820182Y-8647698D02*
X829705Y-8657222D01*
X829705Y-8657222D02*
X839229Y-8676270D01*
X839229Y-8676270D02*
X839229Y-8723889D01*
X839229Y-8723889D02*
X829705Y-8742936D01*
X829705Y-8742936D02*
X820182Y-8752460D01*
X820182Y-8752460D02*
X801134Y-8761984D01*
X801134Y-8761984D02*
X753515Y-8761984D01*
X753515Y-8761984D02*
X734467Y-8752460D01*
X734467Y-8752460D02*
X724943Y-8742936D01*
X963039Y-8561984D02*
X982086Y-8561984D01*
X982086Y-8561984D02*
X1001134Y-8571508D01*
X1001134Y-8571508D02*
X1010658Y-8581031D01*
X1010658Y-8581031D02*
X1020182Y-8600079D01*
X1020182Y-8600079D02*
X1029705Y-8638174D01*
X1029705Y-8638174D02*
X1029705Y-8685793D01*
X1029705Y-8685793D02*
X1020182Y-8723889D01*
X1020182Y-8723889D02*
X1010658Y-8742936D01*
X1010658Y-8742936D02*
X1001134Y-8752460D01*
X1001134Y-8752460D02*
X982086Y-8761984D01*
X982086Y-8761984D02*
X963039Y-8761984D01*
X963039Y-8761984D02*
X943991Y-8752460D01*
X943991Y-8752460D02*
X934467Y-8742936D01*
X934467Y-8742936D02*
X924943Y-8723889D01*
X924943Y-8723889D02*
X915420Y-8685793D01*
X915420Y-8685793D02*
X915420Y-8638174D01*
X915420Y-8638174D02*
X924943Y-8600079D01*
X924943Y-8600079D02*
X934467Y-8581031D01*
X934467Y-8581031D02*
X943991Y-8571508D01*
X943991Y-8571508D02*
X963039Y-8561984D01*
X1115420Y-8761984D02*
X1115420Y-8628650D01*
X1115420Y-8647698D02*
X1124944Y-8638174D01*
X1124944Y-8638174D02*
X1143991Y-8628650D01*
X1143991Y-8628650D02*
X1172563Y-8628650D01*
X1172563Y-8628650D02*
X1191610Y-8638174D01*
X1191610Y-8638174D02*
X1201134Y-8657222D01*
X1201134Y-8657222D02*
X1201134Y-8761984D01*
X1201134Y-8657222D02*
X1210658Y-8638174D01*
X1210658Y-8638174D02*
X1229705Y-8628650D01*
X1229705Y-8628650D02*
X1258277Y-8628650D01*
X1258277Y-8628650D02*
X1277325Y-8638174D01*
X1277325Y-8638174D02*
X1286848Y-8657222D01*
X1286848Y-8657222D02*
X1286848Y-8761984D01*
X1382086Y-8761984D02*
X1382086Y-8628650D01*
X1382086Y-8647698D02*
X1391610Y-8638174D01*
X1391610Y-8638174D02*
X1410658Y-8628650D01*
X1410658Y-8628650D02*
X1439229Y-8628650D01*
X1439229Y-8628650D02*
X1458277Y-8638174D01*
X1458277Y-8638174D02*
X1467801Y-8657222D01*
X1467801Y-8657222D02*
X1467801Y-8761984D01*
X1467801Y-8657222D02*
X1477324Y-8638174D01*
X1477324Y-8638174D02*
X1496372Y-8628650D01*
X1496372Y-8628650D02*
X1524943Y-8628650D01*
X1524943Y-8628650D02*
X1543991Y-8638174D01*
X1543991Y-8638174D02*
X1553515Y-8657222D01*
X1553515Y-8657222D02*
X1553515Y-8761984D01*
X1943991Y-8552460D02*
X1772563Y-8809603D01*
X2201134Y-8561984D02*
X2220182Y-8561984D01*
X2220182Y-8561984D02*
X2239229Y-8571508D01*
X2239229Y-8571508D02*
X2248753Y-8581031D01*
X2248753Y-8581031D02*
X2258277Y-8600079D01*
X2258277Y-8600079D02*
X2267801Y-8638174D01*
X2267801Y-8638174D02*
X2267801Y-8685793D01*
X2267801Y-8685793D02*
X2258277Y-8723889D01*
X2258277Y-8723889D02*
X2248753Y-8742936D01*
X2248753Y-8742936D02*
X2239229Y-8752460D01*
X2239229Y-8752460D02*
X2220182Y-8761984D01*
X2220182Y-8761984D02*
X2201134Y-8761984D01*
X2201134Y-8761984D02*
X2182087Y-8752460D01*
X2182087Y-8752460D02*
X2172563Y-8742936D01*
X2172563Y-8742936D02*
X2163039Y-8723889D01*
X2163039Y-8723889D02*
X2153515Y-8685793D01*
X2153515Y-8685793D02*
X2153515Y-8638174D01*
X2153515Y-8638174D02*
X2163039Y-8600079D01*
X2163039Y-8600079D02*
X2172563Y-8581031D01*
X2172563Y-8581031D02*
X2182087Y-8571508D01*
X2182087Y-8571508D02*
X2201134Y-8561984D01*
X2353515Y-8742936D02*
X2363039Y-8752460D01*
X2363039Y-8752460D02*
X2353515Y-8761984D01*
X2353515Y-8761984D02*
X2343991Y-8752460D01*
X2343991Y-8752460D02*
X2353515Y-8742936D01*
X2353515Y-8742936D02*
X2353515Y-8761984D01*
X2486848Y-8561984D02*
X2505896Y-8561984D01*
X2505896Y-8561984D02*
X2524944Y-8571508D01*
X2524944Y-8571508D02*
X2534468Y-8581031D01*
X2534468Y-8581031D02*
X2543991Y-8600079D01*
X2543991Y-8600079D02*
X2553515Y-8638174D01*
X2553515Y-8638174D02*
X2553515Y-8685793D01*
X2553515Y-8685793D02*
X2543991Y-8723889D01*
X2543991Y-8723889D02*
X2534468Y-8742936D01*
X2534468Y-8742936D02*
X2524944Y-8752460D01*
X2524944Y-8752460D02*
X2505896Y-8761984D01*
X2505896Y-8761984D02*
X2486848Y-8761984D01*
X2486848Y-8761984D02*
X2467801Y-8752460D01*
X2467801Y-8752460D02*
X2458277Y-8742936D01*
X2458277Y-8742936D02*
X2448753Y-8723889D01*
X2448753Y-8723889D02*
X2439229Y-8685793D01*
X2439229Y-8685793D02*
X2439229Y-8638174D01*
X2439229Y-8638174D02*
X2448753Y-8600079D01*
X2448753Y-8600079D02*
X2458277Y-8581031D01*
X2458277Y-8581031D02*
X2467801Y-8571508D01*
X2467801Y-8571508D02*
X2486848Y-8561984D01*
X2743991Y-8761984D02*
X2629706Y-8761984D01*
X2686848Y-8761984D02*
X2686848Y-8561984D01*
X2686848Y-8561984D02*
X2667801Y-8590555D01*
X2667801Y-8590555D02*
X2648753Y-8609603D01*
X2648753Y-8609603D02*
X2629706Y-8619127D01*
X2810658Y-8561984D02*
X2934467Y-8561984D01*
X2934467Y-8561984D02*
X2867801Y-8638174D01*
X2867801Y-8638174D02*
X2896372Y-8638174D01*
X2896372Y-8638174D02*
X2915420Y-8647698D01*
X2915420Y-8647698D02*
X2924944Y-8657222D01*
X2924944Y-8657222D02*
X2934467Y-8676270D01*
X2934467Y-8676270D02*
X2934467Y-8723889D01*
X2934467Y-8723889D02*
X2924944Y-8742936D01*
X2924944Y-8742936D02*
X2915420Y-8752460D01*
X2915420Y-8752460D02*
X2896372Y-8761984D01*
X2896372Y-8761984D02*
X2839229Y-8761984D01*
X2839229Y-8761984D02*
X2820182Y-8752460D01*
X2820182Y-8752460D02*
X2810658Y-8742936D01*
X3048753Y-8647698D02*
X3029706Y-8638174D01*
X3029706Y-8638174D02*
X3020182Y-8628650D01*
X3020182Y-8628650D02*
X3010658Y-8609603D01*
X3010658Y-8609603D02*
X3010658Y-8600079D01*
X3010658Y-8600079D02*
X3020182Y-8581031D01*
X3020182Y-8581031D02*
X3029706Y-8571508D01*
X3029706Y-8571508D02*
X3048753Y-8561984D01*
X3048753Y-8561984D02*
X3086848Y-8561984D01*
X3086848Y-8561984D02*
X3105896Y-8571508D01*
X3105896Y-8571508D02*
X3115420Y-8581031D01*
X3115420Y-8581031D02*
X3124944Y-8600079D01*
X3124944Y-8600079D02*
X3124944Y-8609603D01*
X3124944Y-8609603D02*
X3115420Y-8628650D01*
X3115420Y-8628650D02*
X3105896Y-8638174D01*
X3105896Y-8638174D02*
X3086848Y-8647698D01*
X3086848Y-8647698D02*
X3048753Y-8647698D01*
X3048753Y-8647698D02*
X3029706Y-8657222D01*
X3029706Y-8657222D02*
X3020182Y-8666746D01*
X3020182Y-8666746D02*
X3010658Y-8685793D01*
X3010658Y-8685793D02*
X3010658Y-8723889D01*
X3010658Y-8723889D02*
X3020182Y-8742936D01*
X3020182Y-8742936D02*
X3029706Y-8752460D01*
X3029706Y-8752460D02*
X3048753Y-8761984D01*
X3048753Y-8761984D02*
X3086848Y-8761984D01*
X3086848Y-8761984D02*
X3105896Y-8752460D01*
X3105896Y-8752460D02*
X3115420Y-8742936D01*
X3115420Y-8742936D02*
X3124944Y-8723889D01*
X3124944Y-8723889D02*
X3124944Y-8685793D01*
X3124944Y-8685793D02*
X3115420Y-8666746D01*
X3115420Y-8666746D02*
X3105896Y-8657222D01*
X3105896Y-8657222D02*
X3086848Y-8647698D01*
X3201134Y-8561984D02*
X3201134Y-8600079D01*
X3277325Y-8561984D02*
X3277325Y-8600079D01*
X3572563Y-8838174D02*
X3563039Y-8828650D01*
X3563039Y-8828650D02*
X3543991Y-8800079D01*
X3543991Y-8800079D02*
X3534468Y-8781031D01*
X3534468Y-8781031D02*
X3524944Y-8752460D01*
X3524944Y-8752460D02*
X3515420Y-8704841D01*
X3515420Y-8704841D02*
X3515420Y-8666746D01*
X3515420Y-8666746D02*
X3524944Y-8619127D01*
X3524944Y-8619127D02*
X3534468Y-8590555D01*
X3534468Y-8590555D02*
X3543991Y-8571508D01*
X3543991Y-8571508D02*
X3563039Y-8542936D01*
X3563039Y-8542936D02*
X3572563Y-8533412D01*
X3753515Y-8761984D02*
X3639229Y-8761984D01*
X3696372Y-8761984D02*
X3696372Y-8561984D01*
X3696372Y-8561984D02*
X3677325Y-8590555D01*
X3677325Y-8590555D02*
X3658277Y-8609603D01*
X3658277Y-8609603D02*
X3639229Y-8619127D01*
X3924944Y-8561984D02*
X3886848Y-8561984D01*
X3886848Y-8561984D02*
X3867801Y-8571508D01*
X3867801Y-8571508D02*
X3858277Y-8581031D01*
X3858277Y-8581031D02*
X3839229Y-8609603D01*
X3839229Y-8609603D02*
X3829706Y-8647698D01*
X3829706Y-8647698D02*
X3829706Y-8723889D01*
X3829706Y-8723889D02*
X3839229Y-8742936D01*
X3839229Y-8742936D02*
X3848753Y-8752460D01*
X3848753Y-8752460D02*
X3867801Y-8761984D01*
X3867801Y-8761984D02*
X3905896Y-8761984D01*
X3905896Y-8761984D02*
X3924944Y-8752460D01*
X3924944Y-8752460D02*
X3934468Y-8742936D01*
X3934468Y-8742936D02*
X3943991Y-8723889D01*
X3943991Y-8723889D02*
X3943991Y-8676270D01*
X3943991Y-8676270D02*
X3934468Y-8657222D01*
X3934468Y-8657222D02*
X3924944Y-8647698D01*
X3924944Y-8647698D02*
X3905896Y-8638174D01*
X3905896Y-8638174D02*
X3867801Y-8638174D01*
X3867801Y-8638174D02*
X3848753Y-8647698D01*
X3848753Y-8647698D02*
X3839229Y-8657222D01*
X3839229Y-8657222D02*
X3829706Y-8676270D01*
X4134468Y-8761984D02*
X4020182Y-8761984D01*
X4077325Y-8761984D02*
X4077325Y-8561984D01*
X4077325Y-8561984D02*
X4058277Y-8590555D01*
X4058277Y-8590555D02*
X4039229Y-8609603D01*
X4039229Y-8609603D02*
X4020182Y-8619127D01*
X4372563Y-8761984D02*
X4372563Y-8561984D01*
X4458277Y-8761984D02*
X4458277Y-8657222D01*
X4458277Y-8657222D02*
X4448753Y-8638174D01*
X4448753Y-8638174D02*
X4429706Y-8628650D01*
X4429706Y-8628650D02*
X4401134Y-8628650D01*
X4401134Y-8628650D02*
X4382087Y-8638174D01*
X4382087Y-8638174D02*
X4372563Y-8647698D01*
X4582087Y-8761984D02*
X4563039Y-8752460D01*
X4563039Y-8752460D02*
X4553515Y-8742936D01*
X4553515Y-8742936D02*
X4543992Y-8723889D01*
X4543992Y-8723889D02*
X4543992Y-8666746D01*
X4543992Y-8666746D02*
X4553515Y-8647698D01*
X4553515Y-8647698D02*
X4563039Y-8638174D01*
X4563039Y-8638174D02*
X4582087Y-8628650D01*
X4582087Y-8628650D02*
X4610658Y-8628650D01*
X4610658Y-8628650D02*
X4629706Y-8638174D01*
X4629706Y-8638174D02*
X4639230Y-8647698D01*
X4639230Y-8647698D02*
X4648753Y-8666746D01*
X4648753Y-8666746D02*
X4648753Y-8723889D01*
X4648753Y-8723889D02*
X4639230Y-8742936D01*
X4639230Y-8742936D02*
X4629706Y-8752460D01*
X4629706Y-8752460D02*
X4610658Y-8761984D01*
X4610658Y-8761984D02*
X4582087Y-8761984D01*
X4763039Y-8761984D02*
X4743992Y-8752460D01*
X4743992Y-8752460D02*
X4734468Y-8733412D01*
X4734468Y-8733412D02*
X4734468Y-8561984D01*
X4915420Y-8752460D02*
X4896373Y-8761984D01*
X4896373Y-8761984D02*
X4858277Y-8761984D01*
X4858277Y-8761984D02*
X4839230Y-8752460D01*
X4839230Y-8752460D02*
X4829706Y-8733412D01*
X4829706Y-8733412D02*
X4829706Y-8657222D01*
X4829706Y-8657222D02*
X4839230Y-8638174D01*
X4839230Y-8638174D02*
X4858277Y-8628650D01*
X4858277Y-8628650D02*
X4896373Y-8628650D01*
X4896373Y-8628650D02*
X4915420Y-8638174D01*
X4915420Y-8638174D02*
X4924944Y-8657222D01*
X4924944Y-8657222D02*
X4924944Y-8676270D01*
X4924944Y-8676270D02*
X4829706Y-8695317D01*
X5001134Y-8752460D02*
X5020182Y-8761984D01*
X5020182Y-8761984D02*
X5058277Y-8761984D01*
X5058277Y-8761984D02*
X5077325Y-8752460D01*
X5077325Y-8752460D02*
X5086849Y-8733412D01*
X5086849Y-8733412D02*
X5086849Y-8723889D01*
X5086849Y-8723889D02*
X5077325Y-8704841D01*
X5077325Y-8704841D02*
X5058277Y-8695317D01*
X5058277Y-8695317D02*
X5029706Y-8695317D01*
X5029706Y-8695317D02*
X5010658Y-8685793D01*
X5010658Y-8685793D02*
X5001134Y-8666746D01*
X5001134Y-8666746D02*
X5001134Y-8657222D01*
X5001134Y-8657222D02*
X5010658Y-8638174D01*
X5010658Y-8638174D02*
X5029706Y-8628650D01*
X5029706Y-8628650D02*
X5058277Y-8628650D01*
X5058277Y-8628650D02*
X5077325Y-8638174D01*
X5153515Y-8838174D02*
X5163039Y-8828650D01*
X5163039Y-8828650D02*
X5182087Y-8800079D01*
X5182087Y-8800079D02*
X5191611Y-8781031D01*
X5191611Y-8781031D02*
X5201134Y-8752460D01*
X5201134Y-8752460D02*
X5210658Y-8704841D01*
X5210658Y-8704841D02*
X5210658Y-8666746D01*
X5210658Y-8666746D02*
X5201134Y-8619127D01*
X5201134Y-8619127D02*
X5191611Y-8590555D01*
X5191611Y-8590555D02*
X5182087Y-8571508D01*
X5182087Y-8571508D02*
X5163039Y-8542936D01*
X5163039Y-8542936D02*
X5153515Y-8533412D01*
D12*
X-14215Y-8962785D02*
X-14215Y-8906216D01*
X-70785Y-8906216D01*
X-70785Y-8962785D01*
X-14215Y-8962785D01*
D11*
X296372Y-8825984D02*
X315420Y-8825984D01*
X315420Y-8825984D02*
X334467Y-8835508D01*
X334467Y-8835508D02*
X343991Y-8845031D01*
X343991Y-8845031D02*
X353515Y-8864079D01*
X353515Y-8864079D02*
X363039Y-8902174D01*
X363039Y-8902174D02*
X363039Y-8949793D01*
X363039Y-8949793D02*
X353515Y-8987889D01*
X353515Y-8987889D02*
X343991Y-9006936D01*
X343991Y-9006936D02*
X334467Y-9016460D01*
X334467Y-9016460D02*
X315420Y-9025984D01*
X315420Y-9025984D02*
X296372Y-9025984D01*
X296372Y-9025984D02*
X277324Y-9016460D01*
X277324Y-9016460D02*
X267801Y-9006936D01*
X267801Y-9006936D02*
X258277Y-8987889D01*
X258277Y-8987889D02*
X248753Y-8949793D01*
X248753Y-8949793D02*
X248753Y-8902174D01*
X248753Y-8902174D02*
X258277Y-8864079D01*
X258277Y-8864079D02*
X267801Y-8845031D01*
X267801Y-8845031D02*
X277324Y-8835508D01*
X277324Y-8835508D02*
X296372Y-8825984D01*
X448753Y-9006936D02*
X458277Y-9016460D01*
X458277Y-9016460D02*
X448753Y-9025984D01*
X448753Y-9025984D02*
X439229Y-9016460D01*
X439229Y-9016460D02*
X448753Y-9006936D01*
X448753Y-9006936D02*
X448753Y-9025984D01*
X572563Y-8911698D02*
X553515Y-8902174D01*
X553515Y-8902174D02*
X543991Y-8892650D01*
X543991Y-8892650D02*
X534467Y-8873603D01*
X534467Y-8873603D02*
X534467Y-8864079D01*
X534467Y-8864079D02*
X543991Y-8845031D01*
X543991Y-8845031D02*
X553515Y-8835508D01*
X553515Y-8835508D02*
X572563Y-8825984D01*
X572563Y-8825984D02*
X610658Y-8825984D01*
X610658Y-8825984D02*
X629705Y-8835508D01*
X629705Y-8835508D02*
X639229Y-8845031D01*
X639229Y-8845031D02*
X648753Y-8864079D01*
X648753Y-8864079D02*
X648753Y-8873603D01*
X648753Y-8873603D02*
X639229Y-8892650D01*
X639229Y-8892650D02*
X629705Y-8902174D01*
X629705Y-8902174D02*
X610658Y-8911698D01*
X610658Y-8911698D02*
X572563Y-8911698D01*
X572563Y-8911698D02*
X553515Y-8921222D01*
X553515Y-8921222D02*
X543991Y-8930746D01*
X543991Y-8930746D02*
X534467Y-8949793D01*
X534467Y-8949793D02*
X534467Y-8987889D01*
X534467Y-8987889D02*
X543991Y-9006936D01*
X543991Y-9006936D02*
X553515Y-9016460D01*
X553515Y-9016460D02*
X572563Y-9025984D01*
X572563Y-9025984D02*
X610658Y-9025984D01*
X610658Y-9025984D02*
X629705Y-9016460D01*
X629705Y-9016460D02*
X639229Y-9006936D01*
X639229Y-9006936D02*
X648753Y-8987889D01*
X648753Y-8987889D02*
X648753Y-8949793D01*
X648753Y-8949793D02*
X639229Y-8930746D01*
X639229Y-8930746D02*
X629705Y-8921222D01*
X629705Y-8921222D02*
X610658Y-8911698D01*
X772562Y-8825984D02*
X791610Y-8825984D01*
X791610Y-8825984D02*
X810658Y-8835508D01*
X810658Y-8835508D02*
X820182Y-8845031D01*
X820182Y-8845031D02*
X829705Y-8864079D01*
X829705Y-8864079D02*
X839229Y-8902174D01*
X839229Y-8902174D02*
X839229Y-8949793D01*
X839229Y-8949793D02*
X829705Y-8987889D01*
X829705Y-8987889D02*
X820182Y-9006936D01*
X820182Y-9006936D02*
X810658Y-9016460D01*
X810658Y-9016460D02*
X791610Y-9025984D01*
X791610Y-9025984D02*
X772562Y-9025984D01*
X772562Y-9025984D02*
X753515Y-9016460D01*
X753515Y-9016460D02*
X743991Y-9006936D01*
X743991Y-9006936D02*
X734467Y-8987889D01*
X734467Y-8987889D02*
X724943Y-8949793D01*
X724943Y-8949793D02*
X724943Y-8902174D01*
X724943Y-8902174D02*
X734467Y-8864079D01*
X734467Y-8864079D02*
X743991Y-8845031D01*
X743991Y-8845031D02*
X753515Y-8835508D01*
X753515Y-8835508D02*
X772562Y-8825984D01*
X963039Y-8825984D02*
X982086Y-8825984D01*
X982086Y-8825984D02*
X1001134Y-8835508D01*
X1001134Y-8835508D02*
X1010658Y-8845031D01*
X1010658Y-8845031D02*
X1020182Y-8864079D01*
X1020182Y-8864079D02*
X1029705Y-8902174D01*
X1029705Y-8902174D02*
X1029705Y-8949793D01*
X1029705Y-8949793D02*
X1020182Y-8987889D01*
X1020182Y-8987889D02*
X1010658Y-9006936D01*
X1010658Y-9006936D02*
X1001134Y-9016460D01*
X1001134Y-9016460D02*
X982086Y-9025984D01*
X982086Y-9025984D02*
X963039Y-9025984D01*
X963039Y-9025984D02*
X943991Y-9016460D01*
X943991Y-9016460D02*
X934467Y-9006936D01*
X934467Y-9006936D02*
X924943Y-8987889D01*
X924943Y-8987889D02*
X915420Y-8949793D01*
X915420Y-8949793D02*
X915420Y-8902174D01*
X915420Y-8902174D02*
X924943Y-8864079D01*
X924943Y-8864079D02*
X934467Y-8845031D01*
X934467Y-8845031D02*
X943991Y-8835508D01*
X943991Y-8835508D02*
X963039Y-8825984D01*
X1115420Y-9025984D02*
X1115420Y-8892650D01*
X1115420Y-8911698D02*
X1124944Y-8902174D01*
X1124944Y-8902174D02*
X1143991Y-8892650D01*
X1143991Y-8892650D02*
X1172563Y-8892650D01*
X1172563Y-8892650D02*
X1191610Y-8902174D01*
X1191610Y-8902174D02*
X1201134Y-8921222D01*
X1201134Y-8921222D02*
X1201134Y-9025984D01*
X1201134Y-8921222D02*
X1210658Y-8902174D01*
X1210658Y-8902174D02*
X1229705Y-8892650D01*
X1229705Y-8892650D02*
X1258277Y-8892650D01*
X1258277Y-8892650D02*
X1277325Y-8902174D01*
X1277325Y-8902174D02*
X1286848Y-8921222D01*
X1286848Y-8921222D02*
X1286848Y-9025984D01*
X1382086Y-9025984D02*
X1382086Y-8892650D01*
X1382086Y-8911698D02*
X1391610Y-8902174D01*
X1391610Y-8902174D02*
X1410658Y-8892650D01*
X1410658Y-8892650D02*
X1439229Y-8892650D01*
X1439229Y-8892650D02*
X1458277Y-8902174D01*
X1458277Y-8902174D02*
X1467801Y-8921222D01*
X1467801Y-8921222D02*
X1467801Y-9025984D01*
X1467801Y-8921222D02*
X1477324Y-8902174D01*
X1477324Y-8902174D02*
X1496372Y-8892650D01*
X1496372Y-8892650D02*
X1524943Y-8892650D01*
X1524943Y-8892650D02*
X1543991Y-8902174D01*
X1543991Y-8902174D02*
X1553515Y-8921222D01*
X1553515Y-8921222D02*
X1553515Y-9025984D01*
X1943991Y-8816460D02*
X1772563Y-9073603D01*
X2201134Y-8825984D02*
X2220182Y-8825984D01*
X2220182Y-8825984D02*
X2239229Y-8835508D01*
X2239229Y-8835508D02*
X2248753Y-8845031D01*
X2248753Y-8845031D02*
X2258277Y-8864079D01*
X2258277Y-8864079D02*
X2267801Y-8902174D01*
X2267801Y-8902174D02*
X2267801Y-8949793D01*
X2267801Y-8949793D02*
X2258277Y-8987889D01*
X2258277Y-8987889D02*
X2248753Y-9006936D01*
X2248753Y-9006936D02*
X2239229Y-9016460D01*
X2239229Y-9016460D02*
X2220182Y-9025984D01*
X2220182Y-9025984D02*
X2201134Y-9025984D01*
X2201134Y-9025984D02*
X2182087Y-9016460D01*
X2182087Y-9016460D02*
X2172563Y-9006936D01*
X2172563Y-9006936D02*
X2163039Y-8987889D01*
X2163039Y-8987889D02*
X2153515Y-8949793D01*
X2153515Y-8949793D02*
X2153515Y-8902174D01*
X2153515Y-8902174D02*
X2163039Y-8864079D01*
X2163039Y-8864079D02*
X2172563Y-8845031D01*
X2172563Y-8845031D02*
X2182087Y-8835508D01*
X2182087Y-8835508D02*
X2201134Y-8825984D01*
X2353515Y-9006936D02*
X2363039Y-9016460D01*
X2363039Y-9016460D02*
X2353515Y-9025984D01*
X2353515Y-9025984D02*
X2343991Y-9016460D01*
X2343991Y-9016460D02*
X2353515Y-9006936D01*
X2353515Y-9006936D02*
X2353515Y-9025984D01*
X2486848Y-8825984D02*
X2505896Y-8825984D01*
X2505896Y-8825984D02*
X2524944Y-8835508D01*
X2524944Y-8835508D02*
X2534468Y-8845031D01*
X2534468Y-8845031D02*
X2543991Y-8864079D01*
X2543991Y-8864079D02*
X2553515Y-8902174D01*
X2553515Y-8902174D02*
X2553515Y-8949793D01*
X2553515Y-8949793D02*
X2543991Y-8987889D01*
X2543991Y-8987889D02*
X2534468Y-9006936D01*
X2534468Y-9006936D02*
X2524944Y-9016460D01*
X2524944Y-9016460D02*
X2505896Y-9025984D01*
X2505896Y-9025984D02*
X2486848Y-9025984D01*
X2486848Y-9025984D02*
X2467801Y-9016460D01*
X2467801Y-9016460D02*
X2458277Y-9006936D01*
X2458277Y-9006936D02*
X2448753Y-8987889D01*
X2448753Y-8987889D02*
X2439229Y-8949793D01*
X2439229Y-8949793D02*
X2439229Y-8902174D01*
X2439229Y-8902174D02*
X2448753Y-8864079D01*
X2448753Y-8864079D02*
X2458277Y-8845031D01*
X2458277Y-8845031D02*
X2467801Y-8835508D01*
X2467801Y-8835508D02*
X2486848Y-8825984D01*
X2620182Y-8825984D02*
X2743991Y-8825984D01*
X2743991Y-8825984D02*
X2677325Y-8902174D01*
X2677325Y-8902174D02*
X2705896Y-8902174D01*
X2705896Y-8902174D02*
X2724944Y-8911698D01*
X2724944Y-8911698D02*
X2734468Y-8921222D01*
X2734468Y-8921222D02*
X2743991Y-8940270D01*
X2743991Y-8940270D02*
X2743991Y-8987889D01*
X2743991Y-8987889D02*
X2734468Y-9006936D01*
X2734468Y-9006936D02*
X2724944Y-9016460D01*
X2724944Y-9016460D02*
X2705896Y-9025984D01*
X2705896Y-9025984D02*
X2648753Y-9025984D01*
X2648753Y-9025984D02*
X2629706Y-9016460D01*
X2629706Y-9016460D02*
X2620182Y-9006936D01*
X2934467Y-9025984D02*
X2820182Y-9025984D01*
X2877325Y-9025984D02*
X2877325Y-8825984D01*
X2877325Y-8825984D02*
X2858277Y-8854555D01*
X2858277Y-8854555D02*
X2839229Y-8873603D01*
X2839229Y-8873603D02*
X2820182Y-8883127D01*
X3115420Y-8825984D02*
X3020182Y-8825984D01*
X3020182Y-8825984D02*
X3010658Y-8921222D01*
X3010658Y-8921222D02*
X3020182Y-8911698D01*
X3020182Y-8911698D02*
X3039229Y-8902174D01*
X3039229Y-8902174D02*
X3086848Y-8902174D01*
X3086848Y-8902174D02*
X3105896Y-8911698D01*
X3105896Y-8911698D02*
X3115420Y-8921222D01*
X3115420Y-8921222D02*
X3124944Y-8940270D01*
X3124944Y-8940270D02*
X3124944Y-8987889D01*
X3124944Y-8987889D02*
X3115420Y-9006936D01*
X3115420Y-9006936D02*
X3105896Y-9016460D01*
X3105896Y-9016460D02*
X3086848Y-9025984D01*
X3086848Y-9025984D02*
X3039229Y-9025984D01*
X3039229Y-9025984D02*
X3020182Y-9016460D01*
X3020182Y-9016460D02*
X3010658Y-9006936D01*
X3201134Y-8825984D02*
X3201134Y-8864079D01*
X3277325Y-8825984D02*
X3277325Y-8864079D01*
X3572563Y-9102174D02*
X3563039Y-9092650D01*
X3563039Y-9092650D02*
X3543991Y-9064079D01*
X3543991Y-9064079D02*
X3534468Y-9045031D01*
X3534468Y-9045031D02*
X3524944Y-9016460D01*
X3524944Y-9016460D02*
X3515420Y-8968841D01*
X3515420Y-8968841D02*
X3515420Y-8930746D01*
X3515420Y-8930746D02*
X3524944Y-8883127D01*
X3524944Y-8883127D02*
X3534468Y-8854555D01*
X3534468Y-8854555D02*
X3543991Y-8835508D01*
X3543991Y-8835508D02*
X3563039Y-8806936D01*
X3563039Y-8806936D02*
X3572563Y-8797412D01*
X3734468Y-8892650D02*
X3734468Y-9025984D01*
X3686848Y-8816460D02*
X3639229Y-8959317D01*
X3639229Y-8959317D02*
X3763039Y-8959317D01*
X3991610Y-9025984D02*
X3991610Y-8825984D01*
X4077325Y-9025984D02*
X4077325Y-8921222D01*
X4077325Y-8921222D02*
X4067801Y-8902174D01*
X4067801Y-8902174D02*
X4048753Y-8892650D01*
X4048753Y-8892650D02*
X4020182Y-8892650D01*
X4020182Y-8892650D02*
X4001134Y-8902174D01*
X4001134Y-8902174D02*
X3991610Y-8911698D01*
X4201134Y-9025984D02*
X4182087Y-9016460D01*
X4182087Y-9016460D02*
X4172563Y-9006936D01*
X4172563Y-9006936D02*
X4163039Y-8987889D01*
X4163039Y-8987889D02*
X4163039Y-8930746D01*
X4163039Y-8930746D02*
X4172563Y-8911698D01*
X4172563Y-8911698D02*
X4182087Y-8902174D01*
X4182087Y-8902174D02*
X4201134Y-8892650D01*
X4201134Y-8892650D02*
X4229706Y-8892650D01*
X4229706Y-8892650D02*
X4248753Y-8902174D01*
X4248753Y-8902174D02*
X4258277Y-8911698D01*
X4258277Y-8911698D02*
X4267801Y-8930746D01*
X4267801Y-8930746D02*
X4267801Y-8987889D01*
X4267801Y-8987889D02*
X4258277Y-9006936D01*
X4258277Y-9006936D02*
X4248753Y-9016460D01*
X4248753Y-9016460D02*
X4229706Y-9025984D01*
X4229706Y-9025984D02*
X4201134Y-9025984D01*
X4382087Y-9025984D02*
X4363039Y-9016460D01*
X4363039Y-9016460D02*
X4353515Y-8997412D01*
X4353515Y-8997412D02*
X4353515Y-8825984D01*
X4534468Y-9016460D02*
X4515420Y-9025984D01*
X4515420Y-9025984D02*
X4477325Y-9025984D01*
X4477325Y-9025984D02*
X4458277Y-9016460D01*
X4458277Y-9016460D02*
X4448753Y-8997412D01*
X4448753Y-8997412D02*
X4448753Y-8921222D01*
X4448753Y-8921222D02*
X4458277Y-8902174D01*
X4458277Y-8902174D02*
X4477325Y-8892650D01*
X4477325Y-8892650D02*
X4515420Y-8892650D01*
X4515420Y-8892650D02*
X4534468Y-8902174D01*
X4534468Y-8902174D02*
X4543992Y-8921222D01*
X4543992Y-8921222D02*
X4543992Y-8940270D01*
X4543992Y-8940270D02*
X4448753Y-8959317D01*
X4620182Y-9016460D02*
X4639230Y-9025984D01*
X4639230Y-9025984D02*
X4677325Y-9025984D01*
X4677325Y-9025984D02*
X4696373Y-9016460D01*
X4696373Y-9016460D02*
X4705896Y-8997412D01*
X4705896Y-8997412D02*
X4705896Y-8987889D01*
X4705896Y-8987889D02*
X4696373Y-8968841D01*
X4696373Y-8968841D02*
X4677325Y-8959317D01*
X4677325Y-8959317D02*
X4648753Y-8959317D01*
X4648753Y-8959317D02*
X4629706Y-8949793D01*
X4629706Y-8949793D02*
X4620182Y-8930746D01*
X4620182Y-8930746D02*
X4620182Y-8921222D01*
X4620182Y-8921222D02*
X4629706Y-8902174D01*
X4629706Y-8902174D02*
X4648753Y-8892650D01*
X4648753Y-8892650D02*
X4677325Y-8892650D01*
X4677325Y-8892650D02*
X4696373Y-8902174D01*
X4772563Y-9102174D02*
X4782087Y-9092650D01*
X4782087Y-9092650D02*
X4801134Y-9064079D01*
X4801134Y-9064079D02*
X4810658Y-9045031D01*
X4810658Y-9045031D02*
X4820182Y-9016460D01*
X4820182Y-9016460D02*
X4829706Y-8968841D01*
X4829706Y-8968841D02*
X4829706Y-8930746D01*
X4829706Y-8930746D02*
X4820182Y-8883127D01*
X4820182Y-8883127D02*
X4810658Y-8854555D01*
X4810658Y-8854555D02*
X4801134Y-8835508D01*
X4801134Y-8835508D02*
X4782087Y-8806936D01*
X4782087Y-8806936D02*
X4772563Y-8797412D01*
D12*
X-45000Y-9241000D02*
X-2500Y-9198500D01*
X-45000Y-9156000D01*
X-87500Y-9198500D01*
X-45000Y-9241000D01*
D11*
X296372Y-9089984D02*
X315420Y-9089984D01*
X315420Y-9089984D02*
X334467Y-9099508D01*
X334467Y-9099508D02*
X343991Y-9109031D01*
X343991Y-9109031D02*
X353515Y-9128079D01*
X353515Y-9128079D02*
X363039Y-9166174D01*
X363039Y-9166174D02*
X363039Y-9213793D01*
X363039Y-9213793D02*
X353515Y-9251889D01*
X353515Y-9251889D02*
X343991Y-9270936D01*
X343991Y-9270936D02*
X334467Y-9280460D01*
X334467Y-9280460D02*
X315420Y-9289984D01*
X315420Y-9289984D02*
X296372Y-9289984D01*
X296372Y-9289984D02*
X277324Y-9280460D01*
X277324Y-9280460D02*
X267801Y-9270936D01*
X267801Y-9270936D02*
X258277Y-9251889D01*
X258277Y-9251889D02*
X248753Y-9213793D01*
X248753Y-9213793D02*
X248753Y-9166174D01*
X248753Y-9166174D02*
X258277Y-9128079D01*
X258277Y-9128079D02*
X267801Y-9109031D01*
X267801Y-9109031D02*
X277324Y-9099508D01*
X277324Y-9099508D02*
X296372Y-9089984D01*
X448753Y-9270936D02*
X458277Y-9280460D01*
X458277Y-9280460D02*
X448753Y-9289984D01*
X448753Y-9289984D02*
X439229Y-9280460D01*
X439229Y-9280460D02*
X448753Y-9270936D01*
X448753Y-9270936D02*
X448753Y-9289984D01*
X572563Y-9175698D02*
X553515Y-9166174D01*
X553515Y-9166174D02*
X543991Y-9156650D01*
X543991Y-9156650D02*
X534467Y-9137603D01*
X534467Y-9137603D02*
X534467Y-9128079D01*
X534467Y-9128079D02*
X543991Y-9109031D01*
X543991Y-9109031D02*
X553515Y-9099508D01*
X553515Y-9099508D02*
X572563Y-9089984D01*
X572563Y-9089984D02*
X610658Y-9089984D01*
X610658Y-9089984D02*
X629705Y-9099508D01*
X629705Y-9099508D02*
X639229Y-9109031D01*
X639229Y-9109031D02*
X648753Y-9128079D01*
X648753Y-9128079D02*
X648753Y-9137603D01*
X648753Y-9137603D02*
X639229Y-9156650D01*
X639229Y-9156650D02*
X629705Y-9166174D01*
X629705Y-9166174D02*
X610658Y-9175698D01*
X610658Y-9175698D02*
X572563Y-9175698D01*
X572563Y-9175698D02*
X553515Y-9185222D01*
X553515Y-9185222D02*
X543991Y-9194746D01*
X543991Y-9194746D02*
X534467Y-9213793D01*
X534467Y-9213793D02*
X534467Y-9251889D01*
X534467Y-9251889D02*
X543991Y-9270936D01*
X543991Y-9270936D02*
X553515Y-9280460D01*
X553515Y-9280460D02*
X572563Y-9289984D01*
X572563Y-9289984D02*
X610658Y-9289984D01*
X610658Y-9289984D02*
X629705Y-9280460D01*
X629705Y-9280460D02*
X639229Y-9270936D01*
X639229Y-9270936D02*
X648753Y-9251889D01*
X648753Y-9251889D02*
X648753Y-9213793D01*
X648753Y-9213793D02*
X639229Y-9194746D01*
X639229Y-9194746D02*
X629705Y-9185222D01*
X629705Y-9185222D02*
X610658Y-9175698D01*
X829705Y-9089984D02*
X734467Y-9089984D01*
X734467Y-9089984D02*
X724943Y-9185222D01*
X724943Y-9185222D02*
X734467Y-9175698D01*
X734467Y-9175698D02*
X753515Y-9166174D01*
X753515Y-9166174D02*
X801134Y-9166174D01*
X801134Y-9166174D02*
X820182Y-9175698D01*
X820182Y-9175698D02*
X829705Y-9185222D01*
X829705Y-9185222D02*
X839229Y-9204270D01*
X839229Y-9204270D02*
X839229Y-9251889D01*
X839229Y-9251889D02*
X829705Y-9270936D01*
X829705Y-9270936D02*
X820182Y-9280460D01*
X820182Y-9280460D02*
X801134Y-9289984D01*
X801134Y-9289984D02*
X753515Y-9289984D01*
X753515Y-9289984D02*
X734467Y-9280460D01*
X734467Y-9280460D02*
X724943Y-9270936D01*
X963039Y-9089984D02*
X982086Y-9089984D01*
X982086Y-9089984D02*
X1001134Y-9099508D01*
X1001134Y-9099508D02*
X1010658Y-9109031D01*
X1010658Y-9109031D02*
X1020182Y-9128079D01*
X1020182Y-9128079D02*
X1029705Y-9166174D01*
X1029705Y-9166174D02*
X1029705Y-9213793D01*
X1029705Y-9213793D02*
X1020182Y-9251889D01*
X1020182Y-9251889D02*
X1010658Y-9270936D01*
X1010658Y-9270936D02*
X1001134Y-9280460D01*
X1001134Y-9280460D02*
X982086Y-9289984D01*
X982086Y-9289984D02*
X963039Y-9289984D01*
X963039Y-9289984D02*
X943991Y-9280460D01*
X943991Y-9280460D02*
X934467Y-9270936D01*
X934467Y-9270936D02*
X924943Y-9251889D01*
X924943Y-9251889D02*
X915420Y-9213793D01*
X915420Y-9213793D02*
X915420Y-9166174D01*
X915420Y-9166174D02*
X924943Y-9128079D01*
X924943Y-9128079D02*
X934467Y-9109031D01*
X934467Y-9109031D02*
X943991Y-9099508D01*
X943991Y-9099508D02*
X963039Y-9089984D01*
X1115420Y-9289984D02*
X1115420Y-9156650D01*
X1115420Y-9175698D02*
X1124944Y-9166174D01*
X1124944Y-9166174D02*
X1143991Y-9156650D01*
X1143991Y-9156650D02*
X1172563Y-9156650D01*
X1172563Y-9156650D02*
X1191610Y-9166174D01*
X1191610Y-9166174D02*
X1201134Y-9185222D01*
X1201134Y-9185222D02*
X1201134Y-9289984D01*
X1201134Y-9185222D02*
X1210658Y-9166174D01*
X1210658Y-9166174D02*
X1229705Y-9156650D01*
X1229705Y-9156650D02*
X1258277Y-9156650D01*
X1258277Y-9156650D02*
X1277325Y-9166174D01*
X1277325Y-9166174D02*
X1286848Y-9185222D01*
X1286848Y-9185222D02*
X1286848Y-9289984D01*
X1382086Y-9289984D02*
X1382086Y-9156650D01*
X1382086Y-9175698D02*
X1391610Y-9166174D01*
X1391610Y-9166174D02*
X1410658Y-9156650D01*
X1410658Y-9156650D02*
X1439229Y-9156650D01*
X1439229Y-9156650D02*
X1458277Y-9166174D01*
X1458277Y-9166174D02*
X1467801Y-9185222D01*
X1467801Y-9185222D02*
X1467801Y-9289984D01*
X1467801Y-9185222D02*
X1477324Y-9166174D01*
X1477324Y-9166174D02*
X1496372Y-9156650D01*
X1496372Y-9156650D02*
X1524943Y-9156650D01*
X1524943Y-9156650D02*
X1543991Y-9166174D01*
X1543991Y-9166174D02*
X1553515Y-9185222D01*
X1553515Y-9185222D02*
X1553515Y-9289984D01*
X1943991Y-9080460D02*
X1772563Y-9337603D01*
X2201134Y-9089984D02*
X2220182Y-9089984D01*
X2220182Y-9089984D02*
X2239229Y-9099508D01*
X2239229Y-9099508D02*
X2248753Y-9109031D01*
X2248753Y-9109031D02*
X2258277Y-9128079D01*
X2258277Y-9128079D02*
X2267801Y-9166174D01*
X2267801Y-9166174D02*
X2267801Y-9213793D01*
X2267801Y-9213793D02*
X2258277Y-9251889D01*
X2258277Y-9251889D02*
X2248753Y-9270936D01*
X2248753Y-9270936D02*
X2239229Y-9280460D01*
X2239229Y-9280460D02*
X2220182Y-9289984D01*
X2220182Y-9289984D02*
X2201134Y-9289984D01*
X2201134Y-9289984D02*
X2182087Y-9280460D01*
X2182087Y-9280460D02*
X2172563Y-9270936D01*
X2172563Y-9270936D02*
X2163039Y-9251889D01*
X2163039Y-9251889D02*
X2153515Y-9213793D01*
X2153515Y-9213793D02*
X2153515Y-9166174D01*
X2153515Y-9166174D02*
X2163039Y-9128079D01*
X2163039Y-9128079D02*
X2172563Y-9109031D01*
X2172563Y-9109031D02*
X2182087Y-9099508D01*
X2182087Y-9099508D02*
X2201134Y-9089984D01*
X2353515Y-9270936D02*
X2363039Y-9280460D01*
X2363039Y-9280460D02*
X2353515Y-9289984D01*
X2353515Y-9289984D02*
X2343991Y-9280460D01*
X2343991Y-9280460D02*
X2353515Y-9270936D01*
X2353515Y-9270936D02*
X2353515Y-9289984D01*
X2486848Y-9089984D02*
X2505896Y-9089984D01*
X2505896Y-9089984D02*
X2524944Y-9099508D01*
X2524944Y-9099508D02*
X2534468Y-9109031D01*
X2534468Y-9109031D02*
X2543991Y-9128079D01*
X2543991Y-9128079D02*
X2553515Y-9166174D01*
X2553515Y-9166174D02*
X2553515Y-9213793D01*
X2553515Y-9213793D02*
X2543991Y-9251889D01*
X2543991Y-9251889D02*
X2534468Y-9270936D01*
X2534468Y-9270936D02*
X2524944Y-9280460D01*
X2524944Y-9280460D02*
X2505896Y-9289984D01*
X2505896Y-9289984D02*
X2486848Y-9289984D01*
X2486848Y-9289984D02*
X2467801Y-9280460D01*
X2467801Y-9280460D02*
X2458277Y-9270936D01*
X2458277Y-9270936D02*
X2448753Y-9251889D01*
X2448753Y-9251889D02*
X2439229Y-9213793D01*
X2439229Y-9213793D02*
X2439229Y-9166174D01*
X2439229Y-9166174D02*
X2448753Y-9128079D01*
X2448753Y-9128079D02*
X2458277Y-9109031D01*
X2458277Y-9109031D02*
X2467801Y-9099508D01*
X2467801Y-9099508D02*
X2486848Y-9089984D01*
X2620182Y-9089984D02*
X2743991Y-9089984D01*
X2743991Y-9089984D02*
X2677325Y-9166174D01*
X2677325Y-9166174D02*
X2705896Y-9166174D01*
X2705896Y-9166174D02*
X2724944Y-9175698D01*
X2724944Y-9175698D02*
X2734468Y-9185222D01*
X2734468Y-9185222D02*
X2743991Y-9204270D01*
X2743991Y-9204270D02*
X2743991Y-9251889D01*
X2743991Y-9251889D02*
X2734468Y-9270936D01*
X2734468Y-9270936D02*
X2724944Y-9280460D01*
X2724944Y-9280460D02*
X2705896Y-9289984D01*
X2705896Y-9289984D02*
X2648753Y-9289984D01*
X2648753Y-9289984D02*
X2629706Y-9280460D01*
X2629706Y-9280460D02*
X2620182Y-9270936D01*
X2810658Y-9089984D02*
X2934467Y-9089984D01*
X2934467Y-9089984D02*
X2867801Y-9166174D01*
X2867801Y-9166174D02*
X2896372Y-9166174D01*
X2896372Y-9166174D02*
X2915420Y-9175698D01*
X2915420Y-9175698D02*
X2924944Y-9185222D01*
X2924944Y-9185222D02*
X2934467Y-9204270D01*
X2934467Y-9204270D02*
X2934467Y-9251889D01*
X2934467Y-9251889D02*
X2924944Y-9270936D01*
X2924944Y-9270936D02*
X2915420Y-9280460D01*
X2915420Y-9280460D02*
X2896372Y-9289984D01*
X2896372Y-9289984D02*
X2839229Y-9289984D01*
X2839229Y-9289984D02*
X2820182Y-9280460D01*
X2820182Y-9280460D02*
X2810658Y-9270936D01*
X3115420Y-9089984D02*
X3020182Y-9089984D01*
X3020182Y-9089984D02*
X3010658Y-9185222D01*
X3010658Y-9185222D02*
X3020182Y-9175698D01*
X3020182Y-9175698D02*
X3039229Y-9166174D01*
X3039229Y-9166174D02*
X3086848Y-9166174D01*
X3086848Y-9166174D02*
X3105896Y-9175698D01*
X3105896Y-9175698D02*
X3115420Y-9185222D01*
X3115420Y-9185222D02*
X3124944Y-9204270D01*
X3124944Y-9204270D02*
X3124944Y-9251889D01*
X3124944Y-9251889D02*
X3115420Y-9270936D01*
X3115420Y-9270936D02*
X3105896Y-9280460D01*
X3105896Y-9280460D02*
X3086848Y-9289984D01*
X3086848Y-9289984D02*
X3039229Y-9289984D01*
X3039229Y-9289984D02*
X3020182Y-9280460D01*
X3020182Y-9280460D02*
X3010658Y-9270936D01*
X3201134Y-9089984D02*
X3201134Y-9128079D01*
X3277325Y-9089984D02*
X3277325Y-9128079D01*
X3572563Y-9366174D02*
X3563039Y-9356650D01*
X3563039Y-9356650D02*
X3543991Y-9328079D01*
X3543991Y-9328079D02*
X3534468Y-9309031D01*
X3534468Y-9309031D02*
X3524944Y-9280460D01*
X3524944Y-9280460D02*
X3515420Y-9232841D01*
X3515420Y-9232841D02*
X3515420Y-9194746D01*
X3515420Y-9194746D02*
X3524944Y-9147127D01*
X3524944Y-9147127D02*
X3534468Y-9118555D01*
X3534468Y-9118555D02*
X3543991Y-9099508D01*
X3543991Y-9099508D02*
X3563039Y-9070936D01*
X3563039Y-9070936D02*
X3572563Y-9061412D01*
X3639229Y-9109031D02*
X3648753Y-9099508D01*
X3648753Y-9099508D02*
X3667801Y-9089984D01*
X3667801Y-9089984D02*
X3715420Y-9089984D01*
X3715420Y-9089984D02*
X3734468Y-9099508D01*
X3734468Y-9099508D02*
X3743991Y-9109031D01*
X3743991Y-9109031D02*
X3753515Y-9128079D01*
X3753515Y-9128079D02*
X3753515Y-9147127D01*
X3753515Y-9147127D02*
X3743991Y-9175698D01*
X3743991Y-9175698D02*
X3629706Y-9289984D01*
X3629706Y-9289984D02*
X3753515Y-9289984D01*
X3991610Y-9289984D02*
X3991610Y-9089984D01*
X4077325Y-9289984D02*
X4077325Y-9185222D01*
X4077325Y-9185222D02*
X4067801Y-9166174D01*
X4067801Y-9166174D02*
X4048753Y-9156650D01*
X4048753Y-9156650D02*
X4020182Y-9156650D01*
X4020182Y-9156650D02*
X4001134Y-9166174D01*
X4001134Y-9166174D02*
X3991610Y-9175698D01*
X4201134Y-9289984D02*
X4182087Y-9280460D01*
X4182087Y-9280460D02*
X4172563Y-9270936D01*
X4172563Y-9270936D02*
X4163039Y-9251889D01*
X4163039Y-9251889D02*
X4163039Y-9194746D01*
X4163039Y-9194746D02*
X4172563Y-9175698D01*
X4172563Y-9175698D02*
X4182087Y-9166174D01*
X4182087Y-9166174D02*
X4201134Y-9156650D01*
X4201134Y-9156650D02*
X4229706Y-9156650D01*
X4229706Y-9156650D02*
X4248753Y-9166174D01*
X4248753Y-9166174D02*
X4258277Y-9175698D01*
X4258277Y-9175698D02*
X4267801Y-9194746D01*
X4267801Y-9194746D02*
X4267801Y-9251889D01*
X4267801Y-9251889D02*
X4258277Y-9270936D01*
X4258277Y-9270936D02*
X4248753Y-9280460D01*
X4248753Y-9280460D02*
X4229706Y-9289984D01*
X4229706Y-9289984D02*
X4201134Y-9289984D01*
X4382087Y-9289984D02*
X4363039Y-9280460D01*
X4363039Y-9280460D02*
X4353515Y-9261412D01*
X4353515Y-9261412D02*
X4353515Y-9089984D01*
X4534468Y-9280460D02*
X4515420Y-9289984D01*
X4515420Y-9289984D02*
X4477325Y-9289984D01*
X4477325Y-9289984D02*
X4458277Y-9280460D01*
X4458277Y-9280460D02*
X4448753Y-9261412D01*
X4448753Y-9261412D02*
X4448753Y-9185222D01*
X4448753Y-9185222D02*
X4458277Y-9166174D01*
X4458277Y-9166174D02*
X4477325Y-9156650D01*
X4477325Y-9156650D02*
X4515420Y-9156650D01*
X4515420Y-9156650D02*
X4534468Y-9166174D01*
X4534468Y-9166174D02*
X4543992Y-9185222D01*
X4543992Y-9185222D02*
X4543992Y-9204270D01*
X4543992Y-9204270D02*
X4448753Y-9223317D01*
X4620182Y-9280460D02*
X4639230Y-9289984D01*
X4639230Y-9289984D02*
X4677325Y-9289984D01*
X4677325Y-9289984D02*
X4696373Y-9280460D01*
X4696373Y-9280460D02*
X4705896Y-9261412D01*
X4705896Y-9261412D02*
X4705896Y-9251889D01*
X4705896Y-9251889D02*
X4696373Y-9232841D01*
X4696373Y-9232841D02*
X4677325Y-9223317D01*
X4677325Y-9223317D02*
X4648753Y-9223317D01*
X4648753Y-9223317D02*
X4629706Y-9213793D01*
X4629706Y-9213793D02*
X4620182Y-9194746D01*
X4620182Y-9194746D02*
X4620182Y-9185222D01*
X4620182Y-9185222D02*
X4629706Y-9166174D01*
X4629706Y-9166174D02*
X4648753Y-9156650D01*
X4648753Y-9156650D02*
X4677325Y-9156650D01*
X4677325Y-9156650D02*
X4696373Y-9166174D01*
X4772563Y-9366174D02*
X4782087Y-9356650D01*
X4782087Y-9356650D02*
X4801134Y-9328079D01*
X4801134Y-9328079D02*
X4810658Y-9309031D01*
X4810658Y-9309031D02*
X4820182Y-9280460D01*
X4820182Y-9280460D02*
X4829706Y-9232841D01*
X4829706Y-9232841D02*
X4829706Y-9194746D01*
X4829706Y-9194746D02*
X4820182Y-9147127D01*
X4820182Y-9147127D02*
X4810658Y-9118555D01*
X4810658Y-9118555D02*
X4801134Y-9099508D01*
X4801134Y-9099508D02*
X4782087Y-9070936D01*
X4782087Y-9070936D02*
X4772563Y-9061412D01*
X-202500Y-9362500D02*
X-2500Y-9562500D01*
X-2500Y-9362500D02*
X-202500Y-9562500D01*
X-2500Y-9462500D02*
G75*
G02*
X-202500Y-9462500I-100000J0D01*
G01*
X-202500Y-9462500D02*
G75*
G02*
X-2500Y-9462500I100000J0D01*
G01*
X248753Y-9373031D02*
X258277Y-9363508D01*
X258277Y-9363508D02*
X277324Y-9353984D01*
X277324Y-9353984D02*
X324944Y-9353984D01*
X324944Y-9353984D02*
X343991Y-9363508D01*
X343991Y-9363508D02*
X353515Y-9373031D01*
X353515Y-9373031D02*
X363039Y-9392079D01*
X363039Y-9392079D02*
X363039Y-9411127D01*
X363039Y-9411127D02*
X353515Y-9439698D01*
X353515Y-9439698D02*
X239229Y-9553984D01*
X239229Y-9553984D02*
X363039Y-9553984D01*
X448753Y-9534936D02*
X458277Y-9544460D01*
X458277Y-9544460D02*
X448753Y-9553984D01*
X448753Y-9553984D02*
X439229Y-9544460D01*
X439229Y-9544460D02*
X448753Y-9534936D01*
X448753Y-9534936D02*
X448753Y-9553984D01*
X639229Y-9353984D02*
X543991Y-9353984D01*
X543991Y-9353984D02*
X534467Y-9449222D01*
X534467Y-9449222D02*
X543991Y-9439698D01*
X543991Y-9439698D02*
X563039Y-9430174D01*
X563039Y-9430174D02*
X610658Y-9430174D01*
X610658Y-9430174D02*
X629705Y-9439698D01*
X629705Y-9439698D02*
X639229Y-9449222D01*
X639229Y-9449222D02*
X648753Y-9468270D01*
X648753Y-9468270D02*
X648753Y-9515889D01*
X648753Y-9515889D02*
X639229Y-9534936D01*
X639229Y-9534936D02*
X629705Y-9544460D01*
X629705Y-9544460D02*
X610658Y-9553984D01*
X610658Y-9553984D02*
X563039Y-9553984D01*
X563039Y-9553984D02*
X543991Y-9544460D01*
X543991Y-9544460D02*
X534467Y-9534936D01*
X772562Y-9353984D02*
X791610Y-9353984D01*
X791610Y-9353984D02*
X810658Y-9363508D01*
X810658Y-9363508D02*
X820182Y-9373031D01*
X820182Y-9373031D02*
X829705Y-9392079D01*
X829705Y-9392079D02*
X839229Y-9430174D01*
X839229Y-9430174D02*
X839229Y-9477793D01*
X839229Y-9477793D02*
X829705Y-9515889D01*
X829705Y-9515889D02*
X820182Y-9534936D01*
X820182Y-9534936D02*
X810658Y-9544460D01*
X810658Y-9544460D02*
X791610Y-9553984D01*
X791610Y-9553984D02*
X772562Y-9553984D01*
X772562Y-9553984D02*
X753515Y-9544460D01*
X753515Y-9544460D02*
X743991Y-9534936D01*
X743991Y-9534936D02*
X734467Y-9515889D01*
X734467Y-9515889D02*
X724943Y-9477793D01*
X724943Y-9477793D02*
X724943Y-9430174D01*
X724943Y-9430174D02*
X734467Y-9392079D01*
X734467Y-9392079D02*
X743991Y-9373031D01*
X743991Y-9373031D02*
X753515Y-9363508D01*
X753515Y-9363508D02*
X772562Y-9353984D01*
X963039Y-9353984D02*
X982086Y-9353984D01*
X982086Y-9353984D02*
X1001134Y-9363508D01*
X1001134Y-9363508D02*
X1010658Y-9373031D01*
X1010658Y-9373031D02*
X1020182Y-9392079D01*
X1020182Y-9392079D02*
X1029705Y-9430174D01*
X1029705Y-9430174D02*
X1029705Y-9477793D01*
X1029705Y-9477793D02*
X1020182Y-9515889D01*
X1020182Y-9515889D02*
X1010658Y-9534936D01*
X1010658Y-9534936D02*
X1001134Y-9544460D01*
X1001134Y-9544460D02*
X982086Y-9553984D01*
X982086Y-9553984D02*
X963039Y-9553984D01*
X963039Y-9553984D02*
X943991Y-9544460D01*
X943991Y-9544460D02*
X934467Y-9534936D01*
X934467Y-9534936D02*
X924943Y-9515889D01*
X924943Y-9515889D02*
X915420Y-9477793D01*
X915420Y-9477793D02*
X915420Y-9430174D01*
X915420Y-9430174D02*
X924943Y-9392079D01*
X924943Y-9392079D02*
X934467Y-9373031D01*
X934467Y-9373031D02*
X943991Y-9363508D01*
X943991Y-9363508D02*
X963039Y-9353984D01*
X1115420Y-9553984D02*
X1115420Y-9420650D01*
X1115420Y-9439698D02*
X1124944Y-9430174D01*
X1124944Y-9430174D02*
X1143991Y-9420650D01*
X1143991Y-9420650D02*
X1172563Y-9420650D01*
X1172563Y-9420650D02*
X1191610Y-9430174D01*
X1191610Y-9430174D02*
X1201134Y-9449222D01*
X1201134Y-9449222D02*
X1201134Y-9553984D01*
X1201134Y-9449222D02*
X1210658Y-9430174D01*
X1210658Y-9430174D02*
X1229705Y-9420650D01*
X1229705Y-9420650D02*
X1258277Y-9420650D01*
X1258277Y-9420650D02*
X1277325Y-9430174D01*
X1277325Y-9430174D02*
X1286848Y-9449222D01*
X1286848Y-9449222D02*
X1286848Y-9553984D01*
X1382086Y-9553984D02*
X1382086Y-9420650D01*
X1382086Y-9439698D02*
X1391610Y-9430174D01*
X1391610Y-9430174D02*
X1410658Y-9420650D01*
X1410658Y-9420650D02*
X1439229Y-9420650D01*
X1439229Y-9420650D02*
X1458277Y-9430174D01*
X1458277Y-9430174D02*
X1467801Y-9449222D01*
X1467801Y-9449222D02*
X1467801Y-9553984D01*
X1467801Y-9449222D02*
X1477324Y-9430174D01*
X1477324Y-9430174D02*
X1496372Y-9420650D01*
X1496372Y-9420650D02*
X1524943Y-9420650D01*
X1524943Y-9420650D02*
X1543991Y-9430174D01*
X1543991Y-9430174D02*
X1553515Y-9449222D01*
X1553515Y-9449222D02*
X1553515Y-9553984D01*
X1943991Y-9344460D02*
X1772563Y-9601603D01*
X2201134Y-9353984D02*
X2220182Y-9353984D01*
X2220182Y-9353984D02*
X2239229Y-9363508D01*
X2239229Y-9363508D02*
X2248753Y-9373031D01*
X2248753Y-9373031D02*
X2258277Y-9392079D01*
X2258277Y-9392079D02*
X2267801Y-9430174D01*
X2267801Y-9430174D02*
X2267801Y-9477793D01*
X2267801Y-9477793D02*
X2258277Y-9515889D01*
X2258277Y-9515889D02*
X2248753Y-9534936D01*
X2248753Y-9534936D02*
X2239229Y-9544460D01*
X2239229Y-9544460D02*
X2220182Y-9553984D01*
X2220182Y-9553984D02*
X2201134Y-9553984D01*
X2201134Y-9553984D02*
X2182087Y-9544460D01*
X2182087Y-9544460D02*
X2172563Y-9534936D01*
X2172563Y-9534936D02*
X2163039Y-9515889D01*
X2163039Y-9515889D02*
X2153515Y-9477793D01*
X2153515Y-9477793D02*
X2153515Y-9430174D01*
X2153515Y-9430174D02*
X2163039Y-9392079D01*
X2163039Y-9392079D02*
X2172563Y-9373031D01*
X2172563Y-9373031D02*
X2182087Y-9363508D01*
X2182087Y-9363508D02*
X2201134Y-9353984D01*
X2353515Y-9534936D02*
X2363039Y-9544460D01*
X2363039Y-9544460D02*
X2353515Y-9553984D01*
X2353515Y-9553984D02*
X2343991Y-9544460D01*
X2343991Y-9544460D02*
X2353515Y-9534936D01*
X2353515Y-9534936D02*
X2353515Y-9553984D01*
X2486848Y-9353984D02*
X2505896Y-9353984D01*
X2505896Y-9353984D02*
X2524944Y-9363508D01*
X2524944Y-9363508D02*
X2534468Y-9373031D01*
X2534468Y-9373031D02*
X2543991Y-9392079D01*
X2543991Y-9392079D02*
X2553515Y-9430174D01*
X2553515Y-9430174D02*
X2553515Y-9477793D01*
X2553515Y-9477793D02*
X2543991Y-9515889D01*
X2543991Y-9515889D02*
X2534468Y-9534936D01*
X2534468Y-9534936D02*
X2524944Y-9544460D01*
X2524944Y-9544460D02*
X2505896Y-9553984D01*
X2505896Y-9553984D02*
X2486848Y-9553984D01*
X2486848Y-9553984D02*
X2467801Y-9544460D01*
X2467801Y-9544460D02*
X2458277Y-9534936D01*
X2458277Y-9534936D02*
X2448753Y-9515889D01*
X2448753Y-9515889D02*
X2439229Y-9477793D01*
X2439229Y-9477793D02*
X2439229Y-9430174D01*
X2439229Y-9430174D02*
X2448753Y-9392079D01*
X2448753Y-9392079D02*
X2458277Y-9373031D01*
X2458277Y-9373031D02*
X2467801Y-9363508D01*
X2467801Y-9363508D02*
X2486848Y-9353984D01*
X2648753Y-9553984D02*
X2686848Y-9553984D01*
X2686848Y-9553984D02*
X2705896Y-9544460D01*
X2705896Y-9544460D02*
X2715420Y-9534936D01*
X2715420Y-9534936D02*
X2734468Y-9506365D01*
X2734468Y-9506365D02*
X2743991Y-9468270D01*
X2743991Y-9468270D02*
X2743991Y-9392079D01*
X2743991Y-9392079D02*
X2734468Y-9373031D01*
X2734468Y-9373031D02*
X2724944Y-9363508D01*
X2724944Y-9363508D02*
X2705896Y-9353984D01*
X2705896Y-9353984D02*
X2667801Y-9353984D01*
X2667801Y-9353984D02*
X2648753Y-9363508D01*
X2648753Y-9363508D02*
X2639229Y-9373031D01*
X2639229Y-9373031D02*
X2629706Y-9392079D01*
X2629706Y-9392079D02*
X2629706Y-9439698D01*
X2629706Y-9439698D02*
X2639229Y-9458746D01*
X2639229Y-9458746D02*
X2648753Y-9468270D01*
X2648753Y-9468270D02*
X2667801Y-9477793D01*
X2667801Y-9477793D02*
X2705896Y-9477793D01*
X2705896Y-9477793D02*
X2724944Y-9468270D01*
X2724944Y-9468270D02*
X2734468Y-9458746D01*
X2734468Y-9458746D02*
X2743991Y-9439698D01*
X2858277Y-9439698D02*
X2839229Y-9430174D01*
X2839229Y-9430174D02*
X2829706Y-9420650D01*
X2829706Y-9420650D02*
X2820182Y-9401603D01*
X2820182Y-9401603D02*
X2820182Y-9392079D01*
X2820182Y-9392079D02*
X2829706Y-9373031D01*
X2829706Y-9373031D02*
X2839229Y-9363508D01*
X2839229Y-9363508D02*
X2858277Y-9353984D01*
X2858277Y-9353984D02*
X2896372Y-9353984D01*
X2896372Y-9353984D02*
X2915420Y-9363508D01*
X2915420Y-9363508D02*
X2924944Y-9373031D01*
X2924944Y-9373031D02*
X2934467Y-9392079D01*
X2934467Y-9392079D02*
X2934467Y-9401603D01*
X2934467Y-9401603D02*
X2924944Y-9420650D01*
X2924944Y-9420650D02*
X2915420Y-9430174D01*
X2915420Y-9430174D02*
X2896372Y-9439698D01*
X2896372Y-9439698D02*
X2858277Y-9439698D01*
X2858277Y-9439698D02*
X2839229Y-9449222D01*
X2839229Y-9449222D02*
X2829706Y-9458746D01*
X2829706Y-9458746D02*
X2820182Y-9477793D01*
X2820182Y-9477793D02*
X2820182Y-9515889D01*
X2820182Y-9515889D02*
X2829706Y-9534936D01*
X2829706Y-9534936D02*
X2839229Y-9544460D01*
X2839229Y-9544460D02*
X2858277Y-9553984D01*
X2858277Y-9553984D02*
X2896372Y-9553984D01*
X2896372Y-9553984D02*
X2915420Y-9544460D01*
X2915420Y-9544460D02*
X2924944Y-9534936D01*
X2924944Y-9534936D02*
X2934467Y-9515889D01*
X2934467Y-9515889D02*
X2934467Y-9477793D01*
X2934467Y-9477793D02*
X2924944Y-9458746D01*
X2924944Y-9458746D02*
X2915420Y-9449222D01*
X2915420Y-9449222D02*
X2896372Y-9439698D01*
X3105896Y-9420650D02*
X3105896Y-9553984D01*
X3058277Y-9344460D02*
X3010658Y-9487317D01*
X3010658Y-9487317D02*
X3134467Y-9487317D01*
X3201134Y-9353984D02*
X3201134Y-9392079D01*
X3277325Y-9353984D02*
X3277325Y-9392079D01*
X3572563Y-9630174D02*
X3563039Y-9620650D01*
X3563039Y-9620650D02*
X3543991Y-9592079D01*
X3543991Y-9592079D02*
X3534468Y-9573031D01*
X3534468Y-9573031D02*
X3524944Y-9544460D01*
X3524944Y-9544460D02*
X3515420Y-9496841D01*
X3515420Y-9496841D02*
X3515420Y-9458746D01*
X3515420Y-9458746D02*
X3524944Y-9411127D01*
X3524944Y-9411127D02*
X3534468Y-9382555D01*
X3534468Y-9382555D02*
X3543991Y-9363508D01*
X3543991Y-9363508D02*
X3563039Y-9334936D01*
X3563039Y-9334936D02*
X3572563Y-9325412D01*
X3734468Y-9353984D02*
X3696372Y-9353984D01*
X3696372Y-9353984D02*
X3677325Y-9363508D01*
X3677325Y-9363508D02*
X3667801Y-9373031D01*
X3667801Y-9373031D02*
X3648753Y-9401603D01*
X3648753Y-9401603D02*
X3639229Y-9439698D01*
X3639229Y-9439698D02*
X3639229Y-9515889D01*
X3639229Y-9515889D02*
X3648753Y-9534936D01*
X3648753Y-9534936D02*
X3658277Y-9544460D01*
X3658277Y-9544460D02*
X3677325Y-9553984D01*
X3677325Y-9553984D02*
X3715420Y-9553984D01*
X3715420Y-9553984D02*
X3734468Y-9544460D01*
X3734468Y-9544460D02*
X3743991Y-9534936D01*
X3743991Y-9534936D02*
X3753515Y-9515889D01*
X3753515Y-9515889D02*
X3753515Y-9468270D01*
X3753515Y-9468270D02*
X3743991Y-9449222D01*
X3743991Y-9449222D02*
X3734468Y-9439698D01*
X3734468Y-9439698D02*
X3715420Y-9430174D01*
X3715420Y-9430174D02*
X3677325Y-9430174D01*
X3677325Y-9430174D02*
X3658277Y-9439698D01*
X3658277Y-9439698D02*
X3648753Y-9449222D01*
X3648753Y-9449222D02*
X3639229Y-9468270D01*
X3991610Y-9553984D02*
X3991610Y-9353984D01*
X4077325Y-9553984D02*
X4077325Y-9449222D01*
X4077325Y-9449222D02*
X4067801Y-9430174D01*
X4067801Y-9430174D02*
X4048753Y-9420650D01*
X4048753Y-9420650D02*
X4020182Y-9420650D01*
X4020182Y-9420650D02*
X4001134Y-9430174D01*
X4001134Y-9430174D02*
X3991610Y-9439698D01*
X4201134Y-9553984D02*
X4182087Y-9544460D01*
X4182087Y-9544460D02*
X4172563Y-9534936D01*
X4172563Y-9534936D02*
X4163039Y-9515889D01*
X4163039Y-9515889D02*
X4163039Y-9458746D01*
X4163039Y-9458746D02*
X4172563Y-9439698D01*
X4172563Y-9439698D02*
X4182087Y-9430174D01*
X4182087Y-9430174D02*
X4201134Y-9420650D01*
X4201134Y-9420650D02*
X4229706Y-9420650D01*
X4229706Y-9420650D02*
X4248753Y-9430174D01*
X4248753Y-9430174D02*
X4258277Y-9439698D01*
X4258277Y-9439698D02*
X4267801Y-9458746D01*
X4267801Y-9458746D02*
X4267801Y-9515889D01*
X4267801Y-9515889D02*
X4258277Y-9534936D01*
X4258277Y-9534936D02*
X4248753Y-9544460D01*
X4248753Y-9544460D02*
X4229706Y-9553984D01*
X4229706Y-9553984D02*
X4201134Y-9553984D01*
X4382087Y-9553984D02*
X4363039Y-9544460D01*
X4363039Y-9544460D02*
X4353515Y-9525412D01*
X4353515Y-9525412D02*
X4353515Y-9353984D01*
X4534468Y-9544460D02*
X4515420Y-9553984D01*
X4515420Y-9553984D02*
X4477325Y-9553984D01*
X4477325Y-9553984D02*
X4458277Y-9544460D01*
X4458277Y-9544460D02*
X4448753Y-9525412D01*
X4448753Y-9525412D02*
X4448753Y-9449222D01*
X4448753Y-9449222D02*
X4458277Y-9430174D01*
X4458277Y-9430174D02*
X4477325Y-9420650D01*
X4477325Y-9420650D02*
X4515420Y-9420650D01*
X4515420Y-9420650D02*
X4534468Y-9430174D01*
X4534468Y-9430174D02*
X4543992Y-9449222D01*
X4543992Y-9449222D02*
X4543992Y-9468270D01*
X4543992Y-9468270D02*
X4448753Y-9487317D01*
X4620182Y-9544460D02*
X4639230Y-9553984D01*
X4639230Y-9553984D02*
X4677325Y-9553984D01*
X4677325Y-9553984D02*
X4696373Y-9544460D01*
X4696373Y-9544460D02*
X4705896Y-9525412D01*
X4705896Y-9525412D02*
X4705896Y-9515889D01*
X4705896Y-9515889D02*
X4696373Y-9496841D01*
X4696373Y-9496841D02*
X4677325Y-9487317D01*
X4677325Y-9487317D02*
X4648753Y-9487317D01*
X4648753Y-9487317D02*
X4629706Y-9477793D01*
X4629706Y-9477793D02*
X4620182Y-9458746D01*
X4620182Y-9458746D02*
X4620182Y-9449222D01*
X4620182Y-9449222D02*
X4629706Y-9430174D01*
X4629706Y-9430174D02*
X4648753Y-9420650D01*
X4648753Y-9420650D02*
X4677325Y-9420650D01*
X4677325Y-9420650D02*
X4696373Y-9430174D01*
X4772563Y-9630174D02*
X4782087Y-9620650D01*
X4782087Y-9620650D02*
X4801134Y-9592079D01*
X4801134Y-9592079D02*
X4810658Y-9573031D01*
X4810658Y-9573031D02*
X4820182Y-9544460D01*
X4820182Y-9544460D02*
X4829706Y-9496841D01*
X4829706Y-9496841D02*
X4829706Y-9458746D01*
X4829706Y-9458746D02*
X4820182Y-9411127D01*
X4820182Y-9411127D02*
X4810658Y-9382555D01*
X4810658Y-9382555D02*
X4801134Y-9363508D01*
X4801134Y-9363508D02*
X4782087Y-9334936D01*
X4782087Y-9334936D02*
X4772563Y-9325412D01*
X5134468Y-9630174D02*
X5124944Y-9620650D01*
X5124944Y-9620650D02*
X5105896Y-9592079D01*
X5105896Y-9592079D02*
X5096373Y-9573031D01*
X5096373Y-9573031D02*
X5086849Y-9544460D01*
X5086849Y-9544460D02*
X5077325Y-9496841D01*
X5077325Y-9496841D02*
X5077325Y-9458746D01*
X5077325Y-9458746D02*
X5086849Y-9411127D01*
X5086849Y-9411127D02*
X5096373Y-9382555D01*
X5096373Y-9382555D02*
X5105896Y-9363508D01*
X5105896Y-9363508D02*
X5124944Y-9334936D01*
X5124944Y-9334936D02*
X5134468Y-9325412D01*
X5210658Y-9420650D02*
X5210658Y-9553984D01*
X5210658Y-9439698D02*
X5220182Y-9430174D01*
X5220182Y-9430174D02*
X5239230Y-9420650D01*
X5239230Y-9420650D02*
X5267801Y-9420650D01*
X5267801Y-9420650D02*
X5286849Y-9430174D01*
X5286849Y-9430174D02*
X5296373Y-9449222D01*
X5296373Y-9449222D02*
X5296373Y-9553984D01*
X5420182Y-9553984D02*
X5401134Y-9544460D01*
X5401134Y-9544460D02*
X5391611Y-9534936D01*
X5391611Y-9534936D02*
X5382087Y-9515889D01*
X5382087Y-9515889D02*
X5382087Y-9458746D01*
X5382087Y-9458746D02*
X5391611Y-9439698D01*
X5391611Y-9439698D02*
X5401134Y-9430174D01*
X5401134Y-9430174D02*
X5420182Y-9420650D01*
X5420182Y-9420650D02*
X5448754Y-9420650D01*
X5448754Y-9420650D02*
X5467801Y-9430174D01*
X5467801Y-9430174D02*
X5477325Y-9439698D01*
X5477325Y-9439698D02*
X5486849Y-9458746D01*
X5486849Y-9458746D02*
X5486849Y-9515889D01*
X5486849Y-9515889D02*
X5477325Y-9534936D01*
X5477325Y-9534936D02*
X5467801Y-9544460D01*
X5467801Y-9544460D02*
X5448754Y-9553984D01*
X5448754Y-9553984D02*
X5420182Y-9553984D01*
X5543992Y-9420650D02*
X5620182Y-9420650D01*
X5572563Y-9353984D02*
X5572563Y-9525412D01*
X5572563Y-9525412D02*
X5582087Y-9544460D01*
X5582087Y-9544460D02*
X5601134Y-9553984D01*
X5601134Y-9553984D02*
X5620182Y-9553984D01*
X5839230Y-9420650D02*
X5839230Y-9620650D01*
X5839230Y-9430174D02*
X5858277Y-9420650D01*
X5858277Y-9420650D02*
X5896373Y-9420650D01*
X5896373Y-9420650D02*
X5915420Y-9430174D01*
X5915420Y-9430174D02*
X5924944Y-9439698D01*
X5924944Y-9439698D02*
X5934468Y-9458746D01*
X5934468Y-9458746D02*
X5934468Y-9515889D01*
X5934468Y-9515889D02*
X5924944Y-9534936D01*
X5924944Y-9534936D02*
X5915420Y-9544460D01*
X5915420Y-9544460D02*
X5896373Y-9553984D01*
X5896373Y-9553984D02*
X5858277Y-9553984D01*
X5858277Y-9553984D02*
X5839230Y-9544460D01*
X6048753Y-9553984D02*
X6029706Y-9544460D01*
X6029706Y-9544460D02*
X6020182Y-9525412D01*
X6020182Y-9525412D02*
X6020182Y-9353984D01*
X6210658Y-9553984D02*
X6210658Y-9449222D01*
X6210658Y-9449222D02*
X6201134Y-9430174D01*
X6201134Y-9430174D02*
X6182087Y-9420650D01*
X6182087Y-9420650D02*
X6143992Y-9420650D01*
X6143992Y-9420650D02*
X6124944Y-9430174D01*
X6210658Y-9544460D02*
X6191611Y-9553984D01*
X6191611Y-9553984D02*
X6143992Y-9553984D01*
X6143992Y-9553984D02*
X6124944Y-9544460D01*
X6124944Y-9544460D02*
X6115420Y-9525412D01*
X6115420Y-9525412D02*
X6115420Y-9506365D01*
X6115420Y-9506365D02*
X6124944Y-9487317D01*
X6124944Y-9487317D02*
X6143992Y-9477793D01*
X6143992Y-9477793D02*
X6191611Y-9477793D01*
X6191611Y-9477793D02*
X6210658Y-9468270D01*
X6277325Y-9420650D02*
X6353515Y-9420650D01*
X6305896Y-9353984D02*
X6305896Y-9525412D01*
X6305896Y-9525412D02*
X6315420Y-9544460D01*
X6315420Y-9544460D02*
X6334468Y-9553984D01*
X6334468Y-9553984D02*
X6353515Y-9553984D01*
X6496373Y-9544460D02*
X6477325Y-9553984D01*
X6477325Y-9553984D02*
X6439230Y-9553984D01*
X6439230Y-9553984D02*
X6420182Y-9544460D01*
X6420182Y-9544460D02*
X6410658Y-9525412D01*
X6410658Y-9525412D02*
X6410658Y-9449222D01*
X6410658Y-9449222D02*
X6420182Y-9430174D01*
X6420182Y-9430174D02*
X6439230Y-9420650D01*
X6439230Y-9420650D02*
X6477325Y-9420650D01*
X6477325Y-9420650D02*
X6496373Y-9430174D01*
X6496373Y-9430174D02*
X6505896Y-9449222D01*
X6505896Y-9449222D02*
X6505896Y-9468270D01*
X6505896Y-9468270D02*
X6410658Y-9487317D01*
X6677325Y-9553984D02*
X6677325Y-9353984D01*
X6677325Y-9544460D02*
X6658277Y-9553984D01*
X6658277Y-9553984D02*
X6620182Y-9553984D01*
X6620182Y-9553984D02*
X6601134Y-9544460D01*
X6601134Y-9544460D02*
X6591611Y-9534936D01*
X6591611Y-9534936D02*
X6582087Y-9515889D01*
X6582087Y-9515889D02*
X6582087Y-9458746D01*
X6582087Y-9458746D02*
X6591611Y-9439698D01*
X6591611Y-9439698D02*
X6601134Y-9430174D01*
X6601134Y-9430174D02*
X6620182Y-9420650D01*
X6620182Y-9420650D02*
X6658277Y-9420650D01*
X6658277Y-9420650D02*
X6677325Y-9430174D01*
X6753515Y-9630174D02*
X6763039Y-9620650D01*
X6763039Y-9620650D02*
X6782087Y-9592079D01*
X6782087Y-9592079D02*
X6791611Y-9573031D01*
X6791611Y-9573031D02*
X6801134Y-9544460D01*
X6801134Y-9544460D02*
X6810658Y-9496841D01*
X6810658Y-9496841D02*
X6810658Y-9458746D01*
X6810658Y-9458746D02*
X6801134Y-9411127D01*
X6801134Y-9411127D02*
X6791611Y-9382555D01*
X6791611Y-9382555D02*
X6782087Y-9363508D01*
X6782087Y-9363508D02*
X6763039Y-9334936D01*
X6763039Y-9334936D02*
X6753515Y-9325412D01*
M02*
