%TF.GenerationSoftware,KiCad,Pcbnew,9.0.7*%
%TF.CreationDate,2026-02-27T01:04:09+01:00*%
%TF.ProjectId,esp32-emu-turbo,65737033-322d-4656-9d75-2d747572626f,rev?*%
%TF.SameCoordinates,Original*%
%TF.FileFunction,Plated,1,4,PTH,Drill*%
%TF.FilePolarity,Positive*%
%FSLAX46Y46*%
G04 Gerber Fmt 4.6, Leading zero omitted, Abs format (unit mm)*
G04 Created by KiCad (PCBNEW 9.0.7) date 2026-02-27 01:04:09*
%MOMM*%
%LPD*%
G01*
G04 APERTURE LIST*
%TA.AperFunction,ViaDrill*%
%ADD10C,0.300000*%
%TD*%
%TA.AperFunction,ViaDrill*%
%ADD11C,0.350000*%
%TD*%
%TA.AperFunction,ComponentDrill*%
%ADD12C,0.800000*%
%TD*%
%TA.AperFunction,ComponentDrill*%
%ADD13C,0.850000*%
%TD*%
%TA.AperFunction,ComponentDrill*%
%ADD14C,2.500000*%
%TD*%
G04 APERTURE END LIST*
D10*
X5000000Y-57350000D03*
X6000000Y-35350000D03*
X15000000Y-26350000D03*
X15000000Y-44350000D03*
X24000000Y-35350000D03*
X25000000Y-57350000D03*
X109700000Y-18000000D03*
X109700000Y-28400000D03*
X110800000Y-17000000D03*
X110800000Y-29600000D03*
X111900000Y-16000000D03*
X111900000Y-30800000D03*
X113000000Y-15000000D03*
X113000000Y-32000000D03*
X114100000Y-14000000D03*
X114100000Y-33200000D03*
X115200000Y-13000000D03*
X115200000Y-34400000D03*
X116300000Y-12000000D03*
X116300000Y-35600000D03*
X117400000Y-11000000D03*
X117400000Y-36800000D03*
X118500000Y-10000000D03*
X118500000Y-38000000D03*
X119600000Y-9000000D03*
X119600000Y-36210000D03*
X120700000Y-8000000D03*
X120700000Y-29860000D03*
X121800000Y-7000000D03*
X121800000Y-28590000D03*
X122900000Y-6000000D03*
X122900000Y-27320000D03*
X124000000Y-5000000D03*
X124000000Y-26050000D03*
X130000000Y-37250000D03*
X131000000Y-36750000D03*
X132000000Y-36250000D03*
X133000000Y-35750000D03*
X133850000Y-23750000D03*
X133850000Y-25250000D03*
X133850000Y-27750000D03*
X133850000Y-30250000D03*
X133850000Y-39750000D03*
X133850000Y-43250000D03*
X133850000Y-44250000D03*
X134000000Y-35250000D03*
X135000000Y-34750000D03*
X136000000Y-34250000D03*
X137000000Y-33750000D03*
X137000000Y-35350000D03*
X138000000Y-38250000D03*
X139000000Y-41250000D03*
X139850000Y-28250000D03*
X139850000Y-30750000D03*
X139850000Y-39750000D03*
X140000000Y-40750000D03*
X140850000Y-25750000D03*
X141000000Y-40250000D03*
X142000000Y-39750000D03*
X143000000Y-29250000D03*
X145000000Y-25350000D03*
X145000000Y-45350000D03*
X155000000Y-35350000D03*
D11*
X12000000Y-52650000D03*
X12000000Y-70000000D03*
X13000000Y-30650000D03*
X13000000Y-64000000D03*
X13150000Y-68000000D03*
X17850000Y-2500000D03*
X20500000Y-21000000D03*
X22000000Y-21650000D03*
X22000000Y-62000000D03*
X23000000Y-39650000D03*
X23000000Y-63000000D03*
X24050000Y-66250000D03*
X25950000Y-63000000D03*
X26825000Y-33670000D03*
X27450000Y-67500000D03*
X28095000Y-24800000D03*
X28095000Y-34200000D03*
X30635000Y-24800000D03*
X31000000Y-30650000D03*
X31000000Y-65000000D03*
X31050000Y-66250000D03*
X31905000Y-21000000D03*
X32000000Y-52650000D03*
X32000000Y-71000000D03*
X32950000Y-63000000D03*
X33175000Y-24800000D03*
X33175000Y-34200000D03*
X34450000Y-67500000D03*
X35945000Y-22500000D03*
X39250000Y-68050000D03*
X39500000Y-22500000D03*
X42050000Y-45000000D03*
X42050000Y-52000000D03*
X47050000Y-45000000D03*
X47050000Y-52000000D03*
X50000000Y-19000000D03*
X50000000Y-36210000D03*
X51000000Y-20000000D03*
X51000000Y-34940000D03*
X52000000Y-21000000D03*
X52000000Y-33670000D03*
X52050000Y-45000000D03*
X52050000Y-52000000D03*
X53000000Y-22000000D03*
X53000000Y-32400000D03*
X57050000Y-45000000D03*
X57050000Y-52000000D03*
X60250000Y-35000000D03*
X60250000Y-71000000D03*
X62050000Y-45000000D03*
X62050000Y-52000000D03*
X65150000Y-26050000D03*
X65150000Y-66000000D03*
X66150000Y-27320000D03*
X66150000Y-65000000D03*
X67050000Y-45000000D03*
X67050000Y-52000000D03*
X67150000Y-28590000D03*
X67150000Y-64000000D03*
X68150000Y-29860000D03*
X68150000Y-63000000D03*
X68250000Y-32400000D03*
X68750000Y-33670000D03*
X69050000Y-40000000D03*
X69250000Y-34940000D03*
X69250000Y-68000000D03*
X69750000Y-31130000D03*
X69750000Y-36210000D03*
X69750000Y-62000000D03*
X70750000Y-38000000D03*
X70750000Y-67000000D03*
X70950000Y-41000000D03*
X71250000Y-26050000D03*
X71250000Y-27320000D03*
X71250000Y-28590000D03*
X71250000Y-29860000D03*
X71250000Y-31130000D03*
X71250000Y-35000000D03*
X71750000Y-36000000D03*
X71750000Y-37000000D03*
X71750000Y-68000000D03*
X71750000Y-69000000D03*
X72050000Y-45000000D03*
X72050000Y-52000000D03*
X73015000Y-28400000D03*
X73050000Y-66255000D03*
X74285000Y-38000000D03*
X75555000Y-37000000D03*
X76800000Y-66255000D03*
X76825000Y-36000000D03*
X77000000Y-57500000D03*
X77050000Y-45000000D03*
X77050000Y-52000000D03*
X78095000Y-32000000D03*
X79365000Y-34400000D03*
X79750000Y-64255000D03*
X80250000Y-65255000D03*
X80635000Y-33200000D03*
X81000000Y-46135000D03*
X81500000Y-31960000D03*
X81905000Y-35600000D03*
X82050000Y-45000000D03*
X82050000Y-52000000D03*
X82400000Y-66255000D03*
X83175000Y-36800000D03*
X84050000Y-40000000D03*
X84445000Y-38000000D03*
X85050000Y-66255000D03*
X85715000Y-30800000D03*
X85950000Y-41000000D03*
X86985000Y-29600000D03*
X87050000Y-45000000D03*
X87050000Y-52000000D03*
X87250000Y-33670000D03*
X88750000Y-21510000D03*
X88750000Y-34940000D03*
X90750000Y-26050000D03*
X90750000Y-27320000D03*
X90750000Y-28590000D03*
X90750000Y-29860000D03*
X90750000Y-36210000D03*
X90750000Y-65255000D03*
X91750000Y-64255000D03*
X92050000Y-45000000D03*
X92050000Y-52000000D03*
X97050000Y-45000000D03*
X97050000Y-52000000D03*
X98000000Y-49350000D03*
X98150000Y-34940000D03*
X98150000Y-70000000D03*
X102050000Y-45000000D03*
X102050000Y-52000000D03*
X107000000Y-38595000D03*
X107000000Y-46135000D03*
X108500000Y-60500000D03*
X109050000Y-37000000D03*
X110000000Y-45500000D03*
X110950000Y-33000000D03*
X111000000Y-40595000D03*
X111500000Y-56500000D03*
X111700000Y-50500000D03*
X115050000Y-39500000D03*
X115950000Y-54500000D03*
X116950000Y-35500000D03*
X121050000Y-46500000D03*
X122700000Y-56650000D03*
X122950000Y-46500000D03*
X123000000Y-49350000D03*
X123500000Y-64500000D03*
X127300000Y-60650000D03*
X130000000Y-30650000D03*
X130000000Y-69000000D03*
X135000000Y-61550000D03*
X136000000Y-60550000D03*
X137000000Y-59550000D03*
X138000000Y-20650000D03*
X138000000Y-58550000D03*
X138000000Y-66000000D03*
X139000000Y-40650000D03*
X139000000Y-68000000D03*
X148000000Y-30650000D03*
X148000000Y-67000000D03*
D12*
%TO.C,J1*%
X75680000Y-68895000D03*
X75680000Y-73075000D03*
X84320000Y-68895000D03*
X84320000Y-73075000D03*
D13*
%TO.C,J3*%
X79000000Y-57500000D03*
X81000000Y-57500000D03*
D14*
%TO.C,*%
X10000000Y-7000000D03*
X10000000Y-68000000D03*
X55000000Y-37500000D03*
X105000000Y-37500000D03*
X150000000Y-7000000D03*
X150000000Y-68000000D03*
M02*
