%TF.GenerationSoftware,KiCad,Pcbnew,10.0.5*%
%TF.CreationDate,2026-08-04T06:27:57+02:00*%
%TF.ProjectId,esp32-emu-turbo,65737033-322d-4656-9d75-2d747572626f,rev?*%
%TF.SameCoordinates,Original*%
%TF.FileFunction,Legend,Top*%
%TF.FilePolarity,Positive*%
%FSLAX46Y46*%
G04 Gerber Fmt 4.6, Leading zero omitted, Abs format (unit mm)*
G04 Created by KiCad (PCBNEW 10.0.5) date 2026-08-04 06:27:57*
%MOMM*%
%LPD*%
G01*
G04 APERTURE LIST*
%ADD10C,0.200000*%
G04 APERTURE END LIST*
D10*
X15690476Y-12952219D02*
X15690476Y-11952219D01*
X15690476Y-11952219D02*
X15928571Y-11952219D01*
X15928571Y-11952219D02*
X16071428Y-11999838D01*
X16071428Y-11999838D02*
X16166666Y-12095076D01*
X16166666Y-12095076D02*
X16214285Y-12190314D01*
X16214285Y-12190314D02*
X16261904Y-12380790D01*
X16261904Y-12380790D02*
X16261904Y-12523647D01*
X16261904Y-12523647D02*
X16214285Y-12714123D01*
X16214285Y-12714123D02*
X16166666Y-12809361D01*
X16166666Y-12809361D02*
X16071428Y-12904600D01*
X16071428Y-12904600D02*
X15928571Y-12952219D01*
X15928571Y-12952219D02*
X15690476Y-12952219D01*
X16690476Y-12571266D02*
X17452381Y-12571266D01*
X17928571Y-12952219D02*
X17928571Y-11952219D01*
X17928571Y-11952219D02*
X18309523Y-11952219D01*
X18309523Y-11952219D02*
X18404761Y-11999838D01*
X18404761Y-11999838D02*
X18452380Y-12047457D01*
X18452380Y-12047457D02*
X18499999Y-12142695D01*
X18499999Y-12142695D02*
X18499999Y-12285552D01*
X18499999Y-12285552D02*
X18452380Y-12380790D01*
X18452380Y-12380790D02*
X18404761Y-12428409D01*
X18404761Y-12428409D02*
X18309523Y-12476028D01*
X18309523Y-12476028D02*
X17928571Y-12476028D01*
X18880952Y-12666504D02*
X19357142Y-12666504D01*
X18785714Y-12952219D02*
X19119047Y-11952219D01*
X19119047Y-11952219D02*
X19452380Y-12952219D01*
X19785714Y-12952219D02*
X19785714Y-11952219D01*
X19785714Y-11952219D02*
X20023809Y-11952219D01*
X20023809Y-11952219D02*
X20166666Y-11999838D01*
X20166666Y-11999838D02*
X20261904Y-12095076D01*
X20261904Y-12095076D02*
X20309523Y-12190314D01*
X20309523Y-12190314D02*
X20357142Y-12380790D01*
X20357142Y-12380790D02*
X20357142Y-12523647D01*
X20357142Y-12523647D02*
X20309523Y-12714123D01*
X20309523Y-12714123D02*
X20261904Y-12809361D01*
X20261904Y-12809361D02*
X20166666Y-12904600D01*
X20166666Y-12904600D02*
X20023809Y-12952219D01*
X20023809Y-12952219D02*
X19785714Y-12952219D01*
X140357143Y-12666504D02*
X140833333Y-12666504D01*
X140261905Y-12952219D02*
X140595238Y-11952219D01*
X140595238Y-11952219D02*
X140928571Y-12952219D01*
X141595238Y-12428409D02*
X141738095Y-12476028D01*
X141738095Y-12476028D02*
X141785714Y-12523647D01*
X141785714Y-12523647D02*
X141833333Y-12618885D01*
X141833333Y-12618885D02*
X141833333Y-12761742D01*
X141833333Y-12761742D02*
X141785714Y-12856980D01*
X141785714Y-12856980D02*
X141738095Y-12904600D01*
X141738095Y-12904600D02*
X141642857Y-12952219D01*
X141642857Y-12952219D02*
X141261905Y-12952219D01*
X141261905Y-12952219D02*
X141261905Y-11952219D01*
X141261905Y-11952219D02*
X141595238Y-11952219D01*
X141595238Y-11952219D02*
X141690476Y-11999838D01*
X141690476Y-11999838D02*
X141738095Y-12047457D01*
X141738095Y-12047457D02*
X141785714Y-12142695D01*
X141785714Y-12142695D02*
X141785714Y-12237933D01*
X141785714Y-12237933D02*
X141738095Y-12333171D01*
X141738095Y-12333171D02*
X141690476Y-12380790D01*
X141690476Y-12380790D02*
X141595238Y-12428409D01*
X141595238Y-12428409D02*
X141261905Y-12428409D01*
X142166667Y-11952219D02*
X142833333Y-12952219D01*
X142833333Y-11952219D02*
X142166667Y-12952219D01*
X143404762Y-12476028D02*
X143404762Y-12952219D01*
X143071429Y-11952219D02*
X143404762Y-12476028D01*
X143404762Y-12476028D02*
X143738095Y-11952219D01*
X137666667Y-67952219D02*
X137666667Y-66952219D01*
X137666667Y-66952219D02*
X138000000Y-67666504D01*
X138000000Y-67666504D02*
X138333333Y-66952219D01*
X138333333Y-66952219D02*
X138333333Y-67952219D01*
X138809524Y-67428409D02*
X139142857Y-67428409D01*
X139285714Y-67952219D02*
X138809524Y-67952219D01*
X138809524Y-67952219D02*
X138809524Y-66952219D01*
X138809524Y-66952219D02*
X139285714Y-66952219D01*
X139714286Y-67952219D02*
X139714286Y-66952219D01*
X139714286Y-66952219D02*
X140285714Y-67952219D01*
X140285714Y-67952219D02*
X140285714Y-66952219D01*
X140761905Y-66952219D02*
X140761905Y-67761742D01*
X140761905Y-67761742D02*
X140809524Y-67856980D01*
X140809524Y-67856980D02*
X140857143Y-67904600D01*
X140857143Y-67904600D02*
X140952381Y-67952219D01*
X140952381Y-67952219D02*
X141142857Y-67952219D01*
X141142857Y-67952219D02*
X141238095Y-67904600D01*
X141238095Y-67904600D02*
X141285714Y-67856980D01*
X141285714Y-67856980D02*
X141333333Y-67761742D01*
X141333333Y-67761742D02*
X141333333Y-66952219D01*
X24285714Y-70856980D02*
X24238095Y-70904600D01*
X24238095Y-70904600D02*
X24095238Y-70952219D01*
X24095238Y-70952219D02*
X24000000Y-70952219D01*
X24000000Y-70952219D02*
X23857143Y-70904600D01*
X23857143Y-70904600D02*
X23761905Y-70809361D01*
X23761905Y-70809361D02*
X23714286Y-70714123D01*
X23714286Y-70714123D02*
X23666667Y-70523647D01*
X23666667Y-70523647D02*
X23666667Y-70380790D01*
X23666667Y-70380790D02*
X23714286Y-70190314D01*
X23714286Y-70190314D02*
X23761905Y-70095076D01*
X23761905Y-70095076D02*
X23857143Y-69999838D01*
X23857143Y-69999838D02*
X24000000Y-69952219D01*
X24000000Y-69952219D02*
X24095238Y-69952219D01*
X24095238Y-69952219D02*
X24238095Y-69999838D01*
X24238095Y-69999838D02*
X24285714Y-70047457D01*
X24714286Y-70952219D02*
X24714286Y-69952219D01*
X24714286Y-70428409D02*
X25285714Y-70428409D01*
X25285714Y-70952219D02*
X25285714Y-69952219D01*
X26285714Y-69999838D02*
X26190476Y-69952219D01*
X26190476Y-69952219D02*
X26047619Y-69952219D01*
X26047619Y-69952219D02*
X25904762Y-69999838D01*
X25904762Y-69999838D02*
X25809524Y-70095076D01*
X25809524Y-70095076D02*
X25761905Y-70190314D01*
X25761905Y-70190314D02*
X25714286Y-70380790D01*
X25714286Y-70380790D02*
X25714286Y-70523647D01*
X25714286Y-70523647D02*
X25761905Y-70714123D01*
X25761905Y-70714123D02*
X25809524Y-70809361D01*
X25809524Y-70809361D02*
X25904762Y-70904600D01*
X25904762Y-70904600D02*
X26047619Y-70952219D01*
X26047619Y-70952219D02*
X26142857Y-70952219D01*
X26142857Y-70952219D02*
X26285714Y-70904600D01*
X26285714Y-70904600D02*
X26333333Y-70856980D01*
X26333333Y-70856980D02*
X26333333Y-70523647D01*
X26333333Y-70523647D02*
X26142857Y-70523647D01*
X30809523Y-70428409D02*
X30476190Y-70428409D01*
X30476190Y-70952219D02*
X30476190Y-69952219D01*
X30476190Y-69952219D02*
X30952380Y-69952219D01*
X31333333Y-69952219D02*
X31333333Y-70761742D01*
X31333333Y-70761742D02*
X31380952Y-70856980D01*
X31380952Y-70856980D02*
X31428571Y-70904600D01*
X31428571Y-70904600D02*
X31523809Y-70952219D01*
X31523809Y-70952219D02*
X31714285Y-70952219D01*
X31714285Y-70952219D02*
X31809523Y-70904600D01*
X31809523Y-70904600D02*
X31857142Y-70856980D01*
X31857142Y-70856980D02*
X31904761Y-70761742D01*
X31904761Y-70761742D02*
X31904761Y-69952219D01*
X32857142Y-70952219D02*
X32380952Y-70952219D01*
X32380952Y-70952219D02*
X32380952Y-69952219D01*
X33666666Y-70952219D02*
X33190476Y-70952219D01*
X33190476Y-70952219D02*
X33190476Y-69952219D01*
X130966667Y-55452219D02*
X131300000Y-56452219D01*
X131300000Y-56452219D02*
X131633333Y-55452219D01*
X132300000Y-55928409D02*
X132442857Y-55976028D01*
X132442857Y-55976028D02*
X132490476Y-56023647D01*
X132490476Y-56023647D02*
X132538095Y-56118885D01*
X132538095Y-56118885D02*
X132538095Y-56261742D01*
X132538095Y-56261742D02*
X132490476Y-56356980D01*
X132490476Y-56356980D02*
X132442857Y-56404600D01*
X132442857Y-56404600D02*
X132347619Y-56452219D01*
X132347619Y-56452219D02*
X131966667Y-56452219D01*
X131966667Y-56452219D02*
X131966667Y-55452219D01*
X131966667Y-55452219D02*
X132300000Y-55452219D01*
X132300000Y-55452219D02*
X132395238Y-55499838D01*
X132395238Y-55499838D02*
X132442857Y-55547457D01*
X132442857Y-55547457D02*
X132490476Y-55642695D01*
X132490476Y-55642695D02*
X132490476Y-55737933D01*
X132490476Y-55737933D02*
X132442857Y-55833171D01*
X132442857Y-55833171D02*
X132395238Y-55880790D01*
X132395238Y-55880790D02*
X132300000Y-55928409D01*
X132300000Y-55928409D02*
X131966667Y-55928409D01*
X132966667Y-55452219D02*
X132966667Y-56261742D01*
X132966667Y-56261742D02*
X133014286Y-56356980D01*
X133014286Y-56356980D02*
X133061905Y-56404600D01*
X133061905Y-56404600D02*
X133157143Y-56452219D01*
X133157143Y-56452219D02*
X133347619Y-56452219D01*
X133347619Y-56452219D02*
X133442857Y-56404600D01*
X133442857Y-56404600D02*
X133490476Y-56356980D01*
X133490476Y-56356980D02*
X133538095Y-56261742D01*
X133538095Y-56261742D02*
X133538095Y-55452219D01*
X133966667Y-56404600D02*
X134109524Y-56452219D01*
X134109524Y-56452219D02*
X134347619Y-56452219D01*
X134347619Y-56452219D02*
X134442857Y-56404600D01*
X134442857Y-56404600D02*
X134490476Y-56356980D01*
X134490476Y-56356980D02*
X134538095Y-56261742D01*
X134538095Y-56261742D02*
X134538095Y-56166504D01*
X134538095Y-56166504D02*
X134490476Y-56071266D01*
X134490476Y-56071266D02*
X134442857Y-56023647D01*
X134442857Y-56023647D02*
X134347619Y-55976028D01*
X134347619Y-55976028D02*
X134157143Y-55928409D01*
X134157143Y-55928409D02*
X134061905Y-55880790D01*
X134061905Y-55880790D02*
X134014286Y-55833171D01*
X134014286Y-55833171D02*
X133966667Y-55737933D01*
X133966667Y-55737933D02*
X133966667Y-55642695D01*
X133966667Y-55642695D02*
X134014286Y-55547457D01*
X134014286Y-55547457D02*
X134061905Y-55499838D01*
X134061905Y-55499838D02*
X134157143Y-55452219D01*
X134157143Y-55452219D02*
X134395238Y-55452219D01*
X134395238Y-55452219D02*
X134538095Y-55499838D01*
X138609523Y-55452219D02*
X138133333Y-55452219D01*
X138133333Y-55452219D02*
X138085714Y-55928409D01*
X138085714Y-55928409D02*
X138133333Y-55880790D01*
X138133333Y-55880790D02*
X138228571Y-55833171D01*
X138228571Y-55833171D02*
X138466666Y-55833171D01*
X138466666Y-55833171D02*
X138561904Y-55880790D01*
X138561904Y-55880790D02*
X138609523Y-55928409D01*
X138609523Y-55928409D02*
X138657142Y-56023647D01*
X138657142Y-56023647D02*
X138657142Y-56261742D01*
X138657142Y-56261742D02*
X138609523Y-56356980D01*
X138609523Y-56356980D02*
X138561904Y-56404600D01*
X138561904Y-56404600D02*
X138466666Y-56452219D01*
X138466666Y-56452219D02*
X138228571Y-56452219D01*
X138228571Y-56452219D02*
X138133333Y-56404600D01*
X138133333Y-56404600D02*
X138085714Y-56356980D01*
X138942857Y-55452219D02*
X139276190Y-56452219D01*
X139276190Y-56452219D02*
X139609523Y-55452219D01*
X143561905Y-55452219D02*
X144180952Y-55452219D01*
X144180952Y-55452219D02*
X143847619Y-55833171D01*
X143847619Y-55833171D02*
X143990476Y-55833171D01*
X143990476Y-55833171D02*
X144085714Y-55880790D01*
X144085714Y-55880790D02*
X144133333Y-55928409D01*
X144133333Y-55928409D02*
X144180952Y-56023647D01*
X144180952Y-56023647D02*
X144180952Y-56261742D01*
X144180952Y-56261742D02*
X144133333Y-56356980D01*
X144133333Y-56356980D02*
X144085714Y-56404600D01*
X144085714Y-56404600D02*
X143990476Y-56452219D01*
X143990476Y-56452219D02*
X143704762Y-56452219D01*
X143704762Y-56452219D02*
X143609524Y-56404600D01*
X143609524Y-56404600D02*
X143561905Y-56356980D01*
X144466667Y-55452219D02*
X144800000Y-56452219D01*
X144800000Y-56452219D02*
X145133333Y-55452219D01*
X145371429Y-55452219D02*
X145990476Y-55452219D01*
X145990476Y-55452219D02*
X145657143Y-55833171D01*
X145657143Y-55833171D02*
X145800000Y-55833171D01*
X145800000Y-55833171D02*
X145895238Y-55880790D01*
X145895238Y-55880790D02*
X145942857Y-55928409D01*
X145942857Y-55928409D02*
X145990476Y-56023647D01*
X145990476Y-56023647D02*
X145990476Y-56261742D01*
X145990476Y-56261742D02*
X145942857Y-56356980D01*
X145942857Y-56356980D02*
X145895238Y-56404600D01*
X145895238Y-56404600D02*
X145800000Y-56452219D01*
X145800000Y-56452219D02*
X145514286Y-56452219D01*
X145514286Y-56452219D02*
X145419048Y-56404600D01*
X145419048Y-56404600D02*
X145371429Y-56356980D01*
X150014286Y-56452219D02*
X150014286Y-55452219D01*
X150014286Y-55928409D02*
X150585714Y-55928409D01*
X150585714Y-56452219D02*
X150585714Y-55452219D01*
X151395238Y-55928409D02*
X151538095Y-55976028D01*
X151538095Y-55976028D02*
X151585714Y-56023647D01*
X151585714Y-56023647D02*
X151633333Y-56118885D01*
X151633333Y-56118885D02*
X151633333Y-56261742D01*
X151633333Y-56261742D02*
X151585714Y-56356980D01*
X151585714Y-56356980D02*
X151538095Y-56404600D01*
X151538095Y-56404600D02*
X151442857Y-56452219D01*
X151442857Y-56452219D02*
X151061905Y-56452219D01*
X151061905Y-56452219D02*
X151061905Y-55452219D01*
X151061905Y-55452219D02*
X151395238Y-55452219D01*
X151395238Y-55452219D02*
X151490476Y-55499838D01*
X151490476Y-55499838D02*
X151538095Y-55547457D01*
X151538095Y-55547457D02*
X151585714Y-55642695D01*
X151585714Y-55642695D02*
X151585714Y-55737933D01*
X151585714Y-55737933D02*
X151538095Y-55833171D01*
X151538095Y-55833171D02*
X151490476Y-55880790D01*
X151490476Y-55880790D02*
X151395238Y-55928409D01*
X151395238Y-55928409D02*
X151061905Y-55928409D01*
X103142857Y-73430457D02*
X103085714Y-73487600D01*
X103085714Y-73487600D02*
X102914286Y-73544742D01*
X102914286Y-73544742D02*
X102800000Y-73544742D01*
X102800000Y-73544742D02*
X102628571Y-73487600D01*
X102628571Y-73487600D02*
X102514286Y-73373314D01*
X102514286Y-73373314D02*
X102457143Y-73259028D01*
X102457143Y-73259028D02*
X102400000Y-73030457D01*
X102400000Y-73030457D02*
X102400000Y-72859028D01*
X102400000Y-72859028D02*
X102457143Y-72630457D01*
X102457143Y-72630457D02*
X102514286Y-72516171D01*
X102514286Y-72516171D02*
X102628571Y-72401885D01*
X102628571Y-72401885D02*
X102800000Y-72344742D01*
X102800000Y-72344742D02*
X102914286Y-72344742D01*
X102914286Y-72344742D02*
X103085714Y-72401885D01*
X103085714Y-72401885D02*
X103142857Y-72459028D01*
X103657143Y-73544742D02*
X103657143Y-72344742D01*
X103657143Y-72344742D02*
X104114286Y-72344742D01*
X104114286Y-72344742D02*
X104228571Y-72401885D01*
X104228571Y-72401885D02*
X104285714Y-72459028D01*
X104285714Y-72459028D02*
X104342857Y-72573314D01*
X104342857Y-72573314D02*
X104342857Y-72744742D01*
X104342857Y-72744742D02*
X104285714Y-72859028D01*
X104285714Y-72859028D02*
X104228571Y-72916171D01*
X104228571Y-72916171D02*
X104114286Y-72973314D01*
X104114286Y-72973314D02*
X103657143Y-72973314D01*
X105200000Y-72344742D02*
X105200000Y-73201885D01*
X105200000Y-73201885D02*
X105142857Y-73373314D01*
X105142857Y-73373314D02*
X105028571Y-73487600D01*
X105028571Y-73487600D02*
X104857143Y-73544742D01*
X104857143Y-73544742D02*
X104742857Y-73544742D01*
X106742857Y-73544742D02*
X106685715Y-73544742D01*
X106685715Y-73544742D02*
X106571429Y-73487600D01*
X106571429Y-73487600D02*
X106400000Y-73316171D01*
X106400000Y-73316171D02*
X106114286Y-72973314D01*
X106114286Y-72973314D02*
X106000000Y-72801885D01*
X106000000Y-72801885D02*
X105942857Y-72630457D01*
X105942857Y-72630457D02*
X105942857Y-72516171D01*
X105942857Y-72516171D02*
X106000000Y-72401885D01*
X106000000Y-72401885D02*
X106114286Y-72344742D01*
X106114286Y-72344742D02*
X106171429Y-72344742D01*
X106171429Y-72344742D02*
X106285715Y-72401885D01*
X106285715Y-72401885D02*
X106342857Y-72516171D01*
X106342857Y-72516171D02*
X106342857Y-72573314D01*
X106342857Y-72573314D02*
X106285715Y-72687600D01*
X106285715Y-72687600D02*
X106228572Y-72744742D01*
X106228572Y-72744742D02*
X105885715Y-72973314D01*
X105885715Y-72973314D02*
X105828572Y-73030457D01*
X105828572Y-73030457D02*
X105771429Y-73144742D01*
X105771429Y-73144742D02*
X105771429Y-73316171D01*
X105771429Y-73316171D02*
X105828572Y-73430457D01*
X105828572Y-73430457D02*
X105885715Y-73487600D01*
X105885715Y-73487600D02*
X106000000Y-73544742D01*
X106000000Y-73544742D02*
X106171429Y-73544742D01*
X106171429Y-73544742D02*
X106285715Y-73487600D01*
X106285715Y-73487600D02*
X106342857Y-73430457D01*
X106342857Y-73430457D02*
X106514286Y-73201885D01*
X106514286Y-73201885D02*
X106571429Y-73030457D01*
X106571429Y-73030457D02*
X106571429Y-72916171D01*
X107942857Y-73430457D02*
X107885714Y-73487600D01*
X107885714Y-73487600D02*
X107714286Y-73544742D01*
X107714286Y-73544742D02*
X107600000Y-73544742D01*
X107600000Y-73544742D02*
X107428571Y-73487600D01*
X107428571Y-73487600D02*
X107314286Y-73373314D01*
X107314286Y-73373314D02*
X107257143Y-73259028D01*
X107257143Y-73259028D02*
X107200000Y-73030457D01*
X107200000Y-73030457D02*
X107200000Y-72859028D01*
X107200000Y-72859028D02*
X107257143Y-72630457D01*
X107257143Y-72630457D02*
X107314286Y-72516171D01*
X107314286Y-72516171D02*
X107428571Y-72401885D01*
X107428571Y-72401885D02*
X107600000Y-72344742D01*
X107600000Y-72344742D02*
X107714286Y-72344742D01*
X107714286Y-72344742D02*
X107885714Y-72401885D01*
X107885714Y-72401885D02*
X107942857Y-72459028D01*
X108457143Y-73544742D02*
X108457143Y-72344742D01*
X108457143Y-72344742D02*
X108914286Y-72344742D01*
X108914286Y-72344742D02*
X109028571Y-72401885D01*
X109028571Y-72401885D02*
X109085714Y-72459028D01*
X109085714Y-72459028D02*
X109142857Y-72573314D01*
X109142857Y-72573314D02*
X109142857Y-72744742D01*
X109142857Y-72744742D02*
X109085714Y-72859028D01*
X109085714Y-72859028D02*
X109028571Y-72916171D01*
X109028571Y-72916171D02*
X108914286Y-72973314D01*
X108914286Y-72973314D02*
X108457143Y-72973314D01*
X110514286Y-72459028D02*
X110571429Y-72401885D01*
X110571429Y-72401885D02*
X110685715Y-72344742D01*
X110685715Y-72344742D02*
X110971429Y-72344742D01*
X110971429Y-72344742D02*
X111085715Y-72401885D01*
X111085715Y-72401885D02*
X111142857Y-72459028D01*
X111142857Y-72459028D02*
X111200000Y-72573314D01*
X111200000Y-72573314D02*
X111200000Y-72687600D01*
X111200000Y-72687600D02*
X111142857Y-72859028D01*
X111142857Y-72859028D02*
X110457143Y-73544742D01*
X110457143Y-73544742D02*
X111200000Y-73544742D01*
X111942857Y-72344742D02*
X112057143Y-72344742D01*
X112057143Y-72344742D02*
X112171429Y-72401885D01*
X112171429Y-72401885D02*
X112228572Y-72459028D01*
X112228572Y-72459028D02*
X112285714Y-72573314D01*
X112285714Y-72573314D02*
X112342857Y-72801885D01*
X112342857Y-72801885D02*
X112342857Y-73087600D01*
X112342857Y-73087600D02*
X112285714Y-73316171D01*
X112285714Y-73316171D02*
X112228572Y-73430457D01*
X112228572Y-73430457D02*
X112171429Y-73487600D01*
X112171429Y-73487600D02*
X112057143Y-73544742D01*
X112057143Y-73544742D02*
X111942857Y-73544742D01*
X111942857Y-73544742D02*
X111828572Y-73487600D01*
X111828572Y-73487600D02*
X111771429Y-73430457D01*
X111771429Y-73430457D02*
X111714286Y-73316171D01*
X111714286Y-73316171D02*
X111657143Y-73087600D01*
X111657143Y-73087600D02*
X111657143Y-72801885D01*
X111657143Y-72801885D02*
X111714286Y-72573314D01*
X111714286Y-72573314D02*
X111771429Y-72459028D01*
X111771429Y-72459028D02*
X111828572Y-72401885D01*
X111828572Y-72401885D02*
X111942857Y-72344742D01*
X112800000Y-72459028D02*
X112857143Y-72401885D01*
X112857143Y-72401885D02*
X112971429Y-72344742D01*
X112971429Y-72344742D02*
X113257143Y-72344742D01*
X113257143Y-72344742D02*
X113371429Y-72401885D01*
X113371429Y-72401885D02*
X113428571Y-72459028D01*
X113428571Y-72459028D02*
X113485714Y-72573314D01*
X113485714Y-72573314D02*
X113485714Y-72687600D01*
X113485714Y-72687600D02*
X113428571Y-72859028D01*
X113428571Y-72859028D02*
X112742857Y-73544742D01*
X112742857Y-73544742D02*
X113485714Y-73544742D01*
X114514286Y-72344742D02*
X114285714Y-72344742D01*
X114285714Y-72344742D02*
X114171428Y-72401885D01*
X114171428Y-72401885D02*
X114114286Y-72459028D01*
X114114286Y-72459028D02*
X114000000Y-72630457D01*
X114000000Y-72630457D02*
X113942857Y-72859028D01*
X113942857Y-72859028D02*
X113942857Y-73316171D01*
X113942857Y-73316171D02*
X114000000Y-73430457D01*
X114000000Y-73430457D02*
X114057143Y-73487600D01*
X114057143Y-73487600D02*
X114171428Y-73544742D01*
X114171428Y-73544742D02*
X114400000Y-73544742D01*
X114400000Y-73544742D02*
X114514286Y-73487600D01*
X114514286Y-73487600D02*
X114571428Y-73430457D01*
X114571428Y-73430457D02*
X114628571Y-73316171D01*
X114628571Y-73316171D02*
X114628571Y-73030457D01*
X114628571Y-73030457D02*
X114571428Y-72916171D01*
X114571428Y-72916171D02*
X114514286Y-72859028D01*
X114514286Y-72859028D02*
X114400000Y-72801885D01*
X114400000Y-72801885D02*
X114171428Y-72801885D01*
X114171428Y-72801885D02*
X114057143Y-72859028D01*
X114057143Y-72859028D02*
X114000000Y-72916171D01*
X114000000Y-72916171D02*
X113942857Y-73030457D01*
X115942857Y-72744742D02*
X116228571Y-73544742D01*
X116228571Y-73544742D02*
X116514286Y-72744742D01*
X116857143Y-72344742D02*
X117600000Y-72344742D01*
X117600000Y-72344742D02*
X117200000Y-72801885D01*
X117200000Y-72801885D02*
X117371429Y-72801885D01*
X117371429Y-72801885D02*
X117485715Y-72859028D01*
X117485715Y-72859028D02*
X117542857Y-72916171D01*
X117542857Y-72916171D02*
X117600000Y-73030457D01*
X117600000Y-73030457D02*
X117600000Y-73316171D01*
X117600000Y-73316171D02*
X117542857Y-73430457D01*
X117542857Y-73430457D02*
X117485715Y-73487600D01*
X117485715Y-73487600D02*
X117371429Y-73544742D01*
X117371429Y-73544742D02*
X117028572Y-73544742D01*
X117028572Y-73544742D02*
X116914286Y-73487600D01*
X116914286Y-73487600D02*
X116857143Y-73430457D01*
M02*
