%TF.GenerationSoftware,KiCad,Pcbnew,10.0.0*%
%TF.CreationDate,2026-04-10T23:09:18+02:00*%
%TF.ProjectId,esp32-emu-turbo,65737033-322d-4656-9d75-2d747572626f,rev?*%
%TF.SameCoordinates,Original*%
%TF.FileFunction,Legend,Top*%
%TF.FilePolarity,Positive*%
%FSLAX46Y46*%
G04 Gerber Fmt 4.6, Leading zero omitted, Abs format (unit mm)*
G04 Created by KiCad (PCBNEW 10.0.0) date 2026-04-10 23:09:18*
%MOMM*%
%LPD*%
G01*
G04 APERTURE LIST*
%ADD10C,0.200000*%
%ADD11C,2.500000*%
%ADD12R,1.000000X0.700000*%
%ADD13R,1.000000X1.300000*%
%ADD14O,1.100000X2.000000*%
%ADD15O,1.400000X1.800000*%
%ADD16C,0.650000*%
%ADD17C,1.000000*%
%ADD18C,0.900000*%
%ADD19C,2.000000*%
G04 APERTURE END LIST*
D10*
X15690476Y-12952219D02*
X15690476Y-11952219D01*
X15690476Y-11952219D02*
X15928571Y-11952219D01*
X15928571Y-11952219D02*
X16071428Y-11999838D01*
X16071428Y-11999838D02*
X16166666Y-12095076D01*
X16166666Y-12095076D02*
X16214285Y-12190314D01*
X16214285Y-12190314D02*
X16261904Y-12380790D01*
X16261904Y-12380790D02*
X16261904Y-12523647D01*
X16261904Y-12523647D02*
X16214285Y-12714123D01*
X16214285Y-12714123D02*
X16166666Y-12809361D01*
X16166666Y-12809361D02*
X16071428Y-12904600D01*
X16071428Y-12904600D02*
X15928571Y-12952219D01*
X15928571Y-12952219D02*
X15690476Y-12952219D01*
X16690476Y-12571266D02*
X17452381Y-12571266D01*
X17928571Y-12952219D02*
X17928571Y-11952219D01*
X17928571Y-11952219D02*
X18309523Y-11952219D01*
X18309523Y-11952219D02*
X18404761Y-11999838D01*
X18404761Y-11999838D02*
X18452380Y-12047457D01*
X18452380Y-12047457D02*
X18499999Y-12142695D01*
X18499999Y-12142695D02*
X18499999Y-12285552D01*
X18499999Y-12285552D02*
X18452380Y-12380790D01*
X18452380Y-12380790D02*
X18404761Y-12428409D01*
X18404761Y-12428409D02*
X18309523Y-12476028D01*
X18309523Y-12476028D02*
X17928571Y-12476028D01*
X18880952Y-12666504D02*
X19357142Y-12666504D01*
X18785714Y-12952219D02*
X19119047Y-11952219D01*
X19119047Y-11952219D02*
X19452380Y-12952219D01*
X19785714Y-12952219D02*
X19785714Y-11952219D01*
X19785714Y-11952219D02*
X20023809Y-11952219D01*
X20023809Y-11952219D02*
X20166666Y-11999838D01*
X20166666Y-11999838D02*
X20261904Y-12095076D01*
X20261904Y-12095076D02*
X20309523Y-12190314D01*
X20309523Y-12190314D02*
X20357142Y-12380790D01*
X20357142Y-12380790D02*
X20357142Y-12523647D01*
X20357142Y-12523647D02*
X20309523Y-12714123D01*
X20309523Y-12714123D02*
X20261904Y-12809361D01*
X20261904Y-12809361D02*
X20166666Y-12904600D01*
X20166666Y-12904600D02*
X20023809Y-12952219D01*
X20023809Y-12952219D02*
X19785714Y-12952219D01*
X140357143Y-12666504D02*
X140833333Y-12666504D01*
X140261905Y-12952219D02*
X140595238Y-11952219D01*
X140595238Y-11952219D02*
X140928571Y-12952219D01*
X141595238Y-12428409D02*
X141738095Y-12476028D01*
X141738095Y-12476028D02*
X141785714Y-12523647D01*
X141785714Y-12523647D02*
X141833333Y-12618885D01*
X141833333Y-12618885D02*
X141833333Y-12761742D01*
X141833333Y-12761742D02*
X141785714Y-12856980D01*
X141785714Y-12856980D02*
X141738095Y-12904600D01*
X141738095Y-12904600D02*
X141642857Y-12952219D01*
X141642857Y-12952219D02*
X141261905Y-12952219D01*
X141261905Y-12952219D02*
X141261905Y-11952219D01*
X141261905Y-11952219D02*
X141595238Y-11952219D01*
X141595238Y-11952219D02*
X141690476Y-11999838D01*
X141690476Y-11999838D02*
X141738095Y-12047457D01*
X141738095Y-12047457D02*
X141785714Y-12142695D01*
X141785714Y-12142695D02*
X141785714Y-12237933D01*
X141785714Y-12237933D02*
X141738095Y-12333171D01*
X141738095Y-12333171D02*
X141690476Y-12380790D01*
X141690476Y-12380790D02*
X141595238Y-12428409D01*
X141595238Y-12428409D02*
X141261905Y-12428409D01*
X142166667Y-11952219D02*
X142833333Y-12952219D01*
X142833333Y-11952219D02*
X142166667Y-12952219D01*
X143404762Y-12476028D02*
X143404762Y-12952219D01*
X143071429Y-11952219D02*
X143404762Y-12476028D01*
X143404762Y-12476028D02*
X143738095Y-11952219D01*
X140166667Y-57152219D02*
X140166667Y-56152219D01*
X140166667Y-56152219D02*
X140500000Y-56866504D01*
X140500000Y-56866504D02*
X140833333Y-56152219D01*
X140833333Y-56152219D02*
X140833333Y-57152219D01*
X141309524Y-56628409D02*
X141642857Y-56628409D01*
X141785714Y-57152219D02*
X141309524Y-57152219D01*
X141309524Y-57152219D02*
X141309524Y-56152219D01*
X141309524Y-56152219D02*
X141785714Y-56152219D01*
X142214286Y-57152219D02*
X142214286Y-56152219D01*
X142214286Y-56152219D02*
X142785714Y-57152219D01*
X142785714Y-57152219D02*
X142785714Y-56152219D01*
X143261905Y-56152219D02*
X143261905Y-56961742D01*
X143261905Y-56961742D02*
X143309524Y-57056980D01*
X143309524Y-57056980D02*
X143357143Y-57104600D01*
X143357143Y-57104600D02*
X143452381Y-57152219D01*
X143452381Y-57152219D02*
X143642857Y-57152219D01*
X143642857Y-57152219D02*
X143738095Y-57104600D01*
X143738095Y-57104600D02*
X143785714Y-57056980D01*
X143785714Y-57056980D02*
X143833333Y-56961742D01*
X143833333Y-56961742D02*
X143833333Y-56152219D01*
X24285714Y-70856980D02*
X24238095Y-70904600D01*
X24238095Y-70904600D02*
X24095238Y-70952219D01*
X24095238Y-70952219D02*
X24000000Y-70952219D01*
X24000000Y-70952219D02*
X23857143Y-70904600D01*
X23857143Y-70904600D02*
X23761905Y-70809361D01*
X23761905Y-70809361D02*
X23714286Y-70714123D01*
X23714286Y-70714123D02*
X23666667Y-70523647D01*
X23666667Y-70523647D02*
X23666667Y-70380790D01*
X23666667Y-70380790D02*
X23714286Y-70190314D01*
X23714286Y-70190314D02*
X23761905Y-70095076D01*
X23761905Y-70095076D02*
X23857143Y-69999838D01*
X23857143Y-69999838D02*
X24000000Y-69952219D01*
X24000000Y-69952219D02*
X24095238Y-69952219D01*
X24095238Y-69952219D02*
X24238095Y-69999838D01*
X24238095Y-69999838D02*
X24285714Y-70047457D01*
X24714286Y-70952219D02*
X24714286Y-69952219D01*
X24714286Y-70428409D02*
X25285714Y-70428409D01*
X25285714Y-70952219D02*
X25285714Y-69952219D01*
X26285714Y-69999838D02*
X26190476Y-69952219D01*
X26190476Y-69952219D02*
X26047619Y-69952219D01*
X26047619Y-69952219D02*
X25904762Y-69999838D01*
X25904762Y-69999838D02*
X25809524Y-70095076D01*
X25809524Y-70095076D02*
X25761905Y-70190314D01*
X25761905Y-70190314D02*
X25714286Y-70380790D01*
X25714286Y-70380790D02*
X25714286Y-70523647D01*
X25714286Y-70523647D02*
X25761905Y-70714123D01*
X25761905Y-70714123D02*
X25809524Y-70809361D01*
X25809524Y-70809361D02*
X25904762Y-70904600D01*
X25904762Y-70904600D02*
X26047619Y-70952219D01*
X26047619Y-70952219D02*
X26142857Y-70952219D01*
X26142857Y-70952219D02*
X26285714Y-70904600D01*
X26285714Y-70904600D02*
X26333333Y-70856980D01*
X26333333Y-70856980D02*
X26333333Y-70523647D01*
X26333333Y-70523647D02*
X26142857Y-70523647D01*
X30809523Y-70428409D02*
X30476190Y-70428409D01*
X30476190Y-70952219D02*
X30476190Y-69952219D01*
X30476190Y-69952219D02*
X30952380Y-69952219D01*
X31333333Y-69952219D02*
X31333333Y-70761742D01*
X31333333Y-70761742D02*
X31380952Y-70856980D01*
X31380952Y-70856980D02*
X31428571Y-70904600D01*
X31428571Y-70904600D02*
X31523809Y-70952219D01*
X31523809Y-70952219D02*
X31714285Y-70952219D01*
X31714285Y-70952219D02*
X31809523Y-70904600D01*
X31809523Y-70904600D02*
X31857142Y-70856980D01*
X31857142Y-70856980D02*
X31904761Y-70761742D01*
X31904761Y-70761742D02*
X31904761Y-69952219D01*
X32857142Y-70952219D02*
X32380952Y-70952219D01*
X32380952Y-70952219D02*
X32380952Y-69952219D01*
X33666666Y-70952219D02*
X33190476Y-70952219D01*
X33190476Y-70952219D02*
X33190476Y-69952219D01*
X73142857Y-73430457D02*
X73085714Y-73487600D01*
X73085714Y-73487600D02*
X72914286Y-73544742D01*
X72914286Y-73544742D02*
X72800000Y-73544742D01*
X72800000Y-73544742D02*
X72628571Y-73487600D01*
X72628571Y-73487600D02*
X72514286Y-73373314D01*
X72514286Y-73373314D02*
X72457143Y-73259028D01*
X72457143Y-73259028D02*
X72400000Y-73030457D01*
X72400000Y-73030457D02*
X72400000Y-72859028D01*
X72400000Y-72859028D02*
X72457143Y-72630457D01*
X72457143Y-72630457D02*
X72514286Y-72516171D01*
X72514286Y-72516171D02*
X72628571Y-72401885D01*
X72628571Y-72401885D02*
X72800000Y-72344742D01*
X72800000Y-72344742D02*
X72914286Y-72344742D01*
X72914286Y-72344742D02*
X73085714Y-72401885D01*
X73085714Y-72401885D02*
X73142857Y-72459028D01*
X73657143Y-73544742D02*
X73657143Y-72344742D01*
X73657143Y-72344742D02*
X74114286Y-72344742D01*
X74114286Y-72344742D02*
X74228571Y-72401885D01*
X74228571Y-72401885D02*
X74285714Y-72459028D01*
X74285714Y-72459028D02*
X74342857Y-72573314D01*
X74342857Y-72573314D02*
X74342857Y-72744742D01*
X74342857Y-72744742D02*
X74285714Y-72859028D01*
X74285714Y-72859028D02*
X74228571Y-72916171D01*
X74228571Y-72916171D02*
X74114286Y-72973314D01*
X74114286Y-72973314D02*
X73657143Y-72973314D01*
X75200000Y-72344742D02*
X75200000Y-73201885D01*
X75200000Y-73201885D02*
X75142857Y-73373314D01*
X75142857Y-73373314D02*
X75028571Y-73487600D01*
X75028571Y-73487600D02*
X74857143Y-73544742D01*
X74857143Y-73544742D02*
X74742857Y-73544742D01*
X76742857Y-73544742D02*
X76685715Y-73544742D01*
X76685715Y-73544742D02*
X76571429Y-73487600D01*
X76571429Y-73487600D02*
X76400000Y-73316171D01*
X76400000Y-73316171D02*
X76114286Y-72973314D01*
X76114286Y-72973314D02*
X76000000Y-72801885D01*
X76000000Y-72801885D02*
X75942857Y-72630457D01*
X75942857Y-72630457D02*
X75942857Y-72516171D01*
X75942857Y-72516171D02*
X76000000Y-72401885D01*
X76000000Y-72401885D02*
X76114286Y-72344742D01*
X76114286Y-72344742D02*
X76171429Y-72344742D01*
X76171429Y-72344742D02*
X76285715Y-72401885D01*
X76285715Y-72401885D02*
X76342857Y-72516171D01*
X76342857Y-72516171D02*
X76342857Y-72573314D01*
X76342857Y-72573314D02*
X76285715Y-72687600D01*
X76285715Y-72687600D02*
X76228572Y-72744742D01*
X76228572Y-72744742D02*
X75885715Y-72973314D01*
X75885715Y-72973314D02*
X75828572Y-73030457D01*
X75828572Y-73030457D02*
X75771429Y-73144742D01*
X75771429Y-73144742D02*
X75771429Y-73316171D01*
X75771429Y-73316171D02*
X75828572Y-73430457D01*
X75828572Y-73430457D02*
X75885715Y-73487600D01*
X75885715Y-73487600D02*
X76000000Y-73544742D01*
X76000000Y-73544742D02*
X76171429Y-73544742D01*
X76171429Y-73544742D02*
X76285715Y-73487600D01*
X76285715Y-73487600D02*
X76342857Y-73430457D01*
X76342857Y-73430457D02*
X76514286Y-73201885D01*
X76514286Y-73201885D02*
X76571429Y-73030457D01*
X76571429Y-73030457D02*
X76571429Y-72916171D01*
X77942857Y-73430457D02*
X77885714Y-73487600D01*
X77885714Y-73487600D02*
X77714286Y-73544742D01*
X77714286Y-73544742D02*
X77600000Y-73544742D01*
X77600000Y-73544742D02*
X77428571Y-73487600D01*
X77428571Y-73487600D02*
X77314286Y-73373314D01*
X77314286Y-73373314D02*
X77257143Y-73259028D01*
X77257143Y-73259028D02*
X77200000Y-73030457D01*
X77200000Y-73030457D02*
X77200000Y-72859028D01*
X77200000Y-72859028D02*
X77257143Y-72630457D01*
X77257143Y-72630457D02*
X77314286Y-72516171D01*
X77314286Y-72516171D02*
X77428571Y-72401885D01*
X77428571Y-72401885D02*
X77600000Y-72344742D01*
X77600000Y-72344742D02*
X77714286Y-72344742D01*
X77714286Y-72344742D02*
X77885714Y-72401885D01*
X77885714Y-72401885D02*
X77942857Y-72459028D01*
X78457143Y-73544742D02*
X78457143Y-72344742D01*
X78457143Y-72344742D02*
X78914286Y-72344742D01*
X78914286Y-72344742D02*
X79028571Y-72401885D01*
X79028571Y-72401885D02*
X79085714Y-72459028D01*
X79085714Y-72459028D02*
X79142857Y-72573314D01*
X79142857Y-72573314D02*
X79142857Y-72744742D01*
X79142857Y-72744742D02*
X79085714Y-72859028D01*
X79085714Y-72859028D02*
X79028571Y-72916171D01*
X79028571Y-72916171D02*
X78914286Y-72973314D01*
X78914286Y-72973314D02*
X78457143Y-72973314D01*
X80514286Y-72459028D02*
X80571429Y-72401885D01*
X80571429Y-72401885D02*
X80685715Y-72344742D01*
X80685715Y-72344742D02*
X80971429Y-72344742D01*
X80971429Y-72344742D02*
X81085715Y-72401885D01*
X81085715Y-72401885D02*
X81142857Y-72459028D01*
X81142857Y-72459028D02*
X81200000Y-72573314D01*
X81200000Y-72573314D02*
X81200000Y-72687600D01*
X81200000Y-72687600D02*
X81142857Y-72859028D01*
X81142857Y-72859028D02*
X80457143Y-73544742D01*
X80457143Y-73544742D02*
X81200000Y-73544742D01*
X81942857Y-72344742D02*
X82057143Y-72344742D01*
X82057143Y-72344742D02*
X82171429Y-72401885D01*
X82171429Y-72401885D02*
X82228572Y-72459028D01*
X82228572Y-72459028D02*
X82285714Y-72573314D01*
X82285714Y-72573314D02*
X82342857Y-72801885D01*
X82342857Y-72801885D02*
X82342857Y-73087600D01*
X82342857Y-73087600D02*
X82285714Y-73316171D01*
X82285714Y-73316171D02*
X82228572Y-73430457D01*
X82228572Y-73430457D02*
X82171429Y-73487600D01*
X82171429Y-73487600D02*
X82057143Y-73544742D01*
X82057143Y-73544742D02*
X81942857Y-73544742D01*
X81942857Y-73544742D02*
X81828572Y-73487600D01*
X81828572Y-73487600D02*
X81771429Y-73430457D01*
X81771429Y-73430457D02*
X81714286Y-73316171D01*
X81714286Y-73316171D02*
X81657143Y-73087600D01*
X81657143Y-73087600D02*
X81657143Y-72801885D01*
X81657143Y-72801885D02*
X81714286Y-72573314D01*
X81714286Y-72573314D02*
X81771429Y-72459028D01*
X81771429Y-72459028D02*
X81828572Y-72401885D01*
X81828572Y-72401885D02*
X81942857Y-72344742D01*
X82800000Y-72459028D02*
X82857143Y-72401885D01*
X82857143Y-72401885D02*
X82971429Y-72344742D01*
X82971429Y-72344742D02*
X83257143Y-72344742D01*
X83257143Y-72344742D02*
X83371429Y-72401885D01*
X83371429Y-72401885D02*
X83428571Y-72459028D01*
X83428571Y-72459028D02*
X83485714Y-72573314D01*
X83485714Y-72573314D02*
X83485714Y-72687600D01*
X83485714Y-72687600D02*
X83428571Y-72859028D01*
X83428571Y-72859028D02*
X82742857Y-73544742D01*
X82742857Y-73544742D02*
X83485714Y-73544742D01*
X84514286Y-72344742D02*
X84285714Y-72344742D01*
X84285714Y-72344742D02*
X84171428Y-72401885D01*
X84171428Y-72401885D02*
X84114286Y-72459028D01*
X84114286Y-72459028D02*
X84000000Y-72630457D01*
X84000000Y-72630457D02*
X83942857Y-72859028D01*
X83942857Y-72859028D02*
X83942857Y-73316171D01*
X83942857Y-73316171D02*
X84000000Y-73430457D01*
X84000000Y-73430457D02*
X84057143Y-73487600D01*
X84057143Y-73487600D02*
X84171428Y-73544742D01*
X84171428Y-73544742D02*
X84400000Y-73544742D01*
X84400000Y-73544742D02*
X84514286Y-73487600D01*
X84514286Y-73487600D02*
X84571428Y-73430457D01*
X84571428Y-73430457D02*
X84628571Y-73316171D01*
X84628571Y-73316171D02*
X84628571Y-73030457D01*
X84628571Y-73030457D02*
X84571428Y-72916171D01*
X84571428Y-72916171D02*
X84514286Y-72859028D01*
X84514286Y-72859028D02*
X84400000Y-72801885D01*
X84400000Y-72801885D02*
X84171428Y-72801885D01*
X84171428Y-72801885D02*
X84057143Y-72859028D01*
X84057143Y-72859028D02*
X84000000Y-72916171D01*
X84000000Y-72916171D02*
X83942857Y-73030457D01*
X85942857Y-72744742D02*
X86228571Y-73544742D01*
X86228571Y-73544742D02*
X86514286Y-72744742D01*
X86914286Y-72459028D02*
X86971429Y-72401885D01*
X86971429Y-72401885D02*
X87085715Y-72344742D01*
X87085715Y-72344742D02*
X87371429Y-72344742D01*
X87371429Y-72344742D02*
X87485715Y-72401885D01*
X87485715Y-72401885D02*
X87542857Y-72459028D01*
X87542857Y-72459028D02*
X87600000Y-72573314D01*
X87600000Y-72573314D02*
X87600000Y-72687600D01*
X87600000Y-72687600D02*
X87542857Y-72859028D01*
X87542857Y-72859028D02*
X86857143Y-73544742D01*
X86857143Y-73544742D02*
X87600000Y-73544742D01*
%LPC*%
D11*
%TO.C,*%
X10000000Y-7000000D03*
%TD*%
%TO.C,*%
X150000000Y-7000000D03*
%TD*%
%TO.C,*%
X10000000Y-68000000D03*
%TD*%
%TO.C,*%
X150000000Y-68000000D03*
%TD*%
%TO.C,*%
X55000000Y-37500000D03*
%TD*%
%TO.C,*%
X105000000Y-37500000D03*
%TD*%
D12*
%TO.C,SW1*%
X15000000Y-21650000D03*
X21000000Y-21650000D03*
X15000000Y-25350000D03*
X21000000Y-25350000D03*
%TD*%
%TO.C,SW2*%
X15000000Y-39650000D03*
X21000000Y-39650000D03*
X15000000Y-43350000D03*
X21000000Y-43350000D03*
%TD*%
%TO.C,SW3*%
X6000000Y-30650000D03*
X12000000Y-30650000D03*
X6000000Y-34350000D03*
X12000000Y-34350000D03*
%TD*%
%TO.C,SW4*%
X24000000Y-30650000D03*
X30000000Y-30650000D03*
X24000000Y-34350000D03*
X30000000Y-34350000D03*
%TD*%
%TO.C,SW5*%
X139000000Y-20650000D03*
X145000000Y-20650000D03*
X139000000Y-24350000D03*
X145000000Y-24350000D03*
%TD*%
%TO.C,SW6*%
X149000000Y-30650000D03*
X155000000Y-30650000D03*
X149000000Y-34350000D03*
X155000000Y-34350000D03*
%TD*%
%TO.C,SW7*%
X139000000Y-40650000D03*
X145000000Y-40650000D03*
X139000000Y-44350000D03*
X145000000Y-44350000D03*
%TD*%
%TO.C,SW8*%
X130000000Y-30650000D03*
X136000000Y-30650000D03*
X130000000Y-34350000D03*
X136000000Y-34350000D03*
%TD*%
%TO.C,SW9*%
X5000000Y-52650000D03*
X11000000Y-52650000D03*
X5000000Y-56350000D03*
X11000000Y-56350000D03*
%TD*%
%TO.C,SW10*%
X25000000Y-52650000D03*
X31000000Y-52650000D03*
X25000000Y-56350000D03*
X31000000Y-56350000D03*
%TD*%
%TO.C,SW13*%
X139000000Y-59850000D03*
X145000000Y-59850000D03*
X139000000Y-63550000D03*
X145000000Y-63550000D03*
%TD*%
D13*
%TO.C,LED1*%
X24050000Y-67500000D03*
X25950000Y-67500000D03*
%TD*%
%TO.C,LED2*%
X31050000Y-67500000D03*
X32950000Y-67500000D03*
%TD*%
D14*
%TO.C,J1*%
X84325000Y-69375000D03*
X75675000Y-69375000D03*
D15*
X84325000Y-73575000D03*
X75675000Y-73575000D03*
D16*
X82890000Y-69895000D03*
X77110000Y-69895000D03*
%TD*%
D17*
%TO.C,U6*%
X144950000Y-72566000D03*
X136950000Y-72566000D03*
%TD*%
D18*
%TO.C,SW_PWR*%
X41500000Y-72550000D03*
X38500000Y-72550000D03*
%TD*%
D19*
%TO.C,FID1*%
X12000000Y-12000000D03*
%TD*%
%TO.C,FID2*%
X150000000Y-63000000D03*
%TD*%
%TO.C,FID3*%
X12000000Y-63000000D03*
%TD*%
%LPD*%
M02*
