%TF.GenerationSoftware,KiCad,Pcbnew,10.0.0-rc1.1-492-ge2a9f06420*%
%TF.CreationDate,2026-02-27T18:13:55+00:00*%
%TF.ProjectId,esp32-emu-turbo,65737033-322d-4656-9d75-2d747572626f,rev?*%
%TF.SameCoordinates,Original*%
%TF.FileFunction,Copper,L2,Inr*%
%TF.FilePolarity,Positive*%
%FSLAX46Y46*%
G04 Gerber Fmt 4.6, Leading zero omitted, Abs format (unit mm)*
G04 Created by KiCad (PCBNEW 10.0.0-rc1.1-492-ge2a9f06420) date 2026-02-27 18:13:55*
%MOMM*%
%LPD*%
G01*
G04 APERTURE LIST*
%TA.AperFunction,ComponentPad*%
%ADD10C,3.500000*%
%TD*%
%TA.AperFunction,ComponentPad*%
%ADD11O,1.300000X2.100000*%
%TD*%
%TA.AperFunction,ComponentPad*%
%ADD12O,1.300000X1.600000*%
%TD*%
%TA.AperFunction,ComponentPad*%
%ADD13C,1.600000*%
%TD*%
%TA.AperFunction,ViaPad*%
%ADD14C,0.900000*%
%TD*%
%TA.AperFunction,ViaPad*%
%ADD15C,0.700000*%
%TD*%
%TA.AperFunction,ViaPad*%
%ADD16C,0.800000*%
%TD*%
G04 APERTURE END LIST*
D10*
%TO.N,*%
%TO.C,*%
X10000000Y-7000000D03*
%TD*%
%TO.N,*%
%TO.C,*%
X150000000Y-7000000D03*
%TD*%
%TO.N,*%
%TO.C,*%
X10000000Y-68000000D03*
%TD*%
%TO.N,*%
%TO.C,*%
X150000000Y-68000000D03*
%TD*%
%TO.N,*%
%TO.C,*%
X55000000Y-37500000D03*
%TD*%
%TO.N,*%
%TO.C,*%
X105000000Y-37500000D03*
%TD*%
D11*
%TO.N,N/C*%
%TO.C,J1*%
X84320000Y-68895000D03*
X75680000Y-68895000D03*
D12*
X84320000Y-73075000D03*
X75680000Y-73075000D03*
%TD*%
D13*
%TO.N,N/C*%
%TO.C,J3*%
X81000000Y-57500000D03*
X79000000Y-57500000D03*
%TD*%
D14*
%TO.N,VBUS*%
X82400000Y-60000000D03*
X111000000Y-40595000D03*
X76800000Y-66255000D03*
X110000000Y-45500000D03*
%TO.N,GND*%
X127300000Y-60650000D03*
%TO.N,VBUS*%
X81500000Y-31960000D03*
%TO.N,GND*%
X77000000Y-57500000D03*
%TO.N,VBUS*%
X107000000Y-38595000D03*
%TO.N,+5V*%
X122700000Y-56650000D03*
%TO.N,BAT+*%
X111700000Y-50500000D03*
%TO.N,+5V*%
X115950000Y-54500000D03*
%TO.N,VBUS*%
X123000000Y-49350000D03*
X98000000Y-49350000D03*
X88750000Y-21510000D03*
X108000000Y-46135000D03*
X81000000Y-46135000D03*
X39250000Y-68050000D03*
X90750000Y-26050000D03*
D15*
X124000000Y-26050000D03*
X124000000Y-5000000D03*
X130000000Y-37250000D03*
D14*
X90750000Y-27320000D03*
D15*
X122900000Y-27320000D03*
X122900000Y-6000000D03*
X131000000Y-36750000D03*
D14*
X90750000Y-28590000D03*
D15*
X121800000Y-28590000D03*
X121800000Y-7000000D03*
X132000000Y-36250000D03*
D14*
X90750000Y-29860000D03*
D15*
X120700000Y-29860000D03*
X120700000Y-8000000D03*
X133000000Y-35750000D03*
D14*
X90750000Y-36210000D03*
D15*
X119600000Y-36210000D03*
X119600000Y-9000000D03*
X134000000Y-35250000D03*
D14*
X84445000Y-38115000D03*
D15*
X118500000Y-38115000D03*
X118500000Y-10000000D03*
X135000000Y-34750000D03*
D14*
X83175000Y-36845000D03*
D15*
X117400000Y-36845000D03*
X117400000Y-11000000D03*
X136000000Y-34250000D03*
D14*
X81905000Y-35575000D03*
D15*
X116300000Y-35575000D03*
X116300000Y-12000000D03*
X137000000Y-33750000D03*
D14*
X79365000Y-34305000D03*
D15*
X115200000Y-34305000D03*
X115200000Y-13000000D03*
X138000000Y-38250000D03*
D14*
X80635000Y-33035000D03*
D15*
X114100000Y-33035000D03*
X114100000Y-14000000D03*
X139000000Y-41250000D03*
D14*
X78095000Y-31765000D03*
D15*
X113000000Y-31765000D03*
X113000000Y-15000000D03*
X140000000Y-40750000D03*
D14*
X85715000Y-30495000D03*
D15*
X111900000Y-30495000D03*
X111900000Y-16000000D03*
X141000000Y-40250000D03*
D14*
X86985000Y-29225000D03*
D15*
X110800000Y-29225000D03*
X110800000Y-17000000D03*
X142000000Y-39750000D03*
D14*
X73015000Y-27955000D03*
D15*
X109700000Y-27955000D03*
X109700000Y-18000000D03*
X143000000Y-29250000D03*
%TO.N,GND*%
X133850000Y-43250000D03*
X133850000Y-39750000D03*
%TO.N,VBUS*%
X140850000Y-25750000D03*
X133850000Y-30250000D03*
X139850000Y-30750000D03*
X133850000Y-25250000D03*
X133850000Y-27750000D03*
X139850000Y-39750000D03*
%TO.N,GND*%
X133850000Y-44250000D03*
%TO.N,VBUS*%
X133850000Y-23750000D03*
X139850000Y-28250000D03*
D14*
X69750000Y-36210000D03*
X50000000Y-36210000D03*
X50000000Y-19000000D03*
X142000000Y-61550000D03*
X69250000Y-34940000D03*
X51000000Y-34940000D03*
X51000000Y-20000000D03*
X143000000Y-60550000D03*
X68750000Y-33670000D03*
X52000000Y-33670000D03*
X52000000Y-21000000D03*
X144000000Y-59550000D03*
X68250000Y-32400000D03*
X53000000Y-32400000D03*
X53000000Y-22000000D03*
X145000000Y-58550000D03*
X87250000Y-33670000D03*
X26825000Y-33670000D03*
%TO.N,SPK+*%
X35945000Y-22500000D03*
X39500000Y-22500000D03*
%TO.N,VBUS*%
X31905000Y-21000000D03*
X20500000Y-21000000D03*
X28095000Y-34200000D03*
X30635000Y-24800000D03*
X33175000Y-34200000D03*
%TO.N,GND*%
X33175000Y-24800000D03*
%TO.N,VBUS*%
X28095000Y-24800000D03*
X80250000Y-65255000D03*
X90750000Y-65255000D03*
X79750000Y-64255000D03*
X91750000Y-64255000D03*
X73050000Y-65500000D03*
X85050000Y-65500000D03*
X22000000Y-21650000D03*
X22000000Y-62000000D03*
X70450000Y-62000000D03*
D15*
%TO.N,GND*%
X15000000Y-26350000D03*
D14*
%TO.N,VBUS*%
X23000000Y-39650000D03*
X23000000Y-63000000D03*
X67450000Y-63000000D03*
X67450000Y-29860000D03*
X71250000Y-29860000D03*
D15*
%TO.N,GND*%
X15000000Y-44350000D03*
D14*
%TO.N,VBUS*%
X13000000Y-30650000D03*
X13000000Y-64000000D03*
X65550000Y-64000000D03*
X65550000Y-28590000D03*
X71250000Y-28590000D03*
D15*
%TO.N,GND*%
X6000000Y-35350000D03*
D14*
%TO.N,VBUS*%
X31000000Y-30650000D03*
X31000000Y-65000000D03*
X62450000Y-65000000D03*
X62450000Y-27320000D03*
X71250000Y-27320000D03*
D15*
%TO.N,GND*%
X24000000Y-35350000D03*
D14*
%TO.N,VBUS*%
X138000000Y-20650000D03*
X138000000Y-66000000D03*
X58550000Y-66000000D03*
X58550000Y-26050000D03*
X71250000Y-26050000D03*
D15*
X145000000Y-25350000D03*
D14*
X148000000Y-30650000D03*
X148000000Y-67000000D03*
X52450000Y-67000000D03*
X52450000Y-38000000D03*
X74285000Y-38000000D03*
D15*
%TO.N,GND*%
X155000000Y-35350000D03*
D14*
%TO.N,VBUS*%
X139000000Y-40650000D03*
X139000000Y-68000000D03*
X45450000Y-68000000D03*
X45450000Y-37000000D03*
X75555000Y-37000000D03*
D15*
X145000000Y-45350000D03*
D14*
X130000000Y-30650000D03*
X130000000Y-69000000D03*
X36450000Y-69000000D03*
X36450000Y-36000000D03*
X76825000Y-36000000D03*
D15*
X137000000Y-35350000D03*
D14*
X12000000Y-52650000D03*
X12000000Y-70000000D03*
X98550000Y-70000000D03*
X98550000Y-34940000D03*
X88750000Y-34940000D03*
D15*
%TO.N,GND*%
X5000000Y-57350000D03*
D14*
%TO.N,VBUS*%
X32000000Y-52650000D03*
X32000000Y-71000000D03*
X60450000Y-71000000D03*
X60450000Y-35000000D03*
X71250000Y-35000000D03*
D15*
%TO.N,GND*%
X25000000Y-57350000D03*
D14*
%TO.N,VBUS*%
X13150000Y-68000000D03*
X69250000Y-68000000D03*
%TO.N,GND*%
X17850000Y-2500000D03*
%TO.N,VBUS*%
X143150000Y-69000000D03*
X73250000Y-69000000D03*
%TO.N,GND*%
X147850000Y-2500000D03*
%TO.N,+3V3*%
X42050000Y-45000000D03*
X47050000Y-45000000D03*
%TO.N,VBUS*%
X52050000Y-45000000D03*
%TO.N,+3V3*%
X57050000Y-45000000D03*
%TO.N,VBUS*%
X62050000Y-45000000D03*
X67050000Y-45000000D03*
%TO.N,+3V3*%
X72050000Y-45000000D03*
X77050000Y-45000000D03*
X82050000Y-45000000D03*
X87050000Y-45000000D03*
%TO.N,VBUS*%
X92050000Y-45000000D03*
%TO.N,+3V3*%
X97050000Y-45000000D03*
X102050000Y-45000000D03*
%TO.N,GND*%
X42050000Y-52000000D03*
X47050000Y-52000000D03*
%TO.N,VBUS*%
X52050000Y-52000000D03*
%TO.N,GND*%
X57050000Y-52000000D03*
%TO.N,VBUS*%
X62050000Y-52000000D03*
X67050000Y-52000000D03*
%TO.N,GND*%
X72050000Y-52000000D03*
X77050000Y-52000000D03*
X82050000Y-52000000D03*
X87050000Y-52000000D03*
%TO.N,VBUS*%
X92050000Y-52000000D03*
%TO.N,GND*%
X97050000Y-52000000D03*
X102050000Y-52000000D03*
%TO.N,VBUS*%
X68950000Y-41000000D03*
X67050000Y-40000000D03*
X85950000Y-41000000D03*
X84050000Y-40000000D03*
X122950000Y-46000000D03*
%TO.N,GND*%
X121050000Y-46000000D03*
X123500000Y-64500000D03*
%TO.N,VBUS*%
X110950000Y-33000000D03*
X109050000Y-37000000D03*
X116950000Y-35000000D03*
%TO.N,GND*%
X115050000Y-40000000D03*
%TO.N,VBUS*%
X111500000Y-56500000D03*
X108500000Y-60500000D03*
X25950000Y-63000000D03*
D16*
X24050000Y-66500000D03*
D14*
X27450000Y-67500000D03*
X32950000Y-63000000D03*
D16*
X31050000Y-66500000D03*
D14*
X34450000Y-67500000D03*
%TD*%
%TA.AperFunction,Conductor*%
%TO.N,GND*%
G36*
X154002562Y-500605D02*
G01*
X154449036Y-519072D01*
X154459209Y-519915D01*
X154900114Y-574873D01*
X154910194Y-576555D01*
X155345043Y-667733D01*
X155354951Y-670242D01*
X155780786Y-797019D01*
X155790454Y-800338D01*
X156091114Y-917656D01*
X156204349Y-961841D01*
X156213734Y-965958D01*
X156612854Y-1161076D01*
X156621868Y-1165953D01*
X157003545Y-1393383D01*
X157012124Y-1398989D01*
X157373693Y-1657143D01*
X157381770Y-1663430D01*
X157720796Y-1950571D01*
X157728336Y-1957512D01*
X158042487Y-2271663D01*
X158049428Y-2279203D01*
X158336565Y-2618224D01*
X158342860Y-2626312D01*
X158601010Y-2987875D01*
X158606616Y-2996454D01*
X158834046Y-3378131D01*
X158838923Y-3387145D01*
X159034041Y-3786265D01*
X159038158Y-3795650D01*
X159199656Y-4209533D01*
X159202984Y-4219226D01*
X159329753Y-4645035D01*
X159332269Y-4654970D01*
X159423441Y-5089791D01*
X159425128Y-5099900D01*
X159480082Y-5540769D01*
X159480928Y-5550983D01*
X159499394Y-5997437D01*
X159499500Y-6002561D01*
X159499500Y-68997438D01*
X159499394Y-69002562D01*
X159480928Y-69449016D01*
X159480082Y-69459230D01*
X159425128Y-69900099D01*
X159423441Y-69910208D01*
X159332269Y-70345029D01*
X159329753Y-70354964D01*
X159202984Y-70780773D01*
X159199656Y-70790466D01*
X159038158Y-71204349D01*
X159034041Y-71213734D01*
X158838923Y-71612854D01*
X158834046Y-71621868D01*
X158606616Y-72003545D01*
X158601010Y-72012124D01*
X158342860Y-72373687D01*
X158336565Y-72381775D01*
X158049428Y-72720796D01*
X158042487Y-72728336D01*
X157728336Y-73042487D01*
X157720796Y-73049428D01*
X157381775Y-73336565D01*
X157373687Y-73342860D01*
X157012124Y-73601010D01*
X157003545Y-73606616D01*
X156621868Y-73834046D01*
X156612854Y-73838923D01*
X156213734Y-74034041D01*
X156204349Y-74038158D01*
X155790466Y-74199656D01*
X155780773Y-74202984D01*
X155354964Y-74329753D01*
X155345029Y-74332269D01*
X154910208Y-74423441D01*
X154900099Y-74425128D01*
X154459230Y-74480082D01*
X154449016Y-74480928D01*
X154002563Y-74499394D01*
X153997439Y-74499500D01*
X84869346Y-74499500D01*
X84802307Y-74479815D01*
X84756552Y-74427011D01*
X84746608Y-74357853D01*
X84775633Y-74294297D01*
X84813051Y-74265015D01*
X84922994Y-74208996D01*
X85069501Y-74102553D01*
X85197553Y-73974501D01*
X85303996Y-73827994D01*
X85386211Y-73666639D01*
X85442171Y-73494409D01*
X85466174Y-73342860D01*
X85470500Y-73315551D01*
X85470500Y-72834448D01*
X85452498Y-72720796D01*
X85442171Y-72655591D01*
X85386211Y-72483361D01*
X85386211Y-72483360D01*
X85334450Y-72381775D01*
X85303996Y-72322006D01*
X85290396Y-72303287D01*
X85197558Y-72175505D01*
X85197554Y-72175500D01*
X85069499Y-72047445D01*
X85069494Y-72047441D01*
X84922997Y-71941006D01*
X84922996Y-71941005D01*
X84922994Y-71941004D01*
X84871300Y-71914664D01*
X84761639Y-71858788D01*
X84761636Y-71858787D01*
X84589410Y-71802829D01*
X84410551Y-71774500D01*
X84410546Y-71774500D01*
X84229454Y-71774500D01*
X84229449Y-71774500D01*
X84050589Y-71802829D01*
X83878363Y-71858787D01*
X83878360Y-71858788D01*
X83717002Y-71941006D01*
X83570505Y-72047441D01*
X83570500Y-72047445D01*
X83442445Y-72175500D01*
X83442441Y-72175505D01*
X83336006Y-72322002D01*
X83253788Y-72483360D01*
X83253787Y-72483363D01*
X83197829Y-72655589D01*
X83169500Y-72834448D01*
X83169500Y-73315551D01*
X83197829Y-73494410D01*
X83253787Y-73666636D01*
X83253788Y-73666639D01*
X83336006Y-73827997D01*
X83442441Y-73974494D01*
X83442445Y-73974499D01*
X83570500Y-74102554D01*
X83570505Y-74102558D01*
X83698287Y-74195396D01*
X83717006Y-74208996D01*
X83826949Y-74265015D01*
X83877745Y-74312990D01*
X83894540Y-74380811D01*
X83872002Y-74446946D01*
X83817287Y-74490397D01*
X83770654Y-74499500D01*
X76229346Y-74499500D01*
X76162307Y-74479815D01*
X76116552Y-74427011D01*
X76106608Y-74357853D01*
X76135633Y-74294297D01*
X76173051Y-74265015D01*
X76282994Y-74208996D01*
X76429501Y-74102553D01*
X76557553Y-73974501D01*
X76663996Y-73827994D01*
X76746211Y-73666639D01*
X76802171Y-73494409D01*
X76826174Y-73342860D01*
X76830500Y-73315551D01*
X76830500Y-72834448D01*
X76812498Y-72720796D01*
X76802171Y-72655591D01*
X76746211Y-72483361D01*
X76746211Y-72483360D01*
X76694450Y-72381775D01*
X76663996Y-72322006D01*
X76650396Y-72303287D01*
X76557558Y-72175505D01*
X76557554Y-72175500D01*
X76429499Y-72047445D01*
X76429494Y-72047441D01*
X76282997Y-71941006D01*
X76282996Y-71941005D01*
X76282994Y-71941004D01*
X76231300Y-71914664D01*
X76121639Y-71858788D01*
X76121636Y-71858787D01*
X75949410Y-71802829D01*
X75770551Y-71774500D01*
X75770546Y-71774500D01*
X75589454Y-71774500D01*
X75589449Y-71774500D01*
X75410589Y-71802829D01*
X75238363Y-71858787D01*
X75238360Y-71858788D01*
X75077002Y-71941006D01*
X74930505Y-72047441D01*
X74930500Y-72047445D01*
X74802445Y-72175500D01*
X74802441Y-72175505D01*
X74696006Y-72322002D01*
X74613788Y-72483360D01*
X74613787Y-72483363D01*
X74557829Y-72655589D01*
X74529500Y-72834448D01*
X74529500Y-73315551D01*
X74557829Y-73494410D01*
X74613787Y-73666636D01*
X74613788Y-73666639D01*
X74696006Y-73827997D01*
X74802441Y-73974494D01*
X74802445Y-73974499D01*
X74930500Y-74102554D01*
X74930505Y-74102558D01*
X75058287Y-74195396D01*
X75077006Y-74208996D01*
X75186949Y-74265015D01*
X75237745Y-74312990D01*
X75254540Y-74380811D01*
X75232002Y-74446946D01*
X75177287Y-74490397D01*
X75130654Y-74499500D01*
X6002561Y-74499500D01*
X5997437Y-74499394D01*
X5550983Y-74480928D01*
X5540769Y-74480082D01*
X5099900Y-74425128D01*
X5089791Y-74423441D01*
X4654970Y-74332269D01*
X4645035Y-74329753D01*
X4219226Y-74202984D01*
X4209533Y-74199656D01*
X3795650Y-74038158D01*
X3786265Y-74034041D01*
X3387145Y-73838923D01*
X3378131Y-73834046D01*
X2996454Y-73606616D01*
X2987875Y-73601010D01*
X2626312Y-73342860D01*
X2618224Y-73336565D01*
X2279203Y-73049428D01*
X2271663Y-73042487D01*
X1957512Y-72728336D01*
X1950571Y-72720796D01*
X1749473Y-72483361D01*
X1663430Y-72381770D01*
X1657139Y-72373687D01*
X1398989Y-72012124D01*
X1393383Y-72003545D01*
X1165953Y-71621868D01*
X1161076Y-71612854D01*
X965958Y-71213734D01*
X961841Y-71204349D01*
X917656Y-71091114D01*
X800338Y-70790454D01*
X797019Y-70780786D01*
X670242Y-70354951D01*
X667733Y-70345043D01*
X576555Y-69910194D01*
X574873Y-69900114D01*
X519915Y-69459209D01*
X519072Y-69449036D01*
X500606Y-69002562D01*
X500500Y-68997438D01*
X500500Y-67852486D01*
X7749500Y-67852486D01*
X7749500Y-68147513D01*
X7759780Y-68225591D01*
X7788007Y-68439993D01*
X7788008Y-68439995D01*
X7864361Y-68724951D01*
X7864364Y-68724961D01*
X7977254Y-68997500D01*
X7977258Y-68997510D01*
X8124761Y-69252993D01*
X8304352Y-69487040D01*
X8304358Y-69487047D01*
X8512952Y-69695641D01*
X8512959Y-69695647D01*
X8747006Y-69875238D01*
X9002489Y-70022741D01*
X9002490Y-70022741D01*
X9002493Y-70022743D01*
X9275048Y-70135639D01*
X9560007Y-70211993D01*
X9852494Y-70250500D01*
X9852501Y-70250500D01*
X10147499Y-70250500D01*
X10147506Y-70250500D01*
X10439993Y-70211993D01*
X10724952Y-70135639D01*
X10997507Y-70022743D01*
X11252994Y-69875238D01*
X11487042Y-69695646D01*
X11695646Y-69487042D01*
X11875238Y-69252994D01*
X12022743Y-68997507D01*
X12135639Y-68724952D01*
X12211993Y-68439993D01*
X12216673Y-68404448D01*
X74529500Y-68404448D01*
X74529500Y-69385551D01*
X74557829Y-69564410D01*
X74613787Y-69736636D01*
X74613788Y-69736639D01*
X74696006Y-69897997D01*
X74802441Y-70044494D01*
X74802445Y-70044499D01*
X74930500Y-70172554D01*
X74930505Y-70172558D01*
X75037783Y-70250499D01*
X75077006Y-70278996D01*
X75182484Y-70332740D01*
X75238360Y-70361211D01*
X75238363Y-70361212D01*
X75324476Y-70389191D01*
X75410591Y-70417171D01*
X75493429Y-70430291D01*
X75589449Y-70445500D01*
X75589454Y-70445500D01*
X75770551Y-70445500D01*
X75857259Y-70431765D01*
X75949409Y-70417171D01*
X76121639Y-70361211D01*
X76282994Y-70278996D01*
X76429501Y-70172553D01*
X76557553Y-70044501D01*
X76663996Y-69897994D01*
X76746211Y-69736639D01*
X76802171Y-69564409D01*
X76819635Y-69454145D01*
X76830500Y-69385551D01*
X76830500Y-68404448D01*
X83169500Y-68404448D01*
X83169500Y-69385551D01*
X83197829Y-69564410D01*
X83253787Y-69736636D01*
X83253788Y-69736639D01*
X83336006Y-69897997D01*
X83442441Y-70044494D01*
X83442445Y-70044499D01*
X83570500Y-70172554D01*
X83570505Y-70172558D01*
X83677783Y-70250499D01*
X83717006Y-70278996D01*
X83822484Y-70332740D01*
X83878360Y-70361211D01*
X83878363Y-70361212D01*
X83964476Y-70389191D01*
X84050591Y-70417171D01*
X84133429Y-70430291D01*
X84229449Y-70445500D01*
X84229454Y-70445500D01*
X84410551Y-70445500D01*
X84497259Y-70431765D01*
X84589409Y-70417171D01*
X84761639Y-70361211D01*
X84922994Y-70278996D01*
X85069501Y-70172553D01*
X85197553Y-70044501D01*
X85303996Y-69897994D01*
X85386211Y-69736639D01*
X85442171Y-69564409D01*
X85459635Y-69454145D01*
X85470500Y-69385551D01*
X85470500Y-68404448D01*
X85454019Y-68300397D01*
X85442171Y-68225591D01*
X85386211Y-68053361D01*
X85386211Y-68053360D01*
X85310479Y-67904730D01*
X85303993Y-67892001D01*
X85275284Y-67852486D01*
X147749500Y-67852486D01*
X147749500Y-68147513D01*
X147759780Y-68225591D01*
X147788007Y-68439993D01*
X147788008Y-68439995D01*
X147864361Y-68724951D01*
X147864364Y-68724961D01*
X147977254Y-68997500D01*
X147977258Y-68997510D01*
X148124761Y-69252993D01*
X148304352Y-69487040D01*
X148304358Y-69487047D01*
X148512952Y-69695641D01*
X148512959Y-69695647D01*
X148747006Y-69875238D01*
X149002489Y-70022741D01*
X149002490Y-70022741D01*
X149002493Y-70022743D01*
X149275048Y-70135639D01*
X149560007Y-70211993D01*
X149852494Y-70250500D01*
X149852501Y-70250500D01*
X150147499Y-70250500D01*
X150147506Y-70250500D01*
X150439993Y-70211993D01*
X150724952Y-70135639D01*
X150997507Y-70022743D01*
X151252994Y-69875238D01*
X151487042Y-69695646D01*
X151695646Y-69487042D01*
X151875238Y-69252994D01*
X152022743Y-68997507D01*
X152135639Y-68724952D01*
X152211993Y-68439993D01*
X152250500Y-68147506D01*
X152250500Y-67852494D01*
X152211993Y-67560007D01*
X152135639Y-67275048D01*
X152022743Y-67002493D01*
X151875238Y-66747006D01*
X151695646Y-66512958D01*
X151695641Y-66512952D01*
X151487047Y-66304358D01*
X151487040Y-66304352D01*
X151252993Y-66124761D01*
X150997510Y-65977258D01*
X150997500Y-65977254D01*
X150724961Y-65864364D01*
X150724954Y-65864362D01*
X150724952Y-65864361D01*
X150439993Y-65788007D01*
X150391113Y-65781571D01*
X150147513Y-65749500D01*
X150147506Y-65749500D01*
X149852494Y-65749500D01*
X149852486Y-65749500D01*
X149574085Y-65786153D01*
X149560007Y-65788007D01*
X149275048Y-65864361D01*
X149275038Y-65864364D01*
X149002499Y-65977254D01*
X149002489Y-65977258D01*
X148747006Y-66124761D01*
X148512959Y-66304352D01*
X148512952Y-66304358D01*
X148304358Y-66512952D01*
X148304352Y-66512959D01*
X148124761Y-66747006D01*
X147977258Y-67002489D01*
X147977254Y-67002499D01*
X147864364Y-67275038D01*
X147864361Y-67275048D01*
X147788008Y-67560004D01*
X147788006Y-67560015D01*
X147749500Y-67852486D01*
X85275284Y-67852486D01*
X85197558Y-67745505D01*
X85197554Y-67745500D01*
X85069499Y-67617445D01*
X85069494Y-67617441D01*
X84922997Y-67511006D01*
X84922996Y-67511005D01*
X84922994Y-67511004D01*
X84871300Y-67484664D01*
X84761639Y-67428788D01*
X84761636Y-67428787D01*
X84589410Y-67372829D01*
X84410551Y-67344500D01*
X84410546Y-67344500D01*
X84229454Y-67344500D01*
X84229449Y-67344500D01*
X84050589Y-67372829D01*
X83878363Y-67428787D01*
X83878360Y-67428788D01*
X83717002Y-67511006D01*
X83570505Y-67617441D01*
X83570500Y-67617445D01*
X83442445Y-67745500D01*
X83442441Y-67745505D01*
X83336006Y-67892002D01*
X83253788Y-68053360D01*
X83253787Y-68053363D01*
X83197829Y-68225589D01*
X83169500Y-68404448D01*
X76830500Y-68404448D01*
X76814019Y-68300397D01*
X76802171Y-68225591D01*
X76746211Y-68053361D01*
X76746211Y-68053360D01*
X76717740Y-67997484D01*
X76663996Y-67892006D01*
X76635283Y-67852486D01*
X76557558Y-67745505D01*
X76557554Y-67745500D01*
X76429499Y-67617445D01*
X76429494Y-67617441D01*
X76282997Y-67511006D01*
X76282996Y-67511005D01*
X76282994Y-67511004D01*
X76231300Y-67484664D01*
X76121639Y-67428788D01*
X76121636Y-67428787D01*
X75949410Y-67372829D01*
X75770551Y-67344500D01*
X75770546Y-67344500D01*
X75589454Y-67344500D01*
X75589449Y-67344500D01*
X75410589Y-67372829D01*
X75238363Y-67428787D01*
X75238360Y-67428788D01*
X75077002Y-67511006D01*
X74930505Y-67617441D01*
X74930500Y-67617445D01*
X74802445Y-67745500D01*
X74802441Y-67745505D01*
X74696006Y-67892002D01*
X74613788Y-68053360D01*
X74613787Y-68053363D01*
X74557829Y-68225589D01*
X74529500Y-68404448D01*
X12216673Y-68404448D01*
X12250500Y-68147506D01*
X12250500Y-67852494D01*
X12211993Y-67560007D01*
X12135639Y-67275048D01*
X12022743Y-67002493D01*
X11875238Y-66747006D01*
X11695646Y-66512958D01*
X11695641Y-66512952D01*
X11487047Y-66304358D01*
X11487040Y-66304352D01*
X11252993Y-66124761D01*
X10997510Y-65977258D01*
X10997500Y-65977254D01*
X10724961Y-65864364D01*
X10724954Y-65864362D01*
X10724952Y-65864361D01*
X10439993Y-65788007D01*
X10391113Y-65781571D01*
X10147513Y-65749500D01*
X10147506Y-65749500D01*
X9852494Y-65749500D01*
X9852486Y-65749500D01*
X9574085Y-65786153D01*
X9560007Y-65788007D01*
X9275048Y-65864361D01*
X9275038Y-65864364D01*
X9002499Y-65977254D01*
X9002489Y-65977258D01*
X8747006Y-66124761D01*
X8512959Y-66304352D01*
X8512952Y-66304358D01*
X8304358Y-66512952D01*
X8304352Y-66512959D01*
X8124761Y-66747006D01*
X7977258Y-67002489D01*
X7977254Y-67002499D01*
X7864364Y-67275038D01*
X7864361Y-67275048D01*
X7788008Y-67560004D01*
X7788006Y-67560015D01*
X7749500Y-67852486D01*
X500500Y-67852486D01*
X500500Y-57397648D01*
X77699500Y-57397648D01*
X77699500Y-57602351D01*
X77731522Y-57804534D01*
X77794781Y-57999223D01*
X77887715Y-58181613D01*
X78008028Y-58347213D01*
X78152786Y-58491971D01*
X78307749Y-58604556D01*
X78318390Y-58612287D01*
X78434607Y-58671503D01*
X78500776Y-58705218D01*
X78500778Y-58705218D01*
X78500781Y-58705220D01*
X78605137Y-58739127D01*
X78695465Y-58768477D01*
X78796557Y-58784488D01*
X78897648Y-58800500D01*
X78897649Y-58800500D01*
X79102351Y-58800500D01*
X79102352Y-58800500D01*
X79304534Y-58768477D01*
X79499219Y-58705220D01*
X79681610Y-58612287D01*
X79774590Y-58544732D01*
X79847213Y-58491971D01*
X79847215Y-58491968D01*
X79847219Y-58491966D01*
X79912319Y-58426866D01*
X79973642Y-58393381D01*
X80043334Y-58398365D01*
X80087681Y-58426866D01*
X80152786Y-58491971D01*
X80307749Y-58604556D01*
X80318390Y-58612287D01*
X80434607Y-58671503D01*
X80500776Y-58705218D01*
X80500778Y-58705218D01*
X80500781Y-58705220D01*
X80605137Y-58739127D01*
X80695465Y-58768477D01*
X80796557Y-58784488D01*
X80897648Y-58800500D01*
X80897649Y-58800500D01*
X81102351Y-58800500D01*
X81102352Y-58800500D01*
X81304534Y-58768477D01*
X81499219Y-58705220D01*
X81681610Y-58612287D01*
X81774590Y-58544732D01*
X81847213Y-58491971D01*
X81847215Y-58491968D01*
X81847219Y-58491966D01*
X81991966Y-58347219D01*
X81991968Y-58347215D01*
X81991971Y-58347213D01*
X82044732Y-58274590D01*
X82112287Y-58181610D01*
X82205220Y-57999219D01*
X82268477Y-57804534D01*
X82300500Y-57602352D01*
X82300500Y-57397648D01*
X82268477Y-57195466D01*
X82205220Y-57000781D01*
X82205218Y-57000778D01*
X82205218Y-57000776D01*
X82171503Y-56934607D01*
X82112287Y-56818390D01*
X82057962Y-56743617D01*
X81991971Y-56652786D01*
X81895564Y-56556379D01*
X121749500Y-56556379D01*
X121749500Y-56743620D01*
X121786025Y-56927243D01*
X121786027Y-56927251D01*
X121857676Y-57100228D01*
X121857681Y-57100237D01*
X121961697Y-57255907D01*
X121961700Y-57255911D01*
X122094088Y-57388299D01*
X122094092Y-57388302D01*
X122249762Y-57492318D01*
X122249768Y-57492321D01*
X122249769Y-57492322D01*
X122422749Y-57563973D01*
X122606379Y-57600499D01*
X122606383Y-57600500D01*
X122606384Y-57600500D01*
X122793617Y-57600500D01*
X122793618Y-57600499D01*
X122977251Y-57563973D01*
X123150231Y-57492322D01*
X123305908Y-57388302D01*
X123438302Y-57255908D01*
X123542322Y-57100231D01*
X123613973Y-56927251D01*
X123650500Y-56743616D01*
X123650500Y-56556384D01*
X123613973Y-56372749D01*
X123542322Y-56199769D01*
X123542321Y-56199768D01*
X123542318Y-56199762D01*
X123438302Y-56044092D01*
X123438299Y-56044088D01*
X123305911Y-55911700D01*
X123305907Y-55911697D01*
X123150237Y-55807681D01*
X123150228Y-55807676D01*
X122977251Y-55736027D01*
X122977243Y-55736025D01*
X122793620Y-55699500D01*
X122793616Y-55699500D01*
X122606384Y-55699500D01*
X122606379Y-55699500D01*
X122422756Y-55736025D01*
X122422748Y-55736027D01*
X122249771Y-55807676D01*
X122249762Y-55807681D01*
X122094092Y-55911697D01*
X122094088Y-55911700D01*
X121961700Y-56044088D01*
X121961697Y-56044092D01*
X121857681Y-56199762D01*
X121857676Y-56199771D01*
X121786027Y-56372748D01*
X121786025Y-56372756D01*
X121749500Y-56556379D01*
X81895564Y-56556379D01*
X81847213Y-56508028D01*
X81681613Y-56387715D01*
X81681612Y-56387714D01*
X81681610Y-56387713D01*
X81624653Y-56358691D01*
X81499223Y-56294781D01*
X81304534Y-56231522D01*
X81129995Y-56203878D01*
X81102352Y-56199500D01*
X80897648Y-56199500D01*
X80873329Y-56203351D01*
X80695465Y-56231522D01*
X80500776Y-56294781D01*
X80318386Y-56387715D01*
X80152786Y-56508028D01*
X80152782Y-56508032D01*
X80087681Y-56573134D01*
X80026358Y-56606619D01*
X79956666Y-56601635D01*
X79912319Y-56573134D01*
X79847213Y-56508028D01*
X79681613Y-56387715D01*
X79681612Y-56387714D01*
X79681610Y-56387713D01*
X79624653Y-56358691D01*
X79499223Y-56294781D01*
X79304534Y-56231522D01*
X79129995Y-56203878D01*
X79102352Y-56199500D01*
X78897648Y-56199500D01*
X78873329Y-56203351D01*
X78695465Y-56231522D01*
X78500776Y-56294781D01*
X78318386Y-56387715D01*
X78152786Y-56508028D01*
X78008028Y-56652786D01*
X77887715Y-56818386D01*
X77794781Y-57000776D01*
X77731522Y-57195465D01*
X77699500Y-57397648D01*
X500500Y-57397648D01*
X500500Y-54406379D01*
X114999500Y-54406379D01*
X114999500Y-54593620D01*
X115036025Y-54777243D01*
X115036027Y-54777251D01*
X115107676Y-54950228D01*
X115107681Y-54950237D01*
X115211697Y-55105907D01*
X115211700Y-55105911D01*
X115344088Y-55238299D01*
X115344092Y-55238302D01*
X115499762Y-55342318D01*
X115499768Y-55342321D01*
X115499769Y-55342322D01*
X115672749Y-55413973D01*
X115856379Y-55450499D01*
X115856383Y-55450500D01*
X115856384Y-55450500D01*
X116043617Y-55450500D01*
X116043618Y-55450499D01*
X116227251Y-55413973D01*
X116400231Y-55342322D01*
X116555908Y-55238302D01*
X116688302Y-55105908D01*
X116792322Y-54950231D01*
X116863973Y-54777251D01*
X116900500Y-54593616D01*
X116900500Y-54406384D01*
X116863973Y-54222749D01*
X116792322Y-54049769D01*
X116792321Y-54049768D01*
X116792318Y-54049762D01*
X116688302Y-53894092D01*
X116688299Y-53894088D01*
X116555911Y-53761700D01*
X116555907Y-53761697D01*
X116400237Y-53657681D01*
X116400228Y-53657676D01*
X116227251Y-53586027D01*
X116227243Y-53586025D01*
X116043620Y-53549500D01*
X116043616Y-53549500D01*
X115856384Y-53549500D01*
X115856379Y-53549500D01*
X115672756Y-53586025D01*
X115672748Y-53586027D01*
X115499771Y-53657676D01*
X115499762Y-53657681D01*
X115344092Y-53761697D01*
X115344088Y-53761700D01*
X115211700Y-53894088D01*
X115211697Y-53894092D01*
X115107681Y-54049762D01*
X115107676Y-54049771D01*
X115036027Y-54222748D01*
X115036025Y-54222756D01*
X114999500Y-54406379D01*
X500500Y-54406379D01*
X500500Y-50406379D01*
X110749500Y-50406379D01*
X110749500Y-50593620D01*
X110786025Y-50777243D01*
X110786027Y-50777251D01*
X110857676Y-50950228D01*
X110857681Y-50950237D01*
X110961697Y-51105907D01*
X110961700Y-51105911D01*
X111094088Y-51238299D01*
X111094092Y-51238302D01*
X111249762Y-51342318D01*
X111249768Y-51342321D01*
X111249769Y-51342322D01*
X111422749Y-51413973D01*
X111606379Y-51450499D01*
X111606383Y-51450500D01*
X111606384Y-51450500D01*
X111793617Y-51450500D01*
X111793618Y-51450499D01*
X111977251Y-51413973D01*
X112150231Y-51342322D01*
X112305908Y-51238302D01*
X112438302Y-51105908D01*
X112542322Y-50950231D01*
X112613973Y-50777251D01*
X112650500Y-50593616D01*
X112650500Y-50406384D01*
X112613973Y-50222749D01*
X112542322Y-50049769D01*
X112542321Y-50049768D01*
X112542318Y-50049762D01*
X112438302Y-49894092D01*
X112438299Y-49894088D01*
X112305911Y-49761700D01*
X112305907Y-49761697D01*
X112150237Y-49657681D01*
X112150228Y-49657676D01*
X111977251Y-49586027D01*
X111977243Y-49586025D01*
X111793620Y-49549500D01*
X111793616Y-49549500D01*
X111606384Y-49549500D01*
X111606379Y-49549500D01*
X111422756Y-49586025D01*
X111422748Y-49586027D01*
X111249771Y-49657676D01*
X111249762Y-49657681D01*
X111094092Y-49761697D01*
X111094088Y-49761700D01*
X110961700Y-49894088D01*
X110961697Y-49894092D01*
X110857681Y-50049762D01*
X110857676Y-50049771D01*
X110786027Y-50222748D01*
X110786025Y-50222756D01*
X110749500Y-50406379D01*
X500500Y-50406379D01*
X500500Y-44906379D01*
X41099500Y-44906379D01*
X41099500Y-45093620D01*
X41136025Y-45277243D01*
X41136027Y-45277251D01*
X41207676Y-45450228D01*
X41207681Y-45450237D01*
X41311697Y-45605907D01*
X41311700Y-45605911D01*
X41444088Y-45738299D01*
X41444092Y-45738302D01*
X41599762Y-45842318D01*
X41599768Y-45842321D01*
X41599769Y-45842322D01*
X41772749Y-45913973D01*
X41956379Y-45950499D01*
X41956383Y-45950500D01*
X41956384Y-45950500D01*
X42143617Y-45950500D01*
X42143618Y-45950499D01*
X42327251Y-45913973D01*
X42500231Y-45842322D01*
X42655908Y-45738302D01*
X42788302Y-45605908D01*
X42892322Y-45450231D01*
X42963973Y-45277251D01*
X43000500Y-45093616D01*
X43000500Y-44906384D01*
X43000499Y-44906379D01*
X46099500Y-44906379D01*
X46099500Y-45093620D01*
X46136025Y-45277243D01*
X46136027Y-45277251D01*
X46207676Y-45450228D01*
X46207681Y-45450237D01*
X46311697Y-45605907D01*
X46311700Y-45605911D01*
X46444088Y-45738299D01*
X46444092Y-45738302D01*
X46599762Y-45842318D01*
X46599768Y-45842321D01*
X46599769Y-45842322D01*
X46772749Y-45913973D01*
X46956379Y-45950499D01*
X46956383Y-45950500D01*
X46956384Y-45950500D01*
X47143617Y-45950500D01*
X47143618Y-45950499D01*
X47327251Y-45913973D01*
X47500231Y-45842322D01*
X47655908Y-45738302D01*
X47788302Y-45605908D01*
X47892322Y-45450231D01*
X47963973Y-45277251D01*
X48000500Y-45093616D01*
X48000500Y-44906384D01*
X48000499Y-44906379D01*
X56099500Y-44906379D01*
X56099500Y-45093620D01*
X56136025Y-45277243D01*
X56136027Y-45277251D01*
X56207676Y-45450228D01*
X56207681Y-45450237D01*
X56311697Y-45605907D01*
X56311700Y-45605911D01*
X56444088Y-45738299D01*
X56444092Y-45738302D01*
X56599762Y-45842318D01*
X56599768Y-45842321D01*
X56599769Y-45842322D01*
X56772749Y-45913973D01*
X56956379Y-45950499D01*
X56956383Y-45950500D01*
X56956384Y-45950500D01*
X57143617Y-45950500D01*
X57143618Y-45950499D01*
X57327251Y-45913973D01*
X57500231Y-45842322D01*
X57655908Y-45738302D01*
X57788302Y-45605908D01*
X57892322Y-45450231D01*
X57963973Y-45277251D01*
X58000500Y-45093616D01*
X58000500Y-44906384D01*
X58000499Y-44906379D01*
X71099500Y-44906379D01*
X71099500Y-45093620D01*
X71136025Y-45277243D01*
X71136027Y-45277251D01*
X71207676Y-45450228D01*
X71207681Y-45450237D01*
X71311697Y-45605907D01*
X71311700Y-45605911D01*
X71444088Y-45738299D01*
X71444092Y-45738302D01*
X71599762Y-45842318D01*
X71599768Y-45842321D01*
X71599769Y-45842322D01*
X71772749Y-45913973D01*
X71956379Y-45950499D01*
X71956383Y-45950500D01*
X71956384Y-45950500D01*
X72143617Y-45950500D01*
X72143618Y-45950499D01*
X72327251Y-45913973D01*
X72500231Y-45842322D01*
X72655908Y-45738302D01*
X72788302Y-45605908D01*
X72892322Y-45450231D01*
X72963973Y-45277251D01*
X73000500Y-45093616D01*
X73000500Y-44906384D01*
X73000499Y-44906379D01*
X76099500Y-44906379D01*
X76099500Y-45093620D01*
X76136025Y-45277243D01*
X76136027Y-45277251D01*
X76207676Y-45450228D01*
X76207681Y-45450237D01*
X76311697Y-45605907D01*
X76311700Y-45605911D01*
X76444088Y-45738299D01*
X76444092Y-45738302D01*
X76599762Y-45842318D01*
X76599768Y-45842321D01*
X76599769Y-45842322D01*
X76772749Y-45913973D01*
X76956379Y-45950499D01*
X76956383Y-45950500D01*
X76956384Y-45950500D01*
X77143617Y-45950500D01*
X77143618Y-45950499D01*
X77327251Y-45913973D01*
X77500231Y-45842322D01*
X77655908Y-45738302D01*
X77788302Y-45605908D01*
X77892322Y-45450231D01*
X77963973Y-45277251D01*
X78000500Y-45093616D01*
X78000500Y-44906384D01*
X78000499Y-44906379D01*
X81099500Y-44906379D01*
X81099500Y-45093620D01*
X81136025Y-45277243D01*
X81136027Y-45277251D01*
X81207676Y-45450228D01*
X81207681Y-45450237D01*
X81311697Y-45605907D01*
X81311700Y-45605911D01*
X81444088Y-45738299D01*
X81444092Y-45738302D01*
X81599762Y-45842318D01*
X81599768Y-45842321D01*
X81599769Y-45842322D01*
X81772749Y-45913973D01*
X81956379Y-45950499D01*
X81956383Y-45950500D01*
X81956384Y-45950500D01*
X82143617Y-45950500D01*
X82143618Y-45950499D01*
X82327251Y-45913973D01*
X82500231Y-45842322D01*
X82655908Y-45738302D01*
X82788302Y-45605908D01*
X82892322Y-45450231D01*
X82963973Y-45277251D01*
X83000500Y-45093616D01*
X83000500Y-44906384D01*
X83000499Y-44906379D01*
X86099500Y-44906379D01*
X86099500Y-45093620D01*
X86136025Y-45277243D01*
X86136027Y-45277251D01*
X86207676Y-45450228D01*
X86207681Y-45450237D01*
X86311697Y-45605907D01*
X86311700Y-45605911D01*
X86444088Y-45738299D01*
X86444092Y-45738302D01*
X86599762Y-45842318D01*
X86599768Y-45842321D01*
X86599769Y-45842322D01*
X86772749Y-45913973D01*
X86956379Y-45950499D01*
X86956383Y-45950500D01*
X86956384Y-45950500D01*
X87143617Y-45950500D01*
X87143618Y-45950499D01*
X87327251Y-45913973D01*
X87500231Y-45842322D01*
X87655908Y-45738302D01*
X87788302Y-45605908D01*
X87892322Y-45450231D01*
X87963973Y-45277251D01*
X88000500Y-45093616D01*
X88000500Y-44906384D01*
X88000499Y-44906379D01*
X96099500Y-44906379D01*
X96099500Y-45093620D01*
X96136025Y-45277243D01*
X96136027Y-45277251D01*
X96207676Y-45450228D01*
X96207681Y-45450237D01*
X96311697Y-45605907D01*
X96311700Y-45605911D01*
X96444088Y-45738299D01*
X96444092Y-45738302D01*
X96599762Y-45842318D01*
X96599768Y-45842321D01*
X96599769Y-45842322D01*
X96772749Y-45913973D01*
X96956379Y-45950499D01*
X96956383Y-45950500D01*
X96956384Y-45950500D01*
X97143617Y-45950500D01*
X97143618Y-45950499D01*
X97327251Y-45913973D01*
X97500231Y-45842322D01*
X97655908Y-45738302D01*
X97788302Y-45605908D01*
X97892322Y-45450231D01*
X97963973Y-45277251D01*
X98000500Y-45093616D01*
X98000500Y-44906384D01*
X98000499Y-44906379D01*
X101099500Y-44906379D01*
X101099500Y-45093620D01*
X101136025Y-45277243D01*
X101136027Y-45277251D01*
X101207676Y-45450228D01*
X101207681Y-45450237D01*
X101311697Y-45605907D01*
X101311700Y-45605911D01*
X101444088Y-45738299D01*
X101444092Y-45738302D01*
X101599762Y-45842318D01*
X101599768Y-45842321D01*
X101599769Y-45842322D01*
X101772749Y-45913973D01*
X101956379Y-45950499D01*
X101956383Y-45950500D01*
X101956384Y-45950500D01*
X102143617Y-45950500D01*
X102143618Y-45950499D01*
X102327251Y-45913973D01*
X102500231Y-45842322D01*
X102655908Y-45738302D01*
X102788302Y-45605908D01*
X102892322Y-45450231D01*
X102963973Y-45277251D01*
X103000500Y-45093616D01*
X103000500Y-44906384D01*
X102963973Y-44722749D01*
X102892322Y-44549769D01*
X102892321Y-44549768D01*
X102892318Y-44549762D01*
X102788302Y-44394092D01*
X102788299Y-44394088D01*
X102655911Y-44261700D01*
X102655907Y-44261697D01*
X102500237Y-44157681D01*
X102500228Y-44157676D01*
X102327251Y-44086027D01*
X102327243Y-44086025D01*
X102143620Y-44049500D01*
X102143616Y-44049500D01*
X101956384Y-44049500D01*
X101956379Y-44049500D01*
X101772756Y-44086025D01*
X101772748Y-44086027D01*
X101599771Y-44157676D01*
X101599762Y-44157681D01*
X101444092Y-44261697D01*
X101444088Y-44261700D01*
X101311700Y-44394088D01*
X101311697Y-44394092D01*
X101207681Y-44549762D01*
X101207676Y-44549771D01*
X101136027Y-44722748D01*
X101136025Y-44722756D01*
X101099500Y-44906379D01*
X98000499Y-44906379D01*
X97963973Y-44722749D01*
X97892322Y-44549769D01*
X97892321Y-44549768D01*
X97892318Y-44549762D01*
X97788302Y-44394092D01*
X97788299Y-44394088D01*
X97655911Y-44261700D01*
X97655907Y-44261697D01*
X97500237Y-44157681D01*
X97500228Y-44157676D01*
X97327251Y-44086027D01*
X97327243Y-44086025D01*
X97143620Y-44049500D01*
X97143616Y-44049500D01*
X96956384Y-44049500D01*
X96956379Y-44049500D01*
X96772756Y-44086025D01*
X96772748Y-44086027D01*
X96599771Y-44157676D01*
X96599762Y-44157681D01*
X96444092Y-44261697D01*
X96444088Y-44261700D01*
X96311700Y-44394088D01*
X96311697Y-44394092D01*
X96207681Y-44549762D01*
X96207676Y-44549771D01*
X96136027Y-44722748D01*
X96136025Y-44722756D01*
X96099500Y-44906379D01*
X88000499Y-44906379D01*
X87963973Y-44722749D01*
X87892322Y-44549769D01*
X87892321Y-44549768D01*
X87892318Y-44549762D01*
X87788302Y-44394092D01*
X87788299Y-44394088D01*
X87655911Y-44261700D01*
X87655907Y-44261697D01*
X87500237Y-44157681D01*
X87500228Y-44157676D01*
X87327251Y-44086027D01*
X87327243Y-44086025D01*
X87143620Y-44049500D01*
X87143616Y-44049500D01*
X86956384Y-44049500D01*
X86956379Y-44049500D01*
X86772756Y-44086025D01*
X86772748Y-44086027D01*
X86599771Y-44157676D01*
X86599762Y-44157681D01*
X86444092Y-44261697D01*
X86444088Y-44261700D01*
X86311700Y-44394088D01*
X86311697Y-44394092D01*
X86207681Y-44549762D01*
X86207676Y-44549771D01*
X86136027Y-44722748D01*
X86136025Y-44722756D01*
X86099500Y-44906379D01*
X83000499Y-44906379D01*
X82963973Y-44722749D01*
X82892322Y-44549769D01*
X82892321Y-44549768D01*
X82892318Y-44549762D01*
X82788302Y-44394092D01*
X82788299Y-44394088D01*
X82655911Y-44261700D01*
X82655907Y-44261697D01*
X82500237Y-44157681D01*
X82500228Y-44157676D01*
X82327251Y-44086027D01*
X82327243Y-44086025D01*
X82143620Y-44049500D01*
X82143616Y-44049500D01*
X81956384Y-44049500D01*
X81956379Y-44049500D01*
X81772756Y-44086025D01*
X81772748Y-44086027D01*
X81599771Y-44157676D01*
X81599762Y-44157681D01*
X81444092Y-44261697D01*
X81444088Y-44261700D01*
X81311700Y-44394088D01*
X81311697Y-44394092D01*
X81207681Y-44549762D01*
X81207676Y-44549771D01*
X81136027Y-44722748D01*
X81136025Y-44722756D01*
X81099500Y-44906379D01*
X78000499Y-44906379D01*
X77963973Y-44722749D01*
X77892322Y-44549769D01*
X77892321Y-44549768D01*
X77892318Y-44549762D01*
X77788302Y-44394092D01*
X77788299Y-44394088D01*
X77655911Y-44261700D01*
X77655907Y-44261697D01*
X77500237Y-44157681D01*
X77500228Y-44157676D01*
X77327251Y-44086027D01*
X77327243Y-44086025D01*
X77143620Y-44049500D01*
X77143616Y-44049500D01*
X76956384Y-44049500D01*
X76956379Y-44049500D01*
X76772756Y-44086025D01*
X76772748Y-44086027D01*
X76599771Y-44157676D01*
X76599762Y-44157681D01*
X76444092Y-44261697D01*
X76444088Y-44261700D01*
X76311700Y-44394088D01*
X76311697Y-44394092D01*
X76207681Y-44549762D01*
X76207676Y-44549771D01*
X76136027Y-44722748D01*
X76136025Y-44722756D01*
X76099500Y-44906379D01*
X73000499Y-44906379D01*
X72963973Y-44722749D01*
X72892322Y-44549769D01*
X72892321Y-44549768D01*
X72892318Y-44549762D01*
X72788302Y-44394092D01*
X72788299Y-44394088D01*
X72655911Y-44261700D01*
X72655907Y-44261697D01*
X72500237Y-44157681D01*
X72500228Y-44157676D01*
X72327251Y-44086027D01*
X72327243Y-44086025D01*
X72143620Y-44049500D01*
X72143616Y-44049500D01*
X71956384Y-44049500D01*
X71956379Y-44049500D01*
X71772756Y-44086025D01*
X71772748Y-44086027D01*
X71599771Y-44157676D01*
X71599762Y-44157681D01*
X71444092Y-44261697D01*
X71444088Y-44261700D01*
X71311700Y-44394088D01*
X71311697Y-44394092D01*
X71207681Y-44549762D01*
X71207676Y-44549771D01*
X71136027Y-44722748D01*
X71136025Y-44722756D01*
X71099500Y-44906379D01*
X58000499Y-44906379D01*
X57963973Y-44722749D01*
X57892322Y-44549769D01*
X57892321Y-44549768D01*
X57892318Y-44549762D01*
X57788302Y-44394092D01*
X57788299Y-44394088D01*
X57655911Y-44261700D01*
X57655907Y-44261697D01*
X57500237Y-44157681D01*
X57500228Y-44157676D01*
X57327251Y-44086027D01*
X57327243Y-44086025D01*
X57143620Y-44049500D01*
X57143616Y-44049500D01*
X56956384Y-44049500D01*
X56956379Y-44049500D01*
X56772756Y-44086025D01*
X56772748Y-44086027D01*
X56599771Y-44157676D01*
X56599762Y-44157681D01*
X56444092Y-44261697D01*
X56444088Y-44261700D01*
X56311700Y-44394088D01*
X56311697Y-44394092D01*
X56207681Y-44549762D01*
X56207676Y-44549771D01*
X56136027Y-44722748D01*
X56136025Y-44722756D01*
X56099500Y-44906379D01*
X48000499Y-44906379D01*
X47963973Y-44722749D01*
X47892322Y-44549769D01*
X47892321Y-44549768D01*
X47892318Y-44549762D01*
X47788302Y-44394092D01*
X47788299Y-44394088D01*
X47655911Y-44261700D01*
X47655907Y-44261697D01*
X47500237Y-44157681D01*
X47500228Y-44157676D01*
X47327251Y-44086027D01*
X47327243Y-44086025D01*
X47143620Y-44049500D01*
X47143616Y-44049500D01*
X46956384Y-44049500D01*
X46956379Y-44049500D01*
X46772756Y-44086025D01*
X46772748Y-44086027D01*
X46599771Y-44157676D01*
X46599762Y-44157681D01*
X46444092Y-44261697D01*
X46444088Y-44261700D01*
X46311700Y-44394088D01*
X46311697Y-44394092D01*
X46207681Y-44549762D01*
X46207676Y-44549771D01*
X46136027Y-44722748D01*
X46136025Y-44722756D01*
X46099500Y-44906379D01*
X43000499Y-44906379D01*
X42963973Y-44722749D01*
X42892322Y-44549769D01*
X42892321Y-44549768D01*
X42892318Y-44549762D01*
X42788302Y-44394092D01*
X42788299Y-44394088D01*
X42655911Y-44261700D01*
X42655907Y-44261697D01*
X42500237Y-44157681D01*
X42500228Y-44157676D01*
X42327251Y-44086027D01*
X42327243Y-44086025D01*
X42143620Y-44049500D01*
X42143616Y-44049500D01*
X41956384Y-44049500D01*
X41956379Y-44049500D01*
X41772756Y-44086025D01*
X41772748Y-44086027D01*
X41599771Y-44157676D01*
X41599762Y-44157681D01*
X41444092Y-44261697D01*
X41444088Y-44261700D01*
X41311700Y-44394088D01*
X41311697Y-44394092D01*
X41207681Y-44549762D01*
X41207676Y-44549771D01*
X41136027Y-44722748D01*
X41136025Y-44722756D01*
X41099500Y-44906379D01*
X500500Y-44906379D01*
X500500Y-37352486D01*
X52749500Y-37352486D01*
X52749500Y-37647513D01*
X52781571Y-37891113D01*
X52788007Y-37939993D01*
X52788008Y-37939995D01*
X52864361Y-38224951D01*
X52864364Y-38224961D01*
X52977254Y-38497500D01*
X52977258Y-38497510D01*
X53124761Y-38752993D01*
X53304352Y-38987040D01*
X53304358Y-38987047D01*
X53512952Y-39195641D01*
X53512959Y-39195647D01*
X53747006Y-39375238D01*
X54002489Y-39522741D01*
X54002490Y-39522741D01*
X54002493Y-39522743D01*
X54275048Y-39635639D01*
X54560007Y-39711993D01*
X54852494Y-39750500D01*
X54852501Y-39750500D01*
X55147499Y-39750500D01*
X55147506Y-39750500D01*
X55439993Y-39711993D01*
X55724952Y-39635639D01*
X55997507Y-39522743D01*
X56252994Y-39375238D01*
X56487042Y-39195646D01*
X56695646Y-38987042D01*
X56875238Y-38752994D01*
X57022743Y-38497507D01*
X57135639Y-38224952D01*
X57211993Y-37939993D01*
X57250500Y-37647506D01*
X57250500Y-37352494D01*
X57250499Y-37352486D01*
X102749500Y-37352486D01*
X102749500Y-37647513D01*
X102781571Y-37891113D01*
X102788007Y-37939993D01*
X102788008Y-37939995D01*
X102864361Y-38224951D01*
X102864364Y-38224961D01*
X102977254Y-38497500D01*
X102977258Y-38497510D01*
X103124761Y-38752993D01*
X103304352Y-38987040D01*
X103304358Y-38987047D01*
X103512952Y-39195641D01*
X103512959Y-39195647D01*
X103747006Y-39375238D01*
X104002489Y-39522741D01*
X104002490Y-39522741D01*
X104002493Y-39522743D01*
X104275048Y-39635639D01*
X104560007Y-39711993D01*
X104852494Y-39750500D01*
X104852501Y-39750500D01*
X105147499Y-39750500D01*
X105147506Y-39750500D01*
X105439993Y-39711993D01*
X105724952Y-39635639D01*
X105997507Y-39522743D01*
X106252994Y-39375238D01*
X106487042Y-39195646D01*
X106695646Y-38987042D01*
X106875238Y-38752994D01*
X107022743Y-38497507D01*
X107135639Y-38224952D01*
X107211993Y-37939993D01*
X107250500Y-37647506D01*
X107250500Y-37352494D01*
X107211993Y-37060007D01*
X107135639Y-36775048D01*
X107022743Y-36502493D01*
X106875238Y-36247006D01*
X106695646Y-36012958D01*
X106695641Y-36012952D01*
X106487047Y-35804358D01*
X106487040Y-35804352D01*
X106252993Y-35624761D01*
X105997510Y-35477258D01*
X105997500Y-35477254D01*
X105724961Y-35364364D01*
X105724954Y-35364362D01*
X105724952Y-35364361D01*
X105439993Y-35288007D01*
X105391113Y-35281571D01*
X105147513Y-35249500D01*
X105147506Y-35249500D01*
X104852494Y-35249500D01*
X104852486Y-35249500D01*
X104574085Y-35286153D01*
X104560007Y-35288007D01*
X104275048Y-35364361D01*
X104275038Y-35364364D01*
X104002499Y-35477254D01*
X104002489Y-35477258D01*
X103747006Y-35624761D01*
X103512959Y-35804352D01*
X103512952Y-35804358D01*
X103304358Y-36012952D01*
X103304352Y-36012959D01*
X103124761Y-36247006D01*
X102977258Y-36502489D01*
X102977254Y-36502499D01*
X102864364Y-36775038D01*
X102864361Y-36775048D01*
X102788008Y-37060004D01*
X102788006Y-37060015D01*
X102749500Y-37352486D01*
X57250499Y-37352486D01*
X57211993Y-37060007D01*
X57135639Y-36775048D01*
X57022743Y-36502493D01*
X56875238Y-36247006D01*
X56695646Y-36012958D01*
X56695641Y-36012952D01*
X56487047Y-35804358D01*
X56487040Y-35804352D01*
X56252993Y-35624761D01*
X55997510Y-35477258D01*
X55997500Y-35477254D01*
X55724961Y-35364364D01*
X55724954Y-35364362D01*
X55724952Y-35364361D01*
X55439993Y-35288007D01*
X55391113Y-35281571D01*
X55147513Y-35249500D01*
X55147506Y-35249500D01*
X54852494Y-35249500D01*
X54852486Y-35249500D01*
X54574085Y-35286153D01*
X54560007Y-35288007D01*
X54275048Y-35364361D01*
X54275038Y-35364364D01*
X54002499Y-35477254D01*
X54002489Y-35477258D01*
X53747006Y-35624761D01*
X53512959Y-35804352D01*
X53512952Y-35804358D01*
X53304358Y-36012952D01*
X53304352Y-36012959D01*
X53124761Y-36247006D01*
X52977258Y-36502489D01*
X52977254Y-36502499D01*
X52864364Y-36775038D01*
X52864361Y-36775048D01*
X52788008Y-37060004D01*
X52788006Y-37060015D01*
X52749500Y-37352486D01*
X500500Y-37352486D01*
X500500Y-22406379D01*
X34994500Y-22406379D01*
X34994500Y-22593620D01*
X35031025Y-22777243D01*
X35031027Y-22777251D01*
X35102676Y-22950228D01*
X35102681Y-22950237D01*
X35206697Y-23105907D01*
X35206700Y-23105911D01*
X35339088Y-23238299D01*
X35339092Y-23238302D01*
X35494762Y-23342318D01*
X35494768Y-23342321D01*
X35494769Y-23342322D01*
X35667749Y-23413973D01*
X35851379Y-23450499D01*
X35851383Y-23450500D01*
X35851384Y-23450500D01*
X36038617Y-23450500D01*
X36038618Y-23450499D01*
X36222251Y-23413973D01*
X36395231Y-23342322D01*
X36550908Y-23238302D01*
X36683302Y-23105908D01*
X36787322Y-22950231D01*
X36858973Y-22777251D01*
X36895500Y-22593616D01*
X36895500Y-22406384D01*
X36895499Y-22406379D01*
X38549500Y-22406379D01*
X38549500Y-22593620D01*
X38586025Y-22777243D01*
X38586027Y-22777251D01*
X38657676Y-22950228D01*
X38657681Y-22950237D01*
X38761697Y-23105907D01*
X38761700Y-23105911D01*
X38894088Y-23238299D01*
X38894092Y-23238302D01*
X39049762Y-23342318D01*
X39049768Y-23342321D01*
X39049769Y-23342322D01*
X39222749Y-23413973D01*
X39406379Y-23450499D01*
X39406383Y-23450500D01*
X39406384Y-23450500D01*
X39593617Y-23450500D01*
X39593618Y-23450499D01*
X39676023Y-23434108D01*
X124999500Y-23434108D01*
X124999500Y-47565891D01*
X125033608Y-47693187D01*
X125066554Y-47750250D01*
X125099500Y-47807314D01*
X125192686Y-47900500D01*
X125306814Y-47966392D01*
X125434108Y-48000500D01*
X125434110Y-48000500D01*
X128565890Y-48000500D01*
X128565892Y-48000500D01*
X128693186Y-47966392D01*
X128807314Y-47900500D01*
X128900500Y-47807314D01*
X128966392Y-47693186D01*
X129000500Y-47565892D01*
X129000500Y-23434108D01*
X128966392Y-23306814D01*
X128900500Y-23192686D01*
X128807314Y-23099500D01*
X128750250Y-23066554D01*
X128693187Y-23033608D01*
X128629539Y-23016554D01*
X128565892Y-22999500D01*
X125565892Y-22999500D01*
X125434108Y-22999500D01*
X125306812Y-23033608D01*
X125192686Y-23099500D01*
X125192683Y-23099502D01*
X125099502Y-23192683D01*
X125099500Y-23192686D01*
X125033608Y-23306812D01*
X124999500Y-23434108D01*
X39676023Y-23434108D01*
X39777251Y-23413973D01*
X39950231Y-23342322D01*
X40003376Y-23306812D01*
X40020459Y-23295396D01*
X40105908Y-23238302D01*
X40238302Y-23105908D01*
X40342322Y-22950231D01*
X40413973Y-22777251D01*
X40450500Y-22593616D01*
X40450500Y-22406384D01*
X40413973Y-22222749D01*
X40342322Y-22049769D01*
X40342321Y-22049768D01*
X40342318Y-22049762D01*
X40238302Y-21894092D01*
X40238299Y-21894088D01*
X40105911Y-21761700D01*
X40105907Y-21761697D01*
X39950237Y-21657681D01*
X39950228Y-21657676D01*
X39777251Y-21586027D01*
X39777243Y-21586025D01*
X39593620Y-21549500D01*
X39593616Y-21549500D01*
X39406384Y-21549500D01*
X39406379Y-21549500D01*
X39222756Y-21586025D01*
X39222748Y-21586027D01*
X39049771Y-21657676D01*
X39049762Y-21657681D01*
X38894092Y-21761697D01*
X38894088Y-21761700D01*
X38761700Y-21894088D01*
X38761697Y-21894092D01*
X38657681Y-22049762D01*
X38657676Y-22049771D01*
X38586027Y-22222748D01*
X38586025Y-22222756D01*
X38549500Y-22406379D01*
X36895499Y-22406379D01*
X36858973Y-22222749D01*
X36787322Y-22049769D01*
X36787321Y-22049768D01*
X36787318Y-22049762D01*
X36683302Y-21894092D01*
X36683299Y-21894088D01*
X36550911Y-21761700D01*
X36550907Y-21761697D01*
X36395237Y-21657681D01*
X36395228Y-21657676D01*
X36222251Y-21586027D01*
X36222243Y-21586025D01*
X36038620Y-21549500D01*
X36038616Y-21549500D01*
X35851384Y-21549500D01*
X35851379Y-21549500D01*
X35667756Y-21586025D01*
X35667748Y-21586027D01*
X35494771Y-21657676D01*
X35494762Y-21657681D01*
X35339092Y-21761697D01*
X35339088Y-21761700D01*
X35206700Y-21894088D01*
X35206697Y-21894092D01*
X35102681Y-22049762D01*
X35102676Y-22049771D01*
X35031027Y-22222748D01*
X35031025Y-22222756D01*
X34994500Y-22406379D01*
X500500Y-22406379D01*
X500500Y-6852486D01*
X7749500Y-6852486D01*
X7749500Y-7147513D01*
X7781571Y-7391113D01*
X7788007Y-7439993D01*
X7788008Y-7439995D01*
X7864361Y-7724951D01*
X7864364Y-7724961D01*
X7977254Y-7997500D01*
X7977258Y-7997510D01*
X8124761Y-8252993D01*
X8304352Y-8487040D01*
X8304358Y-8487047D01*
X8512952Y-8695641D01*
X8512959Y-8695647D01*
X8747006Y-8875238D01*
X9002489Y-9022741D01*
X9002490Y-9022741D01*
X9002493Y-9022743D01*
X9275048Y-9135639D01*
X9560007Y-9211993D01*
X9852494Y-9250500D01*
X9852501Y-9250500D01*
X10147499Y-9250500D01*
X10147506Y-9250500D01*
X10439993Y-9211993D01*
X10724952Y-9135639D01*
X10997507Y-9022743D01*
X11252994Y-8875238D01*
X11487042Y-8695646D01*
X11695646Y-8487042D01*
X11875238Y-8252994D01*
X12022743Y-7997507D01*
X12135639Y-7724952D01*
X12211993Y-7439993D01*
X12250500Y-7147506D01*
X12250500Y-6852494D01*
X12250499Y-6852486D01*
X147749500Y-6852486D01*
X147749500Y-7147513D01*
X147781571Y-7391113D01*
X147788007Y-7439993D01*
X147788008Y-7439995D01*
X147864361Y-7724951D01*
X147864364Y-7724961D01*
X147977254Y-7997500D01*
X147977258Y-7997510D01*
X148124761Y-8252993D01*
X148304352Y-8487040D01*
X148304358Y-8487047D01*
X148512952Y-8695641D01*
X148512959Y-8695647D01*
X148747006Y-8875238D01*
X149002489Y-9022741D01*
X149002490Y-9022741D01*
X149002493Y-9022743D01*
X149275048Y-9135639D01*
X149560007Y-9211993D01*
X149852494Y-9250500D01*
X149852501Y-9250500D01*
X150147499Y-9250500D01*
X150147506Y-9250500D01*
X150439993Y-9211993D01*
X150724952Y-9135639D01*
X150997507Y-9022743D01*
X151252994Y-8875238D01*
X151487042Y-8695646D01*
X151695646Y-8487042D01*
X151875238Y-8252994D01*
X152022743Y-7997507D01*
X152135639Y-7724952D01*
X152211993Y-7439993D01*
X152250500Y-7147506D01*
X152250500Y-6852494D01*
X152211993Y-6560007D01*
X152135639Y-6275048D01*
X152022743Y-6002493D01*
X151875238Y-5747006D01*
X151695646Y-5512958D01*
X151695641Y-5512952D01*
X151487047Y-5304358D01*
X151487040Y-5304352D01*
X151252993Y-5124761D01*
X150997510Y-4977258D01*
X150997500Y-4977254D01*
X150724961Y-4864364D01*
X150724954Y-4864362D01*
X150724952Y-4864361D01*
X150439993Y-4788007D01*
X150391113Y-4781571D01*
X150147513Y-4749500D01*
X150147506Y-4749500D01*
X149852494Y-4749500D01*
X149852486Y-4749500D01*
X149574085Y-4786153D01*
X149560007Y-4788007D01*
X149275048Y-4864361D01*
X149275038Y-4864364D01*
X149002499Y-4977254D01*
X149002489Y-4977258D01*
X148747006Y-5124761D01*
X148512959Y-5304352D01*
X148512952Y-5304358D01*
X148304358Y-5512952D01*
X148304352Y-5512959D01*
X148124761Y-5747006D01*
X147977258Y-6002489D01*
X147977254Y-6002499D01*
X147864364Y-6275038D01*
X147864361Y-6275048D01*
X147788008Y-6560004D01*
X147788006Y-6560015D01*
X147749500Y-6852486D01*
X12250499Y-6852486D01*
X12211993Y-6560007D01*
X12135639Y-6275048D01*
X12022743Y-6002493D01*
X11875238Y-5747006D01*
X11695646Y-5512958D01*
X11695641Y-5512952D01*
X11487047Y-5304358D01*
X11487040Y-5304352D01*
X11252993Y-5124761D01*
X10997510Y-4977258D01*
X10997500Y-4977254D01*
X10724961Y-4864364D01*
X10724954Y-4864362D01*
X10724952Y-4864361D01*
X10439993Y-4788007D01*
X10391113Y-4781571D01*
X10147513Y-4749500D01*
X10147506Y-4749500D01*
X9852494Y-4749500D01*
X9852486Y-4749500D01*
X9574085Y-4786153D01*
X9560007Y-4788007D01*
X9275048Y-4864361D01*
X9275038Y-4864364D01*
X9002499Y-4977254D01*
X9002489Y-4977258D01*
X8747006Y-5124761D01*
X8512959Y-5304352D01*
X8512952Y-5304358D01*
X8304358Y-5512952D01*
X8304352Y-5512959D01*
X8124761Y-5747006D01*
X7977258Y-6002489D01*
X7977254Y-6002499D01*
X7864364Y-6275038D01*
X7864361Y-6275048D01*
X7788008Y-6560004D01*
X7788006Y-6560015D01*
X7749500Y-6852486D01*
X500500Y-6852486D01*
X500500Y-6002561D01*
X500606Y-5997437D01*
X510964Y-5747006D01*
X519072Y-5550961D01*
X519915Y-5540792D01*
X574874Y-5099881D01*
X576554Y-5089809D01*
X667734Y-4654950D01*
X670241Y-4645054D01*
X797021Y-4219205D01*
X800336Y-4209553D01*
X961842Y-3795646D01*
X965958Y-3786265D01*
X1161080Y-3387137D01*
X1165953Y-3378131D01*
X1393389Y-2996444D01*
X1398982Y-2987884D01*
X1657152Y-2626294D01*
X1663420Y-2618240D01*
X1950581Y-2279191D01*
X1957500Y-2271675D01*
X2271675Y-1957500D01*
X2279191Y-1950581D01*
X2618240Y-1663420D01*
X2626294Y-1657152D01*
X2987884Y-1398982D01*
X2996444Y-1393389D01*
X3378139Y-1165948D01*
X3387137Y-1161080D01*
X3786268Y-965956D01*
X3795650Y-961841D01*
X4209553Y-800336D01*
X4219205Y-797021D01*
X4645054Y-670241D01*
X4654950Y-667734D01*
X5089809Y-576554D01*
X5099881Y-574874D01*
X5540792Y-519915D01*
X5550961Y-519072D01*
X5997437Y-500605D01*
X6002561Y-500500D01*
X6065892Y-500500D01*
X153934108Y-500500D01*
X153997439Y-500500D01*
X154002562Y-500605D01*
G37*
%TD.AperFunction*%
%TD*%
M02*
