%TF.GenerationSoftware,KiCad,Pcbnew,9.0.7*%
%TF.CreationDate,2026-03-05T00:36:56+01:00*%
%TF.ProjectId,esp32-emu-turbo,65737033-322d-4656-9d75-2d747572626f,rev?*%
%TF.SameCoordinates,Original*%
%TF.FileFunction,Soldermask,Top*%
%TF.FilePolarity,Negative*%
%FSLAX46Y46*%
G04 Gerber Fmt 4.6, Leading zero omitted, Abs format (unit mm)*
G04 Created by KiCad (PCBNEW 9.0.7) date 2026-03-05 00:36:56*
%MOMM*%
%LPD*%
G01*
G04 APERTURE LIST*
%ADD10C,2.500000*%
%ADD11R,1.200000X0.900000*%
%ADD12R,1.000000X1.300000*%
%ADD13O,0.900000X1.800000*%
%ADD14O,1.000000X1.600000*%
%ADD15C,0.350000*%
%ADD16C,0.500000*%
%ADD17C,0.450000*%
%ADD18C,1.600000*%
G04 APERTURE END LIST*
D10*
%TO.C,*%
X10000000Y-7000000D03*
%TD*%
%TO.C,*%
X150000000Y-7000000D03*
%TD*%
%TO.C,*%
X10000000Y-68000000D03*
%TD*%
%TO.C,*%
X150000000Y-68000000D03*
%TD*%
%TO.C,*%
X55000000Y-37500000D03*
%TD*%
%TO.C,*%
X105000000Y-37500000D03*
%TD*%
D11*
%TO.C,SW1*%
X15000000Y-21650000D03*
X21000000Y-21650000D03*
X15000000Y-25350000D03*
X21000000Y-25350000D03*
%TD*%
%TO.C,SW2*%
X15000000Y-39650000D03*
X21000000Y-39650000D03*
X15000000Y-43350000D03*
X21000000Y-43350000D03*
%TD*%
%TO.C,SW3*%
X6000000Y-30650000D03*
X12000000Y-30650000D03*
X6000000Y-34350000D03*
X12000000Y-34350000D03*
%TD*%
%TO.C,SW4*%
X24000000Y-30650000D03*
X30000000Y-30650000D03*
X24000000Y-34350000D03*
X30000000Y-34350000D03*
%TD*%
%TO.C,SW5*%
X139000000Y-20650000D03*
X145000000Y-20650000D03*
X139000000Y-24350000D03*
X145000000Y-24350000D03*
%TD*%
%TO.C,SW6*%
X149000000Y-30650000D03*
X155000000Y-30650000D03*
X149000000Y-34350000D03*
X155000000Y-34350000D03*
%TD*%
%TO.C,SW7*%
X139000000Y-40650000D03*
X145000000Y-40650000D03*
X139000000Y-44350000D03*
X145000000Y-44350000D03*
%TD*%
%TO.C,SW8*%
X130000000Y-30650000D03*
X136000000Y-30650000D03*
X130000000Y-34350000D03*
X136000000Y-34350000D03*
%TD*%
%TO.C,SW9*%
X5000000Y-52650000D03*
X11000000Y-52650000D03*
X5000000Y-56350000D03*
X11000000Y-56350000D03*
%TD*%
%TO.C,SW10*%
X25000000Y-52650000D03*
X31000000Y-52650000D03*
X25000000Y-56350000D03*
X31000000Y-56350000D03*
%TD*%
%TO.C,SW13*%
X139000000Y-61350000D03*
X145000000Y-61350000D03*
X139000000Y-65050000D03*
X145000000Y-65050000D03*
%TD*%
D12*
%TO.C,LED1*%
X24050000Y-67500000D03*
X25950000Y-67500000D03*
%TD*%
%TO.C,LED2*%
X31050000Y-67500000D03*
X32950000Y-67500000D03*
%TD*%
D13*
%TO.C,J1*%
X84325000Y-69675000D03*
X75675000Y-69675000D03*
D14*
X84325000Y-73875000D03*
X75675000Y-73875000D03*
D15*
X82890000Y-70195000D03*
X77110000Y-70195000D03*
%TD*%
D16*
%TO.C,U6*%
X144950000Y-72566000D03*
X136950000Y-72566000D03*
%TD*%
D17*
%TO.C,SW_PWR*%
X41500000Y-72550000D03*
X38500000Y-72550000D03*
%TD*%
D18*
%TO.C,J3*%
X81000000Y-57500000D03*
X79000000Y-57500000D03*
%TD*%
M02*
