%TF.GenerationSoftware,KiCad,Pcbnew,9.99.0-5542-g9c1654c496*%
%TF.CreationDate,2026-02-21T09:19:05+00:00*%
%TF.ProjectId,esp32-emu-turbo,65737033-322d-4656-9d75-2d747572626f,rev?*%
%TF.SameCoordinates,Original*%
%TF.FileFunction,Paste,Bot*%
%TF.FilePolarity,Positive*%
%FSLAX46Y46*%
G04 Gerber Fmt 4.6, Leading zero omitted, Abs format (unit mm)*
G04 Created by KiCad (PCBNEW 9.99.0-5542-g9c1654c496) date 2026-02-21 09:19:05*
%MOMM*%
%LPD*%
G01*
G04 APERTURE LIST*
%ADD10R,1.500000X0.900000*%
%ADD11R,0.900000X1.500000*%
%ADD12R,3.900000X3.900000*%
%ADD13R,1.000000X0.750000*%
%ADD14R,0.300000X1.300000*%
%ADD15R,1.600000X1.600000*%
%ADD16R,0.600000X1.300000*%
%ADD17R,1.200000X1.400000*%
%ADD18R,1.200000X2.000000*%
%ADD19R,1.050000X0.700000*%
%ADD20R,2.000000X3.000000*%
%ADD21R,1.700000X0.600000*%
%ADD22R,3.400000X3.400000*%
%ADD23R,1.000000X1.500000*%
%ADD24R,3.600000X1.800000*%
%ADD25R,2.050000X0.600000*%
%ADD26R,1.400000X3.400000*%
%ADD27R,1.000000X1.300000*%
%ADD28R,1.200000X1.800000*%
G04 APERTURE END LIST*
D10*
%TO.C,U1*%
X88750000Y-22240000D03*
X88750000Y-23510000D03*
X88750000Y-24780000D03*
X88750000Y-26050000D03*
X88750000Y-27320000D03*
X88750000Y-28590000D03*
X88750000Y-29860000D03*
X88750000Y-31130000D03*
X88750000Y-32400000D03*
X88750000Y-33670000D03*
X88750000Y-34940000D03*
X88750000Y-36210000D03*
X88750000Y-37480000D03*
X88750000Y-38750000D03*
D11*
X86985000Y-40000000D03*
X85715000Y-40000000D03*
X84445000Y-40000000D03*
X83175000Y-40000000D03*
X81905000Y-40000000D03*
X80635000Y-40000000D03*
X79365000Y-40000000D03*
X78095000Y-40000000D03*
X76825000Y-40000000D03*
X75555000Y-40000000D03*
X74285000Y-40000000D03*
X73015000Y-40000000D03*
D10*
X71250000Y-38750000D03*
X71250000Y-37480000D03*
X71250000Y-36210000D03*
X71250000Y-34940000D03*
X71250000Y-33670000D03*
X71250000Y-32400000D03*
X71250000Y-31130000D03*
X71250000Y-29860000D03*
X71250000Y-28590000D03*
X71250000Y-27320000D03*
X71250000Y-26050000D03*
X71250000Y-24780000D03*
X71250000Y-23510000D03*
X71250000Y-22240000D03*
D12*
X81500000Y-29960000D03*
%TD*%
D13*
%TO.C,SW11*%
X13150000Y500000D03*
X13150000Y-5500000D03*
X16850000Y500000D03*
X16850000Y-5500000D03*
%TD*%
%TO.C,SW12*%
X143150000Y500000D03*
X143150000Y-5500000D03*
X146850000Y500000D03*
X146850000Y-5500000D03*
%TD*%
D14*
%TO.C,J4*%
X133150000Y-25750000D03*
X133150000Y-26250000D03*
X133150000Y-26750000D03*
X133150000Y-27250000D03*
X133150000Y-27750000D03*
X133150000Y-28250000D03*
X133150000Y-28750000D03*
X133150000Y-29250000D03*
X133150000Y-29750000D03*
X133150000Y-30250000D03*
X133150000Y-30750000D03*
X133150000Y-31250000D03*
X133150000Y-31750000D03*
X133150000Y-32250000D03*
X133150000Y-32750000D03*
X133150000Y-33250000D03*
X133150000Y-33750000D03*
X133150000Y-34250000D03*
X133150000Y-34750000D03*
X133150000Y-35250000D03*
X133150000Y-35750000D03*
X133150000Y-36250000D03*
X133150000Y-36750000D03*
X133150000Y-37250000D03*
X133150000Y-37750000D03*
X133150000Y-38250000D03*
X133150000Y-38750000D03*
X133150000Y-39250000D03*
X133150000Y-39750000D03*
X133150000Y-40250000D03*
X133150000Y-40750000D03*
X133150000Y-41250000D03*
X133150000Y-41750000D03*
X133150000Y-42250000D03*
X133150000Y-42750000D03*
X133150000Y-43250000D03*
X133150000Y-43750000D03*
X133150000Y-44250000D03*
X133150000Y-44750000D03*
X133150000Y-45250000D03*
D15*
X133150000Y-24000000D03*
X133150000Y-47000000D03*
%TD*%
D16*
%TO.C,J1*%
X83200000Y-68255000D03*
X82400000Y-68255000D03*
D14*
X81250000Y-68255000D03*
X80250000Y-68255000D03*
X79750000Y-68255000D03*
X78750000Y-68255000D03*
D16*
X77600000Y-68255000D03*
X76800000Y-68255000D03*
X76800000Y-68255000D03*
X77600000Y-68255000D03*
D14*
X78250000Y-68255000D03*
X79250000Y-68255000D03*
X80750000Y-68255000D03*
X81750000Y-68255000D03*
D16*
X82400000Y-68255000D03*
X83200000Y-68255000D03*
%TD*%
%TO.C,U6*%
X137760000Y-61550000D03*
X138860000Y-61550000D03*
X139960000Y-61550000D03*
X141060000Y-61550000D03*
X142160000Y-61550000D03*
X143260000Y-61550000D03*
X144360000Y-61550000D03*
X145460000Y-61550000D03*
X146560000Y-61550000D03*
D17*
X147760000Y-62400000D03*
D18*
X147760000Y-72100000D03*
X132240000Y-72100000D03*
D17*
X133080000Y-62400000D03*
%TD*%
D16*
%TO.C,SW_PWR*%
X42250000Y-70050000D03*
X39250000Y-70050000D03*
X37750000Y-70050000D03*
D19*
X36325000Y-70900000D03*
X36325000Y-73100000D03*
X43675000Y-70900000D03*
X43675000Y-73100000D03*
%TD*%
D20*
%TO.C,SPK1*%
X39500000Y-52500000D03*
X20500000Y-52500000D03*
%TD*%
D21*
%TO.C,U2*%
X113000000Y-40595000D03*
X113000000Y-41865000D03*
X113000000Y-43135000D03*
X113000000Y-44405000D03*
X107000000Y-44405000D03*
X107000000Y-43135000D03*
X107000000Y-41865000D03*
X107000000Y-40595000D03*
D22*
X110000000Y-42500000D03*
%TD*%
D23*
%TO.C,U3*%
X127300000Y-58650000D03*
X125000000Y-58650000D03*
X122700000Y-58650000D03*
D24*
X125000000Y-52350000D03*
%TD*%
D25*
%TO.C,U5*%
X25555000Y-24850000D03*
X26825000Y-24850000D03*
X28095000Y-24850000D03*
X29365000Y-24850000D03*
X30635000Y-24850000D03*
X31905000Y-24850000D03*
X33175000Y-24850000D03*
X34445000Y-24850000D03*
X34445000Y-34150000D03*
X33175000Y-34150000D03*
X31905000Y-34150000D03*
X30635000Y-34150000D03*
X29365000Y-34150000D03*
X28095000Y-34150000D03*
X26825000Y-34150000D03*
X25555000Y-34150000D03*
%TD*%
D26*
%TO.C,L1*%
X111700000Y-52500000D03*
X108300000Y-52500000D03*
%TD*%
D27*
%TO.C,R1*%
X74950000Y-67000000D03*
X73050000Y-67000000D03*
%TD*%
%TO.C,R2*%
X86950000Y-67000000D03*
X85050000Y-67000000D03*
%TD*%
%TO.C,R3*%
X65950000Y-42000000D03*
X64050000Y-42000000D03*
%TD*%
%TO.C,C3*%
X70950000Y-42000000D03*
X69050000Y-42000000D03*
%TD*%
%TO.C,R17*%
X75950000Y-42000000D03*
X74050000Y-42000000D03*
%TD*%
%TO.C,R18*%
X80950000Y-42000000D03*
X79050000Y-42000000D03*
%TD*%
%TO.C,C4*%
X85950000Y-42000000D03*
X84050000Y-42000000D03*
%TD*%
%TO.C,R4*%
X43950000Y-46000000D03*
X42050000Y-46000000D03*
%TD*%
%TO.C,R5*%
X48950000Y-46000000D03*
X47050000Y-46000000D03*
%TD*%
%TO.C,R6*%
X53950000Y-46000000D03*
X52050000Y-46000000D03*
%TD*%
%TO.C,R7*%
X58950000Y-46000000D03*
X57050000Y-46000000D03*
%TD*%
%TO.C,R8*%
X63950000Y-46000000D03*
X62050000Y-46000000D03*
%TD*%
%TO.C,R9*%
X68950000Y-46000000D03*
X67050000Y-46000000D03*
%TD*%
%TO.C,R10*%
X73950000Y-46000000D03*
X72050000Y-46000000D03*
%TD*%
%TO.C,R11*%
X78950000Y-46000000D03*
X77050000Y-46000000D03*
%TD*%
%TO.C,R12*%
X83950000Y-46000000D03*
X82050000Y-46000000D03*
%TD*%
%TO.C,R13*%
X88950000Y-46000000D03*
X87050000Y-46000000D03*
%TD*%
%TO.C,R14*%
X93950000Y-46000000D03*
X92050000Y-46000000D03*
%TD*%
%TO.C,R15*%
X98950000Y-46000000D03*
X97050000Y-46000000D03*
%TD*%
%TO.C,R19*%
X103950000Y-46000000D03*
X102050000Y-46000000D03*
%TD*%
%TO.C,R16*%
X115950000Y-52500000D03*
X114050000Y-52500000D03*
%TD*%
%TO.C,C5*%
X43950000Y-50000000D03*
X42050000Y-50000000D03*
%TD*%
%TO.C,C6*%
X48950000Y-50000000D03*
X47050000Y-50000000D03*
%TD*%
%TO.C,C7*%
X53950000Y-50000000D03*
X52050000Y-50000000D03*
%TD*%
%TO.C,C8*%
X58950000Y-50000000D03*
X57050000Y-50000000D03*
%TD*%
%TO.C,C9*%
X63950000Y-50000000D03*
X62050000Y-50000000D03*
%TD*%
%TO.C,C10*%
X68950000Y-50000000D03*
X67050000Y-50000000D03*
%TD*%
%TO.C,C11*%
X73950000Y-50000000D03*
X72050000Y-50000000D03*
%TD*%
%TO.C,C12*%
X78950000Y-50000000D03*
X77050000Y-50000000D03*
%TD*%
%TO.C,C13*%
X83950000Y-50000000D03*
X82050000Y-50000000D03*
%TD*%
%TO.C,C14*%
X88950000Y-50000000D03*
X87050000Y-50000000D03*
%TD*%
%TO.C,C15*%
X93950000Y-50000000D03*
X92050000Y-50000000D03*
%TD*%
%TO.C,C16*%
X98950000Y-50000000D03*
X97050000Y-50000000D03*
%TD*%
%TO.C,C20*%
X103950000Y-50000000D03*
X102050000Y-50000000D03*
%TD*%
%TO.C,C17*%
X110950000Y-35000000D03*
X109050000Y-35000000D03*
%TD*%
%TO.C,C18*%
X116950000Y-37500000D03*
X115050000Y-37500000D03*
%TD*%
D28*
%TO.C,C19*%
X111500000Y-58500000D03*
X108500000Y-58500000D03*
%TD*%
D27*
%TO.C,C1*%
X125950000Y-50500000D03*
X124050000Y-50500000D03*
%TD*%
D28*
%TO.C,C2*%
X126500000Y-60500000D03*
X123500000Y-60500000D03*
%TD*%
M02*
