%TF.GenerationSoftware,KiCad,Pcbnew,9.0.7*%
%TF.CreationDate,2026-02-14T09:26:10+00:00*%
%TF.ProjectId,esp32-emu-turbo,65737033-322d-4656-9d75-2d747572626f,rev?*%
%TF.SameCoordinates,Original*%
%TF.FileFunction,Copper,L2,Inr*%
%TF.FilePolarity,Positive*%
%FSLAX46Y46*%
G04 Gerber Fmt 4.6, Leading zero omitted, Abs format (unit mm)*
G04 Created by KiCad (PCBNEW 9.0.7) date 2026-02-14 09:26:10*
%MOMM*%
%LPD*%
G01*
G04 APERTURE LIST*
%TA.AperFunction,ComponentPad*%
%ADD10C,5.000000*%
%TD*%
%TA.AperFunction,ComponentPad*%
%ADD11O,1.000000X1.800000*%
%TD*%
%TA.AperFunction,ComponentPad*%
%ADD12C,1.500000*%
%TD*%
%TA.AperFunction,ViaPad*%
%ADD13C,0.600000*%
%TD*%
G04 APERTURE END LIST*
D10*
%TO.N,*%
%TO.C,*%
X10000000Y-7000000D03*
%TD*%
%TO.N,*%
%TO.C,*%
X150000000Y-7000000D03*
%TD*%
%TO.N,*%
%TO.C,*%
X10000000Y-68000000D03*
%TD*%
%TO.N,*%
%TO.C,*%
X150000000Y-68000000D03*
%TD*%
%TO.N,*%
%TO.C,*%
X55000000Y-37500000D03*
%TD*%
%TO.N,*%
%TO.C,*%
X105000000Y-37500000D03*
%TD*%
D11*
%TO.N,N/C*%
%TO.C,J1*%
X75680000Y-70500000D03*
X75680000Y-73500000D03*
X84320000Y-70500000D03*
X84320000Y-73500000D03*
%TD*%
D12*
%TO.N,N/C*%
%TO.C,SW_PWR*%
X42500000Y-72000000D03*
X40000000Y-72000000D03*
X37500000Y-72000000D03*
%TD*%
%TO.N,N/C*%
%TO.C,J3*%
X81000000Y-57500000D03*
X79000000Y-57500000D03*
%TD*%
D13*
%TO.N,GND*%
X26000000Y-65500000D03*
X33000000Y-65500000D03*
%TO.N,+3V3*%
X24000000Y-65500000D03*
X31000000Y-65500000D03*
%TO.N,BAT+*%
X22000000Y-23500000D03*
X22000000Y-41500000D03*
X13000000Y-32500000D03*
X31000000Y-32500000D03*
X138000000Y-22500000D03*
X148000000Y-32500000D03*
X138000000Y-42500000D03*
X129600000Y-32500000D03*
X12000000Y-54500000D03*
X32000000Y-54500000D03*
X142000000Y-58500000D03*
%TD*%
%TA.AperFunction,Conductor*%
%TO.N,GND*%
G36*
X150195322Y-520185D02*
G01*
X150241077Y-572989D01*
X150251021Y-642147D01*
X150221996Y-705703D01*
X150200134Y-725560D01*
X150119690Y-782750D01*
X150028705Y-847433D01*
X150028696Y-847441D01*
X149642897Y-1169286D01*
X149283073Y-1519963D01*
X148951404Y-1897343D01*
X148951401Y-1897345D01*
X148649827Y-2299217D01*
X148380180Y-2723148D01*
X148380172Y-2723163D01*
X148144046Y-3166638D01*
X147942846Y-3627023D01*
X147777775Y-4101565D01*
X147649817Y-4587448D01*
X147559745Y-5081717D01*
X147559744Y-5081724D01*
X147559743Y-5081735D01*
X147542644Y-5247140D01*
X147524295Y-5300360D01*
X147369755Y-5546311D01*
X147369754Y-5546312D01*
X147223532Y-5849945D01*
X147112227Y-6168034D01*
X147112223Y-6168046D01*
X147037233Y-6496602D01*
X147037231Y-6496618D01*
X146999500Y-6831491D01*
X146999500Y-7168508D01*
X147037231Y-7503381D01*
X147037233Y-7503397D01*
X147112223Y-7831953D01*
X147112227Y-7831965D01*
X147223532Y-8150054D01*
X147369752Y-8453683D01*
X147369754Y-8453686D01*
X147549054Y-8739039D01*
X147759175Y-9002523D01*
X147997477Y-9240825D01*
X148260961Y-9450946D01*
X148437387Y-9561802D01*
X148546319Y-9630249D01*
X148606624Y-9659290D01*
X148655703Y-9701787D01*
X148746891Y-9837313D01*
X148746893Y-9837315D01*
X148746893Y-9837316D01*
X149058701Y-10231276D01*
X149058703Y-10231278D01*
X149399992Y-10600007D01*
X149526312Y-10716926D01*
X149768720Y-10941295D01*
X150162687Y-11253109D01*
X150579542Y-11533588D01*
X150579545Y-11533589D01*
X150579551Y-11533594D01*
X151016793Y-11781056D01*
X151016811Y-11781065D01*
X151176812Y-11855953D01*
X151471854Y-11994047D01*
X151941988Y-12171281D01*
X152424397Y-12311704D01*
X152916205Y-12414477D01*
X153414478Y-12478988D01*
X153916243Y-12504853D01*
X153916252Y-12504852D01*
X153916253Y-12504853D01*
X154019123Y-12502203D01*
X154418508Y-12491916D01*
X154918276Y-12440256D01*
X155412567Y-12350179D01*
X155898432Y-12222225D01*
X156372973Y-12057155D01*
X156833360Y-11855954D01*
X157276845Y-11619823D01*
X157700785Y-11350170D01*
X158102649Y-11048603D01*
X158480041Y-10716922D01*
X158830710Y-10357105D01*
X159152564Y-9971298D01*
X159274437Y-9799867D01*
X159329324Y-9756635D01*
X159398872Y-9749940D01*
X159461000Y-9781907D01*
X159495982Y-9842389D01*
X159499500Y-9871717D01*
X159499500Y-68997438D01*
X159499394Y-69002562D01*
X159480928Y-69449016D01*
X159480082Y-69459230D01*
X159425128Y-69900099D01*
X159423441Y-69910208D01*
X159332269Y-70345028D01*
X159329753Y-70354963D01*
X159202984Y-70780773D01*
X159199656Y-70790466D01*
X159038161Y-71204339D01*
X159034045Y-71213724D01*
X158838919Y-71612863D01*
X158834041Y-71621877D01*
X158606616Y-72003544D01*
X158601010Y-72012123D01*
X158342859Y-72373687D01*
X158336564Y-72381775D01*
X158049428Y-72720796D01*
X158042487Y-72728336D01*
X157728336Y-73042487D01*
X157720796Y-73049428D01*
X157381775Y-73336564D01*
X157373687Y-73342859D01*
X157012123Y-73601010D01*
X157003544Y-73606616D01*
X156621877Y-73834041D01*
X156612863Y-73838919D01*
X156213724Y-74034045D01*
X156204339Y-74038161D01*
X155790466Y-74199656D01*
X155780773Y-74202984D01*
X155354963Y-74329753D01*
X155345028Y-74332269D01*
X154910208Y-74423441D01*
X154900099Y-74425128D01*
X154459230Y-74480082D01*
X154449016Y-74480928D01*
X154002563Y-74499394D01*
X153997439Y-74499500D01*
X85340192Y-74499500D01*
X85273153Y-74479815D01*
X85227398Y-74427011D01*
X85217454Y-74357853D01*
X85225631Y-74328048D01*
X85277433Y-74202984D01*
X85282051Y-74191835D01*
X85320500Y-73998541D01*
X85320500Y-73001459D01*
X85320500Y-73001456D01*
X85282052Y-72808170D01*
X85282051Y-72808169D01*
X85282051Y-72808165D01*
X85245862Y-72720796D01*
X85206635Y-72626092D01*
X85206628Y-72626079D01*
X85097139Y-72462218D01*
X85097136Y-72462214D01*
X84957785Y-72322863D01*
X84957781Y-72322860D01*
X84793920Y-72213371D01*
X84793907Y-72213364D01*
X84611839Y-72137950D01*
X84611827Y-72137947D01*
X84529732Y-72121617D01*
X84467821Y-72089232D01*
X84433246Y-72028516D01*
X84436986Y-71958747D01*
X84477853Y-71902075D01*
X84529732Y-71878383D01*
X84567909Y-71870788D01*
X84611835Y-71862051D01*
X84793914Y-71786632D01*
X84957782Y-71677139D01*
X85097139Y-71537782D01*
X85206632Y-71373914D01*
X85282051Y-71191835D01*
X85311025Y-71046174D01*
X85320500Y-70998543D01*
X85320500Y-70001456D01*
X85282052Y-69808170D01*
X85282051Y-69808169D01*
X85282051Y-69808165D01*
X85282049Y-69808160D01*
X85206635Y-69626092D01*
X85206628Y-69626079D01*
X85097139Y-69462218D01*
X85097136Y-69462214D01*
X84957785Y-69322863D01*
X84957781Y-69322860D01*
X84793920Y-69213371D01*
X84793907Y-69213364D01*
X84611839Y-69137950D01*
X84611829Y-69137947D01*
X84418543Y-69099500D01*
X84418541Y-69099500D01*
X84221459Y-69099500D01*
X84221457Y-69099500D01*
X84028170Y-69137947D01*
X84028160Y-69137950D01*
X83846092Y-69213364D01*
X83846079Y-69213371D01*
X83682218Y-69322860D01*
X83682214Y-69322863D01*
X83542863Y-69462214D01*
X83542860Y-69462218D01*
X83433371Y-69626079D01*
X83433364Y-69626092D01*
X83357950Y-69808160D01*
X83357947Y-69808170D01*
X83319500Y-70001456D01*
X83319500Y-70001459D01*
X83319500Y-70998541D01*
X83319500Y-70998543D01*
X83319499Y-70998543D01*
X83357947Y-71191829D01*
X83357950Y-71191839D01*
X83433364Y-71373907D01*
X83433371Y-71373920D01*
X83542860Y-71537781D01*
X83542863Y-71537785D01*
X83682214Y-71677136D01*
X83682218Y-71677139D01*
X83846079Y-71786628D01*
X83846092Y-71786635D01*
X84028160Y-71862049D01*
X84028165Y-71862051D01*
X84028169Y-71862051D01*
X84028170Y-71862052D01*
X84110268Y-71878383D01*
X84172179Y-71910768D01*
X84206753Y-71971484D01*
X84203013Y-72041253D01*
X84162146Y-72097925D01*
X84110268Y-72121617D01*
X84028170Y-72137947D01*
X84028160Y-72137950D01*
X83846092Y-72213364D01*
X83846079Y-72213371D01*
X83682218Y-72322860D01*
X83682214Y-72322863D01*
X83542863Y-72462214D01*
X83542860Y-72462218D01*
X83433371Y-72626079D01*
X83433364Y-72626092D01*
X83357950Y-72808160D01*
X83357947Y-72808170D01*
X83319500Y-73001456D01*
X83319500Y-73001459D01*
X83319500Y-73998541D01*
X83319500Y-73998543D01*
X83319499Y-73998543D01*
X83357947Y-74191829D01*
X83357950Y-74191839D01*
X83414369Y-74328048D01*
X83421838Y-74397517D01*
X83390562Y-74459996D01*
X83330473Y-74495648D01*
X83299808Y-74499500D01*
X76700192Y-74499500D01*
X76633153Y-74479815D01*
X76587398Y-74427011D01*
X76577454Y-74357853D01*
X76585631Y-74328048D01*
X76637433Y-74202984D01*
X76642051Y-74191835D01*
X76680500Y-73998541D01*
X76680500Y-73001459D01*
X76680500Y-73001456D01*
X76642052Y-72808170D01*
X76642051Y-72808169D01*
X76642051Y-72808165D01*
X76605862Y-72720796D01*
X76566635Y-72626092D01*
X76566628Y-72626079D01*
X76457139Y-72462218D01*
X76457136Y-72462214D01*
X76317785Y-72322863D01*
X76317781Y-72322860D01*
X76153920Y-72213371D01*
X76153907Y-72213364D01*
X75971839Y-72137950D01*
X75971827Y-72137947D01*
X75889732Y-72121617D01*
X75827821Y-72089232D01*
X75793246Y-72028516D01*
X75796986Y-71958747D01*
X75837853Y-71902075D01*
X75889732Y-71878383D01*
X75927909Y-71870788D01*
X75971835Y-71862051D01*
X76153914Y-71786632D01*
X76317782Y-71677139D01*
X76457139Y-71537782D01*
X76566632Y-71373914D01*
X76642051Y-71191835D01*
X76671025Y-71046174D01*
X76680500Y-70998543D01*
X76680500Y-70001456D01*
X76642052Y-69808170D01*
X76642051Y-69808169D01*
X76642051Y-69808165D01*
X76642049Y-69808160D01*
X76566635Y-69626092D01*
X76566628Y-69626079D01*
X76457139Y-69462218D01*
X76457136Y-69462214D01*
X76317785Y-69322863D01*
X76317781Y-69322860D01*
X76153920Y-69213371D01*
X76153907Y-69213364D01*
X75971839Y-69137950D01*
X75971829Y-69137947D01*
X75778543Y-69099500D01*
X75778541Y-69099500D01*
X75581459Y-69099500D01*
X75581457Y-69099500D01*
X75388170Y-69137947D01*
X75388160Y-69137950D01*
X75206092Y-69213364D01*
X75206079Y-69213371D01*
X75042218Y-69322860D01*
X75042214Y-69322863D01*
X74902863Y-69462214D01*
X74902860Y-69462218D01*
X74793371Y-69626079D01*
X74793364Y-69626092D01*
X74717950Y-69808160D01*
X74717947Y-69808170D01*
X74679500Y-70001456D01*
X74679500Y-70001459D01*
X74679500Y-70998541D01*
X74679500Y-70998543D01*
X74679499Y-70998543D01*
X74717947Y-71191829D01*
X74717950Y-71191839D01*
X74793364Y-71373907D01*
X74793371Y-71373920D01*
X74902860Y-71537781D01*
X74902863Y-71537785D01*
X75042214Y-71677136D01*
X75042218Y-71677139D01*
X75206079Y-71786628D01*
X75206092Y-71786635D01*
X75388160Y-71862049D01*
X75388165Y-71862051D01*
X75388169Y-71862051D01*
X75388170Y-71862052D01*
X75470268Y-71878383D01*
X75532179Y-71910768D01*
X75566753Y-71971484D01*
X75563013Y-72041253D01*
X75522146Y-72097925D01*
X75470268Y-72121617D01*
X75388170Y-72137947D01*
X75388160Y-72137950D01*
X75206092Y-72213364D01*
X75206079Y-72213371D01*
X75042218Y-72322860D01*
X75042214Y-72322863D01*
X74902863Y-72462214D01*
X74902860Y-72462218D01*
X74793371Y-72626079D01*
X74793364Y-72626092D01*
X74717950Y-72808160D01*
X74717947Y-72808170D01*
X74679500Y-73001456D01*
X74679500Y-73001459D01*
X74679500Y-73998541D01*
X74679500Y-73998543D01*
X74679499Y-73998543D01*
X74717947Y-74191829D01*
X74717950Y-74191839D01*
X74774369Y-74328048D01*
X74781838Y-74397517D01*
X74750562Y-74459996D01*
X74690473Y-74495648D01*
X74659808Y-74499500D01*
X6002561Y-74499500D01*
X5997437Y-74499394D01*
X5550983Y-74480928D01*
X5540769Y-74480082D01*
X5099900Y-74425128D01*
X5089791Y-74423441D01*
X4654971Y-74332269D01*
X4645036Y-74329753D01*
X4219226Y-74202984D01*
X4209533Y-74199656D01*
X3795660Y-74038161D01*
X3786275Y-74034045D01*
X3387136Y-73838919D01*
X3378122Y-73834041D01*
X2996455Y-73606616D01*
X2987876Y-73601010D01*
X2626312Y-73342859D01*
X2618224Y-73336564D01*
X2480253Y-73219709D01*
X2448713Y-73192996D01*
X2279203Y-73049428D01*
X2271663Y-73042487D01*
X1957512Y-72728336D01*
X1950571Y-72720796D01*
X1746652Y-72480029D01*
X1663431Y-72381770D01*
X1657140Y-72373687D01*
X1620852Y-72322863D01*
X1398989Y-72012123D01*
X1393383Y-72003543D01*
X1367548Y-71960186D01*
X1367547Y-71960185D01*
X1332624Y-71901577D01*
X36249500Y-71901577D01*
X36249500Y-72098422D01*
X36280290Y-72292826D01*
X36341117Y-72480029D01*
X36415534Y-72626079D01*
X36430476Y-72655405D01*
X36546172Y-72814646D01*
X36685354Y-72953828D01*
X36844595Y-73069524D01*
X36927455Y-73111743D01*
X37019970Y-73158882D01*
X37019972Y-73158882D01*
X37019975Y-73158884D01*
X37120317Y-73191487D01*
X37207173Y-73219709D01*
X37401578Y-73250500D01*
X37401583Y-73250500D01*
X37598422Y-73250500D01*
X37792826Y-73219709D01*
X37980025Y-73158884D01*
X38155405Y-73069524D01*
X38314646Y-72953828D01*
X38453828Y-72814646D01*
X38569524Y-72655405D01*
X38639515Y-72518038D01*
X38687489Y-72467243D01*
X38755310Y-72450448D01*
X38821445Y-72472985D01*
X38860484Y-72518038D01*
X38930476Y-72655405D01*
X39046172Y-72814646D01*
X39185354Y-72953828D01*
X39344595Y-73069524D01*
X39427455Y-73111743D01*
X39519970Y-73158882D01*
X39519972Y-73158882D01*
X39519975Y-73158884D01*
X39620317Y-73191487D01*
X39707173Y-73219709D01*
X39901578Y-73250500D01*
X39901583Y-73250500D01*
X40098422Y-73250500D01*
X40292826Y-73219709D01*
X40480025Y-73158884D01*
X40655405Y-73069524D01*
X40814646Y-72953828D01*
X40953828Y-72814646D01*
X41069524Y-72655405D01*
X41139515Y-72518038D01*
X41187489Y-72467243D01*
X41255310Y-72450448D01*
X41321445Y-72472985D01*
X41360484Y-72518038D01*
X41430476Y-72655405D01*
X41546172Y-72814646D01*
X41685354Y-72953828D01*
X41844595Y-73069524D01*
X41927455Y-73111743D01*
X42019970Y-73158882D01*
X42019972Y-73158882D01*
X42019975Y-73158884D01*
X42120317Y-73191487D01*
X42207173Y-73219709D01*
X42401578Y-73250500D01*
X42401583Y-73250500D01*
X42598422Y-73250500D01*
X42792826Y-73219709D01*
X42980025Y-73158884D01*
X43155405Y-73069524D01*
X43314646Y-72953828D01*
X43453828Y-72814646D01*
X43569524Y-72655405D01*
X43658884Y-72480025D01*
X43719709Y-72292826D01*
X43750500Y-72098422D01*
X43750500Y-71901577D01*
X43719709Y-71707173D01*
X43664670Y-71537782D01*
X43658884Y-71519975D01*
X43658882Y-71519972D01*
X43658882Y-71519970D01*
X43611743Y-71427455D01*
X43569524Y-71344595D01*
X43453828Y-71185354D01*
X43314646Y-71046172D01*
X43155405Y-70930476D01*
X42980029Y-70841117D01*
X42792826Y-70780290D01*
X42598422Y-70749500D01*
X42598417Y-70749500D01*
X42401583Y-70749500D01*
X42401578Y-70749500D01*
X42207173Y-70780290D01*
X42019970Y-70841117D01*
X41844594Y-70930476D01*
X41800150Y-70962767D01*
X41685354Y-71046172D01*
X41685352Y-71046174D01*
X41685351Y-71046174D01*
X41546174Y-71185351D01*
X41546174Y-71185352D01*
X41546172Y-71185354D01*
X41532379Y-71204339D01*
X41430476Y-71344594D01*
X41360485Y-71481960D01*
X41312510Y-71532756D01*
X41244689Y-71549551D01*
X41178554Y-71527014D01*
X41139515Y-71481960D01*
X41104690Y-71413613D01*
X41069524Y-71344595D01*
X40953828Y-71185354D01*
X40814646Y-71046172D01*
X40655405Y-70930476D01*
X40480029Y-70841117D01*
X40292826Y-70780290D01*
X40098422Y-70749500D01*
X40098417Y-70749500D01*
X39901583Y-70749500D01*
X39901578Y-70749500D01*
X39707173Y-70780290D01*
X39519970Y-70841117D01*
X39344594Y-70930476D01*
X39300150Y-70962767D01*
X39185354Y-71046172D01*
X39185352Y-71046174D01*
X39185351Y-71046174D01*
X39046174Y-71185351D01*
X39046174Y-71185352D01*
X39046172Y-71185354D01*
X39032379Y-71204339D01*
X38930476Y-71344594D01*
X38860485Y-71481960D01*
X38812510Y-71532756D01*
X38744689Y-71549551D01*
X38678554Y-71527014D01*
X38639515Y-71481960D01*
X38604690Y-71413613D01*
X38569524Y-71344595D01*
X38453828Y-71185354D01*
X38314646Y-71046172D01*
X38155405Y-70930476D01*
X37980029Y-70841117D01*
X37792826Y-70780290D01*
X37598422Y-70749500D01*
X37598417Y-70749500D01*
X37401583Y-70749500D01*
X37401578Y-70749500D01*
X37207173Y-70780290D01*
X37019970Y-70841117D01*
X36844594Y-70930476D01*
X36800150Y-70962767D01*
X36685354Y-71046172D01*
X36685352Y-71046174D01*
X36685351Y-71046174D01*
X36546174Y-71185351D01*
X36546174Y-71185352D01*
X36546172Y-71185354D01*
X36532379Y-71204339D01*
X36430476Y-71344594D01*
X36341117Y-71519970D01*
X36280290Y-71707173D01*
X36249500Y-71901577D01*
X1332624Y-71901577D01*
X1198887Y-71677139D01*
X1165955Y-71621872D01*
X1161080Y-71612863D01*
X1124375Y-71537782D01*
X965954Y-71213724D01*
X961838Y-71204339D01*
X867575Y-70962766D01*
X800338Y-70790454D01*
X797019Y-70780786D01*
X670242Y-70354950D01*
X667733Y-70345042D01*
X576555Y-69910194D01*
X574873Y-69900114D01*
X519915Y-69459209D01*
X519072Y-69449036D01*
X500606Y-69002562D01*
X500500Y-68997438D01*
X500500Y-67831491D01*
X6999500Y-67831491D01*
X6999500Y-68168508D01*
X7037231Y-68503381D01*
X7037233Y-68503397D01*
X7112223Y-68831953D01*
X7112227Y-68831965D01*
X7223532Y-69150054D01*
X7369752Y-69453683D01*
X7375115Y-69462218D01*
X7549054Y-69739039D01*
X7759175Y-70002523D01*
X7997477Y-70240825D01*
X8260961Y-70450946D01*
X8546314Y-70630246D01*
X8849949Y-70776469D01*
X9088848Y-70860063D01*
X9168034Y-70887772D01*
X9168046Y-70887776D01*
X9496606Y-70962767D01*
X9831492Y-71000499D01*
X9831493Y-71000500D01*
X9831496Y-71000500D01*
X10168507Y-71000500D01*
X10168507Y-71000499D01*
X10503394Y-70962767D01*
X10831954Y-70887776D01*
X11150051Y-70776469D01*
X11453686Y-70630246D01*
X11739039Y-70450946D01*
X12002523Y-70240825D01*
X12240825Y-70002523D01*
X12450946Y-69739039D01*
X12630246Y-69453686D01*
X12776469Y-69150051D01*
X12887776Y-68831954D01*
X12962767Y-68503394D01*
X13000500Y-68168504D01*
X13000500Y-67831496D01*
X13000499Y-67831491D01*
X146999500Y-67831491D01*
X146999500Y-68168508D01*
X147037231Y-68503381D01*
X147037233Y-68503397D01*
X147112223Y-68831953D01*
X147112227Y-68831965D01*
X147223532Y-69150054D01*
X147369752Y-69453683D01*
X147375115Y-69462218D01*
X147549054Y-69739039D01*
X147759175Y-70002523D01*
X147997477Y-70240825D01*
X148260961Y-70450946D01*
X148546314Y-70630246D01*
X148849949Y-70776469D01*
X149088848Y-70860063D01*
X149168034Y-70887772D01*
X149168046Y-70887776D01*
X149496606Y-70962767D01*
X149831492Y-71000499D01*
X149831493Y-71000500D01*
X149831496Y-71000500D01*
X150168507Y-71000500D01*
X150168507Y-71000499D01*
X150503394Y-70962767D01*
X150831954Y-70887776D01*
X151150051Y-70776469D01*
X151453686Y-70630246D01*
X151739039Y-70450946D01*
X152002523Y-70240825D01*
X152240825Y-70002523D01*
X152450946Y-69739039D01*
X152630246Y-69453686D01*
X152776469Y-69150051D01*
X152887776Y-68831954D01*
X152962767Y-68503394D01*
X153000500Y-68168504D01*
X153000500Y-67831496D01*
X152962767Y-67496606D01*
X152887776Y-67168046D01*
X152776469Y-66849949D01*
X152630246Y-66546314D01*
X152450946Y-66260961D01*
X152240825Y-65997477D01*
X152002523Y-65759175D01*
X151739039Y-65549054D01*
X151453686Y-65369754D01*
X151453683Y-65369752D01*
X151150054Y-65223532D01*
X150831965Y-65112227D01*
X150831953Y-65112223D01*
X150503397Y-65037233D01*
X150503381Y-65037231D01*
X150168508Y-64999500D01*
X150168504Y-64999500D01*
X149831496Y-64999500D01*
X149831491Y-64999500D01*
X149496618Y-65037231D01*
X149496602Y-65037233D01*
X149168046Y-65112223D01*
X149168034Y-65112227D01*
X148849945Y-65223532D01*
X148546316Y-65369752D01*
X148260962Y-65549053D01*
X147997477Y-65759174D01*
X147759174Y-65997477D01*
X147549053Y-66260962D01*
X147369752Y-66546316D01*
X147223532Y-66849945D01*
X147112227Y-67168034D01*
X147112223Y-67168046D01*
X147037233Y-67496602D01*
X147037231Y-67496618D01*
X146999500Y-67831491D01*
X13000499Y-67831491D01*
X12962767Y-67496606D01*
X12887776Y-67168046D01*
X12776469Y-66849949D01*
X12630246Y-66546314D01*
X12450946Y-66260961D01*
X12240825Y-65997477D01*
X12002523Y-65759175D01*
X11739039Y-65549054D01*
X11739034Y-65549050D01*
X11739029Y-65549046D01*
X11692898Y-65520060D01*
X11692896Y-65520060D01*
X11535487Y-65421153D01*
X23199500Y-65421153D01*
X23199500Y-65578846D01*
X23230261Y-65733489D01*
X23230264Y-65733501D01*
X23290602Y-65879172D01*
X23290609Y-65879185D01*
X23378210Y-66010288D01*
X23378213Y-66010292D01*
X23489707Y-66121786D01*
X23489711Y-66121789D01*
X23620814Y-66209390D01*
X23620827Y-66209397D01*
X23745318Y-66260962D01*
X23766503Y-66269737D01*
X23921153Y-66300499D01*
X23921156Y-66300500D01*
X23921158Y-66300500D01*
X24078844Y-66300500D01*
X24078845Y-66300499D01*
X24233497Y-66269737D01*
X24379179Y-66209394D01*
X24510289Y-66121789D01*
X24621789Y-66010289D01*
X24709394Y-65879179D01*
X24769737Y-65733497D01*
X24800500Y-65578842D01*
X24800500Y-65421158D01*
X24800500Y-65421155D01*
X24800499Y-65421153D01*
X30199500Y-65421153D01*
X30199500Y-65578846D01*
X30230261Y-65733489D01*
X30230264Y-65733501D01*
X30290602Y-65879172D01*
X30290609Y-65879185D01*
X30378210Y-66010288D01*
X30378213Y-66010292D01*
X30489707Y-66121786D01*
X30489711Y-66121789D01*
X30620814Y-66209390D01*
X30620827Y-66209397D01*
X30745318Y-66260962D01*
X30766503Y-66269737D01*
X30921153Y-66300499D01*
X30921156Y-66300500D01*
X30921158Y-66300500D01*
X31078844Y-66300500D01*
X31078845Y-66300499D01*
X31233497Y-66269737D01*
X31379179Y-66209394D01*
X31510289Y-66121789D01*
X31621789Y-66010289D01*
X31709394Y-65879179D01*
X31769737Y-65733497D01*
X31800500Y-65578842D01*
X31800500Y-65421158D01*
X31800500Y-65421155D01*
X31800499Y-65421153D01*
X31769738Y-65266510D01*
X31769737Y-65266503D01*
X31751938Y-65223531D01*
X31709397Y-65120827D01*
X31709390Y-65120814D01*
X31621789Y-64989711D01*
X31621786Y-64989707D01*
X31510292Y-64878213D01*
X31510288Y-64878210D01*
X31379185Y-64790609D01*
X31379172Y-64790602D01*
X31233501Y-64730264D01*
X31233489Y-64730261D01*
X31078845Y-64699500D01*
X31078842Y-64699500D01*
X30921158Y-64699500D01*
X30921155Y-64699500D01*
X30766510Y-64730261D01*
X30766498Y-64730264D01*
X30620827Y-64790602D01*
X30620814Y-64790609D01*
X30489711Y-64878210D01*
X30489707Y-64878213D01*
X30378213Y-64989707D01*
X30378210Y-64989711D01*
X30290609Y-65120814D01*
X30290602Y-65120827D01*
X30230264Y-65266498D01*
X30230261Y-65266510D01*
X30199500Y-65421153D01*
X24800499Y-65421153D01*
X24769738Y-65266510D01*
X24769737Y-65266503D01*
X24751938Y-65223531D01*
X24709397Y-65120827D01*
X24709390Y-65120814D01*
X24621789Y-64989711D01*
X24621786Y-64989707D01*
X24510292Y-64878213D01*
X24510288Y-64878210D01*
X24379185Y-64790609D01*
X24379172Y-64790602D01*
X24233501Y-64730264D01*
X24233489Y-64730261D01*
X24078845Y-64699500D01*
X24078842Y-64699500D01*
X23921158Y-64699500D01*
X23921155Y-64699500D01*
X23766510Y-64730261D01*
X23766498Y-64730264D01*
X23620827Y-64790602D01*
X23620814Y-64790609D01*
X23489711Y-64878210D01*
X23489707Y-64878213D01*
X23378213Y-64989707D01*
X23378210Y-64989711D01*
X23290609Y-65120814D01*
X23290602Y-65120827D01*
X23230264Y-65266498D01*
X23230261Y-65266510D01*
X23199500Y-65421153D01*
X11535487Y-65421153D01*
X11453683Y-65369752D01*
X11150054Y-65223532D01*
X10831965Y-65112227D01*
X10831953Y-65112223D01*
X10503397Y-65037233D01*
X10503381Y-65037231D01*
X10168508Y-64999500D01*
X10168504Y-64999500D01*
X9831496Y-64999500D01*
X9831491Y-64999500D01*
X9496618Y-65037231D01*
X9496602Y-65037233D01*
X9168046Y-65112223D01*
X9168034Y-65112227D01*
X8849945Y-65223532D01*
X8546316Y-65369752D01*
X8260962Y-65549053D01*
X7997477Y-65759174D01*
X7759174Y-65997477D01*
X7549053Y-66260962D01*
X7369752Y-66546316D01*
X7223532Y-66849945D01*
X7112227Y-67168034D01*
X7112223Y-67168046D01*
X7037233Y-67496602D01*
X7037231Y-67496618D01*
X6999500Y-67831491D01*
X500500Y-67831491D01*
X500500Y-57401577D01*
X77749500Y-57401577D01*
X77749500Y-57598422D01*
X77780290Y-57792826D01*
X77841117Y-57980029D01*
X77912858Y-58120827D01*
X77930476Y-58155405D01*
X78046172Y-58314646D01*
X78185354Y-58453828D01*
X78344595Y-58569524D01*
X78362883Y-58578842D01*
X78519970Y-58658882D01*
X78519972Y-58658882D01*
X78519975Y-58658884D01*
X78620317Y-58691487D01*
X78707173Y-58719709D01*
X78901578Y-58750500D01*
X78901583Y-58750500D01*
X79098422Y-58750500D01*
X79292826Y-58719709D01*
X79480025Y-58658884D01*
X79655405Y-58569524D01*
X79814646Y-58453828D01*
X79912319Y-58356155D01*
X79973642Y-58322670D01*
X80043334Y-58327654D01*
X80087681Y-58356155D01*
X80185354Y-58453828D01*
X80344595Y-58569524D01*
X80362883Y-58578842D01*
X80519970Y-58658882D01*
X80519972Y-58658882D01*
X80519975Y-58658884D01*
X80620317Y-58691487D01*
X80707173Y-58719709D01*
X80901578Y-58750500D01*
X80901583Y-58750500D01*
X81098422Y-58750500D01*
X81292826Y-58719709D01*
X81480025Y-58658884D01*
X81655405Y-58569524D01*
X81814646Y-58453828D01*
X81847321Y-58421153D01*
X141199500Y-58421153D01*
X141199500Y-58578846D01*
X141230261Y-58733489D01*
X141230264Y-58733501D01*
X141290602Y-58879172D01*
X141290609Y-58879185D01*
X141378210Y-59010288D01*
X141378213Y-59010292D01*
X141489707Y-59121786D01*
X141489711Y-59121789D01*
X141620814Y-59209390D01*
X141620827Y-59209397D01*
X141766498Y-59269735D01*
X141766503Y-59269737D01*
X141921153Y-59300499D01*
X141921156Y-59300500D01*
X141921158Y-59300500D01*
X142078844Y-59300500D01*
X142078845Y-59300499D01*
X142233497Y-59269737D01*
X142379179Y-59209394D01*
X142510289Y-59121789D01*
X142621789Y-59010289D01*
X142709394Y-58879179D01*
X142769737Y-58733497D01*
X142800500Y-58578842D01*
X142800500Y-58421158D01*
X142800500Y-58421155D01*
X142800499Y-58421153D01*
X142780909Y-58322670D01*
X142769737Y-58266503D01*
X142723719Y-58155405D01*
X142709397Y-58120827D01*
X142709390Y-58120814D01*
X142621789Y-57989711D01*
X142621786Y-57989707D01*
X142510292Y-57878213D01*
X142510288Y-57878210D01*
X142379185Y-57790609D01*
X142379172Y-57790602D01*
X142233501Y-57730264D01*
X142233489Y-57730261D01*
X142078845Y-57699500D01*
X142078842Y-57699500D01*
X141921158Y-57699500D01*
X141921155Y-57699500D01*
X141766510Y-57730261D01*
X141766498Y-57730264D01*
X141620827Y-57790602D01*
X141620814Y-57790609D01*
X141489711Y-57878210D01*
X141489707Y-57878213D01*
X141378213Y-57989707D01*
X141378210Y-57989711D01*
X141290609Y-58120814D01*
X141290602Y-58120827D01*
X141230264Y-58266498D01*
X141230261Y-58266510D01*
X141199500Y-58421153D01*
X81847321Y-58421153D01*
X81953828Y-58314646D01*
X82069524Y-58155405D01*
X82158884Y-57980025D01*
X82219709Y-57792826D01*
X82229618Y-57730261D01*
X82250500Y-57598422D01*
X82250500Y-57401577D01*
X82219709Y-57207173D01*
X82158882Y-57019970D01*
X82069523Y-56844594D01*
X81953828Y-56685354D01*
X81814646Y-56546172D01*
X81655405Y-56430476D01*
X81480029Y-56341117D01*
X81292826Y-56280290D01*
X81098422Y-56249500D01*
X81098417Y-56249500D01*
X80901583Y-56249500D01*
X80901578Y-56249500D01*
X80707173Y-56280290D01*
X80519970Y-56341117D01*
X80344594Y-56430476D01*
X80253741Y-56496485D01*
X80185354Y-56546172D01*
X80185352Y-56546174D01*
X80185351Y-56546174D01*
X80087681Y-56643845D01*
X80026358Y-56677330D01*
X79956666Y-56672346D01*
X79912319Y-56643845D01*
X79814648Y-56546174D01*
X79814646Y-56546172D01*
X79655405Y-56430476D01*
X79480029Y-56341117D01*
X79292826Y-56280290D01*
X79098422Y-56249500D01*
X79098417Y-56249500D01*
X78901583Y-56249500D01*
X78901578Y-56249500D01*
X78707173Y-56280290D01*
X78519970Y-56341117D01*
X78344594Y-56430476D01*
X78253741Y-56496485D01*
X78185354Y-56546172D01*
X78185352Y-56546174D01*
X78185351Y-56546174D01*
X78046174Y-56685351D01*
X78046174Y-56685352D01*
X78046172Y-56685354D01*
X78000001Y-56748903D01*
X77930476Y-56844594D01*
X77841117Y-57019970D01*
X77780290Y-57207173D01*
X77749500Y-57401577D01*
X500500Y-57401577D01*
X500500Y-54421153D01*
X11199500Y-54421153D01*
X11199500Y-54578846D01*
X11230261Y-54733489D01*
X11230264Y-54733501D01*
X11290602Y-54879172D01*
X11290609Y-54879185D01*
X11378210Y-55010288D01*
X11378213Y-55010292D01*
X11489707Y-55121786D01*
X11489711Y-55121789D01*
X11620814Y-55209390D01*
X11620827Y-55209397D01*
X11766498Y-55269735D01*
X11766503Y-55269737D01*
X11921153Y-55300499D01*
X11921156Y-55300500D01*
X11921158Y-55300500D01*
X12078844Y-55300500D01*
X12078845Y-55300499D01*
X12233497Y-55269737D01*
X12379179Y-55209394D01*
X12510289Y-55121789D01*
X12621789Y-55010289D01*
X12709394Y-54879179D01*
X12769737Y-54733497D01*
X12800500Y-54578842D01*
X12800500Y-54421158D01*
X12800500Y-54421155D01*
X12800499Y-54421153D01*
X31199500Y-54421153D01*
X31199500Y-54578846D01*
X31230261Y-54733489D01*
X31230264Y-54733501D01*
X31290602Y-54879172D01*
X31290609Y-54879185D01*
X31378210Y-55010288D01*
X31378213Y-55010292D01*
X31489707Y-55121786D01*
X31489711Y-55121789D01*
X31620814Y-55209390D01*
X31620827Y-55209397D01*
X31766498Y-55269735D01*
X31766503Y-55269737D01*
X31921153Y-55300499D01*
X31921156Y-55300500D01*
X31921158Y-55300500D01*
X32078844Y-55300500D01*
X32078845Y-55300499D01*
X32233497Y-55269737D01*
X32379179Y-55209394D01*
X32510289Y-55121789D01*
X32621789Y-55010289D01*
X32709394Y-54879179D01*
X32769737Y-54733497D01*
X32800500Y-54578842D01*
X32800500Y-54421158D01*
X32800500Y-54421155D01*
X32800499Y-54421153D01*
X32769738Y-54266510D01*
X32769737Y-54266503D01*
X32769735Y-54266498D01*
X32709397Y-54120827D01*
X32709390Y-54120814D01*
X32621789Y-53989711D01*
X32621786Y-53989707D01*
X32510292Y-53878213D01*
X32510288Y-53878210D01*
X32379185Y-53790609D01*
X32379172Y-53790602D01*
X32233501Y-53730264D01*
X32233489Y-53730261D01*
X32078845Y-53699500D01*
X32078842Y-53699500D01*
X31921158Y-53699500D01*
X31921155Y-53699500D01*
X31766510Y-53730261D01*
X31766498Y-53730264D01*
X31620827Y-53790602D01*
X31620814Y-53790609D01*
X31489711Y-53878210D01*
X31489707Y-53878213D01*
X31378213Y-53989707D01*
X31378210Y-53989711D01*
X31290609Y-54120814D01*
X31290602Y-54120827D01*
X31230264Y-54266498D01*
X31230261Y-54266510D01*
X31199500Y-54421153D01*
X12800499Y-54421153D01*
X12769738Y-54266510D01*
X12769737Y-54266503D01*
X12769735Y-54266498D01*
X12709397Y-54120827D01*
X12709390Y-54120814D01*
X12621789Y-53989711D01*
X12621786Y-53989707D01*
X12510292Y-53878213D01*
X12510288Y-53878210D01*
X12379185Y-53790609D01*
X12379172Y-53790602D01*
X12233501Y-53730264D01*
X12233489Y-53730261D01*
X12078845Y-53699500D01*
X12078842Y-53699500D01*
X11921158Y-53699500D01*
X11921155Y-53699500D01*
X11766510Y-53730261D01*
X11766498Y-53730264D01*
X11620827Y-53790602D01*
X11620814Y-53790609D01*
X11489711Y-53878210D01*
X11489707Y-53878213D01*
X11378213Y-53989707D01*
X11378210Y-53989711D01*
X11290609Y-54120814D01*
X11290602Y-54120827D01*
X11230264Y-54266498D01*
X11230261Y-54266510D01*
X11199500Y-54421153D01*
X500500Y-54421153D01*
X500500Y-41421153D01*
X21199500Y-41421153D01*
X21199500Y-41578846D01*
X21230261Y-41733489D01*
X21230264Y-41733501D01*
X21290602Y-41879172D01*
X21290609Y-41879185D01*
X21378210Y-42010288D01*
X21378213Y-42010292D01*
X21489707Y-42121786D01*
X21489711Y-42121789D01*
X21620814Y-42209390D01*
X21620827Y-42209397D01*
X21758683Y-42266498D01*
X21766503Y-42269737D01*
X21921153Y-42300499D01*
X21921156Y-42300500D01*
X21921158Y-42300500D01*
X22078844Y-42300500D01*
X22078845Y-42300499D01*
X22233497Y-42269737D01*
X22379179Y-42209394D01*
X22510289Y-42121789D01*
X22621789Y-42010289D01*
X22709394Y-41879179D01*
X22769737Y-41733497D01*
X22800500Y-41578842D01*
X22800500Y-41421158D01*
X22800500Y-41421155D01*
X22800499Y-41421153D01*
X22769738Y-41266510D01*
X22769737Y-41266503D01*
X22769735Y-41266498D01*
X22709397Y-41120827D01*
X22709390Y-41120814D01*
X22621789Y-40989711D01*
X22621786Y-40989707D01*
X22510292Y-40878213D01*
X22510288Y-40878210D01*
X22379185Y-40790609D01*
X22379172Y-40790602D01*
X22233501Y-40730264D01*
X22233489Y-40730261D01*
X22078845Y-40699500D01*
X22078842Y-40699500D01*
X21921158Y-40699500D01*
X21921155Y-40699500D01*
X21766510Y-40730261D01*
X21766498Y-40730264D01*
X21620827Y-40790602D01*
X21620814Y-40790609D01*
X21489711Y-40878210D01*
X21489707Y-40878213D01*
X21378213Y-40989707D01*
X21378210Y-40989711D01*
X21290609Y-41120814D01*
X21290602Y-41120827D01*
X21230264Y-41266498D01*
X21230261Y-41266510D01*
X21199500Y-41421153D01*
X500500Y-41421153D01*
X500500Y-37331491D01*
X51999500Y-37331491D01*
X51999500Y-37668508D01*
X52037231Y-38003381D01*
X52037233Y-38003397D01*
X52112223Y-38331953D01*
X52112227Y-38331965D01*
X52223532Y-38650054D01*
X52369752Y-38953683D01*
X52369754Y-38953686D01*
X52549054Y-39239039D01*
X52759175Y-39502523D01*
X52997477Y-39740825D01*
X53260961Y-39950946D01*
X53546314Y-40130246D01*
X53849949Y-40276469D01*
X54088848Y-40360063D01*
X54168034Y-40387772D01*
X54168046Y-40387776D01*
X54496606Y-40462767D01*
X54831492Y-40500499D01*
X54831493Y-40500500D01*
X54831496Y-40500500D01*
X55168507Y-40500500D01*
X55168507Y-40500499D01*
X55503394Y-40462767D01*
X55831954Y-40387776D01*
X56150051Y-40276469D01*
X56453686Y-40130246D01*
X56739039Y-39950946D01*
X57002523Y-39740825D01*
X57240825Y-39502523D01*
X57450946Y-39239039D01*
X57630246Y-38953686D01*
X57776469Y-38650051D01*
X57887776Y-38331954D01*
X57962767Y-38003394D01*
X58000500Y-37668504D01*
X58000500Y-37331496D01*
X58000499Y-37331491D01*
X101999500Y-37331491D01*
X101999500Y-37668508D01*
X102037231Y-38003381D01*
X102037233Y-38003397D01*
X102112223Y-38331953D01*
X102112227Y-38331965D01*
X102223532Y-38650054D01*
X102369752Y-38953683D01*
X102369754Y-38953686D01*
X102549054Y-39239039D01*
X102759175Y-39502523D01*
X102997477Y-39740825D01*
X103260961Y-39950946D01*
X103546314Y-40130246D01*
X103849949Y-40276469D01*
X104088848Y-40360063D01*
X104168034Y-40387772D01*
X104168046Y-40387776D01*
X104496606Y-40462767D01*
X104831492Y-40500499D01*
X104831493Y-40500500D01*
X104831496Y-40500500D01*
X105168507Y-40500500D01*
X105168507Y-40500499D01*
X105503394Y-40462767D01*
X105831954Y-40387776D01*
X106150051Y-40276469D01*
X106453686Y-40130246D01*
X106739039Y-39950946D01*
X107002523Y-39740825D01*
X107240825Y-39502523D01*
X107450946Y-39239039D01*
X107630246Y-38953686D01*
X107776469Y-38650051D01*
X107887776Y-38331954D01*
X107962767Y-38003394D01*
X108000500Y-37668504D01*
X108000500Y-37331496D01*
X107962767Y-36996606D01*
X107887776Y-36668046D01*
X107776469Y-36349949D01*
X107630246Y-36046314D01*
X107450946Y-35760961D01*
X107240825Y-35497477D01*
X107002523Y-35259175D01*
X106739039Y-35049054D01*
X106453686Y-34869754D01*
X106453683Y-34869752D01*
X106150054Y-34723532D01*
X105831965Y-34612227D01*
X105831953Y-34612223D01*
X105503397Y-34537233D01*
X105503381Y-34537231D01*
X105168508Y-34499500D01*
X105168504Y-34499500D01*
X104831496Y-34499500D01*
X104831491Y-34499500D01*
X104496618Y-34537231D01*
X104496602Y-34537233D01*
X104168046Y-34612223D01*
X104168034Y-34612227D01*
X103849945Y-34723532D01*
X103546316Y-34869752D01*
X103260962Y-35049053D01*
X102997477Y-35259174D01*
X102759174Y-35497477D01*
X102549053Y-35760962D01*
X102369752Y-36046316D01*
X102223532Y-36349945D01*
X102112227Y-36668034D01*
X102112223Y-36668046D01*
X102037233Y-36996602D01*
X102037231Y-36996618D01*
X101999500Y-37331491D01*
X58000499Y-37331491D01*
X57962767Y-36996606D01*
X57887776Y-36668046D01*
X57776469Y-36349949D01*
X57630246Y-36046314D01*
X57450946Y-35760961D01*
X57240825Y-35497477D01*
X57002523Y-35259175D01*
X56739039Y-35049054D01*
X56453686Y-34869754D01*
X56453683Y-34869752D01*
X56150054Y-34723532D01*
X55831965Y-34612227D01*
X55831953Y-34612223D01*
X55503397Y-34537233D01*
X55503381Y-34537231D01*
X55168508Y-34499500D01*
X55168504Y-34499500D01*
X54831496Y-34499500D01*
X54831491Y-34499500D01*
X54496618Y-34537231D01*
X54496602Y-34537233D01*
X54168046Y-34612223D01*
X54168034Y-34612227D01*
X53849945Y-34723532D01*
X53546316Y-34869752D01*
X53260962Y-35049053D01*
X52997477Y-35259174D01*
X52759174Y-35497477D01*
X52549053Y-35760962D01*
X52369752Y-36046316D01*
X52223532Y-36349945D01*
X52112227Y-36668034D01*
X52112223Y-36668046D01*
X52037233Y-36996602D01*
X52037231Y-36996618D01*
X51999500Y-37331491D01*
X500500Y-37331491D01*
X500500Y-32421153D01*
X12199500Y-32421153D01*
X12199500Y-32578846D01*
X12230261Y-32733489D01*
X12230264Y-32733501D01*
X12290602Y-32879172D01*
X12290609Y-32879185D01*
X12378210Y-33010288D01*
X12378213Y-33010292D01*
X12489707Y-33121786D01*
X12489711Y-33121789D01*
X12620814Y-33209390D01*
X12620827Y-33209397D01*
X12766498Y-33269735D01*
X12766503Y-33269737D01*
X12921153Y-33300499D01*
X12921156Y-33300500D01*
X12921158Y-33300500D01*
X13078844Y-33300500D01*
X13078845Y-33300499D01*
X13233497Y-33269737D01*
X13379179Y-33209394D01*
X13510289Y-33121789D01*
X13621789Y-33010289D01*
X13709394Y-32879179D01*
X13769737Y-32733497D01*
X13800500Y-32578842D01*
X13800500Y-32421158D01*
X13800500Y-32421155D01*
X13800499Y-32421153D01*
X30199500Y-32421153D01*
X30199500Y-32578846D01*
X30230261Y-32733489D01*
X30230264Y-32733501D01*
X30290602Y-32879172D01*
X30290609Y-32879185D01*
X30378210Y-33010288D01*
X30378213Y-33010292D01*
X30489707Y-33121786D01*
X30489711Y-33121789D01*
X30620814Y-33209390D01*
X30620827Y-33209397D01*
X30766498Y-33269735D01*
X30766503Y-33269737D01*
X30921153Y-33300499D01*
X30921156Y-33300500D01*
X30921158Y-33300500D01*
X31078844Y-33300500D01*
X31078845Y-33300499D01*
X31233497Y-33269737D01*
X31379179Y-33209394D01*
X31510289Y-33121789D01*
X31621789Y-33010289D01*
X31709394Y-32879179D01*
X31769737Y-32733497D01*
X31800500Y-32578842D01*
X31800500Y-32421158D01*
X31800500Y-32421155D01*
X31800499Y-32421153D01*
X31769738Y-32266510D01*
X31769737Y-32266503D01*
X31769735Y-32266498D01*
X31709397Y-32120827D01*
X31709390Y-32120814D01*
X31621789Y-31989711D01*
X31621786Y-31989707D01*
X31510292Y-31878213D01*
X31510288Y-31878210D01*
X31379185Y-31790609D01*
X31379172Y-31790602D01*
X31233501Y-31730264D01*
X31233489Y-31730261D01*
X31078845Y-31699500D01*
X31078842Y-31699500D01*
X30921158Y-31699500D01*
X30921155Y-31699500D01*
X30766510Y-31730261D01*
X30766498Y-31730264D01*
X30620827Y-31790602D01*
X30620814Y-31790609D01*
X30489711Y-31878210D01*
X30489707Y-31878213D01*
X30378213Y-31989707D01*
X30378210Y-31989711D01*
X30290609Y-32120814D01*
X30290602Y-32120827D01*
X30230264Y-32266498D01*
X30230261Y-32266510D01*
X30199500Y-32421153D01*
X13800499Y-32421153D01*
X13769738Y-32266510D01*
X13769737Y-32266503D01*
X13769735Y-32266498D01*
X13709397Y-32120827D01*
X13709390Y-32120814D01*
X13621789Y-31989711D01*
X13621786Y-31989707D01*
X13510292Y-31878213D01*
X13510288Y-31878210D01*
X13379185Y-31790609D01*
X13379172Y-31790602D01*
X13233501Y-31730264D01*
X13233489Y-31730261D01*
X13078845Y-31699500D01*
X13078842Y-31699500D01*
X12921158Y-31699500D01*
X12921155Y-31699500D01*
X12766510Y-31730261D01*
X12766498Y-31730264D01*
X12620827Y-31790602D01*
X12620814Y-31790609D01*
X12489711Y-31878210D01*
X12489707Y-31878213D01*
X12378213Y-31989707D01*
X12378210Y-31989711D01*
X12290609Y-32120814D01*
X12290602Y-32120827D01*
X12230264Y-32266498D01*
X12230261Y-32266510D01*
X12199500Y-32421153D01*
X500500Y-32421153D01*
X500500Y-23421153D01*
X21199500Y-23421153D01*
X21199500Y-23578846D01*
X21230261Y-23733489D01*
X21230264Y-23733501D01*
X21290602Y-23879172D01*
X21290609Y-23879185D01*
X21378210Y-24010288D01*
X21378213Y-24010292D01*
X21489707Y-24121786D01*
X21489711Y-24121789D01*
X21620814Y-24209390D01*
X21620827Y-24209397D01*
X21766498Y-24269735D01*
X21766503Y-24269737D01*
X21921153Y-24300499D01*
X21921156Y-24300500D01*
X21921158Y-24300500D01*
X22078844Y-24300500D01*
X22078845Y-24300499D01*
X22233497Y-24269737D01*
X22379179Y-24209394D01*
X22510289Y-24121789D01*
X22621789Y-24010289D01*
X22709394Y-23879179D01*
X22769737Y-23733497D01*
X22800500Y-23578842D01*
X22800500Y-23434108D01*
X124999500Y-23434108D01*
X124999500Y-47565891D01*
X125033608Y-47693187D01*
X125066554Y-47750250D01*
X125099500Y-47807314D01*
X125192686Y-47900500D01*
X125306814Y-47966392D01*
X125434108Y-48000500D01*
X125434110Y-48000500D01*
X128565890Y-48000500D01*
X128565892Y-48000500D01*
X128693186Y-47966392D01*
X128807314Y-47900500D01*
X128900500Y-47807314D01*
X128966392Y-47693186D01*
X129000500Y-47565892D01*
X129000500Y-42421153D01*
X137199500Y-42421153D01*
X137199500Y-42578846D01*
X137230261Y-42733489D01*
X137230264Y-42733501D01*
X137290602Y-42879172D01*
X137290609Y-42879185D01*
X137378210Y-43010288D01*
X137378213Y-43010292D01*
X137489707Y-43121786D01*
X137489711Y-43121789D01*
X137620814Y-43209390D01*
X137620827Y-43209397D01*
X137766498Y-43269735D01*
X137766503Y-43269737D01*
X137921153Y-43300499D01*
X137921156Y-43300500D01*
X137921158Y-43300500D01*
X138078844Y-43300500D01*
X138078845Y-43300499D01*
X138233497Y-43269737D01*
X138379179Y-43209394D01*
X138510289Y-43121789D01*
X138621789Y-43010289D01*
X138709394Y-42879179D01*
X138769737Y-42733497D01*
X138800500Y-42578842D01*
X138800500Y-42421158D01*
X138800500Y-42421155D01*
X138800499Y-42421153D01*
X138769738Y-42266510D01*
X138769737Y-42266503D01*
X138709794Y-42121786D01*
X138709397Y-42120827D01*
X138709390Y-42120814D01*
X138621789Y-41989711D01*
X138621786Y-41989707D01*
X138510292Y-41878213D01*
X138510288Y-41878210D01*
X138379185Y-41790609D01*
X138379172Y-41790602D01*
X138233501Y-41730264D01*
X138233489Y-41730261D01*
X138078845Y-41699500D01*
X138078842Y-41699500D01*
X137921158Y-41699500D01*
X137921155Y-41699500D01*
X137766510Y-41730261D01*
X137766498Y-41730264D01*
X137620827Y-41790602D01*
X137620814Y-41790609D01*
X137489711Y-41878210D01*
X137489707Y-41878213D01*
X137378213Y-41989707D01*
X137378210Y-41989711D01*
X137290609Y-42120814D01*
X137290602Y-42120827D01*
X137230264Y-42266498D01*
X137230261Y-42266510D01*
X137199500Y-42421153D01*
X129000500Y-42421153D01*
X129000500Y-33294168D01*
X129020185Y-33227129D01*
X129072989Y-33181374D01*
X129142147Y-33171430D01*
X129193392Y-33191067D01*
X129220812Y-33209389D01*
X129220827Y-33209397D01*
X129366498Y-33269735D01*
X129366503Y-33269737D01*
X129521153Y-33300499D01*
X129521156Y-33300500D01*
X129521158Y-33300500D01*
X129678844Y-33300500D01*
X129678845Y-33300499D01*
X129833497Y-33269737D01*
X129979179Y-33209394D01*
X130110289Y-33121789D01*
X130221789Y-33010289D01*
X130309394Y-32879179D01*
X130369737Y-32733497D01*
X130400500Y-32578842D01*
X130400500Y-32421158D01*
X130400500Y-32421155D01*
X130400499Y-32421153D01*
X147199500Y-32421153D01*
X147199500Y-32578846D01*
X147230261Y-32733489D01*
X147230264Y-32733501D01*
X147290602Y-32879172D01*
X147290609Y-32879185D01*
X147378210Y-33010288D01*
X147378213Y-33010292D01*
X147489707Y-33121786D01*
X147489711Y-33121789D01*
X147620814Y-33209390D01*
X147620827Y-33209397D01*
X147766498Y-33269735D01*
X147766503Y-33269737D01*
X147921153Y-33300499D01*
X147921156Y-33300500D01*
X147921158Y-33300500D01*
X148078844Y-33300500D01*
X148078845Y-33300499D01*
X148233497Y-33269737D01*
X148379179Y-33209394D01*
X148510289Y-33121789D01*
X148621789Y-33010289D01*
X148709394Y-32879179D01*
X148769737Y-32733497D01*
X148800500Y-32578842D01*
X148800500Y-32421158D01*
X148800500Y-32421155D01*
X148800499Y-32421153D01*
X148769738Y-32266510D01*
X148769737Y-32266503D01*
X148769735Y-32266498D01*
X148709397Y-32120827D01*
X148709390Y-32120814D01*
X148621789Y-31989711D01*
X148621786Y-31989707D01*
X148510292Y-31878213D01*
X148510288Y-31878210D01*
X148379185Y-31790609D01*
X148379172Y-31790602D01*
X148233501Y-31730264D01*
X148233489Y-31730261D01*
X148078845Y-31699500D01*
X148078842Y-31699500D01*
X147921158Y-31699500D01*
X147921155Y-31699500D01*
X147766510Y-31730261D01*
X147766498Y-31730264D01*
X147620827Y-31790602D01*
X147620814Y-31790609D01*
X147489711Y-31878210D01*
X147489707Y-31878213D01*
X147378213Y-31989707D01*
X147378210Y-31989711D01*
X147290609Y-32120814D01*
X147290602Y-32120827D01*
X147230264Y-32266498D01*
X147230261Y-32266510D01*
X147199500Y-32421153D01*
X130400499Y-32421153D01*
X130369738Y-32266510D01*
X130369737Y-32266503D01*
X130369735Y-32266498D01*
X130309397Y-32120827D01*
X130309390Y-32120814D01*
X130221789Y-31989711D01*
X130221786Y-31989707D01*
X130110292Y-31878213D01*
X130110288Y-31878210D01*
X129979185Y-31790609D01*
X129979172Y-31790602D01*
X129833501Y-31730264D01*
X129833489Y-31730261D01*
X129678845Y-31699500D01*
X129678842Y-31699500D01*
X129521158Y-31699500D01*
X129521155Y-31699500D01*
X129366510Y-31730261D01*
X129366498Y-31730264D01*
X129220827Y-31790602D01*
X129220816Y-31790608D01*
X129193390Y-31808934D01*
X129126712Y-31829811D01*
X129059332Y-31811326D01*
X129012643Y-31759346D01*
X129000500Y-31705831D01*
X129000500Y-23434110D01*
X129000500Y-23434108D01*
X128966392Y-23306814D01*
X128900500Y-23192686D01*
X128807314Y-23099500D01*
X128750250Y-23066554D01*
X128693187Y-23033608D01*
X128629539Y-23016554D01*
X128565892Y-22999500D01*
X125565892Y-22999500D01*
X125434108Y-22999500D01*
X125306812Y-23033608D01*
X125192686Y-23099500D01*
X125192683Y-23099502D01*
X125099502Y-23192683D01*
X125099500Y-23192686D01*
X125033608Y-23306812D01*
X124999500Y-23434108D01*
X22800500Y-23434108D01*
X22800500Y-23421158D01*
X22800500Y-23421155D01*
X22800499Y-23421153D01*
X22769738Y-23266510D01*
X22769737Y-23266503D01*
X22746080Y-23209390D01*
X22709397Y-23120827D01*
X22709390Y-23120814D01*
X22621789Y-22989711D01*
X22621786Y-22989707D01*
X22510292Y-22878213D01*
X22510288Y-22878210D01*
X22379185Y-22790609D01*
X22379172Y-22790602D01*
X22233501Y-22730264D01*
X22233489Y-22730261D01*
X22078845Y-22699500D01*
X22078842Y-22699500D01*
X21921158Y-22699500D01*
X21921155Y-22699500D01*
X21766510Y-22730261D01*
X21766498Y-22730264D01*
X21620827Y-22790602D01*
X21620814Y-22790609D01*
X21489711Y-22878210D01*
X21489707Y-22878213D01*
X21378213Y-22989707D01*
X21378210Y-22989711D01*
X21290609Y-23120814D01*
X21290602Y-23120827D01*
X21230264Y-23266498D01*
X21230261Y-23266510D01*
X21199500Y-23421153D01*
X500500Y-23421153D01*
X500500Y-22421153D01*
X137199500Y-22421153D01*
X137199500Y-22578846D01*
X137230261Y-22733489D01*
X137230264Y-22733501D01*
X137290602Y-22879172D01*
X137290609Y-22879185D01*
X137378210Y-23010288D01*
X137378213Y-23010292D01*
X137489707Y-23121786D01*
X137489711Y-23121789D01*
X137620814Y-23209390D01*
X137620827Y-23209397D01*
X137758683Y-23266498D01*
X137766503Y-23269737D01*
X137921153Y-23300499D01*
X137921156Y-23300500D01*
X137921158Y-23300500D01*
X138078844Y-23300500D01*
X138078845Y-23300499D01*
X138233497Y-23269737D01*
X138379179Y-23209394D01*
X138510289Y-23121789D01*
X138621789Y-23010289D01*
X138709394Y-22879179D01*
X138769737Y-22733497D01*
X138800500Y-22578842D01*
X138800500Y-22421158D01*
X138800500Y-22421155D01*
X138800499Y-22421153D01*
X138769738Y-22266510D01*
X138769737Y-22266503D01*
X138769735Y-22266498D01*
X138709397Y-22120827D01*
X138709390Y-22120814D01*
X138621789Y-21989711D01*
X138621786Y-21989707D01*
X138510292Y-21878213D01*
X138510288Y-21878210D01*
X138379185Y-21790609D01*
X138379172Y-21790602D01*
X138233501Y-21730264D01*
X138233489Y-21730261D01*
X138078845Y-21699500D01*
X138078842Y-21699500D01*
X137921158Y-21699500D01*
X137921155Y-21699500D01*
X137766510Y-21730261D01*
X137766498Y-21730264D01*
X137620827Y-21790602D01*
X137620814Y-21790609D01*
X137489711Y-21878210D01*
X137489707Y-21878213D01*
X137378213Y-21989707D01*
X137378210Y-21989711D01*
X137290609Y-22120814D01*
X137290602Y-22120827D01*
X137230264Y-22266498D01*
X137230261Y-22266510D01*
X137199500Y-22421153D01*
X500500Y-22421153D01*
X500500Y-9871717D01*
X520185Y-9804678D01*
X572989Y-9758923D01*
X642147Y-9748979D01*
X705703Y-9778004D01*
X725560Y-9799865D01*
X847436Y-9971298D01*
X955354Y-10100659D01*
X1169286Y-10357102D01*
X1519963Y-10716926D01*
X1542564Y-10736789D01*
X1897351Y-11048603D01*
X2016350Y-11137902D01*
X2299217Y-11350172D01*
X2723148Y-11619819D01*
X2723152Y-11619821D01*
X2723155Y-11619823D01*
X3166640Y-11855954D01*
X3627027Y-12057155D01*
X4101568Y-12222225D01*
X4587433Y-12350179D01*
X4587444Y-12350181D01*
X4587448Y-12350182D01*
X4699293Y-12370563D01*
X5081724Y-12440256D01*
X5081732Y-12440256D01*
X5081733Y-12440257D01*
X5117774Y-12443982D01*
X5581492Y-12491916D01*
X5970588Y-12501938D01*
X6083746Y-12504853D01*
X6083747Y-12504852D01*
X6083757Y-12504853D01*
X6585522Y-12478988D01*
X7083795Y-12414477D01*
X7575603Y-12311704D01*
X8058012Y-12171281D01*
X8528146Y-11994047D01*
X8983199Y-11781060D01*
X9268089Y-11619823D01*
X9420448Y-11533594D01*
X9420450Y-11533592D01*
X9420458Y-11533588D01*
X9837313Y-11253109D01*
X10231280Y-10941295D01*
X10600007Y-10600007D01*
X10941295Y-10231280D01*
X11253109Y-9837313D01*
X11344294Y-9701789D01*
X11393374Y-9659290D01*
X11453684Y-9630247D01*
X11453686Y-9630246D01*
X11739039Y-9450946D01*
X12002523Y-9240825D01*
X12240825Y-9002523D01*
X12450946Y-8739039D01*
X12630246Y-8453686D01*
X12776469Y-8150051D01*
X12887776Y-7831954D01*
X12962767Y-7503394D01*
X13000500Y-7168504D01*
X13000500Y-6831496D01*
X12962767Y-6496606D01*
X12887776Y-6168046D01*
X12776469Y-5849949D01*
X12630246Y-5546314D01*
X12475703Y-5300361D01*
X12457354Y-5247138D01*
X12440257Y-5081735D01*
X12440256Y-5081724D01*
X12350179Y-4587433D01*
X12222225Y-4101568D01*
X12057155Y-3627027D01*
X11855954Y-3166640D01*
X11619823Y-2723155D01*
X11600679Y-2693057D01*
X11350172Y-2299217D01*
X11048598Y-1897345D01*
X11048597Y-1897344D01*
X10716922Y-1519959D01*
X10621880Y-1427333D01*
X10357102Y-1169286D01*
X10108767Y-962118D01*
X9971298Y-847436D01*
X9799867Y-725562D01*
X9756635Y-670676D01*
X9749940Y-601128D01*
X9781907Y-539000D01*
X9842389Y-504018D01*
X9871717Y-500500D01*
X150128283Y-500500D01*
X150195322Y-520185D01*
G37*
%TD.AperFunction*%
%TD*%
M02*
