%TF.GenerationSoftware,KiCad,Pcbnew,9.0.7*%
%TF.CreationDate,2026-03-05T00:36:57+01:00*%
%TF.ProjectId,esp32-emu-turbo,65737033-322d-4656-9d75-2d747572626f,rev?*%
%TF.SameCoordinates,Original*%
%TF.FileFunction,Drillmap*%
%TF.FilePolarity,Positive*%
%FSLAX45Y45*%
G04 Gerber Fmt 4.5, Leading zero omitted, Abs format (unit mm)*
G04 Created by KiCad (PCBNEW 9.0.7) date 2026-03-05 00:36:57*
%MOMM*%
%LPD*%
G01*
G04 APERTURE LIST*
%ADD10C,0.050000*%
%ADD11C,0.200000*%
%ADD12C,0.100000*%
%ADD13C,0.250000*%
G04 APERTURE END LIST*
D10*
X600000Y0D02*
X15400000Y0D01*
X16000000Y-600000D02*
X16000000Y-6900000D01*
X15400000Y-7500000D02*
X600000Y-7500000D01*
X0Y-6900000D02*
X0Y-600000D01*
X0Y-600000D02*
G75*
G02*
X600000Y0I600000J0D01*
G01*
X15400000Y0D02*
G75*
G02*
X16000000Y-600000I0J-600000D01*
G01*
X16000000Y-6900000D02*
G75*
G02*
X15400000Y-7500000I-600000J0D01*
G01*
X600000Y-7500000D02*
G75*
G02*
X0Y-6900000I0J600000D01*
G01*
X12550000Y-2350000D02*
X12850000Y-2350000D01*
X12850000Y-2350000D02*
X12850000Y-4750000D01*
X12850000Y-4750000D02*
X12550000Y-4750000D01*
X12550000Y-4750000D02*
X12550000Y-2350000D01*
D11*
D12*
X13337500Y-2517500D02*
X13352500Y-2532500D01*
X13352500Y-2517500D02*
X13337500Y-2532500D01*
X13337500Y-2617500D02*
X13352500Y-2632500D01*
X13352500Y-2617500D02*
X13337500Y-2632500D01*
X13337500Y-2717500D02*
X13352500Y-2732500D01*
X13352500Y-2717500D02*
X13337500Y-2732500D01*
X13337500Y-2817500D02*
X13352500Y-2832500D01*
X13352500Y-2817500D02*
X13337500Y-2832500D01*
X13337500Y-3767500D02*
X13352500Y-3782500D01*
X13352500Y-3767500D02*
X13337500Y-3782500D01*
X660000Y-5685000D02*
G75*
G02*
X640000Y-5685000I-10000J0D01*
G01*
X640000Y-5685000D02*
G75*
G02*
X660000Y-5685000I10000J0D01*
G01*
X760000Y-3485000D02*
G75*
G02*
X740000Y-3485000I-10000J0D01*
G01*
X740000Y-3485000D02*
G75*
G02*
X760000Y-3485000I10000J0D01*
G01*
X1610000Y-2585000D02*
G75*
G02*
X1590000Y-2585000I-10000J0D01*
G01*
X1590000Y-2585000D02*
G75*
G02*
X1610000Y-2585000I10000J0D01*
G01*
X1610000Y-4385000D02*
G75*
G02*
X1590000Y-4385000I-10000J0D01*
G01*
X1590000Y-4385000D02*
G75*
G02*
X1610000Y-4385000I10000J0D01*
G01*
X9950000Y-3608500D02*
X9950000Y-3633500D01*
X9937500Y-3621000D02*
X9962500Y-3621000D01*
X10100000Y-3799000D02*
X10100000Y-3824000D01*
X10087500Y-3811500D02*
X10112500Y-3811500D01*
X10155000Y-3672000D02*
X10155000Y-3697000D01*
X10142500Y-3684500D02*
X10167500Y-3684500D01*
X10234000Y-3545000D02*
X10234000Y-3570000D01*
X10221500Y-3557500D02*
X10246500Y-3557500D01*
X10766000Y-3545000D02*
X10766000Y-3570000D01*
X10753500Y-3557500D02*
X10778500Y-3557500D01*
X10820000Y-3672000D02*
X10820000Y-3697000D01*
X10807500Y-3684500D02*
X10832500Y-3684500D01*
X11000000Y-3799000D02*
X11000000Y-3824000D01*
X10987500Y-3811500D02*
X11012500Y-3811500D01*
X11150000Y-3608500D02*
X11150000Y-3633500D01*
X11137500Y-3621000D02*
X11162500Y-3621000D01*
X2560607Y-3495607D02*
X2560607Y-3474393D01*
X2539393Y-3474393D01*
X2539393Y-3495607D01*
X2560607Y-3495607D01*
X2660607Y-5695607D02*
X2660607Y-5674393D01*
X2639393Y-5674393D01*
X2639393Y-5695607D01*
X2660607Y-5695607D01*
X7230607Y-3250607D02*
X7230607Y-3229393D01*
X7209393Y-3229393D01*
X7209393Y-3250607D01*
X7230607Y-3250607D01*
X7230607Y-3377607D02*
X7230607Y-3356393D01*
X7209393Y-3356393D01*
X7209393Y-3377607D01*
X7230607Y-3377607D01*
X7230607Y-3504607D02*
X7230607Y-3483393D01*
X7209393Y-3483393D01*
X7209393Y-3504607D01*
X7230607Y-3504607D01*
X7230607Y-3631607D02*
X7230607Y-3610393D01*
X7209393Y-3610393D01*
X7209393Y-3631607D01*
X7230607Y-3631607D01*
X7510607Y-160607D02*
X7510607Y-139393D01*
X7489393Y-139393D01*
X7489393Y-160607D01*
X7510607Y-160607D01*
X7510607Y-3631607D02*
X7510607Y-3610393D01*
X7489393Y-3610393D01*
X7489393Y-3631607D01*
X7510607Y-3631607D01*
X7610607Y-230607D02*
X7610607Y-209393D01*
X7589393Y-209393D01*
X7589393Y-230607D01*
X7610607Y-230607D01*
X7610607Y-3504607D02*
X7610607Y-3483393D01*
X7589393Y-3483393D01*
X7589393Y-3504607D01*
X7610607Y-3504607D01*
X7710607Y-300607D02*
X7710607Y-279393D01*
X7689393Y-279393D01*
X7689393Y-300607D01*
X7710607Y-300607D01*
X7710607Y-3377607D02*
X7710607Y-3356393D01*
X7689393Y-3356393D01*
X7689393Y-3377607D01*
X7710607Y-3377607D01*
X7810607Y-370607D02*
X7810607Y-349393D01*
X7789393Y-349393D01*
X7789393Y-370607D01*
X7810607Y-370607D01*
X7810607Y-3250607D02*
X7810607Y-3229393D01*
X7789393Y-3229393D01*
X7789393Y-3250607D01*
X7810607Y-3250607D01*
X9115607Y-4010607D02*
X9115607Y-3989393D01*
X9094393Y-3989393D01*
X9094393Y-4010607D01*
X9115607Y-4010607D01*
X10980607Y-1810607D02*
X10980607Y-1789393D01*
X10959393Y-1789393D01*
X10959393Y-1810607D01*
X10980607Y-1810607D01*
X10980607Y-2806107D02*
X10980607Y-2784893D01*
X10959393Y-2784893D01*
X10959393Y-2806107D01*
X10980607Y-2806107D01*
X11090607Y-1710607D02*
X11090607Y-1689393D01*
X11069393Y-1689393D01*
X11069393Y-1710607D01*
X11090607Y-1710607D01*
X11090607Y-1960607D02*
X11090607Y-1939393D01*
X11069393Y-1939393D01*
X11069393Y-1960607D01*
X11090607Y-1960607D01*
X11200607Y-1610607D02*
X11200607Y-1589393D01*
X11179393Y-1589393D01*
X11179393Y-1610607D01*
X11200607Y-1610607D01*
X11200607Y-2060607D02*
X11200607Y-2039393D01*
X11179393Y-2039393D01*
X11179393Y-2060607D01*
X11200607Y-2060607D01*
X11310607Y-1510607D02*
X11310607Y-1489393D01*
X11289393Y-1489393D01*
X11289393Y-1510607D01*
X11310607Y-1510607D01*
X11310607Y-3187107D02*
X11310607Y-3165893D01*
X11289393Y-3165893D01*
X11289393Y-3187107D01*
X11310607Y-3187107D01*
X11420607Y-1410607D02*
X11420607Y-1389393D01*
X11399393Y-1389393D01*
X11399393Y-1410607D01*
X11420607Y-1410607D01*
X11420607Y-3631607D02*
X11420607Y-3610393D01*
X11399393Y-3610393D01*
X11399393Y-3631607D01*
X11420607Y-3631607D01*
X11530607Y-1310607D02*
X11530607Y-1289393D01*
X11509393Y-1289393D01*
X11509393Y-1310607D01*
X11530607Y-1310607D01*
X11530607Y-2996607D02*
X11530607Y-2975393D01*
X11509393Y-2975393D01*
X11509393Y-2996607D01*
X11530607Y-2996607D01*
X11640607Y-1210607D02*
X11640607Y-1189393D01*
X11619393Y-1189393D01*
X11619393Y-1210607D01*
X11640607Y-1210607D01*
X11640607Y-2869607D02*
X11640607Y-2848393D01*
X11619393Y-2848393D01*
X11619393Y-2869607D01*
X11640607Y-2869607D01*
X11750607Y-1110607D02*
X11750607Y-1089393D01*
X11729393Y-1089393D01*
X11729393Y-1110607D01*
X11750607Y-1110607D01*
X11750607Y-2742607D02*
X11750607Y-2721393D01*
X11729393Y-2721393D01*
X11729393Y-2742607D01*
X11750607Y-2742607D01*
X11860607Y-1010607D02*
X11860607Y-989393D01*
X11839393Y-989393D01*
X11839393Y-1010607D01*
X11860607Y-1010607D01*
X11860607Y-2615607D02*
X11860607Y-2594393D01*
X11839393Y-2594393D01*
X11839393Y-2615607D01*
X11860607Y-2615607D01*
X11970607Y-910607D02*
X11970607Y-889393D01*
X11949393Y-889393D01*
X11949393Y-910607D01*
X11970607Y-910607D01*
X11970607Y-3314107D02*
X11970607Y-3292893D01*
X11949393Y-3292893D01*
X11949393Y-3314107D01*
X11970607Y-3314107D01*
X12080607Y-810607D02*
X12080607Y-789393D01*
X12059393Y-789393D01*
X12059393Y-810607D01*
X12080607Y-810607D01*
X12080607Y-3441107D02*
X12080607Y-3419893D01*
X12059393Y-3419893D01*
X12059393Y-3441107D01*
X12080607Y-3441107D01*
X12190607Y-710607D02*
X12190607Y-689393D01*
X12169393Y-689393D01*
X12169393Y-710607D01*
X12190607Y-710607D01*
X12190607Y-3568107D02*
X12190607Y-3546893D01*
X12169393Y-3546893D01*
X12169393Y-3568107D01*
X12190607Y-3568107D01*
X12300607Y-610607D02*
X12300607Y-589393D01*
X12279393Y-589393D01*
X12279393Y-610607D01*
X12300607Y-610607D01*
X12300607Y-3695107D02*
X12300607Y-3673893D01*
X12279393Y-3673893D01*
X12279393Y-3695107D01*
X12300607Y-3695107D01*
X12410607Y-510607D02*
X12410607Y-489393D01*
X12389393Y-489393D01*
X12389393Y-510607D01*
X12410607Y-510607D01*
X12410607Y-3822107D02*
X12410607Y-3800893D01*
X12389393Y-3800893D01*
X12389393Y-3822107D01*
X12410607Y-3822107D01*
X13110607Y-510607D02*
X13110607Y-489393D01*
X13089393Y-489393D01*
X13089393Y-510607D01*
X13110607Y-510607D01*
X13180607Y-610607D02*
X13180607Y-589393D01*
X13159393Y-589393D01*
X13159393Y-610607D01*
X13180607Y-610607D01*
X13210607Y-5035607D02*
X13210607Y-5014393D01*
X13189393Y-5014393D01*
X13189393Y-5035607D01*
X13210607Y-5035607D01*
X13250607Y-710607D02*
X13250607Y-689393D01*
X13229393Y-689393D01*
X13229393Y-710607D01*
X13250607Y-710607D01*
X13320607Y-810607D02*
X13320607Y-789393D01*
X13299393Y-789393D01*
X13299393Y-810607D01*
X13320607Y-810607D01*
X13390607Y-910607D02*
X13390607Y-889393D01*
X13369393Y-889393D01*
X13369393Y-910607D01*
X13390607Y-910607D01*
X13460607Y-1010607D02*
X13460607Y-989393D01*
X13439393Y-989393D01*
X13439393Y-1010607D01*
X13460607Y-1010607D01*
X13460607Y-3495607D02*
X13460607Y-3474393D01*
X13439393Y-3474393D01*
X13439393Y-3495607D01*
X13460607Y-3495607D01*
X13530607Y-1110607D02*
X13530607Y-1089393D01*
X13509393Y-1089393D01*
X13509393Y-1110607D01*
X13530607Y-1110607D01*
X13600607Y-1210607D02*
X13600607Y-1189393D01*
X13579393Y-1189393D01*
X13579393Y-1210607D01*
X13600607Y-1210607D01*
X13670607Y-1310607D02*
X13670607Y-1289393D01*
X13649393Y-1289393D01*
X13649393Y-1310607D01*
X13670607Y-1310607D01*
X13740607Y-1410607D02*
X13740607Y-1389393D01*
X13719393Y-1389393D01*
X13719393Y-1410607D01*
X13740607Y-1410607D01*
X13810607Y-1510607D02*
X13810607Y-1489393D01*
X13789393Y-1489393D01*
X13789393Y-1510607D01*
X13810607Y-1510607D01*
X13880607Y-1610607D02*
X13880607Y-1589393D01*
X13859393Y-1589393D01*
X13859393Y-1610607D01*
X13880607Y-1610607D01*
X13950607Y-1710607D02*
X13950607Y-1689393D01*
X13929393Y-1689393D01*
X13929393Y-1710607D01*
X13950607Y-1710607D01*
X14020607Y-1810607D02*
X14020607Y-1789393D01*
X13999393Y-1789393D01*
X13999393Y-1810607D01*
X14020607Y-1810607D01*
X14130607Y-160607D02*
X14130607Y-139393D01*
X14109393Y-139393D01*
X14109393Y-160607D01*
X14130607Y-160607D01*
X14310607Y-5035607D02*
X14310607Y-5014393D01*
X14289393Y-5014393D01*
X14289393Y-5035607D01*
X14310607Y-5035607D01*
X14360607Y-2495607D02*
X14360607Y-2474393D01*
X14339393Y-2474393D01*
X14339393Y-2495607D01*
X14360607Y-2495607D01*
X14360607Y-4495607D02*
X14360607Y-4474393D01*
X14339393Y-4474393D01*
X14339393Y-4495607D01*
X14360607Y-4495607D01*
X14570607Y-230607D02*
X14570607Y-209393D01*
X14549393Y-209393D01*
X14549393Y-230607D01*
X14570607Y-230607D01*
X15260607Y-300607D02*
X15260607Y-279393D01*
X15239393Y-279393D01*
X15239393Y-300607D01*
X15260607Y-300607D01*
X15360607Y-370607D02*
X15360607Y-349393D01*
X15339393Y-349393D01*
X15339393Y-370607D01*
X15360607Y-370607D01*
X15360607Y-3495607D02*
X15360607Y-3474393D01*
X15339393Y-3474393D01*
X15339393Y-3495607D01*
X15360607Y-3495607D01*
X1220000Y-5282500D02*
X1237500Y-5265000D01*
X1220000Y-5247500D01*
X1202500Y-5265000D01*
X1220000Y-5282500D01*
X1220000Y-7177500D02*
X1237500Y-7160000D01*
X1220000Y-7142500D01*
X1202500Y-7160000D01*
X1220000Y-7177500D01*
X1320000Y-3082500D02*
X1337500Y-3065000D01*
X1320000Y-3047500D01*
X1302500Y-3065000D01*
X1320000Y-3082500D01*
X1320000Y-6457500D02*
X1337500Y-6440000D01*
X1320000Y-6422500D01*
X1302500Y-6440000D01*
X1320000Y-6457500D01*
X1465000Y-867500D02*
X1482500Y-850000D01*
X1465000Y-832500D01*
X1447500Y-850000D01*
X1465000Y-867500D01*
X1685000Y-7370500D02*
X1702500Y-7353000D01*
X1685000Y-7335500D01*
X1667500Y-7353000D01*
X1685000Y-7370500D01*
X2050000Y-2387500D02*
X2067500Y-2370000D01*
X2050000Y-2352500D01*
X2032500Y-2370000D01*
X2050000Y-2387500D01*
X2220000Y-2182500D02*
X2237500Y-2165000D01*
X2220000Y-2147500D01*
X2202500Y-2165000D01*
X2220000Y-2182500D01*
X2220000Y-6217500D02*
X2237500Y-6200000D01*
X2220000Y-6182500D01*
X2202500Y-6200000D01*
X2220000Y-6217500D01*
X2295000Y-3982500D02*
X2312500Y-3965000D01*
X2295000Y-3947500D01*
X2277500Y-3965000D01*
X2295000Y-3982500D01*
X2295000Y-6337500D02*
X2312500Y-6320000D01*
X2295000Y-6302500D01*
X2277500Y-6320000D01*
X2295000Y-6337500D01*
X2405000Y-6642500D02*
X2422500Y-6625000D01*
X2405000Y-6607500D01*
X2387500Y-6625000D01*
X2405000Y-6642500D01*
X2450000Y-2267500D02*
X2467500Y-2250000D01*
X2450000Y-2232500D01*
X2432500Y-2250000D01*
X2450000Y-2267500D01*
X2595000Y-6317500D02*
X2612500Y-6300000D01*
X2595000Y-6282500D01*
X2577500Y-6300000D01*
X2595000Y-6317500D01*
X2665000Y-6767500D02*
X2682500Y-6750000D01*
X2665000Y-6732500D01*
X2647500Y-6750000D01*
X2665000Y-6767500D01*
X2682500Y-2497500D02*
X2700000Y-2480000D01*
X2682500Y-2462500D01*
X2665000Y-2480000D01*
X2682500Y-2497500D01*
X2682500Y-3447500D02*
X2700000Y-3430000D01*
X2682500Y-3412500D01*
X2665000Y-3430000D01*
X2682500Y-3447500D01*
X2745000Y-4407500D02*
X2762500Y-4390000D01*
X2745000Y-4372500D01*
X2727500Y-4390000D01*
X2745000Y-4407500D01*
X2745000Y-7057500D02*
X2762500Y-7040000D01*
X2745000Y-7022500D01*
X2727500Y-7040000D01*
X2745000Y-7057500D01*
X2809500Y-2387500D02*
X2827000Y-2370000D01*
X2809500Y-2352500D01*
X2792000Y-2370000D01*
X2809500Y-2387500D01*
X2936500Y-2887500D02*
X2954000Y-2870000D01*
X2936500Y-2852500D01*
X2919000Y-2870000D01*
X2936500Y-2887500D01*
X3105000Y-6642500D02*
X3122500Y-6625000D01*
X3105000Y-6607500D01*
X3087500Y-6625000D01*
X3105000Y-6642500D01*
X3190500Y-2897500D02*
X3208000Y-2880000D01*
X3190500Y-2862500D01*
X3173000Y-2880000D01*
X3190500Y-2897500D01*
X3190500Y-3447500D02*
X3208000Y-3430000D01*
X3190500Y-3412500D01*
X3173000Y-3430000D01*
X3190500Y-3447500D01*
X3295000Y-6317500D02*
X3312500Y-6300000D01*
X3295000Y-6282500D01*
X3277500Y-6300000D01*
X3295000Y-6317500D01*
X3317500Y-1817500D02*
X3335000Y-1800000D01*
X3317500Y-1782500D01*
X3300000Y-1800000D01*
X3317500Y-1817500D01*
X3365000Y-6767500D02*
X3382500Y-6750000D01*
X3365000Y-6732500D01*
X3347500Y-6750000D01*
X3365000Y-6767500D01*
X3420000Y-3082500D02*
X3437500Y-3065000D01*
X3420000Y-3047500D01*
X3402500Y-3065000D01*
X3420000Y-3082500D01*
X3420000Y-6577500D02*
X3437500Y-6560000D01*
X3420000Y-6542500D01*
X3402500Y-6560000D01*
X3420000Y-6577500D01*
X3495000Y-5282500D02*
X3512500Y-5265000D01*
X3495000Y-5247500D01*
X3477500Y-5265000D01*
X3495000Y-5282500D01*
X3495000Y-7297500D02*
X3512500Y-7280000D01*
X3495000Y-7262500D01*
X3477500Y-7280000D01*
X3495000Y-7297500D01*
X3645000Y-4287500D02*
X3662500Y-4270000D01*
X3645000Y-4252500D01*
X3627500Y-4270000D01*
X3645000Y-4287500D01*
X3645000Y-6937500D02*
X3662500Y-6920000D01*
X3645000Y-6902500D01*
X3627500Y-6920000D01*
X3645000Y-6937500D01*
X3800000Y-4631000D02*
X3817500Y-4613500D01*
X3800000Y-4596000D01*
X3782500Y-4613500D01*
X3800000Y-4631000D01*
X3925000Y-6847500D02*
X3942500Y-6830000D01*
X3925000Y-6812500D01*
X3907500Y-6830000D01*
X3925000Y-6847500D01*
X3950000Y-2267500D02*
X3967500Y-2250000D01*
X3950000Y-2232500D01*
X3932500Y-2250000D01*
X3950000Y-2267500D01*
X4205000Y-4477500D02*
X4222500Y-4460000D01*
X4205000Y-4442500D01*
X4187500Y-4460000D01*
X4205000Y-4477500D01*
X4205000Y-5217500D02*
X4222500Y-5200000D01*
X4205000Y-5182500D01*
X4187500Y-5200000D01*
X4205000Y-5217500D01*
X4545000Y-4167500D02*
X4562500Y-4150000D01*
X4545000Y-4132500D01*
X4527500Y-4150000D01*
X4545000Y-4167500D01*
X4545000Y-6817500D02*
X4562500Y-6800000D01*
X4545000Y-6782500D01*
X4527500Y-6800000D01*
X4545000Y-6817500D01*
X4705000Y-4477500D02*
X4722500Y-4460000D01*
X4705000Y-4442500D01*
X4687500Y-4460000D01*
X4705000Y-4477500D01*
X4705000Y-5217500D02*
X4722500Y-5200000D01*
X4705000Y-5182500D01*
X4687500Y-5200000D01*
X4705000Y-5217500D01*
X5205000Y-4477500D02*
X5222500Y-4460000D01*
X5205000Y-4442500D01*
X5187500Y-4460000D01*
X5205000Y-4477500D01*
X5205000Y-5217500D02*
X5222500Y-5200000D01*
X5205000Y-5182500D01*
X5187500Y-5200000D01*
X5205000Y-5217500D01*
X5245000Y-2622500D02*
X5262500Y-2605000D01*
X5245000Y-2587500D01*
X5227500Y-2605000D01*
X5245000Y-2622500D01*
X5245000Y-6697500D02*
X5262500Y-6680000D01*
X5245000Y-6662500D01*
X5227500Y-6680000D01*
X5245000Y-6697500D01*
X5705000Y-4477500D02*
X5722500Y-4460000D01*
X5705000Y-4442500D01*
X5687500Y-4460000D01*
X5705000Y-4477500D01*
X5705000Y-5217500D02*
X5722500Y-5200000D01*
X5705000Y-5182500D01*
X5687500Y-5200000D01*
X5705000Y-5217500D01*
X5855000Y-2749500D02*
X5872500Y-2732000D01*
X5855000Y-2714500D01*
X5837500Y-2732000D01*
X5855000Y-2749500D01*
X5855000Y-6577500D02*
X5872500Y-6560000D01*
X5855000Y-6542500D01*
X5837500Y-6560000D01*
X5855000Y-6577500D01*
X6045000Y-4527500D02*
X6062500Y-4510000D01*
X6045000Y-4492500D01*
X6027500Y-4510000D01*
X6045000Y-4527500D01*
X6045000Y-7297500D02*
X6062500Y-7280000D01*
X6045000Y-7262500D01*
X6027500Y-7280000D01*
X6045000Y-7297500D01*
X6205000Y-4477500D02*
X6222500Y-4460000D01*
X6205000Y-4442500D01*
X6187500Y-4460000D01*
X6205000Y-4477500D01*
X6205000Y-5217500D02*
X6222500Y-5200000D01*
X6205000Y-5182500D01*
X6187500Y-5200000D01*
X6205000Y-5217500D01*
X6245000Y-2876500D02*
X6262500Y-2859000D01*
X6245000Y-2841500D01*
X6227500Y-2859000D01*
X6245000Y-2876500D01*
X6245000Y-6457500D02*
X6262500Y-6440000D01*
X6245000Y-6422500D01*
X6227500Y-6440000D01*
X6245000Y-6457500D01*
X6555000Y-3003500D02*
X6572500Y-2986000D01*
X6555000Y-2968500D01*
X6537500Y-2986000D01*
X6555000Y-3003500D01*
X6555000Y-6337500D02*
X6572500Y-6320000D01*
X6555000Y-6302500D01*
X6537500Y-6320000D01*
X6555000Y-6337500D01*
X6705000Y-4477500D02*
X6722500Y-4460000D01*
X6705000Y-4442500D01*
X6687500Y-4460000D01*
X6705000Y-4477500D01*
X6705000Y-5217500D02*
X6722500Y-5200000D01*
X6705000Y-5182500D01*
X6687500Y-5200000D01*
X6705000Y-5217500D01*
X6745000Y-3130500D02*
X6762500Y-3113000D01*
X6745000Y-3095500D01*
X6727500Y-3113000D01*
X6745000Y-3130500D01*
X6745000Y-6217500D02*
X6762500Y-6200000D01*
X6745000Y-6182500D01*
X6727500Y-6200000D01*
X6745000Y-6217500D01*
X6855000Y-4017500D02*
X6872500Y-4000000D01*
X6855000Y-3982500D01*
X6837500Y-4000000D01*
X6855000Y-4017500D01*
X6925000Y-2622500D02*
X6942500Y-2605000D01*
X6925000Y-2587500D01*
X6907500Y-2605000D01*
X6925000Y-2622500D01*
X6925000Y-2749500D02*
X6942500Y-2732000D01*
X6925000Y-2714500D01*
X6907500Y-2732000D01*
X6925000Y-2749500D01*
X6925000Y-2876500D02*
X6942500Y-2859000D01*
X6925000Y-2841500D01*
X6907500Y-2859000D01*
X6925000Y-2876500D01*
X6925000Y-3003500D02*
X6942500Y-2986000D01*
X6925000Y-2968500D01*
X6907500Y-2986000D01*
X6925000Y-3003500D01*
X6925000Y-3130500D02*
X6942500Y-3113000D01*
X6925000Y-3095500D01*
X6907500Y-3113000D01*
X6925000Y-3130500D01*
X7045000Y-4417500D02*
X7062500Y-4400000D01*
X7045000Y-4382500D01*
X7027500Y-4400000D01*
X7045000Y-4417500D01*
X7205000Y-4477500D02*
X7222500Y-4460000D01*
X7205000Y-4442500D01*
X7187500Y-4460000D01*
X7205000Y-4477500D01*
X7205000Y-5217500D02*
X7222500Y-5200000D01*
X7205000Y-5182500D01*
X7187500Y-5200000D01*
X7205000Y-5217500D01*
X7250000Y-7370500D02*
X7267500Y-7353000D01*
X7250000Y-7335500D01*
X7232500Y-7353000D01*
X7250000Y-7370500D01*
X7301500Y-2813000D02*
X7319000Y-2795500D01*
X7301500Y-2778000D01*
X7284000Y-2795500D01*
X7301500Y-2813000D01*
X7305000Y-6567500D02*
X7322500Y-6550000D01*
X7305000Y-6532500D01*
X7287500Y-6550000D01*
X7305000Y-6567500D01*
X7325000Y-4167500D02*
X7342500Y-4150000D01*
X7325000Y-4132500D01*
X7307500Y-4150000D01*
X7325000Y-4167500D01*
X7325000Y-4527500D02*
X7342500Y-4510000D01*
X7325000Y-4492500D01*
X7307500Y-4510000D01*
X7325000Y-4527500D01*
X7355500Y-4287500D02*
X7373000Y-4270000D01*
X7355500Y-4252500D01*
X7338000Y-4270000D01*
X7355500Y-4287500D01*
X7482500Y-4407500D02*
X7500000Y-4390000D01*
X7482500Y-4372500D01*
X7465000Y-4390000D01*
X7482500Y-4407500D01*
X7680000Y-6730000D02*
X7697500Y-6712500D01*
X7680000Y-6695000D01*
X7662500Y-6712500D01*
X7680000Y-6730000D01*
X7700000Y-5767500D02*
X7717500Y-5750000D01*
X7700000Y-5732500D01*
X7682500Y-5750000D01*
X7700000Y-5767500D01*
X7705000Y-4477500D02*
X7722500Y-4460000D01*
X7705000Y-4442500D01*
X7687500Y-4460000D01*
X7705000Y-4477500D01*
X7705000Y-5217500D02*
X7722500Y-5200000D01*
X7705000Y-5182500D01*
X7687500Y-5200000D01*
X7705000Y-5217500D01*
X7809500Y-3702000D02*
X7827000Y-3684500D01*
X7809500Y-3667000D01*
X7792000Y-3684500D01*
X7809500Y-3702000D01*
X7825000Y-7217500D02*
X7842500Y-7200000D01*
X7825000Y-7182500D01*
X7807500Y-7200000D01*
X7825000Y-7217500D01*
X7936500Y-3321000D02*
X7954000Y-3303500D01*
X7936500Y-3286000D01*
X7919000Y-3303500D01*
X7936500Y-3321000D01*
X7975000Y-6505000D02*
X7992500Y-6487500D01*
X7975000Y-6470000D01*
X7957500Y-6487500D01*
X7975000Y-6505000D01*
X8050000Y-4631000D02*
X8067500Y-4613500D01*
X8050000Y-4596000D01*
X8032500Y-4613500D01*
X8050000Y-4631000D01*
X8060000Y-6630000D02*
X8077500Y-6612500D01*
X8060000Y-6595000D01*
X8042500Y-6612500D01*
X8060000Y-6630000D01*
X8063500Y-3829000D02*
X8081000Y-3811500D01*
X8063500Y-3794000D01*
X8046000Y-3811500D01*
X8063500Y-3829000D01*
X8150000Y-3313500D02*
X8167500Y-3296000D01*
X8150000Y-3278500D01*
X8132500Y-3296000D01*
X8150000Y-3313500D01*
X8190500Y-1967500D02*
X8208000Y-1950000D01*
X8190500Y-1932500D01*
X8173000Y-1950000D01*
X8190500Y-1967500D01*
X8200000Y-6117500D02*
X8217500Y-6100000D01*
X8200000Y-6082500D01*
X8182500Y-6100000D01*
X8200000Y-6117500D01*
X8205000Y-4477500D02*
X8222500Y-4460000D01*
X8205000Y-4442500D01*
X8187500Y-4460000D01*
X8205000Y-4477500D01*
X8205000Y-5217500D02*
X8222500Y-5200000D01*
X8205000Y-5182500D01*
X8187500Y-5200000D01*
X8205000Y-5217500D01*
X8317500Y-2067500D02*
X8335000Y-2050000D01*
X8317500Y-2032500D01*
X8300000Y-2050000D01*
X8317500Y-2067500D01*
X8444500Y-3194000D02*
X8462000Y-3176500D01*
X8444500Y-3159000D01*
X8427000Y-3176500D01*
X8444500Y-3194000D01*
X8505000Y-6617500D02*
X8522500Y-6600000D01*
X8505000Y-6582500D01*
X8487500Y-6600000D01*
X8505000Y-6617500D01*
X8571500Y-3575000D02*
X8589000Y-3557500D01*
X8571500Y-3540000D01*
X8554000Y-3557500D01*
X8571500Y-3575000D01*
X8695000Y-7217500D02*
X8712500Y-7200000D01*
X8695000Y-7182500D01*
X8677500Y-7200000D01*
X8695000Y-7217500D01*
X8698500Y-3448000D02*
X8716000Y-3430500D01*
X8698500Y-3413000D01*
X8681000Y-3430500D01*
X8698500Y-3448000D01*
X8705000Y-4477500D02*
X8722500Y-4460000D01*
X8705000Y-4442500D01*
X8687500Y-4460000D01*
X8705000Y-4477500D01*
X8705000Y-5217500D02*
X8722500Y-5200000D01*
X8705000Y-5182500D01*
X8687500Y-5200000D01*
X8705000Y-5217500D01*
X8770000Y-1817500D02*
X8787500Y-1800000D01*
X8770000Y-1782500D01*
X8752500Y-1800000D01*
X8770000Y-1817500D01*
X8875000Y-2118500D02*
X8892500Y-2101000D01*
X8875000Y-2083500D01*
X8857500Y-2101000D01*
X8875000Y-2118500D01*
X9025000Y-6630000D02*
X9042500Y-6612500D01*
X9025000Y-6595000D01*
X9007500Y-6612500D01*
X9025000Y-6630000D01*
X9045000Y-3765500D02*
X9062500Y-3748000D01*
X9045000Y-3730500D01*
X9027500Y-3748000D01*
X9045000Y-3765500D01*
X9075000Y-2622500D02*
X9092500Y-2605000D01*
X9075000Y-2587500D01*
X9057500Y-2605000D01*
X9075000Y-2622500D01*
X9075000Y-2749500D02*
X9092500Y-2732000D01*
X9075000Y-2714500D01*
X9057500Y-2732000D01*
X9075000Y-2749500D01*
X9075000Y-2876500D02*
X9092500Y-2859000D01*
X9075000Y-2841500D01*
X9057500Y-2859000D01*
X9075000Y-2876500D01*
X9075000Y-3003500D02*
X9092500Y-2986000D01*
X9075000Y-2968500D01*
X9057500Y-2986000D01*
X9075000Y-3003500D01*
X9075000Y-3511500D02*
X9092500Y-3494000D01*
X9075000Y-3476500D01*
X9057500Y-3494000D01*
X9075000Y-3511500D01*
X9075000Y-3638500D02*
X9092500Y-3621000D01*
X9075000Y-3603500D01*
X9057500Y-3621000D01*
X9075000Y-3638500D01*
X9170000Y-6505000D02*
X9187500Y-6487500D01*
X9170000Y-6470000D01*
X9152500Y-6487500D01*
X9170000Y-6505000D01*
X9205000Y-4477500D02*
X9222500Y-4460000D01*
X9205000Y-4442500D01*
X9187500Y-4460000D01*
X9205000Y-4477500D01*
X9205000Y-5217500D02*
X9222500Y-5200000D01*
X9205000Y-5182500D01*
X9187500Y-5200000D01*
X9205000Y-5217500D01*
X9295000Y-4077500D02*
X9312500Y-4060000D01*
X9295000Y-4042500D01*
X9277500Y-4060000D01*
X9295000Y-4077500D01*
X9350000Y-3765500D02*
X9367500Y-3748000D01*
X9350000Y-3730500D01*
X9332500Y-3748000D01*
X9350000Y-3765500D01*
X9350000Y-6517500D02*
X9367500Y-6500000D01*
X9350000Y-6482500D01*
X9332500Y-6500000D01*
X9350000Y-6517500D01*
X9705000Y-4477500D02*
X9722500Y-4460000D01*
X9705000Y-4442500D01*
X9687500Y-4460000D01*
X9705000Y-4477500D01*
X9705000Y-5217500D02*
X9722500Y-5200000D01*
X9705000Y-5182500D01*
X9687500Y-5200000D01*
X9705000Y-5217500D01*
X10045000Y-3511500D02*
X10062500Y-3494000D01*
X10045000Y-3476500D01*
X10027500Y-3494000D01*
X10045000Y-3511500D01*
X10045000Y-7177500D02*
X10062500Y-7160000D01*
X10045000Y-7142500D01*
X10027500Y-7160000D01*
X10045000Y-7177500D01*
X10205000Y-4477500D02*
X10222500Y-4460000D01*
X10205000Y-4442500D01*
X10187500Y-4460000D01*
X10205000Y-4477500D01*
X10205000Y-5217500D02*
X10222500Y-5200000D01*
X10205000Y-5182500D01*
X10187500Y-5200000D01*
X10205000Y-5217500D01*
X10550000Y-4631000D02*
X10567500Y-4613500D01*
X10550000Y-4596000D01*
X10532500Y-4613500D01*
X10550000Y-4631000D01*
X10750000Y-3927000D02*
X10767500Y-3909500D01*
X10750000Y-3892000D01*
X10732500Y-3909500D01*
X10750000Y-3927000D01*
X10850000Y-6067500D02*
X10867500Y-6050000D01*
X10850000Y-6032500D01*
X10832500Y-6050000D01*
X10850000Y-6067500D01*
X10905000Y-3717500D02*
X10922500Y-3700000D01*
X10905000Y-3682500D01*
X10887500Y-3700000D01*
X10905000Y-3717500D01*
X11095000Y-3317500D02*
X11112500Y-3300000D01*
X11095000Y-3282500D01*
X11077500Y-3300000D01*
X11095000Y-3317500D01*
X11100000Y-4027000D02*
X11117500Y-4009500D01*
X11100000Y-3992000D01*
X11082500Y-4009500D01*
X11100000Y-4027000D01*
X11150000Y-5667500D02*
X11167500Y-5650000D01*
X11150000Y-5632500D01*
X11132500Y-5650000D01*
X11150000Y-5667500D01*
X11240000Y-4567500D02*
X11257500Y-4550000D01*
X11240000Y-4532500D01*
X11222500Y-4550000D01*
X11240000Y-4567500D01*
X11240000Y-4967500D02*
X11257500Y-4950000D01*
X11240000Y-4932500D01*
X11222500Y-4950000D01*
X11240000Y-4967500D01*
X11595000Y-5467500D02*
X11612500Y-5450000D01*
X11595000Y-5432500D01*
X11577500Y-5450000D01*
X11595000Y-5467500D01*
X11705000Y-5767500D02*
X11722500Y-5750000D01*
X11705000Y-5732500D01*
X11687500Y-5750000D01*
X11705000Y-5767500D01*
X11895000Y-5267500D02*
X11912500Y-5250000D01*
X11895000Y-5232500D01*
X11877500Y-5250000D01*
X11895000Y-5267500D01*
X12105000Y-4617500D02*
X12122500Y-4600000D01*
X12105000Y-4582500D01*
X12087500Y-4600000D01*
X12105000Y-4617500D01*
X12270000Y-5682500D02*
X12287500Y-5665000D01*
X12270000Y-5647500D01*
X12252500Y-5665000D01*
X12270000Y-5682500D01*
X12295000Y-4617500D02*
X12312500Y-4600000D01*
X12295000Y-4582500D01*
X12277500Y-4600000D01*
X12295000Y-4617500D01*
X12350000Y-6467500D02*
X12367500Y-6450000D01*
X12350000Y-6432500D01*
X12332500Y-6450000D01*
X12350000Y-6467500D01*
X12500000Y-4952500D02*
X12517500Y-4935000D01*
X12500000Y-4917500D01*
X12482500Y-4935000D01*
X12500000Y-4952500D01*
X12730000Y-6082500D02*
X12747500Y-6065000D01*
X12730000Y-6047500D01*
X12712500Y-6065000D01*
X12730000Y-6082500D01*
X12946000Y-3082500D02*
X12963500Y-3065000D01*
X12946000Y-3047500D01*
X12928500Y-3065000D01*
X12946000Y-3082500D01*
X12946000Y-7057500D02*
X12963500Y-7040000D01*
X12946000Y-7022500D01*
X12928500Y-7040000D01*
X12946000Y-7057500D01*
X12988000Y-4082500D02*
X13005500Y-4065000D01*
X12988000Y-4047500D01*
X12970500Y-4065000D01*
X12988000Y-4082500D01*
X12988000Y-6937500D02*
X13005500Y-6920000D01*
X12988000Y-6902500D01*
X12970500Y-6920000D01*
X12988000Y-6937500D01*
X13030000Y-2082500D02*
X13047500Y-2065000D01*
X13030000Y-2047500D01*
X13012500Y-2065000D01*
X13030000Y-2082500D01*
X13030000Y-6697500D02*
X13047500Y-6680000D01*
X13030000Y-6662500D01*
X13012500Y-6680000D01*
X13030000Y-6697500D01*
X13886000Y-7217500D02*
X13903500Y-7200000D01*
X13886000Y-7182500D01*
X13868500Y-7200000D01*
X13886000Y-7217500D01*
X13996000Y-6617500D02*
X14013500Y-6600000D01*
X13996000Y-6582500D01*
X13978500Y-6600000D01*
X13996000Y-6617500D01*
X14120000Y-6617500D02*
X14137500Y-6600000D01*
X14120000Y-6582500D01*
X14102500Y-6600000D01*
X14120000Y-6617500D01*
X14216000Y-7067500D02*
X14233500Y-7050000D01*
X14216000Y-7032500D01*
X14198500Y-7050000D01*
X14216000Y-7067500D01*
X14280000Y-3082500D02*
X14297500Y-3065000D01*
X14280000Y-3047500D01*
X14262500Y-3065000D01*
X14280000Y-3082500D01*
X14280000Y-6817500D02*
X14297500Y-6800000D01*
X14280000Y-6782500D01*
X14262500Y-6800000D01*
X14280000Y-6817500D01*
X14436000Y-6767500D02*
X14453500Y-6750000D01*
X14436000Y-6732500D01*
X14418500Y-6750000D01*
X14436000Y-6767500D01*
X14465000Y-867500D02*
X14482500Y-850000D01*
X14465000Y-832500D01*
X14447500Y-850000D01*
X14465000Y-867500D01*
X14560000Y-6767500D02*
X14577500Y-6750000D01*
X14560000Y-6732500D01*
X14542500Y-6750000D01*
X14560000Y-6767500D01*
X14685000Y-6517500D02*
X14702500Y-6500000D01*
X14685000Y-6482500D01*
X14667500Y-6500000D01*
X14685000Y-6517500D01*
X15250000Y-7067500D02*
X15267500Y-7050000D01*
X15250000Y-7032500D01*
X15232500Y-7050000D01*
X15250000Y-7067500D01*
X15350000Y-7217500D02*
X15367500Y-7200000D01*
X15350000Y-7182500D01*
X15332500Y-7200000D01*
X15350000Y-7217500D01*
X7537500Y-6937500D02*
X7597500Y-6997500D01*
X7597500Y-6937500D02*
X7537500Y-6997500D01*
X7597500Y-6967500D02*
G75*
G02*
X7537500Y-6967500I-30000J0D01*
G01*
X7537500Y-6967500D02*
G75*
G02*
X7597500Y-6967500I30000J0D01*
G01*
X7537500Y-7357500D02*
X7597500Y-7417500D01*
X7597500Y-7357500D02*
X7537500Y-7417500D01*
X7597500Y-7387500D02*
G75*
G02*
X7537500Y-7387500I-30000J0D01*
G01*
X7537500Y-7387500D02*
G75*
G02*
X7597500Y-7387500I30000J0D01*
G01*
X8402500Y-6937500D02*
X8462500Y-6997500D01*
X8462500Y-6937500D02*
X8402500Y-6997500D01*
X8462500Y-6967500D02*
G75*
G02*
X8402500Y-6967500I-30000J0D01*
G01*
X8402500Y-6967500D02*
G75*
G02*
X8462500Y-6967500I30000J0D01*
G01*
X8402500Y-7357500D02*
X8462500Y-7417500D01*
X8462500Y-7357500D02*
X8402500Y-7417500D01*
X8462500Y-7387500D02*
G75*
G02*
X8402500Y-7387500I-30000J0D01*
G01*
X8402500Y-7387500D02*
G75*
G02*
X8462500Y-7387500I30000J0D01*
G01*
X7857500Y-5707500D02*
X7942500Y-5792500D01*
X7942500Y-5707500D02*
X7857500Y-5792500D01*
X7900000Y-5707500D02*
X7900000Y-5792500D01*
X7857500Y-5750000D02*
X7942500Y-5750000D01*
X8057500Y-5707500D02*
X8142500Y-5792500D01*
X8142500Y-5707500D02*
X8057500Y-5792500D01*
X8100000Y-5707500D02*
X8100000Y-5792500D01*
X8057500Y-5750000D02*
X8142500Y-5750000D01*
X7693500Y-7002000D02*
X7728500Y-7037000D01*
X7728500Y-7002000D02*
X7693500Y-7037000D01*
X7723374Y-7031874D02*
X7723374Y-7007125D01*
X7698625Y-7007125D01*
X7698625Y-7031874D01*
X7723374Y-7031874D01*
X8271500Y-7002000D02*
X8306500Y-7037000D01*
X8306500Y-7002000D02*
X8271500Y-7037000D01*
X8301374Y-7031874D02*
X8301374Y-7007125D01*
X8276625Y-7007125D01*
X8276625Y-7031874D01*
X8301374Y-7031874D01*
X3827500Y-7232500D02*
X3872500Y-7277500D01*
X3872500Y-7232500D02*
X3827500Y-7277500D01*
X3850000Y-7277500D02*
X3872500Y-7255000D01*
X3850000Y-7232500D01*
X3827500Y-7255000D01*
X3850000Y-7277500D01*
X4127500Y-7232500D02*
X4172500Y-7277500D01*
X4172500Y-7232500D02*
X4127500Y-7277500D01*
X4150000Y-7277500D02*
X4172500Y-7255000D01*
X4150000Y-7232500D01*
X4127500Y-7255000D01*
X4150000Y-7277500D01*
X13695000Y-7231600D02*
X13695000Y-7281600D01*
X13670000Y-7256600D02*
X13720000Y-7256600D01*
X13720000Y-7256600D02*
G75*
G02*
X13670000Y-7256600I-25000J0D01*
G01*
X13670000Y-7256600D02*
G75*
G02*
X13720000Y-7256600I25000J0D01*
G01*
X14495000Y-7231600D02*
X14495000Y-7281600D01*
X14470000Y-7256600D02*
X14520000Y-7256600D01*
X14520000Y-7256600D02*
G75*
G02*
X14470000Y-7256600I-25000J0D01*
G01*
X14470000Y-7256600D02*
G75*
G02*
X14520000Y-7256600I25000J0D01*
G01*
D13*
X1088389Y-788389D02*
X1088389Y-611611D01*
X911611Y-611611D01*
X911611Y-788389D01*
X1088389Y-788389D01*
X1125000Y-700000D02*
G75*
G02*
X875000Y-700000I-125000J0D01*
G01*
X875000Y-700000D02*
G75*
G02*
X1125000Y-700000I125000J0D01*
G01*
X1088389Y-6888389D02*
X1088389Y-6711611D01*
X911611Y-6711611D01*
X911611Y-6888389D01*
X1088389Y-6888389D01*
X1125000Y-6800000D02*
G75*
G02*
X875000Y-6800000I-125000J0D01*
G01*
X875000Y-6800000D02*
G75*
G02*
X1125000Y-6800000I125000J0D01*
G01*
X5588389Y-3838389D02*
X5588389Y-3661611D01*
X5411611Y-3661611D01*
X5411611Y-3838389D01*
X5588389Y-3838389D01*
X5625000Y-3750000D02*
G75*
G02*
X5375000Y-3750000I-125000J0D01*
G01*
X5375000Y-3750000D02*
G75*
G02*
X5625000Y-3750000I125000J0D01*
G01*
X10588389Y-3838389D02*
X10588389Y-3661611D01*
X10411611Y-3661611D01*
X10411611Y-3838389D01*
X10588389Y-3838389D01*
X10625000Y-3750000D02*
G75*
G02*
X10375000Y-3750000I-125000J0D01*
G01*
X10375000Y-3750000D02*
G75*
G02*
X10625000Y-3750000I125000J0D01*
G01*
X15088389Y-788389D02*
X15088389Y-611611D01*
X14911611Y-611611D01*
X14911611Y-788389D01*
X15088389Y-788389D01*
X15125000Y-700000D02*
G75*
G02*
X14875000Y-700000I-125000J0D01*
G01*
X14875000Y-700000D02*
G75*
G02*
X15125000Y-700000I125000J0D01*
G01*
X15088389Y-6888389D02*
X15088389Y-6711611D01*
X14911611Y-6711611D01*
X14911611Y-6888389D01*
X15088389Y-6888389D01*
X15125000Y-6800000D02*
G75*
G02*
X14875000Y-6800000I-125000J0D01*
G01*
X14875000Y-6800000D02*
G75*
G02*
X15125000Y-6800000I125000J0D01*
G01*
D11*
X258277Y-7813984D02*
X258277Y-7613984D01*
X258277Y-7613984D02*
X305896Y-7613984D01*
X305896Y-7613984D02*
X334467Y-7623508D01*
X334467Y-7623508D02*
X353515Y-7642555D01*
X353515Y-7642555D02*
X363039Y-7661603D01*
X363039Y-7661603D02*
X372562Y-7699698D01*
X372562Y-7699698D02*
X372562Y-7728269D01*
X372562Y-7728269D02*
X363039Y-7766365D01*
X363039Y-7766365D02*
X353515Y-7785412D01*
X353515Y-7785412D02*
X334467Y-7804460D01*
X334467Y-7804460D02*
X305896Y-7813984D01*
X305896Y-7813984D02*
X258277Y-7813984D01*
X458277Y-7813984D02*
X458277Y-7680650D01*
X458277Y-7718746D02*
X467801Y-7699698D01*
X467801Y-7699698D02*
X477324Y-7690174D01*
X477324Y-7690174D02*
X496372Y-7680650D01*
X496372Y-7680650D02*
X515420Y-7680650D01*
X582086Y-7813984D02*
X582086Y-7680650D01*
X582086Y-7613984D02*
X572563Y-7623508D01*
X572563Y-7623508D02*
X582086Y-7633031D01*
X582086Y-7633031D02*
X591610Y-7623508D01*
X591610Y-7623508D02*
X582086Y-7613984D01*
X582086Y-7613984D02*
X582086Y-7633031D01*
X705896Y-7813984D02*
X686848Y-7804460D01*
X686848Y-7804460D02*
X677324Y-7785412D01*
X677324Y-7785412D02*
X677324Y-7613984D01*
X810658Y-7813984D02*
X791610Y-7804460D01*
X791610Y-7804460D02*
X782086Y-7785412D01*
X782086Y-7785412D02*
X782086Y-7613984D01*
X1039229Y-7813984D02*
X1039229Y-7613984D01*
X1039229Y-7613984D02*
X1105896Y-7756841D01*
X1105896Y-7756841D02*
X1172563Y-7613984D01*
X1172563Y-7613984D02*
X1172563Y-7813984D01*
X1353515Y-7813984D02*
X1353515Y-7709222D01*
X1353515Y-7709222D02*
X1343991Y-7690174D01*
X1343991Y-7690174D02*
X1324944Y-7680650D01*
X1324944Y-7680650D02*
X1286848Y-7680650D01*
X1286848Y-7680650D02*
X1267801Y-7690174D01*
X1353515Y-7804460D02*
X1334467Y-7813984D01*
X1334467Y-7813984D02*
X1286848Y-7813984D01*
X1286848Y-7813984D02*
X1267801Y-7804460D01*
X1267801Y-7804460D02*
X1258277Y-7785412D01*
X1258277Y-7785412D02*
X1258277Y-7766365D01*
X1258277Y-7766365D02*
X1267801Y-7747317D01*
X1267801Y-7747317D02*
X1286848Y-7737793D01*
X1286848Y-7737793D02*
X1334467Y-7737793D01*
X1334467Y-7737793D02*
X1353515Y-7728269D01*
X1448753Y-7680650D02*
X1448753Y-7880650D01*
X1448753Y-7690174D02*
X1467801Y-7680650D01*
X1467801Y-7680650D02*
X1505896Y-7680650D01*
X1505896Y-7680650D02*
X1524943Y-7690174D01*
X1524943Y-7690174D02*
X1534467Y-7699698D01*
X1534467Y-7699698D02*
X1543991Y-7718746D01*
X1543991Y-7718746D02*
X1543991Y-7775888D01*
X1543991Y-7775888D02*
X1534467Y-7794936D01*
X1534467Y-7794936D02*
X1524943Y-7804460D01*
X1524943Y-7804460D02*
X1505896Y-7813984D01*
X1505896Y-7813984D02*
X1467801Y-7813984D01*
X1467801Y-7813984D02*
X1448753Y-7804460D01*
X1629705Y-7794936D02*
X1639229Y-7804460D01*
X1639229Y-7804460D02*
X1629705Y-7813984D01*
X1629705Y-7813984D02*
X1620182Y-7804460D01*
X1620182Y-7804460D02*
X1629705Y-7794936D01*
X1629705Y-7794936D02*
X1629705Y-7813984D01*
X1629705Y-7690174D02*
X1639229Y-7699698D01*
X1639229Y-7699698D02*
X1629705Y-7709222D01*
X1629705Y-7709222D02*
X1620182Y-7699698D01*
X1620182Y-7699698D02*
X1629705Y-7690174D01*
X1629705Y-7690174D02*
X1629705Y-7709222D01*
D12*
X-17500Y-8135000D02*
X-2500Y-8150000D01*
X-2500Y-8135000D02*
X-17500Y-8150000D01*
D11*
X296372Y-8033984D02*
X315420Y-8033984D01*
X315420Y-8033984D02*
X334467Y-8043508D01*
X334467Y-8043508D02*
X343991Y-8053031D01*
X343991Y-8053031D02*
X353515Y-8072079D01*
X353515Y-8072079D02*
X363039Y-8110174D01*
X363039Y-8110174D02*
X363039Y-8157793D01*
X363039Y-8157793D02*
X353515Y-8195888D01*
X353515Y-8195888D02*
X343991Y-8214936D01*
X343991Y-8214936D02*
X334467Y-8224460D01*
X334467Y-8224460D02*
X315420Y-8233984D01*
X315420Y-8233984D02*
X296372Y-8233984D01*
X296372Y-8233984D02*
X277324Y-8224460D01*
X277324Y-8224460D02*
X267801Y-8214936D01*
X267801Y-8214936D02*
X258277Y-8195888D01*
X258277Y-8195888D02*
X248753Y-8157793D01*
X248753Y-8157793D02*
X248753Y-8110174D01*
X248753Y-8110174D02*
X258277Y-8072079D01*
X258277Y-8072079D02*
X267801Y-8053031D01*
X267801Y-8053031D02*
X277324Y-8043508D01*
X277324Y-8043508D02*
X296372Y-8033984D01*
X448753Y-8214936D02*
X458277Y-8224460D01*
X458277Y-8224460D02*
X448753Y-8233984D01*
X448753Y-8233984D02*
X439229Y-8224460D01*
X439229Y-8224460D02*
X448753Y-8214936D01*
X448753Y-8214936D02*
X448753Y-8233984D01*
X648753Y-8233984D02*
X534467Y-8233984D01*
X591610Y-8233984D02*
X591610Y-8033984D01*
X591610Y-8033984D02*
X572563Y-8062555D01*
X572563Y-8062555D02*
X553515Y-8081603D01*
X553515Y-8081603D02*
X534467Y-8091127D01*
X829705Y-8033984D02*
X734467Y-8033984D01*
X734467Y-8033984D02*
X724943Y-8129222D01*
X724943Y-8129222D02*
X734467Y-8119698D01*
X734467Y-8119698D02*
X753515Y-8110174D01*
X753515Y-8110174D02*
X801134Y-8110174D01*
X801134Y-8110174D02*
X820182Y-8119698D01*
X820182Y-8119698D02*
X829705Y-8129222D01*
X829705Y-8129222D02*
X839229Y-8148269D01*
X839229Y-8148269D02*
X839229Y-8195888D01*
X839229Y-8195888D02*
X829705Y-8214936D01*
X829705Y-8214936D02*
X820182Y-8224460D01*
X820182Y-8224460D02*
X801134Y-8233984D01*
X801134Y-8233984D02*
X753515Y-8233984D01*
X753515Y-8233984D02*
X734467Y-8224460D01*
X734467Y-8224460D02*
X724943Y-8214936D01*
X963039Y-8033984D02*
X982086Y-8033984D01*
X982086Y-8033984D02*
X1001134Y-8043508D01*
X1001134Y-8043508D02*
X1010658Y-8053031D01*
X1010658Y-8053031D02*
X1020182Y-8072079D01*
X1020182Y-8072079D02*
X1029705Y-8110174D01*
X1029705Y-8110174D02*
X1029705Y-8157793D01*
X1029705Y-8157793D02*
X1020182Y-8195888D01*
X1020182Y-8195888D02*
X1010658Y-8214936D01*
X1010658Y-8214936D02*
X1001134Y-8224460D01*
X1001134Y-8224460D02*
X982086Y-8233984D01*
X982086Y-8233984D02*
X963039Y-8233984D01*
X963039Y-8233984D02*
X943991Y-8224460D01*
X943991Y-8224460D02*
X934467Y-8214936D01*
X934467Y-8214936D02*
X924943Y-8195888D01*
X924943Y-8195888D02*
X915420Y-8157793D01*
X915420Y-8157793D02*
X915420Y-8110174D01*
X915420Y-8110174D02*
X924943Y-8072079D01*
X924943Y-8072079D02*
X934467Y-8053031D01*
X934467Y-8053031D02*
X943991Y-8043508D01*
X943991Y-8043508D02*
X963039Y-8033984D01*
X1115420Y-8233984D02*
X1115420Y-8100650D01*
X1115420Y-8119698D02*
X1124944Y-8110174D01*
X1124944Y-8110174D02*
X1143991Y-8100650D01*
X1143991Y-8100650D02*
X1172563Y-8100650D01*
X1172563Y-8100650D02*
X1191610Y-8110174D01*
X1191610Y-8110174D02*
X1201134Y-8129222D01*
X1201134Y-8129222D02*
X1201134Y-8233984D01*
X1201134Y-8129222D02*
X1210658Y-8110174D01*
X1210658Y-8110174D02*
X1229705Y-8100650D01*
X1229705Y-8100650D02*
X1258277Y-8100650D01*
X1258277Y-8100650D02*
X1277325Y-8110174D01*
X1277325Y-8110174D02*
X1286848Y-8129222D01*
X1286848Y-8129222D02*
X1286848Y-8233984D01*
X1382086Y-8233984D02*
X1382086Y-8100650D01*
X1382086Y-8119698D02*
X1391610Y-8110174D01*
X1391610Y-8110174D02*
X1410658Y-8100650D01*
X1410658Y-8100650D02*
X1439229Y-8100650D01*
X1439229Y-8100650D02*
X1458277Y-8110174D01*
X1458277Y-8110174D02*
X1467801Y-8129222D01*
X1467801Y-8129222D02*
X1467801Y-8233984D01*
X1467801Y-8129222D02*
X1477324Y-8110174D01*
X1477324Y-8110174D02*
X1496372Y-8100650D01*
X1496372Y-8100650D02*
X1524943Y-8100650D01*
X1524943Y-8100650D02*
X1543991Y-8110174D01*
X1543991Y-8110174D02*
X1553515Y-8129222D01*
X1553515Y-8129222D02*
X1553515Y-8233984D01*
X1943991Y-8024460D02*
X1772563Y-8281603D01*
X2201134Y-8033984D02*
X2220182Y-8033984D01*
X2220182Y-8033984D02*
X2239229Y-8043508D01*
X2239229Y-8043508D02*
X2248753Y-8053031D01*
X2248753Y-8053031D02*
X2258277Y-8072079D01*
X2258277Y-8072079D02*
X2267801Y-8110174D01*
X2267801Y-8110174D02*
X2267801Y-8157793D01*
X2267801Y-8157793D02*
X2258277Y-8195888D01*
X2258277Y-8195888D02*
X2248753Y-8214936D01*
X2248753Y-8214936D02*
X2239229Y-8224460D01*
X2239229Y-8224460D02*
X2220182Y-8233984D01*
X2220182Y-8233984D02*
X2201134Y-8233984D01*
X2201134Y-8233984D02*
X2182087Y-8224460D01*
X2182087Y-8224460D02*
X2172563Y-8214936D01*
X2172563Y-8214936D02*
X2163039Y-8195888D01*
X2163039Y-8195888D02*
X2153515Y-8157793D01*
X2153515Y-8157793D02*
X2153515Y-8110174D01*
X2153515Y-8110174D02*
X2163039Y-8072079D01*
X2163039Y-8072079D02*
X2172563Y-8053031D01*
X2172563Y-8053031D02*
X2182087Y-8043508D01*
X2182087Y-8043508D02*
X2201134Y-8033984D01*
X2353515Y-8214936D02*
X2363039Y-8224460D01*
X2363039Y-8224460D02*
X2353515Y-8233984D01*
X2353515Y-8233984D02*
X2343991Y-8224460D01*
X2343991Y-8224460D02*
X2353515Y-8214936D01*
X2353515Y-8214936D02*
X2353515Y-8233984D01*
X2486848Y-8033984D02*
X2505896Y-8033984D01*
X2505896Y-8033984D02*
X2524944Y-8043508D01*
X2524944Y-8043508D02*
X2534468Y-8053031D01*
X2534468Y-8053031D02*
X2543991Y-8072079D01*
X2543991Y-8072079D02*
X2553515Y-8110174D01*
X2553515Y-8110174D02*
X2553515Y-8157793D01*
X2553515Y-8157793D02*
X2543991Y-8195888D01*
X2543991Y-8195888D02*
X2534468Y-8214936D01*
X2534468Y-8214936D02*
X2524944Y-8224460D01*
X2524944Y-8224460D02*
X2505896Y-8233984D01*
X2505896Y-8233984D02*
X2486848Y-8233984D01*
X2486848Y-8233984D02*
X2467801Y-8224460D01*
X2467801Y-8224460D02*
X2458277Y-8214936D01*
X2458277Y-8214936D02*
X2448753Y-8195888D01*
X2448753Y-8195888D02*
X2439229Y-8157793D01*
X2439229Y-8157793D02*
X2439229Y-8110174D01*
X2439229Y-8110174D02*
X2448753Y-8072079D01*
X2448753Y-8072079D02*
X2458277Y-8053031D01*
X2458277Y-8053031D02*
X2467801Y-8043508D01*
X2467801Y-8043508D02*
X2486848Y-8033984D01*
X2677325Y-8033984D02*
X2696372Y-8033984D01*
X2696372Y-8033984D02*
X2715420Y-8043508D01*
X2715420Y-8043508D02*
X2724944Y-8053031D01*
X2724944Y-8053031D02*
X2734468Y-8072079D01*
X2734468Y-8072079D02*
X2743991Y-8110174D01*
X2743991Y-8110174D02*
X2743991Y-8157793D01*
X2743991Y-8157793D02*
X2734468Y-8195888D01*
X2734468Y-8195888D02*
X2724944Y-8214936D01*
X2724944Y-8214936D02*
X2715420Y-8224460D01*
X2715420Y-8224460D02*
X2696372Y-8233984D01*
X2696372Y-8233984D02*
X2677325Y-8233984D01*
X2677325Y-8233984D02*
X2658277Y-8224460D01*
X2658277Y-8224460D02*
X2648753Y-8214936D01*
X2648753Y-8214936D02*
X2639229Y-8195888D01*
X2639229Y-8195888D02*
X2629706Y-8157793D01*
X2629706Y-8157793D02*
X2629706Y-8110174D01*
X2629706Y-8110174D02*
X2639229Y-8072079D01*
X2639229Y-8072079D02*
X2648753Y-8053031D01*
X2648753Y-8053031D02*
X2658277Y-8043508D01*
X2658277Y-8043508D02*
X2677325Y-8033984D01*
X2924944Y-8033984D02*
X2829706Y-8033984D01*
X2829706Y-8033984D02*
X2820182Y-8129222D01*
X2820182Y-8129222D02*
X2829706Y-8119698D01*
X2829706Y-8119698D02*
X2848753Y-8110174D01*
X2848753Y-8110174D02*
X2896372Y-8110174D01*
X2896372Y-8110174D02*
X2915420Y-8119698D01*
X2915420Y-8119698D02*
X2924944Y-8129222D01*
X2924944Y-8129222D02*
X2934467Y-8148269D01*
X2934467Y-8148269D02*
X2934467Y-8195888D01*
X2934467Y-8195888D02*
X2924944Y-8214936D01*
X2924944Y-8214936D02*
X2915420Y-8224460D01*
X2915420Y-8224460D02*
X2896372Y-8233984D01*
X2896372Y-8233984D02*
X2848753Y-8233984D01*
X2848753Y-8233984D02*
X2829706Y-8224460D01*
X2829706Y-8224460D02*
X2820182Y-8214936D01*
X3029706Y-8233984D02*
X3067801Y-8233984D01*
X3067801Y-8233984D02*
X3086848Y-8224460D01*
X3086848Y-8224460D02*
X3096372Y-8214936D01*
X3096372Y-8214936D02*
X3115420Y-8186365D01*
X3115420Y-8186365D02*
X3124944Y-8148269D01*
X3124944Y-8148269D02*
X3124944Y-8072079D01*
X3124944Y-8072079D02*
X3115420Y-8053031D01*
X3115420Y-8053031D02*
X3105896Y-8043508D01*
X3105896Y-8043508D02*
X3086848Y-8033984D01*
X3086848Y-8033984D02*
X3048753Y-8033984D01*
X3048753Y-8033984D02*
X3029706Y-8043508D01*
X3029706Y-8043508D02*
X3020182Y-8053031D01*
X3020182Y-8053031D02*
X3010658Y-8072079D01*
X3010658Y-8072079D02*
X3010658Y-8119698D01*
X3010658Y-8119698D02*
X3020182Y-8138746D01*
X3020182Y-8138746D02*
X3029706Y-8148269D01*
X3029706Y-8148269D02*
X3048753Y-8157793D01*
X3048753Y-8157793D02*
X3086848Y-8157793D01*
X3086848Y-8157793D02*
X3105896Y-8148269D01*
X3105896Y-8148269D02*
X3115420Y-8138746D01*
X3115420Y-8138746D02*
X3124944Y-8119698D01*
X3201134Y-8033984D02*
X3201134Y-8072079D01*
X3277325Y-8033984D02*
X3277325Y-8072079D01*
X3572563Y-8310174D02*
X3563039Y-8300650D01*
X3563039Y-8300650D02*
X3543991Y-8272079D01*
X3543991Y-8272079D02*
X3534468Y-8253031D01*
X3534468Y-8253031D02*
X3524944Y-8224460D01*
X3524944Y-8224460D02*
X3515420Y-8176841D01*
X3515420Y-8176841D02*
X3515420Y-8138746D01*
X3515420Y-8138746D02*
X3524944Y-8091127D01*
X3524944Y-8091127D02*
X3534468Y-8062555D01*
X3534468Y-8062555D02*
X3543991Y-8043508D01*
X3543991Y-8043508D02*
X3563039Y-8014936D01*
X3563039Y-8014936D02*
X3572563Y-8005412D01*
X3743991Y-8033984D02*
X3648753Y-8033984D01*
X3648753Y-8033984D02*
X3639229Y-8129222D01*
X3639229Y-8129222D02*
X3648753Y-8119698D01*
X3648753Y-8119698D02*
X3667801Y-8110174D01*
X3667801Y-8110174D02*
X3715420Y-8110174D01*
X3715420Y-8110174D02*
X3734468Y-8119698D01*
X3734468Y-8119698D02*
X3743991Y-8129222D01*
X3743991Y-8129222D02*
X3753515Y-8148269D01*
X3753515Y-8148269D02*
X3753515Y-8195888D01*
X3753515Y-8195888D02*
X3743991Y-8214936D01*
X3743991Y-8214936D02*
X3734468Y-8224460D01*
X3734468Y-8224460D02*
X3715420Y-8233984D01*
X3715420Y-8233984D02*
X3667801Y-8233984D01*
X3667801Y-8233984D02*
X3648753Y-8224460D01*
X3648753Y-8224460D02*
X3639229Y-8214936D01*
X3991610Y-8233984D02*
X3991610Y-8033984D01*
X4077325Y-8233984D02*
X4077325Y-8129222D01*
X4077325Y-8129222D02*
X4067801Y-8110174D01*
X4067801Y-8110174D02*
X4048753Y-8100650D01*
X4048753Y-8100650D02*
X4020182Y-8100650D01*
X4020182Y-8100650D02*
X4001134Y-8110174D01*
X4001134Y-8110174D02*
X3991610Y-8119698D01*
X4201134Y-8233984D02*
X4182087Y-8224460D01*
X4182087Y-8224460D02*
X4172563Y-8214936D01*
X4172563Y-8214936D02*
X4163039Y-8195888D01*
X4163039Y-8195888D02*
X4163039Y-8138746D01*
X4163039Y-8138746D02*
X4172563Y-8119698D01*
X4172563Y-8119698D02*
X4182087Y-8110174D01*
X4182087Y-8110174D02*
X4201134Y-8100650D01*
X4201134Y-8100650D02*
X4229706Y-8100650D01*
X4229706Y-8100650D02*
X4248753Y-8110174D01*
X4248753Y-8110174D02*
X4258277Y-8119698D01*
X4258277Y-8119698D02*
X4267801Y-8138746D01*
X4267801Y-8138746D02*
X4267801Y-8195888D01*
X4267801Y-8195888D02*
X4258277Y-8214936D01*
X4258277Y-8214936D02*
X4248753Y-8224460D01*
X4248753Y-8224460D02*
X4229706Y-8233984D01*
X4229706Y-8233984D02*
X4201134Y-8233984D01*
X4382087Y-8233984D02*
X4363039Y-8224460D01*
X4363039Y-8224460D02*
X4353515Y-8205412D01*
X4353515Y-8205412D02*
X4353515Y-8033984D01*
X4534468Y-8224460D02*
X4515420Y-8233984D01*
X4515420Y-8233984D02*
X4477325Y-8233984D01*
X4477325Y-8233984D02*
X4458277Y-8224460D01*
X4458277Y-8224460D02*
X4448753Y-8205412D01*
X4448753Y-8205412D02*
X4448753Y-8129222D01*
X4448753Y-8129222D02*
X4458277Y-8110174D01*
X4458277Y-8110174D02*
X4477325Y-8100650D01*
X4477325Y-8100650D02*
X4515420Y-8100650D01*
X4515420Y-8100650D02*
X4534468Y-8110174D01*
X4534468Y-8110174D02*
X4543992Y-8129222D01*
X4543992Y-8129222D02*
X4543992Y-8148269D01*
X4543992Y-8148269D02*
X4448753Y-8167317D01*
X4620182Y-8224460D02*
X4639230Y-8233984D01*
X4639230Y-8233984D02*
X4677325Y-8233984D01*
X4677325Y-8233984D02*
X4696373Y-8224460D01*
X4696373Y-8224460D02*
X4705896Y-8205412D01*
X4705896Y-8205412D02*
X4705896Y-8195888D01*
X4705896Y-8195888D02*
X4696373Y-8176841D01*
X4696373Y-8176841D02*
X4677325Y-8167317D01*
X4677325Y-8167317D02*
X4648753Y-8167317D01*
X4648753Y-8167317D02*
X4629706Y-8157793D01*
X4629706Y-8157793D02*
X4620182Y-8138746D01*
X4620182Y-8138746D02*
X4620182Y-8129222D01*
X4620182Y-8129222D02*
X4629706Y-8110174D01*
X4629706Y-8110174D02*
X4648753Y-8100650D01*
X4648753Y-8100650D02*
X4677325Y-8100650D01*
X4677325Y-8100650D02*
X4696373Y-8110174D01*
X4772563Y-8310174D02*
X4782087Y-8300650D01*
X4782087Y-8300650D02*
X4801134Y-8272079D01*
X4801134Y-8272079D02*
X4810658Y-8253031D01*
X4810658Y-8253031D02*
X4820182Y-8224460D01*
X4820182Y-8224460D02*
X4829706Y-8176841D01*
X4829706Y-8176841D02*
X4829706Y-8138746D01*
X4829706Y-8138746D02*
X4820182Y-8091127D01*
X4820182Y-8091127D02*
X4810658Y-8062555D01*
X4810658Y-8062555D02*
X4801134Y-8043508D01*
X4801134Y-8043508D02*
X4782087Y-8014936D01*
X4782087Y-8014936D02*
X4772563Y-8005412D01*
D12*
X-2500Y-8406500D02*
G75*
G02*
X-22500Y-8406500I-10000J0D01*
G01*
X-22500Y-8406500D02*
G75*
G02*
X-2500Y-8406500I10000J0D01*
G01*
D11*
X296372Y-8297984D02*
X315420Y-8297984D01*
X315420Y-8297984D02*
X334467Y-8307508D01*
X334467Y-8307508D02*
X343991Y-8317031D01*
X343991Y-8317031D02*
X353515Y-8336079D01*
X353515Y-8336079D02*
X363039Y-8374174D01*
X363039Y-8374174D02*
X363039Y-8421793D01*
X363039Y-8421793D02*
X353515Y-8459889D01*
X353515Y-8459889D02*
X343991Y-8478936D01*
X343991Y-8478936D02*
X334467Y-8488460D01*
X334467Y-8488460D02*
X315420Y-8497984D01*
X315420Y-8497984D02*
X296372Y-8497984D01*
X296372Y-8497984D02*
X277324Y-8488460D01*
X277324Y-8488460D02*
X267801Y-8478936D01*
X267801Y-8478936D02*
X258277Y-8459889D01*
X258277Y-8459889D02*
X248753Y-8421793D01*
X248753Y-8421793D02*
X248753Y-8374174D01*
X248753Y-8374174D02*
X258277Y-8336079D01*
X258277Y-8336079D02*
X267801Y-8317031D01*
X267801Y-8317031D02*
X277324Y-8307508D01*
X277324Y-8307508D02*
X296372Y-8297984D01*
X448753Y-8478936D02*
X458277Y-8488460D01*
X458277Y-8488460D02*
X448753Y-8497984D01*
X448753Y-8497984D02*
X439229Y-8488460D01*
X439229Y-8488460D02*
X448753Y-8478936D01*
X448753Y-8478936D02*
X448753Y-8497984D01*
X534467Y-8317031D02*
X543991Y-8307508D01*
X543991Y-8307508D02*
X563039Y-8297984D01*
X563039Y-8297984D02*
X610658Y-8297984D01*
X610658Y-8297984D02*
X629705Y-8307508D01*
X629705Y-8307508D02*
X639229Y-8317031D01*
X639229Y-8317031D02*
X648753Y-8336079D01*
X648753Y-8336079D02*
X648753Y-8355127D01*
X648753Y-8355127D02*
X639229Y-8383698D01*
X639229Y-8383698D02*
X524944Y-8497984D01*
X524944Y-8497984D02*
X648753Y-8497984D01*
X772562Y-8297984D02*
X791610Y-8297984D01*
X791610Y-8297984D02*
X810658Y-8307508D01*
X810658Y-8307508D02*
X820182Y-8317031D01*
X820182Y-8317031D02*
X829705Y-8336079D01*
X829705Y-8336079D02*
X839229Y-8374174D01*
X839229Y-8374174D02*
X839229Y-8421793D01*
X839229Y-8421793D02*
X829705Y-8459889D01*
X829705Y-8459889D02*
X820182Y-8478936D01*
X820182Y-8478936D02*
X810658Y-8488460D01*
X810658Y-8488460D02*
X791610Y-8497984D01*
X791610Y-8497984D02*
X772562Y-8497984D01*
X772562Y-8497984D02*
X753515Y-8488460D01*
X753515Y-8488460D02*
X743991Y-8478936D01*
X743991Y-8478936D02*
X734467Y-8459889D01*
X734467Y-8459889D02*
X724943Y-8421793D01*
X724943Y-8421793D02*
X724943Y-8374174D01*
X724943Y-8374174D02*
X734467Y-8336079D01*
X734467Y-8336079D02*
X743991Y-8317031D01*
X743991Y-8317031D02*
X753515Y-8307508D01*
X753515Y-8307508D02*
X772562Y-8297984D01*
X963039Y-8297984D02*
X982086Y-8297984D01*
X982086Y-8297984D02*
X1001134Y-8307508D01*
X1001134Y-8307508D02*
X1010658Y-8317031D01*
X1010658Y-8317031D02*
X1020182Y-8336079D01*
X1020182Y-8336079D02*
X1029705Y-8374174D01*
X1029705Y-8374174D02*
X1029705Y-8421793D01*
X1029705Y-8421793D02*
X1020182Y-8459889D01*
X1020182Y-8459889D02*
X1010658Y-8478936D01*
X1010658Y-8478936D02*
X1001134Y-8488460D01*
X1001134Y-8488460D02*
X982086Y-8497984D01*
X982086Y-8497984D02*
X963039Y-8497984D01*
X963039Y-8497984D02*
X943991Y-8488460D01*
X943991Y-8488460D02*
X934467Y-8478936D01*
X934467Y-8478936D02*
X924943Y-8459889D01*
X924943Y-8459889D02*
X915420Y-8421793D01*
X915420Y-8421793D02*
X915420Y-8374174D01*
X915420Y-8374174D02*
X924943Y-8336079D01*
X924943Y-8336079D02*
X934467Y-8317031D01*
X934467Y-8317031D02*
X943991Y-8307508D01*
X943991Y-8307508D02*
X963039Y-8297984D01*
X1115420Y-8497984D02*
X1115420Y-8364650D01*
X1115420Y-8383698D02*
X1124944Y-8374174D01*
X1124944Y-8374174D02*
X1143991Y-8364650D01*
X1143991Y-8364650D02*
X1172563Y-8364650D01*
X1172563Y-8364650D02*
X1191610Y-8374174D01*
X1191610Y-8374174D02*
X1201134Y-8393222D01*
X1201134Y-8393222D02*
X1201134Y-8497984D01*
X1201134Y-8393222D02*
X1210658Y-8374174D01*
X1210658Y-8374174D02*
X1229705Y-8364650D01*
X1229705Y-8364650D02*
X1258277Y-8364650D01*
X1258277Y-8364650D02*
X1277325Y-8374174D01*
X1277325Y-8374174D02*
X1286848Y-8393222D01*
X1286848Y-8393222D02*
X1286848Y-8497984D01*
X1382086Y-8497984D02*
X1382086Y-8364650D01*
X1382086Y-8383698D02*
X1391610Y-8374174D01*
X1391610Y-8374174D02*
X1410658Y-8364650D01*
X1410658Y-8364650D02*
X1439229Y-8364650D01*
X1439229Y-8364650D02*
X1458277Y-8374174D01*
X1458277Y-8374174D02*
X1467801Y-8393222D01*
X1467801Y-8393222D02*
X1467801Y-8497984D01*
X1467801Y-8393222D02*
X1477324Y-8374174D01*
X1477324Y-8374174D02*
X1496372Y-8364650D01*
X1496372Y-8364650D02*
X1524943Y-8364650D01*
X1524943Y-8364650D02*
X1543991Y-8374174D01*
X1543991Y-8374174D02*
X1553515Y-8393222D01*
X1553515Y-8393222D02*
X1553515Y-8497984D01*
X1943991Y-8288460D02*
X1772563Y-8545603D01*
X2201134Y-8297984D02*
X2220182Y-8297984D01*
X2220182Y-8297984D02*
X2239229Y-8307508D01*
X2239229Y-8307508D02*
X2248753Y-8317031D01*
X2248753Y-8317031D02*
X2258277Y-8336079D01*
X2258277Y-8336079D02*
X2267801Y-8374174D01*
X2267801Y-8374174D02*
X2267801Y-8421793D01*
X2267801Y-8421793D02*
X2258277Y-8459889D01*
X2258277Y-8459889D02*
X2248753Y-8478936D01*
X2248753Y-8478936D02*
X2239229Y-8488460D01*
X2239229Y-8488460D02*
X2220182Y-8497984D01*
X2220182Y-8497984D02*
X2201134Y-8497984D01*
X2201134Y-8497984D02*
X2182087Y-8488460D01*
X2182087Y-8488460D02*
X2172563Y-8478936D01*
X2172563Y-8478936D02*
X2163039Y-8459889D01*
X2163039Y-8459889D02*
X2153515Y-8421793D01*
X2153515Y-8421793D02*
X2153515Y-8374174D01*
X2153515Y-8374174D02*
X2163039Y-8336079D01*
X2163039Y-8336079D02*
X2172563Y-8317031D01*
X2172563Y-8317031D02*
X2182087Y-8307508D01*
X2182087Y-8307508D02*
X2201134Y-8297984D01*
X2353515Y-8478936D02*
X2363039Y-8488460D01*
X2363039Y-8488460D02*
X2353515Y-8497984D01*
X2353515Y-8497984D02*
X2343991Y-8488460D01*
X2343991Y-8488460D02*
X2353515Y-8478936D01*
X2353515Y-8478936D02*
X2353515Y-8497984D01*
X2486848Y-8297984D02*
X2505896Y-8297984D01*
X2505896Y-8297984D02*
X2524944Y-8307508D01*
X2524944Y-8307508D02*
X2534468Y-8317031D01*
X2534468Y-8317031D02*
X2543991Y-8336079D01*
X2543991Y-8336079D02*
X2553515Y-8374174D01*
X2553515Y-8374174D02*
X2553515Y-8421793D01*
X2553515Y-8421793D02*
X2543991Y-8459889D01*
X2543991Y-8459889D02*
X2534468Y-8478936D01*
X2534468Y-8478936D02*
X2524944Y-8488460D01*
X2524944Y-8488460D02*
X2505896Y-8497984D01*
X2505896Y-8497984D02*
X2486848Y-8497984D01*
X2486848Y-8497984D02*
X2467801Y-8488460D01*
X2467801Y-8488460D02*
X2458277Y-8478936D01*
X2458277Y-8478936D02*
X2448753Y-8459889D01*
X2448753Y-8459889D02*
X2439229Y-8421793D01*
X2439229Y-8421793D02*
X2439229Y-8374174D01*
X2439229Y-8374174D02*
X2448753Y-8336079D01*
X2448753Y-8336079D02*
X2458277Y-8317031D01*
X2458277Y-8317031D02*
X2467801Y-8307508D01*
X2467801Y-8307508D02*
X2486848Y-8297984D01*
X2677325Y-8297984D02*
X2696372Y-8297984D01*
X2696372Y-8297984D02*
X2715420Y-8307508D01*
X2715420Y-8307508D02*
X2724944Y-8317031D01*
X2724944Y-8317031D02*
X2734468Y-8336079D01*
X2734468Y-8336079D02*
X2743991Y-8374174D01*
X2743991Y-8374174D02*
X2743991Y-8421793D01*
X2743991Y-8421793D02*
X2734468Y-8459889D01*
X2734468Y-8459889D02*
X2724944Y-8478936D01*
X2724944Y-8478936D02*
X2715420Y-8488460D01*
X2715420Y-8488460D02*
X2696372Y-8497984D01*
X2696372Y-8497984D02*
X2677325Y-8497984D01*
X2677325Y-8497984D02*
X2658277Y-8488460D01*
X2658277Y-8488460D02*
X2648753Y-8478936D01*
X2648753Y-8478936D02*
X2639229Y-8459889D01*
X2639229Y-8459889D02*
X2629706Y-8421793D01*
X2629706Y-8421793D02*
X2629706Y-8374174D01*
X2629706Y-8374174D02*
X2639229Y-8336079D01*
X2639229Y-8336079D02*
X2648753Y-8317031D01*
X2648753Y-8317031D02*
X2658277Y-8307508D01*
X2658277Y-8307508D02*
X2677325Y-8297984D01*
X2810658Y-8297984D02*
X2943991Y-8297984D01*
X2943991Y-8297984D02*
X2858277Y-8497984D01*
X3029706Y-8497984D02*
X3067801Y-8497984D01*
X3067801Y-8497984D02*
X3086848Y-8488460D01*
X3086848Y-8488460D02*
X3096372Y-8478936D01*
X3096372Y-8478936D02*
X3115420Y-8450365D01*
X3115420Y-8450365D02*
X3124944Y-8412270D01*
X3124944Y-8412270D02*
X3124944Y-8336079D01*
X3124944Y-8336079D02*
X3115420Y-8317031D01*
X3115420Y-8317031D02*
X3105896Y-8307508D01*
X3105896Y-8307508D02*
X3086848Y-8297984D01*
X3086848Y-8297984D02*
X3048753Y-8297984D01*
X3048753Y-8297984D02*
X3029706Y-8307508D01*
X3029706Y-8307508D02*
X3020182Y-8317031D01*
X3020182Y-8317031D02*
X3010658Y-8336079D01*
X3010658Y-8336079D02*
X3010658Y-8383698D01*
X3010658Y-8383698D02*
X3020182Y-8402746D01*
X3020182Y-8402746D02*
X3029706Y-8412270D01*
X3029706Y-8412270D02*
X3048753Y-8421793D01*
X3048753Y-8421793D02*
X3086848Y-8421793D01*
X3086848Y-8421793D02*
X3105896Y-8412270D01*
X3105896Y-8412270D02*
X3115420Y-8402746D01*
X3115420Y-8402746D02*
X3124944Y-8383698D01*
X3201134Y-8297984D02*
X3201134Y-8336079D01*
X3277325Y-8297984D02*
X3277325Y-8336079D01*
X3572563Y-8574174D02*
X3563039Y-8564650D01*
X3563039Y-8564650D02*
X3543991Y-8536079D01*
X3543991Y-8536079D02*
X3534468Y-8517031D01*
X3534468Y-8517031D02*
X3524944Y-8488460D01*
X3524944Y-8488460D02*
X3515420Y-8440841D01*
X3515420Y-8440841D02*
X3515420Y-8402746D01*
X3515420Y-8402746D02*
X3524944Y-8355127D01*
X3524944Y-8355127D02*
X3534468Y-8326555D01*
X3534468Y-8326555D02*
X3543991Y-8307508D01*
X3543991Y-8307508D02*
X3563039Y-8278936D01*
X3563039Y-8278936D02*
X3572563Y-8269412D01*
X3734468Y-8364650D02*
X3734468Y-8497984D01*
X3686848Y-8288460D02*
X3639229Y-8431317D01*
X3639229Y-8431317D02*
X3763039Y-8431317D01*
X3991610Y-8497984D02*
X3991610Y-8297984D01*
X4077325Y-8497984D02*
X4077325Y-8393222D01*
X4077325Y-8393222D02*
X4067801Y-8374174D01*
X4067801Y-8374174D02*
X4048753Y-8364650D01*
X4048753Y-8364650D02*
X4020182Y-8364650D01*
X4020182Y-8364650D02*
X4001134Y-8374174D01*
X4001134Y-8374174D02*
X3991610Y-8383698D01*
X4201134Y-8497984D02*
X4182087Y-8488460D01*
X4182087Y-8488460D02*
X4172563Y-8478936D01*
X4172563Y-8478936D02*
X4163039Y-8459889D01*
X4163039Y-8459889D02*
X4163039Y-8402746D01*
X4163039Y-8402746D02*
X4172563Y-8383698D01*
X4172563Y-8383698D02*
X4182087Y-8374174D01*
X4182087Y-8374174D02*
X4201134Y-8364650D01*
X4201134Y-8364650D02*
X4229706Y-8364650D01*
X4229706Y-8364650D02*
X4248753Y-8374174D01*
X4248753Y-8374174D02*
X4258277Y-8383698D01*
X4258277Y-8383698D02*
X4267801Y-8402746D01*
X4267801Y-8402746D02*
X4267801Y-8459889D01*
X4267801Y-8459889D02*
X4258277Y-8478936D01*
X4258277Y-8478936D02*
X4248753Y-8488460D01*
X4248753Y-8488460D02*
X4229706Y-8497984D01*
X4229706Y-8497984D02*
X4201134Y-8497984D01*
X4382087Y-8497984D02*
X4363039Y-8488460D01*
X4363039Y-8488460D02*
X4353515Y-8469412D01*
X4353515Y-8469412D02*
X4353515Y-8297984D01*
X4534468Y-8488460D02*
X4515420Y-8497984D01*
X4515420Y-8497984D02*
X4477325Y-8497984D01*
X4477325Y-8497984D02*
X4458277Y-8488460D01*
X4458277Y-8488460D02*
X4448753Y-8469412D01*
X4448753Y-8469412D02*
X4448753Y-8393222D01*
X4448753Y-8393222D02*
X4458277Y-8374174D01*
X4458277Y-8374174D02*
X4477325Y-8364650D01*
X4477325Y-8364650D02*
X4515420Y-8364650D01*
X4515420Y-8364650D02*
X4534468Y-8374174D01*
X4534468Y-8374174D02*
X4543992Y-8393222D01*
X4543992Y-8393222D02*
X4543992Y-8412270D01*
X4543992Y-8412270D02*
X4448753Y-8431317D01*
X4620182Y-8488460D02*
X4639230Y-8497984D01*
X4639230Y-8497984D02*
X4677325Y-8497984D01*
X4677325Y-8497984D02*
X4696373Y-8488460D01*
X4696373Y-8488460D02*
X4705896Y-8469412D01*
X4705896Y-8469412D02*
X4705896Y-8459889D01*
X4705896Y-8459889D02*
X4696373Y-8440841D01*
X4696373Y-8440841D02*
X4677325Y-8431317D01*
X4677325Y-8431317D02*
X4648753Y-8431317D01*
X4648753Y-8431317D02*
X4629706Y-8421793D01*
X4629706Y-8421793D02*
X4620182Y-8402746D01*
X4620182Y-8402746D02*
X4620182Y-8393222D01*
X4620182Y-8393222D02*
X4629706Y-8374174D01*
X4629706Y-8374174D02*
X4648753Y-8364650D01*
X4648753Y-8364650D02*
X4677325Y-8364650D01*
X4677325Y-8364650D02*
X4696373Y-8374174D01*
X4772563Y-8574174D02*
X4782087Y-8564650D01*
X4782087Y-8564650D02*
X4801134Y-8536079D01*
X4801134Y-8536079D02*
X4810658Y-8517031D01*
X4810658Y-8517031D02*
X4820182Y-8488460D01*
X4820182Y-8488460D02*
X4829706Y-8440841D01*
X4829706Y-8440841D02*
X4829706Y-8402746D01*
X4829706Y-8402746D02*
X4820182Y-8355127D01*
X4820182Y-8355127D02*
X4810658Y-8326555D01*
X4810658Y-8326555D02*
X4801134Y-8307508D01*
X4801134Y-8307508D02*
X4782087Y-8278936D01*
X4782087Y-8278936D02*
X4772563Y-8269412D01*
D12*
X-15000Y-8658000D02*
X-15000Y-8683000D01*
X-27500Y-8670500D02*
X-2500Y-8670500D01*
D11*
X296372Y-8561984D02*
X315420Y-8561984D01*
X315420Y-8561984D02*
X334467Y-8571508D01*
X334467Y-8571508D02*
X343991Y-8581031D01*
X343991Y-8581031D02*
X353515Y-8600079D01*
X353515Y-8600079D02*
X363039Y-8638174D01*
X363039Y-8638174D02*
X363039Y-8685793D01*
X363039Y-8685793D02*
X353515Y-8723889D01*
X353515Y-8723889D02*
X343991Y-8742936D01*
X343991Y-8742936D02*
X334467Y-8752460D01*
X334467Y-8752460D02*
X315420Y-8761984D01*
X315420Y-8761984D02*
X296372Y-8761984D01*
X296372Y-8761984D02*
X277324Y-8752460D01*
X277324Y-8752460D02*
X267801Y-8742936D01*
X267801Y-8742936D02*
X258277Y-8723889D01*
X258277Y-8723889D02*
X248753Y-8685793D01*
X248753Y-8685793D02*
X248753Y-8638174D01*
X248753Y-8638174D02*
X258277Y-8600079D01*
X258277Y-8600079D02*
X267801Y-8581031D01*
X267801Y-8581031D02*
X277324Y-8571508D01*
X277324Y-8571508D02*
X296372Y-8561984D01*
X448753Y-8742936D02*
X458277Y-8752460D01*
X458277Y-8752460D02*
X448753Y-8761984D01*
X448753Y-8761984D02*
X439229Y-8752460D01*
X439229Y-8752460D02*
X448753Y-8742936D01*
X448753Y-8742936D02*
X448753Y-8761984D01*
X534467Y-8581031D02*
X543991Y-8571508D01*
X543991Y-8571508D02*
X563039Y-8561984D01*
X563039Y-8561984D02*
X610658Y-8561984D01*
X610658Y-8561984D02*
X629705Y-8571508D01*
X629705Y-8571508D02*
X639229Y-8581031D01*
X639229Y-8581031D02*
X648753Y-8600079D01*
X648753Y-8600079D02*
X648753Y-8619127D01*
X648753Y-8619127D02*
X639229Y-8647698D01*
X639229Y-8647698D02*
X524944Y-8761984D01*
X524944Y-8761984D02*
X648753Y-8761984D01*
X829705Y-8561984D02*
X734467Y-8561984D01*
X734467Y-8561984D02*
X724943Y-8657222D01*
X724943Y-8657222D02*
X734467Y-8647698D01*
X734467Y-8647698D02*
X753515Y-8638174D01*
X753515Y-8638174D02*
X801134Y-8638174D01*
X801134Y-8638174D02*
X820182Y-8647698D01*
X820182Y-8647698D02*
X829705Y-8657222D01*
X829705Y-8657222D02*
X839229Y-8676270D01*
X839229Y-8676270D02*
X839229Y-8723889D01*
X839229Y-8723889D02*
X829705Y-8742936D01*
X829705Y-8742936D02*
X820182Y-8752460D01*
X820182Y-8752460D02*
X801134Y-8761984D01*
X801134Y-8761984D02*
X753515Y-8761984D01*
X753515Y-8761984D02*
X734467Y-8752460D01*
X734467Y-8752460D02*
X724943Y-8742936D01*
X963039Y-8561984D02*
X982086Y-8561984D01*
X982086Y-8561984D02*
X1001134Y-8571508D01*
X1001134Y-8571508D02*
X1010658Y-8581031D01*
X1010658Y-8581031D02*
X1020182Y-8600079D01*
X1020182Y-8600079D02*
X1029705Y-8638174D01*
X1029705Y-8638174D02*
X1029705Y-8685793D01*
X1029705Y-8685793D02*
X1020182Y-8723889D01*
X1020182Y-8723889D02*
X1010658Y-8742936D01*
X1010658Y-8742936D02*
X1001134Y-8752460D01*
X1001134Y-8752460D02*
X982086Y-8761984D01*
X982086Y-8761984D02*
X963039Y-8761984D01*
X963039Y-8761984D02*
X943991Y-8752460D01*
X943991Y-8752460D02*
X934467Y-8742936D01*
X934467Y-8742936D02*
X924943Y-8723889D01*
X924943Y-8723889D02*
X915420Y-8685793D01*
X915420Y-8685793D02*
X915420Y-8638174D01*
X915420Y-8638174D02*
X924943Y-8600079D01*
X924943Y-8600079D02*
X934467Y-8581031D01*
X934467Y-8581031D02*
X943991Y-8571508D01*
X943991Y-8571508D02*
X963039Y-8561984D01*
X1115420Y-8761984D02*
X1115420Y-8628650D01*
X1115420Y-8647698D02*
X1124944Y-8638174D01*
X1124944Y-8638174D02*
X1143991Y-8628650D01*
X1143991Y-8628650D02*
X1172563Y-8628650D01*
X1172563Y-8628650D02*
X1191610Y-8638174D01*
X1191610Y-8638174D02*
X1201134Y-8657222D01*
X1201134Y-8657222D02*
X1201134Y-8761984D01*
X1201134Y-8657222D02*
X1210658Y-8638174D01*
X1210658Y-8638174D02*
X1229705Y-8628650D01*
X1229705Y-8628650D02*
X1258277Y-8628650D01*
X1258277Y-8628650D02*
X1277325Y-8638174D01*
X1277325Y-8638174D02*
X1286848Y-8657222D01*
X1286848Y-8657222D02*
X1286848Y-8761984D01*
X1382086Y-8761984D02*
X1382086Y-8628650D01*
X1382086Y-8647698D02*
X1391610Y-8638174D01*
X1391610Y-8638174D02*
X1410658Y-8628650D01*
X1410658Y-8628650D02*
X1439229Y-8628650D01*
X1439229Y-8628650D02*
X1458277Y-8638174D01*
X1458277Y-8638174D02*
X1467801Y-8657222D01*
X1467801Y-8657222D02*
X1467801Y-8761984D01*
X1467801Y-8657222D02*
X1477324Y-8638174D01*
X1477324Y-8638174D02*
X1496372Y-8628650D01*
X1496372Y-8628650D02*
X1524943Y-8628650D01*
X1524943Y-8628650D02*
X1543991Y-8638174D01*
X1543991Y-8638174D02*
X1553515Y-8657222D01*
X1553515Y-8657222D02*
X1553515Y-8761984D01*
X1943991Y-8552460D02*
X1772563Y-8809603D01*
X2201134Y-8561984D02*
X2220182Y-8561984D01*
X2220182Y-8561984D02*
X2239229Y-8571508D01*
X2239229Y-8571508D02*
X2248753Y-8581031D01*
X2248753Y-8581031D02*
X2258277Y-8600079D01*
X2258277Y-8600079D02*
X2267801Y-8638174D01*
X2267801Y-8638174D02*
X2267801Y-8685793D01*
X2267801Y-8685793D02*
X2258277Y-8723889D01*
X2258277Y-8723889D02*
X2248753Y-8742936D01*
X2248753Y-8742936D02*
X2239229Y-8752460D01*
X2239229Y-8752460D02*
X2220182Y-8761984D01*
X2220182Y-8761984D02*
X2201134Y-8761984D01*
X2201134Y-8761984D02*
X2182087Y-8752460D01*
X2182087Y-8752460D02*
X2172563Y-8742936D01*
X2172563Y-8742936D02*
X2163039Y-8723889D01*
X2163039Y-8723889D02*
X2153515Y-8685793D01*
X2153515Y-8685793D02*
X2153515Y-8638174D01*
X2153515Y-8638174D02*
X2163039Y-8600079D01*
X2163039Y-8600079D02*
X2172563Y-8581031D01*
X2172563Y-8581031D02*
X2182087Y-8571508D01*
X2182087Y-8571508D02*
X2201134Y-8561984D01*
X2353515Y-8742936D02*
X2363039Y-8752460D01*
X2363039Y-8752460D02*
X2353515Y-8761984D01*
X2353515Y-8761984D02*
X2343991Y-8752460D01*
X2343991Y-8752460D02*
X2353515Y-8742936D01*
X2353515Y-8742936D02*
X2353515Y-8761984D01*
X2486848Y-8561984D02*
X2505896Y-8561984D01*
X2505896Y-8561984D02*
X2524944Y-8571508D01*
X2524944Y-8571508D02*
X2534468Y-8581031D01*
X2534468Y-8581031D02*
X2543991Y-8600079D01*
X2543991Y-8600079D02*
X2553515Y-8638174D01*
X2553515Y-8638174D02*
X2553515Y-8685793D01*
X2553515Y-8685793D02*
X2543991Y-8723889D01*
X2543991Y-8723889D02*
X2534468Y-8742936D01*
X2534468Y-8742936D02*
X2524944Y-8752460D01*
X2524944Y-8752460D02*
X2505896Y-8761984D01*
X2505896Y-8761984D02*
X2486848Y-8761984D01*
X2486848Y-8761984D02*
X2467801Y-8752460D01*
X2467801Y-8752460D02*
X2458277Y-8742936D01*
X2458277Y-8742936D02*
X2448753Y-8723889D01*
X2448753Y-8723889D02*
X2439229Y-8685793D01*
X2439229Y-8685793D02*
X2439229Y-8638174D01*
X2439229Y-8638174D02*
X2448753Y-8600079D01*
X2448753Y-8600079D02*
X2458277Y-8581031D01*
X2458277Y-8581031D02*
X2467801Y-8571508D01*
X2467801Y-8571508D02*
X2486848Y-8561984D01*
X2677325Y-8561984D02*
X2696372Y-8561984D01*
X2696372Y-8561984D02*
X2715420Y-8571508D01*
X2715420Y-8571508D02*
X2724944Y-8581031D01*
X2724944Y-8581031D02*
X2734468Y-8600079D01*
X2734468Y-8600079D02*
X2743991Y-8638174D01*
X2743991Y-8638174D02*
X2743991Y-8685793D01*
X2743991Y-8685793D02*
X2734468Y-8723889D01*
X2734468Y-8723889D02*
X2724944Y-8742936D01*
X2724944Y-8742936D02*
X2715420Y-8752460D01*
X2715420Y-8752460D02*
X2696372Y-8761984D01*
X2696372Y-8761984D02*
X2677325Y-8761984D01*
X2677325Y-8761984D02*
X2658277Y-8752460D01*
X2658277Y-8752460D02*
X2648753Y-8742936D01*
X2648753Y-8742936D02*
X2639229Y-8723889D01*
X2639229Y-8723889D02*
X2629706Y-8685793D01*
X2629706Y-8685793D02*
X2629706Y-8638174D01*
X2629706Y-8638174D02*
X2639229Y-8600079D01*
X2639229Y-8600079D02*
X2648753Y-8581031D01*
X2648753Y-8581031D02*
X2658277Y-8571508D01*
X2658277Y-8571508D02*
X2677325Y-8561984D01*
X2839229Y-8761984D02*
X2877325Y-8761984D01*
X2877325Y-8761984D02*
X2896372Y-8752460D01*
X2896372Y-8752460D02*
X2905896Y-8742936D01*
X2905896Y-8742936D02*
X2924944Y-8714365D01*
X2924944Y-8714365D02*
X2934467Y-8676270D01*
X2934467Y-8676270D02*
X2934467Y-8600079D01*
X2934467Y-8600079D02*
X2924944Y-8581031D01*
X2924944Y-8581031D02*
X2915420Y-8571508D01*
X2915420Y-8571508D02*
X2896372Y-8561984D01*
X2896372Y-8561984D02*
X2858277Y-8561984D01*
X2858277Y-8561984D02*
X2839229Y-8571508D01*
X2839229Y-8571508D02*
X2829706Y-8581031D01*
X2829706Y-8581031D02*
X2820182Y-8600079D01*
X2820182Y-8600079D02*
X2820182Y-8647698D01*
X2820182Y-8647698D02*
X2829706Y-8666746D01*
X2829706Y-8666746D02*
X2839229Y-8676270D01*
X2839229Y-8676270D02*
X2858277Y-8685793D01*
X2858277Y-8685793D02*
X2896372Y-8685793D01*
X2896372Y-8685793D02*
X2915420Y-8676270D01*
X2915420Y-8676270D02*
X2924944Y-8666746D01*
X2924944Y-8666746D02*
X2934467Y-8647698D01*
X3048753Y-8647698D02*
X3029706Y-8638174D01*
X3029706Y-8638174D02*
X3020182Y-8628650D01*
X3020182Y-8628650D02*
X3010658Y-8609603D01*
X3010658Y-8609603D02*
X3010658Y-8600079D01*
X3010658Y-8600079D02*
X3020182Y-8581031D01*
X3020182Y-8581031D02*
X3029706Y-8571508D01*
X3029706Y-8571508D02*
X3048753Y-8561984D01*
X3048753Y-8561984D02*
X3086848Y-8561984D01*
X3086848Y-8561984D02*
X3105896Y-8571508D01*
X3105896Y-8571508D02*
X3115420Y-8581031D01*
X3115420Y-8581031D02*
X3124944Y-8600079D01*
X3124944Y-8600079D02*
X3124944Y-8609603D01*
X3124944Y-8609603D02*
X3115420Y-8628650D01*
X3115420Y-8628650D02*
X3105896Y-8638174D01*
X3105896Y-8638174D02*
X3086848Y-8647698D01*
X3086848Y-8647698D02*
X3048753Y-8647698D01*
X3048753Y-8647698D02*
X3029706Y-8657222D01*
X3029706Y-8657222D02*
X3020182Y-8666746D01*
X3020182Y-8666746D02*
X3010658Y-8685793D01*
X3010658Y-8685793D02*
X3010658Y-8723889D01*
X3010658Y-8723889D02*
X3020182Y-8742936D01*
X3020182Y-8742936D02*
X3029706Y-8752460D01*
X3029706Y-8752460D02*
X3048753Y-8761984D01*
X3048753Y-8761984D02*
X3086848Y-8761984D01*
X3086848Y-8761984D02*
X3105896Y-8752460D01*
X3105896Y-8752460D02*
X3115420Y-8742936D01*
X3115420Y-8742936D02*
X3124944Y-8723889D01*
X3124944Y-8723889D02*
X3124944Y-8685793D01*
X3124944Y-8685793D02*
X3115420Y-8666746D01*
X3115420Y-8666746D02*
X3105896Y-8657222D01*
X3105896Y-8657222D02*
X3086848Y-8647698D01*
X3201134Y-8561984D02*
X3201134Y-8600079D01*
X3277325Y-8561984D02*
X3277325Y-8600079D01*
X3572563Y-8838174D02*
X3563039Y-8828650D01*
X3563039Y-8828650D02*
X3543991Y-8800079D01*
X3543991Y-8800079D02*
X3534468Y-8781031D01*
X3534468Y-8781031D02*
X3524944Y-8752460D01*
X3524944Y-8752460D02*
X3515420Y-8704841D01*
X3515420Y-8704841D02*
X3515420Y-8666746D01*
X3515420Y-8666746D02*
X3524944Y-8619127D01*
X3524944Y-8619127D02*
X3534468Y-8590555D01*
X3534468Y-8590555D02*
X3543991Y-8571508D01*
X3543991Y-8571508D02*
X3563039Y-8542936D01*
X3563039Y-8542936D02*
X3572563Y-8533412D01*
X3677325Y-8647698D02*
X3658277Y-8638174D01*
X3658277Y-8638174D02*
X3648753Y-8628650D01*
X3648753Y-8628650D02*
X3639229Y-8609603D01*
X3639229Y-8609603D02*
X3639229Y-8600079D01*
X3639229Y-8600079D02*
X3648753Y-8581031D01*
X3648753Y-8581031D02*
X3658277Y-8571508D01*
X3658277Y-8571508D02*
X3677325Y-8561984D01*
X3677325Y-8561984D02*
X3715420Y-8561984D01*
X3715420Y-8561984D02*
X3734468Y-8571508D01*
X3734468Y-8571508D02*
X3743991Y-8581031D01*
X3743991Y-8581031D02*
X3753515Y-8600079D01*
X3753515Y-8600079D02*
X3753515Y-8609603D01*
X3753515Y-8609603D02*
X3743991Y-8628650D01*
X3743991Y-8628650D02*
X3734468Y-8638174D01*
X3734468Y-8638174D02*
X3715420Y-8647698D01*
X3715420Y-8647698D02*
X3677325Y-8647698D01*
X3677325Y-8647698D02*
X3658277Y-8657222D01*
X3658277Y-8657222D02*
X3648753Y-8666746D01*
X3648753Y-8666746D02*
X3639229Y-8685793D01*
X3639229Y-8685793D02*
X3639229Y-8723889D01*
X3639229Y-8723889D02*
X3648753Y-8742936D01*
X3648753Y-8742936D02*
X3658277Y-8752460D01*
X3658277Y-8752460D02*
X3677325Y-8761984D01*
X3677325Y-8761984D02*
X3715420Y-8761984D01*
X3715420Y-8761984D02*
X3734468Y-8752460D01*
X3734468Y-8752460D02*
X3743991Y-8742936D01*
X3743991Y-8742936D02*
X3753515Y-8723889D01*
X3753515Y-8723889D02*
X3753515Y-8685793D01*
X3753515Y-8685793D02*
X3743991Y-8666746D01*
X3743991Y-8666746D02*
X3734468Y-8657222D01*
X3734468Y-8657222D02*
X3715420Y-8647698D01*
X3991610Y-8761984D02*
X3991610Y-8561984D01*
X4077325Y-8761984D02*
X4077325Y-8657222D01*
X4077325Y-8657222D02*
X4067801Y-8638174D01*
X4067801Y-8638174D02*
X4048753Y-8628650D01*
X4048753Y-8628650D02*
X4020182Y-8628650D01*
X4020182Y-8628650D02*
X4001134Y-8638174D01*
X4001134Y-8638174D02*
X3991610Y-8647698D01*
X4201134Y-8761984D02*
X4182087Y-8752460D01*
X4182087Y-8752460D02*
X4172563Y-8742936D01*
X4172563Y-8742936D02*
X4163039Y-8723889D01*
X4163039Y-8723889D02*
X4163039Y-8666746D01*
X4163039Y-8666746D02*
X4172563Y-8647698D01*
X4172563Y-8647698D02*
X4182087Y-8638174D01*
X4182087Y-8638174D02*
X4201134Y-8628650D01*
X4201134Y-8628650D02*
X4229706Y-8628650D01*
X4229706Y-8628650D02*
X4248753Y-8638174D01*
X4248753Y-8638174D02*
X4258277Y-8647698D01*
X4258277Y-8647698D02*
X4267801Y-8666746D01*
X4267801Y-8666746D02*
X4267801Y-8723889D01*
X4267801Y-8723889D02*
X4258277Y-8742936D01*
X4258277Y-8742936D02*
X4248753Y-8752460D01*
X4248753Y-8752460D02*
X4229706Y-8761984D01*
X4229706Y-8761984D02*
X4201134Y-8761984D01*
X4382087Y-8761984D02*
X4363039Y-8752460D01*
X4363039Y-8752460D02*
X4353515Y-8733412D01*
X4353515Y-8733412D02*
X4353515Y-8561984D01*
X4534468Y-8752460D02*
X4515420Y-8761984D01*
X4515420Y-8761984D02*
X4477325Y-8761984D01*
X4477325Y-8761984D02*
X4458277Y-8752460D01*
X4458277Y-8752460D02*
X4448753Y-8733412D01*
X4448753Y-8733412D02*
X4448753Y-8657222D01*
X4448753Y-8657222D02*
X4458277Y-8638174D01*
X4458277Y-8638174D02*
X4477325Y-8628650D01*
X4477325Y-8628650D02*
X4515420Y-8628650D01*
X4515420Y-8628650D02*
X4534468Y-8638174D01*
X4534468Y-8638174D02*
X4543992Y-8657222D01*
X4543992Y-8657222D02*
X4543992Y-8676270D01*
X4543992Y-8676270D02*
X4448753Y-8695317D01*
X4620182Y-8752460D02*
X4639230Y-8761984D01*
X4639230Y-8761984D02*
X4677325Y-8761984D01*
X4677325Y-8761984D02*
X4696373Y-8752460D01*
X4696373Y-8752460D02*
X4705896Y-8733412D01*
X4705896Y-8733412D02*
X4705896Y-8723889D01*
X4705896Y-8723889D02*
X4696373Y-8704841D01*
X4696373Y-8704841D02*
X4677325Y-8695317D01*
X4677325Y-8695317D02*
X4648753Y-8695317D01*
X4648753Y-8695317D02*
X4629706Y-8685793D01*
X4629706Y-8685793D02*
X4620182Y-8666746D01*
X4620182Y-8666746D02*
X4620182Y-8657222D01*
X4620182Y-8657222D02*
X4629706Y-8638174D01*
X4629706Y-8638174D02*
X4648753Y-8628650D01*
X4648753Y-8628650D02*
X4677325Y-8628650D01*
X4677325Y-8628650D02*
X4696373Y-8638174D01*
X4772563Y-8838174D02*
X4782087Y-8828650D01*
X4782087Y-8828650D02*
X4801134Y-8800079D01*
X4801134Y-8800079D02*
X4810658Y-8781031D01*
X4810658Y-8781031D02*
X4820182Y-8752460D01*
X4820182Y-8752460D02*
X4829706Y-8704841D01*
X4829706Y-8704841D02*
X4829706Y-8666746D01*
X4829706Y-8666746D02*
X4820182Y-8619127D01*
X4820182Y-8619127D02*
X4810658Y-8590555D01*
X4810658Y-8590555D02*
X4801134Y-8571508D01*
X4801134Y-8571508D02*
X4782087Y-8542936D01*
X4782087Y-8542936D02*
X4772563Y-8533412D01*
D12*
X-6893Y-8945107D02*
X-6893Y-8923893D01*
X-28107Y-8923893D01*
X-28107Y-8945107D01*
X-6893Y-8945107D01*
D11*
X296372Y-8825984D02*
X315420Y-8825984D01*
X315420Y-8825984D02*
X334467Y-8835508D01*
X334467Y-8835508D02*
X343991Y-8845031D01*
X343991Y-8845031D02*
X353515Y-8864079D01*
X353515Y-8864079D02*
X363039Y-8902174D01*
X363039Y-8902174D02*
X363039Y-8949793D01*
X363039Y-8949793D02*
X353515Y-8987889D01*
X353515Y-8987889D02*
X343991Y-9006936D01*
X343991Y-9006936D02*
X334467Y-9016460D01*
X334467Y-9016460D02*
X315420Y-9025984D01*
X315420Y-9025984D02*
X296372Y-9025984D01*
X296372Y-9025984D02*
X277324Y-9016460D01*
X277324Y-9016460D02*
X267801Y-9006936D01*
X267801Y-9006936D02*
X258277Y-8987889D01*
X258277Y-8987889D02*
X248753Y-8949793D01*
X248753Y-8949793D02*
X248753Y-8902174D01*
X248753Y-8902174D02*
X258277Y-8864079D01*
X258277Y-8864079D02*
X267801Y-8845031D01*
X267801Y-8845031D02*
X277324Y-8835508D01*
X277324Y-8835508D02*
X296372Y-8825984D01*
X448753Y-9006936D02*
X458277Y-9016460D01*
X458277Y-9016460D02*
X448753Y-9025984D01*
X448753Y-9025984D02*
X439229Y-9016460D01*
X439229Y-9016460D02*
X448753Y-9006936D01*
X448753Y-9006936D02*
X448753Y-9025984D01*
X524944Y-8825984D02*
X648753Y-8825984D01*
X648753Y-8825984D02*
X582086Y-8902174D01*
X582086Y-8902174D02*
X610658Y-8902174D01*
X610658Y-8902174D02*
X629705Y-8911698D01*
X629705Y-8911698D02*
X639229Y-8921222D01*
X639229Y-8921222D02*
X648753Y-8940270D01*
X648753Y-8940270D02*
X648753Y-8987889D01*
X648753Y-8987889D02*
X639229Y-9006936D01*
X639229Y-9006936D02*
X629705Y-9016460D01*
X629705Y-9016460D02*
X610658Y-9025984D01*
X610658Y-9025984D02*
X553515Y-9025984D01*
X553515Y-9025984D02*
X534467Y-9016460D01*
X534467Y-9016460D02*
X524944Y-9006936D01*
X772562Y-8825984D02*
X791610Y-8825984D01*
X791610Y-8825984D02*
X810658Y-8835508D01*
X810658Y-8835508D02*
X820182Y-8845031D01*
X820182Y-8845031D02*
X829705Y-8864079D01*
X829705Y-8864079D02*
X839229Y-8902174D01*
X839229Y-8902174D02*
X839229Y-8949793D01*
X839229Y-8949793D02*
X829705Y-8987889D01*
X829705Y-8987889D02*
X820182Y-9006936D01*
X820182Y-9006936D02*
X810658Y-9016460D01*
X810658Y-9016460D02*
X791610Y-9025984D01*
X791610Y-9025984D02*
X772562Y-9025984D01*
X772562Y-9025984D02*
X753515Y-9016460D01*
X753515Y-9016460D02*
X743991Y-9006936D01*
X743991Y-9006936D02*
X734467Y-8987889D01*
X734467Y-8987889D02*
X724943Y-8949793D01*
X724943Y-8949793D02*
X724943Y-8902174D01*
X724943Y-8902174D02*
X734467Y-8864079D01*
X734467Y-8864079D02*
X743991Y-8845031D01*
X743991Y-8845031D02*
X753515Y-8835508D01*
X753515Y-8835508D02*
X772562Y-8825984D01*
X963039Y-8825984D02*
X982086Y-8825984D01*
X982086Y-8825984D02*
X1001134Y-8835508D01*
X1001134Y-8835508D02*
X1010658Y-8845031D01*
X1010658Y-8845031D02*
X1020182Y-8864079D01*
X1020182Y-8864079D02*
X1029705Y-8902174D01*
X1029705Y-8902174D02*
X1029705Y-8949793D01*
X1029705Y-8949793D02*
X1020182Y-8987889D01*
X1020182Y-8987889D02*
X1010658Y-9006936D01*
X1010658Y-9006936D02*
X1001134Y-9016460D01*
X1001134Y-9016460D02*
X982086Y-9025984D01*
X982086Y-9025984D02*
X963039Y-9025984D01*
X963039Y-9025984D02*
X943991Y-9016460D01*
X943991Y-9016460D02*
X934467Y-9006936D01*
X934467Y-9006936D02*
X924943Y-8987889D01*
X924943Y-8987889D02*
X915420Y-8949793D01*
X915420Y-8949793D02*
X915420Y-8902174D01*
X915420Y-8902174D02*
X924943Y-8864079D01*
X924943Y-8864079D02*
X934467Y-8845031D01*
X934467Y-8845031D02*
X943991Y-8835508D01*
X943991Y-8835508D02*
X963039Y-8825984D01*
X1115420Y-9025984D02*
X1115420Y-8892650D01*
X1115420Y-8911698D02*
X1124944Y-8902174D01*
X1124944Y-8902174D02*
X1143991Y-8892650D01*
X1143991Y-8892650D02*
X1172563Y-8892650D01*
X1172563Y-8892650D02*
X1191610Y-8902174D01*
X1191610Y-8902174D02*
X1201134Y-8921222D01*
X1201134Y-8921222D02*
X1201134Y-9025984D01*
X1201134Y-8921222D02*
X1210658Y-8902174D01*
X1210658Y-8902174D02*
X1229705Y-8892650D01*
X1229705Y-8892650D02*
X1258277Y-8892650D01*
X1258277Y-8892650D02*
X1277325Y-8902174D01*
X1277325Y-8902174D02*
X1286848Y-8921222D01*
X1286848Y-8921222D02*
X1286848Y-9025984D01*
X1382086Y-9025984D02*
X1382086Y-8892650D01*
X1382086Y-8911698D02*
X1391610Y-8902174D01*
X1391610Y-8902174D02*
X1410658Y-8892650D01*
X1410658Y-8892650D02*
X1439229Y-8892650D01*
X1439229Y-8892650D02*
X1458277Y-8902174D01*
X1458277Y-8902174D02*
X1467801Y-8921222D01*
X1467801Y-8921222D02*
X1467801Y-9025984D01*
X1467801Y-8921222D02*
X1477324Y-8902174D01*
X1477324Y-8902174D02*
X1496372Y-8892650D01*
X1496372Y-8892650D02*
X1524943Y-8892650D01*
X1524943Y-8892650D02*
X1543991Y-8902174D01*
X1543991Y-8902174D02*
X1553515Y-8921222D01*
X1553515Y-8921222D02*
X1553515Y-9025984D01*
X1943991Y-8816460D02*
X1772563Y-9073603D01*
X2201134Y-8825984D02*
X2220182Y-8825984D01*
X2220182Y-8825984D02*
X2239229Y-8835508D01*
X2239229Y-8835508D02*
X2248753Y-8845031D01*
X2248753Y-8845031D02*
X2258277Y-8864079D01*
X2258277Y-8864079D02*
X2267801Y-8902174D01*
X2267801Y-8902174D02*
X2267801Y-8949793D01*
X2267801Y-8949793D02*
X2258277Y-8987889D01*
X2258277Y-8987889D02*
X2248753Y-9006936D01*
X2248753Y-9006936D02*
X2239229Y-9016460D01*
X2239229Y-9016460D02*
X2220182Y-9025984D01*
X2220182Y-9025984D02*
X2201134Y-9025984D01*
X2201134Y-9025984D02*
X2182087Y-9016460D01*
X2182087Y-9016460D02*
X2172563Y-9006936D01*
X2172563Y-9006936D02*
X2163039Y-8987889D01*
X2163039Y-8987889D02*
X2153515Y-8949793D01*
X2153515Y-8949793D02*
X2153515Y-8902174D01*
X2153515Y-8902174D02*
X2163039Y-8864079D01*
X2163039Y-8864079D02*
X2172563Y-8845031D01*
X2172563Y-8845031D02*
X2182087Y-8835508D01*
X2182087Y-8835508D02*
X2201134Y-8825984D01*
X2353515Y-9006936D02*
X2363039Y-9016460D01*
X2363039Y-9016460D02*
X2353515Y-9025984D01*
X2353515Y-9025984D02*
X2343991Y-9016460D01*
X2343991Y-9016460D02*
X2353515Y-9006936D01*
X2353515Y-9006936D02*
X2353515Y-9025984D01*
X2486848Y-8825984D02*
X2505896Y-8825984D01*
X2505896Y-8825984D02*
X2524944Y-8835508D01*
X2524944Y-8835508D02*
X2534468Y-8845031D01*
X2534468Y-8845031D02*
X2543991Y-8864079D01*
X2543991Y-8864079D02*
X2553515Y-8902174D01*
X2553515Y-8902174D02*
X2553515Y-8949793D01*
X2553515Y-8949793D02*
X2543991Y-8987889D01*
X2543991Y-8987889D02*
X2534468Y-9006936D01*
X2534468Y-9006936D02*
X2524944Y-9016460D01*
X2524944Y-9016460D02*
X2505896Y-9025984D01*
X2505896Y-9025984D02*
X2486848Y-9025984D01*
X2486848Y-9025984D02*
X2467801Y-9016460D01*
X2467801Y-9016460D02*
X2458277Y-9006936D01*
X2458277Y-9006936D02*
X2448753Y-8987889D01*
X2448753Y-8987889D02*
X2439229Y-8949793D01*
X2439229Y-8949793D02*
X2439229Y-8902174D01*
X2439229Y-8902174D02*
X2448753Y-8864079D01*
X2448753Y-8864079D02*
X2458277Y-8845031D01*
X2458277Y-8845031D02*
X2467801Y-8835508D01*
X2467801Y-8835508D02*
X2486848Y-8825984D01*
X2743991Y-9025984D02*
X2629706Y-9025984D01*
X2686848Y-9025984D02*
X2686848Y-8825984D01*
X2686848Y-8825984D02*
X2667801Y-8854555D01*
X2667801Y-8854555D02*
X2648753Y-8873603D01*
X2648753Y-8873603D02*
X2629706Y-8883127D01*
X2934467Y-9025984D02*
X2820182Y-9025984D01*
X2877325Y-9025984D02*
X2877325Y-8825984D01*
X2877325Y-8825984D02*
X2858277Y-8854555D01*
X2858277Y-8854555D02*
X2839229Y-8873603D01*
X2839229Y-8873603D02*
X2820182Y-8883127D01*
X3048753Y-8911698D02*
X3029706Y-8902174D01*
X3029706Y-8902174D02*
X3020182Y-8892650D01*
X3020182Y-8892650D02*
X3010658Y-8873603D01*
X3010658Y-8873603D02*
X3010658Y-8864079D01*
X3010658Y-8864079D02*
X3020182Y-8845031D01*
X3020182Y-8845031D02*
X3029706Y-8835508D01*
X3029706Y-8835508D02*
X3048753Y-8825984D01*
X3048753Y-8825984D02*
X3086848Y-8825984D01*
X3086848Y-8825984D02*
X3105896Y-8835508D01*
X3105896Y-8835508D02*
X3115420Y-8845031D01*
X3115420Y-8845031D02*
X3124944Y-8864079D01*
X3124944Y-8864079D02*
X3124944Y-8873603D01*
X3124944Y-8873603D02*
X3115420Y-8892650D01*
X3115420Y-8892650D02*
X3105896Y-8902174D01*
X3105896Y-8902174D02*
X3086848Y-8911698D01*
X3086848Y-8911698D02*
X3048753Y-8911698D01*
X3048753Y-8911698D02*
X3029706Y-8921222D01*
X3029706Y-8921222D02*
X3020182Y-8930746D01*
X3020182Y-8930746D02*
X3010658Y-8949793D01*
X3010658Y-8949793D02*
X3010658Y-8987889D01*
X3010658Y-8987889D02*
X3020182Y-9006936D01*
X3020182Y-9006936D02*
X3029706Y-9016460D01*
X3029706Y-9016460D02*
X3048753Y-9025984D01*
X3048753Y-9025984D02*
X3086848Y-9025984D01*
X3086848Y-9025984D02*
X3105896Y-9016460D01*
X3105896Y-9016460D02*
X3115420Y-9006936D01*
X3115420Y-9006936D02*
X3124944Y-8987889D01*
X3124944Y-8987889D02*
X3124944Y-8949793D01*
X3124944Y-8949793D02*
X3115420Y-8930746D01*
X3115420Y-8930746D02*
X3105896Y-8921222D01*
X3105896Y-8921222D02*
X3086848Y-8911698D01*
X3201134Y-8825984D02*
X3201134Y-8864079D01*
X3277325Y-8825984D02*
X3277325Y-8864079D01*
X3572563Y-9102174D02*
X3563039Y-9092650D01*
X3563039Y-9092650D02*
X3543991Y-9064079D01*
X3543991Y-9064079D02*
X3534468Y-9045031D01*
X3534468Y-9045031D02*
X3524944Y-9016460D01*
X3524944Y-9016460D02*
X3515420Y-8968841D01*
X3515420Y-8968841D02*
X3515420Y-8930746D01*
X3515420Y-8930746D02*
X3524944Y-8883127D01*
X3524944Y-8883127D02*
X3534468Y-8854555D01*
X3534468Y-8854555D02*
X3543991Y-8835508D01*
X3543991Y-8835508D02*
X3563039Y-8806936D01*
X3563039Y-8806936D02*
X3572563Y-8797412D01*
X3734468Y-8825984D02*
X3696372Y-8825984D01*
X3696372Y-8825984D02*
X3677325Y-8835508D01*
X3677325Y-8835508D02*
X3667801Y-8845031D01*
X3667801Y-8845031D02*
X3648753Y-8873603D01*
X3648753Y-8873603D02*
X3639229Y-8911698D01*
X3639229Y-8911698D02*
X3639229Y-8987889D01*
X3639229Y-8987889D02*
X3648753Y-9006936D01*
X3648753Y-9006936D02*
X3658277Y-9016460D01*
X3658277Y-9016460D02*
X3677325Y-9025984D01*
X3677325Y-9025984D02*
X3715420Y-9025984D01*
X3715420Y-9025984D02*
X3734468Y-9016460D01*
X3734468Y-9016460D02*
X3743991Y-9006936D01*
X3743991Y-9006936D02*
X3753515Y-8987889D01*
X3753515Y-8987889D02*
X3753515Y-8940270D01*
X3753515Y-8940270D02*
X3743991Y-8921222D01*
X3743991Y-8921222D02*
X3734468Y-8911698D01*
X3734468Y-8911698D02*
X3715420Y-8902174D01*
X3715420Y-8902174D02*
X3677325Y-8902174D01*
X3677325Y-8902174D02*
X3658277Y-8911698D01*
X3658277Y-8911698D02*
X3648753Y-8921222D01*
X3648753Y-8921222D02*
X3639229Y-8940270D01*
X3820182Y-8825984D02*
X3953515Y-8825984D01*
X3953515Y-8825984D02*
X3867801Y-9025984D01*
X4182087Y-9025984D02*
X4182087Y-8825984D01*
X4267801Y-9025984D02*
X4267801Y-8921222D01*
X4267801Y-8921222D02*
X4258277Y-8902174D01*
X4258277Y-8902174D02*
X4239230Y-8892650D01*
X4239230Y-8892650D02*
X4210658Y-8892650D01*
X4210658Y-8892650D02*
X4191610Y-8902174D01*
X4191610Y-8902174D02*
X4182087Y-8911698D01*
X4391611Y-9025984D02*
X4372563Y-9016460D01*
X4372563Y-9016460D02*
X4363039Y-9006936D01*
X4363039Y-9006936D02*
X4353515Y-8987889D01*
X4353515Y-8987889D02*
X4353515Y-8930746D01*
X4353515Y-8930746D02*
X4363039Y-8911698D01*
X4363039Y-8911698D02*
X4372563Y-8902174D01*
X4372563Y-8902174D02*
X4391611Y-8892650D01*
X4391611Y-8892650D02*
X4420182Y-8892650D01*
X4420182Y-8892650D02*
X4439230Y-8902174D01*
X4439230Y-8902174D02*
X4448753Y-8911698D01*
X4448753Y-8911698D02*
X4458277Y-8930746D01*
X4458277Y-8930746D02*
X4458277Y-8987889D01*
X4458277Y-8987889D02*
X4448753Y-9006936D01*
X4448753Y-9006936D02*
X4439230Y-9016460D01*
X4439230Y-9016460D02*
X4420182Y-9025984D01*
X4420182Y-9025984D02*
X4391611Y-9025984D01*
X4572563Y-9025984D02*
X4553515Y-9016460D01*
X4553515Y-9016460D02*
X4543992Y-8997412D01*
X4543992Y-8997412D02*
X4543992Y-8825984D01*
X4724944Y-9016460D02*
X4705896Y-9025984D01*
X4705896Y-9025984D02*
X4667801Y-9025984D01*
X4667801Y-9025984D02*
X4648753Y-9016460D01*
X4648753Y-9016460D02*
X4639230Y-8997412D01*
X4639230Y-8997412D02*
X4639230Y-8921222D01*
X4639230Y-8921222D02*
X4648753Y-8902174D01*
X4648753Y-8902174D02*
X4667801Y-8892650D01*
X4667801Y-8892650D02*
X4705896Y-8892650D01*
X4705896Y-8892650D02*
X4724944Y-8902174D01*
X4724944Y-8902174D02*
X4734468Y-8921222D01*
X4734468Y-8921222D02*
X4734468Y-8940270D01*
X4734468Y-8940270D02*
X4639230Y-8959317D01*
X4810658Y-9016460D02*
X4829706Y-9025984D01*
X4829706Y-9025984D02*
X4867801Y-9025984D01*
X4867801Y-9025984D02*
X4886849Y-9016460D01*
X4886849Y-9016460D02*
X4896373Y-8997412D01*
X4896373Y-8997412D02*
X4896373Y-8987889D01*
X4896373Y-8987889D02*
X4886849Y-8968841D01*
X4886849Y-8968841D02*
X4867801Y-8959317D01*
X4867801Y-8959317D02*
X4839230Y-8959317D01*
X4839230Y-8959317D02*
X4820182Y-8949793D01*
X4820182Y-8949793D02*
X4810658Y-8930746D01*
X4810658Y-8930746D02*
X4810658Y-8921222D01*
X4810658Y-8921222D02*
X4820182Y-8902174D01*
X4820182Y-8902174D02*
X4839230Y-8892650D01*
X4839230Y-8892650D02*
X4867801Y-8892650D01*
X4867801Y-8892650D02*
X4886849Y-8902174D01*
X4963039Y-9102174D02*
X4972563Y-9092650D01*
X4972563Y-9092650D02*
X4991611Y-9064079D01*
X4991611Y-9064079D02*
X5001134Y-9045031D01*
X5001134Y-9045031D02*
X5010658Y-9016460D01*
X5010658Y-9016460D02*
X5020182Y-8968841D01*
X5020182Y-8968841D02*
X5020182Y-8930746D01*
X5020182Y-8930746D02*
X5010658Y-8883127D01*
X5010658Y-8883127D02*
X5001134Y-8854555D01*
X5001134Y-8854555D02*
X4991611Y-8835508D01*
X4991611Y-8835508D02*
X4972563Y-8806936D01*
X4972563Y-8806936D02*
X4963039Y-8797412D01*
D12*
X-20000Y-9216000D02*
X-2500Y-9198500D01*
X-20000Y-9181000D01*
X-37500Y-9198500D01*
X-20000Y-9216000D01*
D11*
X296372Y-9089984D02*
X315420Y-9089984D01*
X315420Y-9089984D02*
X334467Y-9099508D01*
X334467Y-9099508D02*
X343991Y-9109031D01*
X343991Y-9109031D02*
X353515Y-9128079D01*
X353515Y-9128079D02*
X363039Y-9166174D01*
X363039Y-9166174D02*
X363039Y-9213793D01*
X363039Y-9213793D02*
X353515Y-9251889D01*
X353515Y-9251889D02*
X343991Y-9270936D01*
X343991Y-9270936D02*
X334467Y-9280460D01*
X334467Y-9280460D02*
X315420Y-9289984D01*
X315420Y-9289984D02*
X296372Y-9289984D01*
X296372Y-9289984D02*
X277324Y-9280460D01*
X277324Y-9280460D02*
X267801Y-9270936D01*
X267801Y-9270936D02*
X258277Y-9251889D01*
X258277Y-9251889D02*
X248753Y-9213793D01*
X248753Y-9213793D02*
X248753Y-9166174D01*
X248753Y-9166174D02*
X258277Y-9128079D01*
X258277Y-9128079D02*
X267801Y-9109031D01*
X267801Y-9109031D02*
X277324Y-9099508D01*
X277324Y-9099508D02*
X296372Y-9089984D01*
X448753Y-9270936D02*
X458277Y-9280460D01*
X458277Y-9280460D02*
X448753Y-9289984D01*
X448753Y-9289984D02*
X439229Y-9280460D01*
X439229Y-9280460D02*
X448753Y-9270936D01*
X448753Y-9270936D02*
X448753Y-9289984D01*
X524944Y-9089984D02*
X648753Y-9089984D01*
X648753Y-9089984D02*
X582086Y-9166174D01*
X582086Y-9166174D02*
X610658Y-9166174D01*
X610658Y-9166174D02*
X629705Y-9175698D01*
X629705Y-9175698D02*
X639229Y-9185222D01*
X639229Y-9185222D02*
X648753Y-9204270D01*
X648753Y-9204270D02*
X648753Y-9251889D01*
X648753Y-9251889D02*
X639229Y-9270936D01*
X639229Y-9270936D02*
X629705Y-9280460D01*
X629705Y-9280460D02*
X610658Y-9289984D01*
X610658Y-9289984D02*
X553515Y-9289984D01*
X553515Y-9289984D02*
X534467Y-9280460D01*
X534467Y-9280460D02*
X524944Y-9270936D01*
X829705Y-9089984D02*
X734467Y-9089984D01*
X734467Y-9089984D02*
X724943Y-9185222D01*
X724943Y-9185222D02*
X734467Y-9175698D01*
X734467Y-9175698D02*
X753515Y-9166174D01*
X753515Y-9166174D02*
X801134Y-9166174D01*
X801134Y-9166174D02*
X820182Y-9175698D01*
X820182Y-9175698D02*
X829705Y-9185222D01*
X829705Y-9185222D02*
X839229Y-9204270D01*
X839229Y-9204270D02*
X839229Y-9251889D01*
X839229Y-9251889D02*
X829705Y-9270936D01*
X829705Y-9270936D02*
X820182Y-9280460D01*
X820182Y-9280460D02*
X801134Y-9289984D01*
X801134Y-9289984D02*
X753515Y-9289984D01*
X753515Y-9289984D02*
X734467Y-9280460D01*
X734467Y-9280460D02*
X724943Y-9270936D01*
X963039Y-9089984D02*
X982086Y-9089984D01*
X982086Y-9089984D02*
X1001134Y-9099508D01*
X1001134Y-9099508D02*
X1010658Y-9109031D01*
X1010658Y-9109031D02*
X1020182Y-9128079D01*
X1020182Y-9128079D02*
X1029705Y-9166174D01*
X1029705Y-9166174D02*
X1029705Y-9213793D01*
X1029705Y-9213793D02*
X1020182Y-9251889D01*
X1020182Y-9251889D02*
X1010658Y-9270936D01*
X1010658Y-9270936D02*
X1001134Y-9280460D01*
X1001134Y-9280460D02*
X982086Y-9289984D01*
X982086Y-9289984D02*
X963039Y-9289984D01*
X963039Y-9289984D02*
X943991Y-9280460D01*
X943991Y-9280460D02*
X934467Y-9270936D01*
X934467Y-9270936D02*
X924943Y-9251889D01*
X924943Y-9251889D02*
X915420Y-9213793D01*
X915420Y-9213793D02*
X915420Y-9166174D01*
X915420Y-9166174D02*
X924943Y-9128079D01*
X924943Y-9128079D02*
X934467Y-9109031D01*
X934467Y-9109031D02*
X943991Y-9099508D01*
X943991Y-9099508D02*
X963039Y-9089984D01*
X1115420Y-9289984D02*
X1115420Y-9156650D01*
X1115420Y-9175698D02*
X1124944Y-9166174D01*
X1124944Y-9166174D02*
X1143991Y-9156650D01*
X1143991Y-9156650D02*
X1172563Y-9156650D01*
X1172563Y-9156650D02*
X1191610Y-9166174D01*
X1191610Y-9166174D02*
X1201134Y-9185222D01*
X1201134Y-9185222D02*
X1201134Y-9289984D01*
X1201134Y-9185222D02*
X1210658Y-9166174D01*
X1210658Y-9166174D02*
X1229705Y-9156650D01*
X1229705Y-9156650D02*
X1258277Y-9156650D01*
X1258277Y-9156650D02*
X1277325Y-9166174D01*
X1277325Y-9166174D02*
X1286848Y-9185222D01*
X1286848Y-9185222D02*
X1286848Y-9289984D01*
X1382086Y-9289984D02*
X1382086Y-9156650D01*
X1382086Y-9175698D02*
X1391610Y-9166174D01*
X1391610Y-9166174D02*
X1410658Y-9156650D01*
X1410658Y-9156650D02*
X1439229Y-9156650D01*
X1439229Y-9156650D02*
X1458277Y-9166174D01*
X1458277Y-9166174D02*
X1467801Y-9185222D01*
X1467801Y-9185222D02*
X1467801Y-9289984D01*
X1467801Y-9185222D02*
X1477324Y-9166174D01*
X1477324Y-9166174D02*
X1496372Y-9156650D01*
X1496372Y-9156650D02*
X1524943Y-9156650D01*
X1524943Y-9156650D02*
X1543991Y-9166174D01*
X1543991Y-9166174D02*
X1553515Y-9185222D01*
X1553515Y-9185222D02*
X1553515Y-9289984D01*
X1943991Y-9080460D02*
X1772563Y-9337603D01*
X2201134Y-9089984D02*
X2220182Y-9089984D01*
X2220182Y-9089984D02*
X2239229Y-9099508D01*
X2239229Y-9099508D02*
X2248753Y-9109031D01*
X2248753Y-9109031D02*
X2258277Y-9128079D01*
X2258277Y-9128079D02*
X2267801Y-9166174D01*
X2267801Y-9166174D02*
X2267801Y-9213793D01*
X2267801Y-9213793D02*
X2258277Y-9251889D01*
X2258277Y-9251889D02*
X2248753Y-9270936D01*
X2248753Y-9270936D02*
X2239229Y-9280460D01*
X2239229Y-9280460D02*
X2220182Y-9289984D01*
X2220182Y-9289984D02*
X2201134Y-9289984D01*
X2201134Y-9289984D02*
X2182087Y-9280460D01*
X2182087Y-9280460D02*
X2172563Y-9270936D01*
X2172563Y-9270936D02*
X2163039Y-9251889D01*
X2163039Y-9251889D02*
X2153515Y-9213793D01*
X2153515Y-9213793D02*
X2153515Y-9166174D01*
X2153515Y-9166174D02*
X2163039Y-9128079D01*
X2163039Y-9128079D02*
X2172563Y-9109031D01*
X2172563Y-9109031D02*
X2182087Y-9099508D01*
X2182087Y-9099508D02*
X2201134Y-9089984D01*
X2353515Y-9270936D02*
X2363039Y-9280460D01*
X2363039Y-9280460D02*
X2353515Y-9289984D01*
X2353515Y-9289984D02*
X2343991Y-9280460D01*
X2343991Y-9280460D02*
X2353515Y-9270936D01*
X2353515Y-9270936D02*
X2353515Y-9289984D01*
X2486848Y-9089984D02*
X2505896Y-9089984D01*
X2505896Y-9089984D02*
X2524944Y-9099508D01*
X2524944Y-9099508D02*
X2534468Y-9109031D01*
X2534468Y-9109031D02*
X2543991Y-9128079D01*
X2543991Y-9128079D02*
X2553515Y-9166174D01*
X2553515Y-9166174D02*
X2553515Y-9213793D01*
X2553515Y-9213793D02*
X2543991Y-9251889D01*
X2543991Y-9251889D02*
X2534468Y-9270936D01*
X2534468Y-9270936D02*
X2524944Y-9280460D01*
X2524944Y-9280460D02*
X2505896Y-9289984D01*
X2505896Y-9289984D02*
X2486848Y-9289984D01*
X2486848Y-9289984D02*
X2467801Y-9280460D01*
X2467801Y-9280460D02*
X2458277Y-9270936D01*
X2458277Y-9270936D02*
X2448753Y-9251889D01*
X2448753Y-9251889D02*
X2439229Y-9213793D01*
X2439229Y-9213793D02*
X2439229Y-9166174D01*
X2439229Y-9166174D02*
X2448753Y-9128079D01*
X2448753Y-9128079D02*
X2458277Y-9109031D01*
X2458277Y-9109031D02*
X2467801Y-9099508D01*
X2467801Y-9099508D02*
X2486848Y-9089984D01*
X2743991Y-9289984D02*
X2629706Y-9289984D01*
X2686848Y-9289984D02*
X2686848Y-9089984D01*
X2686848Y-9089984D02*
X2667801Y-9118555D01*
X2667801Y-9118555D02*
X2648753Y-9137603D01*
X2648753Y-9137603D02*
X2629706Y-9147127D01*
X2810658Y-9089984D02*
X2934467Y-9089984D01*
X2934467Y-9089984D02*
X2867801Y-9166174D01*
X2867801Y-9166174D02*
X2896372Y-9166174D01*
X2896372Y-9166174D02*
X2915420Y-9175698D01*
X2915420Y-9175698D02*
X2924944Y-9185222D01*
X2924944Y-9185222D02*
X2934467Y-9204270D01*
X2934467Y-9204270D02*
X2934467Y-9251889D01*
X2934467Y-9251889D02*
X2924944Y-9270936D01*
X2924944Y-9270936D02*
X2915420Y-9280460D01*
X2915420Y-9280460D02*
X2896372Y-9289984D01*
X2896372Y-9289984D02*
X2839229Y-9289984D01*
X2839229Y-9289984D02*
X2820182Y-9280460D01*
X2820182Y-9280460D02*
X2810658Y-9270936D01*
X3048753Y-9175698D02*
X3029706Y-9166174D01*
X3029706Y-9166174D02*
X3020182Y-9156650D01*
X3020182Y-9156650D02*
X3010658Y-9137603D01*
X3010658Y-9137603D02*
X3010658Y-9128079D01*
X3010658Y-9128079D02*
X3020182Y-9109031D01*
X3020182Y-9109031D02*
X3029706Y-9099508D01*
X3029706Y-9099508D02*
X3048753Y-9089984D01*
X3048753Y-9089984D02*
X3086848Y-9089984D01*
X3086848Y-9089984D02*
X3105896Y-9099508D01*
X3105896Y-9099508D02*
X3115420Y-9109031D01*
X3115420Y-9109031D02*
X3124944Y-9128079D01*
X3124944Y-9128079D02*
X3124944Y-9137603D01*
X3124944Y-9137603D02*
X3115420Y-9156650D01*
X3115420Y-9156650D02*
X3105896Y-9166174D01*
X3105896Y-9166174D02*
X3086848Y-9175698D01*
X3086848Y-9175698D02*
X3048753Y-9175698D01*
X3048753Y-9175698D02*
X3029706Y-9185222D01*
X3029706Y-9185222D02*
X3020182Y-9194746D01*
X3020182Y-9194746D02*
X3010658Y-9213793D01*
X3010658Y-9213793D02*
X3010658Y-9251889D01*
X3010658Y-9251889D02*
X3020182Y-9270936D01*
X3020182Y-9270936D02*
X3029706Y-9280460D01*
X3029706Y-9280460D02*
X3048753Y-9289984D01*
X3048753Y-9289984D02*
X3086848Y-9289984D01*
X3086848Y-9289984D02*
X3105896Y-9280460D01*
X3105896Y-9280460D02*
X3115420Y-9270936D01*
X3115420Y-9270936D02*
X3124944Y-9251889D01*
X3124944Y-9251889D02*
X3124944Y-9213793D01*
X3124944Y-9213793D02*
X3115420Y-9194746D01*
X3115420Y-9194746D02*
X3105896Y-9185222D01*
X3105896Y-9185222D02*
X3086848Y-9175698D01*
X3201134Y-9089984D02*
X3201134Y-9128079D01*
X3277325Y-9089984D02*
X3277325Y-9128079D01*
X3572563Y-9366174D02*
X3563039Y-9356650D01*
X3563039Y-9356650D02*
X3543991Y-9328079D01*
X3543991Y-9328079D02*
X3534468Y-9309031D01*
X3534468Y-9309031D02*
X3524944Y-9280460D01*
X3524944Y-9280460D02*
X3515420Y-9232841D01*
X3515420Y-9232841D02*
X3515420Y-9194746D01*
X3515420Y-9194746D02*
X3524944Y-9147127D01*
X3524944Y-9147127D02*
X3534468Y-9118555D01*
X3534468Y-9118555D02*
X3543991Y-9099508D01*
X3543991Y-9099508D02*
X3563039Y-9070936D01*
X3563039Y-9070936D02*
X3572563Y-9061412D01*
X3753515Y-9289984D02*
X3639229Y-9289984D01*
X3696372Y-9289984D02*
X3696372Y-9089984D01*
X3696372Y-9089984D02*
X3677325Y-9118555D01*
X3677325Y-9118555D02*
X3658277Y-9137603D01*
X3658277Y-9137603D02*
X3639229Y-9147127D01*
X3924944Y-9089984D02*
X3886848Y-9089984D01*
X3886848Y-9089984D02*
X3867801Y-9099508D01*
X3867801Y-9099508D02*
X3858277Y-9109031D01*
X3858277Y-9109031D02*
X3839229Y-9137603D01*
X3839229Y-9137603D02*
X3829706Y-9175698D01*
X3829706Y-9175698D02*
X3829706Y-9251889D01*
X3829706Y-9251889D02*
X3839229Y-9270936D01*
X3839229Y-9270936D02*
X3848753Y-9280460D01*
X3848753Y-9280460D02*
X3867801Y-9289984D01*
X3867801Y-9289984D02*
X3905896Y-9289984D01*
X3905896Y-9289984D02*
X3924944Y-9280460D01*
X3924944Y-9280460D02*
X3934468Y-9270936D01*
X3934468Y-9270936D02*
X3943991Y-9251889D01*
X3943991Y-9251889D02*
X3943991Y-9204270D01*
X3943991Y-9204270D02*
X3934468Y-9185222D01*
X3934468Y-9185222D02*
X3924944Y-9175698D01*
X3924944Y-9175698D02*
X3905896Y-9166174D01*
X3905896Y-9166174D02*
X3867801Y-9166174D01*
X3867801Y-9166174D02*
X3848753Y-9175698D01*
X3848753Y-9175698D02*
X3839229Y-9185222D01*
X3839229Y-9185222D02*
X3829706Y-9204270D01*
X4067801Y-9089984D02*
X4086849Y-9089984D01*
X4086849Y-9089984D02*
X4105896Y-9099508D01*
X4105896Y-9099508D02*
X4115420Y-9109031D01*
X4115420Y-9109031D02*
X4124944Y-9128079D01*
X4124944Y-9128079D02*
X4134468Y-9166174D01*
X4134468Y-9166174D02*
X4134468Y-9213793D01*
X4134468Y-9213793D02*
X4124944Y-9251889D01*
X4124944Y-9251889D02*
X4115420Y-9270936D01*
X4115420Y-9270936D02*
X4105896Y-9280460D01*
X4105896Y-9280460D02*
X4086849Y-9289984D01*
X4086849Y-9289984D02*
X4067801Y-9289984D01*
X4067801Y-9289984D02*
X4048753Y-9280460D01*
X4048753Y-9280460D02*
X4039229Y-9270936D01*
X4039229Y-9270936D02*
X4029706Y-9251889D01*
X4029706Y-9251889D02*
X4020182Y-9213793D01*
X4020182Y-9213793D02*
X4020182Y-9166174D01*
X4020182Y-9166174D02*
X4029706Y-9128079D01*
X4029706Y-9128079D02*
X4039229Y-9109031D01*
X4039229Y-9109031D02*
X4048753Y-9099508D01*
X4048753Y-9099508D02*
X4067801Y-9089984D01*
X4372563Y-9289984D02*
X4372563Y-9089984D01*
X4458277Y-9289984D02*
X4458277Y-9185222D01*
X4458277Y-9185222D02*
X4448753Y-9166174D01*
X4448753Y-9166174D02*
X4429706Y-9156650D01*
X4429706Y-9156650D02*
X4401134Y-9156650D01*
X4401134Y-9156650D02*
X4382087Y-9166174D01*
X4382087Y-9166174D02*
X4372563Y-9175698D01*
X4582087Y-9289984D02*
X4563039Y-9280460D01*
X4563039Y-9280460D02*
X4553515Y-9270936D01*
X4553515Y-9270936D02*
X4543992Y-9251889D01*
X4543992Y-9251889D02*
X4543992Y-9194746D01*
X4543992Y-9194746D02*
X4553515Y-9175698D01*
X4553515Y-9175698D02*
X4563039Y-9166174D01*
X4563039Y-9166174D02*
X4582087Y-9156650D01*
X4582087Y-9156650D02*
X4610658Y-9156650D01*
X4610658Y-9156650D02*
X4629706Y-9166174D01*
X4629706Y-9166174D02*
X4639230Y-9175698D01*
X4639230Y-9175698D02*
X4648753Y-9194746D01*
X4648753Y-9194746D02*
X4648753Y-9251889D01*
X4648753Y-9251889D02*
X4639230Y-9270936D01*
X4639230Y-9270936D02*
X4629706Y-9280460D01*
X4629706Y-9280460D02*
X4610658Y-9289984D01*
X4610658Y-9289984D02*
X4582087Y-9289984D01*
X4763039Y-9289984D02*
X4743992Y-9280460D01*
X4743992Y-9280460D02*
X4734468Y-9261412D01*
X4734468Y-9261412D02*
X4734468Y-9089984D01*
X4915420Y-9280460D02*
X4896373Y-9289984D01*
X4896373Y-9289984D02*
X4858277Y-9289984D01*
X4858277Y-9289984D02*
X4839230Y-9280460D01*
X4839230Y-9280460D02*
X4829706Y-9261412D01*
X4829706Y-9261412D02*
X4829706Y-9185222D01*
X4829706Y-9185222D02*
X4839230Y-9166174D01*
X4839230Y-9166174D02*
X4858277Y-9156650D01*
X4858277Y-9156650D02*
X4896373Y-9156650D01*
X4896373Y-9156650D02*
X4915420Y-9166174D01*
X4915420Y-9166174D02*
X4924944Y-9185222D01*
X4924944Y-9185222D02*
X4924944Y-9204270D01*
X4924944Y-9204270D02*
X4829706Y-9223317D01*
X5001134Y-9280460D02*
X5020182Y-9289984D01*
X5020182Y-9289984D02*
X5058277Y-9289984D01*
X5058277Y-9289984D02*
X5077325Y-9280460D01*
X5077325Y-9280460D02*
X5086849Y-9261412D01*
X5086849Y-9261412D02*
X5086849Y-9251889D01*
X5086849Y-9251889D02*
X5077325Y-9232841D01*
X5077325Y-9232841D02*
X5058277Y-9223317D01*
X5058277Y-9223317D02*
X5029706Y-9223317D01*
X5029706Y-9223317D02*
X5010658Y-9213793D01*
X5010658Y-9213793D02*
X5001134Y-9194746D01*
X5001134Y-9194746D02*
X5001134Y-9185222D01*
X5001134Y-9185222D02*
X5010658Y-9166174D01*
X5010658Y-9166174D02*
X5029706Y-9156650D01*
X5029706Y-9156650D02*
X5058277Y-9156650D01*
X5058277Y-9156650D02*
X5077325Y-9166174D01*
X5153515Y-9366174D02*
X5163039Y-9356650D01*
X5163039Y-9356650D02*
X5182087Y-9328079D01*
X5182087Y-9328079D02*
X5191611Y-9309031D01*
X5191611Y-9309031D02*
X5201134Y-9280460D01*
X5201134Y-9280460D02*
X5210658Y-9232841D01*
X5210658Y-9232841D02*
X5210658Y-9194746D01*
X5210658Y-9194746D02*
X5201134Y-9147127D01*
X5201134Y-9147127D02*
X5191611Y-9118555D01*
X5191611Y-9118555D02*
X5182087Y-9099508D01*
X5182087Y-9099508D02*
X5163039Y-9070936D01*
X5163039Y-9070936D02*
X5153515Y-9061412D01*
D12*
X-62500Y-9432500D02*
X-2500Y-9492500D01*
X-2500Y-9432500D02*
X-62500Y-9492500D01*
X-2500Y-9462500D02*
G75*
G02*
X-62500Y-9462500I-30000J0D01*
G01*
X-62500Y-9462500D02*
G75*
G02*
X-2500Y-9462500I30000J0D01*
G01*
D11*
X296372Y-9353984D02*
X315420Y-9353984D01*
X315420Y-9353984D02*
X334467Y-9363508D01*
X334467Y-9363508D02*
X343991Y-9373031D01*
X343991Y-9373031D02*
X353515Y-9392079D01*
X353515Y-9392079D02*
X363039Y-9430174D01*
X363039Y-9430174D02*
X363039Y-9477793D01*
X363039Y-9477793D02*
X353515Y-9515889D01*
X353515Y-9515889D02*
X343991Y-9534936D01*
X343991Y-9534936D02*
X334467Y-9544460D01*
X334467Y-9544460D02*
X315420Y-9553984D01*
X315420Y-9553984D02*
X296372Y-9553984D01*
X296372Y-9553984D02*
X277324Y-9544460D01*
X277324Y-9544460D02*
X267801Y-9534936D01*
X267801Y-9534936D02*
X258277Y-9515889D01*
X258277Y-9515889D02*
X248753Y-9477793D01*
X248753Y-9477793D02*
X248753Y-9430174D01*
X248753Y-9430174D02*
X258277Y-9392079D01*
X258277Y-9392079D02*
X267801Y-9373031D01*
X267801Y-9373031D02*
X277324Y-9363508D01*
X277324Y-9363508D02*
X296372Y-9353984D01*
X448753Y-9534936D02*
X458277Y-9544460D01*
X458277Y-9544460D02*
X448753Y-9553984D01*
X448753Y-9553984D02*
X439229Y-9544460D01*
X439229Y-9544460D02*
X448753Y-9534936D01*
X448753Y-9534936D02*
X448753Y-9553984D01*
X629705Y-9353984D02*
X591610Y-9353984D01*
X591610Y-9353984D02*
X572563Y-9363508D01*
X572563Y-9363508D02*
X563039Y-9373031D01*
X563039Y-9373031D02*
X543991Y-9401603D01*
X543991Y-9401603D02*
X534467Y-9439698D01*
X534467Y-9439698D02*
X534467Y-9515889D01*
X534467Y-9515889D02*
X543991Y-9534936D01*
X543991Y-9534936D02*
X553515Y-9544460D01*
X553515Y-9544460D02*
X572563Y-9553984D01*
X572563Y-9553984D02*
X610658Y-9553984D01*
X610658Y-9553984D02*
X629705Y-9544460D01*
X629705Y-9544460D02*
X639229Y-9534936D01*
X639229Y-9534936D02*
X648753Y-9515889D01*
X648753Y-9515889D02*
X648753Y-9468270D01*
X648753Y-9468270D02*
X639229Y-9449222D01*
X639229Y-9449222D02*
X629705Y-9439698D01*
X629705Y-9439698D02*
X610658Y-9430174D01*
X610658Y-9430174D02*
X572563Y-9430174D01*
X572563Y-9430174D02*
X553515Y-9439698D01*
X553515Y-9439698D02*
X543991Y-9449222D01*
X543991Y-9449222D02*
X534467Y-9468270D01*
X772562Y-9353984D02*
X791610Y-9353984D01*
X791610Y-9353984D02*
X810658Y-9363508D01*
X810658Y-9363508D02*
X820182Y-9373031D01*
X820182Y-9373031D02*
X829705Y-9392079D01*
X829705Y-9392079D02*
X839229Y-9430174D01*
X839229Y-9430174D02*
X839229Y-9477793D01*
X839229Y-9477793D02*
X829705Y-9515889D01*
X829705Y-9515889D02*
X820182Y-9534936D01*
X820182Y-9534936D02*
X810658Y-9544460D01*
X810658Y-9544460D02*
X791610Y-9553984D01*
X791610Y-9553984D02*
X772562Y-9553984D01*
X772562Y-9553984D02*
X753515Y-9544460D01*
X753515Y-9544460D02*
X743991Y-9534936D01*
X743991Y-9534936D02*
X734467Y-9515889D01*
X734467Y-9515889D02*
X724943Y-9477793D01*
X724943Y-9477793D02*
X724943Y-9430174D01*
X724943Y-9430174D02*
X734467Y-9392079D01*
X734467Y-9392079D02*
X743991Y-9373031D01*
X743991Y-9373031D02*
X753515Y-9363508D01*
X753515Y-9363508D02*
X772562Y-9353984D01*
X963039Y-9353984D02*
X982086Y-9353984D01*
X982086Y-9353984D02*
X1001134Y-9363508D01*
X1001134Y-9363508D02*
X1010658Y-9373031D01*
X1010658Y-9373031D02*
X1020182Y-9392079D01*
X1020182Y-9392079D02*
X1029705Y-9430174D01*
X1029705Y-9430174D02*
X1029705Y-9477793D01*
X1029705Y-9477793D02*
X1020182Y-9515889D01*
X1020182Y-9515889D02*
X1010658Y-9534936D01*
X1010658Y-9534936D02*
X1001134Y-9544460D01*
X1001134Y-9544460D02*
X982086Y-9553984D01*
X982086Y-9553984D02*
X963039Y-9553984D01*
X963039Y-9553984D02*
X943991Y-9544460D01*
X943991Y-9544460D02*
X934467Y-9534936D01*
X934467Y-9534936D02*
X924943Y-9515889D01*
X924943Y-9515889D02*
X915420Y-9477793D01*
X915420Y-9477793D02*
X915420Y-9430174D01*
X915420Y-9430174D02*
X924943Y-9392079D01*
X924943Y-9392079D02*
X934467Y-9373031D01*
X934467Y-9373031D02*
X943991Y-9363508D01*
X943991Y-9363508D02*
X963039Y-9353984D01*
X1115420Y-9553984D02*
X1115420Y-9420650D01*
X1115420Y-9439698D02*
X1124944Y-9430174D01*
X1124944Y-9430174D02*
X1143991Y-9420650D01*
X1143991Y-9420650D02*
X1172563Y-9420650D01*
X1172563Y-9420650D02*
X1191610Y-9430174D01*
X1191610Y-9430174D02*
X1201134Y-9449222D01*
X1201134Y-9449222D02*
X1201134Y-9553984D01*
X1201134Y-9449222D02*
X1210658Y-9430174D01*
X1210658Y-9430174D02*
X1229705Y-9420650D01*
X1229705Y-9420650D02*
X1258277Y-9420650D01*
X1258277Y-9420650D02*
X1277325Y-9430174D01*
X1277325Y-9430174D02*
X1286848Y-9449222D01*
X1286848Y-9449222D02*
X1286848Y-9553984D01*
X1382086Y-9553984D02*
X1382086Y-9420650D01*
X1382086Y-9439698D02*
X1391610Y-9430174D01*
X1391610Y-9430174D02*
X1410658Y-9420650D01*
X1410658Y-9420650D02*
X1439229Y-9420650D01*
X1439229Y-9420650D02*
X1458277Y-9430174D01*
X1458277Y-9430174D02*
X1467801Y-9449222D01*
X1467801Y-9449222D02*
X1467801Y-9553984D01*
X1467801Y-9449222D02*
X1477324Y-9430174D01*
X1477324Y-9430174D02*
X1496372Y-9420650D01*
X1496372Y-9420650D02*
X1524943Y-9420650D01*
X1524943Y-9420650D02*
X1543991Y-9430174D01*
X1543991Y-9430174D02*
X1553515Y-9449222D01*
X1553515Y-9449222D02*
X1553515Y-9553984D01*
X1943991Y-9344460D02*
X1772563Y-9601603D01*
X2201134Y-9353984D02*
X2220182Y-9353984D01*
X2220182Y-9353984D02*
X2239229Y-9363508D01*
X2239229Y-9363508D02*
X2248753Y-9373031D01*
X2248753Y-9373031D02*
X2258277Y-9392079D01*
X2258277Y-9392079D02*
X2267801Y-9430174D01*
X2267801Y-9430174D02*
X2267801Y-9477793D01*
X2267801Y-9477793D02*
X2258277Y-9515889D01*
X2258277Y-9515889D02*
X2248753Y-9534936D01*
X2248753Y-9534936D02*
X2239229Y-9544460D01*
X2239229Y-9544460D02*
X2220182Y-9553984D01*
X2220182Y-9553984D02*
X2201134Y-9553984D01*
X2201134Y-9553984D02*
X2182087Y-9544460D01*
X2182087Y-9544460D02*
X2172563Y-9534936D01*
X2172563Y-9534936D02*
X2163039Y-9515889D01*
X2163039Y-9515889D02*
X2153515Y-9477793D01*
X2153515Y-9477793D02*
X2153515Y-9430174D01*
X2153515Y-9430174D02*
X2163039Y-9392079D01*
X2163039Y-9392079D02*
X2172563Y-9373031D01*
X2172563Y-9373031D02*
X2182087Y-9363508D01*
X2182087Y-9363508D02*
X2201134Y-9353984D01*
X2353515Y-9534936D02*
X2363039Y-9544460D01*
X2363039Y-9544460D02*
X2353515Y-9553984D01*
X2353515Y-9553984D02*
X2343991Y-9544460D01*
X2343991Y-9544460D02*
X2353515Y-9534936D01*
X2353515Y-9534936D02*
X2353515Y-9553984D01*
X2486848Y-9353984D02*
X2505896Y-9353984D01*
X2505896Y-9353984D02*
X2524944Y-9363508D01*
X2524944Y-9363508D02*
X2534468Y-9373031D01*
X2534468Y-9373031D02*
X2543991Y-9392079D01*
X2543991Y-9392079D02*
X2553515Y-9430174D01*
X2553515Y-9430174D02*
X2553515Y-9477793D01*
X2553515Y-9477793D02*
X2543991Y-9515889D01*
X2543991Y-9515889D02*
X2534468Y-9534936D01*
X2534468Y-9534936D02*
X2524944Y-9544460D01*
X2524944Y-9544460D02*
X2505896Y-9553984D01*
X2505896Y-9553984D02*
X2486848Y-9553984D01*
X2486848Y-9553984D02*
X2467801Y-9544460D01*
X2467801Y-9544460D02*
X2458277Y-9534936D01*
X2458277Y-9534936D02*
X2448753Y-9515889D01*
X2448753Y-9515889D02*
X2439229Y-9477793D01*
X2439229Y-9477793D02*
X2439229Y-9430174D01*
X2439229Y-9430174D02*
X2448753Y-9392079D01*
X2448753Y-9392079D02*
X2458277Y-9373031D01*
X2458277Y-9373031D02*
X2467801Y-9363508D01*
X2467801Y-9363508D02*
X2486848Y-9353984D01*
X2629706Y-9373031D02*
X2639229Y-9363508D01*
X2639229Y-9363508D02*
X2658277Y-9353984D01*
X2658277Y-9353984D02*
X2705896Y-9353984D01*
X2705896Y-9353984D02*
X2724944Y-9363508D01*
X2724944Y-9363508D02*
X2734468Y-9373031D01*
X2734468Y-9373031D02*
X2743991Y-9392079D01*
X2743991Y-9392079D02*
X2743991Y-9411127D01*
X2743991Y-9411127D02*
X2734468Y-9439698D01*
X2734468Y-9439698D02*
X2620182Y-9553984D01*
X2620182Y-9553984D02*
X2743991Y-9553984D01*
X2810658Y-9353984D02*
X2934467Y-9353984D01*
X2934467Y-9353984D02*
X2867801Y-9430174D01*
X2867801Y-9430174D02*
X2896372Y-9430174D01*
X2896372Y-9430174D02*
X2915420Y-9439698D01*
X2915420Y-9439698D02*
X2924944Y-9449222D01*
X2924944Y-9449222D02*
X2934467Y-9468270D01*
X2934467Y-9468270D02*
X2934467Y-9515889D01*
X2934467Y-9515889D02*
X2924944Y-9534936D01*
X2924944Y-9534936D02*
X2915420Y-9544460D01*
X2915420Y-9544460D02*
X2896372Y-9553984D01*
X2896372Y-9553984D02*
X2839229Y-9553984D01*
X2839229Y-9553984D02*
X2820182Y-9544460D01*
X2820182Y-9544460D02*
X2810658Y-9534936D01*
X3105896Y-9353984D02*
X3067801Y-9353984D01*
X3067801Y-9353984D02*
X3048753Y-9363508D01*
X3048753Y-9363508D02*
X3039229Y-9373031D01*
X3039229Y-9373031D02*
X3020182Y-9401603D01*
X3020182Y-9401603D02*
X3010658Y-9439698D01*
X3010658Y-9439698D02*
X3010658Y-9515889D01*
X3010658Y-9515889D02*
X3020182Y-9534936D01*
X3020182Y-9534936D02*
X3029706Y-9544460D01*
X3029706Y-9544460D02*
X3048753Y-9553984D01*
X3048753Y-9553984D02*
X3086848Y-9553984D01*
X3086848Y-9553984D02*
X3105896Y-9544460D01*
X3105896Y-9544460D02*
X3115420Y-9534936D01*
X3115420Y-9534936D02*
X3124944Y-9515889D01*
X3124944Y-9515889D02*
X3124944Y-9468270D01*
X3124944Y-9468270D02*
X3115420Y-9449222D01*
X3115420Y-9449222D02*
X3105896Y-9439698D01*
X3105896Y-9439698D02*
X3086848Y-9430174D01*
X3086848Y-9430174D02*
X3048753Y-9430174D01*
X3048753Y-9430174D02*
X3029706Y-9439698D01*
X3029706Y-9439698D02*
X3020182Y-9449222D01*
X3020182Y-9449222D02*
X3010658Y-9468270D01*
X3201134Y-9353984D02*
X3201134Y-9392079D01*
X3277325Y-9353984D02*
X3277325Y-9392079D01*
X3572563Y-9630174D02*
X3563039Y-9620650D01*
X3563039Y-9620650D02*
X3543991Y-9592079D01*
X3543991Y-9592079D02*
X3534468Y-9573031D01*
X3534468Y-9573031D02*
X3524944Y-9544460D01*
X3524944Y-9544460D02*
X3515420Y-9496841D01*
X3515420Y-9496841D02*
X3515420Y-9458746D01*
X3515420Y-9458746D02*
X3524944Y-9411127D01*
X3524944Y-9411127D02*
X3534468Y-9382555D01*
X3534468Y-9382555D02*
X3543991Y-9363508D01*
X3543991Y-9363508D02*
X3563039Y-9334936D01*
X3563039Y-9334936D02*
X3572563Y-9325412D01*
X3734468Y-9420650D02*
X3734468Y-9553984D01*
X3686848Y-9344460D02*
X3639229Y-9487317D01*
X3639229Y-9487317D02*
X3763039Y-9487317D01*
X3991610Y-9553984D02*
X3991610Y-9353984D01*
X4077325Y-9553984D02*
X4077325Y-9449222D01*
X4077325Y-9449222D02*
X4067801Y-9430174D01*
X4067801Y-9430174D02*
X4048753Y-9420650D01*
X4048753Y-9420650D02*
X4020182Y-9420650D01*
X4020182Y-9420650D02*
X4001134Y-9430174D01*
X4001134Y-9430174D02*
X3991610Y-9439698D01*
X4201134Y-9553984D02*
X4182087Y-9544460D01*
X4182087Y-9544460D02*
X4172563Y-9534936D01*
X4172563Y-9534936D02*
X4163039Y-9515889D01*
X4163039Y-9515889D02*
X4163039Y-9458746D01*
X4163039Y-9458746D02*
X4172563Y-9439698D01*
X4172563Y-9439698D02*
X4182087Y-9430174D01*
X4182087Y-9430174D02*
X4201134Y-9420650D01*
X4201134Y-9420650D02*
X4229706Y-9420650D01*
X4229706Y-9420650D02*
X4248753Y-9430174D01*
X4248753Y-9430174D02*
X4258277Y-9439698D01*
X4258277Y-9439698D02*
X4267801Y-9458746D01*
X4267801Y-9458746D02*
X4267801Y-9515889D01*
X4267801Y-9515889D02*
X4258277Y-9534936D01*
X4258277Y-9534936D02*
X4248753Y-9544460D01*
X4248753Y-9544460D02*
X4229706Y-9553984D01*
X4229706Y-9553984D02*
X4201134Y-9553984D01*
X4382087Y-9553984D02*
X4363039Y-9544460D01*
X4363039Y-9544460D02*
X4353515Y-9525412D01*
X4353515Y-9525412D02*
X4353515Y-9353984D01*
X4534468Y-9544460D02*
X4515420Y-9553984D01*
X4515420Y-9553984D02*
X4477325Y-9553984D01*
X4477325Y-9553984D02*
X4458277Y-9544460D01*
X4458277Y-9544460D02*
X4448753Y-9525412D01*
X4448753Y-9525412D02*
X4448753Y-9449222D01*
X4448753Y-9449222D02*
X4458277Y-9430174D01*
X4458277Y-9430174D02*
X4477325Y-9420650D01*
X4477325Y-9420650D02*
X4515420Y-9420650D01*
X4515420Y-9420650D02*
X4534468Y-9430174D01*
X4534468Y-9430174D02*
X4543992Y-9449222D01*
X4543992Y-9449222D02*
X4543992Y-9468270D01*
X4543992Y-9468270D02*
X4448753Y-9487317D01*
X4620182Y-9544460D02*
X4639230Y-9553984D01*
X4639230Y-9553984D02*
X4677325Y-9553984D01*
X4677325Y-9553984D02*
X4696373Y-9544460D01*
X4696373Y-9544460D02*
X4705896Y-9525412D01*
X4705896Y-9525412D02*
X4705896Y-9515889D01*
X4705896Y-9515889D02*
X4696373Y-9496841D01*
X4696373Y-9496841D02*
X4677325Y-9487317D01*
X4677325Y-9487317D02*
X4648753Y-9487317D01*
X4648753Y-9487317D02*
X4629706Y-9477793D01*
X4629706Y-9477793D02*
X4620182Y-9458746D01*
X4620182Y-9458746D02*
X4620182Y-9449222D01*
X4620182Y-9449222D02*
X4629706Y-9430174D01*
X4629706Y-9430174D02*
X4648753Y-9420650D01*
X4648753Y-9420650D02*
X4677325Y-9420650D01*
X4677325Y-9420650D02*
X4696373Y-9430174D01*
X4772563Y-9630174D02*
X4782087Y-9620650D01*
X4782087Y-9620650D02*
X4801134Y-9592079D01*
X4801134Y-9592079D02*
X4810658Y-9573031D01*
X4810658Y-9573031D02*
X4820182Y-9544460D01*
X4820182Y-9544460D02*
X4829706Y-9496841D01*
X4829706Y-9496841D02*
X4829706Y-9458746D01*
X4829706Y-9458746D02*
X4820182Y-9411127D01*
X4820182Y-9411127D02*
X4810658Y-9382555D01*
X4810658Y-9382555D02*
X4801134Y-9363508D01*
X4801134Y-9363508D02*
X4782087Y-9334936D01*
X4782087Y-9334936D02*
X4772563Y-9325412D01*
D12*
X-87500Y-9684000D02*
X-2500Y-9769000D01*
X-2500Y-9684000D02*
X-87500Y-9769000D01*
X-45000Y-9684000D02*
X-45000Y-9769000D01*
X-87500Y-9726500D02*
X-2500Y-9726500D01*
D11*
X296372Y-9617984D02*
X315420Y-9617984D01*
X315420Y-9617984D02*
X334467Y-9627508D01*
X334467Y-9627508D02*
X343991Y-9637031D01*
X343991Y-9637031D02*
X353515Y-9656079D01*
X353515Y-9656079D02*
X363039Y-9694174D01*
X363039Y-9694174D02*
X363039Y-9741793D01*
X363039Y-9741793D02*
X353515Y-9779889D01*
X353515Y-9779889D02*
X343991Y-9798936D01*
X343991Y-9798936D02*
X334467Y-9808460D01*
X334467Y-9808460D02*
X315420Y-9817984D01*
X315420Y-9817984D02*
X296372Y-9817984D01*
X296372Y-9817984D02*
X277324Y-9808460D01*
X277324Y-9808460D02*
X267801Y-9798936D01*
X267801Y-9798936D02*
X258277Y-9779889D01*
X258277Y-9779889D02*
X248753Y-9741793D01*
X248753Y-9741793D02*
X248753Y-9694174D01*
X248753Y-9694174D02*
X258277Y-9656079D01*
X258277Y-9656079D02*
X267801Y-9637031D01*
X267801Y-9637031D02*
X277324Y-9627508D01*
X277324Y-9627508D02*
X296372Y-9617984D01*
X448753Y-9798936D02*
X458277Y-9808460D01*
X458277Y-9808460D02*
X448753Y-9817984D01*
X448753Y-9817984D02*
X439229Y-9808460D01*
X439229Y-9808460D02*
X448753Y-9798936D01*
X448753Y-9798936D02*
X448753Y-9817984D01*
X572563Y-9703698D02*
X553515Y-9694174D01*
X553515Y-9694174D02*
X543991Y-9684650D01*
X543991Y-9684650D02*
X534467Y-9665603D01*
X534467Y-9665603D02*
X534467Y-9656079D01*
X534467Y-9656079D02*
X543991Y-9637031D01*
X543991Y-9637031D02*
X553515Y-9627508D01*
X553515Y-9627508D02*
X572563Y-9617984D01*
X572563Y-9617984D02*
X610658Y-9617984D01*
X610658Y-9617984D02*
X629705Y-9627508D01*
X629705Y-9627508D02*
X639229Y-9637031D01*
X639229Y-9637031D02*
X648753Y-9656079D01*
X648753Y-9656079D02*
X648753Y-9665603D01*
X648753Y-9665603D02*
X639229Y-9684650D01*
X639229Y-9684650D02*
X629705Y-9694174D01*
X629705Y-9694174D02*
X610658Y-9703698D01*
X610658Y-9703698D02*
X572563Y-9703698D01*
X572563Y-9703698D02*
X553515Y-9713222D01*
X553515Y-9713222D02*
X543991Y-9722746D01*
X543991Y-9722746D02*
X534467Y-9741793D01*
X534467Y-9741793D02*
X534467Y-9779889D01*
X534467Y-9779889D02*
X543991Y-9798936D01*
X543991Y-9798936D02*
X553515Y-9808460D01*
X553515Y-9808460D02*
X572563Y-9817984D01*
X572563Y-9817984D02*
X610658Y-9817984D01*
X610658Y-9817984D02*
X629705Y-9808460D01*
X629705Y-9808460D02*
X639229Y-9798936D01*
X639229Y-9798936D02*
X648753Y-9779889D01*
X648753Y-9779889D02*
X648753Y-9741793D01*
X648753Y-9741793D02*
X639229Y-9722746D01*
X639229Y-9722746D02*
X629705Y-9713222D01*
X629705Y-9713222D02*
X610658Y-9703698D01*
X829705Y-9617984D02*
X734467Y-9617984D01*
X734467Y-9617984D02*
X724943Y-9713222D01*
X724943Y-9713222D02*
X734467Y-9703698D01*
X734467Y-9703698D02*
X753515Y-9694174D01*
X753515Y-9694174D02*
X801134Y-9694174D01*
X801134Y-9694174D02*
X820182Y-9703698D01*
X820182Y-9703698D02*
X829705Y-9713222D01*
X829705Y-9713222D02*
X839229Y-9732270D01*
X839229Y-9732270D02*
X839229Y-9779889D01*
X839229Y-9779889D02*
X829705Y-9798936D01*
X829705Y-9798936D02*
X820182Y-9808460D01*
X820182Y-9808460D02*
X801134Y-9817984D01*
X801134Y-9817984D02*
X753515Y-9817984D01*
X753515Y-9817984D02*
X734467Y-9808460D01*
X734467Y-9808460D02*
X724943Y-9798936D01*
X963039Y-9617984D02*
X982086Y-9617984D01*
X982086Y-9617984D02*
X1001134Y-9627508D01*
X1001134Y-9627508D02*
X1010658Y-9637031D01*
X1010658Y-9637031D02*
X1020182Y-9656079D01*
X1020182Y-9656079D02*
X1029705Y-9694174D01*
X1029705Y-9694174D02*
X1029705Y-9741793D01*
X1029705Y-9741793D02*
X1020182Y-9779889D01*
X1020182Y-9779889D02*
X1010658Y-9798936D01*
X1010658Y-9798936D02*
X1001134Y-9808460D01*
X1001134Y-9808460D02*
X982086Y-9817984D01*
X982086Y-9817984D02*
X963039Y-9817984D01*
X963039Y-9817984D02*
X943991Y-9808460D01*
X943991Y-9808460D02*
X934467Y-9798936D01*
X934467Y-9798936D02*
X924943Y-9779889D01*
X924943Y-9779889D02*
X915420Y-9741793D01*
X915420Y-9741793D02*
X915420Y-9694174D01*
X915420Y-9694174D02*
X924943Y-9656079D01*
X924943Y-9656079D02*
X934467Y-9637031D01*
X934467Y-9637031D02*
X943991Y-9627508D01*
X943991Y-9627508D02*
X963039Y-9617984D01*
X1115420Y-9817984D02*
X1115420Y-9684650D01*
X1115420Y-9703698D02*
X1124944Y-9694174D01*
X1124944Y-9694174D02*
X1143991Y-9684650D01*
X1143991Y-9684650D02*
X1172563Y-9684650D01*
X1172563Y-9684650D02*
X1191610Y-9694174D01*
X1191610Y-9694174D02*
X1201134Y-9713222D01*
X1201134Y-9713222D02*
X1201134Y-9817984D01*
X1201134Y-9713222D02*
X1210658Y-9694174D01*
X1210658Y-9694174D02*
X1229705Y-9684650D01*
X1229705Y-9684650D02*
X1258277Y-9684650D01*
X1258277Y-9684650D02*
X1277325Y-9694174D01*
X1277325Y-9694174D02*
X1286848Y-9713222D01*
X1286848Y-9713222D02*
X1286848Y-9817984D01*
X1382086Y-9817984D02*
X1382086Y-9684650D01*
X1382086Y-9703698D02*
X1391610Y-9694174D01*
X1391610Y-9694174D02*
X1410658Y-9684650D01*
X1410658Y-9684650D02*
X1439229Y-9684650D01*
X1439229Y-9684650D02*
X1458277Y-9694174D01*
X1458277Y-9694174D02*
X1467801Y-9713222D01*
X1467801Y-9713222D02*
X1467801Y-9817984D01*
X1467801Y-9713222D02*
X1477324Y-9694174D01*
X1477324Y-9694174D02*
X1496372Y-9684650D01*
X1496372Y-9684650D02*
X1524943Y-9684650D01*
X1524943Y-9684650D02*
X1543991Y-9694174D01*
X1543991Y-9694174D02*
X1553515Y-9713222D01*
X1553515Y-9713222D02*
X1553515Y-9817984D01*
X1943991Y-9608460D02*
X1772563Y-9865603D01*
X2201134Y-9617984D02*
X2220182Y-9617984D01*
X2220182Y-9617984D02*
X2239229Y-9627508D01*
X2239229Y-9627508D02*
X2248753Y-9637031D01*
X2248753Y-9637031D02*
X2258277Y-9656079D01*
X2258277Y-9656079D02*
X2267801Y-9694174D01*
X2267801Y-9694174D02*
X2267801Y-9741793D01*
X2267801Y-9741793D02*
X2258277Y-9779889D01*
X2258277Y-9779889D02*
X2248753Y-9798936D01*
X2248753Y-9798936D02*
X2239229Y-9808460D01*
X2239229Y-9808460D02*
X2220182Y-9817984D01*
X2220182Y-9817984D02*
X2201134Y-9817984D01*
X2201134Y-9817984D02*
X2182087Y-9808460D01*
X2182087Y-9808460D02*
X2172563Y-9798936D01*
X2172563Y-9798936D02*
X2163039Y-9779889D01*
X2163039Y-9779889D02*
X2153515Y-9741793D01*
X2153515Y-9741793D02*
X2153515Y-9694174D01*
X2153515Y-9694174D02*
X2163039Y-9656079D01*
X2163039Y-9656079D02*
X2172563Y-9637031D01*
X2172563Y-9637031D02*
X2182087Y-9627508D01*
X2182087Y-9627508D02*
X2201134Y-9617984D01*
X2353515Y-9798936D02*
X2363039Y-9808460D01*
X2363039Y-9808460D02*
X2353515Y-9817984D01*
X2353515Y-9817984D02*
X2343991Y-9808460D01*
X2343991Y-9808460D02*
X2353515Y-9798936D01*
X2353515Y-9798936D02*
X2353515Y-9817984D01*
X2486848Y-9617984D02*
X2505896Y-9617984D01*
X2505896Y-9617984D02*
X2524944Y-9627508D01*
X2524944Y-9627508D02*
X2534468Y-9637031D01*
X2534468Y-9637031D02*
X2543991Y-9656079D01*
X2543991Y-9656079D02*
X2553515Y-9694174D01*
X2553515Y-9694174D02*
X2553515Y-9741793D01*
X2553515Y-9741793D02*
X2543991Y-9779889D01*
X2543991Y-9779889D02*
X2534468Y-9798936D01*
X2534468Y-9798936D02*
X2524944Y-9808460D01*
X2524944Y-9808460D02*
X2505896Y-9817984D01*
X2505896Y-9817984D02*
X2486848Y-9817984D01*
X2486848Y-9817984D02*
X2467801Y-9808460D01*
X2467801Y-9808460D02*
X2458277Y-9798936D01*
X2458277Y-9798936D02*
X2448753Y-9779889D01*
X2448753Y-9779889D02*
X2439229Y-9741793D01*
X2439229Y-9741793D02*
X2439229Y-9694174D01*
X2439229Y-9694174D02*
X2448753Y-9656079D01*
X2448753Y-9656079D02*
X2458277Y-9637031D01*
X2458277Y-9637031D02*
X2467801Y-9627508D01*
X2467801Y-9627508D02*
X2486848Y-9617984D01*
X2620182Y-9617984D02*
X2743991Y-9617984D01*
X2743991Y-9617984D02*
X2677325Y-9694174D01*
X2677325Y-9694174D02*
X2705896Y-9694174D01*
X2705896Y-9694174D02*
X2724944Y-9703698D01*
X2724944Y-9703698D02*
X2734468Y-9713222D01*
X2734468Y-9713222D02*
X2743991Y-9732270D01*
X2743991Y-9732270D02*
X2743991Y-9779889D01*
X2743991Y-9779889D02*
X2734468Y-9798936D01*
X2734468Y-9798936D02*
X2724944Y-9808460D01*
X2724944Y-9808460D02*
X2705896Y-9817984D01*
X2705896Y-9817984D02*
X2648753Y-9817984D01*
X2648753Y-9817984D02*
X2629706Y-9808460D01*
X2629706Y-9808460D02*
X2620182Y-9798936D01*
X2810658Y-9617984D02*
X2934467Y-9617984D01*
X2934467Y-9617984D02*
X2867801Y-9694174D01*
X2867801Y-9694174D02*
X2896372Y-9694174D01*
X2896372Y-9694174D02*
X2915420Y-9703698D01*
X2915420Y-9703698D02*
X2924944Y-9713222D01*
X2924944Y-9713222D02*
X2934467Y-9732270D01*
X2934467Y-9732270D02*
X2934467Y-9779889D01*
X2934467Y-9779889D02*
X2924944Y-9798936D01*
X2924944Y-9798936D02*
X2915420Y-9808460D01*
X2915420Y-9808460D02*
X2896372Y-9817984D01*
X2896372Y-9817984D02*
X2839229Y-9817984D01*
X2839229Y-9817984D02*
X2820182Y-9808460D01*
X2820182Y-9808460D02*
X2810658Y-9798936D01*
X3115420Y-9617984D02*
X3020182Y-9617984D01*
X3020182Y-9617984D02*
X3010658Y-9713222D01*
X3010658Y-9713222D02*
X3020182Y-9703698D01*
X3020182Y-9703698D02*
X3039229Y-9694174D01*
X3039229Y-9694174D02*
X3086848Y-9694174D01*
X3086848Y-9694174D02*
X3105896Y-9703698D01*
X3105896Y-9703698D02*
X3115420Y-9713222D01*
X3115420Y-9713222D02*
X3124944Y-9732270D01*
X3124944Y-9732270D02*
X3124944Y-9779889D01*
X3124944Y-9779889D02*
X3115420Y-9798936D01*
X3115420Y-9798936D02*
X3105896Y-9808460D01*
X3105896Y-9808460D02*
X3086848Y-9817984D01*
X3086848Y-9817984D02*
X3039229Y-9817984D01*
X3039229Y-9817984D02*
X3020182Y-9808460D01*
X3020182Y-9808460D02*
X3010658Y-9798936D01*
X3201134Y-9617984D02*
X3201134Y-9656079D01*
X3277325Y-9617984D02*
X3277325Y-9656079D01*
X3572563Y-9894174D02*
X3563039Y-9884650D01*
X3563039Y-9884650D02*
X3543991Y-9856079D01*
X3543991Y-9856079D02*
X3534468Y-9837031D01*
X3534468Y-9837031D02*
X3524944Y-9808460D01*
X3524944Y-9808460D02*
X3515420Y-9760841D01*
X3515420Y-9760841D02*
X3515420Y-9722746D01*
X3515420Y-9722746D02*
X3524944Y-9675127D01*
X3524944Y-9675127D02*
X3534468Y-9646555D01*
X3534468Y-9646555D02*
X3543991Y-9627508D01*
X3543991Y-9627508D02*
X3563039Y-9598936D01*
X3563039Y-9598936D02*
X3572563Y-9589412D01*
X3639229Y-9637031D02*
X3648753Y-9627508D01*
X3648753Y-9627508D02*
X3667801Y-9617984D01*
X3667801Y-9617984D02*
X3715420Y-9617984D01*
X3715420Y-9617984D02*
X3734468Y-9627508D01*
X3734468Y-9627508D02*
X3743991Y-9637031D01*
X3743991Y-9637031D02*
X3753515Y-9656079D01*
X3753515Y-9656079D02*
X3753515Y-9675127D01*
X3753515Y-9675127D02*
X3743991Y-9703698D01*
X3743991Y-9703698D02*
X3629706Y-9817984D01*
X3629706Y-9817984D02*
X3753515Y-9817984D01*
X3991610Y-9817984D02*
X3991610Y-9617984D01*
X4077325Y-9817984D02*
X4077325Y-9713222D01*
X4077325Y-9713222D02*
X4067801Y-9694174D01*
X4067801Y-9694174D02*
X4048753Y-9684650D01*
X4048753Y-9684650D02*
X4020182Y-9684650D01*
X4020182Y-9684650D02*
X4001134Y-9694174D01*
X4001134Y-9694174D02*
X3991610Y-9703698D01*
X4201134Y-9817984D02*
X4182087Y-9808460D01*
X4182087Y-9808460D02*
X4172563Y-9798936D01*
X4172563Y-9798936D02*
X4163039Y-9779889D01*
X4163039Y-9779889D02*
X4163039Y-9722746D01*
X4163039Y-9722746D02*
X4172563Y-9703698D01*
X4172563Y-9703698D02*
X4182087Y-9694174D01*
X4182087Y-9694174D02*
X4201134Y-9684650D01*
X4201134Y-9684650D02*
X4229706Y-9684650D01*
X4229706Y-9684650D02*
X4248753Y-9694174D01*
X4248753Y-9694174D02*
X4258277Y-9703698D01*
X4258277Y-9703698D02*
X4267801Y-9722746D01*
X4267801Y-9722746D02*
X4267801Y-9779889D01*
X4267801Y-9779889D02*
X4258277Y-9798936D01*
X4258277Y-9798936D02*
X4248753Y-9808460D01*
X4248753Y-9808460D02*
X4229706Y-9817984D01*
X4229706Y-9817984D02*
X4201134Y-9817984D01*
X4382087Y-9817984D02*
X4363039Y-9808460D01*
X4363039Y-9808460D02*
X4353515Y-9789412D01*
X4353515Y-9789412D02*
X4353515Y-9617984D01*
X4534468Y-9808460D02*
X4515420Y-9817984D01*
X4515420Y-9817984D02*
X4477325Y-9817984D01*
X4477325Y-9817984D02*
X4458277Y-9808460D01*
X4458277Y-9808460D02*
X4448753Y-9789412D01*
X4448753Y-9789412D02*
X4448753Y-9713222D01*
X4448753Y-9713222D02*
X4458277Y-9694174D01*
X4458277Y-9694174D02*
X4477325Y-9684650D01*
X4477325Y-9684650D02*
X4515420Y-9684650D01*
X4515420Y-9684650D02*
X4534468Y-9694174D01*
X4534468Y-9694174D02*
X4543992Y-9713222D01*
X4543992Y-9713222D02*
X4543992Y-9732270D01*
X4543992Y-9732270D02*
X4448753Y-9751317D01*
X4620182Y-9808460D02*
X4639230Y-9817984D01*
X4639230Y-9817984D02*
X4677325Y-9817984D01*
X4677325Y-9817984D02*
X4696373Y-9808460D01*
X4696373Y-9808460D02*
X4705896Y-9789412D01*
X4705896Y-9789412D02*
X4705896Y-9779889D01*
X4705896Y-9779889D02*
X4696373Y-9760841D01*
X4696373Y-9760841D02*
X4677325Y-9751317D01*
X4677325Y-9751317D02*
X4648753Y-9751317D01*
X4648753Y-9751317D02*
X4629706Y-9741793D01*
X4629706Y-9741793D02*
X4620182Y-9722746D01*
X4620182Y-9722746D02*
X4620182Y-9713222D01*
X4620182Y-9713222D02*
X4629706Y-9694174D01*
X4629706Y-9694174D02*
X4648753Y-9684650D01*
X4648753Y-9684650D02*
X4677325Y-9684650D01*
X4677325Y-9684650D02*
X4696373Y-9694174D01*
X4772563Y-9894174D02*
X4782087Y-9884650D01*
X4782087Y-9884650D02*
X4801134Y-9856079D01*
X4801134Y-9856079D02*
X4810658Y-9837031D01*
X4810658Y-9837031D02*
X4820182Y-9808460D01*
X4820182Y-9808460D02*
X4829706Y-9760841D01*
X4829706Y-9760841D02*
X4829706Y-9722746D01*
X4829706Y-9722746D02*
X4820182Y-9675127D01*
X4820182Y-9675127D02*
X4810658Y-9646555D01*
X4810658Y-9646555D02*
X4801134Y-9627508D01*
X4801134Y-9627508D02*
X4782087Y-9598936D01*
X4782087Y-9598936D02*
X4772563Y-9589412D01*
D12*
X-37500Y-9973000D02*
X-2500Y-10008000D01*
X-2500Y-9973000D02*
X-37500Y-10008000D01*
X-7625Y-10002875D02*
X-7625Y-9978126D01*
X-32374Y-9978126D01*
X-32374Y-10002875D01*
X-7625Y-10002875D01*
D11*
X296372Y-9881984D02*
X315420Y-9881984D01*
X315420Y-9881984D02*
X334467Y-9891508D01*
X334467Y-9891508D02*
X343991Y-9901031D01*
X343991Y-9901031D02*
X353515Y-9920079D01*
X353515Y-9920079D02*
X363039Y-9958174D01*
X363039Y-9958174D02*
X363039Y-10005793D01*
X363039Y-10005793D02*
X353515Y-10043889D01*
X353515Y-10043889D02*
X343991Y-10062936D01*
X343991Y-10062936D02*
X334467Y-10072460D01*
X334467Y-10072460D02*
X315420Y-10081984D01*
X315420Y-10081984D02*
X296372Y-10081984D01*
X296372Y-10081984D02*
X277324Y-10072460D01*
X277324Y-10072460D02*
X267801Y-10062936D01*
X267801Y-10062936D02*
X258277Y-10043889D01*
X258277Y-10043889D02*
X248753Y-10005793D01*
X248753Y-10005793D02*
X248753Y-9958174D01*
X248753Y-9958174D02*
X258277Y-9920079D01*
X258277Y-9920079D02*
X267801Y-9901031D01*
X267801Y-9901031D02*
X277324Y-9891508D01*
X277324Y-9891508D02*
X296372Y-9881984D01*
X448753Y-10062936D02*
X458277Y-10072460D01*
X458277Y-10072460D02*
X448753Y-10081984D01*
X448753Y-10081984D02*
X439229Y-10072460D01*
X439229Y-10072460D02*
X448753Y-10062936D01*
X448753Y-10062936D02*
X448753Y-10081984D01*
X524944Y-9881984D02*
X648753Y-9881984D01*
X648753Y-9881984D02*
X582086Y-9958174D01*
X582086Y-9958174D02*
X610658Y-9958174D01*
X610658Y-9958174D02*
X629705Y-9967698D01*
X629705Y-9967698D02*
X639229Y-9977222D01*
X639229Y-9977222D02*
X648753Y-9996270D01*
X648753Y-9996270D02*
X648753Y-10043889D01*
X648753Y-10043889D02*
X639229Y-10062936D01*
X639229Y-10062936D02*
X629705Y-10072460D01*
X629705Y-10072460D02*
X610658Y-10081984D01*
X610658Y-10081984D02*
X553515Y-10081984D01*
X553515Y-10081984D02*
X534467Y-10072460D01*
X534467Y-10072460D02*
X524944Y-10062936D01*
X829705Y-9881984D02*
X734467Y-9881984D01*
X734467Y-9881984D02*
X724943Y-9977222D01*
X724943Y-9977222D02*
X734467Y-9967698D01*
X734467Y-9967698D02*
X753515Y-9958174D01*
X753515Y-9958174D02*
X801134Y-9958174D01*
X801134Y-9958174D02*
X820182Y-9967698D01*
X820182Y-9967698D02*
X829705Y-9977222D01*
X829705Y-9977222D02*
X839229Y-9996270D01*
X839229Y-9996270D02*
X839229Y-10043889D01*
X839229Y-10043889D02*
X829705Y-10062936D01*
X829705Y-10062936D02*
X820182Y-10072460D01*
X820182Y-10072460D02*
X801134Y-10081984D01*
X801134Y-10081984D02*
X753515Y-10081984D01*
X753515Y-10081984D02*
X734467Y-10072460D01*
X734467Y-10072460D02*
X724943Y-10062936D01*
X963039Y-9881984D02*
X982086Y-9881984D01*
X982086Y-9881984D02*
X1001134Y-9891508D01*
X1001134Y-9891508D02*
X1010658Y-9901031D01*
X1010658Y-9901031D02*
X1020182Y-9920079D01*
X1020182Y-9920079D02*
X1029705Y-9958174D01*
X1029705Y-9958174D02*
X1029705Y-10005793D01*
X1029705Y-10005793D02*
X1020182Y-10043889D01*
X1020182Y-10043889D02*
X1010658Y-10062936D01*
X1010658Y-10062936D02*
X1001134Y-10072460D01*
X1001134Y-10072460D02*
X982086Y-10081984D01*
X982086Y-10081984D02*
X963039Y-10081984D01*
X963039Y-10081984D02*
X943991Y-10072460D01*
X943991Y-10072460D02*
X934467Y-10062936D01*
X934467Y-10062936D02*
X924943Y-10043889D01*
X924943Y-10043889D02*
X915420Y-10005793D01*
X915420Y-10005793D02*
X915420Y-9958174D01*
X915420Y-9958174D02*
X924943Y-9920079D01*
X924943Y-9920079D02*
X934467Y-9901031D01*
X934467Y-9901031D02*
X943991Y-9891508D01*
X943991Y-9891508D02*
X963039Y-9881984D01*
X1115420Y-10081984D02*
X1115420Y-9948650D01*
X1115420Y-9967698D02*
X1124944Y-9958174D01*
X1124944Y-9958174D02*
X1143991Y-9948650D01*
X1143991Y-9948650D02*
X1172563Y-9948650D01*
X1172563Y-9948650D02*
X1191610Y-9958174D01*
X1191610Y-9958174D02*
X1201134Y-9977222D01*
X1201134Y-9977222D02*
X1201134Y-10081984D01*
X1201134Y-9977222D02*
X1210658Y-9958174D01*
X1210658Y-9958174D02*
X1229705Y-9948650D01*
X1229705Y-9948650D02*
X1258277Y-9948650D01*
X1258277Y-9948650D02*
X1277325Y-9958174D01*
X1277325Y-9958174D02*
X1286848Y-9977222D01*
X1286848Y-9977222D02*
X1286848Y-10081984D01*
X1382086Y-10081984D02*
X1382086Y-9948650D01*
X1382086Y-9967698D02*
X1391610Y-9958174D01*
X1391610Y-9958174D02*
X1410658Y-9948650D01*
X1410658Y-9948650D02*
X1439229Y-9948650D01*
X1439229Y-9948650D02*
X1458277Y-9958174D01*
X1458277Y-9958174D02*
X1467801Y-9977222D01*
X1467801Y-9977222D02*
X1467801Y-10081984D01*
X1467801Y-9977222D02*
X1477324Y-9958174D01*
X1477324Y-9958174D02*
X1496372Y-9948650D01*
X1496372Y-9948650D02*
X1524943Y-9948650D01*
X1524943Y-9948650D02*
X1543991Y-9958174D01*
X1543991Y-9958174D02*
X1553515Y-9977222D01*
X1553515Y-9977222D02*
X1553515Y-10081984D01*
X1943991Y-9872460D02*
X1772563Y-10129603D01*
X2201134Y-9881984D02*
X2220182Y-9881984D01*
X2220182Y-9881984D02*
X2239229Y-9891508D01*
X2239229Y-9891508D02*
X2248753Y-9901031D01*
X2248753Y-9901031D02*
X2258277Y-9920079D01*
X2258277Y-9920079D02*
X2267801Y-9958174D01*
X2267801Y-9958174D02*
X2267801Y-10005793D01*
X2267801Y-10005793D02*
X2258277Y-10043889D01*
X2258277Y-10043889D02*
X2248753Y-10062936D01*
X2248753Y-10062936D02*
X2239229Y-10072460D01*
X2239229Y-10072460D02*
X2220182Y-10081984D01*
X2220182Y-10081984D02*
X2201134Y-10081984D01*
X2201134Y-10081984D02*
X2182087Y-10072460D01*
X2182087Y-10072460D02*
X2172563Y-10062936D01*
X2172563Y-10062936D02*
X2163039Y-10043889D01*
X2163039Y-10043889D02*
X2153515Y-10005793D01*
X2153515Y-10005793D02*
X2153515Y-9958174D01*
X2153515Y-9958174D02*
X2163039Y-9920079D01*
X2163039Y-9920079D02*
X2172563Y-9901031D01*
X2172563Y-9901031D02*
X2182087Y-9891508D01*
X2182087Y-9891508D02*
X2201134Y-9881984D01*
X2353515Y-10062936D02*
X2363039Y-10072460D01*
X2363039Y-10072460D02*
X2353515Y-10081984D01*
X2353515Y-10081984D02*
X2343991Y-10072460D01*
X2343991Y-10072460D02*
X2353515Y-10062936D01*
X2353515Y-10062936D02*
X2353515Y-10081984D01*
X2486848Y-9881984D02*
X2505896Y-9881984D01*
X2505896Y-9881984D02*
X2524944Y-9891508D01*
X2524944Y-9891508D02*
X2534468Y-9901031D01*
X2534468Y-9901031D02*
X2543991Y-9920079D01*
X2543991Y-9920079D02*
X2553515Y-9958174D01*
X2553515Y-9958174D02*
X2553515Y-10005793D01*
X2553515Y-10005793D02*
X2543991Y-10043889D01*
X2543991Y-10043889D02*
X2534468Y-10062936D01*
X2534468Y-10062936D02*
X2524944Y-10072460D01*
X2524944Y-10072460D02*
X2505896Y-10081984D01*
X2505896Y-10081984D02*
X2486848Y-10081984D01*
X2486848Y-10081984D02*
X2467801Y-10072460D01*
X2467801Y-10072460D02*
X2458277Y-10062936D01*
X2458277Y-10062936D02*
X2448753Y-10043889D01*
X2448753Y-10043889D02*
X2439229Y-10005793D01*
X2439229Y-10005793D02*
X2439229Y-9958174D01*
X2439229Y-9958174D02*
X2448753Y-9920079D01*
X2448753Y-9920079D02*
X2458277Y-9901031D01*
X2458277Y-9901031D02*
X2467801Y-9891508D01*
X2467801Y-9891508D02*
X2486848Y-9881984D01*
X2743991Y-10081984D02*
X2629706Y-10081984D01*
X2686848Y-10081984D02*
X2686848Y-9881984D01*
X2686848Y-9881984D02*
X2667801Y-9910555D01*
X2667801Y-9910555D02*
X2648753Y-9929603D01*
X2648753Y-9929603D02*
X2629706Y-9939127D01*
X2810658Y-9881984D02*
X2934467Y-9881984D01*
X2934467Y-9881984D02*
X2867801Y-9958174D01*
X2867801Y-9958174D02*
X2896372Y-9958174D01*
X2896372Y-9958174D02*
X2915420Y-9967698D01*
X2915420Y-9967698D02*
X2924944Y-9977222D01*
X2924944Y-9977222D02*
X2934467Y-9996270D01*
X2934467Y-9996270D02*
X2934467Y-10043889D01*
X2934467Y-10043889D02*
X2924944Y-10062936D01*
X2924944Y-10062936D02*
X2915420Y-10072460D01*
X2915420Y-10072460D02*
X2896372Y-10081984D01*
X2896372Y-10081984D02*
X2839229Y-10081984D01*
X2839229Y-10081984D02*
X2820182Y-10072460D01*
X2820182Y-10072460D02*
X2810658Y-10062936D01*
X3048753Y-9967698D02*
X3029706Y-9958174D01*
X3029706Y-9958174D02*
X3020182Y-9948650D01*
X3020182Y-9948650D02*
X3010658Y-9929603D01*
X3010658Y-9929603D02*
X3010658Y-9920079D01*
X3010658Y-9920079D02*
X3020182Y-9901031D01*
X3020182Y-9901031D02*
X3029706Y-9891508D01*
X3029706Y-9891508D02*
X3048753Y-9881984D01*
X3048753Y-9881984D02*
X3086848Y-9881984D01*
X3086848Y-9881984D02*
X3105896Y-9891508D01*
X3105896Y-9891508D02*
X3115420Y-9901031D01*
X3115420Y-9901031D02*
X3124944Y-9920079D01*
X3124944Y-9920079D02*
X3124944Y-9929603D01*
X3124944Y-9929603D02*
X3115420Y-9948650D01*
X3115420Y-9948650D02*
X3105896Y-9958174D01*
X3105896Y-9958174D02*
X3086848Y-9967698D01*
X3086848Y-9967698D02*
X3048753Y-9967698D01*
X3048753Y-9967698D02*
X3029706Y-9977222D01*
X3029706Y-9977222D02*
X3020182Y-9986746D01*
X3020182Y-9986746D02*
X3010658Y-10005793D01*
X3010658Y-10005793D02*
X3010658Y-10043889D01*
X3010658Y-10043889D02*
X3020182Y-10062936D01*
X3020182Y-10062936D02*
X3029706Y-10072460D01*
X3029706Y-10072460D02*
X3048753Y-10081984D01*
X3048753Y-10081984D02*
X3086848Y-10081984D01*
X3086848Y-10081984D02*
X3105896Y-10072460D01*
X3105896Y-10072460D02*
X3115420Y-10062936D01*
X3115420Y-10062936D02*
X3124944Y-10043889D01*
X3124944Y-10043889D02*
X3124944Y-10005793D01*
X3124944Y-10005793D02*
X3115420Y-9986746D01*
X3115420Y-9986746D02*
X3105896Y-9977222D01*
X3105896Y-9977222D02*
X3086848Y-9967698D01*
X3201134Y-9881984D02*
X3201134Y-9920079D01*
X3277325Y-9881984D02*
X3277325Y-9920079D01*
X3572563Y-10158174D02*
X3563039Y-10148650D01*
X3563039Y-10148650D02*
X3543991Y-10120079D01*
X3543991Y-10120079D02*
X3534468Y-10101031D01*
X3534468Y-10101031D02*
X3524944Y-10072460D01*
X3524944Y-10072460D02*
X3515420Y-10024841D01*
X3515420Y-10024841D02*
X3515420Y-9986746D01*
X3515420Y-9986746D02*
X3524944Y-9939127D01*
X3524944Y-9939127D02*
X3534468Y-9910555D01*
X3534468Y-9910555D02*
X3543991Y-9891508D01*
X3543991Y-9891508D02*
X3563039Y-9862936D01*
X3563039Y-9862936D02*
X3572563Y-9853412D01*
X3639229Y-9901031D02*
X3648753Y-9891508D01*
X3648753Y-9891508D02*
X3667801Y-9881984D01*
X3667801Y-9881984D02*
X3715420Y-9881984D01*
X3715420Y-9881984D02*
X3734468Y-9891508D01*
X3734468Y-9891508D02*
X3743991Y-9901031D01*
X3743991Y-9901031D02*
X3753515Y-9920079D01*
X3753515Y-9920079D02*
X3753515Y-9939127D01*
X3753515Y-9939127D02*
X3743991Y-9967698D01*
X3743991Y-9967698D02*
X3629706Y-10081984D01*
X3629706Y-10081984D02*
X3753515Y-10081984D01*
X3991610Y-10081984D02*
X3991610Y-9881984D01*
X4077325Y-10081984D02*
X4077325Y-9977222D01*
X4077325Y-9977222D02*
X4067801Y-9958174D01*
X4067801Y-9958174D02*
X4048753Y-9948650D01*
X4048753Y-9948650D02*
X4020182Y-9948650D01*
X4020182Y-9948650D02*
X4001134Y-9958174D01*
X4001134Y-9958174D02*
X3991610Y-9967698D01*
X4201134Y-10081984D02*
X4182087Y-10072460D01*
X4182087Y-10072460D02*
X4172563Y-10062936D01*
X4172563Y-10062936D02*
X4163039Y-10043889D01*
X4163039Y-10043889D02*
X4163039Y-9986746D01*
X4163039Y-9986746D02*
X4172563Y-9967698D01*
X4172563Y-9967698D02*
X4182087Y-9958174D01*
X4182087Y-9958174D02*
X4201134Y-9948650D01*
X4201134Y-9948650D02*
X4229706Y-9948650D01*
X4229706Y-9948650D02*
X4248753Y-9958174D01*
X4248753Y-9958174D02*
X4258277Y-9967698D01*
X4258277Y-9967698D02*
X4267801Y-9986746D01*
X4267801Y-9986746D02*
X4267801Y-10043889D01*
X4267801Y-10043889D02*
X4258277Y-10062936D01*
X4258277Y-10062936D02*
X4248753Y-10072460D01*
X4248753Y-10072460D02*
X4229706Y-10081984D01*
X4229706Y-10081984D02*
X4201134Y-10081984D01*
X4382087Y-10081984D02*
X4363039Y-10072460D01*
X4363039Y-10072460D02*
X4353515Y-10053412D01*
X4353515Y-10053412D02*
X4353515Y-9881984D01*
X4534468Y-10072460D02*
X4515420Y-10081984D01*
X4515420Y-10081984D02*
X4477325Y-10081984D01*
X4477325Y-10081984D02*
X4458277Y-10072460D01*
X4458277Y-10072460D02*
X4448753Y-10053412D01*
X4448753Y-10053412D02*
X4448753Y-9977222D01*
X4448753Y-9977222D02*
X4458277Y-9958174D01*
X4458277Y-9958174D02*
X4477325Y-9948650D01*
X4477325Y-9948650D02*
X4515420Y-9948650D01*
X4515420Y-9948650D02*
X4534468Y-9958174D01*
X4534468Y-9958174D02*
X4543992Y-9977222D01*
X4543992Y-9977222D02*
X4543992Y-9996270D01*
X4543992Y-9996270D02*
X4448753Y-10015317D01*
X4620182Y-10072460D02*
X4639230Y-10081984D01*
X4639230Y-10081984D02*
X4677325Y-10081984D01*
X4677325Y-10081984D02*
X4696373Y-10072460D01*
X4696373Y-10072460D02*
X4705896Y-10053412D01*
X4705896Y-10053412D02*
X4705896Y-10043889D01*
X4705896Y-10043889D02*
X4696373Y-10024841D01*
X4696373Y-10024841D02*
X4677325Y-10015317D01*
X4677325Y-10015317D02*
X4648753Y-10015317D01*
X4648753Y-10015317D02*
X4629706Y-10005793D01*
X4629706Y-10005793D02*
X4620182Y-9986746D01*
X4620182Y-9986746D02*
X4620182Y-9977222D01*
X4620182Y-9977222D02*
X4629706Y-9958174D01*
X4629706Y-9958174D02*
X4648753Y-9948650D01*
X4648753Y-9948650D02*
X4677325Y-9948650D01*
X4677325Y-9948650D02*
X4696373Y-9958174D01*
X4772563Y-10158174D02*
X4782087Y-10148650D01*
X4782087Y-10148650D02*
X4801134Y-10120079D01*
X4801134Y-10120079D02*
X4810658Y-10101031D01*
X4810658Y-10101031D02*
X4820182Y-10072460D01*
X4820182Y-10072460D02*
X4829706Y-10024841D01*
X4829706Y-10024841D02*
X4829706Y-9986746D01*
X4829706Y-9986746D02*
X4820182Y-9939127D01*
X4820182Y-9939127D02*
X4810658Y-9910555D01*
X4810658Y-9910555D02*
X4801134Y-9891508D01*
X4801134Y-9891508D02*
X4782087Y-9862936D01*
X4782087Y-9862936D02*
X4772563Y-9853412D01*
X5134468Y-10158174D02*
X5124944Y-10148650D01*
X5124944Y-10148650D02*
X5105896Y-10120079D01*
X5105896Y-10120079D02*
X5096373Y-10101031D01*
X5096373Y-10101031D02*
X5086849Y-10072460D01*
X5086849Y-10072460D02*
X5077325Y-10024841D01*
X5077325Y-10024841D02*
X5077325Y-9986746D01*
X5077325Y-9986746D02*
X5086849Y-9939127D01*
X5086849Y-9939127D02*
X5096373Y-9910555D01*
X5096373Y-9910555D02*
X5105896Y-9891508D01*
X5105896Y-9891508D02*
X5124944Y-9862936D01*
X5124944Y-9862936D02*
X5134468Y-9853412D01*
X5210658Y-9948650D02*
X5210658Y-10081984D01*
X5210658Y-9967698D02*
X5220182Y-9958174D01*
X5220182Y-9958174D02*
X5239230Y-9948650D01*
X5239230Y-9948650D02*
X5267801Y-9948650D01*
X5267801Y-9948650D02*
X5286849Y-9958174D01*
X5286849Y-9958174D02*
X5296373Y-9977222D01*
X5296373Y-9977222D02*
X5296373Y-10081984D01*
X5420182Y-10081984D02*
X5401134Y-10072460D01*
X5401134Y-10072460D02*
X5391611Y-10062936D01*
X5391611Y-10062936D02*
X5382087Y-10043889D01*
X5382087Y-10043889D02*
X5382087Y-9986746D01*
X5382087Y-9986746D02*
X5391611Y-9967698D01*
X5391611Y-9967698D02*
X5401134Y-9958174D01*
X5401134Y-9958174D02*
X5420182Y-9948650D01*
X5420182Y-9948650D02*
X5448754Y-9948650D01*
X5448754Y-9948650D02*
X5467801Y-9958174D01*
X5467801Y-9958174D02*
X5477325Y-9967698D01*
X5477325Y-9967698D02*
X5486849Y-9986746D01*
X5486849Y-9986746D02*
X5486849Y-10043889D01*
X5486849Y-10043889D02*
X5477325Y-10062936D01*
X5477325Y-10062936D02*
X5467801Y-10072460D01*
X5467801Y-10072460D02*
X5448754Y-10081984D01*
X5448754Y-10081984D02*
X5420182Y-10081984D01*
X5543992Y-9948650D02*
X5620182Y-9948650D01*
X5572563Y-9881984D02*
X5572563Y-10053412D01*
X5572563Y-10053412D02*
X5582087Y-10072460D01*
X5582087Y-10072460D02*
X5601134Y-10081984D01*
X5601134Y-10081984D02*
X5620182Y-10081984D01*
X5839230Y-9948650D02*
X5839230Y-10148650D01*
X5839230Y-9958174D02*
X5858277Y-9948650D01*
X5858277Y-9948650D02*
X5896373Y-9948650D01*
X5896373Y-9948650D02*
X5915420Y-9958174D01*
X5915420Y-9958174D02*
X5924944Y-9967698D01*
X5924944Y-9967698D02*
X5934468Y-9986746D01*
X5934468Y-9986746D02*
X5934468Y-10043889D01*
X5934468Y-10043889D02*
X5924944Y-10062936D01*
X5924944Y-10062936D02*
X5915420Y-10072460D01*
X5915420Y-10072460D02*
X5896373Y-10081984D01*
X5896373Y-10081984D02*
X5858277Y-10081984D01*
X5858277Y-10081984D02*
X5839230Y-10072460D01*
X6048753Y-10081984D02*
X6029706Y-10072460D01*
X6029706Y-10072460D02*
X6020182Y-10053412D01*
X6020182Y-10053412D02*
X6020182Y-9881984D01*
X6210658Y-10081984D02*
X6210658Y-9977222D01*
X6210658Y-9977222D02*
X6201134Y-9958174D01*
X6201134Y-9958174D02*
X6182087Y-9948650D01*
X6182087Y-9948650D02*
X6143992Y-9948650D01*
X6143992Y-9948650D02*
X6124944Y-9958174D01*
X6210658Y-10072460D02*
X6191611Y-10081984D01*
X6191611Y-10081984D02*
X6143992Y-10081984D01*
X6143992Y-10081984D02*
X6124944Y-10072460D01*
X6124944Y-10072460D02*
X6115420Y-10053412D01*
X6115420Y-10053412D02*
X6115420Y-10034365D01*
X6115420Y-10034365D02*
X6124944Y-10015317D01*
X6124944Y-10015317D02*
X6143992Y-10005793D01*
X6143992Y-10005793D02*
X6191611Y-10005793D01*
X6191611Y-10005793D02*
X6210658Y-9996270D01*
X6277325Y-9948650D02*
X6353515Y-9948650D01*
X6305896Y-9881984D02*
X6305896Y-10053412D01*
X6305896Y-10053412D02*
X6315420Y-10072460D01*
X6315420Y-10072460D02*
X6334468Y-10081984D01*
X6334468Y-10081984D02*
X6353515Y-10081984D01*
X6496373Y-10072460D02*
X6477325Y-10081984D01*
X6477325Y-10081984D02*
X6439230Y-10081984D01*
X6439230Y-10081984D02*
X6420182Y-10072460D01*
X6420182Y-10072460D02*
X6410658Y-10053412D01*
X6410658Y-10053412D02*
X6410658Y-9977222D01*
X6410658Y-9977222D02*
X6420182Y-9958174D01*
X6420182Y-9958174D02*
X6439230Y-9948650D01*
X6439230Y-9948650D02*
X6477325Y-9948650D01*
X6477325Y-9948650D02*
X6496373Y-9958174D01*
X6496373Y-9958174D02*
X6505896Y-9977222D01*
X6505896Y-9977222D02*
X6505896Y-9996270D01*
X6505896Y-9996270D02*
X6410658Y-10015317D01*
X6677325Y-10081984D02*
X6677325Y-9881984D01*
X6677325Y-10072460D02*
X6658277Y-10081984D01*
X6658277Y-10081984D02*
X6620182Y-10081984D01*
X6620182Y-10081984D02*
X6601134Y-10072460D01*
X6601134Y-10072460D02*
X6591611Y-10062936D01*
X6591611Y-10062936D02*
X6582087Y-10043889D01*
X6582087Y-10043889D02*
X6582087Y-9986746D01*
X6582087Y-9986746D02*
X6591611Y-9967698D01*
X6591611Y-9967698D02*
X6601134Y-9958174D01*
X6601134Y-9958174D02*
X6620182Y-9948650D01*
X6620182Y-9948650D02*
X6658277Y-9948650D01*
X6658277Y-9948650D02*
X6677325Y-9958174D01*
X6753515Y-10158174D02*
X6763039Y-10148650D01*
X6763039Y-10148650D02*
X6782087Y-10120079D01*
X6782087Y-10120079D02*
X6791611Y-10101031D01*
X6791611Y-10101031D02*
X6801134Y-10072460D01*
X6801134Y-10072460D02*
X6810658Y-10024841D01*
X6810658Y-10024841D02*
X6810658Y-9986746D01*
X6810658Y-9986746D02*
X6801134Y-9939127D01*
X6801134Y-9939127D02*
X6791611Y-9910555D01*
X6791611Y-9910555D02*
X6782087Y-9891508D01*
X6782087Y-9891508D02*
X6763039Y-9862936D01*
X6763039Y-9862936D02*
X6753515Y-9853412D01*
D12*
X-47500Y-10232000D02*
X-2500Y-10277000D01*
X-2500Y-10232000D02*
X-47500Y-10277000D01*
X-25000Y-10277000D02*
X-2500Y-10254500D01*
X-25000Y-10232000D01*
X-47500Y-10254500D01*
X-25000Y-10277000D01*
D11*
X296372Y-10145984D02*
X315420Y-10145984D01*
X315420Y-10145984D02*
X334467Y-10155508D01*
X334467Y-10155508D02*
X343991Y-10165031D01*
X343991Y-10165031D02*
X353515Y-10184079D01*
X353515Y-10184079D02*
X363039Y-10222174D01*
X363039Y-10222174D02*
X363039Y-10269793D01*
X363039Y-10269793D02*
X353515Y-10307889D01*
X353515Y-10307889D02*
X343991Y-10326936D01*
X343991Y-10326936D02*
X334467Y-10336460D01*
X334467Y-10336460D02*
X315420Y-10345984D01*
X315420Y-10345984D02*
X296372Y-10345984D01*
X296372Y-10345984D02*
X277324Y-10336460D01*
X277324Y-10336460D02*
X267801Y-10326936D01*
X267801Y-10326936D02*
X258277Y-10307889D01*
X258277Y-10307889D02*
X248753Y-10269793D01*
X248753Y-10269793D02*
X248753Y-10222174D01*
X248753Y-10222174D02*
X258277Y-10184079D01*
X258277Y-10184079D02*
X267801Y-10165031D01*
X267801Y-10165031D02*
X277324Y-10155508D01*
X277324Y-10155508D02*
X296372Y-10145984D01*
X448753Y-10326936D02*
X458277Y-10336460D01*
X458277Y-10336460D02*
X448753Y-10345984D01*
X448753Y-10345984D02*
X439229Y-10336460D01*
X439229Y-10336460D02*
X448753Y-10326936D01*
X448753Y-10326936D02*
X448753Y-10345984D01*
X629705Y-10212650D02*
X629705Y-10345984D01*
X582086Y-10136460D02*
X534467Y-10279317D01*
X534467Y-10279317D02*
X658277Y-10279317D01*
X829705Y-10145984D02*
X734467Y-10145984D01*
X734467Y-10145984D02*
X724943Y-10241222D01*
X724943Y-10241222D02*
X734467Y-10231698D01*
X734467Y-10231698D02*
X753515Y-10222174D01*
X753515Y-10222174D02*
X801134Y-10222174D01*
X801134Y-10222174D02*
X820182Y-10231698D01*
X820182Y-10231698D02*
X829705Y-10241222D01*
X829705Y-10241222D02*
X839229Y-10260270D01*
X839229Y-10260270D02*
X839229Y-10307889D01*
X839229Y-10307889D02*
X829705Y-10326936D01*
X829705Y-10326936D02*
X820182Y-10336460D01*
X820182Y-10336460D02*
X801134Y-10345984D01*
X801134Y-10345984D02*
X753515Y-10345984D01*
X753515Y-10345984D02*
X734467Y-10336460D01*
X734467Y-10336460D02*
X724943Y-10326936D01*
X963039Y-10145984D02*
X982086Y-10145984D01*
X982086Y-10145984D02*
X1001134Y-10155508D01*
X1001134Y-10155508D02*
X1010658Y-10165031D01*
X1010658Y-10165031D02*
X1020182Y-10184079D01*
X1020182Y-10184079D02*
X1029705Y-10222174D01*
X1029705Y-10222174D02*
X1029705Y-10269793D01*
X1029705Y-10269793D02*
X1020182Y-10307889D01*
X1020182Y-10307889D02*
X1010658Y-10326936D01*
X1010658Y-10326936D02*
X1001134Y-10336460D01*
X1001134Y-10336460D02*
X982086Y-10345984D01*
X982086Y-10345984D02*
X963039Y-10345984D01*
X963039Y-10345984D02*
X943991Y-10336460D01*
X943991Y-10336460D02*
X934467Y-10326936D01*
X934467Y-10326936D02*
X924943Y-10307889D01*
X924943Y-10307889D02*
X915420Y-10269793D01*
X915420Y-10269793D02*
X915420Y-10222174D01*
X915420Y-10222174D02*
X924943Y-10184079D01*
X924943Y-10184079D02*
X934467Y-10165031D01*
X934467Y-10165031D02*
X943991Y-10155508D01*
X943991Y-10155508D02*
X963039Y-10145984D01*
X1115420Y-10345984D02*
X1115420Y-10212650D01*
X1115420Y-10231698D02*
X1124944Y-10222174D01*
X1124944Y-10222174D02*
X1143991Y-10212650D01*
X1143991Y-10212650D02*
X1172563Y-10212650D01*
X1172563Y-10212650D02*
X1191610Y-10222174D01*
X1191610Y-10222174D02*
X1201134Y-10241222D01*
X1201134Y-10241222D02*
X1201134Y-10345984D01*
X1201134Y-10241222D02*
X1210658Y-10222174D01*
X1210658Y-10222174D02*
X1229705Y-10212650D01*
X1229705Y-10212650D02*
X1258277Y-10212650D01*
X1258277Y-10212650D02*
X1277325Y-10222174D01*
X1277325Y-10222174D02*
X1286848Y-10241222D01*
X1286848Y-10241222D02*
X1286848Y-10345984D01*
X1382086Y-10345984D02*
X1382086Y-10212650D01*
X1382086Y-10231698D02*
X1391610Y-10222174D01*
X1391610Y-10222174D02*
X1410658Y-10212650D01*
X1410658Y-10212650D02*
X1439229Y-10212650D01*
X1439229Y-10212650D02*
X1458277Y-10222174D01*
X1458277Y-10222174D02*
X1467801Y-10241222D01*
X1467801Y-10241222D02*
X1467801Y-10345984D01*
X1467801Y-10241222D02*
X1477324Y-10222174D01*
X1477324Y-10222174D02*
X1496372Y-10212650D01*
X1496372Y-10212650D02*
X1524943Y-10212650D01*
X1524943Y-10212650D02*
X1543991Y-10222174D01*
X1543991Y-10222174D02*
X1553515Y-10241222D01*
X1553515Y-10241222D02*
X1553515Y-10345984D01*
X1943991Y-10136460D02*
X1772563Y-10393603D01*
X2201134Y-10145984D02*
X2220182Y-10145984D01*
X2220182Y-10145984D02*
X2239229Y-10155508D01*
X2239229Y-10155508D02*
X2248753Y-10165031D01*
X2248753Y-10165031D02*
X2258277Y-10184079D01*
X2258277Y-10184079D02*
X2267801Y-10222174D01*
X2267801Y-10222174D02*
X2267801Y-10269793D01*
X2267801Y-10269793D02*
X2258277Y-10307889D01*
X2258277Y-10307889D02*
X2248753Y-10326936D01*
X2248753Y-10326936D02*
X2239229Y-10336460D01*
X2239229Y-10336460D02*
X2220182Y-10345984D01*
X2220182Y-10345984D02*
X2201134Y-10345984D01*
X2201134Y-10345984D02*
X2182087Y-10336460D01*
X2182087Y-10336460D02*
X2172563Y-10326936D01*
X2172563Y-10326936D02*
X2163039Y-10307889D01*
X2163039Y-10307889D02*
X2153515Y-10269793D01*
X2153515Y-10269793D02*
X2153515Y-10222174D01*
X2153515Y-10222174D02*
X2163039Y-10184079D01*
X2163039Y-10184079D02*
X2172563Y-10165031D01*
X2172563Y-10165031D02*
X2182087Y-10155508D01*
X2182087Y-10155508D02*
X2201134Y-10145984D01*
X2353515Y-10326936D02*
X2363039Y-10336460D01*
X2363039Y-10336460D02*
X2353515Y-10345984D01*
X2353515Y-10345984D02*
X2343991Y-10336460D01*
X2343991Y-10336460D02*
X2353515Y-10326936D01*
X2353515Y-10326936D02*
X2353515Y-10345984D01*
X2486848Y-10145984D02*
X2505896Y-10145984D01*
X2505896Y-10145984D02*
X2524944Y-10155508D01*
X2524944Y-10155508D02*
X2534468Y-10165031D01*
X2534468Y-10165031D02*
X2543991Y-10184079D01*
X2543991Y-10184079D02*
X2553515Y-10222174D01*
X2553515Y-10222174D02*
X2553515Y-10269793D01*
X2553515Y-10269793D02*
X2543991Y-10307889D01*
X2543991Y-10307889D02*
X2534468Y-10326936D01*
X2534468Y-10326936D02*
X2524944Y-10336460D01*
X2524944Y-10336460D02*
X2505896Y-10345984D01*
X2505896Y-10345984D02*
X2486848Y-10345984D01*
X2486848Y-10345984D02*
X2467801Y-10336460D01*
X2467801Y-10336460D02*
X2458277Y-10326936D01*
X2458277Y-10326936D02*
X2448753Y-10307889D01*
X2448753Y-10307889D02*
X2439229Y-10269793D01*
X2439229Y-10269793D02*
X2439229Y-10222174D01*
X2439229Y-10222174D02*
X2448753Y-10184079D01*
X2448753Y-10184079D02*
X2458277Y-10165031D01*
X2458277Y-10165031D02*
X2467801Y-10155508D01*
X2467801Y-10155508D02*
X2486848Y-10145984D01*
X2743991Y-10345984D02*
X2629706Y-10345984D01*
X2686848Y-10345984D02*
X2686848Y-10145984D01*
X2686848Y-10145984D02*
X2667801Y-10174555D01*
X2667801Y-10174555D02*
X2648753Y-10193603D01*
X2648753Y-10193603D02*
X2629706Y-10203127D01*
X2810658Y-10145984D02*
X2943991Y-10145984D01*
X2943991Y-10145984D02*
X2858277Y-10345984D01*
X3001134Y-10145984D02*
X3134467Y-10145984D01*
X3134467Y-10145984D02*
X3048753Y-10345984D01*
X3201134Y-10145984D02*
X3201134Y-10184079D01*
X3277325Y-10145984D02*
X3277325Y-10184079D01*
X3572563Y-10422174D02*
X3563039Y-10412650D01*
X3563039Y-10412650D02*
X3543991Y-10384079D01*
X3543991Y-10384079D02*
X3534468Y-10365031D01*
X3534468Y-10365031D02*
X3524944Y-10336460D01*
X3524944Y-10336460D02*
X3515420Y-10288841D01*
X3515420Y-10288841D02*
X3515420Y-10250746D01*
X3515420Y-10250746D02*
X3524944Y-10203127D01*
X3524944Y-10203127D02*
X3534468Y-10174555D01*
X3534468Y-10174555D02*
X3543991Y-10155508D01*
X3543991Y-10155508D02*
X3563039Y-10126936D01*
X3563039Y-10126936D02*
X3572563Y-10117412D01*
X3639229Y-10165031D02*
X3648753Y-10155508D01*
X3648753Y-10155508D02*
X3667801Y-10145984D01*
X3667801Y-10145984D02*
X3715420Y-10145984D01*
X3715420Y-10145984D02*
X3734468Y-10155508D01*
X3734468Y-10155508D02*
X3743991Y-10165031D01*
X3743991Y-10165031D02*
X3753515Y-10184079D01*
X3753515Y-10184079D02*
X3753515Y-10203127D01*
X3753515Y-10203127D02*
X3743991Y-10231698D01*
X3743991Y-10231698D02*
X3629706Y-10345984D01*
X3629706Y-10345984D02*
X3753515Y-10345984D01*
X3991610Y-10345984D02*
X3991610Y-10145984D01*
X4077325Y-10345984D02*
X4077325Y-10241222D01*
X4077325Y-10241222D02*
X4067801Y-10222174D01*
X4067801Y-10222174D02*
X4048753Y-10212650D01*
X4048753Y-10212650D02*
X4020182Y-10212650D01*
X4020182Y-10212650D02*
X4001134Y-10222174D01*
X4001134Y-10222174D02*
X3991610Y-10231698D01*
X4201134Y-10345984D02*
X4182087Y-10336460D01*
X4182087Y-10336460D02*
X4172563Y-10326936D01*
X4172563Y-10326936D02*
X4163039Y-10307889D01*
X4163039Y-10307889D02*
X4163039Y-10250746D01*
X4163039Y-10250746D02*
X4172563Y-10231698D01*
X4172563Y-10231698D02*
X4182087Y-10222174D01*
X4182087Y-10222174D02*
X4201134Y-10212650D01*
X4201134Y-10212650D02*
X4229706Y-10212650D01*
X4229706Y-10212650D02*
X4248753Y-10222174D01*
X4248753Y-10222174D02*
X4258277Y-10231698D01*
X4258277Y-10231698D02*
X4267801Y-10250746D01*
X4267801Y-10250746D02*
X4267801Y-10307889D01*
X4267801Y-10307889D02*
X4258277Y-10326936D01*
X4258277Y-10326936D02*
X4248753Y-10336460D01*
X4248753Y-10336460D02*
X4229706Y-10345984D01*
X4229706Y-10345984D02*
X4201134Y-10345984D01*
X4382087Y-10345984D02*
X4363039Y-10336460D01*
X4363039Y-10336460D02*
X4353515Y-10317412D01*
X4353515Y-10317412D02*
X4353515Y-10145984D01*
X4534468Y-10336460D02*
X4515420Y-10345984D01*
X4515420Y-10345984D02*
X4477325Y-10345984D01*
X4477325Y-10345984D02*
X4458277Y-10336460D01*
X4458277Y-10336460D02*
X4448753Y-10317412D01*
X4448753Y-10317412D02*
X4448753Y-10241222D01*
X4448753Y-10241222D02*
X4458277Y-10222174D01*
X4458277Y-10222174D02*
X4477325Y-10212650D01*
X4477325Y-10212650D02*
X4515420Y-10212650D01*
X4515420Y-10212650D02*
X4534468Y-10222174D01*
X4534468Y-10222174D02*
X4543992Y-10241222D01*
X4543992Y-10241222D02*
X4543992Y-10260270D01*
X4543992Y-10260270D02*
X4448753Y-10279317D01*
X4620182Y-10336460D02*
X4639230Y-10345984D01*
X4639230Y-10345984D02*
X4677325Y-10345984D01*
X4677325Y-10345984D02*
X4696373Y-10336460D01*
X4696373Y-10336460D02*
X4705896Y-10317412D01*
X4705896Y-10317412D02*
X4705896Y-10307889D01*
X4705896Y-10307889D02*
X4696373Y-10288841D01*
X4696373Y-10288841D02*
X4677325Y-10279317D01*
X4677325Y-10279317D02*
X4648753Y-10279317D01*
X4648753Y-10279317D02*
X4629706Y-10269793D01*
X4629706Y-10269793D02*
X4620182Y-10250746D01*
X4620182Y-10250746D02*
X4620182Y-10241222D01*
X4620182Y-10241222D02*
X4629706Y-10222174D01*
X4629706Y-10222174D02*
X4648753Y-10212650D01*
X4648753Y-10212650D02*
X4677325Y-10212650D01*
X4677325Y-10212650D02*
X4696373Y-10222174D01*
X4772563Y-10422174D02*
X4782087Y-10412650D01*
X4782087Y-10412650D02*
X4801134Y-10384079D01*
X4801134Y-10384079D02*
X4810658Y-10365031D01*
X4810658Y-10365031D02*
X4820182Y-10336460D01*
X4820182Y-10336460D02*
X4829706Y-10288841D01*
X4829706Y-10288841D02*
X4829706Y-10250746D01*
X4829706Y-10250746D02*
X4820182Y-10203127D01*
X4820182Y-10203127D02*
X4810658Y-10174555D01*
X4810658Y-10174555D02*
X4801134Y-10155508D01*
X4801134Y-10155508D02*
X4782087Y-10126936D01*
X4782087Y-10126936D02*
X4772563Y-10117412D01*
X5134468Y-10422174D02*
X5124944Y-10412650D01*
X5124944Y-10412650D02*
X5105896Y-10384079D01*
X5105896Y-10384079D02*
X5096373Y-10365031D01*
X5096373Y-10365031D02*
X5086849Y-10336460D01*
X5086849Y-10336460D02*
X5077325Y-10288841D01*
X5077325Y-10288841D02*
X5077325Y-10250746D01*
X5077325Y-10250746D02*
X5086849Y-10203127D01*
X5086849Y-10203127D02*
X5096373Y-10174555D01*
X5096373Y-10174555D02*
X5105896Y-10155508D01*
X5105896Y-10155508D02*
X5124944Y-10126936D01*
X5124944Y-10126936D02*
X5134468Y-10117412D01*
X5210658Y-10212650D02*
X5210658Y-10345984D01*
X5210658Y-10231698D02*
X5220182Y-10222174D01*
X5220182Y-10222174D02*
X5239230Y-10212650D01*
X5239230Y-10212650D02*
X5267801Y-10212650D01*
X5267801Y-10212650D02*
X5286849Y-10222174D01*
X5286849Y-10222174D02*
X5296373Y-10241222D01*
X5296373Y-10241222D02*
X5296373Y-10345984D01*
X5420182Y-10345984D02*
X5401134Y-10336460D01*
X5401134Y-10336460D02*
X5391611Y-10326936D01*
X5391611Y-10326936D02*
X5382087Y-10307889D01*
X5382087Y-10307889D02*
X5382087Y-10250746D01*
X5382087Y-10250746D02*
X5391611Y-10231698D01*
X5391611Y-10231698D02*
X5401134Y-10222174D01*
X5401134Y-10222174D02*
X5420182Y-10212650D01*
X5420182Y-10212650D02*
X5448754Y-10212650D01*
X5448754Y-10212650D02*
X5467801Y-10222174D01*
X5467801Y-10222174D02*
X5477325Y-10231698D01*
X5477325Y-10231698D02*
X5486849Y-10250746D01*
X5486849Y-10250746D02*
X5486849Y-10307889D01*
X5486849Y-10307889D02*
X5477325Y-10326936D01*
X5477325Y-10326936D02*
X5467801Y-10336460D01*
X5467801Y-10336460D02*
X5448754Y-10345984D01*
X5448754Y-10345984D02*
X5420182Y-10345984D01*
X5543992Y-10212650D02*
X5620182Y-10212650D01*
X5572563Y-10145984D02*
X5572563Y-10317412D01*
X5572563Y-10317412D02*
X5582087Y-10336460D01*
X5582087Y-10336460D02*
X5601134Y-10345984D01*
X5601134Y-10345984D02*
X5620182Y-10345984D01*
X5839230Y-10212650D02*
X5839230Y-10412650D01*
X5839230Y-10222174D02*
X5858277Y-10212650D01*
X5858277Y-10212650D02*
X5896373Y-10212650D01*
X5896373Y-10212650D02*
X5915420Y-10222174D01*
X5915420Y-10222174D02*
X5924944Y-10231698D01*
X5924944Y-10231698D02*
X5934468Y-10250746D01*
X5934468Y-10250746D02*
X5934468Y-10307889D01*
X5934468Y-10307889D02*
X5924944Y-10326936D01*
X5924944Y-10326936D02*
X5915420Y-10336460D01*
X5915420Y-10336460D02*
X5896373Y-10345984D01*
X5896373Y-10345984D02*
X5858277Y-10345984D01*
X5858277Y-10345984D02*
X5839230Y-10336460D01*
X6048753Y-10345984D02*
X6029706Y-10336460D01*
X6029706Y-10336460D02*
X6020182Y-10317412D01*
X6020182Y-10317412D02*
X6020182Y-10145984D01*
X6210658Y-10345984D02*
X6210658Y-10241222D01*
X6210658Y-10241222D02*
X6201134Y-10222174D01*
X6201134Y-10222174D02*
X6182087Y-10212650D01*
X6182087Y-10212650D02*
X6143992Y-10212650D01*
X6143992Y-10212650D02*
X6124944Y-10222174D01*
X6210658Y-10336460D02*
X6191611Y-10345984D01*
X6191611Y-10345984D02*
X6143992Y-10345984D01*
X6143992Y-10345984D02*
X6124944Y-10336460D01*
X6124944Y-10336460D02*
X6115420Y-10317412D01*
X6115420Y-10317412D02*
X6115420Y-10298365D01*
X6115420Y-10298365D02*
X6124944Y-10279317D01*
X6124944Y-10279317D02*
X6143992Y-10269793D01*
X6143992Y-10269793D02*
X6191611Y-10269793D01*
X6191611Y-10269793D02*
X6210658Y-10260270D01*
X6277325Y-10212650D02*
X6353515Y-10212650D01*
X6305896Y-10145984D02*
X6305896Y-10317412D01*
X6305896Y-10317412D02*
X6315420Y-10336460D01*
X6315420Y-10336460D02*
X6334468Y-10345984D01*
X6334468Y-10345984D02*
X6353515Y-10345984D01*
X6496373Y-10336460D02*
X6477325Y-10345984D01*
X6477325Y-10345984D02*
X6439230Y-10345984D01*
X6439230Y-10345984D02*
X6420182Y-10336460D01*
X6420182Y-10336460D02*
X6410658Y-10317412D01*
X6410658Y-10317412D02*
X6410658Y-10241222D01*
X6410658Y-10241222D02*
X6420182Y-10222174D01*
X6420182Y-10222174D02*
X6439230Y-10212650D01*
X6439230Y-10212650D02*
X6477325Y-10212650D01*
X6477325Y-10212650D02*
X6496373Y-10222174D01*
X6496373Y-10222174D02*
X6505896Y-10241222D01*
X6505896Y-10241222D02*
X6505896Y-10260270D01*
X6505896Y-10260270D02*
X6410658Y-10279317D01*
X6677325Y-10345984D02*
X6677325Y-10145984D01*
X6677325Y-10336460D02*
X6658277Y-10345984D01*
X6658277Y-10345984D02*
X6620182Y-10345984D01*
X6620182Y-10345984D02*
X6601134Y-10336460D01*
X6601134Y-10336460D02*
X6591611Y-10326936D01*
X6591611Y-10326936D02*
X6582087Y-10307889D01*
X6582087Y-10307889D02*
X6582087Y-10250746D01*
X6582087Y-10250746D02*
X6591611Y-10231698D01*
X6591611Y-10231698D02*
X6601134Y-10222174D01*
X6601134Y-10222174D02*
X6620182Y-10212650D01*
X6620182Y-10212650D02*
X6658277Y-10212650D01*
X6658277Y-10212650D02*
X6677325Y-10222174D01*
X6753515Y-10422174D02*
X6763039Y-10412650D01*
X6763039Y-10412650D02*
X6782087Y-10384079D01*
X6782087Y-10384079D02*
X6791611Y-10365031D01*
X6791611Y-10365031D02*
X6801134Y-10336460D01*
X6801134Y-10336460D02*
X6810658Y-10288841D01*
X6810658Y-10288841D02*
X6810658Y-10250746D01*
X6810658Y-10250746D02*
X6801134Y-10203127D01*
X6801134Y-10203127D02*
X6791611Y-10174555D01*
X6791611Y-10174555D02*
X6782087Y-10155508D01*
X6782087Y-10155508D02*
X6763039Y-10126936D01*
X6763039Y-10126936D02*
X6753515Y-10117412D01*
D12*
X-27500Y-10493500D02*
X-27500Y-10543500D01*
X-52500Y-10518500D02*
X-2500Y-10518500D01*
X-2500Y-10518500D02*
G75*
G02*
X-52500Y-10518500I-25000J0D01*
G01*
X-52500Y-10518500D02*
G75*
G02*
X-2500Y-10518500I25000J0D01*
G01*
D11*
X296372Y-10409984D02*
X315420Y-10409984D01*
X315420Y-10409984D02*
X334467Y-10419508D01*
X334467Y-10419508D02*
X343991Y-10429031D01*
X343991Y-10429031D02*
X353515Y-10448079D01*
X353515Y-10448079D02*
X363039Y-10486174D01*
X363039Y-10486174D02*
X363039Y-10533793D01*
X363039Y-10533793D02*
X353515Y-10571889D01*
X353515Y-10571889D02*
X343991Y-10590936D01*
X343991Y-10590936D02*
X334467Y-10600460D01*
X334467Y-10600460D02*
X315420Y-10609984D01*
X315420Y-10609984D02*
X296372Y-10609984D01*
X296372Y-10609984D02*
X277324Y-10600460D01*
X277324Y-10600460D02*
X267801Y-10590936D01*
X267801Y-10590936D02*
X258277Y-10571889D01*
X258277Y-10571889D02*
X248753Y-10533793D01*
X248753Y-10533793D02*
X248753Y-10486174D01*
X248753Y-10486174D02*
X258277Y-10448079D01*
X258277Y-10448079D02*
X267801Y-10429031D01*
X267801Y-10429031D02*
X277324Y-10419508D01*
X277324Y-10419508D02*
X296372Y-10409984D01*
X448753Y-10590936D02*
X458277Y-10600460D01*
X458277Y-10600460D02*
X448753Y-10609984D01*
X448753Y-10609984D02*
X439229Y-10600460D01*
X439229Y-10600460D02*
X448753Y-10590936D01*
X448753Y-10590936D02*
X448753Y-10609984D01*
X639229Y-10409984D02*
X543991Y-10409984D01*
X543991Y-10409984D02*
X534467Y-10505222D01*
X534467Y-10505222D02*
X543991Y-10495698D01*
X543991Y-10495698D02*
X563039Y-10486174D01*
X563039Y-10486174D02*
X610658Y-10486174D01*
X610658Y-10486174D02*
X629705Y-10495698D01*
X629705Y-10495698D02*
X639229Y-10505222D01*
X639229Y-10505222D02*
X648753Y-10524270D01*
X648753Y-10524270D02*
X648753Y-10571889D01*
X648753Y-10571889D02*
X639229Y-10590936D01*
X639229Y-10590936D02*
X629705Y-10600460D01*
X629705Y-10600460D02*
X610658Y-10609984D01*
X610658Y-10609984D02*
X563039Y-10609984D01*
X563039Y-10609984D02*
X543991Y-10600460D01*
X543991Y-10600460D02*
X534467Y-10590936D01*
X772562Y-10409984D02*
X791610Y-10409984D01*
X791610Y-10409984D02*
X810658Y-10419508D01*
X810658Y-10419508D02*
X820182Y-10429031D01*
X820182Y-10429031D02*
X829705Y-10448079D01*
X829705Y-10448079D02*
X839229Y-10486174D01*
X839229Y-10486174D02*
X839229Y-10533793D01*
X839229Y-10533793D02*
X829705Y-10571889D01*
X829705Y-10571889D02*
X820182Y-10590936D01*
X820182Y-10590936D02*
X810658Y-10600460D01*
X810658Y-10600460D02*
X791610Y-10609984D01*
X791610Y-10609984D02*
X772562Y-10609984D01*
X772562Y-10609984D02*
X753515Y-10600460D01*
X753515Y-10600460D02*
X743991Y-10590936D01*
X743991Y-10590936D02*
X734467Y-10571889D01*
X734467Y-10571889D02*
X724943Y-10533793D01*
X724943Y-10533793D02*
X724943Y-10486174D01*
X724943Y-10486174D02*
X734467Y-10448079D01*
X734467Y-10448079D02*
X743991Y-10429031D01*
X743991Y-10429031D02*
X753515Y-10419508D01*
X753515Y-10419508D02*
X772562Y-10409984D01*
X963039Y-10409984D02*
X982086Y-10409984D01*
X982086Y-10409984D02*
X1001134Y-10419508D01*
X1001134Y-10419508D02*
X1010658Y-10429031D01*
X1010658Y-10429031D02*
X1020182Y-10448079D01*
X1020182Y-10448079D02*
X1029705Y-10486174D01*
X1029705Y-10486174D02*
X1029705Y-10533793D01*
X1029705Y-10533793D02*
X1020182Y-10571889D01*
X1020182Y-10571889D02*
X1010658Y-10590936D01*
X1010658Y-10590936D02*
X1001134Y-10600460D01*
X1001134Y-10600460D02*
X982086Y-10609984D01*
X982086Y-10609984D02*
X963039Y-10609984D01*
X963039Y-10609984D02*
X943991Y-10600460D01*
X943991Y-10600460D02*
X934467Y-10590936D01*
X934467Y-10590936D02*
X924943Y-10571889D01*
X924943Y-10571889D02*
X915420Y-10533793D01*
X915420Y-10533793D02*
X915420Y-10486174D01*
X915420Y-10486174D02*
X924943Y-10448079D01*
X924943Y-10448079D02*
X934467Y-10429031D01*
X934467Y-10429031D02*
X943991Y-10419508D01*
X943991Y-10419508D02*
X963039Y-10409984D01*
X1115420Y-10609984D02*
X1115420Y-10476650D01*
X1115420Y-10495698D02*
X1124944Y-10486174D01*
X1124944Y-10486174D02*
X1143991Y-10476650D01*
X1143991Y-10476650D02*
X1172563Y-10476650D01*
X1172563Y-10476650D02*
X1191610Y-10486174D01*
X1191610Y-10486174D02*
X1201134Y-10505222D01*
X1201134Y-10505222D02*
X1201134Y-10609984D01*
X1201134Y-10505222D02*
X1210658Y-10486174D01*
X1210658Y-10486174D02*
X1229705Y-10476650D01*
X1229705Y-10476650D02*
X1258277Y-10476650D01*
X1258277Y-10476650D02*
X1277325Y-10486174D01*
X1277325Y-10486174D02*
X1286848Y-10505222D01*
X1286848Y-10505222D02*
X1286848Y-10609984D01*
X1382086Y-10609984D02*
X1382086Y-10476650D01*
X1382086Y-10495698D02*
X1391610Y-10486174D01*
X1391610Y-10486174D02*
X1410658Y-10476650D01*
X1410658Y-10476650D02*
X1439229Y-10476650D01*
X1439229Y-10476650D02*
X1458277Y-10486174D01*
X1458277Y-10486174D02*
X1467801Y-10505222D01*
X1467801Y-10505222D02*
X1467801Y-10609984D01*
X1467801Y-10505222D02*
X1477324Y-10486174D01*
X1477324Y-10486174D02*
X1496372Y-10476650D01*
X1496372Y-10476650D02*
X1524943Y-10476650D01*
X1524943Y-10476650D02*
X1543991Y-10486174D01*
X1543991Y-10486174D02*
X1553515Y-10505222D01*
X1553515Y-10505222D02*
X1553515Y-10609984D01*
X1943991Y-10400460D02*
X1772563Y-10657603D01*
X2201134Y-10409984D02*
X2220182Y-10409984D01*
X2220182Y-10409984D02*
X2239229Y-10419508D01*
X2239229Y-10419508D02*
X2248753Y-10429031D01*
X2248753Y-10429031D02*
X2258277Y-10448079D01*
X2258277Y-10448079D02*
X2267801Y-10486174D01*
X2267801Y-10486174D02*
X2267801Y-10533793D01*
X2267801Y-10533793D02*
X2258277Y-10571889D01*
X2258277Y-10571889D02*
X2248753Y-10590936D01*
X2248753Y-10590936D02*
X2239229Y-10600460D01*
X2239229Y-10600460D02*
X2220182Y-10609984D01*
X2220182Y-10609984D02*
X2201134Y-10609984D01*
X2201134Y-10609984D02*
X2182087Y-10600460D01*
X2182087Y-10600460D02*
X2172563Y-10590936D01*
X2172563Y-10590936D02*
X2163039Y-10571889D01*
X2163039Y-10571889D02*
X2153515Y-10533793D01*
X2153515Y-10533793D02*
X2153515Y-10486174D01*
X2153515Y-10486174D02*
X2163039Y-10448079D01*
X2163039Y-10448079D02*
X2172563Y-10429031D01*
X2172563Y-10429031D02*
X2182087Y-10419508D01*
X2182087Y-10419508D02*
X2201134Y-10409984D01*
X2353515Y-10590936D02*
X2363039Y-10600460D01*
X2363039Y-10600460D02*
X2353515Y-10609984D01*
X2353515Y-10609984D02*
X2343991Y-10600460D01*
X2343991Y-10600460D02*
X2353515Y-10590936D01*
X2353515Y-10590936D02*
X2353515Y-10609984D01*
X2486848Y-10409984D02*
X2505896Y-10409984D01*
X2505896Y-10409984D02*
X2524944Y-10419508D01*
X2524944Y-10419508D02*
X2534468Y-10429031D01*
X2534468Y-10429031D02*
X2543991Y-10448079D01*
X2543991Y-10448079D02*
X2553515Y-10486174D01*
X2553515Y-10486174D02*
X2553515Y-10533793D01*
X2553515Y-10533793D02*
X2543991Y-10571889D01*
X2543991Y-10571889D02*
X2534468Y-10590936D01*
X2534468Y-10590936D02*
X2524944Y-10600460D01*
X2524944Y-10600460D02*
X2505896Y-10609984D01*
X2505896Y-10609984D02*
X2486848Y-10609984D01*
X2486848Y-10609984D02*
X2467801Y-10600460D01*
X2467801Y-10600460D02*
X2458277Y-10590936D01*
X2458277Y-10590936D02*
X2448753Y-10571889D01*
X2448753Y-10571889D02*
X2439229Y-10533793D01*
X2439229Y-10533793D02*
X2439229Y-10486174D01*
X2439229Y-10486174D02*
X2448753Y-10448079D01*
X2448753Y-10448079D02*
X2458277Y-10429031D01*
X2458277Y-10429031D02*
X2467801Y-10419508D01*
X2467801Y-10419508D02*
X2486848Y-10409984D01*
X2743991Y-10609984D02*
X2629706Y-10609984D01*
X2686848Y-10609984D02*
X2686848Y-10409984D01*
X2686848Y-10409984D02*
X2667801Y-10438555D01*
X2667801Y-10438555D02*
X2648753Y-10457603D01*
X2648753Y-10457603D02*
X2629706Y-10467127D01*
X2839229Y-10609984D02*
X2877325Y-10609984D01*
X2877325Y-10609984D02*
X2896372Y-10600460D01*
X2896372Y-10600460D02*
X2905896Y-10590936D01*
X2905896Y-10590936D02*
X2924944Y-10562365D01*
X2924944Y-10562365D02*
X2934467Y-10524270D01*
X2934467Y-10524270D02*
X2934467Y-10448079D01*
X2934467Y-10448079D02*
X2924944Y-10429031D01*
X2924944Y-10429031D02*
X2915420Y-10419508D01*
X2915420Y-10419508D02*
X2896372Y-10409984D01*
X2896372Y-10409984D02*
X2858277Y-10409984D01*
X2858277Y-10409984D02*
X2839229Y-10419508D01*
X2839229Y-10419508D02*
X2829706Y-10429031D01*
X2829706Y-10429031D02*
X2820182Y-10448079D01*
X2820182Y-10448079D02*
X2820182Y-10495698D01*
X2820182Y-10495698D02*
X2829706Y-10514746D01*
X2829706Y-10514746D02*
X2839229Y-10524270D01*
X2839229Y-10524270D02*
X2858277Y-10533793D01*
X2858277Y-10533793D02*
X2896372Y-10533793D01*
X2896372Y-10533793D02*
X2915420Y-10524270D01*
X2915420Y-10524270D02*
X2924944Y-10514746D01*
X2924944Y-10514746D02*
X2934467Y-10495698D01*
X3001134Y-10409984D02*
X3134467Y-10409984D01*
X3134467Y-10409984D02*
X3048753Y-10609984D01*
X3201134Y-10409984D02*
X3201134Y-10448079D01*
X3277325Y-10409984D02*
X3277325Y-10448079D01*
X3572563Y-10686174D02*
X3563039Y-10676650D01*
X3563039Y-10676650D02*
X3543991Y-10648079D01*
X3543991Y-10648079D02*
X3534468Y-10629031D01*
X3534468Y-10629031D02*
X3524944Y-10600460D01*
X3524944Y-10600460D02*
X3515420Y-10552841D01*
X3515420Y-10552841D02*
X3515420Y-10514746D01*
X3515420Y-10514746D02*
X3524944Y-10467127D01*
X3524944Y-10467127D02*
X3534468Y-10438555D01*
X3534468Y-10438555D02*
X3543991Y-10419508D01*
X3543991Y-10419508D02*
X3563039Y-10390936D01*
X3563039Y-10390936D02*
X3572563Y-10381412D01*
X3639229Y-10429031D02*
X3648753Y-10419508D01*
X3648753Y-10419508D02*
X3667801Y-10409984D01*
X3667801Y-10409984D02*
X3715420Y-10409984D01*
X3715420Y-10409984D02*
X3734468Y-10419508D01*
X3734468Y-10419508D02*
X3743991Y-10429031D01*
X3743991Y-10429031D02*
X3753515Y-10448079D01*
X3753515Y-10448079D02*
X3753515Y-10467127D01*
X3753515Y-10467127D02*
X3743991Y-10495698D01*
X3743991Y-10495698D02*
X3629706Y-10609984D01*
X3629706Y-10609984D02*
X3753515Y-10609984D01*
X3991610Y-10609984D02*
X3991610Y-10409984D01*
X4077325Y-10609984D02*
X4077325Y-10505222D01*
X4077325Y-10505222D02*
X4067801Y-10486174D01*
X4067801Y-10486174D02*
X4048753Y-10476650D01*
X4048753Y-10476650D02*
X4020182Y-10476650D01*
X4020182Y-10476650D02*
X4001134Y-10486174D01*
X4001134Y-10486174D02*
X3991610Y-10495698D01*
X4201134Y-10609984D02*
X4182087Y-10600460D01*
X4182087Y-10600460D02*
X4172563Y-10590936D01*
X4172563Y-10590936D02*
X4163039Y-10571889D01*
X4163039Y-10571889D02*
X4163039Y-10514746D01*
X4163039Y-10514746D02*
X4172563Y-10495698D01*
X4172563Y-10495698D02*
X4182087Y-10486174D01*
X4182087Y-10486174D02*
X4201134Y-10476650D01*
X4201134Y-10476650D02*
X4229706Y-10476650D01*
X4229706Y-10476650D02*
X4248753Y-10486174D01*
X4248753Y-10486174D02*
X4258277Y-10495698D01*
X4258277Y-10495698D02*
X4267801Y-10514746D01*
X4267801Y-10514746D02*
X4267801Y-10571889D01*
X4267801Y-10571889D02*
X4258277Y-10590936D01*
X4258277Y-10590936D02*
X4248753Y-10600460D01*
X4248753Y-10600460D02*
X4229706Y-10609984D01*
X4229706Y-10609984D02*
X4201134Y-10609984D01*
X4382087Y-10609984D02*
X4363039Y-10600460D01*
X4363039Y-10600460D02*
X4353515Y-10581412D01*
X4353515Y-10581412D02*
X4353515Y-10409984D01*
X4534468Y-10600460D02*
X4515420Y-10609984D01*
X4515420Y-10609984D02*
X4477325Y-10609984D01*
X4477325Y-10609984D02*
X4458277Y-10600460D01*
X4458277Y-10600460D02*
X4448753Y-10581412D01*
X4448753Y-10581412D02*
X4448753Y-10505222D01*
X4448753Y-10505222D02*
X4458277Y-10486174D01*
X4458277Y-10486174D02*
X4477325Y-10476650D01*
X4477325Y-10476650D02*
X4515420Y-10476650D01*
X4515420Y-10476650D02*
X4534468Y-10486174D01*
X4534468Y-10486174D02*
X4543992Y-10505222D01*
X4543992Y-10505222D02*
X4543992Y-10524270D01*
X4543992Y-10524270D02*
X4448753Y-10543317D01*
X4620182Y-10600460D02*
X4639230Y-10609984D01*
X4639230Y-10609984D02*
X4677325Y-10609984D01*
X4677325Y-10609984D02*
X4696373Y-10600460D01*
X4696373Y-10600460D02*
X4705896Y-10581412D01*
X4705896Y-10581412D02*
X4705896Y-10571889D01*
X4705896Y-10571889D02*
X4696373Y-10552841D01*
X4696373Y-10552841D02*
X4677325Y-10543317D01*
X4677325Y-10543317D02*
X4648753Y-10543317D01*
X4648753Y-10543317D02*
X4629706Y-10533793D01*
X4629706Y-10533793D02*
X4620182Y-10514746D01*
X4620182Y-10514746D02*
X4620182Y-10505222D01*
X4620182Y-10505222D02*
X4629706Y-10486174D01*
X4629706Y-10486174D02*
X4648753Y-10476650D01*
X4648753Y-10476650D02*
X4677325Y-10476650D01*
X4677325Y-10476650D02*
X4696373Y-10486174D01*
X4772563Y-10686174D02*
X4782087Y-10676650D01*
X4782087Y-10676650D02*
X4801134Y-10648079D01*
X4801134Y-10648079D02*
X4810658Y-10629031D01*
X4810658Y-10629031D02*
X4820182Y-10600460D01*
X4820182Y-10600460D02*
X4829706Y-10552841D01*
X4829706Y-10552841D02*
X4829706Y-10514746D01*
X4829706Y-10514746D02*
X4820182Y-10467127D01*
X4820182Y-10467127D02*
X4810658Y-10438555D01*
X4810658Y-10438555D02*
X4801134Y-10419508D01*
X4801134Y-10419508D02*
X4782087Y-10390936D01*
X4782087Y-10390936D02*
X4772563Y-10381412D01*
X5134468Y-10686174D02*
X5124944Y-10676650D01*
X5124944Y-10676650D02*
X5105896Y-10648079D01*
X5105896Y-10648079D02*
X5096373Y-10629031D01*
X5096373Y-10629031D02*
X5086849Y-10600460D01*
X5086849Y-10600460D02*
X5077325Y-10552841D01*
X5077325Y-10552841D02*
X5077325Y-10514746D01*
X5077325Y-10514746D02*
X5086849Y-10467127D01*
X5086849Y-10467127D02*
X5096373Y-10438555D01*
X5096373Y-10438555D02*
X5105896Y-10419508D01*
X5105896Y-10419508D02*
X5124944Y-10390936D01*
X5124944Y-10390936D02*
X5134468Y-10381412D01*
X5210658Y-10476650D02*
X5210658Y-10609984D01*
X5210658Y-10495698D02*
X5220182Y-10486174D01*
X5220182Y-10486174D02*
X5239230Y-10476650D01*
X5239230Y-10476650D02*
X5267801Y-10476650D01*
X5267801Y-10476650D02*
X5286849Y-10486174D01*
X5286849Y-10486174D02*
X5296373Y-10505222D01*
X5296373Y-10505222D02*
X5296373Y-10609984D01*
X5420182Y-10609984D02*
X5401134Y-10600460D01*
X5401134Y-10600460D02*
X5391611Y-10590936D01*
X5391611Y-10590936D02*
X5382087Y-10571889D01*
X5382087Y-10571889D02*
X5382087Y-10514746D01*
X5382087Y-10514746D02*
X5391611Y-10495698D01*
X5391611Y-10495698D02*
X5401134Y-10486174D01*
X5401134Y-10486174D02*
X5420182Y-10476650D01*
X5420182Y-10476650D02*
X5448754Y-10476650D01*
X5448754Y-10476650D02*
X5467801Y-10486174D01*
X5467801Y-10486174D02*
X5477325Y-10495698D01*
X5477325Y-10495698D02*
X5486849Y-10514746D01*
X5486849Y-10514746D02*
X5486849Y-10571889D01*
X5486849Y-10571889D02*
X5477325Y-10590936D01*
X5477325Y-10590936D02*
X5467801Y-10600460D01*
X5467801Y-10600460D02*
X5448754Y-10609984D01*
X5448754Y-10609984D02*
X5420182Y-10609984D01*
X5543992Y-10476650D02*
X5620182Y-10476650D01*
X5572563Y-10409984D02*
X5572563Y-10581412D01*
X5572563Y-10581412D02*
X5582087Y-10600460D01*
X5582087Y-10600460D02*
X5601134Y-10609984D01*
X5601134Y-10609984D02*
X5620182Y-10609984D01*
X5839230Y-10476650D02*
X5839230Y-10676650D01*
X5839230Y-10486174D02*
X5858277Y-10476650D01*
X5858277Y-10476650D02*
X5896373Y-10476650D01*
X5896373Y-10476650D02*
X5915420Y-10486174D01*
X5915420Y-10486174D02*
X5924944Y-10495698D01*
X5924944Y-10495698D02*
X5934468Y-10514746D01*
X5934468Y-10514746D02*
X5934468Y-10571889D01*
X5934468Y-10571889D02*
X5924944Y-10590936D01*
X5924944Y-10590936D02*
X5915420Y-10600460D01*
X5915420Y-10600460D02*
X5896373Y-10609984D01*
X5896373Y-10609984D02*
X5858277Y-10609984D01*
X5858277Y-10609984D02*
X5839230Y-10600460D01*
X6048753Y-10609984D02*
X6029706Y-10600460D01*
X6029706Y-10600460D02*
X6020182Y-10581412D01*
X6020182Y-10581412D02*
X6020182Y-10409984D01*
X6210658Y-10609984D02*
X6210658Y-10505222D01*
X6210658Y-10505222D02*
X6201134Y-10486174D01*
X6201134Y-10486174D02*
X6182087Y-10476650D01*
X6182087Y-10476650D02*
X6143992Y-10476650D01*
X6143992Y-10476650D02*
X6124944Y-10486174D01*
X6210658Y-10600460D02*
X6191611Y-10609984D01*
X6191611Y-10609984D02*
X6143992Y-10609984D01*
X6143992Y-10609984D02*
X6124944Y-10600460D01*
X6124944Y-10600460D02*
X6115420Y-10581412D01*
X6115420Y-10581412D02*
X6115420Y-10562365D01*
X6115420Y-10562365D02*
X6124944Y-10543317D01*
X6124944Y-10543317D02*
X6143992Y-10533793D01*
X6143992Y-10533793D02*
X6191611Y-10533793D01*
X6191611Y-10533793D02*
X6210658Y-10524270D01*
X6277325Y-10476650D02*
X6353515Y-10476650D01*
X6305896Y-10409984D02*
X6305896Y-10581412D01*
X6305896Y-10581412D02*
X6315420Y-10600460D01*
X6315420Y-10600460D02*
X6334468Y-10609984D01*
X6334468Y-10609984D02*
X6353515Y-10609984D01*
X6496373Y-10600460D02*
X6477325Y-10609984D01*
X6477325Y-10609984D02*
X6439230Y-10609984D01*
X6439230Y-10609984D02*
X6420182Y-10600460D01*
X6420182Y-10600460D02*
X6410658Y-10581412D01*
X6410658Y-10581412D02*
X6410658Y-10505222D01*
X6410658Y-10505222D02*
X6420182Y-10486174D01*
X6420182Y-10486174D02*
X6439230Y-10476650D01*
X6439230Y-10476650D02*
X6477325Y-10476650D01*
X6477325Y-10476650D02*
X6496373Y-10486174D01*
X6496373Y-10486174D02*
X6505896Y-10505222D01*
X6505896Y-10505222D02*
X6505896Y-10524270D01*
X6505896Y-10524270D02*
X6410658Y-10543317D01*
X6677325Y-10609984D02*
X6677325Y-10409984D01*
X6677325Y-10600460D02*
X6658277Y-10609984D01*
X6658277Y-10609984D02*
X6620182Y-10609984D01*
X6620182Y-10609984D02*
X6601134Y-10600460D01*
X6601134Y-10600460D02*
X6591611Y-10590936D01*
X6591611Y-10590936D02*
X6582087Y-10571889D01*
X6582087Y-10571889D02*
X6582087Y-10514746D01*
X6582087Y-10514746D02*
X6591611Y-10495698D01*
X6591611Y-10495698D02*
X6601134Y-10486174D01*
X6601134Y-10486174D02*
X6620182Y-10476650D01*
X6620182Y-10476650D02*
X6658277Y-10476650D01*
X6658277Y-10476650D02*
X6677325Y-10486174D01*
X6753515Y-10686174D02*
X6763039Y-10676650D01*
X6763039Y-10676650D02*
X6782087Y-10648079D01*
X6782087Y-10648079D02*
X6791611Y-10629031D01*
X6791611Y-10629031D02*
X6801134Y-10600460D01*
X6801134Y-10600460D02*
X6810658Y-10552841D01*
X6810658Y-10552841D02*
X6810658Y-10514746D01*
X6810658Y-10514746D02*
X6801134Y-10467127D01*
X6801134Y-10467127D02*
X6791611Y-10438555D01*
X6791611Y-10438555D02*
X6782087Y-10419508D01*
X6782087Y-10419508D02*
X6763039Y-10390936D01*
X6763039Y-10390936D02*
X6753515Y-10381412D01*
X-31789Y-10853211D02*
X-31789Y-10711789D01*
X-173211Y-10711789D01*
X-173211Y-10853211D01*
X-31789Y-10853211D01*
X-2500Y-10782500D02*
G75*
G02*
X-202500Y-10782500I-100000J0D01*
G01*
X-202500Y-10782500D02*
G75*
G02*
X-2500Y-10782500I100000J0D01*
G01*
X248753Y-10693031D02*
X258277Y-10683508D01*
X258277Y-10683508D02*
X277324Y-10673984D01*
X277324Y-10673984D02*
X324944Y-10673984D01*
X324944Y-10673984D02*
X343991Y-10683508D01*
X343991Y-10683508D02*
X353515Y-10693031D01*
X353515Y-10693031D02*
X363039Y-10712079D01*
X363039Y-10712079D02*
X363039Y-10731127D01*
X363039Y-10731127D02*
X353515Y-10759698D01*
X353515Y-10759698D02*
X239229Y-10873984D01*
X239229Y-10873984D02*
X363039Y-10873984D01*
X448753Y-10854936D02*
X458277Y-10864460D01*
X458277Y-10864460D02*
X448753Y-10873984D01*
X448753Y-10873984D02*
X439229Y-10864460D01*
X439229Y-10864460D02*
X448753Y-10854936D01*
X448753Y-10854936D02*
X448753Y-10873984D01*
X639229Y-10673984D02*
X543991Y-10673984D01*
X543991Y-10673984D02*
X534467Y-10769222D01*
X534467Y-10769222D02*
X543991Y-10759698D01*
X543991Y-10759698D02*
X563039Y-10750174D01*
X563039Y-10750174D02*
X610658Y-10750174D01*
X610658Y-10750174D02*
X629705Y-10759698D01*
X629705Y-10759698D02*
X639229Y-10769222D01*
X639229Y-10769222D02*
X648753Y-10788270D01*
X648753Y-10788270D02*
X648753Y-10835889D01*
X648753Y-10835889D02*
X639229Y-10854936D01*
X639229Y-10854936D02*
X629705Y-10864460D01*
X629705Y-10864460D02*
X610658Y-10873984D01*
X610658Y-10873984D02*
X563039Y-10873984D01*
X563039Y-10873984D02*
X543991Y-10864460D01*
X543991Y-10864460D02*
X534467Y-10854936D01*
X772562Y-10673984D02*
X791610Y-10673984D01*
X791610Y-10673984D02*
X810658Y-10683508D01*
X810658Y-10683508D02*
X820182Y-10693031D01*
X820182Y-10693031D02*
X829705Y-10712079D01*
X829705Y-10712079D02*
X839229Y-10750174D01*
X839229Y-10750174D02*
X839229Y-10797793D01*
X839229Y-10797793D02*
X829705Y-10835889D01*
X829705Y-10835889D02*
X820182Y-10854936D01*
X820182Y-10854936D02*
X810658Y-10864460D01*
X810658Y-10864460D02*
X791610Y-10873984D01*
X791610Y-10873984D02*
X772562Y-10873984D01*
X772562Y-10873984D02*
X753515Y-10864460D01*
X753515Y-10864460D02*
X743991Y-10854936D01*
X743991Y-10854936D02*
X734467Y-10835889D01*
X734467Y-10835889D02*
X724943Y-10797793D01*
X724943Y-10797793D02*
X724943Y-10750174D01*
X724943Y-10750174D02*
X734467Y-10712079D01*
X734467Y-10712079D02*
X743991Y-10693031D01*
X743991Y-10693031D02*
X753515Y-10683508D01*
X753515Y-10683508D02*
X772562Y-10673984D01*
X963039Y-10673984D02*
X982086Y-10673984D01*
X982086Y-10673984D02*
X1001134Y-10683508D01*
X1001134Y-10683508D02*
X1010658Y-10693031D01*
X1010658Y-10693031D02*
X1020182Y-10712079D01*
X1020182Y-10712079D02*
X1029705Y-10750174D01*
X1029705Y-10750174D02*
X1029705Y-10797793D01*
X1029705Y-10797793D02*
X1020182Y-10835889D01*
X1020182Y-10835889D02*
X1010658Y-10854936D01*
X1010658Y-10854936D02*
X1001134Y-10864460D01*
X1001134Y-10864460D02*
X982086Y-10873984D01*
X982086Y-10873984D02*
X963039Y-10873984D01*
X963039Y-10873984D02*
X943991Y-10864460D01*
X943991Y-10864460D02*
X934467Y-10854936D01*
X934467Y-10854936D02*
X924943Y-10835889D01*
X924943Y-10835889D02*
X915420Y-10797793D01*
X915420Y-10797793D02*
X915420Y-10750174D01*
X915420Y-10750174D02*
X924943Y-10712079D01*
X924943Y-10712079D02*
X934467Y-10693031D01*
X934467Y-10693031D02*
X943991Y-10683508D01*
X943991Y-10683508D02*
X963039Y-10673984D01*
X1115420Y-10873984D02*
X1115420Y-10740650D01*
X1115420Y-10759698D02*
X1124944Y-10750174D01*
X1124944Y-10750174D02*
X1143991Y-10740650D01*
X1143991Y-10740650D02*
X1172563Y-10740650D01*
X1172563Y-10740650D02*
X1191610Y-10750174D01*
X1191610Y-10750174D02*
X1201134Y-10769222D01*
X1201134Y-10769222D02*
X1201134Y-10873984D01*
X1201134Y-10769222D02*
X1210658Y-10750174D01*
X1210658Y-10750174D02*
X1229705Y-10740650D01*
X1229705Y-10740650D02*
X1258277Y-10740650D01*
X1258277Y-10740650D02*
X1277325Y-10750174D01*
X1277325Y-10750174D02*
X1286848Y-10769222D01*
X1286848Y-10769222D02*
X1286848Y-10873984D01*
X1382086Y-10873984D02*
X1382086Y-10740650D01*
X1382086Y-10759698D02*
X1391610Y-10750174D01*
X1391610Y-10750174D02*
X1410658Y-10740650D01*
X1410658Y-10740650D02*
X1439229Y-10740650D01*
X1439229Y-10740650D02*
X1458277Y-10750174D01*
X1458277Y-10750174D02*
X1467801Y-10769222D01*
X1467801Y-10769222D02*
X1467801Y-10873984D01*
X1467801Y-10769222D02*
X1477324Y-10750174D01*
X1477324Y-10750174D02*
X1496372Y-10740650D01*
X1496372Y-10740650D02*
X1524943Y-10740650D01*
X1524943Y-10740650D02*
X1543991Y-10750174D01*
X1543991Y-10750174D02*
X1553515Y-10769222D01*
X1553515Y-10769222D02*
X1553515Y-10873984D01*
X1943991Y-10664460D02*
X1772563Y-10921603D01*
X2201134Y-10673984D02*
X2220182Y-10673984D01*
X2220182Y-10673984D02*
X2239229Y-10683508D01*
X2239229Y-10683508D02*
X2248753Y-10693031D01*
X2248753Y-10693031D02*
X2258277Y-10712079D01*
X2258277Y-10712079D02*
X2267801Y-10750174D01*
X2267801Y-10750174D02*
X2267801Y-10797793D01*
X2267801Y-10797793D02*
X2258277Y-10835889D01*
X2258277Y-10835889D02*
X2248753Y-10854936D01*
X2248753Y-10854936D02*
X2239229Y-10864460D01*
X2239229Y-10864460D02*
X2220182Y-10873984D01*
X2220182Y-10873984D02*
X2201134Y-10873984D01*
X2201134Y-10873984D02*
X2182087Y-10864460D01*
X2182087Y-10864460D02*
X2172563Y-10854936D01*
X2172563Y-10854936D02*
X2163039Y-10835889D01*
X2163039Y-10835889D02*
X2153515Y-10797793D01*
X2153515Y-10797793D02*
X2153515Y-10750174D01*
X2153515Y-10750174D02*
X2163039Y-10712079D01*
X2163039Y-10712079D02*
X2172563Y-10693031D01*
X2172563Y-10693031D02*
X2182087Y-10683508D01*
X2182087Y-10683508D02*
X2201134Y-10673984D01*
X2353515Y-10854936D02*
X2363039Y-10864460D01*
X2363039Y-10864460D02*
X2353515Y-10873984D01*
X2353515Y-10873984D02*
X2343991Y-10864460D01*
X2343991Y-10864460D02*
X2353515Y-10854936D01*
X2353515Y-10854936D02*
X2353515Y-10873984D01*
X2486848Y-10673984D02*
X2505896Y-10673984D01*
X2505896Y-10673984D02*
X2524944Y-10683508D01*
X2524944Y-10683508D02*
X2534468Y-10693031D01*
X2534468Y-10693031D02*
X2543991Y-10712079D01*
X2543991Y-10712079D02*
X2553515Y-10750174D01*
X2553515Y-10750174D02*
X2553515Y-10797793D01*
X2553515Y-10797793D02*
X2543991Y-10835889D01*
X2543991Y-10835889D02*
X2534468Y-10854936D01*
X2534468Y-10854936D02*
X2524944Y-10864460D01*
X2524944Y-10864460D02*
X2505896Y-10873984D01*
X2505896Y-10873984D02*
X2486848Y-10873984D01*
X2486848Y-10873984D02*
X2467801Y-10864460D01*
X2467801Y-10864460D02*
X2458277Y-10854936D01*
X2458277Y-10854936D02*
X2448753Y-10835889D01*
X2448753Y-10835889D02*
X2439229Y-10797793D01*
X2439229Y-10797793D02*
X2439229Y-10750174D01*
X2439229Y-10750174D02*
X2448753Y-10712079D01*
X2448753Y-10712079D02*
X2458277Y-10693031D01*
X2458277Y-10693031D02*
X2467801Y-10683508D01*
X2467801Y-10683508D02*
X2486848Y-10673984D01*
X2648753Y-10873984D02*
X2686848Y-10873984D01*
X2686848Y-10873984D02*
X2705896Y-10864460D01*
X2705896Y-10864460D02*
X2715420Y-10854936D01*
X2715420Y-10854936D02*
X2734468Y-10826365D01*
X2734468Y-10826365D02*
X2743991Y-10788270D01*
X2743991Y-10788270D02*
X2743991Y-10712079D01*
X2743991Y-10712079D02*
X2734468Y-10693031D01*
X2734468Y-10693031D02*
X2724944Y-10683508D01*
X2724944Y-10683508D02*
X2705896Y-10673984D01*
X2705896Y-10673984D02*
X2667801Y-10673984D01*
X2667801Y-10673984D02*
X2648753Y-10683508D01*
X2648753Y-10683508D02*
X2639229Y-10693031D01*
X2639229Y-10693031D02*
X2629706Y-10712079D01*
X2629706Y-10712079D02*
X2629706Y-10759698D01*
X2629706Y-10759698D02*
X2639229Y-10778746D01*
X2639229Y-10778746D02*
X2648753Y-10788270D01*
X2648753Y-10788270D02*
X2667801Y-10797793D01*
X2667801Y-10797793D02*
X2705896Y-10797793D01*
X2705896Y-10797793D02*
X2724944Y-10788270D01*
X2724944Y-10788270D02*
X2734468Y-10778746D01*
X2734468Y-10778746D02*
X2743991Y-10759698D01*
X2858277Y-10759698D02*
X2839229Y-10750174D01*
X2839229Y-10750174D02*
X2829706Y-10740650D01*
X2829706Y-10740650D02*
X2820182Y-10721603D01*
X2820182Y-10721603D02*
X2820182Y-10712079D01*
X2820182Y-10712079D02*
X2829706Y-10693031D01*
X2829706Y-10693031D02*
X2839229Y-10683508D01*
X2839229Y-10683508D02*
X2858277Y-10673984D01*
X2858277Y-10673984D02*
X2896372Y-10673984D01*
X2896372Y-10673984D02*
X2915420Y-10683508D01*
X2915420Y-10683508D02*
X2924944Y-10693031D01*
X2924944Y-10693031D02*
X2934467Y-10712079D01*
X2934467Y-10712079D02*
X2934467Y-10721603D01*
X2934467Y-10721603D02*
X2924944Y-10740650D01*
X2924944Y-10740650D02*
X2915420Y-10750174D01*
X2915420Y-10750174D02*
X2896372Y-10759698D01*
X2896372Y-10759698D02*
X2858277Y-10759698D01*
X2858277Y-10759698D02*
X2839229Y-10769222D01*
X2839229Y-10769222D02*
X2829706Y-10778746D01*
X2829706Y-10778746D02*
X2820182Y-10797793D01*
X2820182Y-10797793D02*
X2820182Y-10835889D01*
X2820182Y-10835889D02*
X2829706Y-10854936D01*
X2829706Y-10854936D02*
X2839229Y-10864460D01*
X2839229Y-10864460D02*
X2858277Y-10873984D01*
X2858277Y-10873984D02*
X2896372Y-10873984D01*
X2896372Y-10873984D02*
X2915420Y-10864460D01*
X2915420Y-10864460D02*
X2924944Y-10854936D01*
X2924944Y-10854936D02*
X2934467Y-10835889D01*
X2934467Y-10835889D02*
X2934467Y-10797793D01*
X2934467Y-10797793D02*
X2924944Y-10778746D01*
X2924944Y-10778746D02*
X2915420Y-10769222D01*
X2915420Y-10769222D02*
X2896372Y-10759698D01*
X3105896Y-10740650D02*
X3105896Y-10873984D01*
X3058277Y-10664460D02*
X3010658Y-10807317D01*
X3010658Y-10807317D02*
X3134467Y-10807317D01*
X3201134Y-10673984D02*
X3201134Y-10712079D01*
X3277325Y-10673984D02*
X3277325Y-10712079D01*
X3572563Y-10950174D02*
X3563039Y-10940650D01*
X3563039Y-10940650D02*
X3543991Y-10912079D01*
X3543991Y-10912079D02*
X3534468Y-10893031D01*
X3534468Y-10893031D02*
X3524944Y-10864460D01*
X3524944Y-10864460D02*
X3515420Y-10816841D01*
X3515420Y-10816841D02*
X3515420Y-10778746D01*
X3515420Y-10778746D02*
X3524944Y-10731127D01*
X3524944Y-10731127D02*
X3534468Y-10702555D01*
X3534468Y-10702555D02*
X3543991Y-10683508D01*
X3543991Y-10683508D02*
X3563039Y-10654936D01*
X3563039Y-10654936D02*
X3572563Y-10645412D01*
X3734468Y-10673984D02*
X3696372Y-10673984D01*
X3696372Y-10673984D02*
X3677325Y-10683508D01*
X3677325Y-10683508D02*
X3667801Y-10693031D01*
X3667801Y-10693031D02*
X3648753Y-10721603D01*
X3648753Y-10721603D02*
X3639229Y-10759698D01*
X3639229Y-10759698D02*
X3639229Y-10835889D01*
X3639229Y-10835889D02*
X3648753Y-10854936D01*
X3648753Y-10854936D02*
X3658277Y-10864460D01*
X3658277Y-10864460D02*
X3677325Y-10873984D01*
X3677325Y-10873984D02*
X3715420Y-10873984D01*
X3715420Y-10873984D02*
X3734468Y-10864460D01*
X3734468Y-10864460D02*
X3743991Y-10854936D01*
X3743991Y-10854936D02*
X3753515Y-10835889D01*
X3753515Y-10835889D02*
X3753515Y-10788270D01*
X3753515Y-10788270D02*
X3743991Y-10769222D01*
X3743991Y-10769222D02*
X3734468Y-10759698D01*
X3734468Y-10759698D02*
X3715420Y-10750174D01*
X3715420Y-10750174D02*
X3677325Y-10750174D01*
X3677325Y-10750174D02*
X3658277Y-10759698D01*
X3658277Y-10759698D02*
X3648753Y-10769222D01*
X3648753Y-10769222D02*
X3639229Y-10788270D01*
X3991610Y-10873984D02*
X3991610Y-10673984D01*
X4077325Y-10873984D02*
X4077325Y-10769222D01*
X4077325Y-10769222D02*
X4067801Y-10750174D01*
X4067801Y-10750174D02*
X4048753Y-10740650D01*
X4048753Y-10740650D02*
X4020182Y-10740650D01*
X4020182Y-10740650D02*
X4001134Y-10750174D01*
X4001134Y-10750174D02*
X3991610Y-10759698D01*
X4201134Y-10873984D02*
X4182087Y-10864460D01*
X4182087Y-10864460D02*
X4172563Y-10854936D01*
X4172563Y-10854936D02*
X4163039Y-10835889D01*
X4163039Y-10835889D02*
X4163039Y-10778746D01*
X4163039Y-10778746D02*
X4172563Y-10759698D01*
X4172563Y-10759698D02*
X4182087Y-10750174D01*
X4182087Y-10750174D02*
X4201134Y-10740650D01*
X4201134Y-10740650D02*
X4229706Y-10740650D01*
X4229706Y-10740650D02*
X4248753Y-10750174D01*
X4248753Y-10750174D02*
X4258277Y-10759698D01*
X4258277Y-10759698D02*
X4267801Y-10778746D01*
X4267801Y-10778746D02*
X4267801Y-10835889D01*
X4267801Y-10835889D02*
X4258277Y-10854936D01*
X4258277Y-10854936D02*
X4248753Y-10864460D01*
X4248753Y-10864460D02*
X4229706Y-10873984D01*
X4229706Y-10873984D02*
X4201134Y-10873984D01*
X4382087Y-10873984D02*
X4363039Y-10864460D01*
X4363039Y-10864460D02*
X4353515Y-10845412D01*
X4353515Y-10845412D02*
X4353515Y-10673984D01*
X4534468Y-10864460D02*
X4515420Y-10873984D01*
X4515420Y-10873984D02*
X4477325Y-10873984D01*
X4477325Y-10873984D02*
X4458277Y-10864460D01*
X4458277Y-10864460D02*
X4448753Y-10845412D01*
X4448753Y-10845412D02*
X4448753Y-10769222D01*
X4448753Y-10769222D02*
X4458277Y-10750174D01*
X4458277Y-10750174D02*
X4477325Y-10740650D01*
X4477325Y-10740650D02*
X4515420Y-10740650D01*
X4515420Y-10740650D02*
X4534468Y-10750174D01*
X4534468Y-10750174D02*
X4543992Y-10769222D01*
X4543992Y-10769222D02*
X4543992Y-10788270D01*
X4543992Y-10788270D02*
X4448753Y-10807317D01*
X4620182Y-10864460D02*
X4639230Y-10873984D01*
X4639230Y-10873984D02*
X4677325Y-10873984D01*
X4677325Y-10873984D02*
X4696373Y-10864460D01*
X4696373Y-10864460D02*
X4705896Y-10845412D01*
X4705896Y-10845412D02*
X4705896Y-10835889D01*
X4705896Y-10835889D02*
X4696373Y-10816841D01*
X4696373Y-10816841D02*
X4677325Y-10807317D01*
X4677325Y-10807317D02*
X4648753Y-10807317D01*
X4648753Y-10807317D02*
X4629706Y-10797793D01*
X4629706Y-10797793D02*
X4620182Y-10778746D01*
X4620182Y-10778746D02*
X4620182Y-10769222D01*
X4620182Y-10769222D02*
X4629706Y-10750174D01*
X4629706Y-10750174D02*
X4648753Y-10740650D01*
X4648753Y-10740650D02*
X4677325Y-10740650D01*
X4677325Y-10740650D02*
X4696373Y-10750174D01*
X4772563Y-10950174D02*
X4782087Y-10940650D01*
X4782087Y-10940650D02*
X4801134Y-10912079D01*
X4801134Y-10912079D02*
X4810658Y-10893031D01*
X4810658Y-10893031D02*
X4820182Y-10864460D01*
X4820182Y-10864460D02*
X4829706Y-10816841D01*
X4829706Y-10816841D02*
X4829706Y-10778746D01*
X4829706Y-10778746D02*
X4820182Y-10731127D01*
X4820182Y-10731127D02*
X4810658Y-10702555D01*
X4810658Y-10702555D02*
X4801134Y-10683508D01*
X4801134Y-10683508D02*
X4782087Y-10654936D01*
X4782087Y-10654936D02*
X4772563Y-10645412D01*
X5134468Y-10950174D02*
X5124944Y-10940650D01*
X5124944Y-10940650D02*
X5105896Y-10912079D01*
X5105896Y-10912079D02*
X5096373Y-10893031D01*
X5096373Y-10893031D02*
X5086849Y-10864460D01*
X5086849Y-10864460D02*
X5077325Y-10816841D01*
X5077325Y-10816841D02*
X5077325Y-10778746D01*
X5077325Y-10778746D02*
X5086849Y-10731127D01*
X5086849Y-10731127D02*
X5096373Y-10702555D01*
X5096373Y-10702555D02*
X5105896Y-10683508D01*
X5105896Y-10683508D02*
X5124944Y-10654936D01*
X5124944Y-10654936D02*
X5134468Y-10645412D01*
X5210658Y-10740650D02*
X5210658Y-10873984D01*
X5210658Y-10759698D02*
X5220182Y-10750174D01*
X5220182Y-10750174D02*
X5239230Y-10740650D01*
X5239230Y-10740650D02*
X5267801Y-10740650D01*
X5267801Y-10740650D02*
X5286849Y-10750174D01*
X5286849Y-10750174D02*
X5296373Y-10769222D01*
X5296373Y-10769222D02*
X5296373Y-10873984D01*
X5420182Y-10873984D02*
X5401134Y-10864460D01*
X5401134Y-10864460D02*
X5391611Y-10854936D01*
X5391611Y-10854936D02*
X5382087Y-10835889D01*
X5382087Y-10835889D02*
X5382087Y-10778746D01*
X5382087Y-10778746D02*
X5391611Y-10759698D01*
X5391611Y-10759698D02*
X5401134Y-10750174D01*
X5401134Y-10750174D02*
X5420182Y-10740650D01*
X5420182Y-10740650D02*
X5448754Y-10740650D01*
X5448754Y-10740650D02*
X5467801Y-10750174D01*
X5467801Y-10750174D02*
X5477325Y-10759698D01*
X5477325Y-10759698D02*
X5486849Y-10778746D01*
X5486849Y-10778746D02*
X5486849Y-10835889D01*
X5486849Y-10835889D02*
X5477325Y-10854936D01*
X5477325Y-10854936D02*
X5467801Y-10864460D01*
X5467801Y-10864460D02*
X5448754Y-10873984D01*
X5448754Y-10873984D02*
X5420182Y-10873984D01*
X5543992Y-10740650D02*
X5620182Y-10740650D01*
X5572563Y-10673984D02*
X5572563Y-10845412D01*
X5572563Y-10845412D02*
X5582087Y-10864460D01*
X5582087Y-10864460D02*
X5601134Y-10873984D01*
X5601134Y-10873984D02*
X5620182Y-10873984D01*
X5839230Y-10740650D02*
X5839230Y-10940650D01*
X5839230Y-10750174D02*
X5858277Y-10740650D01*
X5858277Y-10740650D02*
X5896373Y-10740650D01*
X5896373Y-10740650D02*
X5915420Y-10750174D01*
X5915420Y-10750174D02*
X5924944Y-10759698D01*
X5924944Y-10759698D02*
X5934468Y-10778746D01*
X5934468Y-10778746D02*
X5934468Y-10835889D01*
X5934468Y-10835889D02*
X5924944Y-10854936D01*
X5924944Y-10854936D02*
X5915420Y-10864460D01*
X5915420Y-10864460D02*
X5896373Y-10873984D01*
X5896373Y-10873984D02*
X5858277Y-10873984D01*
X5858277Y-10873984D02*
X5839230Y-10864460D01*
X6048753Y-10873984D02*
X6029706Y-10864460D01*
X6029706Y-10864460D02*
X6020182Y-10845412D01*
X6020182Y-10845412D02*
X6020182Y-10673984D01*
X6210658Y-10873984D02*
X6210658Y-10769222D01*
X6210658Y-10769222D02*
X6201134Y-10750174D01*
X6201134Y-10750174D02*
X6182087Y-10740650D01*
X6182087Y-10740650D02*
X6143992Y-10740650D01*
X6143992Y-10740650D02*
X6124944Y-10750174D01*
X6210658Y-10864460D02*
X6191611Y-10873984D01*
X6191611Y-10873984D02*
X6143992Y-10873984D01*
X6143992Y-10873984D02*
X6124944Y-10864460D01*
X6124944Y-10864460D02*
X6115420Y-10845412D01*
X6115420Y-10845412D02*
X6115420Y-10826365D01*
X6115420Y-10826365D02*
X6124944Y-10807317D01*
X6124944Y-10807317D02*
X6143992Y-10797793D01*
X6143992Y-10797793D02*
X6191611Y-10797793D01*
X6191611Y-10797793D02*
X6210658Y-10788270D01*
X6277325Y-10740650D02*
X6353515Y-10740650D01*
X6305896Y-10673984D02*
X6305896Y-10845412D01*
X6305896Y-10845412D02*
X6315420Y-10864460D01*
X6315420Y-10864460D02*
X6334468Y-10873984D01*
X6334468Y-10873984D02*
X6353515Y-10873984D01*
X6496373Y-10864460D02*
X6477325Y-10873984D01*
X6477325Y-10873984D02*
X6439230Y-10873984D01*
X6439230Y-10873984D02*
X6420182Y-10864460D01*
X6420182Y-10864460D02*
X6410658Y-10845412D01*
X6410658Y-10845412D02*
X6410658Y-10769222D01*
X6410658Y-10769222D02*
X6420182Y-10750174D01*
X6420182Y-10750174D02*
X6439230Y-10740650D01*
X6439230Y-10740650D02*
X6477325Y-10740650D01*
X6477325Y-10740650D02*
X6496373Y-10750174D01*
X6496373Y-10750174D02*
X6505896Y-10769222D01*
X6505896Y-10769222D02*
X6505896Y-10788270D01*
X6505896Y-10788270D02*
X6410658Y-10807317D01*
X6677325Y-10873984D02*
X6677325Y-10673984D01*
X6677325Y-10864460D02*
X6658277Y-10873984D01*
X6658277Y-10873984D02*
X6620182Y-10873984D01*
X6620182Y-10873984D02*
X6601134Y-10864460D01*
X6601134Y-10864460D02*
X6591611Y-10854936D01*
X6591611Y-10854936D02*
X6582087Y-10835889D01*
X6582087Y-10835889D02*
X6582087Y-10778746D01*
X6582087Y-10778746D02*
X6591611Y-10759698D01*
X6591611Y-10759698D02*
X6601134Y-10750174D01*
X6601134Y-10750174D02*
X6620182Y-10740650D01*
X6620182Y-10740650D02*
X6658277Y-10740650D01*
X6658277Y-10740650D02*
X6677325Y-10750174D01*
X6753515Y-10950174D02*
X6763039Y-10940650D01*
X6763039Y-10940650D02*
X6782087Y-10912079D01*
X6782087Y-10912079D02*
X6791611Y-10893031D01*
X6791611Y-10893031D02*
X6801134Y-10864460D01*
X6801134Y-10864460D02*
X6810658Y-10816841D01*
X6810658Y-10816841D02*
X6810658Y-10778746D01*
X6810658Y-10778746D02*
X6801134Y-10731127D01*
X6801134Y-10731127D02*
X6791611Y-10702555D01*
X6791611Y-10702555D02*
X6782087Y-10683508D01*
X6782087Y-10683508D02*
X6763039Y-10654936D01*
X6763039Y-10654936D02*
X6753515Y-10645412D01*
M02*
