<?xml version="1.0" standalone="no"?>
 <!DOCTYPE svg PUBLIC "-//W3C//DTD SVG 1.1//EN" 
 "http://www.w3.org/Graphics/SVG/1.1/DTD/svg11.dtd"> 
<svg
  xmlns:svg="http://www.w3.org/2000/svg"
  xmlns="http://www.w3.org/2000/svg"
  xmlns:xlink="http://www.w3.org/1999/xlink"
  xmlns:inkscape="http://www.inkscape.org/namespaces/inkscape"
  version="1.1"
  width="160.0454mm" height="76.9366mm" viewBox="0.0000 0.0000 160.0454 76.9366">
<title>SVG Image created as pcb-front.svg date 2026-03-31T20:01:28 </title>
  <desc>Image generated by PCBNEW </desc>
<g style="fill:#000000; fill-opacity:1.0000;stroke:#000000; stroke-opacity:1.0000;
stroke-linecap:round; stroke-linejoin:round;"
 transform="translate(0 0) scale(1 1)">
<path style="fill:#C83434; fill-opacity:1.0000; stroke:none;fill-rule:evenodd;"
d="M 14.4250,22.1250
14.4250,21.2250
15.6250,21.2250
15.6250,22.1250
Z" /> 
<path style="fill:#C83434; fill-opacity:1.0000; stroke:none;fill-rule:evenodd;"
d="M 20.4250,22.1250
20.4250,21.2250
21.6250,21.2250
21.6250,22.1250
Z" /> 
<path style="fill:#C83434; fill-opacity:1.0000; stroke:none;fill-rule:evenodd;"
d="M 14.4250,25.8250
14.4250,24.9250
15.6250,24.9250
15.6250,25.8250
Z" /> 
<path style="fill:#C83434; fill-opacity:1.0000; stroke:none;fill-rule:evenodd;"
d="M 20.4250,25.8250
20.4250,24.9250
21.6250,24.9250
21.6250,25.8250
Z" /> 
<path style="fill:#C83434; fill-opacity:1.0000; stroke:none;fill-rule:evenodd;"
d="M 14.4250,40.1250
14.4250,39.2250
15.6250,39.2250
15.6250,40.1250
Z" /> 
<path style="fill:#C83434; fill-opacity:1.0000; stroke:none;fill-rule:evenodd;"
d="M 20.4250,40.1250
20.4250,39.2250
21.6250,39.2250
21.6250,40.1250
Z" /> 
<path style="fill:#C83434; fill-opacity:1.0000; stroke:none;fill-rule:evenodd;"
d="M 14.4250,43.8250
14.4250,42.9250
15.6250,42.9250
15.6250,43.8250
Z" /> 
<path style="fill:#C83434; fill-opacity:1.0000; stroke:none;fill-rule:evenodd;"
d="M 20.4250,43.8250
20.4250,42.9250
21.6250,42.9250
21.6250,43.8250
Z" /> 
<path style="fill:#C83434; fill-opacity:1.0000; stroke:none;fill-rule:evenodd;"
d="M 5.4250,31.1250
5.4250,30.2250
6.6250,30.2250
6.6250,31.1250
Z" /> 
<path style="fill:#C83434; fill-opacity:1.0000; stroke:none;fill-rule:evenodd;"
d="M 11.4250,31.1250
11.4250,30.2250
12.6250,30.2250
12.6250,31.1250
Z" /> 
<path style="fill:#C83434; fill-opacity:1.0000; stroke:none;fill-rule:evenodd;"
d="M 5.4250,34.8250
5.4250,33.9250
6.6250,33.9250
6.6250,34.8250
Z" /> 
<path style="fill:#C83434; fill-opacity:1.0000; stroke:none;fill-rule:evenodd;"
d="M 11.4250,34.8250
11.4250,33.9250
12.6250,33.9250
12.6250,34.8250
Z" /> 
<path style="fill:#C83434; fill-opacity:1.0000; stroke:none;fill-rule:evenodd;"
d="M 23.4250,31.1250
23.4250,30.2250
24.6250,30.2250
24.6250,31.1250
Z" /> 
<path style="fill:#C83434; fill-opacity:1.0000; stroke:none;fill-rule:evenodd;"
d="M 29.4250,31.1250
29.4250,30.2250
30.6250,30.2250
30.6250,31.1250
Z" /> 
<path style="fill:#C83434; fill-opacity:1.0000; stroke:none;fill-rule:evenodd;"
d="M 23.4250,34.8250
23.4250,33.9250
24.6250,33.9250
24.6250,34.8250
Z" /> 
<path style="fill:#C83434; fill-opacity:1.0000; stroke:none;fill-rule:evenodd;"
d="M 29.4250,34.8250
29.4250,33.9250
30.6250,33.9250
30.6250,34.8250
Z" /> 
<path style="fill:#C83434; fill-opacity:1.0000; stroke:none;fill-rule:evenodd;"
d="M 138.4250,21.1250
138.4250,20.2250
139.6250,20.2250
139.6250,21.1250
Z" /> 
<path style="fill:#C83434; fill-opacity:1.0000; stroke:none;fill-rule:evenodd;"
d="M 144.4250,21.1250
144.4250,20.2250
145.6250,20.2250
145.6250,21.1250
Z" /> 
<path style="fill:#C83434; fill-opacity:1.0000; stroke:none;fill-rule:evenodd;"
d="M 138.4250,24.8250
138.4250,23.9250
139.6250,23.9250
139.6250,24.8250
Z" /> 
<path style="fill:#C83434; fill-opacity:1.0000; stroke:none;fill-rule:evenodd;"
d="M 144.4250,24.8250
144.4250,23.9250
145.6250,23.9250
145.6250,24.8250
Z" /> 
<path style="fill:#C83434; fill-opacity:1.0000; stroke:none;fill-rule:evenodd;"
d="M 148.4250,31.1250
148.4250,30.2250
149.6250,30.2250
149.6250,31.1250
Z" /> 
<path style="fill:#C83434; fill-opacity:1.0000; stroke:none;fill-rule:evenodd;"
d="M 154.4250,31.1250
154.4250,30.2250
155.6250,30.2250
155.6250,31.1250
Z" /> 
<path style="fill:#C83434; fill-opacity:1.0000; stroke:none;fill-rule:evenodd;"
d="M 148.4250,34.8250
148.4250,33.9250
149.6250,33.9250
149.6250,34.8250
Z" /> 
<path style="fill:#C83434; fill-opacity:1.0000; stroke:none;fill-rule:evenodd;"
d="M 154.4250,34.8250
154.4250,33.9250
155.6250,33.9250
155.6250,34.8250
Z" /> 
<path style="fill:#C83434; fill-opacity:1.0000; stroke:none;fill-rule:evenodd;"
d="M 138.4250,41.1250
138.4250,40.2250
139.6250,40.2250
139.6250,41.1250
Z" /> 
<path style="fill:#C83434; fill-opacity:1.0000; stroke:none;fill-rule:evenodd;"
d="M 144.4250,41.1250
144.4250,40.2250
145.6250,40.2250
145.6250,41.1250
Z" /> 
<path style="fill:#C83434; fill-opacity:1.0000; stroke:none;fill-rule:evenodd;"
d="M 138.4250,44.8250
138.4250,43.9250
139.6250,43.9250
139.6250,44.8250
Z" /> 
<path style="fill:#C83434; fill-opacity:1.0000; stroke:none;fill-rule:evenodd;"
d="M 144.4250,44.8250
144.4250,43.9250
145.6250,43.9250
145.6250,44.8250
Z" /> 
<path style="fill:#C83434; fill-opacity:1.0000; stroke:none;fill-rule:evenodd;"
d="M 129.4250,31.1250
129.4250,30.2250
130.6250,30.2250
130.6250,31.1250
Z" /> 
<path style="fill:#C83434; fill-opacity:1.0000; stroke:none;fill-rule:evenodd;"
d="M 135.4250,31.1250
135.4250,30.2250
136.6250,30.2250
136.6250,31.1250
Z" /> 
<path style="fill:#C83434; fill-opacity:1.0000; stroke:none;fill-rule:evenodd;"
d="M 129.4250,34.8250
129.4250,33.9250
130.6250,33.9250
130.6250,34.8250
Z" /> 
<path style="fill:#C83434; fill-opacity:1.0000; stroke:none;fill-rule:evenodd;"
d="M 135.4250,34.8250
135.4250,33.9250
136.6250,33.9250
136.6250,34.8250
Z" /> 
<path style="fill:#C83434; fill-opacity:1.0000; stroke:none;fill-rule:evenodd;"
d="M 4.4250,53.1250
4.4250,52.2250
5.6250,52.2250
5.6250,53.1250
Z" /> 
<path style="fill:#C83434; fill-opacity:1.0000; stroke:none;fill-rule:evenodd;"
d="M 10.4250,53.1250
10.4250,52.2250
11.6250,52.2250
11.6250,53.1250
Z" /> 
<path style="fill:#C83434; fill-opacity:1.0000; stroke:none;fill-rule:evenodd;"
d="M 4.4250,56.8250
4.4250,55.9250
5.6250,55.9250
5.6250,56.8250
Z" /> 
<path style="fill:#C83434; fill-opacity:1.0000; stroke:none;fill-rule:evenodd;"
d="M 10.4250,56.8250
10.4250,55.9250
11.6250,55.9250
11.6250,56.8250
Z" /> 
<path style="fill:#C83434; fill-opacity:1.0000; stroke:none;fill-rule:evenodd;"
d="M 24.4250,53.1250
24.4250,52.2250
25.6250,52.2250
25.6250,53.1250
Z" /> 
<path style="fill:#C83434; fill-opacity:1.0000; stroke:none;fill-rule:evenodd;"
d="M 30.4250,53.1250
30.4250,52.2250
31.6250,52.2250
31.6250,53.1250
Z" /> 
<path style="fill:#C83434; fill-opacity:1.0000; stroke:none;fill-rule:evenodd;"
d="M 24.4250,56.8250
24.4250,55.9250
25.6250,55.9250
25.6250,56.8250
Z" /> 
<path style="fill:#C83434; fill-opacity:1.0000; stroke:none;fill-rule:evenodd;"
d="M 30.4250,56.8250
30.4250,55.9250
31.6250,55.9250
31.6250,56.8250
Z" /> 
<path style="fill:#C83434; fill-opacity:1.0000; stroke:none;fill-rule:evenodd;"
d="M 138.4250,61.8250
138.4250,60.9250
139.6250,60.9250
139.6250,61.8250
Z" /> 
<path style="fill:#C83434; fill-opacity:1.0000; stroke:none;fill-rule:evenodd;"
d="M 144.4250,61.8250
144.4250,60.9250
145.6250,60.9250
145.6250,61.8250
Z" /> 
<path style="fill:#C83434; fill-opacity:1.0000; stroke:none;fill-rule:evenodd;"
d="M 138.4250,65.5250
138.4250,64.6250
139.6250,64.6250
139.6250,65.5250
Z" /> 
<path style="fill:#C83434; fill-opacity:1.0000; stroke:none;fill-rule:evenodd;"
d="M 144.4250,65.5250
144.4250,64.6250
145.6250,64.6250
145.6250,65.5250
Z" /> 
<path style="fill:#C83434; fill-opacity:1.0000; stroke:none;fill-rule:evenodd;"
d="M 23.5750,68.1750
23.5750,66.8750
24.5750,66.8750
24.5750,68.1750
Z" /> 
<path style="fill:#C83434; fill-opacity:1.0000; stroke:none;fill-rule:evenodd;"
d="M 25.4750,68.1750
25.4750,66.8750
26.4750,66.8750
26.4750,68.1750
Z" /> 
<path style="fill:#C83434; fill-opacity:1.0000; stroke:none;fill-rule:evenodd;"
d="M 30.5750,68.1750
30.5750,66.8750
31.5750,66.8750
31.5750,68.1750
Z" /> 
<path style="fill:#C83434; fill-opacity:1.0000; stroke:none;fill-rule:evenodd;"
d="M 32.4750,68.1750
32.4750,66.8750
33.4750,66.8750
33.4750,68.1750
Z" /> 
</g>
<g style="fill:none; 
stroke:#C83434; stroke-width:1.7000; stroke-opacity:1; 
stroke-linecap:round; stroke-linejoin:round;">
<path d="M84.3500 69.2500
L84.3500 69.5500
" />
<path d="M75.7000 69.2500
L75.7000 69.5500
" />
</g>
<g style="fill:none; 
stroke:#C83434; stroke-width:1.4000; stroke-opacity:1; 
stroke-linecap:round; stroke-linejoin:round;">
<path d="M84.3500 73.4000
L84.3500 73.8000
" />
<path d="M75.7000 73.4000
L75.7000 73.8000
" />
</g>
<g style="fill:#C83434; fill-opacity:1.0000; stroke:none;">
<circle cx="81.0250" cy="62.5250" r="0.8000" /> 
<circle cx="79.0250" cy="62.5250" r="0.8000" /> 
<circle cx="5.0250" cy="5.0250" r="0.5000" /> 
<circle cx="155.0250" cy="5.0250" r="0.5000" /> 
<circle cx="5.0250" cy="70.0250" r="0.5000" /> 
<circle cx="82.2750" cy="61.0250" r="0.4500" /> 
<circle cx="111.0250" cy="40.1200" r="0.4500" /> 
<circle cx="112.4250" cy="45.5250" r="0.4500" /> 
<circle cx="127.3250" cy="60.6750" r="0.4500" /> 
<circle cx="77.0250" cy="62.5250" r="0.4500" /> 
<circle cx="76.8250" cy="66.2250" r="0.2500" /> 
<circle cx="80.0250" cy="35.0250" r="0.2500" /> 
<circle cx="141.0850" cy="61.7490" r="0.2500" /> 
<circle cx="143.2850" cy="61.7490" r="0.2500" /> 
<circle cx="148.7850" cy="62.5990" r="0.2500" /> 
<circle cx="131.2650" cy="72.3010" r="0.2500" /> 
<circle cx="107.5250" cy="39.1200" r="0.4500" /> 
<circle cx="122.7250" cy="56.6750" r="0.4500" /> 
<circle cx="112.4250" cy="49.5250" r="0.4500" /> 
<circle cx="115.9750" cy="54.5250" r="0.4500" /> 
<circle cx="125.0250" cy="49.3750" r="0.4500" /> 
<circle cx="124.5250" cy="52.0250" r="0.2500" /> 
<circle cx="125.5250" cy="52.0250" r="0.2500" /> 
<circle cx="124.5250" cy="52.7250" r="0.2500" /> 
<circle cx="125.5250" cy="52.7250" r="0.2500" /> 
<circle cx="88.7750" cy="21.0350" r="0.2500" /> 
<circle cx="105.5250" cy="46.1600" r="0.4500" /> 
<circle cx="80.5250" cy="46.1600" r="0.4500" /> 
<circle cx="39.2750" cy="68.3250" r="0.4500" /> 
<circle cx="38.0250" cy="46.1600" r="0.4500" /> 
<circle cx="80.6600" cy="38.1400" r="0.2500" /> 
<circle cx="101.0350" cy="38.1400" r="0.2800" /> 
<circle cx="110.0250" cy="38.1400" r="0.2800" /> 
<circle cx="124.0250" cy="38.1400" r="0.2500" /> 
<circle cx="124.0250" cy="5.0250" r="0.2500" /> 
<circle cx="140.4250" cy="5.0250" r="0.2500" /> 
<circle cx="78.1200" cy="36.8700" r="0.2500" /> 
<circle cx="101.5750" cy="36.8700" r="0.2800" /> 
<circle cx="108.2450" cy="36.8700" r="0.2800" /> 
<circle cx="122.9250" cy="36.8700" r="0.2500" /> 
<circle cx="122.9250" cy="6.0250" r="0.2500" /> 
<circle cx="139.7250" cy="6.0250" r="0.2500" /> 
<circle cx="85.7400" cy="35.6000" r="0.2500" /> 
<circle cx="102.3450" cy="35.6000" r="0.2800" /> 
<circle cx="107.7050" cy="35.6000" r="0.2800" /> 
<circle cx="121.8250" cy="35.6000" r="0.2500" /> 
<circle cx="121.8250" cy="7.0250" r="0.2500" /> 
<circle cx="139.0250" cy="7.0250" r="0.2500" /> 
<circle cx="87.0100" cy="34.3300" r="0.2500" /> 
<circle cx="120.7250" cy="34.3300" r="0.2500" /> 
<circle cx="120.7250" cy="8.0250" r="0.2500" /> 
<circle cx="138.3250" cy="8.0250" r="0.2500" /> 
<circle cx="79.3900" cy="33.0600" r="0.2500" /> 
<circle cx="119.6250" cy="33.0600" r="0.2500" /> 
<circle cx="119.6250" cy="9.0250" r="0.2500" /> 
<circle cx="137.6250" cy="9.0250" r="0.2500" /> 
<circle cx="90.7750" cy="26.0750" r="0.2500" /> 
<circle cx="118.5250" cy="26.0750" r="0.2500" /> 
<circle cx="118.5250" cy="10.0250" r="0.2500" /> 
<circle cx="136.9250" cy="10.0250" r="0.2500" /> 
<circle cx="90.7750" cy="27.3450" r="0.2500" /> 
<circle cx="117.4250" cy="27.3450" r="0.2500" /> 
<circle cx="117.4250" cy="11.0250" r="0.2500" /> 
<circle cx="136.2250" cy="11.0250" r="0.2500" /> 
<circle cx="90.7750" cy="28.6150" r="0.2500" /> 
<circle cx="116.3250" cy="28.6150" r="0.2500" /> 
<circle cx="116.3250" cy="12.0250" r="0.2500" /> 
<circle cx="135.5250" cy="12.0250" r="0.2500" /> 
<circle cx="90.7750" cy="29.8850" r="0.2500" /> 
<circle cx="115.2250" cy="29.8850" r="0.2500" /> 
<circle cx="115.2250" cy="13.0250" r="0.2500" /> 
<circle cx="134.8250" cy="13.0250" r="0.2500" /> 
<circle cx="90.7750" cy="36.2350" r="0.2500" /> 
<circle cx="99.5250" cy="36.2350" r="0.2800" /> 
<circle cx="111.5250" cy="36.2350" r="0.2800" /> 
<circle cx="114.1250" cy="36.2350" r="0.2500" /> 
<circle cx="114.1250" cy="14.0250" r="0.2500" /> 
<circle cx="134.1250" cy="14.0250" r="0.2500" /> 
<circle cx="84.4700" cy="31.7900" r="0.2500" /> 
<circle cx="113.0250" cy="31.7900" r="0.2500" /> 
<circle cx="113.0250" cy="15.0250" r="0.2500" /> 
<circle cx="131.0250" cy="15.0250" r="0.2500" /> 
<circle cx="83.2000" cy="20.5250" r="0.2500" /> 
<circle cx="111.9250" cy="20.5250" r="0.2500" /> 
<circle cx="111.9250" cy="16.0250" r="0.2500" /> 
<circle cx="131.7250" cy="16.0250" r="0.2500" /> 
<circle cx="81.9300" cy="19.5250" r="0.2500" /> 
<circle cx="110.8250" cy="19.5250" r="0.2500" /> 
<circle cx="110.8250" cy="17.0250" r="0.2500" /> 
<circle cx="132.4250" cy="17.0250" r="0.2500" /> 
<circle cx="73.0400" cy="27.9800" r="0.2500" /> 
<circle cx="109.7250" cy="27.9800" r="0.2500" /> 
<circle cx="109.7250" cy="18.0250" r="0.2500" /> 
<circle cx="133.1250" cy="18.0250" r="0.2500" /> 
<circle cx="133.6250" cy="25.2750" r="0.2300" /> 
<circle cx="133.6250" cy="27.4250" r="0.2300" /> 
<circle cx="133.6250" cy="28.2750" r="0.2300" /> 
<circle cx="133.1250" cy="43.2750" r="0.2500" /> 
<circle cx="143.5250" cy="43.2750" r="0.2500" /> 
<circle cx="143.5250" cy="50.2750" r="0.2500" /> 
<circle cx="133.6250" cy="37.7750" r="0.2300" /> 
<circle cx="133.6250" cy="26.2750" r="0.2300" /> 
<circle cx="132.0250" cy="50.2750" r="0.2500" /> 
<circle cx="72.2250" cy="36.2350" r="0.2300" /> 
<circle cx="75.0250" cy="36.2350" r="0.2300" /> 
<circle cx="75.0250" cy="1.5250" r="0.2300" /> 
<circle cx="141.2250" cy="1.5250" r="0.2300" /> 
<circle cx="141.2250" cy="66.0250" r="0.2500" /> 
<circle cx="139.9850" cy="66.0250" r="0.2500" /> 
<circle cx="72.2250" cy="34.9650" r="0.2300" /> 
<circle cx="76.0250" cy="34.9650" r="0.2300" /> 
<circle cx="76.0250" cy="2.2250" r="0.2300" /> 
<circle cx="145.6250" cy="2.2250" r="0.2300" /> 
<circle cx="145.6250" cy="67.5250" r="0.2500" /> 
<circle cx="144.3850" cy="67.5250" r="0.2500" /> 
<circle cx="72.2250" cy="33.6950" r="0.2300" /> 
<circle cx="77.0250" cy="33.6950" r="0.2300" /> 
<circle cx="77.0250" cy="2.9250" r="0.2300" /> 
<circle cx="152.5250" cy="2.9250" r="0.2300" /> 
<circle cx="152.5250" cy="70.5250" r="0.2500" /> 
<circle cx="142.1850" cy="70.5250" r="0.2500" /> 
<circle cx="72.2250" cy="32.4250" r="0.2300" /> 
<circle cx="78.0250" cy="32.4250" r="0.2300" /> 
<circle cx="78.0250" cy="3.6250" r="0.2300" /> 
<circle cx="153.5250" cy="3.6250" r="0.2300" /> 
<circle cx="153.5250" cy="71.0250" r="0.2500" /> 
<circle cx="138.8850" cy="71.0250" r="0.2500" /> 
<circle cx="87.7250" cy="18.0250" r="0.2500" /> 
<circle cx="33.2000" cy="18.0250" r="0.2500" /> 
<circle cx="24.5250" cy="22.5250" r="0.2500" /> 
<circle cx="39.5250" cy="22.5250" r="0.2500" /> 
<circle cx="28.1200" cy="23.7250" r="0.2500" /> 
<circle cx="20.5250" cy="23.7250" r="0.2500" /> 
<circle cx="31.9300" cy="28.8250" r="0.2500" /> 
<circle cx="29.3900" cy="28.7250" r="0.2500" /> 
<circle cx="26.8500" cy="24.8250" r="0.2500" /> 
<circle cx="26.8500" cy="34.3250" r="0.2500" /> 
<circle cx="31.9300" cy="34.3250" r="0.2500" /> 
<circle cx="38.8750" cy="25.3250" r="0.2500" /> 
<circle cx="33.2000" cy="32.2250" r="0.2500" /> 
<circle cx="37.0750" cy="32.2250" r="0.2500" /> 
<circle cx="38.8750" cy="33.7250" r="0.2500" /> 
<circle cx="38.8750" cy="24.5250" r="0.2500" /> 
<circle cx="31.9300" cy="25.8250" r="0.2500" /> 
<circle cx="38.0250" cy="25.8250" r="0.2500" /> 
<circle cx="38.0250" cy="30.9750" r="0.2500" /> 
<circle cx="29.3900" cy="20.5750" r="0.2500" /> 
<circle cx="31.5250" cy="38.9750" r="0.2500" /> 
<circle cx="80.6250" cy="65.9500" r="0.2500" /> 
<circle cx="90.2750" cy="65.9500" r="0.2500" /> 
<circle cx="79.7750" cy="64.6000" r="0.2500" /> 
<circle cx="91.6750" cy="64.6000" r="0.2500" /> 
<circle cx="81.2750" cy="67.4250" r="0.2500" /> 
<circle cx="74.9750" cy="67.4250" r="0.2500" /> 
<circle cx="73.0750" cy="65.5250" r="0.2500" /> 
<circle cx="77.0750" cy="63.8250" r="0.2500" /> 
<circle cx="22.2250" cy="21.6750" r="0.2300" /> 
<circle cx="22.2250" cy="62.0250" r="0.2300" /> 
<circle cx="67.4750" cy="62.0250" r="0.2300" /> 
<circle cx="67.4750" cy="31.1550" r="0.2500" /> 
<circle cx="69.2750" cy="31.1550" r="0.2500" /> 
<circle cx="16.0250" cy="25.8750" r="0.2300" /> 
<circle cx="22.9750" cy="39.6750" r="0.2300" /> 
<circle cx="22.9750" cy="63.2250" r="0.2300" /> 
<circle cx="65.5750" cy="63.2250" r="0.2300" /> 
<circle cx="65.5750" cy="29.8850" r="0.2500" /> 
<circle cx="69.2750" cy="29.8850" r="0.2500" /> 
<circle cx="16.0250" cy="43.8750" r="0.2300" /> 
<circle cx="13.2250" cy="30.6750" r="0.2300" /> 
<circle cx="13.2250" cy="64.4250" r="0.2300" /> 
<circle cx="62.4750" cy="64.4250" r="0.2300" /> 
<circle cx="62.4750" cy="28.6150" r="0.2500" /> 
<circle cx="69.2750" cy="28.6150" r="0.2500" /> 
<circle cx="7.5250" cy="34.8750" r="0.2300" /> 
<circle cx="34.2250" cy="30.6750" r="0.2300" /> 
<circle cx="34.2250" cy="65.6250" r="0.2300" /> 
<circle cx="58.5750" cy="65.6250" r="0.2300" /> 
<circle cx="58.5750" cy="24.8050" r="0.2500" /> 
<circle cx="69.2750" cy="24.8050" r="0.2500" /> 
<circle cx="25.5250" cy="34.8750" r="0.2300" /> 
<circle cx="130.3250" cy="20.6750" r="0.2300" /> 
<circle cx="130.3250" cy="66.8250" r="0.2300" /> 
<circle cx="52.4750" cy="66.8250" r="0.2300" /> 
<circle cx="52.4750" cy="23.5350" r="0.2500" /> 
<circle cx="69.2750" cy="23.5350" r="0.2500" /> 
<circle cx="143.5250" cy="24.8750" r="0.2300" /> 
<circle cx="142.8250" cy="30.6750" r="0.2300" /> 
<circle cx="142.8250" cy="68.0250" r="0.2300" /> 
<circle cx="45.4750" cy="68.0250" r="0.2300" /> 
<circle cx="45.4750" cy="41.5250" r="0.2500" /> 
<circle cx="73.2750" cy="41.5250" r="0.2500" /> 
<circle cx="154.0750" cy="34.8750" r="0.2300" /> 
<circle cx="129.8150" cy="40.6750" r="0.2300" /> 
<circle cx="129.8150" cy="70.8250" r="0.2300" /> 
<circle cx="36.4750" cy="70.8250" r="0.2300" /> 
<circle cx="36.4750" cy="42.7250" r="0.2500" /> 
<circle cx="73.5800" cy="42.7250" r="0.2500" /> 
<circle cx="143.5250" cy="44.8750" r="0.2300" /> 
<circle cx="129.3050" cy="30.6750" r="0.2300" /> 
<circle cx="129.3050" cy="71.5750" r="0.2300" /> 
<circle cx="27.4750" cy="71.5750" r="0.2300" /> 
<circle cx="27.4750" cy="43.9250" r="0.2500" /> 
<circle cx="74.8500" cy="43.9250" r="0.2500" /> 
<circle cx="140.0250" cy="49.0250" r="0.2300" /> 
<circle cx="12.2250" cy="52.6750" r="0.2300" /> 
<circle cx="12.2250" cy="72.3750" r="0.2300" /> 
<circle cx="100.4750" cy="72.3750" r="0.2300" /> 
<circle cx="100.4750" cy="34.9650" r="0.2500" /> 
<circle cx="90.7750" cy="34.9650" r="0.2500" /> 
<circle cx="6.5250" cy="56.8750" r="0.2300" /> 
<circle cx="34.9750" cy="52.6750" r="0.2300" /> 
<circle cx="34.9750" cy="72.8850" r="0.2300" /> 
<circle cx="60.4750" cy="72.8850" r="0.2300" /> 
<circle cx="60.4750" cy="45.1250" r="0.2500" /> 
<circle cx="73.2750" cy="45.1250" r="0.2500" /> 
<circle cx="26.5250" cy="56.8750" r="0.2300" /> 
<circle cx="16.8750" cy="73.5550" r="0.2500" /> 
<circle cx="68.0250" cy="73.5550" r="0.2500" /> 
<circle cx="68.0250" cy="37.5050" r="0.2500" /> 
<circle cx="14.6750" cy="8.5250" r="0.2500" /> 
<circle cx="146.8750" cy="65.4250" r="0.2500" /> 
<circle cx="76.2250" cy="65.4250" r="0.2500" /> 
<circle cx="76.2250" cy="45.0250" r="0.2500" /> 
<circle cx="65.0250" cy="42.1250" r="0.2500" /> 
<circle cx="144.6750" cy="8.5250" r="0.2500" /> 
<circle cx="41.8250" cy="44.5250" r="0.2500" /> 
<circle cx="46.8250" cy="44.5250" r="0.2500" /> 
<circle cx="51.8250" cy="44.5250" r="0.2500" /> 
<circle cx="56.8250" cy="44.5250" r="0.2500" /> 
<circle cx="61.8250" cy="44.5250" r="0.2500" /> 
<circle cx="66.8250" cy="44.5250" r="0.2500" /> 
<circle cx="71.8250" cy="47.5250" r="0.2500" /> 
<circle cx="76.9750" cy="44.5250" r="0.2500" /> 
<circle cx="81.8250" cy="44.5250" r="0.2500" /> 
<circle cx="86.8250" cy="44.5250" r="0.2500" /> 
<circle cx="92.2250" cy="44.5250" r="0.2500" /> 
<circle cx="96.8250" cy="44.5250" r="0.2500" /> 
<circle cx="101.8250" cy="44.5250" r="0.2500" /> 
<circle cx="41.8250" cy="52.0250" r="0.2500" /> 
<circle cx="46.8250" cy="52.0250" r="0.2500" /> 
<circle cx="51.8250" cy="52.0250" r="0.2500" /> 
<circle cx="56.8250" cy="52.0250" r="0.2500" /> 
<circle cx="61.8250" cy="52.0250" r="0.2500" /> 
<circle cx="66.8250" cy="52.0250" r="0.2500" /> 
<circle cx="71.8250" cy="52.0250" r="0.2500" /> 
<circle cx="76.9750" cy="52.0250" r="0.2500" /> 
<circle cx="81.8250" cy="52.0250" r="0.2500" /> 
<circle cx="86.8250" cy="52.0250" r="0.2500" /> 
<circle cx="92.2250" cy="52.0250" r="0.2500" /> 
<circle cx="96.8250" cy="52.0250" r="0.2500" /> 
<circle cx="101.8250" cy="52.0250" r="0.2500" /> 
<circle cx="70.4750" cy="44.5250" r="0.2500" /> 
<circle cx="68.5750" cy="40.0250" r="0.2500" /> 
<circle cx="92.9750" cy="40.6250" r="0.2500" /> 
<circle cx="91.0750" cy="40.0250" r="0.2500" /> 
<circle cx="122.9750" cy="46.0250" r="0.2500" /> 
<circle cx="121.0750" cy="46.0250" r="0.2500" /> 
<circle cx="123.5250" cy="64.5250" r="0.2500" /> 
<circle cx="110.9750" cy="33.6750" r="0.2500" /> 
<circle cx="109.0750" cy="37.5250" r="0.2500" /> 
<circle cx="118.9750" cy="52.5250" r="0.2500" /> 
<circle cx="117.0750" cy="57.5250" r="0.2500" /> 
<circle cx="113.0250" cy="56.5250" r="0.2500" /> 
<circle cx="108.5250" cy="59.5250" r="0.2500" /> 
<circle cx="24.0750" cy="62.6750" r="0.2500" /> 
<circle cx="25.9750" cy="66.2750" r="0.4000" /> 
<circle cx="23.3750" cy="67.5250" r="0.2500" /> 
<circle cx="31.0750" cy="62.6750" r="0.2500" /> 
<circle cx="32.9750" cy="66.2750" r="0.4000" /> 
<circle cx="30.3750" cy="67.5250" r="0.2500" /> 
</g>
<g style="fill:none; 
stroke:#C83434; stroke-width:0.5000; stroke-opacity:1; 
stroke-linecap:round; stroke-linejoin:round;">
<path d="M82.2750 61.0250
L111.0250 61.0250
" />
<path d="M111.0250 61.0250
L111.0250 40.1200
" />
<path d="M105.5250 46.1600
L80.5250 46.1600
" />
<path d="M38.0250 46.1600
L81.0250 46.1600
" />
</g>
<g style="fill:none; 
stroke:#C83434; stroke-width:0.2000; stroke-opacity:1; 
stroke-linecap:round; stroke-linejoin:round;">
<path d="M80.6600 38.1400
L101.0350 38.1400
" />
<path d="M110.0250 38.1400
L124.0250 38.1400
" />
<path d="M124.0250 5.0250
L140.4250 5.0250
" />
<path d="M78.1200 36.8700
L101.5750 36.8700
" />
<path d="M108.2450 36.8700
L122.9250 36.8700
" />
<path d="M122.9250 6.0250
L139.7250 6.0250
" />
<path d="M85.7400 35.6000
L102.3450 35.6000
" />
<path d="M107.7050 35.6000
L121.8250 35.6000
" />
<path d="M121.8250 7.0250
L139.0250 7.0250
" />
<path d="M87.0100 34.3300
L120.7250 34.3300
" />
<path d="M120.7250 8.0250
L138.3250 8.0250
" />
<path d="M79.3900 33.0600
L119.6250 33.0600
" />
<path d="M119.6250 9.0250
L137.6250 9.0250
" />
<path d="M90.7750 26.0750
L118.5250 26.0750
" />
<path d="M118.5250 10.0250
L136.9250 10.0250
" />
<path d="M90.7750 27.3450
L117.4250 27.3450
" />
<path d="M117.4250 11.0250
L136.2250 11.0250
" />
<path d="M90.7750 28.6150
L116.3250 28.6150
" />
<path d="M116.3250 12.0250
L135.5250 12.0250
" />
<path d="M90.7750 29.8850
L115.2250 29.8850
" />
<path d="M115.2250 13.0250
L134.8250 13.0250
" />
<path d="M90.7750 36.2350
L99.5250 36.2350
" />
<path d="M111.5250 36.2350
L114.1250 36.2350
" />
<path d="M114.1250 14.0250
L134.1250 14.0250
" />
<path d="M84.4700 31.7900
L113.0250 31.7900
" />
<path d="M113.0250 15.0250
L131.0250 15.0250
" />
<path d="M83.2000 20.5250
L111.9250 20.5250
" />
<path d="M111.9250 16.0250
L131.7250 16.0250
" />
<path d="M81.9300 19.5250
L110.8250 19.5250
" />
<path d="M110.8250 17.0250
L132.4250 17.0250
" />
<path d="M73.0400 27.9800
L109.7250 27.9800
" />
<path d="M109.7250 18.0250
L133.1250 18.0250
" />
</g>
<g style="fill:none; 
stroke:#C83434; stroke-width:0.3000; stroke-opacity:1; 
stroke-linecap:round; stroke-linejoin:round;">
<path d="M133.1250 43.2750
L143.5250 43.2750
" />
</g>
<g style="fill:none; 
stroke:#C83434; stroke-width:0.2000; stroke-opacity:1; 
stroke-linecap:round; stroke-linejoin:round;">
<path d="M72.2250 36.2350
L75.0250 36.2350
" />
<path d="M75.0250 1.5250
L141.2250 1.5250
" />
<path d="M141.2250 66.0250
L139.9850 66.0250
" />
<path d="M72.2250 34.9650
L76.0250 34.9650
" />
<path d="M76.0250 2.2250
L145.6250 2.2250
" />
<path d="M145.6250 67.5250
L144.3850 67.5250
" />
<path d="M72.2250 33.6950
L77.0250 33.6950
" />
<path d="M77.0250 2.9250
L152.5250 2.9250
" />
<path d="M152.5250 70.5250
L142.1850 70.5250
" />
<path d="M72.2250 32.4250
L78.0250 32.4250
" />
<path d="M78.0250 3.6250
L153.5250 3.6250
" />
<path d="M153.5250 71.0250
L138.8850 71.0250
" />
<path d="M87.7250 18.0250
L33.2000 18.0250
" />
</g>
<g style="fill:none; 
stroke:#C83434; stroke-width:0.3000; stroke-opacity:1; 
stroke-linecap:round; stroke-linejoin:round;">
<path d="M24.5250 22.5250
L39.5250 22.5250
" />
<path d="M28.1200 23.7250
L20.5250 23.7250
" />
</g>
<g style="fill:none; 
stroke:#C83434; stroke-width:0.2000; stroke-opacity:1; 
stroke-linecap:round; stroke-linejoin:round;">
<path d="M33.2000 32.2250
L37.0750 32.2250
" />
</g>
<g style="fill:none; 
stroke:#C83434; stroke-width:0.2500; stroke-opacity:1; 
stroke-linecap:round; stroke-linejoin:round;">
<path d="M31.9300 25.8250
L38.0250 25.8250
" />
</g>
<g style="fill:none; 
stroke:#C83434; stroke-width:0.2000; stroke-opacity:1; 
stroke-linecap:round; stroke-linejoin:round;">
<path d="M80.6250 65.9500
L90.2750 65.9500
" />
<path d="M79.7750 64.6000
L91.6750 64.6000
" />
</g>
<g style="fill:none; 
stroke:#C83434; stroke-width:0.2500; stroke-opacity:1; 
stroke-linecap:round; stroke-linejoin:round;">
<path d="M81.2750 67.4250
L74.9750 67.4250
" />
<path d="M21.0250 21.6750
L22.2250 21.6750
" />
<path d="M22.2250 62.0250
L67.4750 62.0250
" />
<path d="M67.4750 31.1550
L69.2750 31.1550
" />
<path d="M15.0250 25.3750
L16.0250 25.3750
" />
<path d="M16.0250 25.3750
L16.0250 25.8750
" />
<path d="M21.0250 39.6750
L22.9750 39.6750
" />
<path d="M22.9750 63.2250
L65.5750 63.2250
" />
<path d="M65.5750 29.8850
L69.2750 29.8850
" />
<path d="M15.0250 43.3750
L16.0250 43.3750
" />
<path d="M16.0250 43.3750
L16.0250 43.8750
" />
<path d="M12.0250 30.6750
L13.2250 30.6750
" />
<path d="M13.2250 64.4250
L62.4750 64.4250
" />
<path d="M62.4750 28.6150
L69.2750 28.6150
" />
<path d="M6.0250 34.3750
L7.5250 34.3750
" />
<path d="M7.5250 34.3750
L7.5250 34.8750
" />
<path d="M30.0250 30.6750
L34.2250 30.6750
" />
<path d="M34.2250 65.6250
L58.5750 65.6250
" />
<path d="M58.5750 24.8050
L69.2750 24.8050
" />
<path d="M24.0250 34.3750
L25.5250 34.3750
" />
<path d="M25.5250 34.3750
L25.5250 34.8750
" />
<path d="M139.0250 20.6750
L130.3250 20.6750
" />
<path d="M130.3250 66.8250
L52.4750 66.8250
" />
<path d="M52.4750 23.5350
L69.2750 23.5350
" />
<path d="M145.0250 24.3750
L143.5250 24.3750
" />
<path d="M143.5250 24.3750
L143.5250 24.8750
" />
<path d="M149.0250 30.6750
L142.8250 30.6750
" />
<path d="M142.8250 68.0250
L45.4750 68.0250
" />
<path d="M45.4750 41.5250
L73.2750 41.5250
" />
<path d="M155.0250 34.3750
L154.0750 34.3750
" />
<path d="M154.0750 34.3750
L154.0750 34.8750
" />
<path d="M139.0250 40.6750
L129.8150 40.6750
" />
<path d="M129.8150 70.8250
L36.4750 70.8250
" />
<path d="M36.4750 42.7250
L73.5800 42.7250
" />
<path d="M145.0250 44.3750
L143.5250 44.3750
" />
<path d="M143.5250 44.3750
L143.5250 44.8750
" />
<path d="M130.0250 30.6750
L129.3050 30.6750
" />
<path d="M129.3050 71.5750
L27.4750 71.5750
" />
<path d="M27.4750 43.9250
L74.8500 43.9250
" />
<path d="M136.0250 34.3750
L140.0250 34.3750
" />
<path d="M140.0250 34.3750
L140.0250 49.0250
" />
<path d="M11.0250 52.6750
L12.2250 52.6750
" />
<path d="M12.2250 72.3750
L100.4750 72.3750
" />
<path d="M100.4750 34.9650
L90.7750 34.9650
" />
<path d="M5.0250 56.3750
L6.5250 56.3750
" />
<path d="M6.5250 56.3750
L6.5250 56.8750
" />
<path d="M31.0250 52.6750
L34.9750 52.6750
" />
<path d="M34.9750 72.8850
L60.4750 72.8850
" />
<path d="M60.4750 45.1250
L73.2750 45.1250
" />
<path d="M25.0250 56.3750
L26.5250 56.3750
" />
<path d="M26.5250 56.3750
L26.5250 56.8750
" />
</g>
<g style="fill:none; 
stroke:#C83434; stroke-width:0.2000; stroke-opacity:1; 
stroke-linecap:round; stroke-linejoin:round;">
<path d="M16.8750 73.5550
L68.0250 73.5550
" />
<path d="M68.0250 37.5050
L71.2750 37.5050
" />
<path d="M146.8750 65.4250
L146.5250 65.4250
" />
<path d="M146.5250 65.4250
L146.5250 64.0250
" />
<path d="M146.5250 64.0250
L137.0250 64.0250
" />
<path d="M137.0250 64.0250
L137.0250 65.4250
" />
<path d="M137.0250 65.4250
L76.2250 65.4250
" />
<path d="M76.2250 45.0250
L76.2250 42.1250
" />
<path d="M76.2250 42.1250
L65.0250 42.1250
" />
</g>
<g style="fill:none; 
stroke:#C83434; stroke-width:0.2500; stroke-opacity:1; 
stroke-linecap:round; stroke-linejoin:round;">
<path d="M25.9750 66.2750
L25.9750 67.5250
" />
<path d="M24.0750 67.5250
L23.3750 67.5250
" />
<path d="M32.9750 66.2750
L32.9750 67.5250
" />
<path d="M31.0750 67.5250
L30.3750 67.5250
" />
</g>
<g style="fill:none; 
stroke:#F2EDA1; stroke-width:0.2000; stroke-opacity:1; 
stroke-linecap:round; stroke-linejoin:round;">
<text x="80.0250" y="1.6250"
textLength="23.8762" font-size="1.3333" lengthAdjust="spacingAndGlyphs"
text-anchor="middle" opacity="0" stroke-opacity="0">DISPLAY AREA (ILI9488 3.95in)</text>
<g class="stroked-text"><desc>DISPLAY AREA (ILI9488 3.95in)</desc>
<path d="M68.5250 1.5772
L68.5250 0.5772
" />
<path d="M68.5250 0.5772
L68.7631 0.5772
" />
<path d="M68.7631 0.5772
L68.9060 0.6248
" />
<path d="M68.9060 0.6248
L69.0012 0.7201
" />
<path d="M69.0012 0.7201
L69.0488 0.8153
" />
<path d="M69.0488 0.8153
L69.0964 1.0058
" />
<path d="M69.0964 1.0058
L69.0964 1.1486
" />
<path d="M69.0964 1.1486
L69.0488 1.3391
" />
<path d="M69.0488 1.3391
L69.0012 1.4344
" />
<path d="M69.0012 1.4344
L68.9060 1.5296
" />
<path d="M68.9060 1.5296
L68.7631 1.5772
" />
<path d="M68.7631 1.5772
L68.5250 1.5772
" />
<path d="M69.5250 1.5772
L69.5250 0.5772
" />
<path d="M69.9536 1.5296
L70.0964 1.5772
" />
<path d="M70.0964 1.5772
L70.3345 1.5772
" />
<path d="M70.3345 1.5772
L70.4298 1.5296
" />
<path d="M70.4298 1.5296
L70.4774 1.4820
" />
<path d="M70.4774 1.4820
L70.5250 1.3867
" />
<path d="M70.5250 1.3867
L70.5250 1.2915
" />
<path d="M70.5250 1.2915
L70.4774 1.1963
" />
<path d="M70.4774 1.1963
L70.4298 1.1486
" />
<path d="M70.4298 1.1486
L70.3345 1.1010
" />
<path d="M70.3345 1.1010
L70.1440 1.0534
" />
<path d="M70.1440 1.0534
L70.0488 1.0058
" />
<path d="M70.0488 1.0058
L70.0012 0.9582
" />
<path d="M70.0012 0.9582
L69.9536 0.8629
" />
<path d="M69.9536 0.8629
L69.9536 0.7677
" />
<path d="M69.9536 0.7677
L70.0012 0.6725
" />
<path d="M70.0012 0.6725
L70.0488 0.6248
" />
<path d="M70.0488 0.6248
L70.1440 0.5772
" />
<path d="M70.1440 0.5772
L70.3821 0.5772
" />
<path d="M70.3821 0.5772
L70.5250 0.6248
" />
<path d="M70.9536 1.5772
L70.9536 0.5772
" />
<path d="M70.9536 0.5772
L71.3345 0.5772
" />
<path d="M71.3345 0.5772
L71.4298 0.6248
" />
<path d="M71.4298 0.6248
L71.4774 0.6725
" />
<path d="M71.4774 0.6725
L71.5250 0.7677
" />
<path d="M71.5250 0.7677
L71.5250 0.9106
" />
<path d="M71.5250 0.9106
L71.4774 1.0058
" />
<path d="M71.4774 1.0058
L71.4298 1.0534
" />
<path d="M71.4298 1.0534
L71.3345 1.1010
" />
<path d="M71.3345 1.1010
L70.9536 1.1010
" />
<path d="M72.4298 1.5772
L71.9536 1.5772
" />
<path d="M71.9536 1.5772
L71.9536 0.5772
" />
<path d="M72.7155 1.2915
L73.1917 1.2915
" />
<path d="M72.6202 1.5772
L72.9536 0.5772
" />
<path d="M72.9536 0.5772
L73.2869 1.5772
" />
<path d="M73.8107 1.1010
L73.8107 1.5772
" />
<path d="M73.4774 0.5772
L73.8107 1.1010
" />
<path d="M73.8107 1.1010
L74.1440 0.5772
" />
<path d="M75.1917 1.2915
L75.6679 1.2915
" />
<path d="M75.0964 1.5772
L75.4298 0.5772
" />
<path d="M75.4298 0.5772
L75.7631 1.5772
" />
<path d="M76.6679 1.5772
L76.3345 1.1010
" />
<path d="M76.0964 1.5772
L76.0964 0.5772
" />
<path d="M76.0964 0.5772
L76.4774 0.5772
" />
<path d="M76.4774 0.5772
L76.5726 0.6248
" />
<path d="M76.5726 0.6248
L76.6202 0.6725
" />
<path d="M76.6202 0.6725
L76.6679 0.7677
" />
<path d="M76.6679 0.7677
L76.6679 0.9106
" />
<path d="M76.6679 0.9106
L76.6202 1.0058
" />
<path d="M76.6202 1.0058
L76.5726 1.0534
" />
<path d="M76.5726 1.0534
L76.4774 1.1010
" />
<path d="M76.4774 1.1010
L76.0964 1.1010
" />
<path d="M77.0964 1.0534
L77.4298 1.0534
" />
<path d="M77.5726 1.5772
L77.0964 1.5772
" />
<path d="M77.0964 1.5772
L77.0964 0.5772
" />
<path d="M77.0964 0.5772
L77.5726 0.5772
" />
<path d="M77.9536 1.2915
L78.4298 1.2915
" />
<path d="M77.8583 1.5772
L78.1917 0.5772
" />
<path d="M78.1917 0.5772
L78.5250 1.5772
" />
<path d="M79.9060 1.9582
L79.8583 1.9106
" />
<path d="M79.8583 1.9106
L79.7631 1.7677
" />
<path d="M79.7631 1.7677
L79.7155 1.6725
" />
<path d="M79.7155 1.6725
L79.6679 1.5296
" />
<path d="M79.6679 1.5296
L79.6202 1.2915
" />
<path d="M79.6202 1.2915
L79.6202 1.1010
" />
<path d="M79.6202 1.1010
L79.6679 0.8629
" />
<path d="M79.6679 0.8629
L79.7155 0.7201
" />
<path d="M79.7155 0.7201
L79.7631 0.6248
" />
<path d="M79.7631 0.6248
L79.8583 0.4820
" />
<path d="M79.8583 0.4820
L79.9060 0.4344
" />
<path d="M80.2869 1.5772
L80.2869 0.5772
" />
<path d="M81.2393 1.5772
L80.7631 1.5772
" />
<path d="M80.7631 1.5772
L80.7631 0.5772
" />
<path d="M81.5726 1.5772
L81.5726 0.5772
" />
<path d="M82.0964 1.5772
L82.2869 1.5772
" />
<path d="M82.2869 1.5772
L82.3821 1.5296
" />
<path d="M82.3821 1.5296
L82.4298 1.4820
" />
<path d="M82.4298 1.4820
L82.5250 1.3391
" />
<path d="M82.5250 1.3391
L82.5726 1.1486
" />
<path d="M82.5726 1.1486
L82.5726 0.7677
" />
<path d="M82.5726 0.7677
L82.5250 0.6725
" />
<path d="M82.5250 0.6725
L82.4774 0.6248
" />
<path d="M82.4774 0.6248
L82.3821 0.5772
" />
<path d="M82.3821 0.5772
L82.1917 0.5772
" />
<path d="M82.1917 0.5772
L82.0964 0.6248
" />
<path d="M82.0964 0.6248
L82.0488 0.6725
" />
<path d="M82.0488 0.6725
L82.0012 0.7677
" />
<path d="M82.0012 0.7677
L82.0012 1.0058
" />
<path d="M82.0012 1.0058
L82.0488 1.1010
" />
<path d="M82.0488 1.1010
L82.0964 1.1486
" />
<path d="M82.0964 1.1486
L82.1917 1.1963
" />
<path d="M82.1917 1.1963
L82.3821 1.1963
" />
<path d="M82.3821 1.1963
L82.4774 1.1486
" />
<path d="M82.4774 1.1486
L82.5250 1.1010
" />
<path d="M82.5250 1.1010
L82.5726 1.0058
" />
<path d="M83.4298 0.9106
L83.4298 1.5772
" />
<path d="M83.1917 0.5296
L82.9536 1.2439
" />
<path d="M82.9536 1.2439
L83.5726 1.2439
" />
<path d="M84.0964 1.0058
L84.0012 0.9582
" />
<path d="M84.0012 0.9582
L83.9536 0.9106
" />
<path d="M83.9536 0.9106
L83.9060 0.8153
" />
<path d="M83.9060 0.8153
L83.9060 0.7677
" />
<path d="M83.9060 0.7677
L83.9536 0.6725
" />
<path d="M83.9536 0.6725
L84.0012 0.6248
" />
<path d="M84.0012 0.6248
L84.0964 0.5772
" />
<path d="M84.0964 0.5772
L84.2869 0.5772
" />
<path d="M84.2869 0.5772
L84.3821 0.6248
" />
<path d="M84.3821 0.6248
L84.4298 0.6725
" />
<path d="M84.4298 0.6725
L84.4774 0.7677
" />
<path d="M84.4774 0.7677
L84.4774 0.8153
" />
<path d="M84.4774 0.8153
L84.4298 0.9106
" />
<path d="M84.4298 0.9106
L84.3821 0.9582
" />
<path d="M84.3821 0.9582
L84.2869 1.0058
" />
<path d="M84.2869 1.0058
L84.0964 1.0058
" />
<path d="M84.0964 1.0058
L84.0012 1.0534
" />
<path d="M84.0012 1.0534
L83.9536 1.1010
" />
<path d="M83.9536 1.1010
L83.9060 1.1963
" />
<path d="M83.9060 1.1963
L83.9060 1.3867
" />
<path d="M83.9060 1.3867
L83.9536 1.4820
" />
<path d="M83.9536 1.4820
L84.0012 1.5296
" />
<path d="M84.0012 1.5296
L84.0964 1.5772
" />
<path d="M84.0964 1.5772
L84.2869 1.5772
" />
<path d="M84.2869 1.5772
L84.3821 1.5296
" />
<path d="M84.3821 1.5296
L84.4298 1.4820
" />
<path d="M84.4298 1.4820
L84.4774 1.3867
" />
<path d="M84.4774 1.3867
L84.4774 1.1963
" />
<path d="M84.4774 1.1963
L84.4298 1.1010
" />
<path d="M84.4298 1.1010
L84.3821 1.0534
" />
<path d="M84.3821 1.0534
L84.2869 1.0058
" />
<path d="M85.0488 1.0058
L84.9536 0.9582
" />
<path d="M84.9536 0.9582
L84.9060 0.9106
" />
<path d="M84.9060 0.9106
L84.8583 0.8153
" />
<path d="M84.8583 0.8153
L84.8583 0.7677
" />
<path d="M84.8583 0.7677
L84.9060 0.6725
" />
<path d="M84.9060 0.6725
L84.9536 0.6248
" />
<path d="M84.9536 0.6248
L85.0488 0.5772
" />
<path d="M85.0488 0.5772
L85.2393 0.5772
" />
<path d="M85.2393 0.5772
L85.3345 0.6248
" />
<path d="M85.3345 0.6248
L85.3821 0.6725
" />
<path d="M85.3821 0.6725
L85.4298 0.7677
" />
<path d="M85.4298 0.7677
L85.4298 0.8153
" />
<path d="M85.4298 0.8153
L85.3821 0.9106
" />
<path d="M85.3821 0.9106
L85.3345 0.9582
" />
<path d="M85.3345 0.9582
L85.2393 1.0058
" />
<path d="M85.2393 1.0058
L85.0488 1.0058
" />
<path d="M85.0488 1.0058
L84.9536 1.0534
" />
<path d="M84.9536 1.0534
L84.9060 1.1010
" />
<path d="M84.9060 1.1010
L84.8583 1.1963
" />
<path d="M84.8583 1.1963
L84.8583 1.3867
" />
<path d="M84.8583 1.3867
L84.9060 1.4820
" />
<path d="M84.9060 1.4820
L84.9536 1.5296
" />
<path d="M84.9536 1.5296
L85.0488 1.5772
" />
<path d="M85.0488 1.5772
L85.2393 1.5772
" />
<path d="M85.2393 1.5772
L85.3345 1.5296
" />
<path d="M85.3345 1.5296
L85.3821 1.4820
" />
<path d="M85.3821 1.4820
L85.4298 1.3867
" />
<path d="M85.4298 1.3867
L85.4298 1.1963
" />
<path d="M85.4298 1.1963
L85.3821 1.1010
" />
<path d="M85.3821 1.1010
L85.3345 1.0534
" />
<path d="M85.3345 1.0534
L85.2393 1.0058
" />
<path d="M86.5250 0.5772
L87.1440 0.5772
" />
<path d="M87.1440 0.5772
L86.8107 0.9582
" />
<path d="M86.8107 0.9582
L86.9536 0.9582
" />
<path d="M86.9536 0.9582
L87.0488 1.0058
" />
<path d="M87.0488 1.0058
L87.0964 1.0534
" />
<path d="M87.0964 1.0534
L87.1440 1.1486
" />
<path d="M87.1440 1.1486
L87.1440 1.3867
" />
<path d="M87.1440 1.3867
L87.0964 1.4820
" />
<path d="M87.0964 1.4820
L87.0488 1.5296
" />
<path d="M87.0488 1.5296
L86.9536 1.5772
" />
<path d="M86.9536 1.5772
L86.6679 1.5772
" />
<path d="M86.6679 1.5772
L86.5726 1.5296
" />
<path d="M86.5726 1.5296
L86.5250 1.4820
" />
<path d="M87.5726 1.4820
L87.6202 1.5296
" />
<path d="M87.6202 1.5296
L87.5726 1.5772
" />
<path d="M87.5726 1.5772
L87.5250 1.5296
" />
<path d="M87.5250 1.5296
L87.5726 1.4820
" />
<path d="M87.5726 1.4820
L87.5726 1.5772
" />
<path d="M88.0964 1.5772
L88.2869 1.5772
" />
<path d="M88.2869 1.5772
L88.3821 1.5296
" />
<path d="M88.3821 1.5296
L88.4298 1.4820
" />
<path d="M88.4298 1.4820
L88.5250 1.3391
" />
<path d="M88.5250 1.3391
L88.5726 1.1486
" />
<path d="M88.5726 1.1486
L88.5726 0.7677
" />
<path d="M88.5726 0.7677
L88.5250 0.6725
" />
<path d="M88.5250 0.6725
L88.4774 0.6248
" />
<path d="M88.4774 0.6248
L88.3821 0.5772
" />
<path d="M88.3821 0.5772
L88.1917 0.5772
" />
<path d="M88.1917 0.5772
L88.0964 0.6248
" />
<path d="M88.0964 0.6248
L88.0488 0.6725
" />
<path d="M88.0488 0.6725
L88.0012 0.7677
" />
<path d="M88.0012 0.7677
L88.0012 1.0058
" />
<path d="M88.0012 1.0058
L88.0488 1.1010
" />
<path d="M88.0488 1.1010
L88.0964 1.1486
" />
<path d="M88.0964 1.1486
L88.1917 1.1963
" />
<path d="M88.1917 1.1963
L88.3821 1.1963
" />
<path d="M88.3821 1.1963
L88.4774 1.1486
" />
<path d="M88.4774 1.1486
L88.5250 1.1010
" />
<path d="M88.5250 1.1010
L88.5726 1.0058
" />
<path d="M89.4774 0.5772
L89.0012 0.5772
" />
<path d="M89.0012 0.5772
L88.9536 1.0534
" />
<path d="M88.9536 1.0534
L89.0012 1.0058
" />
<path d="M89.0012 1.0058
L89.0964 0.9582
" />
<path d="M89.0964 0.9582
L89.3345 0.9582
" />
<path d="M89.3345 0.9582
L89.4298 1.0058
" />
<path d="M89.4298 1.0058
L89.4774 1.0534
" />
<path d="M89.4774 1.0534
L89.5250 1.1486
" />
<path d="M89.5250 1.1486
L89.5250 1.3867
" />
<path d="M89.5250 1.3867
L89.4774 1.4820
" />
<path d="M89.4774 1.4820
L89.4298 1.5296
" />
<path d="M89.4298 1.5296
L89.3345 1.5772
" />
<path d="M89.3345 1.5772
L89.0964 1.5772
" />
<path d="M89.0964 1.5772
L89.0012 1.5296
" />
<path d="M89.0012 1.5296
L88.9536 1.4820
" />
<path d="M89.9536 1.5772
L89.9536 0.9106
" />
<path d="M89.9536 0.5772
L89.9060 0.6248
" />
<path d="M89.9060 0.6248
L89.9536 0.6725
" />
<path d="M89.9536 0.6725
L90.0012 0.6248
" />
<path d="M90.0012 0.6248
L89.9536 0.5772
" />
<path d="M89.9536 0.5772
L89.9536 0.6725
" />
<path d="M90.4298 0.9106
L90.4298 1.5772
" />
<path d="M90.4298 1.0058
L90.4774 0.9582
" />
<path d="M90.4774 0.9582
L90.5726 0.9106
" />
<path d="M90.5726 0.9106
L90.7155 0.9106
" />
<path d="M90.7155 0.9106
L90.8107 0.9582
" />
<path d="M90.8107 0.9582
L90.8583 1.0534
" />
<path d="M90.8583 1.0534
L90.8583 1.5772
" />
<path d="M91.2393 1.9582
L91.2869 1.9106
" />
<path d="M91.2869 1.9106
L91.3821 1.7677
" />
<path d="M91.3821 1.7677
L91.4298 1.6725
" />
<path d="M91.4298 1.6725
L91.4774 1.5296
" />
<path d="M91.4774 1.5296
L91.5250 1.2915
" />
<path d="M91.5250 1.2915
L91.5250 1.1010
" />
<path d="M91.5250 1.1010
L91.4774 0.8629
" />
<path d="M91.4774 0.8629
L91.4298 0.7201
" />
<path d="M91.4298 0.7201
L91.3821 0.6248
" />
<path d="M91.3821 0.6248
L91.2869 0.4820
" />
<path d="M91.2869 0.4820
L91.2393 0.4344
" />
</g><text x="18.0250" y="13.0250"
textLength="5.4952" font-size="1.3333" lengthAdjust="spacingAndGlyphs"
text-anchor="middle" opacity="0" stroke-opacity="0">D-PAD</text>
<g class="stroked-text"><desc>D-PAD</desc>
<path d="M15.7155 12.9772
L15.7155 11.9772
" />
<path d="M15.7155 11.9772
L15.9536 11.9772
" />
<path d="M15.9536 11.9772
L16.0964 12.0248
" />
<path d="M16.0964 12.0248
L16.1917 12.1201
" />
<path d="M16.1917 12.1201
L16.2393 12.2153
" />
<path d="M16.2393 12.2153
L16.2869 12.4058
" />
<path d="M16.2869 12.4058
L16.2869 12.5486
" />
<path d="M16.2869 12.5486
L16.2393 12.7391
" />
<path d="M16.2393 12.7391
L16.1917 12.8344
" />
<path d="M16.1917 12.8344
L16.0964 12.9296
" />
<path d="M16.0964 12.9296
L15.9536 12.9772
" />
<path d="M15.9536 12.9772
L15.7155 12.9772
" />
<path d="M16.7155 12.5963
L17.4774 12.5963
" />
<path d="M17.9536 12.9772
L17.9536 11.9772
" />
<path d="M17.9536 11.9772
L18.3345 11.9772
" />
<path d="M18.3345 11.9772
L18.4298 12.0248
" />
<path d="M18.4298 12.0248
L18.4774 12.0725
" />
<path d="M18.4774 12.0725
L18.5250 12.1677
" />
<path d="M18.5250 12.1677
L18.5250 12.3106
" />
<path d="M18.5250 12.3106
L18.4774 12.4058
" />
<path d="M18.4774 12.4058
L18.4298 12.4534
" />
<path d="M18.4298 12.4534
L18.3345 12.5010
" />
<path d="M18.3345 12.5010
L17.9536 12.5010
" />
<path d="M18.9060 12.6915
L19.3821 12.6915
" />
<path d="M18.8107 12.9772
L19.1440 11.9772
" />
<path d="M19.1440 11.9772
L19.4774 12.9772
" />
<path d="M19.8107 12.9772
L19.8107 11.9772
" />
<path d="M19.8107 11.9772
L20.0488 11.9772
" />
<path d="M20.0488 11.9772
L20.1917 12.0248
" />
<path d="M20.1917 12.0248
L20.2869 12.1201
" />
<path d="M20.2869 12.1201
L20.3345 12.2153
" />
<path d="M20.3345 12.2153
L20.3821 12.4058
" />
<path d="M20.3821 12.4058
L20.3821 12.5486
" />
<path d="M20.3821 12.5486
L20.3345 12.7391
" />
<path d="M20.3345 12.7391
L20.2869 12.8344
" />
<path d="M20.2869 12.8344
L20.1917 12.9296
" />
<path d="M20.1917 12.9296
L20.0488 12.9772
" />
<path d="M20.0488 12.9772
L19.8107 12.9772
" />
</g><text x="142.0250" y="13.0250"
textLength="4.0667" font-size="1.3333" lengthAdjust="spacingAndGlyphs"
text-anchor="middle" opacity="0" stroke-opacity="0">ABXY</text>
<g class="stroked-text"><desc>ABXY</desc>
<path d="M140.3821 12.6915
L140.8583 12.6915
" />
<path d="M140.2869 12.9772
L140.6202 11.9772
" />
<path d="M140.6202 11.9772
L140.9536 12.9772
" />
<path d="M141.6202 12.4534
L141.7631 12.5010
" />
<path d="M141.7631 12.5010
L141.8107 12.5486
" />
<path d="M141.8107 12.5486
L141.8583 12.6439
" />
<path d="M141.8583 12.6439
L141.8583 12.7867
" />
<path d="M141.8583 12.7867
L141.8107 12.8820
" />
<path d="M141.8107 12.8820
L141.7631 12.9296
" />
<path d="M141.7631 12.9296
L141.6679 12.9772
" />
<path d="M141.6679 12.9772
L141.2869 12.9772
" />
<path d="M141.2869 12.9772
L141.2869 11.9772
" />
<path d="M141.2869 11.9772
L141.6202 11.9772
" />
<path d="M141.6202 11.9772
L141.7155 12.0248
" />
<path d="M141.7155 12.0248
L141.7631 12.0725
" />
<path d="M141.7631 12.0725
L141.8107 12.1677
" />
<path d="M141.8107 12.1677
L141.8107 12.2629
" />
<path d="M141.8107 12.2629
L141.7631 12.3582
" />
<path d="M141.7631 12.3582
L141.7155 12.4058
" />
<path d="M141.7155 12.4058
L141.6202 12.4534
" />
<path d="M141.6202 12.4534
L141.2869 12.4534
" />
<path d="M142.1917 11.9772
L142.8583 12.9772
" />
<path d="M142.8583 11.9772
L142.1917 12.9772
" />
<path d="M143.4298 12.5010
L143.4298 12.9772
" />
<path d="M143.0964 11.9772
L143.4298 12.5010
" />
<path d="M143.4298 12.5010
L143.7631 11.9772
" />
</g><text x="142.0250" y="58.6250"
textLength="3.7543" font-size="1.0667" lengthAdjust="spacingAndGlyphs"
text-anchor="middle" opacity="0" stroke-opacity="0">MENU</text>
<g class="stroked-text"><desc>MENU</desc>
<path d="M140.5583 58.5847
L140.5583 57.7847
" />
<path d="M140.5583 57.7847
L140.8250 58.3561
" />
<path d="M140.8250 58.3561
L141.0917 57.7847
" />
<path d="M141.0917 57.7847
L141.0917 58.5847
" />
<path d="M141.4726 58.1656
L141.7393 58.1656
" />
<path d="M141.8536 58.5847
L141.4726 58.5847
" />
<path d="M141.4726 58.5847
L141.4726 57.7847
" />
<path d="M141.4726 57.7847
L141.8536 57.7847
" />
<path d="M142.1964 58.5847
L142.1964 57.7847
" />
<path d="M142.1964 57.7847
L142.6536 58.5847
" />
<path d="M142.6536 58.5847
L142.6536 57.7847
" />
<path d="M143.0345 57.7847
L143.0345 58.4323
" />
<path d="M143.0345 58.4323
L143.0726 58.5085
" />
<path d="M143.0726 58.5085
L143.1107 58.5466
" />
<path d="M143.1107 58.5466
L143.1869 58.5847
" />
<path d="M143.1869 58.5847
L143.3393 58.5847
" />
<path d="M143.3393 58.5847
L143.4155 58.5466
" />
<path d="M143.4155 58.5466
L143.4536 58.5085
" />
<path d="M143.4536 58.5085
L143.4917 58.4323
" />
<path d="M143.4917 58.4323
L143.4917 57.7847
" />
</g><text x="25.0250" y="70.9250"
textLength="2.8781" font-size="1.0667" lengthAdjust="spacingAndGlyphs"
text-anchor="middle" opacity="0" stroke-opacity="0">CHG</text>
<g class="stroked-text"><desc>CHG</desc>
<path d="M24.4536 70.8085
L24.4155 70.8466
" />
<path d="M24.4155 70.8466
L24.3012 70.8847
" />
<path d="M24.3012 70.8847
L24.2250 70.8847
" />
<path d="M24.2250 70.8847
L24.1107 70.8466
" />
<path d="M24.1107 70.8466
L24.0345 70.7704
" />
<path d="M24.0345 70.7704
L23.9964 70.6942
" />
<path d="M23.9964 70.6942
L23.9583 70.5418
" />
<path d="M23.9583 70.5418
L23.9583 70.4276
" />
<path d="M23.9583 70.4276
L23.9964 70.2752
" />
<path d="M23.9964 70.2752
L24.0345 70.1990
" />
<path d="M24.0345 70.1990
L24.1107 70.1228
" />
<path d="M24.1107 70.1228
L24.2250 70.0847
" />
<path d="M24.2250 70.0847
L24.3012 70.0847
" />
<path d="M24.3012 70.0847
L24.4155 70.1228
" />
<path d="M24.4155 70.1228
L24.4536 70.1609
" />
<path d="M24.7964 70.8847
L24.7964 70.0847
" />
<path d="M24.7964 70.4656
L25.2536 70.4656
" />
<path d="M25.2536 70.8847
L25.2536 70.0847
" />
<path d="M26.0536 70.1228
L25.9774 70.0847
" />
<path d="M25.9774 70.0847
L25.8631 70.0847
" />
<path d="M25.8631 70.0847
L25.7488 70.1228
" />
<path d="M25.7488 70.1228
L25.6726 70.1990
" />
<path d="M25.6726 70.1990
L25.6345 70.2752
" />
<path d="M25.6345 70.2752
L25.5964 70.4276
" />
<path d="M25.5964 70.4276
L25.5964 70.5418
" />
<path d="M25.5964 70.5418
L25.6345 70.6942
" />
<path d="M25.6345 70.6942
L25.6726 70.7704
" />
<path d="M25.6726 70.7704
L25.7488 70.8466
" />
<path d="M25.7488 70.8466
L25.8631 70.8847
" />
<path d="M25.8631 70.8847
L25.9393 70.8847
" />
<path d="M25.9393 70.8847
L26.0536 70.8466
" />
<path d="M26.0536 70.8466
L26.0917 70.8085
" />
<path d="M26.0917 70.8085
L26.0917 70.5418
" />
<path d="M26.0917 70.5418
L25.9393 70.5418
" />
</g><text x="32.0250" y="70.9250"
textLength="3.2590" font-size="1.0667" lengthAdjust="spacingAndGlyphs"
text-anchor="middle" opacity="0" stroke-opacity="0">FULL</text>
<g class="stroked-text"><desc>FULL</desc>
<path d="M31.0726 70.4656
L30.8060 70.4656
" />
<path d="M30.8060 70.8847
L30.8060 70.0847
" />
<path d="M30.8060 70.0847
L31.1869 70.0847
" />
<path d="M31.4917 70.0847
L31.4917 70.7323
" />
<path d="M31.4917 70.7323
L31.5298 70.8085
" />
<path d="M31.5298 70.8085
L31.5679 70.8466
" />
<path d="M31.5679 70.8466
L31.6440 70.8847
" />
<path d="M31.6440 70.8847
L31.7964 70.8847
" />
<path d="M31.7964 70.8847
L31.8726 70.8466
" />
<path d="M31.8726 70.8466
L31.9107 70.8085
" />
<path d="M31.9107 70.8085
L31.9488 70.7323
" />
<path d="M31.9488 70.7323
L31.9488 70.0847
" />
<path d="M32.7107 70.8847
L32.3298 70.8847
" />
<path d="M32.3298 70.8847
L32.3298 70.0847
" />
<path d="M33.3583 70.8847
L32.9774 70.8847
" />
<path d="M32.9774 70.8847
L32.9774 70.0847
" />
</g></g>
<g style="fill:#D864FF; fill-opacity:0.4000; stroke:none;">
<circle cx="10.0250" cy="7.0250" r="1.2500" /> 
<circle cx="150.0250" cy="7.0250" r="1.2500" /> 
<circle cx="10.0250" cy="68.0250" r="1.2500" /> 
<circle cx="150.0250" cy="68.0250" r="1.2500" /> 
<circle cx="55.0250" cy="37.5250" r="1.2500" /> 
<circle cx="105.0250" cy="37.5250" r="1.2500" /> 
<path style="fill:#D864FF; fill-opacity:0.4000; stroke:none;fill-rule:evenodd;"
d="M 14.4250,22.1250
14.4250,21.2250
15.6250,21.2250
15.6250,22.1250
Z" /> 
<path style="fill:#D864FF; fill-opacity:0.4000; stroke:none;fill-rule:evenodd;"
d="M 20.4250,22.1250
20.4250,21.2250
21.6250,21.2250
21.6250,22.1250
Z" /> 
<path style="fill:#D864FF; fill-opacity:0.4000; stroke:none;fill-rule:evenodd;"
d="M 14.4250,25.8250
14.4250,24.9250
15.6250,24.9250
15.6250,25.8250
Z" /> 
<path style="fill:#D864FF; fill-opacity:0.4000; stroke:none;fill-rule:evenodd;"
d="M 20.4250,25.8250
20.4250,24.9250
21.6250,24.9250
21.6250,25.8250
Z" /> 
<path style="fill:#D864FF; fill-opacity:0.4000; stroke:none;fill-rule:evenodd;"
d="M 14.4250,40.1250
14.4250,39.2250
15.6250,39.2250
15.6250,40.1250
Z" /> 
<path style="fill:#D864FF; fill-opacity:0.4000; stroke:none;fill-rule:evenodd;"
d="M 20.4250,40.1250
20.4250,39.2250
21.6250,39.2250
21.6250,40.1250
Z" /> 
<path style="fill:#D864FF; fill-opacity:0.4000; stroke:none;fill-rule:evenodd;"
d="M 14.4250,43.8250
14.4250,42.9250
15.6250,42.9250
15.6250,43.8250
Z" /> 
<path style="fill:#D864FF; fill-opacity:0.4000; stroke:none;fill-rule:evenodd;"
d="M 20.4250,43.8250
20.4250,42.9250
21.6250,42.9250
21.6250,43.8250
Z" /> 
<path style="fill:#D864FF; fill-opacity:0.4000; stroke:none;fill-rule:evenodd;"
d="M 5.4250,31.1250
5.4250,30.2250
6.6250,30.2250
6.6250,31.1250
Z" /> 
<path style="fill:#D864FF; fill-opacity:0.4000; stroke:none;fill-rule:evenodd;"
d="M 11.4250,31.1250
11.4250,30.2250
12.6250,30.2250
12.6250,31.1250
Z" /> 
<path style="fill:#D864FF; fill-opacity:0.4000; stroke:none;fill-rule:evenodd;"
d="M 5.4250,34.8250
5.4250,33.9250
6.6250,33.9250
6.6250,34.8250
Z" /> 
<path style="fill:#D864FF; fill-opacity:0.4000; stroke:none;fill-rule:evenodd;"
d="M 11.4250,34.8250
11.4250,33.9250
12.6250,33.9250
12.6250,34.8250
Z" /> 
<path style="fill:#D864FF; fill-opacity:0.4000; stroke:none;fill-rule:evenodd;"
d="M 23.4250,31.1250
23.4250,30.2250
24.6250,30.2250
24.6250,31.1250
Z" /> 
<path style="fill:#D864FF; fill-opacity:0.4000; stroke:none;fill-rule:evenodd;"
d="M 29.4250,31.1250
29.4250,30.2250
30.6250,30.2250
30.6250,31.1250
Z" /> 
<path style="fill:#D864FF; fill-opacity:0.4000; stroke:none;fill-rule:evenodd;"
d="M 23.4250,34.8250
23.4250,33.9250
24.6250,33.9250
24.6250,34.8250
Z" /> 
<path style="fill:#D864FF; fill-opacity:0.4000; stroke:none;fill-rule:evenodd;"
d="M 29.4250,34.8250
29.4250,33.9250
30.6250,33.9250
30.6250,34.8250
Z" /> 
<path style="fill:#D864FF; fill-opacity:0.4000; stroke:none;fill-rule:evenodd;"
d="M 138.4250,21.1250
138.4250,20.2250
139.6250,20.2250
139.6250,21.1250
Z" /> 
<path style="fill:#D864FF; fill-opacity:0.4000; stroke:none;fill-rule:evenodd;"
d="M 144.4250,21.1250
144.4250,20.2250
145.6250,20.2250
145.6250,21.1250
Z" /> 
<path style="fill:#D864FF; fill-opacity:0.4000; stroke:none;fill-rule:evenodd;"
d="M 138.4250,24.8250
138.4250,23.9250
139.6250,23.9250
139.6250,24.8250
Z" /> 
<path style="fill:#D864FF; fill-opacity:0.4000; stroke:none;fill-rule:evenodd;"
d="M 144.4250,24.8250
144.4250,23.9250
145.6250,23.9250
145.6250,24.8250
Z" /> 
<path style="fill:#D864FF; fill-opacity:0.4000; stroke:none;fill-rule:evenodd;"
d="M 148.4250,31.1250
148.4250,30.2250
149.6250,30.2250
149.6250,31.1250
Z" /> 
<path style="fill:#D864FF; fill-opacity:0.4000; stroke:none;fill-rule:evenodd;"
d="M 154.4250,31.1250
154.4250,30.2250
155.6250,30.2250
155.6250,31.1250
Z" /> 
<path style="fill:#D864FF; fill-opacity:0.4000; stroke:none;fill-rule:evenodd;"
d="M 148.4250,34.8250
148.4250,33.9250
149.6250,33.9250
149.6250,34.8250
Z" /> 
<path style="fill:#D864FF; fill-opacity:0.4000; stroke:none;fill-rule:evenodd;"
d="M 154.4250,34.8250
154.4250,33.9250
155.6250,33.9250
155.6250,34.8250
Z" /> 
<path style="fill:#D864FF; fill-opacity:0.4000; stroke:none;fill-rule:evenodd;"
d="M 138.4250,41.1250
138.4250,40.2250
139.6250,40.2250
139.6250,41.1250
Z" /> 
<path style="fill:#D864FF; fill-opacity:0.4000; stroke:none;fill-rule:evenodd;"
d="M 144.4250,41.1250
144.4250,40.2250
145.6250,40.2250
145.6250,41.1250
Z" /> 
<path style="fill:#D864FF; fill-opacity:0.4000; stroke:none;fill-rule:evenodd;"
d="M 138.4250,44.8250
138.4250,43.9250
139.6250,43.9250
139.6250,44.8250
Z" /> 
<path style="fill:#D864FF; fill-opacity:0.4000; stroke:none;fill-rule:evenodd;"
d="M 144.4250,44.8250
144.4250,43.9250
145.6250,43.9250
145.6250,44.8250
Z" /> 
<path style="fill:#D864FF; fill-opacity:0.4000; stroke:none;fill-rule:evenodd;"
d="M 129.4250,31.1250
129.4250,30.2250
130.6250,30.2250
130.6250,31.1250
Z" /> 
<path style="fill:#D864FF; fill-opacity:0.4000; stroke:none;fill-rule:evenodd;"
d="M 135.4250,31.1250
135.4250,30.2250
136.6250,30.2250
136.6250,31.1250
Z" /> 
<path style="fill:#D864FF; fill-opacity:0.4000; stroke:none;fill-rule:evenodd;"
d="M 129.4250,34.8250
129.4250,33.9250
130.6250,33.9250
130.6250,34.8250
Z" /> 
<path style="fill:#D864FF; fill-opacity:0.4000; stroke:none;fill-rule:evenodd;"
d="M 135.4250,34.8250
135.4250,33.9250
136.6250,33.9250
136.6250,34.8250
Z" /> 
<path style="fill:#D864FF; fill-opacity:0.4000; stroke:none;fill-rule:evenodd;"
d="M 4.4250,53.1250
4.4250,52.2250
5.6250,52.2250
5.6250,53.1250
Z" /> 
<path style="fill:#D864FF; fill-opacity:0.4000; stroke:none;fill-rule:evenodd;"
d="M 10.4250,53.1250
10.4250,52.2250
11.6250,52.2250
11.6250,53.1250
Z" /> 
<path style="fill:#D864FF; fill-opacity:0.4000; stroke:none;fill-rule:evenodd;"
d="M 4.4250,56.8250
4.4250,55.9250
5.6250,55.9250
5.6250,56.8250
Z" /> 
<path style="fill:#D864FF; fill-opacity:0.4000; stroke:none;fill-rule:evenodd;"
d="M 10.4250,56.8250
10.4250,55.9250
11.6250,55.9250
11.6250,56.8250
Z" /> 
<path style="fill:#D864FF; fill-opacity:0.4000; stroke:none;fill-rule:evenodd;"
d="M 24.4250,53.1250
24.4250,52.2250
25.6250,52.2250
25.6250,53.1250
Z" /> 
<path style="fill:#D864FF; fill-opacity:0.4000; stroke:none;fill-rule:evenodd;"
d="M 30.4250,53.1250
30.4250,52.2250
31.6250,52.2250
31.6250,53.1250
Z" /> 
<path style="fill:#D864FF; fill-opacity:0.4000; stroke:none;fill-rule:evenodd;"
d="M 24.4250,56.8250
24.4250,55.9250
25.6250,55.9250
25.6250,56.8250
Z" /> 
<path style="fill:#D864FF; fill-opacity:0.4000; stroke:none;fill-rule:evenodd;"
d="M 30.4250,56.8250
30.4250,55.9250
31.6250,55.9250
31.6250,56.8250
Z" /> 
<path style="fill:#D864FF; fill-opacity:0.4000; stroke:none;fill-rule:evenodd;"
d="M 138.4250,61.8250
138.4250,60.9250
139.6250,60.9250
139.6250,61.8250
Z" /> 
<path style="fill:#D864FF; fill-opacity:0.4000; stroke:none;fill-rule:evenodd;"
d="M 144.4250,61.8250
144.4250,60.9250
145.6250,60.9250
145.6250,61.8250
Z" /> 
<path style="fill:#D864FF; fill-opacity:0.4000; stroke:none;fill-rule:evenodd;"
d="M 138.4250,65.5250
138.4250,64.6250
139.6250,64.6250
139.6250,65.5250
Z" /> 
<path style="fill:#D864FF; fill-opacity:0.4000; stroke:none;fill-rule:evenodd;"
d="M 144.4250,65.5250
144.4250,64.6250
145.6250,64.6250
145.6250,65.5250
Z" /> 
<path style="fill:#D864FF; fill-opacity:0.4000; stroke:none;fill-rule:evenodd;"
d="M 23.5750,68.1750
23.5750,66.8750
24.5750,66.8750
24.5750,68.1750
Z" /> 
<path style="fill:#D864FF; fill-opacity:0.4000; stroke:none;fill-rule:evenodd;"
d="M 25.4750,68.1750
25.4750,66.8750
26.4750,66.8750
26.4750,68.1750
Z" /> 
<path style="fill:#D864FF; fill-opacity:0.4000; stroke:none;fill-rule:evenodd;"
d="M 30.5750,68.1750
30.5750,66.8750
31.5750,66.8750
31.5750,68.1750
Z" /> 
<path style="fill:#D864FF; fill-opacity:0.4000; stroke:none;fill-rule:evenodd;"
d="M 32.4750,68.1750
32.4750,66.8750
33.4750,66.8750
33.4750,68.1750
Z" /> 
</g>
<g style="fill:none; 
stroke:#D864FF; stroke-width:1.7000; stroke-opacity:1; 
stroke-linecap:round; stroke-linejoin:round;">
<path d="M84.3500 69.2500
L84.3500 69.5500
" />
<path d="M75.7000 69.2500
L75.7000 69.5500
" />
</g>
<g style="fill:none; 
stroke:#D864FF; stroke-width:1.4000; stroke-opacity:1; 
stroke-linecap:round; stroke-linejoin:round;">
<path d="M84.3500 73.4000
L84.3500 73.8000
" />
<path d="M75.7000 73.4000
L75.7000 73.8000
" />
</g>
<g style="fill:#D864FF; fill-opacity:0.4000; stroke:none;">
<circle cx="82.9150" cy="69.9200" r="0.3250" /> 
<circle cx="77.1350" cy="69.9200" r="0.3250" /> 
<circle cx="144.9750" cy="72.5910" r="0.5000" /> 
<circle cx="136.9750" cy="72.5910" r="0.5000" /> 
<circle cx="41.5250" cy="72.5750" r="0.4500" /> 
<circle cx="38.5250" cy="72.5750" r="0.4500" /> 
<circle cx="81.0250" cy="62.5250" r="0.8000" /> 
<circle cx="79.0250" cy="62.5250" r="0.8000" /> 
<circle cx="5.0250" cy="5.0250" r="1.0000" /> 
<circle cx="155.0250" cy="5.0250" r="1.0000" /> 
<circle cx="5.0250" cy="70.0250" r="1.0000" /> 
</g>
<g style="fill:none; 
stroke:#D0D2CD; stroke-width:0.0500; stroke-opacity:1; 
stroke-linecap:round; stroke-linejoin:round;">
<path d="M6.0250 0.0250
L154.0250 0.0250
" />
<path d="M160.0250 6.0250
L160.0250 69.0250
" />
<path d="M154.0250 75.0250
L6.0250 75.0250
" />
<path d="M0.0250 69.0250
L0.0250 6.0250
" />
<path d="M6.0250 0.0250 A6.0000 6.0000 0.0 0 0 0.0250 6.0250" />
<path d="M160.0250 6.0250 A6.0000 6.0000 0.0 0 0 154.0250 0.0250" />
<path d="M154.0250 75.0250 A6.0000 6.0000 0.0 0 0 160.0250 69.0250" />
<path d="M0.0250 69.0250 A6.0000 6.0000 0.0 0 0 6.0250 75.0250" />
<path d="M125.5250 23.5250
L128.5250 23.5250
" />
<path d="M128.5250 23.5250
L128.5250 47.5250
" />
<path d="M128.5250 47.5250
L125.5250 47.5250
" />
<path d="M125.5250 47.5250
L125.5250 23.5250
" />
</g>
<g style="fill:#FFFFFF; fill-opacity:1.0000; stroke:none;">
<circle cx="82.2750" cy="61.0250" r="0.1750" /> 
<circle cx="111.0250" cy="40.1200" r="0.1750" /> 
<circle cx="112.4250" cy="45.5250" r="0.1750" /> 
<circle cx="127.3250" cy="60.6750" r="0.1750" /> 
<circle cx="77.0250" cy="62.5250" r="0.1750" /> 
<circle cx="76.8250" cy="66.2250" r="0.1000" /> 
<circle cx="80.0250" cy="35.0250" r="0.1000" /> 
<circle cx="141.0850" cy="61.7490" r="0.1000" /> 
<circle cx="143.2850" cy="61.7490" r="0.1000" /> 
<circle cx="148.7850" cy="62.5990" r="0.1000" /> 
<circle cx="131.2650" cy="72.3010" r="0.1000" /> 
<circle cx="107.5250" cy="39.1200" r="0.1750" /> 
<circle cx="122.7250" cy="56.6750" r="0.1750" /> 
<circle cx="112.4250" cy="49.5250" r="0.1750" /> 
<circle cx="115.9750" cy="54.5250" r="0.1750" /> 
<circle cx="125.0250" cy="49.3750" r="0.1750" /> 
<circle cx="124.5250" cy="52.0250" r="0.1000" /> 
<circle cx="125.5250" cy="52.0250" r="0.1000" /> 
<circle cx="124.5250" cy="52.7250" r="0.1000" /> 
<circle cx="125.5250" cy="52.7250" r="0.1000" /> 
<circle cx="88.7750" cy="21.0350" r="0.1000" /> 
<circle cx="105.5250" cy="46.1600" r="0.1750" /> 
<circle cx="80.5250" cy="46.1600" r="0.1750" /> 
<circle cx="39.2750" cy="68.3250" r="0.1750" /> 
<circle cx="38.0250" cy="46.1600" r="0.1750" /> 
<circle cx="80.6600" cy="38.1400" r="0.1000" /> 
<circle cx="101.0350" cy="38.1400" r="0.1250" /> 
<circle cx="110.0250" cy="38.1400" r="0.1250" /> 
<circle cx="124.0250" cy="38.1400" r="0.1000" /> 
<circle cx="124.0250" cy="5.0250" r="0.1000" /> 
<circle cx="140.4250" cy="5.0250" r="0.1000" /> 
<circle cx="78.1200" cy="36.8700" r="0.1000" /> 
<circle cx="101.5750" cy="36.8700" r="0.1250" /> 
<circle cx="108.2450" cy="36.8700" r="0.1250" /> 
<circle cx="122.9250" cy="36.8700" r="0.1000" /> 
<circle cx="122.9250" cy="6.0250" r="0.1000" /> 
<circle cx="139.7250" cy="6.0250" r="0.1000" /> 
<circle cx="85.7400" cy="35.6000" r="0.1000" /> 
<circle cx="102.3450" cy="35.6000" r="0.1250" /> 
<circle cx="107.7050" cy="35.6000" r="0.1250" /> 
<circle cx="121.8250" cy="35.6000" r="0.1000" /> 
<circle cx="121.8250" cy="7.0250" r="0.1000" /> 
<circle cx="139.0250" cy="7.0250" r="0.1000" /> 
<circle cx="87.0100" cy="34.3300" r="0.1000" /> 
<circle cx="120.7250" cy="34.3300" r="0.1000" /> 
<circle cx="120.7250" cy="8.0250" r="0.1000" /> 
<circle cx="138.3250" cy="8.0250" r="0.1000" /> 
<circle cx="79.3900" cy="33.0600" r="0.1000" /> 
<circle cx="119.6250" cy="33.0600" r="0.1000" /> 
<circle cx="119.6250" cy="9.0250" r="0.1000" /> 
<circle cx="137.6250" cy="9.0250" r="0.1000" /> 
<circle cx="90.7750" cy="26.0750" r="0.1000" /> 
<circle cx="118.5250" cy="26.0750" r="0.1000" /> 
<circle cx="118.5250" cy="10.0250" r="0.1000" /> 
<circle cx="136.9250" cy="10.0250" r="0.1000" /> 
<circle cx="90.7750" cy="27.3450" r="0.1000" /> 
<circle cx="117.4250" cy="27.3450" r="0.1000" /> 
<circle cx="117.4250" cy="11.0250" r="0.1000" /> 
<circle cx="136.2250" cy="11.0250" r="0.1000" /> 
<circle cx="90.7750" cy="28.6150" r="0.1000" /> 
<circle cx="116.3250" cy="28.6150" r="0.1000" /> 
<circle cx="116.3250" cy="12.0250" r="0.1000" /> 
<circle cx="135.5250" cy="12.0250" r="0.1000" /> 
<circle cx="90.7750" cy="29.8850" r="0.1000" /> 
<circle cx="115.2250" cy="29.8850" r="0.1000" /> 
<circle cx="115.2250" cy="13.0250" r="0.1000" /> 
<circle cx="134.8250" cy="13.0250" r="0.1000" /> 
<circle cx="90.7750" cy="36.2350" r="0.1000" /> 
<circle cx="99.5250" cy="36.2350" r="0.1250" /> 
<circle cx="111.5250" cy="36.2350" r="0.1250" /> 
<circle cx="114.1250" cy="36.2350" r="0.1000" /> 
<circle cx="114.1250" cy="14.0250" r="0.1000" /> 
<circle cx="134.1250" cy="14.0250" r="0.1000" /> 
<circle cx="84.4700" cy="31.7900" r="0.1000" /> 
<circle cx="113.0250" cy="31.7900" r="0.1000" /> 
<circle cx="113.0250" cy="15.0250" r="0.1000" /> 
<circle cx="131.0250" cy="15.0250" r="0.1000" /> 
<circle cx="83.2000" cy="20.5250" r="0.1000" /> 
<circle cx="111.9250" cy="20.5250" r="0.1000" /> 
<circle cx="111.9250" cy="16.0250" r="0.1000" /> 
<circle cx="131.7250" cy="16.0250" r="0.1000" /> 
<circle cx="81.9300" cy="19.5250" r="0.1000" /> 
<circle cx="110.8250" cy="19.5250" r="0.1000" /> 
<circle cx="110.8250" cy="17.0250" r="0.1000" /> 
<circle cx="132.4250" cy="17.0250" r="0.1000" /> 
<circle cx="73.0400" cy="27.9800" r="0.1000" /> 
<circle cx="109.7250" cy="27.9800" r="0.1000" /> 
<circle cx="109.7250" cy="18.0250" r="0.1000" /> 
<circle cx="133.1250" cy="18.0250" r="0.1000" /> 
<circle cx="133.6250" cy="25.2750" r="0.1000" /> 
<circle cx="133.6250" cy="27.4250" r="0.1000" /> 
<circle cx="133.6250" cy="28.2750" r="0.1000" /> 
<circle cx="133.1250" cy="43.2750" r="0.1000" /> 
<circle cx="143.5250" cy="43.2750" r="0.1000" /> 
<circle cx="143.5250" cy="50.2750" r="0.1000" /> 
<circle cx="133.6250" cy="37.7750" r="0.1000" /> 
<circle cx="133.6250" cy="26.2750" r="0.1000" /> 
<circle cx="132.0250" cy="50.2750" r="0.1000" /> 
<circle cx="72.2250" cy="36.2350" r="0.1000" /> 
<circle cx="75.0250" cy="36.2350" r="0.1000" /> 
<circle cx="75.0250" cy="1.5250" r="0.1000" /> 
<circle cx="141.2250" cy="1.5250" r="0.1000" /> 
<circle cx="141.2250" cy="66.0250" r="0.1000" /> 
<circle cx="139.9850" cy="66.0250" r="0.1000" /> 
<circle cx="72.2250" cy="34.9650" r="0.1000" /> 
<circle cx="76.0250" cy="34.9650" r="0.1000" /> 
<circle cx="76.0250" cy="2.2250" r="0.1000" /> 
<circle cx="145.6250" cy="2.2250" r="0.1000" /> 
<circle cx="145.6250" cy="67.5250" r="0.1000" /> 
<circle cx="144.3850" cy="67.5250" r="0.1000" /> 
<circle cx="72.2250" cy="33.6950" r="0.1000" /> 
<circle cx="77.0250" cy="33.6950" r="0.1000" /> 
<circle cx="77.0250" cy="2.9250" r="0.1000" /> 
<circle cx="152.5250" cy="2.9250" r="0.1000" /> 
<circle cx="152.5250" cy="70.5250" r="0.1000" /> 
<circle cx="142.1850" cy="70.5250" r="0.1000" /> 
<circle cx="72.2250" cy="32.4250" r="0.1000" /> 
<circle cx="78.0250" cy="32.4250" r="0.1000" /> 
<circle cx="78.0250" cy="3.6250" r="0.1000" /> 
<circle cx="153.5250" cy="3.6250" r="0.1000" /> 
<circle cx="153.5250" cy="71.0250" r="0.1000" /> 
<circle cx="138.8850" cy="71.0250" r="0.1000" /> 
<circle cx="87.7250" cy="18.0250" r="0.1000" /> 
<circle cx="33.2000" cy="18.0250" r="0.1000" /> 
<circle cx="24.5250" cy="22.5250" r="0.1000" /> 
<circle cx="39.5250" cy="22.5250" r="0.1000" /> 
<circle cx="28.1200" cy="23.7250" r="0.1000" /> 
<circle cx="20.5250" cy="23.7250" r="0.1000" /> 
<circle cx="31.9300" cy="28.8250" r="0.1000" /> 
<circle cx="29.3900" cy="28.7250" r="0.1000" /> 
<circle cx="26.8500" cy="24.8250" r="0.1000" /> 
<circle cx="26.8500" cy="34.3250" r="0.1000" /> 
<circle cx="31.9300" cy="34.3250" r="0.1000" /> 
<circle cx="38.8750" cy="25.3250" r="0.1000" /> 
<circle cx="33.2000" cy="32.2250" r="0.1000" /> 
<circle cx="37.0750" cy="32.2250" r="0.1000" /> 
<circle cx="38.8750" cy="33.7250" r="0.1000" /> 
<circle cx="38.8750" cy="24.5250" r="0.1000" /> 
<circle cx="31.9300" cy="25.8250" r="0.1000" /> 
<circle cx="38.0250" cy="25.8250" r="0.1000" /> 
<circle cx="38.0250" cy="30.9750" r="0.1000" /> 
<circle cx="29.3900" cy="20.5750" r="0.1000" /> 
<circle cx="31.5250" cy="38.9750" r="0.1000" /> 
<circle cx="80.6250" cy="65.9500" r="0.1000" /> 
<circle cx="90.2750" cy="65.9500" r="0.1000" /> 
<circle cx="79.7750" cy="64.6000" r="0.1000" /> 
<circle cx="91.6750" cy="64.6000" r="0.1000" /> 
<circle cx="81.2750" cy="67.4250" r="0.1000" /> 
<circle cx="74.9750" cy="67.4250" r="0.1000" /> 
<circle cx="73.0750" cy="65.5250" r="0.1000" /> 
<circle cx="77.0750" cy="63.8250" r="0.1000" /> 
<circle cx="22.2250" cy="21.6750" r="0.1000" /> 
<circle cx="22.2250" cy="62.0250" r="0.1000" /> 
<circle cx="67.4750" cy="62.0250" r="0.1000" /> 
<circle cx="67.4750" cy="31.1550" r="0.1000" /> 
<circle cx="69.2750" cy="31.1550" r="0.1000" /> 
<circle cx="16.0250" cy="25.8750" r="0.1000" /> 
<circle cx="22.9750" cy="39.6750" r="0.1000" /> 
<circle cx="22.9750" cy="63.2250" r="0.1000" /> 
<circle cx="65.5750" cy="63.2250" r="0.1000" /> 
<circle cx="65.5750" cy="29.8850" r="0.1000" /> 
<circle cx="69.2750" cy="29.8850" r="0.1000" /> 
<circle cx="16.0250" cy="43.8750" r="0.1000" /> 
<circle cx="13.2250" cy="30.6750" r="0.1000" /> 
<circle cx="13.2250" cy="64.4250" r="0.1000" /> 
<circle cx="62.4750" cy="64.4250" r="0.1000" /> 
<circle cx="62.4750" cy="28.6150" r="0.1000" /> 
<circle cx="69.2750" cy="28.6150" r="0.1000" /> 
<circle cx="7.5250" cy="34.8750" r="0.1000" /> 
<circle cx="34.2250" cy="30.6750" r="0.1000" /> 
<circle cx="34.2250" cy="65.6250" r="0.1000" /> 
<circle cx="58.5750" cy="65.6250" r="0.1000" /> 
<circle cx="58.5750" cy="24.8050" r="0.1000" /> 
<circle cx="69.2750" cy="24.8050" r="0.1000" /> 
<circle cx="25.5250" cy="34.8750" r="0.1000" /> 
<circle cx="130.3250" cy="20.6750" r="0.1000" /> 
<circle cx="130.3250" cy="66.8250" r="0.1000" /> 
<circle cx="52.4750" cy="66.8250" r="0.1000" /> 
<circle cx="52.4750" cy="23.5350" r="0.1000" /> 
<circle cx="69.2750" cy="23.5350" r="0.1000" /> 
<circle cx="143.5250" cy="24.8750" r="0.1000" /> 
<circle cx="142.8250" cy="30.6750" r="0.1000" /> 
<circle cx="142.8250" cy="68.0250" r="0.1000" /> 
<circle cx="45.4750" cy="68.0250" r="0.1000" /> 
<circle cx="45.4750" cy="41.5250" r="0.1000" /> 
<circle cx="73.2750" cy="41.5250" r="0.1000" /> 
<circle cx="154.0750" cy="34.8750" r="0.1000" /> 
<circle cx="129.8150" cy="40.6750" r="0.1000" /> 
<circle cx="129.8150" cy="70.8250" r="0.1000" /> 
<circle cx="36.4750" cy="70.8250" r="0.1000" /> 
<circle cx="36.4750" cy="42.7250" r="0.1000" /> 
<circle cx="73.5800" cy="42.7250" r="0.1000" /> 
<circle cx="143.5250" cy="44.8750" r="0.1000" /> 
<circle cx="129.3050" cy="30.6750" r="0.1000" /> 
<circle cx="129.3050" cy="71.5750" r="0.1000" /> 
<circle cx="27.4750" cy="71.5750" r="0.1000" /> 
<circle cx="27.4750" cy="43.9250" r="0.1000" /> 
<circle cx="74.8500" cy="43.9250" r="0.1000" /> 
<circle cx="140.0250" cy="49.0250" r="0.1000" /> 
<circle cx="12.2250" cy="52.6750" r="0.1000" /> 
<circle cx="12.2250" cy="72.3750" r="0.1000" /> 
<circle cx="100.4750" cy="72.3750" r="0.1000" /> 
<circle cx="100.4750" cy="34.9650" r="0.1000" /> 
<circle cx="90.7750" cy="34.9650" r="0.1000" /> 
<circle cx="6.5250" cy="56.8750" r="0.1000" /> 
<circle cx="34.9750" cy="52.6750" r="0.1000" /> 
<circle cx="34.9750" cy="72.8850" r="0.1000" /> 
<circle cx="60.4750" cy="72.8850" r="0.1000" /> 
<circle cx="60.4750" cy="45.1250" r="0.1000" /> 
<circle cx="73.2750" cy="45.1250" r="0.1000" /> 
<circle cx="26.5250" cy="56.8750" r="0.1000" /> 
<circle cx="16.8750" cy="73.5550" r="0.1000" /> 
<circle cx="68.0250" cy="73.5550" r="0.1000" /> 
<circle cx="68.0250" cy="37.5050" r="0.1000" /> 
<circle cx="14.6750" cy="8.5250" r="0.1000" /> 
<circle cx="146.8750" cy="65.4250" r="0.1000" /> 
<circle cx="76.2250" cy="65.4250" r="0.1000" /> 
<circle cx="76.2250" cy="45.0250" r="0.1000" /> 
<circle cx="65.0250" cy="42.1250" r="0.1000" /> 
<circle cx="144.6750" cy="8.5250" r="0.1000" /> 
<circle cx="41.8250" cy="44.5250" r="0.1000" /> 
<circle cx="46.8250" cy="44.5250" r="0.1000" /> 
<circle cx="51.8250" cy="44.5250" r="0.1000" /> 
<circle cx="56.8250" cy="44.5250" r="0.1000" /> 
<circle cx="61.8250" cy="44.5250" r="0.1000" /> 
<circle cx="66.8250" cy="44.5250" r="0.1000" /> 
<circle cx="71.8250" cy="47.5250" r="0.1000" /> 
<circle cx="76.9750" cy="44.5250" r="0.1000" /> 
<circle cx="81.8250" cy="44.5250" r="0.1000" /> 
<circle cx="86.8250" cy="44.5250" r="0.1000" /> 
<circle cx="92.2250" cy="44.5250" r="0.1000" /> 
<circle cx="96.8250" cy="44.5250" r="0.1000" /> 
<circle cx="101.8250" cy="44.5250" r="0.1000" /> 
<circle cx="41.8250" cy="52.0250" r="0.1000" /> 
<circle cx="46.8250" cy="52.0250" r="0.1000" /> 
<circle cx="51.8250" cy="52.0250" r="0.1000" /> 
<circle cx="56.8250" cy="52.0250" r="0.1000" /> 
<circle cx="61.8250" cy="52.0250" r="0.1000" /> 
<circle cx="66.8250" cy="52.0250" r="0.1000" /> 
<circle cx="71.8250" cy="52.0250" r="0.1000" /> 
<circle cx="76.9750" cy="52.0250" r="0.1000" /> 
<circle cx="81.8250" cy="52.0250" r="0.1000" /> 
<circle cx="86.8250" cy="52.0250" r="0.1000" /> 
<circle cx="92.2250" cy="52.0250" r="0.1000" /> 
<circle cx="96.8250" cy="52.0250" r="0.1000" /> 
<circle cx="101.8250" cy="52.0250" r="0.1000" /> 
<circle cx="70.4750" cy="44.5250" r="0.1000" /> 
<circle cx="68.5750" cy="40.0250" r="0.1000" /> 
<circle cx="92.9750" cy="40.6250" r="0.1000" /> 
<circle cx="91.0750" cy="40.0250" r="0.1000" /> 
<circle cx="122.9750" cy="46.0250" r="0.1000" /> 
<circle cx="121.0750" cy="46.0250" r="0.1000" /> 
<circle cx="123.5250" cy="64.5250" r="0.1000" /> 
<circle cx="110.9750" cy="33.6750" r="0.1000" /> 
<circle cx="109.0750" cy="37.5250" r="0.1000" /> 
<circle cx="118.9750" cy="52.5250" r="0.1000" /> 
<circle cx="117.0750" cy="57.5250" r="0.1000" /> 
<circle cx="113.0250" cy="56.5250" r="0.1000" /> 
<circle cx="108.5250" cy="59.5250" r="0.1000" /> 
<circle cx="24.0750" cy="62.6750" r="0.1000" /> 
<circle cx="25.9750" cy="66.2750" r="0.1750" /> 
<circle cx="23.3750" cy="67.5250" r="0.1000" /> 
<circle cx="31.0750" cy="62.6750" r="0.1000" /> 
<circle cx="32.9750" cy="66.2750" r="0.1750" /> 
<circle cx="30.3750" cy="67.5250" r="0.1000" /> 
</g>
<g style="fill:#000000; fill-opacity:1.0000; stroke:none;">
<circle cx="10.0250" cy="7.0250" r="1.2500" /> 
<circle cx="150.0250" cy="7.0250" r="1.2500" /> 
<circle cx="10.0250" cy="68.0250" r="1.2500" /> 
<circle cx="150.0250" cy="68.0250" r="1.2500" /> 
<circle cx="55.0250" cy="37.5250" r="1.2500" /> 
<circle cx="105.0250" cy="37.5250" r="1.2500" /> 
</g>
<g style="fill:#FFFFFF; fill-opacity:1.0000; stroke:none;">
<circle cx="84.3500" cy="69.4000" r="0.3000" /> 
</g>
<g style="fill:#FFFFFF; fill-opacity:1.0000; stroke:none;">
<circle cx="75.7000" cy="69.4000" r="0.3000" /> 
</g>
<g style="fill:#FFFFFF; fill-opacity:1.0000; stroke:none;">
<circle cx="84.3500" cy="73.6000" r="0.3000" /> 
</g>
<g style="fill:#FFFFFF; fill-opacity:1.0000; stroke:none;">
<circle cx="75.7000" cy="73.6000" r="0.3000" /> 
</g>
<g style="fill:#000000; fill-opacity:1.0000; stroke:none;">
<circle cx="82.9150" cy="69.9200" r="0.3250" /> 
<circle cx="77.1350" cy="69.9200" r="0.3250" /> 
<circle cx="144.9750" cy="72.5910" r="0.5000" /> 
<circle cx="136.9750" cy="72.5910" r="0.5000" /> 
<circle cx="41.5250" cy="72.5750" r="0.4500" /> 
<circle cx="38.5250" cy="72.5750" r="0.4500" /> 
</g>
<g style="fill:#FFFFFF; fill-opacity:1.0000; stroke:none;">
<circle cx="81.0250" cy="62.5250" r="0.4250" /> 
</g>
<g style="fill:#FFFFFF; fill-opacity:1.0000; stroke:none;">
<circle cx="79.0250" cy="62.5250" r="0.4250" /> 
</g> 
</svg>
