#VRML V2.0 utf8
# 3D model generated by easyeda2kicad.py (https://github.com/uPesy/easyeda2kicad.py)

Shape{
    appearance Appearance {
        material  Material 	{
            diffuseColor 1.0 1.0 1.0
            specularColor 0.5019607843137255 0.5019607843137255 0.5019607843137255
            ambientIntensity 1.0
            transparency 0.0
            shininess 0.5
        }
    }
    geometry IndexedFaceSet {
        ccw TRUE
        solid FALSE
        coord DEF co Coordinate {
            point [
                0.8661 -0.2953 0.1969, 0.9055 -0.2953 0.1969, 0.8661 -0.0591 0.1969, 0.9055 -0.0591 0.1969, 0.315 0.2953 0.0, 0.9055 0.2953 0.0, 0.315 -0.2953 0.0, 0.9055 -0.2953 0.0, 0.315 0.2953 0.0394, 0.315 -0.2953 0.0394, 0.8661 0.2953 0.0394, 0.8661 -0.2953 0.0394, 0.8661 -0.0442 0.1577, 0.8661 -0.0335 0.1482, 0.8661 0.0591 0.1969, 0.8661 0.2953 0.1969, 0.8661 0.0573 0.1827, 0.8661 -0.0523 0.1694, 0.8661 0.0209 0.1416, 0.8661 0.0335 0.1482, 0.8661 -0.0573 0.1827, 0.8661 -0.0209 0.1416, 0.8661 -0.0071 0.1382, 0.8661 0.0071 0.1382, 0.8661 0.0442 0.1577, 0.8661 0.0523 0.1694, 0.9055 0.2953 0.1969, 0.9055 0.0591 0.1969, 0.9055 -0.0209 0.1416, 0.9055 -0.0335 0.1482, 0.9055 0.0335 0.1482, 0.9055 0.0442 0.1577, 0.9055 0.0523 0.1694, 0.9055 0.0209 0.1416, 0.9055 0.0071 0.1382, 0.9055 -0.0071 0.1382, 0.9055 -0.0442 0.1577, 0.9055 -0.0523 0.1694, 0.9055 -0.0573 0.1827, 0.9055 0.0573 0.1827, -0.9055 -0.2953 0.1969, -0.8661 -0.2953 0.1969, -0.9055 -0.0591 0.1969, -0.8661 -0.0591 0.1969, -0.9055 0.2953 0.0, -0.315 0.2953 0.0, -0.9055 -0.2953 0.0, -0.315 -0.2953 0.0, -0.315 0.2953 0.0394, -0.315 -0.2953 0.0394, -0.8661 0.2953 0.0394, -0.8661 -0.2953 0.0394, -0.8661 0.0335 0.1482, -0.8661 0.0442 0.1577, -0.8661 0.0523 0.1694, -0.8661 -0.0573 0.1827, -0.8661 -0.0523 0.1694, -0.8661 0.2953 0.1969, -0.8661 0.0591 0.1969, -0.8661 0.0573 0.1827, -0.8661 0.0209 0.1416, -0.8661 0.0071 0.1382, -0.8661 -0.0071 0.1382, -0.8661 -0.0209 0.1416, -0.8661 -0.0335 0.1482, -0.8661 -0.0442 0.1577, -0.9055 0.2953 0.1969, -0.9055 0.0591 0.1969, -0.9055 -0.0523 0.1694, -0.9055 -0.0442 0.1577, -0.9055 -0.0573 0.1827, -0.9055 -0.0071 0.1382, -0.9055 0.0071 0.1382, -0.9055 0.0209 0.1416, -0.9055 0.0335 0.1482, -0.9055 -0.0335 0.1482, -0.9055 -0.0209 0.1416, -0.9055 0.0442 0.1577, -0.9055 0.0523 0.1694, -0.9055 0.0573 0.1827
            ]
        }
        coordIndex [
            0,1,2,-1,2,1,3,-1,4,5,6,-1,6,5,7,-1,8,4,9,-1,9,4,6,-1,10,8,11,-1,11,8,9,-1,12,13,11,-1,14,15,16,-1,16,15,10,-1,12,11,17,-1,18,19,10,-1,0,2,11,-1,11,2,20,-1,11,20,17,-1,13,21,11,-1,11,21,22,-1,11,22,10,-1,10,22,23,-1,10,23,18,-1,19,24,10,-1,10,24,25,-1,10,25,16,-1,26,15,27,-1,27,15,14,-1,28,29,7,-1,30,5,31,-1,31,5,32,-1,30,33,5,-1,5,33,34,-1,5,34,7,-1,7,34,35,-1,7,35,28,-1,29,36,7,-1,7,36,37,-1,7,37,1,-1,1,37,38,-1,1,38,3,-1,32,5,39,-1,39,5,26,-1,39,26,27,-1,15,26,10,-1,10,26,5,-1,10,5,8,-1,8,5,4,-1,9,6,11,-1,11,6,7,-1,11,7,0,-1,0,7,1,-1,2,3,20,-1,20,3,38,-1,20,38,17,-1,17,38,37,-1,17,37,12,-1,12,37,36,-1,12,36,13,-1,13,36,29,-1,13,29,21,-1,21,29,28,-1,21,28,22,-1,22,28,35,-1,22,35,23,-1,23,35,34,-1,23,34,18,-1,18,34,33,-1,18,33,19,-1,19,33,30,-1,19,30,24,-1,24,30,31,-1,24,31,25,-1,25,31,32,-1,25,32,16,-1,16,32,39,-1,16,39,14,-1,14,39,27,-1,40,41,42,-1,42,41,43,-1,44,45,46,-1,46,45,47,-1,45,48,47,-1,47,48,49,-1,48,50,49,-1,49,50,51,-1,52,50,53,-1,53,50,54,-1,43,41,55,-1,55,41,51,-1,55,51,56,-1,57,58,50,-1,50,58,59,-1,50,59,54,-1,52,60,50,-1,50,60,61,-1,50,61,51,-1,51,61,62,-1,51,62,63,-1,63,64,51,-1,51,64,65,-1,51,65,56,-1,57,66,58,-1,58,66,67,-1,68,69,46,-1,68,46,70,-1,70,46,40,-1,70,40,42,-1,44,46,71,-1,71,72,44,-1,44,72,73,-1,44,73,74,-1,69,75,46,-1,46,75,76,-1,46,76,71,-1,74,77,44,-1,44,77,78,-1,44,78,66,-1,66,78,79,-1,66,79,67,-1,48,45,50,-1,50,45,44,-1,50,44,57,-1,57,44,66,-1,41,40,51,-1,51,40,46,-1,51,46,49,-1,49,46,47,-1,58,67,59,-1,59,67,79,-1,59,79,54,-1,54,79,78,-1,54,78,53,-1,53,78,77,-1,53,77,52,-1,52,77,74,-1,52,74,60,-1,60,74,73,-1,60,73,61,-1,61,73,72,-1,61,72,62,-1,62,72,71,-1,62,71,63,-1,63,71,76,-1,63,76,64,-1,64,76,75,-1,64,75,65,-1,65,75,69,-1,65,69,56,-1,56,69,68,-1,56,68,55,-1,55,68,70,-1,55,70,43,-1,43,70,42,-1,
        ]
    }
}
Shape{
    appearance Appearance {
        material  Material 	{
            diffuseColor 0.7529411764705882 0.7529411764705882 0.7529411764705882
            specularColor 0.3764705882352941 0.3764705882352941 0.3764705882352941
            ambientIntensity 0.7529
            transparency 0.0
            shininess 0.5
        }
    }
    geometry IndexedFaceSet {
        ccw TRUE
        solid FALSE
        coord DEF co Coordinate {
            point [
                -0.2978 0.3214 0.5945, -0.2978 -0.0675 0.5945, -0.2114 -0.0675 0.5945, 0.0151 -0.0171 0.5945, -0.0386 -0.0171 0.5945, -0.0386 -0.2692 0.5945, 0.4422 -0.2692 0.5945, 0.4578 -0.1869 0.5945, 0.3575 0.2565 0.5945, 0.4799 -0.109 0.5945, 0.5155 -0.0112 0.5945, -0.6693 -0.8071 0.5945, 0.6693 -0.8071 0.5945, 0.2163 0.0726 0.5945, 0.1949 0.0485 0.5945, 0.6627 0.1567 0.5945, 0.6098 0.0396 0.5945, 0.8661 -0.6102 0.5945, 0.5718 -0.0607 0.5945, 0.5464 -0.1429 0.5945, 0.5666 0.105 0.5945, 0.6274 0.2237 0.5945, 0.6456 0.2565 0.5945, 0.037 -0.0193 0.5945, 0.7248 0.2764 0.5945, 0.8661 0.6102 0.5945, 0.7248 0.3214 0.5945, 0.8612 0.654 0.5945, 0.8466 0.6956 0.5945, 0.5289 -0.219 0.5945, 0.5214 -0.2692 0.5945, 0.2423 0.165 0.5945, 0.2397 0.1323 0.5945, 0.2311 0.1003 0.5945, 0.1143 0.007 0.5945, 0.1143 0.005 0.5945, 0.1363 0.0141 0.5945, 0.1398 -0.0097 0.5945, 0.1685 0.0294 0.5945, 0.1611 -0.0304 0.5945, 0.8232 0.733 0.5945, 0.792 0.7641 0.5945, 0.7547 0.7876 0.5945, 0.7131 -0.8022 0.5945, 0.3071 -0.2692 0.5945, 0.2207 -0.2692 0.5945, 0.1248 -0.103 0.5945, 0.0974 -0.0611 0.5945, 0.7547 -0.7876 0.5945, 0.792 -0.7641 0.5945, 0.8232 -0.733 0.5945, 0.1897 -0.0708 0.5945, 0.2019 -0.0905 0.5945, 0.8466 -0.6956 0.5945, 0.8612 -0.654 0.5945, 0.0753 -0.0375 0.5945, 0.0575 -0.0262 0.5945, -0.3698 -0.2692 0.5945, -0.3698 -0.1323 0.5945, -0.6435 -0.1323 0.5945, -0.8612 -0.654 0.5945, -0.8466 -0.6956 0.5945, -0.8232 -0.733 0.5945, -0.792 -0.7641 0.5945, -0.1178 -0.2692 0.5945, -0.2978 -0.2692 0.5945, -0.7131 -0.8022 0.5945, -0.7547 -0.7876 0.5945, -0.8661 -0.6102 0.5945, -0.8661 0.6102 0.5945, -0.6435 -0.0709 0.5945, -0.5647 0.0252 0.5945, 0.1339 0.3119 0.5945, 0.167 0.2984 0.5945, 0.3575 0.3214 0.5945, 0.195 0.2793 0.5945, 0.2156 0.2568 0.5945, 0.2311 0.2287 0.5945, 0.2398 0.197 0.5945, -0.4948 0.1218 0.5945, -0.4437 0.1999 0.5945, -0.3886 0.2948 0.5945, 0.0604 0.3214 0.5945, 0.0967 0.3193 0.5945, -0.6693 0.8071 0.5945, -0.7131 0.8022 0.5945, -0.7547 0.7876 0.5945, -0.792 0.7641 0.5945, -0.8232 0.733 0.5945, -0.1178 0.3214 0.5945, 0.7131 0.8022 0.5945, 0.6693 0.8071 0.5945, -0.8466 0.6956 0.5945, -0.8612 0.654 0.5945, -0.2978 -0.1323 0.5945, -0.2114 -0.1323 0.5945, -0.3748 0.3214 0.5945, 0.6693 -0.8071 0.0039, -0.03 -0.8071 0.0039, 0.1969 -0.374 0.0039, -0.1969 -0.374 0.0039, -0.1969 -0.0131 0.0039, -0.03 -0.0131 0.0039, -0.0252 0.0222 0.0039, -0.0103 0.0222 0.0039, -0.0103 0.0092 0.0039, -0.005 -0.0128 0.0039, -0.005 0.0265 0.0039, 0.0027 -0.0065 0.0039, 0.0027 -0.0108 0.0039, 0.0069 -0.0125 0.0039, 0.0109 -0.0131 0.0039, -0.0103 0.0049 0.0039, -0.0103 -0.0085 0.0039, -0.0242 0.0049 0.0039, -0.0261 -0.0085 0.0039, -0.0242 0.0092 0.0039, 0.0555 -0.0128 0.0039, 0.1969 0.374 0.0039, 0.1969 -0.0131 0.0039, 0.7547 0.7876 0.0039, 0.792 0.7641 0.0039, 0.7131 0.8022 0.0039, 0.8232 0.733 0.0039, 0.8466 0.6956 0.0039, 0.0222 -0.0115 0.0039, 0.0353 -0.0128 0.0039, 0.0184 -0.0128 0.0039, 0.0158 -0.0131 0.0039, 0.0555 0.0265 0.0039, 0.0502 0.0265 0.0039, -0.03 0.8071 0.0039, 0.0158 0.0223 0.0039, 0.0187 0.0212 0.0039, 0.0034 -0.0069 0.0039, 0.0215 0.0194 0.0039, 0.0238 0.0167 0.0039, 0.0267 0.0064 0.0039, 0.0263 0.0022 0.0039, 0.0252 -0.0012 0.0039, 0.0165 -0.0086 0.0039, 0.0128 -0.009 0.0039, 0.0193 -0.0075 0.0039, 0.0217 -0.0059 0.0039, 0.0236 -0.004 0.0039, 0.0076 -0.0084 0.0039, 0.8661 0.374 0.0039, 0.6693 0.8071 0.0039, 0.8661 0.6102 0.0039, 0.8612 0.654 0.0039, 0.0255 0.0137 0.0039, 0.0265 0.0095 0.0039, 0.024 0.0233 0.0039, 0.0276 0.0198 0.0039, 0.0299 0.0162 0.0039, -0.0252 0.0265 0.0039, 0.0254 -0.0095 0.0039, 0.0283 -0.0064 0.0039, 0.0353 -0.0085 0.0039, 0.0304 -0.0026 0.0039, 0.0502 -0.0085 0.0039, 0.0203 0.0254 0.0039, 0.0159 0.0267 0.0039, 0.012 0.027 0.0039, 0.0316 0.0015 0.0039, 0.032 0.0061 0.0039, 0.0314 0.0117 0.0039, 0.0072 0.0267 0.0039, 0.0027 0.0254 0.0039, 0.0027 0.0202 0.0039, 0.0071 0.0221 0.0039, 0.0119 0.0227 0.0039, -0.6693 0.8071 0.0039, -0.1969 0.374 0.0039, -0.0741 -0.0128 0.0039, -0.0684 -0.0128 0.0039, -0.0981 -0.0128 0.0039, -0.0942 -0.0018 0.0039, -0.0779 -0.0018 0.0039, -0.0635 -0.002 0.0039, -0.0613 -0.0056 0.0039, -0.058 -0.0087 0.0039, -0.0539 -0.0111 0.0039, -0.8661 0.374 0.0039, -0.8661 0.6102 0.0039, -0.8612 0.654 0.0039, -0.0494 -0.0124 0.0039, -0.0445 -0.0128 0.0039, -0.0338 -0.0128 0.0039, -0.0338 0.0265 0.0039, -0.0449 0.0265 0.0039, -0.0261 -0.0128 0.0039, -0.0506 0.0259 0.0039, -0.0552 0.0243 0.0039, -0.0595 0.0214 0.0039, -0.0833 0.0265 0.0039, -0.0623 0.0183 0.0039, -0.0641 0.0149 0.0039, -0.792 0.7641 0.0039, -0.7547 0.7876 0.0039, -0.7131 0.8022 0.0039, -0.0595 0.0214 0.0039, -0.8466 0.6956 0.0039, -0.8232 0.733 0.0039, -0.1039 -0.0128 0.0039, -0.0885 0.0265 0.0039, -0.0652 0.011 0.0039, -0.0655 0.0073 0.0039, -0.0649 0.0021 0.0039, -0.8661 -0.6102 0.0039, -0.8661 -0.374 0.0039, -0.6693 -0.8071 0.0039, -0.7131 -0.8022 0.0039, -0.8232 -0.733 0.0039, -0.8466 -0.6956 0.0039, -0.8612 -0.654 0.0039, -0.7547 -0.7876 0.0039, -0.792 -0.7641 0.0039, 0.8661 -0.374 0.0039, 0.8661 -0.6102 0.0039, 0.8612 -0.654 0.0039, 0.0124 -0.0133 0.0039, 0.0135 -0.0133 0.0039, 0.792 -0.7641 0.0039, 0.7131 -0.8022 0.0039, 0.7547 -0.7876 0.0039, 0.8466 -0.6956 0.0039, 0.8232 -0.733 0.0039, -0.8661 -0.3386 0.0394, -0.8661 0.3386 0.0394, 0.8661 0.3386 0.0394, 0.8661 -0.3386 0.0394, 0.2323 -0.3386 0.0394, 0.2323 0.3386 0.0394, -0.2323 -0.3386 0.0394, -0.2323 0.3386 0.0394
            ]
        }
        coordIndex [
            0,1,2,-1,3,4,5,-1,6,7,8,-1,8,7,9,-1,8,9,10,-1,11,12,5,-1,6,13,14,-1,15,16,17,-1,17,16,18,-1,17,18,19,-1,10,20,8,-1,8,20,21,-1,8,21,22,-1,3,5,23,-1,15,17,24,-1,24,17,25,-1,24,25,26,-1,26,25,27,-1,26,27,28,-1,19,29,17,-1,17,29,30,-1,17,30,6,-1,31,32,6,-1,6,32,33,-1,6,33,13,-1,34,35,36,-1,36,35,37,-1,36,37,38,-1,38,37,39,-1,38,39,14,-1,28,40,26,-1,26,40,41,-1,26,41,42,-1,43,44,12,-1,12,44,45,-1,12,45,5,-1,5,45,46,-1,5,46,47,-1,43,48,44,-1,44,48,49,-1,44,49,50,-1,39,51,14,-1,14,51,52,-1,14,52,6,-1,6,52,44,-1,6,44,17,-1,50,53,44,-1,44,53,54,-1,44,54,17,-1,47,55,5,-1,5,55,56,-1,5,56,23,-1,57,58,59,-1,60,61,57,-1,57,61,62,-1,57,62,63,-1,5,64,11,-1,11,64,65,-1,11,65,66,-1,66,65,57,-1,66,57,67,-1,67,57,63,-1,60,57,68,-1,68,57,59,-1,68,59,69,-1,69,59,70,-1,69,70,71,-1,72,73,74,-1,73,75,74,-1,74,75,76,-1,74,76,8,-1,8,76,77,-1,8,77,6,-1,6,77,78,-1,6,78,31,-1,71,79,69,-1,69,79,80,-1,69,80,81,-1,82,83,84,-1,84,85,81,-1,85,86,81,-1,81,86,87,-1,81,87,88,-1,82,84,89,-1,42,90,26,-1,26,90,91,-1,26,91,74,-1,74,91,84,-1,74,84,72,-1,72,84,83,-1,88,92,81,-1,81,92,93,-1,81,93,69,-1,94,65,95,-1,95,65,64,-1,95,64,2,-1,2,64,89,-1,2,89,0,-1,0,89,84,-1,0,84,96,-1,96,84,81,-1,97,98,99,-1,100,101,102,-1,103,104,105,-1,106,107,108,-1,108,109,106,-1,106,109,110,-1,106,110,111,-1,112,113,114,-1,114,113,115,-1,114,115,116,-1,117,118,119,-1,120,121,122,-1,122,121,123,-1,122,123,124,-1,125,126,127,-1,127,126,128,-1,129,130,131,-1,132,133,134,-1,134,133,135,-1,134,135,136,-1,137,138,134,-1,134,138,139,-1,140,141,142,-1,142,141,143,-1,139,144,134,-1,134,144,143,-1,134,143,145,-1,145,143,141,-1,117,129,118,-1,118,129,131,-1,118,131,146,-1,146,131,147,-1,146,147,148,-1,148,147,122,-1,148,122,149,-1,149,122,124,-1,136,150,134,-1,134,150,151,-1,134,151,137,-1,152,131,153,-1,153,131,130,-1,153,130,154,-1,105,116,103,-1,103,116,115,-1,103,115,155,-1,155,115,131,-1,155,131,107,-1,125,156,126,-1,126,156,157,-1,126,157,158,-1,158,157,159,-1,158,159,160,-1,152,161,131,-1,131,161,162,-1,131,162,163,-1,159,164,160,-1,160,164,165,-1,160,165,130,-1,130,165,166,-1,130,166,154,-1,163,167,131,-1,131,167,168,-1,131,168,107,-1,107,168,169,-1,107,169,108,-1,108,169,170,-1,108,170,134,-1,134,170,171,-1,134,171,132,-1,172,131,173,-1,174,175,102,-1,176,177,178,-1,179,180,175,-1,175,180,181,-1,175,181,182,-1,183,184,173,-1,173,184,185,-1,182,186,175,-1,175,186,187,-1,175,187,102,-1,102,187,188,-1,102,188,189,-1,190,173,189,-1,189,173,131,-1,189,131,102,-1,102,131,115,-1,102,115,191,-1,190,192,173,-1,173,192,193,-1,173,193,194,-1,195,196,197,-1,198,199,173,-1,173,199,200,-1,173,200,172,-1,196,195,201,-1,185,202,173,-1,173,202,203,-1,173,203,198,-1,178,174,176,-1,176,174,102,-1,176,102,204,-1,204,102,101,-1,204,101,205,-1,205,101,173,-1,205,173,195,-1,195,173,194,-1,195,194,201,-1,197,206,195,-1,195,206,207,-1,195,207,175,-1,175,207,208,-1,175,208,179,-1,209,210,100,-1,102,98,100,-1,100,98,211,-1,100,211,212,-1,213,214,100,-1,100,214,215,-1,100,215,209,-1,212,216,100,-1,100,216,217,-1,100,217,213,-1,99,218,97,-1,97,218,219,-1,97,219,220,-1,191,106,102,-1,102,106,111,-1,102,111,98,-1,98,111,221,-1,98,221,99,-1,99,221,222,-1,99,222,119,-1,119,222,128,-1,119,128,117,-1,117,128,126,-1,97,223,224,-1,224,223,225,-1,220,226,97,-1,97,226,227,-1,97,227,223,-1,210,209,228,-1,228,209,68,-1,228,68,229,-1,229,68,69,-1,229,69,183,-1,183,69,184,-1,146,148,230,-1,230,148,25,-1,230,25,231,-1,231,25,17,-1,231,17,218,-1,218,17,219,-1,91,147,84,-1,84,147,131,-1,84,131,172,-1,97,12,98,-1,98,12,11,-1,98,11,211,-1,232,233,231,-1,231,233,230,-1,228,229,234,-1,234,229,235,-1,68,209,215,-1,68,215,60,-1,60,215,214,-1,60,214,61,-1,61,214,213,-1,61,213,62,-1,62,213,217,-1,62,217,63,-1,63,217,216,-1,63,216,67,-1,67,216,212,-1,67,212,66,-1,66,212,211,-1,66,211,11,-1,84,172,200,-1,84,200,85,-1,85,200,199,-1,85,199,86,-1,86,199,198,-1,86,198,87,-1,87,198,203,-1,87,203,88,-1,88,203,202,-1,88,202,92,-1,92,202,185,-1,92,185,93,-1,93,185,184,-1,93,184,69,-1,12,97,224,-1,12,224,43,-1,43,224,225,-1,43,225,48,-1,48,225,223,-1,48,223,49,-1,49,223,227,-1,49,227,50,-1,50,227,226,-1,50,226,53,-1,53,226,220,-1,53,220,54,-1,54,220,219,-1,54,219,17,-1,25,148,149,-1,25,149,27,-1,27,149,124,-1,27,124,28,-1,28,124,123,-1,28,123,40,-1,40,123,121,-1,40,121,41,-1,41,121,120,-1,41,120,42,-1,42,120,122,-1,42,122,90,-1,90,122,147,-1,90,147,91,-1,
        ]
    }
}
Shape{
    appearance Appearance {
        material  Material 	{
            diffuseColor 0.0 0.0 0.0
            specularColor 0.0 0.0 0.0
            ambientIntensity 0.0
            transparency 0.0
            shininess 0.5
        }
    }
    geometry IndexedFaceSet {
        ccw TRUE
        solid FALSE
        coord DEF co Coordinate {
            point [
                -0.0885 0.0265 0.0043, -0.1039 -0.0128 0.0043, -0.0885 0.0265 0.0039, -0.1039 -0.0128 0.0039, -0.0981 -0.0128 0.0043, -0.0981 -0.0128 0.0039, -0.0942 -0.0018 0.0043, -0.0942 -0.0018 0.0039, -0.0779 -0.0018 0.0043, -0.0779 -0.0018 0.0039, -0.0741 -0.0128 0.0043, -0.0741 -0.0128 0.0039, -0.0684 -0.0128 0.0043, -0.0684 -0.0128 0.0039, -0.0833 0.0265 0.0043, -0.0833 0.0265 0.0039, -0.0792 0.0025 0.0043, -0.0924 0.0025 0.0043, -0.0851 0.019 0.0043, -0.0855 0.0203 0.0043, -0.0857 0.0217 0.0043, -0.0859 0.0217 0.0043, -0.0861 0.0203 0.0043, -0.0865 0.019 0.0043, -0.0792 0.0025 0.0039, -0.0924 0.0025 0.0039, -0.0851 0.019 0.0039, -0.0855 0.0203 0.0039, -0.0857 0.0217 0.0039, -0.0859 0.0217 0.0039, -0.0861 0.0203 0.0039, -0.0865 0.019 0.0039, -0.0445 -0.0128 0.0043, -0.0338 -0.0128 0.0043, -0.0445 -0.0128 0.0039, -0.0338 -0.0128 0.0039, -0.0338 0.0265 0.0043, -0.0338 0.0265 0.0039, -0.0449 0.0265 0.0043, -0.0449 0.0265 0.0039, -0.0655 0.0073 0.0043, -0.0655 0.0073 0.0039, -0.0652 0.011 0.0039, -0.0652 0.011 0.0043, -0.0641 0.0149 0.0039, -0.0641 0.0149 0.0043, -0.0623 0.0183 0.0039, -0.0623 0.0183 0.0043, -0.0595 0.0214 0.0039, -0.0595 0.0214 0.0043, -0.0595 0.0214 0.0039, -0.0595 0.0214 0.0043, -0.0552 0.0243 0.0039, -0.0552 0.0243 0.0043, -0.0506 0.0259 0.0039, -0.0506 0.0259 0.0043, -0.0494 -0.0124 0.0039, -0.0494 -0.0124 0.0043, -0.0539 -0.0111 0.0039, -0.0539 -0.0111 0.0043, -0.058 -0.0087 0.0039, -0.058 -0.0087 0.0043, -0.0613 -0.0056 0.0039, -0.0613 -0.0056 0.0043, -0.0635 -0.002 0.0039, -0.0635 -0.002 0.0043, -0.0649 0.0021 0.0039, -0.0649 0.0021 0.0043, -0.0576 0.0167 0.0043, -0.0557 0.0187 0.0043, -0.0528 0.0206 0.0043, -0.0495 0.0217 0.0043, -0.0449 0.0222 0.0043, -0.0391 0.0222 0.0043, -0.0391 -0.0085 0.0043, -0.0447 -0.0085 0.0043, -0.0488 -0.0081 0.0043, -0.0521 -0.0071 0.0043, -0.0548 -0.0055 0.0043, -0.057 -0.0033 0.0043, -0.0587 -0.0006 0.0043, -0.0598 0.0031 0.0043, -0.0602 0.0072 0.0043, -0.0599 0.0111 0.0043, -0.059 0.0143 0.0043, -0.0449 0.0222 0.0039, -0.0391 0.0222 0.0039, -0.0495 0.0217 0.0039, -0.0528 0.0206 0.0039, -0.0557 0.0187 0.0039, -0.0576 0.0167 0.0039, -0.059 0.0143 0.0039, -0.0599 0.0111 0.0039, -0.0602 0.0072 0.0039, -0.0598 0.0031 0.0039, -0.0587 -0.0006 0.0039, -0.057 -0.0033 0.0039, -0.0548 -0.0055 0.0039, -0.0521 -0.0071 0.0039, -0.0488 -0.0081 0.0039, -0.0447 -0.0085 0.0039, -0.0391 -0.0085 0.0039, -0.0261 -0.0085 0.0043, -0.0261 -0.0128 0.0043, -0.0261 -0.0085 0.0039, -0.0261 -0.0128 0.0039, -0.005 -0.0128 0.0043, -0.005 -0.0128 0.0039, -0.005 0.0265 0.0043, -0.005 0.0265 0.0039, -0.0252 0.0265 0.0043, -0.0252 0.0265 0.0039, -0.0252 0.0222 0.0043, -0.0252 0.0222 0.0039, -0.0103 0.0222 0.0043, -0.0103 0.0222 0.0039, -0.0103 0.0092 0.0043, -0.0103 0.0092 0.0039, -0.0242 0.0092 0.0043, -0.0242 0.0092 0.0039, -0.0242 0.0049 0.0043, -0.0242 0.0049 0.0039, -0.0103 0.0049 0.0043, -0.0103 0.0049 0.0039, -0.0103 -0.0085 0.0043, -0.0103 -0.0085 0.0039, 0.0027 -0.0065 0.0043, 0.0027 -0.0108 0.0043, 0.0027 -0.0065 0.0039, 0.0027 -0.0108 0.0039, 0.0069 -0.0125 0.0043, 0.0135 -0.0133 0.0043, 0.0135 -0.0133 0.0039, 0.0124 -0.0133 0.0039, 0.0124 -0.0133 0.0043, 0.0109 -0.0131 0.0039, 0.0069 -0.0125 0.0039, 0.0158 -0.0131 0.0039, 0.0184 -0.0128 0.0043, 0.0184 -0.0128 0.0039, 0.0222 -0.0115 0.0043, 0.0222 -0.0115 0.0039, 0.0254 -0.0095 0.0043, 0.0254 -0.0095 0.0039, 0.0283 -0.0064 0.0043, 0.0283 -0.0064 0.0039, 0.0304 -0.0026 0.0043, 0.0304 -0.0026 0.0039, 0.0316 0.0015 0.0043, 0.0316 0.0015 0.0039, 0.032 0.0061 0.0043, 0.032 0.0061 0.0039, 0.012 0.027 0.0043, 0.012 0.027 0.0039, 0.0159 0.0267 0.0039, 0.0159 0.0267 0.0043, 0.0203 0.0254 0.0039, 0.0203 0.0254 0.0043, 0.024 0.0233 0.0039, 0.024 0.0233 0.0043, 0.0276 0.0198 0.0039, 0.0276 0.0198 0.0043, 0.0299 0.0162 0.0039, 0.0299 0.0162 0.0043, 0.0314 0.0117 0.0039, 0.0314 0.0117 0.0043, 0.0027 0.0254 0.0043, 0.0027 0.0254 0.0039, 0.0072 0.0267 0.0039, 0.0072 0.0267 0.0043, 0.0027 0.0202 0.0043, 0.0027 0.0202 0.0039, 0.0119 0.0227 0.0043, 0.0119 0.0227 0.0039, 0.0071 0.0221 0.0039, 0.0071 0.0221 0.0043, 0.0267 0.0064 0.0043, 0.0267 0.0064 0.0039, 0.0265 0.0095 0.0039, 0.0265 0.0095 0.0043, 0.0255 0.0137 0.0039, 0.0255 0.0137 0.0043, 0.0238 0.0167 0.0039, 0.0238 0.0167 0.0043, 0.0215 0.0194 0.0039, 0.0215 0.0194 0.0043, 0.0187 0.0212 0.0039, 0.0187 0.0212 0.0043, 0.0158 0.0223 0.0039, 0.0158 0.0223 0.0043, 0.0128 -0.009 0.0043, 0.0128 -0.009 0.0039, 0.0165 -0.0086 0.0039, 0.0165 -0.0086 0.0043, 0.0193 -0.0075 0.0039, 0.0193 -0.0075 0.0043, 0.0217 -0.0059 0.0039, 0.0217 -0.0059 0.0043, 0.0236 -0.004 0.0039, 0.0236 -0.004 0.0043, 0.0252 -0.0012 0.0039, 0.0252 -0.0012 0.0043, 0.0263 0.0022 0.0039, 0.0263 0.0022 0.0043, 0.0034 -0.0069 0.0039, 0.0034 -0.0069 0.0043, 0.0076 -0.0084 0.0039, 0.0076 -0.0084 0.0043, 0.0353 -0.0085 0.0043, 0.0353 -0.0128 0.0043, 0.0353 -0.0085 0.0039, 0.0353 -0.0128 0.0039, 0.0555 -0.0128 0.0043, 0.0555 -0.0128 0.0039, 0.0555 0.0265 0.0043, 0.0555 0.0265 0.0039, 0.0502 0.0265 0.0043, 0.0502 0.0265 0.0039, 0.0502 -0.0085 0.0043, 0.0502 -0.0085 0.0039
            ]
        }
        coordIndex [
            0,1,2,-1,2,1,3,-1,1,4,3,-1,3,4,5,-1,4,6,5,-1,5,6,7,-1,6,8,7,-1,7,8,9,-1,8,10,9,-1,9,10,11,-1,10,12,11,-1,11,12,13,-1,12,14,13,-1,13,14,15,-1,14,0,15,-1,15,0,2,-1,16,8,17,-1,17,8,6,-1,18,14,16,-1,16,14,12,-1,16,12,8,-1,8,12,10,-1,18,19,14,-1,14,19,20,-1,14,20,0,-1,0,20,21,-1,0,21,22,-1,22,23,0,-1,0,23,17,-1,0,17,1,-1,1,17,6,-1,1,6,4,-1,16,17,24,-1,24,17,25,-1,18,16,26,-1,26,16,24,-1,18,26,27,-1,18,27,19,-1,19,27,28,-1,19,28,20,-1,21,20,29,-1,29,20,28,-1,21,29,30,-1,21,30,22,-1,22,30,31,-1,22,31,23,-1,17,23,25,-1,25,23,31,-1,32,33,34,-1,34,33,35,-1,33,36,35,-1,35,36,37,-1,36,38,37,-1,37,38,39,-1,40,41,42,-1,40,42,43,-1,43,42,44,-1,43,44,45,-1,45,44,46,-1,45,46,47,-1,47,46,48,-1,47,48,49,-1,49,48,50,-1,49,50,51,-1,51,50,52,-1,51,52,53,-1,53,52,54,-1,53,54,55,-1,55,54,39,-1,55,39,38,-1,32,34,56,-1,32,56,57,-1,57,56,58,-1,57,58,59,-1,59,58,60,-1,59,60,61,-1,61,60,62,-1,61,62,63,-1,63,62,64,-1,63,64,65,-1,65,64,66,-1,65,66,67,-1,67,66,41,-1,67,41,40,-1,45,47,68,-1,68,47,49,-1,68,49,69,-1,69,49,51,-1,69,51,70,-1,70,51,53,-1,70,53,71,-1,71,53,55,-1,71,55,72,-1,72,55,38,-1,72,38,73,-1,73,38,36,-1,73,36,74,-1,74,36,33,-1,74,33,75,-1,75,33,32,-1,75,32,76,-1,76,32,57,-1,76,57,77,-1,77,57,59,-1,77,59,78,-1,78,59,61,-1,78,61,79,-1,79,61,63,-1,79,63,80,-1,80,63,65,-1,80,65,81,-1,81,65,67,-1,81,67,82,-1,82,67,40,-1,82,40,83,-1,83,40,43,-1,83,43,84,-1,84,43,45,-1,84,45,68,-1,72,73,85,-1,85,73,86,-1,72,85,87,-1,72,87,71,-1,71,87,88,-1,71,88,70,-1,70,88,89,-1,70,89,69,-1,69,89,90,-1,69,90,68,-1,68,90,91,-1,68,91,84,-1,84,91,92,-1,84,92,83,-1,83,92,93,-1,83,93,82,-1,82,93,94,-1,82,94,81,-1,81,94,95,-1,81,95,80,-1,80,95,96,-1,80,96,79,-1,79,96,97,-1,79,97,78,-1,78,97,98,-1,78,98,77,-1,77,98,99,-1,77,99,76,-1,76,99,100,-1,76,100,75,-1,74,75,101,-1,101,75,100,-1,73,74,86,-1,86,74,101,-1,102,103,104,-1,104,103,105,-1,103,106,105,-1,105,106,107,-1,106,108,107,-1,107,108,109,-1,108,110,109,-1,109,110,111,-1,110,112,111,-1,111,112,113,-1,112,114,113,-1,113,114,115,-1,114,116,115,-1,115,116,117,-1,116,118,117,-1,117,118,119,-1,118,120,119,-1,119,120,121,-1,120,122,121,-1,121,122,123,-1,122,124,123,-1,123,124,125,-1,124,102,125,-1,125,102,104,-1,106,103,102,-1,102,124,106,-1,106,124,122,-1,106,122,108,-1,112,110,114,-1,114,110,108,-1,114,108,116,-1,116,108,122,-1,116,122,118,-1,118,122,120,-1,126,127,128,-1,128,127,129,-1,129,127,130,-1,131,132,133,-1,131,133,134,-1,134,133,135,-1,134,135,130,-1,130,135,136,-1,130,136,129,-1,132,131,137,-1,137,131,138,-1,137,138,139,-1,139,138,140,-1,139,140,141,-1,141,140,142,-1,141,142,143,-1,143,142,144,-1,143,144,145,-1,145,144,146,-1,145,146,147,-1,147,146,148,-1,147,148,149,-1,149,148,150,-1,149,150,151,-1,152,153,154,-1,152,154,155,-1,155,154,156,-1,155,156,157,-1,157,156,158,-1,157,158,159,-1,159,158,160,-1,159,160,161,-1,161,160,162,-1,161,162,163,-1,163,162,164,-1,163,164,165,-1,165,164,151,-1,165,151,150,-1,166,167,168,-1,166,168,169,-1,169,168,153,-1,169,153,152,-1,166,170,167,-1,167,170,171,-1,172,173,174,-1,172,174,175,-1,175,174,171,-1,175,171,170,-1,176,177,178,-1,176,178,179,-1,179,178,180,-1,179,180,181,-1,181,180,182,-1,181,182,183,-1,183,182,184,-1,183,184,185,-1,185,184,186,-1,185,186,187,-1,187,186,188,-1,187,188,189,-1,189,188,173,-1,189,173,172,-1,190,191,192,-1,190,192,193,-1,193,192,194,-1,193,194,195,-1,195,194,196,-1,195,196,197,-1,197,196,198,-1,197,198,199,-1,199,198,200,-1,199,200,201,-1,201,200,202,-1,201,202,203,-1,203,202,177,-1,203,177,176,-1,126,128,204,-1,126,204,205,-1,205,204,206,-1,205,206,207,-1,207,206,191,-1,207,191,190,-1,193,131,190,-1,190,131,134,-1,190,134,207,-1,207,134,130,-1,207,130,205,-1,205,130,127,-1,205,127,126,-1,170,166,175,-1,175,166,169,-1,175,169,172,-1,172,169,152,-1,172,152,189,-1,189,152,155,-1,189,155,187,-1,187,155,157,-1,187,157,185,-1,185,157,159,-1,185,159,183,-1,183,159,161,-1,183,161,181,-1,181,161,163,-1,181,163,179,-1,179,163,165,-1,179,165,176,-1,176,165,150,-1,176,150,203,-1,203,150,148,-1,203,148,201,-1,201,148,146,-1,201,146,199,-1,199,146,144,-1,199,144,197,-1,197,144,142,-1,197,142,195,-1,195,142,140,-1,195,140,193,-1,193,140,138,-1,193,138,131,-1,208,209,210,-1,210,209,211,-1,209,212,211,-1,211,212,213,-1,212,214,213,-1,213,214,215,-1,214,216,215,-1,215,216,217,-1,216,218,217,-1,217,218,219,-1,218,208,219,-1,219,208,210,-1,216,214,218,-1,218,214,212,-1,218,212,208,-1,208,212,209,-1,
        ]
    }
}
Shape{
    appearance Appearance {
        material  Material 	{
            diffuseColor 0.7529411764705882 0.7529411764705882 0.7529411764705882
            specularColor 0.3764705882352941 0.3764705882352941 0.3764705882352941
            ambientIntensity 0.7529
            transparency 0.0
            shininess 0.5
        }
    }
    geometry IndexedFaceSet {
        ccw TRUE
        solid FALSE
        coord DEF co Coordinate {
            point [
                -0.0792 0.0025 0.0039, -0.0924 0.0025 0.0039, -0.0851 0.019 0.0039, -0.0865 0.019 0.0039, -0.0855 0.0203 0.0039, -0.0861 0.0203 0.0039, -0.0857 0.0217 0.0039, -0.0859 0.0217 0.0039, -0.0391 0.0222 0.0039, -0.0391 -0.0085 0.0039, -0.0449 0.0222 0.0039, -0.0447 -0.0085 0.0039, -0.0488 -0.0081 0.0039, -0.0602 0.0072 0.0039, -0.0599 0.0111 0.0039, -0.059 0.0143 0.0039, -0.0495 0.0217 0.0039, -0.0521 -0.0071 0.0039, -0.0548 -0.0055 0.0039, -0.057 -0.0033 0.0039, -0.0587 -0.0006 0.0039, -0.0598 0.0031 0.0039, -0.0576 0.0167 0.0039, -0.0557 0.0187 0.0039, -0.0528 0.0206 0.0039, 0.2323 0.3386 0.0394, 0.1969 0.374 0.0039, 0.8661 0.3386 0.0394, 0.8661 0.374 0.0039, 0.1969 -0.0131 0.0039, 0.2323 -0.3386 0.0394, 0.1969 -0.374 0.0039, 0.8661 -0.3386 0.0394, 0.8661 -0.374 0.0039, -0.2323 -0.3386 0.0394, -0.1969 -0.374 0.0039, -0.8661 -0.3386 0.0394, -0.8661 -0.374 0.0039, -0.1969 -0.0131 0.0039, -0.2323 0.3386 0.0394, -0.1969 0.374 0.0039, -0.8661 0.374 0.0039, -0.8661 0.3386 0.0394
            ]
        }
        coordIndex [
            0,1,2,-1,2,1,3,-1,2,3,4,-1,4,3,5,-1,4,5,6,-1,6,5,7,-1,8,9,10,-1,10,9,11,-1,10,11,12,-1,13,14,10,-1,10,14,15,-1,10,15,16,-1,12,17,10,-1,10,17,18,-1,10,18,19,-1,19,20,10,-1,10,20,21,-1,10,21,13,-1,22,23,15,-1,15,23,24,-1,15,24,16,-1,25,26,27,-1,27,26,28,-1,26,25,29,-1,29,25,30,-1,29,30,31,-1,32,33,30,-1,30,33,31,-1,34,35,36,-1,36,35,37,-1,35,34,38,-1,38,34,39,-1,38,39,40,-1,40,39,41,-1,41,39,42,-1,
        ]
    }
}
Shape{
    appearance Appearance {
        material  Material 	{
            diffuseColor 0.25098039215686274 0.25098039215686274 0.25098039215686274
            specularColor 0.12549019607843137 0.12549019607843137 0.12549019607843137
            ambientIntensity 0.251
            transparency 0.0
            shininess 0.5
        }
    }
    geometry IndexedFaceSet {
        ccw TRUE
        solid FALSE
        coord DEF co Coordinate {
            point [
                0.7248 0.3214 0.5941, 0.7248 0.2764 0.5941, 0.7248 0.3214 0.5945, 0.7248 0.2764 0.5945, 0.5214 -0.2692 0.5941, 0.5214 -0.2692 0.5945, 0.5289 -0.219 0.5945, 0.5289 -0.219 0.5941, 0.5464 -0.1429 0.5945, 0.5464 -0.1429 0.5941, 0.5718 -0.0607 0.5945, 0.5718 -0.0607 0.5941, 0.6098 0.0396 0.5945, 0.6098 0.0396 0.5941, 0.6627 0.1567 0.5945, 0.6627 0.1567 0.5941, 0.4422 -0.2692 0.5941, 0.4422 -0.2692 0.5945, 0.6456 0.2565 0.5941, 0.6456 0.2565 0.5945, 0.6274 0.2237 0.5945, 0.6274 0.2237 0.5941, 0.5666 0.105 0.5945, 0.5666 0.105 0.5941, 0.5155 -0.0112 0.5945, 0.5155 -0.0112 0.5941, 0.4799 -0.109 0.5945, 0.4799 -0.109 0.5941, 0.4578 -0.1869 0.5945, 0.4578 -0.1869 0.5941, 0.3575 0.2565 0.5941, 0.3575 0.2565 0.5945, 0.3575 0.3214 0.5941, 0.3575 0.3214 0.5945, 0.2019 -0.0905 0.5941, 0.3071 -0.2692 0.5941, 0.2019 -0.0905 0.5945, 0.3071 -0.2692 0.5945, 0.2207 -0.2692 0.5941, 0.2207 -0.2692 0.5945, 0.1248 -0.103 0.5941, 0.1248 -0.103 0.5945, 0.0151 -0.0171 0.5941, 0.0151 -0.0171 0.5945, 0.037 -0.0193 0.5945, 0.037 -0.0193 0.5941, 0.0575 -0.0262 0.5945, 0.0575 -0.0262 0.5941, 0.0753 -0.0375 0.5945, 0.0753 -0.0375 0.5941, 0.0974 -0.0611 0.5945, 0.0974 -0.0611 0.5941, -0.0386 -0.0171 0.5941, -0.0386 -0.0171 0.5945, -0.0386 -0.2692 0.5941, -0.0386 -0.2692 0.5945, -0.1178 -0.2692 0.5941, -0.1178 -0.2692 0.5945, -0.1178 0.3214 0.5941, -0.1178 0.3214 0.5945, 0.0604 0.3214 0.5941, 0.0604 0.3214 0.5945, 0.2423 0.165 0.5941, 0.2423 0.165 0.5945, 0.2398 0.197 0.5945, 0.2398 0.197 0.5941, 0.2311 0.2287 0.5945, 0.2311 0.2287 0.5941, 0.2156 0.2568 0.5945, 0.2156 0.2568 0.5941, 0.195 0.2793 0.5945, 0.195 0.2793 0.5941, 0.167 0.2984 0.5945, 0.167 0.2984 0.5941, 0.1339 0.3119 0.5945, 0.1339 0.3119 0.5941, 0.0967 0.3193 0.5945, 0.0967 0.3193 0.5941, 0.1143 0.007 0.5941, 0.1143 0.007 0.5945, 0.1363 0.0141 0.5945, 0.1363 0.0141 0.5941, 0.1685 0.0294 0.5945, 0.1685 0.0294 0.5941, 0.1949 0.0485 0.5945, 0.1949 0.0485 0.5941, 0.2163 0.0726 0.5945, 0.2163 0.0726 0.5941, 0.2311 0.1003 0.5945, 0.2311 0.1003 0.5941, 0.2397 0.1323 0.5945, 0.2397 0.1323 0.5941, 0.1143 0.005 0.5941, 0.1143 0.005 0.5945, 0.1897 -0.0708 0.5945, 0.1897 -0.0708 0.5941, 0.1611 -0.0304 0.5945, 0.1611 -0.0304 0.5941, 0.1398 -0.0097 0.5945, 0.1398 -0.0097 0.5941, 0.0489 0.0477 0.5941, 0.1546 0.1119 0.5941, 0.1613 0.136 0.5941, 0.1631 0.1584 0.5941, 0.1606 0.184 0.5941, 0.1542 0.2036 0.5941, 0.1414 0.0895 0.5941, 0.123 0.0709 0.5941, 0.1027 0.0586 0.5941, 0.0773 0.0504 0.5941, 0.1439 0.2202 0.5941, 0.1304 0.2337 0.5941, 0.1131 0.2445 0.5941, 0.0861 0.2533 0.5941, 0.05 0.2565 0.5941, -0.0386 0.2565 0.5941, -0.0386 0.0477 0.5941, 0.05 0.2565 0.5945, -0.0386 0.2565 0.5945, 0.0861 0.2533 0.5945, 0.1131 0.2445 0.5945, 0.1304 0.2337 0.5945, 0.1439 0.2202 0.5945, 0.1542 0.2036 0.5945, 0.1606 0.184 0.5945, 0.1631 0.1584 0.5945, 0.1613 0.136 0.5945, 0.1546 0.1119 0.5945, 0.1414 0.0895 0.5945, 0.123 0.0709 0.5945, 0.1027 0.0586 0.5945, 0.0773 0.0504 0.5945, 0.0489 0.0477 0.5945, -0.0386 0.0477 0.5945, -0.3748 0.3214 0.5941, -0.2978 0.3214 0.5941, -0.3748 0.3214 0.5945, -0.2978 0.3214 0.5945, -0.2978 -0.0675 0.5941, -0.2978 -0.0675 0.5945, -0.2114 -0.0675 0.5941, -0.2114 -0.0675 0.5945, -0.2114 -0.1323 0.5941, -0.2114 -0.1323 0.5945, -0.2978 -0.1323 0.5941, -0.2978 -0.1323 0.5945, -0.2978 -0.2692 0.5941, -0.2978 -0.2692 0.5945, -0.3698 -0.2692 0.5941, -0.3698 -0.2692 0.5945, -0.3698 -0.1323 0.5941, -0.3698 -0.1323 0.5945, -0.6435 -0.1323 0.5941, -0.6435 -0.1323 0.5945, -0.6435 -0.0709 0.5941, -0.6435 -0.0709 0.5945, -0.3886 0.2948 0.5945, -0.3886 0.2948 0.5941, -0.4437 0.1999 0.5945, -0.4437 0.1999 0.5941, -0.4948 0.1218 0.5945, -0.4948 0.1218 0.5941, -0.5647 0.0252 0.5945, -0.5647 0.0252 0.5941, -0.3698 -0.0675 0.5941, -0.3698 0.213 0.5941, -0.5599 -0.0675 0.5941, -0.499 0.0116 0.5941, -0.4285 0.1142 0.5941, -0.5599 -0.0675 0.5945, -0.499 0.0116 0.5945, -0.4285 0.1142 0.5945, -0.3698 0.213 0.5945, -0.3698 -0.0675 0.5945
            ]
        }
        coordIndex [
            0,1,2,-1,2,1,3,-1,4,5,6,-1,4,6,7,-1,7,6,8,-1,7,8,9,-1,9,8,10,-1,9,10,11,-1,11,10,12,-1,11,12,13,-1,13,12,14,-1,13,14,15,-1,15,14,3,-1,15,3,1,-1,4,16,5,-1,5,16,17,-1,18,19,20,-1,18,20,21,-1,21,20,22,-1,21,22,23,-1,23,22,24,-1,23,24,25,-1,25,24,26,-1,25,26,27,-1,27,26,28,-1,27,28,29,-1,29,28,17,-1,29,17,16,-1,18,30,19,-1,19,30,31,-1,30,32,31,-1,31,32,33,-1,32,0,33,-1,33,0,2,-1,15,1,0,-1,16,4,29,-1,29,4,7,-1,29,7,27,-1,27,7,9,-1,27,9,25,-1,25,9,11,-1,25,11,23,-1,23,11,13,-1,23,13,21,-1,21,13,15,-1,21,15,18,-1,18,15,0,-1,18,0,30,-1,30,0,32,-1,34,35,36,-1,36,35,37,-1,35,38,37,-1,37,38,39,-1,38,40,39,-1,39,40,41,-1,42,43,44,-1,42,44,45,-1,45,44,46,-1,45,46,47,-1,47,46,48,-1,47,48,49,-1,49,48,50,-1,49,50,51,-1,51,50,41,-1,51,41,40,-1,42,52,43,-1,43,52,53,-1,52,54,53,-1,53,54,55,-1,54,56,55,-1,55,56,57,-1,56,58,57,-1,57,58,59,-1,58,60,59,-1,59,60,61,-1,62,63,64,-1,62,64,65,-1,65,64,66,-1,65,66,67,-1,67,66,68,-1,67,68,69,-1,69,68,70,-1,69,70,71,-1,71,70,72,-1,71,72,73,-1,73,72,74,-1,73,74,75,-1,75,74,76,-1,75,76,77,-1,77,76,61,-1,77,61,60,-1,78,79,80,-1,78,80,81,-1,81,80,82,-1,81,82,83,-1,83,82,84,-1,83,84,85,-1,85,84,86,-1,85,86,87,-1,87,86,88,-1,87,88,89,-1,89,88,90,-1,89,90,91,-1,91,90,63,-1,91,63,62,-1,78,92,79,-1,79,92,93,-1,34,36,94,-1,34,94,95,-1,95,94,96,-1,95,96,97,-1,97,96,98,-1,97,98,99,-1,99,98,93,-1,99,93,92,-1,58,56,52,-1,52,56,54,-1,100,45,47,-1,101,87,89,-1,100,47,78,-1,101,89,102,-1,102,89,91,-1,102,91,103,-1,103,91,62,-1,103,62,104,-1,104,62,65,-1,104,65,105,-1,78,47,92,-1,92,47,49,-1,92,49,99,-1,99,49,51,-1,99,51,97,-1,97,51,40,-1,97,40,95,-1,95,40,34,-1,34,40,38,-1,34,38,35,-1,87,101,85,-1,85,101,106,-1,85,106,83,-1,83,106,107,-1,83,107,81,-1,81,107,108,-1,81,108,78,-1,78,108,109,-1,78,109,100,-1,65,67,105,-1,105,67,69,-1,105,69,110,-1,110,69,71,-1,110,71,111,-1,111,71,73,-1,111,73,112,-1,112,73,75,-1,112,75,113,-1,113,75,77,-1,113,77,114,-1,114,77,60,-1,114,60,115,-1,115,60,58,-1,115,58,116,-1,116,58,52,-1,116,52,100,-1,100,52,42,-1,100,42,45,-1,114,115,117,-1,117,115,118,-1,114,117,119,-1,114,119,113,-1,113,119,120,-1,113,120,112,-1,112,120,121,-1,112,121,111,-1,111,121,122,-1,111,122,110,-1,110,122,123,-1,110,123,105,-1,105,123,124,-1,105,124,104,-1,104,124,125,-1,104,125,103,-1,103,125,126,-1,103,126,102,-1,102,126,127,-1,102,127,101,-1,101,127,128,-1,101,128,106,-1,106,128,129,-1,106,129,107,-1,107,129,130,-1,107,130,108,-1,108,130,131,-1,108,131,109,-1,109,131,132,-1,109,132,100,-1,116,100,133,-1,133,100,132,-1,115,116,118,-1,118,116,133,-1,134,135,136,-1,136,135,137,-1,135,138,137,-1,137,138,139,-1,138,140,139,-1,139,140,141,-1,140,142,141,-1,141,142,143,-1,142,144,143,-1,143,144,145,-1,144,146,145,-1,145,146,147,-1,146,148,147,-1,147,148,149,-1,148,150,149,-1,149,150,151,-1,150,152,151,-1,151,152,153,-1,152,154,153,-1,153,154,155,-1,134,136,156,-1,134,156,157,-1,157,156,158,-1,157,158,159,-1,159,158,160,-1,159,160,161,-1,161,160,162,-1,161,162,163,-1,163,162,155,-1,163,155,154,-1,163,154,152,-1,148,146,150,-1,150,146,144,-1,164,138,165,-1,165,138,135,-1,165,135,134,-1,142,140,144,-1,144,140,138,-1,144,138,150,-1,150,138,164,-1,150,164,152,-1,152,164,166,-1,152,166,163,-1,163,166,167,-1,163,167,161,-1,161,167,168,-1,161,168,159,-1,159,168,165,-1,159,165,157,-1,157,165,134,-1,166,169,170,-1,166,170,167,-1,167,170,171,-1,167,171,168,-1,168,171,172,-1,168,172,165,-1,164,165,173,-1,173,165,172,-1,166,164,169,-1,169,164,173,-1,
        ]
    }
}
Shape{
    appearance Appearance {
        material  Material 	{
            diffuseColor 0.7529411764705882 0.7529411764705882 0.7529411764705882
            specularColor 0.3764705882352941 0.3764705882352941 0.3764705882352941
            ambientIntensity 0.7529
            transparency 0.0
            shininess 0.5
        }
    }
    geometry IndexedFaceSet {
        ccw TRUE
        solid FALSE
        coord DEF co Coordinate {
            point [
                0.05 0.2565 0.5945, 0.1631 0.1584 0.5945, 0.1606 0.184 0.5945, -0.0386 0.2565 0.5945, -0.0386 0.0477 0.5945, 0.0489 0.0477 0.5945, 0.0773 0.0504 0.5945, 0.1304 0.2337 0.5945, 0.1439 0.2202 0.5945, 0.1542 0.2036 0.5945, 0.1131 0.2445 0.5945, 0.0861 0.2533 0.5945, 0.1027 0.0586 0.5945, 0.123 0.0709 0.5945, 0.1414 0.0895 0.5945, 0.1546 0.1119 0.5945, 0.1613 0.136 0.5945, -0.3698 0.213 0.5945, -0.4285 0.1142 0.5945, -0.3698 -0.0675 0.5945, -0.499 0.0116 0.5945, -0.5599 -0.0675 0.5945
            ]
        }
        coordIndex [
            0,1,2,-1,3,4,0,-1,0,4,5,-1,0,5,6,-1,7,2,8,-1,8,2,9,-1,7,10,2,-1,2,10,11,-1,2,11,0,-1,6,12,0,-1,0,12,13,-1,0,13,14,-1,14,15,0,-1,0,15,16,-1,0,16,1,-1,17,18,19,-1,19,18,20,-1,19,20,21,-1,
        ]
    }
}