%TF.GenerationSoftware,KiCad,Pcbnew,10.0.0*%
%TF.CreationDate,2026-04-07T22:15:57+02:00*%
%TF.ProjectId,esp32-emu-turbo,65737033-322d-4656-9d75-2d747572626f,rev?*%
%TF.SameCoordinates,Original*%
%TF.FileFunction,Legend,Bot*%
%TF.FilePolarity,Positive*%
%FSLAX46Y46*%
G04 Gerber Fmt 4.6, Leading zero omitted, Abs format (unit mm)*
G04 Created by KiCad (PCBNEW 10.0.0) date 2026-04-07 22:15:57*
%MOMM*%
%LPD*%
G01*
G04 APERTURE LIST*
%ADD10C,0.200000*%
%ADD11C,2.500000*%
%ADD12R,1.500000X0.900000*%
%ADD13R,0.900000X1.500000*%
%ADD14R,3.900000X3.900000*%
%ADD15R,0.700000X1.000000*%
%ADD16R,1.000000X0.150000*%
%ADD17R,2.500000X2.000000*%
%ADD18R,0.350000X1.100000*%
%ADD19R,0.150000X1.100000*%
%ADD20O,1.100000X2.000000*%
%ADD21O,1.400000X1.800000*%
%ADD22C,0.650000*%
%ADD23R,0.500000X1.300000*%
%ADD24R,1.200000X1.400000*%
%ADD25R,1.200000X2.000000*%
%ADD26C,1.000000*%
%ADD27R,0.600000X1.524000*%
%ADD28R,1.200000X0.700000*%
%ADD29C,0.900000*%
%ADD30R,2.000000X3.000000*%
%ADD31R,1.700000X0.600000*%
%ADD32R,3.400000X2.800000*%
%ADD33R,1.000000X1.500000*%
%ADD34R,3.600000X1.800000*%
%ADD35R,0.600000X1.550000*%
%ADD36R,1.400000X3.400000*%
%ADD37R,2.500000X1.000000*%
%ADD38R,1.000000X0.700000*%
%ADD39R,1.000000X1.300000*%
%ADD40R,1.300000X1.000000*%
%ADD41R,1.200000X1.800000*%
G04 APERTURE END LIST*
D10*
X83714285Y-11428409D02*
X83380952Y-11428409D01*
X83238095Y-11952219D02*
X83714285Y-11952219D01*
X83714285Y-11952219D02*
X83714285Y-10952219D01*
X83714285Y-10952219D02*
X83238095Y-10952219D01*
X82857142Y-11904600D02*
X82714285Y-11952219D01*
X82714285Y-11952219D02*
X82476190Y-11952219D01*
X82476190Y-11952219D02*
X82380952Y-11904600D01*
X82380952Y-11904600D02*
X82333333Y-11856980D01*
X82333333Y-11856980D02*
X82285714Y-11761742D01*
X82285714Y-11761742D02*
X82285714Y-11666504D01*
X82285714Y-11666504D02*
X82333333Y-11571266D01*
X82333333Y-11571266D02*
X82380952Y-11523647D01*
X82380952Y-11523647D02*
X82476190Y-11476028D01*
X82476190Y-11476028D02*
X82666666Y-11428409D01*
X82666666Y-11428409D02*
X82761904Y-11380790D01*
X82761904Y-11380790D02*
X82809523Y-11333171D01*
X82809523Y-11333171D02*
X82857142Y-11237933D01*
X82857142Y-11237933D02*
X82857142Y-11142695D01*
X82857142Y-11142695D02*
X82809523Y-11047457D01*
X82809523Y-11047457D02*
X82761904Y-10999838D01*
X82761904Y-10999838D02*
X82666666Y-10952219D01*
X82666666Y-10952219D02*
X82428571Y-10952219D01*
X82428571Y-10952219D02*
X82285714Y-10999838D01*
X81857142Y-11952219D02*
X81857142Y-10952219D01*
X81857142Y-10952219D02*
X81476190Y-10952219D01*
X81476190Y-10952219D02*
X81380952Y-10999838D01*
X81380952Y-10999838D02*
X81333333Y-11047457D01*
X81333333Y-11047457D02*
X81285714Y-11142695D01*
X81285714Y-11142695D02*
X81285714Y-11285552D01*
X81285714Y-11285552D02*
X81333333Y-11380790D01*
X81333333Y-11380790D02*
X81380952Y-11428409D01*
X81380952Y-11428409D02*
X81476190Y-11476028D01*
X81476190Y-11476028D02*
X81857142Y-11476028D01*
X80952380Y-10952219D02*
X80333333Y-10952219D01*
X80333333Y-10952219D02*
X80666666Y-11333171D01*
X80666666Y-11333171D02*
X80523809Y-11333171D01*
X80523809Y-11333171D02*
X80428571Y-11380790D01*
X80428571Y-11380790D02*
X80380952Y-11428409D01*
X80380952Y-11428409D02*
X80333333Y-11523647D01*
X80333333Y-11523647D02*
X80333333Y-11761742D01*
X80333333Y-11761742D02*
X80380952Y-11856980D01*
X80380952Y-11856980D02*
X80428571Y-11904600D01*
X80428571Y-11904600D02*
X80523809Y-11952219D01*
X80523809Y-11952219D02*
X80809523Y-11952219D01*
X80809523Y-11952219D02*
X80904761Y-11904600D01*
X80904761Y-11904600D02*
X80952380Y-11856980D01*
X79952380Y-11047457D02*
X79904761Y-10999838D01*
X79904761Y-10999838D02*
X79809523Y-10952219D01*
X79809523Y-10952219D02*
X79571428Y-10952219D01*
X79571428Y-10952219D02*
X79476190Y-10999838D01*
X79476190Y-10999838D02*
X79428571Y-11047457D01*
X79428571Y-11047457D02*
X79380952Y-11142695D01*
X79380952Y-11142695D02*
X79380952Y-11237933D01*
X79380952Y-11237933D02*
X79428571Y-11380790D01*
X79428571Y-11380790D02*
X79999999Y-11952219D01*
X79999999Y-11952219D02*
X79380952Y-11952219D01*
X78952380Y-11571266D02*
X78190476Y-11571266D01*
X77761904Y-11904600D02*
X77619047Y-11952219D01*
X77619047Y-11952219D02*
X77380952Y-11952219D01*
X77380952Y-11952219D02*
X77285714Y-11904600D01*
X77285714Y-11904600D02*
X77238095Y-11856980D01*
X77238095Y-11856980D02*
X77190476Y-11761742D01*
X77190476Y-11761742D02*
X77190476Y-11666504D01*
X77190476Y-11666504D02*
X77238095Y-11571266D01*
X77238095Y-11571266D02*
X77285714Y-11523647D01*
X77285714Y-11523647D02*
X77380952Y-11476028D01*
X77380952Y-11476028D02*
X77571428Y-11428409D01*
X77571428Y-11428409D02*
X77666666Y-11380790D01*
X77666666Y-11380790D02*
X77714285Y-11333171D01*
X77714285Y-11333171D02*
X77761904Y-11237933D01*
X77761904Y-11237933D02*
X77761904Y-11142695D01*
X77761904Y-11142695D02*
X77714285Y-11047457D01*
X77714285Y-11047457D02*
X77666666Y-10999838D01*
X77666666Y-10999838D02*
X77571428Y-10952219D01*
X77571428Y-10952219D02*
X77333333Y-10952219D01*
X77333333Y-10952219D02*
X77190476Y-10999838D01*
X76857142Y-10952219D02*
X76238095Y-10952219D01*
X76238095Y-10952219D02*
X76571428Y-11333171D01*
X76571428Y-11333171D02*
X76428571Y-11333171D01*
X76428571Y-11333171D02*
X76333333Y-11380790D01*
X76333333Y-11380790D02*
X76285714Y-11428409D01*
X76285714Y-11428409D02*
X76238095Y-11523647D01*
X76238095Y-11523647D02*
X76238095Y-11761742D01*
X76238095Y-11761742D02*
X76285714Y-11856980D01*
X76285714Y-11856980D02*
X76333333Y-11904600D01*
X76333333Y-11904600D02*
X76428571Y-11952219D01*
X76428571Y-11952219D02*
X76714285Y-11952219D01*
X76714285Y-11952219D02*
X76809523Y-11904600D01*
X76809523Y-11904600D02*
X76857142Y-11856980D01*
X111923809Y-32859695D02*
X111923809Y-32059695D01*
X111542857Y-32859695D02*
X111542857Y-32059695D01*
X111542857Y-32059695D02*
X111238095Y-32059695D01*
X111238095Y-32059695D02*
X111161905Y-32097790D01*
X111161905Y-32097790D02*
X111123810Y-32135885D01*
X111123810Y-32135885D02*
X111085714Y-32212076D01*
X111085714Y-32212076D02*
X111085714Y-32326361D01*
X111085714Y-32326361D02*
X111123810Y-32402552D01*
X111123810Y-32402552D02*
X111161905Y-32440647D01*
X111161905Y-32440647D02*
X111238095Y-32478742D01*
X111238095Y-32478742D02*
X111542857Y-32478742D01*
X110361905Y-32059695D02*
X110742857Y-32059695D01*
X110742857Y-32059695D02*
X110780953Y-32440647D01*
X110780953Y-32440647D02*
X110742857Y-32402552D01*
X110742857Y-32402552D02*
X110666667Y-32364457D01*
X110666667Y-32364457D02*
X110476191Y-32364457D01*
X110476191Y-32364457D02*
X110400000Y-32402552D01*
X110400000Y-32402552D02*
X110361905Y-32440647D01*
X110361905Y-32440647D02*
X110323810Y-32516838D01*
X110323810Y-32516838D02*
X110323810Y-32707314D01*
X110323810Y-32707314D02*
X110361905Y-32783504D01*
X110361905Y-32783504D02*
X110400000Y-32821600D01*
X110400000Y-32821600D02*
X110476191Y-32859695D01*
X110476191Y-32859695D02*
X110666667Y-32859695D01*
X110666667Y-32859695D02*
X110742857Y-32821600D01*
X110742857Y-32821600D02*
X110780953Y-32783504D01*
X110057143Y-32059695D02*
X109561905Y-32059695D01*
X109561905Y-32059695D02*
X109828571Y-32364457D01*
X109828571Y-32364457D02*
X109714286Y-32364457D01*
X109714286Y-32364457D02*
X109638095Y-32402552D01*
X109638095Y-32402552D02*
X109600000Y-32440647D01*
X109600000Y-32440647D02*
X109561905Y-32516838D01*
X109561905Y-32516838D02*
X109561905Y-32707314D01*
X109561905Y-32707314D02*
X109600000Y-32783504D01*
X109600000Y-32783504D02*
X109638095Y-32821600D01*
X109638095Y-32821600D02*
X109714286Y-32859695D01*
X109714286Y-32859695D02*
X109942857Y-32859695D01*
X109942857Y-32859695D02*
X110019048Y-32821600D01*
X110019048Y-32821600D02*
X110057143Y-32783504D01*
X109066666Y-32059695D02*
X108990476Y-32059695D01*
X108990476Y-32059695D02*
X108914285Y-32097790D01*
X108914285Y-32097790D02*
X108876190Y-32135885D01*
X108876190Y-32135885D02*
X108838095Y-32212076D01*
X108838095Y-32212076D02*
X108800000Y-32364457D01*
X108800000Y-32364457D02*
X108800000Y-32554933D01*
X108800000Y-32554933D02*
X108838095Y-32707314D01*
X108838095Y-32707314D02*
X108876190Y-32783504D01*
X108876190Y-32783504D02*
X108914285Y-32821600D01*
X108914285Y-32821600D02*
X108990476Y-32859695D01*
X108990476Y-32859695D02*
X109066666Y-32859695D01*
X109066666Y-32859695D02*
X109142857Y-32821600D01*
X109142857Y-32821600D02*
X109180952Y-32783504D01*
X109180952Y-32783504D02*
X109219047Y-32707314D01*
X109219047Y-32707314D02*
X109257143Y-32554933D01*
X109257143Y-32554933D02*
X109257143Y-32364457D01*
X109257143Y-32364457D02*
X109219047Y-32212076D01*
X109219047Y-32212076D02*
X109180952Y-32135885D01*
X109180952Y-32135885D02*
X109142857Y-32097790D01*
X109142857Y-32097790D02*
X109066666Y-32059695D01*
X108114285Y-32059695D02*
X108266666Y-32059695D01*
X108266666Y-32059695D02*
X108342857Y-32097790D01*
X108342857Y-32097790D02*
X108380952Y-32135885D01*
X108380952Y-32135885D02*
X108457142Y-32250171D01*
X108457142Y-32250171D02*
X108495238Y-32402552D01*
X108495238Y-32402552D02*
X108495238Y-32707314D01*
X108495238Y-32707314D02*
X108457142Y-32783504D01*
X108457142Y-32783504D02*
X108419047Y-32821600D01*
X108419047Y-32821600D02*
X108342857Y-32859695D01*
X108342857Y-32859695D02*
X108190476Y-32859695D01*
X108190476Y-32859695D02*
X108114285Y-32821600D01*
X108114285Y-32821600D02*
X108076190Y-32783504D01*
X108076190Y-32783504D02*
X108038095Y-32707314D01*
X108038095Y-32707314D02*
X108038095Y-32516838D01*
X108038095Y-32516838D02*
X108076190Y-32440647D01*
X108076190Y-32440647D02*
X108114285Y-32402552D01*
X108114285Y-32402552D02*
X108190476Y-32364457D01*
X108190476Y-32364457D02*
X108342857Y-32364457D01*
X108342857Y-32364457D02*
X108419047Y-32402552D01*
X108419047Y-32402552D02*
X108457142Y-32440647D01*
X108457142Y-32440647D02*
X108495238Y-32516838D01*
X132552381Y-52631123D02*
X132171428Y-52631123D01*
X132628571Y-52859695D02*
X132361904Y-52059695D01*
X132361904Y-52059695D02*
X132095238Y-52859695D01*
X131828571Y-52859695D02*
X131828571Y-52059695D01*
X131828571Y-52059695D02*
X131561905Y-52631123D01*
X131561905Y-52631123D02*
X131295238Y-52059695D01*
X131295238Y-52059695D02*
X131295238Y-52859695D01*
X130952381Y-52821600D02*
X130838095Y-52859695D01*
X130838095Y-52859695D02*
X130647619Y-52859695D01*
X130647619Y-52859695D02*
X130571428Y-52821600D01*
X130571428Y-52821600D02*
X130533333Y-52783504D01*
X130533333Y-52783504D02*
X130495238Y-52707314D01*
X130495238Y-52707314D02*
X130495238Y-52631123D01*
X130495238Y-52631123D02*
X130533333Y-52554933D01*
X130533333Y-52554933D02*
X130571428Y-52516838D01*
X130571428Y-52516838D02*
X130647619Y-52478742D01*
X130647619Y-52478742D02*
X130800000Y-52440647D01*
X130800000Y-52440647D02*
X130876190Y-52402552D01*
X130876190Y-52402552D02*
X130914285Y-52364457D01*
X130914285Y-52364457D02*
X130952381Y-52288266D01*
X130952381Y-52288266D02*
X130952381Y-52212076D01*
X130952381Y-52212076D02*
X130914285Y-52135885D01*
X130914285Y-52135885D02*
X130876190Y-52097790D01*
X130876190Y-52097790D02*
X130800000Y-52059695D01*
X130800000Y-52059695D02*
X130609523Y-52059695D01*
X130609523Y-52059695D02*
X130495238Y-52097790D01*
X129733333Y-52859695D02*
X130190476Y-52859695D01*
X129961904Y-52859695D02*
X129961904Y-52059695D01*
X129961904Y-52059695D02*
X130038095Y-52173980D01*
X130038095Y-52173980D02*
X130114285Y-52250171D01*
X130114285Y-52250171D02*
X130190476Y-52288266D01*
X128971428Y-52859695D02*
X129428571Y-52859695D01*
X129199999Y-52859695D02*
X129199999Y-52059695D01*
X129199999Y-52059695D02*
X129276190Y-52173980D01*
X129276190Y-52173980D02*
X129352380Y-52250171D01*
X129352380Y-52250171D02*
X129428571Y-52288266D01*
X128209523Y-52859695D02*
X128666666Y-52859695D01*
X128438094Y-52859695D02*
X128438094Y-52059695D01*
X128438094Y-52059695D02*
X128514285Y-52173980D01*
X128514285Y-52173980D02*
X128590475Y-52250171D01*
X128590475Y-52250171D02*
X128666666Y-52288266D01*
X127942856Y-52059695D02*
X127409522Y-52059695D01*
X127409522Y-52059695D02*
X127752380Y-52859695D01*
X32533333Y-24859695D02*
X32533333Y-24059695D01*
X32533333Y-24059695D02*
X32228571Y-24059695D01*
X32228571Y-24059695D02*
X32152381Y-24097790D01*
X32152381Y-24097790D02*
X32114286Y-24135885D01*
X32114286Y-24135885D02*
X32076190Y-24212076D01*
X32076190Y-24212076D02*
X32076190Y-24326361D01*
X32076190Y-24326361D02*
X32114286Y-24402552D01*
X32114286Y-24402552D02*
X32152381Y-24440647D01*
X32152381Y-24440647D02*
X32228571Y-24478742D01*
X32228571Y-24478742D02*
X32533333Y-24478742D01*
X31771429Y-24631123D02*
X31390476Y-24631123D01*
X31847619Y-24859695D02*
X31580952Y-24059695D01*
X31580952Y-24059695D02*
X31314286Y-24859695D01*
X31047619Y-24859695D02*
X31047619Y-24059695D01*
X31047619Y-24059695D02*
X30780953Y-24631123D01*
X30780953Y-24631123D02*
X30514286Y-24059695D01*
X30514286Y-24059695D02*
X30514286Y-24859695D01*
X30019048Y-24402552D02*
X30095238Y-24364457D01*
X30095238Y-24364457D02*
X30133333Y-24326361D01*
X30133333Y-24326361D02*
X30171429Y-24250171D01*
X30171429Y-24250171D02*
X30171429Y-24212076D01*
X30171429Y-24212076D02*
X30133333Y-24135885D01*
X30133333Y-24135885D02*
X30095238Y-24097790D01*
X30095238Y-24097790D02*
X30019048Y-24059695D01*
X30019048Y-24059695D02*
X29866667Y-24059695D01*
X29866667Y-24059695D02*
X29790476Y-24097790D01*
X29790476Y-24097790D02*
X29752381Y-24135885D01*
X29752381Y-24135885D02*
X29714286Y-24212076D01*
X29714286Y-24212076D02*
X29714286Y-24250171D01*
X29714286Y-24250171D02*
X29752381Y-24326361D01*
X29752381Y-24326361D02*
X29790476Y-24364457D01*
X29790476Y-24364457D02*
X29866667Y-24402552D01*
X29866667Y-24402552D02*
X30019048Y-24402552D01*
X30019048Y-24402552D02*
X30095238Y-24440647D01*
X30095238Y-24440647D02*
X30133333Y-24478742D01*
X30133333Y-24478742D02*
X30171429Y-24554933D01*
X30171429Y-24554933D02*
X30171429Y-24707314D01*
X30171429Y-24707314D02*
X30133333Y-24783504D01*
X30133333Y-24783504D02*
X30095238Y-24821600D01*
X30095238Y-24821600D02*
X30019048Y-24859695D01*
X30019048Y-24859695D02*
X29866667Y-24859695D01*
X29866667Y-24859695D02*
X29790476Y-24821600D01*
X29790476Y-24821600D02*
X29752381Y-24783504D01*
X29752381Y-24783504D02*
X29714286Y-24707314D01*
X29714286Y-24707314D02*
X29714286Y-24554933D01*
X29714286Y-24554933D02*
X29752381Y-24478742D01*
X29752381Y-24478742D02*
X29790476Y-24440647D01*
X29790476Y-24440647D02*
X29866667Y-24402552D01*
X29028571Y-24326361D02*
X29028571Y-24859695D01*
X29219047Y-24021600D02*
X29409524Y-24593028D01*
X29409524Y-24593028D02*
X28914285Y-24593028D01*
X28457142Y-24059695D02*
X28380952Y-24059695D01*
X28380952Y-24059695D02*
X28304761Y-24097790D01*
X28304761Y-24097790D02*
X28266666Y-24135885D01*
X28266666Y-24135885D02*
X28228571Y-24212076D01*
X28228571Y-24212076D02*
X28190476Y-24364457D01*
X28190476Y-24364457D02*
X28190476Y-24554933D01*
X28190476Y-24554933D02*
X28228571Y-24707314D01*
X28228571Y-24707314D02*
X28266666Y-24783504D01*
X28266666Y-24783504D02*
X28304761Y-24821600D01*
X28304761Y-24821600D02*
X28380952Y-24859695D01*
X28380952Y-24859695D02*
X28457142Y-24859695D01*
X28457142Y-24859695D02*
X28533333Y-24821600D01*
X28533333Y-24821600D02*
X28571428Y-24783504D01*
X28571428Y-24783504D02*
X28609523Y-24707314D01*
X28609523Y-24707314D02*
X28647619Y-24554933D01*
X28647619Y-24554933D02*
X28647619Y-24364457D01*
X28647619Y-24364457D02*
X28609523Y-24212076D01*
X28609523Y-24212076D02*
X28571428Y-24135885D01*
X28571428Y-24135885D02*
X28533333Y-24097790D01*
X28533333Y-24097790D02*
X28457142Y-24059695D01*
X27923809Y-24059695D02*
X27428571Y-24059695D01*
X27428571Y-24059695D02*
X27695237Y-24364457D01*
X27695237Y-24364457D02*
X27580952Y-24364457D01*
X27580952Y-24364457D02*
X27504761Y-24402552D01*
X27504761Y-24402552D02*
X27466666Y-24440647D01*
X27466666Y-24440647D02*
X27428571Y-24516838D01*
X27428571Y-24516838D02*
X27428571Y-24707314D01*
X27428571Y-24707314D02*
X27466666Y-24783504D01*
X27466666Y-24783504D02*
X27504761Y-24821600D01*
X27504761Y-24821600D02*
X27580952Y-24859695D01*
X27580952Y-24859695D02*
X27809523Y-24859695D01*
X27809523Y-24859695D02*
X27885714Y-24821600D01*
X27885714Y-24821600D02*
X27923809Y-24783504D01*
X81904761Y-64759695D02*
X81904761Y-65407314D01*
X81904761Y-65407314D02*
X81866666Y-65483504D01*
X81866666Y-65483504D02*
X81828571Y-65521600D01*
X81828571Y-65521600D02*
X81752380Y-65559695D01*
X81752380Y-65559695D02*
X81599999Y-65559695D01*
X81599999Y-65559695D02*
X81523809Y-65521600D01*
X81523809Y-65521600D02*
X81485714Y-65483504D01*
X81485714Y-65483504D02*
X81447618Y-65407314D01*
X81447618Y-65407314D02*
X81447618Y-64759695D01*
X81104762Y-65521600D02*
X80990476Y-65559695D01*
X80990476Y-65559695D02*
X80800000Y-65559695D01*
X80800000Y-65559695D02*
X80723809Y-65521600D01*
X80723809Y-65521600D02*
X80685714Y-65483504D01*
X80685714Y-65483504D02*
X80647619Y-65407314D01*
X80647619Y-65407314D02*
X80647619Y-65331123D01*
X80647619Y-65331123D02*
X80685714Y-65254933D01*
X80685714Y-65254933D02*
X80723809Y-65216838D01*
X80723809Y-65216838D02*
X80800000Y-65178742D01*
X80800000Y-65178742D02*
X80952381Y-65140647D01*
X80952381Y-65140647D02*
X81028571Y-65102552D01*
X81028571Y-65102552D02*
X81066666Y-65064457D01*
X81066666Y-65064457D02*
X81104762Y-64988266D01*
X81104762Y-64988266D02*
X81104762Y-64912076D01*
X81104762Y-64912076D02*
X81066666Y-64835885D01*
X81066666Y-64835885D02*
X81028571Y-64797790D01*
X81028571Y-64797790D02*
X80952381Y-64759695D01*
X80952381Y-64759695D02*
X80761904Y-64759695D01*
X80761904Y-64759695D02*
X80647619Y-64797790D01*
X80038095Y-65140647D02*
X79923809Y-65178742D01*
X79923809Y-65178742D02*
X79885714Y-65216838D01*
X79885714Y-65216838D02*
X79847618Y-65293028D01*
X79847618Y-65293028D02*
X79847618Y-65407314D01*
X79847618Y-65407314D02*
X79885714Y-65483504D01*
X79885714Y-65483504D02*
X79923809Y-65521600D01*
X79923809Y-65521600D02*
X79999999Y-65559695D01*
X79999999Y-65559695D02*
X80304761Y-65559695D01*
X80304761Y-65559695D02*
X80304761Y-64759695D01*
X80304761Y-64759695D02*
X80038095Y-64759695D01*
X80038095Y-64759695D02*
X79961904Y-64797790D01*
X79961904Y-64797790D02*
X79923809Y-64835885D01*
X79923809Y-64835885D02*
X79885714Y-64912076D01*
X79885714Y-64912076D02*
X79885714Y-64988266D01*
X79885714Y-64988266D02*
X79923809Y-65064457D01*
X79923809Y-65064457D02*
X79961904Y-65102552D01*
X79961904Y-65102552D02*
X80038095Y-65140647D01*
X80038095Y-65140647D02*
X80304761Y-65140647D01*
X79504761Y-65254933D02*
X78895238Y-65254933D01*
X78057142Y-65483504D02*
X78095238Y-65521600D01*
X78095238Y-65521600D02*
X78209523Y-65559695D01*
X78209523Y-65559695D02*
X78285714Y-65559695D01*
X78285714Y-65559695D02*
X78400000Y-65521600D01*
X78400000Y-65521600D02*
X78476190Y-65445409D01*
X78476190Y-65445409D02*
X78514285Y-65369219D01*
X78514285Y-65369219D02*
X78552381Y-65216838D01*
X78552381Y-65216838D02*
X78552381Y-65102552D01*
X78552381Y-65102552D02*
X78514285Y-64950171D01*
X78514285Y-64950171D02*
X78476190Y-64873980D01*
X78476190Y-64873980D02*
X78400000Y-64797790D01*
X78400000Y-64797790D02*
X78285714Y-64759695D01*
X78285714Y-64759695D02*
X78209523Y-64759695D01*
X78209523Y-64759695D02*
X78095238Y-64797790D01*
X78095238Y-64797790D02*
X78057142Y-64835885D01*
X140628571Y-59321600D02*
X140514285Y-59359695D01*
X140514285Y-59359695D02*
X140323809Y-59359695D01*
X140323809Y-59359695D02*
X140247618Y-59321600D01*
X140247618Y-59321600D02*
X140209523Y-59283504D01*
X140209523Y-59283504D02*
X140171428Y-59207314D01*
X140171428Y-59207314D02*
X140171428Y-59131123D01*
X140171428Y-59131123D02*
X140209523Y-59054933D01*
X140209523Y-59054933D02*
X140247618Y-59016838D01*
X140247618Y-59016838D02*
X140323809Y-58978742D01*
X140323809Y-58978742D02*
X140476190Y-58940647D01*
X140476190Y-58940647D02*
X140552380Y-58902552D01*
X140552380Y-58902552D02*
X140590475Y-58864457D01*
X140590475Y-58864457D02*
X140628571Y-58788266D01*
X140628571Y-58788266D02*
X140628571Y-58712076D01*
X140628571Y-58712076D02*
X140590475Y-58635885D01*
X140590475Y-58635885D02*
X140552380Y-58597790D01*
X140552380Y-58597790D02*
X140476190Y-58559695D01*
X140476190Y-58559695D02*
X140285713Y-58559695D01*
X140285713Y-58559695D02*
X140171428Y-58597790D01*
X139828570Y-59359695D02*
X139828570Y-58559695D01*
X139828570Y-58559695D02*
X139638094Y-58559695D01*
X139638094Y-58559695D02*
X139523808Y-58597790D01*
X139523808Y-58597790D02*
X139447618Y-58673980D01*
X139447618Y-58673980D02*
X139409523Y-58750171D01*
X139409523Y-58750171D02*
X139371427Y-58902552D01*
X139371427Y-58902552D02*
X139371427Y-59016838D01*
X139371427Y-59016838D02*
X139409523Y-59169219D01*
X139409523Y-59169219D02*
X139447618Y-59245409D01*
X139447618Y-59245409D02*
X139523808Y-59321600D01*
X139523808Y-59321600D02*
X139638094Y-59359695D01*
X139638094Y-59359695D02*
X139828570Y-59359695D01*
X80895238Y-57440647D02*
X80780952Y-57478742D01*
X80780952Y-57478742D02*
X80742857Y-57516838D01*
X80742857Y-57516838D02*
X80704761Y-57593028D01*
X80704761Y-57593028D02*
X80704761Y-57707314D01*
X80704761Y-57707314D02*
X80742857Y-57783504D01*
X80742857Y-57783504D02*
X80780952Y-57821600D01*
X80780952Y-57821600D02*
X80857142Y-57859695D01*
X80857142Y-57859695D02*
X81161904Y-57859695D01*
X81161904Y-57859695D02*
X81161904Y-57059695D01*
X81161904Y-57059695D02*
X80895238Y-57059695D01*
X80895238Y-57059695D02*
X80819047Y-57097790D01*
X80819047Y-57097790D02*
X80780952Y-57135885D01*
X80780952Y-57135885D02*
X80742857Y-57212076D01*
X80742857Y-57212076D02*
X80742857Y-57288266D01*
X80742857Y-57288266D02*
X80780952Y-57364457D01*
X80780952Y-57364457D02*
X80819047Y-57402552D01*
X80819047Y-57402552D02*
X80895238Y-57440647D01*
X80895238Y-57440647D02*
X81161904Y-57440647D01*
X80400000Y-57631123D02*
X80019047Y-57631123D01*
X80476190Y-57859695D02*
X80209523Y-57059695D01*
X80209523Y-57059695D02*
X79942857Y-57859695D01*
X79790476Y-57059695D02*
X79333333Y-57059695D01*
X79561905Y-57859695D02*
X79561905Y-57059695D01*
X79180952Y-57059695D02*
X78723809Y-57059695D01*
X78952381Y-57859695D02*
X78952381Y-57059695D01*
X135552380Y-21859695D02*
X135933332Y-21859695D01*
X135933332Y-21859695D02*
X135933332Y-21059695D01*
X134828570Y-21783504D02*
X134866666Y-21821600D01*
X134866666Y-21821600D02*
X134980951Y-21859695D01*
X134980951Y-21859695D02*
X135057142Y-21859695D01*
X135057142Y-21859695D02*
X135171428Y-21821600D01*
X135171428Y-21821600D02*
X135247618Y-21745409D01*
X135247618Y-21745409D02*
X135285713Y-21669219D01*
X135285713Y-21669219D02*
X135323809Y-21516838D01*
X135323809Y-21516838D02*
X135323809Y-21402552D01*
X135323809Y-21402552D02*
X135285713Y-21250171D01*
X135285713Y-21250171D02*
X135247618Y-21173980D01*
X135247618Y-21173980D02*
X135171428Y-21097790D01*
X135171428Y-21097790D02*
X135057142Y-21059695D01*
X135057142Y-21059695D02*
X134980951Y-21059695D01*
X134980951Y-21059695D02*
X134866666Y-21097790D01*
X134866666Y-21097790D02*
X134828570Y-21135885D01*
X134485713Y-21859695D02*
X134485713Y-21059695D01*
X134485713Y-21059695D02*
X134295237Y-21059695D01*
X134295237Y-21059695D02*
X134180951Y-21097790D01*
X134180951Y-21097790D02*
X134104761Y-21173980D01*
X134104761Y-21173980D02*
X134066666Y-21250171D01*
X134066666Y-21250171D02*
X134028570Y-21402552D01*
X134028570Y-21402552D02*
X134028570Y-21516838D01*
X134028570Y-21516838D02*
X134066666Y-21669219D01*
X134066666Y-21669219D02*
X134104761Y-21745409D01*
X134104761Y-21745409D02*
X134180951Y-21821600D01*
X134180951Y-21821600D02*
X134295237Y-21859695D01*
X134295237Y-21859695D02*
X134485713Y-21859695D01*
X41066666Y-67359695D02*
X41066666Y-66559695D01*
X41066666Y-66559695D02*
X40761904Y-66559695D01*
X40761904Y-66559695D02*
X40685714Y-66597790D01*
X40685714Y-66597790D02*
X40647619Y-66635885D01*
X40647619Y-66635885D02*
X40609523Y-66712076D01*
X40609523Y-66712076D02*
X40609523Y-66826361D01*
X40609523Y-66826361D02*
X40647619Y-66902552D01*
X40647619Y-66902552D02*
X40685714Y-66940647D01*
X40685714Y-66940647D02*
X40761904Y-66978742D01*
X40761904Y-66978742D02*
X41066666Y-66978742D01*
X40342857Y-66559695D02*
X40152381Y-67359695D01*
X40152381Y-67359695D02*
X40000000Y-66788266D01*
X40000000Y-66788266D02*
X39847619Y-67359695D01*
X39847619Y-67359695D02*
X39657143Y-66559695D01*
X38895237Y-67359695D02*
X39161904Y-66978742D01*
X39352380Y-67359695D02*
X39352380Y-66559695D01*
X39352380Y-66559695D02*
X39047618Y-66559695D01*
X39047618Y-66559695D02*
X38971428Y-66597790D01*
X38971428Y-66597790D02*
X38933333Y-66635885D01*
X38933333Y-66635885D02*
X38895237Y-66712076D01*
X38895237Y-66712076D02*
X38895237Y-66826361D01*
X38895237Y-66826361D02*
X38933333Y-66902552D01*
X38933333Y-66902552D02*
X38971428Y-66940647D01*
X38971428Y-66940647D02*
X39047618Y-66978742D01*
X39047618Y-66978742D02*
X39352380Y-66978742D01*
X32495238Y-52821600D02*
X32380952Y-52859695D01*
X32380952Y-52859695D02*
X32190476Y-52859695D01*
X32190476Y-52859695D02*
X32114285Y-52821600D01*
X32114285Y-52821600D02*
X32076190Y-52783504D01*
X32076190Y-52783504D02*
X32038095Y-52707314D01*
X32038095Y-52707314D02*
X32038095Y-52631123D01*
X32038095Y-52631123D02*
X32076190Y-52554933D01*
X32076190Y-52554933D02*
X32114285Y-52516838D01*
X32114285Y-52516838D02*
X32190476Y-52478742D01*
X32190476Y-52478742D02*
X32342857Y-52440647D01*
X32342857Y-52440647D02*
X32419047Y-52402552D01*
X32419047Y-52402552D02*
X32457142Y-52364457D01*
X32457142Y-52364457D02*
X32495238Y-52288266D01*
X32495238Y-52288266D02*
X32495238Y-52212076D01*
X32495238Y-52212076D02*
X32457142Y-52135885D01*
X32457142Y-52135885D02*
X32419047Y-52097790D01*
X32419047Y-52097790D02*
X32342857Y-52059695D01*
X32342857Y-52059695D02*
X32152380Y-52059695D01*
X32152380Y-52059695D02*
X32038095Y-52097790D01*
X31695237Y-52859695D02*
X31695237Y-52059695D01*
X31695237Y-52059695D02*
X31390475Y-52059695D01*
X31390475Y-52059695D02*
X31314285Y-52097790D01*
X31314285Y-52097790D02*
X31276190Y-52135885D01*
X31276190Y-52135885D02*
X31238094Y-52212076D01*
X31238094Y-52212076D02*
X31238094Y-52326361D01*
X31238094Y-52326361D02*
X31276190Y-52402552D01*
X31276190Y-52402552D02*
X31314285Y-52440647D01*
X31314285Y-52440647D02*
X31390475Y-52478742D01*
X31390475Y-52478742D02*
X31695237Y-52478742D01*
X30895237Y-52440647D02*
X30628571Y-52440647D01*
X30514285Y-52859695D02*
X30895237Y-52859695D01*
X30895237Y-52859695D02*
X30895237Y-52059695D01*
X30895237Y-52059695D02*
X30514285Y-52059695D01*
X30209523Y-52631123D02*
X29828570Y-52631123D01*
X30285713Y-52859695D02*
X30019046Y-52059695D01*
X30019046Y-52059695D02*
X29752380Y-52859695D01*
X29485713Y-52859695D02*
X29485713Y-52059695D01*
X29028570Y-52859695D02*
X29371428Y-52402552D01*
X29028570Y-52059695D02*
X29485713Y-52516838D01*
X28685713Y-52440647D02*
X28419047Y-52440647D01*
X28304761Y-52859695D02*
X28685713Y-52859695D01*
X28685713Y-52859695D02*
X28685713Y-52059695D01*
X28685713Y-52059695D02*
X28304761Y-52059695D01*
X27504760Y-52859695D02*
X27771427Y-52478742D01*
X27961903Y-52859695D02*
X27961903Y-52059695D01*
X27961903Y-52059695D02*
X27657141Y-52059695D01*
X27657141Y-52059695D02*
X27580951Y-52097790D01*
X27580951Y-52097790D02*
X27542856Y-52135885D01*
X27542856Y-52135885D02*
X27504760Y-52212076D01*
X27504760Y-52212076D02*
X27504760Y-52326361D01*
X27504760Y-52326361D02*
X27542856Y-52402552D01*
X27542856Y-52402552D02*
X27580951Y-52440647D01*
X27580951Y-52440647D02*
X27657141Y-52478742D01*
X27657141Y-52478742D02*
X27961903Y-52478742D01*
X14752380Y-10859695D02*
X15133332Y-10859695D01*
X15133332Y-10859695D02*
X15133332Y-10059695D01*
X144752380Y-10859695D02*
X145019047Y-10478742D01*
X145209523Y-10859695D02*
X145209523Y-10059695D01*
X145209523Y-10059695D02*
X144904761Y-10059695D01*
X144904761Y-10059695D02*
X144828571Y-10097790D01*
X144828571Y-10097790D02*
X144790476Y-10135885D01*
X144790476Y-10135885D02*
X144752380Y-10212076D01*
X144752380Y-10212076D02*
X144752380Y-10326361D01*
X144752380Y-10326361D02*
X144790476Y-10402552D01*
X144790476Y-10402552D02*
X144828571Y-10440647D01*
X144828571Y-10440647D02*
X144904761Y-10478742D01*
X144904761Y-10478742D02*
X145209523Y-10478742D01*
X86857142Y-3430457D02*
X86914285Y-3487600D01*
X86914285Y-3487600D02*
X87085713Y-3544742D01*
X87085713Y-3544742D02*
X87199999Y-3544742D01*
X87199999Y-3544742D02*
X87371428Y-3487600D01*
X87371428Y-3487600D02*
X87485713Y-3373314D01*
X87485713Y-3373314D02*
X87542856Y-3259028D01*
X87542856Y-3259028D02*
X87599999Y-3030457D01*
X87599999Y-3030457D02*
X87599999Y-2859028D01*
X87599999Y-2859028D02*
X87542856Y-2630457D01*
X87542856Y-2630457D02*
X87485713Y-2516171D01*
X87485713Y-2516171D02*
X87371428Y-2401885D01*
X87371428Y-2401885D02*
X87199999Y-2344742D01*
X87199999Y-2344742D02*
X87085713Y-2344742D01*
X87085713Y-2344742D02*
X86914285Y-2401885D01*
X86914285Y-2401885D02*
X86857142Y-2459028D01*
X86342856Y-3544742D02*
X86342856Y-2344742D01*
X86342856Y-2344742D02*
X85885713Y-2344742D01*
X85885713Y-2344742D02*
X85771428Y-2401885D01*
X85771428Y-2401885D02*
X85714285Y-2459028D01*
X85714285Y-2459028D02*
X85657142Y-2573314D01*
X85657142Y-2573314D02*
X85657142Y-2744742D01*
X85657142Y-2744742D02*
X85714285Y-2859028D01*
X85714285Y-2859028D02*
X85771428Y-2916171D01*
X85771428Y-2916171D02*
X85885713Y-2973314D01*
X85885713Y-2973314D02*
X86342856Y-2973314D01*
X84799999Y-2344742D02*
X84799999Y-3201885D01*
X84799999Y-3201885D02*
X84857142Y-3373314D01*
X84857142Y-3373314D02*
X84971428Y-3487600D01*
X84971428Y-3487600D02*
X85142856Y-3544742D01*
X85142856Y-3544742D02*
X85257142Y-3544742D01*
X83257142Y-3544742D02*
X83314285Y-3544742D01*
X83314285Y-3544742D02*
X83428570Y-3487600D01*
X83428570Y-3487600D02*
X83599999Y-3316171D01*
X83599999Y-3316171D02*
X83885713Y-2973314D01*
X83885713Y-2973314D02*
X83999999Y-2801885D01*
X83999999Y-2801885D02*
X84057142Y-2630457D01*
X84057142Y-2630457D02*
X84057142Y-2516171D01*
X84057142Y-2516171D02*
X83999999Y-2401885D01*
X83999999Y-2401885D02*
X83885713Y-2344742D01*
X83885713Y-2344742D02*
X83828570Y-2344742D01*
X83828570Y-2344742D02*
X83714285Y-2401885D01*
X83714285Y-2401885D02*
X83657142Y-2516171D01*
X83657142Y-2516171D02*
X83657142Y-2573314D01*
X83657142Y-2573314D02*
X83714285Y-2687600D01*
X83714285Y-2687600D02*
X83771427Y-2744742D01*
X83771427Y-2744742D02*
X84114285Y-2973314D01*
X84114285Y-2973314D02*
X84171427Y-3030457D01*
X84171427Y-3030457D02*
X84228570Y-3144742D01*
X84228570Y-3144742D02*
X84228570Y-3316171D01*
X84228570Y-3316171D02*
X84171427Y-3430457D01*
X84171427Y-3430457D02*
X84114285Y-3487600D01*
X84114285Y-3487600D02*
X83999999Y-3544742D01*
X83999999Y-3544742D02*
X83828570Y-3544742D01*
X83828570Y-3544742D02*
X83714285Y-3487600D01*
X83714285Y-3487600D02*
X83657142Y-3430457D01*
X83657142Y-3430457D02*
X83485713Y-3201885D01*
X83485713Y-3201885D02*
X83428570Y-3030457D01*
X83428570Y-3030457D02*
X83428570Y-2916171D01*
X82057142Y-3430457D02*
X82114285Y-3487600D01*
X82114285Y-3487600D02*
X82285713Y-3544742D01*
X82285713Y-3544742D02*
X82399999Y-3544742D01*
X82399999Y-3544742D02*
X82571428Y-3487600D01*
X82571428Y-3487600D02*
X82685713Y-3373314D01*
X82685713Y-3373314D02*
X82742856Y-3259028D01*
X82742856Y-3259028D02*
X82799999Y-3030457D01*
X82799999Y-3030457D02*
X82799999Y-2859028D01*
X82799999Y-2859028D02*
X82742856Y-2630457D01*
X82742856Y-2630457D02*
X82685713Y-2516171D01*
X82685713Y-2516171D02*
X82571428Y-2401885D01*
X82571428Y-2401885D02*
X82399999Y-2344742D01*
X82399999Y-2344742D02*
X82285713Y-2344742D01*
X82285713Y-2344742D02*
X82114285Y-2401885D01*
X82114285Y-2401885D02*
X82057142Y-2459028D01*
X81542856Y-3544742D02*
X81542856Y-2344742D01*
X81542856Y-2344742D02*
X81085713Y-2344742D01*
X81085713Y-2344742D02*
X80971428Y-2401885D01*
X80971428Y-2401885D02*
X80914285Y-2459028D01*
X80914285Y-2459028D02*
X80857142Y-2573314D01*
X80857142Y-2573314D02*
X80857142Y-2744742D01*
X80857142Y-2744742D02*
X80914285Y-2859028D01*
X80914285Y-2859028D02*
X80971428Y-2916171D01*
X80971428Y-2916171D02*
X81085713Y-2973314D01*
X81085713Y-2973314D02*
X81542856Y-2973314D01*
X79485713Y-2459028D02*
X79428570Y-2401885D01*
X79428570Y-2401885D02*
X79314285Y-2344742D01*
X79314285Y-2344742D02*
X79028570Y-2344742D01*
X79028570Y-2344742D02*
X78914285Y-2401885D01*
X78914285Y-2401885D02*
X78857142Y-2459028D01*
X78857142Y-2459028D02*
X78799999Y-2573314D01*
X78799999Y-2573314D02*
X78799999Y-2687600D01*
X78799999Y-2687600D02*
X78857142Y-2859028D01*
X78857142Y-2859028D02*
X79542856Y-3544742D01*
X79542856Y-3544742D02*
X78799999Y-3544742D01*
X78057142Y-2344742D02*
X77942856Y-2344742D01*
X77942856Y-2344742D02*
X77828570Y-2401885D01*
X77828570Y-2401885D02*
X77771428Y-2459028D01*
X77771428Y-2459028D02*
X77714285Y-2573314D01*
X77714285Y-2573314D02*
X77657142Y-2801885D01*
X77657142Y-2801885D02*
X77657142Y-3087600D01*
X77657142Y-3087600D02*
X77714285Y-3316171D01*
X77714285Y-3316171D02*
X77771428Y-3430457D01*
X77771428Y-3430457D02*
X77828570Y-3487600D01*
X77828570Y-3487600D02*
X77942856Y-3544742D01*
X77942856Y-3544742D02*
X78057142Y-3544742D01*
X78057142Y-3544742D02*
X78171428Y-3487600D01*
X78171428Y-3487600D02*
X78228570Y-3430457D01*
X78228570Y-3430457D02*
X78285713Y-3316171D01*
X78285713Y-3316171D02*
X78342856Y-3087600D01*
X78342856Y-3087600D02*
X78342856Y-2801885D01*
X78342856Y-2801885D02*
X78285713Y-2573314D01*
X78285713Y-2573314D02*
X78228570Y-2459028D01*
X78228570Y-2459028D02*
X78171428Y-2401885D01*
X78171428Y-2401885D02*
X78057142Y-2344742D01*
X77199999Y-2459028D02*
X77142856Y-2401885D01*
X77142856Y-2401885D02*
X77028571Y-2344742D01*
X77028571Y-2344742D02*
X76742856Y-2344742D01*
X76742856Y-2344742D02*
X76628571Y-2401885D01*
X76628571Y-2401885D02*
X76571428Y-2459028D01*
X76571428Y-2459028D02*
X76514285Y-2573314D01*
X76514285Y-2573314D02*
X76514285Y-2687600D01*
X76514285Y-2687600D02*
X76571428Y-2859028D01*
X76571428Y-2859028D02*
X77257142Y-3544742D01*
X77257142Y-3544742D02*
X76514285Y-3544742D01*
X75485714Y-2344742D02*
X75714285Y-2344742D01*
X75714285Y-2344742D02*
X75828571Y-2401885D01*
X75828571Y-2401885D02*
X75885714Y-2459028D01*
X75885714Y-2459028D02*
X75999999Y-2630457D01*
X75999999Y-2630457D02*
X76057142Y-2859028D01*
X76057142Y-2859028D02*
X76057142Y-3316171D01*
X76057142Y-3316171D02*
X75999999Y-3430457D01*
X75999999Y-3430457D02*
X75942856Y-3487600D01*
X75942856Y-3487600D02*
X75828571Y-3544742D01*
X75828571Y-3544742D02*
X75599999Y-3544742D01*
X75599999Y-3544742D02*
X75485714Y-3487600D01*
X75485714Y-3487600D02*
X75428571Y-3430457D01*
X75428571Y-3430457D02*
X75371428Y-3316171D01*
X75371428Y-3316171D02*
X75371428Y-3030457D01*
X75371428Y-3030457D02*
X75428571Y-2916171D01*
X75428571Y-2916171D02*
X75485714Y-2859028D01*
X75485714Y-2859028D02*
X75599999Y-2801885D01*
X75599999Y-2801885D02*
X75828571Y-2801885D01*
X75828571Y-2801885D02*
X75942856Y-2859028D01*
X75942856Y-2859028D02*
X75999999Y-2916171D01*
X75999999Y-2916171D02*
X76057142Y-3030457D01*
X74057142Y-2744742D02*
X73771428Y-3544742D01*
X73771428Y-3544742D02*
X73485713Y-2744742D01*
X73085713Y-2459028D02*
X73028570Y-2401885D01*
X73028570Y-2401885D02*
X72914285Y-2344742D01*
X72914285Y-2344742D02*
X72628570Y-2344742D01*
X72628570Y-2344742D02*
X72514285Y-2401885D01*
X72514285Y-2401885D02*
X72457142Y-2459028D01*
X72457142Y-2459028D02*
X72399999Y-2573314D01*
X72399999Y-2573314D02*
X72399999Y-2687600D01*
X72399999Y-2687600D02*
X72457142Y-2859028D01*
X72457142Y-2859028D02*
X73142856Y-3544742D01*
X73142856Y-3544742D02*
X72399999Y-3544742D01*
%LPC*%
D11*
%TO.C,*%
X10000000Y-7000000D03*
%TD*%
%TO.C,*%
X150000000Y-7000000D03*
%TD*%
%TO.C,*%
X10000000Y-68000000D03*
%TD*%
%TO.C,*%
X150000000Y-68000000D03*
%TD*%
%TO.C,*%
X55000000Y-37500000D03*
%TD*%
%TO.C,*%
X105000000Y-37500000D03*
%TD*%
D12*
%TO.C,U1*%
X88750000Y-22240000D03*
X88750000Y-23510000D03*
X88750000Y-24780000D03*
X88750000Y-26050000D03*
X88750000Y-27320000D03*
X88750000Y-28590000D03*
X88750000Y-29860000D03*
X88750000Y-31130000D03*
X88750000Y-32400000D03*
X88750000Y-33670000D03*
X88750000Y-34940000D03*
X88750000Y-36210000D03*
X88750000Y-37480000D03*
X88750000Y-38750000D03*
D13*
X86985000Y-40000000D03*
X85715000Y-40000000D03*
X84445000Y-40000000D03*
X83175000Y-40000000D03*
X81905000Y-40000000D03*
X80635000Y-40000000D03*
X79365000Y-40000000D03*
X78095000Y-40000000D03*
X76825000Y-40000000D03*
X75555000Y-40000000D03*
X74285000Y-40000000D03*
X73015000Y-40000000D03*
D12*
X71250000Y-38750000D03*
X71250000Y-37480000D03*
X71250000Y-36210000D03*
X71250000Y-34940000D03*
X71250000Y-33670000D03*
X71250000Y-32400000D03*
X71250000Y-31130000D03*
X71250000Y-29860000D03*
X71250000Y-28590000D03*
X71250000Y-27320000D03*
X71250000Y-26050000D03*
X71250000Y-24780000D03*
X71250000Y-23510000D03*
X71250000Y-22240000D03*
D14*
X81500000Y-29960000D03*
%TD*%
D15*
%TO.C,SW11*%
X13150000Y-2500000D03*
X13150000Y-8500000D03*
X16850000Y-2500000D03*
X16850000Y-8500000D03*
%TD*%
%TO.C,SW12*%
X143150000Y-2500000D03*
X143150000Y-8500000D03*
X146850000Y-2500000D03*
X146850000Y-8500000D03*
%TD*%
D16*
%TO.C,J4*%
X133712000Y-25750000D03*
X133712000Y-26250000D03*
X133712000Y-26750000D03*
X133712000Y-27250000D03*
X133712000Y-27750000D03*
X133712000Y-28250000D03*
X133712000Y-28750000D03*
X133712000Y-29250000D03*
X133712000Y-29750000D03*
X133712000Y-30250000D03*
X133712000Y-30750000D03*
X133712000Y-31250000D03*
X133712000Y-31750000D03*
X133712000Y-32250000D03*
X133712000Y-32750000D03*
X133712000Y-33250000D03*
X133712000Y-33750000D03*
X133712000Y-34250000D03*
X133712000Y-34750000D03*
X133712000Y-35250000D03*
X133712000Y-35750000D03*
X133712000Y-36250000D03*
X133712000Y-36750000D03*
X133712000Y-37250000D03*
X133712000Y-37750000D03*
X133712000Y-38250000D03*
X133712000Y-38750000D03*
X133712000Y-39250000D03*
X133712000Y-39750000D03*
X133712000Y-40250000D03*
X133712000Y-40750000D03*
X133712000Y-41250000D03*
X133712000Y-41750000D03*
X133712000Y-42250000D03*
X133712000Y-42750000D03*
X133712000Y-43250000D03*
X133712000Y-43750000D03*
X133712000Y-44250000D03*
X133712000Y-44750000D03*
X133712000Y-45250000D03*
D17*
X136288000Y-46940000D03*
X136288000Y-24060000D03*
%TD*%
D18*
%TO.C,J1*%
X83200000Y-68825000D03*
X82400000Y-68825000D03*
X77600000Y-68825000D03*
X76800000Y-68825000D03*
D19*
X81750000Y-68825000D03*
X81250000Y-68825000D03*
X80750000Y-68825000D03*
X80250000Y-68825000D03*
X79750000Y-68825000D03*
X79250000Y-68825000D03*
X78750000Y-68825000D03*
X78250000Y-68825000D03*
D20*
X84325000Y-69375000D03*
X75675000Y-69375000D03*
D21*
X84325000Y-73575000D03*
X75675000Y-73575000D03*
D22*
X82890000Y-69895000D03*
X77110000Y-69895000D03*
%TD*%
D23*
%TO.C,U6*%
X137760000Y-61724000D03*
X138860000Y-61724000D03*
X139960000Y-61724000D03*
X141060000Y-61724000D03*
X142160000Y-61724000D03*
X143260000Y-61724000D03*
X144360000Y-61724000D03*
X145460000Y-61724000D03*
X146560000Y-61724000D03*
D24*
X147760000Y-62574000D03*
X133080000Y-62574000D03*
D25*
X147760000Y-72276000D03*
X132240000Y-72276000D03*
D26*
X144950000Y-72566000D03*
X136950000Y-72566000D03*
%TD*%
D27*
%TO.C,SW_PWR*%
X42250000Y-70300000D03*
X39250000Y-70300000D03*
X37750000Y-70300000D03*
D28*
X43600000Y-71400000D03*
X36400000Y-71400000D03*
X43600000Y-73700000D03*
X36400000Y-73700000D03*
D29*
X41500000Y-72550000D03*
X38500000Y-72550000D03*
%TD*%
D30*
%TO.C,SPK1*%
X39500000Y-52500000D03*
X20500000Y-52500000D03*
%TD*%
D31*
%TO.C,U2*%
X113000000Y-40595000D03*
X113000000Y-41865000D03*
X113000000Y-43135000D03*
X113000000Y-44405000D03*
X107000000Y-44405000D03*
X107000000Y-43135000D03*
X107000000Y-41865000D03*
X107000000Y-40595000D03*
D32*
X110000000Y-42500000D03*
%TD*%
D33*
%TO.C,U3*%
X127300000Y-58650000D03*
X125000000Y-58650000D03*
X122700000Y-58650000D03*
D34*
X125000000Y-52350000D03*
%TD*%
D35*
%TO.C,U5*%
X25555000Y-26800000D03*
X26825000Y-26800000D03*
X28095000Y-26800000D03*
X29365000Y-26800000D03*
X30635000Y-26800000D03*
X31905000Y-26800000D03*
X33175000Y-26800000D03*
X34445000Y-26800000D03*
X34445000Y-32200000D03*
X33175000Y-32200000D03*
X31905000Y-32200000D03*
X30635000Y-32200000D03*
X29365000Y-32200000D03*
X28095000Y-32200000D03*
X26825000Y-32200000D03*
X25555000Y-32200000D03*
%TD*%
D36*
%TO.C,L1*%
X111700000Y-52500000D03*
X108300000Y-52500000D03*
%TD*%
D37*
%TO.C,J3*%
X80000000Y-61500000D03*
X80000000Y-63500000D03*
%TD*%
D38*
%TO.C,SW_RST*%
X98000000Y-63650000D03*
X92000000Y-63650000D03*
X98000000Y-67350000D03*
X92000000Y-67350000D03*
%TD*%
%TO.C,SW_BOOT*%
X108000000Y-63650000D03*
X102000000Y-63650000D03*
X108000000Y-67350000D03*
X102000000Y-67350000D03*
%TD*%
D39*
%TO.C,R1*%
X74950000Y-67000000D03*
X73050000Y-67000000D03*
%TD*%
%TO.C,R2*%
X78950000Y-67000000D03*
X77050000Y-67000000D03*
%TD*%
%TO.C,R3*%
X65950000Y-42000000D03*
X64050000Y-42000000D03*
%TD*%
%TO.C,C3*%
X70450000Y-42000000D03*
X68550000Y-42000000D03*
%TD*%
%TO.C,C4*%
X92950000Y-42000000D03*
X91050000Y-42000000D03*
%TD*%
D40*
%TO.C,C26*%
X91500000Y-20050000D03*
X91500000Y-21950000D03*
%TD*%
D39*
%TO.C,R17*%
X25950000Y-65000000D03*
X24050000Y-65000000D03*
%TD*%
%TO.C,R18*%
X32950000Y-65000000D03*
X31050000Y-65000000D03*
%TD*%
%TO.C,R4*%
X43950000Y-46000000D03*
X42050000Y-46000000D03*
%TD*%
%TO.C,R5*%
X48950000Y-46000000D03*
X47050000Y-46000000D03*
%TD*%
%TO.C,R6*%
X53950000Y-46000000D03*
X52050000Y-46000000D03*
%TD*%
%TO.C,R7*%
X58950000Y-46000000D03*
X57050000Y-46000000D03*
%TD*%
%TO.C,R8*%
X63950000Y-46000000D03*
X62050000Y-46000000D03*
%TD*%
%TO.C,R9*%
X68950000Y-46000000D03*
X67050000Y-46000000D03*
%TD*%
%TO.C,R10*%
X73950000Y-46000000D03*
X72050000Y-46000000D03*
%TD*%
%TO.C,R11*%
X78950000Y-46000000D03*
X77050000Y-46000000D03*
%TD*%
%TO.C,R12*%
X83950000Y-46000000D03*
X82050000Y-46000000D03*
%TD*%
%TO.C,R13*%
X88950000Y-46000000D03*
X87050000Y-46000000D03*
%TD*%
%TO.C,R14*%
X93950000Y-46000000D03*
X92050000Y-46000000D03*
%TD*%
%TO.C,R15*%
X98950000Y-46000000D03*
X97050000Y-46000000D03*
%TD*%
%TO.C,R19*%
X103950000Y-46000000D03*
X102050000Y-46000000D03*
%TD*%
%TO.C,R16*%
X115950000Y-52500000D03*
X114050000Y-52500000D03*
%TD*%
%TO.C,C5*%
X43950000Y-50000000D03*
X42050000Y-50000000D03*
%TD*%
%TO.C,C6*%
X48950000Y-50000000D03*
X47050000Y-50000000D03*
%TD*%
%TO.C,C7*%
X53950000Y-50000000D03*
X52050000Y-50000000D03*
%TD*%
%TO.C,C8*%
X58950000Y-50000000D03*
X57050000Y-50000000D03*
%TD*%
%TO.C,C9*%
X63950000Y-50000000D03*
X62050000Y-50000000D03*
%TD*%
%TO.C,C10*%
X68950000Y-50000000D03*
X67050000Y-50000000D03*
%TD*%
%TO.C,C11*%
X73950000Y-50000000D03*
X72050000Y-50000000D03*
%TD*%
%TO.C,C12*%
X78950000Y-50000000D03*
X77050000Y-50000000D03*
%TD*%
%TO.C,C13*%
X83950000Y-50000000D03*
X82050000Y-50000000D03*
%TD*%
%TO.C,C14*%
X88950000Y-50000000D03*
X87050000Y-50000000D03*
%TD*%
%TO.C,C15*%
X93950000Y-50000000D03*
X92050000Y-50000000D03*
%TD*%
%TO.C,C16*%
X98950000Y-50000000D03*
X97050000Y-50000000D03*
%TD*%
%TO.C,C20*%
X103950000Y-50000000D03*
X102050000Y-50000000D03*
%TD*%
%TO.C,C17*%
X110950000Y-35000000D03*
X109050000Y-35000000D03*
%TD*%
%TO.C,C18*%
X116950000Y-49000000D03*
X115050000Y-49000000D03*
%TD*%
D41*
%TO.C,C19*%
X111500000Y-58500000D03*
X108500000Y-58500000D03*
%TD*%
D39*
%TO.C,C27*%
X108950000Y-39000000D03*
X107050000Y-39000000D03*
%TD*%
D40*
%TO.C,C22*%
X33175000Y-19050000D03*
X33175000Y-20950000D03*
%TD*%
D39*
%TO.C,R20*%
X38950000Y-26500000D03*
X37050000Y-26500000D03*
%TD*%
%TO.C,R21*%
X38950000Y-32500000D03*
X37050000Y-32500000D03*
%TD*%
%TO.C,C21*%
X38950000Y-23500000D03*
X37050000Y-23500000D03*
%TD*%
D40*
%TO.C,C23*%
X38000000Y-28550000D03*
X38000000Y-30450000D03*
%TD*%
%TO.C,C24*%
X29365000Y-21050000D03*
X29365000Y-22950000D03*
%TD*%
%TO.C,C25*%
X31500000Y-36550000D03*
X31500000Y-38450000D03*
%TD*%
D39*
%TO.C,C1*%
X120950000Y-57000000D03*
X119050000Y-57000000D03*
%TD*%
D41*
%TO.C,C2*%
X126500000Y-62500000D03*
X123500000Y-62500000D03*
%TD*%
%LPD*%
M02*
