%TF.GenerationSoftware,KiCad,Pcbnew,9.0.7-9.0.7~ubuntu24.04.1*%
%TF.CreationDate,2026-02-12T10:23:16+01:00*%
%TF.ProjectId,esp32-emu-turbo,65737033-322d-4656-9d75-2d747572626f,rev?*%
%TF.SameCoordinates,Original*%
%TF.FileFunction,Copper,L4,Bot*%
%TF.FilePolarity,Positive*%
%FSLAX46Y46*%
G04 Gerber Fmt 4.6, Leading zero omitted, Abs format (unit mm)*
G04 Created by KiCad (PCBNEW 9.0.7-9.0.7~ubuntu24.04.1) date 2026-02-12 10:23:16*
%MOMM*%
%LPD*%
G01*
G04 APERTURE LIST*
%ADD10C,0.150000*%
%TA.AperFunction,NonConductor*%
%ADD11C,0.150000*%
%TD*%
%TA.AperFunction,ComponentPad*%
%ADD12C,5.000000*%
%TD*%
%TA.AperFunction,SMDPad,CuDef*%
%ADD13R,1.800000X0.900000*%
%TD*%
%TA.AperFunction,SMDPad,CuDef*%
%ADD14R,1.000000X1.800000*%
%TD*%
%TA.AperFunction,SMDPad,CuDef*%
%ADD15R,10.000000X10.000000*%
%TD*%
%TA.AperFunction,SMDPad,CuDef*%
%ADD16R,1.600000X1.000000*%
%TD*%
%TA.AperFunction,SMDPad,CuDef*%
%ADD17R,0.300000X1.200000*%
%TD*%
%TA.AperFunction,SMDPad,CuDef*%
%ADD18R,1.200000X2.000000*%
%TD*%
%TA.AperFunction,SMDPad,CuDef*%
%ADD19R,0.300000X1.000000*%
%TD*%
%TA.AperFunction,ComponentPad*%
%ADD20O,1.000000X1.800000*%
%TD*%
%TA.AperFunction,SMDPad,CuDef*%
%ADD21R,0.700000X1.800000*%
%TD*%
%TA.AperFunction,SMDPad,CuDef*%
%ADD22R,1.200000X1.500000*%
%TD*%
%TA.AperFunction,ComponentPad*%
%ADD23C,1.500000*%
%TD*%
%TA.AperFunction,SMDPad,CuDef*%
%ADD24R,2.000000X3.000000*%
%TD*%
%TA.AperFunction,SMDPad,CuDef*%
%ADD25R,1.700000X0.600000*%
%TD*%
%TA.AperFunction,SMDPad,CuDef*%
%ADD26R,3.400000X3.400000*%
%TD*%
%TA.AperFunction,SMDPad,CuDef*%
%ADD27R,1.000000X1.500000*%
%TD*%
%TA.AperFunction,SMDPad,CuDef*%
%ADD28R,3.600000X1.800000*%
%TD*%
%TA.AperFunction,SMDPad,CuDef*%
%ADD29R,1.400000X3.400000*%
%TD*%
%TA.AperFunction,ViaPad*%
%ADD30C,0.600000*%
%TD*%
%TA.AperFunction,Conductor*%
%ADD31C,0.500000*%
%TD*%
%TA.AperFunction,Conductor*%
%ADD32C,0.400000*%
%TD*%
%TA.AperFunction,Conductor*%
%ADD33C,0.200000*%
%TD*%
%TA.AperFunction,Conductor*%
%ADD34C,0.300000*%
%TD*%
%TA.AperFunction,Conductor*%
%ADD35C,0.250000*%
%TD*%
G04 APERTURE END LIST*
D10*
D11*
X80761904Y-23954819D02*
X80761904Y-24764342D01*
X80761904Y-24764342D02*
X80714285Y-24859580D01*
X80714285Y-24859580D02*
X80666666Y-24907200D01*
X80666666Y-24907200D02*
X80571428Y-24954819D01*
X80571428Y-24954819D02*
X80380952Y-24954819D01*
X80380952Y-24954819D02*
X80285714Y-24907200D01*
X80285714Y-24907200D02*
X80238095Y-24859580D01*
X80238095Y-24859580D02*
X80190476Y-24764342D01*
X80190476Y-24764342D02*
X80190476Y-23954819D01*
X79190476Y-24954819D02*
X79761904Y-24954819D01*
X79476190Y-24954819D02*
X79476190Y-23954819D01*
X79476190Y-23954819D02*
X79571428Y-24097676D01*
X79571428Y-24097676D02*
X79666666Y-24192914D01*
X79666666Y-24192914D02*
X79761904Y-24240533D01*
D10*
D11*
X91190475Y-30431009D02*
X90857142Y-30431009D01*
X90714285Y-30954819D02*
X91190475Y-30954819D01*
X91190475Y-30954819D02*
X91190475Y-29954819D01*
X91190475Y-29954819D02*
X90714285Y-29954819D01*
X90333332Y-30907200D02*
X90190475Y-30954819D01*
X90190475Y-30954819D02*
X89952380Y-30954819D01*
X89952380Y-30954819D02*
X89857142Y-30907200D01*
X89857142Y-30907200D02*
X89809523Y-30859580D01*
X89809523Y-30859580D02*
X89761904Y-30764342D01*
X89761904Y-30764342D02*
X89761904Y-30669104D01*
X89761904Y-30669104D02*
X89809523Y-30573866D01*
X89809523Y-30573866D02*
X89857142Y-30526247D01*
X89857142Y-30526247D02*
X89952380Y-30478628D01*
X89952380Y-30478628D02*
X90142856Y-30431009D01*
X90142856Y-30431009D02*
X90238094Y-30383390D01*
X90238094Y-30383390D02*
X90285713Y-30335771D01*
X90285713Y-30335771D02*
X90333332Y-30240533D01*
X90333332Y-30240533D02*
X90333332Y-30145295D01*
X90333332Y-30145295D02*
X90285713Y-30050057D01*
X90285713Y-30050057D02*
X90238094Y-30002438D01*
X90238094Y-30002438D02*
X90142856Y-29954819D01*
X90142856Y-29954819D02*
X89904761Y-29954819D01*
X89904761Y-29954819D02*
X89761904Y-30002438D01*
X89333332Y-30954819D02*
X89333332Y-29954819D01*
X89333332Y-29954819D02*
X88952380Y-29954819D01*
X88952380Y-29954819D02*
X88857142Y-30002438D01*
X88857142Y-30002438D02*
X88809523Y-30050057D01*
X88809523Y-30050057D02*
X88761904Y-30145295D01*
X88761904Y-30145295D02*
X88761904Y-30288152D01*
X88761904Y-30288152D02*
X88809523Y-30383390D01*
X88809523Y-30383390D02*
X88857142Y-30431009D01*
X88857142Y-30431009D02*
X88952380Y-30478628D01*
X88952380Y-30478628D02*
X89333332Y-30478628D01*
X88428570Y-29954819D02*
X87809523Y-29954819D01*
X87809523Y-29954819D02*
X88142856Y-30335771D01*
X88142856Y-30335771D02*
X87999999Y-30335771D01*
X87999999Y-30335771D02*
X87904761Y-30383390D01*
X87904761Y-30383390D02*
X87857142Y-30431009D01*
X87857142Y-30431009D02*
X87809523Y-30526247D01*
X87809523Y-30526247D02*
X87809523Y-30764342D01*
X87809523Y-30764342D02*
X87857142Y-30859580D01*
X87857142Y-30859580D02*
X87904761Y-30907200D01*
X87904761Y-30907200D02*
X87999999Y-30954819D01*
X87999999Y-30954819D02*
X88285713Y-30954819D01*
X88285713Y-30954819D02*
X88380951Y-30907200D01*
X88380951Y-30907200D02*
X88428570Y-30859580D01*
X87428570Y-30050057D02*
X87380951Y-30002438D01*
X87380951Y-30002438D02*
X87285713Y-29954819D01*
X87285713Y-29954819D02*
X87047618Y-29954819D01*
X87047618Y-29954819D02*
X86952380Y-30002438D01*
X86952380Y-30002438D02*
X86904761Y-30050057D01*
X86904761Y-30050057D02*
X86857142Y-30145295D01*
X86857142Y-30145295D02*
X86857142Y-30240533D01*
X86857142Y-30240533D02*
X86904761Y-30383390D01*
X86904761Y-30383390D02*
X87476189Y-30954819D01*
X87476189Y-30954819D02*
X86857142Y-30954819D01*
X86428570Y-30573866D02*
X85666666Y-30573866D01*
X85238094Y-30907200D02*
X85095237Y-30954819D01*
X85095237Y-30954819D02*
X84857142Y-30954819D01*
X84857142Y-30954819D02*
X84761904Y-30907200D01*
X84761904Y-30907200D02*
X84714285Y-30859580D01*
X84714285Y-30859580D02*
X84666666Y-30764342D01*
X84666666Y-30764342D02*
X84666666Y-30669104D01*
X84666666Y-30669104D02*
X84714285Y-30573866D01*
X84714285Y-30573866D02*
X84761904Y-30526247D01*
X84761904Y-30526247D02*
X84857142Y-30478628D01*
X84857142Y-30478628D02*
X85047618Y-30431009D01*
X85047618Y-30431009D02*
X85142856Y-30383390D01*
X85142856Y-30383390D02*
X85190475Y-30335771D01*
X85190475Y-30335771D02*
X85238094Y-30240533D01*
X85238094Y-30240533D02*
X85238094Y-30145295D01*
X85238094Y-30145295D02*
X85190475Y-30050057D01*
X85190475Y-30050057D02*
X85142856Y-30002438D01*
X85142856Y-30002438D02*
X85047618Y-29954819D01*
X85047618Y-29954819D02*
X84809523Y-29954819D01*
X84809523Y-29954819D02*
X84666666Y-30002438D01*
X84333332Y-29954819D02*
X83714285Y-29954819D01*
X83714285Y-29954819D02*
X84047618Y-30335771D01*
X84047618Y-30335771D02*
X83904761Y-30335771D01*
X83904761Y-30335771D02*
X83809523Y-30383390D01*
X83809523Y-30383390D02*
X83761904Y-30431009D01*
X83761904Y-30431009D02*
X83714285Y-30526247D01*
X83714285Y-30526247D02*
X83714285Y-30764342D01*
X83714285Y-30764342D02*
X83761904Y-30859580D01*
X83761904Y-30859580D02*
X83809523Y-30907200D01*
X83809523Y-30907200D02*
X83904761Y-30954819D01*
X83904761Y-30954819D02*
X84190475Y-30954819D01*
X84190475Y-30954819D02*
X84285713Y-30907200D01*
X84285713Y-30907200D02*
X84333332Y-30859580D01*
X83285713Y-30573866D02*
X82523809Y-30573866D01*
X82142856Y-29954819D02*
X81904761Y-30954819D01*
X81904761Y-30954819D02*
X81714285Y-30240533D01*
X81714285Y-30240533D02*
X81523809Y-30954819D01*
X81523809Y-30954819D02*
X81285714Y-29954819D01*
X80333333Y-30954819D02*
X80666666Y-30478628D01*
X80904761Y-30954819D02*
X80904761Y-29954819D01*
X80904761Y-29954819D02*
X80523809Y-29954819D01*
X80523809Y-29954819D02*
X80428571Y-30002438D01*
X80428571Y-30002438D02*
X80380952Y-30050057D01*
X80380952Y-30050057D02*
X80333333Y-30145295D01*
X80333333Y-30145295D02*
X80333333Y-30288152D01*
X80333333Y-30288152D02*
X80380952Y-30383390D01*
X80380952Y-30383390D02*
X80428571Y-30431009D01*
X80428571Y-30431009D02*
X80523809Y-30478628D01*
X80523809Y-30478628D02*
X80904761Y-30478628D01*
X79714285Y-29954819D02*
X79523809Y-29954819D01*
X79523809Y-29954819D02*
X79428571Y-30002438D01*
X79428571Y-30002438D02*
X79333333Y-30097676D01*
X79333333Y-30097676D02*
X79285714Y-30288152D01*
X79285714Y-30288152D02*
X79285714Y-30621485D01*
X79285714Y-30621485D02*
X79333333Y-30811961D01*
X79333333Y-30811961D02*
X79428571Y-30907200D01*
X79428571Y-30907200D02*
X79523809Y-30954819D01*
X79523809Y-30954819D02*
X79714285Y-30954819D01*
X79714285Y-30954819D02*
X79809523Y-30907200D01*
X79809523Y-30907200D02*
X79904761Y-30811961D01*
X79904761Y-30811961D02*
X79952380Y-30621485D01*
X79952380Y-30621485D02*
X79952380Y-30288152D01*
X79952380Y-30288152D02*
X79904761Y-30097676D01*
X79904761Y-30097676D02*
X79809523Y-30002438D01*
X79809523Y-30002438D02*
X79714285Y-29954819D01*
X78666666Y-29954819D02*
X78476190Y-29954819D01*
X78476190Y-29954819D02*
X78380952Y-30002438D01*
X78380952Y-30002438D02*
X78285714Y-30097676D01*
X78285714Y-30097676D02*
X78238095Y-30288152D01*
X78238095Y-30288152D02*
X78238095Y-30621485D01*
X78238095Y-30621485D02*
X78285714Y-30811961D01*
X78285714Y-30811961D02*
X78380952Y-30907200D01*
X78380952Y-30907200D02*
X78476190Y-30954819D01*
X78476190Y-30954819D02*
X78666666Y-30954819D01*
X78666666Y-30954819D02*
X78761904Y-30907200D01*
X78761904Y-30907200D02*
X78857142Y-30811961D01*
X78857142Y-30811961D02*
X78904761Y-30621485D01*
X78904761Y-30621485D02*
X78904761Y-30288152D01*
X78904761Y-30288152D02*
X78857142Y-30097676D01*
X78857142Y-30097676D02*
X78761904Y-30002438D01*
X78761904Y-30002438D02*
X78666666Y-29954819D01*
X77809523Y-30954819D02*
X77809523Y-29954819D01*
X77809523Y-29954819D02*
X77476190Y-30669104D01*
X77476190Y-30669104D02*
X77142857Y-29954819D01*
X77142857Y-29954819D02*
X77142857Y-30954819D01*
X76666666Y-30573866D02*
X75904762Y-30573866D01*
X74904762Y-30954819D02*
X75476190Y-30954819D01*
X75190476Y-30954819D02*
X75190476Y-29954819D01*
X75190476Y-29954819D02*
X75285714Y-30097676D01*
X75285714Y-30097676D02*
X75380952Y-30192914D01*
X75380952Y-30192914D02*
X75476190Y-30240533D01*
X74476190Y-30573866D02*
X73714286Y-30573866D01*
X73238095Y-30954819D02*
X73238095Y-29954819D01*
X73238095Y-29954819D02*
X72666667Y-30954819D01*
X72666667Y-30954819D02*
X72666667Y-29954819D01*
X71666667Y-30954819D02*
X72238095Y-30954819D01*
X71952381Y-30954819D02*
X71952381Y-29954819D01*
X71952381Y-29954819D02*
X72047619Y-30097676D01*
X72047619Y-30097676D02*
X72142857Y-30192914D01*
X72142857Y-30192914D02*
X72238095Y-30240533D01*
X70809524Y-29954819D02*
X71000000Y-29954819D01*
X71000000Y-29954819D02*
X71095238Y-30002438D01*
X71095238Y-30002438D02*
X71142857Y-30050057D01*
X71142857Y-30050057D02*
X71238095Y-30192914D01*
X71238095Y-30192914D02*
X71285714Y-30383390D01*
X71285714Y-30383390D02*
X71285714Y-30764342D01*
X71285714Y-30764342D02*
X71238095Y-30859580D01*
X71238095Y-30859580D02*
X71190476Y-30907200D01*
X71190476Y-30907200D02*
X71095238Y-30954819D01*
X71095238Y-30954819D02*
X70904762Y-30954819D01*
X70904762Y-30954819D02*
X70809524Y-30907200D01*
X70809524Y-30907200D02*
X70761905Y-30859580D01*
X70761905Y-30859580D02*
X70714286Y-30764342D01*
X70714286Y-30764342D02*
X70714286Y-30526247D01*
X70714286Y-30526247D02*
X70761905Y-30431009D01*
X70761905Y-30431009D02*
X70809524Y-30383390D01*
X70809524Y-30383390D02*
X70904762Y-30335771D01*
X70904762Y-30335771D02*
X71095238Y-30335771D01*
X71095238Y-30335771D02*
X71190476Y-30383390D01*
X71190476Y-30383390D02*
X71238095Y-30431009D01*
X71238095Y-30431009D02*
X71285714Y-30526247D01*
X69714286Y-30954819D02*
X70047619Y-30478628D01*
X70285714Y-30954819D02*
X70285714Y-29954819D01*
X70285714Y-29954819D02*
X69904762Y-29954819D01*
X69904762Y-29954819D02*
X69809524Y-30002438D01*
X69809524Y-30002438D02*
X69761905Y-30050057D01*
X69761905Y-30050057D02*
X69714286Y-30145295D01*
X69714286Y-30145295D02*
X69714286Y-30288152D01*
X69714286Y-30288152D02*
X69761905Y-30383390D01*
X69761905Y-30383390D02*
X69809524Y-30431009D01*
X69809524Y-30431009D02*
X69904762Y-30478628D01*
X69904762Y-30478628D02*
X70285714Y-30478628D01*
X69142857Y-30383390D02*
X69238095Y-30335771D01*
X69238095Y-30335771D02*
X69285714Y-30288152D01*
X69285714Y-30288152D02*
X69333333Y-30192914D01*
X69333333Y-30192914D02*
X69333333Y-30145295D01*
X69333333Y-30145295D02*
X69285714Y-30050057D01*
X69285714Y-30050057D02*
X69238095Y-30002438D01*
X69238095Y-30002438D02*
X69142857Y-29954819D01*
X69142857Y-29954819D02*
X68952381Y-29954819D01*
X68952381Y-29954819D02*
X68857143Y-30002438D01*
X68857143Y-30002438D02*
X68809524Y-30050057D01*
X68809524Y-30050057D02*
X68761905Y-30145295D01*
X68761905Y-30145295D02*
X68761905Y-30192914D01*
X68761905Y-30192914D02*
X68809524Y-30288152D01*
X68809524Y-30288152D02*
X68857143Y-30335771D01*
X68857143Y-30335771D02*
X68952381Y-30383390D01*
X68952381Y-30383390D02*
X69142857Y-30383390D01*
X69142857Y-30383390D02*
X69238095Y-30431009D01*
X69238095Y-30431009D02*
X69285714Y-30478628D01*
X69285714Y-30478628D02*
X69333333Y-30573866D01*
X69333333Y-30573866D02*
X69333333Y-30764342D01*
X69333333Y-30764342D02*
X69285714Y-30859580D01*
X69285714Y-30859580D02*
X69238095Y-30907200D01*
X69238095Y-30907200D02*
X69142857Y-30954819D01*
X69142857Y-30954819D02*
X68952381Y-30954819D01*
X68952381Y-30954819D02*
X68857143Y-30907200D01*
X68857143Y-30907200D02*
X68809524Y-30859580D01*
X68809524Y-30859580D02*
X68761905Y-30764342D01*
X68761905Y-30764342D02*
X68761905Y-30573866D01*
X68761905Y-30573866D02*
X68809524Y-30478628D01*
X68809524Y-30478628D02*
X68857143Y-30431009D01*
X68857143Y-30431009D02*
X68952381Y-30383390D01*
D10*
D11*
X13809523Y-2907200D02*
X13666666Y-2954819D01*
X13666666Y-2954819D02*
X13428571Y-2954819D01*
X13428571Y-2954819D02*
X13333333Y-2907200D01*
X13333333Y-2907200D02*
X13285714Y-2859580D01*
X13285714Y-2859580D02*
X13238095Y-2764342D01*
X13238095Y-2764342D02*
X13238095Y-2669104D01*
X13238095Y-2669104D02*
X13285714Y-2573866D01*
X13285714Y-2573866D02*
X13333333Y-2526247D01*
X13333333Y-2526247D02*
X13428571Y-2478628D01*
X13428571Y-2478628D02*
X13619047Y-2431009D01*
X13619047Y-2431009D02*
X13714285Y-2383390D01*
X13714285Y-2383390D02*
X13761904Y-2335771D01*
X13761904Y-2335771D02*
X13809523Y-2240533D01*
X13809523Y-2240533D02*
X13809523Y-2145295D01*
X13809523Y-2145295D02*
X13761904Y-2050057D01*
X13761904Y-2050057D02*
X13714285Y-2002438D01*
X13714285Y-2002438D02*
X13619047Y-1954819D01*
X13619047Y-1954819D02*
X13380952Y-1954819D01*
X13380952Y-1954819D02*
X13238095Y-2002438D01*
X12904761Y-1954819D02*
X12666666Y-2954819D01*
X12666666Y-2954819D02*
X12476190Y-2240533D01*
X12476190Y-2240533D02*
X12285714Y-2954819D01*
X12285714Y-2954819D02*
X12047619Y-1954819D01*
X11142857Y-2954819D02*
X11714285Y-2954819D01*
X11428571Y-2954819D02*
X11428571Y-1954819D01*
X11428571Y-1954819D02*
X11523809Y-2097676D01*
X11523809Y-2097676D02*
X11619047Y-2192914D01*
X11619047Y-2192914D02*
X11714285Y-2240533D01*
X10190476Y-2954819D02*
X10761904Y-2954819D01*
X10476190Y-2954819D02*
X10476190Y-1954819D01*
X10476190Y-1954819D02*
X10571428Y-2097676D01*
X10571428Y-2097676D02*
X10666666Y-2192914D01*
X10666666Y-2192914D02*
X10761904Y-2240533D01*
D10*
D11*
X24428570Y-2907200D02*
X24285713Y-2954819D01*
X24285713Y-2954819D02*
X24047618Y-2954819D01*
X24047618Y-2954819D02*
X23952380Y-2907200D01*
X23952380Y-2907200D02*
X23904761Y-2859580D01*
X23904761Y-2859580D02*
X23857142Y-2764342D01*
X23857142Y-2764342D02*
X23857142Y-2669104D01*
X23857142Y-2669104D02*
X23904761Y-2573866D01*
X23904761Y-2573866D02*
X23952380Y-2526247D01*
X23952380Y-2526247D02*
X24047618Y-2478628D01*
X24047618Y-2478628D02*
X24238094Y-2431009D01*
X24238094Y-2431009D02*
X24333332Y-2383390D01*
X24333332Y-2383390D02*
X24380951Y-2335771D01*
X24380951Y-2335771D02*
X24428570Y-2240533D01*
X24428570Y-2240533D02*
X24428570Y-2145295D01*
X24428570Y-2145295D02*
X24380951Y-2050057D01*
X24380951Y-2050057D02*
X24333332Y-2002438D01*
X24333332Y-2002438D02*
X24238094Y-1954819D01*
X24238094Y-1954819D02*
X23999999Y-1954819D01*
X23999999Y-1954819D02*
X23857142Y-2002438D01*
X23523808Y-1954819D02*
X23285713Y-2954819D01*
X23285713Y-2954819D02*
X23095237Y-2240533D01*
X23095237Y-2240533D02*
X22904761Y-2954819D01*
X22904761Y-2954819D02*
X22666666Y-1954819D01*
X22285713Y-2573866D02*
X21523809Y-2573866D01*
X21095237Y-2907200D02*
X20952380Y-2954819D01*
X20952380Y-2954819D02*
X20714285Y-2954819D01*
X20714285Y-2954819D02*
X20619047Y-2907200D01*
X20619047Y-2907200D02*
X20571428Y-2859580D01*
X20571428Y-2859580D02*
X20523809Y-2764342D01*
X20523809Y-2764342D02*
X20523809Y-2669104D01*
X20523809Y-2669104D02*
X20571428Y-2573866D01*
X20571428Y-2573866D02*
X20619047Y-2526247D01*
X20619047Y-2526247D02*
X20714285Y-2478628D01*
X20714285Y-2478628D02*
X20904761Y-2431009D01*
X20904761Y-2431009D02*
X20999999Y-2383390D01*
X20999999Y-2383390D02*
X21047618Y-2335771D01*
X21047618Y-2335771D02*
X21095237Y-2240533D01*
X21095237Y-2240533D02*
X21095237Y-2145295D01*
X21095237Y-2145295D02*
X21047618Y-2050057D01*
X21047618Y-2050057D02*
X20999999Y-2002438D01*
X20999999Y-2002438D02*
X20904761Y-1954819D01*
X20904761Y-1954819D02*
X20666666Y-1954819D01*
X20666666Y-1954819D02*
X20523809Y-2002438D01*
X20095237Y-2954819D02*
X20095237Y-1954819D01*
X20095237Y-1954819D02*
X19761904Y-2669104D01*
X19761904Y-2669104D02*
X19428571Y-1954819D01*
X19428571Y-1954819D02*
X19428571Y-2954819D01*
X18952380Y-2954819D02*
X18952380Y-1954819D01*
X18952380Y-1954819D02*
X18714285Y-1954819D01*
X18714285Y-1954819D02*
X18571428Y-2002438D01*
X18571428Y-2002438D02*
X18476190Y-2097676D01*
X18476190Y-2097676D02*
X18428571Y-2192914D01*
X18428571Y-2192914D02*
X18380952Y-2383390D01*
X18380952Y-2383390D02*
X18380952Y-2526247D01*
X18380952Y-2526247D02*
X18428571Y-2716723D01*
X18428571Y-2716723D02*
X18476190Y-2811961D01*
X18476190Y-2811961D02*
X18571428Y-2907200D01*
X18571428Y-2907200D02*
X18714285Y-2954819D01*
X18714285Y-2954819D02*
X18952380Y-2954819D01*
X17952380Y-2573866D02*
X17190476Y-2573866D01*
X16238095Y-1954819D02*
X16714285Y-1954819D01*
X16714285Y-1954819D02*
X16761904Y-2431009D01*
X16761904Y-2431009D02*
X16714285Y-2383390D01*
X16714285Y-2383390D02*
X16619047Y-2335771D01*
X16619047Y-2335771D02*
X16380952Y-2335771D01*
X16380952Y-2335771D02*
X16285714Y-2383390D01*
X16285714Y-2383390D02*
X16238095Y-2431009D01*
X16238095Y-2431009D02*
X16190476Y-2526247D01*
X16190476Y-2526247D02*
X16190476Y-2764342D01*
X16190476Y-2764342D02*
X16238095Y-2859580D01*
X16238095Y-2859580D02*
X16285714Y-2907200D01*
X16285714Y-2907200D02*
X16380952Y-2954819D01*
X16380952Y-2954819D02*
X16619047Y-2954819D01*
X16619047Y-2954819D02*
X16714285Y-2907200D01*
X16714285Y-2907200D02*
X16761904Y-2859580D01*
X15761904Y-2859580D02*
X15714285Y-2907200D01*
X15714285Y-2907200D02*
X15761904Y-2954819D01*
X15761904Y-2954819D02*
X15809523Y-2907200D01*
X15809523Y-2907200D02*
X15761904Y-2859580D01*
X15761904Y-2859580D02*
X15761904Y-2954819D01*
X14761905Y-2954819D02*
X15333333Y-2954819D01*
X15047619Y-2954819D02*
X15047619Y-1954819D01*
X15047619Y-1954819D02*
X15142857Y-2097676D01*
X15142857Y-2097676D02*
X15238095Y-2192914D01*
X15238095Y-2192914D02*
X15333333Y-2240533D01*
X14428571Y-2954819D02*
X13904762Y-2288152D01*
X14428571Y-2288152D02*
X13904762Y-2954819D01*
X13047619Y-1954819D02*
X13523809Y-1954819D01*
X13523809Y-1954819D02*
X13571428Y-2431009D01*
X13571428Y-2431009D02*
X13523809Y-2383390D01*
X13523809Y-2383390D02*
X13428571Y-2335771D01*
X13428571Y-2335771D02*
X13190476Y-2335771D01*
X13190476Y-2335771D02*
X13095238Y-2383390D01*
X13095238Y-2383390D02*
X13047619Y-2431009D01*
X13047619Y-2431009D02*
X13000000Y-2526247D01*
X13000000Y-2526247D02*
X13000000Y-2764342D01*
X13000000Y-2764342D02*
X13047619Y-2859580D01*
X13047619Y-2859580D02*
X13095238Y-2907200D01*
X13095238Y-2907200D02*
X13190476Y-2954819D01*
X13190476Y-2954819D02*
X13428571Y-2954819D01*
X13428571Y-2954819D02*
X13523809Y-2907200D01*
X13523809Y-2907200D02*
X13571428Y-2859580D01*
X12571428Y-2859580D02*
X12523809Y-2907200D01*
X12523809Y-2907200D02*
X12571428Y-2954819D01*
X12571428Y-2954819D02*
X12619047Y-2907200D01*
X12619047Y-2907200D02*
X12571428Y-2859580D01*
X12571428Y-2859580D02*
X12571428Y-2954819D01*
X11571429Y-2954819D02*
X12142857Y-2954819D01*
X11857143Y-2954819D02*
X11857143Y-1954819D01*
X11857143Y-1954819D02*
X11952381Y-2097676D01*
X11952381Y-2097676D02*
X12047619Y-2192914D01*
X12047619Y-2192914D02*
X12142857Y-2240533D01*
D10*
D11*
X143809523Y-2907200D02*
X143666666Y-2954819D01*
X143666666Y-2954819D02*
X143428571Y-2954819D01*
X143428571Y-2954819D02*
X143333333Y-2907200D01*
X143333333Y-2907200D02*
X143285714Y-2859580D01*
X143285714Y-2859580D02*
X143238095Y-2764342D01*
X143238095Y-2764342D02*
X143238095Y-2669104D01*
X143238095Y-2669104D02*
X143285714Y-2573866D01*
X143285714Y-2573866D02*
X143333333Y-2526247D01*
X143333333Y-2526247D02*
X143428571Y-2478628D01*
X143428571Y-2478628D02*
X143619047Y-2431009D01*
X143619047Y-2431009D02*
X143714285Y-2383390D01*
X143714285Y-2383390D02*
X143761904Y-2335771D01*
X143761904Y-2335771D02*
X143809523Y-2240533D01*
X143809523Y-2240533D02*
X143809523Y-2145295D01*
X143809523Y-2145295D02*
X143761904Y-2050057D01*
X143761904Y-2050057D02*
X143714285Y-2002438D01*
X143714285Y-2002438D02*
X143619047Y-1954819D01*
X143619047Y-1954819D02*
X143380952Y-1954819D01*
X143380952Y-1954819D02*
X143238095Y-2002438D01*
X142904761Y-1954819D02*
X142666666Y-2954819D01*
X142666666Y-2954819D02*
X142476190Y-2240533D01*
X142476190Y-2240533D02*
X142285714Y-2954819D01*
X142285714Y-2954819D02*
X142047619Y-1954819D01*
X141142857Y-2954819D02*
X141714285Y-2954819D01*
X141428571Y-2954819D02*
X141428571Y-1954819D01*
X141428571Y-1954819D02*
X141523809Y-2097676D01*
X141523809Y-2097676D02*
X141619047Y-2192914D01*
X141619047Y-2192914D02*
X141714285Y-2240533D01*
X140761904Y-2050057D02*
X140714285Y-2002438D01*
X140714285Y-2002438D02*
X140619047Y-1954819D01*
X140619047Y-1954819D02*
X140380952Y-1954819D01*
X140380952Y-1954819D02*
X140285714Y-2002438D01*
X140285714Y-2002438D02*
X140238095Y-2050057D01*
X140238095Y-2050057D02*
X140190476Y-2145295D01*
X140190476Y-2145295D02*
X140190476Y-2240533D01*
X140190476Y-2240533D02*
X140238095Y-2383390D01*
X140238095Y-2383390D02*
X140809523Y-2954819D01*
X140809523Y-2954819D02*
X140190476Y-2954819D01*
D10*
D11*
X154428570Y-2907200D02*
X154285713Y-2954819D01*
X154285713Y-2954819D02*
X154047618Y-2954819D01*
X154047618Y-2954819D02*
X153952380Y-2907200D01*
X153952380Y-2907200D02*
X153904761Y-2859580D01*
X153904761Y-2859580D02*
X153857142Y-2764342D01*
X153857142Y-2764342D02*
X153857142Y-2669104D01*
X153857142Y-2669104D02*
X153904761Y-2573866D01*
X153904761Y-2573866D02*
X153952380Y-2526247D01*
X153952380Y-2526247D02*
X154047618Y-2478628D01*
X154047618Y-2478628D02*
X154238094Y-2431009D01*
X154238094Y-2431009D02*
X154333332Y-2383390D01*
X154333332Y-2383390D02*
X154380951Y-2335771D01*
X154380951Y-2335771D02*
X154428570Y-2240533D01*
X154428570Y-2240533D02*
X154428570Y-2145295D01*
X154428570Y-2145295D02*
X154380951Y-2050057D01*
X154380951Y-2050057D02*
X154333332Y-2002438D01*
X154333332Y-2002438D02*
X154238094Y-1954819D01*
X154238094Y-1954819D02*
X153999999Y-1954819D01*
X153999999Y-1954819D02*
X153857142Y-2002438D01*
X153523808Y-1954819D02*
X153285713Y-2954819D01*
X153285713Y-2954819D02*
X153095237Y-2240533D01*
X153095237Y-2240533D02*
X152904761Y-2954819D01*
X152904761Y-2954819D02*
X152666666Y-1954819D01*
X152285713Y-2573866D02*
X151523809Y-2573866D01*
X151095237Y-2907200D02*
X150952380Y-2954819D01*
X150952380Y-2954819D02*
X150714285Y-2954819D01*
X150714285Y-2954819D02*
X150619047Y-2907200D01*
X150619047Y-2907200D02*
X150571428Y-2859580D01*
X150571428Y-2859580D02*
X150523809Y-2764342D01*
X150523809Y-2764342D02*
X150523809Y-2669104D01*
X150523809Y-2669104D02*
X150571428Y-2573866D01*
X150571428Y-2573866D02*
X150619047Y-2526247D01*
X150619047Y-2526247D02*
X150714285Y-2478628D01*
X150714285Y-2478628D02*
X150904761Y-2431009D01*
X150904761Y-2431009D02*
X150999999Y-2383390D01*
X150999999Y-2383390D02*
X151047618Y-2335771D01*
X151047618Y-2335771D02*
X151095237Y-2240533D01*
X151095237Y-2240533D02*
X151095237Y-2145295D01*
X151095237Y-2145295D02*
X151047618Y-2050057D01*
X151047618Y-2050057D02*
X150999999Y-2002438D01*
X150999999Y-2002438D02*
X150904761Y-1954819D01*
X150904761Y-1954819D02*
X150666666Y-1954819D01*
X150666666Y-1954819D02*
X150523809Y-2002438D01*
X150095237Y-2954819D02*
X150095237Y-1954819D01*
X150095237Y-1954819D02*
X149761904Y-2669104D01*
X149761904Y-2669104D02*
X149428571Y-1954819D01*
X149428571Y-1954819D02*
X149428571Y-2954819D01*
X148952380Y-2954819D02*
X148952380Y-1954819D01*
X148952380Y-1954819D02*
X148714285Y-1954819D01*
X148714285Y-1954819D02*
X148571428Y-2002438D01*
X148571428Y-2002438D02*
X148476190Y-2097676D01*
X148476190Y-2097676D02*
X148428571Y-2192914D01*
X148428571Y-2192914D02*
X148380952Y-2383390D01*
X148380952Y-2383390D02*
X148380952Y-2526247D01*
X148380952Y-2526247D02*
X148428571Y-2716723D01*
X148428571Y-2716723D02*
X148476190Y-2811961D01*
X148476190Y-2811961D02*
X148571428Y-2907200D01*
X148571428Y-2907200D02*
X148714285Y-2954819D01*
X148714285Y-2954819D02*
X148952380Y-2954819D01*
X147952380Y-2573866D02*
X147190476Y-2573866D01*
X146238095Y-1954819D02*
X146714285Y-1954819D01*
X146714285Y-1954819D02*
X146761904Y-2431009D01*
X146761904Y-2431009D02*
X146714285Y-2383390D01*
X146714285Y-2383390D02*
X146619047Y-2335771D01*
X146619047Y-2335771D02*
X146380952Y-2335771D01*
X146380952Y-2335771D02*
X146285714Y-2383390D01*
X146285714Y-2383390D02*
X146238095Y-2431009D01*
X146238095Y-2431009D02*
X146190476Y-2526247D01*
X146190476Y-2526247D02*
X146190476Y-2764342D01*
X146190476Y-2764342D02*
X146238095Y-2859580D01*
X146238095Y-2859580D02*
X146285714Y-2907200D01*
X146285714Y-2907200D02*
X146380952Y-2954819D01*
X146380952Y-2954819D02*
X146619047Y-2954819D01*
X146619047Y-2954819D02*
X146714285Y-2907200D01*
X146714285Y-2907200D02*
X146761904Y-2859580D01*
X145761904Y-2859580D02*
X145714285Y-2907200D01*
X145714285Y-2907200D02*
X145761904Y-2954819D01*
X145761904Y-2954819D02*
X145809523Y-2907200D01*
X145809523Y-2907200D02*
X145761904Y-2859580D01*
X145761904Y-2859580D02*
X145761904Y-2954819D01*
X144761905Y-2954819D02*
X145333333Y-2954819D01*
X145047619Y-2954819D02*
X145047619Y-1954819D01*
X145047619Y-1954819D02*
X145142857Y-2097676D01*
X145142857Y-2097676D02*
X145238095Y-2192914D01*
X145238095Y-2192914D02*
X145333333Y-2240533D01*
X144428571Y-2954819D02*
X143904762Y-2288152D01*
X144428571Y-2288152D02*
X143904762Y-2954819D01*
X143047619Y-1954819D02*
X143523809Y-1954819D01*
X143523809Y-1954819D02*
X143571428Y-2431009D01*
X143571428Y-2431009D02*
X143523809Y-2383390D01*
X143523809Y-2383390D02*
X143428571Y-2335771D01*
X143428571Y-2335771D02*
X143190476Y-2335771D01*
X143190476Y-2335771D02*
X143095238Y-2383390D01*
X143095238Y-2383390D02*
X143047619Y-2431009D01*
X143047619Y-2431009D02*
X143000000Y-2526247D01*
X143000000Y-2526247D02*
X143000000Y-2764342D01*
X143000000Y-2764342D02*
X143047619Y-2859580D01*
X143047619Y-2859580D02*
X143095238Y-2907200D01*
X143095238Y-2907200D02*
X143190476Y-2954819D01*
X143190476Y-2954819D02*
X143428571Y-2954819D01*
X143428571Y-2954819D02*
X143523809Y-2907200D01*
X143523809Y-2907200D02*
X143571428Y-2859580D01*
X142571428Y-2859580D02*
X142523809Y-2907200D01*
X142523809Y-2907200D02*
X142571428Y-2954819D01*
X142571428Y-2954819D02*
X142619047Y-2907200D01*
X142619047Y-2907200D02*
X142571428Y-2859580D01*
X142571428Y-2859580D02*
X142571428Y-2954819D01*
X141571429Y-2954819D02*
X142142857Y-2954819D01*
X141857143Y-2954819D02*
X141857143Y-1954819D01*
X141857143Y-1954819D02*
X141952381Y-2097676D01*
X141952381Y-2097676D02*
X142047619Y-2192914D01*
X142047619Y-2192914D02*
X142142857Y-2240533D01*
D10*
D11*
X132333333Y-34954819D02*
X132333333Y-35669104D01*
X132333333Y-35669104D02*
X132380952Y-35811961D01*
X132380952Y-35811961D02*
X132476190Y-35907200D01*
X132476190Y-35907200D02*
X132619047Y-35954819D01*
X132619047Y-35954819D02*
X132714285Y-35954819D01*
X131428571Y-35288152D02*
X131428571Y-35954819D01*
X131666666Y-34907200D02*
X131904761Y-35621485D01*
X131904761Y-35621485D02*
X131285714Y-35621485D01*
D10*
D11*
X144071427Y-35431009D02*
X144404760Y-35431009D01*
X144404760Y-35954819D02*
X144404760Y-34954819D01*
X144404760Y-34954819D02*
X143928570Y-34954819D01*
X143547617Y-35954819D02*
X143547617Y-34954819D01*
X143547617Y-34954819D02*
X143166665Y-34954819D01*
X143166665Y-34954819D02*
X143071427Y-35002438D01*
X143071427Y-35002438D02*
X143023808Y-35050057D01*
X143023808Y-35050057D02*
X142976189Y-35145295D01*
X142976189Y-35145295D02*
X142976189Y-35288152D01*
X142976189Y-35288152D02*
X143023808Y-35383390D01*
X143023808Y-35383390D02*
X143071427Y-35431009D01*
X143071427Y-35431009D02*
X143166665Y-35478628D01*
X143166665Y-35478628D02*
X143547617Y-35478628D01*
X141976189Y-35859580D02*
X142023808Y-35907200D01*
X142023808Y-35907200D02*
X142166665Y-35954819D01*
X142166665Y-35954819D02*
X142261903Y-35954819D01*
X142261903Y-35954819D02*
X142404760Y-35907200D01*
X142404760Y-35907200D02*
X142499998Y-35811961D01*
X142499998Y-35811961D02*
X142547617Y-35716723D01*
X142547617Y-35716723D02*
X142595236Y-35526247D01*
X142595236Y-35526247D02*
X142595236Y-35383390D01*
X142595236Y-35383390D02*
X142547617Y-35192914D01*
X142547617Y-35192914D02*
X142499998Y-35097676D01*
X142499998Y-35097676D02*
X142404760Y-35002438D01*
X142404760Y-35002438D02*
X142261903Y-34954819D01*
X142261903Y-34954819D02*
X142166665Y-34954819D01*
X142166665Y-34954819D02*
X142023808Y-35002438D01*
X142023808Y-35002438D02*
X141976189Y-35050057D01*
X141547617Y-35573866D02*
X140785713Y-35573866D01*
X139880951Y-35288152D02*
X139880951Y-35954819D01*
X140119046Y-34907200D02*
X140357141Y-35621485D01*
X140357141Y-35621485D02*
X139738094Y-35621485D01*
X139166665Y-34954819D02*
X139071427Y-34954819D01*
X139071427Y-34954819D02*
X138976189Y-35002438D01*
X138976189Y-35002438D02*
X138928570Y-35050057D01*
X138928570Y-35050057D02*
X138880951Y-35145295D01*
X138880951Y-35145295D02*
X138833332Y-35335771D01*
X138833332Y-35335771D02*
X138833332Y-35573866D01*
X138833332Y-35573866D02*
X138880951Y-35764342D01*
X138880951Y-35764342D02*
X138928570Y-35859580D01*
X138928570Y-35859580D02*
X138976189Y-35907200D01*
X138976189Y-35907200D02*
X139071427Y-35954819D01*
X139071427Y-35954819D02*
X139166665Y-35954819D01*
X139166665Y-35954819D02*
X139261903Y-35907200D01*
X139261903Y-35907200D02*
X139309522Y-35859580D01*
X139309522Y-35859580D02*
X139357141Y-35764342D01*
X139357141Y-35764342D02*
X139404760Y-35573866D01*
X139404760Y-35573866D02*
X139404760Y-35335771D01*
X139404760Y-35335771D02*
X139357141Y-35145295D01*
X139357141Y-35145295D02*
X139309522Y-35050057D01*
X139309522Y-35050057D02*
X139261903Y-35002438D01*
X139261903Y-35002438D02*
X139166665Y-34954819D01*
X138404760Y-35954819D02*
X138404760Y-34954819D01*
X138404760Y-34954819D02*
X138023808Y-34954819D01*
X138023808Y-34954819D02*
X137928570Y-35002438D01*
X137928570Y-35002438D02*
X137880951Y-35050057D01*
X137880951Y-35050057D02*
X137833332Y-35145295D01*
X137833332Y-35145295D02*
X137833332Y-35288152D01*
X137833332Y-35288152D02*
X137880951Y-35383390D01*
X137880951Y-35383390D02*
X137928570Y-35431009D01*
X137928570Y-35431009D02*
X138023808Y-35478628D01*
X138023808Y-35478628D02*
X138404760Y-35478628D01*
X137404760Y-35573866D02*
X136642856Y-35573866D01*
X135976189Y-34954819D02*
X135880951Y-34954819D01*
X135880951Y-34954819D02*
X135785713Y-35002438D01*
X135785713Y-35002438D02*
X135738094Y-35050057D01*
X135738094Y-35050057D02*
X135690475Y-35145295D01*
X135690475Y-35145295D02*
X135642856Y-35335771D01*
X135642856Y-35335771D02*
X135642856Y-35573866D01*
X135642856Y-35573866D02*
X135690475Y-35764342D01*
X135690475Y-35764342D02*
X135738094Y-35859580D01*
X135738094Y-35859580D02*
X135785713Y-35907200D01*
X135785713Y-35907200D02*
X135880951Y-35954819D01*
X135880951Y-35954819D02*
X135976189Y-35954819D01*
X135976189Y-35954819D02*
X136071427Y-35907200D01*
X136071427Y-35907200D02*
X136119046Y-35859580D01*
X136119046Y-35859580D02*
X136166665Y-35764342D01*
X136166665Y-35764342D02*
X136214284Y-35573866D01*
X136214284Y-35573866D02*
X136214284Y-35335771D01*
X136214284Y-35335771D02*
X136166665Y-35145295D01*
X136166665Y-35145295D02*
X136119046Y-35050057D01*
X136119046Y-35050057D02*
X136071427Y-35002438D01*
X136071427Y-35002438D02*
X135976189Y-34954819D01*
X135214284Y-35859580D02*
X135166665Y-35907200D01*
X135166665Y-35907200D02*
X135214284Y-35954819D01*
X135214284Y-35954819D02*
X135261903Y-35907200D01*
X135261903Y-35907200D02*
X135214284Y-35859580D01*
X135214284Y-35859580D02*
X135214284Y-35954819D01*
X134261904Y-34954819D02*
X134738094Y-34954819D01*
X134738094Y-34954819D02*
X134785713Y-35431009D01*
X134785713Y-35431009D02*
X134738094Y-35383390D01*
X134738094Y-35383390D02*
X134642856Y-35335771D01*
X134642856Y-35335771D02*
X134404761Y-35335771D01*
X134404761Y-35335771D02*
X134309523Y-35383390D01*
X134309523Y-35383390D02*
X134261904Y-35431009D01*
X134261904Y-35431009D02*
X134214285Y-35526247D01*
X134214285Y-35526247D02*
X134214285Y-35764342D01*
X134214285Y-35764342D02*
X134261904Y-35859580D01*
X134261904Y-35859580D02*
X134309523Y-35907200D01*
X134309523Y-35907200D02*
X134404761Y-35954819D01*
X134404761Y-35954819D02*
X134642856Y-35954819D01*
X134642856Y-35954819D02*
X134738094Y-35907200D01*
X134738094Y-35907200D02*
X134785713Y-35859580D01*
X133785713Y-35954819D02*
X133785713Y-35288152D01*
X133785713Y-35383390D02*
X133738094Y-35335771D01*
X133738094Y-35335771D02*
X133642856Y-35288152D01*
X133642856Y-35288152D02*
X133499999Y-35288152D01*
X133499999Y-35288152D02*
X133404761Y-35335771D01*
X133404761Y-35335771D02*
X133357142Y-35431009D01*
X133357142Y-35431009D02*
X133357142Y-35954819D01*
X133357142Y-35431009D02*
X133309523Y-35335771D01*
X133309523Y-35335771D02*
X133214285Y-35288152D01*
X133214285Y-35288152D02*
X133071428Y-35288152D01*
X133071428Y-35288152D02*
X132976189Y-35335771D01*
X132976189Y-35335771D02*
X132928570Y-35431009D01*
X132928570Y-35431009D02*
X132928570Y-35954819D01*
X132452380Y-35954819D02*
X132452380Y-35288152D01*
X132452380Y-35383390D02*
X132404761Y-35335771D01*
X132404761Y-35335771D02*
X132309523Y-35288152D01*
X132309523Y-35288152D02*
X132166666Y-35288152D01*
X132166666Y-35288152D02*
X132071428Y-35335771D01*
X132071428Y-35335771D02*
X132023809Y-35431009D01*
X132023809Y-35431009D02*
X132023809Y-35954819D01*
X132023809Y-35431009D02*
X131976190Y-35335771D01*
X131976190Y-35335771D02*
X131880952Y-35288152D01*
X131880952Y-35288152D02*
X131738095Y-35288152D01*
X131738095Y-35288152D02*
X131642856Y-35335771D01*
X131642856Y-35335771D02*
X131595237Y-35431009D01*
X131595237Y-35431009D02*
X131595237Y-35954819D01*
D10*
D11*
X80333333Y-68454819D02*
X80333333Y-69169104D01*
X80333333Y-69169104D02*
X80380952Y-69311961D01*
X80380952Y-69311961D02*
X80476190Y-69407200D01*
X80476190Y-69407200D02*
X80619047Y-69454819D01*
X80619047Y-69454819D02*
X80714285Y-69454819D01*
X79333333Y-69454819D02*
X79904761Y-69454819D01*
X79619047Y-69454819D02*
X79619047Y-68454819D01*
X79619047Y-68454819D02*
X79714285Y-68597676D01*
X79714285Y-68597676D02*
X79809523Y-68692914D01*
X79809523Y-68692914D02*
X79904761Y-68740533D01*
D10*
D11*
X84452380Y-74454819D02*
X84452380Y-75264342D01*
X84452380Y-75264342D02*
X84404761Y-75359580D01*
X84404761Y-75359580D02*
X84357142Y-75407200D01*
X84357142Y-75407200D02*
X84261904Y-75454819D01*
X84261904Y-75454819D02*
X84071428Y-75454819D01*
X84071428Y-75454819D02*
X83976190Y-75407200D01*
X83976190Y-75407200D02*
X83928571Y-75359580D01*
X83928571Y-75359580D02*
X83880952Y-75264342D01*
X83880952Y-75264342D02*
X83880952Y-74454819D01*
X83452380Y-75407200D02*
X83309523Y-75454819D01*
X83309523Y-75454819D02*
X83071428Y-75454819D01*
X83071428Y-75454819D02*
X82976190Y-75407200D01*
X82976190Y-75407200D02*
X82928571Y-75359580D01*
X82928571Y-75359580D02*
X82880952Y-75264342D01*
X82880952Y-75264342D02*
X82880952Y-75169104D01*
X82880952Y-75169104D02*
X82928571Y-75073866D01*
X82928571Y-75073866D02*
X82976190Y-75026247D01*
X82976190Y-75026247D02*
X83071428Y-74978628D01*
X83071428Y-74978628D02*
X83261904Y-74931009D01*
X83261904Y-74931009D02*
X83357142Y-74883390D01*
X83357142Y-74883390D02*
X83404761Y-74835771D01*
X83404761Y-74835771D02*
X83452380Y-74740533D01*
X83452380Y-74740533D02*
X83452380Y-74645295D01*
X83452380Y-74645295D02*
X83404761Y-74550057D01*
X83404761Y-74550057D02*
X83357142Y-74502438D01*
X83357142Y-74502438D02*
X83261904Y-74454819D01*
X83261904Y-74454819D02*
X83023809Y-74454819D01*
X83023809Y-74454819D02*
X82880952Y-74502438D01*
X82119047Y-74931009D02*
X81976190Y-74978628D01*
X81976190Y-74978628D02*
X81928571Y-75026247D01*
X81928571Y-75026247D02*
X81880952Y-75121485D01*
X81880952Y-75121485D02*
X81880952Y-75264342D01*
X81880952Y-75264342D02*
X81928571Y-75359580D01*
X81928571Y-75359580D02*
X81976190Y-75407200D01*
X81976190Y-75407200D02*
X82071428Y-75454819D01*
X82071428Y-75454819D02*
X82452380Y-75454819D01*
X82452380Y-75454819D02*
X82452380Y-74454819D01*
X82452380Y-74454819D02*
X82119047Y-74454819D01*
X82119047Y-74454819D02*
X82023809Y-74502438D01*
X82023809Y-74502438D02*
X81976190Y-74550057D01*
X81976190Y-74550057D02*
X81928571Y-74645295D01*
X81928571Y-74645295D02*
X81928571Y-74740533D01*
X81928571Y-74740533D02*
X81976190Y-74835771D01*
X81976190Y-74835771D02*
X82023809Y-74883390D01*
X82023809Y-74883390D02*
X82119047Y-74931009D01*
X82119047Y-74931009D02*
X82452380Y-74931009D01*
X81452380Y-75073866D02*
X80690476Y-75073866D01*
X79642857Y-75359580D02*
X79690476Y-75407200D01*
X79690476Y-75407200D02*
X79833333Y-75454819D01*
X79833333Y-75454819D02*
X79928571Y-75454819D01*
X79928571Y-75454819D02*
X80071428Y-75407200D01*
X80071428Y-75407200D02*
X80166666Y-75311961D01*
X80166666Y-75311961D02*
X80214285Y-75216723D01*
X80214285Y-75216723D02*
X80261904Y-75026247D01*
X80261904Y-75026247D02*
X80261904Y-74883390D01*
X80261904Y-74883390D02*
X80214285Y-74692914D01*
X80214285Y-74692914D02*
X80166666Y-74597676D01*
X80166666Y-74597676D02*
X80071428Y-74502438D01*
X80071428Y-74502438D02*
X79928571Y-74454819D01*
X79928571Y-74454819D02*
X79833333Y-74454819D01*
X79833333Y-74454819D02*
X79690476Y-74502438D01*
X79690476Y-74502438D02*
X79642857Y-74550057D01*
X79214285Y-75073866D02*
X78452381Y-75073866D01*
X77452381Y-75454819D02*
X78023809Y-75454819D01*
X77738095Y-75454819D02*
X77738095Y-74454819D01*
X77738095Y-74454819D02*
X77833333Y-74597676D01*
X77833333Y-74597676D02*
X77928571Y-74692914D01*
X77928571Y-74692914D02*
X78023809Y-74740533D01*
X76595238Y-74454819D02*
X76785714Y-74454819D01*
X76785714Y-74454819D02*
X76880952Y-74502438D01*
X76880952Y-74502438D02*
X76928571Y-74550057D01*
X76928571Y-74550057D02*
X77023809Y-74692914D01*
X77023809Y-74692914D02*
X77071428Y-74883390D01*
X77071428Y-74883390D02*
X77071428Y-75264342D01*
X77071428Y-75264342D02*
X77023809Y-75359580D01*
X77023809Y-75359580D02*
X76976190Y-75407200D01*
X76976190Y-75407200D02*
X76880952Y-75454819D01*
X76880952Y-75454819D02*
X76690476Y-75454819D01*
X76690476Y-75454819D02*
X76595238Y-75407200D01*
X76595238Y-75407200D02*
X76547619Y-75359580D01*
X76547619Y-75359580D02*
X76500000Y-75264342D01*
X76500000Y-75264342D02*
X76500000Y-75026247D01*
X76500000Y-75026247D02*
X76547619Y-74931009D01*
X76547619Y-74931009D02*
X76595238Y-74883390D01*
X76595238Y-74883390D02*
X76690476Y-74835771D01*
X76690476Y-74835771D02*
X76880952Y-74835771D01*
X76880952Y-74835771D02*
X76976190Y-74883390D01*
X76976190Y-74883390D02*
X77023809Y-74931009D01*
X77023809Y-74931009D02*
X77071428Y-75026247D01*
X76071428Y-75454819D02*
X76071428Y-74454819D01*
X76071428Y-74454819D02*
X75690476Y-74454819D01*
X75690476Y-74454819D02*
X75595238Y-74502438D01*
X75595238Y-74502438D02*
X75547619Y-74550057D01*
X75547619Y-74550057D02*
X75500000Y-74645295D01*
X75500000Y-74645295D02*
X75500000Y-74788152D01*
X75500000Y-74788152D02*
X75547619Y-74883390D01*
X75547619Y-74883390D02*
X75595238Y-74931009D01*
X75595238Y-74931009D02*
X75690476Y-74978628D01*
X75690476Y-74978628D02*
X76071428Y-74978628D01*
D10*
D11*
X140761904Y-63454819D02*
X140761904Y-64264342D01*
X140761904Y-64264342D02*
X140714285Y-64359580D01*
X140714285Y-64359580D02*
X140666666Y-64407200D01*
X140666666Y-64407200D02*
X140571428Y-64454819D01*
X140571428Y-64454819D02*
X140380952Y-64454819D01*
X140380952Y-64454819D02*
X140285714Y-64407200D01*
X140285714Y-64407200D02*
X140238095Y-64359580D01*
X140238095Y-64359580D02*
X140190476Y-64264342D01*
X140190476Y-64264342D02*
X140190476Y-63454819D01*
X139285714Y-63454819D02*
X139476190Y-63454819D01*
X139476190Y-63454819D02*
X139571428Y-63502438D01*
X139571428Y-63502438D02*
X139619047Y-63550057D01*
X139619047Y-63550057D02*
X139714285Y-63692914D01*
X139714285Y-63692914D02*
X139761904Y-63883390D01*
X139761904Y-63883390D02*
X139761904Y-64264342D01*
X139761904Y-64264342D02*
X139714285Y-64359580D01*
X139714285Y-64359580D02*
X139666666Y-64407200D01*
X139666666Y-64407200D02*
X139571428Y-64454819D01*
X139571428Y-64454819D02*
X139380952Y-64454819D01*
X139380952Y-64454819D02*
X139285714Y-64407200D01*
X139285714Y-64407200D02*
X139238095Y-64359580D01*
X139238095Y-64359580D02*
X139190476Y-64264342D01*
X139190476Y-64264342D02*
X139190476Y-64026247D01*
X139190476Y-64026247D02*
X139238095Y-63931009D01*
X139238095Y-63931009D02*
X139285714Y-63883390D01*
X139285714Y-63883390D02*
X139380952Y-63835771D01*
X139380952Y-63835771D02*
X139571428Y-63835771D01*
X139571428Y-63835771D02*
X139666666Y-63883390D01*
X139666666Y-63883390D02*
X139714285Y-63931009D01*
X139714285Y-63931009D02*
X139761904Y-64026247D01*
D10*
D11*
X142714285Y-69454819D02*
X142142857Y-69454819D01*
X142428571Y-70454819D02*
X142428571Y-69454819D01*
X141476190Y-69931009D02*
X141809523Y-69931009D01*
X141809523Y-70454819D02*
X141809523Y-69454819D01*
X141809523Y-69454819D02*
X141333333Y-69454819D01*
X140952380Y-70073866D02*
X140190476Y-70073866D01*
X139523809Y-69454819D02*
X139428571Y-69454819D01*
X139428571Y-69454819D02*
X139333333Y-69502438D01*
X139333333Y-69502438D02*
X139285714Y-69550057D01*
X139285714Y-69550057D02*
X139238095Y-69645295D01*
X139238095Y-69645295D02*
X139190476Y-69835771D01*
X139190476Y-69835771D02*
X139190476Y-70073866D01*
X139190476Y-70073866D02*
X139238095Y-70264342D01*
X139238095Y-70264342D02*
X139285714Y-70359580D01*
X139285714Y-70359580D02*
X139333333Y-70407200D01*
X139333333Y-70407200D02*
X139428571Y-70454819D01*
X139428571Y-70454819D02*
X139523809Y-70454819D01*
X139523809Y-70454819D02*
X139619047Y-70407200D01*
X139619047Y-70407200D02*
X139666666Y-70359580D01*
X139666666Y-70359580D02*
X139714285Y-70264342D01*
X139714285Y-70264342D02*
X139761904Y-70073866D01*
X139761904Y-70073866D02*
X139761904Y-69835771D01*
X139761904Y-69835771D02*
X139714285Y-69645295D01*
X139714285Y-69645295D02*
X139666666Y-69550057D01*
X139666666Y-69550057D02*
X139619047Y-69502438D01*
X139619047Y-69502438D02*
X139523809Y-69454819D01*
X138238095Y-70454819D02*
X138809523Y-70454819D01*
X138523809Y-70454819D02*
X138523809Y-69454819D01*
X138523809Y-69454819D02*
X138619047Y-69597676D01*
X138619047Y-69597676D02*
X138714285Y-69692914D01*
X138714285Y-69692914D02*
X138809523Y-69740533D01*
X137857142Y-70169104D02*
X137380952Y-70169104D01*
X137952380Y-70454819D02*
X137619047Y-69454819D01*
X137619047Y-69454819D02*
X137285714Y-70454819D01*
D10*
D11*
X10809523Y-19907200D02*
X10666666Y-19954819D01*
X10666666Y-19954819D02*
X10428571Y-19954819D01*
X10428571Y-19954819D02*
X10333333Y-19907200D01*
X10333333Y-19907200D02*
X10285714Y-19859580D01*
X10285714Y-19859580D02*
X10238095Y-19764342D01*
X10238095Y-19764342D02*
X10238095Y-19669104D01*
X10238095Y-19669104D02*
X10285714Y-19573866D01*
X10285714Y-19573866D02*
X10333333Y-19526247D01*
X10333333Y-19526247D02*
X10428571Y-19478628D01*
X10428571Y-19478628D02*
X10619047Y-19431009D01*
X10619047Y-19431009D02*
X10714285Y-19383390D01*
X10714285Y-19383390D02*
X10761904Y-19335771D01*
X10761904Y-19335771D02*
X10809523Y-19240533D01*
X10809523Y-19240533D02*
X10809523Y-19145295D01*
X10809523Y-19145295D02*
X10761904Y-19050057D01*
X10761904Y-19050057D02*
X10714285Y-19002438D01*
X10714285Y-19002438D02*
X10619047Y-18954819D01*
X10619047Y-18954819D02*
X10380952Y-18954819D01*
X10380952Y-18954819D02*
X10238095Y-19002438D01*
X9904761Y-18954819D02*
X9666666Y-19954819D01*
X9666666Y-19954819D02*
X9476190Y-19240533D01*
X9476190Y-19240533D02*
X9285714Y-19954819D01*
X9285714Y-19954819D02*
X9047619Y-18954819D01*
X8904762Y-20050057D02*
X8142857Y-20050057D01*
X7904761Y-19954819D02*
X7904761Y-18954819D01*
X7904761Y-18954819D02*
X7523809Y-18954819D01*
X7523809Y-18954819D02*
X7428571Y-19002438D01*
X7428571Y-19002438D02*
X7380952Y-19050057D01*
X7380952Y-19050057D02*
X7333333Y-19145295D01*
X7333333Y-19145295D02*
X7333333Y-19288152D01*
X7333333Y-19288152D02*
X7380952Y-19383390D01*
X7380952Y-19383390D02*
X7428571Y-19431009D01*
X7428571Y-19431009D02*
X7523809Y-19478628D01*
X7523809Y-19478628D02*
X7904761Y-19478628D01*
X6999999Y-18954819D02*
X6761904Y-19954819D01*
X6761904Y-19954819D02*
X6571428Y-19240533D01*
X6571428Y-19240533D02*
X6380952Y-19954819D01*
X6380952Y-19954819D02*
X6142857Y-18954819D01*
X5190476Y-19954819D02*
X5523809Y-19478628D01*
X5761904Y-19954819D02*
X5761904Y-18954819D01*
X5761904Y-18954819D02*
X5380952Y-18954819D01*
X5380952Y-18954819D02*
X5285714Y-19002438D01*
X5285714Y-19002438D02*
X5238095Y-19050057D01*
X5238095Y-19050057D02*
X5190476Y-19145295D01*
X5190476Y-19145295D02*
X5190476Y-19288152D01*
X5190476Y-19288152D02*
X5238095Y-19383390D01*
X5238095Y-19383390D02*
X5285714Y-19431009D01*
X5285714Y-19431009D02*
X5380952Y-19478628D01*
X5380952Y-19478628D02*
X5761904Y-19478628D01*
D10*
D11*
X12761904Y-25907200D02*
X12619047Y-25954819D01*
X12619047Y-25954819D02*
X12380952Y-25954819D01*
X12380952Y-25954819D02*
X12285714Y-25907200D01*
X12285714Y-25907200D02*
X12238095Y-25859580D01*
X12238095Y-25859580D02*
X12190476Y-25764342D01*
X12190476Y-25764342D02*
X12190476Y-25669104D01*
X12190476Y-25669104D02*
X12238095Y-25573866D01*
X12238095Y-25573866D02*
X12285714Y-25526247D01*
X12285714Y-25526247D02*
X12380952Y-25478628D01*
X12380952Y-25478628D02*
X12571428Y-25431009D01*
X12571428Y-25431009D02*
X12666666Y-25383390D01*
X12666666Y-25383390D02*
X12714285Y-25335771D01*
X12714285Y-25335771D02*
X12761904Y-25240533D01*
X12761904Y-25240533D02*
X12761904Y-25145295D01*
X12761904Y-25145295D02*
X12714285Y-25050057D01*
X12714285Y-25050057D02*
X12666666Y-25002438D01*
X12666666Y-25002438D02*
X12571428Y-24954819D01*
X12571428Y-24954819D02*
X12333333Y-24954819D01*
X12333333Y-24954819D02*
X12190476Y-25002438D01*
X11809523Y-25907200D02*
X11666666Y-25954819D01*
X11666666Y-25954819D02*
X11428571Y-25954819D01*
X11428571Y-25954819D02*
X11333333Y-25907200D01*
X11333333Y-25907200D02*
X11285714Y-25859580D01*
X11285714Y-25859580D02*
X11238095Y-25764342D01*
X11238095Y-25764342D02*
X11238095Y-25669104D01*
X11238095Y-25669104D02*
X11285714Y-25573866D01*
X11285714Y-25573866D02*
X11333333Y-25526247D01*
X11333333Y-25526247D02*
X11428571Y-25478628D01*
X11428571Y-25478628D02*
X11619047Y-25431009D01*
X11619047Y-25431009D02*
X11714285Y-25383390D01*
X11714285Y-25383390D02*
X11761904Y-25335771D01*
X11761904Y-25335771D02*
X11809523Y-25240533D01*
X11809523Y-25240533D02*
X11809523Y-25145295D01*
X11809523Y-25145295D02*
X11761904Y-25050057D01*
X11761904Y-25050057D02*
X11714285Y-25002438D01*
X11714285Y-25002438D02*
X11619047Y-24954819D01*
X11619047Y-24954819D02*
X11380952Y-24954819D01*
X11380952Y-24954819D02*
X11238095Y-25002438D01*
X10809523Y-25573866D02*
X10047619Y-25573866D01*
X9047619Y-25954819D02*
X9619047Y-25954819D01*
X9333333Y-25954819D02*
X9333333Y-24954819D01*
X9333333Y-24954819D02*
X9428571Y-25097676D01*
X9428571Y-25097676D02*
X9523809Y-25192914D01*
X9523809Y-25192914D02*
X9619047Y-25240533D01*
X8666666Y-25050057D02*
X8619047Y-25002438D01*
X8619047Y-25002438D02*
X8523809Y-24954819D01*
X8523809Y-24954819D02*
X8285714Y-24954819D01*
X8285714Y-24954819D02*
X8190476Y-25002438D01*
X8190476Y-25002438D02*
X8142857Y-25050057D01*
X8142857Y-25050057D02*
X8095238Y-25145295D01*
X8095238Y-25145295D02*
X8095238Y-25240533D01*
X8095238Y-25240533D02*
X8142857Y-25383390D01*
X8142857Y-25383390D02*
X8714285Y-25954819D01*
X8714285Y-25954819D02*
X8095238Y-25954819D01*
X7666666Y-25954819D02*
X7666666Y-24954819D01*
X7666666Y-24954819D02*
X7428571Y-24954819D01*
X7428571Y-24954819D02*
X7285714Y-25002438D01*
X7285714Y-25002438D02*
X7190476Y-25097676D01*
X7190476Y-25097676D02*
X7142857Y-25192914D01*
X7142857Y-25192914D02*
X7095238Y-25383390D01*
X7095238Y-25383390D02*
X7095238Y-25526247D01*
X7095238Y-25526247D02*
X7142857Y-25716723D01*
X7142857Y-25716723D02*
X7190476Y-25811961D01*
X7190476Y-25811961D02*
X7285714Y-25907200D01*
X7285714Y-25907200D02*
X7428571Y-25954819D01*
X7428571Y-25954819D02*
X7666666Y-25954819D01*
X6476190Y-24954819D02*
X6380952Y-24954819D01*
X6380952Y-24954819D02*
X6285714Y-25002438D01*
X6285714Y-25002438D02*
X6238095Y-25050057D01*
X6238095Y-25050057D02*
X6190476Y-25145295D01*
X6190476Y-25145295D02*
X6142857Y-25335771D01*
X6142857Y-25335771D02*
X6142857Y-25573866D01*
X6142857Y-25573866D02*
X6190476Y-25764342D01*
X6190476Y-25764342D02*
X6238095Y-25859580D01*
X6238095Y-25859580D02*
X6285714Y-25907200D01*
X6285714Y-25907200D02*
X6380952Y-25954819D01*
X6380952Y-25954819D02*
X6476190Y-25954819D01*
X6476190Y-25954819D02*
X6571428Y-25907200D01*
X6571428Y-25907200D02*
X6619047Y-25859580D01*
X6619047Y-25859580D02*
X6666666Y-25764342D01*
X6666666Y-25764342D02*
X6714285Y-25573866D01*
X6714285Y-25573866D02*
X6714285Y-25335771D01*
X6714285Y-25335771D02*
X6666666Y-25145295D01*
X6666666Y-25145295D02*
X6619047Y-25050057D01*
X6619047Y-25050057D02*
X6571428Y-25002438D01*
X6571428Y-25002438D02*
X6476190Y-24954819D01*
X5523809Y-24954819D02*
X5428571Y-24954819D01*
X5428571Y-24954819D02*
X5333333Y-25002438D01*
X5333333Y-25002438D02*
X5285714Y-25050057D01*
X5285714Y-25050057D02*
X5238095Y-25145295D01*
X5238095Y-25145295D02*
X5190476Y-25335771D01*
X5190476Y-25335771D02*
X5190476Y-25573866D01*
X5190476Y-25573866D02*
X5238095Y-25764342D01*
X5238095Y-25764342D02*
X5285714Y-25859580D01*
X5285714Y-25859580D02*
X5333333Y-25907200D01*
X5333333Y-25907200D02*
X5428571Y-25954819D01*
X5428571Y-25954819D02*
X5523809Y-25954819D01*
X5523809Y-25954819D02*
X5619047Y-25907200D01*
X5619047Y-25907200D02*
X5666666Y-25859580D01*
X5666666Y-25859580D02*
X5714285Y-25764342D01*
X5714285Y-25764342D02*
X5761904Y-25573866D01*
X5761904Y-25573866D02*
X5761904Y-25335771D01*
X5761904Y-25335771D02*
X5714285Y-25145295D01*
X5714285Y-25145295D02*
X5666666Y-25050057D01*
X5666666Y-25050057D02*
X5619047Y-25002438D01*
X5619047Y-25002438D02*
X5523809Y-24954819D01*
X4238095Y-25002438D02*
X4333333Y-24954819D01*
X4333333Y-24954819D02*
X4476190Y-24954819D01*
X4476190Y-24954819D02*
X4619047Y-25002438D01*
X4619047Y-25002438D02*
X4714285Y-25097676D01*
X4714285Y-25097676D02*
X4761904Y-25192914D01*
X4761904Y-25192914D02*
X4809523Y-25383390D01*
X4809523Y-25383390D02*
X4809523Y-25526247D01*
X4809523Y-25526247D02*
X4761904Y-25716723D01*
X4761904Y-25716723D02*
X4714285Y-25811961D01*
X4714285Y-25811961D02*
X4619047Y-25907200D01*
X4619047Y-25907200D02*
X4476190Y-25954819D01*
X4476190Y-25954819D02*
X4380952Y-25954819D01*
X4380952Y-25954819D02*
X4238095Y-25907200D01*
X4238095Y-25907200D02*
X4190476Y-25859580D01*
X4190476Y-25859580D02*
X4190476Y-25526247D01*
X4190476Y-25526247D02*
X4380952Y-25526247D01*
X3857142Y-24954819D02*
X3238095Y-24954819D01*
X3238095Y-24954819D02*
X3571428Y-25335771D01*
X3571428Y-25335771D02*
X3428571Y-25335771D01*
X3428571Y-25335771D02*
X3333333Y-25383390D01*
X3333333Y-25383390D02*
X3285714Y-25431009D01*
X3285714Y-25431009D02*
X3238095Y-25526247D01*
X3238095Y-25526247D02*
X3238095Y-25764342D01*
X3238095Y-25764342D02*
X3285714Y-25859580D01*
X3285714Y-25859580D02*
X3333333Y-25907200D01*
X3333333Y-25907200D02*
X3428571Y-25954819D01*
X3428571Y-25954819D02*
X3714285Y-25954819D01*
X3714285Y-25954819D02*
X3809523Y-25907200D01*
X3809523Y-25907200D02*
X3857142Y-25859580D01*
D10*
D11*
X31761904Y-49907200D02*
X31619047Y-49954819D01*
X31619047Y-49954819D02*
X31380952Y-49954819D01*
X31380952Y-49954819D02*
X31285714Y-49907200D01*
X31285714Y-49907200D02*
X31238095Y-49859580D01*
X31238095Y-49859580D02*
X31190476Y-49764342D01*
X31190476Y-49764342D02*
X31190476Y-49669104D01*
X31190476Y-49669104D02*
X31238095Y-49573866D01*
X31238095Y-49573866D02*
X31285714Y-49526247D01*
X31285714Y-49526247D02*
X31380952Y-49478628D01*
X31380952Y-49478628D02*
X31571428Y-49431009D01*
X31571428Y-49431009D02*
X31666666Y-49383390D01*
X31666666Y-49383390D02*
X31714285Y-49335771D01*
X31714285Y-49335771D02*
X31761904Y-49240533D01*
X31761904Y-49240533D02*
X31761904Y-49145295D01*
X31761904Y-49145295D02*
X31714285Y-49050057D01*
X31714285Y-49050057D02*
X31666666Y-49002438D01*
X31666666Y-49002438D02*
X31571428Y-48954819D01*
X31571428Y-48954819D02*
X31333333Y-48954819D01*
X31333333Y-48954819D02*
X31190476Y-49002438D01*
X30761904Y-49954819D02*
X30761904Y-48954819D01*
X30761904Y-48954819D02*
X30380952Y-48954819D01*
X30380952Y-48954819D02*
X30285714Y-49002438D01*
X30285714Y-49002438D02*
X30238095Y-49050057D01*
X30238095Y-49050057D02*
X30190476Y-49145295D01*
X30190476Y-49145295D02*
X30190476Y-49288152D01*
X30190476Y-49288152D02*
X30238095Y-49383390D01*
X30238095Y-49383390D02*
X30285714Y-49431009D01*
X30285714Y-49431009D02*
X30380952Y-49478628D01*
X30380952Y-49478628D02*
X30761904Y-49478628D01*
X29761904Y-49954819D02*
X29761904Y-48954819D01*
X29190476Y-49954819D02*
X29619047Y-49383390D01*
X29190476Y-48954819D02*
X29761904Y-49526247D01*
X28238095Y-49954819D02*
X28809523Y-49954819D01*
X28523809Y-49954819D02*
X28523809Y-48954819D01*
X28523809Y-48954819D02*
X28619047Y-49097676D01*
X28619047Y-49097676D02*
X28714285Y-49192914D01*
X28714285Y-49192914D02*
X28809523Y-49240533D01*
D10*
D11*
X35666666Y-55907200D02*
X35523809Y-55954819D01*
X35523809Y-55954819D02*
X35285714Y-55954819D01*
X35285714Y-55954819D02*
X35190476Y-55907200D01*
X35190476Y-55907200D02*
X35142857Y-55859580D01*
X35142857Y-55859580D02*
X35095238Y-55764342D01*
X35095238Y-55764342D02*
X35095238Y-55669104D01*
X35095238Y-55669104D02*
X35142857Y-55573866D01*
X35142857Y-55573866D02*
X35190476Y-55526247D01*
X35190476Y-55526247D02*
X35285714Y-55478628D01*
X35285714Y-55478628D02*
X35476190Y-55431009D01*
X35476190Y-55431009D02*
X35571428Y-55383390D01*
X35571428Y-55383390D02*
X35619047Y-55335771D01*
X35619047Y-55335771D02*
X35666666Y-55240533D01*
X35666666Y-55240533D02*
X35666666Y-55145295D01*
X35666666Y-55145295D02*
X35619047Y-55050057D01*
X35619047Y-55050057D02*
X35571428Y-55002438D01*
X35571428Y-55002438D02*
X35476190Y-54954819D01*
X35476190Y-54954819D02*
X35238095Y-54954819D01*
X35238095Y-54954819D02*
X35095238Y-55002438D01*
X34666666Y-55288152D02*
X34666666Y-56288152D01*
X34666666Y-55335771D02*
X34571428Y-55288152D01*
X34571428Y-55288152D02*
X34380952Y-55288152D01*
X34380952Y-55288152D02*
X34285714Y-55335771D01*
X34285714Y-55335771D02*
X34238095Y-55383390D01*
X34238095Y-55383390D02*
X34190476Y-55478628D01*
X34190476Y-55478628D02*
X34190476Y-55764342D01*
X34190476Y-55764342D02*
X34238095Y-55859580D01*
X34238095Y-55859580D02*
X34285714Y-55907200D01*
X34285714Y-55907200D02*
X34380952Y-55954819D01*
X34380952Y-55954819D02*
X34571428Y-55954819D01*
X34571428Y-55954819D02*
X34666666Y-55907200D01*
X33380952Y-55907200D02*
X33476190Y-55954819D01*
X33476190Y-55954819D02*
X33666666Y-55954819D01*
X33666666Y-55954819D02*
X33761904Y-55907200D01*
X33761904Y-55907200D02*
X33809523Y-55811961D01*
X33809523Y-55811961D02*
X33809523Y-55431009D01*
X33809523Y-55431009D02*
X33761904Y-55335771D01*
X33761904Y-55335771D02*
X33666666Y-55288152D01*
X33666666Y-55288152D02*
X33476190Y-55288152D01*
X33476190Y-55288152D02*
X33380952Y-55335771D01*
X33380952Y-55335771D02*
X33333333Y-55431009D01*
X33333333Y-55431009D02*
X33333333Y-55526247D01*
X33333333Y-55526247D02*
X33809523Y-55621485D01*
X32476190Y-55954819D02*
X32476190Y-55431009D01*
X32476190Y-55431009D02*
X32523809Y-55335771D01*
X32523809Y-55335771D02*
X32619047Y-55288152D01*
X32619047Y-55288152D02*
X32809523Y-55288152D01*
X32809523Y-55288152D02*
X32904761Y-55335771D01*
X32476190Y-55907200D02*
X32571428Y-55954819D01*
X32571428Y-55954819D02*
X32809523Y-55954819D01*
X32809523Y-55954819D02*
X32904761Y-55907200D01*
X32904761Y-55907200D02*
X32952380Y-55811961D01*
X32952380Y-55811961D02*
X32952380Y-55716723D01*
X32952380Y-55716723D02*
X32904761Y-55621485D01*
X32904761Y-55621485D02*
X32809523Y-55573866D01*
X32809523Y-55573866D02*
X32571428Y-55573866D01*
X32571428Y-55573866D02*
X32476190Y-55526247D01*
X31999999Y-55954819D02*
X31999999Y-54954819D01*
X31904761Y-55573866D02*
X31619047Y-55954819D01*
X31619047Y-55288152D02*
X31999999Y-55669104D01*
X30809523Y-55907200D02*
X30904761Y-55954819D01*
X30904761Y-55954819D02*
X31095237Y-55954819D01*
X31095237Y-55954819D02*
X31190475Y-55907200D01*
X31190475Y-55907200D02*
X31238094Y-55811961D01*
X31238094Y-55811961D02*
X31238094Y-55431009D01*
X31238094Y-55431009D02*
X31190475Y-55335771D01*
X31190475Y-55335771D02*
X31095237Y-55288152D01*
X31095237Y-55288152D02*
X30904761Y-55288152D01*
X30904761Y-55288152D02*
X30809523Y-55335771D01*
X30809523Y-55335771D02*
X30761904Y-55431009D01*
X30761904Y-55431009D02*
X30761904Y-55526247D01*
X30761904Y-55526247D02*
X31238094Y-55621485D01*
X30333332Y-55954819D02*
X30333332Y-55288152D01*
X30333332Y-55478628D02*
X30285713Y-55383390D01*
X30285713Y-55383390D02*
X30238094Y-55335771D01*
X30238094Y-55335771D02*
X30142856Y-55288152D01*
X30142856Y-55288152D02*
X30047618Y-55288152D01*
X29714284Y-55573866D02*
X28952380Y-55573866D01*
X28523808Y-55050057D02*
X28476189Y-55002438D01*
X28476189Y-55002438D02*
X28380951Y-54954819D01*
X28380951Y-54954819D02*
X28142856Y-54954819D01*
X28142856Y-54954819D02*
X28047618Y-55002438D01*
X28047618Y-55002438D02*
X27999999Y-55050057D01*
X27999999Y-55050057D02*
X27952380Y-55145295D01*
X27952380Y-55145295D02*
X27952380Y-55240533D01*
X27952380Y-55240533D02*
X27999999Y-55383390D01*
X27999999Y-55383390D02*
X28571427Y-55954819D01*
X28571427Y-55954819D02*
X27952380Y-55954819D01*
X27571427Y-55050057D02*
X27523808Y-55002438D01*
X27523808Y-55002438D02*
X27428570Y-54954819D01*
X27428570Y-54954819D02*
X27190475Y-54954819D01*
X27190475Y-54954819D02*
X27095237Y-55002438D01*
X27095237Y-55002438D02*
X27047618Y-55050057D01*
X27047618Y-55050057D02*
X26999999Y-55145295D01*
X26999999Y-55145295D02*
X26999999Y-55240533D01*
X26999999Y-55240533D02*
X27047618Y-55383390D01*
X27047618Y-55383390D02*
X27619046Y-55954819D01*
X27619046Y-55954819D02*
X26999999Y-55954819D01*
X26571427Y-55954819D02*
X26571427Y-55288152D01*
X26571427Y-55383390D02*
X26523808Y-55335771D01*
X26523808Y-55335771D02*
X26428570Y-55288152D01*
X26428570Y-55288152D02*
X26285713Y-55288152D01*
X26285713Y-55288152D02*
X26190475Y-55335771D01*
X26190475Y-55335771D02*
X26142856Y-55431009D01*
X26142856Y-55431009D02*
X26142856Y-55954819D01*
X26142856Y-55431009D02*
X26095237Y-55335771D01*
X26095237Y-55335771D02*
X25999999Y-55288152D01*
X25999999Y-55288152D02*
X25857142Y-55288152D01*
X25857142Y-55288152D02*
X25761903Y-55335771D01*
X25761903Y-55335771D02*
X25714284Y-55431009D01*
X25714284Y-55431009D02*
X25714284Y-55954819D01*
X25238094Y-55954819D02*
X25238094Y-55288152D01*
X25238094Y-55383390D02*
X25190475Y-55335771D01*
X25190475Y-55335771D02*
X25095237Y-55288152D01*
X25095237Y-55288152D02*
X24952380Y-55288152D01*
X24952380Y-55288152D02*
X24857142Y-55335771D01*
X24857142Y-55335771D02*
X24809523Y-55431009D01*
X24809523Y-55431009D02*
X24809523Y-55954819D01*
X24809523Y-55431009D02*
X24761904Y-55335771D01*
X24761904Y-55335771D02*
X24666666Y-55288152D01*
X24666666Y-55288152D02*
X24523809Y-55288152D01*
X24523809Y-55288152D02*
X24428570Y-55335771D01*
X24428570Y-55335771D02*
X24380951Y-55431009D01*
X24380951Y-55431009D02*
X24380951Y-55954819D01*
D10*
D11*
X110761904Y-38954819D02*
X110761904Y-39764342D01*
X110761904Y-39764342D02*
X110714285Y-39859580D01*
X110714285Y-39859580D02*
X110666666Y-39907200D01*
X110666666Y-39907200D02*
X110571428Y-39954819D01*
X110571428Y-39954819D02*
X110380952Y-39954819D01*
X110380952Y-39954819D02*
X110285714Y-39907200D01*
X110285714Y-39907200D02*
X110238095Y-39859580D01*
X110238095Y-39859580D02*
X110190476Y-39764342D01*
X110190476Y-39764342D02*
X110190476Y-38954819D01*
X109761904Y-39050057D02*
X109714285Y-39002438D01*
X109714285Y-39002438D02*
X109619047Y-38954819D01*
X109619047Y-38954819D02*
X109380952Y-38954819D01*
X109380952Y-38954819D02*
X109285714Y-39002438D01*
X109285714Y-39002438D02*
X109238095Y-39050057D01*
X109238095Y-39050057D02*
X109190476Y-39145295D01*
X109190476Y-39145295D02*
X109190476Y-39240533D01*
X109190476Y-39240533D02*
X109238095Y-39383390D01*
X109238095Y-39383390D02*
X109809523Y-39954819D01*
X109809523Y-39954819D02*
X109190476Y-39954819D01*
D10*
D11*
X112809523Y-45431009D02*
X112476190Y-45431009D01*
X112333333Y-45954819D02*
X112809523Y-45954819D01*
X112809523Y-45954819D02*
X112809523Y-44954819D01*
X112809523Y-44954819D02*
X112333333Y-44954819D01*
X111952380Y-45907200D02*
X111809523Y-45954819D01*
X111809523Y-45954819D02*
X111571428Y-45954819D01*
X111571428Y-45954819D02*
X111476190Y-45907200D01*
X111476190Y-45907200D02*
X111428571Y-45859580D01*
X111428571Y-45859580D02*
X111380952Y-45764342D01*
X111380952Y-45764342D02*
X111380952Y-45669104D01*
X111380952Y-45669104D02*
X111428571Y-45573866D01*
X111428571Y-45573866D02*
X111476190Y-45526247D01*
X111476190Y-45526247D02*
X111571428Y-45478628D01*
X111571428Y-45478628D02*
X111761904Y-45431009D01*
X111761904Y-45431009D02*
X111857142Y-45383390D01*
X111857142Y-45383390D02*
X111904761Y-45335771D01*
X111904761Y-45335771D02*
X111952380Y-45240533D01*
X111952380Y-45240533D02*
X111952380Y-45145295D01*
X111952380Y-45145295D02*
X111904761Y-45050057D01*
X111904761Y-45050057D02*
X111857142Y-45002438D01*
X111857142Y-45002438D02*
X111761904Y-44954819D01*
X111761904Y-44954819D02*
X111523809Y-44954819D01*
X111523809Y-44954819D02*
X111380952Y-45002438D01*
X110761904Y-44954819D02*
X110571428Y-44954819D01*
X110571428Y-44954819D02*
X110476190Y-45002438D01*
X110476190Y-45002438D02*
X110380952Y-45097676D01*
X110380952Y-45097676D02*
X110333333Y-45288152D01*
X110333333Y-45288152D02*
X110333333Y-45621485D01*
X110333333Y-45621485D02*
X110380952Y-45811961D01*
X110380952Y-45811961D02*
X110476190Y-45907200D01*
X110476190Y-45907200D02*
X110571428Y-45954819D01*
X110571428Y-45954819D02*
X110761904Y-45954819D01*
X110761904Y-45954819D02*
X110857142Y-45907200D01*
X110857142Y-45907200D02*
X110952380Y-45811961D01*
X110952380Y-45811961D02*
X110999999Y-45621485D01*
X110999999Y-45621485D02*
X110999999Y-45288152D01*
X110999999Y-45288152D02*
X110952380Y-45097676D01*
X110952380Y-45097676D02*
X110857142Y-45002438D01*
X110857142Y-45002438D02*
X110761904Y-44954819D01*
X109904761Y-45954819D02*
X109904761Y-44954819D01*
X109904761Y-44954819D02*
X109523809Y-44954819D01*
X109523809Y-44954819D02*
X109428571Y-45002438D01*
X109428571Y-45002438D02*
X109380952Y-45050057D01*
X109380952Y-45050057D02*
X109333333Y-45145295D01*
X109333333Y-45145295D02*
X109333333Y-45288152D01*
X109333333Y-45288152D02*
X109380952Y-45383390D01*
X109380952Y-45383390D02*
X109428571Y-45431009D01*
X109428571Y-45431009D02*
X109523809Y-45478628D01*
X109523809Y-45478628D02*
X109904761Y-45478628D01*
X108904761Y-45573866D02*
X108142857Y-45573866D01*
X107523809Y-45383390D02*
X107619047Y-45335771D01*
X107619047Y-45335771D02*
X107666666Y-45288152D01*
X107666666Y-45288152D02*
X107714285Y-45192914D01*
X107714285Y-45192914D02*
X107714285Y-45145295D01*
X107714285Y-45145295D02*
X107666666Y-45050057D01*
X107666666Y-45050057D02*
X107619047Y-45002438D01*
X107619047Y-45002438D02*
X107523809Y-44954819D01*
X107523809Y-44954819D02*
X107333333Y-44954819D01*
X107333333Y-44954819D02*
X107238095Y-45002438D01*
X107238095Y-45002438D02*
X107190476Y-45050057D01*
X107190476Y-45050057D02*
X107142857Y-45145295D01*
X107142857Y-45145295D02*
X107142857Y-45192914D01*
X107142857Y-45192914D02*
X107190476Y-45288152D01*
X107190476Y-45288152D02*
X107238095Y-45335771D01*
X107238095Y-45335771D02*
X107333333Y-45383390D01*
X107333333Y-45383390D02*
X107523809Y-45383390D01*
X107523809Y-45383390D02*
X107619047Y-45431009D01*
X107619047Y-45431009D02*
X107666666Y-45478628D01*
X107666666Y-45478628D02*
X107714285Y-45573866D01*
X107714285Y-45573866D02*
X107714285Y-45764342D01*
X107714285Y-45764342D02*
X107666666Y-45859580D01*
X107666666Y-45859580D02*
X107619047Y-45907200D01*
X107619047Y-45907200D02*
X107523809Y-45954819D01*
X107523809Y-45954819D02*
X107333333Y-45954819D01*
X107333333Y-45954819D02*
X107238095Y-45907200D01*
X107238095Y-45907200D02*
X107190476Y-45859580D01*
X107190476Y-45859580D02*
X107142857Y-45764342D01*
X107142857Y-45764342D02*
X107142857Y-45573866D01*
X107142857Y-45573866D02*
X107190476Y-45478628D01*
X107190476Y-45478628D02*
X107238095Y-45431009D01*
X107238095Y-45431009D02*
X107333333Y-45383390D01*
D10*
D11*
X125761904Y-51954819D02*
X125761904Y-52764342D01*
X125761904Y-52764342D02*
X125714285Y-52859580D01*
X125714285Y-52859580D02*
X125666666Y-52907200D01*
X125666666Y-52907200D02*
X125571428Y-52954819D01*
X125571428Y-52954819D02*
X125380952Y-52954819D01*
X125380952Y-52954819D02*
X125285714Y-52907200D01*
X125285714Y-52907200D02*
X125238095Y-52859580D01*
X125238095Y-52859580D02*
X125190476Y-52764342D01*
X125190476Y-52764342D02*
X125190476Y-51954819D01*
X124809523Y-51954819D02*
X124190476Y-51954819D01*
X124190476Y-51954819D02*
X124523809Y-52335771D01*
X124523809Y-52335771D02*
X124380952Y-52335771D01*
X124380952Y-52335771D02*
X124285714Y-52383390D01*
X124285714Y-52383390D02*
X124238095Y-52431009D01*
X124238095Y-52431009D02*
X124190476Y-52526247D01*
X124190476Y-52526247D02*
X124190476Y-52764342D01*
X124190476Y-52764342D02*
X124238095Y-52859580D01*
X124238095Y-52859580D02*
X124285714Y-52907200D01*
X124285714Y-52907200D02*
X124380952Y-52954819D01*
X124380952Y-52954819D02*
X124666666Y-52954819D01*
X124666666Y-52954819D02*
X124761904Y-52907200D01*
X124761904Y-52907200D02*
X124809523Y-52859580D01*
D10*
D11*
X128238094Y-58907200D02*
X128095237Y-58954819D01*
X128095237Y-58954819D02*
X127857142Y-58954819D01*
X127857142Y-58954819D02*
X127761904Y-58907200D01*
X127761904Y-58907200D02*
X127714285Y-58859580D01*
X127714285Y-58859580D02*
X127666666Y-58764342D01*
X127666666Y-58764342D02*
X127666666Y-58669104D01*
X127666666Y-58669104D02*
X127714285Y-58573866D01*
X127714285Y-58573866D02*
X127761904Y-58526247D01*
X127761904Y-58526247D02*
X127857142Y-58478628D01*
X127857142Y-58478628D02*
X128047618Y-58431009D01*
X128047618Y-58431009D02*
X128142856Y-58383390D01*
X128142856Y-58383390D02*
X128190475Y-58335771D01*
X128190475Y-58335771D02*
X128238094Y-58240533D01*
X128238094Y-58240533D02*
X128238094Y-58145295D01*
X128238094Y-58145295D02*
X128190475Y-58050057D01*
X128190475Y-58050057D02*
X128142856Y-58002438D01*
X128142856Y-58002438D02*
X128047618Y-57954819D01*
X128047618Y-57954819D02*
X127809523Y-57954819D01*
X127809523Y-57954819D02*
X127666666Y-58002438D01*
X127047618Y-57954819D02*
X126857142Y-57954819D01*
X126857142Y-57954819D02*
X126761904Y-58002438D01*
X126761904Y-58002438D02*
X126666666Y-58097676D01*
X126666666Y-58097676D02*
X126619047Y-58288152D01*
X126619047Y-58288152D02*
X126619047Y-58621485D01*
X126619047Y-58621485D02*
X126666666Y-58811961D01*
X126666666Y-58811961D02*
X126761904Y-58907200D01*
X126761904Y-58907200D02*
X126857142Y-58954819D01*
X126857142Y-58954819D02*
X127047618Y-58954819D01*
X127047618Y-58954819D02*
X127142856Y-58907200D01*
X127142856Y-58907200D02*
X127238094Y-58811961D01*
X127238094Y-58811961D02*
X127285713Y-58621485D01*
X127285713Y-58621485D02*
X127285713Y-58288152D01*
X127285713Y-58288152D02*
X127238094Y-58097676D01*
X127238094Y-58097676D02*
X127142856Y-58002438D01*
X127142856Y-58002438D02*
X127047618Y-57954819D01*
X126333332Y-57954819D02*
X125761904Y-57954819D01*
X126047618Y-58954819D02*
X126047618Y-57954819D01*
X125428570Y-58573866D02*
X124666666Y-58573866D01*
X124238094Y-58050057D02*
X124190475Y-58002438D01*
X124190475Y-58002438D02*
X124095237Y-57954819D01*
X124095237Y-57954819D02*
X123857142Y-57954819D01*
X123857142Y-57954819D02*
X123761904Y-58002438D01*
X123761904Y-58002438D02*
X123714285Y-58050057D01*
X123714285Y-58050057D02*
X123666666Y-58145295D01*
X123666666Y-58145295D02*
X123666666Y-58240533D01*
X123666666Y-58240533D02*
X123714285Y-58383390D01*
X123714285Y-58383390D02*
X124285713Y-58954819D01*
X124285713Y-58954819D02*
X123666666Y-58954819D01*
X123285713Y-58050057D02*
X123238094Y-58002438D01*
X123238094Y-58002438D02*
X123142856Y-57954819D01*
X123142856Y-57954819D02*
X122904761Y-57954819D01*
X122904761Y-57954819D02*
X122809523Y-58002438D01*
X122809523Y-58002438D02*
X122761904Y-58050057D01*
X122761904Y-58050057D02*
X122714285Y-58145295D01*
X122714285Y-58145295D02*
X122714285Y-58240533D01*
X122714285Y-58240533D02*
X122761904Y-58383390D01*
X122761904Y-58383390D02*
X123333332Y-58954819D01*
X123333332Y-58954819D02*
X122714285Y-58954819D01*
X122380951Y-57954819D02*
X121761904Y-57954819D01*
X121761904Y-57954819D02*
X122095237Y-58335771D01*
X122095237Y-58335771D02*
X121952380Y-58335771D01*
X121952380Y-58335771D02*
X121857142Y-58383390D01*
X121857142Y-58383390D02*
X121809523Y-58431009D01*
X121809523Y-58431009D02*
X121761904Y-58526247D01*
X121761904Y-58526247D02*
X121761904Y-58764342D01*
X121761904Y-58764342D02*
X121809523Y-58859580D01*
X121809523Y-58859580D02*
X121857142Y-58907200D01*
X121857142Y-58907200D02*
X121952380Y-58954819D01*
X121952380Y-58954819D02*
X122238094Y-58954819D01*
X122238094Y-58954819D02*
X122333332Y-58907200D01*
X122333332Y-58907200D02*
X122380951Y-58859580D01*
D10*
D11*
X30761904Y-25954819D02*
X30761904Y-26764342D01*
X30761904Y-26764342D02*
X30714285Y-26859580D01*
X30714285Y-26859580D02*
X30666666Y-26907200D01*
X30666666Y-26907200D02*
X30571428Y-26954819D01*
X30571428Y-26954819D02*
X30380952Y-26954819D01*
X30380952Y-26954819D02*
X30285714Y-26907200D01*
X30285714Y-26907200D02*
X30238095Y-26859580D01*
X30238095Y-26859580D02*
X30190476Y-26764342D01*
X30190476Y-26764342D02*
X30190476Y-25954819D01*
X29238095Y-25954819D02*
X29714285Y-25954819D01*
X29714285Y-25954819D02*
X29761904Y-26431009D01*
X29761904Y-26431009D02*
X29714285Y-26383390D01*
X29714285Y-26383390D02*
X29619047Y-26335771D01*
X29619047Y-26335771D02*
X29380952Y-26335771D01*
X29380952Y-26335771D02*
X29285714Y-26383390D01*
X29285714Y-26383390D02*
X29238095Y-26431009D01*
X29238095Y-26431009D02*
X29190476Y-26526247D01*
X29190476Y-26526247D02*
X29190476Y-26764342D01*
X29190476Y-26764342D02*
X29238095Y-26859580D01*
X29238095Y-26859580D02*
X29285714Y-26907200D01*
X29285714Y-26907200D02*
X29380952Y-26954819D01*
X29380952Y-26954819D02*
X29619047Y-26954819D01*
X29619047Y-26954819D02*
X29714285Y-26907200D01*
X29714285Y-26907200D02*
X29761904Y-26859580D01*
D10*
D11*
X32880951Y-32907200D02*
X32738094Y-32954819D01*
X32738094Y-32954819D02*
X32499999Y-32954819D01*
X32499999Y-32954819D02*
X32404761Y-32907200D01*
X32404761Y-32907200D02*
X32357142Y-32859580D01*
X32357142Y-32859580D02*
X32309523Y-32764342D01*
X32309523Y-32764342D02*
X32309523Y-32669104D01*
X32309523Y-32669104D02*
X32357142Y-32573866D01*
X32357142Y-32573866D02*
X32404761Y-32526247D01*
X32404761Y-32526247D02*
X32499999Y-32478628D01*
X32499999Y-32478628D02*
X32690475Y-32431009D01*
X32690475Y-32431009D02*
X32785713Y-32383390D01*
X32785713Y-32383390D02*
X32833332Y-32335771D01*
X32833332Y-32335771D02*
X32880951Y-32240533D01*
X32880951Y-32240533D02*
X32880951Y-32145295D01*
X32880951Y-32145295D02*
X32833332Y-32050057D01*
X32833332Y-32050057D02*
X32785713Y-32002438D01*
X32785713Y-32002438D02*
X32690475Y-31954819D01*
X32690475Y-31954819D02*
X32452380Y-31954819D01*
X32452380Y-31954819D02*
X32309523Y-32002438D01*
X31690475Y-31954819D02*
X31499999Y-31954819D01*
X31499999Y-31954819D02*
X31404761Y-32002438D01*
X31404761Y-32002438D02*
X31309523Y-32097676D01*
X31309523Y-32097676D02*
X31261904Y-32288152D01*
X31261904Y-32288152D02*
X31261904Y-32621485D01*
X31261904Y-32621485D02*
X31309523Y-32811961D01*
X31309523Y-32811961D02*
X31404761Y-32907200D01*
X31404761Y-32907200D02*
X31499999Y-32954819D01*
X31499999Y-32954819D02*
X31690475Y-32954819D01*
X31690475Y-32954819D02*
X31785713Y-32907200D01*
X31785713Y-32907200D02*
X31880951Y-32811961D01*
X31880951Y-32811961D02*
X31928570Y-32621485D01*
X31928570Y-32621485D02*
X31928570Y-32288152D01*
X31928570Y-32288152D02*
X31880951Y-32097676D01*
X31880951Y-32097676D02*
X31785713Y-32002438D01*
X31785713Y-32002438D02*
X31690475Y-31954819D01*
X30833332Y-32954819D02*
X30833332Y-31954819D01*
X30833332Y-31954819D02*
X30452380Y-31954819D01*
X30452380Y-31954819D02*
X30357142Y-32002438D01*
X30357142Y-32002438D02*
X30309523Y-32050057D01*
X30309523Y-32050057D02*
X30261904Y-32145295D01*
X30261904Y-32145295D02*
X30261904Y-32288152D01*
X30261904Y-32288152D02*
X30309523Y-32383390D01*
X30309523Y-32383390D02*
X30357142Y-32431009D01*
X30357142Y-32431009D02*
X30452380Y-32478628D01*
X30452380Y-32478628D02*
X30833332Y-32478628D01*
X29833332Y-32573866D02*
X29071428Y-32573866D01*
X28071428Y-32954819D02*
X28642856Y-32954819D01*
X28357142Y-32954819D02*
X28357142Y-31954819D01*
X28357142Y-31954819D02*
X28452380Y-32097676D01*
X28452380Y-32097676D02*
X28547618Y-32192914D01*
X28547618Y-32192914D02*
X28642856Y-32240533D01*
X27214285Y-31954819D02*
X27404761Y-31954819D01*
X27404761Y-31954819D02*
X27499999Y-32002438D01*
X27499999Y-32002438D02*
X27547618Y-32050057D01*
X27547618Y-32050057D02*
X27642856Y-32192914D01*
X27642856Y-32192914D02*
X27690475Y-32383390D01*
X27690475Y-32383390D02*
X27690475Y-32764342D01*
X27690475Y-32764342D02*
X27642856Y-32859580D01*
X27642856Y-32859580D02*
X27595237Y-32907200D01*
X27595237Y-32907200D02*
X27499999Y-32954819D01*
X27499999Y-32954819D02*
X27309523Y-32954819D01*
X27309523Y-32954819D02*
X27214285Y-32907200D01*
X27214285Y-32907200D02*
X27166666Y-32859580D01*
X27166666Y-32859580D02*
X27119047Y-32764342D01*
X27119047Y-32764342D02*
X27119047Y-32526247D01*
X27119047Y-32526247D02*
X27166666Y-32431009D01*
X27166666Y-32431009D02*
X27214285Y-32383390D01*
X27214285Y-32383390D02*
X27309523Y-32335771D01*
X27309523Y-32335771D02*
X27499999Y-32335771D01*
X27499999Y-32335771D02*
X27595237Y-32383390D01*
X27595237Y-32383390D02*
X27642856Y-32431009D01*
X27642856Y-32431009D02*
X27690475Y-32526247D01*
D10*
D11*
X110166666Y-49954819D02*
X110642856Y-49954819D01*
X110642856Y-49954819D02*
X110642856Y-48954819D01*
X109309523Y-49954819D02*
X109880951Y-49954819D01*
X109595237Y-49954819D02*
X109595237Y-48954819D01*
X109595237Y-48954819D02*
X109690475Y-49097676D01*
X109690475Y-49097676D02*
X109785713Y-49192914D01*
X109785713Y-49192914D02*
X109880951Y-49240533D01*
D10*
D11*
X114214285Y-55907200D02*
X114071428Y-55954819D01*
X114071428Y-55954819D02*
X113833333Y-55954819D01*
X113833333Y-55954819D02*
X113738095Y-55907200D01*
X113738095Y-55907200D02*
X113690476Y-55859580D01*
X113690476Y-55859580D02*
X113642857Y-55764342D01*
X113642857Y-55764342D02*
X113642857Y-55669104D01*
X113642857Y-55669104D02*
X113690476Y-55573866D01*
X113690476Y-55573866D02*
X113738095Y-55526247D01*
X113738095Y-55526247D02*
X113833333Y-55478628D01*
X113833333Y-55478628D02*
X114023809Y-55431009D01*
X114023809Y-55431009D02*
X114119047Y-55383390D01*
X114119047Y-55383390D02*
X114166666Y-55335771D01*
X114166666Y-55335771D02*
X114214285Y-55240533D01*
X114214285Y-55240533D02*
X114214285Y-55145295D01*
X114214285Y-55145295D02*
X114166666Y-55050057D01*
X114166666Y-55050057D02*
X114119047Y-55002438D01*
X114119047Y-55002438D02*
X114023809Y-54954819D01*
X114023809Y-54954819D02*
X113785714Y-54954819D01*
X113785714Y-54954819D02*
X113642857Y-55002438D01*
X113214285Y-55954819D02*
X113214285Y-54954819D01*
X113214285Y-54954819D02*
X112880952Y-55669104D01*
X112880952Y-55669104D02*
X112547619Y-54954819D01*
X112547619Y-54954819D02*
X112547619Y-55954819D01*
X112071428Y-55954819D02*
X112071428Y-54954819D01*
X112071428Y-54954819D02*
X111833333Y-54954819D01*
X111833333Y-54954819D02*
X111690476Y-55002438D01*
X111690476Y-55002438D02*
X111595238Y-55097676D01*
X111595238Y-55097676D02*
X111547619Y-55192914D01*
X111547619Y-55192914D02*
X111500000Y-55383390D01*
X111500000Y-55383390D02*
X111500000Y-55526247D01*
X111500000Y-55526247D02*
X111547619Y-55716723D01*
X111547619Y-55716723D02*
X111595238Y-55811961D01*
X111595238Y-55811961D02*
X111690476Y-55907200D01*
X111690476Y-55907200D02*
X111833333Y-55954819D01*
X111833333Y-55954819D02*
X112071428Y-55954819D01*
X111071428Y-55573866D02*
X110309524Y-55573866D01*
X109404762Y-55288152D02*
X109404762Y-55954819D01*
X109642857Y-54907200D02*
X109880952Y-55621485D01*
X109880952Y-55621485D02*
X109261905Y-55621485D01*
X108976190Y-55954819D02*
X108452381Y-55288152D01*
X108976190Y-55288152D02*
X108452381Y-55954819D01*
X107642857Y-55288152D02*
X107642857Y-55954819D01*
X107880952Y-54907200D02*
X108119047Y-55621485D01*
X108119047Y-55621485D02*
X107500000Y-55621485D01*
X107214285Y-55954819D02*
X106690476Y-55288152D01*
X107214285Y-55288152D02*
X106690476Y-55954819D01*
X106357142Y-55050057D02*
X106309523Y-55002438D01*
X106309523Y-55002438D02*
X106214285Y-54954819D01*
X106214285Y-54954819D02*
X105976190Y-54954819D01*
X105976190Y-54954819D02*
X105880952Y-55002438D01*
X105880952Y-55002438D02*
X105833333Y-55050057D01*
X105833333Y-55050057D02*
X105785714Y-55145295D01*
X105785714Y-55145295D02*
X105785714Y-55240533D01*
X105785714Y-55240533D02*
X105833333Y-55383390D01*
X105833333Y-55383390D02*
X106404761Y-55954819D01*
X106404761Y-55954819D02*
X105785714Y-55954819D01*
D10*
D11*
X80333333Y-48954819D02*
X80333333Y-49669104D01*
X80333333Y-49669104D02*
X80380952Y-49811961D01*
X80380952Y-49811961D02*
X80476190Y-49907200D01*
X80476190Y-49907200D02*
X80619047Y-49954819D01*
X80619047Y-49954819D02*
X80714285Y-49954819D01*
X79952380Y-48954819D02*
X79333333Y-48954819D01*
X79333333Y-48954819D02*
X79666666Y-49335771D01*
X79666666Y-49335771D02*
X79523809Y-49335771D01*
X79523809Y-49335771D02*
X79428571Y-49383390D01*
X79428571Y-49383390D02*
X79380952Y-49431009D01*
X79380952Y-49431009D02*
X79333333Y-49526247D01*
X79333333Y-49526247D02*
X79333333Y-49764342D01*
X79333333Y-49764342D02*
X79380952Y-49859580D01*
X79380952Y-49859580D02*
X79428571Y-49907200D01*
X79428571Y-49907200D02*
X79523809Y-49954819D01*
X79523809Y-49954819D02*
X79809523Y-49954819D01*
X79809523Y-49954819D02*
X79904761Y-49907200D01*
X79904761Y-49907200D02*
X79952380Y-49859580D01*
D10*
D11*
X83952380Y-54954819D02*
X83952380Y-55669104D01*
X83952380Y-55669104D02*
X83999999Y-55811961D01*
X83999999Y-55811961D02*
X84095237Y-55907200D01*
X84095237Y-55907200D02*
X84238094Y-55954819D01*
X84238094Y-55954819D02*
X84333332Y-55954819D01*
X83523808Y-55907200D02*
X83380951Y-55954819D01*
X83380951Y-55954819D02*
X83142856Y-55954819D01*
X83142856Y-55954819D02*
X83047618Y-55907200D01*
X83047618Y-55907200D02*
X82999999Y-55859580D01*
X82999999Y-55859580D02*
X82952380Y-55764342D01*
X82952380Y-55764342D02*
X82952380Y-55669104D01*
X82952380Y-55669104D02*
X82999999Y-55573866D01*
X82999999Y-55573866D02*
X83047618Y-55526247D01*
X83047618Y-55526247D02*
X83142856Y-55478628D01*
X83142856Y-55478628D02*
X83333332Y-55431009D01*
X83333332Y-55431009D02*
X83428570Y-55383390D01*
X83428570Y-55383390D02*
X83476189Y-55335771D01*
X83476189Y-55335771D02*
X83523808Y-55240533D01*
X83523808Y-55240533D02*
X83523808Y-55145295D01*
X83523808Y-55145295D02*
X83476189Y-55050057D01*
X83476189Y-55050057D02*
X83428570Y-55002438D01*
X83428570Y-55002438D02*
X83333332Y-54954819D01*
X83333332Y-54954819D02*
X83095237Y-54954819D01*
X83095237Y-54954819D02*
X82952380Y-55002438D01*
X82666665Y-54954819D02*
X82095237Y-54954819D01*
X82380951Y-55954819D02*
X82380951Y-54954819D01*
X81761903Y-55573866D02*
X80999999Y-55573866D01*
X80523808Y-55954819D02*
X80523808Y-54954819D01*
X80523808Y-54954819D02*
X80142856Y-54954819D01*
X80142856Y-54954819D02*
X80047618Y-55002438D01*
X80047618Y-55002438D02*
X79999999Y-55050057D01*
X79999999Y-55050057D02*
X79952380Y-55145295D01*
X79952380Y-55145295D02*
X79952380Y-55288152D01*
X79952380Y-55288152D02*
X79999999Y-55383390D01*
X79999999Y-55383390D02*
X80047618Y-55431009D01*
X80047618Y-55431009D02*
X80142856Y-55478628D01*
X80142856Y-55478628D02*
X80523808Y-55478628D01*
X79523808Y-55954819D02*
X79523808Y-54954819D01*
X79523808Y-55431009D02*
X78952380Y-55431009D01*
X78952380Y-55954819D02*
X78952380Y-54954819D01*
X78476189Y-55573866D02*
X77714285Y-55573866D01*
X77285713Y-55050057D02*
X77238094Y-55002438D01*
X77238094Y-55002438D02*
X77142856Y-54954819D01*
X77142856Y-54954819D02*
X76904761Y-54954819D01*
X76904761Y-54954819D02*
X76809523Y-55002438D01*
X76809523Y-55002438D02*
X76761904Y-55050057D01*
X76761904Y-55050057D02*
X76714285Y-55145295D01*
X76714285Y-55145295D02*
X76714285Y-55240533D01*
X76714285Y-55240533D02*
X76761904Y-55383390D01*
X76761904Y-55383390D02*
X77333332Y-55954819D01*
X77333332Y-55954819D02*
X76714285Y-55954819D01*
X76285713Y-55954819D02*
X76285713Y-54954819D01*
X76285713Y-54954819D02*
X75904761Y-54954819D01*
X75904761Y-54954819D02*
X75809523Y-55002438D01*
X75809523Y-55002438D02*
X75761904Y-55050057D01*
X75761904Y-55050057D02*
X75714285Y-55145295D01*
X75714285Y-55145295D02*
X75714285Y-55288152D01*
X75714285Y-55288152D02*
X75761904Y-55383390D01*
X75761904Y-55383390D02*
X75809523Y-55431009D01*
X75809523Y-55431009D02*
X75904761Y-55478628D01*
X75904761Y-55478628D02*
X76285713Y-55478628D01*
D12*
%TO.P,,*%
%TO.N,*%
X10000000Y-7000000D03*
%TD*%
%TO.P,,*%
%TO.N,*%
X150000000Y-7000000D03*
%TD*%
%TO.P,,*%
%TO.N,*%
X10000000Y-68000000D03*
%TD*%
%TO.P,,*%
%TO.N,*%
X150000000Y-68000000D03*
%TD*%
%TO.P,,*%
%TO.N,*%
X55000000Y-37500000D03*
%TD*%
%TO.P,,*%
%TO.N,*%
X105000000Y-37500000D03*
%TD*%
D13*
%TO.P,U1,1*%
%TO.N,N/C*%
X71400000Y-16070000D03*
%TO.P,U1,2*%
X71400000Y-17340000D03*
%TO.P,U1,3*%
X71400000Y-18610000D03*
%TO.P,U1,4*%
X71400000Y-19880000D03*
%TO.P,U1,5*%
X71400000Y-21150000D03*
%TO.P,U1,6*%
X71400000Y-22420000D03*
%TO.P,U1,7*%
X71400000Y-23690000D03*
%TO.P,U1,8*%
X71400000Y-24960000D03*
%TO.P,U1,9*%
X71400000Y-26230000D03*
%TO.P,U1,10*%
X71400000Y-27500000D03*
%TO.P,U1,11*%
X71400000Y-28770000D03*
%TO.P,U1,12*%
X71400000Y-30040000D03*
%TO.P,U1,13*%
X71400000Y-31310000D03*
%TO.P,U1,14*%
X71400000Y-32580000D03*
%TO.P,U1,15*%
X71400000Y-33850000D03*
%TO.P,U1,16*%
X71400000Y-35120000D03*
%TO.P,U1,17*%
X71400000Y-36390000D03*
%TO.P,U1,18*%
X71400000Y-37660000D03*
%TO.P,U1,19*%
X71400000Y-38930000D03*
%TO.P,U1,39*%
X88600000Y-16070000D03*
%TO.P,U1,38*%
X88600000Y-17340000D03*
%TO.P,U1,37*%
X88600000Y-18610000D03*
%TO.P,U1,36*%
X88600000Y-19880000D03*
%TO.P,U1,35*%
X88600000Y-21150000D03*
%TO.P,U1,34*%
X88600000Y-22420000D03*
%TO.P,U1,33*%
X88600000Y-23690000D03*
%TO.P,U1,32*%
X88600000Y-24960000D03*
%TO.P,U1,31*%
X88600000Y-26230000D03*
%TO.P,U1,30*%
X88600000Y-27500000D03*
%TO.P,U1,29*%
X88600000Y-28770000D03*
%TO.P,U1,28*%
X88600000Y-30040000D03*
%TO.P,U1,27*%
X88600000Y-31310000D03*
%TO.P,U1,26*%
X88600000Y-32580000D03*
%TO.P,U1,25*%
X88600000Y-33850000D03*
%TO.P,U1,24*%
X88600000Y-35120000D03*
%TO.P,U1,23*%
X88600000Y-36390000D03*
%TO.P,U1,22*%
X88600000Y-37660000D03*
%TO.P,U1,21*%
X88600000Y-38930000D03*
%TO.P,U1,20*%
X88600000Y-40200000D03*
D14*
%TO.P,U1,40*%
X78730000Y-40500000D03*
%TO.P,U1,41*%
X81270000Y-40500000D03*
D15*
%TO.P,U1,GND*%
X80000000Y-32500000D03*
%TD*%
D16*
%TO.P,SW11,1*%
%TO.N,N/C*%
X13150000Y-5250000D03*
%TO.P,SW11,2*%
X16850000Y-5250000D03*
%TO.P,SW11,3*%
X13150000Y250000D03*
%TO.P,SW11,4*%
X16850000Y250000D03*
%TD*%
%TO.P,SW12,1*%
%TO.N,N/C*%
X143150000Y-5250000D03*
%TO.P,SW12,2*%
X146850000Y-5250000D03*
%TO.P,SW12,3*%
X143150000Y250000D03*
%TO.P,SW12,4*%
X146850000Y250000D03*
%TD*%
D17*
%TO.P,J4,1*%
%TO.N,N/C*%
X135000000Y-45250000D03*
%TO.P,J4,2*%
X135000000Y-44750000D03*
%TO.P,J4,3*%
X135000000Y-44250000D03*
%TO.P,J4,4*%
X135000000Y-43750000D03*
%TO.P,J4,5*%
X135000000Y-43250000D03*
%TO.P,J4,6*%
X135000000Y-42750000D03*
%TO.P,J4,7*%
X135000000Y-42250000D03*
%TO.P,J4,8*%
X135000000Y-41750000D03*
%TO.P,J4,9*%
X135000000Y-41250000D03*
%TO.P,J4,10*%
X135000000Y-40750000D03*
%TO.P,J4,11*%
X135000000Y-40250000D03*
%TO.P,J4,12*%
X135000000Y-39750000D03*
%TO.P,J4,13*%
X135000000Y-39250000D03*
%TO.P,J4,14*%
X135000000Y-38750000D03*
%TO.P,J4,15*%
X135000000Y-38250000D03*
%TO.P,J4,16*%
X135000000Y-37750000D03*
%TO.P,J4,17*%
X135000000Y-37250000D03*
%TO.P,J4,18*%
X135000000Y-36750000D03*
%TO.P,J4,19*%
X135000000Y-36250000D03*
%TO.P,J4,20*%
X135000000Y-35750000D03*
%TO.P,J4,21*%
X135000000Y-35250000D03*
%TO.P,J4,22*%
X135000000Y-34750000D03*
%TO.P,J4,23*%
X135000000Y-34250000D03*
%TO.P,J4,24*%
X135000000Y-33750000D03*
%TO.P,J4,25*%
X135000000Y-33250000D03*
%TO.P,J4,26*%
X135000000Y-32750000D03*
%TO.P,J4,27*%
X135000000Y-32250000D03*
%TO.P,J4,28*%
X135000000Y-31750000D03*
%TO.P,J4,29*%
X135000000Y-31250000D03*
%TO.P,J4,30*%
X135000000Y-30750000D03*
%TO.P,J4,31*%
X135000000Y-30250000D03*
%TO.P,J4,32*%
X135000000Y-29750000D03*
%TO.P,J4,33*%
X135000000Y-29250000D03*
%TO.P,J4,34*%
X135000000Y-28750000D03*
%TO.P,J4,35*%
X135000000Y-28250000D03*
%TO.P,J4,36*%
X135000000Y-27750000D03*
%TO.P,J4,37*%
X135000000Y-27250000D03*
%TO.P,J4,38*%
X135000000Y-26750000D03*
%TO.P,J4,39*%
X135000000Y-26250000D03*
%TO.P,J4,40*%
X135000000Y-25750000D03*
D18*
%TO.P,J4,MP1*%
X135000000Y-47500000D03*
%TO.P,J4,MP2*%
X135000000Y-23500000D03*
%TD*%
D19*
%TO.P,J1,A1*%
%TO.N,N/C*%
X78250000Y-68800000D03*
%TO.P,J1,A4*%
X78750000Y-68800000D03*
%TO.P,J1,A5*%
X79250000Y-68800000D03*
%TO.P,J1,A6*%
X79750000Y-68800000D03*
%TO.P,J1,A7*%
X80250000Y-68800000D03*
%TO.P,J1,A8*%
X80750000Y-68800000D03*
%TO.P,J1,A9*%
X81250000Y-68800000D03*
%TO.P,J1,A12*%
X81750000Y-68800000D03*
%TO.P,J1,B12*%
X78250000Y-69800000D03*
%TO.P,J1,B9*%
X78750000Y-69800000D03*
%TO.P,J1,B8*%
X79250000Y-69800000D03*
%TO.P,J1,B7*%
X79750000Y-69800000D03*
%TO.P,J1,B6*%
X80250000Y-69800000D03*
%TO.P,J1,B5*%
X80750000Y-69800000D03*
%TO.P,J1,B4*%
X81250000Y-69800000D03*
%TO.P,J1,B1*%
X81750000Y-69800000D03*
D20*
%TO.P,J1,S*%
X75680000Y-70500000D03*
X84320000Y-70500000D03*
X75680000Y-73500000D03*
X84320000Y-73500000D03*
%TD*%
D21*
%TO.P,U6,1*%
%TO.N,N/C*%
X135600000Y-60200000D03*
%TO.P,U6,2*%
X136700000Y-60200000D03*
%TO.P,U6,3*%
X137800000Y-60200000D03*
%TO.P,U6,4*%
X138900000Y-60200000D03*
%TO.P,U6,5*%
X140000000Y-60200000D03*
%TO.P,U6,6*%
X141100000Y-60200000D03*
%TO.P,U6,7*%
X142200000Y-60200000D03*
%TO.P,U6,8*%
X143300000Y-60200000D03*
%TO.P,U6,9*%
X144400000Y-60200000D03*
D22*
%TO.P,U6,S*%
X133000000Y-66000000D03*
X147000000Y-66000000D03*
X133000000Y-73500000D03*
X147000000Y-73500000D03*
%TD*%
D23*
%TO.P,SW_PWR,1*%
%TO.N,N/C*%
X5500000Y-22500000D03*
%TO.P,SW_PWR,2*%
X8000000Y-22500000D03*
%TO.P,SW_PWR,3*%
X10500000Y-22500000D03*
%TD*%
D24*
%TO.P,SPK1,1*%
%TO.N,N/C*%
X20500000Y-52500000D03*
%TO.P,SPK1,2*%
X39500000Y-52500000D03*
%TD*%
D25*
%TO.P,U2,1*%
%TO.N,N/C*%
X107000000Y-40595000D03*
%TO.P,U2,2*%
X107000000Y-41865000D03*
%TO.P,U2,3*%
X107000000Y-43135000D03*
%TO.P,U2,4*%
X107000000Y-44405000D03*
%TO.P,U2,5*%
X113000000Y-44405000D03*
%TO.P,U2,6*%
X113000000Y-43135000D03*
%TO.P,U2,7*%
X113000000Y-41865000D03*
%TO.P,U2,8*%
X113000000Y-40595000D03*
D26*
%TO.P,U2,EP*%
X110000000Y-42500000D03*
%TD*%
D27*
%TO.P,U3,1*%
%TO.N,N/C*%
X122700000Y-58650000D03*
%TO.P,U3,2*%
X125000000Y-58650000D03*
%TO.P,U3,3*%
X127300000Y-58650000D03*
D28*
%TO.P,U3,4*%
X125000000Y-52350000D03*
%TD*%
D25*
%TO.P,U5,1*%
%TO.N,N/C*%
X25100000Y-25055000D03*
%TO.P,U5,2*%
X25100000Y-26325000D03*
%TO.P,U5,3*%
X25100000Y-27595000D03*
%TO.P,U5,4*%
X25100000Y-28865000D03*
%TO.P,U5,5*%
X25100000Y-30135000D03*
%TO.P,U5,6*%
X25100000Y-31405000D03*
%TO.P,U5,7*%
X25100000Y-32675000D03*
%TO.P,U5,8*%
X25100000Y-33945000D03*
%TO.P,U5,9*%
X34900000Y-33945000D03*
%TO.P,U5,10*%
X34900000Y-32675000D03*
%TO.P,U5,11*%
X34900000Y-31405000D03*
%TO.P,U5,12*%
X34900000Y-30135000D03*
%TO.P,U5,13*%
X34900000Y-28865000D03*
%TO.P,U5,14*%
X34900000Y-27595000D03*
%TO.P,U5,15*%
X34900000Y-26325000D03*
%TO.P,U5,16*%
X34900000Y-25055000D03*
%TD*%
D29*
%TO.P,L1,1*%
%TO.N,N/C*%
X108300000Y-52500000D03*
%TO.P,L1,2*%
X111700000Y-52500000D03*
%TD*%
D23*
%TO.P,J3,1*%
%TO.N,N/C*%
X79000000Y-52500000D03*
%TO.P,J3,2*%
X81000000Y-52500000D03*
%TD*%
D30*
%TO.N,+3V3*%
X22000000Y-23500000D03*
X22000000Y-41500000D03*
X13000000Y-32500000D03*
X31000000Y-32500000D03*
X138000000Y-22500000D03*
X148000000Y-32500000D03*
X138000000Y-42500000D03*
X129600000Y-32500000D03*
X12000000Y-54500000D03*
X32000000Y-54500000D03*
X142000000Y-58500000D03*
X24000000Y-65500000D03*
%TO.N,GND*%
X26000000Y-65500000D03*
%TO.N,+3V3*%
X31000000Y-65500000D03*
%TO.N,GND*%
X33000000Y-65500000D03*
%TD*%
D31*
%TO.N,+3V3*%
X83000000Y-72000000D02*
X83000000Y-47500000D01*
X83000000Y-47500000D02*
X107000000Y-47500000D01*
X107000000Y-47500000D02*
X107000000Y-45500000D01*
X77000000Y-72000000D02*
X77000000Y-49500000D01*
X77000000Y-49500000D02*
X113000000Y-49500000D01*
X113000000Y-49500000D02*
X113000000Y-45500000D01*
X110000000Y-45500000D02*
X110000000Y-52500000D01*
X110000000Y-52500000D02*
X110000000Y-52500000D01*
X113000000Y-42500000D02*
X113000000Y-55500000D01*
X113000000Y-55500000D02*
X122000000Y-55500000D01*
X115000000Y-42500000D02*
X115000000Y-57500000D01*
X115000000Y-57500000D02*
X122000000Y-57500000D01*
D32*
X125000000Y-52500000D02*
X123000000Y-52500000D01*
X123000000Y-52500000D02*
X123000000Y-22500000D01*
X123000000Y-22500000D02*
X91000000Y-22500000D01*
D31*
X106000000Y-45500000D02*
X106000000Y-52500000D01*
X106000000Y-52500000D02*
X82000000Y-52500000D01*
X104000000Y-45500000D02*
X104000000Y-54500000D01*
X104000000Y-54500000D02*
X78000000Y-54500000D01*
X8000000Y-22500000D02*
X8000000Y-47500000D01*
X8000000Y-47500000D02*
X75000000Y-47500000D01*
D33*
X71000000Y-21150000D02*
X58000000Y-21150000D01*
X58000000Y-21150000D02*
X58000000Y-10000000D01*
X58000000Y-10000000D02*
X129500000Y-10000000D01*
X129500000Y-10000000D02*
X129500000Y-30750000D01*
X129500000Y-30750000D02*
X135000000Y-30750000D01*
X71000000Y-22420000D02*
X59000000Y-22420000D01*
X59000000Y-22420000D02*
X59000000Y-10500000D01*
X59000000Y-10500000D02*
X129900000Y-10500000D01*
X129900000Y-10500000D02*
X129900000Y-31250000D01*
X129900000Y-31250000D02*
X135000000Y-31250000D01*
X71000000Y-23690000D02*
X60000000Y-23690000D01*
X60000000Y-23690000D02*
X60000000Y-11000000D01*
X60000000Y-11000000D02*
X130300000Y-11000000D01*
X130300000Y-11000000D02*
X130300000Y-31750000D01*
X130300000Y-31750000D02*
X135000000Y-31750000D01*
X71000000Y-24960000D02*
X61000000Y-24960000D01*
X61000000Y-24960000D02*
X61000000Y-11500000D01*
X61000000Y-11500000D02*
X130700000Y-11500000D01*
X130700000Y-11500000D02*
X130700000Y-32250000D01*
X130700000Y-32250000D02*
X135000000Y-32250000D01*
X71000000Y-32580000D02*
X62000000Y-32580000D01*
X62000000Y-32580000D02*
X62000000Y-12000000D01*
X62000000Y-12000000D02*
X131100000Y-12000000D01*
X131100000Y-12000000D02*
X131100000Y-32750000D01*
X131100000Y-32750000D02*
X135000000Y-32750000D01*
X71000000Y-40200000D02*
X63000000Y-40200000D01*
X63000000Y-40200000D02*
X63000000Y-12500000D01*
X63000000Y-12500000D02*
X131500000Y-12500000D01*
X131500000Y-12500000D02*
X131500000Y-33250000D01*
X131500000Y-33250000D02*
X135000000Y-33250000D01*
X71000000Y-41470000D02*
X64000000Y-41470000D01*
X64000000Y-41470000D02*
X64000000Y-13000000D01*
X64000000Y-13000000D02*
X131900000Y-13000000D01*
X131900000Y-13000000D02*
X131900000Y-33750000D01*
X131900000Y-33750000D02*
X135000000Y-33750000D01*
X71000000Y-42740000D02*
X65000000Y-42740000D01*
X65000000Y-42740000D02*
X65000000Y-13500000D01*
X65000000Y-13500000D02*
X132300000Y-13500000D01*
X132300000Y-13500000D02*
X132300000Y-34250000D01*
X132300000Y-34250000D02*
X135000000Y-34250000D01*
X89000000Y-22420000D02*
X91000000Y-22420000D01*
X91000000Y-22420000D02*
X91000000Y-14500000D01*
X91000000Y-14500000D02*
X132700000Y-14500000D01*
X132700000Y-14500000D02*
X132700000Y-28250000D01*
X132700000Y-28250000D02*
X135000000Y-28250000D01*
X89000000Y-21150000D02*
X91500000Y-21150000D01*
X91500000Y-21150000D02*
X91500000Y-15000000D01*
X91500000Y-15000000D02*
X133100000Y-15000000D01*
X133100000Y-15000000D02*
X133100000Y-28750000D01*
X133100000Y-28750000D02*
X135000000Y-28750000D01*
X89000000Y-23690000D02*
X92000000Y-23690000D01*
X92000000Y-23690000D02*
X92000000Y-15500000D01*
X92000000Y-15500000D02*
X133500000Y-15500000D01*
X133500000Y-15500000D02*
X133500000Y-29250000D01*
X133500000Y-29250000D02*
X135000000Y-29250000D01*
X71000000Y-38930000D02*
X70000000Y-38930000D01*
X70000000Y-38930000D02*
X70000000Y-16000000D01*
X70000000Y-16000000D02*
X133900000Y-16000000D01*
X133900000Y-16000000D02*
X133900000Y-29750000D01*
X133900000Y-29750000D02*
X135000000Y-29750000D01*
X71000000Y-37660000D02*
X71000000Y-37660000D01*
X71000000Y-37660000D02*
X71000000Y-16500000D01*
X71000000Y-16500000D02*
X134300000Y-16500000D01*
X134300000Y-16500000D02*
X134300000Y-30250000D01*
X134300000Y-30250000D02*
X135000000Y-30250000D01*
X89000000Y-28770000D02*
X93500000Y-28770000D01*
X93500000Y-28770000D02*
X93500000Y-17000000D01*
X93500000Y-17000000D02*
X134700000Y-17000000D01*
X134700000Y-17000000D02*
X134700000Y-26750000D01*
X134700000Y-26750000D02*
X135000000Y-26750000D01*
D34*
X135000000Y-42250000D02*
X138000000Y-42250000D01*
X135000000Y-25750000D02*
X138000000Y-25750000D01*
X135000000Y-26250000D02*
X138000000Y-26250000D01*
D33*
X89000000Y-32580000D02*
X92000000Y-32580000D01*
X92000000Y-32580000D02*
X92000000Y-49500000D01*
X92000000Y-49500000D02*
X135600000Y-49500000D01*
X135600000Y-49500000D02*
X135600000Y-60200000D01*
X89000000Y-33850000D02*
X93000000Y-33850000D01*
X93000000Y-33850000D02*
X93000000Y-50000000D01*
X93000000Y-50000000D02*
X136700000Y-50000000D01*
X136700000Y-50000000D02*
X136700000Y-60200000D01*
X89000000Y-35120000D02*
X94000000Y-35120000D01*
X94000000Y-35120000D02*
X94000000Y-50500000D01*
X94000000Y-50500000D02*
X137800000Y-50500000D01*
X137800000Y-50500000D02*
X137800000Y-60200000D01*
X89000000Y-36390000D02*
X95000000Y-36390000D01*
X95000000Y-36390000D02*
X95000000Y-51000000D01*
X95000000Y-51000000D02*
X138900000Y-51000000D01*
X138900000Y-51000000D02*
X138900000Y-60200000D01*
X71000000Y-27500000D02*
X68000000Y-27500000D01*
X68000000Y-27500000D02*
X23100000Y-27500000D01*
X23100000Y-27500000D02*
X23100000Y-27500000D01*
X23100000Y-27500000D02*
X25100000Y-27500000D01*
X71000000Y-28770000D02*
X68000000Y-28770000D01*
X68000000Y-28770000D02*
X23100000Y-28770000D01*
X23100000Y-28770000D02*
X23100000Y-28770000D01*
X23100000Y-28770000D02*
X25100000Y-28770000D01*
X71000000Y-30040000D02*
X68000000Y-30040000D01*
X68000000Y-30040000D02*
X23100000Y-30040000D01*
X23100000Y-30040000D02*
X23100000Y-30040000D01*
X23100000Y-30040000D02*
X25100000Y-30040000D01*
D34*
X34900000Y-28500000D02*
X39500000Y-28500000D01*
X39500000Y-28500000D02*
X39500000Y-52500000D01*
X34900000Y-30500000D02*
X20500000Y-30500000D01*
X20500000Y-30500000D02*
X20500000Y-52500000D01*
D33*
X79500000Y-69000000D02*
X79500000Y-54195000D01*
X79500000Y-54195000D02*
X69000000Y-54195000D01*
X69000000Y-54195000D02*
X69000000Y-36390000D01*
X69000000Y-36390000D02*
X71000000Y-36390000D01*
X80500000Y-69000000D02*
X80500000Y-54695000D01*
X80500000Y-54695000D02*
X68500000Y-54695000D01*
X68500000Y-54695000D02*
X68500000Y-35120000D01*
X68500000Y-35120000D02*
X71000000Y-35120000D01*
D35*
%TO.N,GND*%
X73000000Y-67000000D02*
X73000000Y-70000000D01*
X87000000Y-67000000D02*
X87000000Y-70000000D01*
%TO.N,+3V3*%
X22000000Y-23500000D02*
X89000000Y-23500000D01*
X89000000Y-23500000D02*
X89000000Y-37660000D01*
X22000000Y-41500000D02*
X89000000Y-41500000D01*
X89000000Y-41500000D02*
X89000000Y-38930000D01*
X13000000Y-32500000D02*
X89000000Y-32500000D01*
X89000000Y-32500000D02*
X89000000Y-40200000D01*
X31000000Y-32500000D02*
X89000000Y-32500000D01*
X89000000Y-32500000D02*
X89000000Y-42740000D01*
X138000000Y-22500000D02*
X89000000Y-22500000D01*
X89000000Y-22500000D02*
X89000000Y-44010000D01*
X148000000Y-32500000D02*
X148000000Y-7000000D01*
X148000000Y-7000000D02*
X53000000Y-7000000D01*
X53000000Y-7000000D02*
X53000000Y-27500000D01*
X53000000Y-27500000D02*
X89000000Y-27500000D01*
X138000000Y-42500000D02*
X138000000Y-6000000D01*
X138000000Y-6000000D02*
X51500000Y-6000000D01*
X51500000Y-6000000D02*
X51500000Y-26230000D01*
X51500000Y-26230000D02*
X89000000Y-26230000D01*
X129600000Y-32500000D02*
X129600000Y-5000000D01*
X129600000Y-5000000D02*
X50000000Y-5000000D01*
X50000000Y-5000000D02*
X50000000Y-24960000D01*
X50000000Y-24960000D02*
X89000000Y-24960000D01*
X12000000Y-54500000D02*
X71000000Y-54500000D01*
X71000000Y-54500000D02*
X71000000Y-31310000D01*
X32000000Y-54500000D02*
X89000000Y-54500000D01*
X89000000Y-54500000D02*
X89000000Y-30040000D01*
X142000000Y-58500000D02*
X89000000Y-58500000D01*
X89000000Y-58500000D02*
X89000000Y-32500000D01*
X15000000Y-2500000D02*
X15000000Y-31310000D01*
X15000000Y-31310000D02*
X89000000Y-31310000D01*
X145000000Y-2500000D02*
X71000000Y-2500000D01*
X71000000Y-2500000D02*
X71000000Y-35120000D01*
D34*
X48000000Y-42000000D02*
X112000000Y-42000000D01*
D35*
X49050000Y-44000000D02*
X49050000Y-42000000D01*
X54050000Y-44000000D02*
X54050000Y-42000000D01*
X59050000Y-44000000D02*
X59050000Y-42000000D01*
X64050000Y-44000000D02*
X64050000Y-42000000D01*
X69050000Y-44000000D02*
X69050000Y-42000000D01*
X74050000Y-44000000D02*
X74050000Y-42000000D01*
X79050000Y-44000000D02*
X79050000Y-42000000D01*
X84050000Y-44000000D02*
X84050000Y-42000000D01*
X89050000Y-44000000D02*
X89050000Y-42000000D01*
X94050000Y-44000000D02*
X94050000Y-42000000D01*
X99050000Y-44000000D02*
X99050000Y-42000000D01*
X104050000Y-44000000D02*
X104050000Y-42000000D01*
X109050000Y-44000000D02*
X109050000Y-42000000D01*
D34*
X48000000Y-50000000D02*
X112000000Y-50000000D01*
D35*
X50950000Y-48000000D02*
X50950000Y-50000000D01*
X55950000Y-48000000D02*
X55950000Y-50000000D01*
X60950000Y-48000000D02*
X60950000Y-50000000D01*
X65950000Y-48000000D02*
X65950000Y-50000000D01*
X70950000Y-48000000D02*
X70950000Y-50000000D01*
X75950000Y-48000000D02*
X75950000Y-50000000D01*
X80950000Y-48000000D02*
X80950000Y-50000000D01*
X85950000Y-48000000D02*
X85950000Y-50000000D01*
X90950000Y-48000000D02*
X90950000Y-50000000D01*
X95950000Y-48000000D02*
X95950000Y-50000000D01*
X100950000Y-48000000D02*
X100950000Y-50000000D01*
X105950000Y-48000000D02*
X105950000Y-50000000D01*
X110950000Y-48000000D02*
X110950000Y-50000000D01*
X50950000Y-44000000D02*
X49050000Y-48000000D01*
X55950000Y-44000000D02*
X54050000Y-48000000D01*
X60950000Y-44000000D02*
X59050000Y-48000000D01*
X65950000Y-44000000D02*
X64050000Y-48000000D01*
X70950000Y-44000000D02*
X69050000Y-48000000D01*
X75950000Y-44000000D02*
X74050000Y-48000000D01*
%TO.N,*%
X80950000Y-44000000D02*
X79050000Y-48000000D01*
%TO.N,+3V3*%
X85950000Y-44000000D02*
X84050000Y-48000000D01*
X90950000Y-44000000D02*
X89050000Y-48000000D01*
X95950000Y-44000000D02*
X94050000Y-48000000D01*
X100950000Y-44000000D02*
X99050000Y-48000000D01*
X105950000Y-44000000D02*
X104050000Y-48000000D01*
X110950000Y-44000000D02*
X109050000Y-48000000D01*
X80000000Y-18000000D02*
X80000000Y-22500000D01*
%TO.N,GND*%
X85000000Y-18000000D02*
X85000000Y-22500000D01*
%TO.N,+3V3*%
X110000000Y-38000000D02*
X110000000Y-38000000D01*
%TO.N,+5V*%
X115000000Y-38000000D02*
X113000000Y-38000000D01*
%TO.N,+3V3*%
X125000000Y-50000000D02*
X125000000Y-50000000D01*
X125000000Y-60000000D02*
X125000000Y-60000000D01*
%TO.N,BAT+*%
X110000000Y-57000000D02*
X110000000Y-57000000D01*
%TO.N,+3V3*%
X115000000Y-52500000D02*
X115000000Y-52500000D01*
X24000000Y-65500000D02*
X25000000Y-64000000D01*
X31000000Y-65500000D02*
X32000000Y-64000000D01*
%TD*%
M02*
