%TF.GenerationSoftware,KiCad,Pcbnew,9.0.7-9.0.7~ubuntu24.04.1*%
%TF.CreationDate,2026-02-12T10:23:16+01:00*%
%TF.ProjectId,esp32-emu-turbo,65737033-322d-4656-9d75-2d747572626f,rev?*%
%TF.SameCoordinates,Original*%
%TF.FileFunction,Paste,Bot*%
%TF.FilePolarity,Positive*%
%FSLAX46Y46*%
G04 Gerber Fmt 4.6, Leading zero omitted, Abs format (unit mm)*
G04 Created by KiCad (PCBNEW 9.0.7-9.0.7~ubuntu24.04.1) date 2026-02-12 10:23:16*
%MOMM*%
%LPD*%
G01*
G04 APERTURE LIST*
%ADD10R,1.800000X0.900000*%
%ADD11R,1.000000X1.800000*%
%ADD12R,10.000000X10.000000*%
%ADD13R,1.600000X1.000000*%
%ADD14R,0.300000X1.200000*%
%ADD15R,1.200000X2.000000*%
%ADD16R,0.300000X1.000000*%
%ADD17R,0.700000X1.800000*%
%ADD18R,1.200000X1.500000*%
%ADD19R,2.000000X3.000000*%
%ADD20R,1.700000X0.600000*%
%ADD21R,3.400000X3.400000*%
%ADD22R,1.000000X1.500000*%
%ADD23R,3.600000X1.800000*%
%ADD24R,1.400000X3.400000*%
G04 APERTURE END LIST*
D10*
%TO.C,U1*%
X71400000Y-16070000D03*
X71400000Y-17340000D03*
X71400000Y-18610000D03*
X71400000Y-19880000D03*
X71400000Y-21150000D03*
X71400000Y-22420000D03*
X71400000Y-23690000D03*
X71400000Y-24960000D03*
X71400000Y-26230000D03*
X71400000Y-27500000D03*
X71400000Y-28770000D03*
X71400000Y-30040000D03*
X71400000Y-31310000D03*
X71400000Y-32580000D03*
X71400000Y-33850000D03*
X71400000Y-35120000D03*
X71400000Y-36390000D03*
X71400000Y-37660000D03*
X71400000Y-38930000D03*
X88600000Y-16070000D03*
X88600000Y-17340000D03*
X88600000Y-18610000D03*
X88600000Y-19880000D03*
X88600000Y-21150000D03*
X88600000Y-22420000D03*
X88600000Y-23690000D03*
X88600000Y-24960000D03*
X88600000Y-26230000D03*
X88600000Y-27500000D03*
X88600000Y-28770000D03*
X88600000Y-30040000D03*
X88600000Y-31310000D03*
X88600000Y-32580000D03*
X88600000Y-33850000D03*
X88600000Y-35120000D03*
X88600000Y-36390000D03*
X88600000Y-37660000D03*
X88600000Y-38930000D03*
X88600000Y-40200000D03*
D11*
X78730000Y-40500000D03*
X81270000Y-40500000D03*
D12*
X80000000Y-32500000D03*
%TD*%
D13*
%TO.C,SW11*%
X13150000Y-5250000D03*
X16850000Y-5250000D03*
X13150000Y250000D03*
X16850000Y250000D03*
%TD*%
%TO.C,SW12*%
X143150000Y-5250000D03*
X146850000Y-5250000D03*
X143150000Y250000D03*
X146850000Y250000D03*
%TD*%
D14*
%TO.C,J4*%
X135000000Y-45250000D03*
X135000000Y-44750000D03*
X135000000Y-44250000D03*
X135000000Y-43750000D03*
X135000000Y-43250000D03*
X135000000Y-42750000D03*
X135000000Y-42250000D03*
X135000000Y-41750000D03*
X135000000Y-41250000D03*
X135000000Y-40750000D03*
X135000000Y-40250000D03*
X135000000Y-39750000D03*
X135000000Y-39250000D03*
X135000000Y-38750000D03*
X135000000Y-38250000D03*
X135000000Y-37750000D03*
X135000000Y-37250000D03*
X135000000Y-36750000D03*
X135000000Y-36250000D03*
X135000000Y-35750000D03*
X135000000Y-35250000D03*
X135000000Y-34750000D03*
X135000000Y-34250000D03*
X135000000Y-33750000D03*
X135000000Y-33250000D03*
X135000000Y-32750000D03*
X135000000Y-32250000D03*
X135000000Y-31750000D03*
X135000000Y-31250000D03*
X135000000Y-30750000D03*
X135000000Y-30250000D03*
X135000000Y-29750000D03*
X135000000Y-29250000D03*
X135000000Y-28750000D03*
X135000000Y-28250000D03*
X135000000Y-27750000D03*
X135000000Y-27250000D03*
X135000000Y-26750000D03*
X135000000Y-26250000D03*
X135000000Y-25750000D03*
D15*
X135000000Y-47500000D03*
X135000000Y-23500000D03*
%TD*%
D16*
%TO.C,J1*%
X78250000Y-68800000D03*
X78750000Y-68800000D03*
X79250000Y-68800000D03*
X79750000Y-68800000D03*
X80250000Y-68800000D03*
X80750000Y-68800000D03*
X81250000Y-68800000D03*
X81750000Y-68800000D03*
X78250000Y-69800000D03*
X78750000Y-69800000D03*
X79250000Y-69800000D03*
X79750000Y-69800000D03*
X80250000Y-69800000D03*
X80750000Y-69800000D03*
X81250000Y-69800000D03*
X81750000Y-69800000D03*
%TD*%
D17*
%TO.C,U6*%
X135600000Y-60200000D03*
X136700000Y-60200000D03*
X137800000Y-60200000D03*
X138900000Y-60200000D03*
X140000000Y-60200000D03*
X141100000Y-60200000D03*
X142200000Y-60200000D03*
X143300000Y-60200000D03*
X144400000Y-60200000D03*
D18*
X133000000Y-66000000D03*
X147000000Y-66000000D03*
X133000000Y-73500000D03*
X147000000Y-73500000D03*
%TD*%
D19*
%TO.C,SPK1*%
X20500000Y-52500000D03*
X39500000Y-52500000D03*
%TD*%
D20*
%TO.C,U2*%
X107000000Y-40595000D03*
X107000000Y-41865000D03*
X107000000Y-43135000D03*
X107000000Y-44405000D03*
X113000000Y-44405000D03*
X113000000Y-43135000D03*
X113000000Y-41865000D03*
X113000000Y-40595000D03*
D21*
X110000000Y-42500000D03*
%TD*%
D22*
%TO.C,U3*%
X122700000Y-58650000D03*
X125000000Y-58650000D03*
X127300000Y-58650000D03*
D23*
X125000000Y-52350000D03*
%TD*%
D20*
%TO.C,U5*%
X25100000Y-25055000D03*
X25100000Y-26325000D03*
X25100000Y-27595000D03*
X25100000Y-28865000D03*
X25100000Y-30135000D03*
X25100000Y-31405000D03*
X25100000Y-32675000D03*
X25100000Y-33945000D03*
X34900000Y-33945000D03*
X34900000Y-32675000D03*
X34900000Y-31405000D03*
X34900000Y-30135000D03*
X34900000Y-28865000D03*
X34900000Y-27595000D03*
X34900000Y-26325000D03*
X34900000Y-25055000D03*
%TD*%
D24*
%TO.C,L1*%
X108300000Y-52500000D03*
X111700000Y-52500000D03*
%TD*%
M02*
