%TF.GenerationSoftware,KiCad,Pcbnew,9.0.7-9.0.7~ubuntu24.04.1*%
%TF.CreationDate,2026-02-12T11:00:31+01:00*%
%TF.ProjectId,esp32-emu-turbo,65737033-322d-4656-9d75-2d747572626f,rev?*%
%TF.SameCoordinates,Original*%
%TF.FileFunction,Legend,Top*%
%TF.FilePolarity,Positive*%
%FSLAX46Y46*%
G04 Gerber Fmt 4.6, Leading zero omitted, Abs format (unit mm)*
G04 Created by KiCad (PCBNEW 9.0.7-9.0.7~ubuntu24.04.1) date 2026-02-12 11:00:31*
%MOMM*%
%LPD*%
G01*
G04 APERTURE LIST*
%ADD10C,0.050000*%
%ADD11C,0.150000*%
G04 APERTURE END LIST*
D10*
X36800000Y-3100000D02*
X123200000Y-3100000D01*
X123200000Y-3100000D02*
X123200000Y-67900000D01*
X123200000Y-67900000D02*
X36800000Y-67900000D01*
X36800000Y-67900000D02*
X36800000Y-3100000D01*
D11*
X68500000Y-554819D02*
X68500000Y445180D01*
X68500000Y445180D02*
X68738095Y445180D01*
X68738095Y445180D02*
X68880952Y397561D01*
X68880952Y397561D02*
X68976190Y302323D01*
X68976190Y302323D02*
X69023809Y207085D01*
X69023809Y207085D02*
X69071428Y16609D01*
X69071428Y16609D02*
X69071428Y-126247D01*
X69071428Y-126247D02*
X69023809Y-316723D01*
X69023809Y-316723D02*
X68976190Y-411961D01*
X68976190Y-411961D02*
X68880952Y-507200D01*
X68880952Y-507200D02*
X68738095Y-554819D01*
X68738095Y-554819D02*
X68500000Y-554819D01*
X69500000Y-554819D02*
X69500000Y445180D01*
X69928571Y-507200D02*
X70071428Y-554819D01*
X70071428Y-554819D02*
X70309523Y-554819D01*
X70309523Y-554819D02*
X70404761Y-507200D01*
X70404761Y-507200D02*
X70452380Y-459580D01*
X70452380Y-459580D02*
X70499999Y-364342D01*
X70499999Y-364342D02*
X70499999Y-269104D01*
X70499999Y-269104D02*
X70452380Y-173866D01*
X70452380Y-173866D02*
X70404761Y-126247D01*
X70404761Y-126247D02*
X70309523Y-78628D01*
X70309523Y-78628D02*
X70119047Y-31009D01*
X70119047Y-31009D02*
X70023809Y16609D01*
X70023809Y16609D02*
X69976190Y64228D01*
X69976190Y64228D02*
X69928571Y159466D01*
X69928571Y159466D02*
X69928571Y254704D01*
X69928571Y254704D02*
X69976190Y349942D01*
X69976190Y349942D02*
X70023809Y397561D01*
X70023809Y397561D02*
X70119047Y445180D01*
X70119047Y445180D02*
X70357142Y445180D01*
X70357142Y445180D02*
X70499999Y397561D01*
X70928571Y-554819D02*
X70928571Y445180D01*
X70928571Y445180D02*
X71309523Y445180D01*
X71309523Y445180D02*
X71404761Y397561D01*
X71404761Y397561D02*
X71452380Y349942D01*
X71452380Y349942D02*
X71499999Y254704D01*
X71499999Y254704D02*
X71499999Y111847D01*
X71499999Y111847D02*
X71452380Y16609D01*
X71452380Y16609D02*
X71404761Y-31009D01*
X71404761Y-31009D02*
X71309523Y-78628D01*
X71309523Y-78628D02*
X70928571Y-78628D01*
X72404761Y-554819D02*
X71928571Y-554819D01*
X71928571Y-554819D02*
X71928571Y445180D01*
X72690476Y-269104D02*
X73166666Y-269104D01*
X72595238Y-554819D02*
X72928571Y445180D01*
X72928571Y445180D02*
X73261904Y-554819D01*
X73785714Y-78628D02*
X73785714Y-554819D01*
X73452381Y445180D02*
X73785714Y-78628D01*
X73785714Y-78628D02*
X74119047Y445180D01*
X75166667Y-269104D02*
X75642857Y-269104D01*
X75071429Y-554819D02*
X75404762Y445180D01*
X75404762Y445180D02*
X75738095Y-554819D01*
X76642857Y-554819D02*
X76309524Y-78628D01*
X76071429Y-554819D02*
X76071429Y445180D01*
X76071429Y445180D02*
X76452381Y445180D01*
X76452381Y445180D02*
X76547619Y397561D01*
X76547619Y397561D02*
X76595238Y349942D01*
X76595238Y349942D02*
X76642857Y254704D01*
X76642857Y254704D02*
X76642857Y111847D01*
X76642857Y111847D02*
X76595238Y16609D01*
X76595238Y16609D02*
X76547619Y-31009D01*
X76547619Y-31009D02*
X76452381Y-78628D01*
X76452381Y-78628D02*
X76071429Y-78628D01*
X77071429Y-31009D02*
X77404762Y-31009D01*
X77547619Y-554819D02*
X77071429Y-554819D01*
X77071429Y-554819D02*
X77071429Y445180D01*
X77071429Y445180D02*
X77547619Y445180D01*
X77928572Y-269104D02*
X78404762Y-269104D01*
X77833334Y-554819D02*
X78166667Y445180D01*
X78166667Y445180D02*
X78500000Y-554819D01*
X79880953Y-935771D02*
X79833334Y-888152D01*
X79833334Y-888152D02*
X79738096Y-745295D01*
X79738096Y-745295D02*
X79690477Y-650057D01*
X79690477Y-650057D02*
X79642858Y-507200D01*
X79642858Y-507200D02*
X79595239Y-269104D01*
X79595239Y-269104D02*
X79595239Y-78628D01*
X79595239Y-78628D02*
X79642858Y159466D01*
X79642858Y159466D02*
X79690477Y302323D01*
X79690477Y302323D02*
X79738096Y397561D01*
X79738096Y397561D02*
X79833334Y540419D01*
X79833334Y540419D02*
X79880953Y588038D01*
X80261906Y-554819D02*
X80261906Y445180D01*
X81214286Y-554819D02*
X80738096Y-554819D01*
X80738096Y-554819D02*
X80738096Y445180D01*
X81547620Y-554819D02*
X81547620Y445180D01*
X82071429Y-554819D02*
X82261905Y-554819D01*
X82261905Y-554819D02*
X82357143Y-507200D01*
X82357143Y-507200D02*
X82404762Y-459580D01*
X82404762Y-459580D02*
X82500000Y-316723D01*
X82500000Y-316723D02*
X82547619Y-126247D01*
X82547619Y-126247D02*
X82547619Y254704D01*
X82547619Y254704D02*
X82500000Y349942D01*
X82500000Y349942D02*
X82452381Y397561D01*
X82452381Y397561D02*
X82357143Y445180D01*
X82357143Y445180D02*
X82166667Y445180D01*
X82166667Y445180D02*
X82071429Y397561D01*
X82071429Y397561D02*
X82023810Y349942D01*
X82023810Y349942D02*
X81976191Y254704D01*
X81976191Y254704D02*
X81976191Y16609D01*
X81976191Y16609D02*
X82023810Y-78628D01*
X82023810Y-78628D02*
X82071429Y-126247D01*
X82071429Y-126247D02*
X82166667Y-173866D01*
X82166667Y-173866D02*
X82357143Y-173866D01*
X82357143Y-173866D02*
X82452381Y-126247D01*
X82452381Y-126247D02*
X82500000Y-78628D01*
X82500000Y-78628D02*
X82547619Y16609D01*
X83404762Y111847D02*
X83404762Y-554819D01*
X83166667Y492800D02*
X82928572Y-221485D01*
X82928572Y-221485D02*
X83547619Y-221485D01*
X84071429Y16609D02*
X83976191Y64228D01*
X83976191Y64228D02*
X83928572Y111847D01*
X83928572Y111847D02*
X83880953Y207085D01*
X83880953Y207085D02*
X83880953Y254704D01*
X83880953Y254704D02*
X83928572Y349942D01*
X83928572Y349942D02*
X83976191Y397561D01*
X83976191Y397561D02*
X84071429Y445180D01*
X84071429Y445180D02*
X84261905Y445180D01*
X84261905Y445180D02*
X84357143Y397561D01*
X84357143Y397561D02*
X84404762Y349942D01*
X84404762Y349942D02*
X84452381Y254704D01*
X84452381Y254704D02*
X84452381Y207085D01*
X84452381Y207085D02*
X84404762Y111847D01*
X84404762Y111847D02*
X84357143Y64228D01*
X84357143Y64228D02*
X84261905Y16609D01*
X84261905Y16609D02*
X84071429Y16609D01*
X84071429Y16609D02*
X83976191Y-31009D01*
X83976191Y-31009D02*
X83928572Y-78628D01*
X83928572Y-78628D02*
X83880953Y-173866D01*
X83880953Y-173866D02*
X83880953Y-364342D01*
X83880953Y-364342D02*
X83928572Y-459580D01*
X83928572Y-459580D02*
X83976191Y-507200D01*
X83976191Y-507200D02*
X84071429Y-554819D01*
X84071429Y-554819D02*
X84261905Y-554819D01*
X84261905Y-554819D02*
X84357143Y-507200D01*
X84357143Y-507200D02*
X84404762Y-459580D01*
X84404762Y-459580D02*
X84452381Y-364342D01*
X84452381Y-364342D02*
X84452381Y-173866D01*
X84452381Y-173866D02*
X84404762Y-78628D01*
X84404762Y-78628D02*
X84357143Y-31009D01*
X84357143Y-31009D02*
X84261905Y16609D01*
X85023810Y16609D02*
X84928572Y64228D01*
X84928572Y64228D02*
X84880953Y111847D01*
X84880953Y111847D02*
X84833334Y207085D01*
X84833334Y207085D02*
X84833334Y254704D01*
X84833334Y254704D02*
X84880953Y349942D01*
X84880953Y349942D02*
X84928572Y397561D01*
X84928572Y397561D02*
X85023810Y445180D01*
X85023810Y445180D02*
X85214286Y445180D01*
X85214286Y445180D02*
X85309524Y397561D01*
X85309524Y397561D02*
X85357143Y349942D01*
X85357143Y349942D02*
X85404762Y254704D01*
X85404762Y254704D02*
X85404762Y207085D01*
X85404762Y207085D02*
X85357143Y111847D01*
X85357143Y111847D02*
X85309524Y64228D01*
X85309524Y64228D02*
X85214286Y16609D01*
X85214286Y16609D02*
X85023810Y16609D01*
X85023810Y16609D02*
X84928572Y-31009D01*
X84928572Y-31009D02*
X84880953Y-78628D01*
X84880953Y-78628D02*
X84833334Y-173866D01*
X84833334Y-173866D02*
X84833334Y-364342D01*
X84833334Y-364342D02*
X84880953Y-459580D01*
X84880953Y-459580D02*
X84928572Y-507200D01*
X84928572Y-507200D02*
X85023810Y-554819D01*
X85023810Y-554819D02*
X85214286Y-554819D01*
X85214286Y-554819D02*
X85309524Y-507200D01*
X85309524Y-507200D02*
X85357143Y-459580D01*
X85357143Y-459580D02*
X85404762Y-364342D01*
X85404762Y-364342D02*
X85404762Y-173866D01*
X85404762Y-173866D02*
X85357143Y-78628D01*
X85357143Y-78628D02*
X85309524Y-31009D01*
X85309524Y-31009D02*
X85214286Y16609D01*
X86500001Y445180D02*
X87119048Y445180D01*
X87119048Y445180D02*
X86785715Y64228D01*
X86785715Y64228D02*
X86928572Y64228D01*
X86928572Y64228D02*
X87023810Y16609D01*
X87023810Y16609D02*
X87071429Y-31009D01*
X87071429Y-31009D02*
X87119048Y-126247D01*
X87119048Y-126247D02*
X87119048Y-364342D01*
X87119048Y-364342D02*
X87071429Y-459580D01*
X87071429Y-459580D02*
X87023810Y-507200D01*
X87023810Y-507200D02*
X86928572Y-554819D01*
X86928572Y-554819D02*
X86642858Y-554819D01*
X86642858Y-554819D02*
X86547620Y-507200D01*
X86547620Y-507200D02*
X86500001Y-459580D01*
X87547620Y-459580D02*
X87595239Y-507200D01*
X87595239Y-507200D02*
X87547620Y-554819D01*
X87547620Y-554819D02*
X87500001Y-507200D01*
X87500001Y-507200D02*
X87547620Y-459580D01*
X87547620Y-459580D02*
X87547620Y-554819D01*
X88071429Y-554819D02*
X88261905Y-554819D01*
X88261905Y-554819D02*
X88357143Y-507200D01*
X88357143Y-507200D02*
X88404762Y-459580D01*
X88404762Y-459580D02*
X88500000Y-316723D01*
X88500000Y-316723D02*
X88547619Y-126247D01*
X88547619Y-126247D02*
X88547619Y254704D01*
X88547619Y254704D02*
X88500000Y349942D01*
X88500000Y349942D02*
X88452381Y397561D01*
X88452381Y397561D02*
X88357143Y445180D01*
X88357143Y445180D02*
X88166667Y445180D01*
X88166667Y445180D02*
X88071429Y397561D01*
X88071429Y397561D02*
X88023810Y349942D01*
X88023810Y349942D02*
X87976191Y254704D01*
X87976191Y254704D02*
X87976191Y16609D01*
X87976191Y16609D02*
X88023810Y-78628D01*
X88023810Y-78628D02*
X88071429Y-126247D01*
X88071429Y-126247D02*
X88166667Y-173866D01*
X88166667Y-173866D02*
X88357143Y-173866D01*
X88357143Y-173866D02*
X88452381Y-126247D01*
X88452381Y-126247D02*
X88500000Y-78628D01*
X88500000Y-78628D02*
X88547619Y16609D01*
X89452381Y445180D02*
X88976191Y445180D01*
X88976191Y445180D02*
X88928572Y-31009D01*
X88928572Y-31009D02*
X88976191Y16609D01*
X88976191Y16609D02*
X89071429Y64228D01*
X89071429Y64228D02*
X89309524Y64228D01*
X89309524Y64228D02*
X89404762Y16609D01*
X89404762Y16609D02*
X89452381Y-31009D01*
X89452381Y-31009D02*
X89500000Y-126247D01*
X89500000Y-126247D02*
X89500000Y-364342D01*
X89500000Y-364342D02*
X89452381Y-459580D01*
X89452381Y-459580D02*
X89404762Y-507200D01*
X89404762Y-507200D02*
X89309524Y-554819D01*
X89309524Y-554819D02*
X89071429Y-554819D01*
X89071429Y-554819D02*
X88976191Y-507200D01*
X88976191Y-507200D02*
X88928572Y-459580D01*
X89928572Y-554819D02*
X89928572Y111847D01*
X89928572Y445180D02*
X89880953Y397561D01*
X89880953Y397561D02*
X89928572Y349942D01*
X89928572Y349942D02*
X89976191Y397561D01*
X89976191Y397561D02*
X89928572Y445180D01*
X89928572Y445180D02*
X89928572Y349942D01*
X90404762Y111847D02*
X90404762Y-554819D01*
X90404762Y16609D02*
X90452381Y64228D01*
X90452381Y64228D02*
X90547619Y111847D01*
X90547619Y111847D02*
X90690476Y111847D01*
X90690476Y111847D02*
X90785714Y64228D01*
X90785714Y64228D02*
X90833333Y-31009D01*
X90833333Y-31009D02*
X90833333Y-554819D01*
X91214286Y-935771D02*
X91261905Y-888152D01*
X91261905Y-888152D02*
X91357143Y-745295D01*
X91357143Y-745295D02*
X91404762Y-650057D01*
X91404762Y-650057D02*
X91452381Y-507200D01*
X91452381Y-507200D02*
X91500000Y-269104D01*
X91500000Y-269104D02*
X91500000Y-78628D01*
X91500000Y-78628D02*
X91452381Y159466D01*
X91452381Y159466D02*
X91404762Y302323D01*
X91404762Y302323D02*
X91357143Y397561D01*
X91357143Y397561D02*
X91261905Y540419D01*
X91261905Y540419D02*
X91214286Y588038D01*
X62250000Y-67400414D02*
X62750000Y-67400414D01*
X62964286Y-68186128D02*
X62250000Y-68186128D01*
X62250000Y-68186128D02*
X62250000Y-66686128D01*
X62250000Y-66686128D02*
X62964286Y-66686128D01*
X63535715Y-68114700D02*
X63750001Y-68186128D01*
X63750001Y-68186128D02*
X64107143Y-68186128D01*
X64107143Y-68186128D02*
X64250001Y-68114700D01*
X64250001Y-68114700D02*
X64321429Y-68043271D01*
X64321429Y-68043271D02*
X64392858Y-67900414D01*
X64392858Y-67900414D02*
X64392858Y-67757557D01*
X64392858Y-67757557D02*
X64321429Y-67614700D01*
X64321429Y-67614700D02*
X64250001Y-67543271D01*
X64250001Y-67543271D02*
X64107143Y-67471842D01*
X64107143Y-67471842D02*
X63821429Y-67400414D01*
X63821429Y-67400414D02*
X63678572Y-67328985D01*
X63678572Y-67328985D02*
X63607143Y-67257557D01*
X63607143Y-67257557D02*
X63535715Y-67114700D01*
X63535715Y-67114700D02*
X63535715Y-66971842D01*
X63535715Y-66971842D02*
X63607143Y-66828985D01*
X63607143Y-66828985D02*
X63678572Y-66757557D01*
X63678572Y-66757557D02*
X63821429Y-66686128D01*
X63821429Y-66686128D02*
X64178572Y-66686128D01*
X64178572Y-66686128D02*
X64392858Y-66757557D01*
X65035714Y-68186128D02*
X65035714Y-66686128D01*
X65035714Y-66686128D02*
X65607143Y-66686128D01*
X65607143Y-66686128D02*
X65750000Y-66757557D01*
X65750000Y-66757557D02*
X65821429Y-66828985D01*
X65821429Y-66828985D02*
X65892857Y-66971842D01*
X65892857Y-66971842D02*
X65892857Y-67186128D01*
X65892857Y-67186128D02*
X65821429Y-67328985D01*
X65821429Y-67328985D02*
X65750000Y-67400414D01*
X65750000Y-67400414D02*
X65607143Y-67471842D01*
X65607143Y-67471842D02*
X65035714Y-67471842D01*
X66392857Y-66686128D02*
X67321429Y-66686128D01*
X67321429Y-66686128D02*
X66821429Y-67257557D01*
X66821429Y-67257557D02*
X67035714Y-67257557D01*
X67035714Y-67257557D02*
X67178572Y-67328985D01*
X67178572Y-67328985D02*
X67250000Y-67400414D01*
X67250000Y-67400414D02*
X67321429Y-67543271D01*
X67321429Y-67543271D02*
X67321429Y-67900414D01*
X67321429Y-67900414D02*
X67250000Y-68043271D01*
X67250000Y-68043271D02*
X67178572Y-68114700D01*
X67178572Y-68114700D02*
X67035714Y-68186128D01*
X67035714Y-68186128D02*
X66607143Y-68186128D01*
X66607143Y-68186128D02*
X66464286Y-68114700D01*
X66464286Y-68114700D02*
X66392857Y-68043271D01*
X67892857Y-66828985D02*
X67964285Y-66757557D01*
X67964285Y-66757557D02*
X68107143Y-66686128D01*
X68107143Y-66686128D02*
X68464285Y-66686128D01*
X68464285Y-66686128D02*
X68607143Y-66757557D01*
X68607143Y-66757557D02*
X68678571Y-66828985D01*
X68678571Y-66828985D02*
X68750000Y-66971842D01*
X68750000Y-66971842D02*
X68750000Y-67114700D01*
X68750000Y-67114700D02*
X68678571Y-67328985D01*
X68678571Y-67328985D02*
X67821428Y-68186128D01*
X67821428Y-68186128D02*
X68750000Y-68186128D01*
X70535713Y-67400414D02*
X71035713Y-67400414D01*
X71249999Y-68186128D02*
X70535713Y-68186128D01*
X70535713Y-68186128D02*
X70535713Y-66686128D01*
X70535713Y-66686128D02*
X71249999Y-66686128D01*
X71892856Y-68186128D02*
X71892856Y-66686128D01*
X71892856Y-66686128D02*
X72392856Y-67757557D01*
X72392856Y-67757557D02*
X72892856Y-66686128D01*
X72892856Y-66686128D02*
X72892856Y-68186128D01*
X73607142Y-66686128D02*
X73607142Y-67900414D01*
X73607142Y-67900414D02*
X73678571Y-68043271D01*
X73678571Y-68043271D02*
X73750000Y-68114700D01*
X73750000Y-68114700D02*
X73892857Y-68186128D01*
X73892857Y-68186128D02*
X74178571Y-68186128D01*
X74178571Y-68186128D02*
X74321428Y-68114700D01*
X74321428Y-68114700D02*
X74392857Y-68043271D01*
X74392857Y-68043271D02*
X74464285Y-67900414D01*
X74464285Y-67900414D02*
X74464285Y-66686128D01*
X76107143Y-66686128D02*
X76964286Y-66686128D01*
X76535714Y-68186128D02*
X76535714Y-66686128D01*
X78107143Y-67186128D02*
X78107143Y-68186128D01*
X77464285Y-67186128D02*
X77464285Y-67971842D01*
X77464285Y-67971842D02*
X77535714Y-68114700D01*
X77535714Y-68114700D02*
X77678571Y-68186128D01*
X77678571Y-68186128D02*
X77892857Y-68186128D01*
X77892857Y-68186128D02*
X78035714Y-68114700D01*
X78035714Y-68114700D02*
X78107143Y-68043271D01*
X78821428Y-68186128D02*
X78821428Y-67186128D01*
X78821428Y-67471842D02*
X78892857Y-67328985D01*
X78892857Y-67328985D02*
X78964286Y-67257557D01*
X78964286Y-67257557D02*
X79107143Y-67186128D01*
X79107143Y-67186128D02*
X79250000Y-67186128D01*
X79749999Y-68186128D02*
X79749999Y-66686128D01*
X79749999Y-67257557D02*
X79892857Y-67186128D01*
X79892857Y-67186128D02*
X80178571Y-67186128D01*
X80178571Y-67186128D02*
X80321428Y-67257557D01*
X80321428Y-67257557D02*
X80392857Y-67328985D01*
X80392857Y-67328985D02*
X80464285Y-67471842D01*
X80464285Y-67471842D02*
X80464285Y-67900414D01*
X80464285Y-67900414D02*
X80392857Y-68043271D01*
X80392857Y-68043271D02*
X80321428Y-68114700D01*
X80321428Y-68114700D02*
X80178571Y-68186128D01*
X80178571Y-68186128D02*
X79892857Y-68186128D01*
X79892857Y-68186128D02*
X79749999Y-68114700D01*
X81321428Y-68186128D02*
X81178571Y-68114700D01*
X81178571Y-68114700D02*
X81107142Y-68043271D01*
X81107142Y-68043271D02*
X81035714Y-67900414D01*
X81035714Y-67900414D02*
X81035714Y-67471842D01*
X81035714Y-67471842D02*
X81107142Y-67328985D01*
X81107142Y-67328985D02*
X81178571Y-67257557D01*
X81178571Y-67257557D02*
X81321428Y-67186128D01*
X81321428Y-67186128D02*
X81535714Y-67186128D01*
X81535714Y-67186128D02*
X81678571Y-67257557D01*
X81678571Y-67257557D02*
X81750000Y-67328985D01*
X81750000Y-67328985D02*
X81821428Y-67471842D01*
X81821428Y-67471842D02*
X81821428Y-67900414D01*
X81821428Y-67900414D02*
X81750000Y-68043271D01*
X81750000Y-68043271D02*
X81678571Y-68114700D01*
X81678571Y-68114700D02*
X81535714Y-68186128D01*
X81535714Y-68186128D02*
X81321428Y-68186128D01*
X84464285Y-68043271D02*
X84392857Y-68114700D01*
X84392857Y-68114700D02*
X84178571Y-68186128D01*
X84178571Y-68186128D02*
X84035714Y-68186128D01*
X84035714Y-68186128D02*
X83821428Y-68114700D01*
X83821428Y-68114700D02*
X83678571Y-67971842D01*
X83678571Y-67971842D02*
X83607142Y-67828985D01*
X83607142Y-67828985D02*
X83535714Y-67543271D01*
X83535714Y-67543271D02*
X83535714Y-67328985D01*
X83535714Y-67328985D02*
X83607142Y-67043271D01*
X83607142Y-67043271D02*
X83678571Y-66900414D01*
X83678571Y-66900414D02*
X83821428Y-66757557D01*
X83821428Y-66757557D02*
X84035714Y-66686128D01*
X84035714Y-66686128D02*
X84178571Y-66686128D01*
X84178571Y-66686128D02*
X84392857Y-66757557D01*
X84392857Y-66757557D02*
X84464285Y-66828985D01*
X85107142Y-68186128D02*
X85107142Y-66686128D01*
X85107142Y-66686128D02*
X85678571Y-66686128D01*
X85678571Y-66686128D02*
X85821428Y-66757557D01*
X85821428Y-66757557D02*
X85892857Y-66828985D01*
X85892857Y-66828985D02*
X85964285Y-66971842D01*
X85964285Y-66971842D02*
X85964285Y-67186128D01*
X85964285Y-67186128D02*
X85892857Y-67328985D01*
X85892857Y-67328985D02*
X85821428Y-67400414D01*
X85821428Y-67400414D02*
X85678571Y-67471842D01*
X85678571Y-67471842D02*
X85107142Y-67471842D01*
X87035714Y-66686128D02*
X87035714Y-67757557D01*
X87035714Y-67757557D02*
X86964285Y-67971842D01*
X86964285Y-67971842D02*
X86821428Y-68114700D01*
X86821428Y-68114700D02*
X86607142Y-68186128D01*
X86607142Y-68186128D02*
X86464285Y-68186128D01*
X88964285Y-68186128D02*
X88892857Y-68186128D01*
X88892857Y-68186128D02*
X88749999Y-68114700D01*
X88749999Y-68114700D02*
X88535714Y-67900414D01*
X88535714Y-67900414D02*
X88178571Y-67471842D01*
X88178571Y-67471842D02*
X88035714Y-67257557D01*
X88035714Y-67257557D02*
X87964285Y-67043271D01*
X87964285Y-67043271D02*
X87964285Y-66900414D01*
X87964285Y-66900414D02*
X88035714Y-66757557D01*
X88035714Y-66757557D02*
X88178571Y-66686128D01*
X88178571Y-66686128D02*
X88249999Y-66686128D01*
X88249999Y-66686128D02*
X88392857Y-66757557D01*
X88392857Y-66757557D02*
X88464285Y-66900414D01*
X88464285Y-66900414D02*
X88464285Y-66971842D01*
X88464285Y-66971842D02*
X88392857Y-67114700D01*
X88392857Y-67114700D02*
X88321428Y-67186128D01*
X88321428Y-67186128D02*
X87892857Y-67471842D01*
X87892857Y-67471842D02*
X87821428Y-67543271D01*
X87821428Y-67543271D02*
X87749999Y-67686128D01*
X87749999Y-67686128D02*
X87749999Y-67900414D01*
X87749999Y-67900414D02*
X87821428Y-68043271D01*
X87821428Y-68043271D02*
X87892857Y-68114700D01*
X87892857Y-68114700D02*
X88035714Y-68186128D01*
X88035714Y-68186128D02*
X88249999Y-68186128D01*
X88249999Y-68186128D02*
X88392857Y-68114700D01*
X88392857Y-68114700D02*
X88464285Y-68043271D01*
X88464285Y-68043271D02*
X88678571Y-67757557D01*
X88678571Y-67757557D02*
X88749999Y-67543271D01*
X88749999Y-67543271D02*
X88749999Y-67400414D01*
X90464285Y-68043271D02*
X90392857Y-68114700D01*
X90392857Y-68114700D02*
X90178571Y-68186128D01*
X90178571Y-68186128D02*
X90035714Y-68186128D01*
X90035714Y-68186128D02*
X89821428Y-68114700D01*
X89821428Y-68114700D02*
X89678571Y-67971842D01*
X89678571Y-67971842D02*
X89607142Y-67828985D01*
X89607142Y-67828985D02*
X89535714Y-67543271D01*
X89535714Y-67543271D02*
X89535714Y-67328985D01*
X89535714Y-67328985D02*
X89607142Y-67043271D01*
X89607142Y-67043271D02*
X89678571Y-66900414D01*
X89678571Y-66900414D02*
X89821428Y-66757557D01*
X89821428Y-66757557D02*
X90035714Y-66686128D01*
X90035714Y-66686128D02*
X90178571Y-66686128D01*
X90178571Y-66686128D02*
X90392857Y-66757557D01*
X90392857Y-66757557D02*
X90464285Y-66828985D01*
X91107142Y-68186128D02*
X91107142Y-66686128D01*
X91107142Y-66686128D02*
X91678571Y-66686128D01*
X91678571Y-66686128D02*
X91821428Y-66757557D01*
X91821428Y-66757557D02*
X91892857Y-66828985D01*
X91892857Y-66828985D02*
X91964285Y-66971842D01*
X91964285Y-66971842D02*
X91964285Y-67186128D01*
X91964285Y-67186128D02*
X91892857Y-67328985D01*
X91892857Y-67328985D02*
X91821428Y-67400414D01*
X91821428Y-67400414D02*
X91678571Y-67471842D01*
X91678571Y-67471842D02*
X91107142Y-67471842D01*
X93607142Y-67186128D02*
X93964285Y-68186128D01*
X93964285Y-68186128D02*
X94321428Y-67186128D01*
X95678571Y-68186128D02*
X94821428Y-68186128D01*
X95249999Y-68186128D02*
X95249999Y-66686128D01*
X95249999Y-66686128D02*
X95107142Y-66900414D01*
X95107142Y-66900414D02*
X94964285Y-67043271D01*
X94964285Y-67043271D02*
X94821428Y-67114700D01*
X96321427Y-68043271D02*
X96392856Y-68114700D01*
X96392856Y-68114700D02*
X96321427Y-68186128D01*
X96321427Y-68186128D02*
X96249999Y-68114700D01*
X96249999Y-68114700D02*
X96321427Y-68043271D01*
X96321427Y-68043271D02*
X96321427Y-68186128D01*
X97321428Y-66686128D02*
X97464285Y-66686128D01*
X97464285Y-66686128D02*
X97607142Y-66757557D01*
X97607142Y-66757557D02*
X97678571Y-66828985D01*
X97678571Y-66828985D02*
X97749999Y-66971842D01*
X97749999Y-66971842D02*
X97821428Y-67257557D01*
X97821428Y-67257557D02*
X97821428Y-67614700D01*
X97821428Y-67614700D02*
X97749999Y-67900414D01*
X97749999Y-67900414D02*
X97678571Y-68043271D01*
X97678571Y-68043271D02*
X97607142Y-68114700D01*
X97607142Y-68114700D02*
X97464285Y-68186128D01*
X97464285Y-68186128D02*
X97321428Y-68186128D01*
X97321428Y-68186128D02*
X97178571Y-68114700D01*
X97178571Y-68114700D02*
X97107142Y-68043271D01*
X97107142Y-68043271D02*
X97035713Y-67900414D01*
X97035713Y-67900414D02*
X96964285Y-67614700D01*
X96964285Y-67614700D02*
X96964285Y-67257557D01*
X96964285Y-67257557D02*
X97035713Y-66971842D01*
X97035713Y-66971842D02*
X97107142Y-66828985D01*
X97107142Y-66828985D02*
X97178571Y-66757557D01*
X97178571Y-66757557D02*
X97321428Y-66686128D01*
X15690476Y-17954819D02*
X15690476Y-16954819D01*
X15690476Y-16954819D02*
X15928571Y-16954819D01*
X15928571Y-16954819D02*
X16071428Y-17002438D01*
X16071428Y-17002438D02*
X16166666Y-17097676D01*
X16166666Y-17097676D02*
X16214285Y-17192914D01*
X16214285Y-17192914D02*
X16261904Y-17383390D01*
X16261904Y-17383390D02*
X16261904Y-17526247D01*
X16261904Y-17526247D02*
X16214285Y-17716723D01*
X16214285Y-17716723D02*
X16166666Y-17811961D01*
X16166666Y-17811961D02*
X16071428Y-17907200D01*
X16071428Y-17907200D02*
X15928571Y-17954819D01*
X15928571Y-17954819D02*
X15690476Y-17954819D01*
X16690476Y-17573866D02*
X17452381Y-17573866D01*
X17928571Y-17954819D02*
X17928571Y-16954819D01*
X17928571Y-16954819D02*
X18309523Y-16954819D01*
X18309523Y-16954819D02*
X18404761Y-17002438D01*
X18404761Y-17002438D02*
X18452380Y-17050057D01*
X18452380Y-17050057D02*
X18499999Y-17145295D01*
X18499999Y-17145295D02*
X18499999Y-17288152D01*
X18499999Y-17288152D02*
X18452380Y-17383390D01*
X18452380Y-17383390D02*
X18404761Y-17431009D01*
X18404761Y-17431009D02*
X18309523Y-17478628D01*
X18309523Y-17478628D02*
X17928571Y-17478628D01*
X18880952Y-17669104D02*
X19357142Y-17669104D01*
X18785714Y-17954819D02*
X19119047Y-16954819D01*
X19119047Y-16954819D02*
X19452380Y-17954819D01*
X19785714Y-17954819D02*
X19785714Y-16954819D01*
X19785714Y-16954819D02*
X20023809Y-16954819D01*
X20023809Y-16954819D02*
X20166666Y-17002438D01*
X20166666Y-17002438D02*
X20261904Y-17097676D01*
X20261904Y-17097676D02*
X20309523Y-17192914D01*
X20309523Y-17192914D02*
X20357142Y-17383390D01*
X20357142Y-17383390D02*
X20357142Y-17526247D01*
X20357142Y-17526247D02*
X20309523Y-17716723D01*
X20309523Y-17716723D02*
X20261904Y-17811961D01*
X20261904Y-17811961D02*
X20166666Y-17907200D01*
X20166666Y-17907200D02*
X20023809Y-17954819D01*
X20023809Y-17954819D02*
X19785714Y-17954819D01*
X140357143Y-16669104D02*
X140833333Y-16669104D01*
X140261905Y-16954819D02*
X140595238Y-15954819D01*
X140595238Y-15954819D02*
X140928571Y-16954819D01*
X141595238Y-16431009D02*
X141738095Y-16478628D01*
X141738095Y-16478628D02*
X141785714Y-16526247D01*
X141785714Y-16526247D02*
X141833333Y-16621485D01*
X141833333Y-16621485D02*
X141833333Y-16764342D01*
X141833333Y-16764342D02*
X141785714Y-16859580D01*
X141785714Y-16859580D02*
X141738095Y-16907200D01*
X141738095Y-16907200D02*
X141642857Y-16954819D01*
X141642857Y-16954819D02*
X141261905Y-16954819D01*
X141261905Y-16954819D02*
X141261905Y-15954819D01*
X141261905Y-15954819D02*
X141595238Y-15954819D01*
X141595238Y-15954819D02*
X141690476Y-16002438D01*
X141690476Y-16002438D02*
X141738095Y-16050057D01*
X141738095Y-16050057D02*
X141785714Y-16145295D01*
X141785714Y-16145295D02*
X141785714Y-16240533D01*
X141785714Y-16240533D02*
X141738095Y-16335771D01*
X141738095Y-16335771D02*
X141690476Y-16383390D01*
X141690476Y-16383390D02*
X141595238Y-16431009D01*
X141595238Y-16431009D02*
X141261905Y-16431009D01*
X142166667Y-15954819D02*
X142833333Y-16954819D01*
X142833333Y-15954819D02*
X142166667Y-16954819D01*
X143404762Y-16478628D02*
X143404762Y-16954819D01*
X143071429Y-15954819D02*
X143404762Y-16478628D01*
X143404762Y-16478628D02*
X143738095Y-15954819D01*
X140533333Y-57862295D02*
X140533333Y-57062295D01*
X140533333Y-57062295D02*
X140799999Y-57633723D01*
X140799999Y-57633723D02*
X141066666Y-57062295D01*
X141066666Y-57062295D02*
X141066666Y-57862295D01*
X141447619Y-57443247D02*
X141714285Y-57443247D01*
X141828571Y-57862295D02*
X141447619Y-57862295D01*
X141447619Y-57862295D02*
X141447619Y-57062295D01*
X141447619Y-57062295D02*
X141828571Y-57062295D01*
X142171429Y-57862295D02*
X142171429Y-57062295D01*
X142171429Y-57062295D02*
X142628572Y-57862295D01*
X142628572Y-57862295D02*
X142628572Y-57062295D01*
X143009524Y-57062295D02*
X143009524Y-57709914D01*
X143009524Y-57709914D02*
X143047619Y-57786104D01*
X143047619Y-57786104D02*
X143085714Y-57824200D01*
X143085714Y-57824200D02*
X143161905Y-57862295D01*
X143161905Y-57862295D02*
X143314286Y-57862295D01*
X143314286Y-57862295D02*
X143390476Y-57824200D01*
X143390476Y-57824200D02*
X143428571Y-57786104D01*
X143428571Y-57786104D02*
X143466667Y-57709914D01*
X143466667Y-57709914D02*
X143466667Y-57062295D01*
X24571429Y-70712628D02*
X24542857Y-70741200D01*
X24542857Y-70741200D02*
X24457143Y-70769771D01*
X24457143Y-70769771D02*
X24400000Y-70769771D01*
X24400000Y-70769771D02*
X24314286Y-70741200D01*
X24314286Y-70741200D02*
X24257143Y-70684057D01*
X24257143Y-70684057D02*
X24228572Y-70626914D01*
X24228572Y-70626914D02*
X24200000Y-70512628D01*
X24200000Y-70512628D02*
X24200000Y-70426914D01*
X24200000Y-70426914D02*
X24228572Y-70312628D01*
X24228572Y-70312628D02*
X24257143Y-70255485D01*
X24257143Y-70255485D02*
X24314286Y-70198342D01*
X24314286Y-70198342D02*
X24400000Y-70169771D01*
X24400000Y-70169771D02*
X24457143Y-70169771D01*
X24457143Y-70169771D02*
X24542857Y-70198342D01*
X24542857Y-70198342D02*
X24571429Y-70226914D01*
X24828572Y-70769771D02*
X24828572Y-70169771D01*
X24828572Y-70455485D02*
X25171429Y-70455485D01*
X25171429Y-70769771D02*
X25171429Y-70169771D01*
X25771428Y-70198342D02*
X25714286Y-70169771D01*
X25714286Y-70169771D02*
X25628571Y-70169771D01*
X25628571Y-70169771D02*
X25542857Y-70198342D01*
X25542857Y-70198342D02*
X25485714Y-70255485D01*
X25485714Y-70255485D02*
X25457143Y-70312628D01*
X25457143Y-70312628D02*
X25428571Y-70426914D01*
X25428571Y-70426914D02*
X25428571Y-70512628D01*
X25428571Y-70512628D02*
X25457143Y-70626914D01*
X25457143Y-70626914D02*
X25485714Y-70684057D01*
X25485714Y-70684057D02*
X25542857Y-70741200D01*
X25542857Y-70741200D02*
X25628571Y-70769771D01*
X25628571Y-70769771D02*
X25685714Y-70769771D01*
X25685714Y-70769771D02*
X25771428Y-70741200D01*
X25771428Y-70741200D02*
X25800000Y-70712628D01*
X25800000Y-70712628D02*
X25800000Y-70512628D01*
X25800000Y-70512628D02*
X25685714Y-70512628D01*
X31285715Y-70455485D02*
X31085715Y-70455485D01*
X31085715Y-70769771D02*
X31085715Y-70169771D01*
X31085715Y-70169771D02*
X31371429Y-70169771D01*
X31600001Y-70169771D02*
X31600001Y-70655485D01*
X31600001Y-70655485D02*
X31628572Y-70712628D01*
X31628572Y-70712628D02*
X31657144Y-70741200D01*
X31657144Y-70741200D02*
X31714286Y-70769771D01*
X31714286Y-70769771D02*
X31828572Y-70769771D01*
X31828572Y-70769771D02*
X31885715Y-70741200D01*
X31885715Y-70741200D02*
X31914286Y-70712628D01*
X31914286Y-70712628D02*
X31942858Y-70655485D01*
X31942858Y-70655485D02*
X31942858Y-70169771D01*
X32514286Y-70769771D02*
X32228572Y-70769771D01*
X32228572Y-70769771D02*
X32228572Y-70169771D01*
X33000000Y-70769771D02*
X32714286Y-70769771D01*
X32714286Y-70769771D02*
X32714286Y-70169771D01*
M02*
