%TF.GenerationSoftware,KiCad,Pcbnew,9.0.7*%
%TF.CreationDate,2026-02-26T09:55:20+01:00*%
%TF.ProjectId,esp32-emu-turbo,65737033-322d-4656-9d75-2d747572626f,rev?*%
%TF.SameCoordinates,Original*%
%TF.FileFunction,Copper,L1,Top*%
%TF.FilePolarity,Positive*%
%FSLAX46Y46*%
G04 Gerber Fmt 4.6, Leading zero omitted, Abs format (unit mm)*
G04 Created by KiCad (PCBNEW 9.0.7) date 2026-02-26 09:55:20*
%MOMM*%
%LPD*%
G01*
G04 APERTURE LIST*
%TA.AperFunction,ComponentPad*%
%ADD10C,5.000000*%
%TD*%
%TA.AperFunction,SMDPad,CuDef*%
%ADD11R,1.000000X0.750000*%
%TD*%
%TA.AperFunction,SMDPad,CuDef*%
%ADD12R,1.000000X1.300000*%
%TD*%
%TA.AperFunction,ComponentPad*%
%ADD13O,1.000000X2.100000*%
%TD*%
%TA.AperFunction,ComponentPad*%
%ADD14O,1.000000X1.600000*%
%TD*%
%TA.AperFunction,ComponentPad*%
%ADD15C,1.500000*%
%TD*%
%TA.AperFunction,ViaPad*%
%ADD16C,0.800000*%
%TD*%
%TA.AperFunction,ViaPad*%
%ADD17C,0.500000*%
%TD*%
%TA.AperFunction,Conductor*%
%ADD18C,0.500000*%
%TD*%
%TA.AperFunction,Conductor*%
%ADD19C,0.400000*%
%TD*%
%TA.AperFunction,Conductor*%
%ADD20C,0.200000*%
%TD*%
%TA.AperFunction,Conductor*%
%ADD21C,0.300000*%
%TD*%
%TA.AperFunction,Conductor*%
%ADD22C,0.250000*%
%TD*%
G04 APERTURE END LIST*
D10*
%TO.P,,*%
%TO.N,*%
X10000000Y-7000000D03*
%TD*%
%TO.P,,*%
%TO.N,*%
X150000000Y-7000000D03*
%TD*%
%TO.P,,*%
%TO.N,*%
X10000000Y-68000000D03*
%TD*%
%TO.P,,*%
%TO.N,*%
X150000000Y-68000000D03*
%TD*%
%TO.P,,*%
%TO.N,*%
X55000000Y-37500000D03*
%TD*%
%TO.P,,*%
%TO.N,*%
X105000000Y-37500000D03*
%TD*%
D11*
%TO.P,SW1,1*%
%TO.N,N/C*%
X15000000Y-21650000D03*
%TO.P,SW1,2*%
X21000000Y-21650000D03*
%TO.P,SW1,3*%
X15000000Y-25350000D03*
%TO.P,SW1,4*%
X21000000Y-25350000D03*
%TD*%
%TO.P,SW2,1*%
%TO.N,N/C*%
X15000000Y-39650000D03*
%TO.P,SW2,2*%
X21000000Y-39650000D03*
%TO.P,SW2,3*%
X15000000Y-43350000D03*
%TO.P,SW2,4*%
X21000000Y-43350000D03*
%TD*%
%TO.P,SW3,1*%
%TO.N,N/C*%
X6000000Y-30650000D03*
%TO.P,SW3,2*%
X12000000Y-30650000D03*
%TO.P,SW3,3*%
X6000000Y-34350000D03*
%TO.P,SW3,4*%
X12000000Y-34350000D03*
%TD*%
%TO.P,SW4,1*%
%TO.N,N/C*%
X24000000Y-30650000D03*
%TO.P,SW4,2*%
X30000000Y-30650000D03*
%TO.P,SW4,3*%
X24000000Y-34350000D03*
%TO.P,SW4,4*%
X30000000Y-34350000D03*
%TD*%
%TO.P,SW5,1*%
%TO.N,N/C*%
X139000000Y-20650000D03*
%TO.P,SW5,2*%
X145000000Y-20650000D03*
%TO.P,SW5,3*%
X139000000Y-24350000D03*
%TO.P,SW5,4*%
X145000000Y-24350000D03*
%TD*%
%TO.P,SW6,1*%
%TO.N,N/C*%
X149000000Y-30650000D03*
%TO.P,SW6,2*%
X155000000Y-30650000D03*
%TO.P,SW6,3*%
X149000000Y-34350000D03*
%TO.P,SW6,4*%
X155000000Y-34350000D03*
%TD*%
%TO.P,SW7,1*%
%TO.N,N/C*%
X139000000Y-40650000D03*
%TO.P,SW7,2*%
X145000000Y-40650000D03*
%TO.P,SW7,3*%
X139000000Y-44350000D03*
%TO.P,SW7,4*%
X145000000Y-44350000D03*
%TD*%
%TO.P,SW8,1*%
%TO.N,N/C*%
X129000000Y-30650000D03*
%TO.P,SW8,2*%
X135000000Y-30650000D03*
%TO.P,SW8,3*%
X129000000Y-34350000D03*
%TO.P,SW8,4*%
X135000000Y-34350000D03*
%TD*%
%TO.P,SW9,1*%
%TO.N,N/C*%
X5000000Y-52650000D03*
%TO.P,SW9,2*%
X11000000Y-52650000D03*
%TO.P,SW9,3*%
X5000000Y-56350000D03*
%TO.P,SW9,4*%
X11000000Y-56350000D03*
%TD*%
%TO.P,SW10,1*%
%TO.N,N/C*%
X25000000Y-52650000D03*
%TO.P,SW10,2*%
X31000000Y-52650000D03*
%TO.P,SW10,3*%
X25000000Y-56350000D03*
%TO.P,SW10,4*%
X31000000Y-56350000D03*
%TD*%
%TO.P,SW13,1*%
%TO.N,N/C*%
X139000000Y-60650000D03*
%TO.P,SW13,2*%
X145000000Y-60650000D03*
%TO.P,SW13,3*%
X139000000Y-64350000D03*
%TO.P,SW13,4*%
X145000000Y-64350000D03*
%TD*%
D12*
%TO.P,LED1,1*%
%TO.N,N/C*%
X24050000Y-67500000D03*
%TO.P,LED1,2*%
X25950000Y-67500000D03*
%TD*%
%TO.P,LED2,1*%
%TO.N,N/C*%
X31050000Y-67500000D03*
%TO.P,LED2,2*%
X32950000Y-67500000D03*
%TD*%
D13*
%TO.P,J1,S*%
%TO.N,N/C*%
X84320000Y-68895000D03*
X75680000Y-68895000D03*
D14*
X84320000Y-73075000D03*
X75680000Y-73075000D03*
%TD*%
D15*
%TO.P,J3,1*%
%TO.N,N/C*%
X81000000Y-57500000D03*
%TO.P,J3,2*%
X79000000Y-57500000D03*
%TD*%
D16*
%TO.N,LCD_D0*%
X82400000Y-66255000D03*
X111000000Y-40595000D03*
X76800000Y-66255000D03*
X110000000Y-45500000D03*
X127300000Y-60650000D03*
%TO.N,GND*%
X81500000Y-31960000D03*
X77000000Y-57500000D03*
%TO.N,LCD_D0*%
X107000000Y-38595000D03*
%TO.N,+5V*%
X122700000Y-56650000D03*
%TO.N,BAT+*%
X111700000Y-50500000D03*
%TO.N,+5V*%
X115950000Y-54500000D03*
%TO.N,LCD_D0*%
X123000000Y-49350000D03*
X98000000Y-49350000D03*
X88750000Y-21510000D03*
X107000000Y-46135000D03*
X81000000Y-46135000D03*
X39250000Y-68050000D03*
X90750000Y-26050000D03*
D17*
X124000000Y-26050000D03*
X124000000Y-5000000D03*
X130000000Y-37250000D03*
D16*
X90750000Y-27320000D03*
D17*
X122900000Y-27320000D03*
X122900000Y-6000000D03*
X130650000Y-36750000D03*
D16*
X90750000Y-28590000D03*
D17*
X121800000Y-28590000D03*
X121800000Y-7000000D03*
X131300000Y-36250000D03*
D16*
X90750000Y-29860000D03*
D17*
X120700000Y-29860000D03*
X120700000Y-8000000D03*
X131950000Y-35750000D03*
D16*
X90750000Y-36210000D03*
D17*
X119600000Y-36210000D03*
X119600000Y-9000000D03*
X132600000Y-35250000D03*
D16*
X84445000Y-38000000D03*
D17*
X118500000Y-38000000D03*
X118500000Y-10000000D03*
X133250000Y-34750000D03*
D16*
X83175000Y-37000000D03*
D17*
X117400000Y-37000000D03*
X117400000Y-11000000D03*
X133900000Y-34250000D03*
D16*
X81905000Y-36000000D03*
D17*
X116300000Y-36000000D03*
X116300000Y-12000000D03*
X134550000Y-33750000D03*
D16*
X79365000Y-35000000D03*
D17*
X115200000Y-35000000D03*
X115200000Y-13000000D03*
X135200000Y-38250000D03*
D16*
X80635000Y-34000000D03*
D17*
X114100000Y-34000000D03*
X114100000Y-14000000D03*
X135850000Y-41250000D03*
D16*
X78095000Y-33000000D03*
D17*
X113000000Y-33000000D03*
X113000000Y-15000000D03*
X136500000Y-40750000D03*
D16*
X85715000Y-32000000D03*
D17*
X111900000Y-32000000D03*
X111900000Y-16000000D03*
X137150000Y-40250000D03*
D16*
X86985000Y-31000000D03*
D17*
X110800000Y-31000000D03*
X110800000Y-17000000D03*
X137800000Y-39750000D03*
D16*
X73015000Y-30000000D03*
D17*
X109700000Y-30000000D03*
X109700000Y-18000000D03*
X138450000Y-29250000D03*
%TO.N,GND*%
X133850000Y-43250000D03*
%TO.N,LCD_D0*%
X133850000Y-39750000D03*
X139850000Y-25750000D03*
X133850000Y-30250000D03*
X139850000Y-30750000D03*
X133850000Y-25250000D03*
X133850000Y-27750000D03*
X139850000Y-39750000D03*
%TO.N,GND*%
X133850000Y-44250000D03*
%TO.N,LCD_D0*%
X133850000Y-23750000D03*
X139850000Y-28250000D03*
D16*
X69750000Y-36210000D03*
X50000000Y-36210000D03*
X50000000Y-20000000D03*
X135000000Y-61550000D03*
X69250000Y-34940000D03*
X51000000Y-34940000D03*
X51000000Y-21000000D03*
X136000000Y-60550000D03*
X68750000Y-33670000D03*
X52000000Y-33670000D03*
X52000000Y-22000000D03*
X137000000Y-59550000D03*
X68250000Y-32400000D03*
X53000000Y-32400000D03*
X53000000Y-23000000D03*
X138000000Y-58550000D03*
X87250000Y-33670000D03*
X26825000Y-33670000D03*
%TO.N,SPK+*%
X35945000Y-23000000D03*
X39500000Y-23000000D03*
%TO.N,LCD_D0*%
X31905000Y-21000000D03*
X20500000Y-21000000D03*
X28095000Y-36150000D03*
%TO.N,+5V*%
X30635000Y-22850000D03*
%TO.N,GND*%
X33175000Y-36150000D03*
X33175000Y-22850000D03*
X28095000Y-22850000D03*
%TO.N,LCD_D0*%
X80250000Y-65255000D03*
X90750000Y-65255000D03*
X79750000Y-64255000D03*
X91750000Y-64255000D03*
X73050000Y-66255000D03*
X85050000Y-66255000D03*
X22000000Y-21650000D03*
X22000000Y-62000000D03*
X69750000Y-62000000D03*
X69750000Y-31130000D03*
X71250000Y-31130000D03*
D17*
%TO.N,GND*%
X15000000Y-25350000D03*
D16*
%TO.N,LCD_D0*%
X23000000Y-39650000D03*
X23000000Y-63000000D03*
X68150000Y-63000000D03*
X68150000Y-29860000D03*
X71250000Y-29860000D03*
D17*
%TO.N,GND*%
X15000000Y-43350000D03*
D16*
%TO.N,LCD_D0*%
X13000000Y-30650000D03*
X13000000Y-64000000D03*
X67150000Y-64000000D03*
X67150000Y-28590000D03*
X71250000Y-28590000D03*
D17*
%TO.N,GND*%
X6000000Y-34350000D03*
D16*
%TO.N,LCD_D0*%
X31000000Y-30650000D03*
X31000000Y-65000000D03*
X66150000Y-65000000D03*
X66150000Y-27320000D03*
X71250000Y-27320000D03*
D17*
%TO.N,GND*%
X24000000Y-34350000D03*
D16*
%TO.N,LCD_D0*%
X138000000Y-20650000D03*
X138000000Y-66000000D03*
X65150000Y-66000000D03*
X65150000Y-26050000D03*
X71250000Y-26050000D03*
D17*
%TO.N,GND*%
X145000000Y-24350000D03*
D16*
%TO.N,LCD_D0*%
X148000000Y-30650000D03*
X148000000Y-67000000D03*
X70750000Y-67000000D03*
X70750000Y-38000000D03*
X74285000Y-38000000D03*
D17*
%TO.N,GND*%
X155000000Y-34350000D03*
D16*
%TO.N,LCD_D0*%
X139000000Y-40650000D03*
X139000000Y-68000000D03*
X71750000Y-68000000D03*
X71750000Y-37000000D03*
X75555000Y-37000000D03*
D17*
%TO.N,GND*%
X145000000Y-44350000D03*
D16*
%TO.N,LCD_D0*%
X129600000Y-30650000D03*
X129600000Y-69000000D03*
X71750000Y-69000000D03*
X71750000Y-36000000D03*
X76825000Y-36000000D03*
D17*
X135000000Y-34350000D03*
D16*
X12000000Y-52650000D03*
X12000000Y-70000000D03*
X98150000Y-70000000D03*
X98150000Y-34940000D03*
X88750000Y-34940000D03*
D17*
%TO.N,GND*%
X5000000Y-56350000D03*
D16*
%TO.N,LCD_D0*%
X32000000Y-52650000D03*
X32000000Y-71000000D03*
X60250000Y-71000000D03*
X60250000Y-35000000D03*
X71250000Y-35000000D03*
D17*
%TO.N,GND*%
X25000000Y-56350000D03*
D16*
%TO.N,LCD_D0*%
X13150000Y-68000000D03*
X69250000Y-68000000D03*
%TO.N,GND*%
X16850000Y-2500000D03*
%TO.N,LCD_D0*%
X42050000Y-46000000D03*
X47050000Y-46000000D03*
X52050000Y-46000000D03*
X57050000Y-46000000D03*
X62050000Y-46000000D03*
X67050000Y-46000000D03*
X72050000Y-46000000D03*
X77050000Y-46000000D03*
X82050000Y-46000000D03*
X87050000Y-46000000D03*
X92050000Y-46000000D03*
X97050000Y-46000000D03*
X102050000Y-46000000D03*
%TO.N,GND*%
X42050000Y-52000000D03*
X47050000Y-52000000D03*
X52050000Y-52000000D03*
X57050000Y-52000000D03*
X62050000Y-52000000D03*
%TO.N,LCD_D0*%
X67050000Y-52000000D03*
X72050000Y-52000000D03*
%TO.N,GND*%
X77050000Y-52000000D03*
X82050000Y-52000000D03*
X87050000Y-52000000D03*
%TO.N,LCD_D0*%
X92050000Y-52000000D03*
%TO.N,GND*%
X97050000Y-52000000D03*
X102050000Y-52000000D03*
%TO.N,LCD_D0*%
X70950000Y-42000000D03*
X69050000Y-40000000D03*
%TO.N,+3V3*%
X85950000Y-42000000D03*
%TO.N,LCD_D0*%
X84050000Y-40000000D03*
%TO.N,+5V*%
X125950000Y-48500000D03*
%TO.N,GND*%
X124050000Y-48500000D03*
X123500000Y-62500000D03*
%TO.N,LCD_D0*%
X110950000Y-33000000D03*
X109050000Y-37000000D03*
X116950000Y-35500000D03*
%TO.N,GND*%
X115050000Y-39500000D03*
%TO.N,LCD_D0*%
X111500000Y-56500000D03*
%TO.N,GND*%
X108500000Y-60500000D03*
%TO.N,LCD_D0*%
X25950000Y-63000000D03*
X24050000Y-66250000D03*
X27450000Y-67500000D03*
X32950000Y-63000000D03*
X31050000Y-66250000D03*
X34450000Y-67500000D03*
%TD*%
D18*
%TO.N,LCD_D0*%
X82400000Y-66255000D02*
X111000000Y-66255000D01*
X111000000Y-66255000D02*
X111000000Y-40595000D01*
D19*
X123000000Y-49350000D02*
X98000000Y-49350000D01*
D18*
X107000000Y-46135000D02*
X81000000Y-46135000D01*
X39250000Y-68050000D02*
X39250000Y-46135000D01*
X39250000Y-46135000D02*
X81000000Y-46135000D01*
D20*
X90750000Y-26050000D02*
X124000000Y-26050000D01*
X124000000Y-5000000D02*
X130000000Y-5000000D01*
X130000000Y-5000000D02*
X130000000Y-37250000D01*
X90750000Y-27320000D02*
X122900000Y-27320000D01*
X122900000Y-6000000D02*
X130650000Y-6000000D01*
X130650000Y-6000000D02*
X130650000Y-36750000D01*
X90750000Y-28590000D02*
X121800000Y-28590000D01*
X121800000Y-7000000D02*
X131300000Y-7000000D01*
X131300000Y-7000000D02*
X131300000Y-36250000D01*
X90750000Y-29860000D02*
X120700000Y-29860000D01*
X120700000Y-8000000D02*
X131950000Y-8000000D01*
X131950000Y-8000000D02*
X131950000Y-35750000D01*
X90750000Y-36210000D02*
X119600000Y-36210000D01*
X119600000Y-9000000D02*
X132600000Y-9000000D01*
X132600000Y-9000000D02*
X132600000Y-35250000D01*
X84445000Y-38000000D02*
X118500000Y-38000000D01*
X118500000Y-10000000D02*
X133250000Y-10000000D01*
X133250000Y-10000000D02*
X133250000Y-34750000D01*
X83175000Y-37000000D02*
X117400000Y-37000000D01*
X117400000Y-11000000D02*
X133900000Y-11000000D01*
X133900000Y-11000000D02*
X133900000Y-34250000D01*
X81905000Y-36000000D02*
X116300000Y-36000000D01*
X116300000Y-12000000D02*
X134550000Y-12000000D01*
X134550000Y-12000000D02*
X134550000Y-33750000D01*
X79365000Y-35000000D02*
X115200000Y-35000000D01*
X115200000Y-13000000D02*
X135200000Y-13000000D01*
X135200000Y-13000000D02*
X135200000Y-38250000D01*
X80635000Y-34000000D02*
X114100000Y-34000000D01*
X114100000Y-14000000D02*
X135850000Y-14000000D01*
X135850000Y-14000000D02*
X135850000Y-41250000D01*
X78095000Y-33000000D02*
X113000000Y-33000000D01*
X113000000Y-15000000D02*
X136500000Y-15000000D01*
X136500000Y-15000000D02*
X136500000Y-40750000D01*
X85715000Y-32000000D02*
X111900000Y-32000000D01*
X111900000Y-16000000D02*
X137150000Y-16000000D01*
X137150000Y-16000000D02*
X137150000Y-40250000D01*
X86985000Y-31000000D02*
X110800000Y-31000000D01*
X110800000Y-17000000D02*
X137800000Y-17000000D01*
X137800000Y-17000000D02*
X137800000Y-39750000D01*
X73015000Y-30000000D02*
X109700000Y-30000000D01*
X109700000Y-18000000D02*
X138450000Y-18000000D01*
X138450000Y-18000000D02*
X138450000Y-29250000D01*
X69750000Y-36210000D02*
X50000000Y-36210000D01*
X50000000Y-20000000D02*
X135000000Y-20000000D01*
X135000000Y-20000000D02*
X135000000Y-61550000D01*
X69250000Y-34940000D02*
X51000000Y-34940000D01*
X51000000Y-21000000D02*
X136000000Y-21000000D01*
X136000000Y-21000000D02*
X136000000Y-60550000D01*
X68750000Y-33670000D02*
X52000000Y-33670000D01*
X52000000Y-22000000D02*
X137000000Y-22000000D01*
X137000000Y-22000000D02*
X137000000Y-59550000D01*
X68250000Y-32400000D02*
X53000000Y-32400000D01*
X53000000Y-23000000D02*
X138000000Y-23000000D01*
X138000000Y-23000000D02*
X138000000Y-58550000D01*
X87250000Y-33670000D02*
X26825000Y-33670000D01*
D21*
%TO.N,SPK+*%
X35945000Y-23000000D02*
X39500000Y-23000000D01*
%TO.N,LCD_D0*%
X31905000Y-21000000D02*
X20500000Y-21000000D01*
D20*
X80250000Y-65255000D02*
X90750000Y-65255000D01*
X79750000Y-64255000D02*
X91750000Y-64255000D01*
D22*
X21000000Y-21650000D02*
X22000000Y-21650000D01*
X22000000Y-62000000D02*
X69750000Y-62000000D01*
X69750000Y-31130000D02*
X71250000Y-31130000D01*
X21000000Y-39650000D02*
X23000000Y-39650000D01*
X23000000Y-63000000D02*
X68150000Y-63000000D01*
X68150000Y-29860000D02*
X71250000Y-29860000D01*
X12000000Y-30650000D02*
X13000000Y-30650000D01*
X13000000Y-64000000D02*
X67150000Y-64000000D01*
X67150000Y-28590000D02*
X71250000Y-28590000D01*
X30000000Y-30650000D02*
X31000000Y-30650000D01*
X31000000Y-65000000D02*
X66150000Y-65000000D01*
X66150000Y-27320000D02*
X71250000Y-27320000D01*
X139000000Y-20650000D02*
X138000000Y-20650000D01*
X138000000Y-66000000D02*
X65150000Y-66000000D01*
X65150000Y-26050000D02*
X71250000Y-26050000D01*
X149000000Y-30650000D02*
X148000000Y-30650000D01*
X148000000Y-67000000D02*
X70750000Y-67000000D01*
X70750000Y-38000000D02*
X74285000Y-38000000D01*
X139000000Y-40650000D02*
X139000000Y-40650000D01*
X139000000Y-68000000D02*
X71750000Y-68000000D01*
X71750000Y-37000000D02*
X75555000Y-37000000D01*
X129000000Y-30650000D02*
X129600000Y-30650000D01*
X129600000Y-69000000D02*
X71750000Y-69000000D01*
X71750000Y-36000000D02*
X76825000Y-36000000D01*
X11000000Y-52650000D02*
X12000000Y-52650000D01*
X12000000Y-70000000D02*
X98150000Y-70000000D01*
X98150000Y-34940000D02*
X88750000Y-34940000D01*
X31000000Y-52650000D02*
X32000000Y-52650000D01*
X32000000Y-71000000D02*
X60250000Y-71000000D01*
X60250000Y-35000000D02*
X71250000Y-35000000D01*
X13150000Y-68000000D02*
X69250000Y-68000000D01*
X24050000Y-66250000D02*
X24050000Y-67500000D01*
X25950000Y-67500000D02*
X27450000Y-67500000D01*
X31050000Y-66250000D02*
X31050000Y-67500000D01*
X32950000Y-67500000D02*
X34450000Y-67500000D01*
%TD*%
M02*
