%TF.GenerationSoftware,KiCad,Pcbnew,9.0.7*%
%TF.CreationDate,2026-02-28T01:14:08+01:00*%
%TF.ProjectId,esp32-emu-turbo,65737033-322d-4656-9d75-2d747572626f,rev?*%
%TF.SameCoordinates,Original*%
%TF.FileFunction,Drillmap*%
%TF.FilePolarity,Positive*%
%FSLAX45Y45*%
G04 Gerber Fmt 4.5, Leading zero omitted, Abs format (unit mm)*
G04 Created by KiCad (PCBNEW 9.0.7) date 2026-02-28 01:14:08*
%MOMM*%
%LPD*%
G01*
G04 APERTURE LIST*
%ADD10C,0.050000*%
%ADD11C,0.200000*%
%ADD12C,0.100000*%
%ADD13C,0.250000*%
G04 APERTURE END LIST*
D10*
X600000Y0D02*
X15400000Y0D01*
X16000000Y-600000D02*
X16000000Y-6900000D01*
X15400000Y-7500000D02*
X600000Y-7500000D01*
X0Y-6900000D02*
X0Y-600000D01*
X0Y-600000D02*
G75*
G02*
X600000Y0I600000J0D01*
G01*
X15400000Y0D02*
G75*
G02*
X16000000Y-600000I0J-600000D01*
G01*
X16000000Y-6900000D02*
G75*
G02*
X15400000Y-7500000I-600000J0D01*
G01*
X600000Y-7500000D02*
G75*
G02*
X0Y-6900000I0J600000D01*
G01*
X12550000Y-2350000D02*
X12850000Y-2350000D01*
X12850000Y-2350000D02*
X12850000Y-4750000D01*
X12850000Y-4750000D02*
X12550000Y-4750000D01*
X12550000Y-4750000D02*
X12550000Y-2350000D01*
D11*
D12*
X635000Y-5670000D02*
X665000Y-5700000D01*
X665000Y-5670000D02*
X635000Y-5700000D01*
X735000Y-3470000D02*
X765000Y-3500000D01*
X765000Y-3470000D02*
X735000Y-3500000D01*
X1635000Y-2570000D02*
X1665000Y-2600000D01*
X1665000Y-2570000D02*
X1635000Y-2600000D01*
X1635000Y-4370000D02*
X1665000Y-4400000D01*
X1665000Y-4370000D02*
X1635000Y-4400000D01*
X2535000Y-3470000D02*
X2565000Y-3500000D01*
X2565000Y-3470000D02*
X2535000Y-3500000D01*
X2635000Y-5670000D02*
X2665000Y-5700000D01*
X2665000Y-5670000D02*
X2635000Y-5700000D01*
X10955000Y-1785000D02*
X10985000Y-1815000D01*
X10985000Y-1785000D02*
X10955000Y-1815000D01*
X10955000Y-2780500D02*
X10985000Y-2810500D01*
X10985000Y-2780500D02*
X10955000Y-2810500D01*
X11065000Y-1685000D02*
X11095000Y-1715000D01*
X11095000Y-1685000D02*
X11065000Y-1715000D01*
X11065000Y-1935000D02*
X11095000Y-1965000D01*
X11095000Y-1935000D02*
X11065000Y-1965000D01*
X11175000Y-1585000D02*
X11205000Y-1615000D01*
X11205000Y-1585000D02*
X11175000Y-1615000D01*
X11175000Y-2035000D02*
X11205000Y-2065000D01*
X11205000Y-2035000D02*
X11175000Y-2065000D01*
X11285000Y-1485000D02*
X11315000Y-1515000D01*
X11315000Y-1485000D02*
X11285000Y-1515000D01*
X11285000Y-3161500D02*
X11315000Y-3191500D01*
X11315000Y-3161500D02*
X11285000Y-3191500D01*
X11395000Y-1385000D02*
X11425000Y-1415000D01*
X11425000Y-1385000D02*
X11395000Y-1415000D01*
X11395000Y-3606000D02*
X11425000Y-3636000D01*
X11425000Y-3606000D02*
X11395000Y-3636000D01*
X11505000Y-1285000D02*
X11535000Y-1315000D01*
X11535000Y-1285000D02*
X11505000Y-1315000D01*
X11505000Y-2971000D02*
X11535000Y-3001000D01*
X11535000Y-2971000D02*
X11505000Y-3001000D01*
X11615000Y-1185000D02*
X11645000Y-1215000D01*
X11645000Y-1185000D02*
X11615000Y-1215000D01*
X11615000Y-2844000D02*
X11645000Y-2874000D01*
X11645000Y-2844000D02*
X11615000Y-2874000D01*
X11725000Y-1085000D02*
X11755000Y-1115000D01*
X11755000Y-1085000D02*
X11725000Y-1115000D01*
X11725000Y-2717000D02*
X11755000Y-2747000D01*
X11755000Y-2717000D02*
X11725000Y-2747000D01*
X11835000Y-985000D02*
X11865000Y-1015000D01*
X11865000Y-985000D02*
X11835000Y-1015000D01*
X11835000Y-2590000D02*
X11865000Y-2620000D01*
X11865000Y-2590000D02*
X11835000Y-2620000D01*
X11945000Y-885000D02*
X11975000Y-915000D01*
X11975000Y-885000D02*
X11945000Y-915000D01*
X11945000Y-3288500D02*
X11975000Y-3318500D01*
X11975000Y-3288500D02*
X11945000Y-3318500D01*
X12055000Y-785000D02*
X12085000Y-815000D01*
X12085000Y-785000D02*
X12055000Y-815000D01*
X12055000Y-3415500D02*
X12085000Y-3445500D01*
X12085000Y-3415500D02*
X12055000Y-3445500D01*
X12165000Y-685000D02*
X12195000Y-715000D01*
X12195000Y-685000D02*
X12165000Y-715000D01*
X12165000Y-3542500D02*
X12195000Y-3572500D01*
X12195000Y-3542500D02*
X12165000Y-3572500D01*
X12275000Y-585000D02*
X12305000Y-615000D01*
X12305000Y-585000D02*
X12275000Y-615000D01*
X12275000Y-3669500D02*
X12305000Y-3699500D01*
X12305000Y-3669500D02*
X12275000Y-3699500D01*
X12385000Y-485000D02*
X12415000Y-515000D01*
X12415000Y-485000D02*
X12385000Y-515000D01*
X12385000Y-3796500D02*
X12415000Y-3826500D01*
X12415000Y-3796500D02*
X12385000Y-3826500D01*
X13300000Y-2410000D02*
X13330000Y-2440000D01*
X13330000Y-2410000D02*
X13300000Y-2440000D01*
X13300000Y-2560000D02*
X13330000Y-2590000D01*
X13330000Y-2560000D02*
X13300000Y-2590000D01*
X13300000Y-3060000D02*
X13330000Y-3090000D01*
X13330000Y-3060000D02*
X13300000Y-3090000D01*
X13300000Y-3610000D02*
X13330000Y-3640000D01*
X13330000Y-3610000D02*
X13300000Y-3640000D01*
X13300000Y-4110000D02*
X13330000Y-4140000D01*
X13330000Y-4110000D02*
X13300000Y-4140000D01*
X13300000Y-4460000D02*
X13330000Y-4490000D01*
X13330000Y-4460000D02*
X13300000Y-4490000D01*
X13300000Y-4610000D02*
X13330000Y-4640000D01*
X13330000Y-4610000D02*
X13300000Y-4640000D01*
X13300000Y-4760000D02*
X13330000Y-4790000D01*
X13330000Y-4760000D02*
X13300000Y-4790000D01*
X13300000Y-4910000D02*
X13330000Y-4940000D01*
X13330000Y-4910000D02*
X13300000Y-4940000D01*
X13435000Y-485000D02*
X13465000Y-515000D01*
X13465000Y-485000D02*
X13435000Y-515000D01*
X13435000Y-3470000D02*
X13465000Y-3500000D01*
X13465000Y-3470000D02*
X13435000Y-3500000D01*
X13480000Y-585000D02*
X13510000Y-615000D01*
X13510000Y-585000D02*
X13480000Y-615000D01*
X13525000Y-685000D02*
X13555000Y-715000D01*
X13555000Y-685000D02*
X13525000Y-715000D01*
X13570000Y-785000D02*
X13600000Y-815000D01*
X13600000Y-785000D02*
X13570000Y-815000D01*
X13600000Y-4610000D02*
X13630000Y-4640000D01*
X13630000Y-4610000D02*
X13600000Y-4640000D01*
X13600000Y-4810000D02*
X13630000Y-4840000D01*
X13630000Y-4810000D02*
X13600000Y-4840000D01*
X13615000Y-885000D02*
X13645000Y-915000D01*
X13645000Y-885000D02*
X13615000Y-915000D01*
X13660000Y-985000D02*
X13690000Y-1015000D01*
X13690000Y-985000D02*
X13660000Y-1015000D01*
X13705000Y-1085000D02*
X13735000Y-1115000D01*
X13735000Y-1085000D02*
X13705000Y-1115000D01*
X13750000Y-1185000D02*
X13780000Y-1215000D01*
X13780000Y-1185000D02*
X13750000Y-1215000D01*
X13795000Y-1285000D02*
X13825000Y-1315000D01*
X13825000Y-1285000D02*
X13795000Y-1315000D01*
X13840000Y-1385000D02*
X13870000Y-1415000D01*
X13870000Y-1385000D02*
X13840000Y-1415000D01*
X13885000Y-1485000D02*
X13915000Y-1515000D01*
X13915000Y-1485000D02*
X13885000Y-1515000D01*
X13930000Y-1585000D02*
X13960000Y-1615000D01*
X13960000Y-1585000D02*
X13930000Y-1615000D01*
X13975000Y-1685000D02*
X14005000Y-1715000D01*
X14005000Y-1685000D02*
X13975000Y-1715000D01*
X14020000Y-1785000D02*
X14050000Y-1815000D01*
X14050000Y-1785000D02*
X14020000Y-1815000D01*
X14335000Y-2470000D02*
X14365000Y-2500000D01*
X14365000Y-2470000D02*
X14335000Y-2500000D01*
X14335000Y-4470000D02*
X14365000Y-4500000D01*
X14365000Y-4470000D02*
X14335000Y-4500000D01*
X15335000Y-3470000D02*
X15365000Y-3500000D01*
X15365000Y-3470000D02*
X15335000Y-3500000D01*
X1237500Y-5265000D02*
G75*
G02*
X1202500Y-5265000I-17500J0D01*
G01*
X1202500Y-5265000D02*
G75*
G02*
X1237500Y-5265000I17500J0D01*
G01*
X1237500Y-7000000D02*
G75*
G02*
X1202500Y-7000000I-17500J0D01*
G01*
X1202500Y-7000000D02*
G75*
G02*
X1237500Y-7000000I17500J0D01*
G01*
X1337500Y-3065000D02*
G75*
G02*
X1302500Y-3065000I-17500J0D01*
G01*
X1302500Y-3065000D02*
G75*
G02*
X1337500Y-3065000I17500J0D01*
G01*
X1337500Y-6400000D02*
G75*
G02*
X1302500Y-6400000I-17500J0D01*
G01*
X1302500Y-6400000D02*
G75*
G02*
X1337500Y-6400000I17500J0D01*
G01*
X1482500Y-850000D02*
G75*
G02*
X1447500Y-850000I-17500J0D01*
G01*
X1447500Y-850000D02*
G75*
G02*
X1482500Y-850000I17500J0D01*
G01*
X1702500Y-7400000D02*
G75*
G02*
X1667500Y-7400000I-17500J0D01*
G01*
X1667500Y-7400000D02*
G75*
G02*
X1702500Y-7400000I17500J0D01*
G01*
X2067500Y-2350000D02*
G75*
G02*
X2032500Y-2350000I-17500J0D01*
G01*
X2032500Y-2350000D02*
G75*
G02*
X2067500Y-2350000I17500J0D01*
G01*
X2237500Y-2165000D02*
G75*
G02*
X2202500Y-2165000I-17500J0D01*
G01*
X2202500Y-2165000D02*
G75*
G02*
X2237500Y-2165000I17500J0D01*
G01*
X2237500Y-6200000D02*
G75*
G02*
X2202500Y-6200000I-17500J0D01*
G01*
X2202500Y-6200000D02*
G75*
G02*
X2237500Y-6200000I17500J0D01*
G01*
X2277500Y-3965000D02*
G75*
G02*
X2242500Y-3965000I-17500J0D01*
G01*
X2242500Y-3965000D02*
G75*
G02*
X2277500Y-3965000I17500J0D01*
G01*
X2277500Y-6300000D02*
G75*
G02*
X2242500Y-6300000I-17500J0D01*
G01*
X2242500Y-6300000D02*
G75*
G02*
X2277500Y-6300000I17500J0D01*
G01*
X2422500Y-6625000D02*
G75*
G02*
X2387500Y-6625000I-17500J0D01*
G01*
X2387500Y-6625000D02*
G75*
G02*
X2422500Y-6625000I17500J0D01*
G01*
X2612500Y-6300000D02*
G75*
G02*
X2577500Y-6300000I-17500J0D01*
G01*
X2577500Y-6300000D02*
G75*
G02*
X2612500Y-6300000I17500J0D01*
G01*
X2700000Y-2480000D02*
G75*
G02*
X2665000Y-2480000I-17500J0D01*
G01*
X2665000Y-2480000D02*
G75*
G02*
X2700000Y-2480000I17500J0D01*
G01*
X2700000Y-3420000D02*
G75*
G02*
X2665000Y-3420000I-17500J0D01*
G01*
X2665000Y-3420000D02*
G75*
G02*
X2700000Y-3420000I17500J0D01*
G01*
X2712500Y-6750000D02*
G75*
G02*
X2677500Y-6750000I-17500J0D01*
G01*
X2677500Y-6750000D02*
G75*
G02*
X2712500Y-6750000I17500J0D01*
G01*
X2723000Y-2250000D02*
G75*
G02*
X2688000Y-2250000I-17500J0D01*
G01*
X2688000Y-2250000D02*
G75*
G02*
X2723000Y-2250000I17500J0D01*
G01*
X2827000Y-2350000D02*
G75*
G02*
X2792000Y-2350000I-17500J0D01*
G01*
X2792000Y-2350000D02*
G75*
G02*
X2827000Y-2350000I17500J0D01*
G01*
X2954000Y-2870000D02*
G75*
G02*
X2919000Y-2870000I-17500J0D01*
G01*
X2919000Y-2870000D02*
G75*
G02*
X2954000Y-2870000I17500J0D01*
G01*
X3122500Y-6625000D02*
G75*
G02*
X3087500Y-6625000I-17500J0D01*
G01*
X3087500Y-6625000D02*
G75*
G02*
X3122500Y-6625000I17500J0D01*
G01*
X3208000Y-2880000D02*
G75*
G02*
X3173000Y-2880000I-17500J0D01*
G01*
X3173000Y-2880000D02*
G75*
G02*
X3208000Y-2880000I17500J0D01*
G01*
X3208000Y-3420000D02*
G75*
G02*
X3173000Y-3420000I-17500J0D01*
G01*
X3173000Y-3420000D02*
G75*
G02*
X3208000Y-3420000I17500J0D01*
G01*
X3312500Y-6300000D02*
G75*
G02*
X3277500Y-6300000I-17500J0D01*
G01*
X3277500Y-6300000D02*
G75*
G02*
X3312500Y-6300000I17500J0D01*
G01*
X3335000Y-3367000D02*
G75*
G02*
X3300000Y-3367000I-17500J0D01*
G01*
X3300000Y-3367000D02*
G75*
G02*
X3335000Y-3367000I17500J0D01*
G01*
X3412500Y-6750000D02*
G75*
G02*
X3377500Y-6750000I-17500J0D01*
G01*
X3377500Y-6750000D02*
G75*
G02*
X3412500Y-6750000I17500J0D01*
G01*
X3437500Y-3065000D02*
G75*
G02*
X3402500Y-3065000I-17500J0D01*
G01*
X3402500Y-3065000D02*
G75*
G02*
X3437500Y-3065000I17500J0D01*
G01*
X3437500Y-6500000D02*
G75*
G02*
X3402500Y-6500000I-17500J0D01*
G01*
X3402500Y-6500000D02*
G75*
G02*
X3437500Y-6500000I17500J0D01*
G01*
X3477500Y-5265000D02*
G75*
G02*
X3442500Y-5265000I-17500J0D01*
G01*
X3442500Y-5265000D02*
G75*
G02*
X3477500Y-5265000I17500J0D01*
G01*
X3477500Y-7100000D02*
G75*
G02*
X3442500Y-7100000I-17500J0D01*
G01*
X3442500Y-7100000D02*
G75*
G02*
X3477500Y-7100000I17500J0D01*
G01*
X3662500Y-3310000D02*
G75*
G02*
X3627500Y-3310000I-17500J0D01*
G01*
X3627500Y-3310000D02*
G75*
G02*
X3662500Y-3310000I17500J0D01*
G01*
X3662500Y-6900000D02*
G75*
G02*
X3627500Y-6900000I-17500J0D01*
G01*
X3627500Y-6900000D02*
G75*
G02*
X3662500Y-6900000I17500J0D01*
G01*
X3817500Y-4613500D02*
G75*
G02*
X3782500Y-4613500I-17500J0D01*
G01*
X3782500Y-4613500D02*
G75*
G02*
X3817500Y-4613500I17500J0D01*
G01*
X3942500Y-6805000D02*
G75*
G02*
X3907500Y-6805000I-17500J0D01*
G01*
X3907500Y-6805000D02*
G75*
G02*
X3942500Y-6805000I17500J0D01*
G01*
X3967500Y-2250000D02*
G75*
G02*
X3932500Y-2250000I-17500J0D01*
G01*
X3932500Y-2250000D02*
G75*
G02*
X3967500Y-2250000I17500J0D01*
G01*
X4222500Y-4460000D02*
G75*
G02*
X4187500Y-4460000I-17500J0D01*
G01*
X4187500Y-4460000D02*
G75*
G02*
X4222500Y-4460000I17500J0D01*
G01*
X4222500Y-5200000D02*
G75*
G02*
X4187500Y-5200000I-17500J0D01*
G01*
X4187500Y-5200000D02*
G75*
G02*
X4222500Y-5200000I17500J0D01*
G01*
X4562500Y-3430000D02*
G75*
G02*
X4527500Y-3430000I-17500J0D01*
G01*
X4527500Y-3430000D02*
G75*
G02*
X4562500Y-3430000I17500J0D01*
G01*
X4562500Y-6800000D02*
G75*
G02*
X4527500Y-6800000I-17500J0D01*
G01*
X4527500Y-6800000D02*
G75*
G02*
X4562500Y-6800000I17500J0D01*
G01*
X4722500Y-4460000D02*
G75*
G02*
X4687500Y-4460000I-17500J0D01*
G01*
X4687500Y-4460000D02*
G75*
G02*
X4722500Y-4460000I17500J0D01*
G01*
X4722500Y-5200000D02*
G75*
G02*
X4687500Y-5200000I-17500J0D01*
G01*
X4687500Y-5200000D02*
G75*
G02*
X4722500Y-5200000I17500J0D01*
G01*
X5222500Y-4460000D02*
G75*
G02*
X5187500Y-4460000I-17500J0D01*
G01*
X5187500Y-4460000D02*
G75*
G02*
X5222500Y-4460000I17500J0D01*
G01*
X5222500Y-5200000D02*
G75*
G02*
X5187500Y-5200000I-17500J0D01*
G01*
X5187500Y-5200000D02*
G75*
G02*
X5222500Y-5200000I17500J0D01*
G01*
X5262500Y-3550000D02*
G75*
G02*
X5227500Y-3550000I-17500J0D01*
G01*
X5227500Y-3550000D02*
G75*
G02*
X5262500Y-3550000I17500J0D01*
G01*
X5262500Y-6700000D02*
G75*
G02*
X5227500Y-6700000I-17500J0D01*
G01*
X5227500Y-6700000D02*
G75*
G02*
X5262500Y-6700000I17500J0D01*
G01*
X5722500Y-4460000D02*
G75*
G02*
X5687500Y-4460000I-17500J0D01*
G01*
X5687500Y-4460000D02*
G75*
G02*
X5722500Y-4460000I17500J0D01*
G01*
X5722500Y-5200000D02*
G75*
G02*
X5687500Y-5200000I-17500J0D01*
G01*
X5687500Y-5200000D02*
G75*
G02*
X5722500Y-5200000I17500J0D01*
G01*
X5872500Y-2605000D02*
G75*
G02*
X5837500Y-2605000I-17500J0D01*
G01*
X5837500Y-2605000D02*
G75*
G02*
X5872500Y-2605000I17500J0D01*
G01*
X5872500Y-6600000D02*
G75*
G02*
X5837500Y-6600000I-17500J0D01*
G01*
X5837500Y-6600000D02*
G75*
G02*
X5872500Y-6600000I17500J0D01*
G01*
X6062500Y-3190000D02*
G75*
G02*
X6027500Y-3190000I-17500J0D01*
G01*
X6027500Y-3190000D02*
G75*
G02*
X6062500Y-3190000I17500J0D01*
G01*
X6062500Y-7100000D02*
G75*
G02*
X6027500Y-7100000I-17500J0D01*
G01*
X6027500Y-7100000D02*
G75*
G02*
X6062500Y-7100000I17500J0D01*
G01*
X6222500Y-4460000D02*
G75*
G02*
X6187500Y-4460000I-17500J0D01*
G01*
X6187500Y-4460000D02*
G75*
G02*
X6222500Y-4460000I17500J0D01*
G01*
X6222500Y-5200000D02*
G75*
G02*
X6187500Y-5200000I-17500J0D01*
G01*
X6187500Y-5200000D02*
G75*
G02*
X6222500Y-5200000I17500J0D01*
G01*
X6262500Y-2732000D02*
G75*
G02*
X6227500Y-2732000I-17500J0D01*
G01*
X6227500Y-2732000D02*
G75*
G02*
X6262500Y-2732000I17500J0D01*
G01*
X6262500Y-6500000D02*
G75*
G02*
X6227500Y-6500000I-17500J0D01*
G01*
X6227500Y-6500000D02*
G75*
G02*
X6262500Y-6500000I17500J0D01*
G01*
X6572500Y-2859000D02*
G75*
G02*
X6537500Y-2859000I-17500J0D01*
G01*
X6537500Y-2859000D02*
G75*
G02*
X6572500Y-2859000I17500J0D01*
G01*
X6572500Y-6400000D02*
G75*
G02*
X6537500Y-6400000I-17500J0D01*
G01*
X6537500Y-6400000D02*
G75*
G02*
X6572500Y-6400000I17500J0D01*
G01*
X6722500Y-4460000D02*
G75*
G02*
X6687500Y-4460000I-17500J0D01*
G01*
X6687500Y-4460000D02*
G75*
G02*
X6722500Y-4460000I17500J0D01*
G01*
X6722500Y-5200000D02*
G75*
G02*
X6687500Y-5200000I-17500J0D01*
G01*
X6687500Y-5200000D02*
G75*
G02*
X6722500Y-5200000I17500J0D01*
G01*
X6762500Y-2986000D02*
G75*
G02*
X6727500Y-2986000I-17500J0D01*
G01*
X6727500Y-2986000D02*
G75*
G02*
X6762500Y-2986000I17500J0D01*
G01*
X6762500Y-6300000D02*
G75*
G02*
X6727500Y-6300000I-17500J0D01*
G01*
X6727500Y-6300000D02*
G75*
G02*
X6762500Y-6300000I17500J0D01*
G01*
X6872500Y-4000000D02*
G75*
G02*
X6837500Y-4000000I-17500J0D01*
G01*
X6837500Y-4000000D02*
G75*
G02*
X6872500Y-4000000I17500J0D01*
G01*
X6942500Y-2605000D02*
G75*
G02*
X6907500Y-2605000I-17500J0D01*
G01*
X6907500Y-2605000D02*
G75*
G02*
X6942500Y-2605000I17500J0D01*
G01*
X6942500Y-2732000D02*
G75*
G02*
X6907500Y-2732000I-17500J0D01*
G01*
X6907500Y-2732000D02*
G75*
G02*
X6942500Y-2732000I17500J0D01*
G01*
X6942500Y-2859000D02*
G75*
G02*
X6907500Y-2859000I-17500J0D01*
G01*
X6907500Y-2859000D02*
G75*
G02*
X6942500Y-2859000I17500J0D01*
G01*
X6942500Y-2986000D02*
G75*
G02*
X6907500Y-2986000I-17500J0D01*
G01*
X6907500Y-2986000D02*
G75*
G02*
X6942500Y-2986000I17500J0D01*
G01*
X7062500Y-4400000D02*
G75*
G02*
X7027500Y-4400000I-17500J0D01*
G01*
X7027500Y-4400000D02*
G75*
G02*
X7062500Y-4400000I17500J0D01*
G01*
X7062500Y-6200000D02*
G75*
G02*
X7027500Y-6200000I-17500J0D01*
G01*
X7027500Y-6200000D02*
G75*
G02*
X7062500Y-6200000I17500J0D01*
G01*
X7092500Y-3190000D02*
G75*
G02*
X7057500Y-3190000I-17500J0D01*
G01*
X7057500Y-3190000D02*
G75*
G02*
X7092500Y-3190000I17500J0D01*
G01*
X7207500Y-1700000D02*
G75*
G02*
X7172500Y-1700000I-17500J0D01*
G01*
X7172500Y-1700000D02*
G75*
G02*
X7207500Y-1700000I17500J0D01*
G01*
X7207500Y-3621000D02*
G75*
G02*
X7172500Y-3621000I-17500J0D01*
G01*
X7172500Y-3621000D02*
G75*
G02*
X7207500Y-3621000I17500J0D01*
G01*
X7222500Y-4460000D02*
G75*
G02*
X7187500Y-4460000I-17500J0D01*
G01*
X7187500Y-4460000D02*
G75*
G02*
X7222500Y-4460000I17500J0D01*
G01*
X7222500Y-5200000D02*
G75*
G02*
X7187500Y-5200000I-17500J0D01*
G01*
X7187500Y-5200000D02*
G75*
G02*
X7222500Y-5200000I17500J0D01*
G01*
X7242500Y-1800000D02*
G75*
G02*
X7207500Y-1800000I-17500J0D01*
G01*
X7207500Y-1800000D02*
G75*
G02*
X7242500Y-1800000I17500J0D01*
G01*
X7242500Y-3494000D02*
G75*
G02*
X7207500Y-3494000I-17500J0D01*
G01*
X7207500Y-3494000D02*
G75*
G02*
X7242500Y-3494000I17500J0D01*
G01*
X7242500Y-7400000D02*
G75*
G02*
X7207500Y-7400000I-17500J0D01*
G01*
X7207500Y-7400000D02*
G75*
G02*
X7242500Y-7400000I17500J0D01*
G01*
X7277500Y-1900000D02*
G75*
G02*
X7242500Y-1900000I-17500J0D01*
G01*
X7242500Y-1900000D02*
G75*
G02*
X7277500Y-1900000I17500J0D01*
G01*
X7277500Y-3367000D02*
G75*
G02*
X7242500Y-3367000I-17500J0D01*
G01*
X7242500Y-3367000D02*
G75*
G02*
X7277500Y-3367000I17500J0D01*
G01*
X7312500Y-2000000D02*
G75*
G02*
X7277500Y-2000000I-17500J0D01*
G01*
X7277500Y-2000000D02*
G75*
G02*
X7312500Y-2000000I17500J0D01*
G01*
X7312500Y-3240000D02*
G75*
G02*
X7277500Y-3240000I-17500J0D01*
G01*
X7277500Y-3240000D02*
G75*
G02*
X7312500Y-3240000I17500J0D01*
G01*
X7319000Y-2795500D02*
G75*
G02*
X7284000Y-2795500I-17500J0D01*
G01*
X7284000Y-2795500D02*
G75*
G02*
X7319000Y-2795500I17500J0D01*
G01*
X7322500Y-6550000D02*
G75*
G02*
X7287500Y-6550000I-17500J0D01*
G01*
X7287500Y-6550000D02*
G75*
G02*
X7322500Y-6550000I17500J0D01*
G01*
X7369500Y-3550000D02*
G75*
G02*
X7334500Y-3550000I-17500J0D01*
G01*
X7334500Y-3550000D02*
G75*
G02*
X7369500Y-3550000I17500J0D01*
G01*
X7373000Y-3430000D02*
G75*
G02*
X7338000Y-3430000I-17500J0D01*
G01*
X7338000Y-3430000D02*
G75*
G02*
X7373000Y-3430000I17500J0D01*
G01*
X7500000Y-3310000D02*
G75*
G02*
X7465000Y-3310000I-17500J0D01*
G01*
X7465000Y-3310000D02*
G75*
G02*
X7500000Y-3310000I17500J0D01*
G01*
X7697500Y-6625500D02*
G75*
G02*
X7662500Y-6625500I-17500J0D01*
G01*
X7662500Y-6625500D02*
G75*
G02*
X7697500Y-6625500I17500J0D01*
G01*
X7717500Y-5750000D02*
G75*
G02*
X7682500Y-5750000I-17500J0D01*
G01*
X7682500Y-5750000D02*
G75*
G02*
X7717500Y-5750000I17500J0D01*
G01*
X7722500Y-4460000D02*
G75*
G02*
X7687500Y-4460000I-17500J0D01*
G01*
X7687500Y-4460000D02*
G75*
G02*
X7722500Y-4460000I17500J0D01*
G01*
X7722500Y-5200000D02*
G75*
G02*
X7687500Y-5200000I-17500J0D01*
G01*
X7687500Y-5200000D02*
G75*
G02*
X7722500Y-5200000I17500J0D01*
G01*
X7827000Y-3684500D02*
G75*
G02*
X7792000Y-3684500I-17500J0D01*
G01*
X7792000Y-3684500D02*
G75*
G02*
X7827000Y-3684500I17500J0D01*
G01*
X7954000Y-3303500D02*
G75*
G02*
X7919000Y-3303500I-17500J0D01*
G01*
X7919000Y-3303500D02*
G75*
G02*
X7954000Y-3303500I17500J0D01*
G01*
X7992500Y-6425500D02*
G75*
G02*
X7957500Y-6425500I-17500J0D01*
G01*
X7957500Y-6425500D02*
G75*
G02*
X7992500Y-6425500I17500J0D01*
G01*
X8042500Y-6525500D02*
G75*
G02*
X8007500Y-6525500I-17500J0D01*
G01*
X8007500Y-6525500D02*
G75*
G02*
X8042500Y-6525500I17500J0D01*
G01*
X8067500Y-4613500D02*
G75*
G02*
X8032500Y-4613500I-17500J0D01*
G01*
X8032500Y-4613500D02*
G75*
G02*
X8067500Y-4613500I17500J0D01*
G01*
X8081000Y-3811500D02*
G75*
G02*
X8046000Y-3811500I-17500J0D01*
G01*
X8046000Y-3811500D02*
G75*
G02*
X8081000Y-3811500I17500J0D01*
G01*
X8167500Y-3296000D02*
G75*
G02*
X8132500Y-3296000I-17500J0D01*
G01*
X8132500Y-3296000D02*
G75*
G02*
X8167500Y-3296000I17500J0D01*
G01*
X8208000Y-1950000D02*
G75*
G02*
X8173000Y-1950000I-17500J0D01*
G01*
X8173000Y-1950000D02*
G75*
G02*
X8208000Y-1950000I17500J0D01*
G01*
X8222500Y-4460000D02*
G75*
G02*
X8187500Y-4460000I-17500J0D01*
G01*
X8187500Y-4460000D02*
G75*
G02*
X8222500Y-4460000I17500J0D01*
G01*
X8222500Y-5200000D02*
G75*
G02*
X8187500Y-5200000I-17500J0D01*
G01*
X8187500Y-5200000D02*
G75*
G02*
X8222500Y-5200000I17500J0D01*
G01*
X8257500Y-6000000D02*
G75*
G02*
X8222500Y-6000000I-17500J0D01*
G01*
X8222500Y-6000000D02*
G75*
G02*
X8257500Y-6000000I17500J0D01*
G01*
X8335000Y-2050000D02*
G75*
G02*
X8300000Y-2050000I-17500J0D01*
G01*
X8300000Y-2050000D02*
G75*
G02*
X8335000Y-2050000I17500J0D01*
G01*
X8462000Y-3176500D02*
G75*
G02*
X8427000Y-3176500I-17500J0D01*
G01*
X8427000Y-3176500D02*
G75*
G02*
X8462000Y-3176500I17500J0D01*
G01*
X8522500Y-6550000D02*
G75*
G02*
X8487500Y-6550000I-17500J0D01*
G01*
X8487500Y-6550000D02*
G75*
G02*
X8522500Y-6550000I17500J0D01*
G01*
X8589000Y-3557500D02*
G75*
G02*
X8554000Y-3557500I-17500J0D01*
G01*
X8554000Y-3557500D02*
G75*
G02*
X8589000Y-3557500I17500J0D01*
G01*
X8592500Y-3367000D02*
G75*
G02*
X8557500Y-3367000I-17500J0D01*
G01*
X8557500Y-3367000D02*
G75*
G02*
X8592500Y-3367000I17500J0D01*
G01*
X8716000Y-3430500D02*
G75*
G02*
X8681000Y-3430500I-17500J0D01*
G01*
X8681000Y-3430500D02*
G75*
G02*
X8716000Y-3430500I17500J0D01*
G01*
X8722500Y-4460000D02*
G75*
G02*
X8687500Y-4460000I-17500J0D01*
G01*
X8687500Y-4460000D02*
G75*
G02*
X8722500Y-4460000I17500J0D01*
G01*
X8722500Y-5200000D02*
G75*
G02*
X8687500Y-5200000I-17500J0D01*
G01*
X8687500Y-5200000D02*
G75*
G02*
X8722500Y-5200000I17500J0D01*
G01*
X8892500Y-2101000D02*
G75*
G02*
X8857500Y-2101000I-17500J0D01*
G01*
X8857500Y-2101000D02*
G75*
G02*
X8892500Y-2101000I17500J0D01*
G01*
X9017500Y-3748000D02*
G75*
G02*
X8982500Y-3748000I-17500J0D01*
G01*
X8982500Y-3748000D02*
G75*
G02*
X9017500Y-3748000I17500J0D01*
G01*
X9042500Y-6525500D02*
G75*
G02*
X9007500Y-6525500I-17500J0D01*
G01*
X9007500Y-6525500D02*
G75*
G02*
X9042500Y-6525500I17500J0D01*
G01*
X9092500Y-2605000D02*
G75*
G02*
X9057500Y-2605000I-17500J0D01*
G01*
X9057500Y-2605000D02*
G75*
G02*
X9092500Y-2605000I17500J0D01*
G01*
X9092500Y-2732000D02*
G75*
G02*
X9057500Y-2732000I-17500J0D01*
G01*
X9057500Y-2732000D02*
G75*
G02*
X9092500Y-2732000I17500J0D01*
G01*
X9092500Y-2859000D02*
G75*
G02*
X9057500Y-2859000I-17500J0D01*
G01*
X9057500Y-2859000D02*
G75*
G02*
X9092500Y-2859000I17500J0D01*
G01*
X9092500Y-2986000D02*
G75*
G02*
X9057500Y-2986000I-17500J0D01*
G01*
X9057500Y-2986000D02*
G75*
G02*
X9092500Y-2986000I17500J0D01*
G01*
X9092500Y-3494000D02*
G75*
G02*
X9057500Y-3494000I-17500J0D01*
G01*
X9057500Y-3494000D02*
G75*
G02*
X9092500Y-3494000I17500J0D01*
G01*
X9092500Y-3621000D02*
G75*
G02*
X9057500Y-3621000I-17500J0D01*
G01*
X9057500Y-3621000D02*
G75*
G02*
X9092500Y-3621000I17500J0D01*
G01*
X9092500Y-3748000D02*
G75*
G02*
X9057500Y-3748000I-17500J0D01*
G01*
X9057500Y-3748000D02*
G75*
G02*
X9092500Y-3748000I17500J0D01*
G01*
X9092500Y-6950000D02*
G75*
G02*
X9057500Y-6950000I-17500J0D01*
G01*
X9057500Y-6950000D02*
G75*
G02*
X9092500Y-6950000I17500J0D01*
G01*
X9122500Y-4000000D02*
G75*
G02*
X9087500Y-4000000I-17500J0D01*
G01*
X9087500Y-4000000D02*
G75*
G02*
X9122500Y-4000000I17500J0D01*
G01*
X9142500Y-6425500D02*
G75*
G02*
X9107500Y-6425500I-17500J0D01*
G01*
X9107500Y-6425500D02*
G75*
G02*
X9142500Y-6425500I17500J0D01*
G01*
X9222500Y-4460000D02*
G75*
G02*
X9187500Y-4460000I-17500J0D01*
G01*
X9187500Y-4460000D02*
G75*
G02*
X9222500Y-4460000I17500J0D01*
G01*
X9222500Y-5200000D02*
G75*
G02*
X9187500Y-5200000I-17500J0D01*
G01*
X9187500Y-5200000D02*
G75*
G02*
X9222500Y-5200000I17500J0D01*
G01*
X9312500Y-4060000D02*
G75*
G02*
X9277500Y-4060000I-17500J0D01*
G01*
X9277500Y-4060000D02*
G75*
G02*
X9312500Y-4060000I17500J0D01*
G01*
X9722500Y-4460000D02*
G75*
G02*
X9687500Y-4460000I-17500J0D01*
G01*
X9687500Y-4460000D02*
G75*
G02*
X9722500Y-4460000I17500J0D01*
G01*
X9722500Y-5200000D02*
G75*
G02*
X9687500Y-5200000I-17500J0D01*
G01*
X9687500Y-5200000D02*
G75*
G02*
X9722500Y-5200000I17500J0D01*
G01*
X9872500Y-3494000D02*
G75*
G02*
X9837500Y-3494000I-17500J0D01*
G01*
X9837500Y-3494000D02*
G75*
G02*
X9872500Y-3494000I17500J0D01*
G01*
X9872500Y-7000000D02*
G75*
G02*
X9837500Y-7000000I-17500J0D01*
G01*
X9837500Y-7000000D02*
G75*
G02*
X9872500Y-7000000I17500J0D01*
G01*
X10222500Y-4460000D02*
G75*
G02*
X10187500Y-4460000I-17500J0D01*
G01*
X10187500Y-4460000D02*
G75*
G02*
X10222500Y-4460000I17500J0D01*
G01*
X10222500Y-5200000D02*
G75*
G02*
X10187500Y-5200000I-17500J0D01*
G01*
X10187500Y-5200000D02*
G75*
G02*
X10222500Y-5200000I17500J0D01*
G01*
X10567500Y-4613500D02*
G75*
G02*
X10532500Y-4613500I-17500J0D01*
G01*
X10532500Y-4613500D02*
G75*
G02*
X10567500Y-4613500I17500J0D01*
G01*
X10717500Y-3859500D02*
G75*
G02*
X10682500Y-3859500I-17500J0D01*
G01*
X10682500Y-3859500D02*
G75*
G02*
X10717500Y-3859500I17500J0D01*
G01*
X10867500Y-6050000D02*
G75*
G02*
X10832500Y-6050000I-17500J0D01*
G01*
X10832500Y-6050000D02*
G75*
G02*
X10867500Y-6050000I17500J0D01*
G01*
X10922500Y-3700000D02*
G75*
G02*
X10887500Y-3700000I-17500J0D01*
G01*
X10887500Y-3700000D02*
G75*
G02*
X10922500Y-3700000I17500J0D01*
G01*
X11112500Y-3300000D02*
G75*
G02*
X11077500Y-3300000I-17500J0D01*
G01*
X11077500Y-3300000D02*
G75*
G02*
X11112500Y-3300000I17500J0D01*
G01*
X11117500Y-4009500D02*
G75*
G02*
X11082500Y-4009500I-17500J0D01*
G01*
X11082500Y-4009500D02*
G75*
G02*
X11117500Y-4009500I17500J0D01*
G01*
X11167500Y-5650000D02*
G75*
G02*
X11132500Y-5650000I-17500J0D01*
G01*
X11132500Y-5650000D02*
G75*
G02*
X11167500Y-5650000I17500J0D01*
G01*
X11257500Y-4950000D02*
G75*
G02*
X11222500Y-4950000I-17500J0D01*
G01*
X11222500Y-4950000D02*
G75*
G02*
X11257500Y-4950000I17500J0D01*
G01*
X11517500Y-4550000D02*
G75*
G02*
X11482500Y-4550000I-17500J0D01*
G01*
X11482500Y-4550000D02*
G75*
G02*
X11517500Y-4550000I17500J0D01*
G01*
X11612500Y-5450000D02*
G75*
G02*
X11577500Y-5450000I-17500J0D01*
G01*
X11577500Y-5450000D02*
G75*
G02*
X11612500Y-5450000I17500J0D01*
G01*
X11722500Y-5750000D02*
G75*
G02*
X11687500Y-5750000I-17500J0D01*
G01*
X11687500Y-5750000D02*
G75*
G02*
X11722500Y-5750000I17500J0D01*
G01*
X11912500Y-5250000D02*
G75*
G02*
X11877500Y-5250000I-17500J0D01*
G01*
X11877500Y-5250000D02*
G75*
G02*
X11912500Y-5250000I17500J0D01*
G01*
X12122500Y-4600000D02*
G75*
G02*
X12087500Y-4600000I-17500J0D01*
G01*
X12087500Y-4600000D02*
G75*
G02*
X12122500Y-4600000I17500J0D01*
G01*
X12287500Y-5665000D02*
G75*
G02*
X12252500Y-5665000I-17500J0D01*
G01*
X12252500Y-5665000D02*
G75*
G02*
X12287500Y-5665000I17500J0D01*
G01*
X12312500Y-4600000D02*
G75*
G02*
X12277500Y-4600000I-17500J0D01*
G01*
X12277500Y-4600000D02*
G75*
G02*
X12312500Y-4600000I17500J0D01*
G01*
X12367500Y-6450000D02*
G75*
G02*
X12332500Y-6450000I-17500J0D01*
G01*
X12332500Y-6450000D02*
G75*
G02*
X12367500Y-6450000I17500J0D01*
G01*
X12517500Y-4935000D02*
G75*
G02*
X12482500Y-4935000I-17500J0D01*
G01*
X12482500Y-4935000D02*
G75*
G02*
X12517500Y-4935000I17500J0D01*
G01*
X12747500Y-6065000D02*
G75*
G02*
X12712500Y-6065000I-17500J0D01*
G01*
X12712500Y-6065000D02*
G75*
G02*
X12747500Y-6065000I17500J0D01*
G01*
X13047500Y-3065000D02*
G75*
G02*
X13012500Y-3065000I-17500J0D01*
G01*
X13012500Y-3065000D02*
G75*
G02*
X13047500Y-3065000I17500J0D01*
G01*
X13047500Y-6900000D02*
G75*
G02*
X13012500Y-6900000I-17500J0D01*
G01*
X13012500Y-6900000D02*
G75*
G02*
X13047500Y-6900000I17500J0D01*
G01*
X13117500Y-4065000D02*
G75*
G02*
X13082500Y-4065000I-17500J0D01*
G01*
X13082500Y-4065000D02*
G75*
G02*
X13117500Y-4065000I17500J0D01*
G01*
X13117500Y-6800000D02*
G75*
G02*
X13082500Y-6800000I-17500J0D01*
G01*
X13082500Y-6800000D02*
G75*
G02*
X13117500Y-6800000I17500J0D01*
G01*
X13157500Y-3065000D02*
G75*
G02*
X13122500Y-3065000I-17500J0D01*
G01*
X13122500Y-3065000D02*
G75*
G02*
X13157500Y-3065000I17500J0D01*
G01*
X13157500Y-6700000D02*
G75*
G02*
X13122500Y-6700000I-17500J0D01*
G01*
X13122500Y-6700000D02*
G75*
G02*
X13157500Y-6700000I17500J0D01*
G01*
X13197500Y-2065000D02*
G75*
G02*
X13162500Y-2065000I-17500J0D01*
G01*
X13162500Y-2065000D02*
G75*
G02*
X13197500Y-2065000I17500J0D01*
G01*
X13197500Y-6600000D02*
G75*
G02*
X13162500Y-6600000I-17500J0D01*
G01*
X13162500Y-6600000D02*
G75*
G02*
X13197500Y-6600000I17500J0D01*
G01*
X13903500Y-6900000D02*
G75*
G02*
X13868500Y-6900000I-17500J0D01*
G01*
X13868500Y-6900000D02*
G75*
G02*
X13903500Y-6900000I17500J0D01*
G01*
X14013500Y-6600000D02*
G75*
G02*
X13978500Y-6600000I-17500J0D01*
G01*
X13978500Y-6600000D02*
G75*
G02*
X14013500Y-6600000I17500J0D01*
G01*
X14117500Y-1700000D02*
G75*
G02*
X14082500Y-1700000I-17500J0D01*
G01*
X14082500Y-1700000D02*
G75*
G02*
X14117500Y-1700000I17500J0D01*
G01*
X14117500Y-6600000D02*
G75*
G02*
X14082500Y-6600000I-17500J0D01*
G01*
X14082500Y-6600000D02*
G75*
G02*
X14117500Y-6600000I17500J0D01*
G01*
X14233500Y-6800000D02*
G75*
G02*
X14198500Y-6800000I-17500J0D01*
G01*
X14198500Y-6800000D02*
G75*
G02*
X14233500Y-6800000I17500J0D01*
G01*
X14453500Y-6700000D02*
G75*
G02*
X14418500Y-6700000I-17500J0D01*
G01*
X14418500Y-6700000D02*
G75*
G02*
X14453500Y-6700000I17500J0D01*
G01*
X14482500Y-850000D02*
G75*
G02*
X14447500Y-850000I-17500J0D01*
G01*
X14447500Y-850000D02*
G75*
G02*
X14482500Y-850000I17500J0D01*
G01*
X14517500Y-1900000D02*
G75*
G02*
X14482500Y-1900000I-17500J0D01*
G01*
X14482500Y-1900000D02*
G75*
G02*
X14517500Y-1900000I17500J0D01*
G01*
X14517500Y-6800000D02*
G75*
G02*
X14482500Y-6800000I-17500J0D01*
G01*
X14482500Y-6800000D02*
G75*
G02*
X14517500Y-6800000I17500J0D01*
G01*
X14617500Y-1800000D02*
G75*
G02*
X14582500Y-1800000I-17500J0D01*
G01*
X14582500Y-1800000D02*
G75*
G02*
X14617500Y-1800000I17500J0D01*
G01*
X14617500Y-6700000D02*
G75*
G02*
X14582500Y-6700000I-17500J0D01*
G01*
X14582500Y-6700000D02*
G75*
G02*
X14617500Y-6700000I17500J0D01*
G01*
X14702500Y-6950000D02*
G75*
G02*
X14667500Y-6950000I-17500J0D01*
G01*
X14667500Y-6950000D02*
G75*
G02*
X14702500Y-6950000I17500J0D01*
G01*
X14817500Y-2000000D02*
G75*
G02*
X14782500Y-2000000I-17500J0D01*
G01*
X14782500Y-2000000D02*
G75*
G02*
X14817500Y-2000000I17500J0D01*
G01*
X14817500Y-6900000D02*
G75*
G02*
X14782500Y-6900000I-17500J0D01*
G01*
X14782500Y-6900000D02*
G75*
G02*
X14817500Y-6900000I17500J0D01*
G01*
X7568000Y-6849500D02*
X7568000Y-6929500D01*
X7528000Y-6889500D02*
X7608000Y-6889500D01*
X7568000Y-7267500D02*
X7568000Y-7347500D01*
X7528000Y-7307500D02*
X7608000Y-7307500D01*
X8432000Y-6849500D02*
X8432000Y-6929500D01*
X8392000Y-6889500D02*
X8472000Y-6889500D01*
X8432000Y-7267500D02*
X8432000Y-7347500D01*
X8392000Y-7307500D02*
X8472000Y-7307500D01*
X7930052Y-5780052D02*
X7930052Y-5719948D01*
X7869948Y-5719948D01*
X7869948Y-5780052D01*
X7930052Y-5780052D01*
X8130052Y-5780052D02*
X8130052Y-5719948D01*
X8069948Y-5719948D01*
X8069948Y-5780052D01*
X8130052Y-5780052D01*
D13*
X1000000Y-825000D02*
X1125000Y-700000D01*
X1000000Y-575000D01*
X875000Y-700000D01*
X1000000Y-825000D01*
X1000000Y-6925000D02*
X1125000Y-6800000D01*
X1000000Y-6675000D01*
X875000Y-6800000D01*
X1000000Y-6925000D01*
X5500000Y-3875000D02*
X5625000Y-3750000D01*
X5500000Y-3625000D01*
X5375000Y-3750000D01*
X5500000Y-3875000D01*
X10500000Y-3875000D02*
X10625000Y-3750000D01*
X10500000Y-3625000D01*
X10375000Y-3750000D01*
X10500000Y-3875000D01*
X15000000Y-825000D02*
X15125000Y-700000D01*
X15000000Y-575000D01*
X14875000Y-700000D01*
X15000000Y-825000D01*
X15000000Y-6925000D02*
X15125000Y-6800000D01*
X15000000Y-6675000D01*
X14875000Y-6800000D01*
X15000000Y-6925000D01*
D11*
X258277Y-7813984D02*
X258277Y-7613984D01*
X258277Y-7613984D02*
X305896Y-7613984D01*
X305896Y-7613984D02*
X334467Y-7623508D01*
X334467Y-7623508D02*
X353515Y-7642555D01*
X353515Y-7642555D02*
X363039Y-7661603D01*
X363039Y-7661603D02*
X372562Y-7699698D01*
X372562Y-7699698D02*
X372562Y-7728269D01*
X372562Y-7728269D02*
X363039Y-7766365D01*
X363039Y-7766365D02*
X353515Y-7785412D01*
X353515Y-7785412D02*
X334467Y-7804460D01*
X334467Y-7804460D02*
X305896Y-7813984D01*
X305896Y-7813984D02*
X258277Y-7813984D01*
X458277Y-7813984D02*
X458277Y-7680650D01*
X458277Y-7718746D02*
X467801Y-7699698D01*
X467801Y-7699698D02*
X477324Y-7690174D01*
X477324Y-7690174D02*
X496372Y-7680650D01*
X496372Y-7680650D02*
X515420Y-7680650D01*
X582086Y-7813984D02*
X582086Y-7680650D01*
X582086Y-7613984D02*
X572563Y-7623508D01*
X572563Y-7623508D02*
X582086Y-7633031D01*
X582086Y-7633031D02*
X591610Y-7623508D01*
X591610Y-7623508D02*
X582086Y-7613984D01*
X582086Y-7613984D02*
X582086Y-7633031D01*
X705896Y-7813984D02*
X686848Y-7804460D01*
X686848Y-7804460D02*
X677324Y-7785412D01*
X677324Y-7785412D02*
X677324Y-7613984D01*
X810658Y-7813984D02*
X791610Y-7804460D01*
X791610Y-7804460D02*
X782086Y-7785412D01*
X782086Y-7785412D02*
X782086Y-7613984D01*
X1039229Y-7813984D02*
X1039229Y-7613984D01*
X1039229Y-7613984D02*
X1105896Y-7756841D01*
X1105896Y-7756841D02*
X1172563Y-7613984D01*
X1172563Y-7613984D02*
X1172563Y-7813984D01*
X1353515Y-7813984D02*
X1353515Y-7709222D01*
X1353515Y-7709222D02*
X1343991Y-7690174D01*
X1343991Y-7690174D02*
X1324944Y-7680650D01*
X1324944Y-7680650D02*
X1286848Y-7680650D01*
X1286848Y-7680650D02*
X1267801Y-7690174D01*
X1353515Y-7804460D02*
X1334467Y-7813984D01*
X1334467Y-7813984D02*
X1286848Y-7813984D01*
X1286848Y-7813984D02*
X1267801Y-7804460D01*
X1267801Y-7804460D02*
X1258277Y-7785412D01*
X1258277Y-7785412D02*
X1258277Y-7766365D01*
X1258277Y-7766365D02*
X1267801Y-7747317D01*
X1267801Y-7747317D02*
X1286848Y-7737793D01*
X1286848Y-7737793D02*
X1334467Y-7737793D01*
X1334467Y-7737793D02*
X1353515Y-7728269D01*
X1448753Y-7680650D02*
X1448753Y-7880650D01*
X1448753Y-7690174D02*
X1467801Y-7680650D01*
X1467801Y-7680650D02*
X1505896Y-7680650D01*
X1505896Y-7680650D02*
X1524943Y-7690174D01*
X1524943Y-7690174D02*
X1534467Y-7699698D01*
X1534467Y-7699698D02*
X1543991Y-7718746D01*
X1543991Y-7718746D02*
X1543991Y-7775888D01*
X1543991Y-7775888D02*
X1534467Y-7794936D01*
X1534467Y-7794936D02*
X1524943Y-7804460D01*
X1524943Y-7804460D02*
X1505896Y-7813984D01*
X1505896Y-7813984D02*
X1467801Y-7813984D01*
X1467801Y-7813984D02*
X1448753Y-7804460D01*
X1629705Y-7794936D02*
X1639229Y-7804460D01*
X1639229Y-7804460D02*
X1629705Y-7813984D01*
X1629705Y-7813984D02*
X1620182Y-7804460D01*
X1620182Y-7804460D02*
X1629705Y-7794936D01*
X1629705Y-7794936D02*
X1629705Y-7813984D01*
X1629705Y-7690174D02*
X1639229Y-7699698D01*
X1639229Y-7699698D02*
X1629705Y-7709222D01*
X1629705Y-7709222D02*
X1620182Y-7699698D01*
X1620182Y-7699698D02*
X1629705Y-7690174D01*
X1629705Y-7690174D02*
X1629705Y-7709222D01*
D12*
X-32500Y-8127500D02*
X-2500Y-8157500D01*
X-2500Y-8127500D02*
X-32500Y-8157500D01*
D11*
X296372Y-8033984D02*
X315420Y-8033984D01*
X315420Y-8033984D02*
X334467Y-8043508D01*
X334467Y-8043508D02*
X343991Y-8053031D01*
X343991Y-8053031D02*
X353515Y-8072079D01*
X353515Y-8072079D02*
X363039Y-8110174D01*
X363039Y-8110174D02*
X363039Y-8157793D01*
X363039Y-8157793D02*
X353515Y-8195888D01*
X353515Y-8195888D02*
X343991Y-8214936D01*
X343991Y-8214936D02*
X334467Y-8224460D01*
X334467Y-8224460D02*
X315420Y-8233984D01*
X315420Y-8233984D02*
X296372Y-8233984D01*
X296372Y-8233984D02*
X277324Y-8224460D01*
X277324Y-8224460D02*
X267801Y-8214936D01*
X267801Y-8214936D02*
X258277Y-8195888D01*
X258277Y-8195888D02*
X248753Y-8157793D01*
X248753Y-8157793D02*
X248753Y-8110174D01*
X248753Y-8110174D02*
X258277Y-8072079D01*
X258277Y-8072079D02*
X267801Y-8053031D01*
X267801Y-8053031D02*
X277324Y-8043508D01*
X277324Y-8043508D02*
X296372Y-8033984D01*
X448753Y-8214936D02*
X458277Y-8224460D01*
X458277Y-8224460D02*
X448753Y-8233984D01*
X448753Y-8233984D02*
X439229Y-8224460D01*
X439229Y-8224460D02*
X448753Y-8214936D01*
X448753Y-8214936D02*
X448753Y-8233984D01*
X524944Y-8033984D02*
X648753Y-8033984D01*
X648753Y-8033984D02*
X582086Y-8110174D01*
X582086Y-8110174D02*
X610658Y-8110174D01*
X610658Y-8110174D02*
X629705Y-8119698D01*
X629705Y-8119698D02*
X639229Y-8129222D01*
X639229Y-8129222D02*
X648753Y-8148269D01*
X648753Y-8148269D02*
X648753Y-8195888D01*
X648753Y-8195888D02*
X639229Y-8214936D01*
X639229Y-8214936D02*
X629705Y-8224460D01*
X629705Y-8224460D02*
X610658Y-8233984D01*
X610658Y-8233984D02*
X553515Y-8233984D01*
X553515Y-8233984D02*
X534467Y-8224460D01*
X534467Y-8224460D02*
X524944Y-8214936D01*
X772562Y-8033984D02*
X791610Y-8033984D01*
X791610Y-8033984D02*
X810658Y-8043508D01*
X810658Y-8043508D02*
X820182Y-8053031D01*
X820182Y-8053031D02*
X829705Y-8072079D01*
X829705Y-8072079D02*
X839229Y-8110174D01*
X839229Y-8110174D02*
X839229Y-8157793D01*
X839229Y-8157793D02*
X829705Y-8195888D01*
X829705Y-8195888D02*
X820182Y-8214936D01*
X820182Y-8214936D02*
X810658Y-8224460D01*
X810658Y-8224460D02*
X791610Y-8233984D01*
X791610Y-8233984D02*
X772562Y-8233984D01*
X772562Y-8233984D02*
X753515Y-8224460D01*
X753515Y-8224460D02*
X743991Y-8214936D01*
X743991Y-8214936D02*
X734467Y-8195888D01*
X734467Y-8195888D02*
X724943Y-8157793D01*
X724943Y-8157793D02*
X724943Y-8110174D01*
X724943Y-8110174D02*
X734467Y-8072079D01*
X734467Y-8072079D02*
X743991Y-8053031D01*
X743991Y-8053031D02*
X753515Y-8043508D01*
X753515Y-8043508D02*
X772562Y-8033984D01*
X963039Y-8033984D02*
X982086Y-8033984D01*
X982086Y-8033984D02*
X1001134Y-8043508D01*
X1001134Y-8043508D02*
X1010658Y-8053031D01*
X1010658Y-8053031D02*
X1020182Y-8072079D01*
X1020182Y-8072079D02*
X1029705Y-8110174D01*
X1029705Y-8110174D02*
X1029705Y-8157793D01*
X1029705Y-8157793D02*
X1020182Y-8195888D01*
X1020182Y-8195888D02*
X1010658Y-8214936D01*
X1010658Y-8214936D02*
X1001134Y-8224460D01*
X1001134Y-8224460D02*
X982086Y-8233984D01*
X982086Y-8233984D02*
X963039Y-8233984D01*
X963039Y-8233984D02*
X943991Y-8224460D01*
X943991Y-8224460D02*
X934467Y-8214936D01*
X934467Y-8214936D02*
X924943Y-8195888D01*
X924943Y-8195888D02*
X915420Y-8157793D01*
X915420Y-8157793D02*
X915420Y-8110174D01*
X915420Y-8110174D02*
X924943Y-8072079D01*
X924943Y-8072079D02*
X934467Y-8053031D01*
X934467Y-8053031D02*
X943991Y-8043508D01*
X943991Y-8043508D02*
X963039Y-8033984D01*
X1115420Y-8233984D02*
X1115420Y-8100650D01*
X1115420Y-8119698D02*
X1124944Y-8110174D01*
X1124944Y-8110174D02*
X1143991Y-8100650D01*
X1143991Y-8100650D02*
X1172563Y-8100650D01*
X1172563Y-8100650D02*
X1191610Y-8110174D01*
X1191610Y-8110174D02*
X1201134Y-8129222D01*
X1201134Y-8129222D02*
X1201134Y-8233984D01*
X1201134Y-8129222D02*
X1210658Y-8110174D01*
X1210658Y-8110174D02*
X1229705Y-8100650D01*
X1229705Y-8100650D02*
X1258277Y-8100650D01*
X1258277Y-8100650D02*
X1277325Y-8110174D01*
X1277325Y-8110174D02*
X1286848Y-8129222D01*
X1286848Y-8129222D02*
X1286848Y-8233984D01*
X1382086Y-8233984D02*
X1382086Y-8100650D01*
X1382086Y-8119698D02*
X1391610Y-8110174D01*
X1391610Y-8110174D02*
X1410658Y-8100650D01*
X1410658Y-8100650D02*
X1439229Y-8100650D01*
X1439229Y-8100650D02*
X1458277Y-8110174D01*
X1458277Y-8110174D02*
X1467801Y-8129222D01*
X1467801Y-8129222D02*
X1467801Y-8233984D01*
X1467801Y-8129222D02*
X1477324Y-8110174D01*
X1477324Y-8110174D02*
X1496372Y-8100650D01*
X1496372Y-8100650D02*
X1524943Y-8100650D01*
X1524943Y-8100650D02*
X1543991Y-8110174D01*
X1543991Y-8110174D02*
X1553515Y-8129222D01*
X1553515Y-8129222D02*
X1553515Y-8233984D01*
X1943991Y-8024460D02*
X1772563Y-8281603D01*
X2201134Y-8033984D02*
X2220182Y-8033984D01*
X2220182Y-8033984D02*
X2239229Y-8043508D01*
X2239229Y-8043508D02*
X2248753Y-8053031D01*
X2248753Y-8053031D02*
X2258277Y-8072079D01*
X2258277Y-8072079D02*
X2267801Y-8110174D01*
X2267801Y-8110174D02*
X2267801Y-8157793D01*
X2267801Y-8157793D02*
X2258277Y-8195888D01*
X2258277Y-8195888D02*
X2248753Y-8214936D01*
X2248753Y-8214936D02*
X2239229Y-8224460D01*
X2239229Y-8224460D02*
X2220182Y-8233984D01*
X2220182Y-8233984D02*
X2201134Y-8233984D01*
X2201134Y-8233984D02*
X2182087Y-8224460D01*
X2182087Y-8224460D02*
X2172563Y-8214936D01*
X2172563Y-8214936D02*
X2163039Y-8195888D01*
X2163039Y-8195888D02*
X2153515Y-8157793D01*
X2153515Y-8157793D02*
X2153515Y-8110174D01*
X2153515Y-8110174D02*
X2163039Y-8072079D01*
X2163039Y-8072079D02*
X2172563Y-8053031D01*
X2172563Y-8053031D02*
X2182087Y-8043508D01*
X2182087Y-8043508D02*
X2201134Y-8033984D01*
X2353515Y-8214936D02*
X2363039Y-8224460D01*
X2363039Y-8224460D02*
X2353515Y-8233984D01*
X2353515Y-8233984D02*
X2343991Y-8224460D01*
X2343991Y-8224460D02*
X2353515Y-8214936D01*
X2353515Y-8214936D02*
X2353515Y-8233984D01*
X2486848Y-8033984D02*
X2505896Y-8033984D01*
X2505896Y-8033984D02*
X2524944Y-8043508D01*
X2524944Y-8043508D02*
X2534468Y-8053031D01*
X2534468Y-8053031D02*
X2543991Y-8072079D01*
X2543991Y-8072079D02*
X2553515Y-8110174D01*
X2553515Y-8110174D02*
X2553515Y-8157793D01*
X2553515Y-8157793D02*
X2543991Y-8195888D01*
X2543991Y-8195888D02*
X2534468Y-8214936D01*
X2534468Y-8214936D02*
X2524944Y-8224460D01*
X2524944Y-8224460D02*
X2505896Y-8233984D01*
X2505896Y-8233984D02*
X2486848Y-8233984D01*
X2486848Y-8233984D02*
X2467801Y-8224460D01*
X2467801Y-8224460D02*
X2458277Y-8214936D01*
X2458277Y-8214936D02*
X2448753Y-8195888D01*
X2448753Y-8195888D02*
X2439229Y-8157793D01*
X2439229Y-8157793D02*
X2439229Y-8110174D01*
X2439229Y-8110174D02*
X2448753Y-8072079D01*
X2448753Y-8072079D02*
X2458277Y-8053031D01*
X2458277Y-8053031D02*
X2467801Y-8043508D01*
X2467801Y-8043508D02*
X2486848Y-8033984D01*
X2743991Y-8233984D02*
X2629706Y-8233984D01*
X2686848Y-8233984D02*
X2686848Y-8033984D01*
X2686848Y-8033984D02*
X2667801Y-8062555D01*
X2667801Y-8062555D02*
X2648753Y-8081603D01*
X2648753Y-8081603D02*
X2629706Y-8091127D01*
X2934467Y-8233984D02*
X2820182Y-8233984D01*
X2877325Y-8233984D02*
X2877325Y-8033984D01*
X2877325Y-8033984D02*
X2858277Y-8062555D01*
X2858277Y-8062555D02*
X2839229Y-8081603D01*
X2839229Y-8081603D02*
X2820182Y-8091127D01*
X3048753Y-8119698D02*
X3029706Y-8110174D01*
X3029706Y-8110174D02*
X3020182Y-8100650D01*
X3020182Y-8100650D02*
X3010658Y-8081603D01*
X3010658Y-8081603D02*
X3010658Y-8072079D01*
X3010658Y-8072079D02*
X3020182Y-8053031D01*
X3020182Y-8053031D02*
X3029706Y-8043508D01*
X3029706Y-8043508D02*
X3048753Y-8033984D01*
X3048753Y-8033984D02*
X3086848Y-8033984D01*
X3086848Y-8033984D02*
X3105896Y-8043508D01*
X3105896Y-8043508D02*
X3115420Y-8053031D01*
X3115420Y-8053031D02*
X3124944Y-8072079D01*
X3124944Y-8072079D02*
X3124944Y-8081603D01*
X3124944Y-8081603D02*
X3115420Y-8100650D01*
X3115420Y-8100650D02*
X3105896Y-8110174D01*
X3105896Y-8110174D02*
X3086848Y-8119698D01*
X3086848Y-8119698D02*
X3048753Y-8119698D01*
X3048753Y-8119698D02*
X3029706Y-8129222D01*
X3029706Y-8129222D02*
X3020182Y-8138746D01*
X3020182Y-8138746D02*
X3010658Y-8157793D01*
X3010658Y-8157793D02*
X3010658Y-8195888D01*
X3010658Y-8195888D02*
X3020182Y-8214936D01*
X3020182Y-8214936D02*
X3029706Y-8224460D01*
X3029706Y-8224460D02*
X3048753Y-8233984D01*
X3048753Y-8233984D02*
X3086848Y-8233984D01*
X3086848Y-8233984D02*
X3105896Y-8224460D01*
X3105896Y-8224460D02*
X3115420Y-8214936D01*
X3115420Y-8214936D02*
X3124944Y-8195888D01*
X3124944Y-8195888D02*
X3124944Y-8157793D01*
X3124944Y-8157793D02*
X3115420Y-8138746D01*
X3115420Y-8138746D02*
X3105896Y-8129222D01*
X3105896Y-8129222D02*
X3086848Y-8119698D01*
X3201134Y-8033984D02*
X3201134Y-8072079D01*
X3277325Y-8033984D02*
X3277325Y-8072079D01*
X3572563Y-8310174D02*
X3563039Y-8300650D01*
X3563039Y-8300650D02*
X3543991Y-8272079D01*
X3543991Y-8272079D02*
X3534468Y-8253031D01*
X3534468Y-8253031D02*
X3524944Y-8224460D01*
X3524944Y-8224460D02*
X3515420Y-8176841D01*
X3515420Y-8176841D02*
X3515420Y-8138746D01*
X3515420Y-8138746D02*
X3524944Y-8091127D01*
X3524944Y-8091127D02*
X3534468Y-8062555D01*
X3534468Y-8062555D02*
X3543991Y-8043508D01*
X3543991Y-8043508D02*
X3563039Y-8014936D01*
X3563039Y-8014936D02*
X3572563Y-8005412D01*
X3734468Y-8033984D02*
X3696372Y-8033984D01*
X3696372Y-8033984D02*
X3677325Y-8043508D01*
X3677325Y-8043508D02*
X3667801Y-8053031D01*
X3667801Y-8053031D02*
X3648753Y-8081603D01*
X3648753Y-8081603D02*
X3639229Y-8119698D01*
X3639229Y-8119698D02*
X3639229Y-8195888D01*
X3639229Y-8195888D02*
X3648753Y-8214936D01*
X3648753Y-8214936D02*
X3658277Y-8224460D01*
X3658277Y-8224460D02*
X3677325Y-8233984D01*
X3677325Y-8233984D02*
X3715420Y-8233984D01*
X3715420Y-8233984D02*
X3734468Y-8224460D01*
X3734468Y-8224460D02*
X3743991Y-8214936D01*
X3743991Y-8214936D02*
X3753515Y-8195888D01*
X3753515Y-8195888D02*
X3753515Y-8148269D01*
X3753515Y-8148269D02*
X3743991Y-8129222D01*
X3743991Y-8129222D02*
X3734468Y-8119698D01*
X3734468Y-8119698D02*
X3715420Y-8110174D01*
X3715420Y-8110174D02*
X3677325Y-8110174D01*
X3677325Y-8110174D02*
X3658277Y-8119698D01*
X3658277Y-8119698D02*
X3648753Y-8129222D01*
X3648753Y-8129222D02*
X3639229Y-8148269D01*
X3820182Y-8033984D02*
X3943991Y-8033984D01*
X3943991Y-8033984D02*
X3877325Y-8110174D01*
X3877325Y-8110174D02*
X3905896Y-8110174D01*
X3905896Y-8110174D02*
X3924944Y-8119698D01*
X3924944Y-8119698D02*
X3934468Y-8129222D01*
X3934468Y-8129222D02*
X3943991Y-8148269D01*
X3943991Y-8148269D02*
X3943991Y-8195888D01*
X3943991Y-8195888D02*
X3934468Y-8214936D01*
X3934468Y-8214936D02*
X3924944Y-8224460D01*
X3924944Y-8224460D02*
X3905896Y-8233984D01*
X3905896Y-8233984D02*
X3848753Y-8233984D01*
X3848753Y-8233984D02*
X3829706Y-8224460D01*
X3829706Y-8224460D02*
X3820182Y-8214936D01*
X4182087Y-8233984D02*
X4182087Y-8033984D01*
X4267801Y-8233984D02*
X4267801Y-8129222D01*
X4267801Y-8129222D02*
X4258277Y-8110174D01*
X4258277Y-8110174D02*
X4239230Y-8100650D01*
X4239230Y-8100650D02*
X4210658Y-8100650D01*
X4210658Y-8100650D02*
X4191610Y-8110174D01*
X4191610Y-8110174D02*
X4182087Y-8119698D01*
X4391611Y-8233984D02*
X4372563Y-8224460D01*
X4372563Y-8224460D02*
X4363039Y-8214936D01*
X4363039Y-8214936D02*
X4353515Y-8195888D01*
X4353515Y-8195888D02*
X4353515Y-8138746D01*
X4353515Y-8138746D02*
X4363039Y-8119698D01*
X4363039Y-8119698D02*
X4372563Y-8110174D01*
X4372563Y-8110174D02*
X4391611Y-8100650D01*
X4391611Y-8100650D02*
X4420182Y-8100650D01*
X4420182Y-8100650D02*
X4439230Y-8110174D01*
X4439230Y-8110174D02*
X4448753Y-8119698D01*
X4448753Y-8119698D02*
X4458277Y-8138746D01*
X4458277Y-8138746D02*
X4458277Y-8195888D01*
X4458277Y-8195888D02*
X4448753Y-8214936D01*
X4448753Y-8214936D02*
X4439230Y-8224460D01*
X4439230Y-8224460D02*
X4420182Y-8233984D01*
X4420182Y-8233984D02*
X4391611Y-8233984D01*
X4572563Y-8233984D02*
X4553515Y-8224460D01*
X4553515Y-8224460D02*
X4543992Y-8205412D01*
X4543992Y-8205412D02*
X4543992Y-8033984D01*
X4724944Y-8224460D02*
X4705896Y-8233984D01*
X4705896Y-8233984D02*
X4667801Y-8233984D01*
X4667801Y-8233984D02*
X4648753Y-8224460D01*
X4648753Y-8224460D02*
X4639230Y-8205412D01*
X4639230Y-8205412D02*
X4639230Y-8129222D01*
X4639230Y-8129222D02*
X4648753Y-8110174D01*
X4648753Y-8110174D02*
X4667801Y-8100650D01*
X4667801Y-8100650D02*
X4705896Y-8100650D01*
X4705896Y-8100650D02*
X4724944Y-8110174D01*
X4724944Y-8110174D02*
X4734468Y-8129222D01*
X4734468Y-8129222D02*
X4734468Y-8148269D01*
X4734468Y-8148269D02*
X4639230Y-8167317D01*
X4810658Y-8224460D02*
X4829706Y-8233984D01*
X4829706Y-8233984D02*
X4867801Y-8233984D01*
X4867801Y-8233984D02*
X4886849Y-8224460D01*
X4886849Y-8224460D02*
X4896373Y-8205412D01*
X4896373Y-8205412D02*
X4896373Y-8195888D01*
X4896373Y-8195888D02*
X4886849Y-8176841D01*
X4886849Y-8176841D02*
X4867801Y-8167317D01*
X4867801Y-8167317D02*
X4839230Y-8167317D01*
X4839230Y-8167317D02*
X4820182Y-8157793D01*
X4820182Y-8157793D02*
X4810658Y-8138746D01*
X4810658Y-8138746D02*
X4810658Y-8129222D01*
X4810658Y-8129222D02*
X4820182Y-8110174D01*
X4820182Y-8110174D02*
X4839230Y-8100650D01*
X4839230Y-8100650D02*
X4867801Y-8100650D01*
X4867801Y-8100650D02*
X4886849Y-8110174D01*
X4963039Y-8310174D02*
X4972563Y-8300650D01*
X4972563Y-8300650D02*
X4991611Y-8272079D01*
X4991611Y-8272079D02*
X5001134Y-8253031D01*
X5001134Y-8253031D02*
X5010658Y-8224460D01*
X5010658Y-8224460D02*
X5020182Y-8176841D01*
X5020182Y-8176841D02*
X5020182Y-8138746D01*
X5020182Y-8138746D02*
X5010658Y-8091127D01*
X5010658Y-8091127D02*
X5001134Y-8062555D01*
X5001134Y-8062555D02*
X4991611Y-8043508D01*
X4991611Y-8043508D02*
X4972563Y-8014936D01*
X4972563Y-8014936D02*
X4963039Y-8005412D01*
D12*
X-2500Y-8406500D02*
G75*
G02*
X-37500Y-8406500I-17500J0D01*
G01*
X-37500Y-8406500D02*
G75*
G02*
X-2500Y-8406500I17500J0D01*
G01*
D11*
X296372Y-8297984D02*
X315420Y-8297984D01*
X315420Y-8297984D02*
X334467Y-8307508D01*
X334467Y-8307508D02*
X343991Y-8317031D01*
X343991Y-8317031D02*
X353515Y-8336079D01*
X353515Y-8336079D02*
X363039Y-8374174D01*
X363039Y-8374174D02*
X363039Y-8421793D01*
X363039Y-8421793D02*
X353515Y-8459889D01*
X353515Y-8459889D02*
X343991Y-8478936D01*
X343991Y-8478936D02*
X334467Y-8488460D01*
X334467Y-8488460D02*
X315420Y-8497984D01*
X315420Y-8497984D02*
X296372Y-8497984D01*
X296372Y-8497984D02*
X277324Y-8488460D01*
X277324Y-8488460D02*
X267801Y-8478936D01*
X267801Y-8478936D02*
X258277Y-8459889D01*
X258277Y-8459889D02*
X248753Y-8421793D01*
X248753Y-8421793D02*
X248753Y-8374174D01*
X248753Y-8374174D02*
X258277Y-8336079D01*
X258277Y-8336079D02*
X267801Y-8317031D01*
X267801Y-8317031D02*
X277324Y-8307508D01*
X277324Y-8307508D02*
X296372Y-8297984D01*
X448753Y-8478936D02*
X458277Y-8488460D01*
X458277Y-8488460D02*
X448753Y-8497984D01*
X448753Y-8497984D02*
X439229Y-8488460D01*
X439229Y-8488460D02*
X448753Y-8478936D01*
X448753Y-8478936D02*
X448753Y-8497984D01*
X524944Y-8297984D02*
X648753Y-8297984D01*
X648753Y-8297984D02*
X582086Y-8374174D01*
X582086Y-8374174D02*
X610658Y-8374174D01*
X610658Y-8374174D02*
X629705Y-8383698D01*
X629705Y-8383698D02*
X639229Y-8393222D01*
X639229Y-8393222D02*
X648753Y-8412270D01*
X648753Y-8412270D02*
X648753Y-8459889D01*
X648753Y-8459889D02*
X639229Y-8478936D01*
X639229Y-8478936D02*
X629705Y-8488460D01*
X629705Y-8488460D02*
X610658Y-8497984D01*
X610658Y-8497984D02*
X553515Y-8497984D01*
X553515Y-8497984D02*
X534467Y-8488460D01*
X534467Y-8488460D02*
X524944Y-8478936D01*
X829705Y-8297984D02*
X734467Y-8297984D01*
X734467Y-8297984D02*
X724943Y-8393222D01*
X724943Y-8393222D02*
X734467Y-8383698D01*
X734467Y-8383698D02*
X753515Y-8374174D01*
X753515Y-8374174D02*
X801134Y-8374174D01*
X801134Y-8374174D02*
X820182Y-8383698D01*
X820182Y-8383698D02*
X829705Y-8393222D01*
X829705Y-8393222D02*
X839229Y-8412270D01*
X839229Y-8412270D02*
X839229Y-8459889D01*
X839229Y-8459889D02*
X829705Y-8478936D01*
X829705Y-8478936D02*
X820182Y-8488460D01*
X820182Y-8488460D02*
X801134Y-8497984D01*
X801134Y-8497984D02*
X753515Y-8497984D01*
X753515Y-8497984D02*
X734467Y-8488460D01*
X734467Y-8488460D02*
X724943Y-8478936D01*
X963039Y-8297984D02*
X982086Y-8297984D01*
X982086Y-8297984D02*
X1001134Y-8307508D01*
X1001134Y-8307508D02*
X1010658Y-8317031D01*
X1010658Y-8317031D02*
X1020182Y-8336079D01*
X1020182Y-8336079D02*
X1029705Y-8374174D01*
X1029705Y-8374174D02*
X1029705Y-8421793D01*
X1029705Y-8421793D02*
X1020182Y-8459889D01*
X1020182Y-8459889D02*
X1010658Y-8478936D01*
X1010658Y-8478936D02*
X1001134Y-8488460D01*
X1001134Y-8488460D02*
X982086Y-8497984D01*
X982086Y-8497984D02*
X963039Y-8497984D01*
X963039Y-8497984D02*
X943991Y-8488460D01*
X943991Y-8488460D02*
X934467Y-8478936D01*
X934467Y-8478936D02*
X924943Y-8459889D01*
X924943Y-8459889D02*
X915420Y-8421793D01*
X915420Y-8421793D02*
X915420Y-8374174D01*
X915420Y-8374174D02*
X924943Y-8336079D01*
X924943Y-8336079D02*
X934467Y-8317031D01*
X934467Y-8317031D02*
X943991Y-8307508D01*
X943991Y-8307508D02*
X963039Y-8297984D01*
X1115420Y-8497984D02*
X1115420Y-8364650D01*
X1115420Y-8383698D02*
X1124944Y-8374174D01*
X1124944Y-8374174D02*
X1143991Y-8364650D01*
X1143991Y-8364650D02*
X1172563Y-8364650D01*
X1172563Y-8364650D02*
X1191610Y-8374174D01*
X1191610Y-8374174D02*
X1201134Y-8393222D01*
X1201134Y-8393222D02*
X1201134Y-8497984D01*
X1201134Y-8393222D02*
X1210658Y-8374174D01*
X1210658Y-8374174D02*
X1229705Y-8364650D01*
X1229705Y-8364650D02*
X1258277Y-8364650D01*
X1258277Y-8364650D02*
X1277325Y-8374174D01*
X1277325Y-8374174D02*
X1286848Y-8393222D01*
X1286848Y-8393222D02*
X1286848Y-8497984D01*
X1382086Y-8497984D02*
X1382086Y-8364650D01*
X1382086Y-8383698D02*
X1391610Y-8374174D01*
X1391610Y-8374174D02*
X1410658Y-8364650D01*
X1410658Y-8364650D02*
X1439229Y-8364650D01*
X1439229Y-8364650D02*
X1458277Y-8374174D01*
X1458277Y-8374174D02*
X1467801Y-8393222D01*
X1467801Y-8393222D02*
X1467801Y-8497984D01*
X1467801Y-8393222D02*
X1477324Y-8374174D01*
X1477324Y-8374174D02*
X1496372Y-8364650D01*
X1496372Y-8364650D02*
X1524943Y-8364650D01*
X1524943Y-8364650D02*
X1543991Y-8374174D01*
X1543991Y-8374174D02*
X1553515Y-8393222D01*
X1553515Y-8393222D02*
X1553515Y-8497984D01*
X1943991Y-8288460D02*
X1772563Y-8545603D01*
X2201134Y-8297984D02*
X2220182Y-8297984D01*
X2220182Y-8297984D02*
X2239229Y-8307508D01*
X2239229Y-8307508D02*
X2248753Y-8317031D01*
X2248753Y-8317031D02*
X2258277Y-8336079D01*
X2258277Y-8336079D02*
X2267801Y-8374174D01*
X2267801Y-8374174D02*
X2267801Y-8421793D01*
X2267801Y-8421793D02*
X2258277Y-8459889D01*
X2258277Y-8459889D02*
X2248753Y-8478936D01*
X2248753Y-8478936D02*
X2239229Y-8488460D01*
X2239229Y-8488460D02*
X2220182Y-8497984D01*
X2220182Y-8497984D02*
X2201134Y-8497984D01*
X2201134Y-8497984D02*
X2182087Y-8488460D01*
X2182087Y-8488460D02*
X2172563Y-8478936D01*
X2172563Y-8478936D02*
X2163039Y-8459889D01*
X2163039Y-8459889D02*
X2153515Y-8421793D01*
X2153515Y-8421793D02*
X2153515Y-8374174D01*
X2153515Y-8374174D02*
X2163039Y-8336079D01*
X2163039Y-8336079D02*
X2172563Y-8317031D01*
X2172563Y-8317031D02*
X2182087Y-8307508D01*
X2182087Y-8307508D02*
X2201134Y-8297984D01*
X2353515Y-8478936D02*
X2363039Y-8488460D01*
X2363039Y-8488460D02*
X2353515Y-8497984D01*
X2353515Y-8497984D02*
X2343991Y-8488460D01*
X2343991Y-8488460D02*
X2353515Y-8478936D01*
X2353515Y-8478936D02*
X2353515Y-8497984D01*
X2486848Y-8297984D02*
X2505896Y-8297984D01*
X2505896Y-8297984D02*
X2524944Y-8307508D01*
X2524944Y-8307508D02*
X2534468Y-8317031D01*
X2534468Y-8317031D02*
X2543991Y-8336079D01*
X2543991Y-8336079D02*
X2553515Y-8374174D01*
X2553515Y-8374174D02*
X2553515Y-8421793D01*
X2553515Y-8421793D02*
X2543991Y-8459889D01*
X2543991Y-8459889D02*
X2534468Y-8478936D01*
X2534468Y-8478936D02*
X2524944Y-8488460D01*
X2524944Y-8488460D02*
X2505896Y-8497984D01*
X2505896Y-8497984D02*
X2486848Y-8497984D01*
X2486848Y-8497984D02*
X2467801Y-8488460D01*
X2467801Y-8488460D02*
X2458277Y-8478936D01*
X2458277Y-8478936D02*
X2448753Y-8459889D01*
X2448753Y-8459889D02*
X2439229Y-8421793D01*
X2439229Y-8421793D02*
X2439229Y-8374174D01*
X2439229Y-8374174D02*
X2448753Y-8336079D01*
X2448753Y-8336079D02*
X2458277Y-8317031D01*
X2458277Y-8317031D02*
X2467801Y-8307508D01*
X2467801Y-8307508D02*
X2486848Y-8297984D01*
X2743991Y-8497984D02*
X2629706Y-8497984D01*
X2686848Y-8497984D02*
X2686848Y-8297984D01*
X2686848Y-8297984D02*
X2667801Y-8326555D01*
X2667801Y-8326555D02*
X2648753Y-8345603D01*
X2648753Y-8345603D02*
X2629706Y-8355127D01*
X2810658Y-8297984D02*
X2934467Y-8297984D01*
X2934467Y-8297984D02*
X2867801Y-8374174D01*
X2867801Y-8374174D02*
X2896372Y-8374174D01*
X2896372Y-8374174D02*
X2915420Y-8383698D01*
X2915420Y-8383698D02*
X2924944Y-8393222D01*
X2924944Y-8393222D02*
X2934467Y-8412270D01*
X2934467Y-8412270D02*
X2934467Y-8459889D01*
X2934467Y-8459889D02*
X2924944Y-8478936D01*
X2924944Y-8478936D02*
X2915420Y-8488460D01*
X2915420Y-8488460D02*
X2896372Y-8497984D01*
X2896372Y-8497984D02*
X2839229Y-8497984D01*
X2839229Y-8497984D02*
X2820182Y-8488460D01*
X2820182Y-8488460D02*
X2810658Y-8478936D01*
X3048753Y-8383698D02*
X3029706Y-8374174D01*
X3029706Y-8374174D02*
X3020182Y-8364650D01*
X3020182Y-8364650D02*
X3010658Y-8345603D01*
X3010658Y-8345603D02*
X3010658Y-8336079D01*
X3010658Y-8336079D02*
X3020182Y-8317031D01*
X3020182Y-8317031D02*
X3029706Y-8307508D01*
X3029706Y-8307508D02*
X3048753Y-8297984D01*
X3048753Y-8297984D02*
X3086848Y-8297984D01*
X3086848Y-8297984D02*
X3105896Y-8307508D01*
X3105896Y-8307508D02*
X3115420Y-8317031D01*
X3115420Y-8317031D02*
X3124944Y-8336079D01*
X3124944Y-8336079D02*
X3124944Y-8345603D01*
X3124944Y-8345603D02*
X3115420Y-8364650D01*
X3115420Y-8364650D02*
X3105896Y-8374174D01*
X3105896Y-8374174D02*
X3086848Y-8383698D01*
X3086848Y-8383698D02*
X3048753Y-8383698D01*
X3048753Y-8383698D02*
X3029706Y-8393222D01*
X3029706Y-8393222D02*
X3020182Y-8402746D01*
X3020182Y-8402746D02*
X3010658Y-8421793D01*
X3010658Y-8421793D02*
X3010658Y-8459889D01*
X3010658Y-8459889D02*
X3020182Y-8478936D01*
X3020182Y-8478936D02*
X3029706Y-8488460D01*
X3029706Y-8488460D02*
X3048753Y-8497984D01*
X3048753Y-8497984D02*
X3086848Y-8497984D01*
X3086848Y-8497984D02*
X3105896Y-8488460D01*
X3105896Y-8488460D02*
X3115420Y-8478936D01*
X3115420Y-8478936D02*
X3124944Y-8459889D01*
X3124944Y-8459889D02*
X3124944Y-8421793D01*
X3124944Y-8421793D02*
X3115420Y-8402746D01*
X3115420Y-8402746D02*
X3105896Y-8393222D01*
X3105896Y-8393222D02*
X3086848Y-8383698D01*
X3201134Y-8297984D02*
X3201134Y-8336079D01*
X3277325Y-8297984D02*
X3277325Y-8336079D01*
X3572563Y-8574174D02*
X3563039Y-8564650D01*
X3563039Y-8564650D02*
X3543991Y-8536079D01*
X3543991Y-8536079D02*
X3534468Y-8517031D01*
X3534468Y-8517031D02*
X3524944Y-8488460D01*
X3524944Y-8488460D02*
X3515420Y-8440841D01*
X3515420Y-8440841D02*
X3515420Y-8402746D01*
X3515420Y-8402746D02*
X3524944Y-8355127D01*
X3524944Y-8355127D02*
X3534468Y-8326555D01*
X3534468Y-8326555D02*
X3543991Y-8307508D01*
X3543991Y-8307508D02*
X3563039Y-8278936D01*
X3563039Y-8278936D02*
X3572563Y-8269412D01*
X3753515Y-8497984D02*
X3639229Y-8497984D01*
X3696372Y-8497984D02*
X3696372Y-8297984D01*
X3696372Y-8297984D02*
X3677325Y-8326555D01*
X3677325Y-8326555D02*
X3658277Y-8345603D01*
X3658277Y-8345603D02*
X3639229Y-8355127D01*
X3924944Y-8297984D02*
X3886848Y-8297984D01*
X3886848Y-8297984D02*
X3867801Y-8307508D01*
X3867801Y-8307508D02*
X3858277Y-8317031D01*
X3858277Y-8317031D02*
X3839229Y-8345603D01*
X3839229Y-8345603D02*
X3829706Y-8383698D01*
X3829706Y-8383698D02*
X3829706Y-8459889D01*
X3829706Y-8459889D02*
X3839229Y-8478936D01*
X3839229Y-8478936D02*
X3848753Y-8488460D01*
X3848753Y-8488460D02*
X3867801Y-8497984D01*
X3867801Y-8497984D02*
X3905896Y-8497984D01*
X3905896Y-8497984D02*
X3924944Y-8488460D01*
X3924944Y-8488460D02*
X3934468Y-8478936D01*
X3934468Y-8478936D02*
X3943991Y-8459889D01*
X3943991Y-8459889D02*
X3943991Y-8412270D01*
X3943991Y-8412270D02*
X3934468Y-8393222D01*
X3934468Y-8393222D02*
X3924944Y-8383698D01*
X3924944Y-8383698D02*
X3905896Y-8374174D01*
X3905896Y-8374174D02*
X3867801Y-8374174D01*
X3867801Y-8374174D02*
X3848753Y-8383698D01*
X3848753Y-8383698D02*
X3839229Y-8393222D01*
X3839229Y-8393222D02*
X3829706Y-8412270D01*
X4039229Y-8497984D02*
X4077325Y-8497984D01*
X4077325Y-8497984D02*
X4096372Y-8488460D01*
X4096372Y-8488460D02*
X4105896Y-8478936D01*
X4105896Y-8478936D02*
X4124944Y-8450365D01*
X4124944Y-8450365D02*
X4134468Y-8412270D01*
X4134468Y-8412270D02*
X4134468Y-8336079D01*
X4134468Y-8336079D02*
X4124944Y-8317031D01*
X4124944Y-8317031D02*
X4115420Y-8307508D01*
X4115420Y-8307508D02*
X4096372Y-8297984D01*
X4096372Y-8297984D02*
X4058277Y-8297984D01*
X4058277Y-8297984D02*
X4039229Y-8307508D01*
X4039229Y-8307508D02*
X4029706Y-8317031D01*
X4029706Y-8317031D02*
X4020182Y-8336079D01*
X4020182Y-8336079D02*
X4020182Y-8383698D01*
X4020182Y-8383698D02*
X4029706Y-8402746D01*
X4029706Y-8402746D02*
X4039229Y-8412270D01*
X4039229Y-8412270D02*
X4058277Y-8421793D01*
X4058277Y-8421793D02*
X4096372Y-8421793D01*
X4096372Y-8421793D02*
X4115420Y-8412270D01*
X4115420Y-8412270D02*
X4124944Y-8402746D01*
X4124944Y-8402746D02*
X4134468Y-8383698D01*
X4372563Y-8497984D02*
X4372563Y-8297984D01*
X4458277Y-8497984D02*
X4458277Y-8393222D01*
X4458277Y-8393222D02*
X4448753Y-8374174D01*
X4448753Y-8374174D02*
X4429706Y-8364650D01*
X4429706Y-8364650D02*
X4401134Y-8364650D01*
X4401134Y-8364650D02*
X4382087Y-8374174D01*
X4382087Y-8374174D02*
X4372563Y-8383698D01*
X4582087Y-8497984D02*
X4563039Y-8488460D01*
X4563039Y-8488460D02*
X4553515Y-8478936D01*
X4553515Y-8478936D02*
X4543992Y-8459889D01*
X4543992Y-8459889D02*
X4543992Y-8402746D01*
X4543992Y-8402746D02*
X4553515Y-8383698D01*
X4553515Y-8383698D02*
X4563039Y-8374174D01*
X4563039Y-8374174D02*
X4582087Y-8364650D01*
X4582087Y-8364650D02*
X4610658Y-8364650D01*
X4610658Y-8364650D02*
X4629706Y-8374174D01*
X4629706Y-8374174D02*
X4639230Y-8383698D01*
X4639230Y-8383698D02*
X4648753Y-8402746D01*
X4648753Y-8402746D02*
X4648753Y-8459889D01*
X4648753Y-8459889D02*
X4639230Y-8478936D01*
X4639230Y-8478936D02*
X4629706Y-8488460D01*
X4629706Y-8488460D02*
X4610658Y-8497984D01*
X4610658Y-8497984D02*
X4582087Y-8497984D01*
X4763039Y-8497984D02*
X4743992Y-8488460D01*
X4743992Y-8488460D02*
X4734468Y-8469412D01*
X4734468Y-8469412D02*
X4734468Y-8297984D01*
X4915420Y-8488460D02*
X4896373Y-8497984D01*
X4896373Y-8497984D02*
X4858277Y-8497984D01*
X4858277Y-8497984D02*
X4839230Y-8488460D01*
X4839230Y-8488460D02*
X4829706Y-8469412D01*
X4829706Y-8469412D02*
X4829706Y-8393222D01*
X4829706Y-8393222D02*
X4839230Y-8374174D01*
X4839230Y-8374174D02*
X4858277Y-8364650D01*
X4858277Y-8364650D02*
X4896373Y-8364650D01*
X4896373Y-8364650D02*
X4915420Y-8374174D01*
X4915420Y-8374174D02*
X4924944Y-8393222D01*
X4924944Y-8393222D02*
X4924944Y-8412270D01*
X4924944Y-8412270D02*
X4829706Y-8431317D01*
X5001134Y-8488460D02*
X5020182Y-8497984D01*
X5020182Y-8497984D02*
X5058277Y-8497984D01*
X5058277Y-8497984D02*
X5077325Y-8488460D01*
X5077325Y-8488460D02*
X5086849Y-8469412D01*
X5086849Y-8469412D02*
X5086849Y-8459889D01*
X5086849Y-8459889D02*
X5077325Y-8440841D01*
X5077325Y-8440841D02*
X5058277Y-8431317D01*
X5058277Y-8431317D02*
X5029706Y-8431317D01*
X5029706Y-8431317D02*
X5010658Y-8421793D01*
X5010658Y-8421793D02*
X5001134Y-8402746D01*
X5001134Y-8402746D02*
X5001134Y-8393222D01*
X5001134Y-8393222D02*
X5010658Y-8374174D01*
X5010658Y-8374174D02*
X5029706Y-8364650D01*
X5029706Y-8364650D02*
X5058277Y-8364650D01*
X5058277Y-8364650D02*
X5077325Y-8374174D01*
X5153515Y-8574174D02*
X5163039Y-8564650D01*
X5163039Y-8564650D02*
X5182087Y-8536079D01*
X5182087Y-8536079D02*
X5191611Y-8517031D01*
X5191611Y-8517031D02*
X5201134Y-8488460D01*
X5201134Y-8488460D02*
X5210658Y-8440841D01*
X5210658Y-8440841D02*
X5210658Y-8402746D01*
X5210658Y-8402746D02*
X5201134Y-8355127D01*
X5201134Y-8355127D02*
X5191611Y-8326555D01*
X5191611Y-8326555D02*
X5182087Y-8307508D01*
X5182087Y-8307508D02*
X5163039Y-8278936D01*
X5163039Y-8278936D02*
X5153515Y-8269412D01*
D12*
X-42500Y-8630500D02*
X-42500Y-8710500D01*
X-82500Y-8670500D02*
X-2500Y-8670500D01*
D11*
X296372Y-8561984D02*
X315420Y-8561984D01*
X315420Y-8561984D02*
X334467Y-8571508D01*
X334467Y-8571508D02*
X343991Y-8581031D01*
X343991Y-8581031D02*
X353515Y-8600079D01*
X353515Y-8600079D02*
X363039Y-8638174D01*
X363039Y-8638174D02*
X363039Y-8685793D01*
X363039Y-8685793D02*
X353515Y-8723889D01*
X353515Y-8723889D02*
X343991Y-8742936D01*
X343991Y-8742936D02*
X334467Y-8752460D01*
X334467Y-8752460D02*
X315420Y-8761984D01*
X315420Y-8761984D02*
X296372Y-8761984D01*
X296372Y-8761984D02*
X277324Y-8752460D01*
X277324Y-8752460D02*
X267801Y-8742936D01*
X267801Y-8742936D02*
X258277Y-8723889D01*
X258277Y-8723889D02*
X248753Y-8685793D01*
X248753Y-8685793D02*
X248753Y-8638174D01*
X248753Y-8638174D02*
X258277Y-8600079D01*
X258277Y-8600079D02*
X267801Y-8581031D01*
X267801Y-8581031D02*
X277324Y-8571508D01*
X277324Y-8571508D02*
X296372Y-8561984D01*
X448753Y-8742936D02*
X458277Y-8752460D01*
X458277Y-8752460D02*
X448753Y-8761984D01*
X448753Y-8761984D02*
X439229Y-8752460D01*
X439229Y-8752460D02*
X448753Y-8742936D01*
X448753Y-8742936D02*
X448753Y-8761984D01*
X572563Y-8647698D02*
X553515Y-8638174D01*
X553515Y-8638174D02*
X543991Y-8628650D01*
X543991Y-8628650D02*
X534467Y-8609603D01*
X534467Y-8609603D02*
X534467Y-8600079D01*
X534467Y-8600079D02*
X543991Y-8581031D01*
X543991Y-8581031D02*
X553515Y-8571508D01*
X553515Y-8571508D02*
X572563Y-8561984D01*
X572563Y-8561984D02*
X610658Y-8561984D01*
X610658Y-8561984D02*
X629705Y-8571508D01*
X629705Y-8571508D02*
X639229Y-8581031D01*
X639229Y-8581031D02*
X648753Y-8600079D01*
X648753Y-8600079D02*
X648753Y-8609603D01*
X648753Y-8609603D02*
X639229Y-8628650D01*
X639229Y-8628650D02*
X629705Y-8638174D01*
X629705Y-8638174D02*
X610658Y-8647698D01*
X610658Y-8647698D02*
X572563Y-8647698D01*
X572563Y-8647698D02*
X553515Y-8657222D01*
X553515Y-8657222D02*
X543991Y-8666746D01*
X543991Y-8666746D02*
X534467Y-8685793D01*
X534467Y-8685793D02*
X534467Y-8723889D01*
X534467Y-8723889D02*
X543991Y-8742936D01*
X543991Y-8742936D02*
X553515Y-8752460D01*
X553515Y-8752460D02*
X572563Y-8761984D01*
X572563Y-8761984D02*
X610658Y-8761984D01*
X610658Y-8761984D02*
X629705Y-8752460D01*
X629705Y-8752460D02*
X639229Y-8742936D01*
X639229Y-8742936D02*
X648753Y-8723889D01*
X648753Y-8723889D02*
X648753Y-8685793D01*
X648753Y-8685793D02*
X639229Y-8666746D01*
X639229Y-8666746D02*
X629705Y-8657222D01*
X629705Y-8657222D02*
X610658Y-8647698D01*
X772562Y-8561984D02*
X791610Y-8561984D01*
X791610Y-8561984D02*
X810658Y-8571508D01*
X810658Y-8571508D02*
X820182Y-8581031D01*
X820182Y-8581031D02*
X829705Y-8600079D01*
X829705Y-8600079D02*
X839229Y-8638174D01*
X839229Y-8638174D02*
X839229Y-8685793D01*
X839229Y-8685793D02*
X829705Y-8723889D01*
X829705Y-8723889D02*
X820182Y-8742936D01*
X820182Y-8742936D02*
X810658Y-8752460D01*
X810658Y-8752460D02*
X791610Y-8761984D01*
X791610Y-8761984D02*
X772562Y-8761984D01*
X772562Y-8761984D02*
X753515Y-8752460D01*
X753515Y-8752460D02*
X743991Y-8742936D01*
X743991Y-8742936D02*
X734467Y-8723889D01*
X734467Y-8723889D02*
X724943Y-8685793D01*
X724943Y-8685793D02*
X724943Y-8638174D01*
X724943Y-8638174D02*
X734467Y-8600079D01*
X734467Y-8600079D02*
X743991Y-8581031D01*
X743991Y-8581031D02*
X753515Y-8571508D01*
X753515Y-8571508D02*
X772562Y-8561984D01*
X963039Y-8561984D02*
X982086Y-8561984D01*
X982086Y-8561984D02*
X1001134Y-8571508D01*
X1001134Y-8571508D02*
X1010658Y-8581031D01*
X1010658Y-8581031D02*
X1020182Y-8600079D01*
X1020182Y-8600079D02*
X1029705Y-8638174D01*
X1029705Y-8638174D02*
X1029705Y-8685793D01*
X1029705Y-8685793D02*
X1020182Y-8723889D01*
X1020182Y-8723889D02*
X1010658Y-8742936D01*
X1010658Y-8742936D02*
X1001134Y-8752460D01*
X1001134Y-8752460D02*
X982086Y-8761984D01*
X982086Y-8761984D02*
X963039Y-8761984D01*
X963039Y-8761984D02*
X943991Y-8752460D01*
X943991Y-8752460D02*
X934467Y-8742936D01*
X934467Y-8742936D02*
X924943Y-8723889D01*
X924943Y-8723889D02*
X915420Y-8685793D01*
X915420Y-8685793D02*
X915420Y-8638174D01*
X915420Y-8638174D02*
X924943Y-8600079D01*
X924943Y-8600079D02*
X934467Y-8581031D01*
X934467Y-8581031D02*
X943991Y-8571508D01*
X943991Y-8571508D02*
X963039Y-8561984D01*
X1115420Y-8761984D02*
X1115420Y-8628650D01*
X1115420Y-8647698D02*
X1124944Y-8638174D01*
X1124944Y-8638174D02*
X1143991Y-8628650D01*
X1143991Y-8628650D02*
X1172563Y-8628650D01*
X1172563Y-8628650D02*
X1191610Y-8638174D01*
X1191610Y-8638174D02*
X1201134Y-8657222D01*
X1201134Y-8657222D02*
X1201134Y-8761984D01*
X1201134Y-8657222D02*
X1210658Y-8638174D01*
X1210658Y-8638174D02*
X1229705Y-8628650D01*
X1229705Y-8628650D02*
X1258277Y-8628650D01*
X1258277Y-8628650D02*
X1277325Y-8638174D01*
X1277325Y-8638174D02*
X1286848Y-8657222D01*
X1286848Y-8657222D02*
X1286848Y-8761984D01*
X1382086Y-8761984D02*
X1382086Y-8628650D01*
X1382086Y-8647698D02*
X1391610Y-8638174D01*
X1391610Y-8638174D02*
X1410658Y-8628650D01*
X1410658Y-8628650D02*
X1439229Y-8628650D01*
X1439229Y-8628650D02*
X1458277Y-8638174D01*
X1458277Y-8638174D02*
X1467801Y-8657222D01*
X1467801Y-8657222D02*
X1467801Y-8761984D01*
X1467801Y-8657222D02*
X1477324Y-8638174D01*
X1477324Y-8638174D02*
X1496372Y-8628650D01*
X1496372Y-8628650D02*
X1524943Y-8628650D01*
X1524943Y-8628650D02*
X1543991Y-8638174D01*
X1543991Y-8638174D02*
X1553515Y-8657222D01*
X1553515Y-8657222D02*
X1553515Y-8761984D01*
X1943991Y-8552460D02*
X1772563Y-8809603D01*
X2201134Y-8561984D02*
X2220182Y-8561984D01*
X2220182Y-8561984D02*
X2239229Y-8571508D01*
X2239229Y-8571508D02*
X2248753Y-8581031D01*
X2248753Y-8581031D02*
X2258277Y-8600079D01*
X2258277Y-8600079D02*
X2267801Y-8638174D01*
X2267801Y-8638174D02*
X2267801Y-8685793D01*
X2267801Y-8685793D02*
X2258277Y-8723889D01*
X2258277Y-8723889D02*
X2248753Y-8742936D01*
X2248753Y-8742936D02*
X2239229Y-8752460D01*
X2239229Y-8752460D02*
X2220182Y-8761984D01*
X2220182Y-8761984D02*
X2201134Y-8761984D01*
X2201134Y-8761984D02*
X2182087Y-8752460D01*
X2182087Y-8752460D02*
X2172563Y-8742936D01*
X2172563Y-8742936D02*
X2163039Y-8723889D01*
X2163039Y-8723889D02*
X2153515Y-8685793D01*
X2153515Y-8685793D02*
X2153515Y-8638174D01*
X2153515Y-8638174D02*
X2163039Y-8600079D01*
X2163039Y-8600079D02*
X2172563Y-8581031D01*
X2172563Y-8581031D02*
X2182087Y-8571508D01*
X2182087Y-8571508D02*
X2201134Y-8561984D01*
X2353515Y-8742936D02*
X2363039Y-8752460D01*
X2363039Y-8752460D02*
X2353515Y-8761984D01*
X2353515Y-8761984D02*
X2343991Y-8752460D01*
X2343991Y-8752460D02*
X2353515Y-8742936D01*
X2353515Y-8742936D02*
X2353515Y-8761984D01*
X2486848Y-8561984D02*
X2505896Y-8561984D01*
X2505896Y-8561984D02*
X2524944Y-8571508D01*
X2524944Y-8571508D02*
X2534468Y-8581031D01*
X2534468Y-8581031D02*
X2543991Y-8600079D01*
X2543991Y-8600079D02*
X2553515Y-8638174D01*
X2553515Y-8638174D02*
X2553515Y-8685793D01*
X2553515Y-8685793D02*
X2543991Y-8723889D01*
X2543991Y-8723889D02*
X2534468Y-8742936D01*
X2534468Y-8742936D02*
X2524944Y-8752460D01*
X2524944Y-8752460D02*
X2505896Y-8761984D01*
X2505896Y-8761984D02*
X2486848Y-8761984D01*
X2486848Y-8761984D02*
X2467801Y-8752460D01*
X2467801Y-8752460D02*
X2458277Y-8742936D01*
X2458277Y-8742936D02*
X2448753Y-8723889D01*
X2448753Y-8723889D02*
X2439229Y-8685793D01*
X2439229Y-8685793D02*
X2439229Y-8638174D01*
X2439229Y-8638174D02*
X2448753Y-8600079D01*
X2448753Y-8600079D02*
X2458277Y-8581031D01*
X2458277Y-8581031D02*
X2467801Y-8571508D01*
X2467801Y-8571508D02*
X2486848Y-8561984D01*
X2620182Y-8561984D02*
X2743991Y-8561984D01*
X2743991Y-8561984D02*
X2677325Y-8638174D01*
X2677325Y-8638174D02*
X2705896Y-8638174D01*
X2705896Y-8638174D02*
X2724944Y-8647698D01*
X2724944Y-8647698D02*
X2734468Y-8657222D01*
X2734468Y-8657222D02*
X2743991Y-8676270D01*
X2743991Y-8676270D02*
X2743991Y-8723889D01*
X2743991Y-8723889D02*
X2734468Y-8742936D01*
X2734468Y-8742936D02*
X2724944Y-8752460D01*
X2724944Y-8752460D02*
X2705896Y-8761984D01*
X2705896Y-8761984D02*
X2648753Y-8761984D01*
X2648753Y-8761984D02*
X2629706Y-8752460D01*
X2629706Y-8752460D02*
X2620182Y-8742936D01*
X2934467Y-8761984D02*
X2820182Y-8761984D01*
X2877325Y-8761984D02*
X2877325Y-8561984D01*
X2877325Y-8561984D02*
X2858277Y-8590555D01*
X2858277Y-8590555D02*
X2839229Y-8609603D01*
X2839229Y-8609603D02*
X2820182Y-8619127D01*
X3115420Y-8561984D02*
X3020182Y-8561984D01*
X3020182Y-8561984D02*
X3010658Y-8657222D01*
X3010658Y-8657222D02*
X3020182Y-8647698D01*
X3020182Y-8647698D02*
X3039229Y-8638174D01*
X3039229Y-8638174D02*
X3086848Y-8638174D01*
X3086848Y-8638174D02*
X3105896Y-8647698D01*
X3105896Y-8647698D02*
X3115420Y-8657222D01*
X3115420Y-8657222D02*
X3124944Y-8676270D01*
X3124944Y-8676270D02*
X3124944Y-8723889D01*
X3124944Y-8723889D02*
X3115420Y-8742936D01*
X3115420Y-8742936D02*
X3105896Y-8752460D01*
X3105896Y-8752460D02*
X3086848Y-8761984D01*
X3086848Y-8761984D02*
X3039229Y-8761984D01*
X3039229Y-8761984D02*
X3020182Y-8752460D01*
X3020182Y-8752460D02*
X3010658Y-8742936D01*
X3201134Y-8561984D02*
X3201134Y-8600079D01*
X3277325Y-8561984D02*
X3277325Y-8600079D01*
X3572563Y-8838174D02*
X3563039Y-8828650D01*
X3563039Y-8828650D02*
X3543991Y-8800079D01*
X3543991Y-8800079D02*
X3534468Y-8781031D01*
X3534468Y-8781031D02*
X3524944Y-8752460D01*
X3524944Y-8752460D02*
X3515420Y-8704841D01*
X3515420Y-8704841D02*
X3515420Y-8666746D01*
X3515420Y-8666746D02*
X3524944Y-8619127D01*
X3524944Y-8619127D02*
X3534468Y-8590555D01*
X3534468Y-8590555D02*
X3543991Y-8571508D01*
X3543991Y-8571508D02*
X3563039Y-8542936D01*
X3563039Y-8542936D02*
X3572563Y-8533412D01*
X3734468Y-8628650D02*
X3734468Y-8761984D01*
X3686848Y-8552460D02*
X3639229Y-8695317D01*
X3639229Y-8695317D02*
X3763039Y-8695317D01*
X3991610Y-8761984D02*
X3991610Y-8561984D01*
X4077325Y-8761984D02*
X4077325Y-8657222D01*
X4077325Y-8657222D02*
X4067801Y-8638174D01*
X4067801Y-8638174D02*
X4048753Y-8628650D01*
X4048753Y-8628650D02*
X4020182Y-8628650D01*
X4020182Y-8628650D02*
X4001134Y-8638174D01*
X4001134Y-8638174D02*
X3991610Y-8647698D01*
X4201134Y-8761984D02*
X4182087Y-8752460D01*
X4182087Y-8752460D02*
X4172563Y-8742936D01*
X4172563Y-8742936D02*
X4163039Y-8723889D01*
X4163039Y-8723889D02*
X4163039Y-8666746D01*
X4163039Y-8666746D02*
X4172563Y-8647698D01*
X4172563Y-8647698D02*
X4182087Y-8638174D01*
X4182087Y-8638174D02*
X4201134Y-8628650D01*
X4201134Y-8628650D02*
X4229706Y-8628650D01*
X4229706Y-8628650D02*
X4248753Y-8638174D01*
X4248753Y-8638174D02*
X4258277Y-8647698D01*
X4258277Y-8647698D02*
X4267801Y-8666746D01*
X4267801Y-8666746D02*
X4267801Y-8723889D01*
X4267801Y-8723889D02*
X4258277Y-8742936D01*
X4258277Y-8742936D02*
X4248753Y-8752460D01*
X4248753Y-8752460D02*
X4229706Y-8761984D01*
X4229706Y-8761984D02*
X4201134Y-8761984D01*
X4382087Y-8761984D02*
X4363039Y-8752460D01*
X4363039Y-8752460D02*
X4353515Y-8733412D01*
X4353515Y-8733412D02*
X4353515Y-8561984D01*
X4534468Y-8752460D02*
X4515420Y-8761984D01*
X4515420Y-8761984D02*
X4477325Y-8761984D01*
X4477325Y-8761984D02*
X4458277Y-8752460D01*
X4458277Y-8752460D02*
X4448753Y-8733412D01*
X4448753Y-8733412D02*
X4448753Y-8657222D01*
X4448753Y-8657222D02*
X4458277Y-8638174D01*
X4458277Y-8638174D02*
X4477325Y-8628650D01*
X4477325Y-8628650D02*
X4515420Y-8628650D01*
X4515420Y-8628650D02*
X4534468Y-8638174D01*
X4534468Y-8638174D02*
X4543992Y-8657222D01*
X4543992Y-8657222D02*
X4543992Y-8676270D01*
X4543992Y-8676270D02*
X4448753Y-8695317D01*
X4620182Y-8752460D02*
X4639230Y-8761984D01*
X4639230Y-8761984D02*
X4677325Y-8761984D01*
X4677325Y-8761984D02*
X4696373Y-8752460D01*
X4696373Y-8752460D02*
X4705896Y-8733412D01*
X4705896Y-8733412D02*
X4705896Y-8723889D01*
X4705896Y-8723889D02*
X4696373Y-8704841D01*
X4696373Y-8704841D02*
X4677325Y-8695317D01*
X4677325Y-8695317D02*
X4648753Y-8695317D01*
X4648753Y-8695317D02*
X4629706Y-8685793D01*
X4629706Y-8685793D02*
X4620182Y-8666746D01*
X4620182Y-8666746D02*
X4620182Y-8657222D01*
X4620182Y-8657222D02*
X4629706Y-8638174D01*
X4629706Y-8638174D02*
X4648753Y-8628650D01*
X4648753Y-8628650D02*
X4677325Y-8628650D01*
X4677325Y-8628650D02*
X4696373Y-8638174D01*
X4772563Y-8838174D02*
X4782087Y-8828650D01*
X4782087Y-8828650D02*
X4801134Y-8800079D01*
X4801134Y-8800079D02*
X4810658Y-8781031D01*
X4810658Y-8781031D02*
X4820182Y-8752460D01*
X4820182Y-8752460D02*
X4829706Y-8704841D01*
X4829706Y-8704841D02*
X4829706Y-8666746D01*
X4829706Y-8666746D02*
X4820182Y-8619127D01*
X4820182Y-8619127D02*
X4810658Y-8590555D01*
X4810658Y-8590555D02*
X4801134Y-8571508D01*
X4801134Y-8571508D02*
X4782087Y-8542936D01*
X4782087Y-8542936D02*
X4772563Y-8533412D01*
D12*
X-14948Y-8964552D02*
X-14948Y-8904448D01*
X-75052Y-8904448D01*
X-75052Y-8964552D01*
X-14948Y-8964552D01*
D11*
X296372Y-8825984D02*
X315420Y-8825984D01*
X315420Y-8825984D02*
X334467Y-8835508D01*
X334467Y-8835508D02*
X343991Y-8845031D01*
X343991Y-8845031D02*
X353515Y-8864079D01*
X353515Y-8864079D02*
X363039Y-8902174D01*
X363039Y-8902174D02*
X363039Y-8949793D01*
X363039Y-8949793D02*
X353515Y-8987889D01*
X353515Y-8987889D02*
X343991Y-9006936D01*
X343991Y-9006936D02*
X334467Y-9016460D01*
X334467Y-9016460D02*
X315420Y-9025984D01*
X315420Y-9025984D02*
X296372Y-9025984D01*
X296372Y-9025984D02*
X277324Y-9016460D01*
X277324Y-9016460D02*
X267801Y-9006936D01*
X267801Y-9006936D02*
X258277Y-8987889D01*
X258277Y-8987889D02*
X248753Y-8949793D01*
X248753Y-8949793D02*
X248753Y-8902174D01*
X248753Y-8902174D02*
X258277Y-8864079D01*
X258277Y-8864079D02*
X267801Y-8845031D01*
X267801Y-8845031D02*
X277324Y-8835508D01*
X277324Y-8835508D02*
X296372Y-8825984D01*
X448753Y-9006936D02*
X458277Y-9016460D01*
X458277Y-9016460D02*
X448753Y-9025984D01*
X448753Y-9025984D02*
X439229Y-9016460D01*
X439229Y-9016460D02*
X448753Y-9006936D01*
X448753Y-9006936D02*
X448753Y-9025984D01*
X572563Y-8911698D02*
X553515Y-8902174D01*
X553515Y-8902174D02*
X543991Y-8892650D01*
X543991Y-8892650D02*
X534467Y-8873603D01*
X534467Y-8873603D02*
X534467Y-8864079D01*
X534467Y-8864079D02*
X543991Y-8845031D01*
X543991Y-8845031D02*
X553515Y-8835508D01*
X553515Y-8835508D02*
X572563Y-8825984D01*
X572563Y-8825984D02*
X610658Y-8825984D01*
X610658Y-8825984D02*
X629705Y-8835508D01*
X629705Y-8835508D02*
X639229Y-8845031D01*
X639229Y-8845031D02*
X648753Y-8864079D01*
X648753Y-8864079D02*
X648753Y-8873603D01*
X648753Y-8873603D02*
X639229Y-8892650D01*
X639229Y-8892650D02*
X629705Y-8902174D01*
X629705Y-8902174D02*
X610658Y-8911698D01*
X610658Y-8911698D02*
X572563Y-8911698D01*
X572563Y-8911698D02*
X553515Y-8921222D01*
X553515Y-8921222D02*
X543991Y-8930746D01*
X543991Y-8930746D02*
X534467Y-8949793D01*
X534467Y-8949793D02*
X534467Y-8987889D01*
X534467Y-8987889D02*
X543991Y-9006936D01*
X543991Y-9006936D02*
X553515Y-9016460D01*
X553515Y-9016460D02*
X572563Y-9025984D01*
X572563Y-9025984D02*
X610658Y-9025984D01*
X610658Y-9025984D02*
X629705Y-9016460D01*
X629705Y-9016460D02*
X639229Y-9006936D01*
X639229Y-9006936D02*
X648753Y-8987889D01*
X648753Y-8987889D02*
X648753Y-8949793D01*
X648753Y-8949793D02*
X639229Y-8930746D01*
X639229Y-8930746D02*
X629705Y-8921222D01*
X629705Y-8921222D02*
X610658Y-8911698D01*
X829705Y-8825984D02*
X734467Y-8825984D01*
X734467Y-8825984D02*
X724943Y-8921222D01*
X724943Y-8921222D02*
X734467Y-8911698D01*
X734467Y-8911698D02*
X753515Y-8902174D01*
X753515Y-8902174D02*
X801134Y-8902174D01*
X801134Y-8902174D02*
X820182Y-8911698D01*
X820182Y-8911698D02*
X829705Y-8921222D01*
X829705Y-8921222D02*
X839229Y-8940270D01*
X839229Y-8940270D02*
X839229Y-8987889D01*
X839229Y-8987889D02*
X829705Y-9006936D01*
X829705Y-9006936D02*
X820182Y-9016460D01*
X820182Y-9016460D02*
X801134Y-9025984D01*
X801134Y-9025984D02*
X753515Y-9025984D01*
X753515Y-9025984D02*
X734467Y-9016460D01*
X734467Y-9016460D02*
X724943Y-9006936D01*
X963039Y-8825984D02*
X982086Y-8825984D01*
X982086Y-8825984D02*
X1001134Y-8835508D01*
X1001134Y-8835508D02*
X1010658Y-8845031D01*
X1010658Y-8845031D02*
X1020182Y-8864079D01*
X1020182Y-8864079D02*
X1029705Y-8902174D01*
X1029705Y-8902174D02*
X1029705Y-8949793D01*
X1029705Y-8949793D02*
X1020182Y-8987889D01*
X1020182Y-8987889D02*
X1010658Y-9006936D01*
X1010658Y-9006936D02*
X1001134Y-9016460D01*
X1001134Y-9016460D02*
X982086Y-9025984D01*
X982086Y-9025984D02*
X963039Y-9025984D01*
X963039Y-9025984D02*
X943991Y-9016460D01*
X943991Y-9016460D02*
X934467Y-9006936D01*
X934467Y-9006936D02*
X924943Y-8987889D01*
X924943Y-8987889D02*
X915420Y-8949793D01*
X915420Y-8949793D02*
X915420Y-8902174D01*
X915420Y-8902174D02*
X924943Y-8864079D01*
X924943Y-8864079D02*
X934467Y-8845031D01*
X934467Y-8845031D02*
X943991Y-8835508D01*
X943991Y-8835508D02*
X963039Y-8825984D01*
X1115420Y-9025984D02*
X1115420Y-8892650D01*
X1115420Y-8911698D02*
X1124944Y-8902174D01*
X1124944Y-8902174D02*
X1143991Y-8892650D01*
X1143991Y-8892650D02*
X1172563Y-8892650D01*
X1172563Y-8892650D02*
X1191610Y-8902174D01*
X1191610Y-8902174D02*
X1201134Y-8921222D01*
X1201134Y-8921222D02*
X1201134Y-9025984D01*
X1201134Y-8921222D02*
X1210658Y-8902174D01*
X1210658Y-8902174D02*
X1229705Y-8892650D01*
X1229705Y-8892650D02*
X1258277Y-8892650D01*
X1258277Y-8892650D02*
X1277325Y-8902174D01*
X1277325Y-8902174D02*
X1286848Y-8921222D01*
X1286848Y-8921222D02*
X1286848Y-9025984D01*
X1382086Y-9025984D02*
X1382086Y-8892650D01*
X1382086Y-8911698D02*
X1391610Y-8902174D01*
X1391610Y-8902174D02*
X1410658Y-8892650D01*
X1410658Y-8892650D02*
X1439229Y-8892650D01*
X1439229Y-8892650D02*
X1458277Y-8902174D01*
X1458277Y-8902174D02*
X1467801Y-8921222D01*
X1467801Y-8921222D02*
X1467801Y-9025984D01*
X1467801Y-8921222D02*
X1477324Y-8902174D01*
X1477324Y-8902174D02*
X1496372Y-8892650D01*
X1496372Y-8892650D02*
X1524943Y-8892650D01*
X1524943Y-8892650D02*
X1543991Y-8902174D01*
X1543991Y-8902174D02*
X1553515Y-8921222D01*
X1553515Y-8921222D02*
X1553515Y-9025984D01*
X1943991Y-8816460D02*
X1772563Y-9073603D01*
X2201134Y-8825984D02*
X2220182Y-8825984D01*
X2220182Y-8825984D02*
X2239229Y-8835508D01*
X2239229Y-8835508D02*
X2248753Y-8845031D01*
X2248753Y-8845031D02*
X2258277Y-8864079D01*
X2258277Y-8864079D02*
X2267801Y-8902174D01*
X2267801Y-8902174D02*
X2267801Y-8949793D01*
X2267801Y-8949793D02*
X2258277Y-8987889D01*
X2258277Y-8987889D02*
X2248753Y-9006936D01*
X2248753Y-9006936D02*
X2239229Y-9016460D01*
X2239229Y-9016460D02*
X2220182Y-9025984D01*
X2220182Y-9025984D02*
X2201134Y-9025984D01*
X2201134Y-9025984D02*
X2182087Y-9016460D01*
X2182087Y-9016460D02*
X2172563Y-9006936D01*
X2172563Y-9006936D02*
X2163039Y-8987889D01*
X2163039Y-8987889D02*
X2153515Y-8949793D01*
X2153515Y-8949793D02*
X2153515Y-8902174D01*
X2153515Y-8902174D02*
X2163039Y-8864079D01*
X2163039Y-8864079D02*
X2172563Y-8845031D01*
X2172563Y-8845031D02*
X2182087Y-8835508D01*
X2182087Y-8835508D02*
X2201134Y-8825984D01*
X2353515Y-9006936D02*
X2363039Y-9016460D01*
X2363039Y-9016460D02*
X2353515Y-9025984D01*
X2353515Y-9025984D02*
X2343991Y-9016460D01*
X2343991Y-9016460D02*
X2353515Y-9006936D01*
X2353515Y-9006936D02*
X2353515Y-9025984D01*
X2486848Y-8825984D02*
X2505896Y-8825984D01*
X2505896Y-8825984D02*
X2524944Y-8835508D01*
X2524944Y-8835508D02*
X2534468Y-8845031D01*
X2534468Y-8845031D02*
X2543991Y-8864079D01*
X2543991Y-8864079D02*
X2553515Y-8902174D01*
X2553515Y-8902174D02*
X2553515Y-8949793D01*
X2553515Y-8949793D02*
X2543991Y-8987889D01*
X2543991Y-8987889D02*
X2534468Y-9006936D01*
X2534468Y-9006936D02*
X2524944Y-9016460D01*
X2524944Y-9016460D02*
X2505896Y-9025984D01*
X2505896Y-9025984D02*
X2486848Y-9025984D01*
X2486848Y-9025984D02*
X2467801Y-9016460D01*
X2467801Y-9016460D02*
X2458277Y-9006936D01*
X2458277Y-9006936D02*
X2448753Y-8987889D01*
X2448753Y-8987889D02*
X2439229Y-8949793D01*
X2439229Y-8949793D02*
X2439229Y-8902174D01*
X2439229Y-8902174D02*
X2448753Y-8864079D01*
X2448753Y-8864079D02*
X2458277Y-8845031D01*
X2458277Y-8845031D02*
X2467801Y-8835508D01*
X2467801Y-8835508D02*
X2486848Y-8825984D01*
X2620182Y-8825984D02*
X2743991Y-8825984D01*
X2743991Y-8825984D02*
X2677325Y-8902174D01*
X2677325Y-8902174D02*
X2705896Y-8902174D01*
X2705896Y-8902174D02*
X2724944Y-8911698D01*
X2724944Y-8911698D02*
X2734468Y-8921222D01*
X2734468Y-8921222D02*
X2743991Y-8940270D01*
X2743991Y-8940270D02*
X2743991Y-8987889D01*
X2743991Y-8987889D02*
X2734468Y-9006936D01*
X2734468Y-9006936D02*
X2724944Y-9016460D01*
X2724944Y-9016460D02*
X2705896Y-9025984D01*
X2705896Y-9025984D02*
X2648753Y-9025984D01*
X2648753Y-9025984D02*
X2629706Y-9016460D01*
X2629706Y-9016460D02*
X2620182Y-9006936D01*
X2810658Y-8825984D02*
X2934467Y-8825984D01*
X2934467Y-8825984D02*
X2867801Y-8902174D01*
X2867801Y-8902174D02*
X2896372Y-8902174D01*
X2896372Y-8902174D02*
X2915420Y-8911698D01*
X2915420Y-8911698D02*
X2924944Y-8921222D01*
X2924944Y-8921222D02*
X2934467Y-8940270D01*
X2934467Y-8940270D02*
X2934467Y-8987889D01*
X2934467Y-8987889D02*
X2924944Y-9006936D01*
X2924944Y-9006936D02*
X2915420Y-9016460D01*
X2915420Y-9016460D02*
X2896372Y-9025984D01*
X2896372Y-9025984D02*
X2839229Y-9025984D01*
X2839229Y-9025984D02*
X2820182Y-9016460D01*
X2820182Y-9016460D02*
X2810658Y-9006936D01*
X3115420Y-8825984D02*
X3020182Y-8825984D01*
X3020182Y-8825984D02*
X3010658Y-8921222D01*
X3010658Y-8921222D02*
X3020182Y-8911698D01*
X3020182Y-8911698D02*
X3039229Y-8902174D01*
X3039229Y-8902174D02*
X3086848Y-8902174D01*
X3086848Y-8902174D02*
X3105896Y-8911698D01*
X3105896Y-8911698D02*
X3115420Y-8921222D01*
X3115420Y-8921222D02*
X3124944Y-8940270D01*
X3124944Y-8940270D02*
X3124944Y-8987889D01*
X3124944Y-8987889D02*
X3115420Y-9006936D01*
X3115420Y-9006936D02*
X3105896Y-9016460D01*
X3105896Y-9016460D02*
X3086848Y-9025984D01*
X3086848Y-9025984D02*
X3039229Y-9025984D01*
X3039229Y-9025984D02*
X3020182Y-9016460D01*
X3020182Y-9016460D02*
X3010658Y-9006936D01*
X3201134Y-8825984D02*
X3201134Y-8864079D01*
X3277325Y-8825984D02*
X3277325Y-8864079D01*
X3572563Y-9102174D02*
X3563039Y-9092650D01*
X3563039Y-9092650D02*
X3543991Y-9064079D01*
X3543991Y-9064079D02*
X3534468Y-9045031D01*
X3534468Y-9045031D02*
X3524944Y-9016460D01*
X3524944Y-9016460D02*
X3515420Y-8968841D01*
X3515420Y-8968841D02*
X3515420Y-8930746D01*
X3515420Y-8930746D02*
X3524944Y-8883127D01*
X3524944Y-8883127D02*
X3534468Y-8854555D01*
X3534468Y-8854555D02*
X3543991Y-8835508D01*
X3543991Y-8835508D02*
X3563039Y-8806936D01*
X3563039Y-8806936D02*
X3572563Y-8797412D01*
X3639229Y-8845031D02*
X3648753Y-8835508D01*
X3648753Y-8835508D02*
X3667801Y-8825984D01*
X3667801Y-8825984D02*
X3715420Y-8825984D01*
X3715420Y-8825984D02*
X3734468Y-8835508D01*
X3734468Y-8835508D02*
X3743991Y-8845031D01*
X3743991Y-8845031D02*
X3753515Y-8864079D01*
X3753515Y-8864079D02*
X3753515Y-8883127D01*
X3753515Y-8883127D02*
X3743991Y-8911698D01*
X3743991Y-8911698D02*
X3629706Y-9025984D01*
X3629706Y-9025984D02*
X3753515Y-9025984D01*
X3991610Y-9025984D02*
X3991610Y-8825984D01*
X4077325Y-9025984D02*
X4077325Y-8921222D01*
X4077325Y-8921222D02*
X4067801Y-8902174D01*
X4067801Y-8902174D02*
X4048753Y-8892650D01*
X4048753Y-8892650D02*
X4020182Y-8892650D01*
X4020182Y-8892650D02*
X4001134Y-8902174D01*
X4001134Y-8902174D02*
X3991610Y-8911698D01*
X4201134Y-9025984D02*
X4182087Y-9016460D01*
X4182087Y-9016460D02*
X4172563Y-9006936D01*
X4172563Y-9006936D02*
X4163039Y-8987889D01*
X4163039Y-8987889D02*
X4163039Y-8930746D01*
X4163039Y-8930746D02*
X4172563Y-8911698D01*
X4172563Y-8911698D02*
X4182087Y-8902174D01*
X4182087Y-8902174D02*
X4201134Y-8892650D01*
X4201134Y-8892650D02*
X4229706Y-8892650D01*
X4229706Y-8892650D02*
X4248753Y-8902174D01*
X4248753Y-8902174D02*
X4258277Y-8911698D01*
X4258277Y-8911698D02*
X4267801Y-8930746D01*
X4267801Y-8930746D02*
X4267801Y-8987889D01*
X4267801Y-8987889D02*
X4258277Y-9006936D01*
X4258277Y-9006936D02*
X4248753Y-9016460D01*
X4248753Y-9016460D02*
X4229706Y-9025984D01*
X4229706Y-9025984D02*
X4201134Y-9025984D01*
X4382087Y-9025984D02*
X4363039Y-9016460D01*
X4363039Y-9016460D02*
X4353515Y-8997412D01*
X4353515Y-8997412D02*
X4353515Y-8825984D01*
X4534468Y-9016460D02*
X4515420Y-9025984D01*
X4515420Y-9025984D02*
X4477325Y-9025984D01*
X4477325Y-9025984D02*
X4458277Y-9016460D01*
X4458277Y-9016460D02*
X4448753Y-8997412D01*
X4448753Y-8997412D02*
X4448753Y-8921222D01*
X4448753Y-8921222D02*
X4458277Y-8902174D01*
X4458277Y-8902174D02*
X4477325Y-8892650D01*
X4477325Y-8892650D02*
X4515420Y-8892650D01*
X4515420Y-8892650D02*
X4534468Y-8902174D01*
X4534468Y-8902174D02*
X4543992Y-8921222D01*
X4543992Y-8921222D02*
X4543992Y-8940270D01*
X4543992Y-8940270D02*
X4448753Y-8959317D01*
X4620182Y-9016460D02*
X4639230Y-9025984D01*
X4639230Y-9025984D02*
X4677325Y-9025984D01*
X4677325Y-9025984D02*
X4696373Y-9016460D01*
X4696373Y-9016460D02*
X4705896Y-8997412D01*
X4705896Y-8997412D02*
X4705896Y-8987889D01*
X4705896Y-8987889D02*
X4696373Y-8968841D01*
X4696373Y-8968841D02*
X4677325Y-8959317D01*
X4677325Y-8959317D02*
X4648753Y-8959317D01*
X4648753Y-8959317D02*
X4629706Y-8949793D01*
X4629706Y-8949793D02*
X4620182Y-8930746D01*
X4620182Y-8930746D02*
X4620182Y-8921222D01*
X4620182Y-8921222D02*
X4629706Y-8902174D01*
X4629706Y-8902174D02*
X4648753Y-8892650D01*
X4648753Y-8892650D02*
X4677325Y-8892650D01*
X4677325Y-8892650D02*
X4696373Y-8902174D01*
X4772563Y-9102174D02*
X4782087Y-9092650D01*
X4782087Y-9092650D02*
X4801134Y-9064079D01*
X4801134Y-9064079D02*
X4810658Y-9045031D01*
X4810658Y-9045031D02*
X4820182Y-9016460D01*
X4820182Y-9016460D02*
X4829706Y-8968841D01*
X4829706Y-8968841D02*
X4829706Y-8930746D01*
X4829706Y-8930746D02*
X4820182Y-8883127D01*
X4820182Y-8883127D02*
X4810658Y-8854555D01*
X4810658Y-8854555D02*
X4801134Y-8835508D01*
X4801134Y-8835508D02*
X4782087Y-8806936D01*
X4782087Y-8806936D02*
X4772563Y-8797412D01*
X-102500Y-9298500D02*
X-2500Y-9198500D01*
X-102500Y-9098500D01*
X-202500Y-9198500D01*
X-102500Y-9298500D01*
X248753Y-9109031D02*
X258277Y-9099508D01*
X258277Y-9099508D02*
X277324Y-9089984D01*
X277324Y-9089984D02*
X324944Y-9089984D01*
X324944Y-9089984D02*
X343991Y-9099508D01*
X343991Y-9099508D02*
X353515Y-9109031D01*
X353515Y-9109031D02*
X363039Y-9128079D01*
X363039Y-9128079D02*
X363039Y-9147127D01*
X363039Y-9147127D02*
X353515Y-9175698D01*
X353515Y-9175698D02*
X239229Y-9289984D01*
X239229Y-9289984D02*
X363039Y-9289984D01*
X448753Y-9270936D02*
X458277Y-9280460D01*
X458277Y-9280460D02*
X448753Y-9289984D01*
X448753Y-9289984D02*
X439229Y-9280460D01*
X439229Y-9280460D02*
X448753Y-9270936D01*
X448753Y-9270936D02*
X448753Y-9289984D01*
X639229Y-9089984D02*
X543991Y-9089984D01*
X543991Y-9089984D02*
X534467Y-9185222D01*
X534467Y-9185222D02*
X543991Y-9175698D01*
X543991Y-9175698D02*
X563039Y-9166174D01*
X563039Y-9166174D02*
X610658Y-9166174D01*
X610658Y-9166174D02*
X629705Y-9175698D01*
X629705Y-9175698D02*
X639229Y-9185222D01*
X639229Y-9185222D02*
X648753Y-9204270D01*
X648753Y-9204270D02*
X648753Y-9251889D01*
X648753Y-9251889D02*
X639229Y-9270936D01*
X639229Y-9270936D02*
X629705Y-9280460D01*
X629705Y-9280460D02*
X610658Y-9289984D01*
X610658Y-9289984D02*
X563039Y-9289984D01*
X563039Y-9289984D02*
X543991Y-9280460D01*
X543991Y-9280460D02*
X534467Y-9270936D01*
X772562Y-9089984D02*
X791610Y-9089984D01*
X791610Y-9089984D02*
X810658Y-9099508D01*
X810658Y-9099508D02*
X820182Y-9109031D01*
X820182Y-9109031D02*
X829705Y-9128079D01*
X829705Y-9128079D02*
X839229Y-9166174D01*
X839229Y-9166174D02*
X839229Y-9213793D01*
X839229Y-9213793D02*
X829705Y-9251889D01*
X829705Y-9251889D02*
X820182Y-9270936D01*
X820182Y-9270936D02*
X810658Y-9280460D01*
X810658Y-9280460D02*
X791610Y-9289984D01*
X791610Y-9289984D02*
X772562Y-9289984D01*
X772562Y-9289984D02*
X753515Y-9280460D01*
X753515Y-9280460D02*
X743991Y-9270936D01*
X743991Y-9270936D02*
X734467Y-9251889D01*
X734467Y-9251889D02*
X724943Y-9213793D01*
X724943Y-9213793D02*
X724943Y-9166174D01*
X724943Y-9166174D02*
X734467Y-9128079D01*
X734467Y-9128079D02*
X743991Y-9109031D01*
X743991Y-9109031D02*
X753515Y-9099508D01*
X753515Y-9099508D02*
X772562Y-9089984D01*
X963039Y-9089984D02*
X982086Y-9089984D01*
X982086Y-9089984D02*
X1001134Y-9099508D01*
X1001134Y-9099508D02*
X1010658Y-9109031D01*
X1010658Y-9109031D02*
X1020182Y-9128079D01*
X1020182Y-9128079D02*
X1029705Y-9166174D01*
X1029705Y-9166174D02*
X1029705Y-9213793D01*
X1029705Y-9213793D02*
X1020182Y-9251889D01*
X1020182Y-9251889D02*
X1010658Y-9270936D01*
X1010658Y-9270936D02*
X1001134Y-9280460D01*
X1001134Y-9280460D02*
X982086Y-9289984D01*
X982086Y-9289984D02*
X963039Y-9289984D01*
X963039Y-9289984D02*
X943991Y-9280460D01*
X943991Y-9280460D02*
X934467Y-9270936D01*
X934467Y-9270936D02*
X924943Y-9251889D01*
X924943Y-9251889D02*
X915420Y-9213793D01*
X915420Y-9213793D02*
X915420Y-9166174D01*
X915420Y-9166174D02*
X924943Y-9128079D01*
X924943Y-9128079D02*
X934467Y-9109031D01*
X934467Y-9109031D02*
X943991Y-9099508D01*
X943991Y-9099508D02*
X963039Y-9089984D01*
X1115420Y-9289984D02*
X1115420Y-9156650D01*
X1115420Y-9175698D02*
X1124944Y-9166174D01*
X1124944Y-9166174D02*
X1143991Y-9156650D01*
X1143991Y-9156650D02*
X1172563Y-9156650D01*
X1172563Y-9156650D02*
X1191610Y-9166174D01*
X1191610Y-9166174D02*
X1201134Y-9185222D01*
X1201134Y-9185222D02*
X1201134Y-9289984D01*
X1201134Y-9185222D02*
X1210658Y-9166174D01*
X1210658Y-9166174D02*
X1229705Y-9156650D01*
X1229705Y-9156650D02*
X1258277Y-9156650D01*
X1258277Y-9156650D02*
X1277325Y-9166174D01*
X1277325Y-9166174D02*
X1286848Y-9185222D01*
X1286848Y-9185222D02*
X1286848Y-9289984D01*
X1382086Y-9289984D02*
X1382086Y-9156650D01*
X1382086Y-9175698D02*
X1391610Y-9166174D01*
X1391610Y-9166174D02*
X1410658Y-9156650D01*
X1410658Y-9156650D02*
X1439229Y-9156650D01*
X1439229Y-9156650D02*
X1458277Y-9166174D01*
X1458277Y-9166174D02*
X1467801Y-9185222D01*
X1467801Y-9185222D02*
X1467801Y-9289984D01*
X1467801Y-9185222D02*
X1477324Y-9166174D01*
X1477324Y-9166174D02*
X1496372Y-9156650D01*
X1496372Y-9156650D02*
X1524943Y-9156650D01*
X1524943Y-9156650D02*
X1543991Y-9166174D01*
X1543991Y-9166174D02*
X1553515Y-9185222D01*
X1553515Y-9185222D02*
X1553515Y-9289984D01*
X1943991Y-9080460D02*
X1772563Y-9337603D01*
X2201134Y-9089984D02*
X2220182Y-9089984D01*
X2220182Y-9089984D02*
X2239229Y-9099508D01*
X2239229Y-9099508D02*
X2248753Y-9109031D01*
X2248753Y-9109031D02*
X2258277Y-9128079D01*
X2258277Y-9128079D02*
X2267801Y-9166174D01*
X2267801Y-9166174D02*
X2267801Y-9213793D01*
X2267801Y-9213793D02*
X2258277Y-9251889D01*
X2258277Y-9251889D02*
X2248753Y-9270936D01*
X2248753Y-9270936D02*
X2239229Y-9280460D01*
X2239229Y-9280460D02*
X2220182Y-9289984D01*
X2220182Y-9289984D02*
X2201134Y-9289984D01*
X2201134Y-9289984D02*
X2182087Y-9280460D01*
X2182087Y-9280460D02*
X2172563Y-9270936D01*
X2172563Y-9270936D02*
X2163039Y-9251889D01*
X2163039Y-9251889D02*
X2153515Y-9213793D01*
X2153515Y-9213793D02*
X2153515Y-9166174D01*
X2153515Y-9166174D02*
X2163039Y-9128079D01*
X2163039Y-9128079D02*
X2172563Y-9109031D01*
X2172563Y-9109031D02*
X2182087Y-9099508D01*
X2182087Y-9099508D02*
X2201134Y-9089984D01*
X2353515Y-9270936D02*
X2363039Y-9280460D01*
X2363039Y-9280460D02*
X2353515Y-9289984D01*
X2353515Y-9289984D02*
X2343991Y-9280460D01*
X2343991Y-9280460D02*
X2353515Y-9270936D01*
X2353515Y-9270936D02*
X2353515Y-9289984D01*
X2486848Y-9089984D02*
X2505896Y-9089984D01*
X2505896Y-9089984D02*
X2524944Y-9099508D01*
X2524944Y-9099508D02*
X2534468Y-9109031D01*
X2534468Y-9109031D02*
X2543991Y-9128079D01*
X2543991Y-9128079D02*
X2553515Y-9166174D01*
X2553515Y-9166174D02*
X2553515Y-9213793D01*
X2553515Y-9213793D02*
X2543991Y-9251889D01*
X2543991Y-9251889D02*
X2534468Y-9270936D01*
X2534468Y-9270936D02*
X2524944Y-9280460D01*
X2524944Y-9280460D02*
X2505896Y-9289984D01*
X2505896Y-9289984D02*
X2486848Y-9289984D01*
X2486848Y-9289984D02*
X2467801Y-9280460D01*
X2467801Y-9280460D02*
X2458277Y-9270936D01*
X2458277Y-9270936D02*
X2448753Y-9251889D01*
X2448753Y-9251889D02*
X2439229Y-9213793D01*
X2439229Y-9213793D02*
X2439229Y-9166174D01*
X2439229Y-9166174D02*
X2448753Y-9128079D01*
X2448753Y-9128079D02*
X2458277Y-9109031D01*
X2458277Y-9109031D02*
X2467801Y-9099508D01*
X2467801Y-9099508D02*
X2486848Y-9089984D01*
X2648753Y-9289984D02*
X2686848Y-9289984D01*
X2686848Y-9289984D02*
X2705896Y-9280460D01*
X2705896Y-9280460D02*
X2715420Y-9270936D01*
X2715420Y-9270936D02*
X2734468Y-9242365D01*
X2734468Y-9242365D02*
X2743991Y-9204270D01*
X2743991Y-9204270D02*
X2743991Y-9128079D01*
X2743991Y-9128079D02*
X2734468Y-9109031D01*
X2734468Y-9109031D02*
X2724944Y-9099508D01*
X2724944Y-9099508D02*
X2705896Y-9089984D01*
X2705896Y-9089984D02*
X2667801Y-9089984D01*
X2667801Y-9089984D02*
X2648753Y-9099508D01*
X2648753Y-9099508D02*
X2639229Y-9109031D01*
X2639229Y-9109031D02*
X2629706Y-9128079D01*
X2629706Y-9128079D02*
X2629706Y-9175698D01*
X2629706Y-9175698D02*
X2639229Y-9194746D01*
X2639229Y-9194746D02*
X2648753Y-9204270D01*
X2648753Y-9204270D02*
X2667801Y-9213793D01*
X2667801Y-9213793D02*
X2705896Y-9213793D01*
X2705896Y-9213793D02*
X2724944Y-9204270D01*
X2724944Y-9204270D02*
X2734468Y-9194746D01*
X2734468Y-9194746D02*
X2743991Y-9175698D01*
X2858277Y-9175698D02*
X2839229Y-9166174D01*
X2839229Y-9166174D02*
X2829706Y-9156650D01*
X2829706Y-9156650D02*
X2820182Y-9137603D01*
X2820182Y-9137603D02*
X2820182Y-9128079D01*
X2820182Y-9128079D02*
X2829706Y-9109031D01*
X2829706Y-9109031D02*
X2839229Y-9099508D01*
X2839229Y-9099508D02*
X2858277Y-9089984D01*
X2858277Y-9089984D02*
X2896372Y-9089984D01*
X2896372Y-9089984D02*
X2915420Y-9099508D01*
X2915420Y-9099508D02*
X2924944Y-9109031D01*
X2924944Y-9109031D02*
X2934467Y-9128079D01*
X2934467Y-9128079D02*
X2934467Y-9137603D01*
X2934467Y-9137603D02*
X2924944Y-9156650D01*
X2924944Y-9156650D02*
X2915420Y-9166174D01*
X2915420Y-9166174D02*
X2896372Y-9175698D01*
X2896372Y-9175698D02*
X2858277Y-9175698D01*
X2858277Y-9175698D02*
X2839229Y-9185222D01*
X2839229Y-9185222D02*
X2829706Y-9194746D01*
X2829706Y-9194746D02*
X2820182Y-9213793D01*
X2820182Y-9213793D02*
X2820182Y-9251889D01*
X2820182Y-9251889D02*
X2829706Y-9270936D01*
X2829706Y-9270936D02*
X2839229Y-9280460D01*
X2839229Y-9280460D02*
X2858277Y-9289984D01*
X2858277Y-9289984D02*
X2896372Y-9289984D01*
X2896372Y-9289984D02*
X2915420Y-9280460D01*
X2915420Y-9280460D02*
X2924944Y-9270936D01*
X2924944Y-9270936D02*
X2934467Y-9251889D01*
X2934467Y-9251889D02*
X2934467Y-9213793D01*
X2934467Y-9213793D02*
X2924944Y-9194746D01*
X2924944Y-9194746D02*
X2915420Y-9185222D01*
X2915420Y-9185222D02*
X2896372Y-9175698D01*
X3105896Y-9156650D02*
X3105896Y-9289984D01*
X3058277Y-9080460D02*
X3010658Y-9223317D01*
X3010658Y-9223317D02*
X3134467Y-9223317D01*
X3201134Y-9089984D02*
X3201134Y-9128079D01*
X3277325Y-9089984D02*
X3277325Y-9128079D01*
X3572563Y-9366174D02*
X3563039Y-9356650D01*
X3563039Y-9356650D02*
X3543991Y-9328079D01*
X3543991Y-9328079D02*
X3534468Y-9309031D01*
X3534468Y-9309031D02*
X3524944Y-9280460D01*
X3524944Y-9280460D02*
X3515420Y-9232841D01*
X3515420Y-9232841D02*
X3515420Y-9194746D01*
X3515420Y-9194746D02*
X3524944Y-9147127D01*
X3524944Y-9147127D02*
X3534468Y-9118555D01*
X3534468Y-9118555D02*
X3543991Y-9099508D01*
X3543991Y-9099508D02*
X3563039Y-9070936D01*
X3563039Y-9070936D02*
X3572563Y-9061412D01*
X3734468Y-9089984D02*
X3696372Y-9089984D01*
X3696372Y-9089984D02*
X3677325Y-9099508D01*
X3677325Y-9099508D02*
X3667801Y-9109031D01*
X3667801Y-9109031D02*
X3648753Y-9137603D01*
X3648753Y-9137603D02*
X3639229Y-9175698D01*
X3639229Y-9175698D02*
X3639229Y-9251889D01*
X3639229Y-9251889D02*
X3648753Y-9270936D01*
X3648753Y-9270936D02*
X3658277Y-9280460D01*
X3658277Y-9280460D02*
X3677325Y-9289984D01*
X3677325Y-9289984D02*
X3715420Y-9289984D01*
X3715420Y-9289984D02*
X3734468Y-9280460D01*
X3734468Y-9280460D02*
X3743991Y-9270936D01*
X3743991Y-9270936D02*
X3753515Y-9251889D01*
X3753515Y-9251889D02*
X3753515Y-9204270D01*
X3753515Y-9204270D02*
X3743991Y-9185222D01*
X3743991Y-9185222D02*
X3734468Y-9175698D01*
X3734468Y-9175698D02*
X3715420Y-9166174D01*
X3715420Y-9166174D02*
X3677325Y-9166174D01*
X3677325Y-9166174D02*
X3658277Y-9175698D01*
X3658277Y-9175698D02*
X3648753Y-9185222D01*
X3648753Y-9185222D02*
X3639229Y-9204270D01*
X3991610Y-9289984D02*
X3991610Y-9089984D01*
X4077325Y-9289984D02*
X4077325Y-9185222D01*
X4077325Y-9185222D02*
X4067801Y-9166174D01*
X4067801Y-9166174D02*
X4048753Y-9156650D01*
X4048753Y-9156650D02*
X4020182Y-9156650D01*
X4020182Y-9156650D02*
X4001134Y-9166174D01*
X4001134Y-9166174D02*
X3991610Y-9175698D01*
X4201134Y-9289984D02*
X4182087Y-9280460D01*
X4182087Y-9280460D02*
X4172563Y-9270936D01*
X4172563Y-9270936D02*
X4163039Y-9251889D01*
X4163039Y-9251889D02*
X4163039Y-9194746D01*
X4163039Y-9194746D02*
X4172563Y-9175698D01*
X4172563Y-9175698D02*
X4182087Y-9166174D01*
X4182087Y-9166174D02*
X4201134Y-9156650D01*
X4201134Y-9156650D02*
X4229706Y-9156650D01*
X4229706Y-9156650D02*
X4248753Y-9166174D01*
X4248753Y-9166174D02*
X4258277Y-9175698D01*
X4258277Y-9175698D02*
X4267801Y-9194746D01*
X4267801Y-9194746D02*
X4267801Y-9251889D01*
X4267801Y-9251889D02*
X4258277Y-9270936D01*
X4258277Y-9270936D02*
X4248753Y-9280460D01*
X4248753Y-9280460D02*
X4229706Y-9289984D01*
X4229706Y-9289984D02*
X4201134Y-9289984D01*
X4382087Y-9289984D02*
X4363039Y-9280460D01*
X4363039Y-9280460D02*
X4353515Y-9261412D01*
X4353515Y-9261412D02*
X4353515Y-9089984D01*
X4534468Y-9280460D02*
X4515420Y-9289984D01*
X4515420Y-9289984D02*
X4477325Y-9289984D01*
X4477325Y-9289984D02*
X4458277Y-9280460D01*
X4458277Y-9280460D02*
X4448753Y-9261412D01*
X4448753Y-9261412D02*
X4448753Y-9185222D01*
X4448753Y-9185222D02*
X4458277Y-9166174D01*
X4458277Y-9166174D02*
X4477325Y-9156650D01*
X4477325Y-9156650D02*
X4515420Y-9156650D01*
X4515420Y-9156650D02*
X4534468Y-9166174D01*
X4534468Y-9166174D02*
X4543992Y-9185222D01*
X4543992Y-9185222D02*
X4543992Y-9204270D01*
X4543992Y-9204270D02*
X4448753Y-9223317D01*
X4620182Y-9280460D02*
X4639230Y-9289984D01*
X4639230Y-9289984D02*
X4677325Y-9289984D01*
X4677325Y-9289984D02*
X4696373Y-9280460D01*
X4696373Y-9280460D02*
X4705896Y-9261412D01*
X4705896Y-9261412D02*
X4705896Y-9251889D01*
X4705896Y-9251889D02*
X4696373Y-9232841D01*
X4696373Y-9232841D02*
X4677325Y-9223317D01*
X4677325Y-9223317D02*
X4648753Y-9223317D01*
X4648753Y-9223317D02*
X4629706Y-9213793D01*
X4629706Y-9213793D02*
X4620182Y-9194746D01*
X4620182Y-9194746D02*
X4620182Y-9185222D01*
X4620182Y-9185222D02*
X4629706Y-9166174D01*
X4629706Y-9166174D02*
X4648753Y-9156650D01*
X4648753Y-9156650D02*
X4677325Y-9156650D01*
X4677325Y-9156650D02*
X4696373Y-9166174D01*
X4772563Y-9366174D02*
X4782087Y-9356650D01*
X4782087Y-9356650D02*
X4801134Y-9328079D01*
X4801134Y-9328079D02*
X4810658Y-9309031D01*
X4810658Y-9309031D02*
X4820182Y-9280460D01*
X4820182Y-9280460D02*
X4829706Y-9232841D01*
X4829706Y-9232841D02*
X4829706Y-9194746D01*
X4829706Y-9194746D02*
X4820182Y-9147127D01*
X4820182Y-9147127D02*
X4810658Y-9118555D01*
X4810658Y-9118555D02*
X4801134Y-9099508D01*
X4801134Y-9099508D02*
X4782087Y-9070936D01*
X4782087Y-9070936D02*
X4772563Y-9061412D01*
X5134468Y-9366174D02*
X5124944Y-9356650D01*
X5124944Y-9356650D02*
X5105896Y-9328079D01*
X5105896Y-9328079D02*
X5096373Y-9309031D01*
X5096373Y-9309031D02*
X5086849Y-9280460D01*
X5086849Y-9280460D02*
X5077325Y-9232841D01*
X5077325Y-9232841D02*
X5077325Y-9194746D01*
X5077325Y-9194746D02*
X5086849Y-9147127D01*
X5086849Y-9147127D02*
X5096373Y-9118555D01*
X5096373Y-9118555D02*
X5105896Y-9099508D01*
X5105896Y-9099508D02*
X5124944Y-9070936D01*
X5124944Y-9070936D02*
X5134468Y-9061412D01*
X5210658Y-9156650D02*
X5210658Y-9289984D01*
X5210658Y-9175698D02*
X5220182Y-9166174D01*
X5220182Y-9166174D02*
X5239230Y-9156650D01*
X5239230Y-9156650D02*
X5267801Y-9156650D01*
X5267801Y-9156650D02*
X5286849Y-9166174D01*
X5286849Y-9166174D02*
X5296373Y-9185222D01*
X5296373Y-9185222D02*
X5296373Y-9289984D01*
X5420182Y-9289984D02*
X5401134Y-9280460D01*
X5401134Y-9280460D02*
X5391611Y-9270936D01*
X5391611Y-9270936D02*
X5382087Y-9251889D01*
X5382087Y-9251889D02*
X5382087Y-9194746D01*
X5382087Y-9194746D02*
X5391611Y-9175698D01*
X5391611Y-9175698D02*
X5401134Y-9166174D01*
X5401134Y-9166174D02*
X5420182Y-9156650D01*
X5420182Y-9156650D02*
X5448754Y-9156650D01*
X5448754Y-9156650D02*
X5467801Y-9166174D01*
X5467801Y-9166174D02*
X5477325Y-9175698D01*
X5477325Y-9175698D02*
X5486849Y-9194746D01*
X5486849Y-9194746D02*
X5486849Y-9251889D01*
X5486849Y-9251889D02*
X5477325Y-9270936D01*
X5477325Y-9270936D02*
X5467801Y-9280460D01*
X5467801Y-9280460D02*
X5448754Y-9289984D01*
X5448754Y-9289984D02*
X5420182Y-9289984D01*
X5543992Y-9156650D02*
X5620182Y-9156650D01*
X5572563Y-9089984D02*
X5572563Y-9261412D01*
X5572563Y-9261412D02*
X5582087Y-9280460D01*
X5582087Y-9280460D02*
X5601134Y-9289984D01*
X5601134Y-9289984D02*
X5620182Y-9289984D01*
X5839230Y-9156650D02*
X5839230Y-9356650D01*
X5839230Y-9166174D02*
X5858277Y-9156650D01*
X5858277Y-9156650D02*
X5896373Y-9156650D01*
X5896373Y-9156650D02*
X5915420Y-9166174D01*
X5915420Y-9166174D02*
X5924944Y-9175698D01*
X5924944Y-9175698D02*
X5934468Y-9194746D01*
X5934468Y-9194746D02*
X5934468Y-9251889D01*
X5934468Y-9251889D02*
X5924944Y-9270936D01*
X5924944Y-9270936D02*
X5915420Y-9280460D01*
X5915420Y-9280460D02*
X5896373Y-9289984D01*
X5896373Y-9289984D02*
X5858277Y-9289984D01*
X5858277Y-9289984D02*
X5839230Y-9280460D01*
X6048753Y-9289984D02*
X6029706Y-9280460D01*
X6029706Y-9280460D02*
X6020182Y-9261412D01*
X6020182Y-9261412D02*
X6020182Y-9089984D01*
X6210658Y-9289984D02*
X6210658Y-9185222D01*
X6210658Y-9185222D02*
X6201134Y-9166174D01*
X6201134Y-9166174D02*
X6182087Y-9156650D01*
X6182087Y-9156650D02*
X6143992Y-9156650D01*
X6143992Y-9156650D02*
X6124944Y-9166174D01*
X6210658Y-9280460D02*
X6191611Y-9289984D01*
X6191611Y-9289984D02*
X6143992Y-9289984D01*
X6143992Y-9289984D02*
X6124944Y-9280460D01*
X6124944Y-9280460D02*
X6115420Y-9261412D01*
X6115420Y-9261412D02*
X6115420Y-9242365D01*
X6115420Y-9242365D02*
X6124944Y-9223317D01*
X6124944Y-9223317D02*
X6143992Y-9213793D01*
X6143992Y-9213793D02*
X6191611Y-9213793D01*
X6191611Y-9213793D02*
X6210658Y-9204270D01*
X6277325Y-9156650D02*
X6353515Y-9156650D01*
X6305896Y-9089984D02*
X6305896Y-9261412D01*
X6305896Y-9261412D02*
X6315420Y-9280460D01*
X6315420Y-9280460D02*
X6334468Y-9289984D01*
X6334468Y-9289984D02*
X6353515Y-9289984D01*
X6496373Y-9280460D02*
X6477325Y-9289984D01*
X6477325Y-9289984D02*
X6439230Y-9289984D01*
X6439230Y-9289984D02*
X6420182Y-9280460D01*
X6420182Y-9280460D02*
X6410658Y-9261412D01*
X6410658Y-9261412D02*
X6410658Y-9185222D01*
X6410658Y-9185222D02*
X6420182Y-9166174D01*
X6420182Y-9166174D02*
X6439230Y-9156650D01*
X6439230Y-9156650D02*
X6477325Y-9156650D01*
X6477325Y-9156650D02*
X6496373Y-9166174D01*
X6496373Y-9166174D02*
X6505896Y-9185222D01*
X6505896Y-9185222D02*
X6505896Y-9204270D01*
X6505896Y-9204270D02*
X6410658Y-9223317D01*
X6677325Y-9289984D02*
X6677325Y-9089984D01*
X6677325Y-9280460D02*
X6658277Y-9289984D01*
X6658277Y-9289984D02*
X6620182Y-9289984D01*
X6620182Y-9289984D02*
X6601134Y-9280460D01*
X6601134Y-9280460D02*
X6591611Y-9270936D01*
X6591611Y-9270936D02*
X6582087Y-9251889D01*
X6582087Y-9251889D02*
X6582087Y-9194746D01*
X6582087Y-9194746D02*
X6591611Y-9175698D01*
X6591611Y-9175698D02*
X6601134Y-9166174D01*
X6601134Y-9166174D02*
X6620182Y-9156650D01*
X6620182Y-9156650D02*
X6658277Y-9156650D01*
X6658277Y-9156650D02*
X6677325Y-9166174D01*
X6753515Y-9366174D02*
X6763039Y-9356650D01*
X6763039Y-9356650D02*
X6782087Y-9328079D01*
X6782087Y-9328079D02*
X6791611Y-9309031D01*
X6791611Y-9309031D02*
X6801134Y-9280460D01*
X6801134Y-9280460D02*
X6810658Y-9232841D01*
X6810658Y-9232841D02*
X6810658Y-9194746D01*
X6810658Y-9194746D02*
X6801134Y-9147127D01*
X6801134Y-9147127D02*
X6791611Y-9118555D01*
X6791611Y-9118555D02*
X6782087Y-9099508D01*
X6782087Y-9099508D02*
X6763039Y-9070936D01*
X6763039Y-9070936D02*
X6753515Y-9061412D01*
M02*
