M48
; DRILL file {KiCad 9.0.7} date 2026-03-03T00:37:50+0100
; FORMAT={-:-/ absolute / metric / decimal}
; #@! TF.CreationDate,2026-03-03T00:37:50+01:00
; #@! TF.GenerationSoftware,Kicad,Pcbnew,9.0.7
; #@! TF.FileFunction,MixedPlating,1,4
FMAT,2
METRIC
; #@! TA.AperFunction,Plated,PTH,ViaDrill
T1C0.300
; #@! TA.AperFunction,Plated,PTH,ViaDrill
T2C0.350
; #@! TA.AperFunction,Plated,PTH,ComponentDrill
T3C0.800
; #@! TA.AperFunction,Plated,PTH,ComponentDrill
T4C0.850
; #@! TA.AperFunction,NonPlated,NPTH,ComponentDrill
T5C2.500
%
G90
G05
T1
X6.5Y-56.85
X7.5Y-34.85
X16.0Y-25.85
X16.0Y-43.85
X25.5Y-34.85
X26.5Y-56.85
X72.2Y-32.4
X72.2Y-33.67
X72.2Y-34.94
X72.2Y-36.21
X75.0Y-3.0
X75.0Y-36.21
X76.0Y-3.7
X76.0Y-34.94
X77.0Y-4.4
X77.0Y-33.67
X78.0Y-5.1
X78.0Y-32.4
X109.7Y-18.0
X109.7Y-27.955
X110.8Y-17.0
X110.8Y-19.5
X111.9Y-16.0
X111.9Y-20.5
X113.0Y-15.0
X113.0Y-31.765
X114.1Y-14.0
X114.1Y-36.21
X115.2Y-13.0
X115.2Y-29.86
X116.3Y-12.0
X116.3Y-28.59
X117.4Y-11.0
X117.4Y-27.32
X118.5Y-10.0
X118.5Y-26.05
X119.6Y-9.0
X119.6Y-33.035
X120.7Y-8.0
X120.7Y-34.305
X121.8Y-7.0
X121.8Y-35.575
X122.9Y-6.0
X122.9Y-36.845
X124.0Y-5.0
X124.0Y-38.115
X131.0Y-5.0
X131.7Y-6.0
X132.4Y-7.0
X132.5Y-30.75
X132.5Y-36.25
X133.1Y-8.0
X133.15Y-24.25
X133.15Y-25.75
X133.15Y-41.25
X133.15Y-44.75
X133.15Y-46.25
X133.15Y-47.75
X133.15Y-49.25
X133.8Y-9.0
X134.5Y-10.0
X134.5Y-34.85
X135.2Y-11.0
X135.9Y-12.0
X136.15Y-46.25
X136.15Y-48.25
X136.6Y-13.0
X137.3Y-14.0
X138.0Y-15.0
X138.7Y-16.0
X139.4Y-17.0
X140.1Y-18.0
X141.2Y-3.0
X143.5Y-24.85
X143.5Y-44.85
X146.0Y-3.7
X148.0Y-5.1
X152.5Y-4.4
X153.5Y-34.85
T2
X12.2Y-52.65
X12.2Y-71.6
X13.2Y-30.65
X13.2Y-64.4
X14.65Y-8.5
X16.85Y-73.53
X20.5Y-23.7
X22.2Y-21.65
X22.2Y-62.0
X22.95Y-39.65
X22.95Y-63.2
X24.05Y-66.25
X24.5Y-22.5
X25.95Y-43.9
X25.95Y-63.0
X25.95Y-70.4
X26.65Y-67.5
X26.825Y-24.8
X26.825Y-34.3
X28.095Y-23.7
X29.365Y-28.7
X31.05Y-66.25
X31.905Y-28.8
X31.905Y-34.3
X32.95Y-63.0
X33.175Y-18.0
X33.65Y-67.5
X34.2Y-30.65
X34.2Y-65.6
X34.95Y-52.65
X34.95Y-72.8
X36.45Y-42.7
X36.45Y-69.2
X38.0Y-46.135
X39.25Y-68.05
X39.5Y-22.5
X42.05Y-44.6
X42.05Y-52.0
X45.45Y-41.5
X45.45Y-68.0
X47.05Y-44.6
X47.05Y-52.0
X52.05Y-44.6
X52.05Y-52.0
X52.45Y-26.05
X52.45Y-66.8
X57.05Y-44.6
X57.05Y-52.0
X58.55Y-27.32
X58.55Y-65.6
X60.45Y-45.1
X60.45Y-72.8
X62.05Y-44.6
X62.05Y-52.0
X62.45Y-28.59
X62.45Y-64.4
X65.55Y-29.86
X65.55Y-63.2
X67.05Y-44.6
X67.05Y-52.0
X67.45Y-31.13
X67.45Y-62.0
X68.55Y-40.0
X69.25Y-26.05
X69.25Y-27.32
X69.25Y-28.59
X69.25Y-29.86
X69.25Y-31.13
X69.25Y-45.1
X70.45Y-44.0
X72.05Y-44.6
X72.05Y-52.0
X72.25Y-73.53
X73.0Y-41.5
X73.015Y-27.955
X73.05Y-65.5
X73.555Y-42.7
X74.825Y-43.9
X76.8Y-66.255
X77.0Y-57.5
X77.05Y-44.6
X77.05Y-52.0
X78.095Y-35.575
X79.365Y-33.035
X79.75Y-64.005
X80.5Y-46.135
X80.6Y-65.255
X80.635Y-34.305
X81.5Y-32.96
X81.905Y-19.5
X82.05Y-44.6
X82.05Y-52.0
X83.175Y-20.5
X84.445Y-31.765
X85.05Y-66.0
X85.715Y-36.845
X86.985Y-38.115
X87.05Y-44.6
X87.05Y-52.0
X87.7Y-18.0
X88.75Y-21.01
X90.25Y-65.255
X90.45Y-37.48
X90.75Y-26.05
X90.75Y-27.32
X90.75Y-28.59
X90.75Y-29.86
X90.75Y-34.94
X90.75Y-36.21
X91.05Y-40.0
X91.25Y-64.005
X91.6Y-37.48
X91.6Y-69.23
X92.05Y-44.6
X92.05Y-52.0
X92.95Y-40.6
X97.05Y-44.6
X97.05Y-52.0
X100.45Y-34.94
X100.45Y-71.6
X102.05Y-44.6
X102.05Y-52.0
X105.5Y-46.135
X107.5Y-39.095
X108.5Y-60.5
X109.05Y-37.0
X110.95Y-33.0
X111.0Y-40.095
X111.5Y-56.5
X112.4Y-45.5
X112.4Y-49.5
X115.95Y-54.5
X117.05Y-57.5
X118.95Y-52.5
X121.05Y-46.0
X122.7Y-56.65
X122.95Y-46.0
X123.5Y-64.5
X125.0Y-49.35
X127.3Y-60.65
X129.55Y-30.65
X129.55Y-70.4
X130.3Y-40.65
X130.3Y-69.2
X131.05Y-30.65
X131.05Y-68.0
X131.8Y-20.65
X131.8Y-66.8
X133.0Y-60.0
X138.86Y-72.0
X139.96Y-66.0
X141.2Y-66.0
X142.16Y-70.0
X144.36Y-67.5
X144.65Y-8.5
X146.0Y-67.5
X146.85Y-69.23
X148.0Y-72.0
X152.5Y-70.0
T3
X75.68Y-68.895
X75.68Y-73.075
X84.32Y-68.895
X84.32Y-73.075
T4
X79.0Y-57.5
X81.0Y-57.5
T5
X10.0Y-7.0
X10.0Y-68.0
X55.0Y-37.5
X105.0Y-37.5
X150.0Y-7.0
X150.0Y-68.0
M30
