%TF.GenerationSoftware,KiCad,Pcbnew,10.0.0*%
%TF.CreationDate,2026-04-07T22:15:57+02:00*%
%TF.ProjectId,esp32-emu-turbo,65737033-322d-4656-9d75-2d747572626f,rev?*%
%TF.SameCoordinates,Original*%
%TF.FileFunction,Legend,Top*%
%TF.FilePolarity,Positive*%
%FSLAX46Y46*%
G04 Gerber Fmt 4.6, Leading zero omitted, Abs format (unit mm)*
G04 Created by KiCad (PCBNEW 10.0.0) date 2026-04-07 22:15:57*
%MOMM*%
%LPD*%
G01*
G04 APERTURE LIST*
%ADD10C,0.200000*%
%ADD11C,2.500000*%
%ADD12R,1.000000X0.700000*%
%ADD13R,1.000000X1.300000*%
%ADD14O,1.100000X2.000000*%
%ADD15C,0.650000*%
%ADD16C,1.000000*%
%ADD17C,0.900000*%
%ADD18C,2.000000*%
G04 APERTURE END LIST*
D10*
X15690476Y-12952219D02*
X15690476Y-11952219D01*
X15690476Y-11952219D02*
X15928571Y-11952219D01*
X15928571Y-11952219D02*
X16071428Y-11999838D01*
X16071428Y-11999838D02*
X16166666Y-12095076D01*
X16166666Y-12095076D02*
X16214285Y-12190314D01*
X16214285Y-12190314D02*
X16261904Y-12380790D01*
X16261904Y-12380790D02*
X16261904Y-12523647D01*
X16261904Y-12523647D02*
X16214285Y-12714123D01*
X16214285Y-12714123D02*
X16166666Y-12809361D01*
X16166666Y-12809361D02*
X16071428Y-12904600D01*
X16071428Y-12904600D02*
X15928571Y-12952219D01*
X15928571Y-12952219D02*
X15690476Y-12952219D01*
X16690476Y-12571266D02*
X17452381Y-12571266D01*
X17928571Y-12952219D02*
X17928571Y-11952219D01*
X17928571Y-11952219D02*
X18309523Y-11952219D01*
X18309523Y-11952219D02*
X18404761Y-11999838D01*
X18404761Y-11999838D02*
X18452380Y-12047457D01*
X18452380Y-12047457D02*
X18499999Y-12142695D01*
X18499999Y-12142695D02*
X18499999Y-12285552D01*
X18499999Y-12285552D02*
X18452380Y-12380790D01*
X18452380Y-12380790D02*
X18404761Y-12428409D01*
X18404761Y-12428409D02*
X18309523Y-12476028D01*
X18309523Y-12476028D02*
X17928571Y-12476028D01*
X18880952Y-12666504D02*
X19357142Y-12666504D01*
X18785714Y-12952219D02*
X19119047Y-11952219D01*
X19119047Y-11952219D02*
X19452380Y-12952219D01*
X19785714Y-12952219D02*
X19785714Y-11952219D01*
X19785714Y-11952219D02*
X20023809Y-11952219D01*
X20023809Y-11952219D02*
X20166666Y-11999838D01*
X20166666Y-11999838D02*
X20261904Y-12095076D01*
X20261904Y-12095076D02*
X20309523Y-12190314D01*
X20309523Y-12190314D02*
X20357142Y-12380790D01*
X20357142Y-12380790D02*
X20357142Y-12523647D01*
X20357142Y-12523647D02*
X20309523Y-12714123D01*
X20309523Y-12714123D02*
X20261904Y-12809361D01*
X20261904Y-12809361D02*
X20166666Y-12904600D01*
X20166666Y-12904600D02*
X20023809Y-12952219D01*
X20023809Y-12952219D02*
X19785714Y-12952219D01*
X140357143Y-12666504D02*
X140833333Y-12666504D01*
X140261905Y-12952219D02*
X140595238Y-11952219D01*
X140595238Y-11952219D02*
X140928571Y-12952219D01*
X141595238Y-12428409D02*
X141738095Y-12476028D01*
X141738095Y-12476028D02*
X141785714Y-12523647D01*
X141785714Y-12523647D02*
X141833333Y-12618885D01*
X141833333Y-12618885D02*
X141833333Y-12761742D01*
X141833333Y-12761742D02*
X141785714Y-12856980D01*
X141785714Y-12856980D02*
X141738095Y-12904600D01*
X141738095Y-12904600D02*
X141642857Y-12952219D01*
X141642857Y-12952219D02*
X141261905Y-12952219D01*
X141261905Y-12952219D02*
X141261905Y-11952219D01*
X141261905Y-11952219D02*
X141595238Y-11952219D01*
X141595238Y-11952219D02*
X141690476Y-11999838D01*
X141690476Y-11999838D02*
X141738095Y-12047457D01*
X141738095Y-12047457D02*
X141785714Y-12142695D01*
X141785714Y-12142695D02*
X141785714Y-12237933D01*
X141785714Y-12237933D02*
X141738095Y-12333171D01*
X141738095Y-12333171D02*
X141690476Y-12380790D01*
X141690476Y-12380790D02*
X141595238Y-12428409D01*
X141595238Y-12428409D02*
X141261905Y-12428409D01*
X142166667Y-11952219D02*
X142833333Y-12952219D01*
X142833333Y-11952219D02*
X142166667Y-12952219D01*
X143404762Y-12476028D02*
X143404762Y-12952219D01*
X143071429Y-11952219D02*
X143404762Y-12476028D01*
X143404762Y-12476028D02*
X143738095Y-11952219D01*
X140533333Y-57059695D02*
X140533333Y-56259695D01*
X140533333Y-56259695D02*
X140799999Y-56831123D01*
X140799999Y-56831123D02*
X141066666Y-56259695D01*
X141066666Y-56259695D02*
X141066666Y-57059695D01*
X141447619Y-56640647D02*
X141714285Y-56640647D01*
X141828571Y-57059695D02*
X141447619Y-57059695D01*
X141447619Y-57059695D02*
X141447619Y-56259695D01*
X141447619Y-56259695D02*
X141828571Y-56259695D01*
X142171429Y-57059695D02*
X142171429Y-56259695D01*
X142171429Y-56259695D02*
X142628572Y-57059695D01*
X142628572Y-57059695D02*
X142628572Y-56259695D01*
X143009524Y-56259695D02*
X143009524Y-56907314D01*
X143009524Y-56907314D02*
X143047619Y-56983504D01*
X143047619Y-56983504D02*
X143085714Y-57021600D01*
X143085714Y-57021600D02*
X143161905Y-57059695D01*
X143161905Y-57059695D02*
X143314286Y-57059695D01*
X143314286Y-57059695D02*
X143390476Y-57021600D01*
X143390476Y-57021600D02*
X143428571Y-56983504D01*
X143428571Y-56983504D02*
X143466667Y-56907314D01*
X143466667Y-56907314D02*
X143466667Y-56259695D01*
X24428572Y-70783504D02*
X24390476Y-70821600D01*
X24390476Y-70821600D02*
X24276191Y-70859695D01*
X24276191Y-70859695D02*
X24200000Y-70859695D01*
X24200000Y-70859695D02*
X24085714Y-70821600D01*
X24085714Y-70821600D02*
X24009524Y-70745409D01*
X24009524Y-70745409D02*
X23971429Y-70669219D01*
X23971429Y-70669219D02*
X23933333Y-70516838D01*
X23933333Y-70516838D02*
X23933333Y-70402552D01*
X23933333Y-70402552D02*
X23971429Y-70250171D01*
X23971429Y-70250171D02*
X24009524Y-70173980D01*
X24009524Y-70173980D02*
X24085714Y-70097790D01*
X24085714Y-70097790D02*
X24200000Y-70059695D01*
X24200000Y-70059695D02*
X24276191Y-70059695D01*
X24276191Y-70059695D02*
X24390476Y-70097790D01*
X24390476Y-70097790D02*
X24428572Y-70135885D01*
X24771429Y-70859695D02*
X24771429Y-70059695D01*
X24771429Y-70440647D02*
X25228572Y-70440647D01*
X25228572Y-70859695D02*
X25228572Y-70059695D01*
X26028571Y-70097790D02*
X25952381Y-70059695D01*
X25952381Y-70059695D02*
X25838095Y-70059695D01*
X25838095Y-70059695D02*
X25723809Y-70097790D01*
X25723809Y-70097790D02*
X25647619Y-70173980D01*
X25647619Y-70173980D02*
X25609524Y-70250171D01*
X25609524Y-70250171D02*
X25571428Y-70402552D01*
X25571428Y-70402552D02*
X25571428Y-70516838D01*
X25571428Y-70516838D02*
X25609524Y-70669219D01*
X25609524Y-70669219D02*
X25647619Y-70745409D01*
X25647619Y-70745409D02*
X25723809Y-70821600D01*
X25723809Y-70821600D02*
X25838095Y-70859695D01*
X25838095Y-70859695D02*
X25914286Y-70859695D01*
X25914286Y-70859695D02*
X26028571Y-70821600D01*
X26028571Y-70821600D02*
X26066667Y-70783504D01*
X26066667Y-70783504D02*
X26066667Y-70516838D01*
X26066667Y-70516838D02*
X25914286Y-70516838D01*
X31047619Y-70440647D02*
X30780953Y-70440647D01*
X30780953Y-70859695D02*
X30780953Y-70059695D01*
X30780953Y-70059695D02*
X31161905Y-70059695D01*
X31466667Y-70059695D02*
X31466667Y-70707314D01*
X31466667Y-70707314D02*
X31504762Y-70783504D01*
X31504762Y-70783504D02*
X31542857Y-70821600D01*
X31542857Y-70821600D02*
X31619048Y-70859695D01*
X31619048Y-70859695D02*
X31771429Y-70859695D01*
X31771429Y-70859695D02*
X31847619Y-70821600D01*
X31847619Y-70821600D02*
X31885714Y-70783504D01*
X31885714Y-70783504D02*
X31923810Y-70707314D01*
X31923810Y-70707314D02*
X31923810Y-70059695D01*
X32685714Y-70859695D02*
X32304762Y-70859695D01*
X32304762Y-70859695D02*
X32304762Y-70059695D01*
X33333333Y-70859695D02*
X32952381Y-70859695D01*
X32952381Y-70859695D02*
X32952381Y-70059695D01*
X73142857Y-73430457D02*
X73085714Y-73487600D01*
X73085714Y-73487600D02*
X72914286Y-73544742D01*
X72914286Y-73544742D02*
X72800000Y-73544742D01*
X72800000Y-73544742D02*
X72628571Y-73487600D01*
X72628571Y-73487600D02*
X72514286Y-73373314D01*
X72514286Y-73373314D02*
X72457143Y-73259028D01*
X72457143Y-73259028D02*
X72400000Y-73030457D01*
X72400000Y-73030457D02*
X72400000Y-72859028D01*
X72400000Y-72859028D02*
X72457143Y-72630457D01*
X72457143Y-72630457D02*
X72514286Y-72516171D01*
X72514286Y-72516171D02*
X72628571Y-72401885D01*
X72628571Y-72401885D02*
X72800000Y-72344742D01*
X72800000Y-72344742D02*
X72914286Y-72344742D01*
X72914286Y-72344742D02*
X73085714Y-72401885D01*
X73085714Y-72401885D02*
X73142857Y-72459028D01*
X73657143Y-73544742D02*
X73657143Y-72344742D01*
X73657143Y-72344742D02*
X74114286Y-72344742D01*
X74114286Y-72344742D02*
X74228571Y-72401885D01*
X74228571Y-72401885D02*
X74285714Y-72459028D01*
X74285714Y-72459028D02*
X74342857Y-72573314D01*
X74342857Y-72573314D02*
X74342857Y-72744742D01*
X74342857Y-72744742D02*
X74285714Y-72859028D01*
X74285714Y-72859028D02*
X74228571Y-72916171D01*
X74228571Y-72916171D02*
X74114286Y-72973314D01*
X74114286Y-72973314D02*
X73657143Y-72973314D01*
X75200000Y-72344742D02*
X75200000Y-73201885D01*
X75200000Y-73201885D02*
X75142857Y-73373314D01*
X75142857Y-73373314D02*
X75028571Y-73487600D01*
X75028571Y-73487600D02*
X74857143Y-73544742D01*
X74857143Y-73544742D02*
X74742857Y-73544742D01*
X76742857Y-73544742D02*
X76685715Y-73544742D01*
X76685715Y-73544742D02*
X76571429Y-73487600D01*
X76571429Y-73487600D02*
X76400000Y-73316171D01*
X76400000Y-73316171D02*
X76114286Y-72973314D01*
X76114286Y-72973314D02*
X76000000Y-72801885D01*
X76000000Y-72801885D02*
X75942857Y-72630457D01*
X75942857Y-72630457D02*
X75942857Y-72516171D01*
X75942857Y-72516171D02*
X76000000Y-72401885D01*
X76000000Y-72401885D02*
X76114286Y-72344742D01*
X76114286Y-72344742D02*
X76171429Y-72344742D01*
X76171429Y-72344742D02*
X76285715Y-72401885D01*
X76285715Y-72401885D02*
X76342857Y-72516171D01*
X76342857Y-72516171D02*
X76342857Y-72573314D01*
X76342857Y-72573314D02*
X76285715Y-72687600D01*
X76285715Y-72687600D02*
X76228572Y-72744742D01*
X76228572Y-72744742D02*
X75885715Y-72973314D01*
X75885715Y-72973314D02*
X75828572Y-73030457D01*
X75828572Y-73030457D02*
X75771429Y-73144742D01*
X75771429Y-73144742D02*
X75771429Y-73316171D01*
X75771429Y-73316171D02*
X75828572Y-73430457D01*
X75828572Y-73430457D02*
X75885715Y-73487600D01*
X75885715Y-73487600D02*
X76000000Y-73544742D01*
X76000000Y-73544742D02*
X76171429Y-73544742D01*
X76171429Y-73544742D02*
X76285715Y-73487600D01*
X76285715Y-73487600D02*
X76342857Y-73430457D01*
X76342857Y-73430457D02*
X76514286Y-73201885D01*
X76514286Y-73201885D02*
X76571429Y-73030457D01*
X76571429Y-73030457D02*
X76571429Y-72916171D01*
X77942857Y-73430457D02*
X77885714Y-73487600D01*
X77885714Y-73487600D02*
X77714286Y-73544742D01*
X77714286Y-73544742D02*
X77600000Y-73544742D01*
X77600000Y-73544742D02*
X77428571Y-73487600D01*
X77428571Y-73487600D02*
X77314286Y-73373314D01*
X77314286Y-73373314D02*
X77257143Y-73259028D01*
X77257143Y-73259028D02*
X77200000Y-73030457D01*
X77200000Y-73030457D02*
X77200000Y-72859028D01*
X77200000Y-72859028D02*
X77257143Y-72630457D01*
X77257143Y-72630457D02*
X77314286Y-72516171D01*
X77314286Y-72516171D02*
X77428571Y-72401885D01*
X77428571Y-72401885D02*
X77600000Y-72344742D01*
X77600000Y-72344742D02*
X77714286Y-72344742D01*
X77714286Y-72344742D02*
X77885714Y-72401885D01*
X77885714Y-72401885D02*
X77942857Y-72459028D01*
X78457143Y-73544742D02*
X78457143Y-72344742D01*
X78457143Y-72344742D02*
X78914286Y-72344742D01*
X78914286Y-72344742D02*
X79028571Y-72401885D01*
X79028571Y-72401885D02*
X79085714Y-72459028D01*
X79085714Y-72459028D02*
X79142857Y-72573314D01*
X79142857Y-72573314D02*
X79142857Y-72744742D01*
X79142857Y-72744742D02*
X79085714Y-72859028D01*
X79085714Y-72859028D02*
X79028571Y-72916171D01*
X79028571Y-72916171D02*
X78914286Y-72973314D01*
X78914286Y-72973314D02*
X78457143Y-72973314D01*
X80514286Y-72459028D02*
X80571429Y-72401885D01*
X80571429Y-72401885D02*
X80685715Y-72344742D01*
X80685715Y-72344742D02*
X80971429Y-72344742D01*
X80971429Y-72344742D02*
X81085715Y-72401885D01*
X81085715Y-72401885D02*
X81142857Y-72459028D01*
X81142857Y-72459028D02*
X81200000Y-72573314D01*
X81200000Y-72573314D02*
X81200000Y-72687600D01*
X81200000Y-72687600D02*
X81142857Y-72859028D01*
X81142857Y-72859028D02*
X80457143Y-73544742D01*
X80457143Y-73544742D02*
X81200000Y-73544742D01*
X81942857Y-72344742D02*
X82057143Y-72344742D01*
X82057143Y-72344742D02*
X82171429Y-72401885D01*
X82171429Y-72401885D02*
X82228572Y-72459028D01*
X82228572Y-72459028D02*
X82285714Y-72573314D01*
X82285714Y-72573314D02*
X82342857Y-72801885D01*
X82342857Y-72801885D02*
X82342857Y-73087600D01*
X82342857Y-73087600D02*
X82285714Y-73316171D01*
X82285714Y-73316171D02*
X82228572Y-73430457D01*
X82228572Y-73430457D02*
X82171429Y-73487600D01*
X82171429Y-73487600D02*
X82057143Y-73544742D01*
X82057143Y-73544742D02*
X81942857Y-73544742D01*
X81942857Y-73544742D02*
X81828572Y-73487600D01*
X81828572Y-73487600D02*
X81771429Y-73430457D01*
X81771429Y-73430457D02*
X81714286Y-73316171D01*
X81714286Y-73316171D02*
X81657143Y-73087600D01*
X81657143Y-73087600D02*
X81657143Y-72801885D01*
X81657143Y-72801885D02*
X81714286Y-72573314D01*
X81714286Y-72573314D02*
X81771429Y-72459028D01*
X81771429Y-72459028D02*
X81828572Y-72401885D01*
X81828572Y-72401885D02*
X81942857Y-72344742D01*
X82800000Y-72459028D02*
X82857143Y-72401885D01*
X82857143Y-72401885D02*
X82971429Y-72344742D01*
X82971429Y-72344742D02*
X83257143Y-72344742D01*
X83257143Y-72344742D02*
X83371429Y-72401885D01*
X83371429Y-72401885D02*
X83428571Y-72459028D01*
X83428571Y-72459028D02*
X83485714Y-72573314D01*
X83485714Y-72573314D02*
X83485714Y-72687600D01*
X83485714Y-72687600D02*
X83428571Y-72859028D01*
X83428571Y-72859028D02*
X82742857Y-73544742D01*
X82742857Y-73544742D02*
X83485714Y-73544742D01*
X84514286Y-72344742D02*
X84285714Y-72344742D01*
X84285714Y-72344742D02*
X84171428Y-72401885D01*
X84171428Y-72401885D02*
X84114286Y-72459028D01*
X84114286Y-72459028D02*
X84000000Y-72630457D01*
X84000000Y-72630457D02*
X83942857Y-72859028D01*
X83942857Y-72859028D02*
X83942857Y-73316171D01*
X83942857Y-73316171D02*
X84000000Y-73430457D01*
X84000000Y-73430457D02*
X84057143Y-73487600D01*
X84057143Y-73487600D02*
X84171428Y-73544742D01*
X84171428Y-73544742D02*
X84400000Y-73544742D01*
X84400000Y-73544742D02*
X84514286Y-73487600D01*
X84514286Y-73487600D02*
X84571428Y-73430457D01*
X84571428Y-73430457D02*
X84628571Y-73316171D01*
X84628571Y-73316171D02*
X84628571Y-73030457D01*
X84628571Y-73030457D02*
X84571428Y-72916171D01*
X84571428Y-72916171D02*
X84514286Y-72859028D01*
X84514286Y-72859028D02*
X84400000Y-72801885D01*
X84400000Y-72801885D02*
X84171428Y-72801885D01*
X84171428Y-72801885D02*
X84057143Y-72859028D01*
X84057143Y-72859028D02*
X84000000Y-72916171D01*
X84000000Y-72916171D02*
X83942857Y-73030457D01*
X85942857Y-72744742D02*
X86228571Y-73544742D01*
X86228571Y-73544742D02*
X86514286Y-72744742D01*
X86914286Y-72459028D02*
X86971429Y-72401885D01*
X86971429Y-72401885D02*
X87085715Y-72344742D01*
X87085715Y-72344742D02*
X87371429Y-72344742D01*
X87371429Y-72344742D02*
X87485715Y-72401885D01*
X87485715Y-72401885D02*
X87542857Y-72459028D01*
X87542857Y-72459028D02*
X87600000Y-72573314D01*
X87600000Y-72573314D02*
X87600000Y-72687600D01*
X87600000Y-72687600D02*
X87542857Y-72859028D01*
X87542857Y-72859028D02*
X86857143Y-73544742D01*
X86857143Y-73544742D02*
X87600000Y-73544742D01*
%LPC*%
D11*
%TO.C,*%
X10000000Y-7000000D03*
%TD*%
%TO.C,*%
X150000000Y-7000000D03*
%TD*%
%TO.C,*%
X10000000Y-68000000D03*
%TD*%
%TO.C,*%
X150000000Y-68000000D03*
%TD*%
%TO.C,*%
X55000000Y-37500000D03*
%TD*%
%TO.C,*%
X105000000Y-37500000D03*
%TD*%
D12*
%TO.C,SW1*%
X15000000Y-21650000D03*
X21000000Y-21650000D03*
X15000000Y-25350000D03*
X21000000Y-25350000D03*
%TD*%
%TO.C,SW2*%
X15000000Y-39650000D03*
X21000000Y-39650000D03*
X15000000Y-43350000D03*
X21000000Y-43350000D03*
%TD*%
%TO.C,SW3*%
X6000000Y-30650000D03*
X12000000Y-30650000D03*
X6000000Y-34350000D03*
X12000000Y-34350000D03*
%TD*%
%TO.C,SW4*%
X24000000Y-30650000D03*
X30000000Y-30650000D03*
X24000000Y-34350000D03*
X30000000Y-34350000D03*
%TD*%
%TO.C,SW5*%
X139000000Y-20650000D03*
X145000000Y-20650000D03*
X139000000Y-24350000D03*
X145000000Y-24350000D03*
%TD*%
%TO.C,SW6*%
X149000000Y-30650000D03*
X155000000Y-30650000D03*
X149000000Y-34350000D03*
X155000000Y-34350000D03*
%TD*%
%TO.C,SW7*%
X139000000Y-40650000D03*
X145000000Y-40650000D03*
X139000000Y-44350000D03*
X145000000Y-44350000D03*
%TD*%
%TO.C,SW8*%
X130000000Y-30650000D03*
X136000000Y-30650000D03*
X130000000Y-34350000D03*
X136000000Y-34350000D03*
%TD*%
%TO.C,SW9*%
X5000000Y-52650000D03*
X11000000Y-52650000D03*
X5000000Y-56350000D03*
X11000000Y-56350000D03*
%TD*%
%TO.C,SW10*%
X25000000Y-52650000D03*
X31000000Y-52650000D03*
X25000000Y-56350000D03*
X31000000Y-56350000D03*
%TD*%
%TO.C,SW13*%
X139000000Y-59850000D03*
X145000000Y-59850000D03*
X139000000Y-63550000D03*
X145000000Y-63550000D03*
%TD*%
D13*
%TO.C,LED1*%
X24050000Y-67500000D03*
X25950000Y-67500000D03*
%TD*%
%TO.C,LED2*%
X31050000Y-67500000D03*
X32950000Y-67500000D03*
%TD*%
D14*
%TO.C,J1*%
X84325000Y-69375000D03*
X75675000Y-69375000D03*
D15*
X82890000Y-69895000D03*
X77110000Y-69895000D03*
%TD*%
D16*
%TO.C,U6*%
X144950000Y-72566000D03*
X136950000Y-72566000D03*
%TD*%
D17*
%TO.C,SW_PWR*%
X41500000Y-72550000D03*
X38500000Y-72550000D03*
%TD*%
D18*
%TO.C,FID1*%
X12000000Y-12000000D03*
%TD*%
%TO.C,FID2*%
X150000000Y-63000000D03*
%TD*%
%TO.C,FID3*%
X12000000Y-63000000D03*
%TD*%
%LPD*%
M02*
