%TF.GenerationSoftware,KiCad,Pcbnew,10.0.5*%
%TF.CreationDate,2026-08-14T16:33:21+02:00*%
%TF.ProjectId,esp32-emu-turbo,65737033-322d-4656-9d75-2d747572626f,rev?*%
%TF.SameCoordinates,Original*%
%TF.FileFunction,Paste,Bot*%
%TF.FilePolarity,Positive*%
%FSLAX46Y46*%
G04 Gerber Fmt 4.6, Leading zero omitted, Abs format (unit mm)*
G04 Created by KiCad (PCBNEW 10.0.5) date 2026-08-14 16:33:21*
%MOMM*%
%LPD*%
G01*
G04 APERTURE LIST*
G04 Aperture macros list*
%AMRoundRect*
0 Rectangle with rounded corners*
0 $1 Rounding radius*
0 $2 $3 $4 $5 $6 $7 $8 $9 X,Y pos of 4 corners*
0 Add a 4 corners polygon primitive as box body*
4,1,4,$2,$3,$4,$5,$6,$7,$8,$9,$2,$3,0*
0 Add four circle primitives for the rounded corners*
1,1,$1+$1,$2,$3*
1,1,$1+$1,$4,$5*
1,1,$1+$1,$6,$7*
1,1,$1+$1,$8,$9*
0 Add four rect primitives between the rounded corners*
20,1,$1+$1,$2,$3,$4,$5,0*
20,1,$1+$1,$4,$5,$6,$7,0*
20,1,$1+$1,$6,$7,$8,$9,0*
20,1,$1+$1,$8,$9,$2,$3,0*%
G04 Aperture macros list end*
%ADD10R,1.500000X0.900000*%
%ADD11R,0.900000X1.500000*%
%ADD12R,3.900000X3.900000*%
%ADD13R,0.700000X1.000000*%
%ADD14R,1.300000X0.300000*%
%ADD15R,2.500000X2.000000*%
%ADD16RoundRect,0.137500X-0.137500X-0.412500X0.137500X-0.412500X0.137500X0.412500X-0.137500X0.412500X0*%
%ADD17R,0.300000X1.100000*%
%ADD18R,0.500000X1.300000*%
%ADD19R,1.200000X1.400000*%
%ADD20R,1.200000X2.000000*%
%ADD21R,0.600000X1.524000*%
%ADD22R,1.200000X0.700000*%
%ADD23R,2.900000X1.600000*%
%ADD24R,2.000000X3.000000*%
%ADD25R,1.700000X0.600000*%
%ADD26R,3.400000X2.800000*%
%ADD27R,1.100000X0.600000*%
%ADD28R,0.600000X1.550000*%
%ADD29R,1.400000X3.400000*%
%ADD30R,1.500000X4.000000*%
%ADD31R,1.000000X3.400000*%
%ADD32R,1.500000X3.400000*%
%ADD33R,1.000000X0.700000*%
%ADD34R,0.800000X1.000000*%
%ADD35R,1.350000X1.150000*%
%ADD36R,1.150000X1.350000*%
%ADD37R,0.600000X1.000000*%
%ADD38R,0.620000X0.560000*%
%ADD39R,1.800000X1.200000*%
%ADD40R,3.800000X1.900000*%
%ADD41R,1.860000X1.230000*%
%ADD42R,1.200000X1.800000*%
%ADD43R,1.000000X0.800000*%
G04 APERTURE END LIST*
D10*
%TO.C,U1*%
X88750000Y-22240000D03*
X88750000Y-23510000D03*
X88750000Y-24780000D03*
X88750000Y-26050000D03*
X88750000Y-27320000D03*
X88750000Y-28590000D03*
X88750000Y-29860000D03*
X88750000Y-31130000D03*
X88750000Y-32400000D03*
X88750000Y-33670000D03*
X88750000Y-34940000D03*
X88750000Y-36210000D03*
X88750000Y-37480000D03*
X88750000Y-38750000D03*
D11*
X86985000Y-40000000D03*
X85715000Y-40000000D03*
X84445000Y-40000000D03*
X83175000Y-40000000D03*
X81905000Y-40000000D03*
X80635000Y-40000000D03*
X79365000Y-40000000D03*
X78095000Y-40000000D03*
X76825000Y-40000000D03*
X75555000Y-40000000D03*
X74285000Y-40000000D03*
X73015000Y-40000000D03*
D10*
X71250000Y-38750000D03*
X71250000Y-37480000D03*
X71250000Y-36210000D03*
X71250000Y-34940000D03*
X71250000Y-33670000D03*
X71250000Y-32400000D03*
X71250000Y-31130000D03*
X71250000Y-29860000D03*
X71250000Y-28590000D03*
X71250000Y-27320000D03*
X71250000Y-26050000D03*
X71250000Y-24780000D03*
X71250000Y-23510000D03*
X71250000Y-22240000D03*
D12*
X81500000Y-29960000D03*
%TD*%
D13*
%TO.C,SW11*%
X13150000Y-2500000D03*
X13150000Y-8500000D03*
X16850000Y-2500000D03*
X16850000Y-8500000D03*
%TD*%
%TO.C,SW12*%
X143150000Y-2500000D03*
X143150000Y-8500000D03*
X146850000Y-2500000D03*
X146850000Y-8500000D03*
%TD*%
D14*
%TO.C,J4*%
X133562000Y-25750000D03*
X133562000Y-26250000D03*
X133562000Y-26750000D03*
X133562000Y-27250000D03*
X133562000Y-27750000D03*
X133562000Y-28250000D03*
X133562000Y-28750000D03*
X133562000Y-29250000D03*
X133562000Y-29750000D03*
X133562000Y-30250000D03*
X133562000Y-30750000D03*
X133562000Y-31250000D03*
X133562000Y-31750000D03*
X133562000Y-32250000D03*
X133562000Y-32750000D03*
X133562000Y-33250000D03*
X133562000Y-33750000D03*
X133562000Y-34250000D03*
X133562000Y-34750000D03*
X133562000Y-35250000D03*
X133562000Y-35750000D03*
X133562000Y-36250000D03*
X133562000Y-36750000D03*
X133562000Y-37250000D03*
X133562000Y-37750000D03*
X133562000Y-38250000D03*
X133562000Y-38750000D03*
X133562000Y-39250000D03*
X133562000Y-39750000D03*
X133562000Y-40250000D03*
X133562000Y-40750000D03*
X133562000Y-41250000D03*
X133562000Y-41750000D03*
X133562000Y-42250000D03*
X133562000Y-42750000D03*
X133562000Y-43250000D03*
X133562000Y-43750000D03*
X133562000Y-44250000D03*
X133562000Y-44750000D03*
X133562000Y-45250000D03*
D15*
X136288000Y-46940000D03*
X136288000Y-24060000D03*
%TD*%
D16*
%TO.C,J1*%
X83200000Y-68775000D03*
X82400000Y-68775000D03*
X77600000Y-68775000D03*
X76800000Y-68775000D03*
D17*
X81750000Y-68775000D03*
X81250000Y-68775000D03*
X80750000Y-68775000D03*
X80250000Y-68775000D03*
X79750000Y-68775000D03*
X79250000Y-68775000D03*
X78750000Y-68775000D03*
X78250000Y-68775000D03*
%TD*%
D18*
%TO.C,U6*%
X137760000Y-61724000D03*
X138860000Y-61724000D03*
X139960000Y-61724000D03*
X141060000Y-61724000D03*
X142160000Y-61724000D03*
X143260000Y-61724000D03*
X144360000Y-61724000D03*
X145460000Y-61724000D03*
X146560000Y-61724000D03*
D19*
X147760000Y-62574000D03*
X133080000Y-62574000D03*
D20*
X147760000Y-72276000D03*
X132240000Y-72276000D03*
%TD*%
D21*
%TO.C,SW16*%
X42250000Y-70300000D03*
X39250000Y-70300000D03*
X37750000Y-70300000D03*
D22*
X43600000Y-71400000D03*
X36400000Y-71400000D03*
X43600000Y-73700000D03*
X36400000Y-73700000D03*
%TD*%
D23*
%TO.C,J5*%
X48500000Y-65510000D03*
X48500000Y-72600000D03*
X55500000Y-73200000D03*
X55500000Y-69600000D03*
X55500000Y-63910000D03*
%TD*%
D24*
%TO.C,SPK1*%
X39500000Y-52500000D03*
X20500000Y-52500000D03*
%TD*%
D25*
%TO.C,U2*%
X113000000Y-40595000D03*
X113000000Y-41865000D03*
X113000000Y-43135000D03*
X113000000Y-44405000D03*
X107000000Y-44405000D03*
X107000000Y-43135000D03*
X107000000Y-41865000D03*
X107000000Y-40595000D03*
D26*
X110000000Y-42500000D03*
%TD*%
D27*
%TO.C,U3*%
X121100000Y-52550000D03*
X121100000Y-53500000D03*
X121100000Y-54450000D03*
X118500000Y-54450000D03*
X118500000Y-52550000D03*
%TD*%
D28*
%TO.C,U5*%
X25555000Y-26800000D03*
X26825000Y-26800000D03*
X28095000Y-26800000D03*
X29365000Y-26800000D03*
X30635000Y-26800000D03*
X31905000Y-26800000D03*
X33175000Y-26800000D03*
X34445000Y-26800000D03*
X34445000Y-32200000D03*
X33175000Y-32200000D03*
X31905000Y-32200000D03*
X30635000Y-32200000D03*
X29365000Y-32200000D03*
X28095000Y-32200000D03*
X26825000Y-32200000D03*
X25555000Y-32200000D03*
%TD*%
D29*
%TO.C,L1*%
X111700000Y-52500000D03*
X108300000Y-52500000D03*
%TD*%
D30*
%TO.C,L2*%
X127800000Y-54450000D03*
X124200000Y-54450000D03*
%TD*%
D31*
%TO.C,J3*%
X78750000Y-62500000D03*
X80750000Y-62500000D03*
D32*
X76400000Y-56650000D03*
X83100000Y-56650000D03*
%TD*%
D33*
%TO.C,SW15*%
X98000000Y-63650000D03*
X92000000Y-63650000D03*
X98000000Y-67350000D03*
X92000000Y-67350000D03*
%TD*%
%TO.C,SW14*%
X108000000Y-63650000D03*
X102000000Y-63650000D03*
X108000000Y-67350000D03*
X102000000Y-67350000D03*
%TD*%
D34*
%TO.C,D1*%
X100275000Y-55400000D03*
X102175000Y-55400000D03*
X101225000Y-57600000D03*
%TD*%
%TO.C,Q1*%
X84050000Y-51900000D03*
X85950000Y-51900000D03*
X85000000Y-54100000D03*
%TD*%
D35*
%TO.C,R24*%
X85500000Y-49250000D03*
X85500000Y-47350000D03*
%TD*%
D36*
%TO.C,R1*%
X74950000Y-67000000D03*
X73050000Y-67000000D03*
%TD*%
%TO.C,R2*%
X78900000Y-67000000D03*
X77000000Y-67000000D03*
%TD*%
D37*
%TO.C,U4*%
X91900000Y-61100000D03*
X90950000Y-61100000D03*
X90000000Y-61100000D03*
X90000000Y-58900000D03*
X90950000Y-58900000D03*
X91900000Y-58900000D03*
%TD*%
D38*
%TO.C,R22*%
X90250000Y-39520000D03*
X90250000Y-40480000D03*
%TD*%
%TO.C,R23*%
X91650000Y-38020000D03*
X91650000Y-38980000D03*
%TD*%
D36*
%TO.C,C3*%
X70500000Y-42000000D03*
X68600000Y-42000000D03*
%TD*%
%TO.C,C4*%
X92950000Y-42000000D03*
X91050000Y-42000000D03*
%TD*%
D35*
%TO.C,C26*%
X91500000Y-20050000D03*
X91500000Y-21950000D03*
%TD*%
%TO.C,R3*%
X94000000Y-21350000D03*
X94000000Y-23250000D03*
%TD*%
%TO.C,C31*%
X96200000Y-21350000D03*
X96200000Y-23250000D03*
%TD*%
D39*
%TO.C,R27*%
X121700000Y-44000000D03*
X121700000Y-47000000D03*
%TD*%
D40*
%TO.C,F1*%
X86100000Y-62500000D03*
X86100000Y-58100000D03*
%TD*%
D36*
%TO.C,R17*%
X25950000Y-65000000D03*
X24050000Y-65000000D03*
%TD*%
%TO.C,R18*%
X32950000Y-65000000D03*
X31050000Y-65000000D03*
%TD*%
%TO.C,R4*%
X43950000Y-46000000D03*
X42050000Y-46000000D03*
%TD*%
%TO.C,R5*%
X48950000Y-46000000D03*
X47050000Y-46000000D03*
%TD*%
%TO.C,R6*%
X53950000Y-46000000D03*
X52050000Y-46000000D03*
%TD*%
%TO.C,R7*%
X58950000Y-46000000D03*
X57050000Y-46000000D03*
%TD*%
%TO.C,R8*%
X63950000Y-46000000D03*
X62050000Y-46000000D03*
%TD*%
%TO.C,R9*%
X68950000Y-46000000D03*
X67050000Y-46000000D03*
%TD*%
%TO.C,R10*%
X73950000Y-46000000D03*
X72050000Y-46000000D03*
%TD*%
%TO.C,R11*%
X78950000Y-46000000D03*
X77050000Y-46000000D03*
%TD*%
%TO.C,R12*%
X83950000Y-46000000D03*
X82050000Y-46000000D03*
%TD*%
%TO.C,R13*%
X88950000Y-46000000D03*
X87050000Y-46000000D03*
%TD*%
%TO.C,R14*%
X93950000Y-46000000D03*
X92050000Y-46000000D03*
%TD*%
%TO.C,R15*%
X98950000Y-46000000D03*
X97050000Y-46000000D03*
%TD*%
D34*
%TO.C,Q2*%
X117250000Y-43900000D03*
X119150000Y-43900000D03*
X118200000Y-46100000D03*
%TD*%
D36*
%TO.C,R32*%
X117250000Y-40000000D03*
X115350000Y-40000000D03*
%TD*%
%TO.C,C32*%
X117250000Y-37480000D03*
X115350000Y-37480000D03*
%TD*%
%TO.C,R33*%
X117250000Y-42000000D03*
X115350000Y-42000000D03*
%TD*%
%TO.C,R34*%
X85150000Y-55900000D03*
X87050000Y-55900000D03*
%TD*%
%TO.C,C33*%
X115950000Y-52500000D03*
X114050000Y-52500000D03*
%TD*%
D41*
%TO.C,SW17*%
X115150000Y-54065000D03*
X115150000Y-58435000D03*
%TD*%
D36*
%TO.C,C5*%
X43950000Y-50000000D03*
X42050000Y-50000000D03*
%TD*%
%TO.C,C6*%
X48950000Y-50000000D03*
X47050000Y-50000000D03*
%TD*%
%TO.C,C7*%
X53950000Y-50000000D03*
X52050000Y-50000000D03*
%TD*%
%TO.C,C8*%
X58950000Y-50000000D03*
X57050000Y-50000000D03*
%TD*%
%TO.C,C9*%
X63950000Y-50000000D03*
X62050000Y-50000000D03*
%TD*%
%TO.C,C10*%
X68950000Y-50000000D03*
X67050000Y-50000000D03*
%TD*%
%TO.C,C11*%
X73950000Y-50000000D03*
X72050000Y-50000000D03*
%TD*%
%TO.C,C12*%
X78950000Y-50000000D03*
X77050000Y-50000000D03*
%TD*%
%TO.C,C13*%
X83950000Y-50000000D03*
X82050000Y-50000000D03*
%TD*%
%TO.C,C14*%
X88950000Y-50000000D03*
X87050000Y-50000000D03*
%TD*%
%TO.C,C15*%
X93950000Y-50000000D03*
X92050000Y-50000000D03*
%TD*%
%TO.C,C16*%
X98950000Y-50000000D03*
X97050000Y-50000000D03*
%TD*%
%TO.C,C17*%
X110950000Y-35000000D03*
X109050000Y-35000000D03*
%TD*%
%TO.C,C18*%
X116950000Y-49000000D03*
X115050000Y-49000000D03*
%TD*%
D42*
%TO.C,C19*%
X111500000Y-58500000D03*
X108500000Y-58500000D03*
%TD*%
D36*
%TO.C,C27*%
X108950000Y-39000000D03*
X107050000Y-39000000D03*
%TD*%
D35*
%TO.C,C28*%
X86000000Y-25050000D03*
X86000000Y-26950000D03*
%TD*%
D43*
%TO.C,Q3*%
X53900000Y-62450000D03*
X53900000Y-60550000D03*
X56100000Y-61500000D03*
%TD*%
D35*
%TO.C,R35*%
X47000000Y-26050000D03*
X47000000Y-27950000D03*
%TD*%
%TO.C,R36*%
X47000000Y-29450000D03*
X47000000Y-31350000D03*
%TD*%
%TO.C,C34*%
X49300000Y-29450000D03*
X49300000Y-31350000D03*
%TD*%
%TO.C,C35*%
X51500000Y-32450000D03*
X51500000Y-34350000D03*
%TD*%
%TO.C,R39*%
X49300000Y-35450000D03*
X49300000Y-37350000D03*
%TD*%
D36*
%TO.C,R37*%
X48450000Y-57200000D03*
X46550000Y-57200000D03*
%TD*%
%TO.C,R38*%
X50250000Y-57200000D03*
X52150000Y-57200000D03*
%TD*%
D35*
%TO.C,R40*%
X54600000Y-56650000D03*
X54600000Y-58550000D03*
%TD*%
%TO.C,C22*%
X33175000Y-19050000D03*
X33175000Y-20950000D03*
%TD*%
D36*
%TO.C,R20*%
X38950000Y-26500000D03*
X37050000Y-26500000D03*
%TD*%
%TO.C,R21*%
X38950000Y-32500000D03*
X37050000Y-32500000D03*
%TD*%
%TO.C,C21*%
X38950000Y-23500000D03*
X37050000Y-23500000D03*
%TD*%
D35*
%TO.C,C23*%
X38000000Y-28550000D03*
X38000000Y-30450000D03*
%TD*%
%TO.C,C24*%
X29365000Y-21050000D03*
X29365000Y-22950000D03*
%TD*%
%TO.C,C25*%
X31500000Y-36550000D03*
X31500000Y-38450000D03*
%TD*%
D42*
%TO.C,C1*%
X118300000Y-56600000D03*
X121300000Y-56600000D03*
%TD*%
D39*
%TO.C,C30*%
X127800000Y-57400000D03*
X127800000Y-60400000D03*
%TD*%
D36*
%TO.C,R25*%
X117050000Y-63400000D03*
X118950000Y-63400000D03*
%TD*%
%TO.C,R26*%
X120400000Y-63400000D03*
X122300000Y-63400000D03*
%TD*%
%TO.C,C29*%
X117050000Y-60300000D03*
X118950000Y-60300000D03*
%TD*%
M02*
