%TF.GenerationSoftware,KiCad,Pcbnew,10.0.0*%
%TF.CreationDate,2026-03-30T21:19:44+02:00*%
%TF.ProjectId,esp32-emu-turbo,65737033-322d-4656-9d75-2d747572626f,rev?*%
%TF.SameCoordinates,Original*%
%TF.FileFunction,Legend,Top*%
%TF.FilePolarity,Positive*%
%FSLAX46Y46*%
G04 Gerber Fmt 4.6, Leading zero omitted, Abs format (unit mm)*
G04 Created by KiCad (PCBNEW 10.0.0) date 2026-03-30 21:19:44*
%MOMM*%
%LPD*%
G01*
G04 APERTURE LIST*
%ADD10C,0.200000*%
%ADD11C,2.500000*%
%ADD12R,1.200000X0.900000*%
%ADD13R,1.000000X1.300000*%
%ADD14O,1.700000X2.000000*%
%ADD15O,1.400000X1.800000*%
%ADD16C,0.650000*%
%ADD17C,1.000000*%
%ADD18C,0.900000*%
%ADD19C,1.600000*%
%ADD20C,2.000000*%
G04 APERTURE END LIST*
D10*
X68500000Y-1552219D02*
X68500000Y-552219D01*
X68500000Y-552219D02*
X68738095Y-552219D01*
X68738095Y-552219D02*
X68880952Y-599838D01*
X68880952Y-599838D02*
X68976190Y-695076D01*
X68976190Y-695076D02*
X69023809Y-790314D01*
X69023809Y-790314D02*
X69071428Y-980790D01*
X69071428Y-980790D02*
X69071428Y-1123647D01*
X69071428Y-1123647D02*
X69023809Y-1314123D01*
X69023809Y-1314123D02*
X68976190Y-1409361D01*
X68976190Y-1409361D02*
X68880952Y-1504600D01*
X68880952Y-1504600D02*
X68738095Y-1552219D01*
X68738095Y-1552219D02*
X68500000Y-1552219D01*
X69500000Y-1552219D02*
X69500000Y-552219D01*
X69928571Y-1504600D02*
X70071428Y-1552219D01*
X70071428Y-1552219D02*
X70309523Y-1552219D01*
X70309523Y-1552219D02*
X70404761Y-1504600D01*
X70404761Y-1504600D02*
X70452380Y-1456980D01*
X70452380Y-1456980D02*
X70499999Y-1361742D01*
X70499999Y-1361742D02*
X70499999Y-1266504D01*
X70499999Y-1266504D02*
X70452380Y-1171266D01*
X70452380Y-1171266D02*
X70404761Y-1123647D01*
X70404761Y-1123647D02*
X70309523Y-1076028D01*
X70309523Y-1076028D02*
X70119047Y-1028409D01*
X70119047Y-1028409D02*
X70023809Y-980790D01*
X70023809Y-980790D02*
X69976190Y-933171D01*
X69976190Y-933171D02*
X69928571Y-837933D01*
X69928571Y-837933D02*
X69928571Y-742695D01*
X69928571Y-742695D02*
X69976190Y-647457D01*
X69976190Y-647457D02*
X70023809Y-599838D01*
X70023809Y-599838D02*
X70119047Y-552219D01*
X70119047Y-552219D02*
X70357142Y-552219D01*
X70357142Y-552219D02*
X70499999Y-599838D01*
X70928571Y-1552219D02*
X70928571Y-552219D01*
X70928571Y-552219D02*
X71309523Y-552219D01*
X71309523Y-552219D02*
X71404761Y-599838D01*
X71404761Y-599838D02*
X71452380Y-647457D01*
X71452380Y-647457D02*
X71499999Y-742695D01*
X71499999Y-742695D02*
X71499999Y-885552D01*
X71499999Y-885552D02*
X71452380Y-980790D01*
X71452380Y-980790D02*
X71404761Y-1028409D01*
X71404761Y-1028409D02*
X71309523Y-1076028D01*
X71309523Y-1076028D02*
X70928571Y-1076028D01*
X72404761Y-1552219D02*
X71928571Y-1552219D01*
X71928571Y-1552219D02*
X71928571Y-552219D01*
X72690476Y-1266504D02*
X73166666Y-1266504D01*
X72595238Y-1552219D02*
X72928571Y-552219D01*
X72928571Y-552219D02*
X73261904Y-1552219D01*
X73785714Y-1076028D02*
X73785714Y-1552219D01*
X73452381Y-552219D02*
X73785714Y-1076028D01*
X73785714Y-1076028D02*
X74119047Y-552219D01*
X75166667Y-1266504D02*
X75642857Y-1266504D01*
X75071429Y-1552219D02*
X75404762Y-552219D01*
X75404762Y-552219D02*
X75738095Y-1552219D01*
X76642857Y-1552219D02*
X76309524Y-1076028D01*
X76071429Y-1552219D02*
X76071429Y-552219D01*
X76071429Y-552219D02*
X76452381Y-552219D01*
X76452381Y-552219D02*
X76547619Y-599838D01*
X76547619Y-599838D02*
X76595238Y-647457D01*
X76595238Y-647457D02*
X76642857Y-742695D01*
X76642857Y-742695D02*
X76642857Y-885552D01*
X76642857Y-885552D02*
X76595238Y-980790D01*
X76595238Y-980790D02*
X76547619Y-1028409D01*
X76547619Y-1028409D02*
X76452381Y-1076028D01*
X76452381Y-1076028D02*
X76071429Y-1076028D01*
X77071429Y-1028409D02*
X77404762Y-1028409D01*
X77547619Y-1552219D02*
X77071429Y-1552219D01*
X77071429Y-1552219D02*
X77071429Y-552219D01*
X77071429Y-552219D02*
X77547619Y-552219D01*
X77928572Y-1266504D02*
X78404762Y-1266504D01*
X77833334Y-1552219D02*
X78166667Y-552219D01*
X78166667Y-552219D02*
X78500000Y-1552219D01*
X79880953Y-1933171D02*
X79833334Y-1885552D01*
X79833334Y-1885552D02*
X79738096Y-1742695D01*
X79738096Y-1742695D02*
X79690477Y-1647457D01*
X79690477Y-1647457D02*
X79642858Y-1504600D01*
X79642858Y-1504600D02*
X79595239Y-1266504D01*
X79595239Y-1266504D02*
X79595239Y-1076028D01*
X79595239Y-1076028D02*
X79642858Y-837933D01*
X79642858Y-837933D02*
X79690477Y-695076D01*
X79690477Y-695076D02*
X79738096Y-599838D01*
X79738096Y-599838D02*
X79833334Y-456980D01*
X79833334Y-456980D02*
X79880953Y-409361D01*
X80261906Y-1552219D02*
X80261906Y-552219D01*
X81214286Y-1552219D02*
X80738096Y-1552219D01*
X80738096Y-1552219D02*
X80738096Y-552219D01*
X81547620Y-1552219D02*
X81547620Y-552219D01*
X82071429Y-1552219D02*
X82261905Y-1552219D01*
X82261905Y-1552219D02*
X82357143Y-1504600D01*
X82357143Y-1504600D02*
X82404762Y-1456980D01*
X82404762Y-1456980D02*
X82500000Y-1314123D01*
X82500000Y-1314123D02*
X82547619Y-1123647D01*
X82547619Y-1123647D02*
X82547619Y-742695D01*
X82547619Y-742695D02*
X82500000Y-647457D01*
X82500000Y-647457D02*
X82452381Y-599838D01*
X82452381Y-599838D02*
X82357143Y-552219D01*
X82357143Y-552219D02*
X82166667Y-552219D01*
X82166667Y-552219D02*
X82071429Y-599838D01*
X82071429Y-599838D02*
X82023810Y-647457D01*
X82023810Y-647457D02*
X81976191Y-742695D01*
X81976191Y-742695D02*
X81976191Y-980790D01*
X81976191Y-980790D02*
X82023810Y-1076028D01*
X82023810Y-1076028D02*
X82071429Y-1123647D01*
X82071429Y-1123647D02*
X82166667Y-1171266D01*
X82166667Y-1171266D02*
X82357143Y-1171266D01*
X82357143Y-1171266D02*
X82452381Y-1123647D01*
X82452381Y-1123647D02*
X82500000Y-1076028D01*
X82500000Y-1076028D02*
X82547619Y-980790D01*
X83404762Y-885552D02*
X83404762Y-1552219D01*
X83166667Y-504600D02*
X82928572Y-1218885D01*
X82928572Y-1218885D02*
X83547619Y-1218885D01*
X84071429Y-980790D02*
X83976191Y-933171D01*
X83976191Y-933171D02*
X83928572Y-885552D01*
X83928572Y-885552D02*
X83880953Y-790314D01*
X83880953Y-790314D02*
X83880953Y-742695D01*
X83880953Y-742695D02*
X83928572Y-647457D01*
X83928572Y-647457D02*
X83976191Y-599838D01*
X83976191Y-599838D02*
X84071429Y-552219D01*
X84071429Y-552219D02*
X84261905Y-552219D01*
X84261905Y-552219D02*
X84357143Y-599838D01*
X84357143Y-599838D02*
X84404762Y-647457D01*
X84404762Y-647457D02*
X84452381Y-742695D01*
X84452381Y-742695D02*
X84452381Y-790314D01*
X84452381Y-790314D02*
X84404762Y-885552D01*
X84404762Y-885552D02*
X84357143Y-933171D01*
X84357143Y-933171D02*
X84261905Y-980790D01*
X84261905Y-980790D02*
X84071429Y-980790D01*
X84071429Y-980790D02*
X83976191Y-1028409D01*
X83976191Y-1028409D02*
X83928572Y-1076028D01*
X83928572Y-1076028D02*
X83880953Y-1171266D01*
X83880953Y-1171266D02*
X83880953Y-1361742D01*
X83880953Y-1361742D02*
X83928572Y-1456980D01*
X83928572Y-1456980D02*
X83976191Y-1504600D01*
X83976191Y-1504600D02*
X84071429Y-1552219D01*
X84071429Y-1552219D02*
X84261905Y-1552219D01*
X84261905Y-1552219D02*
X84357143Y-1504600D01*
X84357143Y-1504600D02*
X84404762Y-1456980D01*
X84404762Y-1456980D02*
X84452381Y-1361742D01*
X84452381Y-1361742D02*
X84452381Y-1171266D01*
X84452381Y-1171266D02*
X84404762Y-1076028D01*
X84404762Y-1076028D02*
X84357143Y-1028409D01*
X84357143Y-1028409D02*
X84261905Y-980790D01*
X85023810Y-980790D02*
X84928572Y-933171D01*
X84928572Y-933171D02*
X84880953Y-885552D01*
X84880953Y-885552D02*
X84833334Y-790314D01*
X84833334Y-790314D02*
X84833334Y-742695D01*
X84833334Y-742695D02*
X84880953Y-647457D01*
X84880953Y-647457D02*
X84928572Y-599838D01*
X84928572Y-599838D02*
X85023810Y-552219D01*
X85023810Y-552219D02*
X85214286Y-552219D01*
X85214286Y-552219D02*
X85309524Y-599838D01*
X85309524Y-599838D02*
X85357143Y-647457D01*
X85357143Y-647457D02*
X85404762Y-742695D01*
X85404762Y-742695D02*
X85404762Y-790314D01*
X85404762Y-790314D02*
X85357143Y-885552D01*
X85357143Y-885552D02*
X85309524Y-933171D01*
X85309524Y-933171D02*
X85214286Y-980790D01*
X85214286Y-980790D02*
X85023810Y-980790D01*
X85023810Y-980790D02*
X84928572Y-1028409D01*
X84928572Y-1028409D02*
X84880953Y-1076028D01*
X84880953Y-1076028D02*
X84833334Y-1171266D01*
X84833334Y-1171266D02*
X84833334Y-1361742D01*
X84833334Y-1361742D02*
X84880953Y-1456980D01*
X84880953Y-1456980D02*
X84928572Y-1504600D01*
X84928572Y-1504600D02*
X85023810Y-1552219D01*
X85023810Y-1552219D02*
X85214286Y-1552219D01*
X85214286Y-1552219D02*
X85309524Y-1504600D01*
X85309524Y-1504600D02*
X85357143Y-1456980D01*
X85357143Y-1456980D02*
X85404762Y-1361742D01*
X85404762Y-1361742D02*
X85404762Y-1171266D01*
X85404762Y-1171266D02*
X85357143Y-1076028D01*
X85357143Y-1076028D02*
X85309524Y-1028409D01*
X85309524Y-1028409D02*
X85214286Y-980790D01*
X86500001Y-552219D02*
X87119048Y-552219D01*
X87119048Y-552219D02*
X86785715Y-933171D01*
X86785715Y-933171D02*
X86928572Y-933171D01*
X86928572Y-933171D02*
X87023810Y-980790D01*
X87023810Y-980790D02*
X87071429Y-1028409D01*
X87071429Y-1028409D02*
X87119048Y-1123647D01*
X87119048Y-1123647D02*
X87119048Y-1361742D01*
X87119048Y-1361742D02*
X87071429Y-1456980D01*
X87071429Y-1456980D02*
X87023810Y-1504600D01*
X87023810Y-1504600D02*
X86928572Y-1552219D01*
X86928572Y-1552219D02*
X86642858Y-1552219D01*
X86642858Y-1552219D02*
X86547620Y-1504600D01*
X86547620Y-1504600D02*
X86500001Y-1456980D01*
X87547620Y-1456980D02*
X87595239Y-1504600D01*
X87595239Y-1504600D02*
X87547620Y-1552219D01*
X87547620Y-1552219D02*
X87500001Y-1504600D01*
X87500001Y-1504600D02*
X87547620Y-1456980D01*
X87547620Y-1456980D02*
X87547620Y-1552219D01*
X88071429Y-1552219D02*
X88261905Y-1552219D01*
X88261905Y-1552219D02*
X88357143Y-1504600D01*
X88357143Y-1504600D02*
X88404762Y-1456980D01*
X88404762Y-1456980D02*
X88500000Y-1314123D01*
X88500000Y-1314123D02*
X88547619Y-1123647D01*
X88547619Y-1123647D02*
X88547619Y-742695D01*
X88547619Y-742695D02*
X88500000Y-647457D01*
X88500000Y-647457D02*
X88452381Y-599838D01*
X88452381Y-599838D02*
X88357143Y-552219D01*
X88357143Y-552219D02*
X88166667Y-552219D01*
X88166667Y-552219D02*
X88071429Y-599838D01*
X88071429Y-599838D02*
X88023810Y-647457D01*
X88023810Y-647457D02*
X87976191Y-742695D01*
X87976191Y-742695D02*
X87976191Y-980790D01*
X87976191Y-980790D02*
X88023810Y-1076028D01*
X88023810Y-1076028D02*
X88071429Y-1123647D01*
X88071429Y-1123647D02*
X88166667Y-1171266D01*
X88166667Y-1171266D02*
X88357143Y-1171266D01*
X88357143Y-1171266D02*
X88452381Y-1123647D01*
X88452381Y-1123647D02*
X88500000Y-1076028D01*
X88500000Y-1076028D02*
X88547619Y-980790D01*
X89452381Y-552219D02*
X88976191Y-552219D01*
X88976191Y-552219D02*
X88928572Y-1028409D01*
X88928572Y-1028409D02*
X88976191Y-980790D01*
X88976191Y-980790D02*
X89071429Y-933171D01*
X89071429Y-933171D02*
X89309524Y-933171D01*
X89309524Y-933171D02*
X89404762Y-980790D01*
X89404762Y-980790D02*
X89452381Y-1028409D01*
X89452381Y-1028409D02*
X89500000Y-1123647D01*
X89500000Y-1123647D02*
X89500000Y-1361742D01*
X89500000Y-1361742D02*
X89452381Y-1456980D01*
X89452381Y-1456980D02*
X89404762Y-1504600D01*
X89404762Y-1504600D02*
X89309524Y-1552219D01*
X89309524Y-1552219D02*
X89071429Y-1552219D01*
X89071429Y-1552219D02*
X88976191Y-1504600D01*
X88976191Y-1504600D02*
X88928572Y-1456980D01*
X89928572Y-1552219D02*
X89928572Y-885552D01*
X89928572Y-552219D02*
X89880953Y-599838D01*
X89880953Y-599838D02*
X89928572Y-647457D01*
X89928572Y-647457D02*
X89976191Y-599838D01*
X89976191Y-599838D02*
X89928572Y-552219D01*
X89928572Y-552219D02*
X89928572Y-647457D01*
X90404762Y-885552D02*
X90404762Y-1552219D01*
X90404762Y-980790D02*
X90452381Y-933171D01*
X90452381Y-933171D02*
X90547619Y-885552D01*
X90547619Y-885552D02*
X90690476Y-885552D01*
X90690476Y-885552D02*
X90785714Y-933171D01*
X90785714Y-933171D02*
X90833333Y-1028409D01*
X90833333Y-1028409D02*
X90833333Y-1552219D01*
X91214286Y-1933171D02*
X91261905Y-1885552D01*
X91261905Y-1885552D02*
X91357143Y-1742695D01*
X91357143Y-1742695D02*
X91404762Y-1647457D01*
X91404762Y-1647457D02*
X91452381Y-1504600D01*
X91452381Y-1504600D02*
X91500000Y-1266504D01*
X91500000Y-1266504D02*
X91500000Y-1076028D01*
X91500000Y-1076028D02*
X91452381Y-837933D01*
X91452381Y-837933D02*
X91404762Y-695076D01*
X91404762Y-695076D02*
X91357143Y-599838D01*
X91357143Y-599838D02*
X91261905Y-456980D01*
X91261905Y-456980D02*
X91214286Y-409361D01*
X15690476Y-12952219D02*
X15690476Y-11952219D01*
X15690476Y-11952219D02*
X15928571Y-11952219D01*
X15928571Y-11952219D02*
X16071428Y-11999838D01*
X16071428Y-11999838D02*
X16166666Y-12095076D01*
X16166666Y-12095076D02*
X16214285Y-12190314D01*
X16214285Y-12190314D02*
X16261904Y-12380790D01*
X16261904Y-12380790D02*
X16261904Y-12523647D01*
X16261904Y-12523647D02*
X16214285Y-12714123D01*
X16214285Y-12714123D02*
X16166666Y-12809361D01*
X16166666Y-12809361D02*
X16071428Y-12904600D01*
X16071428Y-12904600D02*
X15928571Y-12952219D01*
X15928571Y-12952219D02*
X15690476Y-12952219D01*
X16690476Y-12571266D02*
X17452381Y-12571266D01*
X17928571Y-12952219D02*
X17928571Y-11952219D01*
X17928571Y-11952219D02*
X18309523Y-11952219D01*
X18309523Y-11952219D02*
X18404761Y-11999838D01*
X18404761Y-11999838D02*
X18452380Y-12047457D01*
X18452380Y-12047457D02*
X18499999Y-12142695D01*
X18499999Y-12142695D02*
X18499999Y-12285552D01*
X18499999Y-12285552D02*
X18452380Y-12380790D01*
X18452380Y-12380790D02*
X18404761Y-12428409D01*
X18404761Y-12428409D02*
X18309523Y-12476028D01*
X18309523Y-12476028D02*
X17928571Y-12476028D01*
X18880952Y-12666504D02*
X19357142Y-12666504D01*
X18785714Y-12952219D02*
X19119047Y-11952219D01*
X19119047Y-11952219D02*
X19452380Y-12952219D01*
X19785714Y-12952219D02*
X19785714Y-11952219D01*
X19785714Y-11952219D02*
X20023809Y-11952219D01*
X20023809Y-11952219D02*
X20166666Y-11999838D01*
X20166666Y-11999838D02*
X20261904Y-12095076D01*
X20261904Y-12095076D02*
X20309523Y-12190314D01*
X20309523Y-12190314D02*
X20357142Y-12380790D01*
X20357142Y-12380790D02*
X20357142Y-12523647D01*
X20357142Y-12523647D02*
X20309523Y-12714123D01*
X20309523Y-12714123D02*
X20261904Y-12809361D01*
X20261904Y-12809361D02*
X20166666Y-12904600D01*
X20166666Y-12904600D02*
X20023809Y-12952219D01*
X20023809Y-12952219D02*
X19785714Y-12952219D01*
X140357143Y-12666504D02*
X140833333Y-12666504D01*
X140261905Y-12952219D02*
X140595238Y-11952219D01*
X140595238Y-11952219D02*
X140928571Y-12952219D01*
X141595238Y-12428409D02*
X141738095Y-12476028D01*
X141738095Y-12476028D02*
X141785714Y-12523647D01*
X141785714Y-12523647D02*
X141833333Y-12618885D01*
X141833333Y-12618885D02*
X141833333Y-12761742D01*
X141833333Y-12761742D02*
X141785714Y-12856980D01*
X141785714Y-12856980D02*
X141738095Y-12904600D01*
X141738095Y-12904600D02*
X141642857Y-12952219D01*
X141642857Y-12952219D02*
X141261905Y-12952219D01*
X141261905Y-12952219D02*
X141261905Y-11952219D01*
X141261905Y-11952219D02*
X141595238Y-11952219D01*
X141595238Y-11952219D02*
X141690476Y-11999838D01*
X141690476Y-11999838D02*
X141738095Y-12047457D01*
X141738095Y-12047457D02*
X141785714Y-12142695D01*
X141785714Y-12142695D02*
X141785714Y-12237933D01*
X141785714Y-12237933D02*
X141738095Y-12333171D01*
X141738095Y-12333171D02*
X141690476Y-12380790D01*
X141690476Y-12380790D02*
X141595238Y-12428409D01*
X141595238Y-12428409D02*
X141261905Y-12428409D01*
X142166667Y-11952219D02*
X142833333Y-12952219D01*
X142833333Y-11952219D02*
X142166667Y-12952219D01*
X143404762Y-12476028D02*
X143404762Y-12952219D01*
X143071429Y-11952219D02*
X143404762Y-12476028D01*
X143404762Y-12476028D02*
X143738095Y-11952219D01*
X140533333Y-58559695D02*
X140533333Y-57759695D01*
X140533333Y-57759695D02*
X140799999Y-58331123D01*
X140799999Y-58331123D02*
X141066666Y-57759695D01*
X141066666Y-57759695D02*
X141066666Y-58559695D01*
X141447619Y-58140647D02*
X141714285Y-58140647D01*
X141828571Y-58559695D02*
X141447619Y-58559695D01*
X141447619Y-58559695D02*
X141447619Y-57759695D01*
X141447619Y-57759695D02*
X141828571Y-57759695D01*
X142171429Y-58559695D02*
X142171429Y-57759695D01*
X142171429Y-57759695D02*
X142628572Y-58559695D01*
X142628572Y-58559695D02*
X142628572Y-57759695D01*
X143009524Y-57759695D02*
X143009524Y-58407314D01*
X143009524Y-58407314D02*
X143047619Y-58483504D01*
X143047619Y-58483504D02*
X143085714Y-58521600D01*
X143085714Y-58521600D02*
X143161905Y-58559695D01*
X143161905Y-58559695D02*
X143314286Y-58559695D01*
X143314286Y-58559695D02*
X143390476Y-58521600D01*
X143390476Y-58521600D02*
X143428571Y-58483504D01*
X143428571Y-58483504D02*
X143466667Y-58407314D01*
X143466667Y-58407314D02*
X143466667Y-57759695D01*
X24428572Y-70783504D02*
X24390476Y-70821600D01*
X24390476Y-70821600D02*
X24276191Y-70859695D01*
X24276191Y-70859695D02*
X24200000Y-70859695D01*
X24200000Y-70859695D02*
X24085714Y-70821600D01*
X24085714Y-70821600D02*
X24009524Y-70745409D01*
X24009524Y-70745409D02*
X23971429Y-70669219D01*
X23971429Y-70669219D02*
X23933333Y-70516838D01*
X23933333Y-70516838D02*
X23933333Y-70402552D01*
X23933333Y-70402552D02*
X23971429Y-70250171D01*
X23971429Y-70250171D02*
X24009524Y-70173980D01*
X24009524Y-70173980D02*
X24085714Y-70097790D01*
X24085714Y-70097790D02*
X24200000Y-70059695D01*
X24200000Y-70059695D02*
X24276191Y-70059695D01*
X24276191Y-70059695D02*
X24390476Y-70097790D01*
X24390476Y-70097790D02*
X24428572Y-70135885D01*
X24771429Y-70859695D02*
X24771429Y-70059695D01*
X24771429Y-70440647D02*
X25228572Y-70440647D01*
X25228572Y-70859695D02*
X25228572Y-70059695D01*
X26028571Y-70097790D02*
X25952381Y-70059695D01*
X25952381Y-70059695D02*
X25838095Y-70059695D01*
X25838095Y-70059695D02*
X25723809Y-70097790D01*
X25723809Y-70097790D02*
X25647619Y-70173980D01*
X25647619Y-70173980D02*
X25609524Y-70250171D01*
X25609524Y-70250171D02*
X25571428Y-70402552D01*
X25571428Y-70402552D02*
X25571428Y-70516838D01*
X25571428Y-70516838D02*
X25609524Y-70669219D01*
X25609524Y-70669219D02*
X25647619Y-70745409D01*
X25647619Y-70745409D02*
X25723809Y-70821600D01*
X25723809Y-70821600D02*
X25838095Y-70859695D01*
X25838095Y-70859695D02*
X25914286Y-70859695D01*
X25914286Y-70859695D02*
X26028571Y-70821600D01*
X26028571Y-70821600D02*
X26066667Y-70783504D01*
X26066667Y-70783504D02*
X26066667Y-70516838D01*
X26066667Y-70516838D02*
X25914286Y-70516838D01*
X31047619Y-70440647D02*
X30780953Y-70440647D01*
X30780953Y-70859695D02*
X30780953Y-70059695D01*
X30780953Y-70059695D02*
X31161905Y-70059695D01*
X31466667Y-70059695D02*
X31466667Y-70707314D01*
X31466667Y-70707314D02*
X31504762Y-70783504D01*
X31504762Y-70783504D02*
X31542857Y-70821600D01*
X31542857Y-70821600D02*
X31619048Y-70859695D01*
X31619048Y-70859695D02*
X31771429Y-70859695D01*
X31771429Y-70859695D02*
X31847619Y-70821600D01*
X31847619Y-70821600D02*
X31885714Y-70783504D01*
X31885714Y-70783504D02*
X31923810Y-70707314D01*
X31923810Y-70707314D02*
X31923810Y-70059695D01*
X32685714Y-70859695D02*
X32304762Y-70859695D01*
X32304762Y-70859695D02*
X32304762Y-70059695D01*
X33333333Y-70859695D02*
X32952381Y-70859695D01*
X32952381Y-70859695D02*
X32952381Y-70059695D01*
%LPC*%
D11*
%TO.C,*%
X10000000Y-7000000D03*
%TD*%
%TO.C,*%
X150000000Y-7000000D03*
%TD*%
%TO.C,*%
X10000000Y-68000000D03*
%TD*%
%TO.C,*%
X150000000Y-68000000D03*
%TD*%
%TO.C,*%
X55000000Y-37500000D03*
%TD*%
%TO.C,*%
X105000000Y-37500000D03*
%TD*%
D12*
%TO.C,SW1*%
X15000000Y-21650000D03*
X21000000Y-21650000D03*
X15000000Y-25350000D03*
X21000000Y-25350000D03*
%TD*%
%TO.C,SW2*%
X15000000Y-39650000D03*
X21000000Y-39650000D03*
X15000000Y-43350000D03*
X21000000Y-43350000D03*
%TD*%
%TO.C,SW3*%
X6000000Y-30650000D03*
X12000000Y-30650000D03*
X6000000Y-34350000D03*
X12000000Y-34350000D03*
%TD*%
%TO.C,SW4*%
X24000000Y-30650000D03*
X30000000Y-30650000D03*
X24000000Y-34350000D03*
X30000000Y-34350000D03*
%TD*%
%TO.C,SW5*%
X139000000Y-20650000D03*
X145000000Y-20650000D03*
X139000000Y-24350000D03*
X145000000Y-24350000D03*
%TD*%
%TO.C,SW6*%
X149000000Y-30650000D03*
X155000000Y-30650000D03*
X149000000Y-34350000D03*
X155000000Y-34350000D03*
%TD*%
%TO.C,SW7*%
X139000000Y-40650000D03*
X145000000Y-40650000D03*
X139000000Y-44350000D03*
X145000000Y-44350000D03*
%TD*%
%TO.C,SW8*%
X130000000Y-30650000D03*
X136000000Y-30650000D03*
X130000000Y-34350000D03*
X136000000Y-34350000D03*
%TD*%
%TO.C,SW9*%
X5000000Y-52650000D03*
X11000000Y-52650000D03*
X5000000Y-56350000D03*
X11000000Y-56350000D03*
%TD*%
%TO.C,SW10*%
X25000000Y-52650000D03*
X31000000Y-52650000D03*
X25000000Y-56350000D03*
X31000000Y-56350000D03*
%TD*%
%TO.C,SW13*%
X139000000Y-61350000D03*
X145000000Y-61350000D03*
X139000000Y-65050000D03*
X145000000Y-65050000D03*
%TD*%
D13*
%TO.C,LED1*%
X24050000Y-67500000D03*
X25950000Y-67500000D03*
%TD*%
%TO.C,LED2*%
X31050000Y-67500000D03*
X32950000Y-67500000D03*
%TD*%
D14*
%TO.C,J1*%
X84325000Y-69375000D03*
X75675000Y-69375000D03*
D15*
X84325000Y-73575000D03*
X75675000Y-73575000D03*
D16*
X82890000Y-69895000D03*
X77110000Y-69895000D03*
%TD*%
D17*
%TO.C,U6*%
X144950000Y-72566000D03*
X136950000Y-72566000D03*
%TD*%
D18*
%TO.C,SW_PWR*%
X41500000Y-72550000D03*
X38500000Y-72550000D03*
%TD*%
D19*
%TO.C,J3*%
X81000000Y-62500000D03*
X79000000Y-62500000D03*
%TD*%
D20*
%TO.C,FID1*%
X5000000Y-5000000D03*
%TD*%
%TO.C,FID2*%
X155000000Y-5000000D03*
%TD*%
%TO.C,FID3*%
X5000000Y-70000000D03*
%TD*%
%LPD*%
M02*
