%TF.GenerationSoftware,KiCad,Pcbnew,10.0.5*%
%TF.CreationDate,2026-08-15T19:38:16+02:00*%
%TF.ProjectId,esp32-emu-turbo,65737033-322d-4656-9d75-2d747572626f,rev?*%
%TF.SameCoordinates,Original*%
%TF.FileFunction,Copper,L1,Top*%
%TF.FilePolarity,Positive*%
%FSLAX46Y46*%
G04 Gerber Fmt 4.6, Leading zero omitted, Abs format (unit mm)*
G04 Created by KiCad (PCBNEW 10.0.5) date 2026-08-15 19:38:16*
%MOMM*%
%LPD*%
G01*
G04 APERTURE LIST*
%TA.AperFunction,SMDPad,CuDef*%
%ADD10R,1.000000X0.700000*%
%TD*%
%TA.AperFunction,SMDPad,CuDef*%
%ADD11R,1.150000X1.350000*%
%TD*%
%TA.AperFunction,ComponentPad*%
%ADD12O,1.200000X2.120000*%
%TD*%
%TA.AperFunction,ComponentPad*%
%ADD13O,1.200000X1.920000*%
%TD*%
%TA.AperFunction,SMDPad,CuDef*%
%ADD14C,1.000000*%
%TD*%
%TA.AperFunction,ViaPad*%
%ADD15C,0.900000*%
%TD*%
%TA.AperFunction,ViaPad*%
%ADD16C,0.600000*%
%TD*%
%TA.AperFunction,ViaPad*%
%ADD17C,0.800000*%
%TD*%
%TA.AperFunction,ViaPad*%
%ADD18C,0.500000*%
%TD*%
%TA.AperFunction,ViaPad*%
%ADD19C,0.460000*%
%TD*%
%TA.AperFunction,ViaPad*%
%ADD20C,0.760000*%
%TD*%
%TA.AperFunction,ViaPad*%
%ADD21C,0.780000*%
%TD*%
%TA.AperFunction,ViaPad*%
%ADD22C,0.850000*%
%TD*%
%TA.AperFunction,Conductor*%
%ADD23C,0.760000*%
%TD*%
%TA.AperFunction,Conductor*%
%ADD24C,0.250000*%
%TD*%
%TA.AperFunction,Conductor*%
%ADD25C,0.300000*%
%TD*%
%TA.AperFunction,Conductor*%
%ADD26C,1.100000*%
%TD*%
%TA.AperFunction,Conductor*%
%ADD27C,0.200000*%
%TD*%
%TA.AperFunction,Conductor*%
%ADD28C,0.400000*%
%TD*%
%TA.AperFunction,Conductor*%
%ADD29C,0.500000*%
%TD*%
%TA.AperFunction,Conductor*%
%ADD30C,0.600000*%
%TD*%
%TA.AperFunction,Conductor*%
%ADD31C,0.150000*%
%TD*%
G04 APERTURE END LIST*
D10*
%TO.P,SW1,1*%
%TO.N,N/C*%
X15000000Y-21650000D03*
%TO.P,SW1,2*%
%TO.N,BTN_UP*%
X21000000Y-21650000D03*
%TO.P,SW1,3*%
%TO.N,GND*%
X15000000Y-25350000D03*
%TO.P,SW1,4*%
%TO.N,N/C*%
X21000000Y-25350000D03*
%TD*%
%TO.P,SW2,1*%
%TO.N,N/C*%
X15000000Y-39650000D03*
%TO.P,SW2,2*%
%TO.N,BTN_DOWN*%
X21000000Y-39650000D03*
%TO.P,SW2,3*%
%TO.N,GND*%
X15000000Y-43350000D03*
%TO.P,SW2,4*%
%TO.N,N/C*%
X21000000Y-43350000D03*
%TD*%
%TO.P,SW3,1*%
%TO.N,N/C*%
X6000000Y-30650000D03*
%TO.P,SW3,2*%
%TO.N,BTN_LEFT*%
X12000000Y-30650000D03*
%TO.P,SW3,3*%
%TO.N,GND*%
X6000000Y-34350000D03*
%TO.P,SW3,4*%
%TO.N,N/C*%
X12000000Y-34350000D03*
%TD*%
%TO.P,SW4,1*%
%TO.N,N/C*%
X24000000Y-30650000D03*
%TO.P,SW4,2*%
%TO.N,BTN_RIGHT*%
X30000000Y-30650000D03*
%TO.P,SW4,3*%
%TO.N,GND*%
X24000000Y-34350000D03*
%TO.P,SW4,4*%
%TO.N,N/C*%
X30000000Y-34350000D03*
%TD*%
%TO.P,SW5,1*%
%TO.N,BTN_A*%
X139000000Y-20650000D03*
%TO.P,SW5,2*%
%TO.N,N/C*%
X145000000Y-20650000D03*
%TO.P,SW5,3*%
X139000000Y-24350000D03*
%TO.P,SW5,4*%
%TO.N,GND*%
X145000000Y-24350000D03*
%TD*%
%TO.P,SW6,1*%
%TO.N,BTN_B*%
X149000000Y-30650000D03*
%TO.P,SW6,2*%
%TO.N,N/C*%
X155000000Y-30650000D03*
%TO.P,SW6,3*%
X149000000Y-34350000D03*
%TO.P,SW6,4*%
%TO.N,GND*%
X155000000Y-34350000D03*
%TD*%
%TO.P,SW7,1*%
%TO.N,BTN_X*%
X139000000Y-40650000D03*
%TO.P,SW7,2*%
%TO.N,N/C*%
X145000000Y-40650000D03*
%TO.P,SW7,3*%
X139000000Y-44350000D03*
%TO.P,SW7,4*%
%TO.N,GND*%
X145000000Y-44350000D03*
%TD*%
%TO.P,SW8,1*%
%TO.N,BTN_Y*%
X130000000Y-30650000D03*
%TO.P,SW8,2*%
%TO.N,N/C*%
X136000000Y-30650000D03*
%TO.P,SW8,3*%
X130000000Y-34350000D03*
%TO.P,SW8,4*%
%TO.N,GND*%
X136000000Y-34350000D03*
%TD*%
%TO.P,SW9,1*%
%TO.N,N/C*%
X5000000Y-52650000D03*
%TO.P,SW9,2*%
%TO.N,BTN_START*%
X11000000Y-52650000D03*
%TO.P,SW9,3*%
%TO.N,GND*%
X5000000Y-56350000D03*
%TO.P,SW9,4*%
%TO.N,N/C*%
X11000000Y-56350000D03*
%TD*%
%TO.P,SW10,1*%
%TO.N,N/C*%
X25000000Y-52650000D03*
%TO.P,SW10,2*%
%TO.N,BTN_SELECT*%
X31000000Y-52650000D03*
%TO.P,SW10,3*%
%TO.N,GND*%
X25000000Y-56350000D03*
%TO.P,SW10,4*%
%TO.N,N/C*%
X31000000Y-56350000D03*
%TD*%
%TO.P,SW13,1*%
%TO.N,MENU_K*%
X139000000Y-59850000D03*
%TO.P,SW13,2*%
X145000000Y-59850000D03*
%TO.P,SW13,3*%
%TO.N,GND*%
X139000000Y-63550000D03*
%TO.P,SW13,4*%
X145000000Y-63550000D03*
%TD*%
D11*
%TO.P,LED1,1*%
%TO.N,GND*%
X24050000Y-67500000D03*
%TO.P,LED1,2*%
%TO.N,LED1_RA*%
X25950000Y-67500000D03*
%TD*%
%TO.P,LED2,1*%
%TO.N,GND*%
X31050000Y-67500000D03*
%TO.P,LED2,2*%
%TO.N,LED2_RA*%
X32950000Y-67500000D03*
%TD*%
D12*
%TO.P,J1,13*%
%TO.N,GND*%
X84325000Y-69325000D03*
D13*
X84325000Y-73525000D03*
D12*
%TO.P,J1,14*%
X75675000Y-69325000D03*
D13*
X75675000Y-73525000D03*
%TD*%
D11*
%TO.P,R28,1*%
%TO.N,LED3_RA*%
X134950000Y-54000000D03*
%TO.P,R28,2*%
%TO.N,VBUS*%
X133050000Y-54000000D03*
%TD*%
%TO.P,LED3,1*%
%TO.N,GND*%
X133050000Y-58000000D03*
%TO.P,LED3,2*%
%TO.N,LED3_RA*%
X134950000Y-58000000D03*
%TD*%
%TO.P,R29,1*%
%TO.N,LED4_RA*%
X140950000Y-54000000D03*
%TO.P,R29,2*%
%TO.N,+5V*%
X139050000Y-54000000D03*
%TD*%
%TO.P,LED4,1*%
%TO.N,GND*%
X139050000Y-58000000D03*
%TO.P,LED4,2*%
%TO.N,LED4_RA*%
X140950000Y-58000000D03*
%TD*%
%TO.P,R30,1*%
%TO.N,LED5_RA*%
X146950000Y-54000000D03*
%TO.P,R30,2*%
%TO.N,+3V3*%
X145050000Y-54000000D03*
%TD*%
%TO.P,LED5,1*%
%TO.N,GND*%
X145050000Y-58000000D03*
%TO.P,LED5,2*%
%TO.N,LED5_RA*%
X146950000Y-58000000D03*
%TD*%
%TO.P,R31,1*%
%TO.N,LED6_RA*%
X152950000Y-54000000D03*
%TO.P,R31,2*%
%TO.N,LED_HB*%
X151050000Y-54000000D03*
%TD*%
%TO.P,LED6,1*%
%TO.N,GND*%
X151050000Y-58000000D03*
%TO.P,LED6,2*%
%TO.N,LED6_RA*%
X152950000Y-58000000D03*
%TD*%
D14*
%TO.P,FID1,1*%
%TO.N,N/C*%
X12000000Y-12000000D03*
%TD*%
%TO.P,FID2,1*%
%TO.N,N/C*%
X150000000Y-63000000D03*
%TD*%
%TO.P,FID3,1*%
%TO.N,N/C*%
X12000000Y-63000000D03*
%TD*%
D15*
%TO.N,VBUS*%
X85000000Y-59900000D03*
X86100000Y-59900000D03*
X87200000Y-59900000D03*
X111000000Y-40095000D03*
X111000000Y-39020000D03*
%TO.N,GND*%
X80750000Y-59000000D03*
D16*
X76800000Y-66000000D03*
X80200000Y-35000000D03*
X80200000Y-36000000D03*
X81000000Y-35500000D03*
D15*
%TO.N,+5V*%
X118300000Y-58300000D03*
X119600000Y-58300000D03*
D16*
%TO.N,GND*%
X122400000Y-53500000D03*
D17*
X122400000Y-51800000D03*
X122400000Y-50600000D03*
D16*
X122600000Y-56600000D03*
%TO.N,+5V*%
X121100000Y-51200000D03*
D15*
%TO.N,+3V3*%
X126000000Y-57400000D03*
X124600000Y-57400000D03*
X125300000Y-58600000D03*
D16*
%TO.N,GND*%
X126300000Y-60400000D03*
X125000000Y-60400000D03*
D18*
%TO.N,BUCK_FB*%
X118500000Y-51200000D03*
X118950000Y-61850000D03*
D16*
%TO.N,+3V3*%
X115550000Y-63400000D03*
%TO.N,GND*%
X123550000Y-63400000D03*
D17*
X108550000Y-44300000D03*
X109550000Y-44300000D03*
X108550000Y-45300000D03*
X109550000Y-45300000D03*
D16*
%TO.N,+3V3*%
X141060000Y-62900000D03*
D18*
%TO.N,GND*%
X143260000Y-62900000D03*
D16*
X148760000Y-62574000D03*
X131240000Y-72276000D03*
X129740000Y-72276000D03*
D15*
%TO.N,+5V_VOUT*%
X106100000Y-39095000D03*
X105600000Y-40595000D03*
X107500000Y-37900000D03*
D19*
%TO.N,BAT+*%
X107800000Y-46100000D03*
D16*
%TO.N,GND*%
X115150000Y-59585000D03*
D19*
%TO.N,+3V3*%
X89900000Y-23510000D03*
D15*
%TO.N,BAT+*%
X105500000Y-46135000D03*
X105500000Y-47210000D03*
X104300000Y-46135000D03*
X104300000Y-47210000D03*
X106600000Y-47550000D03*
X107700000Y-47550000D03*
X108800000Y-47550000D03*
X109900000Y-47550000D03*
D18*
X80080000Y-46135000D03*
D20*
X80880000Y-46135000D03*
D21*
X79725000Y-47300000D03*
X80750000Y-47300000D03*
X81775000Y-47300000D03*
X82800000Y-47300000D03*
D16*
%TO.N,GND*%
X86500000Y-47350000D03*
%TO.N,PWR_SW*%
X38000000Y-54350000D03*
%TO.N,GND*%
X42250000Y-68700000D03*
D22*
%TO.N,+5V_VOUT*%
X119150000Y-42850000D03*
X119150000Y-41800000D03*
X119150000Y-40750000D03*
%TO.N,+5V*%
X118200000Y-47000000D03*
X118200000Y-48050000D03*
X118200000Y-49100000D03*
D18*
%TO.N,+5V_VOUT*%
X114400000Y-40000000D03*
X114400000Y-37480000D03*
D16*
%TO.N,PWR_SW*%
X110000000Y-54350000D03*
D18*
X112950000Y-55600000D03*
X112950000Y-50600000D03*
X112950000Y-48900000D03*
X114400000Y-42000000D03*
D19*
X84300000Y-55900000D03*
D16*
%TO.N,+5V*%
X105500000Y-48850000D03*
X39000000Y-48850000D03*
D18*
%TO.N,LCD_CS*%
X80635000Y-38115000D03*
X101030000Y-38115000D03*
X110000000Y-38115000D03*
X124000000Y-38115000D03*
X124000000Y-5000000D03*
D16*
X140800000Y-5000000D03*
D18*
%TO.N,LCD_DC*%
X78095000Y-36845000D03*
X101600000Y-36845000D03*
X108240000Y-36845000D03*
X122900000Y-36845000D03*
X122900000Y-6000000D03*
D16*
X140100000Y-6000000D03*
D18*
%TO.N,LCD_WR*%
X85715000Y-35575000D03*
X121800000Y-35575000D03*
X121800000Y-7000000D03*
D16*
X139400000Y-7000000D03*
D18*
%TO.N,LCD_RST*%
X79365000Y-34305000D03*
X120700000Y-34305000D03*
X120700000Y-8000000D03*
D16*
X138700000Y-8000000D03*
D18*
%TO.N,LCD_D0*%
X90750000Y-26050000D03*
X119600000Y-26050000D03*
X119600000Y-9000000D03*
D16*
X138000000Y-9000000D03*
D18*
%TO.N,LCD_D1*%
X90750000Y-27320000D03*
X118500000Y-27320000D03*
X118500000Y-10000000D03*
D16*
X137300000Y-10000000D03*
D18*
X137300000Y-22480000D03*
X137300000Y-25520000D03*
%TO.N,LCD_D2*%
X90750000Y-28590000D03*
X117400000Y-28590000D03*
X117400000Y-11000000D03*
D16*
X136600000Y-11000000D03*
D18*
X136600000Y-22200000D03*
X136600000Y-25800000D03*
%TO.N,LCD_D3*%
X90750000Y-29860000D03*
X116300000Y-29860000D03*
X116300000Y-12000000D03*
D16*
X135900000Y-12000000D03*
D18*
X135900000Y-22480000D03*
X135900000Y-25520000D03*
%TO.N,LCD_D4*%
X90750000Y-36210000D03*
X99500000Y-36210000D03*
X111800000Y-32300000D03*
X115200000Y-32300000D03*
X115200000Y-13000000D03*
D16*
X135200000Y-13000000D03*
D18*
X135200000Y-22200000D03*
X135200000Y-25800000D03*
%TO.N,LCD_D5*%
X84445000Y-33035000D03*
X114100000Y-33035000D03*
X114100000Y-14000000D03*
D16*
X134500000Y-14000000D03*
D18*
%TO.N,LCD_D6*%
X83175000Y-32360000D03*
X113000000Y-21500000D03*
X113000000Y-15000000D03*
D16*
X131000000Y-15000000D03*
D18*
%TO.N,LCD_D7*%
X81905000Y-32360000D03*
X111900000Y-20500000D03*
X111900000Y-16000000D03*
D16*
X131700000Y-16000000D03*
D19*
%TO.N,GND*%
X132450000Y-25200000D03*
X132450000Y-27250000D03*
X132450000Y-28250000D03*
X132450000Y-43750000D03*
D16*
X143500000Y-43750000D03*
X143500000Y-50250000D03*
D18*
X131000000Y-37750000D03*
D19*
%TO.N,+3V3*%
X132450000Y-26450000D03*
D18*
X131000000Y-39750000D03*
%TO.N,LED_BLA*%
X132500000Y-29250000D03*
X124750000Y-22300000D03*
D16*
%TO.N,+5V*%
X121700000Y-48500000D03*
%TO.N,+3V3*%
X131500000Y-52000000D03*
%TO.N,SD_MOSI*%
X72350000Y-27320000D03*
X75000000Y-27320000D03*
X75000000Y-1500000D03*
X141500000Y-1500000D03*
X141500000Y-66000000D03*
X139960000Y-66000000D03*
%TO.N,SD_MISO*%
X72350000Y-26050000D03*
X76000000Y-26050000D03*
X76000000Y-2200000D03*
X145600000Y-2200000D03*
X145600000Y-67500000D03*
X144360000Y-67500000D03*
%TO.N,SD_CLK*%
X72350000Y-33670000D03*
X77000000Y-33670000D03*
X77000000Y-2900000D03*
X152500000Y-2900000D03*
X152500000Y-70500000D03*
X142160000Y-70500000D03*
%TO.N,SD_CS*%
X72350000Y-32400000D03*
X78000000Y-32400000D03*
X78000000Y-3600000D03*
X153500000Y-3600000D03*
X153500000Y-71250000D03*
X138860000Y-71250000D03*
%TO.N,I2S_DOUT*%
X87700000Y-18000000D03*
X33175000Y-18000000D03*
%TO.N,SPK+*%
X24500000Y-21500000D03*
X40900000Y-21500000D03*
%TO.N,SPK-*%
X28095000Y-28100000D03*
X28095000Y-25250000D03*
X28095000Y-23700000D03*
X20500000Y-23700000D03*
%TO.N,+5V*%
X31905000Y-28630000D03*
X29365000Y-28870000D03*
%TO.N,GND*%
X26825000Y-24630000D03*
X26825000Y-34470000D03*
X31905000Y-34470000D03*
X26500000Y-28250000D03*
X26500000Y-29500000D03*
X26500000Y-30750000D03*
%TO.N,PAM_IN_AC*%
X33175000Y-33600000D03*
X37050000Y-33600000D03*
%TO.N,GND*%
X38850000Y-24500000D03*
D19*
%TO.N,+5V*%
X31905000Y-25450000D03*
X38000000Y-27680000D03*
D16*
%TO.N,GND*%
X38000000Y-31400000D03*
X29365000Y-20100000D03*
X31500000Y-39400000D03*
%TO.N,I2S_DOUT*%
X47000000Y-18000000D03*
%TO.N,GND*%
X47000000Y-32500000D03*
X49300000Y-32500000D03*
X49300000Y-38500000D03*
X48500000Y-67000000D03*
D18*
%TO.N,+3V3*%
X54600000Y-53600000D03*
D16*
%TO.N,GND*%
X53750000Y-59750000D03*
%TO.N,PAM_MUTE*%
X30635000Y-22500000D03*
X55950000Y-22500000D03*
%TO.N,USB_D+*%
X80600000Y-65875000D03*
X90200000Y-65875000D03*
%TO.N,USB_D-*%
X79750000Y-64525000D03*
X91650000Y-62800000D03*
%TO.N,GND*%
X90950000Y-61900000D03*
D17*
%TO.N,VBUS*%
X90950000Y-59900000D03*
D16*
%TO.N,USB_CC1*%
X81250000Y-67400000D03*
D19*
X75900000Y-67400000D03*
D16*
%TO.N,GND*%
X73050000Y-65500000D03*
X77000000Y-63800000D03*
D18*
%TO.N,USB_D-*%
X79750000Y-70000000D03*
X80750000Y-70000000D03*
%TO.N,BTN_UP*%
X22200000Y-21650000D03*
X22200000Y-62000000D03*
X67830000Y-62000000D03*
D16*
X67830000Y-31130000D03*
X69250000Y-31130000D03*
%TO.N,GND*%
X16000000Y-25850000D03*
D18*
%TO.N,BTN_DOWN*%
X22950000Y-39650000D03*
X22950000Y-63200000D03*
X65550000Y-63200000D03*
D16*
X65550000Y-29860000D03*
X69250000Y-29860000D03*
%TO.N,GND*%
X16000000Y-43850000D03*
D18*
%TO.N,BTN_LEFT*%
X13200000Y-30650000D03*
X13200000Y-64400000D03*
X63100000Y-64400000D03*
D16*
X63100000Y-28590000D03*
X69250000Y-28590000D03*
%TO.N,GND*%
X7500000Y-34850000D03*
D18*
%TO.N,BTN_RIGHT*%
X35200000Y-30650000D03*
X35200000Y-65600000D03*
X58100000Y-65600000D03*
D16*
X58100000Y-24780000D03*
X69250000Y-24780000D03*
%TO.N,GND*%
X25500000Y-34850000D03*
D18*
%TO.N,BTN_A*%
X130420000Y-20650000D03*
X130420000Y-66800000D03*
X53100000Y-66800000D03*
D16*
X53100000Y-23510000D03*
X69250000Y-23510000D03*
%TO.N,GND*%
X143500000Y-24850000D03*
D18*
%TO.N,BTN_B*%
X142800000Y-30650000D03*
X142800000Y-68000000D03*
X45550000Y-68000000D03*
D16*
X45550000Y-41500000D03*
X73250000Y-41500000D03*
%TO.N,GND*%
X154080000Y-34850000D03*
D18*
%TO.N,BTN_X*%
X129830000Y-40650000D03*
X129830000Y-70810000D03*
X34300000Y-70810000D03*
D16*
X34300000Y-42700000D03*
X73555000Y-42700000D03*
%TO.N,GND*%
X143500000Y-44850000D03*
D18*
%TO.N,BTN_Y*%
X129240000Y-30650000D03*
X129240000Y-71560000D03*
X53600000Y-71560000D03*
X50550000Y-71560000D03*
X27450000Y-71560000D03*
D16*
X27450000Y-43900000D03*
X74825000Y-43900000D03*
%TO.N,GND*%
X140000000Y-49000000D03*
D19*
%TO.N,BTN_START*%
X12200000Y-52650000D03*
X12200000Y-73955000D03*
X100450000Y-73955000D03*
D16*
X100450000Y-34940000D03*
X90750000Y-34940000D03*
%TO.N,GND*%
X6500000Y-56850000D03*
D19*
%TO.N,BTN_SELECT*%
X35950000Y-52650000D03*
X35950000Y-74460000D03*
X60450000Y-74460000D03*
D16*
X60450000Y-45100000D03*
D19*
X73000000Y-44600000D03*
D16*
%TO.N,GND*%
X26500000Y-56850000D03*
%TO.N,BTN_L*%
X16850000Y-7500000D03*
X16850000Y-9500000D03*
D19*
X16850000Y-73420000D03*
X64800000Y-73420000D03*
D16*
X64800000Y-40000000D03*
X73015000Y-38900000D03*
%TO.N,GND*%
X14650000Y-8500000D03*
%TO.N,BTN_R*%
X146850000Y-7500000D03*
X146850000Y-9500000D03*
X146850000Y-65290000D03*
X76200000Y-65290000D03*
X76200000Y-48000000D03*
X87985000Y-48000000D03*
%TO.N,GND*%
X144650000Y-8500000D03*
%TO.N,+3V3*%
X41800000Y-44500000D03*
X46800000Y-44500000D03*
X51800000Y-44500000D03*
X56800000Y-44500000D03*
X61800000Y-44500000D03*
X66800000Y-44500000D03*
X71800000Y-47500000D03*
X76950000Y-44500000D03*
X81800000Y-44500000D03*
X86800000Y-44500000D03*
X96800000Y-44500000D03*
%TO.N,GND*%
X41800000Y-52000000D03*
X46800000Y-52000000D03*
X51800000Y-52000000D03*
X56800000Y-52000000D03*
X61800000Y-52000000D03*
X66800000Y-52000000D03*
X71800000Y-52000000D03*
X76950000Y-52000000D03*
X82200000Y-51500000D03*
X86950000Y-52000000D03*
D18*
X92200000Y-52000000D03*
D16*
X96800000Y-52000000D03*
%TO.N,+3V3*%
X70500000Y-44500000D03*
%TO.N,GND*%
X68600000Y-40000000D03*
%TO.N,+3V3*%
X92950000Y-40600000D03*
%TO.N,GND*%
X91050000Y-40000000D03*
%TO.N,+3V3*%
X91500000Y-18550000D03*
%TO.N,GND*%
X91500000Y-23450000D03*
%TO.N,+3V3*%
X94000000Y-19600000D03*
%TO.N,GND*%
X96200000Y-19600000D03*
%TO.N,+3V3*%
X86000000Y-23550000D03*
%TO.N,GND*%
X86000000Y-28450000D03*
X109050000Y-37700000D03*
X115050000Y-51000000D03*
%TO.N,+5V*%
X113000000Y-56500000D03*
%TO.N,GND*%
X108500000Y-59800000D03*
X108950000Y-40500000D03*
%TO.N,+3V3*%
X24050000Y-63800000D03*
D17*
%TO.N,LED1_RA*%
X25950000Y-66250000D03*
D16*
%TO.N,GND*%
X23150000Y-67500000D03*
%TO.N,+3V3*%
X31050000Y-63800000D03*
D17*
%TO.N,LED2_RA*%
X32950000Y-66250000D03*
D16*
%TO.N,GND*%
X30150000Y-67500000D03*
X131850000Y-58000000D03*
X137850000Y-58000000D03*
X143850000Y-58000000D03*
X149850000Y-58000000D03*
%TO.N,+5V*%
X119750000Y-48750000D03*
%TO.N,+3V3*%
X144250000Y-51600000D03*
%TO.N,LED_HB*%
X97000000Y-31130000D03*
%TO.N,GND*%
X98000000Y-69350000D03*
X92000000Y-69350000D03*
X108000000Y-69350000D03*
X102000000Y-69350000D03*
%TO.N,BTN_SELECT*%
X102000000Y-60000000D03*
%TO.N,MENU_K*%
X101225000Y-62400000D03*
%TO.N,GND*%
X135000000Y-63550000D03*
X148000000Y-66500000D03*
%TO.N,BTN_B*%
X69550000Y-40850000D03*
D18*
%TO.N,BTN_Y*%
X78950000Y-43000000D03*
%TO.N,BTN_R*%
X98950000Y-47350000D03*
%TO.N,BTN_START*%
X83950000Y-43000000D03*
X100450000Y-43000000D03*
D19*
%TO.N,BTN_A*%
X63950000Y-55000000D03*
X53100000Y-55000000D03*
%TO.N,BTN_LEFT*%
X53950000Y-55500000D03*
X63100000Y-55500000D03*
%TO.N,BTN_DOWN*%
X48950000Y-56000000D03*
X65550000Y-56000000D03*
%TO.N,BTN_RIGHT*%
X58950000Y-56500000D03*
X58100000Y-56500000D03*
%TO.N,BTN_UP*%
X43950000Y-57000000D03*
X67830000Y-57000000D03*
%TO.N,BTN_SELECT*%
X88950000Y-58000000D03*
%TO.N,BTN_L*%
X93950000Y-57500000D03*
X64750000Y-57500000D03*
%TO.N,BTN_SELECT*%
X60450000Y-58000000D03*
%TD*%
%TO.N,VBUS*%
D23*
X85000000Y-59900000D02*
X87200000Y-59900000D01*
X87200000Y-59900000D02*
X90950000Y-59900000D01*
X90950000Y-61000000D02*
X111000000Y-61000000D01*
X111000000Y-61000000D02*
X111000000Y-49750000D01*
X111000000Y-49750000D02*
X111000000Y-40095000D01*
X111000000Y-40095000D02*
X111000000Y-39020000D01*
%TO.N,BUCK_FB*%
D24*
X118500000Y-51200000D02*
X116600000Y-51200000D01*
X116600000Y-51200000D02*
X116600000Y-61850000D01*
X116600000Y-61850000D02*
X118950000Y-61850000D01*
%TO.N,BAT+*%
D25*
X105500000Y-46135000D02*
X105500000Y-46100000D01*
X105500000Y-46100000D02*
X107800000Y-46100000D01*
D23*
X105500000Y-46135000D02*
X105500000Y-47210000D01*
X105500000Y-47210000D02*
X104300000Y-47210000D01*
X104300000Y-47210000D02*
X104300000Y-46135000D01*
X105500000Y-47210000D02*
X105500000Y-47550000D01*
X105500000Y-47550000D02*
X106600000Y-47550000D01*
X106600000Y-47550000D02*
X107700000Y-47550000D01*
X107700000Y-47550000D02*
X108800000Y-47550000D01*
X108800000Y-47550000D02*
X109900000Y-47550000D01*
X105500000Y-46135000D02*
X104300000Y-46135000D01*
D26*
X104300000Y-46135000D02*
X80080000Y-46135000D01*
D23*
X80080000Y-46135000D02*
X80080000Y-47300000D01*
X79725000Y-47300000D02*
X80080000Y-47300000D01*
X80080000Y-47300000D02*
X80180000Y-47300000D01*
X80180000Y-47300000D02*
X80750000Y-47300000D01*
X80750000Y-47300000D02*
X81775000Y-47300000D01*
X81775000Y-47300000D02*
X82800000Y-47300000D01*
%TO.N,PWR_SW*%
D24*
X38000000Y-54350000D02*
X84300000Y-54350000D01*
X84300000Y-54350000D02*
X110000000Y-54350000D01*
X112950000Y-55600000D02*
X112950000Y-50600000D01*
X112950000Y-48900000D02*
X112950000Y-43200000D01*
X112950000Y-43200000D02*
X114400000Y-43200000D01*
X114400000Y-43200000D02*
X114400000Y-42000000D01*
X84300000Y-55900000D02*
X84300000Y-54350000D01*
%TO.N,+5V*%
D23*
X105500000Y-48850000D02*
X39000000Y-48850000D01*
%TO.N,LCD_CS*%
D27*
X80635000Y-38115000D02*
X101030000Y-38115000D01*
X110000000Y-38115000D02*
X124000000Y-38115000D01*
X124000000Y-5000000D02*
X140800000Y-5000000D01*
%TO.N,LCD_DC*%
X78095000Y-36845000D02*
X101600000Y-36845000D01*
X108240000Y-36845000D02*
X122900000Y-36845000D01*
X122900000Y-6000000D02*
X140100000Y-6000000D01*
%TO.N,LCD_WR*%
X85715000Y-35575000D02*
X102350000Y-35575000D01*
X102350000Y-35575000D02*
X102350000Y-35000000D01*
X102350000Y-35000000D02*
X107650000Y-35000000D01*
X107650000Y-35000000D02*
X107650000Y-35575000D01*
X107650000Y-35575000D02*
X121800000Y-35575000D01*
X121800000Y-7000000D02*
X139400000Y-7000000D01*
%TO.N,LCD_RST*%
X79365000Y-34305000D02*
X120700000Y-34305000D01*
X120700000Y-8000000D02*
X138700000Y-8000000D01*
%TO.N,LCD_D0*%
X90750000Y-26050000D02*
X119600000Y-26050000D01*
X119600000Y-9000000D02*
X138000000Y-9000000D01*
%TO.N,LCD_D1*%
X90750000Y-27320000D02*
X118500000Y-27320000D01*
X118500000Y-10000000D02*
X137300000Y-10000000D01*
X137300000Y-22480000D02*
X137300000Y-25520000D01*
%TO.N,LCD_D2*%
X90750000Y-28590000D02*
X117400000Y-28590000D01*
X117400000Y-11000000D02*
X136600000Y-11000000D01*
X136600000Y-22200000D02*
X136600000Y-25800000D01*
%TO.N,LCD_D3*%
X90750000Y-29860000D02*
X116300000Y-29860000D01*
X116300000Y-12000000D02*
X135900000Y-12000000D01*
X135900000Y-22480000D02*
X135900000Y-25520000D01*
%TO.N,LCD_D4*%
X90750000Y-36210000D02*
X99500000Y-36210000D01*
X111800000Y-32300000D02*
X115200000Y-32300000D01*
X115200000Y-13000000D02*
X135200000Y-13000000D01*
X135200000Y-22200000D02*
X135200000Y-25800000D01*
%TO.N,LCD_D5*%
X84445000Y-33035000D02*
X114100000Y-33035000D01*
X114100000Y-14000000D02*
X134500000Y-14000000D01*
%TO.N,LCD_D6*%
X83175000Y-32360000D02*
X83175000Y-21500000D01*
X83175000Y-21500000D02*
X113000000Y-21500000D01*
X113000000Y-15000000D02*
X131000000Y-15000000D01*
%TO.N,LCD_D7*%
X81905000Y-32360000D02*
X81905000Y-20500000D01*
X81905000Y-20500000D02*
X111900000Y-20500000D01*
X111900000Y-16000000D02*
X131700000Y-16000000D01*
%TO.N,GND*%
D28*
X132450000Y-43750000D02*
X137800000Y-43750000D01*
X137800000Y-43750000D02*
X137800000Y-45100000D01*
X137800000Y-45100000D02*
X139900000Y-45100000D01*
X139900000Y-45100000D02*
X139900000Y-43750000D01*
X139900000Y-43750000D02*
X143500000Y-43750000D01*
%TO.N,LED_BLA*%
D25*
X124750000Y-22300000D02*
X130500000Y-22300000D01*
X130500000Y-22300000D02*
X130500000Y-29250000D01*
X130500000Y-29250000D02*
X132500000Y-29250000D01*
%TO.N,SD_MOSI*%
D27*
X72350000Y-27320000D02*
X75000000Y-27320000D01*
X75000000Y-1500000D02*
X141500000Y-1500000D01*
X141500000Y-66000000D02*
X139960000Y-66000000D01*
%TO.N,SD_MISO*%
X72350000Y-26050000D02*
X76000000Y-26050000D01*
X76000000Y-2200000D02*
X145600000Y-2200000D01*
X145600000Y-67500000D02*
X144360000Y-67500000D01*
%TO.N,SD_CLK*%
X72350000Y-33670000D02*
X77000000Y-33670000D01*
X77000000Y-2900000D02*
X152500000Y-2900000D01*
X152500000Y-70500000D02*
X142160000Y-70500000D01*
%TO.N,SD_CS*%
X72350000Y-32400000D02*
X78000000Y-32400000D01*
X78000000Y-3600000D02*
X153500000Y-3600000D01*
X153500000Y-71250000D02*
X138860000Y-71250000D01*
%TO.N,I2S_DOUT*%
X87700000Y-18000000D02*
X33175000Y-18000000D01*
%TO.N,SPK+*%
D25*
X24500000Y-21500000D02*
X40900000Y-21500000D01*
%TO.N,SPK-*%
X28095000Y-28100000D02*
X28095000Y-25250000D01*
X28095000Y-23700000D02*
X20500000Y-23700000D01*
%TO.N,PAM_IN_AC*%
D27*
X33175000Y-33600000D02*
X37050000Y-33600000D01*
%TO.N,+5V*%
D29*
X31905000Y-25450000D02*
X38000000Y-25800000D01*
X38000000Y-25800000D02*
X38000000Y-27680000D01*
%TO.N,PAM_MUTE*%
D27*
X30635000Y-22500000D02*
X55950000Y-22500000D01*
%TO.N,USB_D+*%
X80600000Y-65875000D02*
X82000000Y-65875000D01*
X82000000Y-65875000D02*
X82000000Y-66335000D01*
X82000000Y-66335000D02*
X82900000Y-66335000D01*
X82900000Y-66335000D02*
X82900000Y-65875000D01*
X82900000Y-65875000D02*
X83500000Y-65875000D01*
X83500000Y-65875000D02*
X83500000Y-66335000D01*
X83500000Y-66335000D02*
X84400000Y-66335000D01*
X84400000Y-66335000D02*
X84400000Y-65875000D01*
X84400000Y-65875000D02*
X85000000Y-65875000D01*
X85000000Y-65875000D02*
X85000000Y-66335000D01*
X85000000Y-66335000D02*
X85900000Y-66335000D01*
X85900000Y-66335000D02*
X85900000Y-65875000D01*
X85900000Y-65875000D02*
X86500000Y-65875000D01*
X86500000Y-65875000D02*
X86500000Y-66335000D01*
X86500000Y-66335000D02*
X87400000Y-66335000D01*
X87400000Y-66335000D02*
X87400000Y-65875000D01*
X87400000Y-65875000D02*
X88000000Y-65875000D01*
X88000000Y-65875000D02*
X88000000Y-66335000D01*
X88000000Y-66335000D02*
X88900000Y-66335000D01*
X88900000Y-66335000D02*
X88900000Y-65875000D01*
X88900000Y-65875000D02*
X90200000Y-65875000D01*
%TO.N,USB_D-*%
X79750000Y-64525000D02*
X91650000Y-64525000D01*
X91650000Y-64525000D02*
X91650000Y-62800000D01*
%TO.N,VBUS*%
D30*
X90950000Y-59900000D02*
X90950000Y-61000000D01*
%TO.N,USB_CC1*%
D24*
X81250000Y-67400000D02*
X75900000Y-67400000D01*
%TO.N,USB_D-*%
D31*
X79750000Y-70000000D02*
X80750000Y-70000000D01*
%TO.N,BTN_UP*%
D24*
X21000000Y-21650000D02*
X22200000Y-21650000D01*
X22200000Y-62000000D02*
X67830000Y-62000000D01*
X67830000Y-31130000D02*
X69250000Y-31130000D01*
%TO.N,GND*%
D25*
X15000000Y-25350000D02*
X16000000Y-25350000D01*
X16000000Y-25350000D02*
X16000000Y-25850000D01*
%TO.N,BTN_DOWN*%
D24*
X21000000Y-39650000D02*
X22950000Y-39650000D01*
X22950000Y-63200000D02*
X65550000Y-63200000D01*
X65550000Y-29860000D02*
X69250000Y-29860000D01*
%TO.N,GND*%
D25*
X15000000Y-43350000D02*
X16000000Y-43350000D01*
X16000000Y-43350000D02*
X16000000Y-43850000D01*
%TO.N,BTN_LEFT*%
D24*
X12000000Y-30650000D02*
X13200000Y-30650000D01*
X13200000Y-64400000D02*
X63100000Y-64400000D01*
X63100000Y-28590000D02*
X69250000Y-28590000D01*
%TO.N,GND*%
D25*
X6000000Y-34350000D02*
X7500000Y-34350000D01*
X7500000Y-34350000D02*
X7500000Y-34850000D01*
%TO.N,BTN_RIGHT*%
D24*
X30000000Y-30650000D02*
X35200000Y-30650000D01*
X35200000Y-65600000D02*
X50400000Y-65600000D01*
D27*
X50400000Y-65600000D02*
X50400000Y-64800000D01*
X50400000Y-64800000D02*
X53600000Y-64800000D01*
X53600000Y-64800000D02*
X53600000Y-65600000D01*
D24*
X53600000Y-65600000D02*
X58100000Y-65600000D01*
X58100000Y-24780000D02*
X69250000Y-24780000D01*
%TO.N,GND*%
D25*
X24000000Y-34350000D02*
X25500000Y-34350000D01*
X25500000Y-34350000D02*
X25500000Y-34850000D01*
%TO.N,BTN_A*%
D24*
X139000000Y-20650000D02*
X130420000Y-20650000D01*
X130420000Y-66800000D02*
X53100000Y-66800000D01*
X53100000Y-23510000D02*
X69250000Y-23510000D01*
%TO.N,GND*%
D25*
X145000000Y-24350000D02*
X143500000Y-24350000D01*
X143500000Y-24350000D02*
X143500000Y-24850000D01*
%TO.N,BTN_B*%
D24*
X149000000Y-30650000D02*
X142800000Y-30650000D01*
X45550000Y-68000000D02*
X74700000Y-68000000D01*
D31*
X74700000Y-68000000D02*
X74700000Y-67983000D01*
X74700000Y-67983000D02*
X76650000Y-67983000D01*
X76650000Y-67983000D02*
X76650000Y-68000000D01*
D24*
X76650000Y-68000000D02*
X83350000Y-68000000D01*
D31*
X83350000Y-68000000D02*
X83350000Y-67983000D01*
X83350000Y-67983000D02*
X85300000Y-67983000D01*
X85300000Y-67983000D02*
X85300000Y-68000000D01*
D24*
X85300000Y-68000000D02*
X142800000Y-68000000D01*
X45550000Y-41500000D02*
X69550000Y-41500000D01*
X69550000Y-41500000D02*
X73250000Y-41500000D01*
%TO.N,GND*%
D25*
X155000000Y-34350000D02*
X154080000Y-34350000D01*
X154080000Y-34350000D02*
X154080000Y-34850000D01*
%TO.N,BTN_X*%
D24*
X139000000Y-40650000D02*
X129830000Y-40650000D01*
X129830000Y-70810000D02*
X34300000Y-70810000D01*
X34300000Y-42700000D02*
X73555000Y-42700000D01*
%TO.N,GND*%
D25*
X145000000Y-44350000D02*
X143500000Y-44350000D01*
X143500000Y-44350000D02*
X143500000Y-44850000D01*
%TO.N,BTN_Y*%
D24*
X130000000Y-30650000D02*
X129240000Y-30650000D01*
X129240000Y-71560000D02*
X53600000Y-71560000D01*
X50550000Y-71560000D02*
X27450000Y-71560000D01*
X27450000Y-43900000D02*
X74825000Y-43900000D01*
%TO.N,GND*%
D25*
X136000000Y-34350000D02*
X140000000Y-34350000D01*
X140000000Y-34350000D02*
X140000000Y-49000000D01*
%TO.N,BTN_START*%
D24*
X11000000Y-52650000D02*
X12200000Y-52650000D01*
D27*
X12200000Y-73955000D02*
X74470000Y-73955000D01*
D24*
X74470000Y-73955000D02*
X74470000Y-72200000D01*
X74470000Y-72200000D02*
X76880000Y-72200000D01*
X76880000Y-72200000D02*
X76880000Y-73955000D01*
X76880000Y-73955000D02*
X83120000Y-73955000D01*
X83120000Y-73955000D02*
X83120000Y-72200000D01*
X83120000Y-72200000D02*
X85530000Y-72200000D01*
X85530000Y-72200000D02*
X85530000Y-73955000D01*
X85530000Y-73955000D02*
X100450000Y-73955000D01*
X100450000Y-34940000D02*
X90750000Y-34940000D01*
%TO.N,GND*%
D25*
X5000000Y-56350000D02*
X6500000Y-56350000D01*
X6500000Y-56350000D02*
X6500000Y-56850000D01*
%TO.N,BTN_SELECT*%
D24*
X31000000Y-52650000D02*
X35950000Y-52650000D01*
X35950000Y-74460000D02*
X60450000Y-74460000D01*
X60450000Y-45100000D02*
X73000000Y-45100000D01*
X73000000Y-45100000D02*
X73000000Y-44600000D01*
%TO.N,GND*%
D25*
X25000000Y-56350000D02*
X26500000Y-56350000D01*
X26500000Y-56350000D02*
X26500000Y-56850000D01*
%TO.N,BTN_L*%
D24*
X16850000Y-7500000D02*
X16850000Y-9500000D01*
D27*
X16850000Y-73420000D02*
X64800000Y-73420000D01*
X64800000Y-40000000D02*
X64800000Y-38500000D01*
X64800000Y-38500000D02*
X73015000Y-38500000D01*
X73015000Y-38500000D02*
X73015000Y-38900000D01*
%TO.N,BTN_R*%
D24*
X146850000Y-7500000D02*
X146850000Y-9500000D01*
D27*
X146850000Y-65290000D02*
X146500000Y-65290000D01*
X146500000Y-65290000D02*
X146500000Y-64500000D01*
X146500000Y-64500000D02*
X137000000Y-64500000D01*
X137000000Y-64500000D02*
X137000000Y-65290000D01*
X137000000Y-65290000D02*
X76200000Y-65290000D01*
X76200000Y-48000000D02*
X87985000Y-48000000D01*
%TO.N,LED1_RA*%
D24*
X25950000Y-66250000D02*
X25950000Y-67500000D01*
%TO.N,GND*%
D25*
X24050000Y-67500000D02*
X23150000Y-67500000D01*
%TO.N,LED2_RA*%
D24*
X32950000Y-66250000D02*
X32950000Y-67500000D01*
%TO.N,GND*%
D25*
X31050000Y-67500000D02*
X30150000Y-67500000D01*
%TO.N,LED3_RA*%
D24*
X134950000Y-54000000D02*
X134950000Y-58000000D01*
%TO.N,GND*%
D25*
X133050000Y-58000000D02*
X131850000Y-58000000D01*
%TO.N,LED4_RA*%
D24*
X140950000Y-54000000D02*
X140950000Y-58000000D01*
%TO.N,GND*%
D25*
X139050000Y-58000000D02*
X137850000Y-58000000D01*
%TO.N,LED5_RA*%
D24*
X146950000Y-54000000D02*
X146950000Y-58000000D01*
%TO.N,GND*%
D25*
X145050000Y-58000000D02*
X143850000Y-58000000D01*
%TO.N,LED6_RA*%
D24*
X152950000Y-54000000D02*
X152950000Y-58000000D01*
%TO.N,GND*%
D25*
X151050000Y-58000000D02*
X149850000Y-58000000D01*
%TO.N,VBUS*%
D29*
X111000000Y-49750000D02*
X116250000Y-49750000D01*
X116250000Y-49750000D02*
X116250000Y-50000000D01*
X116250000Y-50000000D02*
X119750000Y-50000000D01*
X119750000Y-50000000D02*
X119750000Y-54000000D01*
X119750000Y-54000000D02*
X121250000Y-54000000D01*
X121250000Y-54000000D02*
X121250000Y-54750000D01*
X121250000Y-54750000D02*
X123750000Y-54750000D01*
X123750000Y-54750000D02*
X123750000Y-54000000D01*
X123750000Y-54000000D02*
X133050000Y-54000000D01*
%TO.N,+5V*%
D24*
X119750000Y-48750000D02*
X119750000Y-49250000D01*
X119750000Y-49250000D02*
X123750000Y-49250000D01*
X123750000Y-49250000D02*
X123750000Y-50750000D01*
X123750000Y-50750000D02*
X133250000Y-50750000D01*
X133250000Y-50750000D02*
X133250000Y-52500000D01*
X133250000Y-52500000D02*
X136250000Y-52500000D01*
X136250000Y-52500000D02*
X136250000Y-54000000D01*
X136250000Y-54000000D02*
X139050000Y-54000000D01*
%TO.N,+3V3*%
D25*
X145050000Y-54000000D02*
X145050000Y-51600000D01*
X145050000Y-51600000D02*
X144250000Y-51600000D01*
%TO.N,LED_HB*%
D24*
X97000000Y-31130000D02*
X123500000Y-31130000D01*
X123500000Y-31130000D02*
X123500000Y-21000000D01*
X123500000Y-21000000D02*
X129250000Y-21000000D01*
X129250000Y-21000000D02*
X129250000Y-19500000D01*
X129250000Y-19500000D02*
X140250000Y-19500000D01*
X140250000Y-19500000D02*
X140250000Y-33500000D01*
X140250000Y-33500000D02*
X141000000Y-33500000D01*
X141000000Y-33500000D02*
X141000000Y-42500000D01*
X141000000Y-42500000D02*
X144750000Y-42500000D01*
X144750000Y-42500000D02*
X144750000Y-43250000D01*
X144750000Y-43250000D02*
X146250000Y-43250000D01*
X146250000Y-43250000D02*
X146250000Y-52500000D01*
X146250000Y-52500000D02*
X148250000Y-52500000D01*
X148250000Y-52500000D02*
X148250000Y-54000000D01*
X148250000Y-54000000D02*
X151050000Y-54000000D01*
%TO.N,MENU_K*%
X101225000Y-62400000D02*
X137000000Y-62400000D01*
X137000000Y-62400000D02*
X137000000Y-59850000D01*
X137000000Y-59850000D02*
X139000000Y-59850000D01*
X139000000Y-59850000D02*
X145000000Y-59850000D01*
%TO.N,GND*%
D25*
X139000000Y-63550000D02*
X135000000Y-63550000D01*
X145000000Y-63550000D02*
X148000000Y-63550000D01*
X148000000Y-63550000D02*
X148000000Y-66500000D01*
%TO.N,BTN_B*%
D24*
X69550000Y-40850000D02*
X69550000Y-41500000D01*
%TO.N,BTN_Y*%
X78950000Y-43000000D02*
X74825000Y-43900000D01*
%TO.N,BTN_R*%
X98950000Y-47350000D02*
X98950000Y-48000000D01*
X98950000Y-48000000D02*
X87985000Y-48000000D01*
%TO.N,BTN_START*%
X83950000Y-43000000D02*
X100450000Y-43000000D01*
%TO.N,BTN_A*%
D27*
X63950000Y-55000000D02*
X53100000Y-55000000D01*
%TO.N,BTN_LEFT*%
X53950000Y-55500000D02*
X63100000Y-55500000D01*
%TO.N,BTN_DOWN*%
X48950000Y-56000000D02*
X65550000Y-56000000D01*
%TO.N,BTN_RIGHT*%
X58950000Y-56500000D02*
X58100000Y-56500000D01*
%TO.N,BTN_UP*%
X43950000Y-57000000D02*
X67830000Y-57000000D01*
%TO.N,BTN_L*%
X93950000Y-57500000D02*
X64750000Y-57500000D01*
%TO.N,BTN_SELECT*%
X102000000Y-60000000D02*
X102000000Y-58000000D01*
X102000000Y-58000000D02*
X60450000Y-58000000D01*
%TD*%
M02*
