M48
; DRILL file {KiCad 9.0.7} date 2026-02-26T09:32:30+0100
; FORMAT={-:-/ absolute / metric / decimal}
; #@! TF.CreationDate,2026-02-26T09:32:30+01:00
; #@! TF.GenerationSoftware,Kicad,Pcbnew,9.0.7
; #@! TF.FileFunction,MixedPlating,1,4
FMAT,2
METRIC
; #@! TA.AperFunction,Plated,PTH,ViaDrill
T1C0.200
; #@! TA.AperFunction,Plated,PTH,ViaDrill
T2C0.350
; #@! TA.AperFunction,Plated,PTH,ComponentDrill
T3C0.650
; #@! TA.AperFunction,Plated,PTH,ComponentDrill
T4C0.750
; #@! TA.AperFunction,Plated,PTH,ComponentDrill
T5C2.500
%
G90
G05
T1
X5.0Y-56.35
X6.0Y-34.35
X15.0Y-25.35
X15.0Y-43.35
X24.0Y-34.35
X25.0Y-56.35
X109.7Y-18.0
X109.7Y-30.0
X110.8Y-17.0
X110.8Y-31.0
X111.9Y-16.0
X111.9Y-32.0
X113.0Y-15.0
X113.0Y-33.0
X114.1Y-14.0
X114.1Y-34.0
X115.2Y-13.0
X115.2Y-35.0
X116.3Y-12.0
X116.3Y-36.0
X117.4Y-11.0
X117.4Y-37.0
X118.5Y-10.0
X118.5Y-38.0
X119.6Y-9.0
X119.6Y-36.21
X120.7Y-8.0
X120.7Y-29.86
X121.8Y-7.0
X121.8Y-28.59
X122.9Y-6.0
X122.9Y-27.32
X124.0Y-5.0
X124.0Y-26.05
X130.0Y-37.25
X130.65Y-36.75
X131.3Y-36.25
X131.95Y-35.75
X132.6Y-35.25
X133.25Y-34.75
X133.85Y-23.75
X133.85Y-25.25
X133.85Y-27.75
X133.85Y-30.25
X133.85Y-39.75
X133.85Y-43.25
X133.85Y-44.25
X133.9Y-34.25
X134.55Y-33.75
X135.0Y-34.35
X135.2Y-38.25
X135.85Y-41.25
X136.5Y-40.75
X137.15Y-40.25
X137.8Y-39.75
X138.45Y-29.25
X139.85Y-25.75
X139.85Y-28.25
X139.85Y-30.75
X139.85Y-39.75
X145.0Y-24.35
X145.0Y-44.35
X155.0Y-34.35
T2
X12.0Y-52.65
X12.0Y-70.0
X13.0Y-30.65
X13.0Y-64.0
X13.15Y-68.0
X16.85Y-2.5
X20.5Y-21.0
X22.0Y-21.65
X22.0Y-62.0
X23.0Y-39.65
X23.0Y-63.0
X24.05Y-66.25
X25.95Y-63.0
X26.825Y-33.67
X27.45Y-67.5
X28.095Y-22.85
X28.095Y-36.15
X30.635Y-22.85
X31.0Y-30.65
X31.0Y-65.0
X31.05Y-66.25
X31.905Y-21.0
X32.0Y-52.65
X32.0Y-71.0
X32.95Y-63.0
X33.175Y-22.85
X33.175Y-36.15
X34.45Y-67.5
X35.945Y-23.0
X39.25Y-68.05
X39.5Y-23.0
X42.05Y-46.0
X42.05Y-52.0
X47.05Y-46.0
X47.05Y-52.0
X50.0Y-20.0
X50.0Y-36.21
X51.0Y-21.0
X51.0Y-34.94
X52.0Y-22.0
X52.0Y-33.67
X52.05Y-46.0
X52.05Y-52.0
X53.0Y-23.0
X53.0Y-32.4
X57.05Y-46.0
X57.05Y-52.0
X60.25Y-35.0
X60.25Y-71.0
X62.05Y-46.0
X62.05Y-52.0
X65.15Y-26.05
X65.15Y-66.0
X66.15Y-27.32
X66.15Y-65.0
X67.05Y-46.0
X67.05Y-52.0
X67.15Y-28.59
X67.15Y-64.0
X68.15Y-29.86
X68.15Y-63.0
X68.25Y-32.4
X68.75Y-33.67
X69.05Y-40.0
X69.25Y-34.94
X69.25Y-68.0
X69.75Y-31.13
X69.75Y-36.21
X69.75Y-62.0
X70.75Y-38.0
X70.75Y-67.0
X70.95Y-42.0
X71.25Y-26.05
X71.25Y-27.32
X71.25Y-28.59
X71.25Y-29.86
X71.25Y-31.13
X71.25Y-35.0
X71.75Y-36.0
X71.75Y-37.0
X71.75Y-68.0
X71.75Y-69.0
X72.05Y-46.0
X72.05Y-52.0
X73.015Y-30.0
X73.05Y-66.255
X74.285Y-38.0
X75.555Y-37.0
X76.8Y-66.255
X76.825Y-36.0
X77.0Y-57.5
X77.05Y-46.0
X77.05Y-52.0
X78.095Y-33.0
X79.365Y-35.0
X79.75Y-64.255
X80.25Y-65.255
X80.635Y-34.0
X81.0Y-46.135
X81.5Y-31.96
X81.905Y-36.0
X82.05Y-46.0
X82.05Y-52.0
X82.4Y-66.255
X83.175Y-37.0
X84.05Y-40.0
X84.445Y-38.0
X85.05Y-66.255
X85.715Y-32.0
X85.95Y-42.0
X86.985Y-31.0
X87.05Y-46.0
X87.05Y-52.0
X87.25Y-33.67
X88.75Y-21.51
X88.75Y-34.94
X90.75Y-26.05
X90.75Y-27.32
X90.75Y-28.59
X90.75Y-29.86
X90.75Y-36.21
X90.75Y-65.255
X91.75Y-64.255
X92.05Y-46.0
X92.05Y-52.0
X97.05Y-46.0
X97.05Y-52.0
X98.0Y-49.35
X98.15Y-34.94
X98.15Y-70.0
X102.05Y-46.0
X102.05Y-52.0
X107.0Y-38.595
X107.0Y-46.135
X108.5Y-60.5
X109.05Y-37.0
X110.0Y-45.5
X110.95Y-33.0
X111.0Y-40.595
X111.5Y-56.5
X111.7Y-50.5
X115.05Y-39.5
X115.95Y-54.5
X116.95Y-35.5
X122.7Y-56.65
X123.0Y-49.35
X123.5Y-62.5
X124.05Y-48.5
X125.95Y-48.5
X127.3Y-60.65
X129.6Y-30.65
X129.6Y-69.0
X135.0Y-61.55
X136.0Y-60.55
X137.0Y-59.55
X138.0Y-20.65
X138.0Y-58.55
X138.0Y-66.0
X139.0Y-40.65
X139.0Y-68.0
X148.0Y-30.65
X148.0Y-67.0
T3
X75.68Y-68.895
X75.68Y-73.075
X84.32Y-68.895
X84.32Y-73.075
T4
X79.0Y-57.5
X81.0Y-57.5
T5
X10.0Y-7.0
X10.0Y-68.0
X55.0Y-37.5
X105.0Y-37.5
X150.0Y-7.0
X150.0Y-68.0
M30
