%TF.GenerationSoftware,KiCad,Pcbnew,9.0.7*%
%TF.CreationDate,2026-02-26T14:37:55+01:00*%
%TF.ProjectId,esp32-emu-turbo,65737033-322d-4656-9d75-2d747572626f,rev?*%
%TF.SameCoordinates,Original*%
%TF.FileFunction,Legend,Top*%
%TF.FilePolarity,Positive*%
%FSLAX46Y46*%
G04 Gerber Fmt 4.6, Leading zero omitted, Abs format (unit mm)*
G04 Created by KiCad (PCBNEW 9.0.7) date 2026-02-26 14:37:55*
%MOMM*%
%LPD*%
G01*
G04 APERTURE LIST*
%ADD10C,0.200000*%
%ADD11C,0.150000*%
G04 APERTURE END LIST*
D10*
X36800000Y-3100000D02*
X123200000Y-3100000D01*
X123200000Y-3100000D02*
X123200000Y-67900000D01*
X123200000Y-67900000D02*
X36800000Y-67900000D01*
X36800000Y-67900000D02*
X36800000Y-3100000D01*
X68500000Y-552219D02*
X68500000Y447780D01*
X68500000Y447780D02*
X68738095Y447780D01*
X68738095Y447780D02*
X68880952Y400161D01*
X68880952Y400161D02*
X68976190Y304923D01*
X68976190Y304923D02*
X69023809Y209685D01*
X69023809Y209685D02*
X69071428Y19209D01*
X69071428Y19209D02*
X69071428Y-123647D01*
X69071428Y-123647D02*
X69023809Y-314123D01*
X69023809Y-314123D02*
X68976190Y-409361D01*
X68976190Y-409361D02*
X68880952Y-504600D01*
X68880952Y-504600D02*
X68738095Y-552219D01*
X68738095Y-552219D02*
X68500000Y-552219D01*
X69500000Y-552219D02*
X69500000Y447780D01*
X69928571Y-504600D02*
X70071428Y-552219D01*
X70071428Y-552219D02*
X70309523Y-552219D01*
X70309523Y-552219D02*
X70404761Y-504600D01*
X70404761Y-504600D02*
X70452380Y-456980D01*
X70452380Y-456980D02*
X70499999Y-361742D01*
X70499999Y-361742D02*
X70499999Y-266504D01*
X70499999Y-266504D02*
X70452380Y-171266D01*
X70452380Y-171266D02*
X70404761Y-123647D01*
X70404761Y-123647D02*
X70309523Y-76028D01*
X70309523Y-76028D02*
X70119047Y-28409D01*
X70119047Y-28409D02*
X70023809Y19209D01*
X70023809Y19209D02*
X69976190Y66828D01*
X69976190Y66828D02*
X69928571Y162066D01*
X69928571Y162066D02*
X69928571Y257304D01*
X69928571Y257304D02*
X69976190Y352542D01*
X69976190Y352542D02*
X70023809Y400161D01*
X70023809Y400161D02*
X70119047Y447780D01*
X70119047Y447780D02*
X70357142Y447780D01*
X70357142Y447780D02*
X70499999Y400161D01*
X70928571Y-552219D02*
X70928571Y447780D01*
X70928571Y447780D02*
X71309523Y447780D01*
X71309523Y447780D02*
X71404761Y400161D01*
X71404761Y400161D02*
X71452380Y352542D01*
X71452380Y352542D02*
X71499999Y257304D01*
X71499999Y257304D02*
X71499999Y114447D01*
X71499999Y114447D02*
X71452380Y19209D01*
X71452380Y19209D02*
X71404761Y-28409D01*
X71404761Y-28409D02*
X71309523Y-76028D01*
X71309523Y-76028D02*
X70928571Y-76028D01*
X72404761Y-552219D02*
X71928571Y-552219D01*
X71928571Y-552219D02*
X71928571Y447780D01*
X72690476Y-266504D02*
X73166666Y-266504D01*
X72595238Y-552219D02*
X72928571Y447780D01*
X72928571Y447780D02*
X73261904Y-552219D01*
X73785714Y-76028D02*
X73785714Y-552219D01*
X73452381Y447780D02*
X73785714Y-76028D01*
X73785714Y-76028D02*
X74119047Y447780D01*
X75166667Y-266504D02*
X75642857Y-266504D01*
X75071429Y-552219D02*
X75404762Y447780D01*
X75404762Y447780D02*
X75738095Y-552219D01*
X76642857Y-552219D02*
X76309524Y-76028D01*
X76071429Y-552219D02*
X76071429Y447780D01*
X76071429Y447780D02*
X76452381Y447780D01*
X76452381Y447780D02*
X76547619Y400161D01*
X76547619Y400161D02*
X76595238Y352542D01*
X76595238Y352542D02*
X76642857Y257304D01*
X76642857Y257304D02*
X76642857Y114447D01*
X76642857Y114447D02*
X76595238Y19209D01*
X76595238Y19209D02*
X76547619Y-28409D01*
X76547619Y-28409D02*
X76452381Y-76028D01*
X76452381Y-76028D02*
X76071429Y-76028D01*
X77071429Y-28409D02*
X77404762Y-28409D01*
X77547619Y-552219D02*
X77071429Y-552219D01*
X77071429Y-552219D02*
X77071429Y447780D01*
X77071429Y447780D02*
X77547619Y447780D01*
X77928572Y-266504D02*
X78404762Y-266504D01*
X77833334Y-552219D02*
X78166667Y447780D01*
X78166667Y447780D02*
X78500000Y-552219D01*
X79880953Y-933171D02*
X79833334Y-885552D01*
X79833334Y-885552D02*
X79738096Y-742695D01*
X79738096Y-742695D02*
X79690477Y-647457D01*
X79690477Y-647457D02*
X79642858Y-504600D01*
X79642858Y-504600D02*
X79595239Y-266504D01*
X79595239Y-266504D02*
X79595239Y-76028D01*
X79595239Y-76028D02*
X79642858Y162066D01*
X79642858Y162066D02*
X79690477Y304923D01*
X79690477Y304923D02*
X79738096Y400161D01*
X79738096Y400161D02*
X79833334Y543019D01*
X79833334Y543019D02*
X79880953Y590638D01*
X80261906Y-552219D02*
X80261906Y447780D01*
X81214286Y-552219D02*
X80738096Y-552219D01*
X80738096Y-552219D02*
X80738096Y447780D01*
X81547620Y-552219D02*
X81547620Y447780D01*
X82071429Y-552219D02*
X82261905Y-552219D01*
X82261905Y-552219D02*
X82357143Y-504600D01*
X82357143Y-504600D02*
X82404762Y-456980D01*
X82404762Y-456980D02*
X82500000Y-314123D01*
X82500000Y-314123D02*
X82547619Y-123647D01*
X82547619Y-123647D02*
X82547619Y257304D01*
X82547619Y257304D02*
X82500000Y352542D01*
X82500000Y352542D02*
X82452381Y400161D01*
X82452381Y400161D02*
X82357143Y447780D01*
X82357143Y447780D02*
X82166667Y447780D01*
X82166667Y447780D02*
X82071429Y400161D01*
X82071429Y400161D02*
X82023810Y352542D01*
X82023810Y352542D02*
X81976191Y257304D01*
X81976191Y257304D02*
X81976191Y19209D01*
X81976191Y19209D02*
X82023810Y-76028D01*
X82023810Y-76028D02*
X82071429Y-123647D01*
X82071429Y-123647D02*
X82166667Y-171266D01*
X82166667Y-171266D02*
X82357143Y-171266D01*
X82357143Y-171266D02*
X82452381Y-123647D01*
X82452381Y-123647D02*
X82500000Y-76028D01*
X82500000Y-76028D02*
X82547619Y19209D01*
X83404762Y114447D02*
X83404762Y-552219D01*
X83166667Y495400D02*
X82928572Y-218885D01*
X82928572Y-218885D02*
X83547619Y-218885D01*
X84071429Y19209D02*
X83976191Y66828D01*
X83976191Y66828D02*
X83928572Y114447D01*
X83928572Y114447D02*
X83880953Y209685D01*
X83880953Y209685D02*
X83880953Y257304D01*
X83880953Y257304D02*
X83928572Y352542D01*
X83928572Y352542D02*
X83976191Y400161D01*
X83976191Y400161D02*
X84071429Y447780D01*
X84071429Y447780D02*
X84261905Y447780D01*
X84261905Y447780D02*
X84357143Y400161D01*
X84357143Y400161D02*
X84404762Y352542D01*
X84404762Y352542D02*
X84452381Y257304D01*
X84452381Y257304D02*
X84452381Y209685D01*
X84452381Y209685D02*
X84404762Y114447D01*
X84404762Y114447D02*
X84357143Y66828D01*
X84357143Y66828D02*
X84261905Y19209D01*
X84261905Y19209D02*
X84071429Y19209D01*
X84071429Y19209D02*
X83976191Y-28409D01*
X83976191Y-28409D02*
X83928572Y-76028D01*
X83928572Y-76028D02*
X83880953Y-171266D01*
X83880953Y-171266D02*
X83880953Y-361742D01*
X83880953Y-361742D02*
X83928572Y-456980D01*
X83928572Y-456980D02*
X83976191Y-504600D01*
X83976191Y-504600D02*
X84071429Y-552219D01*
X84071429Y-552219D02*
X84261905Y-552219D01*
X84261905Y-552219D02*
X84357143Y-504600D01*
X84357143Y-504600D02*
X84404762Y-456980D01*
X84404762Y-456980D02*
X84452381Y-361742D01*
X84452381Y-361742D02*
X84452381Y-171266D01*
X84452381Y-171266D02*
X84404762Y-76028D01*
X84404762Y-76028D02*
X84357143Y-28409D01*
X84357143Y-28409D02*
X84261905Y19209D01*
X85023810Y19209D02*
X84928572Y66828D01*
X84928572Y66828D02*
X84880953Y114447D01*
X84880953Y114447D02*
X84833334Y209685D01*
X84833334Y209685D02*
X84833334Y257304D01*
X84833334Y257304D02*
X84880953Y352542D01*
X84880953Y352542D02*
X84928572Y400161D01*
X84928572Y400161D02*
X85023810Y447780D01*
X85023810Y447780D02*
X85214286Y447780D01*
X85214286Y447780D02*
X85309524Y400161D01*
X85309524Y400161D02*
X85357143Y352542D01*
X85357143Y352542D02*
X85404762Y257304D01*
X85404762Y257304D02*
X85404762Y209685D01*
X85404762Y209685D02*
X85357143Y114447D01*
X85357143Y114447D02*
X85309524Y66828D01*
X85309524Y66828D02*
X85214286Y19209D01*
X85214286Y19209D02*
X85023810Y19209D01*
X85023810Y19209D02*
X84928572Y-28409D01*
X84928572Y-28409D02*
X84880953Y-76028D01*
X84880953Y-76028D02*
X84833334Y-171266D01*
X84833334Y-171266D02*
X84833334Y-361742D01*
X84833334Y-361742D02*
X84880953Y-456980D01*
X84880953Y-456980D02*
X84928572Y-504600D01*
X84928572Y-504600D02*
X85023810Y-552219D01*
X85023810Y-552219D02*
X85214286Y-552219D01*
X85214286Y-552219D02*
X85309524Y-504600D01*
X85309524Y-504600D02*
X85357143Y-456980D01*
X85357143Y-456980D02*
X85404762Y-361742D01*
X85404762Y-361742D02*
X85404762Y-171266D01*
X85404762Y-171266D02*
X85357143Y-76028D01*
X85357143Y-76028D02*
X85309524Y-28409D01*
X85309524Y-28409D02*
X85214286Y19209D01*
X86500001Y447780D02*
X87119048Y447780D01*
X87119048Y447780D02*
X86785715Y66828D01*
X86785715Y66828D02*
X86928572Y66828D01*
X86928572Y66828D02*
X87023810Y19209D01*
X87023810Y19209D02*
X87071429Y-28409D01*
X87071429Y-28409D02*
X87119048Y-123647D01*
X87119048Y-123647D02*
X87119048Y-361742D01*
X87119048Y-361742D02*
X87071429Y-456980D01*
X87071429Y-456980D02*
X87023810Y-504600D01*
X87023810Y-504600D02*
X86928572Y-552219D01*
X86928572Y-552219D02*
X86642858Y-552219D01*
X86642858Y-552219D02*
X86547620Y-504600D01*
X86547620Y-504600D02*
X86500001Y-456980D01*
X87547620Y-456980D02*
X87595239Y-504600D01*
X87595239Y-504600D02*
X87547620Y-552219D01*
X87547620Y-552219D02*
X87500001Y-504600D01*
X87500001Y-504600D02*
X87547620Y-456980D01*
X87547620Y-456980D02*
X87547620Y-552219D01*
X88071429Y-552219D02*
X88261905Y-552219D01*
X88261905Y-552219D02*
X88357143Y-504600D01*
X88357143Y-504600D02*
X88404762Y-456980D01*
X88404762Y-456980D02*
X88500000Y-314123D01*
X88500000Y-314123D02*
X88547619Y-123647D01*
X88547619Y-123647D02*
X88547619Y257304D01*
X88547619Y257304D02*
X88500000Y352542D01*
X88500000Y352542D02*
X88452381Y400161D01*
X88452381Y400161D02*
X88357143Y447780D01*
X88357143Y447780D02*
X88166667Y447780D01*
X88166667Y447780D02*
X88071429Y400161D01*
X88071429Y400161D02*
X88023810Y352542D01*
X88023810Y352542D02*
X87976191Y257304D01*
X87976191Y257304D02*
X87976191Y19209D01*
X87976191Y19209D02*
X88023810Y-76028D01*
X88023810Y-76028D02*
X88071429Y-123647D01*
X88071429Y-123647D02*
X88166667Y-171266D01*
X88166667Y-171266D02*
X88357143Y-171266D01*
X88357143Y-171266D02*
X88452381Y-123647D01*
X88452381Y-123647D02*
X88500000Y-76028D01*
X88500000Y-76028D02*
X88547619Y19209D01*
X89452381Y447780D02*
X88976191Y447780D01*
X88976191Y447780D02*
X88928572Y-28409D01*
X88928572Y-28409D02*
X88976191Y19209D01*
X88976191Y19209D02*
X89071429Y66828D01*
X89071429Y66828D02*
X89309524Y66828D01*
X89309524Y66828D02*
X89404762Y19209D01*
X89404762Y19209D02*
X89452381Y-28409D01*
X89452381Y-28409D02*
X89500000Y-123647D01*
X89500000Y-123647D02*
X89500000Y-361742D01*
X89500000Y-361742D02*
X89452381Y-456980D01*
X89452381Y-456980D02*
X89404762Y-504600D01*
X89404762Y-504600D02*
X89309524Y-552219D01*
X89309524Y-552219D02*
X89071429Y-552219D01*
X89071429Y-552219D02*
X88976191Y-504600D01*
X88976191Y-504600D02*
X88928572Y-456980D01*
X89928572Y-552219D02*
X89928572Y114447D01*
X89928572Y447780D02*
X89880953Y400161D01*
X89880953Y400161D02*
X89928572Y352542D01*
X89928572Y352542D02*
X89976191Y400161D01*
X89976191Y400161D02*
X89928572Y447780D01*
X89928572Y447780D02*
X89928572Y352542D01*
X90404762Y114447D02*
X90404762Y-552219D01*
X90404762Y19209D02*
X90452381Y66828D01*
X90452381Y66828D02*
X90547619Y114447D01*
X90547619Y114447D02*
X90690476Y114447D01*
X90690476Y114447D02*
X90785714Y66828D01*
X90785714Y66828D02*
X90833333Y-28409D01*
X90833333Y-28409D02*
X90833333Y-552219D01*
X91214286Y-933171D02*
X91261905Y-885552D01*
X91261905Y-885552D02*
X91357143Y-742695D01*
X91357143Y-742695D02*
X91404762Y-647457D01*
X91404762Y-647457D02*
X91452381Y-504600D01*
X91452381Y-504600D02*
X91500000Y-266504D01*
X91500000Y-266504D02*
X91500000Y-76028D01*
X91500000Y-76028D02*
X91452381Y162066D01*
X91452381Y162066D02*
X91404762Y304923D01*
X91404762Y304923D02*
X91357143Y400161D01*
X91357143Y400161D02*
X91261905Y543019D01*
X91261905Y543019D02*
X91214286Y590638D01*
X62250000Y-67397814D02*
X62750000Y-67397814D01*
X62964286Y-68183528D02*
X62250000Y-68183528D01*
X62250000Y-68183528D02*
X62250000Y-66683528D01*
X62250000Y-66683528D02*
X62964286Y-66683528D01*
X63535715Y-68112100D02*
X63750001Y-68183528D01*
X63750001Y-68183528D02*
X64107143Y-68183528D01*
X64107143Y-68183528D02*
X64250001Y-68112100D01*
X64250001Y-68112100D02*
X64321429Y-68040671D01*
X64321429Y-68040671D02*
X64392858Y-67897814D01*
X64392858Y-67897814D02*
X64392858Y-67754957D01*
X64392858Y-67754957D02*
X64321429Y-67612100D01*
X64321429Y-67612100D02*
X64250001Y-67540671D01*
X64250001Y-67540671D02*
X64107143Y-67469242D01*
X64107143Y-67469242D02*
X63821429Y-67397814D01*
X63821429Y-67397814D02*
X63678572Y-67326385D01*
X63678572Y-67326385D02*
X63607143Y-67254957D01*
X63607143Y-67254957D02*
X63535715Y-67112100D01*
X63535715Y-67112100D02*
X63535715Y-66969242D01*
X63535715Y-66969242D02*
X63607143Y-66826385D01*
X63607143Y-66826385D02*
X63678572Y-66754957D01*
X63678572Y-66754957D02*
X63821429Y-66683528D01*
X63821429Y-66683528D02*
X64178572Y-66683528D01*
X64178572Y-66683528D02*
X64392858Y-66754957D01*
X65035714Y-68183528D02*
X65035714Y-66683528D01*
X65035714Y-66683528D02*
X65607143Y-66683528D01*
X65607143Y-66683528D02*
X65750000Y-66754957D01*
X65750000Y-66754957D02*
X65821429Y-66826385D01*
X65821429Y-66826385D02*
X65892857Y-66969242D01*
X65892857Y-66969242D02*
X65892857Y-67183528D01*
X65892857Y-67183528D02*
X65821429Y-67326385D01*
X65821429Y-67326385D02*
X65750000Y-67397814D01*
X65750000Y-67397814D02*
X65607143Y-67469242D01*
X65607143Y-67469242D02*
X65035714Y-67469242D01*
X66392857Y-66683528D02*
X67321429Y-66683528D01*
X67321429Y-66683528D02*
X66821429Y-67254957D01*
X66821429Y-67254957D02*
X67035714Y-67254957D01*
X67035714Y-67254957D02*
X67178572Y-67326385D01*
X67178572Y-67326385D02*
X67250000Y-67397814D01*
X67250000Y-67397814D02*
X67321429Y-67540671D01*
X67321429Y-67540671D02*
X67321429Y-67897814D01*
X67321429Y-67897814D02*
X67250000Y-68040671D01*
X67250000Y-68040671D02*
X67178572Y-68112100D01*
X67178572Y-68112100D02*
X67035714Y-68183528D01*
X67035714Y-68183528D02*
X66607143Y-68183528D01*
X66607143Y-68183528D02*
X66464286Y-68112100D01*
X66464286Y-68112100D02*
X66392857Y-68040671D01*
X67892857Y-66826385D02*
X67964285Y-66754957D01*
X67964285Y-66754957D02*
X68107143Y-66683528D01*
X68107143Y-66683528D02*
X68464285Y-66683528D01*
X68464285Y-66683528D02*
X68607143Y-66754957D01*
X68607143Y-66754957D02*
X68678571Y-66826385D01*
X68678571Y-66826385D02*
X68750000Y-66969242D01*
X68750000Y-66969242D02*
X68750000Y-67112100D01*
X68750000Y-67112100D02*
X68678571Y-67326385D01*
X68678571Y-67326385D02*
X67821428Y-68183528D01*
X67821428Y-68183528D02*
X68750000Y-68183528D01*
X70535713Y-67397814D02*
X71035713Y-67397814D01*
X71249999Y-68183528D02*
X70535713Y-68183528D01*
X70535713Y-68183528D02*
X70535713Y-66683528D01*
X70535713Y-66683528D02*
X71249999Y-66683528D01*
X71892856Y-68183528D02*
X71892856Y-66683528D01*
X71892856Y-66683528D02*
X72392856Y-67754957D01*
X72392856Y-67754957D02*
X72892856Y-66683528D01*
X72892856Y-66683528D02*
X72892856Y-68183528D01*
X73607142Y-66683528D02*
X73607142Y-67897814D01*
X73607142Y-67897814D02*
X73678571Y-68040671D01*
X73678571Y-68040671D02*
X73750000Y-68112100D01*
X73750000Y-68112100D02*
X73892857Y-68183528D01*
X73892857Y-68183528D02*
X74178571Y-68183528D01*
X74178571Y-68183528D02*
X74321428Y-68112100D01*
X74321428Y-68112100D02*
X74392857Y-68040671D01*
X74392857Y-68040671D02*
X74464285Y-67897814D01*
X74464285Y-67897814D02*
X74464285Y-66683528D01*
X76107143Y-66683528D02*
X76964286Y-66683528D01*
X76535714Y-68183528D02*
X76535714Y-66683528D01*
X78107143Y-67183528D02*
X78107143Y-68183528D01*
X77464285Y-67183528D02*
X77464285Y-67969242D01*
X77464285Y-67969242D02*
X77535714Y-68112100D01*
X77535714Y-68112100D02*
X77678571Y-68183528D01*
X77678571Y-68183528D02*
X77892857Y-68183528D01*
X77892857Y-68183528D02*
X78035714Y-68112100D01*
X78035714Y-68112100D02*
X78107143Y-68040671D01*
X78821428Y-68183528D02*
X78821428Y-67183528D01*
X78821428Y-67469242D02*
X78892857Y-67326385D01*
X78892857Y-67326385D02*
X78964286Y-67254957D01*
X78964286Y-67254957D02*
X79107143Y-67183528D01*
X79107143Y-67183528D02*
X79250000Y-67183528D01*
X79749999Y-68183528D02*
X79749999Y-66683528D01*
X79749999Y-67254957D02*
X79892857Y-67183528D01*
X79892857Y-67183528D02*
X80178571Y-67183528D01*
X80178571Y-67183528D02*
X80321428Y-67254957D01*
X80321428Y-67254957D02*
X80392857Y-67326385D01*
X80392857Y-67326385D02*
X80464285Y-67469242D01*
X80464285Y-67469242D02*
X80464285Y-67897814D01*
X80464285Y-67897814D02*
X80392857Y-68040671D01*
X80392857Y-68040671D02*
X80321428Y-68112100D01*
X80321428Y-68112100D02*
X80178571Y-68183528D01*
X80178571Y-68183528D02*
X79892857Y-68183528D01*
X79892857Y-68183528D02*
X79749999Y-68112100D01*
X81321428Y-68183528D02*
X81178571Y-68112100D01*
X81178571Y-68112100D02*
X81107142Y-68040671D01*
X81107142Y-68040671D02*
X81035714Y-67897814D01*
X81035714Y-67897814D02*
X81035714Y-67469242D01*
X81035714Y-67469242D02*
X81107142Y-67326385D01*
X81107142Y-67326385D02*
X81178571Y-67254957D01*
X81178571Y-67254957D02*
X81321428Y-67183528D01*
X81321428Y-67183528D02*
X81535714Y-67183528D01*
X81535714Y-67183528D02*
X81678571Y-67254957D01*
X81678571Y-67254957D02*
X81750000Y-67326385D01*
X81750000Y-67326385D02*
X81821428Y-67469242D01*
X81821428Y-67469242D02*
X81821428Y-67897814D01*
X81821428Y-67897814D02*
X81750000Y-68040671D01*
X81750000Y-68040671D02*
X81678571Y-68112100D01*
X81678571Y-68112100D02*
X81535714Y-68183528D01*
X81535714Y-68183528D02*
X81321428Y-68183528D01*
X84464285Y-68040671D02*
X84392857Y-68112100D01*
X84392857Y-68112100D02*
X84178571Y-68183528D01*
X84178571Y-68183528D02*
X84035714Y-68183528D01*
X84035714Y-68183528D02*
X83821428Y-68112100D01*
X83821428Y-68112100D02*
X83678571Y-67969242D01*
X83678571Y-67969242D02*
X83607142Y-67826385D01*
X83607142Y-67826385D02*
X83535714Y-67540671D01*
X83535714Y-67540671D02*
X83535714Y-67326385D01*
X83535714Y-67326385D02*
X83607142Y-67040671D01*
X83607142Y-67040671D02*
X83678571Y-66897814D01*
X83678571Y-66897814D02*
X83821428Y-66754957D01*
X83821428Y-66754957D02*
X84035714Y-66683528D01*
X84035714Y-66683528D02*
X84178571Y-66683528D01*
X84178571Y-66683528D02*
X84392857Y-66754957D01*
X84392857Y-66754957D02*
X84464285Y-66826385D01*
X85107142Y-68183528D02*
X85107142Y-66683528D01*
X85107142Y-66683528D02*
X85678571Y-66683528D01*
X85678571Y-66683528D02*
X85821428Y-66754957D01*
X85821428Y-66754957D02*
X85892857Y-66826385D01*
X85892857Y-66826385D02*
X85964285Y-66969242D01*
X85964285Y-66969242D02*
X85964285Y-67183528D01*
X85964285Y-67183528D02*
X85892857Y-67326385D01*
X85892857Y-67326385D02*
X85821428Y-67397814D01*
X85821428Y-67397814D02*
X85678571Y-67469242D01*
X85678571Y-67469242D02*
X85107142Y-67469242D01*
X87035714Y-66683528D02*
X87035714Y-67754957D01*
X87035714Y-67754957D02*
X86964285Y-67969242D01*
X86964285Y-67969242D02*
X86821428Y-68112100D01*
X86821428Y-68112100D02*
X86607142Y-68183528D01*
X86607142Y-68183528D02*
X86464285Y-68183528D01*
X88964285Y-68183528D02*
X88892857Y-68183528D01*
X88892857Y-68183528D02*
X88749999Y-68112100D01*
X88749999Y-68112100D02*
X88535714Y-67897814D01*
X88535714Y-67897814D02*
X88178571Y-67469242D01*
X88178571Y-67469242D02*
X88035714Y-67254957D01*
X88035714Y-67254957D02*
X87964285Y-67040671D01*
X87964285Y-67040671D02*
X87964285Y-66897814D01*
X87964285Y-66897814D02*
X88035714Y-66754957D01*
X88035714Y-66754957D02*
X88178571Y-66683528D01*
X88178571Y-66683528D02*
X88249999Y-66683528D01*
X88249999Y-66683528D02*
X88392857Y-66754957D01*
X88392857Y-66754957D02*
X88464285Y-66897814D01*
X88464285Y-66897814D02*
X88464285Y-66969242D01*
X88464285Y-66969242D02*
X88392857Y-67112100D01*
X88392857Y-67112100D02*
X88321428Y-67183528D01*
X88321428Y-67183528D02*
X87892857Y-67469242D01*
X87892857Y-67469242D02*
X87821428Y-67540671D01*
X87821428Y-67540671D02*
X87749999Y-67683528D01*
X87749999Y-67683528D02*
X87749999Y-67897814D01*
X87749999Y-67897814D02*
X87821428Y-68040671D01*
X87821428Y-68040671D02*
X87892857Y-68112100D01*
X87892857Y-68112100D02*
X88035714Y-68183528D01*
X88035714Y-68183528D02*
X88249999Y-68183528D01*
X88249999Y-68183528D02*
X88392857Y-68112100D01*
X88392857Y-68112100D02*
X88464285Y-68040671D01*
X88464285Y-68040671D02*
X88678571Y-67754957D01*
X88678571Y-67754957D02*
X88749999Y-67540671D01*
X88749999Y-67540671D02*
X88749999Y-67397814D01*
X90464285Y-68040671D02*
X90392857Y-68112100D01*
X90392857Y-68112100D02*
X90178571Y-68183528D01*
X90178571Y-68183528D02*
X90035714Y-68183528D01*
X90035714Y-68183528D02*
X89821428Y-68112100D01*
X89821428Y-68112100D02*
X89678571Y-67969242D01*
X89678571Y-67969242D02*
X89607142Y-67826385D01*
X89607142Y-67826385D02*
X89535714Y-67540671D01*
X89535714Y-67540671D02*
X89535714Y-67326385D01*
X89535714Y-67326385D02*
X89607142Y-67040671D01*
X89607142Y-67040671D02*
X89678571Y-66897814D01*
X89678571Y-66897814D02*
X89821428Y-66754957D01*
X89821428Y-66754957D02*
X90035714Y-66683528D01*
X90035714Y-66683528D02*
X90178571Y-66683528D01*
X90178571Y-66683528D02*
X90392857Y-66754957D01*
X90392857Y-66754957D02*
X90464285Y-66826385D01*
X91107142Y-68183528D02*
X91107142Y-66683528D01*
X91107142Y-66683528D02*
X91678571Y-66683528D01*
X91678571Y-66683528D02*
X91821428Y-66754957D01*
X91821428Y-66754957D02*
X91892857Y-66826385D01*
X91892857Y-66826385D02*
X91964285Y-66969242D01*
X91964285Y-66969242D02*
X91964285Y-67183528D01*
X91964285Y-67183528D02*
X91892857Y-67326385D01*
X91892857Y-67326385D02*
X91821428Y-67397814D01*
X91821428Y-67397814D02*
X91678571Y-67469242D01*
X91678571Y-67469242D02*
X91107142Y-67469242D01*
X93607142Y-67183528D02*
X93964285Y-68183528D01*
X93964285Y-68183528D02*
X94321428Y-67183528D01*
X95678571Y-68183528D02*
X94821428Y-68183528D01*
X95249999Y-68183528D02*
X95249999Y-66683528D01*
X95249999Y-66683528D02*
X95107142Y-66897814D01*
X95107142Y-66897814D02*
X94964285Y-67040671D01*
X94964285Y-67040671D02*
X94821428Y-67112100D01*
X96321427Y-68040671D02*
X96392856Y-68112100D01*
X96392856Y-68112100D02*
X96321427Y-68183528D01*
X96321427Y-68183528D02*
X96249999Y-68112100D01*
X96249999Y-68112100D02*
X96321427Y-68040671D01*
X96321427Y-68040671D02*
X96321427Y-68183528D01*
X97321428Y-66683528D02*
X97464285Y-66683528D01*
X97464285Y-66683528D02*
X97607142Y-66754957D01*
X97607142Y-66754957D02*
X97678571Y-66826385D01*
X97678571Y-66826385D02*
X97749999Y-66969242D01*
X97749999Y-66969242D02*
X97821428Y-67254957D01*
X97821428Y-67254957D02*
X97821428Y-67612100D01*
X97821428Y-67612100D02*
X97749999Y-67897814D01*
X97749999Y-67897814D02*
X97678571Y-68040671D01*
X97678571Y-68040671D02*
X97607142Y-68112100D01*
X97607142Y-68112100D02*
X97464285Y-68183528D01*
X97464285Y-68183528D02*
X97321428Y-68183528D01*
X97321428Y-68183528D02*
X97178571Y-68112100D01*
X97178571Y-68112100D02*
X97107142Y-68040671D01*
X97107142Y-68040671D02*
X97035713Y-67897814D01*
X97035713Y-67897814D02*
X96964285Y-67612100D01*
X96964285Y-67612100D02*
X96964285Y-67254957D01*
X96964285Y-67254957D02*
X97035713Y-66969242D01*
X97035713Y-66969242D02*
X97107142Y-66826385D01*
X97107142Y-66826385D02*
X97178571Y-66754957D01*
X97178571Y-66754957D02*
X97321428Y-66683528D01*
X15690476Y-17952219D02*
X15690476Y-16952219D01*
X15690476Y-16952219D02*
X15928571Y-16952219D01*
X15928571Y-16952219D02*
X16071428Y-16999838D01*
X16071428Y-16999838D02*
X16166666Y-17095076D01*
X16166666Y-17095076D02*
X16214285Y-17190314D01*
X16214285Y-17190314D02*
X16261904Y-17380790D01*
X16261904Y-17380790D02*
X16261904Y-17523647D01*
X16261904Y-17523647D02*
X16214285Y-17714123D01*
X16214285Y-17714123D02*
X16166666Y-17809361D01*
X16166666Y-17809361D02*
X16071428Y-17904600D01*
X16071428Y-17904600D02*
X15928571Y-17952219D01*
X15928571Y-17952219D02*
X15690476Y-17952219D01*
X16690476Y-17571266D02*
X17452381Y-17571266D01*
X17928571Y-17952219D02*
X17928571Y-16952219D01*
X17928571Y-16952219D02*
X18309523Y-16952219D01*
X18309523Y-16952219D02*
X18404761Y-16999838D01*
X18404761Y-16999838D02*
X18452380Y-17047457D01*
X18452380Y-17047457D02*
X18499999Y-17142695D01*
X18499999Y-17142695D02*
X18499999Y-17285552D01*
X18499999Y-17285552D02*
X18452380Y-17380790D01*
X18452380Y-17380790D02*
X18404761Y-17428409D01*
X18404761Y-17428409D02*
X18309523Y-17476028D01*
X18309523Y-17476028D02*
X17928571Y-17476028D01*
X18880952Y-17666504D02*
X19357142Y-17666504D01*
X18785714Y-17952219D02*
X19119047Y-16952219D01*
X19119047Y-16952219D02*
X19452380Y-17952219D01*
X19785714Y-17952219D02*
X19785714Y-16952219D01*
X19785714Y-16952219D02*
X20023809Y-16952219D01*
X20023809Y-16952219D02*
X20166666Y-16999838D01*
X20166666Y-16999838D02*
X20261904Y-17095076D01*
X20261904Y-17095076D02*
X20309523Y-17190314D01*
X20309523Y-17190314D02*
X20357142Y-17380790D01*
X20357142Y-17380790D02*
X20357142Y-17523647D01*
X20357142Y-17523647D02*
X20309523Y-17714123D01*
X20309523Y-17714123D02*
X20261904Y-17809361D01*
X20261904Y-17809361D02*
X20166666Y-17904600D01*
X20166666Y-17904600D02*
X20023809Y-17952219D01*
X20023809Y-17952219D02*
X19785714Y-17952219D01*
X140357143Y-16666504D02*
X140833333Y-16666504D01*
X140261905Y-16952219D02*
X140595238Y-15952219D01*
X140595238Y-15952219D02*
X140928571Y-16952219D01*
X141595238Y-16428409D02*
X141738095Y-16476028D01*
X141738095Y-16476028D02*
X141785714Y-16523647D01*
X141785714Y-16523647D02*
X141833333Y-16618885D01*
X141833333Y-16618885D02*
X141833333Y-16761742D01*
X141833333Y-16761742D02*
X141785714Y-16856980D01*
X141785714Y-16856980D02*
X141738095Y-16904600D01*
X141738095Y-16904600D02*
X141642857Y-16952219D01*
X141642857Y-16952219D02*
X141261905Y-16952219D01*
X141261905Y-16952219D02*
X141261905Y-15952219D01*
X141261905Y-15952219D02*
X141595238Y-15952219D01*
X141595238Y-15952219D02*
X141690476Y-15999838D01*
X141690476Y-15999838D02*
X141738095Y-16047457D01*
X141738095Y-16047457D02*
X141785714Y-16142695D01*
X141785714Y-16142695D02*
X141785714Y-16237933D01*
X141785714Y-16237933D02*
X141738095Y-16333171D01*
X141738095Y-16333171D02*
X141690476Y-16380790D01*
X141690476Y-16380790D02*
X141595238Y-16428409D01*
X141595238Y-16428409D02*
X141261905Y-16428409D01*
X142166667Y-15952219D02*
X142833333Y-16952219D01*
X142833333Y-15952219D02*
X142166667Y-16952219D01*
X143404762Y-16476028D02*
X143404762Y-16952219D01*
X143071429Y-15952219D02*
X143404762Y-16476028D01*
X143404762Y-16476028D02*
X143738095Y-15952219D01*
X140533333Y-57859695D02*
X140533333Y-57059695D01*
X140533333Y-57059695D02*
X140799999Y-57631123D01*
X140799999Y-57631123D02*
X141066666Y-57059695D01*
X141066666Y-57059695D02*
X141066666Y-57859695D01*
X141447619Y-57440647D02*
X141714285Y-57440647D01*
X141828571Y-57859695D02*
X141447619Y-57859695D01*
X141447619Y-57859695D02*
X141447619Y-57059695D01*
X141447619Y-57059695D02*
X141828571Y-57059695D01*
X142171429Y-57859695D02*
X142171429Y-57059695D01*
X142171429Y-57059695D02*
X142628572Y-57859695D01*
X142628572Y-57859695D02*
X142628572Y-57059695D01*
X143009524Y-57059695D02*
X143009524Y-57707314D01*
X143009524Y-57707314D02*
X143047619Y-57783504D01*
X143047619Y-57783504D02*
X143085714Y-57821600D01*
X143085714Y-57821600D02*
X143161905Y-57859695D01*
X143161905Y-57859695D02*
X143314286Y-57859695D01*
X143314286Y-57859695D02*
X143390476Y-57821600D01*
X143390476Y-57821600D02*
X143428571Y-57783504D01*
X143428571Y-57783504D02*
X143466667Y-57707314D01*
X143466667Y-57707314D02*
X143466667Y-57059695D01*
D11*
X24571429Y-70712628D02*
X24542857Y-70741200D01*
X24542857Y-70741200D02*
X24457143Y-70769771D01*
X24457143Y-70769771D02*
X24400000Y-70769771D01*
X24400000Y-70769771D02*
X24314286Y-70741200D01*
X24314286Y-70741200D02*
X24257143Y-70684057D01*
X24257143Y-70684057D02*
X24228572Y-70626914D01*
X24228572Y-70626914D02*
X24200000Y-70512628D01*
X24200000Y-70512628D02*
X24200000Y-70426914D01*
X24200000Y-70426914D02*
X24228572Y-70312628D01*
X24228572Y-70312628D02*
X24257143Y-70255485D01*
X24257143Y-70255485D02*
X24314286Y-70198342D01*
X24314286Y-70198342D02*
X24400000Y-70169771D01*
X24400000Y-70169771D02*
X24457143Y-70169771D01*
X24457143Y-70169771D02*
X24542857Y-70198342D01*
X24542857Y-70198342D02*
X24571429Y-70226914D01*
X24828572Y-70769771D02*
X24828572Y-70169771D01*
X24828572Y-70455485D02*
X25171429Y-70455485D01*
X25171429Y-70769771D02*
X25171429Y-70169771D01*
X25771428Y-70198342D02*
X25714286Y-70169771D01*
X25714286Y-70169771D02*
X25628571Y-70169771D01*
X25628571Y-70169771D02*
X25542857Y-70198342D01*
X25542857Y-70198342D02*
X25485714Y-70255485D01*
X25485714Y-70255485D02*
X25457143Y-70312628D01*
X25457143Y-70312628D02*
X25428571Y-70426914D01*
X25428571Y-70426914D02*
X25428571Y-70512628D01*
X25428571Y-70512628D02*
X25457143Y-70626914D01*
X25457143Y-70626914D02*
X25485714Y-70684057D01*
X25485714Y-70684057D02*
X25542857Y-70741200D01*
X25542857Y-70741200D02*
X25628571Y-70769771D01*
X25628571Y-70769771D02*
X25685714Y-70769771D01*
X25685714Y-70769771D02*
X25771428Y-70741200D01*
X25771428Y-70741200D02*
X25800000Y-70712628D01*
X25800000Y-70712628D02*
X25800000Y-70512628D01*
X25800000Y-70512628D02*
X25685714Y-70512628D01*
X31285715Y-70455485D02*
X31085715Y-70455485D01*
X31085715Y-70769771D02*
X31085715Y-70169771D01*
X31085715Y-70169771D02*
X31371429Y-70169771D01*
X31600001Y-70169771D02*
X31600001Y-70655485D01*
X31600001Y-70655485D02*
X31628572Y-70712628D01*
X31628572Y-70712628D02*
X31657144Y-70741200D01*
X31657144Y-70741200D02*
X31714286Y-70769771D01*
X31714286Y-70769771D02*
X31828572Y-70769771D01*
X31828572Y-70769771D02*
X31885715Y-70741200D01*
X31885715Y-70741200D02*
X31914286Y-70712628D01*
X31914286Y-70712628D02*
X31942858Y-70655485D01*
X31942858Y-70655485D02*
X31942858Y-70169771D01*
X32514286Y-70769771D02*
X32228572Y-70769771D01*
X32228572Y-70769771D02*
X32228572Y-70169771D01*
X33000000Y-70769771D02*
X32714286Y-70769771D01*
X32714286Y-70769771D02*
X32714286Y-70169771D01*
M02*
