%TF.GenerationSoftware,KiCad,Pcbnew,9.0.7*%
%TF.CreationDate,2026-02-11T21:20:20+00:00*%
%TF.ProjectId,esp32-emu-turbo,65737033-322d-4656-9d75-2d747572626f,rev?*%
%TF.SameCoordinates,Original*%
%TF.FileFunction,Copper,L4,Bot*%
%TF.FilePolarity,Positive*%
%FSLAX46Y46*%
G04 Gerber Fmt 4.6, Leading zero omitted, Abs format (unit mm)*
G04 Created by KiCad (PCBNEW 9.0.7) date 2026-02-11 21:20:20*
%MOMM*%
%LPD*%
G01*
G04 APERTURE LIST*
%ADD10C,0.150000*%
%TA.AperFunction,NonConductor*%
%ADD11C,0.150000*%
%TD*%
%TA.AperFunction,ComponentPad*%
%ADD12C,5.000000*%
%TD*%
%TA.AperFunction,SMDPad,CuDef*%
%ADD13R,1.800000X0.900000*%
%TD*%
%TA.AperFunction,SMDPad,CuDef*%
%ADD14R,1.000000X1.800000*%
%TD*%
%TA.AperFunction,SMDPad,CuDef*%
%ADD15R,10.000000X10.000000*%
%TD*%
%TA.AperFunction,SMDPad,CuDef*%
%ADD16R,1.600000X1.000000*%
%TD*%
%TA.AperFunction,SMDPad,CuDef*%
%ADD17R,0.300000X1.200000*%
%TD*%
%TA.AperFunction,SMDPad,CuDef*%
%ADD18R,1.200000X2.000000*%
%TD*%
%TA.AperFunction,SMDPad,CuDef*%
%ADD19R,0.300000X1.000000*%
%TD*%
%TA.AperFunction,ComponentPad*%
%ADD20O,1.000000X1.800000*%
%TD*%
%TA.AperFunction,SMDPad,CuDef*%
%ADD21R,0.700000X1.800000*%
%TD*%
%TA.AperFunction,SMDPad,CuDef*%
%ADD22R,1.200000X1.500000*%
%TD*%
%TA.AperFunction,ComponentPad*%
%ADD23C,1.500000*%
%TD*%
%TA.AperFunction,SMDPad,CuDef*%
%ADD24R,2.000000X3.000000*%
%TD*%
%TA.AperFunction,SMDPad,CuDef*%
%ADD25R,1.700000X0.600000*%
%TD*%
%TA.AperFunction,SMDPad,CuDef*%
%ADD26R,3.400000X3.400000*%
%TD*%
%TA.AperFunction,SMDPad,CuDef*%
%ADD27R,1.000000X1.500000*%
%TD*%
%TA.AperFunction,SMDPad,CuDef*%
%ADD28R,3.600000X1.800000*%
%TD*%
%TA.AperFunction,SMDPad,CuDef*%
%ADD29R,1.400000X3.400000*%
%TD*%
%TA.AperFunction,ViaPad*%
%ADD30C,0.600000*%
%TD*%
%TA.AperFunction,Conductor*%
%ADD31C,0.500000*%
%TD*%
%TA.AperFunction,Conductor*%
%ADD32C,0.400000*%
%TD*%
%TA.AperFunction,Conductor*%
%ADD33C,0.200000*%
%TD*%
%TA.AperFunction,Conductor*%
%ADD34C,0.300000*%
%TD*%
%TA.AperFunction,Conductor*%
%ADD35C,0.250000*%
%TD*%
G04 APERTURE END LIST*
D10*
D11*
X79238095Y-23954819D02*
X79238095Y-24764342D01*
X79238095Y-24764342D02*
X79285714Y-24859580D01*
X79285714Y-24859580D02*
X79333333Y-24907200D01*
X79333333Y-24907200D02*
X79428571Y-24954819D01*
X79428571Y-24954819D02*
X79619047Y-24954819D01*
X79619047Y-24954819D02*
X79714285Y-24907200D01*
X79714285Y-24907200D02*
X79761904Y-24859580D01*
X79761904Y-24859580D02*
X79809523Y-24764342D01*
X79809523Y-24764342D02*
X79809523Y-23954819D01*
X80809523Y-24954819D02*
X80238095Y-24954819D01*
X80523809Y-24954819D02*
X80523809Y-23954819D01*
X80523809Y-23954819D02*
X80428571Y-24097676D01*
X80428571Y-24097676D02*
X80333333Y-24192914D01*
X80333333Y-24192914D02*
X80238095Y-24240533D01*
D10*
D11*
X68809524Y-30431009D02*
X69142857Y-30431009D01*
X69285714Y-30954819D02*
X68809524Y-30954819D01*
X68809524Y-30954819D02*
X68809524Y-29954819D01*
X68809524Y-29954819D02*
X69285714Y-29954819D01*
X69666667Y-30907200D02*
X69809524Y-30954819D01*
X69809524Y-30954819D02*
X70047619Y-30954819D01*
X70047619Y-30954819D02*
X70142857Y-30907200D01*
X70142857Y-30907200D02*
X70190476Y-30859580D01*
X70190476Y-30859580D02*
X70238095Y-30764342D01*
X70238095Y-30764342D02*
X70238095Y-30669104D01*
X70238095Y-30669104D02*
X70190476Y-30573866D01*
X70190476Y-30573866D02*
X70142857Y-30526247D01*
X70142857Y-30526247D02*
X70047619Y-30478628D01*
X70047619Y-30478628D02*
X69857143Y-30431009D01*
X69857143Y-30431009D02*
X69761905Y-30383390D01*
X69761905Y-30383390D02*
X69714286Y-30335771D01*
X69714286Y-30335771D02*
X69666667Y-30240533D01*
X69666667Y-30240533D02*
X69666667Y-30145295D01*
X69666667Y-30145295D02*
X69714286Y-30050057D01*
X69714286Y-30050057D02*
X69761905Y-30002438D01*
X69761905Y-30002438D02*
X69857143Y-29954819D01*
X69857143Y-29954819D02*
X70095238Y-29954819D01*
X70095238Y-29954819D02*
X70238095Y-30002438D01*
X70666667Y-30954819D02*
X70666667Y-29954819D01*
X70666667Y-29954819D02*
X71047619Y-29954819D01*
X71047619Y-29954819D02*
X71142857Y-30002438D01*
X71142857Y-30002438D02*
X71190476Y-30050057D01*
X71190476Y-30050057D02*
X71238095Y-30145295D01*
X71238095Y-30145295D02*
X71238095Y-30288152D01*
X71238095Y-30288152D02*
X71190476Y-30383390D01*
X71190476Y-30383390D02*
X71142857Y-30431009D01*
X71142857Y-30431009D02*
X71047619Y-30478628D01*
X71047619Y-30478628D02*
X70666667Y-30478628D01*
X71571429Y-29954819D02*
X72190476Y-29954819D01*
X72190476Y-29954819D02*
X71857143Y-30335771D01*
X71857143Y-30335771D02*
X72000000Y-30335771D01*
X72000000Y-30335771D02*
X72095238Y-30383390D01*
X72095238Y-30383390D02*
X72142857Y-30431009D01*
X72142857Y-30431009D02*
X72190476Y-30526247D01*
X72190476Y-30526247D02*
X72190476Y-30764342D01*
X72190476Y-30764342D02*
X72142857Y-30859580D01*
X72142857Y-30859580D02*
X72095238Y-30907200D01*
X72095238Y-30907200D02*
X72000000Y-30954819D01*
X72000000Y-30954819D02*
X71714286Y-30954819D01*
X71714286Y-30954819D02*
X71619048Y-30907200D01*
X71619048Y-30907200D02*
X71571429Y-30859580D01*
X72571429Y-30050057D02*
X72619048Y-30002438D01*
X72619048Y-30002438D02*
X72714286Y-29954819D01*
X72714286Y-29954819D02*
X72952381Y-29954819D01*
X72952381Y-29954819D02*
X73047619Y-30002438D01*
X73047619Y-30002438D02*
X73095238Y-30050057D01*
X73095238Y-30050057D02*
X73142857Y-30145295D01*
X73142857Y-30145295D02*
X73142857Y-30240533D01*
X73142857Y-30240533D02*
X73095238Y-30383390D01*
X73095238Y-30383390D02*
X72523810Y-30954819D01*
X72523810Y-30954819D02*
X73142857Y-30954819D01*
X73571429Y-30573866D02*
X74333334Y-30573866D01*
X74761905Y-30907200D02*
X74904762Y-30954819D01*
X74904762Y-30954819D02*
X75142857Y-30954819D01*
X75142857Y-30954819D02*
X75238095Y-30907200D01*
X75238095Y-30907200D02*
X75285714Y-30859580D01*
X75285714Y-30859580D02*
X75333333Y-30764342D01*
X75333333Y-30764342D02*
X75333333Y-30669104D01*
X75333333Y-30669104D02*
X75285714Y-30573866D01*
X75285714Y-30573866D02*
X75238095Y-30526247D01*
X75238095Y-30526247D02*
X75142857Y-30478628D01*
X75142857Y-30478628D02*
X74952381Y-30431009D01*
X74952381Y-30431009D02*
X74857143Y-30383390D01*
X74857143Y-30383390D02*
X74809524Y-30335771D01*
X74809524Y-30335771D02*
X74761905Y-30240533D01*
X74761905Y-30240533D02*
X74761905Y-30145295D01*
X74761905Y-30145295D02*
X74809524Y-30050057D01*
X74809524Y-30050057D02*
X74857143Y-30002438D01*
X74857143Y-30002438D02*
X74952381Y-29954819D01*
X74952381Y-29954819D02*
X75190476Y-29954819D01*
X75190476Y-29954819D02*
X75333333Y-30002438D01*
X75666667Y-29954819D02*
X76285714Y-29954819D01*
X76285714Y-29954819D02*
X75952381Y-30335771D01*
X75952381Y-30335771D02*
X76095238Y-30335771D01*
X76095238Y-30335771D02*
X76190476Y-30383390D01*
X76190476Y-30383390D02*
X76238095Y-30431009D01*
X76238095Y-30431009D02*
X76285714Y-30526247D01*
X76285714Y-30526247D02*
X76285714Y-30764342D01*
X76285714Y-30764342D02*
X76238095Y-30859580D01*
X76238095Y-30859580D02*
X76190476Y-30907200D01*
X76190476Y-30907200D02*
X76095238Y-30954819D01*
X76095238Y-30954819D02*
X75809524Y-30954819D01*
X75809524Y-30954819D02*
X75714286Y-30907200D01*
X75714286Y-30907200D02*
X75666667Y-30859580D01*
X76714286Y-30573866D02*
X77476191Y-30573866D01*
X77857143Y-29954819D02*
X78095238Y-30954819D01*
X78095238Y-30954819D02*
X78285714Y-30240533D01*
X78285714Y-30240533D02*
X78476190Y-30954819D01*
X78476190Y-30954819D02*
X78714286Y-29954819D01*
X79666666Y-30954819D02*
X79333333Y-30478628D01*
X79095238Y-30954819D02*
X79095238Y-29954819D01*
X79095238Y-29954819D02*
X79476190Y-29954819D01*
X79476190Y-29954819D02*
X79571428Y-30002438D01*
X79571428Y-30002438D02*
X79619047Y-30050057D01*
X79619047Y-30050057D02*
X79666666Y-30145295D01*
X79666666Y-30145295D02*
X79666666Y-30288152D01*
X79666666Y-30288152D02*
X79619047Y-30383390D01*
X79619047Y-30383390D02*
X79571428Y-30431009D01*
X79571428Y-30431009D02*
X79476190Y-30478628D01*
X79476190Y-30478628D02*
X79095238Y-30478628D01*
X80285714Y-29954819D02*
X80476190Y-29954819D01*
X80476190Y-29954819D02*
X80571428Y-30002438D01*
X80571428Y-30002438D02*
X80666666Y-30097676D01*
X80666666Y-30097676D02*
X80714285Y-30288152D01*
X80714285Y-30288152D02*
X80714285Y-30621485D01*
X80714285Y-30621485D02*
X80666666Y-30811961D01*
X80666666Y-30811961D02*
X80571428Y-30907200D01*
X80571428Y-30907200D02*
X80476190Y-30954819D01*
X80476190Y-30954819D02*
X80285714Y-30954819D01*
X80285714Y-30954819D02*
X80190476Y-30907200D01*
X80190476Y-30907200D02*
X80095238Y-30811961D01*
X80095238Y-30811961D02*
X80047619Y-30621485D01*
X80047619Y-30621485D02*
X80047619Y-30288152D01*
X80047619Y-30288152D02*
X80095238Y-30097676D01*
X80095238Y-30097676D02*
X80190476Y-30002438D01*
X80190476Y-30002438D02*
X80285714Y-29954819D01*
X81333333Y-29954819D02*
X81523809Y-29954819D01*
X81523809Y-29954819D02*
X81619047Y-30002438D01*
X81619047Y-30002438D02*
X81714285Y-30097676D01*
X81714285Y-30097676D02*
X81761904Y-30288152D01*
X81761904Y-30288152D02*
X81761904Y-30621485D01*
X81761904Y-30621485D02*
X81714285Y-30811961D01*
X81714285Y-30811961D02*
X81619047Y-30907200D01*
X81619047Y-30907200D02*
X81523809Y-30954819D01*
X81523809Y-30954819D02*
X81333333Y-30954819D01*
X81333333Y-30954819D02*
X81238095Y-30907200D01*
X81238095Y-30907200D02*
X81142857Y-30811961D01*
X81142857Y-30811961D02*
X81095238Y-30621485D01*
X81095238Y-30621485D02*
X81095238Y-30288152D01*
X81095238Y-30288152D02*
X81142857Y-30097676D01*
X81142857Y-30097676D02*
X81238095Y-30002438D01*
X81238095Y-30002438D02*
X81333333Y-29954819D01*
X82190476Y-30954819D02*
X82190476Y-29954819D01*
X82190476Y-29954819D02*
X82523809Y-30669104D01*
X82523809Y-30669104D02*
X82857142Y-29954819D01*
X82857142Y-29954819D02*
X82857142Y-30954819D01*
X83333333Y-30573866D02*
X84095238Y-30573866D01*
X85095237Y-30954819D02*
X84523809Y-30954819D01*
X84809523Y-30954819D02*
X84809523Y-29954819D01*
X84809523Y-29954819D02*
X84714285Y-30097676D01*
X84714285Y-30097676D02*
X84619047Y-30192914D01*
X84619047Y-30192914D02*
X84523809Y-30240533D01*
X85523809Y-30573866D02*
X86285714Y-30573866D01*
X86761904Y-30954819D02*
X86761904Y-29954819D01*
X86761904Y-29954819D02*
X87333332Y-30954819D01*
X87333332Y-30954819D02*
X87333332Y-29954819D01*
X88333332Y-30954819D02*
X87761904Y-30954819D01*
X88047618Y-30954819D02*
X88047618Y-29954819D01*
X88047618Y-29954819D02*
X87952380Y-30097676D01*
X87952380Y-30097676D02*
X87857142Y-30192914D01*
X87857142Y-30192914D02*
X87761904Y-30240533D01*
X89190475Y-29954819D02*
X88999999Y-29954819D01*
X88999999Y-29954819D02*
X88904761Y-30002438D01*
X88904761Y-30002438D02*
X88857142Y-30050057D01*
X88857142Y-30050057D02*
X88761904Y-30192914D01*
X88761904Y-30192914D02*
X88714285Y-30383390D01*
X88714285Y-30383390D02*
X88714285Y-30764342D01*
X88714285Y-30764342D02*
X88761904Y-30859580D01*
X88761904Y-30859580D02*
X88809523Y-30907200D01*
X88809523Y-30907200D02*
X88904761Y-30954819D01*
X88904761Y-30954819D02*
X89095237Y-30954819D01*
X89095237Y-30954819D02*
X89190475Y-30907200D01*
X89190475Y-30907200D02*
X89238094Y-30859580D01*
X89238094Y-30859580D02*
X89285713Y-30764342D01*
X89285713Y-30764342D02*
X89285713Y-30526247D01*
X89285713Y-30526247D02*
X89238094Y-30431009D01*
X89238094Y-30431009D02*
X89190475Y-30383390D01*
X89190475Y-30383390D02*
X89095237Y-30335771D01*
X89095237Y-30335771D02*
X88904761Y-30335771D01*
X88904761Y-30335771D02*
X88809523Y-30383390D01*
X88809523Y-30383390D02*
X88761904Y-30431009D01*
X88761904Y-30431009D02*
X88714285Y-30526247D01*
X90285713Y-30954819D02*
X89952380Y-30478628D01*
X89714285Y-30954819D02*
X89714285Y-29954819D01*
X89714285Y-29954819D02*
X90095237Y-29954819D01*
X90095237Y-29954819D02*
X90190475Y-30002438D01*
X90190475Y-30002438D02*
X90238094Y-30050057D01*
X90238094Y-30050057D02*
X90285713Y-30145295D01*
X90285713Y-30145295D02*
X90285713Y-30288152D01*
X90285713Y-30288152D02*
X90238094Y-30383390D01*
X90238094Y-30383390D02*
X90190475Y-30431009D01*
X90190475Y-30431009D02*
X90095237Y-30478628D01*
X90095237Y-30478628D02*
X89714285Y-30478628D01*
X90857142Y-30383390D02*
X90761904Y-30335771D01*
X90761904Y-30335771D02*
X90714285Y-30288152D01*
X90714285Y-30288152D02*
X90666666Y-30192914D01*
X90666666Y-30192914D02*
X90666666Y-30145295D01*
X90666666Y-30145295D02*
X90714285Y-30050057D01*
X90714285Y-30050057D02*
X90761904Y-30002438D01*
X90761904Y-30002438D02*
X90857142Y-29954819D01*
X90857142Y-29954819D02*
X91047618Y-29954819D01*
X91047618Y-29954819D02*
X91142856Y-30002438D01*
X91142856Y-30002438D02*
X91190475Y-30050057D01*
X91190475Y-30050057D02*
X91238094Y-30145295D01*
X91238094Y-30145295D02*
X91238094Y-30192914D01*
X91238094Y-30192914D02*
X91190475Y-30288152D01*
X91190475Y-30288152D02*
X91142856Y-30335771D01*
X91142856Y-30335771D02*
X91047618Y-30383390D01*
X91047618Y-30383390D02*
X90857142Y-30383390D01*
X90857142Y-30383390D02*
X90761904Y-30431009D01*
X90761904Y-30431009D02*
X90714285Y-30478628D01*
X90714285Y-30478628D02*
X90666666Y-30573866D01*
X90666666Y-30573866D02*
X90666666Y-30764342D01*
X90666666Y-30764342D02*
X90714285Y-30859580D01*
X90714285Y-30859580D02*
X90761904Y-30907200D01*
X90761904Y-30907200D02*
X90857142Y-30954819D01*
X90857142Y-30954819D02*
X91047618Y-30954819D01*
X91047618Y-30954819D02*
X91142856Y-30907200D01*
X91142856Y-30907200D02*
X91190475Y-30859580D01*
X91190475Y-30859580D02*
X91238094Y-30764342D01*
X91238094Y-30764342D02*
X91238094Y-30573866D01*
X91238094Y-30573866D02*
X91190475Y-30478628D01*
X91190475Y-30478628D02*
X91142856Y-30431009D01*
X91142856Y-30431009D02*
X91047618Y-30383390D01*
D10*
D11*
X10190476Y-2907200D02*
X10333333Y-2954819D01*
X10333333Y-2954819D02*
X10571428Y-2954819D01*
X10571428Y-2954819D02*
X10666666Y-2907200D01*
X10666666Y-2907200D02*
X10714285Y-2859580D01*
X10714285Y-2859580D02*
X10761904Y-2764342D01*
X10761904Y-2764342D02*
X10761904Y-2669104D01*
X10761904Y-2669104D02*
X10714285Y-2573866D01*
X10714285Y-2573866D02*
X10666666Y-2526247D01*
X10666666Y-2526247D02*
X10571428Y-2478628D01*
X10571428Y-2478628D02*
X10380952Y-2431009D01*
X10380952Y-2431009D02*
X10285714Y-2383390D01*
X10285714Y-2383390D02*
X10238095Y-2335771D01*
X10238095Y-2335771D02*
X10190476Y-2240533D01*
X10190476Y-2240533D02*
X10190476Y-2145295D01*
X10190476Y-2145295D02*
X10238095Y-2050057D01*
X10238095Y-2050057D02*
X10285714Y-2002438D01*
X10285714Y-2002438D02*
X10380952Y-1954819D01*
X10380952Y-1954819D02*
X10619047Y-1954819D01*
X10619047Y-1954819D02*
X10761904Y-2002438D01*
X11095238Y-1954819D02*
X11333333Y-2954819D01*
X11333333Y-2954819D02*
X11523809Y-2240533D01*
X11523809Y-2240533D02*
X11714285Y-2954819D01*
X11714285Y-2954819D02*
X11952381Y-1954819D01*
X12857142Y-2954819D02*
X12285714Y-2954819D01*
X12571428Y-2954819D02*
X12571428Y-1954819D01*
X12571428Y-1954819D02*
X12476190Y-2097676D01*
X12476190Y-2097676D02*
X12380952Y-2192914D01*
X12380952Y-2192914D02*
X12285714Y-2240533D01*
X13809523Y-2954819D02*
X13238095Y-2954819D01*
X13523809Y-2954819D02*
X13523809Y-1954819D01*
X13523809Y-1954819D02*
X13428571Y-2097676D01*
X13428571Y-2097676D02*
X13333333Y-2192914D01*
X13333333Y-2192914D02*
X13238095Y-2240533D01*
D10*
D11*
X11571429Y-2907200D02*
X11714286Y-2954819D01*
X11714286Y-2954819D02*
X11952381Y-2954819D01*
X11952381Y-2954819D02*
X12047619Y-2907200D01*
X12047619Y-2907200D02*
X12095238Y-2859580D01*
X12095238Y-2859580D02*
X12142857Y-2764342D01*
X12142857Y-2764342D02*
X12142857Y-2669104D01*
X12142857Y-2669104D02*
X12095238Y-2573866D01*
X12095238Y-2573866D02*
X12047619Y-2526247D01*
X12047619Y-2526247D02*
X11952381Y-2478628D01*
X11952381Y-2478628D02*
X11761905Y-2431009D01*
X11761905Y-2431009D02*
X11666667Y-2383390D01*
X11666667Y-2383390D02*
X11619048Y-2335771D01*
X11619048Y-2335771D02*
X11571429Y-2240533D01*
X11571429Y-2240533D02*
X11571429Y-2145295D01*
X11571429Y-2145295D02*
X11619048Y-2050057D01*
X11619048Y-2050057D02*
X11666667Y-2002438D01*
X11666667Y-2002438D02*
X11761905Y-1954819D01*
X11761905Y-1954819D02*
X12000000Y-1954819D01*
X12000000Y-1954819D02*
X12142857Y-2002438D01*
X12476191Y-1954819D02*
X12714286Y-2954819D01*
X12714286Y-2954819D02*
X12904762Y-2240533D01*
X12904762Y-2240533D02*
X13095238Y-2954819D01*
X13095238Y-2954819D02*
X13333334Y-1954819D01*
X13714286Y-2573866D02*
X14476191Y-2573866D01*
X14904762Y-2907200D02*
X15047619Y-2954819D01*
X15047619Y-2954819D02*
X15285714Y-2954819D01*
X15285714Y-2954819D02*
X15380952Y-2907200D01*
X15380952Y-2907200D02*
X15428571Y-2859580D01*
X15428571Y-2859580D02*
X15476190Y-2764342D01*
X15476190Y-2764342D02*
X15476190Y-2669104D01*
X15476190Y-2669104D02*
X15428571Y-2573866D01*
X15428571Y-2573866D02*
X15380952Y-2526247D01*
X15380952Y-2526247D02*
X15285714Y-2478628D01*
X15285714Y-2478628D02*
X15095238Y-2431009D01*
X15095238Y-2431009D02*
X15000000Y-2383390D01*
X15000000Y-2383390D02*
X14952381Y-2335771D01*
X14952381Y-2335771D02*
X14904762Y-2240533D01*
X14904762Y-2240533D02*
X14904762Y-2145295D01*
X14904762Y-2145295D02*
X14952381Y-2050057D01*
X14952381Y-2050057D02*
X15000000Y-2002438D01*
X15000000Y-2002438D02*
X15095238Y-1954819D01*
X15095238Y-1954819D02*
X15333333Y-1954819D01*
X15333333Y-1954819D02*
X15476190Y-2002438D01*
X15904762Y-2954819D02*
X15904762Y-1954819D01*
X15904762Y-1954819D02*
X16238095Y-2669104D01*
X16238095Y-2669104D02*
X16571428Y-1954819D01*
X16571428Y-1954819D02*
X16571428Y-2954819D01*
X17047619Y-2954819D02*
X17047619Y-1954819D01*
X17047619Y-1954819D02*
X17285714Y-1954819D01*
X17285714Y-1954819D02*
X17428571Y-2002438D01*
X17428571Y-2002438D02*
X17523809Y-2097676D01*
X17523809Y-2097676D02*
X17571428Y-2192914D01*
X17571428Y-2192914D02*
X17619047Y-2383390D01*
X17619047Y-2383390D02*
X17619047Y-2526247D01*
X17619047Y-2526247D02*
X17571428Y-2716723D01*
X17571428Y-2716723D02*
X17523809Y-2811961D01*
X17523809Y-2811961D02*
X17428571Y-2907200D01*
X17428571Y-2907200D02*
X17285714Y-2954819D01*
X17285714Y-2954819D02*
X17047619Y-2954819D01*
X18047619Y-2573866D02*
X18809524Y-2573866D01*
X19761904Y-1954819D02*
X19285714Y-1954819D01*
X19285714Y-1954819D02*
X19238095Y-2431009D01*
X19238095Y-2431009D02*
X19285714Y-2383390D01*
X19285714Y-2383390D02*
X19380952Y-2335771D01*
X19380952Y-2335771D02*
X19619047Y-2335771D01*
X19619047Y-2335771D02*
X19714285Y-2383390D01*
X19714285Y-2383390D02*
X19761904Y-2431009D01*
X19761904Y-2431009D02*
X19809523Y-2526247D01*
X19809523Y-2526247D02*
X19809523Y-2764342D01*
X19809523Y-2764342D02*
X19761904Y-2859580D01*
X19761904Y-2859580D02*
X19714285Y-2907200D01*
X19714285Y-2907200D02*
X19619047Y-2954819D01*
X19619047Y-2954819D02*
X19380952Y-2954819D01*
X19380952Y-2954819D02*
X19285714Y-2907200D01*
X19285714Y-2907200D02*
X19238095Y-2859580D01*
X20238095Y-2859580D02*
X20285714Y-2907200D01*
X20285714Y-2907200D02*
X20238095Y-2954819D01*
X20238095Y-2954819D02*
X20190476Y-2907200D01*
X20190476Y-2907200D02*
X20238095Y-2859580D01*
X20238095Y-2859580D02*
X20238095Y-2954819D01*
X21238094Y-2954819D02*
X20666666Y-2954819D01*
X20952380Y-2954819D02*
X20952380Y-1954819D01*
X20952380Y-1954819D02*
X20857142Y-2097676D01*
X20857142Y-2097676D02*
X20761904Y-2192914D01*
X20761904Y-2192914D02*
X20666666Y-2240533D01*
X21571428Y-2954819D02*
X22095237Y-2288152D01*
X21571428Y-2288152D02*
X22095237Y-2954819D01*
X22952380Y-1954819D02*
X22476190Y-1954819D01*
X22476190Y-1954819D02*
X22428571Y-2431009D01*
X22428571Y-2431009D02*
X22476190Y-2383390D01*
X22476190Y-2383390D02*
X22571428Y-2335771D01*
X22571428Y-2335771D02*
X22809523Y-2335771D01*
X22809523Y-2335771D02*
X22904761Y-2383390D01*
X22904761Y-2383390D02*
X22952380Y-2431009D01*
X22952380Y-2431009D02*
X22999999Y-2526247D01*
X22999999Y-2526247D02*
X22999999Y-2764342D01*
X22999999Y-2764342D02*
X22952380Y-2859580D01*
X22952380Y-2859580D02*
X22904761Y-2907200D01*
X22904761Y-2907200D02*
X22809523Y-2954819D01*
X22809523Y-2954819D02*
X22571428Y-2954819D01*
X22571428Y-2954819D02*
X22476190Y-2907200D01*
X22476190Y-2907200D02*
X22428571Y-2859580D01*
X23428571Y-2859580D02*
X23476190Y-2907200D01*
X23476190Y-2907200D02*
X23428571Y-2954819D01*
X23428571Y-2954819D02*
X23380952Y-2907200D01*
X23380952Y-2907200D02*
X23428571Y-2859580D01*
X23428571Y-2859580D02*
X23428571Y-2954819D01*
X24428570Y-2954819D02*
X23857142Y-2954819D01*
X24142856Y-2954819D02*
X24142856Y-1954819D01*
X24142856Y-1954819D02*
X24047618Y-2097676D01*
X24047618Y-2097676D02*
X23952380Y-2192914D01*
X23952380Y-2192914D02*
X23857142Y-2240533D01*
D10*
D11*
X140190476Y-2907200D02*
X140333333Y-2954819D01*
X140333333Y-2954819D02*
X140571428Y-2954819D01*
X140571428Y-2954819D02*
X140666666Y-2907200D01*
X140666666Y-2907200D02*
X140714285Y-2859580D01*
X140714285Y-2859580D02*
X140761904Y-2764342D01*
X140761904Y-2764342D02*
X140761904Y-2669104D01*
X140761904Y-2669104D02*
X140714285Y-2573866D01*
X140714285Y-2573866D02*
X140666666Y-2526247D01*
X140666666Y-2526247D02*
X140571428Y-2478628D01*
X140571428Y-2478628D02*
X140380952Y-2431009D01*
X140380952Y-2431009D02*
X140285714Y-2383390D01*
X140285714Y-2383390D02*
X140238095Y-2335771D01*
X140238095Y-2335771D02*
X140190476Y-2240533D01*
X140190476Y-2240533D02*
X140190476Y-2145295D01*
X140190476Y-2145295D02*
X140238095Y-2050057D01*
X140238095Y-2050057D02*
X140285714Y-2002438D01*
X140285714Y-2002438D02*
X140380952Y-1954819D01*
X140380952Y-1954819D02*
X140619047Y-1954819D01*
X140619047Y-1954819D02*
X140761904Y-2002438D01*
X141095238Y-1954819D02*
X141333333Y-2954819D01*
X141333333Y-2954819D02*
X141523809Y-2240533D01*
X141523809Y-2240533D02*
X141714285Y-2954819D01*
X141714285Y-2954819D02*
X141952381Y-1954819D01*
X142857142Y-2954819D02*
X142285714Y-2954819D01*
X142571428Y-2954819D02*
X142571428Y-1954819D01*
X142571428Y-1954819D02*
X142476190Y-2097676D01*
X142476190Y-2097676D02*
X142380952Y-2192914D01*
X142380952Y-2192914D02*
X142285714Y-2240533D01*
X143238095Y-2050057D02*
X143285714Y-2002438D01*
X143285714Y-2002438D02*
X143380952Y-1954819D01*
X143380952Y-1954819D02*
X143619047Y-1954819D01*
X143619047Y-1954819D02*
X143714285Y-2002438D01*
X143714285Y-2002438D02*
X143761904Y-2050057D01*
X143761904Y-2050057D02*
X143809523Y-2145295D01*
X143809523Y-2145295D02*
X143809523Y-2240533D01*
X143809523Y-2240533D02*
X143761904Y-2383390D01*
X143761904Y-2383390D02*
X143190476Y-2954819D01*
X143190476Y-2954819D02*
X143809523Y-2954819D01*
D10*
D11*
X141571429Y-2907200D02*
X141714286Y-2954819D01*
X141714286Y-2954819D02*
X141952381Y-2954819D01*
X141952381Y-2954819D02*
X142047619Y-2907200D01*
X142047619Y-2907200D02*
X142095238Y-2859580D01*
X142095238Y-2859580D02*
X142142857Y-2764342D01*
X142142857Y-2764342D02*
X142142857Y-2669104D01*
X142142857Y-2669104D02*
X142095238Y-2573866D01*
X142095238Y-2573866D02*
X142047619Y-2526247D01*
X142047619Y-2526247D02*
X141952381Y-2478628D01*
X141952381Y-2478628D02*
X141761905Y-2431009D01*
X141761905Y-2431009D02*
X141666667Y-2383390D01*
X141666667Y-2383390D02*
X141619048Y-2335771D01*
X141619048Y-2335771D02*
X141571429Y-2240533D01*
X141571429Y-2240533D02*
X141571429Y-2145295D01*
X141571429Y-2145295D02*
X141619048Y-2050057D01*
X141619048Y-2050057D02*
X141666667Y-2002438D01*
X141666667Y-2002438D02*
X141761905Y-1954819D01*
X141761905Y-1954819D02*
X142000000Y-1954819D01*
X142000000Y-1954819D02*
X142142857Y-2002438D01*
X142476191Y-1954819D02*
X142714286Y-2954819D01*
X142714286Y-2954819D02*
X142904762Y-2240533D01*
X142904762Y-2240533D02*
X143095238Y-2954819D01*
X143095238Y-2954819D02*
X143333334Y-1954819D01*
X143714286Y-2573866D02*
X144476191Y-2573866D01*
X144904762Y-2907200D02*
X145047619Y-2954819D01*
X145047619Y-2954819D02*
X145285714Y-2954819D01*
X145285714Y-2954819D02*
X145380952Y-2907200D01*
X145380952Y-2907200D02*
X145428571Y-2859580D01*
X145428571Y-2859580D02*
X145476190Y-2764342D01*
X145476190Y-2764342D02*
X145476190Y-2669104D01*
X145476190Y-2669104D02*
X145428571Y-2573866D01*
X145428571Y-2573866D02*
X145380952Y-2526247D01*
X145380952Y-2526247D02*
X145285714Y-2478628D01*
X145285714Y-2478628D02*
X145095238Y-2431009D01*
X145095238Y-2431009D02*
X145000000Y-2383390D01*
X145000000Y-2383390D02*
X144952381Y-2335771D01*
X144952381Y-2335771D02*
X144904762Y-2240533D01*
X144904762Y-2240533D02*
X144904762Y-2145295D01*
X144904762Y-2145295D02*
X144952381Y-2050057D01*
X144952381Y-2050057D02*
X145000000Y-2002438D01*
X145000000Y-2002438D02*
X145095238Y-1954819D01*
X145095238Y-1954819D02*
X145333333Y-1954819D01*
X145333333Y-1954819D02*
X145476190Y-2002438D01*
X145904762Y-2954819D02*
X145904762Y-1954819D01*
X145904762Y-1954819D02*
X146238095Y-2669104D01*
X146238095Y-2669104D02*
X146571428Y-1954819D01*
X146571428Y-1954819D02*
X146571428Y-2954819D01*
X147047619Y-2954819D02*
X147047619Y-1954819D01*
X147047619Y-1954819D02*
X147285714Y-1954819D01*
X147285714Y-1954819D02*
X147428571Y-2002438D01*
X147428571Y-2002438D02*
X147523809Y-2097676D01*
X147523809Y-2097676D02*
X147571428Y-2192914D01*
X147571428Y-2192914D02*
X147619047Y-2383390D01*
X147619047Y-2383390D02*
X147619047Y-2526247D01*
X147619047Y-2526247D02*
X147571428Y-2716723D01*
X147571428Y-2716723D02*
X147523809Y-2811961D01*
X147523809Y-2811961D02*
X147428571Y-2907200D01*
X147428571Y-2907200D02*
X147285714Y-2954819D01*
X147285714Y-2954819D02*
X147047619Y-2954819D01*
X148047619Y-2573866D02*
X148809524Y-2573866D01*
X149761904Y-1954819D02*
X149285714Y-1954819D01*
X149285714Y-1954819D02*
X149238095Y-2431009D01*
X149238095Y-2431009D02*
X149285714Y-2383390D01*
X149285714Y-2383390D02*
X149380952Y-2335771D01*
X149380952Y-2335771D02*
X149619047Y-2335771D01*
X149619047Y-2335771D02*
X149714285Y-2383390D01*
X149714285Y-2383390D02*
X149761904Y-2431009D01*
X149761904Y-2431009D02*
X149809523Y-2526247D01*
X149809523Y-2526247D02*
X149809523Y-2764342D01*
X149809523Y-2764342D02*
X149761904Y-2859580D01*
X149761904Y-2859580D02*
X149714285Y-2907200D01*
X149714285Y-2907200D02*
X149619047Y-2954819D01*
X149619047Y-2954819D02*
X149380952Y-2954819D01*
X149380952Y-2954819D02*
X149285714Y-2907200D01*
X149285714Y-2907200D02*
X149238095Y-2859580D01*
X150238095Y-2859580D02*
X150285714Y-2907200D01*
X150285714Y-2907200D02*
X150238095Y-2954819D01*
X150238095Y-2954819D02*
X150190476Y-2907200D01*
X150190476Y-2907200D02*
X150238095Y-2859580D01*
X150238095Y-2859580D02*
X150238095Y-2954819D01*
X151238094Y-2954819D02*
X150666666Y-2954819D01*
X150952380Y-2954819D02*
X150952380Y-1954819D01*
X150952380Y-1954819D02*
X150857142Y-2097676D01*
X150857142Y-2097676D02*
X150761904Y-2192914D01*
X150761904Y-2192914D02*
X150666666Y-2240533D01*
X151571428Y-2954819D02*
X152095237Y-2288152D01*
X151571428Y-2288152D02*
X152095237Y-2954819D01*
X152952380Y-1954819D02*
X152476190Y-1954819D01*
X152476190Y-1954819D02*
X152428571Y-2431009D01*
X152428571Y-2431009D02*
X152476190Y-2383390D01*
X152476190Y-2383390D02*
X152571428Y-2335771D01*
X152571428Y-2335771D02*
X152809523Y-2335771D01*
X152809523Y-2335771D02*
X152904761Y-2383390D01*
X152904761Y-2383390D02*
X152952380Y-2431009D01*
X152952380Y-2431009D02*
X152999999Y-2526247D01*
X152999999Y-2526247D02*
X152999999Y-2764342D01*
X152999999Y-2764342D02*
X152952380Y-2859580D01*
X152952380Y-2859580D02*
X152904761Y-2907200D01*
X152904761Y-2907200D02*
X152809523Y-2954819D01*
X152809523Y-2954819D02*
X152571428Y-2954819D01*
X152571428Y-2954819D02*
X152476190Y-2907200D01*
X152476190Y-2907200D02*
X152428571Y-2859580D01*
X153428571Y-2859580D02*
X153476190Y-2907200D01*
X153476190Y-2907200D02*
X153428571Y-2954819D01*
X153428571Y-2954819D02*
X153380952Y-2907200D01*
X153380952Y-2907200D02*
X153428571Y-2859580D01*
X153428571Y-2859580D02*
X153428571Y-2954819D01*
X154428570Y-2954819D02*
X153857142Y-2954819D01*
X154142856Y-2954819D02*
X154142856Y-1954819D01*
X154142856Y-1954819D02*
X154047618Y-2097676D01*
X154047618Y-2097676D02*
X153952380Y-2192914D01*
X153952380Y-2192914D02*
X153857142Y-2240533D01*
D10*
D11*
X131666666Y-34954819D02*
X131666666Y-35669104D01*
X131666666Y-35669104D02*
X131619047Y-35811961D01*
X131619047Y-35811961D02*
X131523809Y-35907200D01*
X131523809Y-35907200D02*
X131380952Y-35954819D01*
X131380952Y-35954819D02*
X131285714Y-35954819D01*
X132571428Y-35288152D02*
X132571428Y-35954819D01*
X132333333Y-34907200D02*
X132095238Y-35621485D01*
X132095238Y-35621485D02*
X132714285Y-35621485D01*
D10*
D11*
X131928572Y-35431009D02*
X131595239Y-35431009D01*
X131595239Y-35954819D02*
X131595239Y-34954819D01*
X131595239Y-34954819D02*
X132071429Y-34954819D01*
X132452382Y-35954819D02*
X132452382Y-34954819D01*
X132452382Y-34954819D02*
X132833334Y-34954819D01*
X132833334Y-34954819D02*
X132928572Y-35002438D01*
X132928572Y-35002438D02*
X132976191Y-35050057D01*
X132976191Y-35050057D02*
X133023810Y-35145295D01*
X133023810Y-35145295D02*
X133023810Y-35288152D01*
X133023810Y-35288152D02*
X132976191Y-35383390D01*
X132976191Y-35383390D02*
X132928572Y-35431009D01*
X132928572Y-35431009D02*
X132833334Y-35478628D01*
X132833334Y-35478628D02*
X132452382Y-35478628D01*
X134023810Y-35859580D02*
X133976191Y-35907200D01*
X133976191Y-35907200D02*
X133833334Y-35954819D01*
X133833334Y-35954819D02*
X133738096Y-35954819D01*
X133738096Y-35954819D02*
X133595239Y-35907200D01*
X133595239Y-35907200D02*
X133500001Y-35811961D01*
X133500001Y-35811961D02*
X133452382Y-35716723D01*
X133452382Y-35716723D02*
X133404763Y-35526247D01*
X133404763Y-35526247D02*
X133404763Y-35383390D01*
X133404763Y-35383390D02*
X133452382Y-35192914D01*
X133452382Y-35192914D02*
X133500001Y-35097676D01*
X133500001Y-35097676D02*
X133595239Y-35002438D01*
X133595239Y-35002438D02*
X133738096Y-34954819D01*
X133738096Y-34954819D02*
X133833334Y-34954819D01*
X133833334Y-34954819D02*
X133976191Y-35002438D01*
X133976191Y-35002438D02*
X134023810Y-35050057D01*
X134452382Y-35573866D02*
X135214287Y-35573866D01*
X136119048Y-35288152D02*
X136119048Y-35954819D01*
X135880953Y-34907200D02*
X135642858Y-35621485D01*
X135642858Y-35621485D02*
X136261905Y-35621485D01*
X136833334Y-34954819D02*
X136928572Y-34954819D01*
X136928572Y-34954819D02*
X137023810Y-35002438D01*
X137023810Y-35002438D02*
X137071429Y-35050057D01*
X137071429Y-35050057D02*
X137119048Y-35145295D01*
X137119048Y-35145295D02*
X137166667Y-35335771D01*
X137166667Y-35335771D02*
X137166667Y-35573866D01*
X137166667Y-35573866D02*
X137119048Y-35764342D01*
X137119048Y-35764342D02*
X137071429Y-35859580D01*
X137071429Y-35859580D02*
X137023810Y-35907200D01*
X137023810Y-35907200D02*
X136928572Y-35954819D01*
X136928572Y-35954819D02*
X136833334Y-35954819D01*
X136833334Y-35954819D02*
X136738096Y-35907200D01*
X136738096Y-35907200D02*
X136690477Y-35859580D01*
X136690477Y-35859580D02*
X136642858Y-35764342D01*
X136642858Y-35764342D02*
X136595239Y-35573866D01*
X136595239Y-35573866D02*
X136595239Y-35335771D01*
X136595239Y-35335771D02*
X136642858Y-35145295D01*
X136642858Y-35145295D02*
X136690477Y-35050057D01*
X136690477Y-35050057D02*
X136738096Y-35002438D01*
X136738096Y-35002438D02*
X136833334Y-34954819D01*
X137595239Y-35954819D02*
X137595239Y-34954819D01*
X137595239Y-34954819D02*
X137976191Y-34954819D01*
X137976191Y-34954819D02*
X138071429Y-35002438D01*
X138071429Y-35002438D02*
X138119048Y-35050057D01*
X138119048Y-35050057D02*
X138166667Y-35145295D01*
X138166667Y-35145295D02*
X138166667Y-35288152D01*
X138166667Y-35288152D02*
X138119048Y-35383390D01*
X138119048Y-35383390D02*
X138071429Y-35431009D01*
X138071429Y-35431009D02*
X137976191Y-35478628D01*
X137976191Y-35478628D02*
X137595239Y-35478628D01*
X138595239Y-35573866D02*
X139357144Y-35573866D01*
X140023810Y-34954819D02*
X140119048Y-34954819D01*
X140119048Y-34954819D02*
X140214286Y-35002438D01*
X140214286Y-35002438D02*
X140261905Y-35050057D01*
X140261905Y-35050057D02*
X140309524Y-35145295D01*
X140309524Y-35145295D02*
X140357143Y-35335771D01*
X140357143Y-35335771D02*
X140357143Y-35573866D01*
X140357143Y-35573866D02*
X140309524Y-35764342D01*
X140309524Y-35764342D02*
X140261905Y-35859580D01*
X140261905Y-35859580D02*
X140214286Y-35907200D01*
X140214286Y-35907200D02*
X140119048Y-35954819D01*
X140119048Y-35954819D02*
X140023810Y-35954819D01*
X140023810Y-35954819D02*
X139928572Y-35907200D01*
X139928572Y-35907200D02*
X139880953Y-35859580D01*
X139880953Y-35859580D02*
X139833334Y-35764342D01*
X139833334Y-35764342D02*
X139785715Y-35573866D01*
X139785715Y-35573866D02*
X139785715Y-35335771D01*
X139785715Y-35335771D02*
X139833334Y-35145295D01*
X139833334Y-35145295D02*
X139880953Y-35050057D01*
X139880953Y-35050057D02*
X139928572Y-35002438D01*
X139928572Y-35002438D02*
X140023810Y-34954819D01*
X140785715Y-35859580D02*
X140833334Y-35907200D01*
X140833334Y-35907200D02*
X140785715Y-35954819D01*
X140785715Y-35954819D02*
X140738096Y-35907200D01*
X140738096Y-35907200D02*
X140785715Y-35859580D01*
X140785715Y-35859580D02*
X140785715Y-35954819D01*
X141738095Y-34954819D02*
X141261905Y-34954819D01*
X141261905Y-34954819D02*
X141214286Y-35431009D01*
X141214286Y-35431009D02*
X141261905Y-35383390D01*
X141261905Y-35383390D02*
X141357143Y-35335771D01*
X141357143Y-35335771D02*
X141595238Y-35335771D01*
X141595238Y-35335771D02*
X141690476Y-35383390D01*
X141690476Y-35383390D02*
X141738095Y-35431009D01*
X141738095Y-35431009D02*
X141785714Y-35526247D01*
X141785714Y-35526247D02*
X141785714Y-35764342D01*
X141785714Y-35764342D02*
X141738095Y-35859580D01*
X141738095Y-35859580D02*
X141690476Y-35907200D01*
X141690476Y-35907200D02*
X141595238Y-35954819D01*
X141595238Y-35954819D02*
X141357143Y-35954819D01*
X141357143Y-35954819D02*
X141261905Y-35907200D01*
X141261905Y-35907200D02*
X141214286Y-35859580D01*
X142214286Y-35954819D02*
X142214286Y-35288152D01*
X142214286Y-35383390D02*
X142261905Y-35335771D01*
X142261905Y-35335771D02*
X142357143Y-35288152D01*
X142357143Y-35288152D02*
X142500000Y-35288152D01*
X142500000Y-35288152D02*
X142595238Y-35335771D01*
X142595238Y-35335771D02*
X142642857Y-35431009D01*
X142642857Y-35431009D02*
X142642857Y-35954819D01*
X142642857Y-35431009D02*
X142690476Y-35335771D01*
X142690476Y-35335771D02*
X142785714Y-35288152D01*
X142785714Y-35288152D02*
X142928571Y-35288152D01*
X142928571Y-35288152D02*
X143023810Y-35335771D01*
X143023810Y-35335771D02*
X143071429Y-35431009D01*
X143071429Y-35431009D02*
X143071429Y-35954819D01*
X143547619Y-35954819D02*
X143547619Y-35288152D01*
X143547619Y-35383390D02*
X143595238Y-35335771D01*
X143595238Y-35335771D02*
X143690476Y-35288152D01*
X143690476Y-35288152D02*
X143833333Y-35288152D01*
X143833333Y-35288152D02*
X143928571Y-35335771D01*
X143928571Y-35335771D02*
X143976190Y-35431009D01*
X143976190Y-35431009D02*
X143976190Y-35954819D01*
X143976190Y-35431009D02*
X144023809Y-35335771D01*
X144023809Y-35335771D02*
X144119047Y-35288152D01*
X144119047Y-35288152D02*
X144261904Y-35288152D01*
X144261904Y-35288152D02*
X144357143Y-35335771D01*
X144357143Y-35335771D02*
X144404762Y-35431009D01*
X144404762Y-35431009D02*
X144404762Y-35954819D01*
D10*
D11*
X79666666Y-68454819D02*
X79666666Y-69169104D01*
X79666666Y-69169104D02*
X79619047Y-69311961D01*
X79619047Y-69311961D02*
X79523809Y-69407200D01*
X79523809Y-69407200D02*
X79380952Y-69454819D01*
X79380952Y-69454819D02*
X79285714Y-69454819D01*
X80666666Y-69454819D02*
X80095238Y-69454819D01*
X80380952Y-69454819D02*
X80380952Y-68454819D01*
X80380952Y-68454819D02*
X80285714Y-68597676D01*
X80285714Y-68597676D02*
X80190476Y-68692914D01*
X80190476Y-68692914D02*
X80095238Y-68740533D01*
D10*
D11*
X75547619Y-74454819D02*
X75547619Y-75264342D01*
X75547619Y-75264342D02*
X75595238Y-75359580D01*
X75595238Y-75359580D02*
X75642857Y-75407200D01*
X75642857Y-75407200D02*
X75738095Y-75454819D01*
X75738095Y-75454819D02*
X75928571Y-75454819D01*
X75928571Y-75454819D02*
X76023809Y-75407200D01*
X76023809Y-75407200D02*
X76071428Y-75359580D01*
X76071428Y-75359580D02*
X76119047Y-75264342D01*
X76119047Y-75264342D02*
X76119047Y-74454819D01*
X76547619Y-75407200D02*
X76690476Y-75454819D01*
X76690476Y-75454819D02*
X76928571Y-75454819D01*
X76928571Y-75454819D02*
X77023809Y-75407200D01*
X77023809Y-75407200D02*
X77071428Y-75359580D01*
X77071428Y-75359580D02*
X77119047Y-75264342D01*
X77119047Y-75264342D02*
X77119047Y-75169104D01*
X77119047Y-75169104D02*
X77071428Y-75073866D01*
X77071428Y-75073866D02*
X77023809Y-75026247D01*
X77023809Y-75026247D02*
X76928571Y-74978628D01*
X76928571Y-74978628D02*
X76738095Y-74931009D01*
X76738095Y-74931009D02*
X76642857Y-74883390D01*
X76642857Y-74883390D02*
X76595238Y-74835771D01*
X76595238Y-74835771D02*
X76547619Y-74740533D01*
X76547619Y-74740533D02*
X76547619Y-74645295D01*
X76547619Y-74645295D02*
X76595238Y-74550057D01*
X76595238Y-74550057D02*
X76642857Y-74502438D01*
X76642857Y-74502438D02*
X76738095Y-74454819D01*
X76738095Y-74454819D02*
X76976190Y-74454819D01*
X76976190Y-74454819D02*
X77119047Y-74502438D01*
X77880952Y-74931009D02*
X78023809Y-74978628D01*
X78023809Y-74978628D02*
X78071428Y-75026247D01*
X78071428Y-75026247D02*
X78119047Y-75121485D01*
X78119047Y-75121485D02*
X78119047Y-75264342D01*
X78119047Y-75264342D02*
X78071428Y-75359580D01*
X78071428Y-75359580D02*
X78023809Y-75407200D01*
X78023809Y-75407200D02*
X77928571Y-75454819D01*
X77928571Y-75454819D02*
X77547619Y-75454819D01*
X77547619Y-75454819D02*
X77547619Y-74454819D01*
X77547619Y-74454819D02*
X77880952Y-74454819D01*
X77880952Y-74454819D02*
X77976190Y-74502438D01*
X77976190Y-74502438D02*
X78023809Y-74550057D01*
X78023809Y-74550057D02*
X78071428Y-74645295D01*
X78071428Y-74645295D02*
X78071428Y-74740533D01*
X78071428Y-74740533D02*
X78023809Y-74835771D01*
X78023809Y-74835771D02*
X77976190Y-74883390D01*
X77976190Y-74883390D02*
X77880952Y-74931009D01*
X77880952Y-74931009D02*
X77547619Y-74931009D01*
X78547619Y-75073866D02*
X79309524Y-75073866D01*
X80357142Y-75359580D02*
X80309523Y-75407200D01*
X80309523Y-75407200D02*
X80166666Y-75454819D01*
X80166666Y-75454819D02*
X80071428Y-75454819D01*
X80071428Y-75454819D02*
X79928571Y-75407200D01*
X79928571Y-75407200D02*
X79833333Y-75311961D01*
X79833333Y-75311961D02*
X79785714Y-75216723D01*
X79785714Y-75216723D02*
X79738095Y-75026247D01*
X79738095Y-75026247D02*
X79738095Y-74883390D01*
X79738095Y-74883390D02*
X79785714Y-74692914D01*
X79785714Y-74692914D02*
X79833333Y-74597676D01*
X79833333Y-74597676D02*
X79928571Y-74502438D01*
X79928571Y-74502438D02*
X80071428Y-74454819D01*
X80071428Y-74454819D02*
X80166666Y-74454819D01*
X80166666Y-74454819D02*
X80309523Y-74502438D01*
X80309523Y-74502438D02*
X80357142Y-74550057D01*
X80785714Y-75073866D02*
X81547619Y-75073866D01*
X82547618Y-75454819D02*
X81976190Y-75454819D01*
X82261904Y-75454819D02*
X82261904Y-74454819D01*
X82261904Y-74454819D02*
X82166666Y-74597676D01*
X82166666Y-74597676D02*
X82071428Y-74692914D01*
X82071428Y-74692914D02*
X81976190Y-74740533D01*
X83404761Y-74454819D02*
X83214285Y-74454819D01*
X83214285Y-74454819D02*
X83119047Y-74502438D01*
X83119047Y-74502438D02*
X83071428Y-74550057D01*
X83071428Y-74550057D02*
X82976190Y-74692914D01*
X82976190Y-74692914D02*
X82928571Y-74883390D01*
X82928571Y-74883390D02*
X82928571Y-75264342D01*
X82928571Y-75264342D02*
X82976190Y-75359580D01*
X82976190Y-75359580D02*
X83023809Y-75407200D01*
X83023809Y-75407200D02*
X83119047Y-75454819D01*
X83119047Y-75454819D02*
X83309523Y-75454819D01*
X83309523Y-75454819D02*
X83404761Y-75407200D01*
X83404761Y-75407200D02*
X83452380Y-75359580D01*
X83452380Y-75359580D02*
X83499999Y-75264342D01*
X83499999Y-75264342D02*
X83499999Y-75026247D01*
X83499999Y-75026247D02*
X83452380Y-74931009D01*
X83452380Y-74931009D02*
X83404761Y-74883390D01*
X83404761Y-74883390D02*
X83309523Y-74835771D01*
X83309523Y-74835771D02*
X83119047Y-74835771D01*
X83119047Y-74835771D02*
X83023809Y-74883390D01*
X83023809Y-74883390D02*
X82976190Y-74931009D01*
X82976190Y-74931009D02*
X82928571Y-75026247D01*
X83928571Y-75454819D02*
X83928571Y-74454819D01*
X83928571Y-74454819D02*
X84309523Y-74454819D01*
X84309523Y-74454819D02*
X84404761Y-74502438D01*
X84404761Y-74502438D02*
X84452380Y-74550057D01*
X84452380Y-74550057D02*
X84499999Y-74645295D01*
X84499999Y-74645295D02*
X84499999Y-74788152D01*
X84499999Y-74788152D02*
X84452380Y-74883390D01*
X84452380Y-74883390D02*
X84404761Y-74931009D01*
X84404761Y-74931009D02*
X84309523Y-74978628D01*
X84309523Y-74978628D02*
X83928571Y-74978628D01*
D10*
D11*
X139238095Y-63454819D02*
X139238095Y-64264342D01*
X139238095Y-64264342D02*
X139285714Y-64359580D01*
X139285714Y-64359580D02*
X139333333Y-64407200D01*
X139333333Y-64407200D02*
X139428571Y-64454819D01*
X139428571Y-64454819D02*
X139619047Y-64454819D01*
X139619047Y-64454819D02*
X139714285Y-64407200D01*
X139714285Y-64407200D02*
X139761904Y-64359580D01*
X139761904Y-64359580D02*
X139809523Y-64264342D01*
X139809523Y-64264342D02*
X139809523Y-63454819D01*
X140714285Y-63454819D02*
X140523809Y-63454819D01*
X140523809Y-63454819D02*
X140428571Y-63502438D01*
X140428571Y-63502438D02*
X140380952Y-63550057D01*
X140380952Y-63550057D02*
X140285714Y-63692914D01*
X140285714Y-63692914D02*
X140238095Y-63883390D01*
X140238095Y-63883390D02*
X140238095Y-64264342D01*
X140238095Y-64264342D02*
X140285714Y-64359580D01*
X140285714Y-64359580D02*
X140333333Y-64407200D01*
X140333333Y-64407200D02*
X140428571Y-64454819D01*
X140428571Y-64454819D02*
X140619047Y-64454819D01*
X140619047Y-64454819D02*
X140714285Y-64407200D01*
X140714285Y-64407200D02*
X140761904Y-64359580D01*
X140761904Y-64359580D02*
X140809523Y-64264342D01*
X140809523Y-64264342D02*
X140809523Y-64026247D01*
X140809523Y-64026247D02*
X140761904Y-63931009D01*
X140761904Y-63931009D02*
X140714285Y-63883390D01*
X140714285Y-63883390D02*
X140619047Y-63835771D01*
X140619047Y-63835771D02*
X140428571Y-63835771D01*
X140428571Y-63835771D02*
X140333333Y-63883390D01*
X140333333Y-63883390D02*
X140285714Y-63931009D01*
X140285714Y-63931009D02*
X140238095Y-64026247D01*
D10*
D11*
X137285714Y-69454819D02*
X137857142Y-69454819D01*
X137571428Y-70454819D02*
X137571428Y-69454819D01*
X138523809Y-69931009D02*
X138190476Y-69931009D01*
X138190476Y-70454819D02*
X138190476Y-69454819D01*
X138190476Y-69454819D02*
X138666666Y-69454819D01*
X139047619Y-70073866D02*
X139809524Y-70073866D01*
X140476190Y-69454819D02*
X140571428Y-69454819D01*
X140571428Y-69454819D02*
X140666666Y-69502438D01*
X140666666Y-69502438D02*
X140714285Y-69550057D01*
X140714285Y-69550057D02*
X140761904Y-69645295D01*
X140761904Y-69645295D02*
X140809523Y-69835771D01*
X140809523Y-69835771D02*
X140809523Y-70073866D01*
X140809523Y-70073866D02*
X140761904Y-70264342D01*
X140761904Y-70264342D02*
X140714285Y-70359580D01*
X140714285Y-70359580D02*
X140666666Y-70407200D01*
X140666666Y-70407200D02*
X140571428Y-70454819D01*
X140571428Y-70454819D02*
X140476190Y-70454819D01*
X140476190Y-70454819D02*
X140380952Y-70407200D01*
X140380952Y-70407200D02*
X140333333Y-70359580D01*
X140333333Y-70359580D02*
X140285714Y-70264342D01*
X140285714Y-70264342D02*
X140238095Y-70073866D01*
X140238095Y-70073866D02*
X140238095Y-69835771D01*
X140238095Y-69835771D02*
X140285714Y-69645295D01*
X140285714Y-69645295D02*
X140333333Y-69550057D01*
X140333333Y-69550057D02*
X140380952Y-69502438D01*
X140380952Y-69502438D02*
X140476190Y-69454819D01*
X141761904Y-70454819D02*
X141190476Y-70454819D01*
X141476190Y-70454819D02*
X141476190Y-69454819D01*
X141476190Y-69454819D02*
X141380952Y-69597676D01*
X141380952Y-69597676D02*
X141285714Y-69692914D01*
X141285714Y-69692914D02*
X141190476Y-69740533D01*
X142142857Y-70169104D02*
X142619047Y-70169104D01*
X142047619Y-70454819D02*
X142380952Y-69454819D01*
X142380952Y-69454819D02*
X142714285Y-70454819D01*
D10*
D11*
X5190476Y-19907200D02*
X5333333Y-19954819D01*
X5333333Y-19954819D02*
X5571428Y-19954819D01*
X5571428Y-19954819D02*
X5666666Y-19907200D01*
X5666666Y-19907200D02*
X5714285Y-19859580D01*
X5714285Y-19859580D02*
X5761904Y-19764342D01*
X5761904Y-19764342D02*
X5761904Y-19669104D01*
X5761904Y-19669104D02*
X5714285Y-19573866D01*
X5714285Y-19573866D02*
X5666666Y-19526247D01*
X5666666Y-19526247D02*
X5571428Y-19478628D01*
X5571428Y-19478628D02*
X5380952Y-19431009D01*
X5380952Y-19431009D02*
X5285714Y-19383390D01*
X5285714Y-19383390D02*
X5238095Y-19335771D01*
X5238095Y-19335771D02*
X5190476Y-19240533D01*
X5190476Y-19240533D02*
X5190476Y-19145295D01*
X5190476Y-19145295D02*
X5238095Y-19050057D01*
X5238095Y-19050057D02*
X5285714Y-19002438D01*
X5285714Y-19002438D02*
X5380952Y-18954819D01*
X5380952Y-18954819D02*
X5619047Y-18954819D01*
X5619047Y-18954819D02*
X5761904Y-19002438D01*
X6095238Y-18954819D02*
X6333333Y-19954819D01*
X6333333Y-19954819D02*
X6523809Y-19240533D01*
X6523809Y-19240533D02*
X6714285Y-19954819D01*
X6714285Y-19954819D02*
X6952381Y-18954819D01*
X7095238Y-20050057D02*
X7857142Y-20050057D01*
X8095238Y-19954819D02*
X8095238Y-18954819D01*
X8095238Y-18954819D02*
X8476190Y-18954819D01*
X8476190Y-18954819D02*
X8571428Y-19002438D01*
X8571428Y-19002438D02*
X8619047Y-19050057D01*
X8619047Y-19050057D02*
X8666666Y-19145295D01*
X8666666Y-19145295D02*
X8666666Y-19288152D01*
X8666666Y-19288152D02*
X8619047Y-19383390D01*
X8619047Y-19383390D02*
X8571428Y-19431009D01*
X8571428Y-19431009D02*
X8476190Y-19478628D01*
X8476190Y-19478628D02*
X8095238Y-19478628D01*
X9000000Y-18954819D02*
X9238095Y-19954819D01*
X9238095Y-19954819D02*
X9428571Y-19240533D01*
X9428571Y-19240533D02*
X9619047Y-19954819D01*
X9619047Y-19954819D02*
X9857143Y-18954819D01*
X10809523Y-19954819D02*
X10476190Y-19478628D01*
X10238095Y-19954819D02*
X10238095Y-18954819D01*
X10238095Y-18954819D02*
X10619047Y-18954819D01*
X10619047Y-18954819D02*
X10714285Y-19002438D01*
X10714285Y-19002438D02*
X10761904Y-19050057D01*
X10761904Y-19050057D02*
X10809523Y-19145295D01*
X10809523Y-19145295D02*
X10809523Y-19288152D01*
X10809523Y-19288152D02*
X10761904Y-19383390D01*
X10761904Y-19383390D02*
X10714285Y-19431009D01*
X10714285Y-19431009D02*
X10619047Y-19478628D01*
X10619047Y-19478628D02*
X10238095Y-19478628D01*
D10*
D11*
X3238095Y-25907200D02*
X3380952Y-25954819D01*
X3380952Y-25954819D02*
X3619047Y-25954819D01*
X3619047Y-25954819D02*
X3714285Y-25907200D01*
X3714285Y-25907200D02*
X3761904Y-25859580D01*
X3761904Y-25859580D02*
X3809523Y-25764342D01*
X3809523Y-25764342D02*
X3809523Y-25669104D01*
X3809523Y-25669104D02*
X3761904Y-25573866D01*
X3761904Y-25573866D02*
X3714285Y-25526247D01*
X3714285Y-25526247D02*
X3619047Y-25478628D01*
X3619047Y-25478628D02*
X3428571Y-25431009D01*
X3428571Y-25431009D02*
X3333333Y-25383390D01*
X3333333Y-25383390D02*
X3285714Y-25335771D01*
X3285714Y-25335771D02*
X3238095Y-25240533D01*
X3238095Y-25240533D02*
X3238095Y-25145295D01*
X3238095Y-25145295D02*
X3285714Y-25050057D01*
X3285714Y-25050057D02*
X3333333Y-25002438D01*
X3333333Y-25002438D02*
X3428571Y-24954819D01*
X3428571Y-24954819D02*
X3666666Y-24954819D01*
X3666666Y-24954819D02*
X3809523Y-25002438D01*
X4190476Y-25907200D02*
X4333333Y-25954819D01*
X4333333Y-25954819D02*
X4571428Y-25954819D01*
X4571428Y-25954819D02*
X4666666Y-25907200D01*
X4666666Y-25907200D02*
X4714285Y-25859580D01*
X4714285Y-25859580D02*
X4761904Y-25764342D01*
X4761904Y-25764342D02*
X4761904Y-25669104D01*
X4761904Y-25669104D02*
X4714285Y-25573866D01*
X4714285Y-25573866D02*
X4666666Y-25526247D01*
X4666666Y-25526247D02*
X4571428Y-25478628D01*
X4571428Y-25478628D02*
X4380952Y-25431009D01*
X4380952Y-25431009D02*
X4285714Y-25383390D01*
X4285714Y-25383390D02*
X4238095Y-25335771D01*
X4238095Y-25335771D02*
X4190476Y-25240533D01*
X4190476Y-25240533D02*
X4190476Y-25145295D01*
X4190476Y-25145295D02*
X4238095Y-25050057D01*
X4238095Y-25050057D02*
X4285714Y-25002438D01*
X4285714Y-25002438D02*
X4380952Y-24954819D01*
X4380952Y-24954819D02*
X4619047Y-24954819D01*
X4619047Y-24954819D02*
X4761904Y-25002438D01*
X5190476Y-25573866D02*
X5952381Y-25573866D01*
X6952380Y-25954819D02*
X6380952Y-25954819D01*
X6666666Y-25954819D02*
X6666666Y-24954819D01*
X6666666Y-24954819D02*
X6571428Y-25097676D01*
X6571428Y-25097676D02*
X6476190Y-25192914D01*
X6476190Y-25192914D02*
X6380952Y-25240533D01*
X7333333Y-25050057D02*
X7380952Y-25002438D01*
X7380952Y-25002438D02*
X7476190Y-24954819D01*
X7476190Y-24954819D02*
X7714285Y-24954819D01*
X7714285Y-24954819D02*
X7809523Y-25002438D01*
X7809523Y-25002438D02*
X7857142Y-25050057D01*
X7857142Y-25050057D02*
X7904761Y-25145295D01*
X7904761Y-25145295D02*
X7904761Y-25240533D01*
X7904761Y-25240533D02*
X7857142Y-25383390D01*
X7857142Y-25383390D02*
X7285714Y-25954819D01*
X7285714Y-25954819D02*
X7904761Y-25954819D01*
X8333333Y-25954819D02*
X8333333Y-24954819D01*
X8333333Y-24954819D02*
X8571428Y-24954819D01*
X8571428Y-24954819D02*
X8714285Y-25002438D01*
X8714285Y-25002438D02*
X8809523Y-25097676D01*
X8809523Y-25097676D02*
X8857142Y-25192914D01*
X8857142Y-25192914D02*
X8904761Y-25383390D01*
X8904761Y-25383390D02*
X8904761Y-25526247D01*
X8904761Y-25526247D02*
X8857142Y-25716723D01*
X8857142Y-25716723D02*
X8809523Y-25811961D01*
X8809523Y-25811961D02*
X8714285Y-25907200D01*
X8714285Y-25907200D02*
X8571428Y-25954819D01*
X8571428Y-25954819D02*
X8333333Y-25954819D01*
X9523809Y-24954819D02*
X9619047Y-24954819D01*
X9619047Y-24954819D02*
X9714285Y-25002438D01*
X9714285Y-25002438D02*
X9761904Y-25050057D01*
X9761904Y-25050057D02*
X9809523Y-25145295D01*
X9809523Y-25145295D02*
X9857142Y-25335771D01*
X9857142Y-25335771D02*
X9857142Y-25573866D01*
X9857142Y-25573866D02*
X9809523Y-25764342D01*
X9809523Y-25764342D02*
X9761904Y-25859580D01*
X9761904Y-25859580D02*
X9714285Y-25907200D01*
X9714285Y-25907200D02*
X9619047Y-25954819D01*
X9619047Y-25954819D02*
X9523809Y-25954819D01*
X9523809Y-25954819D02*
X9428571Y-25907200D01*
X9428571Y-25907200D02*
X9380952Y-25859580D01*
X9380952Y-25859580D02*
X9333333Y-25764342D01*
X9333333Y-25764342D02*
X9285714Y-25573866D01*
X9285714Y-25573866D02*
X9285714Y-25335771D01*
X9285714Y-25335771D02*
X9333333Y-25145295D01*
X9333333Y-25145295D02*
X9380952Y-25050057D01*
X9380952Y-25050057D02*
X9428571Y-25002438D01*
X9428571Y-25002438D02*
X9523809Y-24954819D01*
X10476190Y-24954819D02*
X10571428Y-24954819D01*
X10571428Y-24954819D02*
X10666666Y-25002438D01*
X10666666Y-25002438D02*
X10714285Y-25050057D01*
X10714285Y-25050057D02*
X10761904Y-25145295D01*
X10761904Y-25145295D02*
X10809523Y-25335771D01*
X10809523Y-25335771D02*
X10809523Y-25573866D01*
X10809523Y-25573866D02*
X10761904Y-25764342D01*
X10761904Y-25764342D02*
X10714285Y-25859580D01*
X10714285Y-25859580D02*
X10666666Y-25907200D01*
X10666666Y-25907200D02*
X10571428Y-25954819D01*
X10571428Y-25954819D02*
X10476190Y-25954819D01*
X10476190Y-25954819D02*
X10380952Y-25907200D01*
X10380952Y-25907200D02*
X10333333Y-25859580D01*
X10333333Y-25859580D02*
X10285714Y-25764342D01*
X10285714Y-25764342D02*
X10238095Y-25573866D01*
X10238095Y-25573866D02*
X10238095Y-25335771D01*
X10238095Y-25335771D02*
X10285714Y-25145295D01*
X10285714Y-25145295D02*
X10333333Y-25050057D01*
X10333333Y-25050057D02*
X10380952Y-25002438D01*
X10380952Y-25002438D02*
X10476190Y-24954819D01*
X11761904Y-25002438D02*
X11666666Y-24954819D01*
X11666666Y-24954819D02*
X11523809Y-24954819D01*
X11523809Y-24954819D02*
X11380952Y-25002438D01*
X11380952Y-25002438D02*
X11285714Y-25097676D01*
X11285714Y-25097676D02*
X11238095Y-25192914D01*
X11238095Y-25192914D02*
X11190476Y-25383390D01*
X11190476Y-25383390D02*
X11190476Y-25526247D01*
X11190476Y-25526247D02*
X11238095Y-25716723D01*
X11238095Y-25716723D02*
X11285714Y-25811961D01*
X11285714Y-25811961D02*
X11380952Y-25907200D01*
X11380952Y-25907200D02*
X11523809Y-25954819D01*
X11523809Y-25954819D02*
X11619047Y-25954819D01*
X11619047Y-25954819D02*
X11761904Y-25907200D01*
X11761904Y-25907200D02*
X11809523Y-25859580D01*
X11809523Y-25859580D02*
X11809523Y-25526247D01*
X11809523Y-25526247D02*
X11619047Y-25526247D01*
X12142857Y-24954819D02*
X12761904Y-24954819D01*
X12761904Y-24954819D02*
X12428571Y-25335771D01*
X12428571Y-25335771D02*
X12571428Y-25335771D01*
X12571428Y-25335771D02*
X12666666Y-25383390D01*
X12666666Y-25383390D02*
X12714285Y-25431009D01*
X12714285Y-25431009D02*
X12761904Y-25526247D01*
X12761904Y-25526247D02*
X12761904Y-25764342D01*
X12761904Y-25764342D02*
X12714285Y-25859580D01*
X12714285Y-25859580D02*
X12666666Y-25907200D01*
X12666666Y-25907200D02*
X12571428Y-25954819D01*
X12571428Y-25954819D02*
X12285714Y-25954819D01*
X12285714Y-25954819D02*
X12190476Y-25907200D01*
X12190476Y-25907200D02*
X12142857Y-25859580D01*
D10*
D11*
X28238095Y-49907200D02*
X28380952Y-49954819D01*
X28380952Y-49954819D02*
X28619047Y-49954819D01*
X28619047Y-49954819D02*
X28714285Y-49907200D01*
X28714285Y-49907200D02*
X28761904Y-49859580D01*
X28761904Y-49859580D02*
X28809523Y-49764342D01*
X28809523Y-49764342D02*
X28809523Y-49669104D01*
X28809523Y-49669104D02*
X28761904Y-49573866D01*
X28761904Y-49573866D02*
X28714285Y-49526247D01*
X28714285Y-49526247D02*
X28619047Y-49478628D01*
X28619047Y-49478628D02*
X28428571Y-49431009D01*
X28428571Y-49431009D02*
X28333333Y-49383390D01*
X28333333Y-49383390D02*
X28285714Y-49335771D01*
X28285714Y-49335771D02*
X28238095Y-49240533D01*
X28238095Y-49240533D02*
X28238095Y-49145295D01*
X28238095Y-49145295D02*
X28285714Y-49050057D01*
X28285714Y-49050057D02*
X28333333Y-49002438D01*
X28333333Y-49002438D02*
X28428571Y-48954819D01*
X28428571Y-48954819D02*
X28666666Y-48954819D01*
X28666666Y-48954819D02*
X28809523Y-49002438D01*
X29238095Y-49954819D02*
X29238095Y-48954819D01*
X29238095Y-48954819D02*
X29619047Y-48954819D01*
X29619047Y-48954819D02*
X29714285Y-49002438D01*
X29714285Y-49002438D02*
X29761904Y-49050057D01*
X29761904Y-49050057D02*
X29809523Y-49145295D01*
X29809523Y-49145295D02*
X29809523Y-49288152D01*
X29809523Y-49288152D02*
X29761904Y-49383390D01*
X29761904Y-49383390D02*
X29714285Y-49431009D01*
X29714285Y-49431009D02*
X29619047Y-49478628D01*
X29619047Y-49478628D02*
X29238095Y-49478628D01*
X30238095Y-49954819D02*
X30238095Y-48954819D01*
X30809523Y-49954819D02*
X30380952Y-49383390D01*
X30809523Y-48954819D02*
X30238095Y-49526247D01*
X31761904Y-49954819D02*
X31190476Y-49954819D01*
X31476190Y-49954819D02*
X31476190Y-48954819D01*
X31476190Y-48954819D02*
X31380952Y-49097676D01*
X31380952Y-49097676D02*
X31285714Y-49192914D01*
X31285714Y-49192914D02*
X31190476Y-49240533D01*
D10*
D11*
X24333333Y-55907200D02*
X24476190Y-55954819D01*
X24476190Y-55954819D02*
X24714285Y-55954819D01*
X24714285Y-55954819D02*
X24809523Y-55907200D01*
X24809523Y-55907200D02*
X24857142Y-55859580D01*
X24857142Y-55859580D02*
X24904761Y-55764342D01*
X24904761Y-55764342D02*
X24904761Y-55669104D01*
X24904761Y-55669104D02*
X24857142Y-55573866D01*
X24857142Y-55573866D02*
X24809523Y-55526247D01*
X24809523Y-55526247D02*
X24714285Y-55478628D01*
X24714285Y-55478628D02*
X24523809Y-55431009D01*
X24523809Y-55431009D02*
X24428571Y-55383390D01*
X24428571Y-55383390D02*
X24380952Y-55335771D01*
X24380952Y-55335771D02*
X24333333Y-55240533D01*
X24333333Y-55240533D02*
X24333333Y-55145295D01*
X24333333Y-55145295D02*
X24380952Y-55050057D01*
X24380952Y-55050057D02*
X24428571Y-55002438D01*
X24428571Y-55002438D02*
X24523809Y-54954819D01*
X24523809Y-54954819D02*
X24761904Y-54954819D01*
X24761904Y-54954819D02*
X24904761Y-55002438D01*
X25333333Y-55288152D02*
X25333333Y-56288152D01*
X25333333Y-55335771D02*
X25428571Y-55288152D01*
X25428571Y-55288152D02*
X25619047Y-55288152D01*
X25619047Y-55288152D02*
X25714285Y-55335771D01*
X25714285Y-55335771D02*
X25761904Y-55383390D01*
X25761904Y-55383390D02*
X25809523Y-55478628D01*
X25809523Y-55478628D02*
X25809523Y-55764342D01*
X25809523Y-55764342D02*
X25761904Y-55859580D01*
X25761904Y-55859580D02*
X25714285Y-55907200D01*
X25714285Y-55907200D02*
X25619047Y-55954819D01*
X25619047Y-55954819D02*
X25428571Y-55954819D01*
X25428571Y-55954819D02*
X25333333Y-55907200D01*
X26619047Y-55907200D02*
X26523809Y-55954819D01*
X26523809Y-55954819D02*
X26333333Y-55954819D01*
X26333333Y-55954819D02*
X26238095Y-55907200D01*
X26238095Y-55907200D02*
X26190476Y-55811961D01*
X26190476Y-55811961D02*
X26190476Y-55431009D01*
X26190476Y-55431009D02*
X26238095Y-55335771D01*
X26238095Y-55335771D02*
X26333333Y-55288152D01*
X26333333Y-55288152D02*
X26523809Y-55288152D01*
X26523809Y-55288152D02*
X26619047Y-55335771D01*
X26619047Y-55335771D02*
X26666666Y-55431009D01*
X26666666Y-55431009D02*
X26666666Y-55526247D01*
X26666666Y-55526247D02*
X26190476Y-55621485D01*
X27523809Y-55954819D02*
X27523809Y-55431009D01*
X27523809Y-55431009D02*
X27476190Y-55335771D01*
X27476190Y-55335771D02*
X27380952Y-55288152D01*
X27380952Y-55288152D02*
X27190476Y-55288152D01*
X27190476Y-55288152D02*
X27095238Y-55335771D01*
X27523809Y-55907200D02*
X27428571Y-55954819D01*
X27428571Y-55954819D02*
X27190476Y-55954819D01*
X27190476Y-55954819D02*
X27095238Y-55907200D01*
X27095238Y-55907200D02*
X27047619Y-55811961D01*
X27047619Y-55811961D02*
X27047619Y-55716723D01*
X27047619Y-55716723D02*
X27095238Y-55621485D01*
X27095238Y-55621485D02*
X27190476Y-55573866D01*
X27190476Y-55573866D02*
X27428571Y-55573866D01*
X27428571Y-55573866D02*
X27523809Y-55526247D01*
X28000000Y-55954819D02*
X28000000Y-54954819D01*
X28095238Y-55573866D02*
X28380952Y-55954819D01*
X28380952Y-55288152D02*
X28000000Y-55669104D01*
X29190476Y-55907200D02*
X29095238Y-55954819D01*
X29095238Y-55954819D02*
X28904762Y-55954819D01*
X28904762Y-55954819D02*
X28809524Y-55907200D01*
X28809524Y-55907200D02*
X28761905Y-55811961D01*
X28761905Y-55811961D02*
X28761905Y-55431009D01*
X28761905Y-55431009D02*
X28809524Y-55335771D01*
X28809524Y-55335771D02*
X28904762Y-55288152D01*
X28904762Y-55288152D02*
X29095238Y-55288152D01*
X29095238Y-55288152D02*
X29190476Y-55335771D01*
X29190476Y-55335771D02*
X29238095Y-55431009D01*
X29238095Y-55431009D02*
X29238095Y-55526247D01*
X29238095Y-55526247D02*
X28761905Y-55621485D01*
X29666667Y-55954819D02*
X29666667Y-55288152D01*
X29666667Y-55478628D02*
X29714286Y-55383390D01*
X29714286Y-55383390D02*
X29761905Y-55335771D01*
X29761905Y-55335771D02*
X29857143Y-55288152D01*
X29857143Y-55288152D02*
X29952381Y-55288152D01*
X30285715Y-55573866D02*
X31047620Y-55573866D01*
X31476191Y-55050057D02*
X31523810Y-55002438D01*
X31523810Y-55002438D02*
X31619048Y-54954819D01*
X31619048Y-54954819D02*
X31857143Y-54954819D01*
X31857143Y-54954819D02*
X31952381Y-55002438D01*
X31952381Y-55002438D02*
X32000000Y-55050057D01*
X32000000Y-55050057D02*
X32047619Y-55145295D01*
X32047619Y-55145295D02*
X32047619Y-55240533D01*
X32047619Y-55240533D02*
X32000000Y-55383390D01*
X32000000Y-55383390D02*
X31428572Y-55954819D01*
X31428572Y-55954819D02*
X32047619Y-55954819D01*
X32428572Y-55050057D02*
X32476191Y-55002438D01*
X32476191Y-55002438D02*
X32571429Y-54954819D01*
X32571429Y-54954819D02*
X32809524Y-54954819D01*
X32809524Y-54954819D02*
X32904762Y-55002438D01*
X32904762Y-55002438D02*
X32952381Y-55050057D01*
X32952381Y-55050057D02*
X33000000Y-55145295D01*
X33000000Y-55145295D02*
X33000000Y-55240533D01*
X33000000Y-55240533D02*
X32952381Y-55383390D01*
X32952381Y-55383390D02*
X32380953Y-55954819D01*
X32380953Y-55954819D02*
X33000000Y-55954819D01*
X33428572Y-55954819D02*
X33428572Y-55288152D01*
X33428572Y-55383390D02*
X33476191Y-55335771D01*
X33476191Y-55335771D02*
X33571429Y-55288152D01*
X33571429Y-55288152D02*
X33714286Y-55288152D01*
X33714286Y-55288152D02*
X33809524Y-55335771D01*
X33809524Y-55335771D02*
X33857143Y-55431009D01*
X33857143Y-55431009D02*
X33857143Y-55954819D01*
X33857143Y-55431009D02*
X33904762Y-55335771D01*
X33904762Y-55335771D02*
X34000000Y-55288152D01*
X34000000Y-55288152D02*
X34142857Y-55288152D01*
X34142857Y-55288152D02*
X34238096Y-55335771D01*
X34238096Y-55335771D02*
X34285715Y-55431009D01*
X34285715Y-55431009D02*
X34285715Y-55954819D01*
X34761905Y-55954819D02*
X34761905Y-55288152D01*
X34761905Y-55383390D02*
X34809524Y-55335771D01*
X34809524Y-55335771D02*
X34904762Y-55288152D01*
X34904762Y-55288152D02*
X35047619Y-55288152D01*
X35047619Y-55288152D02*
X35142857Y-55335771D01*
X35142857Y-55335771D02*
X35190476Y-55431009D01*
X35190476Y-55431009D02*
X35190476Y-55954819D01*
X35190476Y-55431009D02*
X35238095Y-55335771D01*
X35238095Y-55335771D02*
X35333333Y-55288152D01*
X35333333Y-55288152D02*
X35476190Y-55288152D01*
X35476190Y-55288152D02*
X35571429Y-55335771D01*
X35571429Y-55335771D02*
X35619048Y-55431009D01*
X35619048Y-55431009D02*
X35619048Y-55954819D01*
D10*
D11*
X109238095Y-38954819D02*
X109238095Y-39764342D01*
X109238095Y-39764342D02*
X109285714Y-39859580D01*
X109285714Y-39859580D02*
X109333333Y-39907200D01*
X109333333Y-39907200D02*
X109428571Y-39954819D01*
X109428571Y-39954819D02*
X109619047Y-39954819D01*
X109619047Y-39954819D02*
X109714285Y-39907200D01*
X109714285Y-39907200D02*
X109761904Y-39859580D01*
X109761904Y-39859580D02*
X109809523Y-39764342D01*
X109809523Y-39764342D02*
X109809523Y-38954819D01*
X110238095Y-39050057D02*
X110285714Y-39002438D01*
X110285714Y-39002438D02*
X110380952Y-38954819D01*
X110380952Y-38954819D02*
X110619047Y-38954819D01*
X110619047Y-38954819D02*
X110714285Y-39002438D01*
X110714285Y-39002438D02*
X110761904Y-39050057D01*
X110761904Y-39050057D02*
X110809523Y-39145295D01*
X110809523Y-39145295D02*
X110809523Y-39240533D01*
X110809523Y-39240533D02*
X110761904Y-39383390D01*
X110761904Y-39383390D02*
X110190476Y-39954819D01*
X110190476Y-39954819D02*
X110809523Y-39954819D01*
D10*
D11*
X107190476Y-45431009D02*
X107523809Y-45431009D01*
X107666666Y-45954819D02*
X107190476Y-45954819D01*
X107190476Y-45954819D02*
X107190476Y-44954819D01*
X107190476Y-44954819D02*
X107666666Y-44954819D01*
X108047619Y-45907200D02*
X108190476Y-45954819D01*
X108190476Y-45954819D02*
X108428571Y-45954819D01*
X108428571Y-45954819D02*
X108523809Y-45907200D01*
X108523809Y-45907200D02*
X108571428Y-45859580D01*
X108571428Y-45859580D02*
X108619047Y-45764342D01*
X108619047Y-45764342D02*
X108619047Y-45669104D01*
X108619047Y-45669104D02*
X108571428Y-45573866D01*
X108571428Y-45573866D02*
X108523809Y-45526247D01*
X108523809Y-45526247D02*
X108428571Y-45478628D01*
X108428571Y-45478628D02*
X108238095Y-45431009D01*
X108238095Y-45431009D02*
X108142857Y-45383390D01*
X108142857Y-45383390D02*
X108095238Y-45335771D01*
X108095238Y-45335771D02*
X108047619Y-45240533D01*
X108047619Y-45240533D02*
X108047619Y-45145295D01*
X108047619Y-45145295D02*
X108095238Y-45050057D01*
X108095238Y-45050057D02*
X108142857Y-45002438D01*
X108142857Y-45002438D02*
X108238095Y-44954819D01*
X108238095Y-44954819D02*
X108476190Y-44954819D01*
X108476190Y-44954819D02*
X108619047Y-45002438D01*
X109238095Y-44954819D02*
X109428571Y-44954819D01*
X109428571Y-44954819D02*
X109523809Y-45002438D01*
X109523809Y-45002438D02*
X109619047Y-45097676D01*
X109619047Y-45097676D02*
X109666666Y-45288152D01*
X109666666Y-45288152D02*
X109666666Y-45621485D01*
X109666666Y-45621485D02*
X109619047Y-45811961D01*
X109619047Y-45811961D02*
X109523809Y-45907200D01*
X109523809Y-45907200D02*
X109428571Y-45954819D01*
X109428571Y-45954819D02*
X109238095Y-45954819D01*
X109238095Y-45954819D02*
X109142857Y-45907200D01*
X109142857Y-45907200D02*
X109047619Y-45811961D01*
X109047619Y-45811961D02*
X109000000Y-45621485D01*
X109000000Y-45621485D02*
X109000000Y-45288152D01*
X109000000Y-45288152D02*
X109047619Y-45097676D01*
X109047619Y-45097676D02*
X109142857Y-45002438D01*
X109142857Y-45002438D02*
X109238095Y-44954819D01*
X110095238Y-45954819D02*
X110095238Y-44954819D01*
X110095238Y-44954819D02*
X110476190Y-44954819D01*
X110476190Y-44954819D02*
X110571428Y-45002438D01*
X110571428Y-45002438D02*
X110619047Y-45050057D01*
X110619047Y-45050057D02*
X110666666Y-45145295D01*
X110666666Y-45145295D02*
X110666666Y-45288152D01*
X110666666Y-45288152D02*
X110619047Y-45383390D01*
X110619047Y-45383390D02*
X110571428Y-45431009D01*
X110571428Y-45431009D02*
X110476190Y-45478628D01*
X110476190Y-45478628D02*
X110095238Y-45478628D01*
X111095238Y-45573866D02*
X111857143Y-45573866D01*
X112476190Y-45383390D02*
X112380952Y-45335771D01*
X112380952Y-45335771D02*
X112333333Y-45288152D01*
X112333333Y-45288152D02*
X112285714Y-45192914D01*
X112285714Y-45192914D02*
X112285714Y-45145295D01*
X112285714Y-45145295D02*
X112333333Y-45050057D01*
X112333333Y-45050057D02*
X112380952Y-45002438D01*
X112380952Y-45002438D02*
X112476190Y-44954819D01*
X112476190Y-44954819D02*
X112666666Y-44954819D01*
X112666666Y-44954819D02*
X112761904Y-45002438D01*
X112761904Y-45002438D02*
X112809523Y-45050057D01*
X112809523Y-45050057D02*
X112857142Y-45145295D01*
X112857142Y-45145295D02*
X112857142Y-45192914D01*
X112857142Y-45192914D02*
X112809523Y-45288152D01*
X112809523Y-45288152D02*
X112761904Y-45335771D01*
X112761904Y-45335771D02*
X112666666Y-45383390D01*
X112666666Y-45383390D02*
X112476190Y-45383390D01*
X112476190Y-45383390D02*
X112380952Y-45431009D01*
X112380952Y-45431009D02*
X112333333Y-45478628D01*
X112333333Y-45478628D02*
X112285714Y-45573866D01*
X112285714Y-45573866D02*
X112285714Y-45764342D01*
X112285714Y-45764342D02*
X112333333Y-45859580D01*
X112333333Y-45859580D02*
X112380952Y-45907200D01*
X112380952Y-45907200D02*
X112476190Y-45954819D01*
X112476190Y-45954819D02*
X112666666Y-45954819D01*
X112666666Y-45954819D02*
X112761904Y-45907200D01*
X112761904Y-45907200D02*
X112809523Y-45859580D01*
X112809523Y-45859580D02*
X112857142Y-45764342D01*
X112857142Y-45764342D02*
X112857142Y-45573866D01*
X112857142Y-45573866D02*
X112809523Y-45478628D01*
X112809523Y-45478628D02*
X112761904Y-45431009D01*
X112761904Y-45431009D02*
X112666666Y-45383390D01*
D10*
D11*
X124238095Y-51954819D02*
X124238095Y-52764342D01*
X124238095Y-52764342D02*
X124285714Y-52859580D01*
X124285714Y-52859580D02*
X124333333Y-52907200D01*
X124333333Y-52907200D02*
X124428571Y-52954819D01*
X124428571Y-52954819D02*
X124619047Y-52954819D01*
X124619047Y-52954819D02*
X124714285Y-52907200D01*
X124714285Y-52907200D02*
X124761904Y-52859580D01*
X124761904Y-52859580D02*
X124809523Y-52764342D01*
X124809523Y-52764342D02*
X124809523Y-51954819D01*
X125190476Y-51954819D02*
X125809523Y-51954819D01*
X125809523Y-51954819D02*
X125476190Y-52335771D01*
X125476190Y-52335771D02*
X125619047Y-52335771D01*
X125619047Y-52335771D02*
X125714285Y-52383390D01*
X125714285Y-52383390D02*
X125761904Y-52431009D01*
X125761904Y-52431009D02*
X125809523Y-52526247D01*
X125809523Y-52526247D02*
X125809523Y-52764342D01*
X125809523Y-52764342D02*
X125761904Y-52859580D01*
X125761904Y-52859580D02*
X125714285Y-52907200D01*
X125714285Y-52907200D02*
X125619047Y-52954819D01*
X125619047Y-52954819D02*
X125333333Y-52954819D01*
X125333333Y-52954819D02*
X125238095Y-52907200D01*
X125238095Y-52907200D02*
X125190476Y-52859580D01*
D10*
D11*
X121761905Y-58907200D02*
X121904762Y-58954819D01*
X121904762Y-58954819D02*
X122142857Y-58954819D01*
X122142857Y-58954819D02*
X122238095Y-58907200D01*
X122238095Y-58907200D02*
X122285714Y-58859580D01*
X122285714Y-58859580D02*
X122333333Y-58764342D01*
X122333333Y-58764342D02*
X122333333Y-58669104D01*
X122333333Y-58669104D02*
X122285714Y-58573866D01*
X122285714Y-58573866D02*
X122238095Y-58526247D01*
X122238095Y-58526247D02*
X122142857Y-58478628D01*
X122142857Y-58478628D02*
X121952381Y-58431009D01*
X121952381Y-58431009D02*
X121857143Y-58383390D01*
X121857143Y-58383390D02*
X121809524Y-58335771D01*
X121809524Y-58335771D02*
X121761905Y-58240533D01*
X121761905Y-58240533D02*
X121761905Y-58145295D01*
X121761905Y-58145295D02*
X121809524Y-58050057D01*
X121809524Y-58050057D02*
X121857143Y-58002438D01*
X121857143Y-58002438D02*
X121952381Y-57954819D01*
X121952381Y-57954819D02*
X122190476Y-57954819D01*
X122190476Y-57954819D02*
X122333333Y-58002438D01*
X122952381Y-57954819D02*
X123142857Y-57954819D01*
X123142857Y-57954819D02*
X123238095Y-58002438D01*
X123238095Y-58002438D02*
X123333333Y-58097676D01*
X123333333Y-58097676D02*
X123380952Y-58288152D01*
X123380952Y-58288152D02*
X123380952Y-58621485D01*
X123380952Y-58621485D02*
X123333333Y-58811961D01*
X123333333Y-58811961D02*
X123238095Y-58907200D01*
X123238095Y-58907200D02*
X123142857Y-58954819D01*
X123142857Y-58954819D02*
X122952381Y-58954819D01*
X122952381Y-58954819D02*
X122857143Y-58907200D01*
X122857143Y-58907200D02*
X122761905Y-58811961D01*
X122761905Y-58811961D02*
X122714286Y-58621485D01*
X122714286Y-58621485D02*
X122714286Y-58288152D01*
X122714286Y-58288152D02*
X122761905Y-58097676D01*
X122761905Y-58097676D02*
X122857143Y-58002438D01*
X122857143Y-58002438D02*
X122952381Y-57954819D01*
X123666667Y-57954819D02*
X124238095Y-57954819D01*
X123952381Y-58954819D02*
X123952381Y-57954819D01*
X124571429Y-58573866D02*
X125333334Y-58573866D01*
X125761905Y-58050057D02*
X125809524Y-58002438D01*
X125809524Y-58002438D02*
X125904762Y-57954819D01*
X125904762Y-57954819D02*
X126142857Y-57954819D01*
X126142857Y-57954819D02*
X126238095Y-58002438D01*
X126238095Y-58002438D02*
X126285714Y-58050057D01*
X126285714Y-58050057D02*
X126333333Y-58145295D01*
X126333333Y-58145295D02*
X126333333Y-58240533D01*
X126333333Y-58240533D02*
X126285714Y-58383390D01*
X126285714Y-58383390D02*
X125714286Y-58954819D01*
X125714286Y-58954819D02*
X126333333Y-58954819D01*
X126714286Y-58050057D02*
X126761905Y-58002438D01*
X126761905Y-58002438D02*
X126857143Y-57954819D01*
X126857143Y-57954819D02*
X127095238Y-57954819D01*
X127095238Y-57954819D02*
X127190476Y-58002438D01*
X127190476Y-58002438D02*
X127238095Y-58050057D01*
X127238095Y-58050057D02*
X127285714Y-58145295D01*
X127285714Y-58145295D02*
X127285714Y-58240533D01*
X127285714Y-58240533D02*
X127238095Y-58383390D01*
X127238095Y-58383390D02*
X126666667Y-58954819D01*
X126666667Y-58954819D02*
X127285714Y-58954819D01*
X127619048Y-57954819D02*
X128238095Y-57954819D01*
X128238095Y-57954819D02*
X127904762Y-58335771D01*
X127904762Y-58335771D02*
X128047619Y-58335771D01*
X128047619Y-58335771D02*
X128142857Y-58383390D01*
X128142857Y-58383390D02*
X128190476Y-58431009D01*
X128190476Y-58431009D02*
X128238095Y-58526247D01*
X128238095Y-58526247D02*
X128238095Y-58764342D01*
X128238095Y-58764342D02*
X128190476Y-58859580D01*
X128190476Y-58859580D02*
X128142857Y-58907200D01*
X128142857Y-58907200D02*
X128047619Y-58954819D01*
X128047619Y-58954819D02*
X127761905Y-58954819D01*
X127761905Y-58954819D02*
X127666667Y-58907200D01*
X127666667Y-58907200D02*
X127619048Y-58859580D01*
D10*
D11*
X29238095Y-25954819D02*
X29238095Y-26764342D01*
X29238095Y-26764342D02*
X29285714Y-26859580D01*
X29285714Y-26859580D02*
X29333333Y-26907200D01*
X29333333Y-26907200D02*
X29428571Y-26954819D01*
X29428571Y-26954819D02*
X29619047Y-26954819D01*
X29619047Y-26954819D02*
X29714285Y-26907200D01*
X29714285Y-26907200D02*
X29761904Y-26859580D01*
X29761904Y-26859580D02*
X29809523Y-26764342D01*
X29809523Y-26764342D02*
X29809523Y-25954819D01*
X30761904Y-25954819D02*
X30285714Y-25954819D01*
X30285714Y-25954819D02*
X30238095Y-26431009D01*
X30238095Y-26431009D02*
X30285714Y-26383390D01*
X30285714Y-26383390D02*
X30380952Y-26335771D01*
X30380952Y-26335771D02*
X30619047Y-26335771D01*
X30619047Y-26335771D02*
X30714285Y-26383390D01*
X30714285Y-26383390D02*
X30761904Y-26431009D01*
X30761904Y-26431009D02*
X30809523Y-26526247D01*
X30809523Y-26526247D02*
X30809523Y-26764342D01*
X30809523Y-26764342D02*
X30761904Y-26859580D01*
X30761904Y-26859580D02*
X30714285Y-26907200D01*
X30714285Y-26907200D02*
X30619047Y-26954819D01*
X30619047Y-26954819D02*
X30380952Y-26954819D01*
X30380952Y-26954819D02*
X30285714Y-26907200D01*
X30285714Y-26907200D02*
X30238095Y-26859580D01*
D10*
D11*
X27119048Y-32907200D02*
X27261905Y-32954819D01*
X27261905Y-32954819D02*
X27500000Y-32954819D01*
X27500000Y-32954819D02*
X27595238Y-32907200D01*
X27595238Y-32907200D02*
X27642857Y-32859580D01*
X27642857Y-32859580D02*
X27690476Y-32764342D01*
X27690476Y-32764342D02*
X27690476Y-32669104D01*
X27690476Y-32669104D02*
X27642857Y-32573866D01*
X27642857Y-32573866D02*
X27595238Y-32526247D01*
X27595238Y-32526247D02*
X27500000Y-32478628D01*
X27500000Y-32478628D02*
X27309524Y-32431009D01*
X27309524Y-32431009D02*
X27214286Y-32383390D01*
X27214286Y-32383390D02*
X27166667Y-32335771D01*
X27166667Y-32335771D02*
X27119048Y-32240533D01*
X27119048Y-32240533D02*
X27119048Y-32145295D01*
X27119048Y-32145295D02*
X27166667Y-32050057D01*
X27166667Y-32050057D02*
X27214286Y-32002438D01*
X27214286Y-32002438D02*
X27309524Y-31954819D01*
X27309524Y-31954819D02*
X27547619Y-31954819D01*
X27547619Y-31954819D02*
X27690476Y-32002438D01*
X28309524Y-31954819D02*
X28500000Y-31954819D01*
X28500000Y-31954819D02*
X28595238Y-32002438D01*
X28595238Y-32002438D02*
X28690476Y-32097676D01*
X28690476Y-32097676D02*
X28738095Y-32288152D01*
X28738095Y-32288152D02*
X28738095Y-32621485D01*
X28738095Y-32621485D02*
X28690476Y-32811961D01*
X28690476Y-32811961D02*
X28595238Y-32907200D01*
X28595238Y-32907200D02*
X28500000Y-32954819D01*
X28500000Y-32954819D02*
X28309524Y-32954819D01*
X28309524Y-32954819D02*
X28214286Y-32907200D01*
X28214286Y-32907200D02*
X28119048Y-32811961D01*
X28119048Y-32811961D02*
X28071429Y-32621485D01*
X28071429Y-32621485D02*
X28071429Y-32288152D01*
X28071429Y-32288152D02*
X28119048Y-32097676D01*
X28119048Y-32097676D02*
X28214286Y-32002438D01*
X28214286Y-32002438D02*
X28309524Y-31954819D01*
X29166667Y-32954819D02*
X29166667Y-31954819D01*
X29166667Y-31954819D02*
X29547619Y-31954819D01*
X29547619Y-31954819D02*
X29642857Y-32002438D01*
X29642857Y-32002438D02*
X29690476Y-32050057D01*
X29690476Y-32050057D02*
X29738095Y-32145295D01*
X29738095Y-32145295D02*
X29738095Y-32288152D01*
X29738095Y-32288152D02*
X29690476Y-32383390D01*
X29690476Y-32383390D02*
X29642857Y-32431009D01*
X29642857Y-32431009D02*
X29547619Y-32478628D01*
X29547619Y-32478628D02*
X29166667Y-32478628D01*
X30166667Y-32573866D02*
X30928572Y-32573866D01*
X31928571Y-32954819D02*
X31357143Y-32954819D01*
X31642857Y-32954819D02*
X31642857Y-31954819D01*
X31642857Y-31954819D02*
X31547619Y-32097676D01*
X31547619Y-32097676D02*
X31452381Y-32192914D01*
X31452381Y-32192914D02*
X31357143Y-32240533D01*
X32785714Y-31954819D02*
X32595238Y-31954819D01*
X32595238Y-31954819D02*
X32500000Y-32002438D01*
X32500000Y-32002438D02*
X32452381Y-32050057D01*
X32452381Y-32050057D02*
X32357143Y-32192914D01*
X32357143Y-32192914D02*
X32309524Y-32383390D01*
X32309524Y-32383390D02*
X32309524Y-32764342D01*
X32309524Y-32764342D02*
X32357143Y-32859580D01*
X32357143Y-32859580D02*
X32404762Y-32907200D01*
X32404762Y-32907200D02*
X32500000Y-32954819D01*
X32500000Y-32954819D02*
X32690476Y-32954819D01*
X32690476Y-32954819D02*
X32785714Y-32907200D01*
X32785714Y-32907200D02*
X32833333Y-32859580D01*
X32833333Y-32859580D02*
X32880952Y-32764342D01*
X32880952Y-32764342D02*
X32880952Y-32526247D01*
X32880952Y-32526247D02*
X32833333Y-32431009D01*
X32833333Y-32431009D02*
X32785714Y-32383390D01*
X32785714Y-32383390D02*
X32690476Y-32335771D01*
X32690476Y-32335771D02*
X32500000Y-32335771D01*
X32500000Y-32335771D02*
X32404762Y-32383390D01*
X32404762Y-32383390D02*
X32357143Y-32431009D01*
X32357143Y-32431009D02*
X32309524Y-32526247D01*
D10*
D11*
X109833333Y-49954819D02*
X109357143Y-49954819D01*
X109357143Y-49954819D02*
X109357143Y-48954819D01*
X110690476Y-49954819D02*
X110119048Y-49954819D01*
X110404762Y-49954819D02*
X110404762Y-48954819D01*
X110404762Y-48954819D02*
X110309524Y-49097676D01*
X110309524Y-49097676D02*
X110214286Y-49192914D01*
X110214286Y-49192914D02*
X110119048Y-49240533D01*
D10*
D11*
X105785714Y-55907200D02*
X105928571Y-55954819D01*
X105928571Y-55954819D02*
X106166666Y-55954819D01*
X106166666Y-55954819D02*
X106261904Y-55907200D01*
X106261904Y-55907200D02*
X106309523Y-55859580D01*
X106309523Y-55859580D02*
X106357142Y-55764342D01*
X106357142Y-55764342D02*
X106357142Y-55669104D01*
X106357142Y-55669104D02*
X106309523Y-55573866D01*
X106309523Y-55573866D02*
X106261904Y-55526247D01*
X106261904Y-55526247D02*
X106166666Y-55478628D01*
X106166666Y-55478628D02*
X105976190Y-55431009D01*
X105976190Y-55431009D02*
X105880952Y-55383390D01*
X105880952Y-55383390D02*
X105833333Y-55335771D01*
X105833333Y-55335771D02*
X105785714Y-55240533D01*
X105785714Y-55240533D02*
X105785714Y-55145295D01*
X105785714Y-55145295D02*
X105833333Y-55050057D01*
X105833333Y-55050057D02*
X105880952Y-55002438D01*
X105880952Y-55002438D02*
X105976190Y-54954819D01*
X105976190Y-54954819D02*
X106214285Y-54954819D01*
X106214285Y-54954819D02*
X106357142Y-55002438D01*
X106785714Y-55954819D02*
X106785714Y-54954819D01*
X106785714Y-54954819D02*
X107119047Y-55669104D01*
X107119047Y-55669104D02*
X107452380Y-54954819D01*
X107452380Y-54954819D02*
X107452380Y-55954819D01*
X107928571Y-55954819D02*
X107928571Y-54954819D01*
X107928571Y-54954819D02*
X108166666Y-54954819D01*
X108166666Y-54954819D02*
X108309523Y-55002438D01*
X108309523Y-55002438D02*
X108404761Y-55097676D01*
X108404761Y-55097676D02*
X108452380Y-55192914D01*
X108452380Y-55192914D02*
X108499999Y-55383390D01*
X108499999Y-55383390D02*
X108499999Y-55526247D01*
X108499999Y-55526247D02*
X108452380Y-55716723D01*
X108452380Y-55716723D02*
X108404761Y-55811961D01*
X108404761Y-55811961D02*
X108309523Y-55907200D01*
X108309523Y-55907200D02*
X108166666Y-55954819D01*
X108166666Y-55954819D02*
X107928571Y-55954819D01*
X108928571Y-55573866D02*
X109690476Y-55573866D01*
X110595237Y-55288152D02*
X110595237Y-55954819D01*
X110357142Y-54907200D02*
X110119047Y-55621485D01*
X110119047Y-55621485D02*
X110738094Y-55621485D01*
X111023809Y-55954819D02*
X111547618Y-55288152D01*
X111023809Y-55288152D02*
X111547618Y-55954819D01*
X112357142Y-55288152D02*
X112357142Y-55954819D01*
X112119047Y-54907200D02*
X111880952Y-55621485D01*
X111880952Y-55621485D02*
X112499999Y-55621485D01*
X112785714Y-55954819D02*
X113309523Y-55288152D01*
X112785714Y-55288152D02*
X113309523Y-55954819D01*
X113642857Y-55050057D02*
X113690476Y-55002438D01*
X113690476Y-55002438D02*
X113785714Y-54954819D01*
X113785714Y-54954819D02*
X114023809Y-54954819D01*
X114023809Y-54954819D02*
X114119047Y-55002438D01*
X114119047Y-55002438D02*
X114166666Y-55050057D01*
X114166666Y-55050057D02*
X114214285Y-55145295D01*
X114214285Y-55145295D02*
X114214285Y-55240533D01*
X114214285Y-55240533D02*
X114166666Y-55383390D01*
X114166666Y-55383390D02*
X113595238Y-55954819D01*
X113595238Y-55954819D02*
X114214285Y-55954819D01*
D10*
D11*
X79666666Y-48954819D02*
X79666666Y-49669104D01*
X79666666Y-49669104D02*
X79619047Y-49811961D01*
X79619047Y-49811961D02*
X79523809Y-49907200D01*
X79523809Y-49907200D02*
X79380952Y-49954819D01*
X79380952Y-49954819D02*
X79285714Y-49954819D01*
X80047619Y-48954819D02*
X80666666Y-48954819D01*
X80666666Y-48954819D02*
X80333333Y-49335771D01*
X80333333Y-49335771D02*
X80476190Y-49335771D01*
X80476190Y-49335771D02*
X80571428Y-49383390D01*
X80571428Y-49383390D02*
X80619047Y-49431009D01*
X80619047Y-49431009D02*
X80666666Y-49526247D01*
X80666666Y-49526247D02*
X80666666Y-49764342D01*
X80666666Y-49764342D02*
X80619047Y-49859580D01*
X80619047Y-49859580D02*
X80571428Y-49907200D01*
X80571428Y-49907200D02*
X80476190Y-49954819D01*
X80476190Y-49954819D02*
X80190476Y-49954819D01*
X80190476Y-49954819D02*
X80095238Y-49907200D01*
X80095238Y-49907200D02*
X80047619Y-49859580D01*
D10*
D11*
X76047619Y-54954819D02*
X76047619Y-55669104D01*
X76047619Y-55669104D02*
X76000000Y-55811961D01*
X76000000Y-55811961D02*
X75904762Y-55907200D01*
X75904762Y-55907200D02*
X75761905Y-55954819D01*
X75761905Y-55954819D02*
X75666667Y-55954819D01*
X76476191Y-55907200D02*
X76619048Y-55954819D01*
X76619048Y-55954819D02*
X76857143Y-55954819D01*
X76857143Y-55954819D02*
X76952381Y-55907200D01*
X76952381Y-55907200D02*
X77000000Y-55859580D01*
X77000000Y-55859580D02*
X77047619Y-55764342D01*
X77047619Y-55764342D02*
X77047619Y-55669104D01*
X77047619Y-55669104D02*
X77000000Y-55573866D01*
X77000000Y-55573866D02*
X76952381Y-55526247D01*
X76952381Y-55526247D02*
X76857143Y-55478628D01*
X76857143Y-55478628D02*
X76666667Y-55431009D01*
X76666667Y-55431009D02*
X76571429Y-55383390D01*
X76571429Y-55383390D02*
X76523810Y-55335771D01*
X76523810Y-55335771D02*
X76476191Y-55240533D01*
X76476191Y-55240533D02*
X76476191Y-55145295D01*
X76476191Y-55145295D02*
X76523810Y-55050057D01*
X76523810Y-55050057D02*
X76571429Y-55002438D01*
X76571429Y-55002438D02*
X76666667Y-54954819D01*
X76666667Y-54954819D02*
X76904762Y-54954819D01*
X76904762Y-54954819D02*
X77047619Y-55002438D01*
X77333334Y-54954819D02*
X77904762Y-54954819D01*
X77619048Y-55954819D02*
X77619048Y-54954819D01*
X78238096Y-55573866D02*
X79000001Y-55573866D01*
X79476191Y-55954819D02*
X79476191Y-54954819D01*
X79476191Y-54954819D02*
X79857143Y-54954819D01*
X79857143Y-54954819D02*
X79952381Y-55002438D01*
X79952381Y-55002438D02*
X80000000Y-55050057D01*
X80000000Y-55050057D02*
X80047619Y-55145295D01*
X80047619Y-55145295D02*
X80047619Y-55288152D01*
X80047619Y-55288152D02*
X80000000Y-55383390D01*
X80000000Y-55383390D02*
X79952381Y-55431009D01*
X79952381Y-55431009D02*
X79857143Y-55478628D01*
X79857143Y-55478628D02*
X79476191Y-55478628D01*
X80476191Y-55954819D02*
X80476191Y-54954819D01*
X80476191Y-55431009D02*
X81047619Y-55431009D01*
X81047619Y-55954819D02*
X81047619Y-54954819D01*
X81523810Y-55573866D02*
X82285715Y-55573866D01*
X82714286Y-55050057D02*
X82761905Y-55002438D01*
X82761905Y-55002438D02*
X82857143Y-54954819D01*
X82857143Y-54954819D02*
X83095238Y-54954819D01*
X83095238Y-54954819D02*
X83190476Y-55002438D01*
X83190476Y-55002438D02*
X83238095Y-55050057D01*
X83238095Y-55050057D02*
X83285714Y-55145295D01*
X83285714Y-55145295D02*
X83285714Y-55240533D01*
X83285714Y-55240533D02*
X83238095Y-55383390D01*
X83238095Y-55383390D02*
X82666667Y-55954819D01*
X82666667Y-55954819D02*
X83285714Y-55954819D01*
X83714286Y-55954819D02*
X83714286Y-54954819D01*
X83714286Y-54954819D02*
X84095238Y-54954819D01*
X84095238Y-54954819D02*
X84190476Y-55002438D01*
X84190476Y-55002438D02*
X84238095Y-55050057D01*
X84238095Y-55050057D02*
X84285714Y-55145295D01*
X84285714Y-55145295D02*
X84285714Y-55288152D01*
X84285714Y-55288152D02*
X84238095Y-55383390D01*
X84238095Y-55383390D02*
X84190476Y-55431009D01*
X84190476Y-55431009D02*
X84095238Y-55478628D01*
X84095238Y-55478628D02*
X83714286Y-55478628D01*
D12*
%TO.P,,*%
%TO.N,*%
X10000000Y-7000000D03*
%TD*%
%TO.P,,*%
%TO.N,*%
X150000000Y-7000000D03*
%TD*%
%TO.P,,*%
%TO.N,*%
X10000000Y-68000000D03*
%TD*%
%TO.P,,*%
%TO.N,*%
X150000000Y-68000000D03*
%TD*%
%TO.P,,*%
%TO.N,*%
X55000000Y-37500000D03*
%TD*%
%TO.P,,*%
%TO.N,*%
X105000000Y-37500000D03*
%TD*%
D13*
%TO.P,U1,1*%
%TO.N,N/C*%
X71400000Y-16070000D03*
%TO.P,U1,2*%
X71400000Y-17340000D03*
%TO.P,U1,3*%
X71400000Y-18610000D03*
%TO.P,U1,4*%
X71400000Y-19880000D03*
%TO.P,U1,5*%
X71400000Y-21150000D03*
%TO.P,U1,6*%
X71400000Y-22420000D03*
%TO.P,U1,7*%
X71400000Y-23690000D03*
%TO.P,U1,8*%
X71400000Y-24960000D03*
%TO.P,U1,9*%
X71400000Y-26230000D03*
%TO.P,U1,10*%
X71400000Y-27500000D03*
%TO.P,U1,11*%
X71400000Y-28770000D03*
%TO.P,U1,12*%
X71400000Y-30040000D03*
%TO.P,U1,13*%
X71400000Y-31310000D03*
%TO.P,U1,14*%
X71400000Y-32580000D03*
%TO.P,U1,15*%
X71400000Y-33850000D03*
%TO.P,U1,16*%
X71400000Y-35120000D03*
%TO.P,U1,17*%
X71400000Y-36390000D03*
%TO.P,U1,18*%
X71400000Y-37660000D03*
%TO.P,U1,19*%
X71400000Y-38930000D03*
%TO.P,U1,39*%
X88600000Y-16070000D03*
%TO.P,U1,38*%
X88600000Y-17340000D03*
%TO.P,U1,37*%
X88600000Y-18610000D03*
%TO.P,U1,36*%
X88600000Y-19880000D03*
%TO.P,U1,35*%
X88600000Y-21150000D03*
%TO.P,U1,34*%
X88600000Y-22420000D03*
%TO.P,U1,33*%
X88600000Y-23690000D03*
%TO.P,U1,32*%
X88600000Y-24960000D03*
%TO.P,U1,31*%
X88600000Y-26230000D03*
%TO.P,U1,30*%
X88600000Y-27500000D03*
%TO.P,U1,29*%
X88600000Y-28770000D03*
%TO.P,U1,28*%
X88600000Y-30040000D03*
%TO.P,U1,27*%
X88600000Y-31310000D03*
%TO.P,U1,26*%
X88600000Y-32580000D03*
%TO.P,U1,25*%
X88600000Y-33850000D03*
%TO.P,U1,24*%
X88600000Y-35120000D03*
%TO.P,U1,23*%
X88600000Y-36390000D03*
%TO.P,U1,22*%
X88600000Y-37660000D03*
%TO.P,U1,21*%
X88600000Y-38930000D03*
%TO.P,U1,20*%
X88600000Y-40200000D03*
D14*
%TO.P,U1,40*%
X78730000Y-40500000D03*
%TO.P,U1,41*%
X81270000Y-40500000D03*
D15*
%TO.P,U1,GND*%
X80000000Y-32500000D03*
%TD*%
D16*
%TO.P,SW11,1*%
%TO.N,N/C*%
X13150000Y-5250000D03*
%TO.P,SW11,2*%
X16850000Y-5250000D03*
%TO.P,SW11,3*%
X13150000Y250000D03*
%TO.P,SW11,4*%
X16850000Y250000D03*
%TD*%
%TO.P,SW12,1*%
%TO.N,N/C*%
X143150000Y-5250000D03*
%TO.P,SW12,2*%
X146850000Y-5250000D03*
%TO.P,SW12,3*%
X143150000Y250000D03*
%TO.P,SW12,4*%
X146850000Y250000D03*
%TD*%
D17*
%TO.P,J4,1*%
%TO.N,N/C*%
X135000000Y-45250000D03*
%TO.P,J4,2*%
X135000000Y-44750000D03*
%TO.P,J4,3*%
X135000000Y-44250000D03*
%TO.P,J4,4*%
X135000000Y-43750000D03*
%TO.P,J4,5*%
X135000000Y-43250000D03*
%TO.P,J4,6*%
X135000000Y-42750000D03*
%TO.P,J4,7*%
X135000000Y-42250000D03*
%TO.P,J4,8*%
X135000000Y-41750000D03*
%TO.P,J4,9*%
X135000000Y-41250000D03*
%TO.P,J4,10*%
X135000000Y-40750000D03*
%TO.P,J4,11*%
X135000000Y-40250000D03*
%TO.P,J4,12*%
X135000000Y-39750000D03*
%TO.P,J4,13*%
X135000000Y-39250000D03*
%TO.P,J4,14*%
X135000000Y-38750000D03*
%TO.P,J4,15*%
X135000000Y-38250000D03*
%TO.P,J4,16*%
X135000000Y-37750000D03*
%TO.P,J4,17*%
X135000000Y-37250000D03*
%TO.P,J4,18*%
X135000000Y-36750000D03*
%TO.P,J4,19*%
X135000000Y-36250000D03*
%TO.P,J4,20*%
X135000000Y-35750000D03*
%TO.P,J4,21*%
X135000000Y-35250000D03*
%TO.P,J4,22*%
X135000000Y-34750000D03*
%TO.P,J4,23*%
X135000000Y-34250000D03*
%TO.P,J4,24*%
X135000000Y-33750000D03*
%TO.P,J4,25*%
X135000000Y-33250000D03*
%TO.P,J4,26*%
X135000000Y-32750000D03*
%TO.P,J4,27*%
X135000000Y-32250000D03*
%TO.P,J4,28*%
X135000000Y-31750000D03*
%TO.P,J4,29*%
X135000000Y-31250000D03*
%TO.P,J4,30*%
X135000000Y-30750000D03*
%TO.P,J4,31*%
X135000000Y-30250000D03*
%TO.P,J4,32*%
X135000000Y-29750000D03*
%TO.P,J4,33*%
X135000000Y-29250000D03*
%TO.P,J4,34*%
X135000000Y-28750000D03*
%TO.P,J4,35*%
X135000000Y-28250000D03*
%TO.P,J4,36*%
X135000000Y-27750000D03*
%TO.P,J4,37*%
X135000000Y-27250000D03*
%TO.P,J4,38*%
X135000000Y-26750000D03*
%TO.P,J4,39*%
X135000000Y-26250000D03*
%TO.P,J4,40*%
X135000000Y-25750000D03*
D18*
%TO.P,J4,MP1*%
X135000000Y-47500000D03*
%TO.P,J4,MP2*%
X135000000Y-23500000D03*
%TD*%
D19*
%TO.P,J1,A1*%
%TO.N,N/C*%
X78250000Y-68800000D03*
%TO.P,J1,A4*%
X78750000Y-68800000D03*
%TO.P,J1,A5*%
X79250000Y-68800000D03*
%TO.P,J1,A6*%
X79750000Y-68800000D03*
%TO.P,J1,A7*%
X80250000Y-68800000D03*
%TO.P,J1,A8*%
X80750000Y-68800000D03*
%TO.P,J1,A9*%
X81250000Y-68800000D03*
%TO.P,J1,A12*%
X81750000Y-68800000D03*
%TO.P,J1,B12*%
X78250000Y-69800000D03*
%TO.P,J1,B9*%
X78750000Y-69800000D03*
%TO.P,J1,B8*%
X79250000Y-69800000D03*
%TO.P,J1,B7*%
X79750000Y-69800000D03*
%TO.P,J1,B6*%
X80250000Y-69800000D03*
%TO.P,J1,B5*%
X80750000Y-69800000D03*
%TO.P,J1,B4*%
X81250000Y-69800000D03*
%TO.P,J1,B1*%
X81750000Y-69800000D03*
D20*
%TO.P,J1,S*%
X75680000Y-70500000D03*
X84320000Y-70500000D03*
X75680000Y-73500000D03*
X84320000Y-73500000D03*
%TD*%
D21*
%TO.P,U6,1*%
%TO.N,N/C*%
X135600000Y-60200000D03*
%TO.P,U6,2*%
X136700000Y-60200000D03*
%TO.P,U6,3*%
X137800000Y-60200000D03*
%TO.P,U6,4*%
X138900000Y-60200000D03*
%TO.P,U6,5*%
X140000000Y-60200000D03*
%TO.P,U6,6*%
X141100000Y-60200000D03*
%TO.P,U6,7*%
X142200000Y-60200000D03*
%TO.P,U6,8*%
X143300000Y-60200000D03*
%TO.P,U6,9*%
X144400000Y-60200000D03*
D22*
%TO.P,U6,S*%
X133000000Y-66000000D03*
X147000000Y-66000000D03*
X133000000Y-73500000D03*
X147000000Y-73500000D03*
%TD*%
D23*
%TO.P,SW_PWR,1*%
%TO.N,N/C*%
X5500000Y-22500000D03*
%TO.P,SW_PWR,2*%
X8000000Y-22500000D03*
%TO.P,SW_PWR,3*%
X10500000Y-22500000D03*
%TD*%
D24*
%TO.P,SPK1,1*%
%TO.N,N/C*%
X20500000Y-52500000D03*
%TO.P,SPK1,2*%
X39500000Y-52500000D03*
%TD*%
D25*
%TO.P,U2,1*%
%TO.N,N/C*%
X107000000Y-40595000D03*
%TO.P,U2,2*%
X107000000Y-41865000D03*
%TO.P,U2,3*%
X107000000Y-43135000D03*
%TO.P,U2,4*%
X107000000Y-44405000D03*
%TO.P,U2,5*%
X113000000Y-44405000D03*
%TO.P,U2,6*%
X113000000Y-43135000D03*
%TO.P,U2,7*%
X113000000Y-41865000D03*
%TO.P,U2,8*%
X113000000Y-40595000D03*
D26*
%TO.P,U2,EP*%
X110000000Y-42500000D03*
%TD*%
D27*
%TO.P,U3,1*%
%TO.N,N/C*%
X122700000Y-58650000D03*
%TO.P,U3,2*%
X125000000Y-58650000D03*
%TO.P,U3,3*%
X127300000Y-58650000D03*
D28*
%TO.P,U3,4*%
X125000000Y-52350000D03*
%TD*%
D25*
%TO.P,U5,1*%
%TO.N,N/C*%
X25100000Y-25055000D03*
%TO.P,U5,2*%
X25100000Y-26325000D03*
%TO.P,U5,3*%
X25100000Y-27595000D03*
%TO.P,U5,4*%
X25100000Y-28865000D03*
%TO.P,U5,5*%
X25100000Y-30135000D03*
%TO.P,U5,6*%
X25100000Y-31405000D03*
%TO.P,U5,7*%
X25100000Y-32675000D03*
%TO.P,U5,8*%
X25100000Y-33945000D03*
%TO.P,U5,9*%
X34900000Y-33945000D03*
%TO.P,U5,10*%
X34900000Y-32675000D03*
%TO.P,U5,11*%
X34900000Y-31405000D03*
%TO.P,U5,12*%
X34900000Y-30135000D03*
%TO.P,U5,13*%
X34900000Y-28865000D03*
%TO.P,U5,14*%
X34900000Y-27595000D03*
%TO.P,U5,15*%
X34900000Y-26325000D03*
%TO.P,U5,16*%
X34900000Y-25055000D03*
%TD*%
D29*
%TO.P,L1,1*%
%TO.N,N/C*%
X108300000Y-52500000D03*
%TO.P,L1,2*%
X111700000Y-52500000D03*
%TD*%
D23*
%TO.P,J3,1*%
%TO.N,N/C*%
X79000000Y-52500000D03*
%TO.P,J3,2*%
X81000000Y-52500000D03*
%TD*%
D30*
%TO.N,BAT+*%
X22000000Y-23500000D03*
X22000000Y-41500000D03*
X13000000Y-32500000D03*
X31000000Y-32500000D03*
X138000000Y-22500000D03*
X148000000Y-32500000D03*
X138000000Y-42500000D03*
X129600000Y-32500000D03*
X12000000Y-54500000D03*
X32000000Y-54500000D03*
X142000000Y-58500000D03*
%TO.N,+3V3*%
X24000000Y-65500000D03*
%TO.N,GND*%
X26000000Y-65500000D03*
%TO.N,+3V3*%
X31000000Y-65500000D03*
%TO.N,GND*%
X33000000Y-65500000D03*
%TD*%
D31*
%TO.N,BAT+*%
X83000000Y-72000000D02*
X83000000Y-47500000D01*
X83000000Y-47500000D02*
X107000000Y-47500000D01*
X107000000Y-47500000D02*
X107000000Y-45500000D01*
X77000000Y-72000000D02*
X77000000Y-49500000D01*
X77000000Y-49500000D02*
X113000000Y-49500000D01*
X113000000Y-49500000D02*
X113000000Y-45500000D01*
X110000000Y-45500000D02*
X110000000Y-52500000D01*
X110000000Y-52500000D02*
X110000000Y-52500000D01*
X113000000Y-42500000D02*
X113000000Y-55500000D01*
X113000000Y-55500000D02*
X122000000Y-55500000D01*
X115000000Y-42500000D02*
X115000000Y-57500000D01*
X115000000Y-57500000D02*
X122000000Y-57500000D01*
D32*
X125000000Y-52500000D02*
X123000000Y-52500000D01*
X123000000Y-52500000D02*
X123000000Y-22500000D01*
X123000000Y-22500000D02*
X91000000Y-22500000D01*
D31*
X106000000Y-45500000D02*
X106000000Y-52500000D01*
X106000000Y-52500000D02*
X82000000Y-52500000D01*
X104000000Y-45500000D02*
X104000000Y-54500000D01*
X104000000Y-54500000D02*
X78000000Y-54500000D01*
X8000000Y-22500000D02*
X8000000Y-47500000D01*
X8000000Y-47500000D02*
X75000000Y-47500000D01*
D33*
X71000000Y-21150000D02*
X58000000Y-21150000D01*
X58000000Y-21150000D02*
X58000000Y-10000000D01*
X58000000Y-10000000D02*
X129500000Y-10000000D01*
X129500000Y-10000000D02*
X129500000Y-30750000D01*
X129500000Y-30750000D02*
X135000000Y-30750000D01*
X71000000Y-22420000D02*
X59000000Y-22420000D01*
X59000000Y-22420000D02*
X59000000Y-10500000D01*
X59000000Y-10500000D02*
X129900000Y-10500000D01*
X129900000Y-10500000D02*
X129900000Y-31250000D01*
X129900000Y-31250000D02*
X135000000Y-31250000D01*
X71000000Y-23690000D02*
X60000000Y-23690000D01*
X60000000Y-23690000D02*
X60000000Y-11000000D01*
X60000000Y-11000000D02*
X130300000Y-11000000D01*
X130300000Y-11000000D02*
X130300000Y-31750000D01*
X130300000Y-31750000D02*
X135000000Y-31750000D01*
X71000000Y-24960000D02*
X61000000Y-24960000D01*
X61000000Y-24960000D02*
X61000000Y-11500000D01*
X61000000Y-11500000D02*
X130700000Y-11500000D01*
X130700000Y-11500000D02*
X130700000Y-32250000D01*
X130700000Y-32250000D02*
X135000000Y-32250000D01*
X71000000Y-32580000D02*
X62000000Y-32580000D01*
X62000000Y-32580000D02*
X62000000Y-12000000D01*
X62000000Y-12000000D02*
X131100000Y-12000000D01*
X131100000Y-12000000D02*
X131100000Y-32750000D01*
X131100000Y-32750000D02*
X135000000Y-32750000D01*
X71000000Y-40200000D02*
X63000000Y-40200000D01*
X63000000Y-40200000D02*
X63000000Y-12500000D01*
X63000000Y-12500000D02*
X131500000Y-12500000D01*
X131500000Y-12500000D02*
X131500000Y-33250000D01*
X131500000Y-33250000D02*
X135000000Y-33250000D01*
X71000000Y-41470000D02*
X64000000Y-41470000D01*
X64000000Y-41470000D02*
X64000000Y-13000000D01*
X64000000Y-13000000D02*
X131900000Y-13000000D01*
X131900000Y-13000000D02*
X131900000Y-33750000D01*
X131900000Y-33750000D02*
X135000000Y-33750000D01*
X71000000Y-42740000D02*
X65000000Y-42740000D01*
X65000000Y-42740000D02*
X65000000Y-13500000D01*
X65000000Y-13500000D02*
X132300000Y-13500000D01*
X132300000Y-13500000D02*
X132300000Y-34250000D01*
X132300000Y-34250000D02*
X135000000Y-34250000D01*
X89000000Y-22420000D02*
X91000000Y-22420000D01*
X91000000Y-22420000D02*
X91000000Y-14500000D01*
X91000000Y-14500000D02*
X132700000Y-14500000D01*
X132700000Y-14500000D02*
X132700000Y-28250000D01*
X132700000Y-28250000D02*
X135000000Y-28250000D01*
X89000000Y-21150000D02*
X91500000Y-21150000D01*
X91500000Y-21150000D02*
X91500000Y-15000000D01*
X91500000Y-15000000D02*
X133100000Y-15000000D01*
X133100000Y-15000000D02*
X133100000Y-28750000D01*
X133100000Y-28750000D02*
X135000000Y-28750000D01*
X89000000Y-23690000D02*
X92000000Y-23690000D01*
X92000000Y-23690000D02*
X92000000Y-15500000D01*
X92000000Y-15500000D02*
X133500000Y-15500000D01*
X133500000Y-15500000D02*
X133500000Y-29250000D01*
X133500000Y-29250000D02*
X135000000Y-29250000D01*
X71000000Y-38930000D02*
X70000000Y-38930000D01*
X70000000Y-38930000D02*
X70000000Y-16000000D01*
X70000000Y-16000000D02*
X133900000Y-16000000D01*
X133900000Y-16000000D02*
X133900000Y-29750000D01*
X133900000Y-29750000D02*
X135000000Y-29750000D01*
X71000000Y-37660000D02*
X71000000Y-37660000D01*
X71000000Y-37660000D02*
X71000000Y-16500000D01*
X71000000Y-16500000D02*
X134300000Y-16500000D01*
X134300000Y-16500000D02*
X134300000Y-30250000D01*
X134300000Y-30250000D02*
X135000000Y-30250000D01*
X89000000Y-28770000D02*
X93500000Y-28770000D01*
X93500000Y-28770000D02*
X93500000Y-17000000D01*
X93500000Y-17000000D02*
X134700000Y-17000000D01*
X134700000Y-17000000D02*
X134700000Y-26750000D01*
X134700000Y-26750000D02*
X135000000Y-26750000D01*
D34*
X135000000Y-42250000D02*
X138000000Y-42250000D01*
X135000000Y-25750000D02*
X138000000Y-25750000D01*
X135000000Y-26250000D02*
X138000000Y-26250000D01*
D33*
X89000000Y-32580000D02*
X92000000Y-32580000D01*
X92000000Y-32580000D02*
X92000000Y-49500000D01*
X92000000Y-49500000D02*
X135600000Y-49500000D01*
X135600000Y-49500000D02*
X135600000Y-60200000D01*
X89000000Y-33850000D02*
X93000000Y-33850000D01*
X93000000Y-33850000D02*
X93000000Y-50000000D01*
X93000000Y-50000000D02*
X136700000Y-50000000D01*
X136700000Y-50000000D02*
X136700000Y-60200000D01*
X89000000Y-35120000D02*
X94000000Y-35120000D01*
X94000000Y-35120000D02*
X94000000Y-50500000D01*
X94000000Y-50500000D02*
X137800000Y-50500000D01*
X137800000Y-50500000D02*
X137800000Y-60200000D01*
X89000000Y-36390000D02*
X95000000Y-36390000D01*
X95000000Y-36390000D02*
X95000000Y-51000000D01*
X95000000Y-51000000D02*
X138900000Y-51000000D01*
X138900000Y-51000000D02*
X138900000Y-60200000D01*
X71000000Y-27500000D02*
X68000000Y-27500000D01*
X68000000Y-27500000D02*
X23100000Y-27500000D01*
X23100000Y-27500000D02*
X23100000Y-27500000D01*
X23100000Y-27500000D02*
X25100000Y-27500000D01*
X71000000Y-28770000D02*
X68000000Y-28770000D01*
X68000000Y-28770000D02*
X23100000Y-28770000D01*
X23100000Y-28770000D02*
X23100000Y-28770000D01*
X23100000Y-28770000D02*
X25100000Y-28770000D01*
X71000000Y-30040000D02*
X68000000Y-30040000D01*
X68000000Y-30040000D02*
X23100000Y-30040000D01*
X23100000Y-30040000D02*
X23100000Y-30040000D01*
X23100000Y-30040000D02*
X25100000Y-30040000D01*
D34*
X34900000Y-28500000D02*
X39500000Y-28500000D01*
X39500000Y-28500000D02*
X39500000Y-52500000D01*
X34900000Y-30500000D02*
X20500000Y-30500000D01*
X20500000Y-30500000D02*
X20500000Y-52500000D01*
D33*
X79500000Y-69000000D02*
X79500000Y-54195000D01*
X79500000Y-54195000D02*
X69000000Y-54195000D01*
X69000000Y-54195000D02*
X69000000Y-36390000D01*
X69000000Y-36390000D02*
X71000000Y-36390000D01*
X80500000Y-69000000D02*
X80500000Y-54695000D01*
X80500000Y-54695000D02*
X68500000Y-54695000D01*
X68500000Y-54695000D02*
X68500000Y-35120000D01*
X68500000Y-35120000D02*
X71000000Y-35120000D01*
D35*
%TO.N,GND*%
X73000000Y-67000000D02*
X73000000Y-70000000D01*
X87000000Y-67000000D02*
X87000000Y-70000000D01*
%TO.N,BAT+*%
X22000000Y-23500000D02*
X89000000Y-23500000D01*
X89000000Y-23500000D02*
X89000000Y-37660000D01*
X22000000Y-41500000D02*
X89000000Y-41500000D01*
X89000000Y-41500000D02*
X89000000Y-38930000D01*
X13000000Y-32500000D02*
X89000000Y-32500000D01*
X89000000Y-32500000D02*
X89000000Y-40200000D01*
X31000000Y-32500000D02*
X89000000Y-32500000D01*
X89000000Y-32500000D02*
X89000000Y-42740000D01*
X138000000Y-22500000D02*
X89000000Y-22500000D01*
X89000000Y-22500000D02*
X89000000Y-44010000D01*
X148000000Y-32500000D02*
X148000000Y-7000000D01*
X148000000Y-7000000D02*
X53000000Y-7000000D01*
X53000000Y-7000000D02*
X53000000Y-27500000D01*
X53000000Y-27500000D02*
X89000000Y-27500000D01*
X138000000Y-42500000D02*
X138000000Y-6000000D01*
X138000000Y-6000000D02*
X51500000Y-6000000D01*
X51500000Y-6000000D02*
X51500000Y-26230000D01*
X51500000Y-26230000D02*
X89000000Y-26230000D01*
X129600000Y-32500000D02*
X129600000Y-5000000D01*
X129600000Y-5000000D02*
X50000000Y-5000000D01*
X50000000Y-5000000D02*
X50000000Y-24960000D01*
X50000000Y-24960000D02*
X89000000Y-24960000D01*
X12000000Y-54500000D02*
X71000000Y-54500000D01*
X71000000Y-54500000D02*
X71000000Y-31310000D01*
X32000000Y-54500000D02*
X89000000Y-54500000D01*
X89000000Y-54500000D02*
X89000000Y-30040000D01*
X142000000Y-58500000D02*
X89000000Y-58500000D01*
X89000000Y-58500000D02*
X89000000Y-32500000D01*
X15000000Y-2500000D02*
X15000000Y-31310000D01*
X15000000Y-31310000D02*
X89000000Y-31310000D01*
X145000000Y-2500000D02*
X71000000Y-2500000D01*
X71000000Y-2500000D02*
X71000000Y-35120000D01*
D34*
X48000000Y-42000000D02*
X112000000Y-42000000D01*
D35*
X49050000Y-44000000D02*
X49050000Y-42000000D01*
X54050000Y-44000000D02*
X54050000Y-42000000D01*
X59050000Y-44000000D02*
X59050000Y-42000000D01*
X64050000Y-44000000D02*
X64050000Y-42000000D01*
X69050000Y-44000000D02*
X69050000Y-42000000D01*
X74050000Y-44000000D02*
X74050000Y-42000000D01*
X79050000Y-44000000D02*
X79050000Y-42000000D01*
X84050000Y-44000000D02*
X84050000Y-42000000D01*
X89050000Y-44000000D02*
X89050000Y-42000000D01*
X94050000Y-44000000D02*
X94050000Y-42000000D01*
X99050000Y-44000000D02*
X99050000Y-42000000D01*
X104050000Y-44000000D02*
X104050000Y-42000000D01*
X109050000Y-44000000D02*
X109050000Y-42000000D01*
D34*
X48000000Y-50000000D02*
X112000000Y-50000000D01*
D35*
X50950000Y-48000000D02*
X50950000Y-50000000D01*
X55950000Y-48000000D02*
X55950000Y-50000000D01*
X60950000Y-48000000D02*
X60950000Y-50000000D01*
X65950000Y-48000000D02*
X65950000Y-50000000D01*
X70950000Y-48000000D02*
X70950000Y-50000000D01*
X75950000Y-48000000D02*
X75950000Y-50000000D01*
X80950000Y-48000000D02*
X80950000Y-50000000D01*
X85950000Y-48000000D02*
X85950000Y-50000000D01*
X90950000Y-48000000D02*
X90950000Y-50000000D01*
X95950000Y-48000000D02*
X95950000Y-50000000D01*
X100950000Y-48000000D02*
X100950000Y-50000000D01*
X105950000Y-48000000D02*
X105950000Y-50000000D01*
X110950000Y-48000000D02*
X110950000Y-50000000D01*
X50950000Y-44000000D02*
X49050000Y-48000000D01*
X55950000Y-44000000D02*
X54050000Y-48000000D01*
X60950000Y-44000000D02*
X59050000Y-48000000D01*
X65950000Y-44000000D02*
X64050000Y-48000000D01*
X70950000Y-44000000D02*
X69050000Y-48000000D01*
X75950000Y-44000000D02*
X74050000Y-48000000D01*
%TO.N,*%
X80950000Y-44000000D02*
X79050000Y-48000000D01*
%TO.N,BAT+*%
X85950000Y-44000000D02*
X84050000Y-48000000D01*
X90950000Y-44000000D02*
X89050000Y-48000000D01*
X95950000Y-44000000D02*
X94050000Y-48000000D01*
X100950000Y-44000000D02*
X99050000Y-48000000D01*
X105950000Y-44000000D02*
X104050000Y-48000000D01*
X110950000Y-44000000D02*
X109050000Y-48000000D01*
%TO.N,+3V3*%
X80000000Y-18000000D02*
X80000000Y-22500000D01*
%TO.N,GND*%
X85000000Y-18000000D02*
X85000000Y-22500000D01*
%TO.N,+3V3*%
X110000000Y-38000000D02*
X110000000Y-38000000D01*
%TO.N,+5V*%
X115000000Y-38000000D02*
X113000000Y-38000000D01*
%TO.N,BAT+*%
X125000000Y-50000000D02*
X125000000Y-50000000D01*
%TO.N,+3V3*%
X125000000Y-60000000D02*
X125000000Y-60000000D01*
%TO.N,BAT+*%
X110000000Y-57000000D02*
X110000000Y-57000000D01*
X115000000Y-52500000D02*
X115000000Y-52500000D01*
%TO.N,+3V3*%
X24000000Y-65500000D02*
X25000000Y-64000000D01*
X31000000Y-65500000D02*
X32000000Y-64000000D01*
%TD*%
M02*
