%TF.GenerationSoftware,KiCad,Pcbnew,10.0.0*%
%TF.CreationDate,2026-03-30T22:35:42+02:00*%
%TF.ProjectId,esp32-emu-turbo,65737033-322d-4656-9d75-2d747572626f,rev?*%
%TF.SameCoordinates,Original*%
%TF.FileFunction,Drillmap*%
%TF.FilePolarity,Positive*%
%FSLAX45Y45*%
G04 Gerber Fmt 4.5, Leading zero omitted, Abs format (unit mm)*
G04 Created by KiCad (PCBNEW 10.0.0) date 2026-03-30 22:35:42*
%MOMM*%
%LPD*%
G01*
G04 APERTURE LIST*
%ADD10C,0.050000*%
%ADD11C,0.200000*%
%ADD12C,0.100000*%
%ADD13C,0.250000*%
G04 APERTURE END LIST*
D10*
X600000Y0D02*
X15400000Y0D01*
X16000000Y-600000D02*
X16000000Y-6900000D01*
X15400000Y-7500000D02*
X600000Y-7500000D01*
X0Y-6900000D02*
X0Y-600000D01*
X0Y-600000D02*
G75*
G02*
X600000Y0I600000J0D01*
G01*
X15400000Y0D02*
G75*
G02*
X16000000Y-600000I0J-600000D01*
G01*
X16000000Y-6900000D02*
G75*
G02*
X15400000Y-7500000I-600000J0D01*
G01*
X600000Y-7500000D02*
G75*
G02*
X0Y-6900000I0J600000D01*
G01*
X12550000Y-2350000D02*
X12850000Y-2350000D01*
X12850000Y-2350000D02*
X12850000Y-4750000D01*
X12850000Y-4750000D02*
X12550000Y-4750000D01*
X12550000Y-4750000D02*
X12550000Y-2350000D01*
D11*
D12*
X640000Y-5675000D02*
X660000Y-5695000D01*
X660000Y-5675000D02*
X640000Y-5695000D01*
X740000Y-3475000D02*
X760000Y-3495000D01*
X760000Y-3475000D02*
X740000Y-3495000D01*
X1210000Y-5255000D02*
X1230000Y-5275000D01*
X1230000Y-5255000D02*
X1210000Y-5275000D01*
X1210000Y-7150000D02*
X1230000Y-7170000D01*
X1230000Y-7150000D02*
X1210000Y-7170000D01*
X1310000Y-3055000D02*
X1330000Y-3075000D01*
X1330000Y-3055000D02*
X1310000Y-3075000D01*
X1310000Y-6430000D02*
X1330000Y-6450000D01*
X1330000Y-6430000D02*
X1310000Y-6450000D01*
X1455000Y-840000D02*
X1475000Y-860000D01*
X1475000Y-840000D02*
X1455000Y-860000D01*
X1590000Y-2575000D02*
X1610000Y-2595000D01*
X1610000Y-2575000D02*
X1590000Y-2595000D01*
X1590000Y-4375000D02*
X1610000Y-4395000D01*
X1610000Y-4375000D02*
X1590000Y-4395000D01*
X1675000Y-7343000D02*
X1695000Y-7363000D01*
X1695000Y-7343000D02*
X1675000Y-7363000D01*
X2040000Y-2360000D02*
X2060000Y-2380000D01*
X2060000Y-2360000D02*
X2040000Y-2380000D01*
X2210000Y-2155000D02*
X2230000Y-2175000D01*
X2230000Y-2155000D02*
X2210000Y-2175000D01*
X2210000Y-6190000D02*
X2230000Y-6210000D01*
X2230000Y-6190000D02*
X2210000Y-6210000D01*
X2285000Y-3955000D02*
X2305000Y-3975000D01*
X2305000Y-3955000D02*
X2285000Y-3975000D01*
X2285000Y-6310000D02*
X2305000Y-6330000D01*
X2305000Y-6310000D02*
X2285000Y-6330000D01*
X2325000Y-6740000D02*
X2345000Y-6760000D01*
X2345000Y-6740000D02*
X2325000Y-6760000D01*
X2395000Y-6255000D02*
X2415000Y-6275000D01*
X2415000Y-6255000D02*
X2395000Y-6275000D01*
X2440000Y-2240000D02*
X2460000Y-2260000D01*
X2460000Y-2240000D02*
X2440000Y-2260000D01*
X2540000Y-3475000D02*
X2560000Y-3495000D01*
X2560000Y-3475000D02*
X2540000Y-3495000D01*
X2640000Y-5675000D02*
X2660000Y-5695000D01*
X2660000Y-5675000D02*
X2640000Y-5695000D01*
X2672500Y-2470000D02*
X2692500Y-2490000D01*
X2692500Y-2470000D02*
X2672500Y-2490000D01*
X2672500Y-3420000D02*
X2692500Y-3440000D01*
X2692500Y-3420000D02*
X2672500Y-3440000D01*
X2735000Y-4380000D02*
X2755000Y-4400000D01*
X2755000Y-4380000D02*
X2735000Y-4400000D01*
X2735000Y-7030000D02*
X2755000Y-7050000D01*
X2755000Y-7030000D02*
X2735000Y-7050000D01*
X2799500Y-2360000D02*
X2819500Y-2380000D01*
X2819500Y-2360000D02*
X2799500Y-2380000D01*
X2926500Y-2045000D02*
X2946500Y-2065000D01*
X2946500Y-2045000D02*
X2926500Y-2065000D01*
X2926500Y-2860000D02*
X2946500Y-2880000D01*
X2946500Y-2860000D02*
X2926500Y-2880000D01*
X3025000Y-6740000D02*
X3045000Y-6760000D01*
X3045000Y-6740000D02*
X3025000Y-6760000D01*
X3095000Y-6255000D02*
X3115000Y-6275000D01*
X3115000Y-6255000D02*
X3095000Y-6275000D01*
X3140000Y-3885000D02*
X3160000Y-3905000D01*
X3160000Y-3885000D02*
X3140000Y-3905000D01*
X3180500Y-2570000D02*
X3200500Y-2590000D01*
X3200500Y-2570000D02*
X3180500Y-2590000D01*
X3180500Y-2870000D02*
X3200500Y-2890000D01*
X3200500Y-2870000D02*
X3180500Y-2890000D01*
X3180500Y-3420000D02*
X3200500Y-3440000D01*
X3200500Y-3420000D02*
X3180500Y-3440000D01*
X3307500Y-1790000D02*
X3327500Y-1810000D01*
X3327500Y-1790000D02*
X3307500Y-1810000D01*
X3307500Y-3210000D02*
X3327500Y-3230000D01*
X3327500Y-3210000D02*
X3307500Y-3230000D01*
X3410000Y-3055000D02*
X3430000Y-3075000D01*
X3430000Y-3055000D02*
X3410000Y-3075000D01*
X3410000Y-6550000D02*
X3430000Y-6570000D01*
X3430000Y-6550000D02*
X3410000Y-6570000D01*
X3485000Y-5255000D02*
X3505000Y-5275000D01*
X3505000Y-5255000D02*
X3485000Y-5275000D01*
X3485000Y-7270000D02*
X3505000Y-7290000D01*
X3505000Y-7270000D02*
X3485000Y-7290000D01*
X3635000Y-4260000D02*
X3655000Y-4280000D01*
X3655000Y-4260000D02*
X3635000Y-4280000D01*
X3635000Y-6910000D02*
X3655000Y-6930000D01*
X3655000Y-6910000D02*
X3635000Y-6930000D01*
X3695000Y-3210000D02*
X3715000Y-3230000D01*
X3715000Y-3210000D02*
X3695000Y-3230000D01*
X3790000Y-2570000D02*
X3810000Y-2590000D01*
X3810000Y-2570000D02*
X3790000Y-2590000D01*
X3790000Y-3085000D02*
X3810000Y-3105000D01*
X3810000Y-3085000D02*
X3790000Y-3105000D01*
X3875000Y-2440000D02*
X3895000Y-2460000D01*
X3895000Y-2440000D02*
X3875000Y-2460000D01*
X3875000Y-2520000D02*
X3895000Y-2540000D01*
X3895000Y-2520000D02*
X3875000Y-2540000D01*
X3875000Y-3360000D02*
X3895000Y-3380000D01*
X3895000Y-3360000D02*
X3875000Y-3380000D01*
X3940000Y-2240000D02*
X3960000Y-2260000D01*
X3960000Y-2240000D02*
X3940000Y-2260000D01*
X4170000Y-4440000D02*
X4190000Y-4460000D01*
X4190000Y-4440000D02*
X4170000Y-4460000D01*
X4170000Y-5190000D02*
X4190000Y-5210000D01*
X4190000Y-5190000D02*
X4170000Y-5210000D01*
X4535000Y-4140000D02*
X4555000Y-4160000D01*
X4555000Y-4140000D02*
X4535000Y-4160000D01*
X4535000Y-6790000D02*
X4555000Y-6810000D01*
X4555000Y-6790000D02*
X4535000Y-6810000D01*
X4670000Y-4440000D02*
X4690000Y-4460000D01*
X4690000Y-4440000D02*
X4670000Y-4460000D01*
X4670000Y-5190000D02*
X4690000Y-5210000D01*
X4690000Y-5190000D02*
X4670000Y-5210000D01*
X5170000Y-4440000D02*
X5190000Y-4460000D01*
X5190000Y-4440000D02*
X5170000Y-4460000D01*
X5170000Y-5190000D02*
X5190000Y-5210000D01*
X5190000Y-5190000D02*
X5170000Y-5210000D01*
X5235000Y-2341000D02*
X5255000Y-2361000D01*
X5255000Y-2341000D02*
X5235000Y-2361000D01*
X5235000Y-6670000D02*
X5255000Y-6690000D01*
X5255000Y-6670000D02*
X5235000Y-6690000D01*
X5670000Y-4440000D02*
X5690000Y-4460000D01*
X5690000Y-4440000D02*
X5670000Y-4460000D01*
X5670000Y-5190000D02*
X5690000Y-5210000D01*
X5690000Y-5190000D02*
X5670000Y-5210000D01*
X5845000Y-2468000D02*
X5865000Y-2488000D01*
X5865000Y-2468000D02*
X5845000Y-2488000D01*
X5845000Y-6550000D02*
X5865000Y-6570000D01*
X5865000Y-6550000D02*
X5845000Y-6570000D01*
X6035000Y-4500000D02*
X6055000Y-4520000D01*
X6055000Y-4500000D02*
X6035000Y-4520000D01*
X6035000Y-7270000D02*
X6055000Y-7290000D01*
X6055000Y-7270000D02*
X6035000Y-7290000D01*
X6170000Y-4440000D02*
X6190000Y-4460000D01*
X6190000Y-4440000D02*
X6170000Y-4460000D01*
X6170000Y-5190000D02*
X6190000Y-5210000D01*
X6190000Y-5190000D02*
X6170000Y-5210000D01*
X6235000Y-2849000D02*
X6255000Y-2869000D01*
X6255000Y-2849000D02*
X6235000Y-2869000D01*
X6235000Y-6430000D02*
X6255000Y-6450000D01*
X6255000Y-6430000D02*
X6235000Y-6450000D01*
X6490000Y-4200000D02*
X6510000Y-4220000D01*
X6510000Y-4200000D02*
X6490000Y-4220000D01*
X6545000Y-2976000D02*
X6565000Y-2996000D01*
X6565000Y-2976000D02*
X6545000Y-2996000D01*
X6545000Y-6310000D02*
X6565000Y-6330000D01*
X6565000Y-6310000D02*
X6545000Y-6330000D01*
X6670000Y-4440000D02*
X6690000Y-4460000D01*
X6690000Y-4440000D02*
X6670000Y-4460000D01*
X6670000Y-5190000D02*
X6690000Y-5210000D01*
X6690000Y-5190000D02*
X6670000Y-5210000D01*
X6735000Y-3103000D02*
X6755000Y-3123000D01*
X6755000Y-3103000D02*
X6735000Y-3123000D01*
X6735000Y-6190000D02*
X6755000Y-6210000D01*
X6755000Y-6190000D02*
X6735000Y-6210000D01*
X6790000Y-3738000D02*
X6810000Y-3758000D01*
X6810000Y-3738000D02*
X6790000Y-3758000D01*
X6790000Y-7343000D02*
X6810000Y-7363000D01*
X6810000Y-7343000D02*
X6790000Y-7363000D01*
X6845000Y-3990000D02*
X6865000Y-4010000D01*
X6865000Y-3990000D02*
X6845000Y-4010000D01*
X6915000Y-2341000D02*
X6935000Y-2361000D01*
X6935000Y-2341000D02*
X6915000Y-2361000D01*
X6915000Y-2468000D02*
X6935000Y-2488000D01*
X6935000Y-2468000D02*
X6915000Y-2488000D01*
X6915000Y-2849000D02*
X6935000Y-2869000D01*
X6935000Y-2849000D02*
X6915000Y-2869000D01*
X6915000Y-2976000D02*
X6935000Y-2996000D01*
X6935000Y-2976000D02*
X6915000Y-2996000D01*
X6915000Y-3103000D02*
X6935000Y-3123000D01*
X6935000Y-3103000D02*
X6915000Y-3123000D01*
X7035000Y-4440000D02*
X7055000Y-4460000D01*
X7055000Y-4440000D02*
X7035000Y-4460000D01*
X7170000Y-4740000D02*
X7190000Y-4760000D01*
X7190000Y-4740000D02*
X7170000Y-4760000D01*
X7170000Y-5190000D02*
X7190000Y-5210000D01*
X7190000Y-5190000D02*
X7170000Y-5210000D01*
X7210000Y-3230000D02*
X7230000Y-3250000D01*
X7230000Y-3230000D02*
X7210000Y-3250000D01*
X7210000Y-3357000D02*
X7230000Y-3377000D01*
X7230000Y-3357000D02*
X7210000Y-3377000D01*
X7210000Y-3484000D02*
X7230000Y-3504000D01*
X7230000Y-3484000D02*
X7210000Y-3504000D01*
X7210000Y-3611000D02*
X7230000Y-3631000D01*
X7230000Y-3611000D02*
X7210000Y-3631000D01*
X7291500Y-2785500D02*
X7311500Y-2805500D01*
X7311500Y-2785500D02*
X7291500Y-2805500D01*
X7295000Y-6540000D02*
X7315000Y-6560000D01*
X7315000Y-6540000D02*
X7295000Y-6560000D01*
X7315000Y-4140000D02*
X7335000Y-4160000D01*
X7335000Y-4140000D02*
X7315000Y-4160000D01*
X7315000Y-4500000D02*
X7335000Y-4520000D01*
X7335000Y-4500000D02*
X7315000Y-4520000D01*
X7345500Y-4260000D02*
X7365500Y-4280000D01*
X7365500Y-4260000D02*
X7345500Y-4280000D01*
X7472500Y-4380000D02*
X7492500Y-4400000D01*
X7492500Y-4380000D02*
X7472500Y-4400000D01*
X7490000Y-140000D02*
X7510000Y-160000D01*
X7510000Y-140000D02*
X7490000Y-160000D01*
X7490000Y-3611000D02*
X7510000Y-3631000D01*
X7510000Y-3611000D02*
X7490000Y-3631000D01*
X7590000Y-210000D02*
X7610000Y-230000D01*
X7610000Y-210000D02*
X7590000Y-230000D01*
X7590000Y-3484000D02*
X7610000Y-3504000D01*
X7610000Y-3484000D02*
X7590000Y-3504000D01*
X7610000Y-4490000D02*
X7630000Y-4510000D01*
X7630000Y-4490000D02*
X7610000Y-4510000D01*
X7610000Y-6530000D02*
X7630000Y-6550000D01*
X7630000Y-6530000D02*
X7610000Y-6550000D01*
X7670000Y-6730000D02*
X7690000Y-6750000D01*
X7690000Y-6730000D02*
X7670000Y-6750000D01*
X7685000Y-4440000D02*
X7705000Y-4460000D01*
X7705000Y-4440000D02*
X7685000Y-4460000D01*
X7685000Y-5190000D02*
X7705000Y-5210000D01*
X7705000Y-5190000D02*
X7685000Y-5210000D01*
X7690000Y-280000D02*
X7710000Y-300000D01*
X7710000Y-280000D02*
X7690000Y-300000D01*
X7690000Y-3357000D02*
X7710000Y-3377000D01*
X7710000Y-3357000D02*
X7690000Y-3377000D01*
X7790000Y-350000D02*
X7810000Y-370000D01*
X7810000Y-350000D02*
X7790000Y-370000D01*
X7790000Y-3230000D02*
X7810000Y-3250000D01*
X7810000Y-3230000D02*
X7790000Y-3250000D01*
X7799500Y-3674500D02*
X7819500Y-3694500D01*
X7819500Y-3674500D02*
X7799500Y-3694500D01*
X7815000Y-7240000D02*
X7835000Y-7260000D01*
X7835000Y-7240000D02*
X7815000Y-7260000D01*
X7926500Y-3293500D02*
X7946500Y-3313500D01*
X7946500Y-3293500D02*
X7926500Y-3313500D01*
X7965000Y-6447500D02*
X7985000Y-6467500D01*
X7985000Y-6447500D02*
X7965000Y-6467500D01*
X7990000Y-3490000D02*
X8010000Y-3510000D01*
X8010000Y-3490000D02*
X7990000Y-3510000D01*
X8050000Y-6582500D02*
X8070000Y-6602500D01*
X8070000Y-6582500D02*
X8050000Y-6602500D01*
X8053500Y-3801500D02*
X8073500Y-3821500D01*
X8073500Y-3801500D02*
X8053500Y-3821500D01*
X8170000Y-4440000D02*
X8190000Y-4460000D01*
X8190000Y-4440000D02*
X8170000Y-4460000D01*
X8170000Y-5190000D02*
X8190000Y-5210000D01*
X8190000Y-5190000D02*
X8170000Y-5210000D01*
X8180500Y-1940000D02*
X8200500Y-1960000D01*
X8200500Y-1940000D02*
X8180500Y-1960000D01*
X8307500Y-2040000D02*
X8327500Y-2060000D01*
X8327500Y-2040000D02*
X8307500Y-2060000D01*
X8434500Y-3166500D02*
X8454500Y-3186500D01*
X8454500Y-3166500D02*
X8434500Y-3186500D01*
X8495000Y-6390000D02*
X8515000Y-6410000D01*
X8515000Y-6390000D02*
X8495000Y-6410000D01*
X8561500Y-3547500D02*
X8581500Y-3567500D01*
X8581500Y-3547500D02*
X8561500Y-3567500D01*
X8670000Y-4440000D02*
X8690000Y-4460000D01*
X8690000Y-4440000D02*
X8670000Y-4460000D01*
X8670000Y-5190000D02*
X8690000Y-5210000D01*
X8690000Y-5190000D02*
X8670000Y-5210000D01*
X8685000Y-7240000D02*
X8705000Y-7260000D01*
X8705000Y-7240000D02*
X8685000Y-7260000D01*
X8688500Y-3420500D02*
X8708500Y-3440500D01*
X8708500Y-3420500D02*
X8688500Y-3440500D01*
X8760000Y-1790000D02*
X8780000Y-1810000D01*
X8780000Y-1790000D02*
X8760000Y-1810000D01*
X8865000Y-2091000D02*
X8885000Y-2111000D01*
X8885000Y-2091000D02*
X8865000Y-2111000D01*
X9015000Y-6582500D02*
X9035000Y-6602500D01*
X9035000Y-6582500D02*
X9015000Y-6602500D01*
X9065000Y-2595000D02*
X9085000Y-2615000D01*
X9085000Y-2595000D02*
X9065000Y-2615000D01*
X9065000Y-2722000D02*
X9085000Y-2742000D01*
X9085000Y-2722000D02*
X9065000Y-2742000D01*
X9065000Y-2849000D02*
X9085000Y-2869000D01*
X9085000Y-2849000D02*
X9065000Y-2869000D01*
X9065000Y-2976000D02*
X9085000Y-2996000D01*
X9085000Y-2976000D02*
X9065000Y-2996000D01*
X9065000Y-3484000D02*
X9085000Y-3504000D01*
X9085000Y-3484000D02*
X9065000Y-3504000D01*
X9065000Y-3611000D02*
X9085000Y-3631000D01*
X9085000Y-3611000D02*
X9065000Y-3631000D01*
X9095000Y-3990000D02*
X9115000Y-4010000D01*
X9115000Y-3990000D02*
X9095000Y-4010000D01*
X9155000Y-6447500D02*
X9175000Y-6467500D01*
X9175000Y-6447500D02*
X9155000Y-6467500D01*
X9210000Y-4440000D02*
X9230000Y-4460000D01*
X9230000Y-4440000D02*
X9210000Y-4460000D01*
X9210000Y-5190000D02*
X9230000Y-5210000D01*
X9230000Y-5190000D02*
X9210000Y-5210000D01*
X9285000Y-4050000D02*
X9305000Y-4070000D01*
X9305000Y-4050000D02*
X9285000Y-4070000D01*
X9670000Y-4440000D02*
X9690000Y-4460000D01*
X9690000Y-4440000D02*
X9670000Y-4460000D01*
X9670000Y-5190000D02*
X9690000Y-5210000D01*
X9690000Y-5190000D02*
X9670000Y-5210000D01*
X10035000Y-3484000D02*
X10055000Y-3504000D01*
X10055000Y-3484000D02*
X10035000Y-3504000D01*
X10035000Y-7150000D02*
X10055000Y-7170000D01*
X10055000Y-7150000D02*
X10035000Y-7170000D01*
X10170000Y-4440000D02*
X10190000Y-4460000D01*
X10190000Y-4440000D02*
X10170000Y-4460000D01*
X10170000Y-5190000D02*
X10190000Y-5210000D01*
X10190000Y-5190000D02*
X10170000Y-5210000D01*
X10840000Y-5940000D02*
X10860000Y-5960000D01*
X10860000Y-5940000D02*
X10840000Y-5960000D01*
X10895000Y-3740000D02*
X10915000Y-3760000D01*
X10915000Y-3740000D02*
X10895000Y-3760000D01*
X10960000Y-1790000D02*
X10980000Y-1810000D01*
X10980000Y-1790000D02*
X10960000Y-1810000D01*
X10960000Y-2785500D02*
X10980000Y-2805500D01*
X10980000Y-2785500D02*
X10960000Y-2805500D01*
X11070000Y-1690000D02*
X11090000Y-1710000D01*
X11090000Y-1690000D02*
X11070000Y-1710000D01*
X11070000Y-1940000D02*
X11090000Y-1960000D01*
X11090000Y-1940000D02*
X11070000Y-1960000D01*
X11085000Y-3355000D02*
X11105000Y-3375000D01*
X11105000Y-3355000D02*
X11085000Y-3375000D01*
X11180000Y-1590000D02*
X11200000Y-1610000D01*
X11200000Y-1590000D02*
X11180000Y-1610000D01*
X11180000Y-2040000D02*
X11200000Y-2060000D01*
X11200000Y-2040000D02*
X11180000Y-2060000D01*
X11290000Y-1490000D02*
X11310000Y-1510000D01*
X11310000Y-1490000D02*
X11290000Y-1510000D01*
X11290000Y-3166500D02*
X11310000Y-3186500D01*
X11310000Y-3166500D02*
X11290000Y-3186500D01*
X11290000Y-5640000D02*
X11310000Y-5660000D01*
X11310000Y-5640000D02*
X11290000Y-5660000D01*
X11400000Y-1390000D02*
X11420000Y-1410000D01*
X11420000Y-1390000D02*
X11400000Y-1410000D01*
X11400000Y-3611000D02*
X11420000Y-3631000D01*
X11420000Y-3611000D02*
X11400000Y-3631000D01*
X11510000Y-1290000D02*
X11530000Y-1310000D01*
X11530000Y-1290000D02*
X11510000Y-1310000D01*
X11510000Y-2976000D02*
X11530000Y-2996000D01*
X11530000Y-2976000D02*
X11510000Y-2996000D01*
X11620000Y-1190000D02*
X11640000Y-1210000D01*
X11640000Y-1190000D02*
X11620000Y-1210000D01*
X11620000Y-2849000D02*
X11640000Y-2869000D01*
X11640000Y-2849000D02*
X11620000Y-2869000D01*
X11695000Y-5740000D02*
X11715000Y-5760000D01*
X11715000Y-5740000D02*
X11695000Y-5760000D01*
X11730000Y-1090000D02*
X11750000Y-1110000D01*
X11750000Y-1090000D02*
X11730000Y-1110000D01*
X11730000Y-2722000D02*
X11750000Y-2742000D01*
X11750000Y-2722000D02*
X11730000Y-2742000D01*
X11840000Y-990000D02*
X11860000Y-1010000D01*
X11860000Y-990000D02*
X11840000Y-1010000D01*
X11840000Y-2595000D02*
X11860000Y-2615000D01*
X11860000Y-2595000D02*
X11840000Y-2615000D01*
X11885000Y-5240000D02*
X11905000Y-5260000D01*
X11905000Y-5240000D02*
X11885000Y-5260000D01*
X11950000Y-890000D02*
X11970000Y-910000D01*
X11970000Y-890000D02*
X11950000Y-910000D01*
X11950000Y-3293500D02*
X11970000Y-3313500D01*
X11970000Y-3293500D02*
X11950000Y-3313500D01*
X12060000Y-790000D02*
X12080000Y-810000D01*
X12080000Y-790000D02*
X12060000Y-810000D01*
X12060000Y-3420500D02*
X12080000Y-3440500D01*
X12080000Y-3420500D02*
X12060000Y-3440500D01*
X12095000Y-4590000D02*
X12115000Y-4610000D01*
X12115000Y-4590000D02*
X12095000Y-4610000D01*
X12170000Y-690000D02*
X12190000Y-710000D01*
X12190000Y-690000D02*
X12170000Y-710000D01*
X12170000Y-3547500D02*
X12190000Y-3567500D01*
X12190000Y-3547500D02*
X12170000Y-3567500D01*
X12280000Y-590000D02*
X12300000Y-610000D01*
X12300000Y-590000D02*
X12280000Y-610000D01*
X12280000Y-3674500D02*
X12300000Y-3694500D01*
X12300000Y-3674500D02*
X12280000Y-3694500D01*
X12285000Y-4590000D02*
X12305000Y-4610000D01*
X12305000Y-4590000D02*
X12285000Y-4610000D01*
X12340000Y-6440000D02*
X12360000Y-6460000D01*
X12360000Y-6440000D02*
X12340000Y-6460000D01*
X12390000Y-490000D02*
X12410000Y-510000D01*
X12410000Y-490000D02*
X12390000Y-510000D01*
X12390000Y-3801500D02*
X12410000Y-3821500D01*
X12410000Y-3801500D02*
X12390000Y-3821500D01*
X12440000Y-5190000D02*
X12460000Y-5210000D01*
X12460000Y-5190000D02*
X12440000Y-5210000D01*
X12440000Y-5260000D02*
X12460000Y-5280000D01*
X12460000Y-5260000D02*
X12440000Y-5280000D01*
X12540000Y-5190000D02*
X12560000Y-5210000D01*
X12560000Y-5190000D02*
X12540000Y-5210000D01*
X12540000Y-5260000D02*
X12560000Y-5280000D01*
X12560000Y-5260000D02*
X12540000Y-5280000D01*
X12918000Y-3055000D02*
X12938000Y-3075000D01*
X12938000Y-3055000D02*
X12918000Y-3075000D01*
X12918000Y-7030000D02*
X12938000Y-7050000D01*
X12938000Y-7030000D02*
X12918000Y-7050000D01*
X12969000Y-4055000D02*
X12989000Y-4075000D01*
X12989000Y-4055000D02*
X12969000Y-4075000D01*
X12969000Y-6910000D02*
X12989000Y-6930000D01*
X12989000Y-6910000D02*
X12969000Y-6930000D01*
X13020000Y-2055000D02*
X13040000Y-2075000D01*
X13040000Y-2055000D02*
X13020000Y-2075000D01*
X13020000Y-6670000D02*
X13040000Y-6690000D01*
X13040000Y-6670000D02*
X13020000Y-6690000D01*
X13090000Y-1490000D02*
X13110000Y-1510000D01*
X13110000Y-1490000D02*
X13090000Y-1510000D01*
X13114000Y-7217600D02*
X13134000Y-7237600D01*
X13134000Y-7217600D02*
X13114000Y-7237600D01*
X13160000Y-1590000D02*
X13180000Y-1610000D01*
X13180000Y-1590000D02*
X13160000Y-1610000D01*
X13190000Y-5015000D02*
X13210000Y-5035000D01*
X13210000Y-5015000D02*
X13190000Y-5035000D01*
X13230000Y-1690000D02*
X13250000Y-1710000D01*
X13250000Y-1690000D02*
X13230000Y-1710000D01*
X13300000Y-1790000D02*
X13320000Y-1810000D01*
X13320000Y-1790000D02*
X13300000Y-1810000D01*
X13300000Y-4315000D02*
X13320000Y-4335000D01*
X13320000Y-4315000D02*
X13300000Y-4335000D01*
X13350000Y-2515000D02*
X13370000Y-2535000D01*
X13370000Y-2515000D02*
X13350000Y-2535000D01*
X13350000Y-2615000D02*
X13370000Y-2635000D01*
X13370000Y-2615000D02*
X13350000Y-2635000D01*
X13350000Y-2730000D02*
X13370000Y-2750000D01*
X13370000Y-2730000D02*
X13350000Y-2750000D01*
X13350000Y-2815000D02*
X13370000Y-2835000D01*
X13370000Y-2815000D02*
X13350000Y-2835000D01*
X13350000Y-3765000D02*
X13370000Y-3785000D01*
X13370000Y-3765000D02*
X13350000Y-3785000D01*
X13400000Y-1390000D02*
X13420000Y-1410000D01*
X13420000Y-1390000D02*
X13400000Y-1410000D01*
X13470000Y-1290000D02*
X13490000Y-1310000D01*
X13490000Y-1290000D02*
X13470000Y-1310000D01*
X13540000Y-1190000D02*
X13560000Y-1210000D01*
X13560000Y-1190000D02*
X13540000Y-1210000D01*
X13610000Y-1090000D02*
X13630000Y-1110000D01*
X13630000Y-1090000D02*
X13610000Y-1110000D01*
X13680000Y-990000D02*
X13700000Y-1010000D01*
X13700000Y-990000D02*
X13680000Y-1010000D01*
X13750000Y-890000D02*
X13770000Y-910000D01*
X13770000Y-890000D02*
X13750000Y-910000D01*
X13820000Y-790000D02*
X13840000Y-810000D01*
X13840000Y-790000D02*
X13820000Y-810000D01*
X13876000Y-7090000D02*
X13896000Y-7110000D01*
X13896000Y-7090000D02*
X13876000Y-7110000D01*
X13890000Y-690000D02*
X13910000Y-710000D01*
X13910000Y-690000D02*
X13890000Y-710000D01*
X13960000Y-590000D02*
X13980000Y-610000D01*
X13980000Y-590000D02*
X13960000Y-610000D01*
X13986000Y-6590000D02*
X14006000Y-6610000D01*
X14006000Y-6590000D02*
X13986000Y-6610000D01*
X13990000Y-4890000D02*
X14010000Y-4910000D01*
X14010000Y-4890000D02*
X13990000Y-4910000D01*
X14030000Y-490000D02*
X14050000Y-510000D01*
X14050000Y-490000D02*
X14030000Y-510000D01*
X14096000Y-6162400D02*
X14116000Y-6182400D01*
X14116000Y-6162400D02*
X14096000Y-6182400D01*
X14110000Y-140000D02*
X14130000Y-160000D01*
X14130000Y-140000D02*
X14110000Y-160000D01*
X14110000Y-6590000D02*
X14130000Y-6610000D01*
X14130000Y-6590000D02*
X14110000Y-6610000D01*
X14206000Y-7040000D02*
X14226000Y-7060000D01*
X14226000Y-7040000D02*
X14206000Y-7060000D01*
X14270000Y-3055000D02*
X14290000Y-3075000D01*
X14290000Y-3055000D02*
X14270000Y-3075000D01*
X14270000Y-6790000D02*
X14290000Y-6810000D01*
X14290000Y-6790000D02*
X14270000Y-6810000D01*
X14316000Y-6162400D02*
X14336000Y-6182400D01*
X14336000Y-6162400D02*
X14316000Y-6182400D01*
X14340000Y-2475000D02*
X14360000Y-2495000D01*
X14360000Y-2475000D02*
X14340000Y-2495000D01*
X14340000Y-4315000D02*
X14360000Y-4335000D01*
X14360000Y-4315000D02*
X14340000Y-4335000D01*
X14340000Y-4475000D02*
X14360000Y-4495000D01*
X14360000Y-4475000D02*
X14340000Y-4495000D01*
X14340000Y-5015000D02*
X14360000Y-5035000D01*
X14360000Y-5015000D02*
X14340000Y-5035000D01*
X14426000Y-6740000D02*
X14446000Y-6760000D01*
X14446000Y-6740000D02*
X14426000Y-6760000D01*
X14455000Y-840000D02*
X14475000Y-860000D01*
X14475000Y-840000D02*
X14455000Y-860000D01*
X14550000Y-210000D02*
X14570000Y-230000D01*
X14570000Y-210000D02*
X14550000Y-230000D01*
X14550000Y-6740000D02*
X14570000Y-6760000D01*
X14570000Y-6740000D02*
X14550000Y-6760000D01*
X14675000Y-6530000D02*
X14695000Y-6550000D01*
X14695000Y-6530000D02*
X14675000Y-6550000D01*
X14866000Y-6247400D02*
X14886000Y-6267400D01*
X14886000Y-6247400D02*
X14866000Y-6267400D01*
X15240000Y-280000D02*
X15260000Y-300000D01*
X15260000Y-280000D02*
X15240000Y-300000D01*
X15240000Y-7040000D02*
X15260000Y-7060000D01*
X15260000Y-7040000D02*
X15240000Y-7060000D01*
X15340000Y-350000D02*
X15360000Y-370000D01*
X15360000Y-350000D02*
X15340000Y-370000D01*
X15340000Y-7090000D02*
X15360000Y-7110000D01*
X15360000Y-7090000D02*
X15340000Y-7110000D01*
X15395000Y-3475000D02*
X15415000Y-3495000D01*
X15415000Y-3475000D02*
X15395000Y-3495000D01*
X9962500Y-3621000D02*
G75*
G02*
X9937500Y-3621000I-12500J0D01*
G01*
X9937500Y-3621000D02*
G75*
G02*
X9962500Y-3621000I12500J0D01*
G01*
X10112500Y-3811500D02*
G75*
G02*
X10087500Y-3811500I-12500J0D01*
G01*
X10087500Y-3811500D02*
G75*
G02*
X10112500Y-3811500I12500J0D01*
G01*
X10167500Y-3684500D02*
G75*
G02*
X10142500Y-3684500I-12500J0D01*
G01*
X10142500Y-3684500D02*
G75*
G02*
X10167500Y-3684500I12500J0D01*
G01*
X10244500Y-3557500D02*
G75*
G02*
X10219500Y-3557500I-12500J0D01*
G01*
X10219500Y-3557500D02*
G75*
G02*
X10244500Y-3557500I12500J0D01*
G01*
X10780500Y-3557500D02*
G75*
G02*
X10755500Y-3557500I-12500J0D01*
G01*
X10755500Y-3557500D02*
G75*
G02*
X10780500Y-3557500I12500J0D01*
G01*
X10832500Y-3684500D02*
G75*
G02*
X10807500Y-3684500I-12500J0D01*
G01*
X10807500Y-3684500D02*
G75*
G02*
X10832500Y-3684500I12500J0D01*
G01*
X11012500Y-3811500D02*
G75*
G02*
X10987500Y-3811500I-12500J0D01*
G01*
X10987500Y-3811500D02*
G75*
G02*
X11012500Y-3811500I12500J0D01*
G01*
X11162500Y-3621000D02*
G75*
G02*
X11137500Y-3621000I-12500J0D01*
G01*
X11137500Y-3621000D02*
G75*
G02*
X11162500Y-3621000I12500J0D01*
G01*
X2595000Y-6607500D02*
X2595000Y-6642500D01*
X2577500Y-6625000D02*
X2612500Y-6625000D01*
X3295000Y-6607500D02*
X3295000Y-6642500D01*
X3277500Y-6625000D02*
X3312500Y-6625000D01*
X3800000Y-4596000D02*
X3800000Y-4631000D01*
X3782500Y-4613500D02*
X3817500Y-4613500D01*
X3925000Y-6812500D02*
X3925000Y-6847500D01*
X3907500Y-6830000D02*
X3942500Y-6830000D01*
X7700000Y-6232500D02*
X7700000Y-6267500D01*
X7682500Y-6250000D02*
X7717500Y-6250000D01*
X8050000Y-4596000D02*
X8050000Y-4631000D01*
X8032500Y-4613500D02*
X8067500Y-4613500D01*
X8200000Y-6082500D02*
X8200000Y-6117500D01*
X8182500Y-6100000D02*
X8217500Y-6100000D01*
X10550000Y-4596000D02*
X10550000Y-4631000D01*
X10532500Y-4613500D02*
X10567500Y-4613500D01*
X10750000Y-3892000D02*
X10750000Y-3927000D01*
X10732500Y-3909500D02*
X10767500Y-3909500D01*
X11100000Y-3992000D02*
X11100000Y-4027000D01*
X11082500Y-4009500D02*
X11117500Y-4009500D01*
X11240000Y-4532500D02*
X11240000Y-4567500D01*
X11222500Y-4550000D02*
X11257500Y-4550000D01*
X11240000Y-4932500D02*
X11240000Y-4967500D01*
X11222500Y-4950000D02*
X11257500Y-4950000D01*
X11595000Y-5432500D02*
X11595000Y-5467500D01*
X11577500Y-5450000D02*
X11612500Y-5450000D01*
X12270000Y-5647500D02*
X12270000Y-5682500D01*
X12252500Y-5665000D02*
X12287500Y-5665000D01*
X12500000Y-4917500D02*
X12500000Y-4952500D01*
X12482500Y-4935000D02*
X12517500Y-4935000D01*
X12730000Y-6047500D02*
X12730000Y-6082500D01*
X12712500Y-6065000D02*
X12747500Y-6065000D01*
X7588713Y-6958713D02*
X7588713Y-6916287D01*
X7546287Y-6916287D01*
X7546287Y-6958713D01*
X7588713Y-6958713D01*
X7588713Y-7378713D02*
X7588713Y-7336287D01*
X7546287Y-7336287D01*
X7546287Y-7378713D01*
X7588713Y-7378713D01*
X8453713Y-6958713D02*
X8453713Y-6916287D01*
X8411287Y-6916287D01*
X8411287Y-6958713D01*
X8453713Y-6958713D01*
X8453713Y-7378713D02*
X8453713Y-7336287D01*
X8411287Y-7336287D01*
X8411287Y-7378713D01*
X8453713Y-7378713D01*
X7900000Y-6292500D02*
X7942500Y-6250000D01*
X7900000Y-6207500D01*
X7857500Y-6250000D01*
X7900000Y-6292500D01*
X8100000Y-6292500D02*
X8142500Y-6250000D01*
X8100000Y-6207500D01*
X8057500Y-6250000D01*
X8100000Y-6292500D01*
X7678500Y-6957000D02*
X7743500Y-7022000D01*
X7743500Y-6957000D02*
X7678500Y-7022000D01*
X7743500Y-6989500D02*
G75*
G02*
X7678500Y-6989500I-32500J0D01*
G01*
X7678500Y-6989500D02*
G75*
G02*
X7743500Y-6989500I32500J0D01*
G01*
X8256500Y-6957000D02*
X8321500Y-7022000D01*
X8321500Y-6957000D02*
X8256500Y-7022000D01*
X8321500Y-6989500D02*
G75*
G02*
X8256500Y-6989500I-32500J0D01*
G01*
X8256500Y-6989500D02*
G75*
G02*
X8321500Y-6989500I32500J0D01*
G01*
X3805000Y-7210000D02*
X3895000Y-7300000D01*
X3895000Y-7210000D02*
X3805000Y-7300000D01*
X3850000Y-7210000D02*
X3850000Y-7300000D01*
X3805000Y-7255000D02*
X3895000Y-7255000D01*
X4105000Y-7210000D02*
X4195000Y-7300000D01*
X4195000Y-7210000D02*
X4105000Y-7300000D01*
X4150000Y-7210000D02*
X4150000Y-7300000D01*
X4105000Y-7255000D02*
X4195000Y-7255000D01*
X13645000Y-7206600D02*
X13745000Y-7306600D01*
X13745000Y-7206600D02*
X13645000Y-7306600D01*
X13730356Y-7291956D02*
X13730356Y-7221244D01*
X13659644Y-7221244D01*
X13659644Y-7291956D01*
X13730356Y-7291956D01*
X14445000Y-7206600D02*
X14545000Y-7306600D01*
X14545000Y-7206600D02*
X14445000Y-7306600D01*
X14530356Y-7291956D02*
X14530356Y-7221244D01*
X14459644Y-7221244D01*
X14459644Y-7291956D01*
X14530356Y-7291956D01*
D13*
X875000Y-575000D02*
X1125000Y-825000D01*
X1125000Y-575000D02*
X875000Y-825000D01*
X1000000Y-825000D02*
X1125000Y-700000D01*
X1000000Y-575000D01*
X875000Y-700000D01*
X1000000Y-825000D01*
X875000Y-6675000D02*
X1125000Y-6925000D01*
X1125000Y-6675000D02*
X875000Y-6925000D01*
X1000000Y-6925000D02*
X1125000Y-6800000D01*
X1000000Y-6675000D01*
X875000Y-6800000D01*
X1000000Y-6925000D01*
X5375000Y-3625000D02*
X5625000Y-3875000D01*
X5625000Y-3625000D02*
X5375000Y-3875000D01*
X5500000Y-3875000D02*
X5625000Y-3750000D01*
X5500000Y-3625000D01*
X5375000Y-3750000D01*
X5500000Y-3875000D01*
X10375000Y-3625000D02*
X10625000Y-3875000D01*
X10625000Y-3625000D02*
X10375000Y-3875000D01*
X10500000Y-3875000D02*
X10625000Y-3750000D01*
X10500000Y-3625000D01*
X10375000Y-3750000D01*
X10500000Y-3875000D01*
X14875000Y-575000D02*
X15125000Y-825000D01*
X15125000Y-575000D02*
X14875000Y-825000D01*
X15000000Y-825000D02*
X15125000Y-700000D01*
X15000000Y-575000D01*
X14875000Y-700000D01*
X15000000Y-825000D01*
X14875000Y-6675000D02*
X15125000Y-6925000D01*
X15125000Y-6675000D02*
X14875000Y-6925000D01*
X15000000Y-6925000D02*
X15125000Y-6800000D01*
X15000000Y-6675000D01*
X14875000Y-6800000D01*
X15000000Y-6925000D01*
D11*
X258277Y-7813984D02*
X258277Y-7613984D01*
X258277Y-7613984D02*
X305896Y-7613984D01*
X305896Y-7613984D02*
X334467Y-7623508D01*
X334467Y-7623508D02*
X353515Y-7642555D01*
X353515Y-7642555D02*
X363039Y-7661603D01*
X363039Y-7661603D02*
X372562Y-7699698D01*
X372562Y-7699698D02*
X372562Y-7728269D01*
X372562Y-7728269D02*
X363039Y-7766365D01*
X363039Y-7766365D02*
X353515Y-7785412D01*
X353515Y-7785412D02*
X334467Y-7804460D01*
X334467Y-7804460D02*
X305896Y-7813984D01*
X305896Y-7813984D02*
X258277Y-7813984D01*
X458277Y-7813984D02*
X458277Y-7680650D01*
X458277Y-7718746D02*
X467801Y-7699698D01*
X467801Y-7699698D02*
X477324Y-7690174D01*
X477324Y-7690174D02*
X496372Y-7680650D01*
X496372Y-7680650D02*
X515420Y-7680650D01*
X582086Y-7813984D02*
X582086Y-7680650D01*
X582086Y-7613984D02*
X572563Y-7623508D01*
X572563Y-7623508D02*
X582086Y-7633031D01*
X582086Y-7633031D02*
X591610Y-7623508D01*
X591610Y-7623508D02*
X582086Y-7613984D01*
X582086Y-7613984D02*
X582086Y-7633031D01*
X705896Y-7813984D02*
X686848Y-7804460D01*
X686848Y-7804460D02*
X677324Y-7785412D01*
X677324Y-7785412D02*
X677324Y-7613984D01*
X810658Y-7813984D02*
X791610Y-7804460D01*
X791610Y-7804460D02*
X782086Y-7785412D01*
X782086Y-7785412D02*
X782086Y-7613984D01*
X1039229Y-7813984D02*
X1039229Y-7613984D01*
X1039229Y-7613984D02*
X1105896Y-7756841D01*
X1105896Y-7756841D02*
X1172563Y-7613984D01*
X1172563Y-7613984D02*
X1172563Y-7813984D01*
X1353515Y-7813984D02*
X1353515Y-7709222D01*
X1353515Y-7709222D02*
X1343991Y-7690174D01*
X1343991Y-7690174D02*
X1324944Y-7680650D01*
X1324944Y-7680650D02*
X1286848Y-7680650D01*
X1286848Y-7680650D02*
X1267801Y-7690174D01*
X1353515Y-7804460D02*
X1334467Y-7813984D01*
X1334467Y-7813984D02*
X1286848Y-7813984D01*
X1286848Y-7813984D02*
X1267801Y-7804460D01*
X1267801Y-7804460D02*
X1258277Y-7785412D01*
X1258277Y-7785412D02*
X1258277Y-7766365D01*
X1258277Y-7766365D02*
X1267801Y-7747317D01*
X1267801Y-7747317D02*
X1286848Y-7737793D01*
X1286848Y-7737793D02*
X1334467Y-7737793D01*
X1334467Y-7737793D02*
X1353515Y-7728269D01*
X1448753Y-7680650D02*
X1448753Y-7880650D01*
X1448753Y-7690174D02*
X1467801Y-7680650D01*
X1467801Y-7680650D02*
X1505896Y-7680650D01*
X1505896Y-7680650D02*
X1524943Y-7690174D01*
X1524943Y-7690174D02*
X1534467Y-7699698D01*
X1534467Y-7699698D02*
X1543991Y-7718746D01*
X1543991Y-7718746D02*
X1543991Y-7775888D01*
X1543991Y-7775888D02*
X1534467Y-7794936D01*
X1534467Y-7794936D02*
X1524943Y-7804460D01*
X1524943Y-7804460D02*
X1505896Y-7813984D01*
X1505896Y-7813984D02*
X1467801Y-7813984D01*
X1467801Y-7813984D02*
X1448753Y-7804460D01*
X1629705Y-7794936D02*
X1639229Y-7804460D01*
X1639229Y-7804460D02*
X1629705Y-7813984D01*
X1629705Y-7813984D02*
X1620182Y-7804460D01*
X1620182Y-7804460D02*
X1629705Y-7794936D01*
X1629705Y-7794936D02*
X1629705Y-7813984D01*
X1629705Y-7690174D02*
X1639229Y-7699698D01*
X1639229Y-7699698D02*
X1629705Y-7709222D01*
X1629705Y-7709222D02*
X1620182Y-7699698D01*
X1620182Y-7699698D02*
X1629705Y-7690174D01*
X1629705Y-7690174D02*
X1629705Y-7709222D01*
D12*
X-22500Y-8132500D02*
X-2500Y-8152500D01*
X-2500Y-8132500D02*
X-22500Y-8152500D01*
D11*
X296372Y-8033984D02*
X315420Y-8033984D01*
X315420Y-8033984D02*
X334467Y-8043508D01*
X334467Y-8043508D02*
X343991Y-8053031D01*
X343991Y-8053031D02*
X353515Y-8072079D01*
X353515Y-8072079D02*
X363039Y-8110174D01*
X363039Y-8110174D02*
X363039Y-8157793D01*
X363039Y-8157793D02*
X353515Y-8195888D01*
X353515Y-8195888D02*
X343991Y-8214936D01*
X343991Y-8214936D02*
X334467Y-8224460D01*
X334467Y-8224460D02*
X315420Y-8233984D01*
X315420Y-8233984D02*
X296372Y-8233984D01*
X296372Y-8233984D02*
X277324Y-8224460D01*
X277324Y-8224460D02*
X267801Y-8214936D01*
X267801Y-8214936D02*
X258277Y-8195888D01*
X258277Y-8195888D02*
X248753Y-8157793D01*
X248753Y-8157793D02*
X248753Y-8110174D01*
X248753Y-8110174D02*
X258277Y-8072079D01*
X258277Y-8072079D02*
X267801Y-8053031D01*
X267801Y-8053031D02*
X277324Y-8043508D01*
X277324Y-8043508D02*
X296372Y-8033984D01*
X448753Y-8214936D02*
X458277Y-8224460D01*
X458277Y-8224460D02*
X448753Y-8233984D01*
X448753Y-8233984D02*
X439229Y-8224460D01*
X439229Y-8224460D02*
X448753Y-8214936D01*
X448753Y-8214936D02*
X448753Y-8233984D01*
X534467Y-8053031D02*
X543991Y-8043508D01*
X543991Y-8043508D02*
X563039Y-8033984D01*
X563039Y-8033984D02*
X610658Y-8033984D01*
X610658Y-8033984D02*
X629705Y-8043508D01*
X629705Y-8043508D02*
X639229Y-8053031D01*
X639229Y-8053031D02*
X648753Y-8072079D01*
X648753Y-8072079D02*
X648753Y-8091127D01*
X648753Y-8091127D02*
X639229Y-8119698D01*
X639229Y-8119698D02*
X524944Y-8233984D01*
X524944Y-8233984D02*
X648753Y-8233984D01*
X772562Y-8033984D02*
X791610Y-8033984D01*
X791610Y-8033984D02*
X810658Y-8043508D01*
X810658Y-8043508D02*
X820182Y-8053031D01*
X820182Y-8053031D02*
X829705Y-8072079D01*
X829705Y-8072079D02*
X839229Y-8110174D01*
X839229Y-8110174D02*
X839229Y-8157793D01*
X839229Y-8157793D02*
X829705Y-8195888D01*
X829705Y-8195888D02*
X820182Y-8214936D01*
X820182Y-8214936D02*
X810658Y-8224460D01*
X810658Y-8224460D02*
X791610Y-8233984D01*
X791610Y-8233984D02*
X772562Y-8233984D01*
X772562Y-8233984D02*
X753515Y-8224460D01*
X753515Y-8224460D02*
X743991Y-8214936D01*
X743991Y-8214936D02*
X734467Y-8195888D01*
X734467Y-8195888D02*
X724943Y-8157793D01*
X724943Y-8157793D02*
X724943Y-8110174D01*
X724943Y-8110174D02*
X734467Y-8072079D01*
X734467Y-8072079D02*
X743991Y-8053031D01*
X743991Y-8053031D02*
X753515Y-8043508D01*
X753515Y-8043508D02*
X772562Y-8033984D01*
X963039Y-8033984D02*
X982086Y-8033984D01*
X982086Y-8033984D02*
X1001134Y-8043508D01*
X1001134Y-8043508D02*
X1010658Y-8053031D01*
X1010658Y-8053031D02*
X1020182Y-8072079D01*
X1020182Y-8072079D02*
X1029705Y-8110174D01*
X1029705Y-8110174D02*
X1029705Y-8157793D01*
X1029705Y-8157793D02*
X1020182Y-8195888D01*
X1020182Y-8195888D02*
X1010658Y-8214936D01*
X1010658Y-8214936D02*
X1001134Y-8224460D01*
X1001134Y-8224460D02*
X982086Y-8233984D01*
X982086Y-8233984D02*
X963039Y-8233984D01*
X963039Y-8233984D02*
X943991Y-8224460D01*
X943991Y-8224460D02*
X934467Y-8214936D01*
X934467Y-8214936D02*
X924943Y-8195888D01*
X924943Y-8195888D02*
X915420Y-8157793D01*
X915420Y-8157793D02*
X915420Y-8110174D01*
X915420Y-8110174D02*
X924943Y-8072079D01*
X924943Y-8072079D02*
X934467Y-8053031D01*
X934467Y-8053031D02*
X943991Y-8043508D01*
X943991Y-8043508D02*
X963039Y-8033984D01*
X1115420Y-8233984D02*
X1115420Y-8100650D01*
X1115420Y-8119698D02*
X1124944Y-8110174D01*
X1124944Y-8110174D02*
X1143991Y-8100650D01*
X1143991Y-8100650D02*
X1172563Y-8100650D01*
X1172563Y-8100650D02*
X1191610Y-8110174D01*
X1191610Y-8110174D02*
X1201134Y-8129222D01*
X1201134Y-8129222D02*
X1201134Y-8233984D01*
X1201134Y-8129222D02*
X1210658Y-8110174D01*
X1210658Y-8110174D02*
X1229705Y-8100650D01*
X1229705Y-8100650D02*
X1258277Y-8100650D01*
X1258277Y-8100650D02*
X1277325Y-8110174D01*
X1277325Y-8110174D02*
X1286848Y-8129222D01*
X1286848Y-8129222D02*
X1286848Y-8233984D01*
X1382086Y-8233984D02*
X1382086Y-8100650D01*
X1382086Y-8119698D02*
X1391610Y-8110174D01*
X1391610Y-8110174D02*
X1410658Y-8100650D01*
X1410658Y-8100650D02*
X1439229Y-8100650D01*
X1439229Y-8100650D02*
X1458277Y-8110174D01*
X1458277Y-8110174D02*
X1467801Y-8129222D01*
X1467801Y-8129222D02*
X1467801Y-8233984D01*
X1467801Y-8129222D02*
X1477324Y-8110174D01*
X1477324Y-8110174D02*
X1496372Y-8100650D01*
X1496372Y-8100650D02*
X1524943Y-8100650D01*
X1524943Y-8100650D02*
X1543991Y-8110174D01*
X1543991Y-8110174D02*
X1553515Y-8129222D01*
X1553515Y-8129222D02*
X1553515Y-8233984D01*
X1943991Y-8024460D02*
X1772563Y-8281603D01*
X2201134Y-8033984D02*
X2220182Y-8033984D01*
X2220182Y-8033984D02*
X2239229Y-8043508D01*
X2239229Y-8043508D02*
X2248753Y-8053031D01*
X2248753Y-8053031D02*
X2258277Y-8072079D01*
X2258277Y-8072079D02*
X2267801Y-8110174D01*
X2267801Y-8110174D02*
X2267801Y-8157793D01*
X2267801Y-8157793D02*
X2258277Y-8195888D01*
X2258277Y-8195888D02*
X2248753Y-8214936D01*
X2248753Y-8214936D02*
X2239229Y-8224460D01*
X2239229Y-8224460D02*
X2220182Y-8233984D01*
X2220182Y-8233984D02*
X2201134Y-8233984D01*
X2201134Y-8233984D02*
X2182087Y-8224460D01*
X2182087Y-8224460D02*
X2172563Y-8214936D01*
X2172563Y-8214936D02*
X2163039Y-8195888D01*
X2163039Y-8195888D02*
X2153515Y-8157793D01*
X2153515Y-8157793D02*
X2153515Y-8110174D01*
X2153515Y-8110174D02*
X2163039Y-8072079D01*
X2163039Y-8072079D02*
X2172563Y-8053031D01*
X2172563Y-8053031D02*
X2182087Y-8043508D01*
X2182087Y-8043508D02*
X2201134Y-8033984D01*
X2353515Y-8214936D02*
X2363039Y-8224460D01*
X2363039Y-8224460D02*
X2353515Y-8233984D01*
X2353515Y-8233984D02*
X2343991Y-8224460D01*
X2343991Y-8224460D02*
X2353515Y-8214936D01*
X2353515Y-8214936D02*
X2353515Y-8233984D01*
X2486848Y-8033984D02*
X2505896Y-8033984D01*
X2505896Y-8033984D02*
X2524944Y-8043508D01*
X2524944Y-8043508D02*
X2534468Y-8053031D01*
X2534468Y-8053031D02*
X2543991Y-8072079D01*
X2543991Y-8072079D02*
X2553515Y-8110174D01*
X2553515Y-8110174D02*
X2553515Y-8157793D01*
X2553515Y-8157793D02*
X2543991Y-8195888D01*
X2543991Y-8195888D02*
X2534468Y-8214936D01*
X2534468Y-8214936D02*
X2524944Y-8224460D01*
X2524944Y-8224460D02*
X2505896Y-8233984D01*
X2505896Y-8233984D02*
X2486848Y-8233984D01*
X2486848Y-8233984D02*
X2467801Y-8224460D01*
X2467801Y-8224460D02*
X2458277Y-8214936D01*
X2458277Y-8214936D02*
X2448753Y-8195888D01*
X2448753Y-8195888D02*
X2439229Y-8157793D01*
X2439229Y-8157793D02*
X2439229Y-8110174D01*
X2439229Y-8110174D02*
X2448753Y-8072079D01*
X2448753Y-8072079D02*
X2458277Y-8053031D01*
X2458277Y-8053031D02*
X2467801Y-8043508D01*
X2467801Y-8043508D02*
X2486848Y-8033984D01*
X2677325Y-8033984D02*
X2696372Y-8033984D01*
X2696372Y-8033984D02*
X2715420Y-8043508D01*
X2715420Y-8043508D02*
X2724944Y-8053031D01*
X2724944Y-8053031D02*
X2734468Y-8072079D01*
X2734468Y-8072079D02*
X2743991Y-8110174D01*
X2743991Y-8110174D02*
X2743991Y-8157793D01*
X2743991Y-8157793D02*
X2734468Y-8195888D01*
X2734468Y-8195888D02*
X2724944Y-8214936D01*
X2724944Y-8214936D02*
X2715420Y-8224460D01*
X2715420Y-8224460D02*
X2696372Y-8233984D01*
X2696372Y-8233984D02*
X2677325Y-8233984D01*
X2677325Y-8233984D02*
X2658277Y-8224460D01*
X2658277Y-8224460D02*
X2648753Y-8214936D01*
X2648753Y-8214936D02*
X2639229Y-8195888D01*
X2639229Y-8195888D02*
X2629706Y-8157793D01*
X2629706Y-8157793D02*
X2629706Y-8110174D01*
X2629706Y-8110174D02*
X2639229Y-8072079D01*
X2639229Y-8072079D02*
X2648753Y-8053031D01*
X2648753Y-8053031D02*
X2658277Y-8043508D01*
X2658277Y-8043508D02*
X2677325Y-8033984D01*
X2810658Y-8033984D02*
X2943991Y-8033984D01*
X2943991Y-8033984D02*
X2858277Y-8233984D01*
X3029706Y-8233984D02*
X3067801Y-8233984D01*
X3067801Y-8233984D02*
X3086848Y-8224460D01*
X3086848Y-8224460D02*
X3096372Y-8214936D01*
X3096372Y-8214936D02*
X3115420Y-8186365D01*
X3115420Y-8186365D02*
X3124944Y-8148269D01*
X3124944Y-8148269D02*
X3124944Y-8072079D01*
X3124944Y-8072079D02*
X3115420Y-8053031D01*
X3115420Y-8053031D02*
X3105896Y-8043508D01*
X3105896Y-8043508D02*
X3086848Y-8033984D01*
X3086848Y-8033984D02*
X3048753Y-8033984D01*
X3048753Y-8033984D02*
X3029706Y-8043508D01*
X3029706Y-8043508D02*
X3020182Y-8053031D01*
X3020182Y-8053031D02*
X3010658Y-8072079D01*
X3010658Y-8072079D02*
X3010658Y-8119698D01*
X3010658Y-8119698D02*
X3020182Y-8138746D01*
X3020182Y-8138746D02*
X3029706Y-8148269D01*
X3029706Y-8148269D02*
X3048753Y-8157793D01*
X3048753Y-8157793D02*
X3086848Y-8157793D01*
X3086848Y-8157793D02*
X3105896Y-8148269D01*
X3105896Y-8148269D02*
X3115420Y-8138746D01*
X3115420Y-8138746D02*
X3124944Y-8119698D01*
X3201134Y-8033984D02*
X3201134Y-8072079D01*
X3277325Y-8033984D02*
X3277325Y-8072079D01*
X3572563Y-8310174D02*
X3563039Y-8300650D01*
X3563039Y-8300650D02*
X3543991Y-8272079D01*
X3543991Y-8272079D02*
X3534468Y-8253031D01*
X3534468Y-8253031D02*
X3524944Y-8224460D01*
X3524944Y-8224460D02*
X3515420Y-8176841D01*
X3515420Y-8176841D02*
X3515420Y-8138746D01*
X3515420Y-8138746D02*
X3524944Y-8091127D01*
X3524944Y-8091127D02*
X3534468Y-8062555D01*
X3534468Y-8062555D02*
X3543991Y-8043508D01*
X3543991Y-8043508D02*
X3563039Y-8014936D01*
X3563039Y-8014936D02*
X3572563Y-8005412D01*
X3639229Y-8053031D02*
X3648753Y-8043508D01*
X3648753Y-8043508D02*
X3667801Y-8033984D01*
X3667801Y-8033984D02*
X3715420Y-8033984D01*
X3715420Y-8033984D02*
X3734468Y-8043508D01*
X3734468Y-8043508D02*
X3743991Y-8053031D01*
X3743991Y-8053031D02*
X3753515Y-8072079D01*
X3753515Y-8072079D02*
X3753515Y-8091127D01*
X3753515Y-8091127D02*
X3743991Y-8119698D01*
X3743991Y-8119698D02*
X3629706Y-8233984D01*
X3629706Y-8233984D02*
X3753515Y-8233984D01*
X3924944Y-8100650D02*
X3924944Y-8233984D01*
X3877325Y-8024460D02*
X3829706Y-8167317D01*
X3829706Y-8167317D02*
X3953515Y-8167317D01*
X4134468Y-8233984D02*
X4020182Y-8233984D01*
X4077325Y-8233984D02*
X4077325Y-8033984D01*
X4077325Y-8033984D02*
X4058277Y-8062555D01*
X4058277Y-8062555D02*
X4039229Y-8081603D01*
X4039229Y-8081603D02*
X4020182Y-8091127D01*
X4372563Y-8233984D02*
X4372563Y-8033984D01*
X4458277Y-8233984D02*
X4458277Y-8129222D01*
X4458277Y-8129222D02*
X4448753Y-8110174D01*
X4448753Y-8110174D02*
X4429706Y-8100650D01*
X4429706Y-8100650D02*
X4401134Y-8100650D01*
X4401134Y-8100650D02*
X4382087Y-8110174D01*
X4382087Y-8110174D02*
X4372563Y-8119698D01*
X4582087Y-8233984D02*
X4563039Y-8224460D01*
X4563039Y-8224460D02*
X4553515Y-8214936D01*
X4553515Y-8214936D02*
X4543992Y-8195888D01*
X4543992Y-8195888D02*
X4543992Y-8138746D01*
X4543992Y-8138746D02*
X4553515Y-8119698D01*
X4553515Y-8119698D02*
X4563039Y-8110174D01*
X4563039Y-8110174D02*
X4582087Y-8100650D01*
X4582087Y-8100650D02*
X4610658Y-8100650D01*
X4610658Y-8100650D02*
X4629706Y-8110174D01*
X4629706Y-8110174D02*
X4639230Y-8119698D01*
X4639230Y-8119698D02*
X4648753Y-8138746D01*
X4648753Y-8138746D02*
X4648753Y-8195888D01*
X4648753Y-8195888D02*
X4639230Y-8214936D01*
X4639230Y-8214936D02*
X4629706Y-8224460D01*
X4629706Y-8224460D02*
X4610658Y-8233984D01*
X4610658Y-8233984D02*
X4582087Y-8233984D01*
X4763039Y-8233984D02*
X4743992Y-8224460D01*
X4743992Y-8224460D02*
X4734468Y-8205412D01*
X4734468Y-8205412D02*
X4734468Y-8033984D01*
X4915420Y-8224460D02*
X4896373Y-8233984D01*
X4896373Y-8233984D02*
X4858277Y-8233984D01*
X4858277Y-8233984D02*
X4839230Y-8224460D01*
X4839230Y-8224460D02*
X4829706Y-8205412D01*
X4829706Y-8205412D02*
X4829706Y-8129222D01*
X4829706Y-8129222D02*
X4839230Y-8110174D01*
X4839230Y-8110174D02*
X4858277Y-8100650D01*
X4858277Y-8100650D02*
X4896373Y-8100650D01*
X4896373Y-8100650D02*
X4915420Y-8110174D01*
X4915420Y-8110174D02*
X4924944Y-8129222D01*
X4924944Y-8129222D02*
X4924944Y-8148269D01*
X4924944Y-8148269D02*
X4829706Y-8167317D01*
X5001134Y-8224460D02*
X5020182Y-8233984D01*
X5020182Y-8233984D02*
X5058277Y-8233984D01*
X5058277Y-8233984D02*
X5077325Y-8224460D01*
X5077325Y-8224460D02*
X5086849Y-8205412D01*
X5086849Y-8205412D02*
X5086849Y-8195888D01*
X5086849Y-8195888D02*
X5077325Y-8176841D01*
X5077325Y-8176841D02*
X5058277Y-8167317D01*
X5058277Y-8167317D02*
X5029706Y-8167317D01*
X5029706Y-8167317D02*
X5010658Y-8157793D01*
X5010658Y-8157793D02*
X5001134Y-8138746D01*
X5001134Y-8138746D02*
X5001134Y-8129222D01*
X5001134Y-8129222D02*
X5010658Y-8110174D01*
X5010658Y-8110174D02*
X5029706Y-8100650D01*
X5029706Y-8100650D02*
X5058277Y-8100650D01*
X5058277Y-8100650D02*
X5077325Y-8110174D01*
X5153515Y-8310174D02*
X5163039Y-8300650D01*
X5163039Y-8300650D02*
X5182087Y-8272079D01*
X5182087Y-8272079D02*
X5191611Y-8253031D01*
X5191611Y-8253031D02*
X5201134Y-8224460D01*
X5201134Y-8224460D02*
X5210658Y-8176841D01*
X5210658Y-8176841D02*
X5210658Y-8138746D01*
X5210658Y-8138746D02*
X5201134Y-8091127D01*
X5201134Y-8091127D02*
X5191611Y-8062555D01*
X5191611Y-8062555D02*
X5182087Y-8043508D01*
X5182087Y-8043508D02*
X5163039Y-8014936D01*
X5163039Y-8014936D02*
X5153515Y-8005412D01*
D12*
X-2500Y-8406500D02*
G75*
G02*
X-27500Y-8406500I-12500J0D01*
G01*
X-27500Y-8406500D02*
G75*
G02*
X-2500Y-8406500I12500J0D01*
G01*
D11*
X296372Y-8297984D02*
X315420Y-8297984D01*
X315420Y-8297984D02*
X334467Y-8307508D01*
X334467Y-8307508D02*
X343991Y-8317031D01*
X343991Y-8317031D02*
X353515Y-8336079D01*
X353515Y-8336079D02*
X363039Y-8374174D01*
X363039Y-8374174D02*
X363039Y-8421793D01*
X363039Y-8421793D02*
X353515Y-8459889D01*
X353515Y-8459889D02*
X343991Y-8478936D01*
X343991Y-8478936D02*
X334467Y-8488460D01*
X334467Y-8488460D02*
X315420Y-8497984D01*
X315420Y-8497984D02*
X296372Y-8497984D01*
X296372Y-8497984D02*
X277324Y-8488460D01*
X277324Y-8488460D02*
X267801Y-8478936D01*
X267801Y-8478936D02*
X258277Y-8459889D01*
X258277Y-8459889D02*
X248753Y-8421793D01*
X248753Y-8421793D02*
X248753Y-8374174D01*
X248753Y-8374174D02*
X258277Y-8336079D01*
X258277Y-8336079D02*
X267801Y-8317031D01*
X267801Y-8317031D02*
X277324Y-8307508D01*
X277324Y-8307508D02*
X296372Y-8297984D01*
X448753Y-8478936D02*
X458277Y-8488460D01*
X458277Y-8488460D02*
X448753Y-8497984D01*
X448753Y-8497984D02*
X439229Y-8488460D01*
X439229Y-8488460D02*
X448753Y-8478936D01*
X448753Y-8478936D02*
X448753Y-8497984D01*
X534467Y-8317031D02*
X543991Y-8307508D01*
X543991Y-8307508D02*
X563039Y-8297984D01*
X563039Y-8297984D02*
X610658Y-8297984D01*
X610658Y-8297984D02*
X629705Y-8307508D01*
X629705Y-8307508D02*
X639229Y-8317031D01*
X639229Y-8317031D02*
X648753Y-8336079D01*
X648753Y-8336079D02*
X648753Y-8355127D01*
X648753Y-8355127D02*
X639229Y-8383698D01*
X639229Y-8383698D02*
X524944Y-8497984D01*
X524944Y-8497984D02*
X648753Y-8497984D01*
X829705Y-8297984D02*
X734467Y-8297984D01*
X734467Y-8297984D02*
X724943Y-8393222D01*
X724943Y-8393222D02*
X734467Y-8383698D01*
X734467Y-8383698D02*
X753515Y-8374174D01*
X753515Y-8374174D02*
X801134Y-8374174D01*
X801134Y-8374174D02*
X820182Y-8383698D01*
X820182Y-8383698D02*
X829705Y-8393222D01*
X829705Y-8393222D02*
X839229Y-8412270D01*
X839229Y-8412270D02*
X839229Y-8459889D01*
X839229Y-8459889D02*
X829705Y-8478936D01*
X829705Y-8478936D02*
X820182Y-8488460D01*
X820182Y-8488460D02*
X801134Y-8497984D01*
X801134Y-8497984D02*
X753515Y-8497984D01*
X753515Y-8497984D02*
X734467Y-8488460D01*
X734467Y-8488460D02*
X724943Y-8478936D01*
X963039Y-8297984D02*
X982086Y-8297984D01*
X982086Y-8297984D02*
X1001134Y-8307508D01*
X1001134Y-8307508D02*
X1010658Y-8317031D01*
X1010658Y-8317031D02*
X1020182Y-8336079D01*
X1020182Y-8336079D02*
X1029705Y-8374174D01*
X1029705Y-8374174D02*
X1029705Y-8421793D01*
X1029705Y-8421793D02*
X1020182Y-8459889D01*
X1020182Y-8459889D02*
X1010658Y-8478936D01*
X1010658Y-8478936D02*
X1001134Y-8488460D01*
X1001134Y-8488460D02*
X982086Y-8497984D01*
X982086Y-8497984D02*
X963039Y-8497984D01*
X963039Y-8497984D02*
X943991Y-8488460D01*
X943991Y-8488460D02*
X934467Y-8478936D01*
X934467Y-8478936D02*
X924943Y-8459889D01*
X924943Y-8459889D02*
X915420Y-8421793D01*
X915420Y-8421793D02*
X915420Y-8374174D01*
X915420Y-8374174D02*
X924943Y-8336079D01*
X924943Y-8336079D02*
X934467Y-8317031D01*
X934467Y-8317031D02*
X943991Y-8307508D01*
X943991Y-8307508D02*
X963039Y-8297984D01*
X1115420Y-8497984D02*
X1115420Y-8364650D01*
X1115420Y-8383698D02*
X1124944Y-8374174D01*
X1124944Y-8374174D02*
X1143991Y-8364650D01*
X1143991Y-8364650D02*
X1172563Y-8364650D01*
X1172563Y-8364650D02*
X1191610Y-8374174D01*
X1191610Y-8374174D02*
X1201134Y-8393222D01*
X1201134Y-8393222D02*
X1201134Y-8497984D01*
X1201134Y-8393222D02*
X1210658Y-8374174D01*
X1210658Y-8374174D02*
X1229705Y-8364650D01*
X1229705Y-8364650D02*
X1258277Y-8364650D01*
X1258277Y-8364650D02*
X1277325Y-8374174D01*
X1277325Y-8374174D02*
X1286848Y-8393222D01*
X1286848Y-8393222D02*
X1286848Y-8497984D01*
X1382086Y-8497984D02*
X1382086Y-8364650D01*
X1382086Y-8383698D02*
X1391610Y-8374174D01*
X1391610Y-8374174D02*
X1410658Y-8364650D01*
X1410658Y-8364650D02*
X1439229Y-8364650D01*
X1439229Y-8364650D02*
X1458277Y-8374174D01*
X1458277Y-8374174D02*
X1467801Y-8393222D01*
X1467801Y-8393222D02*
X1467801Y-8497984D01*
X1467801Y-8393222D02*
X1477324Y-8374174D01*
X1477324Y-8374174D02*
X1496372Y-8364650D01*
X1496372Y-8364650D02*
X1524943Y-8364650D01*
X1524943Y-8364650D02*
X1543991Y-8374174D01*
X1543991Y-8374174D02*
X1553515Y-8393222D01*
X1553515Y-8393222D02*
X1553515Y-8497984D01*
X1943991Y-8288460D02*
X1772563Y-8545603D01*
X2201134Y-8297984D02*
X2220182Y-8297984D01*
X2220182Y-8297984D02*
X2239229Y-8307508D01*
X2239229Y-8307508D02*
X2248753Y-8317031D01*
X2248753Y-8317031D02*
X2258277Y-8336079D01*
X2258277Y-8336079D02*
X2267801Y-8374174D01*
X2267801Y-8374174D02*
X2267801Y-8421793D01*
X2267801Y-8421793D02*
X2258277Y-8459889D01*
X2258277Y-8459889D02*
X2248753Y-8478936D01*
X2248753Y-8478936D02*
X2239229Y-8488460D01*
X2239229Y-8488460D02*
X2220182Y-8497984D01*
X2220182Y-8497984D02*
X2201134Y-8497984D01*
X2201134Y-8497984D02*
X2182087Y-8488460D01*
X2182087Y-8488460D02*
X2172563Y-8478936D01*
X2172563Y-8478936D02*
X2163039Y-8459889D01*
X2163039Y-8459889D02*
X2153515Y-8421793D01*
X2153515Y-8421793D02*
X2153515Y-8374174D01*
X2153515Y-8374174D02*
X2163039Y-8336079D01*
X2163039Y-8336079D02*
X2172563Y-8317031D01*
X2172563Y-8317031D02*
X2182087Y-8307508D01*
X2182087Y-8307508D02*
X2201134Y-8297984D01*
X2353515Y-8478936D02*
X2363039Y-8488460D01*
X2363039Y-8488460D02*
X2353515Y-8497984D01*
X2353515Y-8497984D02*
X2343991Y-8488460D01*
X2343991Y-8488460D02*
X2353515Y-8478936D01*
X2353515Y-8478936D02*
X2353515Y-8497984D01*
X2486848Y-8297984D02*
X2505896Y-8297984D01*
X2505896Y-8297984D02*
X2524944Y-8307508D01*
X2524944Y-8307508D02*
X2534468Y-8317031D01*
X2534468Y-8317031D02*
X2543991Y-8336079D01*
X2543991Y-8336079D02*
X2553515Y-8374174D01*
X2553515Y-8374174D02*
X2553515Y-8421793D01*
X2553515Y-8421793D02*
X2543991Y-8459889D01*
X2543991Y-8459889D02*
X2534468Y-8478936D01*
X2534468Y-8478936D02*
X2524944Y-8488460D01*
X2524944Y-8488460D02*
X2505896Y-8497984D01*
X2505896Y-8497984D02*
X2486848Y-8497984D01*
X2486848Y-8497984D02*
X2467801Y-8488460D01*
X2467801Y-8488460D02*
X2458277Y-8478936D01*
X2458277Y-8478936D02*
X2448753Y-8459889D01*
X2448753Y-8459889D02*
X2439229Y-8421793D01*
X2439229Y-8421793D02*
X2439229Y-8374174D01*
X2439229Y-8374174D02*
X2448753Y-8336079D01*
X2448753Y-8336079D02*
X2458277Y-8317031D01*
X2458277Y-8317031D02*
X2467801Y-8307508D01*
X2467801Y-8307508D02*
X2486848Y-8297984D01*
X2677325Y-8297984D02*
X2696372Y-8297984D01*
X2696372Y-8297984D02*
X2715420Y-8307508D01*
X2715420Y-8307508D02*
X2724944Y-8317031D01*
X2724944Y-8317031D02*
X2734468Y-8336079D01*
X2734468Y-8336079D02*
X2743991Y-8374174D01*
X2743991Y-8374174D02*
X2743991Y-8421793D01*
X2743991Y-8421793D02*
X2734468Y-8459889D01*
X2734468Y-8459889D02*
X2724944Y-8478936D01*
X2724944Y-8478936D02*
X2715420Y-8488460D01*
X2715420Y-8488460D02*
X2696372Y-8497984D01*
X2696372Y-8497984D02*
X2677325Y-8497984D01*
X2677325Y-8497984D02*
X2658277Y-8488460D01*
X2658277Y-8488460D02*
X2648753Y-8478936D01*
X2648753Y-8478936D02*
X2639229Y-8459889D01*
X2639229Y-8459889D02*
X2629706Y-8421793D01*
X2629706Y-8421793D02*
X2629706Y-8374174D01*
X2629706Y-8374174D02*
X2639229Y-8336079D01*
X2639229Y-8336079D02*
X2648753Y-8317031D01*
X2648753Y-8317031D02*
X2658277Y-8307508D01*
X2658277Y-8307508D02*
X2677325Y-8297984D01*
X2839229Y-8497984D02*
X2877325Y-8497984D01*
X2877325Y-8497984D02*
X2896372Y-8488460D01*
X2896372Y-8488460D02*
X2905896Y-8478936D01*
X2905896Y-8478936D02*
X2924944Y-8450365D01*
X2924944Y-8450365D02*
X2934467Y-8412270D01*
X2934467Y-8412270D02*
X2934467Y-8336079D01*
X2934467Y-8336079D02*
X2924944Y-8317031D01*
X2924944Y-8317031D02*
X2915420Y-8307508D01*
X2915420Y-8307508D02*
X2896372Y-8297984D01*
X2896372Y-8297984D02*
X2858277Y-8297984D01*
X2858277Y-8297984D02*
X2839229Y-8307508D01*
X2839229Y-8307508D02*
X2829706Y-8317031D01*
X2829706Y-8317031D02*
X2820182Y-8336079D01*
X2820182Y-8336079D02*
X2820182Y-8383698D01*
X2820182Y-8383698D02*
X2829706Y-8402746D01*
X2829706Y-8402746D02*
X2839229Y-8412270D01*
X2839229Y-8412270D02*
X2858277Y-8421793D01*
X2858277Y-8421793D02*
X2896372Y-8421793D01*
X2896372Y-8421793D02*
X2915420Y-8412270D01*
X2915420Y-8412270D02*
X2924944Y-8402746D01*
X2924944Y-8402746D02*
X2934467Y-8383698D01*
X3048753Y-8383698D02*
X3029706Y-8374174D01*
X3029706Y-8374174D02*
X3020182Y-8364650D01*
X3020182Y-8364650D02*
X3010658Y-8345603D01*
X3010658Y-8345603D02*
X3010658Y-8336079D01*
X3010658Y-8336079D02*
X3020182Y-8317031D01*
X3020182Y-8317031D02*
X3029706Y-8307508D01*
X3029706Y-8307508D02*
X3048753Y-8297984D01*
X3048753Y-8297984D02*
X3086848Y-8297984D01*
X3086848Y-8297984D02*
X3105896Y-8307508D01*
X3105896Y-8307508D02*
X3115420Y-8317031D01*
X3115420Y-8317031D02*
X3124944Y-8336079D01*
X3124944Y-8336079D02*
X3124944Y-8345603D01*
X3124944Y-8345603D02*
X3115420Y-8364650D01*
X3115420Y-8364650D02*
X3105896Y-8374174D01*
X3105896Y-8374174D02*
X3086848Y-8383698D01*
X3086848Y-8383698D02*
X3048753Y-8383698D01*
X3048753Y-8383698D02*
X3029706Y-8393222D01*
X3029706Y-8393222D02*
X3020182Y-8402746D01*
X3020182Y-8402746D02*
X3010658Y-8421793D01*
X3010658Y-8421793D02*
X3010658Y-8459889D01*
X3010658Y-8459889D02*
X3020182Y-8478936D01*
X3020182Y-8478936D02*
X3029706Y-8488460D01*
X3029706Y-8488460D02*
X3048753Y-8497984D01*
X3048753Y-8497984D02*
X3086848Y-8497984D01*
X3086848Y-8497984D02*
X3105896Y-8488460D01*
X3105896Y-8488460D02*
X3115420Y-8478936D01*
X3115420Y-8478936D02*
X3124944Y-8459889D01*
X3124944Y-8459889D02*
X3124944Y-8421793D01*
X3124944Y-8421793D02*
X3115420Y-8402746D01*
X3115420Y-8402746D02*
X3105896Y-8393222D01*
X3105896Y-8393222D02*
X3086848Y-8383698D01*
X3201134Y-8297984D02*
X3201134Y-8336079D01*
X3277325Y-8297984D02*
X3277325Y-8336079D01*
X3572563Y-8574174D02*
X3563039Y-8564650D01*
X3563039Y-8564650D02*
X3543991Y-8536079D01*
X3543991Y-8536079D02*
X3534468Y-8517031D01*
X3534468Y-8517031D02*
X3524944Y-8488460D01*
X3524944Y-8488460D02*
X3515420Y-8440841D01*
X3515420Y-8440841D02*
X3515420Y-8402746D01*
X3515420Y-8402746D02*
X3524944Y-8355127D01*
X3524944Y-8355127D02*
X3534468Y-8326555D01*
X3534468Y-8326555D02*
X3543991Y-8307508D01*
X3543991Y-8307508D02*
X3563039Y-8278936D01*
X3563039Y-8278936D02*
X3572563Y-8269412D01*
X3677325Y-8383698D02*
X3658277Y-8374174D01*
X3658277Y-8374174D02*
X3648753Y-8364650D01*
X3648753Y-8364650D02*
X3639229Y-8345603D01*
X3639229Y-8345603D02*
X3639229Y-8336079D01*
X3639229Y-8336079D02*
X3648753Y-8317031D01*
X3648753Y-8317031D02*
X3658277Y-8307508D01*
X3658277Y-8307508D02*
X3677325Y-8297984D01*
X3677325Y-8297984D02*
X3715420Y-8297984D01*
X3715420Y-8297984D02*
X3734468Y-8307508D01*
X3734468Y-8307508D02*
X3743991Y-8317031D01*
X3743991Y-8317031D02*
X3753515Y-8336079D01*
X3753515Y-8336079D02*
X3753515Y-8345603D01*
X3753515Y-8345603D02*
X3743991Y-8364650D01*
X3743991Y-8364650D02*
X3734468Y-8374174D01*
X3734468Y-8374174D02*
X3715420Y-8383698D01*
X3715420Y-8383698D02*
X3677325Y-8383698D01*
X3677325Y-8383698D02*
X3658277Y-8393222D01*
X3658277Y-8393222D02*
X3648753Y-8402746D01*
X3648753Y-8402746D02*
X3639229Y-8421793D01*
X3639229Y-8421793D02*
X3639229Y-8459889D01*
X3639229Y-8459889D02*
X3648753Y-8478936D01*
X3648753Y-8478936D02*
X3658277Y-8488460D01*
X3658277Y-8488460D02*
X3677325Y-8497984D01*
X3677325Y-8497984D02*
X3715420Y-8497984D01*
X3715420Y-8497984D02*
X3734468Y-8488460D01*
X3734468Y-8488460D02*
X3743991Y-8478936D01*
X3743991Y-8478936D02*
X3753515Y-8459889D01*
X3753515Y-8459889D02*
X3753515Y-8421793D01*
X3753515Y-8421793D02*
X3743991Y-8402746D01*
X3743991Y-8402746D02*
X3734468Y-8393222D01*
X3734468Y-8393222D02*
X3715420Y-8383698D01*
X3991610Y-8497984D02*
X3991610Y-8297984D01*
X4077325Y-8497984D02*
X4077325Y-8393222D01*
X4077325Y-8393222D02*
X4067801Y-8374174D01*
X4067801Y-8374174D02*
X4048753Y-8364650D01*
X4048753Y-8364650D02*
X4020182Y-8364650D01*
X4020182Y-8364650D02*
X4001134Y-8374174D01*
X4001134Y-8374174D02*
X3991610Y-8383698D01*
X4201134Y-8497984D02*
X4182087Y-8488460D01*
X4182087Y-8488460D02*
X4172563Y-8478936D01*
X4172563Y-8478936D02*
X4163039Y-8459889D01*
X4163039Y-8459889D02*
X4163039Y-8402746D01*
X4163039Y-8402746D02*
X4172563Y-8383698D01*
X4172563Y-8383698D02*
X4182087Y-8374174D01*
X4182087Y-8374174D02*
X4201134Y-8364650D01*
X4201134Y-8364650D02*
X4229706Y-8364650D01*
X4229706Y-8364650D02*
X4248753Y-8374174D01*
X4248753Y-8374174D02*
X4258277Y-8383698D01*
X4258277Y-8383698D02*
X4267801Y-8402746D01*
X4267801Y-8402746D02*
X4267801Y-8459889D01*
X4267801Y-8459889D02*
X4258277Y-8478936D01*
X4258277Y-8478936D02*
X4248753Y-8488460D01*
X4248753Y-8488460D02*
X4229706Y-8497984D01*
X4229706Y-8497984D02*
X4201134Y-8497984D01*
X4382087Y-8497984D02*
X4363039Y-8488460D01*
X4363039Y-8488460D02*
X4353515Y-8469412D01*
X4353515Y-8469412D02*
X4353515Y-8297984D01*
X4534468Y-8488460D02*
X4515420Y-8497984D01*
X4515420Y-8497984D02*
X4477325Y-8497984D01*
X4477325Y-8497984D02*
X4458277Y-8488460D01*
X4458277Y-8488460D02*
X4448753Y-8469412D01*
X4448753Y-8469412D02*
X4448753Y-8393222D01*
X4448753Y-8393222D02*
X4458277Y-8374174D01*
X4458277Y-8374174D02*
X4477325Y-8364650D01*
X4477325Y-8364650D02*
X4515420Y-8364650D01*
X4515420Y-8364650D02*
X4534468Y-8374174D01*
X4534468Y-8374174D02*
X4543992Y-8393222D01*
X4543992Y-8393222D02*
X4543992Y-8412270D01*
X4543992Y-8412270D02*
X4448753Y-8431317D01*
X4620182Y-8488460D02*
X4639230Y-8497984D01*
X4639230Y-8497984D02*
X4677325Y-8497984D01*
X4677325Y-8497984D02*
X4696373Y-8488460D01*
X4696373Y-8488460D02*
X4705896Y-8469412D01*
X4705896Y-8469412D02*
X4705896Y-8459889D01*
X4705896Y-8459889D02*
X4696373Y-8440841D01*
X4696373Y-8440841D02*
X4677325Y-8431317D01*
X4677325Y-8431317D02*
X4648753Y-8431317D01*
X4648753Y-8431317D02*
X4629706Y-8421793D01*
X4629706Y-8421793D02*
X4620182Y-8402746D01*
X4620182Y-8402746D02*
X4620182Y-8393222D01*
X4620182Y-8393222D02*
X4629706Y-8374174D01*
X4629706Y-8374174D02*
X4648753Y-8364650D01*
X4648753Y-8364650D02*
X4677325Y-8364650D01*
X4677325Y-8364650D02*
X4696373Y-8374174D01*
X4772563Y-8574174D02*
X4782087Y-8564650D01*
X4782087Y-8564650D02*
X4801134Y-8536079D01*
X4801134Y-8536079D02*
X4810658Y-8517031D01*
X4810658Y-8517031D02*
X4820182Y-8488460D01*
X4820182Y-8488460D02*
X4829706Y-8440841D01*
X4829706Y-8440841D02*
X4829706Y-8402746D01*
X4829706Y-8402746D02*
X4820182Y-8355127D01*
X4820182Y-8355127D02*
X4810658Y-8326555D01*
X4810658Y-8326555D02*
X4801134Y-8307508D01*
X4801134Y-8307508D02*
X4782087Y-8278936D01*
X4782087Y-8278936D02*
X4772563Y-8269412D01*
D12*
X-20000Y-8653000D02*
X-20000Y-8688000D01*
X-37500Y-8670500D02*
X-2500Y-8670500D01*
D11*
X296372Y-8561984D02*
X315420Y-8561984D01*
X315420Y-8561984D02*
X334467Y-8571508D01*
X334467Y-8571508D02*
X343991Y-8581031D01*
X343991Y-8581031D02*
X353515Y-8600079D01*
X353515Y-8600079D02*
X363039Y-8638174D01*
X363039Y-8638174D02*
X363039Y-8685793D01*
X363039Y-8685793D02*
X353515Y-8723889D01*
X353515Y-8723889D02*
X343991Y-8742936D01*
X343991Y-8742936D02*
X334467Y-8752460D01*
X334467Y-8752460D02*
X315420Y-8761984D01*
X315420Y-8761984D02*
X296372Y-8761984D01*
X296372Y-8761984D02*
X277324Y-8752460D01*
X277324Y-8752460D02*
X267801Y-8742936D01*
X267801Y-8742936D02*
X258277Y-8723889D01*
X258277Y-8723889D02*
X248753Y-8685793D01*
X248753Y-8685793D02*
X248753Y-8638174D01*
X248753Y-8638174D02*
X258277Y-8600079D01*
X258277Y-8600079D02*
X267801Y-8581031D01*
X267801Y-8581031D02*
X277324Y-8571508D01*
X277324Y-8571508D02*
X296372Y-8561984D01*
X448753Y-8742936D02*
X458277Y-8752460D01*
X458277Y-8752460D02*
X448753Y-8761984D01*
X448753Y-8761984D02*
X439229Y-8752460D01*
X439229Y-8752460D02*
X448753Y-8742936D01*
X448753Y-8742936D02*
X448753Y-8761984D01*
X524944Y-8561984D02*
X648753Y-8561984D01*
X648753Y-8561984D02*
X582086Y-8638174D01*
X582086Y-8638174D02*
X610658Y-8638174D01*
X610658Y-8638174D02*
X629705Y-8647698D01*
X629705Y-8647698D02*
X639229Y-8657222D01*
X639229Y-8657222D02*
X648753Y-8676270D01*
X648753Y-8676270D02*
X648753Y-8723889D01*
X648753Y-8723889D02*
X639229Y-8742936D01*
X639229Y-8742936D02*
X629705Y-8752460D01*
X629705Y-8752460D02*
X610658Y-8761984D01*
X610658Y-8761984D02*
X553515Y-8761984D01*
X553515Y-8761984D02*
X534467Y-8752460D01*
X534467Y-8752460D02*
X524944Y-8742936D01*
X829705Y-8561984D02*
X734467Y-8561984D01*
X734467Y-8561984D02*
X724943Y-8657222D01*
X724943Y-8657222D02*
X734467Y-8647698D01*
X734467Y-8647698D02*
X753515Y-8638174D01*
X753515Y-8638174D02*
X801134Y-8638174D01*
X801134Y-8638174D02*
X820182Y-8647698D01*
X820182Y-8647698D02*
X829705Y-8657222D01*
X829705Y-8657222D02*
X839229Y-8676270D01*
X839229Y-8676270D02*
X839229Y-8723889D01*
X839229Y-8723889D02*
X829705Y-8742936D01*
X829705Y-8742936D02*
X820182Y-8752460D01*
X820182Y-8752460D02*
X801134Y-8761984D01*
X801134Y-8761984D02*
X753515Y-8761984D01*
X753515Y-8761984D02*
X734467Y-8752460D01*
X734467Y-8752460D02*
X724943Y-8742936D01*
X963039Y-8561984D02*
X982086Y-8561984D01*
X982086Y-8561984D02*
X1001134Y-8571508D01*
X1001134Y-8571508D02*
X1010658Y-8581031D01*
X1010658Y-8581031D02*
X1020182Y-8600079D01*
X1020182Y-8600079D02*
X1029705Y-8638174D01*
X1029705Y-8638174D02*
X1029705Y-8685793D01*
X1029705Y-8685793D02*
X1020182Y-8723889D01*
X1020182Y-8723889D02*
X1010658Y-8742936D01*
X1010658Y-8742936D02*
X1001134Y-8752460D01*
X1001134Y-8752460D02*
X982086Y-8761984D01*
X982086Y-8761984D02*
X963039Y-8761984D01*
X963039Y-8761984D02*
X943991Y-8752460D01*
X943991Y-8752460D02*
X934467Y-8742936D01*
X934467Y-8742936D02*
X924943Y-8723889D01*
X924943Y-8723889D02*
X915420Y-8685793D01*
X915420Y-8685793D02*
X915420Y-8638174D01*
X915420Y-8638174D02*
X924943Y-8600079D01*
X924943Y-8600079D02*
X934467Y-8581031D01*
X934467Y-8581031D02*
X943991Y-8571508D01*
X943991Y-8571508D02*
X963039Y-8561984D01*
X1115420Y-8761984D02*
X1115420Y-8628650D01*
X1115420Y-8647698D02*
X1124944Y-8638174D01*
X1124944Y-8638174D02*
X1143991Y-8628650D01*
X1143991Y-8628650D02*
X1172563Y-8628650D01*
X1172563Y-8628650D02*
X1191610Y-8638174D01*
X1191610Y-8638174D02*
X1201134Y-8657222D01*
X1201134Y-8657222D02*
X1201134Y-8761984D01*
X1201134Y-8657222D02*
X1210658Y-8638174D01*
X1210658Y-8638174D02*
X1229705Y-8628650D01*
X1229705Y-8628650D02*
X1258277Y-8628650D01*
X1258277Y-8628650D02*
X1277325Y-8638174D01*
X1277325Y-8638174D02*
X1286848Y-8657222D01*
X1286848Y-8657222D02*
X1286848Y-8761984D01*
X1382086Y-8761984D02*
X1382086Y-8628650D01*
X1382086Y-8647698D02*
X1391610Y-8638174D01*
X1391610Y-8638174D02*
X1410658Y-8628650D01*
X1410658Y-8628650D02*
X1439229Y-8628650D01*
X1439229Y-8628650D02*
X1458277Y-8638174D01*
X1458277Y-8638174D02*
X1467801Y-8657222D01*
X1467801Y-8657222D02*
X1467801Y-8761984D01*
X1467801Y-8657222D02*
X1477324Y-8638174D01*
X1477324Y-8638174D02*
X1496372Y-8628650D01*
X1496372Y-8628650D02*
X1524943Y-8628650D01*
X1524943Y-8628650D02*
X1543991Y-8638174D01*
X1543991Y-8638174D02*
X1553515Y-8657222D01*
X1553515Y-8657222D02*
X1553515Y-8761984D01*
X1943991Y-8552460D02*
X1772563Y-8809603D01*
X2201134Y-8561984D02*
X2220182Y-8561984D01*
X2220182Y-8561984D02*
X2239229Y-8571508D01*
X2239229Y-8571508D02*
X2248753Y-8581031D01*
X2248753Y-8581031D02*
X2258277Y-8600079D01*
X2258277Y-8600079D02*
X2267801Y-8638174D01*
X2267801Y-8638174D02*
X2267801Y-8685793D01*
X2267801Y-8685793D02*
X2258277Y-8723889D01*
X2258277Y-8723889D02*
X2248753Y-8742936D01*
X2248753Y-8742936D02*
X2239229Y-8752460D01*
X2239229Y-8752460D02*
X2220182Y-8761984D01*
X2220182Y-8761984D02*
X2201134Y-8761984D01*
X2201134Y-8761984D02*
X2182087Y-8752460D01*
X2182087Y-8752460D02*
X2172563Y-8742936D01*
X2172563Y-8742936D02*
X2163039Y-8723889D01*
X2163039Y-8723889D02*
X2153515Y-8685793D01*
X2153515Y-8685793D02*
X2153515Y-8638174D01*
X2153515Y-8638174D02*
X2163039Y-8600079D01*
X2163039Y-8600079D02*
X2172563Y-8581031D01*
X2172563Y-8581031D02*
X2182087Y-8571508D01*
X2182087Y-8571508D02*
X2201134Y-8561984D01*
X2353515Y-8742936D02*
X2363039Y-8752460D01*
X2363039Y-8752460D02*
X2353515Y-8761984D01*
X2353515Y-8761984D02*
X2343991Y-8752460D01*
X2343991Y-8752460D02*
X2353515Y-8742936D01*
X2353515Y-8742936D02*
X2353515Y-8761984D01*
X2486848Y-8561984D02*
X2505896Y-8561984D01*
X2505896Y-8561984D02*
X2524944Y-8571508D01*
X2524944Y-8571508D02*
X2534468Y-8581031D01*
X2534468Y-8581031D02*
X2543991Y-8600079D01*
X2543991Y-8600079D02*
X2553515Y-8638174D01*
X2553515Y-8638174D02*
X2553515Y-8685793D01*
X2553515Y-8685793D02*
X2543991Y-8723889D01*
X2543991Y-8723889D02*
X2534468Y-8742936D01*
X2534468Y-8742936D02*
X2524944Y-8752460D01*
X2524944Y-8752460D02*
X2505896Y-8761984D01*
X2505896Y-8761984D02*
X2486848Y-8761984D01*
X2486848Y-8761984D02*
X2467801Y-8752460D01*
X2467801Y-8752460D02*
X2458277Y-8742936D01*
X2458277Y-8742936D02*
X2448753Y-8723889D01*
X2448753Y-8723889D02*
X2439229Y-8685793D01*
X2439229Y-8685793D02*
X2439229Y-8638174D01*
X2439229Y-8638174D02*
X2448753Y-8600079D01*
X2448753Y-8600079D02*
X2458277Y-8581031D01*
X2458277Y-8581031D02*
X2467801Y-8571508D01*
X2467801Y-8571508D02*
X2486848Y-8561984D01*
X2743991Y-8761984D02*
X2629706Y-8761984D01*
X2686848Y-8761984D02*
X2686848Y-8561984D01*
X2686848Y-8561984D02*
X2667801Y-8590555D01*
X2667801Y-8590555D02*
X2648753Y-8609603D01*
X2648753Y-8609603D02*
X2629706Y-8619127D01*
X2810658Y-8561984D02*
X2934467Y-8561984D01*
X2934467Y-8561984D02*
X2867801Y-8638174D01*
X2867801Y-8638174D02*
X2896372Y-8638174D01*
X2896372Y-8638174D02*
X2915420Y-8647698D01*
X2915420Y-8647698D02*
X2924944Y-8657222D01*
X2924944Y-8657222D02*
X2934467Y-8676270D01*
X2934467Y-8676270D02*
X2934467Y-8723889D01*
X2934467Y-8723889D02*
X2924944Y-8742936D01*
X2924944Y-8742936D02*
X2915420Y-8752460D01*
X2915420Y-8752460D02*
X2896372Y-8761984D01*
X2896372Y-8761984D02*
X2839229Y-8761984D01*
X2839229Y-8761984D02*
X2820182Y-8752460D01*
X2820182Y-8752460D02*
X2810658Y-8742936D01*
X3048753Y-8647698D02*
X3029706Y-8638174D01*
X3029706Y-8638174D02*
X3020182Y-8628650D01*
X3020182Y-8628650D02*
X3010658Y-8609603D01*
X3010658Y-8609603D02*
X3010658Y-8600079D01*
X3010658Y-8600079D02*
X3020182Y-8581031D01*
X3020182Y-8581031D02*
X3029706Y-8571508D01*
X3029706Y-8571508D02*
X3048753Y-8561984D01*
X3048753Y-8561984D02*
X3086848Y-8561984D01*
X3086848Y-8561984D02*
X3105896Y-8571508D01*
X3105896Y-8571508D02*
X3115420Y-8581031D01*
X3115420Y-8581031D02*
X3124944Y-8600079D01*
X3124944Y-8600079D02*
X3124944Y-8609603D01*
X3124944Y-8609603D02*
X3115420Y-8628650D01*
X3115420Y-8628650D02*
X3105896Y-8638174D01*
X3105896Y-8638174D02*
X3086848Y-8647698D01*
X3086848Y-8647698D02*
X3048753Y-8647698D01*
X3048753Y-8647698D02*
X3029706Y-8657222D01*
X3029706Y-8657222D02*
X3020182Y-8666746D01*
X3020182Y-8666746D02*
X3010658Y-8685793D01*
X3010658Y-8685793D02*
X3010658Y-8723889D01*
X3010658Y-8723889D02*
X3020182Y-8742936D01*
X3020182Y-8742936D02*
X3029706Y-8752460D01*
X3029706Y-8752460D02*
X3048753Y-8761984D01*
X3048753Y-8761984D02*
X3086848Y-8761984D01*
X3086848Y-8761984D02*
X3105896Y-8752460D01*
X3105896Y-8752460D02*
X3115420Y-8742936D01*
X3115420Y-8742936D02*
X3124944Y-8723889D01*
X3124944Y-8723889D02*
X3124944Y-8685793D01*
X3124944Y-8685793D02*
X3115420Y-8666746D01*
X3115420Y-8666746D02*
X3105896Y-8657222D01*
X3105896Y-8657222D02*
X3086848Y-8647698D01*
X3201134Y-8561984D02*
X3201134Y-8600079D01*
X3277325Y-8561984D02*
X3277325Y-8600079D01*
X3572563Y-8838174D02*
X3563039Y-8828650D01*
X3563039Y-8828650D02*
X3543991Y-8800079D01*
X3543991Y-8800079D02*
X3534468Y-8781031D01*
X3534468Y-8781031D02*
X3524944Y-8752460D01*
X3524944Y-8752460D02*
X3515420Y-8704841D01*
X3515420Y-8704841D02*
X3515420Y-8666746D01*
X3515420Y-8666746D02*
X3524944Y-8619127D01*
X3524944Y-8619127D02*
X3534468Y-8590555D01*
X3534468Y-8590555D02*
X3543991Y-8571508D01*
X3543991Y-8571508D02*
X3563039Y-8542936D01*
X3563039Y-8542936D02*
X3572563Y-8533412D01*
X3753515Y-8761984D02*
X3639229Y-8761984D01*
X3696372Y-8761984D02*
X3696372Y-8561984D01*
X3696372Y-8561984D02*
X3677325Y-8590555D01*
X3677325Y-8590555D02*
X3658277Y-8609603D01*
X3658277Y-8609603D02*
X3639229Y-8619127D01*
X3924944Y-8561984D02*
X3886848Y-8561984D01*
X3886848Y-8561984D02*
X3867801Y-8571508D01*
X3867801Y-8571508D02*
X3858277Y-8581031D01*
X3858277Y-8581031D02*
X3839229Y-8609603D01*
X3839229Y-8609603D02*
X3829706Y-8647698D01*
X3829706Y-8647698D02*
X3829706Y-8723889D01*
X3829706Y-8723889D02*
X3839229Y-8742936D01*
X3839229Y-8742936D02*
X3848753Y-8752460D01*
X3848753Y-8752460D02*
X3867801Y-8761984D01*
X3867801Y-8761984D02*
X3905896Y-8761984D01*
X3905896Y-8761984D02*
X3924944Y-8752460D01*
X3924944Y-8752460D02*
X3934468Y-8742936D01*
X3934468Y-8742936D02*
X3943991Y-8723889D01*
X3943991Y-8723889D02*
X3943991Y-8676270D01*
X3943991Y-8676270D02*
X3934468Y-8657222D01*
X3934468Y-8657222D02*
X3924944Y-8647698D01*
X3924944Y-8647698D02*
X3905896Y-8638174D01*
X3905896Y-8638174D02*
X3867801Y-8638174D01*
X3867801Y-8638174D02*
X3848753Y-8647698D01*
X3848753Y-8647698D02*
X3839229Y-8657222D01*
X3839229Y-8657222D02*
X3829706Y-8676270D01*
X4182087Y-8761984D02*
X4182087Y-8561984D01*
X4267801Y-8761984D02*
X4267801Y-8657222D01*
X4267801Y-8657222D02*
X4258277Y-8638174D01*
X4258277Y-8638174D02*
X4239230Y-8628650D01*
X4239230Y-8628650D02*
X4210658Y-8628650D01*
X4210658Y-8628650D02*
X4191610Y-8638174D01*
X4191610Y-8638174D02*
X4182087Y-8647698D01*
X4391611Y-8761984D02*
X4372563Y-8752460D01*
X4372563Y-8752460D02*
X4363039Y-8742936D01*
X4363039Y-8742936D02*
X4353515Y-8723889D01*
X4353515Y-8723889D02*
X4353515Y-8666746D01*
X4353515Y-8666746D02*
X4363039Y-8647698D01*
X4363039Y-8647698D02*
X4372563Y-8638174D01*
X4372563Y-8638174D02*
X4391611Y-8628650D01*
X4391611Y-8628650D02*
X4420182Y-8628650D01*
X4420182Y-8628650D02*
X4439230Y-8638174D01*
X4439230Y-8638174D02*
X4448753Y-8647698D01*
X4448753Y-8647698D02*
X4458277Y-8666746D01*
X4458277Y-8666746D02*
X4458277Y-8723889D01*
X4458277Y-8723889D02*
X4448753Y-8742936D01*
X4448753Y-8742936D02*
X4439230Y-8752460D01*
X4439230Y-8752460D02*
X4420182Y-8761984D01*
X4420182Y-8761984D02*
X4391611Y-8761984D01*
X4572563Y-8761984D02*
X4553515Y-8752460D01*
X4553515Y-8752460D02*
X4543992Y-8733412D01*
X4543992Y-8733412D02*
X4543992Y-8561984D01*
X4724944Y-8752460D02*
X4705896Y-8761984D01*
X4705896Y-8761984D02*
X4667801Y-8761984D01*
X4667801Y-8761984D02*
X4648753Y-8752460D01*
X4648753Y-8752460D02*
X4639230Y-8733412D01*
X4639230Y-8733412D02*
X4639230Y-8657222D01*
X4639230Y-8657222D02*
X4648753Y-8638174D01*
X4648753Y-8638174D02*
X4667801Y-8628650D01*
X4667801Y-8628650D02*
X4705896Y-8628650D01*
X4705896Y-8628650D02*
X4724944Y-8638174D01*
X4724944Y-8638174D02*
X4734468Y-8657222D01*
X4734468Y-8657222D02*
X4734468Y-8676270D01*
X4734468Y-8676270D02*
X4639230Y-8695317D01*
X4810658Y-8752460D02*
X4829706Y-8761984D01*
X4829706Y-8761984D02*
X4867801Y-8761984D01*
X4867801Y-8761984D02*
X4886849Y-8752460D01*
X4886849Y-8752460D02*
X4896373Y-8733412D01*
X4896373Y-8733412D02*
X4896373Y-8723889D01*
X4896373Y-8723889D02*
X4886849Y-8704841D01*
X4886849Y-8704841D02*
X4867801Y-8695317D01*
X4867801Y-8695317D02*
X4839230Y-8695317D01*
X4839230Y-8695317D02*
X4820182Y-8685793D01*
X4820182Y-8685793D02*
X4810658Y-8666746D01*
X4810658Y-8666746D02*
X4810658Y-8657222D01*
X4810658Y-8657222D02*
X4820182Y-8638174D01*
X4820182Y-8638174D02*
X4839230Y-8628650D01*
X4839230Y-8628650D02*
X4867801Y-8628650D01*
X4867801Y-8628650D02*
X4886849Y-8638174D01*
X4963039Y-8838174D02*
X4972563Y-8828650D01*
X4972563Y-8828650D02*
X4991611Y-8800079D01*
X4991611Y-8800079D02*
X5001134Y-8781031D01*
X5001134Y-8781031D02*
X5010658Y-8752460D01*
X5010658Y-8752460D02*
X5020182Y-8704841D01*
X5020182Y-8704841D02*
X5020182Y-8666746D01*
X5020182Y-8666746D02*
X5010658Y-8619127D01*
X5010658Y-8619127D02*
X5001134Y-8590555D01*
X5001134Y-8590555D02*
X4991611Y-8571508D01*
X4991611Y-8571508D02*
X4972563Y-8542936D01*
X4972563Y-8542936D02*
X4963039Y-8533412D01*
D12*
X-11287Y-8955713D02*
X-11287Y-8913287D01*
X-53713Y-8913287D01*
X-53713Y-8955713D01*
X-11287Y-8955713D01*
D11*
X296372Y-8825984D02*
X315420Y-8825984D01*
X315420Y-8825984D02*
X334467Y-8835508D01*
X334467Y-8835508D02*
X343991Y-8845031D01*
X343991Y-8845031D02*
X353515Y-8864079D01*
X353515Y-8864079D02*
X363039Y-8902174D01*
X363039Y-8902174D02*
X363039Y-8949793D01*
X363039Y-8949793D02*
X353515Y-8987889D01*
X353515Y-8987889D02*
X343991Y-9006936D01*
X343991Y-9006936D02*
X334467Y-9016460D01*
X334467Y-9016460D02*
X315420Y-9025984D01*
X315420Y-9025984D02*
X296372Y-9025984D01*
X296372Y-9025984D02*
X277324Y-9016460D01*
X277324Y-9016460D02*
X267801Y-9006936D01*
X267801Y-9006936D02*
X258277Y-8987889D01*
X258277Y-8987889D02*
X248753Y-8949793D01*
X248753Y-8949793D02*
X248753Y-8902174D01*
X248753Y-8902174D02*
X258277Y-8864079D01*
X258277Y-8864079D02*
X267801Y-8845031D01*
X267801Y-8845031D02*
X277324Y-8835508D01*
X277324Y-8835508D02*
X296372Y-8825984D01*
X448753Y-9006936D02*
X458277Y-9016460D01*
X458277Y-9016460D02*
X448753Y-9025984D01*
X448753Y-9025984D02*
X439229Y-9016460D01*
X439229Y-9016460D02*
X448753Y-9006936D01*
X448753Y-9006936D02*
X448753Y-9025984D01*
X629705Y-8825984D02*
X591610Y-8825984D01*
X591610Y-8825984D02*
X572563Y-8835508D01*
X572563Y-8835508D02*
X563039Y-8845031D01*
X563039Y-8845031D02*
X543991Y-8873603D01*
X543991Y-8873603D02*
X534467Y-8911698D01*
X534467Y-8911698D02*
X534467Y-8987889D01*
X534467Y-8987889D02*
X543991Y-9006936D01*
X543991Y-9006936D02*
X553515Y-9016460D01*
X553515Y-9016460D02*
X572563Y-9025984D01*
X572563Y-9025984D02*
X610658Y-9025984D01*
X610658Y-9025984D02*
X629705Y-9016460D01*
X629705Y-9016460D02*
X639229Y-9006936D01*
X639229Y-9006936D02*
X648753Y-8987889D01*
X648753Y-8987889D02*
X648753Y-8940270D01*
X648753Y-8940270D02*
X639229Y-8921222D01*
X639229Y-8921222D02*
X629705Y-8911698D01*
X629705Y-8911698D02*
X610658Y-8902174D01*
X610658Y-8902174D02*
X572563Y-8902174D01*
X572563Y-8902174D02*
X553515Y-8911698D01*
X553515Y-8911698D02*
X543991Y-8921222D01*
X543991Y-8921222D02*
X534467Y-8940270D01*
X772562Y-8825984D02*
X791610Y-8825984D01*
X791610Y-8825984D02*
X810658Y-8835508D01*
X810658Y-8835508D02*
X820182Y-8845031D01*
X820182Y-8845031D02*
X829705Y-8864079D01*
X829705Y-8864079D02*
X839229Y-8902174D01*
X839229Y-8902174D02*
X839229Y-8949793D01*
X839229Y-8949793D02*
X829705Y-8987889D01*
X829705Y-8987889D02*
X820182Y-9006936D01*
X820182Y-9006936D02*
X810658Y-9016460D01*
X810658Y-9016460D02*
X791610Y-9025984D01*
X791610Y-9025984D02*
X772562Y-9025984D01*
X772562Y-9025984D02*
X753515Y-9016460D01*
X753515Y-9016460D02*
X743991Y-9006936D01*
X743991Y-9006936D02*
X734467Y-8987889D01*
X734467Y-8987889D02*
X724943Y-8949793D01*
X724943Y-8949793D02*
X724943Y-8902174D01*
X724943Y-8902174D02*
X734467Y-8864079D01*
X734467Y-8864079D02*
X743991Y-8845031D01*
X743991Y-8845031D02*
X753515Y-8835508D01*
X753515Y-8835508D02*
X772562Y-8825984D01*
X963039Y-8825984D02*
X982086Y-8825984D01*
X982086Y-8825984D02*
X1001134Y-8835508D01*
X1001134Y-8835508D02*
X1010658Y-8845031D01*
X1010658Y-8845031D02*
X1020182Y-8864079D01*
X1020182Y-8864079D02*
X1029705Y-8902174D01*
X1029705Y-8902174D02*
X1029705Y-8949793D01*
X1029705Y-8949793D02*
X1020182Y-8987889D01*
X1020182Y-8987889D02*
X1010658Y-9006936D01*
X1010658Y-9006936D02*
X1001134Y-9016460D01*
X1001134Y-9016460D02*
X982086Y-9025984D01*
X982086Y-9025984D02*
X963039Y-9025984D01*
X963039Y-9025984D02*
X943991Y-9016460D01*
X943991Y-9016460D02*
X934467Y-9006936D01*
X934467Y-9006936D02*
X924943Y-8987889D01*
X924943Y-8987889D02*
X915420Y-8949793D01*
X915420Y-8949793D02*
X915420Y-8902174D01*
X915420Y-8902174D02*
X924943Y-8864079D01*
X924943Y-8864079D02*
X934467Y-8845031D01*
X934467Y-8845031D02*
X943991Y-8835508D01*
X943991Y-8835508D02*
X963039Y-8825984D01*
X1115420Y-9025984D02*
X1115420Y-8892650D01*
X1115420Y-8911698D02*
X1124944Y-8902174D01*
X1124944Y-8902174D02*
X1143991Y-8892650D01*
X1143991Y-8892650D02*
X1172563Y-8892650D01*
X1172563Y-8892650D02*
X1191610Y-8902174D01*
X1191610Y-8902174D02*
X1201134Y-8921222D01*
X1201134Y-8921222D02*
X1201134Y-9025984D01*
X1201134Y-8921222D02*
X1210658Y-8902174D01*
X1210658Y-8902174D02*
X1229705Y-8892650D01*
X1229705Y-8892650D02*
X1258277Y-8892650D01*
X1258277Y-8892650D02*
X1277325Y-8902174D01*
X1277325Y-8902174D02*
X1286848Y-8921222D01*
X1286848Y-8921222D02*
X1286848Y-9025984D01*
X1382086Y-9025984D02*
X1382086Y-8892650D01*
X1382086Y-8911698D02*
X1391610Y-8902174D01*
X1391610Y-8902174D02*
X1410658Y-8892650D01*
X1410658Y-8892650D02*
X1439229Y-8892650D01*
X1439229Y-8892650D02*
X1458277Y-8902174D01*
X1458277Y-8902174D02*
X1467801Y-8921222D01*
X1467801Y-8921222D02*
X1467801Y-9025984D01*
X1467801Y-8921222D02*
X1477324Y-8902174D01*
X1477324Y-8902174D02*
X1496372Y-8892650D01*
X1496372Y-8892650D02*
X1524943Y-8892650D01*
X1524943Y-8892650D02*
X1543991Y-8902174D01*
X1543991Y-8902174D02*
X1553515Y-8921222D01*
X1553515Y-8921222D02*
X1553515Y-9025984D01*
X1943991Y-8816460D02*
X1772563Y-9073603D01*
X2201134Y-8825984D02*
X2220182Y-8825984D01*
X2220182Y-8825984D02*
X2239229Y-8835508D01*
X2239229Y-8835508D02*
X2248753Y-8845031D01*
X2248753Y-8845031D02*
X2258277Y-8864079D01*
X2258277Y-8864079D02*
X2267801Y-8902174D01*
X2267801Y-8902174D02*
X2267801Y-8949793D01*
X2267801Y-8949793D02*
X2258277Y-8987889D01*
X2258277Y-8987889D02*
X2248753Y-9006936D01*
X2248753Y-9006936D02*
X2239229Y-9016460D01*
X2239229Y-9016460D02*
X2220182Y-9025984D01*
X2220182Y-9025984D02*
X2201134Y-9025984D01*
X2201134Y-9025984D02*
X2182087Y-9016460D01*
X2182087Y-9016460D02*
X2172563Y-9006936D01*
X2172563Y-9006936D02*
X2163039Y-8987889D01*
X2163039Y-8987889D02*
X2153515Y-8949793D01*
X2153515Y-8949793D02*
X2153515Y-8902174D01*
X2153515Y-8902174D02*
X2163039Y-8864079D01*
X2163039Y-8864079D02*
X2172563Y-8845031D01*
X2172563Y-8845031D02*
X2182087Y-8835508D01*
X2182087Y-8835508D02*
X2201134Y-8825984D01*
X2353515Y-9006936D02*
X2363039Y-9016460D01*
X2363039Y-9016460D02*
X2353515Y-9025984D01*
X2353515Y-9025984D02*
X2343991Y-9016460D01*
X2343991Y-9016460D02*
X2353515Y-9006936D01*
X2353515Y-9006936D02*
X2353515Y-9025984D01*
X2486848Y-8825984D02*
X2505896Y-8825984D01*
X2505896Y-8825984D02*
X2524944Y-8835508D01*
X2524944Y-8835508D02*
X2534468Y-8845031D01*
X2534468Y-8845031D02*
X2543991Y-8864079D01*
X2543991Y-8864079D02*
X2553515Y-8902174D01*
X2553515Y-8902174D02*
X2553515Y-8949793D01*
X2553515Y-8949793D02*
X2543991Y-8987889D01*
X2543991Y-8987889D02*
X2534468Y-9006936D01*
X2534468Y-9006936D02*
X2524944Y-9016460D01*
X2524944Y-9016460D02*
X2505896Y-9025984D01*
X2505896Y-9025984D02*
X2486848Y-9025984D01*
X2486848Y-9025984D02*
X2467801Y-9016460D01*
X2467801Y-9016460D02*
X2458277Y-9006936D01*
X2458277Y-9006936D02*
X2448753Y-8987889D01*
X2448753Y-8987889D02*
X2439229Y-8949793D01*
X2439229Y-8949793D02*
X2439229Y-8902174D01*
X2439229Y-8902174D02*
X2448753Y-8864079D01*
X2448753Y-8864079D02*
X2458277Y-8845031D01*
X2458277Y-8845031D02*
X2467801Y-8835508D01*
X2467801Y-8835508D02*
X2486848Y-8825984D01*
X2629706Y-8845031D02*
X2639229Y-8835508D01*
X2639229Y-8835508D02*
X2658277Y-8825984D01*
X2658277Y-8825984D02*
X2705896Y-8825984D01*
X2705896Y-8825984D02*
X2724944Y-8835508D01*
X2724944Y-8835508D02*
X2734468Y-8845031D01*
X2734468Y-8845031D02*
X2743991Y-8864079D01*
X2743991Y-8864079D02*
X2743991Y-8883127D01*
X2743991Y-8883127D02*
X2734468Y-8911698D01*
X2734468Y-8911698D02*
X2620182Y-9025984D01*
X2620182Y-9025984D02*
X2743991Y-9025984D01*
X2810658Y-8825984D02*
X2934467Y-8825984D01*
X2934467Y-8825984D02*
X2867801Y-8902174D01*
X2867801Y-8902174D02*
X2896372Y-8902174D01*
X2896372Y-8902174D02*
X2915420Y-8911698D01*
X2915420Y-8911698D02*
X2924944Y-8921222D01*
X2924944Y-8921222D02*
X2934467Y-8940270D01*
X2934467Y-8940270D02*
X2934467Y-8987889D01*
X2934467Y-8987889D02*
X2924944Y-9006936D01*
X2924944Y-9006936D02*
X2915420Y-9016460D01*
X2915420Y-9016460D02*
X2896372Y-9025984D01*
X2896372Y-9025984D02*
X2839229Y-9025984D01*
X2839229Y-9025984D02*
X2820182Y-9016460D01*
X2820182Y-9016460D02*
X2810658Y-9006936D01*
X3105896Y-8825984D02*
X3067801Y-8825984D01*
X3067801Y-8825984D02*
X3048753Y-8835508D01*
X3048753Y-8835508D02*
X3039229Y-8845031D01*
X3039229Y-8845031D02*
X3020182Y-8873603D01*
X3020182Y-8873603D02*
X3010658Y-8911698D01*
X3010658Y-8911698D02*
X3010658Y-8987889D01*
X3010658Y-8987889D02*
X3020182Y-9006936D01*
X3020182Y-9006936D02*
X3029706Y-9016460D01*
X3029706Y-9016460D02*
X3048753Y-9025984D01*
X3048753Y-9025984D02*
X3086848Y-9025984D01*
X3086848Y-9025984D02*
X3105896Y-9016460D01*
X3105896Y-9016460D02*
X3115420Y-9006936D01*
X3115420Y-9006936D02*
X3124944Y-8987889D01*
X3124944Y-8987889D02*
X3124944Y-8940270D01*
X3124944Y-8940270D02*
X3115420Y-8921222D01*
X3115420Y-8921222D02*
X3105896Y-8911698D01*
X3105896Y-8911698D02*
X3086848Y-8902174D01*
X3086848Y-8902174D02*
X3048753Y-8902174D01*
X3048753Y-8902174D02*
X3029706Y-8911698D01*
X3029706Y-8911698D02*
X3020182Y-8921222D01*
X3020182Y-8921222D02*
X3010658Y-8940270D01*
X3201134Y-8825984D02*
X3201134Y-8864079D01*
X3277325Y-8825984D02*
X3277325Y-8864079D01*
X3572563Y-9102174D02*
X3563039Y-9092650D01*
X3563039Y-9092650D02*
X3543991Y-9064079D01*
X3543991Y-9064079D02*
X3534468Y-9045031D01*
X3534468Y-9045031D02*
X3524944Y-9016460D01*
X3524944Y-9016460D02*
X3515420Y-8968841D01*
X3515420Y-8968841D02*
X3515420Y-8930746D01*
X3515420Y-8930746D02*
X3524944Y-8883127D01*
X3524944Y-8883127D02*
X3534468Y-8854555D01*
X3534468Y-8854555D02*
X3543991Y-8835508D01*
X3543991Y-8835508D02*
X3563039Y-8806936D01*
X3563039Y-8806936D02*
X3572563Y-8797412D01*
X3734468Y-8892650D02*
X3734468Y-9025984D01*
X3686848Y-8816460D02*
X3639229Y-8959317D01*
X3639229Y-8959317D02*
X3763039Y-8959317D01*
X3991610Y-9025984D02*
X3991610Y-8825984D01*
X4077325Y-9025984D02*
X4077325Y-8921222D01*
X4077325Y-8921222D02*
X4067801Y-8902174D01*
X4067801Y-8902174D02*
X4048753Y-8892650D01*
X4048753Y-8892650D02*
X4020182Y-8892650D01*
X4020182Y-8892650D02*
X4001134Y-8902174D01*
X4001134Y-8902174D02*
X3991610Y-8911698D01*
X4201134Y-9025984D02*
X4182087Y-9016460D01*
X4182087Y-9016460D02*
X4172563Y-9006936D01*
X4172563Y-9006936D02*
X4163039Y-8987889D01*
X4163039Y-8987889D02*
X4163039Y-8930746D01*
X4163039Y-8930746D02*
X4172563Y-8911698D01*
X4172563Y-8911698D02*
X4182087Y-8902174D01*
X4182087Y-8902174D02*
X4201134Y-8892650D01*
X4201134Y-8892650D02*
X4229706Y-8892650D01*
X4229706Y-8892650D02*
X4248753Y-8902174D01*
X4248753Y-8902174D02*
X4258277Y-8911698D01*
X4258277Y-8911698D02*
X4267801Y-8930746D01*
X4267801Y-8930746D02*
X4267801Y-8987889D01*
X4267801Y-8987889D02*
X4258277Y-9006936D01*
X4258277Y-9006936D02*
X4248753Y-9016460D01*
X4248753Y-9016460D02*
X4229706Y-9025984D01*
X4229706Y-9025984D02*
X4201134Y-9025984D01*
X4382087Y-9025984D02*
X4363039Y-9016460D01*
X4363039Y-9016460D02*
X4353515Y-8997412D01*
X4353515Y-8997412D02*
X4353515Y-8825984D01*
X4534468Y-9016460D02*
X4515420Y-9025984D01*
X4515420Y-9025984D02*
X4477325Y-9025984D01*
X4477325Y-9025984D02*
X4458277Y-9016460D01*
X4458277Y-9016460D02*
X4448753Y-8997412D01*
X4448753Y-8997412D02*
X4448753Y-8921222D01*
X4448753Y-8921222D02*
X4458277Y-8902174D01*
X4458277Y-8902174D02*
X4477325Y-8892650D01*
X4477325Y-8892650D02*
X4515420Y-8892650D01*
X4515420Y-8892650D02*
X4534468Y-8902174D01*
X4534468Y-8902174D02*
X4543992Y-8921222D01*
X4543992Y-8921222D02*
X4543992Y-8940270D01*
X4543992Y-8940270D02*
X4448753Y-8959317D01*
X4620182Y-9016460D02*
X4639230Y-9025984D01*
X4639230Y-9025984D02*
X4677325Y-9025984D01*
X4677325Y-9025984D02*
X4696373Y-9016460D01*
X4696373Y-9016460D02*
X4705896Y-8997412D01*
X4705896Y-8997412D02*
X4705896Y-8987889D01*
X4705896Y-8987889D02*
X4696373Y-8968841D01*
X4696373Y-8968841D02*
X4677325Y-8959317D01*
X4677325Y-8959317D02*
X4648753Y-8959317D01*
X4648753Y-8959317D02*
X4629706Y-8949793D01*
X4629706Y-8949793D02*
X4620182Y-8930746D01*
X4620182Y-8930746D02*
X4620182Y-8921222D01*
X4620182Y-8921222D02*
X4629706Y-8902174D01*
X4629706Y-8902174D02*
X4648753Y-8892650D01*
X4648753Y-8892650D02*
X4677325Y-8892650D01*
X4677325Y-8892650D02*
X4696373Y-8902174D01*
X4772563Y-9102174D02*
X4782087Y-9092650D01*
X4782087Y-9092650D02*
X4801134Y-9064079D01*
X4801134Y-9064079D02*
X4810658Y-9045031D01*
X4810658Y-9045031D02*
X4820182Y-9016460D01*
X4820182Y-9016460D02*
X4829706Y-8968841D01*
X4829706Y-8968841D02*
X4829706Y-8930746D01*
X4829706Y-8930746D02*
X4820182Y-8883127D01*
X4820182Y-8883127D02*
X4810658Y-8854555D01*
X4810658Y-8854555D02*
X4801134Y-8835508D01*
X4801134Y-8835508D02*
X4782087Y-8806936D01*
X4782087Y-8806936D02*
X4772563Y-8797412D01*
D12*
X-45000Y-9241000D02*
X-2500Y-9198500D01*
X-45000Y-9156000D01*
X-87500Y-9198500D01*
X-45000Y-9241000D01*
D11*
X296372Y-9089984D02*
X315420Y-9089984D01*
X315420Y-9089984D02*
X334467Y-9099508D01*
X334467Y-9099508D02*
X343991Y-9109031D01*
X343991Y-9109031D02*
X353515Y-9128079D01*
X353515Y-9128079D02*
X363039Y-9166174D01*
X363039Y-9166174D02*
X363039Y-9213793D01*
X363039Y-9213793D02*
X353515Y-9251889D01*
X353515Y-9251889D02*
X343991Y-9270936D01*
X343991Y-9270936D02*
X334467Y-9280460D01*
X334467Y-9280460D02*
X315420Y-9289984D01*
X315420Y-9289984D02*
X296372Y-9289984D01*
X296372Y-9289984D02*
X277324Y-9280460D01*
X277324Y-9280460D02*
X267801Y-9270936D01*
X267801Y-9270936D02*
X258277Y-9251889D01*
X258277Y-9251889D02*
X248753Y-9213793D01*
X248753Y-9213793D02*
X248753Y-9166174D01*
X248753Y-9166174D02*
X258277Y-9128079D01*
X258277Y-9128079D02*
X267801Y-9109031D01*
X267801Y-9109031D02*
X277324Y-9099508D01*
X277324Y-9099508D02*
X296372Y-9089984D01*
X448753Y-9270936D02*
X458277Y-9280460D01*
X458277Y-9280460D02*
X448753Y-9289984D01*
X448753Y-9289984D02*
X439229Y-9280460D01*
X439229Y-9280460D02*
X448753Y-9270936D01*
X448753Y-9270936D02*
X448753Y-9289984D01*
X572563Y-9175698D02*
X553515Y-9166174D01*
X553515Y-9166174D02*
X543991Y-9156650D01*
X543991Y-9156650D02*
X534467Y-9137603D01*
X534467Y-9137603D02*
X534467Y-9128079D01*
X534467Y-9128079D02*
X543991Y-9109031D01*
X543991Y-9109031D02*
X553515Y-9099508D01*
X553515Y-9099508D02*
X572563Y-9089984D01*
X572563Y-9089984D02*
X610658Y-9089984D01*
X610658Y-9089984D02*
X629705Y-9099508D01*
X629705Y-9099508D02*
X639229Y-9109031D01*
X639229Y-9109031D02*
X648753Y-9128079D01*
X648753Y-9128079D02*
X648753Y-9137603D01*
X648753Y-9137603D02*
X639229Y-9156650D01*
X639229Y-9156650D02*
X629705Y-9166174D01*
X629705Y-9166174D02*
X610658Y-9175698D01*
X610658Y-9175698D02*
X572563Y-9175698D01*
X572563Y-9175698D02*
X553515Y-9185222D01*
X553515Y-9185222D02*
X543991Y-9194746D01*
X543991Y-9194746D02*
X534467Y-9213793D01*
X534467Y-9213793D02*
X534467Y-9251889D01*
X534467Y-9251889D02*
X543991Y-9270936D01*
X543991Y-9270936D02*
X553515Y-9280460D01*
X553515Y-9280460D02*
X572563Y-9289984D01*
X572563Y-9289984D02*
X610658Y-9289984D01*
X610658Y-9289984D02*
X629705Y-9280460D01*
X629705Y-9280460D02*
X639229Y-9270936D01*
X639229Y-9270936D02*
X648753Y-9251889D01*
X648753Y-9251889D02*
X648753Y-9213793D01*
X648753Y-9213793D02*
X639229Y-9194746D01*
X639229Y-9194746D02*
X629705Y-9185222D01*
X629705Y-9185222D02*
X610658Y-9175698D01*
X829705Y-9089984D02*
X734467Y-9089984D01*
X734467Y-9089984D02*
X724943Y-9185222D01*
X724943Y-9185222D02*
X734467Y-9175698D01*
X734467Y-9175698D02*
X753515Y-9166174D01*
X753515Y-9166174D02*
X801134Y-9166174D01*
X801134Y-9166174D02*
X820182Y-9175698D01*
X820182Y-9175698D02*
X829705Y-9185222D01*
X829705Y-9185222D02*
X839229Y-9204270D01*
X839229Y-9204270D02*
X839229Y-9251889D01*
X839229Y-9251889D02*
X829705Y-9270936D01*
X829705Y-9270936D02*
X820182Y-9280460D01*
X820182Y-9280460D02*
X801134Y-9289984D01*
X801134Y-9289984D02*
X753515Y-9289984D01*
X753515Y-9289984D02*
X734467Y-9280460D01*
X734467Y-9280460D02*
X724943Y-9270936D01*
X963039Y-9089984D02*
X982086Y-9089984D01*
X982086Y-9089984D02*
X1001134Y-9099508D01*
X1001134Y-9099508D02*
X1010658Y-9109031D01*
X1010658Y-9109031D02*
X1020182Y-9128079D01*
X1020182Y-9128079D02*
X1029705Y-9166174D01*
X1029705Y-9166174D02*
X1029705Y-9213793D01*
X1029705Y-9213793D02*
X1020182Y-9251889D01*
X1020182Y-9251889D02*
X1010658Y-9270936D01*
X1010658Y-9270936D02*
X1001134Y-9280460D01*
X1001134Y-9280460D02*
X982086Y-9289984D01*
X982086Y-9289984D02*
X963039Y-9289984D01*
X963039Y-9289984D02*
X943991Y-9280460D01*
X943991Y-9280460D02*
X934467Y-9270936D01*
X934467Y-9270936D02*
X924943Y-9251889D01*
X924943Y-9251889D02*
X915420Y-9213793D01*
X915420Y-9213793D02*
X915420Y-9166174D01*
X915420Y-9166174D02*
X924943Y-9128079D01*
X924943Y-9128079D02*
X934467Y-9109031D01*
X934467Y-9109031D02*
X943991Y-9099508D01*
X943991Y-9099508D02*
X963039Y-9089984D01*
X1115420Y-9289984D02*
X1115420Y-9156650D01*
X1115420Y-9175698D02*
X1124944Y-9166174D01*
X1124944Y-9166174D02*
X1143991Y-9156650D01*
X1143991Y-9156650D02*
X1172563Y-9156650D01*
X1172563Y-9156650D02*
X1191610Y-9166174D01*
X1191610Y-9166174D02*
X1201134Y-9185222D01*
X1201134Y-9185222D02*
X1201134Y-9289984D01*
X1201134Y-9185222D02*
X1210658Y-9166174D01*
X1210658Y-9166174D02*
X1229705Y-9156650D01*
X1229705Y-9156650D02*
X1258277Y-9156650D01*
X1258277Y-9156650D02*
X1277325Y-9166174D01*
X1277325Y-9166174D02*
X1286848Y-9185222D01*
X1286848Y-9185222D02*
X1286848Y-9289984D01*
X1382086Y-9289984D02*
X1382086Y-9156650D01*
X1382086Y-9175698D02*
X1391610Y-9166174D01*
X1391610Y-9166174D02*
X1410658Y-9156650D01*
X1410658Y-9156650D02*
X1439229Y-9156650D01*
X1439229Y-9156650D02*
X1458277Y-9166174D01*
X1458277Y-9166174D02*
X1467801Y-9185222D01*
X1467801Y-9185222D02*
X1467801Y-9289984D01*
X1467801Y-9185222D02*
X1477324Y-9166174D01*
X1477324Y-9166174D02*
X1496372Y-9156650D01*
X1496372Y-9156650D02*
X1524943Y-9156650D01*
X1524943Y-9156650D02*
X1543991Y-9166174D01*
X1543991Y-9166174D02*
X1553515Y-9185222D01*
X1553515Y-9185222D02*
X1553515Y-9289984D01*
X1943991Y-9080460D02*
X1772563Y-9337603D01*
X2201134Y-9089984D02*
X2220182Y-9089984D01*
X2220182Y-9089984D02*
X2239229Y-9099508D01*
X2239229Y-9099508D02*
X2248753Y-9109031D01*
X2248753Y-9109031D02*
X2258277Y-9128079D01*
X2258277Y-9128079D02*
X2267801Y-9166174D01*
X2267801Y-9166174D02*
X2267801Y-9213793D01*
X2267801Y-9213793D02*
X2258277Y-9251889D01*
X2258277Y-9251889D02*
X2248753Y-9270936D01*
X2248753Y-9270936D02*
X2239229Y-9280460D01*
X2239229Y-9280460D02*
X2220182Y-9289984D01*
X2220182Y-9289984D02*
X2201134Y-9289984D01*
X2201134Y-9289984D02*
X2182087Y-9280460D01*
X2182087Y-9280460D02*
X2172563Y-9270936D01*
X2172563Y-9270936D02*
X2163039Y-9251889D01*
X2163039Y-9251889D02*
X2153515Y-9213793D01*
X2153515Y-9213793D02*
X2153515Y-9166174D01*
X2153515Y-9166174D02*
X2163039Y-9128079D01*
X2163039Y-9128079D02*
X2172563Y-9109031D01*
X2172563Y-9109031D02*
X2182087Y-9099508D01*
X2182087Y-9099508D02*
X2201134Y-9089984D01*
X2353515Y-9270936D02*
X2363039Y-9280460D01*
X2363039Y-9280460D02*
X2353515Y-9289984D01*
X2353515Y-9289984D02*
X2343991Y-9280460D01*
X2343991Y-9280460D02*
X2353515Y-9270936D01*
X2353515Y-9270936D02*
X2353515Y-9289984D01*
X2486848Y-9089984D02*
X2505896Y-9089984D01*
X2505896Y-9089984D02*
X2524944Y-9099508D01*
X2524944Y-9099508D02*
X2534468Y-9109031D01*
X2534468Y-9109031D02*
X2543991Y-9128079D01*
X2543991Y-9128079D02*
X2553515Y-9166174D01*
X2553515Y-9166174D02*
X2553515Y-9213793D01*
X2553515Y-9213793D02*
X2543991Y-9251889D01*
X2543991Y-9251889D02*
X2534468Y-9270936D01*
X2534468Y-9270936D02*
X2524944Y-9280460D01*
X2524944Y-9280460D02*
X2505896Y-9289984D01*
X2505896Y-9289984D02*
X2486848Y-9289984D01*
X2486848Y-9289984D02*
X2467801Y-9280460D01*
X2467801Y-9280460D02*
X2458277Y-9270936D01*
X2458277Y-9270936D02*
X2448753Y-9251889D01*
X2448753Y-9251889D02*
X2439229Y-9213793D01*
X2439229Y-9213793D02*
X2439229Y-9166174D01*
X2439229Y-9166174D02*
X2448753Y-9128079D01*
X2448753Y-9128079D02*
X2458277Y-9109031D01*
X2458277Y-9109031D02*
X2467801Y-9099508D01*
X2467801Y-9099508D02*
X2486848Y-9089984D01*
X2620182Y-9089984D02*
X2743991Y-9089984D01*
X2743991Y-9089984D02*
X2677325Y-9166174D01*
X2677325Y-9166174D02*
X2705896Y-9166174D01*
X2705896Y-9166174D02*
X2724944Y-9175698D01*
X2724944Y-9175698D02*
X2734468Y-9185222D01*
X2734468Y-9185222D02*
X2743991Y-9204270D01*
X2743991Y-9204270D02*
X2743991Y-9251889D01*
X2743991Y-9251889D02*
X2734468Y-9270936D01*
X2734468Y-9270936D02*
X2724944Y-9280460D01*
X2724944Y-9280460D02*
X2705896Y-9289984D01*
X2705896Y-9289984D02*
X2648753Y-9289984D01*
X2648753Y-9289984D02*
X2629706Y-9280460D01*
X2629706Y-9280460D02*
X2620182Y-9270936D01*
X2810658Y-9089984D02*
X2934467Y-9089984D01*
X2934467Y-9089984D02*
X2867801Y-9166174D01*
X2867801Y-9166174D02*
X2896372Y-9166174D01*
X2896372Y-9166174D02*
X2915420Y-9175698D01*
X2915420Y-9175698D02*
X2924944Y-9185222D01*
X2924944Y-9185222D02*
X2934467Y-9204270D01*
X2934467Y-9204270D02*
X2934467Y-9251889D01*
X2934467Y-9251889D02*
X2924944Y-9270936D01*
X2924944Y-9270936D02*
X2915420Y-9280460D01*
X2915420Y-9280460D02*
X2896372Y-9289984D01*
X2896372Y-9289984D02*
X2839229Y-9289984D01*
X2839229Y-9289984D02*
X2820182Y-9280460D01*
X2820182Y-9280460D02*
X2810658Y-9270936D01*
X3115420Y-9089984D02*
X3020182Y-9089984D01*
X3020182Y-9089984D02*
X3010658Y-9185222D01*
X3010658Y-9185222D02*
X3020182Y-9175698D01*
X3020182Y-9175698D02*
X3039229Y-9166174D01*
X3039229Y-9166174D02*
X3086848Y-9166174D01*
X3086848Y-9166174D02*
X3105896Y-9175698D01*
X3105896Y-9175698D02*
X3115420Y-9185222D01*
X3115420Y-9185222D02*
X3124944Y-9204270D01*
X3124944Y-9204270D02*
X3124944Y-9251889D01*
X3124944Y-9251889D02*
X3115420Y-9270936D01*
X3115420Y-9270936D02*
X3105896Y-9280460D01*
X3105896Y-9280460D02*
X3086848Y-9289984D01*
X3086848Y-9289984D02*
X3039229Y-9289984D01*
X3039229Y-9289984D02*
X3020182Y-9280460D01*
X3020182Y-9280460D02*
X3010658Y-9270936D01*
X3201134Y-9089984D02*
X3201134Y-9128079D01*
X3277325Y-9089984D02*
X3277325Y-9128079D01*
X3572563Y-9366174D02*
X3563039Y-9356650D01*
X3563039Y-9356650D02*
X3543991Y-9328079D01*
X3543991Y-9328079D02*
X3534468Y-9309031D01*
X3534468Y-9309031D02*
X3524944Y-9280460D01*
X3524944Y-9280460D02*
X3515420Y-9232841D01*
X3515420Y-9232841D02*
X3515420Y-9194746D01*
X3515420Y-9194746D02*
X3524944Y-9147127D01*
X3524944Y-9147127D02*
X3534468Y-9118555D01*
X3534468Y-9118555D02*
X3543991Y-9099508D01*
X3543991Y-9099508D02*
X3563039Y-9070936D01*
X3563039Y-9070936D02*
X3572563Y-9061412D01*
X3639229Y-9109031D02*
X3648753Y-9099508D01*
X3648753Y-9099508D02*
X3667801Y-9089984D01*
X3667801Y-9089984D02*
X3715420Y-9089984D01*
X3715420Y-9089984D02*
X3734468Y-9099508D01*
X3734468Y-9099508D02*
X3743991Y-9109031D01*
X3743991Y-9109031D02*
X3753515Y-9128079D01*
X3753515Y-9128079D02*
X3753515Y-9147127D01*
X3753515Y-9147127D02*
X3743991Y-9175698D01*
X3743991Y-9175698D02*
X3629706Y-9289984D01*
X3629706Y-9289984D02*
X3753515Y-9289984D01*
X3991610Y-9289984D02*
X3991610Y-9089984D01*
X4077325Y-9289984D02*
X4077325Y-9185222D01*
X4077325Y-9185222D02*
X4067801Y-9166174D01*
X4067801Y-9166174D02*
X4048753Y-9156650D01*
X4048753Y-9156650D02*
X4020182Y-9156650D01*
X4020182Y-9156650D02*
X4001134Y-9166174D01*
X4001134Y-9166174D02*
X3991610Y-9175698D01*
X4201134Y-9289984D02*
X4182087Y-9280460D01*
X4182087Y-9280460D02*
X4172563Y-9270936D01*
X4172563Y-9270936D02*
X4163039Y-9251889D01*
X4163039Y-9251889D02*
X4163039Y-9194746D01*
X4163039Y-9194746D02*
X4172563Y-9175698D01*
X4172563Y-9175698D02*
X4182087Y-9166174D01*
X4182087Y-9166174D02*
X4201134Y-9156650D01*
X4201134Y-9156650D02*
X4229706Y-9156650D01*
X4229706Y-9156650D02*
X4248753Y-9166174D01*
X4248753Y-9166174D02*
X4258277Y-9175698D01*
X4258277Y-9175698D02*
X4267801Y-9194746D01*
X4267801Y-9194746D02*
X4267801Y-9251889D01*
X4267801Y-9251889D02*
X4258277Y-9270936D01*
X4258277Y-9270936D02*
X4248753Y-9280460D01*
X4248753Y-9280460D02*
X4229706Y-9289984D01*
X4229706Y-9289984D02*
X4201134Y-9289984D01*
X4382087Y-9289984D02*
X4363039Y-9280460D01*
X4363039Y-9280460D02*
X4353515Y-9261412D01*
X4353515Y-9261412D02*
X4353515Y-9089984D01*
X4534468Y-9280460D02*
X4515420Y-9289984D01*
X4515420Y-9289984D02*
X4477325Y-9289984D01*
X4477325Y-9289984D02*
X4458277Y-9280460D01*
X4458277Y-9280460D02*
X4448753Y-9261412D01*
X4448753Y-9261412D02*
X4448753Y-9185222D01*
X4448753Y-9185222D02*
X4458277Y-9166174D01*
X4458277Y-9166174D02*
X4477325Y-9156650D01*
X4477325Y-9156650D02*
X4515420Y-9156650D01*
X4515420Y-9156650D02*
X4534468Y-9166174D01*
X4534468Y-9166174D02*
X4543992Y-9185222D01*
X4543992Y-9185222D02*
X4543992Y-9204270D01*
X4543992Y-9204270D02*
X4448753Y-9223317D01*
X4620182Y-9280460D02*
X4639230Y-9289984D01*
X4639230Y-9289984D02*
X4677325Y-9289984D01*
X4677325Y-9289984D02*
X4696373Y-9280460D01*
X4696373Y-9280460D02*
X4705896Y-9261412D01*
X4705896Y-9261412D02*
X4705896Y-9251889D01*
X4705896Y-9251889D02*
X4696373Y-9232841D01*
X4696373Y-9232841D02*
X4677325Y-9223317D01*
X4677325Y-9223317D02*
X4648753Y-9223317D01*
X4648753Y-9223317D02*
X4629706Y-9213793D01*
X4629706Y-9213793D02*
X4620182Y-9194746D01*
X4620182Y-9194746D02*
X4620182Y-9185222D01*
X4620182Y-9185222D02*
X4629706Y-9166174D01*
X4629706Y-9166174D02*
X4648753Y-9156650D01*
X4648753Y-9156650D02*
X4677325Y-9156650D01*
X4677325Y-9156650D02*
X4696373Y-9166174D01*
X4772563Y-9366174D02*
X4782087Y-9356650D01*
X4782087Y-9356650D02*
X4801134Y-9328079D01*
X4801134Y-9328079D02*
X4810658Y-9309031D01*
X4810658Y-9309031D02*
X4820182Y-9280460D01*
X4820182Y-9280460D02*
X4829706Y-9232841D01*
X4829706Y-9232841D02*
X4829706Y-9194746D01*
X4829706Y-9194746D02*
X4820182Y-9147127D01*
X4820182Y-9147127D02*
X4810658Y-9118555D01*
X4810658Y-9118555D02*
X4801134Y-9099508D01*
X4801134Y-9099508D02*
X4782087Y-9070936D01*
X4782087Y-9070936D02*
X4772563Y-9061412D01*
D12*
X-67500Y-9430000D02*
X-2500Y-9495000D01*
X-2500Y-9430000D02*
X-67500Y-9495000D01*
X-2500Y-9462500D02*
G75*
G02*
X-67500Y-9462500I-32500J0D01*
G01*
X-67500Y-9462500D02*
G75*
G02*
X-2500Y-9462500I32500J0D01*
G01*
D11*
X296372Y-9353984D02*
X315420Y-9353984D01*
X315420Y-9353984D02*
X334467Y-9363508D01*
X334467Y-9363508D02*
X343991Y-9373031D01*
X343991Y-9373031D02*
X353515Y-9392079D01*
X353515Y-9392079D02*
X363039Y-9430174D01*
X363039Y-9430174D02*
X363039Y-9477793D01*
X363039Y-9477793D02*
X353515Y-9515889D01*
X353515Y-9515889D02*
X343991Y-9534936D01*
X343991Y-9534936D02*
X334467Y-9544460D01*
X334467Y-9544460D02*
X315420Y-9553984D01*
X315420Y-9553984D02*
X296372Y-9553984D01*
X296372Y-9553984D02*
X277324Y-9544460D01*
X277324Y-9544460D02*
X267801Y-9534936D01*
X267801Y-9534936D02*
X258277Y-9515889D01*
X258277Y-9515889D02*
X248753Y-9477793D01*
X248753Y-9477793D02*
X248753Y-9430174D01*
X248753Y-9430174D02*
X258277Y-9392079D01*
X258277Y-9392079D02*
X267801Y-9373031D01*
X267801Y-9373031D02*
X277324Y-9363508D01*
X277324Y-9363508D02*
X296372Y-9353984D01*
X448753Y-9534936D02*
X458277Y-9544460D01*
X458277Y-9544460D02*
X448753Y-9553984D01*
X448753Y-9553984D02*
X439229Y-9544460D01*
X439229Y-9544460D02*
X448753Y-9534936D01*
X448753Y-9534936D02*
X448753Y-9553984D01*
X629705Y-9353984D02*
X591610Y-9353984D01*
X591610Y-9353984D02*
X572563Y-9363508D01*
X572563Y-9363508D02*
X563039Y-9373031D01*
X563039Y-9373031D02*
X543991Y-9401603D01*
X543991Y-9401603D02*
X534467Y-9439698D01*
X534467Y-9439698D02*
X534467Y-9515889D01*
X534467Y-9515889D02*
X543991Y-9534936D01*
X543991Y-9534936D02*
X553515Y-9544460D01*
X553515Y-9544460D02*
X572563Y-9553984D01*
X572563Y-9553984D02*
X610658Y-9553984D01*
X610658Y-9553984D02*
X629705Y-9544460D01*
X629705Y-9544460D02*
X639229Y-9534936D01*
X639229Y-9534936D02*
X648753Y-9515889D01*
X648753Y-9515889D02*
X648753Y-9468270D01*
X648753Y-9468270D02*
X639229Y-9449222D01*
X639229Y-9449222D02*
X629705Y-9439698D01*
X629705Y-9439698D02*
X610658Y-9430174D01*
X610658Y-9430174D02*
X572563Y-9430174D01*
X572563Y-9430174D02*
X553515Y-9439698D01*
X553515Y-9439698D02*
X543991Y-9449222D01*
X543991Y-9449222D02*
X534467Y-9468270D01*
X829705Y-9353984D02*
X734467Y-9353984D01*
X734467Y-9353984D02*
X724943Y-9449222D01*
X724943Y-9449222D02*
X734467Y-9439698D01*
X734467Y-9439698D02*
X753515Y-9430174D01*
X753515Y-9430174D02*
X801134Y-9430174D01*
X801134Y-9430174D02*
X820182Y-9439698D01*
X820182Y-9439698D02*
X829705Y-9449222D01*
X829705Y-9449222D02*
X839229Y-9468270D01*
X839229Y-9468270D02*
X839229Y-9515889D01*
X839229Y-9515889D02*
X829705Y-9534936D01*
X829705Y-9534936D02*
X820182Y-9544460D01*
X820182Y-9544460D02*
X801134Y-9553984D01*
X801134Y-9553984D02*
X753515Y-9553984D01*
X753515Y-9553984D02*
X734467Y-9544460D01*
X734467Y-9544460D02*
X724943Y-9534936D01*
X963039Y-9353984D02*
X982086Y-9353984D01*
X982086Y-9353984D02*
X1001134Y-9363508D01*
X1001134Y-9363508D02*
X1010658Y-9373031D01*
X1010658Y-9373031D02*
X1020182Y-9392079D01*
X1020182Y-9392079D02*
X1029705Y-9430174D01*
X1029705Y-9430174D02*
X1029705Y-9477793D01*
X1029705Y-9477793D02*
X1020182Y-9515889D01*
X1020182Y-9515889D02*
X1010658Y-9534936D01*
X1010658Y-9534936D02*
X1001134Y-9544460D01*
X1001134Y-9544460D02*
X982086Y-9553984D01*
X982086Y-9553984D02*
X963039Y-9553984D01*
X963039Y-9553984D02*
X943991Y-9544460D01*
X943991Y-9544460D02*
X934467Y-9534936D01*
X934467Y-9534936D02*
X924943Y-9515889D01*
X924943Y-9515889D02*
X915420Y-9477793D01*
X915420Y-9477793D02*
X915420Y-9430174D01*
X915420Y-9430174D02*
X924943Y-9392079D01*
X924943Y-9392079D02*
X934467Y-9373031D01*
X934467Y-9373031D02*
X943991Y-9363508D01*
X943991Y-9363508D02*
X963039Y-9353984D01*
X1115420Y-9553984D02*
X1115420Y-9420650D01*
X1115420Y-9439698D02*
X1124944Y-9430174D01*
X1124944Y-9430174D02*
X1143991Y-9420650D01*
X1143991Y-9420650D02*
X1172563Y-9420650D01*
X1172563Y-9420650D02*
X1191610Y-9430174D01*
X1191610Y-9430174D02*
X1201134Y-9449222D01*
X1201134Y-9449222D02*
X1201134Y-9553984D01*
X1201134Y-9449222D02*
X1210658Y-9430174D01*
X1210658Y-9430174D02*
X1229705Y-9420650D01*
X1229705Y-9420650D02*
X1258277Y-9420650D01*
X1258277Y-9420650D02*
X1277325Y-9430174D01*
X1277325Y-9430174D02*
X1286848Y-9449222D01*
X1286848Y-9449222D02*
X1286848Y-9553984D01*
X1382086Y-9553984D02*
X1382086Y-9420650D01*
X1382086Y-9439698D02*
X1391610Y-9430174D01*
X1391610Y-9430174D02*
X1410658Y-9420650D01*
X1410658Y-9420650D02*
X1439229Y-9420650D01*
X1439229Y-9420650D02*
X1458277Y-9430174D01*
X1458277Y-9430174D02*
X1467801Y-9449222D01*
X1467801Y-9449222D02*
X1467801Y-9553984D01*
X1467801Y-9449222D02*
X1477324Y-9430174D01*
X1477324Y-9430174D02*
X1496372Y-9420650D01*
X1496372Y-9420650D02*
X1524943Y-9420650D01*
X1524943Y-9420650D02*
X1543991Y-9430174D01*
X1543991Y-9430174D02*
X1553515Y-9449222D01*
X1553515Y-9449222D02*
X1553515Y-9553984D01*
X1943991Y-9344460D02*
X1772563Y-9601603D01*
X2201134Y-9353984D02*
X2220182Y-9353984D01*
X2220182Y-9353984D02*
X2239229Y-9363508D01*
X2239229Y-9363508D02*
X2248753Y-9373031D01*
X2248753Y-9373031D02*
X2258277Y-9392079D01*
X2258277Y-9392079D02*
X2267801Y-9430174D01*
X2267801Y-9430174D02*
X2267801Y-9477793D01*
X2267801Y-9477793D02*
X2258277Y-9515889D01*
X2258277Y-9515889D02*
X2248753Y-9534936D01*
X2248753Y-9534936D02*
X2239229Y-9544460D01*
X2239229Y-9544460D02*
X2220182Y-9553984D01*
X2220182Y-9553984D02*
X2201134Y-9553984D01*
X2201134Y-9553984D02*
X2182087Y-9544460D01*
X2182087Y-9544460D02*
X2172563Y-9534936D01*
X2172563Y-9534936D02*
X2163039Y-9515889D01*
X2163039Y-9515889D02*
X2153515Y-9477793D01*
X2153515Y-9477793D02*
X2153515Y-9430174D01*
X2153515Y-9430174D02*
X2163039Y-9392079D01*
X2163039Y-9392079D02*
X2172563Y-9373031D01*
X2172563Y-9373031D02*
X2182087Y-9363508D01*
X2182087Y-9363508D02*
X2201134Y-9353984D01*
X2353515Y-9534936D02*
X2363039Y-9544460D01*
X2363039Y-9544460D02*
X2353515Y-9553984D01*
X2353515Y-9553984D02*
X2343991Y-9544460D01*
X2343991Y-9544460D02*
X2353515Y-9534936D01*
X2353515Y-9534936D02*
X2353515Y-9553984D01*
X2486848Y-9353984D02*
X2505896Y-9353984D01*
X2505896Y-9353984D02*
X2524944Y-9363508D01*
X2524944Y-9363508D02*
X2534468Y-9373031D01*
X2534468Y-9373031D02*
X2543991Y-9392079D01*
X2543991Y-9392079D02*
X2553515Y-9430174D01*
X2553515Y-9430174D02*
X2553515Y-9477793D01*
X2553515Y-9477793D02*
X2543991Y-9515889D01*
X2543991Y-9515889D02*
X2534468Y-9534936D01*
X2534468Y-9534936D02*
X2524944Y-9544460D01*
X2524944Y-9544460D02*
X2505896Y-9553984D01*
X2505896Y-9553984D02*
X2486848Y-9553984D01*
X2486848Y-9553984D02*
X2467801Y-9544460D01*
X2467801Y-9544460D02*
X2458277Y-9534936D01*
X2458277Y-9534936D02*
X2448753Y-9515889D01*
X2448753Y-9515889D02*
X2439229Y-9477793D01*
X2439229Y-9477793D02*
X2439229Y-9430174D01*
X2439229Y-9430174D02*
X2448753Y-9392079D01*
X2448753Y-9392079D02*
X2458277Y-9373031D01*
X2458277Y-9373031D02*
X2467801Y-9363508D01*
X2467801Y-9363508D02*
X2486848Y-9353984D01*
X2629706Y-9373031D02*
X2639229Y-9363508D01*
X2639229Y-9363508D02*
X2658277Y-9353984D01*
X2658277Y-9353984D02*
X2705896Y-9353984D01*
X2705896Y-9353984D02*
X2724944Y-9363508D01*
X2724944Y-9363508D02*
X2734468Y-9373031D01*
X2734468Y-9373031D02*
X2743991Y-9392079D01*
X2743991Y-9392079D02*
X2743991Y-9411127D01*
X2743991Y-9411127D02*
X2734468Y-9439698D01*
X2734468Y-9439698D02*
X2620182Y-9553984D01*
X2620182Y-9553984D02*
X2743991Y-9553984D01*
X2924944Y-9353984D02*
X2829706Y-9353984D01*
X2829706Y-9353984D02*
X2820182Y-9449222D01*
X2820182Y-9449222D02*
X2829706Y-9439698D01*
X2829706Y-9439698D02*
X2848753Y-9430174D01*
X2848753Y-9430174D02*
X2896372Y-9430174D01*
X2896372Y-9430174D02*
X2915420Y-9439698D01*
X2915420Y-9439698D02*
X2924944Y-9449222D01*
X2924944Y-9449222D02*
X2934467Y-9468270D01*
X2934467Y-9468270D02*
X2934467Y-9515889D01*
X2934467Y-9515889D02*
X2924944Y-9534936D01*
X2924944Y-9534936D02*
X2915420Y-9544460D01*
X2915420Y-9544460D02*
X2896372Y-9553984D01*
X2896372Y-9553984D02*
X2848753Y-9553984D01*
X2848753Y-9553984D02*
X2829706Y-9544460D01*
X2829706Y-9544460D02*
X2820182Y-9534936D01*
X3105896Y-9353984D02*
X3067801Y-9353984D01*
X3067801Y-9353984D02*
X3048753Y-9363508D01*
X3048753Y-9363508D02*
X3039229Y-9373031D01*
X3039229Y-9373031D02*
X3020182Y-9401603D01*
X3020182Y-9401603D02*
X3010658Y-9439698D01*
X3010658Y-9439698D02*
X3010658Y-9515889D01*
X3010658Y-9515889D02*
X3020182Y-9534936D01*
X3020182Y-9534936D02*
X3029706Y-9544460D01*
X3029706Y-9544460D02*
X3048753Y-9553984D01*
X3048753Y-9553984D02*
X3086848Y-9553984D01*
X3086848Y-9553984D02*
X3105896Y-9544460D01*
X3105896Y-9544460D02*
X3115420Y-9534936D01*
X3115420Y-9534936D02*
X3124944Y-9515889D01*
X3124944Y-9515889D02*
X3124944Y-9468270D01*
X3124944Y-9468270D02*
X3115420Y-9449222D01*
X3115420Y-9449222D02*
X3105896Y-9439698D01*
X3105896Y-9439698D02*
X3086848Y-9430174D01*
X3086848Y-9430174D02*
X3048753Y-9430174D01*
X3048753Y-9430174D02*
X3029706Y-9439698D01*
X3029706Y-9439698D02*
X3020182Y-9449222D01*
X3020182Y-9449222D02*
X3010658Y-9468270D01*
X3201134Y-9353984D02*
X3201134Y-9392079D01*
X3277325Y-9353984D02*
X3277325Y-9392079D01*
X3572563Y-9630174D02*
X3563039Y-9620650D01*
X3563039Y-9620650D02*
X3543991Y-9592079D01*
X3543991Y-9592079D02*
X3534468Y-9573031D01*
X3534468Y-9573031D02*
X3524944Y-9544460D01*
X3524944Y-9544460D02*
X3515420Y-9496841D01*
X3515420Y-9496841D02*
X3515420Y-9458746D01*
X3515420Y-9458746D02*
X3524944Y-9411127D01*
X3524944Y-9411127D02*
X3534468Y-9382555D01*
X3534468Y-9382555D02*
X3543991Y-9363508D01*
X3543991Y-9363508D02*
X3563039Y-9334936D01*
X3563039Y-9334936D02*
X3572563Y-9325412D01*
X3639229Y-9373031D02*
X3648753Y-9363508D01*
X3648753Y-9363508D02*
X3667801Y-9353984D01*
X3667801Y-9353984D02*
X3715420Y-9353984D01*
X3715420Y-9353984D02*
X3734468Y-9363508D01*
X3734468Y-9363508D02*
X3743991Y-9373031D01*
X3743991Y-9373031D02*
X3753515Y-9392079D01*
X3753515Y-9392079D02*
X3753515Y-9411127D01*
X3753515Y-9411127D02*
X3743991Y-9439698D01*
X3743991Y-9439698D02*
X3629706Y-9553984D01*
X3629706Y-9553984D02*
X3753515Y-9553984D01*
X3991610Y-9553984D02*
X3991610Y-9353984D01*
X4077325Y-9553984D02*
X4077325Y-9449222D01*
X4077325Y-9449222D02*
X4067801Y-9430174D01*
X4067801Y-9430174D02*
X4048753Y-9420650D01*
X4048753Y-9420650D02*
X4020182Y-9420650D01*
X4020182Y-9420650D02*
X4001134Y-9430174D01*
X4001134Y-9430174D02*
X3991610Y-9439698D01*
X4201134Y-9553984D02*
X4182087Y-9544460D01*
X4182087Y-9544460D02*
X4172563Y-9534936D01*
X4172563Y-9534936D02*
X4163039Y-9515889D01*
X4163039Y-9515889D02*
X4163039Y-9458746D01*
X4163039Y-9458746D02*
X4172563Y-9439698D01*
X4172563Y-9439698D02*
X4182087Y-9430174D01*
X4182087Y-9430174D02*
X4201134Y-9420650D01*
X4201134Y-9420650D02*
X4229706Y-9420650D01*
X4229706Y-9420650D02*
X4248753Y-9430174D01*
X4248753Y-9430174D02*
X4258277Y-9439698D01*
X4258277Y-9439698D02*
X4267801Y-9458746D01*
X4267801Y-9458746D02*
X4267801Y-9515889D01*
X4267801Y-9515889D02*
X4258277Y-9534936D01*
X4258277Y-9534936D02*
X4248753Y-9544460D01*
X4248753Y-9544460D02*
X4229706Y-9553984D01*
X4229706Y-9553984D02*
X4201134Y-9553984D01*
X4382087Y-9553984D02*
X4363039Y-9544460D01*
X4363039Y-9544460D02*
X4353515Y-9525412D01*
X4353515Y-9525412D02*
X4353515Y-9353984D01*
X4534468Y-9544460D02*
X4515420Y-9553984D01*
X4515420Y-9553984D02*
X4477325Y-9553984D01*
X4477325Y-9553984D02*
X4458277Y-9544460D01*
X4458277Y-9544460D02*
X4448753Y-9525412D01*
X4448753Y-9525412D02*
X4448753Y-9449222D01*
X4448753Y-9449222D02*
X4458277Y-9430174D01*
X4458277Y-9430174D02*
X4477325Y-9420650D01*
X4477325Y-9420650D02*
X4515420Y-9420650D01*
X4515420Y-9420650D02*
X4534468Y-9430174D01*
X4534468Y-9430174D02*
X4543992Y-9449222D01*
X4543992Y-9449222D02*
X4543992Y-9468270D01*
X4543992Y-9468270D02*
X4448753Y-9487317D01*
X4620182Y-9544460D02*
X4639230Y-9553984D01*
X4639230Y-9553984D02*
X4677325Y-9553984D01*
X4677325Y-9553984D02*
X4696373Y-9544460D01*
X4696373Y-9544460D02*
X4705896Y-9525412D01*
X4705896Y-9525412D02*
X4705896Y-9515889D01*
X4705896Y-9515889D02*
X4696373Y-9496841D01*
X4696373Y-9496841D02*
X4677325Y-9487317D01*
X4677325Y-9487317D02*
X4648753Y-9487317D01*
X4648753Y-9487317D02*
X4629706Y-9477793D01*
X4629706Y-9477793D02*
X4620182Y-9458746D01*
X4620182Y-9458746D02*
X4620182Y-9449222D01*
X4620182Y-9449222D02*
X4629706Y-9430174D01*
X4629706Y-9430174D02*
X4648753Y-9420650D01*
X4648753Y-9420650D02*
X4677325Y-9420650D01*
X4677325Y-9420650D02*
X4696373Y-9430174D01*
X4772563Y-9630174D02*
X4782087Y-9620650D01*
X4782087Y-9620650D02*
X4801134Y-9592079D01*
X4801134Y-9592079D02*
X4810658Y-9573031D01*
X4810658Y-9573031D02*
X4820182Y-9544460D01*
X4820182Y-9544460D02*
X4829706Y-9496841D01*
X4829706Y-9496841D02*
X4829706Y-9458746D01*
X4829706Y-9458746D02*
X4820182Y-9411127D01*
X4820182Y-9411127D02*
X4810658Y-9382555D01*
X4810658Y-9382555D02*
X4801134Y-9363508D01*
X4801134Y-9363508D02*
X4782087Y-9334936D01*
X4782087Y-9334936D02*
X4772563Y-9325412D01*
X5134468Y-9630174D02*
X5124944Y-9620650D01*
X5124944Y-9620650D02*
X5105896Y-9592079D01*
X5105896Y-9592079D02*
X5096373Y-9573031D01*
X5096373Y-9573031D02*
X5086849Y-9544460D01*
X5086849Y-9544460D02*
X5077325Y-9496841D01*
X5077325Y-9496841D02*
X5077325Y-9458746D01*
X5077325Y-9458746D02*
X5086849Y-9411127D01*
X5086849Y-9411127D02*
X5096373Y-9382555D01*
X5096373Y-9382555D02*
X5105896Y-9363508D01*
X5105896Y-9363508D02*
X5124944Y-9334936D01*
X5124944Y-9334936D02*
X5134468Y-9325412D01*
X5210658Y-9420650D02*
X5210658Y-9553984D01*
X5210658Y-9439698D02*
X5220182Y-9430174D01*
X5220182Y-9430174D02*
X5239230Y-9420650D01*
X5239230Y-9420650D02*
X5267801Y-9420650D01*
X5267801Y-9420650D02*
X5286849Y-9430174D01*
X5286849Y-9430174D02*
X5296373Y-9449222D01*
X5296373Y-9449222D02*
X5296373Y-9553984D01*
X5420182Y-9553984D02*
X5401134Y-9544460D01*
X5401134Y-9544460D02*
X5391611Y-9534936D01*
X5391611Y-9534936D02*
X5382087Y-9515889D01*
X5382087Y-9515889D02*
X5382087Y-9458746D01*
X5382087Y-9458746D02*
X5391611Y-9439698D01*
X5391611Y-9439698D02*
X5401134Y-9430174D01*
X5401134Y-9430174D02*
X5420182Y-9420650D01*
X5420182Y-9420650D02*
X5448754Y-9420650D01*
X5448754Y-9420650D02*
X5467801Y-9430174D01*
X5467801Y-9430174D02*
X5477325Y-9439698D01*
X5477325Y-9439698D02*
X5486849Y-9458746D01*
X5486849Y-9458746D02*
X5486849Y-9515889D01*
X5486849Y-9515889D02*
X5477325Y-9534936D01*
X5477325Y-9534936D02*
X5467801Y-9544460D01*
X5467801Y-9544460D02*
X5448754Y-9553984D01*
X5448754Y-9553984D02*
X5420182Y-9553984D01*
X5543992Y-9420650D02*
X5620182Y-9420650D01*
X5572563Y-9353984D02*
X5572563Y-9525412D01*
X5572563Y-9525412D02*
X5582087Y-9544460D01*
X5582087Y-9544460D02*
X5601134Y-9553984D01*
X5601134Y-9553984D02*
X5620182Y-9553984D01*
X5839230Y-9420650D02*
X5839230Y-9620650D01*
X5839230Y-9430174D02*
X5858277Y-9420650D01*
X5858277Y-9420650D02*
X5896373Y-9420650D01*
X5896373Y-9420650D02*
X5915420Y-9430174D01*
X5915420Y-9430174D02*
X5924944Y-9439698D01*
X5924944Y-9439698D02*
X5934468Y-9458746D01*
X5934468Y-9458746D02*
X5934468Y-9515889D01*
X5934468Y-9515889D02*
X5924944Y-9534936D01*
X5924944Y-9534936D02*
X5915420Y-9544460D01*
X5915420Y-9544460D02*
X5896373Y-9553984D01*
X5896373Y-9553984D02*
X5858277Y-9553984D01*
X5858277Y-9553984D02*
X5839230Y-9544460D01*
X6048753Y-9553984D02*
X6029706Y-9544460D01*
X6029706Y-9544460D02*
X6020182Y-9525412D01*
X6020182Y-9525412D02*
X6020182Y-9353984D01*
X6210658Y-9553984D02*
X6210658Y-9449222D01*
X6210658Y-9449222D02*
X6201134Y-9430174D01*
X6201134Y-9430174D02*
X6182087Y-9420650D01*
X6182087Y-9420650D02*
X6143992Y-9420650D01*
X6143992Y-9420650D02*
X6124944Y-9430174D01*
X6210658Y-9544460D02*
X6191611Y-9553984D01*
X6191611Y-9553984D02*
X6143992Y-9553984D01*
X6143992Y-9553984D02*
X6124944Y-9544460D01*
X6124944Y-9544460D02*
X6115420Y-9525412D01*
X6115420Y-9525412D02*
X6115420Y-9506365D01*
X6115420Y-9506365D02*
X6124944Y-9487317D01*
X6124944Y-9487317D02*
X6143992Y-9477793D01*
X6143992Y-9477793D02*
X6191611Y-9477793D01*
X6191611Y-9477793D02*
X6210658Y-9468270D01*
X6277325Y-9420650D02*
X6353515Y-9420650D01*
X6305896Y-9353984D02*
X6305896Y-9525412D01*
X6305896Y-9525412D02*
X6315420Y-9544460D01*
X6315420Y-9544460D02*
X6334468Y-9553984D01*
X6334468Y-9553984D02*
X6353515Y-9553984D01*
X6496373Y-9544460D02*
X6477325Y-9553984D01*
X6477325Y-9553984D02*
X6439230Y-9553984D01*
X6439230Y-9553984D02*
X6420182Y-9544460D01*
X6420182Y-9544460D02*
X6410658Y-9525412D01*
X6410658Y-9525412D02*
X6410658Y-9449222D01*
X6410658Y-9449222D02*
X6420182Y-9430174D01*
X6420182Y-9430174D02*
X6439230Y-9420650D01*
X6439230Y-9420650D02*
X6477325Y-9420650D01*
X6477325Y-9420650D02*
X6496373Y-9430174D01*
X6496373Y-9430174D02*
X6505896Y-9449222D01*
X6505896Y-9449222D02*
X6505896Y-9468270D01*
X6505896Y-9468270D02*
X6410658Y-9487317D01*
X6677325Y-9553984D02*
X6677325Y-9353984D01*
X6677325Y-9544460D02*
X6658277Y-9553984D01*
X6658277Y-9553984D02*
X6620182Y-9553984D01*
X6620182Y-9553984D02*
X6601134Y-9544460D01*
X6601134Y-9544460D02*
X6591611Y-9534936D01*
X6591611Y-9534936D02*
X6582087Y-9515889D01*
X6582087Y-9515889D02*
X6582087Y-9458746D01*
X6582087Y-9458746D02*
X6591611Y-9439698D01*
X6591611Y-9439698D02*
X6601134Y-9430174D01*
X6601134Y-9430174D02*
X6620182Y-9420650D01*
X6620182Y-9420650D02*
X6658277Y-9420650D01*
X6658277Y-9420650D02*
X6677325Y-9430174D01*
X6753515Y-9630174D02*
X6763039Y-9620650D01*
X6763039Y-9620650D02*
X6782087Y-9592079D01*
X6782087Y-9592079D02*
X6791611Y-9573031D01*
X6791611Y-9573031D02*
X6801134Y-9544460D01*
X6801134Y-9544460D02*
X6810658Y-9496841D01*
X6810658Y-9496841D02*
X6810658Y-9458746D01*
X6810658Y-9458746D02*
X6801134Y-9411127D01*
X6801134Y-9411127D02*
X6791611Y-9382555D01*
X6791611Y-9382555D02*
X6782087Y-9363508D01*
X6782087Y-9363508D02*
X6763039Y-9334936D01*
X6763039Y-9334936D02*
X6753515Y-9325412D01*
D12*
X-92500Y-9681500D02*
X-2500Y-9771500D01*
X-2500Y-9681500D02*
X-92500Y-9771500D01*
X-47500Y-9681500D02*
X-47500Y-9771500D01*
X-92500Y-9726500D02*
X-2500Y-9726500D01*
D11*
X296372Y-9617984D02*
X315420Y-9617984D01*
X315420Y-9617984D02*
X334467Y-9627508D01*
X334467Y-9627508D02*
X343991Y-9637031D01*
X343991Y-9637031D02*
X353515Y-9656079D01*
X353515Y-9656079D02*
X363039Y-9694174D01*
X363039Y-9694174D02*
X363039Y-9741793D01*
X363039Y-9741793D02*
X353515Y-9779889D01*
X353515Y-9779889D02*
X343991Y-9798936D01*
X343991Y-9798936D02*
X334467Y-9808460D01*
X334467Y-9808460D02*
X315420Y-9817984D01*
X315420Y-9817984D02*
X296372Y-9817984D01*
X296372Y-9817984D02*
X277324Y-9808460D01*
X277324Y-9808460D02*
X267801Y-9798936D01*
X267801Y-9798936D02*
X258277Y-9779889D01*
X258277Y-9779889D02*
X248753Y-9741793D01*
X248753Y-9741793D02*
X248753Y-9694174D01*
X248753Y-9694174D02*
X258277Y-9656079D01*
X258277Y-9656079D02*
X267801Y-9637031D01*
X267801Y-9637031D02*
X277324Y-9627508D01*
X277324Y-9627508D02*
X296372Y-9617984D01*
X448753Y-9798936D02*
X458277Y-9808460D01*
X458277Y-9808460D02*
X448753Y-9817984D01*
X448753Y-9817984D02*
X439229Y-9808460D01*
X439229Y-9808460D02*
X448753Y-9798936D01*
X448753Y-9798936D02*
X448753Y-9817984D01*
X553515Y-9817984D02*
X591610Y-9817984D01*
X591610Y-9817984D02*
X610658Y-9808460D01*
X610658Y-9808460D02*
X620182Y-9798936D01*
X620182Y-9798936D02*
X639229Y-9770365D01*
X639229Y-9770365D02*
X648753Y-9732270D01*
X648753Y-9732270D02*
X648753Y-9656079D01*
X648753Y-9656079D02*
X639229Y-9637031D01*
X639229Y-9637031D02*
X629705Y-9627508D01*
X629705Y-9627508D02*
X610658Y-9617984D01*
X610658Y-9617984D02*
X572563Y-9617984D01*
X572563Y-9617984D02*
X553515Y-9627508D01*
X553515Y-9627508D02*
X543991Y-9637031D01*
X543991Y-9637031D02*
X534467Y-9656079D01*
X534467Y-9656079D02*
X534467Y-9703698D01*
X534467Y-9703698D02*
X543991Y-9722746D01*
X543991Y-9722746D02*
X553515Y-9732270D01*
X553515Y-9732270D02*
X572563Y-9741793D01*
X572563Y-9741793D02*
X610658Y-9741793D01*
X610658Y-9741793D02*
X629705Y-9732270D01*
X629705Y-9732270D02*
X639229Y-9722746D01*
X639229Y-9722746D02*
X648753Y-9703698D01*
X772562Y-9617984D02*
X791610Y-9617984D01*
X791610Y-9617984D02*
X810658Y-9627508D01*
X810658Y-9627508D02*
X820182Y-9637031D01*
X820182Y-9637031D02*
X829705Y-9656079D01*
X829705Y-9656079D02*
X839229Y-9694174D01*
X839229Y-9694174D02*
X839229Y-9741793D01*
X839229Y-9741793D02*
X829705Y-9779889D01*
X829705Y-9779889D02*
X820182Y-9798936D01*
X820182Y-9798936D02*
X810658Y-9808460D01*
X810658Y-9808460D02*
X791610Y-9817984D01*
X791610Y-9817984D02*
X772562Y-9817984D01*
X772562Y-9817984D02*
X753515Y-9808460D01*
X753515Y-9808460D02*
X743991Y-9798936D01*
X743991Y-9798936D02*
X734467Y-9779889D01*
X734467Y-9779889D02*
X724943Y-9741793D01*
X724943Y-9741793D02*
X724943Y-9694174D01*
X724943Y-9694174D02*
X734467Y-9656079D01*
X734467Y-9656079D02*
X743991Y-9637031D01*
X743991Y-9637031D02*
X753515Y-9627508D01*
X753515Y-9627508D02*
X772562Y-9617984D01*
X963039Y-9617984D02*
X982086Y-9617984D01*
X982086Y-9617984D02*
X1001134Y-9627508D01*
X1001134Y-9627508D02*
X1010658Y-9637031D01*
X1010658Y-9637031D02*
X1020182Y-9656079D01*
X1020182Y-9656079D02*
X1029705Y-9694174D01*
X1029705Y-9694174D02*
X1029705Y-9741793D01*
X1029705Y-9741793D02*
X1020182Y-9779889D01*
X1020182Y-9779889D02*
X1010658Y-9798936D01*
X1010658Y-9798936D02*
X1001134Y-9808460D01*
X1001134Y-9808460D02*
X982086Y-9817984D01*
X982086Y-9817984D02*
X963039Y-9817984D01*
X963039Y-9817984D02*
X943991Y-9808460D01*
X943991Y-9808460D02*
X934467Y-9798936D01*
X934467Y-9798936D02*
X924943Y-9779889D01*
X924943Y-9779889D02*
X915420Y-9741793D01*
X915420Y-9741793D02*
X915420Y-9694174D01*
X915420Y-9694174D02*
X924943Y-9656079D01*
X924943Y-9656079D02*
X934467Y-9637031D01*
X934467Y-9637031D02*
X943991Y-9627508D01*
X943991Y-9627508D02*
X963039Y-9617984D01*
X1115420Y-9817984D02*
X1115420Y-9684650D01*
X1115420Y-9703698D02*
X1124944Y-9694174D01*
X1124944Y-9694174D02*
X1143991Y-9684650D01*
X1143991Y-9684650D02*
X1172563Y-9684650D01*
X1172563Y-9684650D02*
X1191610Y-9694174D01*
X1191610Y-9694174D02*
X1201134Y-9713222D01*
X1201134Y-9713222D02*
X1201134Y-9817984D01*
X1201134Y-9713222D02*
X1210658Y-9694174D01*
X1210658Y-9694174D02*
X1229705Y-9684650D01*
X1229705Y-9684650D02*
X1258277Y-9684650D01*
X1258277Y-9684650D02*
X1277325Y-9694174D01*
X1277325Y-9694174D02*
X1286848Y-9713222D01*
X1286848Y-9713222D02*
X1286848Y-9817984D01*
X1382086Y-9817984D02*
X1382086Y-9684650D01*
X1382086Y-9703698D02*
X1391610Y-9694174D01*
X1391610Y-9694174D02*
X1410658Y-9684650D01*
X1410658Y-9684650D02*
X1439229Y-9684650D01*
X1439229Y-9684650D02*
X1458277Y-9694174D01*
X1458277Y-9694174D02*
X1467801Y-9713222D01*
X1467801Y-9713222D02*
X1467801Y-9817984D01*
X1467801Y-9713222D02*
X1477324Y-9694174D01*
X1477324Y-9694174D02*
X1496372Y-9684650D01*
X1496372Y-9684650D02*
X1524943Y-9684650D01*
X1524943Y-9684650D02*
X1543991Y-9694174D01*
X1543991Y-9694174D02*
X1553515Y-9713222D01*
X1553515Y-9713222D02*
X1553515Y-9817984D01*
X1943991Y-9608460D02*
X1772563Y-9865603D01*
X2201134Y-9617984D02*
X2220182Y-9617984D01*
X2220182Y-9617984D02*
X2239229Y-9627508D01*
X2239229Y-9627508D02*
X2248753Y-9637031D01*
X2248753Y-9637031D02*
X2258277Y-9656079D01*
X2258277Y-9656079D02*
X2267801Y-9694174D01*
X2267801Y-9694174D02*
X2267801Y-9741793D01*
X2267801Y-9741793D02*
X2258277Y-9779889D01*
X2258277Y-9779889D02*
X2248753Y-9798936D01*
X2248753Y-9798936D02*
X2239229Y-9808460D01*
X2239229Y-9808460D02*
X2220182Y-9817984D01*
X2220182Y-9817984D02*
X2201134Y-9817984D01*
X2201134Y-9817984D02*
X2182087Y-9808460D01*
X2182087Y-9808460D02*
X2172563Y-9798936D01*
X2172563Y-9798936D02*
X2163039Y-9779889D01*
X2163039Y-9779889D02*
X2153515Y-9741793D01*
X2153515Y-9741793D02*
X2153515Y-9694174D01*
X2153515Y-9694174D02*
X2163039Y-9656079D01*
X2163039Y-9656079D02*
X2172563Y-9637031D01*
X2172563Y-9637031D02*
X2182087Y-9627508D01*
X2182087Y-9627508D02*
X2201134Y-9617984D01*
X2353515Y-9798936D02*
X2363039Y-9808460D01*
X2363039Y-9808460D02*
X2353515Y-9817984D01*
X2353515Y-9817984D02*
X2343991Y-9808460D01*
X2343991Y-9808460D02*
X2353515Y-9798936D01*
X2353515Y-9798936D02*
X2353515Y-9817984D01*
X2486848Y-9617984D02*
X2505896Y-9617984D01*
X2505896Y-9617984D02*
X2524944Y-9627508D01*
X2524944Y-9627508D02*
X2534468Y-9637031D01*
X2534468Y-9637031D02*
X2543991Y-9656079D01*
X2543991Y-9656079D02*
X2553515Y-9694174D01*
X2553515Y-9694174D02*
X2553515Y-9741793D01*
X2553515Y-9741793D02*
X2543991Y-9779889D01*
X2543991Y-9779889D02*
X2534468Y-9798936D01*
X2534468Y-9798936D02*
X2524944Y-9808460D01*
X2524944Y-9808460D02*
X2505896Y-9817984D01*
X2505896Y-9817984D02*
X2486848Y-9817984D01*
X2486848Y-9817984D02*
X2467801Y-9808460D01*
X2467801Y-9808460D02*
X2458277Y-9798936D01*
X2458277Y-9798936D02*
X2448753Y-9779889D01*
X2448753Y-9779889D02*
X2439229Y-9741793D01*
X2439229Y-9741793D02*
X2439229Y-9694174D01*
X2439229Y-9694174D02*
X2448753Y-9656079D01*
X2448753Y-9656079D02*
X2458277Y-9637031D01*
X2458277Y-9637031D02*
X2467801Y-9627508D01*
X2467801Y-9627508D02*
X2486848Y-9617984D01*
X2620182Y-9617984D02*
X2743991Y-9617984D01*
X2743991Y-9617984D02*
X2677325Y-9694174D01*
X2677325Y-9694174D02*
X2705896Y-9694174D01*
X2705896Y-9694174D02*
X2724944Y-9703698D01*
X2724944Y-9703698D02*
X2734468Y-9713222D01*
X2734468Y-9713222D02*
X2743991Y-9732270D01*
X2743991Y-9732270D02*
X2743991Y-9779889D01*
X2743991Y-9779889D02*
X2734468Y-9798936D01*
X2734468Y-9798936D02*
X2724944Y-9808460D01*
X2724944Y-9808460D02*
X2705896Y-9817984D01*
X2705896Y-9817984D02*
X2648753Y-9817984D01*
X2648753Y-9817984D02*
X2629706Y-9808460D01*
X2629706Y-9808460D02*
X2620182Y-9798936D01*
X2924944Y-9617984D02*
X2829706Y-9617984D01*
X2829706Y-9617984D02*
X2820182Y-9713222D01*
X2820182Y-9713222D02*
X2829706Y-9703698D01*
X2829706Y-9703698D02*
X2848753Y-9694174D01*
X2848753Y-9694174D02*
X2896372Y-9694174D01*
X2896372Y-9694174D02*
X2915420Y-9703698D01*
X2915420Y-9703698D02*
X2924944Y-9713222D01*
X2924944Y-9713222D02*
X2934467Y-9732270D01*
X2934467Y-9732270D02*
X2934467Y-9779889D01*
X2934467Y-9779889D02*
X2924944Y-9798936D01*
X2924944Y-9798936D02*
X2915420Y-9808460D01*
X2915420Y-9808460D02*
X2896372Y-9817984D01*
X2896372Y-9817984D02*
X2848753Y-9817984D01*
X2848753Y-9817984D02*
X2829706Y-9808460D01*
X2829706Y-9808460D02*
X2820182Y-9798936D01*
X3105896Y-9684650D02*
X3105896Y-9817984D01*
X3058277Y-9608460D02*
X3010658Y-9751317D01*
X3010658Y-9751317D02*
X3134467Y-9751317D01*
X3201134Y-9617984D02*
X3201134Y-9656079D01*
X3277325Y-9617984D02*
X3277325Y-9656079D01*
X3572563Y-9894174D02*
X3563039Y-9884650D01*
X3563039Y-9884650D02*
X3543991Y-9856079D01*
X3543991Y-9856079D02*
X3534468Y-9837031D01*
X3534468Y-9837031D02*
X3524944Y-9808460D01*
X3524944Y-9808460D02*
X3515420Y-9760841D01*
X3515420Y-9760841D02*
X3515420Y-9722746D01*
X3515420Y-9722746D02*
X3524944Y-9675127D01*
X3524944Y-9675127D02*
X3534468Y-9646555D01*
X3534468Y-9646555D02*
X3543991Y-9627508D01*
X3543991Y-9627508D02*
X3563039Y-9598936D01*
X3563039Y-9598936D02*
X3572563Y-9589412D01*
X3639229Y-9637031D02*
X3648753Y-9627508D01*
X3648753Y-9627508D02*
X3667801Y-9617984D01*
X3667801Y-9617984D02*
X3715420Y-9617984D01*
X3715420Y-9617984D02*
X3734468Y-9627508D01*
X3734468Y-9627508D02*
X3743991Y-9637031D01*
X3743991Y-9637031D02*
X3753515Y-9656079D01*
X3753515Y-9656079D02*
X3753515Y-9675127D01*
X3753515Y-9675127D02*
X3743991Y-9703698D01*
X3743991Y-9703698D02*
X3629706Y-9817984D01*
X3629706Y-9817984D02*
X3753515Y-9817984D01*
X3991610Y-9817984D02*
X3991610Y-9617984D01*
X4077325Y-9817984D02*
X4077325Y-9713222D01*
X4077325Y-9713222D02*
X4067801Y-9694174D01*
X4067801Y-9694174D02*
X4048753Y-9684650D01*
X4048753Y-9684650D02*
X4020182Y-9684650D01*
X4020182Y-9684650D02*
X4001134Y-9694174D01*
X4001134Y-9694174D02*
X3991610Y-9703698D01*
X4201134Y-9817984D02*
X4182087Y-9808460D01*
X4182087Y-9808460D02*
X4172563Y-9798936D01*
X4172563Y-9798936D02*
X4163039Y-9779889D01*
X4163039Y-9779889D02*
X4163039Y-9722746D01*
X4163039Y-9722746D02*
X4172563Y-9703698D01*
X4172563Y-9703698D02*
X4182087Y-9694174D01*
X4182087Y-9694174D02*
X4201134Y-9684650D01*
X4201134Y-9684650D02*
X4229706Y-9684650D01*
X4229706Y-9684650D02*
X4248753Y-9694174D01*
X4248753Y-9694174D02*
X4258277Y-9703698D01*
X4258277Y-9703698D02*
X4267801Y-9722746D01*
X4267801Y-9722746D02*
X4267801Y-9779889D01*
X4267801Y-9779889D02*
X4258277Y-9798936D01*
X4258277Y-9798936D02*
X4248753Y-9808460D01*
X4248753Y-9808460D02*
X4229706Y-9817984D01*
X4229706Y-9817984D02*
X4201134Y-9817984D01*
X4382087Y-9817984D02*
X4363039Y-9808460D01*
X4363039Y-9808460D02*
X4353515Y-9789412D01*
X4353515Y-9789412D02*
X4353515Y-9617984D01*
X4534468Y-9808460D02*
X4515420Y-9817984D01*
X4515420Y-9817984D02*
X4477325Y-9817984D01*
X4477325Y-9817984D02*
X4458277Y-9808460D01*
X4458277Y-9808460D02*
X4448753Y-9789412D01*
X4448753Y-9789412D02*
X4448753Y-9713222D01*
X4448753Y-9713222D02*
X4458277Y-9694174D01*
X4458277Y-9694174D02*
X4477325Y-9684650D01*
X4477325Y-9684650D02*
X4515420Y-9684650D01*
X4515420Y-9684650D02*
X4534468Y-9694174D01*
X4534468Y-9694174D02*
X4543992Y-9713222D01*
X4543992Y-9713222D02*
X4543992Y-9732270D01*
X4543992Y-9732270D02*
X4448753Y-9751317D01*
X4620182Y-9808460D02*
X4639230Y-9817984D01*
X4639230Y-9817984D02*
X4677325Y-9817984D01*
X4677325Y-9817984D02*
X4696373Y-9808460D01*
X4696373Y-9808460D02*
X4705896Y-9789412D01*
X4705896Y-9789412D02*
X4705896Y-9779889D01*
X4705896Y-9779889D02*
X4696373Y-9760841D01*
X4696373Y-9760841D02*
X4677325Y-9751317D01*
X4677325Y-9751317D02*
X4648753Y-9751317D01*
X4648753Y-9751317D02*
X4629706Y-9741793D01*
X4629706Y-9741793D02*
X4620182Y-9722746D01*
X4620182Y-9722746D02*
X4620182Y-9713222D01*
X4620182Y-9713222D02*
X4629706Y-9694174D01*
X4629706Y-9694174D02*
X4648753Y-9684650D01*
X4648753Y-9684650D02*
X4677325Y-9684650D01*
X4677325Y-9684650D02*
X4696373Y-9694174D01*
X4772563Y-9894174D02*
X4782087Y-9884650D01*
X4782087Y-9884650D02*
X4801134Y-9856079D01*
X4801134Y-9856079D02*
X4810658Y-9837031D01*
X4810658Y-9837031D02*
X4820182Y-9808460D01*
X4820182Y-9808460D02*
X4829706Y-9760841D01*
X4829706Y-9760841D02*
X4829706Y-9722746D01*
X4829706Y-9722746D02*
X4820182Y-9675127D01*
X4820182Y-9675127D02*
X4810658Y-9646555D01*
X4810658Y-9646555D02*
X4801134Y-9627508D01*
X4801134Y-9627508D02*
X4782087Y-9598936D01*
X4782087Y-9598936D02*
X4772563Y-9589412D01*
X5134468Y-9894174D02*
X5124944Y-9884650D01*
X5124944Y-9884650D02*
X5105896Y-9856079D01*
X5105896Y-9856079D02*
X5096373Y-9837031D01*
X5096373Y-9837031D02*
X5086849Y-9808460D01*
X5086849Y-9808460D02*
X5077325Y-9760841D01*
X5077325Y-9760841D02*
X5077325Y-9722746D01*
X5077325Y-9722746D02*
X5086849Y-9675127D01*
X5086849Y-9675127D02*
X5096373Y-9646555D01*
X5096373Y-9646555D02*
X5105896Y-9627508D01*
X5105896Y-9627508D02*
X5124944Y-9598936D01*
X5124944Y-9598936D02*
X5134468Y-9589412D01*
X5210658Y-9684650D02*
X5210658Y-9817984D01*
X5210658Y-9703698D02*
X5220182Y-9694174D01*
X5220182Y-9694174D02*
X5239230Y-9684650D01*
X5239230Y-9684650D02*
X5267801Y-9684650D01*
X5267801Y-9684650D02*
X5286849Y-9694174D01*
X5286849Y-9694174D02*
X5296373Y-9713222D01*
X5296373Y-9713222D02*
X5296373Y-9817984D01*
X5420182Y-9817984D02*
X5401134Y-9808460D01*
X5401134Y-9808460D02*
X5391611Y-9798936D01*
X5391611Y-9798936D02*
X5382087Y-9779889D01*
X5382087Y-9779889D02*
X5382087Y-9722746D01*
X5382087Y-9722746D02*
X5391611Y-9703698D01*
X5391611Y-9703698D02*
X5401134Y-9694174D01*
X5401134Y-9694174D02*
X5420182Y-9684650D01*
X5420182Y-9684650D02*
X5448754Y-9684650D01*
X5448754Y-9684650D02*
X5467801Y-9694174D01*
X5467801Y-9694174D02*
X5477325Y-9703698D01*
X5477325Y-9703698D02*
X5486849Y-9722746D01*
X5486849Y-9722746D02*
X5486849Y-9779889D01*
X5486849Y-9779889D02*
X5477325Y-9798936D01*
X5477325Y-9798936D02*
X5467801Y-9808460D01*
X5467801Y-9808460D02*
X5448754Y-9817984D01*
X5448754Y-9817984D02*
X5420182Y-9817984D01*
X5543992Y-9684650D02*
X5620182Y-9684650D01*
X5572563Y-9617984D02*
X5572563Y-9789412D01*
X5572563Y-9789412D02*
X5582087Y-9808460D01*
X5582087Y-9808460D02*
X5601134Y-9817984D01*
X5601134Y-9817984D02*
X5620182Y-9817984D01*
X5839230Y-9684650D02*
X5839230Y-9884650D01*
X5839230Y-9694174D02*
X5858277Y-9684650D01*
X5858277Y-9684650D02*
X5896373Y-9684650D01*
X5896373Y-9684650D02*
X5915420Y-9694174D01*
X5915420Y-9694174D02*
X5924944Y-9703698D01*
X5924944Y-9703698D02*
X5934468Y-9722746D01*
X5934468Y-9722746D02*
X5934468Y-9779889D01*
X5934468Y-9779889D02*
X5924944Y-9798936D01*
X5924944Y-9798936D02*
X5915420Y-9808460D01*
X5915420Y-9808460D02*
X5896373Y-9817984D01*
X5896373Y-9817984D02*
X5858277Y-9817984D01*
X5858277Y-9817984D02*
X5839230Y-9808460D01*
X6048753Y-9817984D02*
X6029706Y-9808460D01*
X6029706Y-9808460D02*
X6020182Y-9789412D01*
X6020182Y-9789412D02*
X6020182Y-9617984D01*
X6210658Y-9817984D02*
X6210658Y-9713222D01*
X6210658Y-9713222D02*
X6201134Y-9694174D01*
X6201134Y-9694174D02*
X6182087Y-9684650D01*
X6182087Y-9684650D02*
X6143992Y-9684650D01*
X6143992Y-9684650D02*
X6124944Y-9694174D01*
X6210658Y-9808460D02*
X6191611Y-9817984D01*
X6191611Y-9817984D02*
X6143992Y-9817984D01*
X6143992Y-9817984D02*
X6124944Y-9808460D01*
X6124944Y-9808460D02*
X6115420Y-9789412D01*
X6115420Y-9789412D02*
X6115420Y-9770365D01*
X6115420Y-9770365D02*
X6124944Y-9751317D01*
X6124944Y-9751317D02*
X6143992Y-9741793D01*
X6143992Y-9741793D02*
X6191611Y-9741793D01*
X6191611Y-9741793D02*
X6210658Y-9732270D01*
X6277325Y-9684650D02*
X6353515Y-9684650D01*
X6305896Y-9617984D02*
X6305896Y-9789412D01*
X6305896Y-9789412D02*
X6315420Y-9808460D01*
X6315420Y-9808460D02*
X6334468Y-9817984D01*
X6334468Y-9817984D02*
X6353515Y-9817984D01*
X6496373Y-9808460D02*
X6477325Y-9817984D01*
X6477325Y-9817984D02*
X6439230Y-9817984D01*
X6439230Y-9817984D02*
X6420182Y-9808460D01*
X6420182Y-9808460D02*
X6410658Y-9789412D01*
X6410658Y-9789412D02*
X6410658Y-9713222D01*
X6410658Y-9713222D02*
X6420182Y-9694174D01*
X6420182Y-9694174D02*
X6439230Y-9684650D01*
X6439230Y-9684650D02*
X6477325Y-9684650D01*
X6477325Y-9684650D02*
X6496373Y-9694174D01*
X6496373Y-9694174D02*
X6505896Y-9713222D01*
X6505896Y-9713222D02*
X6505896Y-9732270D01*
X6505896Y-9732270D02*
X6410658Y-9751317D01*
X6677325Y-9817984D02*
X6677325Y-9617984D01*
X6677325Y-9808460D02*
X6658277Y-9817984D01*
X6658277Y-9817984D02*
X6620182Y-9817984D01*
X6620182Y-9817984D02*
X6601134Y-9808460D01*
X6601134Y-9808460D02*
X6591611Y-9798936D01*
X6591611Y-9798936D02*
X6582087Y-9779889D01*
X6582087Y-9779889D02*
X6582087Y-9722746D01*
X6582087Y-9722746D02*
X6591611Y-9703698D01*
X6591611Y-9703698D02*
X6601134Y-9694174D01*
X6601134Y-9694174D02*
X6620182Y-9684650D01*
X6620182Y-9684650D02*
X6658277Y-9684650D01*
X6658277Y-9684650D02*
X6677325Y-9694174D01*
X6753515Y-9894174D02*
X6763039Y-9884650D01*
X6763039Y-9884650D02*
X6782087Y-9856079D01*
X6782087Y-9856079D02*
X6791611Y-9837031D01*
X6791611Y-9837031D02*
X6801134Y-9808460D01*
X6801134Y-9808460D02*
X6810658Y-9760841D01*
X6810658Y-9760841D02*
X6810658Y-9722746D01*
X6810658Y-9722746D02*
X6801134Y-9675127D01*
X6801134Y-9675127D02*
X6791611Y-9646555D01*
X6791611Y-9646555D02*
X6782087Y-9627508D01*
X6782087Y-9627508D02*
X6763039Y-9598936D01*
X6763039Y-9598936D02*
X6753515Y-9589412D01*
D12*
X-102500Y-9940500D02*
X-2500Y-10040500D01*
X-2500Y-9940500D02*
X-102500Y-10040500D01*
X-17144Y-10025856D02*
X-17144Y-9955144D01*
X-87856Y-9955144D01*
X-87856Y-10025856D01*
X-17144Y-10025856D01*
D11*
X363039Y-10081984D02*
X248753Y-10081984D01*
X305896Y-10081984D02*
X305896Y-9881984D01*
X305896Y-9881984D02*
X286848Y-9910555D01*
X286848Y-9910555D02*
X267801Y-9929603D01*
X267801Y-9929603D02*
X248753Y-9939127D01*
X448753Y-10062936D02*
X458277Y-10072460D01*
X458277Y-10072460D02*
X448753Y-10081984D01*
X448753Y-10081984D02*
X439229Y-10072460D01*
X439229Y-10072460D02*
X448753Y-10062936D01*
X448753Y-10062936D02*
X448753Y-10081984D01*
X582086Y-9881984D02*
X601134Y-9881984D01*
X601134Y-9881984D02*
X620182Y-9891508D01*
X620182Y-9891508D02*
X629705Y-9901031D01*
X629705Y-9901031D02*
X639229Y-9920079D01*
X639229Y-9920079D02*
X648753Y-9958174D01*
X648753Y-9958174D02*
X648753Y-10005793D01*
X648753Y-10005793D02*
X639229Y-10043889D01*
X639229Y-10043889D02*
X629705Y-10062936D01*
X629705Y-10062936D02*
X620182Y-10072460D01*
X620182Y-10072460D02*
X601134Y-10081984D01*
X601134Y-10081984D02*
X582086Y-10081984D01*
X582086Y-10081984D02*
X563039Y-10072460D01*
X563039Y-10072460D02*
X553515Y-10062936D01*
X553515Y-10062936D02*
X543991Y-10043889D01*
X543991Y-10043889D02*
X534467Y-10005793D01*
X534467Y-10005793D02*
X534467Y-9958174D01*
X534467Y-9958174D02*
X543991Y-9920079D01*
X543991Y-9920079D02*
X553515Y-9901031D01*
X553515Y-9901031D02*
X563039Y-9891508D01*
X563039Y-9891508D02*
X582086Y-9881984D01*
X772562Y-9881984D02*
X791610Y-9881984D01*
X791610Y-9881984D02*
X810658Y-9891508D01*
X810658Y-9891508D02*
X820182Y-9901031D01*
X820182Y-9901031D02*
X829705Y-9920079D01*
X829705Y-9920079D02*
X839229Y-9958174D01*
X839229Y-9958174D02*
X839229Y-10005793D01*
X839229Y-10005793D02*
X829705Y-10043889D01*
X829705Y-10043889D02*
X820182Y-10062936D01*
X820182Y-10062936D02*
X810658Y-10072460D01*
X810658Y-10072460D02*
X791610Y-10081984D01*
X791610Y-10081984D02*
X772562Y-10081984D01*
X772562Y-10081984D02*
X753515Y-10072460D01*
X753515Y-10072460D02*
X743991Y-10062936D01*
X743991Y-10062936D02*
X734467Y-10043889D01*
X734467Y-10043889D02*
X724943Y-10005793D01*
X724943Y-10005793D02*
X724943Y-9958174D01*
X724943Y-9958174D02*
X734467Y-9920079D01*
X734467Y-9920079D02*
X743991Y-9901031D01*
X743991Y-9901031D02*
X753515Y-9891508D01*
X753515Y-9891508D02*
X772562Y-9881984D01*
X963039Y-9881984D02*
X982086Y-9881984D01*
X982086Y-9881984D02*
X1001134Y-9891508D01*
X1001134Y-9891508D02*
X1010658Y-9901031D01*
X1010658Y-9901031D02*
X1020182Y-9920079D01*
X1020182Y-9920079D02*
X1029705Y-9958174D01*
X1029705Y-9958174D02*
X1029705Y-10005793D01*
X1029705Y-10005793D02*
X1020182Y-10043889D01*
X1020182Y-10043889D02*
X1010658Y-10062936D01*
X1010658Y-10062936D02*
X1001134Y-10072460D01*
X1001134Y-10072460D02*
X982086Y-10081984D01*
X982086Y-10081984D02*
X963039Y-10081984D01*
X963039Y-10081984D02*
X943991Y-10072460D01*
X943991Y-10072460D02*
X934467Y-10062936D01*
X934467Y-10062936D02*
X924943Y-10043889D01*
X924943Y-10043889D02*
X915420Y-10005793D01*
X915420Y-10005793D02*
X915420Y-9958174D01*
X915420Y-9958174D02*
X924943Y-9920079D01*
X924943Y-9920079D02*
X934467Y-9901031D01*
X934467Y-9901031D02*
X943991Y-9891508D01*
X943991Y-9891508D02*
X963039Y-9881984D01*
X1115420Y-10081984D02*
X1115420Y-9948650D01*
X1115420Y-9967698D02*
X1124944Y-9958174D01*
X1124944Y-9958174D02*
X1143991Y-9948650D01*
X1143991Y-9948650D02*
X1172563Y-9948650D01*
X1172563Y-9948650D02*
X1191610Y-9958174D01*
X1191610Y-9958174D02*
X1201134Y-9977222D01*
X1201134Y-9977222D02*
X1201134Y-10081984D01*
X1201134Y-9977222D02*
X1210658Y-9958174D01*
X1210658Y-9958174D02*
X1229705Y-9948650D01*
X1229705Y-9948650D02*
X1258277Y-9948650D01*
X1258277Y-9948650D02*
X1277325Y-9958174D01*
X1277325Y-9958174D02*
X1286848Y-9977222D01*
X1286848Y-9977222D02*
X1286848Y-10081984D01*
X1382086Y-10081984D02*
X1382086Y-9948650D01*
X1382086Y-9967698D02*
X1391610Y-9958174D01*
X1391610Y-9958174D02*
X1410658Y-9948650D01*
X1410658Y-9948650D02*
X1439229Y-9948650D01*
X1439229Y-9948650D02*
X1458277Y-9958174D01*
X1458277Y-9958174D02*
X1467801Y-9977222D01*
X1467801Y-9977222D02*
X1467801Y-10081984D01*
X1467801Y-9977222D02*
X1477324Y-9958174D01*
X1477324Y-9958174D02*
X1496372Y-9948650D01*
X1496372Y-9948650D02*
X1524943Y-9948650D01*
X1524943Y-9948650D02*
X1543991Y-9958174D01*
X1543991Y-9958174D02*
X1553515Y-9977222D01*
X1553515Y-9977222D02*
X1553515Y-10081984D01*
X1943991Y-9872460D02*
X1772563Y-10129603D01*
X2201134Y-9881984D02*
X2220182Y-9881984D01*
X2220182Y-9881984D02*
X2239229Y-9891508D01*
X2239229Y-9891508D02*
X2248753Y-9901031D01*
X2248753Y-9901031D02*
X2258277Y-9920079D01*
X2258277Y-9920079D02*
X2267801Y-9958174D01*
X2267801Y-9958174D02*
X2267801Y-10005793D01*
X2267801Y-10005793D02*
X2258277Y-10043889D01*
X2258277Y-10043889D02*
X2248753Y-10062936D01*
X2248753Y-10062936D02*
X2239229Y-10072460D01*
X2239229Y-10072460D02*
X2220182Y-10081984D01*
X2220182Y-10081984D02*
X2201134Y-10081984D01*
X2201134Y-10081984D02*
X2182087Y-10072460D01*
X2182087Y-10072460D02*
X2172563Y-10062936D01*
X2172563Y-10062936D02*
X2163039Y-10043889D01*
X2163039Y-10043889D02*
X2153515Y-10005793D01*
X2153515Y-10005793D02*
X2153515Y-9958174D01*
X2153515Y-9958174D02*
X2163039Y-9920079D01*
X2163039Y-9920079D02*
X2172563Y-9901031D01*
X2172563Y-9901031D02*
X2182087Y-9891508D01*
X2182087Y-9891508D02*
X2201134Y-9881984D01*
X2353515Y-10062936D02*
X2363039Y-10072460D01*
X2363039Y-10072460D02*
X2353515Y-10081984D01*
X2353515Y-10081984D02*
X2343991Y-10072460D01*
X2343991Y-10072460D02*
X2353515Y-10062936D01*
X2353515Y-10062936D02*
X2353515Y-10081984D01*
X2486848Y-9881984D02*
X2505896Y-9881984D01*
X2505896Y-9881984D02*
X2524944Y-9891508D01*
X2524944Y-9891508D02*
X2534468Y-9901031D01*
X2534468Y-9901031D02*
X2543991Y-9920079D01*
X2543991Y-9920079D02*
X2553515Y-9958174D01*
X2553515Y-9958174D02*
X2553515Y-10005793D01*
X2553515Y-10005793D02*
X2543991Y-10043889D01*
X2543991Y-10043889D02*
X2534468Y-10062936D01*
X2534468Y-10062936D02*
X2524944Y-10072460D01*
X2524944Y-10072460D02*
X2505896Y-10081984D01*
X2505896Y-10081984D02*
X2486848Y-10081984D01*
X2486848Y-10081984D02*
X2467801Y-10072460D01*
X2467801Y-10072460D02*
X2458277Y-10062936D01*
X2458277Y-10062936D02*
X2448753Y-10043889D01*
X2448753Y-10043889D02*
X2439229Y-10005793D01*
X2439229Y-10005793D02*
X2439229Y-9958174D01*
X2439229Y-9958174D02*
X2448753Y-9920079D01*
X2448753Y-9920079D02*
X2458277Y-9901031D01*
X2458277Y-9901031D02*
X2467801Y-9891508D01*
X2467801Y-9891508D02*
X2486848Y-9881984D01*
X2620182Y-9881984D02*
X2743991Y-9881984D01*
X2743991Y-9881984D02*
X2677325Y-9958174D01*
X2677325Y-9958174D02*
X2705896Y-9958174D01*
X2705896Y-9958174D02*
X2724944Y-9967698D01*
X2724944Y-9967698D02*
X2734468Y-9977222D01*
X2734468Y-9977222D02*
X2743991Y-9996270D01*
X2743991Y-9996270D02*
X2743991Y-10043889D01*
X2743991Y-10043889D02*
X2734468Y-10062936D01*
X2734468Y-10062936D02*
X2724944Y-10072460D01*
X2724944Y-10072460D02*
X2705896Y-10081984D01*
X2705896Y-10081984D02*
X2648753Y-10081984D01*
X2648753Y-10081984D02*
X2629706Y-10072460D01*
X2629706Y-10072460D02*
X2620182Y-10062936D01*
X2839229Y-10081984D02*
X2877325Y-10081984D01*
X2877325Y-10081984D02*
X2896372Y-10072460D01*
X2896372Y-10072460D02*
X2905896Y-10062936D01*
X2905896Y-10062936D02*
X2924944Y-10034365D01*
X2924944Y-10034365D02*
X2934467Y-9996270D01*
X2934467Y-9996270D02*
X2934467Y-9920079D01*
X2934467Y-9920079D02*
X2924944Y-9901031D01*
X2924944Y-9901031D02*
X2915420Y-9891508D01*
X2915420Y-9891508D02*
X2896372Y-9881984D01*
X2896372Y-9881984D02*
X2858277Y-9881984D01*
X2858277Y-9881984D02*
X2839229Y-9891508D01*
X2839229Y-9891508D02*
X2829706Y-9901031D01*
X2829706Y-9901031D02*
X2820182Y-9920079D01*
X2820182Y-9920079D02*
X2820182Y-9967698D01*
X2820182Y-9967698D02*
X2829706Y-9986746D01*
X2829706Y-9986746D02*
X2839229Y-9996270D01*
X2839229Y-9996270D02*
X2858277Y-10005793D01*
X2858277Y-10005793D02*
X2896372Y-10005793D01*
X2896372Y-10005793D02*
X2915420Y-9996270D01*
X2915420Y-9996270D02*
X2924944Y-9986746D01*
X2924944Y-9986746D02*
X2934467Y-9967698D01*
X3105896Y-9948650D02*
X3105896Y-10081984D01*
X3058277Y-9872460D02*
X3010658Y-10015317D01*
X3010658Y-10015317D02*
X3134467Y-10015317D01*
X3201134Y-9881984D02*
X3201134Y-9920079D01*
X3277325Y-9881984D02*
X3277325Y-9920079D01*
X3572563Y-10158174D02*
X3563039Y-10148650D01*
X3563039Y-10148650D02*
X3543991Y-10120079D01*
X3543991Y-10120079D02*
X3534468Y-10101031D01*
X3534468Y-10101031D02*
X3524944Y-10072460D01*
X3524944Y-10072460D02*
X3515420Y-10024841D01*
X3515420Y-10024841D02*
X3515420Y-9986746D01*
X3515420Y-9986746D02*
X3524944Y-9939127D01*
X3524944Y-9939127D02*
X3534468Y-9910555D01*
X3534468Y-9910555D02*
X3543991Y-9891508D01*
X3543991Y-9891508D02*
X3563039Y-9862936D01*
X3563039Y-9862936D02*
X3572563Y-9853412D01*
X3639229Y-9901031D02*
X3648753Y-9891508D01*
X3648753Y-9891508D02*
X3667801Y-9881984D01*
X3667801Y-9881984D02*
X3715420Y-9881984D01*
X3715420Y-9881984D02*
X3734468Y-9891508D01*
X3734468Y-9891508D02*
X3743991Y-9901031D01*
X3743991Y-9901031D02*
X3753515Y-9920079D01*
X3753515Y-9920079D02*
X3753515Y-9939127D01*
X3753515Y-9939127D02*
X3743991Y-9967698D01*
X3743991Y-9967698D02*
X3629706Y-10081984D01*
X3629706Y-10081984D02*
X3753515Y-10081984D01*
X3991610Y-10081984D02*
X3991610Y-9881984D01*
X4077325Y-10081984D02*
X4077325Y-9977222D01*
X4077325Y-9977222D02*
X4067801Y-9958174D01*
X4067801Y-9958174D02*
X4048753Y-9948650D01*
X4048753Y-9948650D02*
X4020182Y-9948650D01*
X4020182Y-9948650D02*
X4001134Y-9958174D01*
X4001134Y-9958174D02*
X3991610Y-9967698D01*
X4201134Y-10081984D02*
X4182087Y-10072460D01*
X4182087Y-10072460D02*
X4172563Y-10062936D01*
X4172563Y-10062936D02*
X4163039Y-10043889D01*
X4163039Y-10043889D02*
X4163039Y-9986746D01*
X4163039Y-9986746D02*
X4172563Y-9967698D01*
X4172563Y-9967698D02*
X4182087Y-9958174D01*
X4182087Y-9958174D02*
X4201134Y-9948650D01*
X4201134Y-9948650D02*
X4229706Y-9948650D01*
X4229706Y-9948650D02*
X4248753Y-9958174D01*
X4248753Y-9958174D02*
X4258277Y-9967698D01*
X4258277Y-9967698D02*
X4267801Y-9986746D01*
X4267801Y-9986746D02*
X4267801Y-10043889D01*
X4267801Y-10043889D02*
X4258277Y-10062936D01*
X4258277Y-10062936D02*
X4248753Y-10072460D01*
X4248753Y-10072460D02*
X4229706Y-10081984D01*
X4229706Y-10081984D02*
X4201134Y-10081984D01*
X4382087Y-10081984D02*
X4363039Y-10072460D01*
X4363039Y-10072460D02*
X4353515Y-10053412D01*
X4353515Y-10053412D02*
X4353515Y-9881984D01*
X4534468Y-10072460D02*
X4515420Y-10081984D01*
X4515420Y-10081984D02*
X4477325Y-10081984D01*
X4477325Y-10081984D02*
X4458277Y-10072460D01*
X4458277Y-10072460D02*
X4448753Y-10053412D01*
X4448753Y-10053412D02*
X4448753Y-9977222D01*
X4448753Y-9977222D02*
X4458277Y-9958174D01*
X4458277Y-9958174D02*
X4477325Y-9948650D01*
X4477325Y-9948650D02*
X4515420Y-9948650D01*
X4515420Y-9948650D02*
X4534468Y-9958174D01*
X4534468Y-9958174D02*
X4543992Y-9977222D01*
X4543992Y-9977222D02*
X4543992Y-9996270D01*
X4543992Y-9996270D02*
X4448753Y-10015317D01*
X4620182Y-10072460D02*
X4639230Y-10081984D01*
X4639230Y-10081984D02*
X4677325Y-10081984D01*
X4677325Y-10081984D02*
X4696373Y-10072460D01*
X4696373Y-10072460D02*
X4705896Y-10053412D01*
X4705896Y-10053412D02*
X4705896Y-10043889D01*
X4705896Y-10043889D02*
X4696373Y-10024841D01*
X4696373Y-10024841D02*
X4677325Y-10015317D01*
X4677325Y-10015317D02*
X4648753Y-10015317D01*
X4648753Y-10015317D02*
X4629706Y-10005793D01*
X4629706Y-10005793D02*
X4620182Y-9986746D01*
X4620182Y-9986746D02*
X4620182Y-9977222D01*
X4620182Y-9977222D02*
X4629706Y-9958174D01*
X4629706Y-9958174D02*
X4648753Y-9948650D01*
X4648753Y-9948650D02*
X4677325Y-9948650D01*
X4677325Y-9948650D02*
X4696373Y-9958174D01*
X4772563Y-10158174D02*
X4782087Y-10148650D01*
X4782087Y-10148650D02*
X4801134Y-10120079D01*
X4801134Y-10120079D02*
X4810658Y-10101031D01*
X4810658Y-10101031D02*
X4820182Y-10072460D01*
X4820182Y-10072460D02*
X4829706Y-10024841D01*
X4829706Y-10024841D02*
X4829706Y-9986746D01*
X4829706Y-9986746D02*
X4820182Y-9939127D01*
X4820182Y-9939127D02*
X4810658Y-9910555D01*
X4810658Y-9910555D02*
X4801134Y-9891508D01*
X4801134Y-9891508D02*
X4782087Y-9862936D01*
X4782087Y-9862936D02*
X4772563Y-9853412D01*
X5134468Y-10158174D02*
X5124944Y-10148650D01*
X5124944Y-10148650D02*
X5105896Y-10120079D01*
X5105896Y-10120079D02*
X5096373Y-10101031D01*
X5096373Y-10101031D02*
X5086849Y-10072460D01*
X5086849Y-10072460D02*
X5077325Y-10024841D01*
X5077325Y-10024841D02*
X5077325Y-9986746D01*
X5077325Y-9986746D02*
X5086849Y-9939127D01*
X5086849Y-9939127D02*
X5096373Y-9910555D01*
X5096373Y-9910555D02*
X5105896Y-9891508D01*
X5105896Y-9891508D02*
X5124944Y-9862936D01*
X5124944Y-9862936D02*
X5134468Y-9853412D01*
X5210658Y-9948650D02*
X5210658Y-10081984D01*
X5210658Y-9967698D02*
X5220182Y-9958174D01*
X5220182Y-9958174D02*
X5239230Y-9948650D01*
X5239230Y-9948650D02*
X5267801Y-9948650D01*
X5267801Y-9948650D02*
X5286849Y-9958174D01*
X5286849Y-9958174D02*
X5296373Y-9977222D01*
X5296373Y-9977222D02*
X5296373Y-10081984D01*
X5420182Y-10081984D02*
X5401134Y-10072460D01*
X5401134Y-10072460D02*
X5391611Y-10062936D01*
X5391611Y-10062936D02*
X5382087Y-10043889D01*
X5382087Y-10043889D02*
X5382087Y-9986746D01*
X5382087Y-9986746D02*
X5391611Y-9967698D01*
X5391611Y-9967698D02*
X5401134Y-9958174D01*
X5401134Y-9958174D02*
X5420182Y-9948650D01*
X5420182Y-9948650D02*
X5448754Y-9948650D01*
X5448754Y-9948650D02*
X5467801Y-9958174D01*
X5467801Y-9958174D02*
X5477325Y-9967698D01*
X5477325Y-9967698D02*
X5486849Y-9986746D01*
X5486849Y-9986746D02*
X5486849Y-10043889D01*
X5486849Y-10043889D02*
X5477325Y-10062936D01*
X5477325Y-10062936D02*
X5467801Y-10072460D01*
X5467801Y-10072460D02*
X5448754Y-10081984D01*
X5448754Y-10081984D02*
X5420182Y-10081984D01*
X5543992Y-9948650D02*
X5620182Y-9948650D01*
X5572563Y-9881984D02*
X5572563Y-10053412D01*
X5572563Y-10053412D02*
X5582087Y-10072460D01*
X5582087Y-10072460D02*
X5601134Y-10081984D01*
X5601134Y-10081984D02*
X5620182Y-10081984D01*
X5839230Y-9948650D02*
X5839230Y-10148650D01*
X5839230Y-9958174D02*
X5858277Y-9948650D01*
X5858277Y-9948650D02*
X5896373Y-9948650D01*
X5896373Y-9948650D02*
X5915420Y-9958174D01*
X5915420Y-9958174D02*
X5924944Y-9967698D01*
X5924944Y-9967698D02*
X5934468Y-9986746D01*
X5934468Y-9986746D02*
X5934468Y-10043889D01*
X5934468Y-10043889D02*
X5924944Y-10062936D01*
X5924944Y-10062936D02*
X5915420Y-10072460D01*
X5915420Y-10072460D02*
X5896373Y-10081984D01*
X5896373Y-10081984D02*
X5858277Y-10081984D01*
X5858277Y-10081984D02*
X5839230Y-10072460D01*
X6048753Y-10081984D02*
X6029706Y-10072460D01*
X6029706Y-10072460D02*
X6020182Y-10053412D01*
X6020182Y-10053412D02*
X6020182Y-9881984D01*
X6210658Y-10081984D02*
X6210658Y-9977222D01*
X6210658Y-9977222D02*
X6201134Y-9958174D01*
X6201134Y-9958174D02*
X6182087Y-9948650D01*
X6182087Y-9948650D02*
X6143992Y-9948650D01*
X6143992Y-9948650D02*
X6124944Y-9958174D01*
X6210658Y-10072460D02*
X6191611Y-10081984D01*
X6191611Y-10081984D02*
X6143992Y-10081984D01*
X6143992Y-10081984D02*
X6124944Y-10072460D01*
X6124944Y-10072460D02*
X6115420Y-10053412D01*
X6115420Y-10053412D02*
X6115420Y-10034365D01*
X6115420Y-10034365D02*
X6124944Y-10015317D01*
X6124944Y-10015317D02*
X6143992Y-10005793D01*
X6143992Y-10005793D02*
X6191611Y-10005793D01*
X6191611Y-10005793D02*
X6210658Y-9996270D01*
X6277325Y-9948650D02*
X6353515Y-9948650D01*
X6305896Y-9881984D02*
X6305896Y-10053412D01*
X6305896Y-10053412D02*
X6315420Y-10072460D01*
X6315420Y-10072460D02*
X6334468Y-10081984D01*
X6334468Y-10081984D02*
X6353515Y-10081984D01*
X6496373Y-10072460D02*
X6477325Y-10081984D01*
X6477325Y-10081984D02*
X6439230Y-10081984D01*
X6439230Y-10081984D02*
X6420182Y-10072460D01*
X6420182Y-10072460D02*
X6410658Y-10053412D01*
X6410658Y-10053412D02*
X6410658Y-9977222D01*
X6410658Y-9977222D02*
X6420182Y-9958174D01*
X6420182Y-9958174D02*
X6439230Y-9948650D01*
X6439230Y-9948650D02*
X6477325Y-9948650D01*
X6477325Y-9948650D02*
X6496373Y-9958174D01*
X6496373Y-9958174D02*
X6505896Y-9977222D01*
X6505896Y-9977222D02*
X6505896Y-9996270D01*
X6505896Y-9996270D02*
X6410658Y-10015317D01*
X6677325Y-10081984D02*
X6677325Y-9881984D01*
X6677325Y-10072460D02*
X6658277Y-10081984D01*
X6658277Y-10081984D02*
X6620182Y-10081984D01*
X6620182Y-10081984D02*
X6601134Y-10072460D01*
X6601134Y-10072460D02*
X6591611Y-10062936D01*
X6591611Y-10062936D02*
X6582087Y-10043889D01*
X6582087Y-10043889D02*
X6582087Y-9986746D01*
X6582087Y-9986746D02*
X6591611Y-9967698D01*
X6591611Y-9967698D02*
X6601134Y-9958174D01*
X6601134Y-9958174D02*
X6620182Y-9948650D01*
X6620182Y-9948650D02*
X6658277Y-9948650D01*
X6658277Y-9948650D02*
X6677325Y-9958174D01*
X6753515Y-10158174D02*
X6763039Y-10148650D01*
X6763039Y-10148650D02*
X6782087Y-10120079D01*
X6782087Y-10120079D02*
X6791611Y-10101031D01*
X6791611Y-10101031D02*
X6801134Y-10072460D01*
X6801134Y-10072460D02*
X6810658Y-10024841D01*
X6810658Y-10024841D02*
X6810658Y-9986746D01*
X6810658Y-9986746D02*
X6801134Y-9939127D01*
X6801134Y-9939127D02*
X6791611Y-9910555D01*
X6791611Y-9910555D02*
X6782087Y-9891508D01*
X6782087Y-9891508D02*
X6763039Y-9862936D01*
X6763039Y-9862936D02*
X6753515Y-9853412D01*
X-202500Y-10154500D02*
X-2500Y-10354500D01*
X-2500Y-10154500D02*
X-202500Y-10354500D01*
X-102500Y-10354500D02*
X-2500Y-10254500D01*
X-102500Y-10154500D01*
X-202500Y-10254500D01*
X-102500Y-10354500D01*
X248753Y-10165031D02*
X258277Y-10155508D01*
X258277Y-10155508D02*
X277324Y-10145984D01*
X277324Y-10145984D02*
X324944Y-10145984D01*
X324944Y-10145984D02*
X343991Y-10155508D01*
X343991Y-10155508D02*
X353515Y-10165031D01*
X353515Y-10165031D02*
X363039Y-10184079D01*
X363039Y-10184079D02*
X363039Y-10203127D01*
X363039Y-10203127D02*
X353515Y-10231698D01*
X353515Y-10231698D02*
X239229Y-10345984D01*
X239229Y-10345984D02*
X363039Y-10345984D01*
X448753Y-10326936D02*
X458277Y-10336460D01*
X458277Y-10336460D02*
X448753Y-10345984D01*
X448753Y-10345984D02*
X439229Y-10336460D01*
X439229Y-10336460D02*
X448753Y-10326936D01*
X448753Y-10326936D02*
X448753Y-10345984D01*
X639229Y-10145984D02*
X543991Y-10145984D01*
X543991Y-10145984D02*
X534467Y-10241222D01*
X534467Y-10241222D02*
X543991Y-10231698D01*
X543991Y-10231698D02*
X563039Y-10222174D01*
X563039Y-10222174D02*
X610658Y-10222174D01*
X610658Y-10222174D02*
X629705Y-10231698D01*
X629705Y-10231698D02*
X639229Y-10241222D01*
X639229Y-10241222D02*
X648753Y-10260270D01*
X648753Y-10260270D02*
X648753Y-10307889D01*
X648753Y-10307889D02*
X639229Y-10326936D01*
X639229Y-10326936D02*
X629705Y-10336460D01*
X629705Y-10336460D02*
X610658Y-10345984D01*
X610658Y-10345984D02*
X563039Y-10345984D01*
X563039Y-10345984D02*
X543991Y-10336460D01*
X543991Y-10336460D02*
X534467Y-10326936D01*
X772562Y-10145984D02*
X791610Y-10145984D01*
X791610Y-10145984D02*
X810658Y-10155508D01*
X810658Y-10155508D02*
X820182Y-10165031D01*
X820182Y-10165031D02*
X829705Y-10184079D01*
X829705Y-10184079D02*
X839229Y-10222174D01*
X839229Y-10222174D02*
X839229Y-10269793D01*
X839229Y-10269793D02*
X829705Y-10307889D01*
X829705Y-10307889D02*
X820182Y-10326936D01*
X820182Y-10326936D02*
X810658Y-10336460D01*
X810658Y-10336460D02*
X791610Y-10345984D01*
X791610Y-10345984D02*
X772562Y-10345984D01*
X772562Y-10345984D02*
X753515Y-10336460D01*
X753515Y-10336460D02*
X743991Y-10326936D01*
X743991Y-10326936D02*
X734467Y-10307889D01*
X734467Y-10307889D02*
X724943Y-10269793D01*
X724943Y-10269793D02*
X724943Y-10222174D01*
X724943Y-10222174D02*
X734467Y-10184079D01*
X734467Y-10184079D02*
X743991Y-10165031D01*
X743991Y-10165031D02*
X753515Y-10155508D01*
X753515Y-10155508D02*
X772562Y-10145984D01*
X963039Y-10145984D02*
X982086Y-10145984D01*
X982086Y-10145984D02*
X1001134Y-10155508D01*
X1001134Y-10155508D02*
X1010658Y-10165031D01*
X1010658Y-10165031D02*
X1020182Y-10184079D01*
X1020182Y-10184079D02*
X1029705Y-10222174D01*
X1029705Y-10222174D02*
X1029705Y-10269793D01*
X1029705Y-10269793D02*
X1020182Y-10307889D01*
X1020182Y-10307889D02*
X1010658Y-10326936D01*
X1010658Y-10326936D02*
X1001134Y-10336460D01*
X1001134Y-10336460D02*
X982086Y-10345984D01*
X982086Y-10345984D02*
X963039Y-10345984D01*
X963039Y-10345984D02*
X943991Y-10336460D01*
X943991Y-10336460D02*
X934467Y-10326936D01*
X934467Y-10326936D02*
X924943Y-10307889D01*
X924943Y-10307889D02*
X915420Y-10269793D01*
X915420Y-10269793D02*
X915420Y-10222174D01*
X915420Y-10222174D02*
X924943Y-10184079D01*
X924943Y-10184079D02*
X934467Y-10165031D01*
X934467Y-10165031D02*
X943991Y-10155508D01*
X943991Y-10155508D02*
X963039Y-10145984D01*
X1115420Y-10345984D02*
X1115420Y-10212650D01*
X1115420Y-10231698D02*
X1124944Y-10222174D01*
X1124944Y-10222174D02*
X1143991Y-10212650D01*
X1143991Y-10212650D02*
X1172563Y-10212650D01*
X1172563Y-10212650D02*
X1191610Y-10222174D01*
X1191610Y-10222174D02*
X1201134Y-10241222D01*
X1201134Y-10241222D02*
X1201134Y-10345984D01*
X1201134Y-10241222D02*
X1210658Y-10222174D01*
X1210658Y-10222174D02*
X1229705Y-10212650D01*
X1229705Y-10212650D02*
X1258277Y-10212650D01*
X1258277Y-10212650D02*
X1277325Y-10222174D01*
X1277325Y-10222174D02*
X1286848Y-10241222D01*
X1286848Y-10241222D02*
X1286848Y-10345984D01*
X1382086Y-10345984D02*
X1382086Y-10212650D01*
X1382086Y-10231698D02*
X1391610Y-10222174D01*
X1391610Y-10222174D02*
X1410658Y-10212650D01*
X1410658Y-10212650D02*
X1439229Y-10212650D01*
X1439229Y-10212650D02*
X1458277Y-10222174D01*
X1458277Y-10222174D02*
X1467801Y-10241222D01*
X1467801Y-10241222D02*
X1467801Y-10345984D01*
X1467801Y-10241222D02*
X1477324Y-10222174D01*
X1477324Y-10222174D02*
X1496372Y-10212650D01*
X1496372Y-10212650D02*
X1524943Y-10212650D01*
X1524943Y-10212650D02*
X1543991Y-10222174D01*
X1543991Y-10222174D02*
X1553515Y-10241222D01*
X1553515Y-10241222D02*
X1553515Y-10345984D01*
X1943991Y-10136460D02*
X1772563Y-10393603D01*
X2201134Y-10145984D02*
X2220182Y-10145984D01*
X2220182Y-10145984D02*
X2239229Y-10155508D01*
X2239229Y-10155508D02*
X2248753Y-10165031D01*
X2248753Y-10165031D02*
X2258277Y-10184079D01*
X2258277Y-10184079D02*
X2267801Y-10222174D01*
X2267801Y-10222174D02*
X2267801Y-10269793D01*
X2267801Y-10269793D02*
X2258277Y-10307889D01*
X2258277Y-10307889D02*
X2248753Y-10326936D01*
X2248753Y-10326936D02*
X2239229Y-10336460D01*
X2239229Y-10336460D02*
X2220182Y-10345984D01*
X2220182Y-10345984D02*
X2201134Y-10345984D01*
X2201134Y-10345984D02*
X2182087Y-10336460D01*
X2182087Y-10336460D02*
X2172563Y-10326936D01*
X2172563Y-10326936D02*
X2163039Y-10307889D01*
X2163039Y-10307889D02*
X2153515Y-10269793D01*
X2153515Y-10269793D02*
X2153515Y-10222174D01*
X2153515Y-10222174D02*
X2163039Y-10184079D01*
X2163039Y-10184079D02*
X2172563Y-10165031D01*
X2172563Y-10165031D02*
X2182087Y-10155508D01*
X2182087Y-10155508D02*
X2201134Y-10145984D01*
X2353515Y-10326936D02*
X2363039Y-10336460D01*
X2363039Y-10336460D02*
X2353515Y-10345984D01*
X2353515Y-10345984D02*
X2343991Y-10336460D01*
X2343991Y-10336460D02*
X2353515Y-10326936D01*
X2353515Y-10326936D02*
X2353515Y-10345984D01*
X2486848Y-10145984D02*
X2505896Y-10145984D01*
X2505896Y-10145984D02*
X2524944Y-10155508D01*
X2524944Y-10155508D02*
X2534468Y-10165031D01*
X2534468Y-10165031D02*
X2543991Y-10184079D01*
X2543991Y-10184079D02*
X2553515Y-10222174D01*
X2553515Y-10222174D02*
X2553515Y-10269793D01*
X2553515Y-10269793D02*
X2543991Y-10307889D01*
X2543991Y-10307889D02*
X2534468Y-10326936D01*
X2534468Y-10326936D02*
X2524944Y-10336460D01*
X2524944Y-10336460D02*
X2505896Y-10345984D01*
X2505896Y-10345984D02*
X2486848Y-10345984D01*
X2486848Y-10345984D02*
X2467801Y-10336460D01*
X2467801Y-10336460D02*
X2458277Y-10326936D01*
X2458277Y-10326936D02*
X2448753Y-10307889D01*
X2448753Y-10307889D02*
X2439229Y-10269793D01*
X2439229Y-10269793D02*
X2439229Y-10222174D01*
X2439229Y-10222174D02*
X2448753Y-10184079D01*
X2448753Y-10184079D02*
X2458277Y-10165031D01*
X2458277Y-10165031D02*
X2467801Y-10155508D01*
X2467801Y-10155508D02*
X2486848Y-10145984D01*
X2648753Y-10345984D02*
X2686848Y-10345984D01*
X2686848Y-10345984D02*
X2705896Y-10336460D01*
X2705896Y-10336460D02*
X2715420Y-10326936D01*
X2715420Y-10326936D02*
X2734468Y-10298365D01*
X2734468Y-10298365D02*
X2743991Y-10260270D01*
X2743991Y-10260270D02*
X2743991Y-10184079D01*
X2743991Y-10184079D02*
X2734468Y-10165031D01*
X2734468Y-10165031D02*
X2724944Y-10155508D01*
X2724944Y-10155508D02*
X2705896Y-10145984D01*
X2705896Y-10145984D02*
X2667801Y-10145984D01*
X2667801Y-10145984D02*
X2648753Y-10155508D01*
X2648753Y-10155508D02*
X2639229Y-10165031D01*
X2639229Y-10165031D02*
X2629706Y-10184079D01*
X2629706Y-10184079D02*
X2629706Y-10231698D01*
X2629706Y-10231698D02*
X2639229Y-10250746D01*
X2639229Y-10250746D02*
X2648753Y-10260270D01*
X2648753Y-10260270D02*
X2667801Y-10269793D01*
X2667801Y-10269793D02*
X2705896Y-10269793D01*
X2705896Y-10269793D02*
X2724944Y-10260270D01*
X2724944Y-10260270D02*
X2734468Y-10250746D01*
X2734468Y-10250746D02*
X2743991Y-10231698D01*
X2858277Y-10231698D02*
X2839229Y-10222174D01*
X2839229Y-10222174D02*
X2829706Y-10212650D01*
X2829706Y-10212650D02*
X2820182Y-10193603D01*
X2820182Y-10193603D02*
X2820182Y-10184079D01*
X2820182Y-10184079D02*
X2829706Y-10165031D01*
X2829706Y-10165031D02*
X2839229Y-10155508D01*
X2839229Y-10155508D02*
X2858277Y-10145984D01*
X2858277Y-10145984D02*
X2896372Y-10145984D01*
X2896372Y-10145984D02*
X2915420Y-10155508D01*
X2915420Y-10155508D02*
X2924944Y-10165031D01*
X2924944Y-10165031D02*
X2934467Y-10184079D01*
X2934467Y-10184079D02*
X2934467Y-10193603D01*
X2934467Y-10193603D02*
X2924944Y-10212650D01*
X2924944Y-10212650D02*
X2915420Y-10222174D01*
X2915420Y-10222174D02*
X2896372Y-10231698D01*
X2896372Y-10231698D02*
X2858277Y-10231698D01*
X2858277Y-10231698D02*
X2839229Y-10241222D01*
X2839229Y-10241222D02*
X2829706Y-10250746D01*
X2829706Y-10250746D02*
X2820182Y-10269793D01*
X2820182Y-10269793D02*
X2820182Y-10307889D01*
X2820182Y-10307889D02*
X2829706Y-10326936D01*
X2829706Y-10326936D02*
X2839229Y-10336460D01*
X2839229Y-10336460D02*
X2858277Y-10345984D01*
X2858277Y-10345984D02*
X2896372Y-10345984D01*
X2896372Y-10345984D02*
X2915420Y-10336460D01*
X2915420Y-10336460D02*
X2924944Y-10326936D01*
X2924944Y-10326936D02*
X2934467Y-10307889D01*
X2934467Y-10307889D02*
X2934467Y-10269793D01*
X2934467Y-10269793D02*
X2924944Y-10250746D01*
X2924944Y-10250746D02*
X2915420Y-10241222D01*
X2915420Y-10241222D02*
X2896372Y-10231698D01*
X3105896Y-10212650D02*
X3105896Y-10345984D01*
X3058277Y-10136460D02*
X3010658Y-10279317D01*
X3010658Y-10279317D02*
X3134467Y-10279317D01*
X3201134Y-10145984D02*
X3201134Y-10184079D01*
X3277325Y-10145984D02*
X3277325Y-10184079D01*
X3572563Y-10422174D02*
X3563039Y-10412650D01*
X3563039Y-10412650D02*
X3543991Y-10384079D01*
X3543991Y-10384079D02*
X3534468Y-10365031D01*
X3534468Y-10365031D02*
X3524944Y-10336460D01*
X3524944Y-10336460D02*
X3515420Y-10288841D01*
X3515420Y-10288841D02*
X3515420Y-10250746D01*
X3515420Y-10250746D02*
X3524944Y-10203127D01*
X3524944Y-10203127D02*
X3534468Y-10174555D01*
X3534468Y-10174555D02*
X3543991Y-10155508D01*
X3543991Y-10155508D02*
X3563039Y-10126936D01*
X3563039Y-10126936D02*
X3572563Y-10117412D01*
X3734468Y-10145984D02*
X3696372Y-10145984D01*
X3696372Y-10145984D02*
X3677325Y-10155508D01*
X3677325Y-10155508D02*
X3667801Y-10165031D01*
X3667801Y-10165031D02*
X3648753Y-10193603D01*
X3648753Y-10193603D02*
X3639229Y-10231698D01*
X3639229Y-10231698D02*
X3639229Y-10307889D01*
X3639229Y-10307889D02*
X3648753Y-10326936D01*
X3648753Y-10326936D02*
X3658277Y-10336460D01*
X3658277Y-10336460D02*
X3677325Y-10345984D01*
X3677325Y-10345984D02*
X3715420Y-10345984D01*
X3715420Y-10345984D02*
X3734468Y-10336460D01*
X3734468Y-10336460D02*
X3743991Y-10326936D01*
X3743991Y-10326936D02*
X3753515Y-10307889D01*
X3753515Y-10307889D02*
X3753515Y-10260270D01*
X3753515Y-10260270D02*
X3743991Y-10241222D01*
X3743991Y-10241222D02*
X3734468Y-10231698D01*
X3734468Y-10231698D02*
X3715420Y-10222174D01*
X3715420Y-10222174D02*
X3677325Y-10222174D01*
X3677325Y-10222174D02*
X3658277Y-10231698D01*
X3658277Y-10231698D02*
X3648753Y-10241222D01*
X3648753Y-10241222D02*
X3639229Y-10260270D01*
X3991610Y-10345984D02*
X3991610Y-10145984D01*
X4077325Y-10345984D02*
X4077325Y-10241222D01*
X4077325Y-10241222D02*
X4067801Y-10222174D01*
X4067801Y-10222174D02*
X4048753Y-10212650D01*
X4048753Y-10212650D02*
X4020182Y-10212650D01*
X4020182Y-10212650D02*
X4001134Y-10222174D01*
X4001134Y-10222174D02*
X3991610Y-10231698D01*
X4201134Y-10345984D02*
X4182087Y-10336460D01*
X4182087Y-10336460D02*
X4172563Y-10326936D01*
X4172563Y-10326936D02*
X4163039Y-10307889D01*
X4163039Y-10307889D02*
X4163039Y-10250746D01*
X4163039Y-10250746D02*
X4172563Y-10231698D01*
X4172563Y-10231698D02*
X4182087Y-10222174D01*
X4182087Y-10222174D02*
X4201134Y-10212650D01*
X4201134Y-10212650D02*
X4229706Y-10212650D01*
X4229706Y-10212650D02*
X4248753Y-10222174D01*
X4248753Y-10222174D02*
X4258277Y-10231698D01*
X4258277Y-10231698D02*
X4267801Y-10250746D01*
X4267801Y-10250746D02*
X4267801Y-10307889D01*
X4267801Y-10307889D02*
X4258277Y-10326936D01*
X4258277Y-10326936D02*
X4248753Y-10336460D01*
X4248753Y-10336460D02*
X4229706Y-10345984D01*
X4229706Y-10345984D02*
X4201134Y-10345984D01*
X4382087Y-10345984D02*
X4363039Y-10336460D01*
X4363039Y-10336460D02*
X4353515Y-10317412D01*
X4353515Y-10317412D02*
X4353515Y-10145984D01*
X4534468Y-10336460D02*
X4515420Y-10345984D01*
X4515420Y-10345984D02*
X4477325Y-10345984D01*
X4477325Y-10345984D02*
X4458277Y-10336460D01*
X4458277Y-10336460D02*
X4448753Y-10317412D01*
X4448753Y-10317412D02*
X4448753Y-10241222D01*
X4448753Y-10241222D02*
X4458277Y-10222174D01*
X4458277Y-10222174D02*
X4477325Y-10212650D01*
X4477325Y-10212650D02*
X4515420Y-10212650D01*
X4515420Y-10212650D02*
X4534468Y-10222174D01*
X4534468Y-10222174D02*
X4543992Y-10241222D01*
X4543992Y-10241222D02*
X4543992Y-10260270D01*
X4543992Y-10260270D02*
X4448753Y-10279317D01*
X4620182Y-10336460D02*
X4639230Y-10345984D01*
X4639230Y-10345984D02*
X4677325Y-10345984D01*
X4677325Y-10345984D02*
X4696373Y-10336460D01*
X4696373Y-10336460D02*
X4705896Y-10317412D01*
X4705896Y-10317412D02*
X4705896Y-10307889D01*
X4705896Y-10307889D02*
X4696373Y-10288841D01*
X4696373Y-10288841D02*
X4677325Y-10279317D01*
X4677325Y-10279317D02*
X4648753Y-10279317D01*
X4648753Y-10279317D02*
X4629706Y-10269793D01*
X4629706Y-10269793D02*
X4620182Y-10250746D01*
X4620182Y-10250746D02*
X4620182Y-10241222D01*
X4620182Y-10241222D02*
X4629706Y-10222174D01*
X4629706Y-10222174D02*
X4648753Y-10212650D01*
X4648753Y-10212650D02*
X4677325Y-10212650D01*
X4677325Y-10212650D02*
X4696373Y-10222174D01*
X4772563Y-10422174D02*
X4782087Y-10412650D01*
X4782087Y-10412650D02*
X4801134Y-10384079D01*
X4801134Y-10384079D02*
X4810658Y-10365031D01*
X4810658Y-10365031D02*
X4820182Y-10336460D01*
X4820182Y-10336460D02*
X4829706Y-10288841D01*
X4829706Y-10288841D02*
X4829706Y-10250746D01*
X4829706Y-10250746D02*
X4820182Y-10203127D01*
X4820182Y-10203127D02*
X4810658Y-10174555D01*
X4810658Y-10174555D02*
X4801134Y-10155508D01*
X4801134Y-10155508D02*
X4782087Y-10126936D01*
X4782087Y-10126936D02*
X4772563Y-10117412D01*
X5134468Y-10422174D02*
X5124944Y-10412650D01*
X5124944Y-10412650D02*
X5105896Y-10384079D01*
X5105896Y-10384079D02*
X5096373Y-10365031D01*
X5096373Y-10365031D02*
X5086849Y-10336460D01*
X5086849Y-10336460D02*
X5077325Y-10288841D01*
X5077325Y-10288841D02*
X5077325Y-10250746D01*
X5077325Y-10250746D02*
X5086849Y-10203127D01*
X5086849Y-10203127D02*
X5096373Y-10174555D01*
X5096373Y-10174555D02*
X5105896Y-10155508D01*
X5105896Y-10155508D02*
X5124944Y-10126936D01*
X5124944Y-10126936D02*
X5134468Y-10117412D01*
X5210658Y-10212650D02*
X5210658Y-10345984D01*
X5210658Y-10231698D02*
X5220182Y-10222174D01*
X5220182Y-10222174D02*
X5239230Y-10212650D01*
X5239230Y-10212650D02*
X5267801Y-10212650D01*
X5267801Y-10212650D02*
X5286849Y-10222174D01*
X5286849Y-10222174D02*
X5296373Y-10241222D01*
X5296373Y-10241222D02*
X5296373Y-10345984D01*
X5420182Y-10345984D02*
X5401134Y-10336460D01*
X5401134Y-10336460D02*
X5391611Y-10326936D01*
X5391611Y-10326936D02*
X5382087Y-10307889D01*
X5382087Y-10307889D02*
X5382087Y-10250746D01*
X5382087Y-10250746D02*
X5391611Y-10231698D01*
X5391611Y-10231698D02*
X5401134Y-10222174D01*
X5401134Y-10222174D02*
X5420182Y-10212650D01*
X5420182Y-10212650D02*
X5448754Y-10212650D01*
X5448754Y-10212650D02*
X5467801Y-10222174D01*
X5467801Y-10222174D02*
X5477325Y-10231698D01*
X5477325Y-10231698D02*
X5486849Y-10250746D01*
X5486849Y-10250746D02*
X5486849Y-10307889D01*
X5486849Y-10307889D02*
X5477325Y-10326936D01*
X5477325Y-10326936D02*
X5467801Y-10336460D01*
X5467801Y-10336460D02*
X5448754Y-10345984D01*
X5448754Y-10345984D02*
X5420182Y-10345984D01*
X5543992Y-10212650D02*
X5620182Y-10212650D01*
X5572563Y-10145984D02*
X5572563Y-10317412D01*
X5572563Y-10317412D02*
X5582087Y-10336460D01*
X5582087Y-10336460D02*
X5601134Y-10345984D01*
X5601134Y-10345984D02*
X5620182Y-10345984D01*
X5839230Y-10212650D02*
X5839230Y-10412650D01*
X5839230Y-10222174D02*
X5858277Y-10212650D01*
X5858277Y-10212650D02*
X5896373Y-10212650D01*
X5896373Y-10212650D02*
X5915420Y-10222174D01*
X5915420Y-10222174D02*
X5924944Y-10231698D01*
X5924944Y-10231698D02*
X5934468Y-10250746D01*
X5934468Y-10250746D02*
X5934468Y-10307889D01*
X5934468Y-10307889D02*
X5924944Y-10326936D01*
X5924944Y-10326936D02*
X5915420Y-10336460D01*
X5915420Y-10336460D02*
X5896373Y-10345984D01*
X5896373Y-10345984D02*
X5858277Y-10345984D01*
X5858277Y-10345984D02*
X5839230Y-10336460D01*
X6048753Y-10345984D02*
X6029706Y-10336460D01*
X6029706Y-10336460D02*
X6020182Y-10317412D01*
X6020182Y-10317412D02*
X6020182Y-10145984D01*
X6210658Y-10345984D02*
X6210658Y-10241222D01*
X6210658Y-10241222D02*
X6201134Y-10222174D01*
X6201134Y-10222174D02*
X6182087Y-10212650D01*
X6182087Y-10212650D02*
X6143992Y-10212650D01*
X6143992Y-10212650D02*
X6124944Y-10222174D01*
X6210658Y-10336460D02*
X6191611Y-10345984D01*
X6191611Y-10345984D02*
X6143992Y-10345984D01*
X6143992Y-10345984D02*
X6124944Y-10336460D01*
X6124944Y-10336460D02*
X6115420Y-10317412D01*
X6115420Y-10317412D02*
X6115420Y-10298365D01*
X6115420Y-10298365D02*
X6124944Y-10279317D01*
X6124944Y-10279317D02*
X6143992Y-10269793D01*
X6143992Y-10269793D02*
X6191611Y-10269793D01*
X6191611Y-10269793D02*
X6210658Y-10260270D01*
X6277325Y-10212650D02*
X6353515Y-10212650D01*
X6305896Y-10145984D02*
X6305896Y-10317412D01*
X6305896Y-10317412D02*
X6315420Y-10336460D01*
X6315420Y-10336460D02*
X6334468Y-10345984D01*
X6334468Y-10345984D02*
X6353515Y-10345984D01*
X6496373Y-10336460D02*
X6477325Y-10345984D01*
X6477325Y-10345984D02*
X6439230Y-10345984D01*
X6439230Y-10345984D02*
X6420182Y-10336460D01*
X6420182Y-10336460D02*
X6410658Y-10317412D01*
X6410658Y-10317412D02*
X6410658Y-10241222D01*
X6410658Y-10241222D02*
X6420182Y-10222174D01*
X6420182Y-10222174D02*
X6439230Y-10212650D01*
X6439230Y-10212650D02*
X6477325Y-10212650D01*
X6477325Y-10212650D02*
X6496373Y-10222174D01*
X6496373Y-10222174D02*
X6505896Y-10241222D01*
X6505896Y-10241222D02*
X6505896Y-10260270D01*
X6505896Y-10260270D02*
X6410658Y-10279317D01*
X6677325Y-10345984D02*
X6677325Y-10145984D01*
X6677325Y-10336460D02*
X6658277Y-10345984D01*
X6658277Y-10345984D02*
X6620182Y-10345984D01*
X6620182Y-10345984D02*
X6601134Y-10336460D01*
X6601134Y-10336460D02*
X6591611Y-10326936D01*
X6591611Y-10326936D02*
X6582087Y-10307889D01*
X6582087Y-10307889D02*
X6582087Y-10250746D01*
X6582087Y-10250746D02*
X6591611Y-10231698D01*
X6591611Y-10231698D02*
X6601134Y-10222174D01*
X6601134Y-10222174D02*
X6620182Y-10212650D01*
X6620182Y-10212650D02*
X6658277Y-10212650D01*
X6658277Y-10212650D02*
X6677325Y-10222174D01*
X6753515Y-10422174D02*
X6763039Y-10412650D01*
X6763039Y-10412650D02*
X6782087Y-10384079D01*
X6782087Y-10384079D02*
X6791611Y-10365031D01*
X6791611Y-10365031D02*
X6801134Y-10336460D01*
X6801134Y-10336460D02*
X6810658Y-10288841D01*
X6810658Y-10288841D02*
X6810658Y-10250746D01*
X6810658Y-10250746D02*
X6801134Y-10203127D01*
X6801134Y-10203127D02*
X6791611Y-10174555D01*
X6791611Y-10174555D02*
X6782087Y-10155508D01*
X6782087Y-10155508D02*
X6763039Y-10126936D01*
X6763039Y-10126936D02*
X6753515Y-10117412D01*
M02*
