%TF.GenerationSoftware,KiCad,Pcbnew,9.0.7*%
%TF.CreationDate,2026-02-26T10:36:35+01:00*%
%TF.ProjectId,esp32-emu-turbo,65737033-322d-4656-9d75-2d747572626f,rev?*%
%TF.SameCoordinates,Original*%
%TF.FileFunction,Legend,Top*%
%TF.FilePolarity,Positive*%
%FSLAX46Y46*%
G04 Gerber Fmt 4.6, Leading zero omitted, Abs format (unit mm)*
G04 Created by KiCad (PCBNEW 9.0.7) date 2026-02-26 10:36:35*
%MOMM*%
%LPD*%
G01*
G04 APERTURE LIST*
%ADD10C,0.200000*%
%ADD11C,0.150000*%
G04 APERTURE END LIST*
D10*
X36800000Y-3100000D02*
X123200000Y-3100000D01*
X123200000Y-3100000D02*
X123200000Y-67900000D01*
X123200000Y-67900000D02*
X36800000Y-67900000D01*
X36800000Y-67900000D02*
X36800000Y-3100000D01*
X68500000Y-552219D02*
X68500000Y447780D01*
X68500000Y447780D02*
X68738095Y447780D01*
X68738095Y447780D02*
X68880952Y400161D01*
X68880952Y400161D02*
X68976190Y304923D01*
X68976190Y304923D02*
X69023809Y209685D01*
X69023809Y209685D02*
X69071428Y19209D01*
X69071428Y19209D02*
X69071428Y-123647D01*
X69071428Y-123647D02*
X69023809Y-314123D01*
X69023809Y-314123D02*
X68976190Y-409361D01*
X68976190Y-409361D02*
X68880952Y-504600D01*
X68880952Y-504600D02*
X68738095Y-552219D01*
X68738095Y-552219D02*
X68500000Y-552219D01*
X69500000Y-552219D02*
X69500000Y447780D01*
X69928571Y-504600D02*
X70071428Y-552219D01*
X70071428Y-552219D02*
X70309523Y-552219D01*
X70309523Y-552219D02*
X70404761Y-504600D01*
X70404761Y-504600D02*
X70452380Y-456980D01*
X70452380Y-456980D02*
X70499999Y-361742D01*
X70499999Y-361742D02*
X70499999Y-266504D01*
X70499999Y-266504D02*
X70452380Y-171266D01*
X70452380Y-171266D02*
X70404761Y-123647D01*
X70404761Y-123647D02*
X70309523Y-76028D01*
X70309523Y-76028D02*
X70119047Y-28409D01*
X70119047Y-28409D02*
X70023809Y19209D01*
X70023809Y19209D02*
X69976190Y66828D01*
X69976190Y66828D02*
X69928571Y162066D01*
X69928571Y162066D02*
X69928571Y257304D01*
X69928571Y257304D02*
X69976190Y352542D01*
X69976190Y352542D02*
X70023809Y400161D01*
X70023809Y400161D02*
X70119047Y447780D01*
X70119047Y447780D02*
X70357142Y447780D01*
X70357142Y447780D02*
X70499999Y400161D01*
X70928571Y-552219D02*
X70928571Y447780D01*
X70928571Y447780D02*
X71309523Y447780D01*
X71309523Y447780D02*
X71404761Y400161D01*
X71404761Y400161D02*
X71452380Y352542D01*
X71452380Y352542D02*
X71499999Y257304D01*
X71499999Y257304D02*
X71499999Y114447D01*
X71499999Y114447D02*
X71452380Y19209D01*
X71452380Y19209D02*
X71404761Y-28409D01*
X71404761Y-28409D02*
X71309523Y-76028D01*
X71309523Y-76028D02*
X70928571Y-76028D01*
X72404761Y-552219D02*
X71928571Y-552219D01*
X71928571Y-552219D02*
X71928571Y447780D01*
X72690476Y-266504D02*
X73166666Y-266504D01*
X72595238Y-552219D02*
X72928571Y447780D01*
X72928571Y447780D02*
X73261904Y-552219D01*
X73785714Y-76028D02*
X73785714Y-552219D01*
X73452381Y447780D02*
X73785714Y-76028D01*
X73785714Y-76028D02*
X74119047Y447780D01*
X75166667Y-266504D02*
X75642857Y-266504D01*
X75071429Y-552219D02*
X75404762Y447780D01*
X75404762Y447780D02*
X75738095Y-552219D01*
X76642857Y-552219D02*
X76309524Y-76028D01*
X76071429Y-552219D02*
X76071429Y447780D01*
X76071429Y447780D02*
X76452381Y447780D01*
X76452381Y447780D02*
X76547619Y400161D01*
X76547619Y400161D02*
X76595238Y352542D01*
X76595238Y352542D02*
X76642857Y257304D01*
X76642857Y257304D02*
X76642857Y114447D01*
X76642857Y114447D02*
X76595238Y19209D01*
X76595238Y19209D02*
X76547619Y-28409D01*
X76547619Y-28409D02*
X76452381Y-76028D01*
X76452381Y-76028D02*
X76071429Y-76028D01*
X77071429Y-28409D02*
X77404762Y-28409D01*
X77547619Y-552219D02*
X77071429Y-552219D01*
X77071429Y-552219D02*
X77071429Y447780D01*
X77071429Y447780D02*
X77547619Y447780D01*
X77928572Y-266504D02*
X78404762Y-266504D01*
X77833334Y-552219D02*
X78166667Y447780D01*
X78166667Y447780D02*
X78500000Y-552219D01*
X79880953Y-933171D02*
X79833334Y-885552D01*
X79833334Y-885552D02*
X79738096Y-742695D01*
X79738096Y-742695D02*
X79690477Y-647457D01*
X79690477Y-647457D02*
X79642858Y-504600D01*
X79642858Y-504600D02*
X79595239Y-266504D01*
X79595239Y-266504D02*
X79595239Y-76028D01*
X79595239Y-76028D02*
X79642858Y162066D01*
X79642858Y162066D02*
X79690477Y304923D01*
X79690477Y304923D02*
X79738096Y400161D01*
X79738096Y400161D02*
X79833334Y543019D01*
X79833334Y543019D02*
X79880953Y590638D01*
X80261906Y-552219D02*
X80261906Y447780D01*
X81214286Y-552219D02*
X80738096Y-552219D01*
X80738096Y-552219D02*
X80738096Y447780D01*
X81547620Y-552219D02*
X81547620Y447780D01*
X82071429Y-552219D02*
X82261905Y-552219D01*
X82261905Y-552219D02*
X82357143Y-504600D01*
X82357143Y-504600D02*
X82404762Y-456980D01*
X82404762Y-456980D02*
X82500000Y-314123D01*
X82500000Y-314123D02*
X82547619Y-123647D01*
X82547619Y-123647D02*
X82547619Y257304D01*
X82547619Y257304D02*
X82500000Y352542D01*
X82500000Y352542D02*
X82452381Y400161D01*
X82452381Y400161D02*
X82357143Y447780D01*
X82357143Y447780D02*
X82166667Y447780D01*
X82166667Y447780D02*
X82071429Y400161D01*
X82071429Y400161D02*
X82023810Y352542D01*
X82023810Y352542D02*
X81976191Y257304D01*
X81976191Y257304D02*
X81976191Y19209D01*
X81976191Y19209D02*
X82023810Y-76028D01*
X82023810Y-76028D02*
X82071429Y-123647D01*
X82071429Y-123647D02*
X82166667Y-171266D01*
X82166667Y-171266D02*
X82357143Y-171266D01*
X82357143Y-171266D02*
X82452381Y-123647D01*
X82452381Y-123647D02*
X82500000Y-76028D01*
X82500000Y-76028D02*
X82547619Y19209D01*
X83404762Y114447D02*
X83404762Y-552219D01*
X83166667Y495400D02*
X82928572Y-218885D01*
X82928572Y-218885D02*
X83547619Y-218885D01*
X84071429Y19209D02*
X83976191Y66828D01*
X83976191Y66828D02*
X83928572Y114447D01*
X83928572Y114447D02*
X83880953Y209685D01*
X83880953Y209685D02*
X83880953Y257304D01*
X83880953Y257304D02*
X83928572Y352542D01*
X83928572Y352542D02*
X83976191Y400161D01*
X83976191Y400161D02*
X84071429Y447780D01*
X84071429Y447780D02*
X84261905Y447780D01*
X84261905Y447780D02*
X84357143Y400161D01*
X84357143Y400161D02*
X84404762Y352542D01*
X84404762Y352542D02*
X84452381Y257304D01*
X84452381Y257304D02*
X84452381Y209685D01*
X84452381Y209685D02*
X84404762Y114447D01*
X84404762Y114447D02*
X84357143Y66828D01*
X84357143Y66828D02*
X84261905Y19209D01*
X84261905Y19209D02*
X84071429Y19209D01*
X84071429Y19209D02*
X83976191Y-28409D01*
X83976191Y-28409D02*
X83928572Y-76028D01*
X83928572Y-76028D02*
X83880953Y-171266D01*
X83880953Y-171266D02*
X83880953Y-361742D01*
X83880953Y-361742D02*
X83928572Y-456980D01*
X83928572Y-456980D02*
X83976191Y-504600D01*
X83976191Y-504600D02*
X84071429Y-552219D01*
X84071429Y-552219D02*
X84261905Y-552219D01*
X84261905Y-552219D02*
X84357143Y-504600D01*
X84357143Y-504600D02*
X84404762Y-456980D01*
X84404762Y-456980D02*
X84452381Y-361742D01*
X84452381Y-361742D02*
X84452381Y-171266D01*
X84452381Y-171266D02*
X84404762Y-76028D01*
X84404762Y-76028D02*
X84357143Y-28409D01*
X84357143Y-28409D02*
X84261905Y19209D01*
X85023810Y19209D02*
X84928572Y66828D01*
X84928572Y66828D02*
X84880953Y114447D01*
X84880953Y114447D02*
X84833334Y209685D01*
X84833334Y209685D02*
X84833334Y257304D01*
X84833334Y257304D02*
X84880953Y352542D01*
X84880953Y352542D02*
X84928572Y400161D01*
X84928572Y400161D02*
X85023810Y447780D01*
X85023810Y447780D02*
X85214286Y447780D01*
X85214286Y447780D02*
X85309524Y400161D01*
X85309524Y400161D02*
X85357143Y352542D01*
X85357143Y352542D02*
X85404762Y257304D01*
X85404762Y257304D02*
X85404762Y209685D01*
X85404762Y209685D02*
X85357143Y114447D01*
X85357143Y114447D02*
X85309524Y66828D01*
X85309524Y66828D02*
X85214286Y19209D01*
X85214286Y19209D02*
X85023810Y19209D01*
X85023810Y19209D02*
X84928572Y-28409D01*
X84928572Y-28409D02*
X84880953Y-76028D01*
X84880953Y-76028D02*
X84833334Y-171266D01*
X84833334Y-171266D02*
X84833334Y-361742D01*
X84833334Y-361742D02*
X84880953Y-456980D01*
X84880953Y-456980D02*
X84928572Y-504600D01*
X84928572Y-504600D02*
X85023810Y-552219D01*
X85023810Y-552219D02*
X85214286Y-552219D01*
X85214286Y-552219D02*
X85309524Y-504600D01*
X85309524Y-504600D02*
X85357143Y-456980D01*
X85357143Y-456980D02*
X85404762Y-361742D01*
X85404762Y-361742D02*
X85404762Y-171266D01*
X85404762Y-171266D02*
X85357143Y-76028D01*
X85357143Y-76028D02*
X85309524Y-28409D01*
X85309524Y-28409D02*
X85214286Y19209D01*
X86500001Y447780D02*
X87119048Y447780D01*
X87119048Y447780D02*
X86785715Y66828D01*
X86785715Y66828D02*
X86928572Y66828D01*
X86928572Y66828D02*
X87023810Y19209D01*
X87023810Y19209D02*
X87071429Y-28409D01*
X87071429Y-28409D02*
X87119048Y-123647D01*
X87119048Y-123647D02*
X87119048Y-361742D01*
X87119048Y-361742D02*
X87071429Y-456980D01*
X87071429Y-456980D02*
X87023810Y-504600D01*
X87023810Y-504600D02*
X86928572Y-552219D01*
X86928572Y-552219D02*
X86642858Y-552219D01*
X86642858Y-552219D02*
X86547620Y-504600D01*
X86547620Y-504600D02*
X86500001Y-456980D01*
X87547620Y-456980D02*
X87595239Y-504600D01*
X87595239Y-504600D02*
X87547620Y-552219D01*
X87547620Y-552219D02*
X87500001Y-504600D01*
X87500001Y-504600D02*
X87547620Y-456980D01*
X87547620Y-456980D02*
X87547620Y-552219D01*
X88071429Y-552219D02*
X88261905Y-552219D01*
X88261905Y-552219D02*
X88357143Y-504600D01*
X88357143Y-504600D02*
X88404762Y-456980D01*
X88404762Y-456980D02*
X88500000Y-314123D01*
X88500000Y-314123D02*
X88547619Y-123647D01*
X88547619Y-123647D02*
X88547619Y257304D01*
X88547619Y257304D02*
X88500000Y352542D01*
X88500000Y352542D02*
X88452381Y400161D01*
X88452381Y400161D02*
X88357143Y447780D01*
X88357143Y447780D02*
X88166667Y447780D01*
X88166667Y447780D02*
X88071429Y400161D01*
X88071429Y400161D02*
X88023810Y352542D01*
X88023810Y352542D02*
X87976191Y257304D01*
X87976191Y257304D02*
X87976191Y19209D01*
X87976191Y19209D02*
X88023810Y-76028D01*
X88023810Y-76028D02*
X88071429Y-123647D01*
X88071429Y-123647D02*
X88166667Y-171266D01*
X88166667Y-171266D02*
X88357143Y-171266D01*
X88357143Y-171266D02*
X88452381Y-123647D01*
X88452381Y-123647D02*
X88500000Y-76028D01*
X88500000Y-76028D02*
X88547619Y19209D01*
X89452381Y447780D02*
X88976191Y447780D01*
X88976191Y447780D02*
X88928572Y-28409D01*
X88928572Y-28409D02*
X88976191Y19209D01*
X88976191Y19209D02*
X89071429Y66828D01*
X89071429Y66828D02*
X89309524Y66828D01*
X89309524Y66828D02*
X89404762Y19209D01*
X89404762Y19209D02*
X89452381Y-28409D01*
X89452381Y-28409D02*
X89500000Y-123647D01*
X89500000Y-123647D02*
X89500000Y-361742D01*
X89500000Y-361742D02*
X89452381Y-456980D01*
X89452381Y-456980D02*
X89404762Y-504600D01*
X89404762Y-504600D02*
X89309524Y-552219D01*
X89309524Y-552219D02*
X89071429Y-552219D01*
X89071429Y-552219D02*
X88976191Y-504600D01*
X88976191Y-504600D02*
X88928572Y-456980D01*
X89928572Y-552219D02*
X89928572Y114447D01*
X89928572Y447780D02*
X89880953Y400161D01*
X89880953Y400161D02*
X89928572Y352542D01*
X89928572Y352542D02*
X89976191Y400161D01*
X89976191Y400161D02*
X89928572Y447780D01*
X89928572Y447780D02*
X89928572Y352542D01*
X90404762Y114447D02*
X90404762Y-552219D01*
X90404762Y19209D02*
X90452381Y66828D01*
X90452381Y66828D02*
X90547619Y114447D01*
X90547619Y114447D02*
X90690476Y114447D01*
X90690476Y114447D02*
X90785714Y66828D01*
X90785714Y66828D02*
X90833333Y-28409D01*
X90833333Y-28409D02*
X90833333Y-552219D01*
X91214286Y-933171D02*
X91261905Y-885552D01*
X91261905Y-885552D02*
X91357143Y-742695D01*
X91357143Y-742695D02*
X91404762Y-647457D01*
X91404762Y-647457D02*
X91452381Y-504600D01*
X91452381Y-504600D02*
X91500000Y-266504D01*
X91500000Y-266504D02*
X91500000Y-76028D01*
X91500000Y-76028D02*
X91452381Y162066D01*
X91452381Y162066D02*
X91404762Y304923D01*
X91404762Y304923D02*
X91357143Y400161D01*
X91357143Y400161D02*
X91261905Y543019D01*
X91261905Y543019D02*
X91214286Y590638D01*
X62250000Y-67397814D02*
X62750000Y-67397814D01*
X62964286Y-68183528D02*
X62250000Y-68183528D01*
X62250000Y-68183528D02*
X62250000Y-66683528D01*
X62250000Y-66683528D02*
X62964286Y-66683528D01*
X63535715Y-68112100D02*
X63750001Y-68183528D01*
X63750001Y-68183528D02*
X64107143Y-68183528D01*
X64107143Y-68183528D02*
X64250001Y-68112100D01*
X64250001Y-68112100D02*
X64321429Y-68040671D01*
X64321429Y-68040671D02*
X64392858Y-67897814D01*
X64392858Y-67897814D02*
X64392858Y-67754957D01*
X64392858Y-67754957D02*
X64321429Y-67612100D01*
X64321429Y-67612100D02*
X64250001Y-67540671D01*
X64250001Y-67540671D02*
X64107143Y-67469242D01*
X64107143Y-67469242D02*
X63821429Y-67397814D01*
X63821429Y-67397814D02*
X63678572Y-67326385D01*
X63678572Y-67326385D02*
X63607143Y-67254957D01*
X63607143Y-67254957D02*
X63535715Y-67112100D01*
X63535715Y-67112100D02*
X63535715Y-66969242D01*
X63535715Y-66969242D02*
X63607143Y-66826385D01*
X63607143Y-66826385D02*
X63678572Y-66754957D01*
X63678572Y-66754957D02*
X63821429Y-66683528D01*
X63821429Y-66683528D02*
X64178572Y-66683528D01*
X64178572Y-66683528D02*
X64392858Y-66754957D01*
X65035714Y-68183528D02*
X65035714Y-66683528D01*
X65035714Y-66683528D02*
X65607143Y-66683528D01*
X65607143Y-66683528D02*
X65750000Y-66754957D01*
X65750000Y-66754957D02*
X65821429Y-66826385D01*
X65821429Y-66826385D02*
X65892857Y-66969242D01*
X65892857Y-66969242D02*
X65892857Y-67183528D01*
X65892857Y-67183528D02*
X65821429Y-67326385D01*
X65821429Y-67326385D02*
X65750000Y-67397814D01*
X65750000Y-67397814D02*
X65607143Y-67469242D01*
X65607143Y-67469242D02*
X65035714Y-67469242D01*
X66392857Y-66683528D02*
X67321429Y-66683528D01*
X67321429Y-66683528D02*
X66821429Y-67254957D01*
X66821429Y-67254957D02*
X67035714Y-67254957D01*
X67035714Y-67254957D02*
X67178572Y-67326385D01*
X67178572Y-67326385D02*
X67250000Y-67397814D01*
X67250000Y-67397814D02*
X67321429Y-67540671D01*
X67321429Y-67540671D02*
X67321429Y-67897814D01*
X67321429Y-67897814D02*
X67250000Y-68040671D01*
X67250000Y-68040671D02*
X67178572Y-68112100D01*
X67178572Y-68112100D02*
X67035714Y-68183528D01*
X67035714Y-68183528D02*
X66607143Y-68183528D01*
X66607143Y-68183528D02*
X66464286Y-68112100D01*
X66464286Y-68112100D02*
X66392857Y-68040671D01*
X67892857Y-66826385D02*
X67964285Y-66754957D01*
X67964285Y-66754957D02*
X68107143Y-66683528D01*
X68107143Y-66683528D02*
X68464285Y-66683528D01*
X68464285Y-66683528D02*
X68607143Y-66754957D01*
X68607143Y-66754957D02*
X68678571Y-66826385D01*
X68678571Y-66826385D02*
X68750000Y-66969242D01*
X68750000Y-66969242D02*
X68750000Y-67112100D01*
X68750000Y-67112100D02*
X68678571Y-67326385D01*
X68678571Y-67326385D02*
X67821428Y-68183528D01*
X67821428Y-68183528D02*
X68750000Y-68183528D01*
X70535713Y-67397814D02*
X71035713Y-67397814D01*
X71249999Y-68183528D02*
X70535713Y-68183528D01*
X70535713Y-68183528D02*
X70535713Y-66683528D01*
X70535713Y-66683528D02*
X71249999Y-66683528D01*
X71892856Y-68183528D02*
X71892856Y-66683528D01*
X71892856Y-66683528D02*
X72392856Y-67754957D01*
X72392856Y-67754957D02*
X72892856Y-66683528D01*
X72892856Y-66683528D02*
X72892856Y-68183528D01*
X73607142Y-66683528D02*
X73607142Y-67897814D01*
X73607142Y-67897814D02*
X73678571Y-68040671D01*
X73678571Y-68040671D02*
X73750000Y-68112100D01*
X73750000Y-68112100D02*
X73892857Y-68183528D01*
X73892857Y-68183528D02*
X74178571Y-68183528D01*
X74178571Y-68183528D02*
X74321428Y-68112100D01*
X74321428Y-68112100D02*
X74392857Y-68040671D01*
X74392857Y-68040671D02*
X74464285Y-67897814D01*
X74464285Y-67897814D02*
X74464285Y-66683528D01*
X76107143Y-66683528D02*
X76964286Y-66683528D01*
X76535714Y-68183528D02*
X76535714Y-66683528D01*
X78107143Y-67183528D02*
X78107143Y-68183528D01*
X77464285Y-67183528D02*
X77464285Y-67969242D01*
X77464285Y-67969242D02*
X77535714Y-68112100D01*
X77535714Y-68112100D02*
X77678571Y-68183528D01*
X77678571Y-68183528D02*
X77892857Y-68183528D01*
X77892857Y-68183528D02*
X78035714Y-68112100D01*
X78035714Y-68112100D02*
X78107143Y-68040671D01*
X78821428Y-68183528D02*
X78821428Y-67183528D01*
X78821428Y-67469242D02*
X78892857Y-67326385D01*
X78892857Y-67326385D02*
X78964286Y-67254957D01*
X78964286Y-67254957D02*
X79107143Y-67183528D01*
X79107143Y-67183528D02*
X79250000Y-67183528D01*
X79749999Y-68183528D02*
X79749999Y-66683528D01*
X79749999Y-67254957D02*
X79892857Y-67183528D01*
X79892857Y-67183528D02*
X80178571Y-67183528D01*
X80178571Y-67183528D02*
X80321428Y-67254957D01*
X80321428Y-67254957D02*
X80392857Y-67326385D01*
X80392857Y-67326385D02*
X80464285Y-67469242D01*
X80464285Y-67469242D02*
X80464285Y-67897814D01*
X80464285Y-67897814D02*
X80392857Y-68040671D01*
X80392857Y-68040671D02*
X80321428Y-68112100D01*
X80321428Y-68112100D02*
X80178571Y-68183528D01*
X80178571Y-68183528D02*
X79892857Y-68183528D01*
X79892857Y-68183528D02*
X79749999Y-68112100D01*
X81321428Y-68183528D02*
X81178571Y-68112100D01*
X81178571Y-68112100D02*
X81107142Y-68040671D01*
X81107142Y-68040671D02*
X81035714Y-67897814D01*
X81035714Y-67897814D02*
X81035714Y-67469242D01*
X81035714Y-67469242D02*
X81107142Y-67326385D01*
X81107142Y-67326385D02*
X81178571Y-67254957D01*
X81178571Y-67254957D02*
X81321428Y-67183528D01*
X81321428Y-67183528D02*
X81535714Y-67183528D01*
X81535714Y-67183528D02*
X81678571Y-67254957D01*
X81678571Y-67254957D02*
X81750000Y-67326385D01*
X81750000Y-67326385D02*
X81821428Y-67469242D01*
X81821428Y-67469242D02*
X81821428Y-67897814D01*
X81821428Y-67897814D02*
X81750000Y-68040671D01*
X81750000Y-68040671D02*
X81678571Y-68112100D01*
X81678571Y-68112100D02*
X81535714Y-68183528D01*
X81535714Y-68183528D02*
X81321428Y-68183528D01*
X84464285Y-68040671D02*
X84392857Y-68112100D01*
X84392857Y-68112100D02*
X84178571Y-68183528D01*
X84178571Y-68183528D02*
X84035714Y-68183528D01*
X84035714Y-68183528D02*
X83821428Y-68112100D01*
X83821428Y-68112100D02*
X83678571Y-67969242D01*
X83678571Y-67969242D02*
X83607142Y-67826385D01*
X83607142Y-67826385D02*
X83535714Y-67540671D01*
X83535714Y-67540671D02*
X83535714Y-67326385D01*
X83535714Y-67326385D02*
X83607142Y-67040671D01*
X83607142Y-67040671D02*
X83678571Y-66897814D01*
X83678571Y-66897814D02*
X83821428Y-66754957D01*
X83821428Y-66754957D02*
X84035714Y-66683528D01*
X84035714Y-66683528D02*
X84178571Y-66683528D01*
X84178571Y-66683528D02*
X84392857Y-66754957D01*
X84392857Y-66754957D02*
X84464285Y-66826385D01*
X85107142Y-68183528D02*
X85107142Y-66683528D01*
X85107142Y-66683528D02*
X85678571Y-66683528D01*
X85678571Y-66683528D02*
X85821428Y-66754957D01*
X85821428Y-66754957D02*
X85892857Y-66826385D01*
X85892857Y-66826385D02*
X85964285Y-66969242D01*
X85964285Y-66969242D02*
X85964285Y-67183528D01*
X85964285Y-67183528D02*
X85892857Y-67326385D01*
X85892857Y-67326385D02*
X85821428Y-67397814D01*
X85821428Y-67397814D02*
X85678571Y-67469242D01*
X85678571Y-67469242D02*
X85107142Y-67469242D01*
X87035714Y-66683528D02*
X87035714Y-67754957D01*
X87035714Y-67754957D02*
X86964285Y-67969242D01*
X86964285Y-67969242D02*
X86821428Y-68112100D01*
X86821428Y-68112100D02*
X86607142Y-68183528D01*
X86607142Y-68183528D02*
X86464285Y-68183528D01*
X88964285Y-68183528D02*
X88892857Y-68183528D01*
X88892857Y-68183528D02*
X88749999Y-68112100D01*
X88749999Y-68112100D02*
X88535714Y-67897814D01*
X88535714Y-67897814D02*
X88178571Y-67469242D01*
X88178571Y-67469242D02*
X88035714Y-67254957D01*
X88035714Y-67254957D02*
X87964285Y-67040671D01*
X87964285Y-67040671D02*
X87964285Y-66897814D01*
X87964285Y-66897814D02*
X88035714Y-66754957D01*
X88035714Y-66754957D02*
X88178571Y-66683528D01*
X88178571Y-66683528D02*
X88249999Y-66683528D01*
X88249999Y-66683528D02*
X88392857Y-66754957D01*
X88392857Y-66754957D02*
X88464285Y-66897814D01*
X88464285Y-66897814D02*
X88464285Y-66969242D01*
X88464285Y-66969242D02*
X88392857Y-67112100D01*
X88392857Y-67112100D02*
X88321428Y-67183528D01*
X88321428Y-67183528D02*
X87892857Y-67469242D01*
X87892857Y-67469242D02*
X87821428Y-67540671D01*
X87821428Y-67540671D02*
X87749999Y-67683528D01*
X87749999Y-67683528D02*
X87749999Y-67897814D01*
X87749999Y-67897814D02*
X87821428Y-68040671D01*
X87821428Y-68040671D02*
X87892857Y-68112100D01*
X87892857Y-68112100D02*
X88035714Y-68183528D01*
X88035714Y-68183528D02*
X88249999Y-68183528D01*
X88249999Y-68183528D02*
X88392857Y-68112100D01*
X88392857Y-68112100D02*
X88464285Y-68040671D01*
X88464285Y-68040671D02*
X88678571Y-67754957D01*
X88678571Y-67754957D02*
X88749999Y-67540671D01*
X88749999Y-67540671D02*
X88749999Y-67397814D01*
X90464285Y-68040671D02*
X90392857Y-68112100D01*
X90392857Y-68112100D02*
X90178571Y-68183528D01*
X90178571Y-68183528D02*
X90035714Y-68183528D01*
X90035714Y-68183528D02*
X89821428Y-68112100D01*
X89821428Y-68112100D02*
X89678571Y-67969242D01*
X89678571Y-67969242D02*
X89607142Y-67826385D01*
X89607142Y-67826385D02*
X89535714Y-67540671D01*
X89535714Y-67540671D02*
X89535714Y-67326385D01*
X89535714Y-67326385D02*
X89607142Y-67040671D01*
X89607142Y-67040671D02*
X89678571Y-66897814D01*
X89678571Y-66897814D02*
X89821428Y-66754957D01*
X89821428Y-66754957D02*
X90035714Y-66683528D01*
X90035714Y-66683528D02*
X90178571Y-66683528D01*
X90178571Y-66683528D02*
X90392857Y-66754957D01*
X90392857Y-66754957D02*
X90464285Y-66826385D01*
X91107142Y-68183528D02*
X91107142Y-66683528D01*
X91107142Y-66683528D02*
X91678571Y-66683528D01*
X91678571Y-66683528D02*
X91821428Y-66754957D01*
X91821428Y-66754957D02*
X91892857Y-66826385D01*
X91892857Y-66826385D02*
X91964285Y-66969242D01*
X91964285Y-66969242D02*
X91964285Y-67183528D01*
X91964285Y-67183528D02*
X91892857Y-67326385D01*
X91892857Y-67326385D02*
X91821428Y-67397814D01*
X91821428Y-67397814D02*
X91678571Y-67469242D01*
X91678571Y-67469242D02*
X91107142Y-67469242D01*
X93607142Y-67183528D02*
X93964285Y-68183528D01*
X93964285Y-68183528D02*
X94321428Y-67183528D01*
X95678571Y-68183528D02*
X94821428Y-68183528D01*
X95249999Y-68183528D02*
X95249999Y-66683528D01*
X95249999Y-66683528D02*
X95107142Y-66897814D01*
X95107142Y-66897814D02*
X94964285Y-67040671D01*
X94964285Y-67040671D02*
X94821428Y-67112100D01*
X96321427Y-68040671D02*
X96392856Y-68112100D01*
X96392856Y-68112100D02*
X96321427Y-68183528D01*
X96321427Y-68183528D02*
X96249999Y-68112100D01*
X96249999Y-68112100D02*
X96321427Y-68040671D01*
X96321427Y-68040671D02*
X96321427Y-68183528D01*
X97321428Y-66683528D02*
X97464285Y-66683528D01*
X97464285Y-66683528D02*
X97607142Y-66754957D01*
X97607142Y-66754957D02*
X97678571Y-66826385D01*
X97678571Y-66826385D02*
X97749999Y-66969242D01*
X97749999Y-66969242D02*
X97821428Y-67254957D01*
X97821428Y-67254957D02*
X97821428Y-67612100D01*
X97821428Y-67612100D02*
X97749999Y-67897814D01*
X97749999Y-67897814D02*
X97678571Y-68040671D01*
X97678571Y-68040671D02*
X97607142Y-68112100D01*
X97607142Y-68112100D02*
X97464285Y-68183528D01*
X97464285Y-68183528D02*
X97321428Y-68183528D01*
X97321428Y-68183528D02*
X97178571Y-68112100D01*
X97178571Y-68112100D02*
X97107142Y-68040671D01*
X97107142Y-68040671D02*
X97035713Y-67897814D01*
X97035713Y-67897814D02*
X96964285Y-67612100D01*
X96964285Y-67612100D02*
X96964285Y-67254957D01*
X96964285Y-67254957D02*
X97035713Y-66969242D01*
X97035713Y-66969242D02*
X97107142Y-66826385D01*
X97107142Y-66826385D02*
X97178571Y-66754957D01*
X97178571Y-66754957D02*
X97321428Y-66683528D01*
X15690476Y-17952219D02*
X15690476Y-16952219D01*
X15690476Y-16952219D02*
X15928571Y-16952219D01*
X15928571Y-16952219D02*
X16071428Y-16999838D01*
X16071428Y-16999838D02*
X16166666Y-17095076D01*
X16166666Y-17095076D02*
X16214285Y-17190314D01*
X16214285Y-17190314D02*
X16261904Y-17380790D01*
X16261904Y-17380790D02*
X16261904Y-17523647D01*
X16261904Y-17523647D02*
X16214285Y-17714123D01*
X16214285Y-17714123D02*
X16166666Y-17809361D01*
X16166666Y-17809361D02*
X16071428Y-17904600D01*
X16071428Y-17904600D02*
X15928571Y-17952219D01*
X15928571Y-17952219D02*
X15690476Y-17952219D01*
X16690476Y-17571266D02*
X17452381Y-17571266D01*
X17928571Y-17952219D02*
X17928571Y-16952219D01*
X17928571Y-16952219D02*
X18309523Y-16952219D01*
X18309523Y-16952219D02*
X18404761Y-16999838D01*
X18404761Y-16999838D02*
X18452380Y-17047457D01*
X18452380Y-17047457D02*
X18499999Y-17142695D01*
X18499999Y-17142695D02*
X18499999Y-17285552D01*
X18499999Y-17285552D02*
X18452380Y-17380790D01*
X18452380Y-17380790D02*
X18404761Y-17428409D01*
X18404761Y-17428409D02*
X18309523Y-17476028D01*
X18309523Y-17476028D02*
X17928571Y-17476028D01*
X18880952Y-17666504D02*
X19357142Y-17666504D01*
X18785714Y-17952219D02*
X19119047Y-16952219D01*
X19119047Y-16952219D02*
X19452380Y-17952219D01*
X19785714Y-17952219D02*
X19785714Y-16952219D01*
X19785714Y-16952219D02*
X20023809Y-16952219D01*
X20023809Y-16952219D02*
X20166666Y-16999838D01*
X20166666Y-16999838D02*
X20261904Y-17095076D01*
X20261904Y-17095076D02*
X20309523Y-17190314D01*
X20309523Y-17190314D02*
X20357142Y-17380790D01*
X20357142Y-17380790D02*
X20357142Y-17523647D01*
X20357142Y-17523647D02*
X20309523Y-17714123D01*
X20309523Y-17714123D02*
X20261904Y-17809361D01*
X20261904Y-17809361D02*
X20166666Y-17904600D01*
X20166666Y-17904600D02*
X20023809Y-17952219D01*
X20023809Y-17952219D02*
X19785714Y-17952219D01*
X140357143Y-16666504D02*
X140833333Y-16666504D01*
X140261905Y-16952219D02*
X140595238Y-15952219D01*
X140595238Y-15952219D02*
X140928571Y-16952219D01*
X141595238Y-16428409D02*
X141738095Y-16476028D01*
X141738095Y-16476028D02*
X141785714Y-16523647D01*
X141785714Y-16523647D02*
X141833333Y-16618885D01*
X141833333Y-16618885D02*
X141833333Y-16761742D01*
X141833333Y-16761742D02*
X141785714Y-16856980D01*
X141785714Y-16856980D02*
X141738095Y-16904600D01*
X141738095Y-16904600D02*
X141642857Y-16952219D01*
X141642857Y-16952219D02*
X141261905Y-16952219D01*
X141261905Y-16952219D02*
X141261905Y-15952219D01*
X141261905Y-15952219D02*
X141595238Y-15952219D01*
X141595238Y-15952219D02*
X141690476Y-15999838D01*
X141690476Y-15999838D02*
X141738095Y-16047457D01*
X141738095Y-16047457D02*
X141785714Y-16142695D01*
X141785714Y-16142695D02*
X141785714Y-16237933D01*
X141785714Y-16237933D02*
X141738095Y-16333171D01*
X141738095Y-16333171D02*
X141690476Y-16380790D01*
X141690476Y-16380790D02*
X141595238Y-16428409D01*
X141595238Y-16428409D02*
X141261905Y-16428409D01*
X142166667Y-15952219D02*
X142833333Y-16952219D01*
X142833333Y-15952219D02*
X142166667Y-16952219D01*
X143404762Y-16476028D02*
X143404762Y-16952219D01*
X143071429Y-15952219D02*
X143404762Y-16476028D01*
X143404762Y-16476028D02*
X143738095Y-15952219D01*
X140533333Y-57859695D02*
X140533333Y-57059695D01*
X140533333Y-57059695D02*
X140799999Y-57631123D01*
X140799999Y-57631123D02*
X141066666Y-57059695D01*
X141066666Y-57059695D02*
X141066666Y-57859695D01*
X141447619Y-57440647D02*
X141714285Y-57440647D01*
X141828571Y-57859695D02*
X141447619Y-57859695D01*
X141447619Y-57859695D02*
X141447619Y-57059695D01*
X141447619Y-57059695D02*
X141828571Y-57059695D01*
X142171429Y-57859695D02*
X142171429Y-57059695D01*
X142171429Y-57059695D02*
X142628572Y-57859695D01*
X142628572Y-57859695D02*
X142628572Y-57059695D01*
X143009524Y-57059695D02*
X143009524Y-57707314D01*
X143009524Y-57707314D02*
X143047619Y-57783504D01*
X143047619Y-57783504D02*
X143085714Y-57821600D01*
X143085714Y-57821600D02*
X143161905Y-57859695D01*
X143161905Y-57859695D02*
X143314286Y-57859695D01*
X143314286Y-57859695D02*
X143390476Y-57821600D01*
X143390476Y-57821600D02*
X143428571Y-57783504D01*
X143428571Y-57783504D02*
X143466667Y-57707314D01*
X143466667Y-57707314D02*
X143466667Y-57059695D01*
D11*
X24571429Y-70712628D02*
X24542857Y-70741200D01*
X24542857Y-70741200D02*
X24457143Y-70769771D01*
X24457143Y-70769771D02*
X24400000Y-70769771D01*
X24400000Y-70769771D02*
X24314286Y-70741200D01*
X24314286Y-70741200D02*
X24257143Y-70684057D01*
X24257143Y-70684057D02*
X24228572Y-70626914D01*
X24228572Y-70626914D02*
X24200000Y-70512628D01*
X24200000Y-70512628D02*
X24200000Y-70426914D01*
X24200000Y-70426914D02*
X24228572Y-70312628D01*
X24228572Y-70312628D02*
X24257143Y-70255485D01*
X24257143Y-70255485D02*
X24314286Y-70198342D01*
X24314286Y-70198342D02*
X24400000Y-70169771D01*
X24400000Y-70169771D02*
X24457143Y-70169771D01*
X24457143Y-70169771D02*
X24542857Y-70198342D01*
X24542857Y-70198342D02*
X24571429Y-70226914D01*
X24828572Y-70769771D02*
X24828572Y-70169771D01*
X24828572Y-70455485D02*
X25171429Y-70455485D01*
X25171429Y-70769771D02*
X25171429Y-70169771D01*
X25771428Y-70198342D02*
X25714286Y-70169771D01*
X25714286Y-70169771D02*
X25628571Y-70169771D01*
X25628571Y-70169771D02*
X25542857Y-70198342D01*
X25542857Y-70198342D02*
X25485714Y-70255485D01*
X25485714Y-70255485D02*
X25457143Y-70312628D01*
X25457143Y-70312628D02*
X25428571Y-70426914D01*
X25428571Y-70426914D02*
X25428571Y-70512628D01*
X25428571Y-70512628D02*
X25457143Y-70626914D01*
X25457143Y-70626914D02*
X25485714Y-70684057D01*
X25485714Y-70684057D02*
X25542857Y-70741200D01*
X25542857Y-70741200D02*
X25628571Y-70769771D01*
X25628571Y-70769771D02*
X25685714Y-70769771D01*
X25685714Y-70769771D02*
X25771428Y-70741200D01*
X25771428Y-70741200D02*
X25800000Y-70712628D01*
X25800000Y-70712628D02*
X25800000Y-70512628D01*
X25800000Y-70512628D02*
X25685714Y-70512628D01*
X31285715Y-70455485D02*
X31085715Y-70455485D01*
X31085715Y-70769771D02*
X31085715Y-70169771D01*
X31085715Y-70169771D02*
X31371429Y-70169771D01*
X31600001Y-70169771D02*
X31600001Y-70655485D01*
X31600001Y-70655485D02*
X31628572Y-70712628D01*
X31628572Y-70712628D02*
X31657144Y-70741200D01*
X31657144Y-70741200D02*
X31714286Y-70769771D01*
X31714286Y-70769771D02*
X31828572Y-70769771D01*
X31828572Y-70769771D02*
X31885715Y-70741200D01*
X31885715Y-70741200D02*
X31914286Y-70712628D01*
X31914286Y-70712628D02*
X31942858Y-70655485D01*
X31942858Y-70655485D02*
X31942858Y-70169771D01*
X32514286Y-70769771D02*
X32228572Y-70769771D01*
X32228572Y-70769771D02*
X32228572Y-70169771D01*
X33000000Y-70769771D02*
X32714286Y-70769771D01*
X32714286Y-70769771D02*
X32714286Y-70169771D01*
D10*
X16666667Y-20904600D02*
X16809524Y-20952219D01*
X16809524Y-20952219D02*
X17047619Y-20952219D01*
X17047619Y-20952219D02*
X17142857Y-20904600D01*
X17142857Y-20904600D02*
X17190476Y-20856980D01*
X17190476Y-20856980D02*
X17238095Y-20761742D01*
X17238095Y-20761742D02*
X17238095Y-20666504D01*
X17238095Y-20666504D02*
X17190476Y-20571266D01*
X17190476Y-20571266D02*
X17142857Y-20523647D01*
X17142857Y-20523647D02*
X17047619Y-20476028D01*
X17047619Y-20476028D02*
X16857143Y-20428409D01*
X16857143Y-20428409D02*
X16761905Y-20380790D01*
X16761905Y-20380790D02*
X16714286Y-20333171D01*
X16714286Y-20333171D02*
X16666667Y-20237933D01*
X16666667Y-20237933D02*
X16666667Y-20142695D01*
X16666667Y-20142695D02*
X16714286Y-20047457D01*
X16714286Y-20047457D02*
X16761905Y-19999838D01*
X16761905Y-19999838D02*
X16857143Y-19952219D01*
X16857143Y-19952219D02*
X17095238Y-19952219D01*
X17095238Y-19952219D02*
X17238095Y-19999838D01*
X17571429Y-19952219D02*
X17809524Y-20952219D01*
X17809524Y-20952219D02*
X18000000Y-20237933D01*
X18000000Y-20237933D02*
X18190476Y-20952219D01*
X18190476Y-20952219D02*
X18428572Y-19952219D01*
X19333333Y-20952219D02*
X18761905Y-20952219D01*
X19047619Y-20952219D02*
X19047619Y-19952219D01*
X19047619Y-19952219D02*
X18952381Y-20095076D01*
X18952381Y-20095076D02*
X18857143Y-20190314D01*
X18857143Y-20190314D02*
X18761905Y-20237933D01*
X11571429Y-26904600D02*
X11714286Y-26952219D01*
X11714286Y-26952219D02*
X11952381Y-26952219D01*
X11952381Y-26952219D02*
X12047619Y-26904600D01*
X12047619Y-26904600D02*
X12095238Y-26856980D01*
X12095238Y-26856980D02*
X12142857Y-26761742D01*
X12142857Y-26761742D02*
X12142857Y-26666504D01*
X12142857Y-26666504D02*
X12095238Y-26571266D01*
X12095238Y-26571266D02*
X12047619Y-26523647D01*
X12047619Y-26523647D02*
X11952381Y-26476028D01*
X11952381Y-26476028D02*
X11761905Y-26428409D01*
X11761905Y-26428409D02*
X11666667Y-26380790D01*
X11666667Y-26380790D02*
X11619048Y-26333171D01*
X11619048Y-26333171D02*
X11571429Y-26237933D01*
X11571429Y-26237933D02*
X11571429Y-26142695D01*
X11571429Y-26142695D02*
X11619048Y-26047457D01*
X11619048Y-26047457D02*
X11666667Y-25999838D01*
X11666667Y-25999838D02*
X11761905Y-25952219D01*
X11761905Y-25952219D02*
X12000000Y-25952219D01*
X12000000Y-25952219D02*
X12142857Y-25999838D01*
X12476191Y-25952219D02*
X12714286Y-26952219D01*
X12714286Y-26952219D02*
X12904762Y-26237933D01*
X12904762Y-26237933D02*
X13095238Y-26952219D01*
X13095238Y-26952219D02*
X13333334Y-25952219D01*
X13714286Y-26571266D02*
X14476191Y-26571266D01*
X14904762Y-26904600D02*
X15047619Y-26952219D01*
X15047619Y-26952219D02*
X15285714Y-26952219D01*
X15285714Y-26952219D02*
X15380952Y-26904600D01*
X15380952Y-26904600D02*
X15428571Y-26856980D01*
X15428571Y-26856980D02*
X15476190Y-26761742D01*
X15476190Y-26761742D02*
X15476190Y-26666504D01*
X15476190Y-26666504D02*
X15428571Y-26571266D01*
X15428571Y-26571266D02*
X15380952Y-26523647D01*
X15380952Y-26523647D02*
X15285714Y-26476028D01*
X15285714Y-26476028D02*
X15095238Y-26428409D01*
X15095238Y-26428409D02*
X15000000Y-26380790D01*
X15000000Y-26380790D02*
X14952381Y-26333171D01*
X14952381Y-26333171D02*
X14904762Y-26237933D01*
X14904762Y-26237933D02*
X14904762Y-26142695D01*
X14904762Y-26142695D02*
X14952381Y-26047457D01*
X14952381Y-26047457D02*
X15000000Y-25999838D01*
X15000000Y-25999838D02*
X15095238Y-25952219D01*
X15095238Y-25952219D02*
X15333333Y-25952219D01*
X15333333Y-25952219D02*
X15476190Y-25999838D01*
X15904762Y-26952219D02*
X15904762Y-25952219D01*
X15904762Y-25952219D02*
X16238095Y-26666504D01*
X16238095Y-26666504D02*
X16571428Y-25952219D01*
X16571428Y-25952219D02*
X16571428Y-26952219D01*
X17047619Y-26952219D02*
X17047619Y-25952219D01*
X17047619Y-25952219D02*
X17285714Y-25952219D01*
X17285714Y-25952219D02*
X17428571Y-25999838D01*
X17428571Y-25999838D02*
X17523809Y-26095076D01*
X17523809Y-26095076D02*
X17571428Y-26190314D01*
X17571428Y-26190314D02*
X17619047Y-26380790D01*
X17619047Y-26380790D02*
X17619047Y-26523647D01*
X17619047Y-26523647D02*
X17571428Y-26714123D01*
X17571428Y-26714123D02*
X17523809Y-26809361D01*
X17523809Y-26809361D02*
X17428571Y-26904600D01*
X17428571Y-26904600D02*
X17285714Y-26952219D01*
X17285714Y-26952219D02*
X17047619Y-26952219D01*
X18047619Y-26571266D02*
X18809524Y-26571266D01*
X19761904Y-25952219D02*
X19285714Y-25952219D01*
X19285714Y-25952219D02*
X19238095Y-26428409D01*
X19238095Y-26428409D02*
X19285714Y-26380790D01*
X19285714Y-26380790D02*
X19380952Y-26333171D01*
X19380952Y-26333171D02*
X19619047Y-26333171D01*
X19619047Y-26333171D02*
X19714285Y-26380790D01*
X19714285Y-26380790D02*
X19761904Y-26428409D01*
X19761904Y-26428409D02*
X19809523Y-26523647D01*
X19809523Y-26523647D02*
X19809523Y-26761742D01*
X19809523Y-26761742D02*
X19761904Y-26856980D01*
X19761904Y-26856980D02*
X19714285Y-26904600D01*
X19714285Y-26904600D02*
X19619047Y-26952219D01*
X19619047Y-26952219D02*
X19380952Y-26952219D01*
X19380952Y-26952219D02*
X19285714Y-26904600D01*
X19285714Y-26904600D02*
X19238095Y-26856980D01*
X20238095Y-26856980D02*
X20285714Y-26904600D01*
X20285714Y-26904600D02*
X20238095Y-26952219D01*
X20238095Y-26952219D02*
X20190476Y-26904600D01*
X20190476Y-26904600D02*
X20238095Y-26856980D01*
X20238095Y-26856980D02*
X20238095Y-26952219D01*
X21238094Y-26952219D02*
X20666666Y-26952219D01*
X20952380Y-26952219D02*
X20952380Y-25952219D01*
X20952380Y-25952219D02*
X20857142Y-26095076D01*
X20857142Y-26095076D02*
X20761904Y-26190314D01*
X20761904Y-26190314D02*
X20666666Y-26237933D01*
X21571428Y-26952219D02*
X22095237Y-26285552D01*
X21571428Y-26285552D02*
X22095237Y-26952219D01*
X22952380Y-25952219D02*
X22476190Y-25952219D01*
X22476190Y-25952219D02*
X22428571Y-26428409D01*
X22428571Y-26428409D02*
X22476190Y-26380790D01*
X22476190Y-26380790D02*
X22571428Y-26333171D01*
X22571428Y-26333171D02*
X22809523Y-26333171D01*
X22809523Y-26333171D02*
X22904761Y-26380790D01*
X22904761Y-26380790D02*
X22952380Y-26428409D01*
X22952380Y-26428409D02*
X22999999Y-26523647D01*
X22999999Y-26523647D02*
X22999999Y-26761742D01*
X22999999Y-26761742D02*
X22952380Y-26856980D01*
X22952380Y-26856980D02*
X22904761Y-26904600D01*
X22904761Y-26904600D02*
X22809523Y-26952219D01*
X22809523Y-26952219D02*
X22571428Y-26952219D01*
X22571428Y-26952219D02*
X22476190Y-26904600D01*
X22476190Y-26904600D02*
X22428571Y-26856980D01*
X23428571Y-26856980D02*
X23476190Y-26904600D01*
X23476190Y-26904600D02*
X23428571Y-26952219D01*
X23428571Y-26952219D02*
X23380952Y-26904600D01*
X23380952Y-26904600D02*
X23428571Y-26856980D01*
X23428571Y-26856980D02*
X23428571Y-26952219D01*
X24428570Y-26952219D02*
X23857142Y-26952219D01*
X24142856Y-26952219D02*
X24142856Y-25952219D01*
X24142856Y-25952219D02*
X24047618Y-26095076D01*
X24047618Y-26095076D02*
X23952380Y-26190314D01*
X23952380Y-26190314D02*
X23857142Y-26237933D01*
X16666667Y-38904600D02*
X16809524Y-38952219D01*
X16809524Y-38952219D02*
X17047619Y-38952219D01*
X17047619Y-38952219D02*
X17142857Y-38904600D01*
X17142857Y-38904600D02*
X17190476Y-38856980D01*
X17190476Y-38856980D02*
X17238095Y-38761742D01*
X17238095Y-38761742D02*
X17238095Y-38666504D01*
X17238095Y-38666504D02*
X17190476Y-38571266D01*
X17190476Y-38571266D02*
X17142857Y-38523647D01*
X17142857Y-38523647D02*
X17047619Y-38476028D01*
X17047619Y-38476028D02*
X16857143Y-38428409D01*
X16857143Y-38428409D02*
X16761905Y-38380790D01*
X16761905Y-38380790D02*
X16714286Y-38333171D01*
X16714286Y-38333171D02*
X16666667Y-38237933D01*
X16666667Y-38237933D02*
X16666667Y-38142695D01*
X16666667Y-38142695D02*
X16714286Y-38047457D01*
X16714286Y-38047457D02*
X16761905Y-37999838D01*
X16761905Y-37999838D02*
X16857143Y-37952219D01*
X16857143Y-37952219D02*
X17095238Y-37952219D01*
X17095238Y-37952219D02*
X17238095Y-37999838D01*
X17571429Y-37952219D02*
X17809524Y-38952219D01*
X17809524Y-38952219D02*
X18000000Y-38237933D01*
X18000000Y-38237933D02*
X18190476Y-38952219D01*
X18190476Y-38952219D02*
X18428572Y-37952219D01*
X18761905Y-38047457D02*
X18809524Y-37999838D01*
X18809524Y-37999838D02*
X18904762Y-37952219D01*
X18904762Y-37952219D02*
X19142857Y-37952219D01*
X19142857Y-37952219D02*
X19238095Y-37999838D01*
X19238095Y-37999838D02*
X19285714Y-38047457D01*
X19285714Y-38047457D02*
X19333333Y-38142695D01*
X19333333Y-38142695D02*
X19333333Y-38237933D01*
X19333333Y-38237933D02*
X19285714Y-38380790D01*
X19285714Y-38380790D02*
X18714286Y-38952219D01*
X18714286Y-38952219D02*
X19333333Y-38952219D01*
X11571429Y-44904600D02*
X11714286Y-44952219D01*
X11714286Y-44952219D02*
X11952381Y-44952219D01*
X11952381Y-44952219D02*
X12047619Y-44904600D01*
X12047619Y-44904600D02*
X12095238Y-44856980D01*
X12095238Y-44856980D02*
X12142857Y-44761742D01*
X12142857Y-44761742D02*
X12142857Y-44666504D01*
X12142857Y-44666504D02*
X12095238Y-44571266D01*
X12095238Y-44571266D02*
X12047619Y-44523647D01*
X12047619Y-44523647D02*
X11952381Y-44476028D01*
X11952381Y-44476028D02*
X11761905Y-44428409D01*
X11761905Y-44428409D02*
X11666667Y-44380790D01*
X11666667Y-44380790D02*
X11619048Y-44333171D01*
X11619048Y-44333171D02*
X11571429Y-44237933D01*
X11571429Y-44237933D02*
X11571429Y-44142695D01*
X11571429Y-44142695D02*
X11619048Y-44047457D01*
X11619048Y-44047457D02*
X11666667Y-43999838D01*
X11666667Y-43999838D02*
X11761905Y-43952219D01*
X11761905Y-43952219D02*
X12000000Y-43952219D01*
X12000000Y-43952219D02*
X12142857Y-43999838D01*
X12476191Y-43952219D02*
X12714286Y-44952219D01*
X12714286Y-44952219D02*
X12904762Y-44237933D01*
X12904762Y-44237933D02*
X13095238Y-44952219D01*
X13095238Y-44952219D02*
X13333334Y-43952219D01*
X13714286Y-44571266D02*
X14476191Y-44571266D01*
X14904762Y-44904600D02*
X15047619Y-44952219D01*
X15047619Y-44952219D02*
X15285714Y-44952219D01*
X15285714Y-44952219D02*
X15380952Y-44904600D01*
X15380952Y-44904600D02*
X15428571Y-44856980D01*
X15428571Y-44856980D02*
X15476190Y-44761742D01*
X15476190Y-44761742D02*
X15476190Y-44666504D01*
X15476190Y-44666504D02*
X15428571Y-44571266D01*
X15428571Y-44571266D02*
X15380952Y-44523647D01*
X15380952Y-44523647D02*
X15285714Y-44476028D01*
X15285714Y-44476028D02*
X15095238Y-44428409D01*
X15095238Y-44428409D02*
X15000000Y-44380790D01*
X15000000Y-44380790D02*
X14952381Y-44333171D01*
X14952381Y-44333171D02*
X14904762Y-44237933D01*
X14904762Y-44237933D02*
X14904762Y-44142695D01*
X14904762Y-44142695D02*
X14952381Y-44047457D01*
X14952381Y-44047457D02*
X15000000Y-43999838D01*
X15000000Y-43999838D02*
X15095238Y-43952219D01*
X15095238Y-43952219D02*
X15333333Y-43952219D01*
X15333333Y-43952219D02*
X15476190Y-43999838D01*
X15904762Y-44952219D02*
X15904762Y-43952219D01*
X15904762Y-43952219D02*
X16238095Y-44666504D01*
X16238095Y-44666504D02*
X16571428Y-43952219D01*
X16571428Y-43952219D02*
X16571428Y-44952219D01*
X17047619Y-44952219D02*
X17047619Y-43952219D01*
X17047619Y-43952219D02*
X17285714Y-43952219D01*
X17285714Y-43952219D02*
X17428571Y-43999838D01*
X17428571Y-43999838D02*
X17523809Y-44095076D01*
X17523809Y-44095076D02*
X17571428Y-44190314D01*
X17571428Y-44190314D02*
X17619047Y-44380790D01*
X17619047Y-44380790D02*
X17619047Y-44523647D01*
X17619047Y-44523647D02*
X17571428Y-44714123D01*
X17571428Y-44714123D02*
X17523809Y-44809361D01*
X17523809Y-44809361D02*
X17428571Y-44904600D01*
X17428571Y-44904600D02*
X17285714Y-44952219D01*
X17285714Y-44952219D02*
X17047619Y-44952219D01*
X18047619Y-44571266D02*
X18809524Y-44571266D01*
X19761904Y-43952219D02*
X19285714Y-43952219D01*
X19285714Y-43952219D02*
X19238095Y-44428409D01*
X19238095Y-44428409D02*
X19285714Y-44380790D01*
X19285714Y-44380790D02*
X19380952Y-44333171D01*
X19380952Y-44333171D02*
X19619047Y-44333171D01*
X19619047Y-44333171D02*
X19714285Y-44380790D01*
X19714285Y-44380790D02*
X19761904Y-44428409D01*
X19761904Y-44428409D02*
X19809523Y-44523647D01*
X19809523Y-44523647D02*
X19809523Y-44761742D01*
X19809523Y-44761742D02*
X19761904Y-44856980D01*
X19761904Y-44856980D02*
X19714285Y-44904600D01*
X19714285Y-44904600D02*
X19619047Y-44952219D01*
X19619047Y-44952219D02*
X19380952Y-44952219D01*
X19380952Y-44952219D02*
X19285714Y-44904600D01*
X19285714Y-44904600D02*
X19238095Y-44856980D01*
X20238095Y-44856980D02*
X20285714Y-44904600D01*
X20285714Y-44904600D02*
X20238095Y-44952219D01*
X20238095Y-44952219D02*
X20190476Y-44904600D01*
X20190476Y-44904600D02*
X20238095Y-44856980D01*
X20238095Y-44856980D02*
X20238095Y-44952219D01*
X21238094Y-44952219D02*
X20666666Y-44952219D01*
X20952380Y-44952219D02*
X20952380Y-43952219D01*
X20952380Y-43952219D02*
X20857142Y-44095076D01*
X20857142Y-44095076D02*
X20761904Y-44190314D01*
X20761904Y-44190314D02*
X20666666Y-44237933D01*
X21571428Y-44952219D02*
X22095237Y-44285552D01*
X21571428Y-44285552D02*
X22095237Y-44952219D01*
X22952380Y-43952219D02*
X22476190Y-43952219D01*
X22476190Y-43952219D02*
X22428571Y-44428409D01*
X22428571Y-44428409D02*
X22476190Y-44380790D01*
X22476190Y-44380790D02*
X22571428Y-44333171D01*
X22571428Y-44333171D02*
X22809523Y-44333171D01*
X22809523Y-44333171D02*
X22904761Y-44380790D01*
X22904761Y-44380790D02*
X22952380Y-44428409D01*
X22952380Y-44428409D02*
X22999999Y-44523647D01*
X22999999Y-44523647D02*
X22999999Y-44761742D01*
X22999999Y-44761742D02*
X22952380Y-44856980D01*
X22952380Y-44856980D02*
X22904761Y-44904600D01*
X22904761Y-44904600D02*
X22809523Y-44952219D01*
X22809523Y-44952219D02*
X22571428Y-44952219D01*
X22571428Y-44952219D02*
X22476190Y-44904600D01*
X22476190Y-44904600D02*
X22428571Y-44856980D01*
X23428571Y-44856980D02*
X23476190Y-44904600D01*
X23476190Y-44904600D02*
X23428571Y-44952219D01*
X23428571Y-44952219D02*
X23380952Y-44904600D01*
X23380952Y-44904600D02*
X23428571Y-44856980D01*
X23428571Y-44856980D02*
X23428571Y-44952219D01*
X24428570Y-44952219D02*
X23857142Y-44952219D01*
X24142856Y-44952219D02*
X24142856Y-43952219D01*
X24142856Y-43952219D02*
X24047618Y-44095076D01*
X24047618Y-44095076D02*
X23952380Y-44190314D01*
X23952380Y-44190314D02*
X23857142Y-44237933D01*
X7666667Y-29904600D02*
X7809524Y-29952219D01*
X7809524Y-29952219D02*
X8047619Y-29952219D01*
X8047619Y-29952219D02*
X8142857Y-29904600D01*
X8142857Y-29904600D02*
X8190476Y-29856980D01*
X8190476Y-29856980D02*
X8238095Y-29761742D01*
X8238095Y-29761742D02*
X8238095Y-29666504D01*
X8238095Y-29666504D02*
X8190476Y-29571266D01*
X8190476Y-29571266D02*
X8142857Y-29523647D01*
X8142857Y-29523647D02*
X8047619Y-29476028D01*
X8047619Y-29476028D02*
X7857143Y-29428409D01*
X7857143Y-29428409D02*
X7761905Y-29380790D01*
X7761905Y-29380790D02*
X7714286Y-29333171D01*
X7714286Y-29333171D02*
X7666667Y-29237933D01*
X7666667Y-29237933D02*
X7666667Y-29142695D01*
X7666667Y-29142695D02*
X7714286Y-29047457D01*
X7714286Y-29047457D02*
X7761905Y-28999838D01*
X7761905Y-28999838D02*
X7857143Y-28952219D01*
X7857143Y-28952219D02*
X8095238Y-28952219D01*
X8095238Y-28952219D02*
X8238095Y-28999838D01*
X8571429Y-28952219D02*
X8809524Y-29952219D01*
X8809524Y-29952219D02*
X9000000Y-29237933D01*
X9000000Y-29237933D02*
X9190476Y-29952219D01*
X9190476Y-29952219D02*
X9428572Y-28952219D01*
X9714286Y-28952219D02*
X10333333Y-28952219D01*
X10333333Y-28952219D02*
X10000000Y-29333171D01*
X10000000Y-29333171D02*
X10142857Y-29333171D01*
X10142857Y-29333171D02*
X10238095Y-29380790D01*
X10238095Y-29380790D02*
X10285714Y-29428409D01*
X10285714Y-29428409D02*
X10333333Y-29523647D01*
X10333333Y-29523647D02*
X10333333Y-29761742D01*
X10333333Y-29761742D02*
X10285714Y-29856980D01*
X10285714Y-29856980D02*
X10238095Y-29904600D01*
X10238095Y-29904600D02*
X10142857Y-29952219D01*
X10142857Y-29952219D02*
X9857143Y-29952219D01*
X9857143Y-29952219D02*
X9761905Y-29904600D01*
X9761905Y-29904600D02*
X9714286Y-29856980D01*
X2571429Y-35904600D02*
X2714286Y-35952219D01*
X2714286Y-35952219D02*
X2952381Y-35952219D01*
X2952381Y-35952219D02*
X3047619Y-35904600D01*
X3047619Y-35904600D02*
X3095238Y-35856980D01*
X3095238Y-35856980D02*
X3142857Y-35761742D01*
X3142857Y-35761742D02*
X3142857Y-35666504D01*
X3142857Y-35666504D02*
X3095238Y-35571266D01*
X3095238Y-35571266D02*
X3047619Y-35523647D01*
X3047619Y-35523647D02*
X2952381Y-35476028D01*
X2952381Y-35476028D02*
X2761905Y-35428409D01*
X2761905Y-35428409D02*
X2666667Y-35380790D01*
X2666667Y-35380790D02*
X2619048Y-35333171D01*
X2619048Y-35333171D02*
X2571429Y-35237933D01*
X2571429Y-35237933D02*
X2571429Y-35142695D01*
X2571429Y-35142695D02*
X2619048Y-35047457D01*
X2619048Y-35047457D02*
X2666667Y-34999838D01*
X2666667Y-34999838D02*
X2761905Y-34952219D01*
X2761905Y-34952219D02*
X3000000Y-34952219D01*
X3000000Y-34952219D02*
X3142857Y-34999838D01*
X3476191Y-34952219D02*
X3714286Y-35952219D01*
X3714286Y-35952219D02*
X3904762Y-35237933D01*
X3904762Y-35237933D02*
X4095238Y-35952219D01*
X4095238Y-35952219D02*
X4333334Y-34952219D01*
X4714286Y-35571266D02*
X5476191Y-35571266D01*
X5904762Y-35904600D02*
X6047619Y-35952219D01*
X6047619Y-35952219D02*
X6285714Y-35952219D01*
X6285714Y-35952219D02*
X6380952Y-35904600D01*
X6380952Y-35904600D02*
X6428571Y-35856980D01*
X6428571Y-35856980D02*
X6476190Y-35761742D01*
X6476190Y-35761742D02*
X6476190Y-35666504D01*
X6476190Y-35666504D02*
X6428571Y-35571266D01*
X6428571Y-35571266D02*
X6380952Y-35523647D01*
X6380952Y-35523647D02*
X6285714Y-35476028D01*
X6285714Y-35476028D02*
X6095238Y-35428409D01*
X6095238Y-35428409D02*
X6000000Y-35380790D01*
X6000000Y-35380790D02*
X5952381Y-35333171D01*
X5952381Y-35333171D02*
X5904762Y-35237933D01*
X5904762Y-35237933D02*
X5904762Y-35142695D01*
X5904762Y-35142695D02*
X5952381Y-35047457D01*
X5952381Y-35047457D02*
X6000000Y-34999838D01*
X6000000Y-34999838D02*
X6095238Y-34952219D01*
X6095238Y-34952219D02*
X6333333Y-34952219D01*
X6333333Y-34952219D02*
X6476190Y-34999838D01*
X6904762Y-35952219D02*
X6904762Y-34952219D01*
X6904762Y-34952219D02*
X7238095Y-35666504D01*
X7238095Y-35666504D02*
X7571428Y-34952219D01*
X7571428Y-34952219D02*
X7571428Y-35952219D01*
X8047619Y-35952219D02*
X8047619Y-34952219D01*
X8047619Y-34952219D02*
X8285714Y-34952219D01*
X8285714Y-34952219D02*
X8428571Y-34999838D01*
X8428571Y-34999838D02*
X8523809Y-35095076D01*
X8523809Y-35095076D02*
X8571428Y-35190314D01*
X8571428Y-35190314D02*
X8619047Y-35380790D01*
X8619047Y-35380790D02*
X8619047Y-35523647D01*
X8619047Y-35523647D02*
X8571428Y-35714123D01*
X8571428Y-35714123D02*
X8523809Y-35809361D01*
X8523809Y-35809361D02*
X8428571Y-35904600D01*
X8428571Y-35904600D02*
X8285714Y-35952219D01*
X8285714Y-35952219D02*
X8047619Y-35952219D01*
X9047619Y-35571266D02*
X9809524Y-35571266D01*
X10761904Y-34952219D02*
X10285714Y-34952219D01*
X10285714Y-34952219D02*
X10238095Y-35428409D01*
X10238095Y-35428409D02*
X10285714Y-35380790D01*
X10285714Y-35380790D02*
X10380952Y-35333171D01*
X10380952Y-35333171D02*
X10619047Y-35333171D01*
X10619047Y-35333171D02*
X10714285Y-35380790D01*
X10714285Y-35380790D02*
X10761904Y-35428409D01*
X10761904Y-35428409D02*
X10809523Y-35523647D01*
X10809523Y-35523647D02*
X10809523Y-35761742D01*
X10809523Y-35761742D02*
X10761904Y-35856980D01*
X10761904Y-35856980D02*
X10714285Y-35904600D01*
X10714285Y-35904600D02*
X10619047Y-35952219D01*
X10619047Y-35952219D02*
X10380952Y-35952219D01*
X10380952Y-35952219D02*
X10285714Y-35904600D01*
X10285714Y-35904600D02*
X10238095Y-35856980D01*
X11238095Y-35856980D02*
X11285714Y-35904600D01*
X11285714Y-35904600D02*
X11238095Y-35952219D01*
X11238095Y-35952219D02*
X11190476Y-35904600D01*
X11190476Y-35904600D02*
X11238095Y-35856980D01*
X11238095Y-35856980D02*
X11238095Y-35952219D01*
X12238094Y-35952219D02*
X11666666Y-35952219D01*
X11952380Y-35952219D02*
X11952380Y-34952219D01*
X11952380Y-34952219D02*
X11857142Y-35095076D01*
X11857142Y-35095076D02*
X11761904Y-35190314D01*
X11761904Y-35190314D02*
X11666666Y-35237933D01*
X12571428Y-35952219D02*
X13095237Y-35285552D01*
X12571428Y-35285552D02*
X13095237Y-35952219D01*
X13952380Y-34952219D02*
X13476190Y-34952219D01*
X13476190Y-34952219D02*
X13428571Y-35428409D01*
X13428571Y-35428409D02*
X13476190Y-35380790D01*
X13476190Y-35380790D02*
X13571428Y-35333171D01*
X13571428Y-35333171D02*
X13809523Y-35333171D01*
X13809523Y-35333171D02*
X13904761Y-35380790D01*
X13904761Y-35380790D02*
X13952380Y-35428409D01*
X13952380Y-35428409D02*
X13999999Y-35523647D01*
X13999999Y-35523647D02*
X13999999Y-35761742D01*
X13999999Y-35761742D02*
X13952380Y-35856980D01*
X13952380Y-35856980D02*
X13904761Y-35904600D01*
X13904761Y-35904600D02*
X13809523Y-35952219D01*
X13809523Y-35952219D02*
X13571428Y-35952219D01*
X13571428Y-35952219D02*
X13476190Y-35904600D01*
X13476190Y-35904600D02*
X13428571Y-35856980D01*
X14428571Y-35856980D02*
X14476190Y-35904600D01*
X14476190Y-35904600D02*
X14428571Y-35952219D01*
X14428571Y-35952219D02*
X14380952Y-35904600D01*
X14380952Y-35904600D02*
X14428571Y-35856980D01*
X14428571Y-35856980D02*
X14428571Y-35952219D01*
X15428570Y-35952219D02*
X14857142Y-35952219D01*
X15142856Y-35952219D02*
X15142856Y-34952219D01*
X15142856Y-34952219D02*
X15047618Y-35095076D01*
X15047618Y-35095076D02*
X14952380Y-35190314D01*
X14952380Y-35190314D02*
X14857142Y-35237933D01*
X25666667Y-29904600D02*
X25809524Y-29952219D01*
X25809524Y-29952219D02*
X26047619Y-29952219D01*
X26047619Y-29952219D02*
X26142857Y-29904600D01*
X26142857Y-29904600D02*
X26190476Y-29856980D01*
X26190476Y-29856980D02*
X26238095Y-29761742D01*
X26238095Y-29761742D02*
X26238095Y-29666504D01*
X26238095Y-29666504D02*
X26190476Y-29571266D01*
X26190476Y-29571266D02*
X26142857Y-29523647D01*
X26142857Y-29523647D02*
X26047619Y-29476028D01*
X26047619Y-29476028D02*
X25857143Y-29428409D01*
X25857143Y-29428409D02*
X25761905Y-29380790D01*
X25761905Y-29380790D02*
X25714286Y-29333171D01*
X25714286Y-29333171D02*
X25666667Y-29237933D01*
X25666667Y-29237933D02*
X25666667Y-29142695D01*
X25666667Y-29142695D02*
X25714286Y-29047457D01*
X25714286Y-29047457D02*
X25761905Y-28999838D01*
X25761905Y-28999838D02*
X25857143Y-28952219D01*
X25857143Y-28952219D02*
X26095238Y-28952219D01*
X26095238Y-28952219D02*
X26238095Y-28999838D01*
X26571429Y-28952219D02*
X26809524Y-29952219D01*
X26809524Y-29952219D02*
X27000000Y-29237933D01*
X27000000Y-29237933D02*
X27190476Y-29952219D01*
X27190476Y-29952219D02*
X27428572Y-28952219D01*
X28238095Y-29285552D02*
X28238095Y-29952219D01*
X28000000Y-28904600D02*
X27761905Y-29618885D01*
X27761905Y-29618885D02*
X28380952Y-29618885D01*
X20571429Y-35904600D02*
X20714286Y-35952219D01*
X20714286Y-35952219D02*
X20952381Y-35952219D01*
X20952381Y-35952219D02*
X21047619Y-35904600D01*
X21047619Y-35904600D02*
X21095238Y-35856980D01*
X21095238Y-35856980D02*
X21142857Y-35761742D01*
X21142857Y-35761742D02*
X21142857Y-35666504D01*
X21142857Y-35666504D02*
X21095238Y-35571266D01*
X21095238Y-35571266D02*
X21047619Y-35523647D01*
X21047619Y-35523647D02*
X20952381Y-35476028D01*
X20952381Y-35476028D02*
X20761905Y-35428409D01*
X20761905Y-35428409D02*
X20666667Y-35380790D01*
X20666667Y-35380790D02*
X20619048Y-35333171D01*
X20619048Y-35333171D02*
X20571429Y-35237933D01*
X20571429Y-35237933D02*
X20571429Y-35142695D01*
X20571429Y-35142695D02*
X20619048Y-35047457D01*
X20619048Y-35047457D02*
X20666667Y-34999838D01*
X20666667Y-34999838D02*
X20761905Y-34952219D01*
X20761905Y-34952219D02*
X21000000Y-34952219D01*
X21000000Y-34952219D02*
X21142857Y-34999838D01*
X21476191Y-34952219D02*
X21714286Y-35952219D01*
X21714286Y-35952219D02*
X21904762Y-35237933D01*
X21904762Y-35237933D02*
X22095238Y-35952219D01*
X22095238Y-35952219D02*
X22333334Y-34952219D01*
X22714286Y-35571266D02*
X23476191Y-35571266D01*
X23904762Y-35904600D02*
X24047619Y-35952219D01*
X24047619Y-35952219D02*
X24285714Y-35952219D01*
X24285714Y-35952219D02*
X24380952Y-35904600D01*
X24380952Y-35904600D02*
X24428571Y-35856980D01*
X24428571Y-35856980D02*
X24476190Y-35761742D01*
X24476190Y-35761742D02*
X24476190Y-35666504D01*
X24476190Y-35666504D02*
X24428571Y-35571266D01*
X24428571Y-35571266D02*
X24380952Y-35523647D01*
X24380952Y-35523647D02*
X24285714Y-35476028D01*
X24285714Y-35476028D02*
X24095238Y-35428409D01*
X24095238Y-35428409D02*
X24000000Y-35380790D01*
X24000000Y-35380790D02*
X23952381Y-35333171D01*
X23952381Y-35333171D02*
X23904762Y-35237933D01*
X23904762Y-35237933D02*
X23904762Y-35142695D01*
X23904762Y-35142695D02*
X23952381Y-35047457D01*
X23952381Y-35047457D02*
X24000000Y-34999838D01*
X24000000Y-34999838D02*
X24095238Y-34952219D01*
X24095238Y-34952219D02*
X24333333Y-34952219D01*
X24333333Y-34952219D02*
X24476190Y-34999838D01*
X24904762Y-35952219D02*
X24904762Y-34952219D01*
X24904762Y-34952219D02*
X25238095Y-35666504D01*
X25238095Y-35666504D02*
X25571428Y-34952219D01*
X25571428Y-34952219D02*
X25571428Y-35952219D01*
X26047619Y-35952219D02*
X26047619Y-34952219D01*
X26047619Y-34952219D02*
X26285714Y-34952219D01*
X26285714Y-34952219D02*
X26428571Y-34999838D01*
X26428571Y-34999838D02*
X26523809Y-35095076D01*
X26523809Y-35095076D02*
X26571428Y-35190314D01*
X26571428Y-35190314D02*
X26619047Y-35380790D01*
X26619047Y-35380790D02*
X26619047Y-35523647D01*
X26619047Y-35523647D02*
X26571428Y-35714123D01*
X26571428Y-35714123D02*
X26523809Y-35809361D01*
X26523809Y-35809361D02*
X26428571Y-35904600D01*
X26428571Y-35904600D02*
X26285714Y-35952219D01*
X26285714Y-35952219D02*
X26047619Y-35952219D01*
X27047619Y-35571266D02*
X27809524Y-35571266D01*
X28761904Y-34952219D02*
X28285714Y-34952219D01*
X28285714Y-34952219D02*
X28238095Y-35428409D01*
X28238095Y-35428409D02*
X28285714Y-35380790D01*
X28285714Y-35380790D02*
X28380952Y-35333171D01*
X28380952Y-35333171D02*
X28619047Y-35333171D01*
X28619047Y-35333171D02*
X28714285Y-35380790D01*
X28714285Y-35380790D02*
X28761904Y-35428409D01*
X28761904Y-35428409D02*
X28809523Y-35523647D01*
X28809523Y-35523647D02*
X28809523Y-35761742D01*
X28809523Y-35761742D02*
X28761904Y-35856980D01*
X28761904Y-35856980D02*
X28714285Y-35904600D01*
X28714285Y-35904600D02*
X28619047Y-35952219D01*
X28619047Y-35952219D02*
X28380952Y-35952219D01*
X28380952Y-35952219D02*
X28285714Y-35904600D01*
X28285714Y-35904600D02*
X28238095Y-35856980D01*
X29238095Y-35856980D02*
X29285714Y-35904600D01*
X29285714Y-35904600D02*
X29238095Y-35952219D01*
X29238095Y-35952219D02*
X29190476Y-35904600D01*
X29190476Y-35904600D02*
X29238095Y-35856980D01*
X29238095Y-35856980D02*
X29238095Y-35952219D01*
X30238094Y-35952219D02*
X29666666Y-35952219D01*
X29952380Y-35952219D02*
X29952380Y-34952219D01*
X29952380Y-34952219D02*
X29857142Y-35095076D01*
X29857142Y-35095076D02*
X29761904Y-35190314D01*
X29761904Y-35190314D02*
X29666666Y-35237933D01*
X30571428Y-35952219D02*
X31095237Y-35285552D01*
X30571428Y-35285552D02*
X31095237Y-35952219D01*
X31952380Y-34952219D02*
X31476190Y-34952219D01*
X31476190Y-34952219D02*
X31428571Y-35428409D01*
X31428571Y-35428409D02*
X31476190Y-35380790D01*
X31476190Y-35380790D02*
X31571428Y-35333171D01*
X31571428Y-35333171D02*
X31809523Y-35333171D01*
X31809523Y-35333171D02*
X31904761Y-35380790D01*
X31904761Y-35380790D02*
X31952380Y-35428409D01*
X31952380Y-35428409D02*
X31999999Y-35523647D01*
X31999999Y-35523647D02*
X31999999Y-35761742D01*
X31999999Y-35761742D02*
X31952380Y-35856980D01*
X31952380Y-35856980D02*
X31904761Y-35904600D01*
X31904761Y-35904600D02*
X31809523Y-35952219D01*
X31809523Y-35952219D02*
X31571428Y-35952219D01*
X31571428Y-35952219D02*
X31476190Y-35904600D01*
X31476190Y-35904600D02*
X31428571Y-35856980D01*
X32428571Y-35856980D02*
X32476190Y-35904600D01*
X32476190Y-35904600D02*
X32428571Y-35952219D01*
X32428571Y-35952219D02*
X32380952Y-35904600D01*
X32380952Y-35904600D02*
X32428571Y-35856980D01*
X32428571Y-35856980D02*
X32428571Y-35952219D01*
X33428570Y-35952219D02*
X32857142Y-35952219D01*
X33142856Y-35952219D02*
X33142856Y-34952219D01*
X33142856Y-34952219D02*
X33047618Y-35095076D01*
X33047618Y-35095076D02*
X32952380Y-35190314D01*
X32952380Y-35190314D02*
X32857142Y-35237933D01*
X140666667Y-19904600D02*
X140809524Y-19952219D01*
X140809524Y-19952219D02*
X141047619Y-19952219D01*
X141047619Y-19952219D02*
X141142857Y-19904600D01*
X141142857Y-19904600D02*
X141190476Y-19856980D01*
X141190476Y-19856980D02*
X141238095Y-19761742D01*
X141238095Y-19761742D02*
X141238095Y-19666504D01*
X141238095Y-19666504D02*
X141190476Y-19571266D01*
X141190476Y-19571266D02*
X141142857Y-19523647D01*
X141142857Y-19523647D02*
X141047619Y-19476028D01*
X141047619Y-19476028D02*
X140857143Y-19428409D01*
X140857143Y-19428409D02*
X140761905Y-19380790D01*
X140761905Y-19380790D02*
X140714286Y-19333171D01*
X140714286Y-19333171D02*
X140666667Y-19237933D01*
X140666667Y-19237933D02*
X140666667Y-19142695D01*
X140666667Y-19142695D02*
X140714286Y-19047457D01*
X140714286Y-19047457D02*
X140761905Y-18999838D01*
X140761905Y-18999838D02*
X140857143Y-18952219D01*
X140857143Y-18952219D02*
X141095238Y-18952219D01*
X141095238Y-18952219D02*
X141238095Y-18999838D01*
X141571429Y-18952219D02*
X141809524Y-19952219D01*
X141809524Y-19952219D02*
X142000000Y-19237933D01*
X142000000Y-19237933D02*
X142190476Y-19952219D01*
X142190476Y-19952219D02*
X142428572Y-18952219D01*
X143285714Y-18952219D02*
X142809524Y-18952219D01*
X142809524Y-18952219D02*
X142761905Y-19428409D01*
X142761905Y-19428409D02*
X142809524Y-19380790D01*
X142809524Y-19380790D02*
X142904762Y-19333171D01*
X142904762Y-19333171D02*
X143142857Y-19333171D01*
X143142857Y-19333171D02*
X143238095Y-19380790D01*
X143238095Y-19380790D02*
X143285714Y-19428409D01*
X143285714Y-19428409D02*
X143333333Y-19523647D01*
X143333333Y-19523647D02*
X143333333Y-19761742D01*
X143333333Y-19761742D02*
X143285714Y-19856980D01*
X143285714Y-19856980D02*
X143238095Y-19904600D01*
X143238095Y-19904600D02*
X143142857Y-19952219D01*
X143142857Y-19952219D02*
X142904762Y-19952219D01*
X142904762Y-19952219D02*
X142809524Y-19904600D01*
X142809524Y-19904600D02*
X142761905Y-19856980D01*
X135571429Y-25904600D02*
X135714286Y-25952219D01*
X135714286Y-25952219D02*
X135952381Y-25952219D01*
X135952381Y-25952219D02*
X136047619Y-25904600D01*
X136047619Y-25904600D02*
X136095238Y-25856980D01*
X136095238Y-25856980D02*
X136142857Y-25761742D01*
X136142857Y-25761742D02*
X136142857Y-25666504D01*
X136142857Y-25666504D02*
X136095238Y-25571266D01*
X136095238Y-25571266D02*
X136047619Y-25523647D01*
X136047619Y-25523647D02*
X135952381Y-25476028D01*
X135952381Y-25476028D02*
X135761905Y-25428409D01*
X135761905Y-25428409D02*
X135666667Y-25380790D01*
X135666667Y-25380790D02*
X135619048Y-25333171D01*
X135619048Y-25333171D02*
X135571429Y-25237933D01*
X135571429Y-25237933D02*
X135571429Y-25142695D01*
X135571429Y-25142695D02*
X135619048Y-25047457D01*
X135619048Y-25047457D02*
X135666667Y-24999838D01*
X135666667Y-24999838D02*
X135761905Y-24952219D01*
X135761905Y-24952219D02*
X136000000Y-24952219D01*
X136000000Y-24952219D02*
X136142857Y-24999838D01*
X136476191Y-24952219D02*
X136714286Y-25952219D01*
X136714286Y-25952219D02*
X136904762Y-25237933D01*
X136904762Y-25237933D02*
X137095238Y-25952219D01*
X137095238Y-25952219D02*
X137333334Y-24952219D01*
X137714286Y-25571266D02*
X138476191Y-25571266D01*
X138904762Y-25904600D02*
X139047619Y-25952219D01*
X139047619Y-25952219D02*
X139285714Y-25952219D01*
X139285714Y-25952219D02*
X139380952Y-25904600D01*
X139380952Y-25904600D02*
X139428571Y-25856980D01*
X139428571Y-25856980D02*
X139476190Y-25761742D01*
X139476190Y-25761742D02*
X139476190Y-25666504D01*
X139476190Y-25666504D02*
X139428571Y-25571266D01*
X139428571Y-25571266D02*
X139380952Y-25523647D01*
X139380952Y-25523647D02*
X139285714Y-25476028D01*
X139285714Y-25476028D02*
X139095238Y-25428409D01*
X139095238Y-25428409D02*
X139000000Y-25380790D01*
X139000000Y-25380790D02*
X138952381Y-25333171D01*
X138952381Y-25333171D02*
X138904762Y-25237933D01*
X138904762Y-25237933D02*
X138904762Y-25142695D01*
X138904762Y-25142695D02*
X138952381Y-25047457D01*
X138952381Y-25047457D02*
X139000000Y-24999838D01*
X139000000Y-24999838D02*
X139095238Y-24952219D01*
X139095238Y-24952219D02*
X139333333Y-24952219D01*
X139333333Y-24952219D02*
X139476190Y-24999838D01*
X139904762Y-25952219D02*
X139904762Y-24952219D01*
X139904762Y-24952219D02*
X140238095Y-25666504D01*
X140238095Y-25666504D02*
X140571428Y-24952219D01*
X140571428Y-24952219D02*
X140571428Y-25952219D01*
X141047619Y-25952219D02*
X141047619Y-24952219D01*
X141047619Y-24952219D02*
X141285714Y-24952219D01*
X141285714Y-24952219D02*
X141428571Y-24999838D01*
X141428571Y-24999838D02*
X141523809Y-25095076D01*
X141523809Y-25095076D02*
X141571428Y-25190314D01*
X141571428Y-25190314D02*
X141619047Y-25380790D01*
X141619047Y-25380790D02*
X141619047Y-25523647D01*
X141619047Y-25523647D02*
X141571428Y-25714123D01*
X141571428Y-25714123D02*
X141523809Y-25809361D01*
X141523809Y-25809361D02*
X141428571Y-25904600D01*
X141428571Y-25904600D02*
X141285714Y-25952219D01*
X141285714Y-25952219D02*
X141047619Y-25952219D01*
X142047619Y-25571266D02*
X142809524Y-25571266D01*
X143761904Y-24952219D02*
X143285714Y-24952219D01*
X143285714Y-24952219D02*
X143238095Y-25428409D01*
X143238095Y-25428409D02*
X143285714Y-25380790D01*
X143285714Y-25380790D02*
X143380952Y-25333171D01*
X143380952Y-25333171D02*
X143619047Y-25333171D01*
X143619047Y-25333171D02*
X143714285Y-25380790D01*
X143714285Y-25380790D02*
X143761904Y-25428409D01*
X143761904Y-25428409D02*
X143809523Y-25523647D01*
X143809523Y-25523647D02*
X143809523Y-25761742D01*
X143809523Y-25761742D02*
X143761904Y-25856980D01*
X143761904Y-25856980D02*
X143714285Y-25904600D01*
X143714285Y-25904600D02*
X143619047Y-25952219D01*
X143619047Y-25952219D02*
X143380952Y-25952219D01*
X143380952Y-25952219D02*
X143285714Y-25904600D01*
X143285714Y-25904600D02*
X143238095Y-25856980D01*
X144238095Y-25856980D02*
X144285714Y-25904600D01*
X144285714Y-25904600D02*
X144238095Y-25952219D01*
X144238095Y-25952219D02*
X144190476Y-25904600D01*
X144190476Y-25904600D02*
X144238095Y-25856980D01*
X144238095Y-25856980D02*
X144238095Y-25952219D01*
X145238094Y-25952219D02*
X144666666Y-25952219D01*
X144952380Y-25952219D02*
X144952380Y-24952219D01*
X144952380Y-24952219D02*
X144857142Y-25095076D01*
X144857142Y-25095076D02*
X144761904Y-25190314D01*
X144761904Y-25190314D02*
X144666666Y-25237933D01*
X145571428Y-25952219D02*
X146095237Y-25285552D01*
X145571428Y-25285552D02*
X146095237Y-25952219D01*
X146952380Y-24952219D02*
X146476190Y-24952219D01*
X146476190Y-24952219D02*
X146428571Y-25428409D01*
X146428571Y-25428409D02*
X146476190Y-25380790D01*
X146476190Y-25380790D02*
X146571428Y-25333171D01*
X146571428Y-25333171D02*
X146809523Y-25333171D01*
X146809523Y-25333171D02*
X146904761Y-25380790D01*
X146904761Y-25380790D02*
X146952380Y-25428409D01*
X146952380Y-25428409D02*
X146999999Y-25523647D01*
X146999999Y-25523647D02*
X146999999Y-25761742D01*
X146999999Y-25761742D02*
X146952380Y-25856980D01*
X146952380Y-25856980D02*
X146904761Y-25904600D01*
X146904761Y-25904600D02*
X146809523Y-25952219D01*
X146809523Y-25952219D02*
X146571428Y-25952219D01*
X146571428Y-25952219D02*
X146476190Y-25904600D01*
X146476190Y-25904600D02*
X146428571Y-25856980D01*
X147428571Y-25856980D02*
X147476190Y-25904600D01*
X147476190Y-25904600D02*
X147428571Y-25952219D01*
X147428571Y-25952219D02*
X147380952Y-25904600D01*
X147380952Y-25904600D02*
X147428571Y-25856980D01*
X147428571Y-25856980D02*
X147428571Y-25952219D01*
X148428570Y-25952219D02*
X147857142Y-25952219D01*
X148142856Y-25952219D02*
X148142856Y-24952219D01*
X148142856Y-24952219D02*
X148047618Y-25095076D01*
X148047618Y-25095076D02*
X147952380Y-25190314D01*
X147952380Y-25190314D02*
X147857142Y-25237933D01*
X150666667Y-29904600D02*
X150809524Y-29952219D01*
X150809524Y-29952219D02*
X151047619Y-29952219D01*
X151047619Y-29952219D02*
X151142857Y-29904600D01*
X151142857Y-29904600D02*
X151190476Y-29856980D01*
X151190476Y-29856980D02*
X151238095Y-29761742D01*
X151238095Y-29761742D02*
X151238095Y-29666504D01*
X151238095Y-29666504D02*
X151190476Y-29571266D01*
X151190476Y-29571266D02*
X151142857Y-29523647D01*
X151142857Y-29523647D02*
X151047619Y-29476028D01*
X151047619Y-29476028D02*
X150857143Y-29428409D01*
X150857143Y-29428409D02*
X150761905Y-29380790D01*
X150761905Y-29380790D02*
X150714286Y-29333171D01*
X150714286Y-29333171D02*
X150666667Y-29237933D01*
X150666667Y-29237933D02*
X150666667Y-29142695D01*
X150666667Y-29142695D02*
X150714286Y-29047457D01*
X150714286Y-29047457D02*
X150761905Y-28999838D01*
X150761905Y-28999838D02*
X150857143Y-28952219D01*
X150857143Y-28952219D02*
X151095238Y-28952219D01*
X151095238Y-28952219D02*
X151238095Y-28999838D01*
X151571429Y-28952219D02*
X151809524Y-29952219D01*
X151809524Y-29952219D02*
X152000000Y-29237933D01*
X152000000Y-29237933D02*
X152190476Y-29952219D01*
X152190476Y-29952219D02*
X152428572Y-28952219D01*
X153238095Y-28952219D02*
X153047619Y-28952219D01*
X153047619Y-28952219D02*
X152952381Y-28999838D01*
X152952381Y-28999838D02*
X152904762Y-29047457D01*
X152904762Y-29047457D02*
X152809524Y-29190314D01*
X152809524Y-29190314D02*
X152761905Y-29380790D01*
X152761905Y-29380790D02*
X152761905Y-29761742D01*
X152761905Y-29761742D02*
X152809524Y-29856980D01*
X152809524Y-29856980D02*
X152857143Y-29904600D01*
X152857143Y-29904600D02*
X152952381Y-29952219D01*
X152952381Y-29952219D02*
X153142857Y-29952219D01*
X153142857Y-29952219D02*
X153238095Y-29904600D01*
X153238095Y-29904600D02*
X153285714Y-29856980D01*
X153285714Y-29856980D02*
X153333333Y-29761742D01*
X153333333Y-29761742D02*
X153333333Y-29523647D01*
X153333333Y-29523647D02*
X153285714Y-29428409D01*
X153285714Y-29428409D02*
X153238095Y-29380790D01*
X153238095Y-29380790D02*
X153142857Y-29333171D01*
X153142857Y-29333171D02*
X152952381Y-29333171D01*
X152952381Y-29333171D02*
X152857143Y-29380790D01*
X152857143Y-29380790D02*
X152809524Y-29428409D01*
X152809524Y-29428409D02*
X152761905Y-29523647D01*
X145571429Y-35904600D02*
X145714286Y-35952219D01*
X145714286Y-35952219D02*
X145952381Y-35952219D01*
X145952381Y-35952219D02*
X146047619Y-35904600D01*
X146047619Y-35904600D02*
X146095238Y-35856980D01*
X146095238Y-35856980D02*
X146142857Y-35761742D01*
X146142857Y-35761742D02*
X146142857Y-35666504D01*
X146142857Y-35666504D02*
X146095238Y-35571266D01*
X146095238Y-35571266D02*
X146047619Y-35523647D01*
X146047619Y-35523647D02*
X145952381Y-35476028D01*
X145952381Y-35476028D02*
X145761905Y-35428409D01*
X145761905Y-35428409D02*
X145666667Y-35380790D01*
X145666667Y-35380790D02*
X145619048Y-35333171D01*
X145619048Y-35333171D02*
X145571429Y-35237933D01*
X145571429Y-35237933D02*
X145571429Y-35142695D01*
X145571429Y-35142695D02*
X145619048Y-35047457D01*
X145619048Y-35047457D02*
X145666667Y-34999838D01*
X145666667Y-34999838D02*
X145761905Y-34952219D01*
X145761905Y-34952219D02*
X146000000Y-34952219D01*
X146000000Y-34952219D02*
X146142857Y-34999838D01*
X146476191Y-34952219D02*
X146714286Y-35952219D01*
X146714286Y-35952219D02*
X146904762Y-35237933D01*
X146904762Y-35237933D02*
X147095238Y-35952219D01*
X147095238Y-35952219D02*
X147333334Y-34952219D01*
X147714286Y-35571266D02*
X148476191Y-35571266D01*
X148904762Y-35904600D02*
X149047619Y-35952219D01*
X149047619Y-35952219D02*
X149285714Y-35952219D01*
X149285714Y-35952219D02*
X149380952Y-35904600D01*
X149380952Y-35904600D02*
X149428571Y-35856980D01*
X149428571Y-35856980D02*
X149476190Y-35761742D01*
X149476190Y-35761742D02*
X149476190Y-35666504D01*
X149476190Y-35666504D02*
X149428571Y-35571266D01*
X149428571Y-35571266D02*
X149380952Y-35523647D01*
X149380952Y-35523647D02*
X149285714Y-35476028D01*
X149285714Y-35476028D02*
X149095238Y-35428409D01*
X149095238Y-35428409D02*
X149000000Y-35380790D01*
X149000000Y-35380790D02*
X148952381Y-35333171D01*
X148952381Y-35333171D02*
X148904762Y-35237933D01*
X148904762Y-35237933D02*
X148904762Y-35142695D01*
X148904762Y-35142695D02*
X148952381Y-35047457D01*
X148952381Y-35047457D02*
X149000000Y-34999838D01*
X149000000Y-34999838D02*
X149095238Y-34952219D01*
X149095238Y-34952219D02*
X149333333Y-34952219D01*
X149333333Y-34952219D02*
X149476190Y-34999838D01*
X149904762Y-35952219D02*
X149904762Y-34952219D01*
X149904762Y-34952219D02*
X150238095Y-35666504D01*
X150238095Y-35666504D02*
X150571428Y-34952219D01*
X150571428Y-34952219D02*
X150571428Y-35952219D01*
X151047619Y-35952219D02*
X151047619Y-34952219D01*
X151047619Y-34952219D02*
X151285714Y-34952219D01*
X151285714Y-34952219D02*
X151428571Y-34999838D01*
X151428571Y-34999838D02*
X151523809Y-35095076D01*
X151523809Y-35095076D02*
X151571428Y-35190314D01*
X151571428Y-35190314D02*
X151619047Y-35380790D01*
X151619047Y-35380790D02*
X151619047Y-35523647D01*
X151619047Y-35523647D02*
X151571428Y-35714123D01*
X151571428Y-35714123D02*
X151523809Y-35809361D01*
X151523809Y-35809361D02*
X151428571Y-35904600D01*
X151428571Y-35904600D02*
X151285714Y-35952219D01*
X151285714Y-35952219D02*
X151047619Y-35952219D01*
X152047619Y-35571266D02*
X152809524Y-35571266D01*
X153761904Y-34952219D02*
X153285714Y-34952219D01*
X153285714Y-34952219D02*
X153238095Y-35428409D01*
X153238095Y-35428409D02*
X153285714Y-35380790D01*
X153285714Y-35380790D02*
X153380952Y-35333171D01*
X153380952Y-35333171D02*
X153619047Y-35333171D01*
X153619047Y-35333171D02*
X153714285Y-35380790D01*
X153714285Y-35380790D02*
X153761904Y-35428409D01*
X153761904Y-35428409D02*
X153809523Y-35523647D01*
X153809523Y-35523647D02*
X153809523Y-35761742D01*
X153809523Y-35761742D02*
X153761904Y-35856980D01*
X153761904Y-35856980D02*
X153714285Y-35904600D01*
X153714285Y-35904600D02*
X153619047Y-35952219D01*
X153619047Y-35952219D02*
X153380952Y-35952219D01*
X153380952Y-35952219D02*
X153285714Y-35904600D01*
X153285714Y-35904600D02*
X153238095Y-35856980D01*
X154238095Y-35856980D02*
X154285714Y-35904600D01*
X154285714Y-35904600D02*
X154238095Y-35952219D01*
X154238095Y-35952219D02*
X154190476Y-35904600D01*
X154190476Y-35904600D02*
X154238095Y-35856980D01*
X154238095Y-35856980D02*
X154238095Y-35952219D01*
X155238094Y-35952219D02*
X154666666Y-35952219D01*
X154952380Y-35952219D02*
X154952380Y-34952219D01*
X154952380Y-34952219D02*
X154857142Y-35095076D01*
X154857142Y-35095076D02*
X154761904Y-35190314D01*
X154761904Y-35190314D02*
X154666666Y-35237933D01*
X155571428Y-35952219D02*
X156095237Y-35285552D01*
X155571428Y-35285552D02*
X156095237Y-35952219D01*
X156952380Y-34952219D02*
X156476190Y-34952219D01*
X156476190Y-34952219D02*
X156428571Y-35428409D01*
X156428571Y-35428409D02*
X156476190Y-35380790D01*
X156476190Y-35380790D02*
X156571428Y-35333171D01*
X156571428Y-35333171D02*
X156809523Y-35333171D01*
X156809523Y-35333171D02*
X156904761Y-35380790D01*
X156904761Y-35380790D02*
X156952380Y-35428409D01*
X156952380Y-35428409D02*
X156999999Y-35523647D01*
X156999999Y-35523647D02*
X156999999Y-35761742D01*
X156999999Y-35761742D02*
X156952380Y-35856980D01*
X156952380Y-35856980D02*
X156904761Y-35904600D01*
X156904761Y-35904600D02*
X156809523Y-35952219D01*
X156809523Y-35952219D02*
X156571428Y-35952219D01*
X156571428Y-35952219D02*
X156476190Y-35904600D01*
X156476190Y-35904600D02*
X156428571Y-35856980D01*
X157428571Y-35856980D02*
X157476190Y-35904600D01*
X157476190Y-35904600D02*
X157428571Y-35952219D01*
X157428571Y-35952219D02*
X157380952Y-35904600D01*
X157380952Y-35904600D02*
X157428571Y-35856980D01*
X157428571Y-35856980D02*
X157428571Y-35952219D01*
X158428570Y-35952219D02*
X157857142Y-35952219D01*
X158142856Y-35952219D02*
X158142856Y-34952219D01*
X158142856Y-34952219D02*
X158047618Y-35095076D01*
X158047618Y-35095076D02*
X157952380Y-35190314D01*
X157952380Y-35190314D02*
X157857142Y-35237933D01*
X140666667Y-39904600D02*
X140809524Y-39952219D01*
X140809524Y-39952219D02*
X141047619Y-39952219D01*
X141047619Y-39952219D02*
X141142857Y-39904600D01*
X141142857Y-39904600D02*
X141190476Y-39856980D01*
X141190476Y-39856980D02*
X141238095Y-39761742D01*
X141238095Y-39761742D02*
X141238095Y-39666504D01*
X141238095Y-39666504D02*
X141190476Y-39571266D01*
X141190476Y-39571266D02*
X141142857Y-39523647D01*
X141142857Y-39523647D02*
X141047619Y-39476028D01*
X141047619Y-39476028D02*
X140857143Y-39428409D01*
X140857143Y-39428409D02*
X140761905Y-39380790D01*
X140761905Y-39380790D02*
X140714286Y-39333171D01*
X140714286Y-39333171D02*
X140666667Y-39237933D01*
X140666667Y-39237933D02*
X140666667Y-39142695D01*
X140666667Y-39142695D02*
X140714286Y-39047457D01*
X140714286Y-39047457D02*
X140761905Y-38999838D01*
X140761905Y-38999838D02*
X140857143Y-38952219D01*
X140857143Y-38952219D02*
X141095238Y-38952219D01*
X141095238Y-38952219D02*
X141238095Y-38999838D01*
X141571429Y-38952219D02*
X141809524Y-39952219D01*
X141809524Y-39952219D02*
X142000000Y-39237933D01*
X142000000Y-39237933D02*
X142190476Y-39952219D01*
X142190476Y-39952219D02*
X142428572Y-38952219D01*
X142714286Y-38952219D02*
X143380952Y-38952219D01*
X143380952Y-38952219D02*
X142952381Y-39952219D01*
X135571429Y-45904600D02*
X135714286Y-45952219D01*
X135714286Y-45952219D02*
X135952381Y-45952219D01*
X135952381Y-45952219D02*
X136047619Y-45904600D01*
X136047619Y-45904600D02*
X136095238Y-45856980D01*
X136095238Y-45856980D02*
X136142857Y-45761742D01*
X136142857Y-45761742D02*
X136142857Y-45666504D01*
X136142857Y-45666504D02*
X136095238Y-45571266D01*
X136095238Y-45571266D02*
X136047619Y-45523647D01*
X136047619Y-45523647D02*
X135952381Y-45476028D01*
X135952381Y-45476028D02*
X135761905Y-45428409D01*
X135761905Y-45428409D02*
X135666667Y-45380790D01*
X135666667Y-45380790D02*
X135619048Y-45333171D01*
X135619048Y-45333171D02*
X135571429Y-45237933D01*
X135571429Y-45237933D02*
X135571429Y-45142695D01*
X135571429Y-45142695D02*
X135619048Y-45047457D01*
X135619048Y-45047457D02*
X135666667Y-44999838D01*
X135666667Y-44999838D02*
X135761905Y-44952219D01*
X135761905Y-44952219D02*
X136000000Y-44952219D01*
X136000000Y-44952219D02*
X136142857Y-44999838D01*
X136476191Y-44952219D02*
X136714286Y-45952219D01*
X136714286Y-45952219D02*
X136904762Y-45237933D01*
X136904762Y-45237933D02*
X137095238Y-45952219D01*
X137095238Y-45952219D02*
X137333334Y-44952219D01*
X137714286Y-45571266D02*
X138476191Y-45571266D01*
X138904762Y-45904600D02*
X139047619Y-45952219D01*
X139047619Y-45952219D02*
X139285714Y-45952219D01*
X139285714Y-45952219D02*
X139380952Y-45904600D01*
X139380952Y-45904600D02*
X139428571Y-45856980D01*
X139428571Y-45856980D02*
X139476190Y-45761742D01*
X139476190Y-45761742D02*
X139476190Y-45666504D01*
X139476190Y-45666504D02*
X139428571Y-45571266D01*
X139428571Y-45571266D02*
X139380952Y-45523647D01*
X139380952Y-45523647D02*
X139285714Y-45476028D01*
X139285714Y-45476028D02*
X139095238Y-45428409D01*
X139095238Y-45428409D02*
X139000000Y-45380790D01*
X139000000Y-45380790D02*
X138952381Y-45333171D01*
X138952381Y-45333171D02*
X138904762Y-45237933D01*
X138904762Y-45237933D02*
X138904762Y-45142695D01*
X138904762Y-45142695D02*
X138952381Y-45047457D01*
X138952381Y-45047457D02*
X139000000Y-44999838D01*
X139000000Y-44999838D02*
X139095238Y-44952219D01*
X139095238Y-44952219D02*
X139333333Y-44952219D01*
X139333333Y-44952219D02*
X139476190Y-44999838D01*
X139904762Y-45952219D02*
X139904762Y-44952219D01*
X139904762Y-44952219D02*
X140238095Y-45666504D01*
X140238095Y-45666504D02*
X140571428Y-44952219D01*
X140571428Y-44952219D02*
X140571428Y-45952219D01*
X141047619Y-45952219D02*
X141047619Y-44952219D01*
X141047619Y-44952219D02*
X141285714Y-44952219D01*
X141285714Y-44952219D02*
X141428571Y-44999838D01*
X141428571Y-44999838D02*
X141523809Y-45095076D01*
X141523809Y-45095076D02*
X141571428Y-45190314D01*
X141571428Y-45190314D02*
X141619047Y-45380790D01*
X141619047Y-45380790D02*
X141619047Y-45523647D01*
X141619047Y-45523647D02*
X141571428Y-45714123D01*
X141571428Y-45714123D02*
X141523809Y-45809361D01*
X141523809Y-45809361D02*
X141428571Y-45904600D01*
X141428571Y-45904600D02*
X141285714Y-45952219D01*
X141285714Y-45952219D02*
X141047619Y-45952219D01*
X142047619Y-45571266D02*
X142809524Y-45571266D01*
X143761904Y-44952219D02*
X143285714Y-44952219D01*
X143285714Y-44952219D02*
X143238095Y-45428409D01*
X143238095Y-45428409D02*
X143285714Y-45380790D01*
X143285714Y-45380790D02*
X143380952Y-45333171D01*
X143380952Y-45333171D02*
X143619047Y-45333171D01*
X143619047Y-45333171D02*
X143714285Y-45380790D01*
X143714285Y-45380790D02*
X143761904Y-45428409D01*
X143761904Y-45428409D02*
X143809523Y-45523647D01*
X143809523Y-45523647D02*
X143809523Y-45761742D01*
X143809523Y-45761742D02*
X143761904Y-45856980D01*
X143761904Y-45856980D02*
X143714285Y-45904600D01*
X143714285Y-45904600D02*
X143619047Y-45952219D01*
X143619047Y-45952219D02*
X143380952Y-45952219D01*
X143380952Y-45952219D02*
X143285714Y-45904600D01*
X143285714Y-45904600D02*
X143238095Y-45856980D01*
X144238095Y-45856980D02*
X144285714Y-45904600D01*
X144285714Y-45904600D02*
X144238095Y-45952219D01*
X144238095Y-45952219D02*
X144190476Y-45904600D01*
X144190476Y-45904600D02*
X144238095Y-45856980D01*
X144238095Y-45856980D02*
X144238095Y-45952219D01*
X145238094Y-45952219D02*
X144666666Y-45952219D01*
X144952380Y-45952219D02*
X144952380Y-44952219D01*
X144952380Y-44952219D02*
X144857142Y-45095076D01*
X144857142Y-45095076D02*
X144761904Y-45190314D01*
X144761904Y-45190314D02*
X144666666Y-45237933D01*
X145571428Y-45952219D02*
X146095237Y-45285552D01*
X145571428Y-45285552D02*
X146095237Y-45952219D01*
X146952380Y-44952219D02*
X146476190Y-44952219D01*
X146476190Y-44952219D02*
X146428571Y-45428409D01*
X146428571Y-45428409D02*
X146476190Y-45380790D01*
X146476190Y-45380790D02*
X146571428Y-45333171D01*
X146571428Y-45333171D02*
X146809523Y-45333171D01*
X146809523Y-45333171D02*
X146904761Y-45380790D01*
X146904761Y-45380790D02*
X146952380Y-45428409D01*
X146952380Y-45428409D02*
X146999999Y-45523647D01*
X146999999Y-45523647D02*
X146999999Y-45761742D01*
X146999999Y-45761742D02*
X146952380Y-45856980D01*
X146952380Y-45856980D02*
X146904761Y-45904600D01*
X146904761Y-45904600D02*
X146809523Y-45952219D01*
X146809523Y-45952219D02*
X146571428Y-45952219D01*
X146571428Y-45952219D02*
X146476190Y-45904600D01*
X146476190Y-45904600D02*
X146428571Y-45856980D01*
X147428571Y-45856980D02*
X147476190Y-45904600D01*
X147476190Y-45904600D02*
X147428571Y-45952219D01*
X147428571Y-45952219D02*
X147380952Y-45904600D01*
X147380952Y-45904600D02*
X147428571Y-45856980D01*
X147428571Y-45856980D02*
X147428571Y-45952219D01*
X148428570Y-45952219D02*
X147857142Y-45952219D01*
X148142856Y-45952219D02*
X148142856Y-44952219D01*
X148142856Y-44952219D02*
X148047618Y-45095076D01*
X148047618Y-45095076D02*
X147952380Y-45190314D01*
X147952380Y-45190314D02*
X147857142Y-45237933D01*
X130666667Y-29904600D02*
X130809524Y-29952219D01*
X130809524Y-29952219D02*
X131047619Y-29952219D01*
X131047619Y-29952219D02*
X131142857Y-29904600D01*
X131142857Y-29904600D02*
X131190476Y-29856980D01*
X131190476Y-29856980D02*
X131238095Y-29761742D01*
X131238095Y-29761742D02*
X131238095Y-29666504D01*
X131238095Y-29666504D02*
X131190476Y-29571266D01*
X131190476Y-29571266D02*
X131142857Y-29523647D01*
X131142857Y-29523647D02*
X131047619Y-29476028D01*
X131047619Y-29476028D02*
X130857143Y-29428409D01*
X130857143Y-29428409D02*
X130761905Y-29380790D01*
X130761905Y-29380790D02*
X130714286Y-29333171D01*
X130714286Y-29333171D02*
X130666667Y-29237933D01*
X130666667Y-29237933D02*
X130666667Y-29142695D01*
X130666667Y-29142695D02*
X130714286Y-29047457D01*
X130714286Y-29047457D02*
X130761905Y-28999838D01*
X130761905Y-28999838D02*
X130857143Y-28952219D01*
X130857143Y-28952219D02*
X131095238Y-28952219D01*
X131095238Y-28952219D02*
X131238095Y-28999838D01*
X131571429Y-28952219D02*
X131809524Y-29952219D01*
X131809524Y-29952219D02*
X132000000Y-29237933D01*
X132000000Y-29237933D02*
X132190476Y-29952219D01*
X132190476Y-29952219D02*
X132428572Y-28952219D01*
X132952381Y-29380790D02*
X132857143Y-29333171D01*
X132857143Y-29333171D02*
X132809524Y-29285552D01*
X132809524Y-29285552D02*
X132761905Y-29190314D01*
X132761905Y-29190314D02*
X132761905Y-29142695D01*
X132761905Y-29142695D02*
X132809524Y-29047457D01*
X132809524Y-29047457D02*
X132857143Y-28999838D01*
X132857143Y-28999838D02*
X132952381Y-28952219D01*
X132952381Y-28952219D02*
X133142857Y-28952219D01*
X133142857Y-28952219D02*
X133238095Y-28999838D01*
X133238095Y-28999838D02*
X133285714Y-29047457D01*
X133285714Y-29047457D02*
X133333333Y-29142695D01*
X133333333Y-29142695D02*
X133333333Y-29190314D01*
X133333333Y-29190314D02*
X133285714Y-29285552D01*
X133285714Y-29285552D02*
X133238095Y-29333171D01*
X133238095Y-29333171D02*
X133142857Y-29380790D01*
X133142857Y-29380790D02*
X132952381Y-29380790D01*
X132952381Y-29380790D02*
X132857143Y-29428409D01*
X132857143Y-29428409D02*
X132809524Y-29476028D01*
X132809524Y-29476028D02*
X132761905Y-29571266D01*
X132761905Y-29571266D02*
X132761905Y-29761742D01*
X132761905Y-29761742D02*
X132809524Y-29856980D01*
X132809524Y-29856980D02*
X132857143Y-29904600D01*
X132857143Y-29904600D02*
X132952381Y-29952219D01*
X132952381Y-29952219D02*
X133142857Y-29952219D01*
X133142857Y-29952219D02*
X133238095Y-29904600D01*
X133238095Y-29904600D02*
X133285714Y-29856980D01*
X133285714Y-29856980D02*
X133333333Y-29761742D01*
X133333333Y-29761742D02*
X133333333Y-29571266D01*
X133333333Y-29571266D02*
X133285714Y-29476028D01*
X133285714Y-29476028D02*
X133238095Y-29428409D01*
X133238095Y-29428409D02*
X133142857Y-29380790D01*
X125571429Y-35904600D02*
X125714286Y-35952219D01*
X125714286Y-35952219D02*
X125952381Y-35952219D01*
X125952381Y-35952219D02*
X126047619Y-35904600D01*
X126047619Y-35904600D02*
X126095238Y-35856980D01*
X126095238Y-35856980D02*
X126142857Y-35761742D01*
X126142857Y-35761742D02*
X126142857Y-35666504D01*
X126142857Y-35666504D02*
X126095238Y-35571266D01*
X126095238Y-35571266D02*
X126047619Y-35523647D01*
X126047619Y-35523647D02*
X125952381Y-35476028D01*
X125952381Y-35476028D02*
X125761905Y-35428409D01*
X125761905Y-35428409D02*
X125666667Y-35380790D01*
X125666667Y-35380790D02*
X125619048Y-35333171D01*
X125619048Y-35333171D02*
X125571429Y-35237933D01*
X125571429Y-35237933D02*
X125571429Y-35142695D01*
X125571429Y-35142695D02*
X125619048Y-35047457D01*
X125619048Y-35047457D02*
X125666667Y-34999838D01*
X125666667Y-34999838D02*
X125761905Y-34952219D01*
X125761905Y-34952219D02*
X126000000Y-34952219D01*
X126000000Y-34952219D02*
X126142857Y-34999838D01*
X126476191Y-34952219D02*
X126714286Y-35952219D01*
X126714286Y-35952219D02*
X126904762Y-35237933D01*
X126904762Y-35237933D02*
X127095238Y-35952219D01*
X127095238Y-35952219D02*
X127333334Y-34952219D01*
X127714286Y-35571266D02*
X128476191Y-35571266D01*
X128904762Y-35904600D02*
X129047619Y-35952219D01*
X129047619Y-35952219D02*
X129285714Y-35952219D01*
X129285714Y-35952219D02*
X129380952Y-35904600D01*
X129380952Y-35904600D02*
X129428571Y-35856980D01*
X129428571Y-35856980D02*
X129476190Y-35761742D01*
X129476190Y-35761742D02*
X129476190Y-35666504D01*
X129476190Y-35666504D02*
X129428571Y-35571266D01*
X129428571Y-35571266D02*
X129380952Y-35523647D01*
X129380952Y-35523647D02*
X129285714Y-35476028D01*
X129285714Y-35476028D02*
X129095238Y-35428409D01*
X129095238Y-35428409D02*
X129000000Y-35380790D01*
X129000000Y-35380790D02*
X128952381Y-35333171D01*
X128952381Y-35333171D02*
X128904762Y-35237933D01*
X128904762Y-35237933D02*
X128904762Y-35142695D01*
X128904762Y-35142695D02*
X128952381Y-35047457D01*
X128952381Y-35047457D02*
X129000000Y-34999838D01*
X129000000Y-34999838D02*
X129095238Y-34952219D01*
X129095238Y-34952219D02*
X129333333Y-34952219D01*
X129333333Y-34952219D02*
X129476190Y-34999838D01*
X129904762Y-35952219D02*
X129904762Y-34952219D01*
X129904762Y-34952219D02*
X130238095Y-35666504D01*
X130238095Y-35666504D02*
X130571428Y-34952219D01*
X130571428Y-34952219D02*
X130571428Y-35952219D01*
X131047619Y-35952219D02*
X131047619Y-34952219D01*
X131047619Y-34952219D02*
X131285714Y-34952219D01*
X131285714Y-34952219D02*
X131428571Y-34999838D01*
X131428571Y-34999838D02*
X131523809Y-35095076D01*
X131523809Y-35095076D02*
X131571428Y-35190314D01*
X131571428Y-35190314D02*
X131619047Y-35380790D01*
X131619047Y-35380790D02*
X131619047Y-35523647D01*
X131619047Y-35523647D02*
X131571428Y-35714123D01*
X131571428Y-35714123D02*
X131523809Y-35809361D01*
X131523809Y-35809361D02*
X131428571Y-35904600D01*
X131428571Y-35904600D02*
X131285714Y-35952219D01*
X131285714Y-35952219D02*
X131047619Y-35952219D01*
X132047619Y-35571266D02*
X132809524Y-35571266D01*
X133761904Y-34952219D02*
X133285714Y-34952219D01*
X133285714Y-34952219D02*
X133238095Y-35428409D01*
X133238095Y-35428409D02*
X133285714Y-35380790D01*
X133285714Y-35380790D02*
X133380952Y-35333171D01*
X133380952Y-35333171D02*
X133619047Y-35333171D01*
X133619047Y-35333171D02*
X133714285Y-35380790D01*
X133714285Y-35380790D02*
X133761904Y-35428409D01*
X133761904Y-35428409D02*
X133809523Y-35523647D01*
X133809523Y-35523647D02*
X133809523Y-35761742D01*
X133809523Y-35761742D02*
X133761904Y-35856980D01*
X133761904Y-35856980D02*
X133714285Y-35904600D01*
X133714285Y-35904600D02*
X133619047Y-35952219D01*
X133619047Y-35952219D02*
X133380952Y-35952219D01*
X133380952Y-35952219D02*
X133285714Y-35904600D01*
X133285714Y-35904600D02*
X133238095Y-35856980D01*
X134238095Y-35856980D02*
X134285714Y-35904600D01*
X134285714Y-35904600D02*
X134238095Y-35952219D01*
X134238095Y-35952219D02*
X134190476Y-35904600D01*
X134190476Y-35904600D02*
X134238095Y-35856980D01*
X134238095Y-35856980D02*
X134238095Y-35952219D01*
X135238094Y-35952219D02*
X134666666Y-35952219D01*
X134952380Y-35952219D02*
X134952380Y-34952219D01*
X134952380Y-34952219D02*
X134857142Y-35095076D01*
X134857142Y-35095076D02*
X134761904Y-35190314D01*
X134761904Y-35190314D02*
X134666666Y-35237933D01*
X135571428Y-35952219D02*
X136095237Y-35285552D01*
X135571428Y-35285552D02*
X136095237Y-35952219D01*
X136952380Y-34952219D02*
X136476190Y-34952219D01*
X136476190Y-34952219D02*
X136428571Y-35428409D01*
X136428571Y-35428409D02*
X136476190Y-35380790D01*
X136476190Y-35380790D02*
X136571428Y-35333171D01*
X136571428Y-35333171D02*
X136809523Y-35333171D01*
X136809523Y-35333171D02*
X136904761Y-35380790D01*
X136904761Y-35380790D02*
X136952380Y-35428409D01*
X136952380Y-35428409D02*
X136999999Y-35523647D01*
X136999999Y-35523647D02*
X136999999Y-35761742D01*
X136999999Y-35761742D02*
X136952380Y-35856980D01*
X136952380Y-35856980D02*
X136904761Y-35904600D01*
X136904761Y-35904600D02*
X136809523Y-35952219D01*
X136809523Y-35952219D02*
X136571428Y-35952219D01*
X136571428Y-35952219D02*
X136476190Y-35904600D01*
X136476190Y-35904600D02*
X136428571Y-35856980D01*
X137428571Y-35856980D02*
X137476190Y-35904600D01*
X137476190Y-35904600D02*
X137428571Y-35952219D01*
X137428571Y-35952219D02*
X137380952Y-35904600D01*
X137380952Y-35904600D02*
X137428571Y-35856980D01*
X137428571Y-35856980D02*
X137428571Y-35952219D01*
X138428570Y-35952219D02*
X137857142Y-35952219D01*
X138142856Y-35952219D02*
X138142856Y-34952219D01*
X138142856Y-34952219D02*
X138047618Y-35095076D01*
X138047618Y-35095076D02*
X137952380Y-35190314D01*
X137952380Y-35190314D02*
X137857142Y-35237933D01*
X6666667Y-51904600D02*
X6809524Y-51952219D01*
X6809524Y-51952219D02*
X7047619Y-51952219D01*
X7047619Y-51952219D02*
X7142857Y-51904600D01*
X7142857Y-51904600D02*
X7190476Y-51856980D01*
X7190476Y-51856980D02*
X7238095Y-51761742D01*
X7238095Y-51761742D02*
X7238095Y-51666504D01*
X7238095Y-51666504D02*
X7190476Y-51571266D01*
X7190476Y-51571266D02*
X7142857Y-51523647D01*
X7142857Y-51523647D02*
X7047619Y-51476028D01*
X7047619Y-51476028D02*
X6857143Y-51428409D01*
X6857143Y-51428409D02*
X6761905Y-51380790D01*
X6761905Y-51380790D02*
X6714286Y-51333171D01*
X6714286Y-51333171D02*
X6666667Y-51237933D01*
X6666667Y-51237933D02*
X6666667Y-51142695D01*
X6666667Y-51142695D02*
X6714286Y-51047457D01*
X6714286Y-51047457D02*
X6761905Y-50999838D01*
X6761905Y-50999838D02*
X6857143Y-50952219D01*
X6857143Y-50952219D02*
X7095238Y-50952219D01*
X7095238Y-50952219D02*
X7238095Y-50999838D01*
X7571429Y-50952219D02*
X7809524Y-51952219D01*
X7809524Y-51952219D02*
X8000000Y-51237933D01*
X8000000Y-51237933D02*
X8190476Y-51952219D01*
X8190476Y-51952219D02*
X8428572Y-50952219D01*
X8857143Y-51952219D02*
X9047619Y-51952219D01*
X9047619Y-51952219D02*
X9142857Y-51904600D01*
X9142857Y-51904600D02*
X9190476Y-51856980D01*
X9190476Y-51856980D02*
X9285714Y-51714123D01*
X9285714Y-51714123D02*
X9333333Y-51523647D01*
X9333333Y-51523647D02*
X9333333Y-51142695D01*
X9333333Y-51142695D02*
X9285714Y-51047457D01*
X9285714Y-51047457D02*
X9238095Y-50999838D01*
X9238095Y-50999838D02*
X9142857Y-50952219D01*
X9142857Y-50952219D02*
X8952381Y-50952219D01*
X8952381Y-50952219D02*
X8857143Y-50999838D01*
X8857143Y-50999838D02*
X8809524Y-51047457D01*
X8809524Y-51047457D02*
X8761905Y-51142695D01*
X8761905Y-51142695D02*
X8761905Y-51380790D01*
X8761905Y-51380790D02*
X8809524Y-51476028D01*
X8809524Y-51476028D02*
X8857143Y-51523647D01*
X8857143Y-51523647D02*
X8952381Y-51571266D01*
X8952381Y-51571266D02*
X9142857Y-51571266D01*
X9142857Y-51571266D02*
X9238095Y-51523647D01*
X9238095Y-51523647D02*
X9285714Y-51476028D01*
X9285714Y-51476028D02*
X9333333Y-51380790D01*
X1571429Y-57904600D02*
X1714286Y-57952219D01*
X1714286Y-57952219D02*
X1952381Y-57952219D01*
X1952381Y-57952219D02*
X2047619Y-57904600D01*
X2047619Y-57904600D02*
X2095238Y-57856980D01*
X2095238Y-57856980D02*
X2142857Y-57761742D01*
X2142857Y-57761742D02*
X2142857Y-57666504D01*
X2142857Y-57666504D02*
X2095238Y-57571266D01*
X2095238Y-57571266D02*
X2047619Y-57523647D01*
X2047619Y-57523647D02*
X1952381Y-57476028D01*
X1952381Y-57476028D02*
X1761905Y-57428409D01*
X1761905Y-57428409D02*
X1666667Y-57380790D01*
X1666667Y-57380790D02*
X1619048Y-57333171D01*
X1619048Y-57333171D02*
X1571429Y-57237933D01*
X1571429Y-57237933D02*
X1571429Y-57142695D01*
X1571429Y-57142695D02*
X1619048Y-57047457D01*
X1619048Y-57047457D02*
X1666667Y-56999838D01*
X1666667Y-56999838D02*
X1761905Y-56952219D01*
X1761905Y-56952219D02*
X2000000Y-56952219D01*
X2000000Y-56952219D02*
X2142857Y-56999838D01*
X2476191Y-56952219D02*
X2714286Y-57952219D01*
X2714286Y-57952219D02*
X2904762Y-57237933D01*
X2904762Y-57237933D02*
X3095238Y-57952219D01*
X3095238Y-57952219D02*
X3333334Y-56952219D01*
X3714286Y-57571266D02*
X4476191Y-57571266D01*
X4904762Y-57904600D02*
X5047619Y-57952219D01*
X5047619Y-57952219D02*
X5285714Y-57952219D01*
X5285714Y-57952219D02*
X5380952Y-57904600D01*
X5380952Y-57904600D02*
X5428571Y-57856980D01*
X5428571Y-57856980D02*
X5476190Y-57761742D01*
X5476190Y-57761742D02*
X5476190Y-57666504D01*
X5476190Y-57666504D02*
X5428571Y-57571266D01*
X5428571Y-57571266D02*
X5380952Y-57523647D01*
X5380952Y-57523647D02*
X5285714Y-57476028D01*
X5285714Y-57476028D02*
X5095238Y-57428409D01*
X5095238Y-57428409D02*
X5000000Y-57380790D01*
X5000000Y-57380790D02*
X4952381Y-57333171D01*
X4952381Y-57333171D02*
X4904762Y-57237933D01*
X4904762Y-57237933D02*
X4904762Y-57142695D01*
X4904762Y-57142695D02*
X4952381Y-57047457D01*
X4952381Y-57047457D02*
X5000000Y-56999838D01*
X5000000Y-56999838D02*
X5095238Y-56952219D01*
X5095238Y-56952219D02*
X5333333Y-56952219D01*
X5333333Y-56952219D02*
X5476190Y-56999838D01*
X5904762Y-57952219D02*
X5904762Y-56952219D01*
X5904762Y-56952219D02*
X6238095Y-57666504D01*
X6238095Y-57666504D02*
X6571428Y-56952219D01*
X6571428Y-56952219D02*
X6571428Y-57952219D01*
X7047619Y-57952219D02*
X7047619Y-56952219D01*
X7047619Y-56952219D02*
X7285714Y-56952219D01*
X7285714Y-56952219D02*
X7428571Y-56999838D01*
X7428571Y-56999838D02*
X7523809Y-57095076D01*
X7523809Y-57095076D02*
X7571428Y-57190314D01*
X7571428Y-57190314D02*
X7619047Y-57380790D01*
X7619047Y-57380790D02*
X7619047Y-57523647D01*
X7619047Y-57523647D02*
X7571428Y-57714123D01*
X7571428Y-57714123D02*
X7523809Y-57809361D01*
X7523809Y-57809361D02*
X7428571Y-57904600D01*
X7428571Y-57904600D02*
X7285714Y-57952219D01*
X7285714Y-57952219D02*
X7047619Y-57952219D01*
X8047619Y-57571266D02*
X8809524Y-57571266D01*
X9761904Y-56952219D02*
X9285714Y-56952219D01*
X9285714Y-56952219D02*
X9238095Y-57428409D01*
X9238095Y-57428409D02*
X9285714Y-57380790D01*
X9285714Y-57380790D02*
X9380952Y-57333171D01*
X9380952Y-57333171D02*
X9619047Y-57333171D01*
X9619047Y-57333171D02*
X9714285Y-57380790D01*
X9714285Y-57380790D02*
X9761904Y-57428409D01*
X9761904Y-57428409D02*
X9809523Y-57523647D01*
X9809523Y-57523647D02*
X9809523Y-57761742D01*
X9809523Y-57761742D02*
X9761904Y-57856980D01*
X9761904Y-57856980D02*
X9714285Y-57904600D01*
X9714285Y-57904600D02*
X9619047Y-57952219D01*
X9619047Y-57952219D02*
X9380952Y-57952219D01*
X9380952Y-57952219D02*
X9285714Y-57904600D01*
X9285714Y-57904600D02*
X9238095Y-57856980D01*
X10238095Y-57856980D02*
X10285714Y-57904600D01*
X10285714Y-57904600D02*
X10238095Y-57952219D01*
X10238095Y-57952219D02*
X10190476Y-57904600D01*
X10190476Y-57904600D02*
X10238095Y-57856980D01*
X10238095Y-57856980D02*
X10238095Y-57952219D01*
X11238094Y-57952219D02*
X10666666Y-57952219D01*
X10952380Y-57952219D02*
X10952380Y-56952219D01*
X10952380Y-56952219D02*
X10857142Y-57095076D01*
X10857142Y-57095076D02*
X10761904Y-57190314D01*
X10761904Y-57190314D02*
X10666666Y-57237933D01*
X11571428Y-57952219D02*
X12095237Y-57285552D01*
X11571428Y-57285552D02*
X12095237Y-57952219D01*
X12952380Y-56952219D02*
X12476190Y-56952219D01*
X12476190Y-56952219D02*
X12428571Y-57428409D01*
X12428571Y-57428409D02*
X12476190Y-57380790D01*
X12476190Y-57380790D02*
X12571428Y-57333171D01*
X12571428Y-57333171D02*
X12809523Y-57333171D01*
X12809523Y-57333171D02*
X12904761Y-57380790D01*
X12904761Y-57380790D02*
X12952380Y-57428409D01*
X12952380Y-57428409D02*
X12999999Y-57523647D01*
X12999999Y-57523647D02*
X12999999Y-57761742D01*
X12999999Y-57761742D02*
X12952380Y-57856980D01*
X12952380Y-57856980D02*
X12904761Y-57904600D01*
X12904761Y-57904600D02*
X12809523Y-57952219D01*
X12809523Y-57952219D02*
X12571428Y-57952219D01*
X12571428Y-57952219D02*
X12476190Y-57904600D01*
X12476190Y-57904600D02*
X12428571Y-57856980D01*
X13428571Y-57856980D02*
X13476190Y-57904600D01*
X13476190Y-57904600D02*
X13428571Y-57952219D01*
X13428571Y-57952219D02*
X13380952Y-57904600D01*
X13380952Y-57904600D02*
X13428571Y-57856980D01*
X13428571Y-57856980D02*
X13428571Y-57952219D01*
X14428570Y-57952219D02*
X13857142Y-57952219D01*
X14142856Y-57952219D02*
X14142856Y-56952219D01*
X14142856Y-56952219D02*
X14047618Y-57095076D01*
X14047618Y-57095076D02*
X13952380Y-57190314D01*
X13952380Y-57190314D02*
X13857142Y-57237933D01*
X26190476Y-51904600D02*
X26333333Y-51952219D01*
X26333333Y-51952219D02*
X26571428Y-51952219D01*
X26571428Y-51952219D02*
X26666666Y-51904600D01*
X26666666Y-51904600D02*
X26714285Y-51856980D01*
X26714285Y-51856980D02*
X26761904Y-51761742D01*
X26761904Y-51761742D02*
X26761904Y-51666504D01*
X26761904Y-51666504D02*
X26714285Y-51571266D01*
X26714285Y-51571266D02*
X26666666Y-51523647D01*
X26666666Y-51523647D02*
X26571428Y-51476028D01*
X26571428Y-51476028D02*
X26380952Y-51428409D01*
X26380952Y-51428409D02*
X26285714Y-51380790D01*
X26285714Y-51380790D02*
X26238095Y-51333171D01*
X26238095Y-51333171D02*
X26190476Y-51237933D01*
X26190476Y-51237933D02*
X26190476Y-51142695D01*
X26190476Y-51142695D02*
X26238095Y-51047457D01*
X26238095Y-51047457D02*
X26285714Y-50999838D01*
X26285714Y-50999838D02*
X26380952Y-50952219D01*
X26380952Y-50952219D02*
X26619047Y-50952219D01*
X26619047Y-50952219D02*
X26761904Y-50999838D01*
X27095238Y-50952219D02*
X27333333Y-51952219D01*
X27333333Y-51952219D02*
X27523809Y-51237933D01*
X27523809Y-51237933D02*
X27714285Y-51952219D01*
X27714285Y-51952219D02*
X27952381Y-50952219D01*
X28857142Y-51952219D02*
X28285714Y-51952219D01*
X28571428Y-51952219D02*
X28571428Y-50952219D01*
X28571428Y-50952219D02*
X28476190Y-51095076D01*
X28476190Y-51095076D02*
X28380952Y-51190314D01*
X28380952Y-51190314D02*
X28285714Y-51237933D01*
X29476190Y-50952219D02*
X29571428Y-50952219D01*
X29571428Y-50952219D02*
X29666666Y-50999838D01*
X29666666Y-50999838D02*
X29714285Y-51047457D01*
X29714285Y-51047457D02*
X29761904Y-51142695D01*
X29761904Y-51142695D02*
X29809523Y-51333171D01*
X29809523Y-51333171D02*
X29809523Y-51571266D01*
X29809523Y-51571266D02*
X29761904Y-51761742D01*
X29761904Y-51761742D02*
X29714285Y-51856980D01*
X29714285Y-51856980D02*
X29666666Y-51904600D01*
X29666666Y-51904600D02*
X29571428Y-51952219D01*
X29571428Y-51952219D02*
X29476190Y-51952219D01*
X29476190Y-51952219D02*
X29380952Y-51904600D01*
X29380952Y-51904600D02*
X29333333Y-51856980D01*
X29333333Y-51856980D02*
X29285714Y-51761742D01*
X29285714Y-51761742D02*
X29238095Y-51571266D01*
X29238095Y-51571266D02*
X29238095Y-51333171D01*
X29238095Y-51333171D02*
X29285714Y-51142695D01*
X29285714Y-51142695D02*
X29333333Y-51047457D01*
X29333333Y-51047457D02*
X29380952Y-50999838D01*
X29380952Y-50999838D02*
X29476190Y-50952219D01*
X21571429Y-57904600D02*
X21714286Y-57952219D01*
X21714286Y-57952219D02*
X21952381Y-57952219D01*
X21952381Y-57952219D02*
X22047619Y-57904600D01*
X22047619Y-57904600D02*
X22095238Y-57856980D01*
X22095238Y-57856980D02*
X22142857Y-57761742D01*
X22142857Y-57761742D02*
X22142857Y-57666504D01*
X22142857Y-57666504D02*
X22095238Y-57571266D01*
X22095238Y-57571266D02*
X22047619Y-57523647D01*
X22047619Y-57523647D02*
X21952381Y-57476028D01*
X21952381Y-57476028D02*
X21761905Y-57428409D01*
X21761905Y-57428409D02*
X21666667Y-57380790D01*
X21666667Y-57380790D02*
X21619048Y-57333171D01*
X21619048Y-57333171D02*
X21571429Y-57237933D01*
X21571429Y-57237933D02*
X21571429Y-57142695D01*
X21571429Y-57142695D02*
X21619048Y-57047457D01*
X21619048Y-57047457D02*
X21666667Y-56999838D01*
X21666667Y-56999838D02*
X21761905Y-56952219D01*
X21761905Y-56952219D02*
X22000000Y-56952219D01*
X22000000Y-56952219D02*
X22142857Y-56999838D01*
X22476191Y-56952219D02*
X22714286Y-57952219D01*
X22714286Y-57952219D02*
X22904762Y-57237933D01*
X22904762Y-57237933D02*
X23095238Y-57952219D01*
X23095238Y-57952219D02*
X23333334Y-56952219D01*
X23714286Y-57571266D02*
X24476191Y-57571266D01*
X24904762Y-57904600D02*
X25047619Y-57952219D01*
X25047619Y-57952219D02*
X25285714Y-57952219D01*
X25285714Y-57952219D02*
X25380952Y-57904600D01*
X25380952Y-57904600D02*
X25428571Y-57856980D01*
X25428571Y-57856980D02*
X25476190Y-57761742D01*
X25476190Y-57761742D02*
X25476190Y-57666504D01*
X25476190Y-57666504D02*
X25428571Y-57571266D01*
X25428571Y-57571266D02*
X25380952Y-57523647D01*
X25380952Y-57523647D02*
X25285714Y-57476028D01*
X25285714Y-57476028D02*
X25095238Y-57428409D01*
X25095238Y-57428409D02*
X25000000Y-57380790D01*
X25000000Y-57380790D02*
X24952381Y-57333171D01*
X24952381Y-57333171D02*
X24904762Y-57237933D01*
X24904762Y-57237933D02*
X24904762Y-57142695D01*
X24904762Y-57142695D02*
X24952381Y-57047457D01*
X24952381Y-57047457D02*
X25000000Y-56999838D01*
X25000000Y-56999838D02*
X25095238Y-56952219D01*
X25095238Y-56952219D02*
X25333333Y-56952219D01*
X25333333Y-56952219D02*
X25476190Y-56999838D01*
X25904762Y-57952219D02*
X25904762Y-56952219D01*
X25904762Y-56952219D02*
X26238095Y-57666504D01*
X26238095Y-57666504D02*
X26571428Y-56952219D01*
X26571428Y-56952219D02*
X26571428Y-57952219D01*
X27047619Y-57952219D02*
X27047619Y-56952219D01*
X27047619Y-56952219D02*
X27285714Y-56952219D01*
X27285714Y-56952219D02*
X27428571Y-56999838D01*
X27428571Y-56999838D02*
X27523809Y-57095076D01*
X27523809Y-57095076D02*
X27571428Y-57190314D01*
X27571428Y-57190314D02*
X27619047Y-57380790D01*
X27619047Y-57380790D02*
X27619047Y-57523647D01*
X27619047Y-57523647D02*
X27571428Y-57714123D01*
X27571428Y-57714123D02*
X27523809Y-57809361D01*
X27523809Y-57809361D02*
X27428571Y-57904600D01*
X27428571Y-57904600D02*
X27285714Y-57952219D01*
X27285714Y-57952219D02*
X27047619Y-57952219D01*
X28047619Y-57571266D02*
X28809524Y-57571266D01*
X29761904Y-56952219D02*
X29285714Y-56952219D01*
X29285714Y-56952219D02*
X29238095Y-57428409D01*
X29238095Y-57428409D02*
X29285714Y-57380790D01*
X29285714Y-57380790D02*
X29380952Y-57333171D01*
X29380952Y-57333171D02*
X29619047Y-57333171D01*
X29619047Y-57333171D02*
X29714285Y-57380790D01*
X29714285Y-57380790D02*
X29761904Y-57428409D01*
X29761904Y-57428409D02*
X29809523Y-57523647D01*
X29809523Y-57523647D02*
X29809523Y-57761742D01*
X29809523Y-57761742D02*
X29761904Y-57856980D01*
X29761904Y-57856980D02*
X29714285Y-57904600D01*
X29714285Y-57904600D02*
X29619047Y-57952219D01*
X29619047Y-57952219D02*
X29380952Y-57952219D01*
X29380952Y-57952219D02*
X29285714Y-57904600D01*
X29285714Y-57904600D02*
X29238095Y-57856980D01*
X30238095Y-57856980D02*
X30285714Y-57904600D01*
X30285714Y-57904600D02*
X30238095Y-57952219D01*
X30238095Y-57952219D02*
X30190476Y-57904600D01*
X30190476Y-57904600D02*
X30238095Y-57856980D01*
X30238095Y-57856980D02*
X30238095Y-57952219D01*
X31238094Y-57952219D02*
X30666666Y-57952219D01*
X30952380Y-57952219D02*
X30952380Y-56952219D01*
X30952380Y-56952219D02*
X30857142Y-57095076D01*
X30857142Y-57095076D02*
X30761904Y-57190314D01*
X30761904Y-57190314D02*
X30666666Y-57237933D01*
X31571428Y-57952219D02*
X32095237Y-57285552D01*
X31571428Y-57285552D02*
X32095237Y-57952219D01*
X32952380Y-56952219D02*
X32476190Y-56952219D01*
X32476190Y-56952219D02*
X32428571Y-57428409D01*
X32428571Y-57428409D02*
X32476190Y-57380790D01*
X32476190Y-57380790D02*
X32571428Y-57333171D01*
X32571428Y-57333171D02*
X32809523Y-57333171D01*
X32809523Y-57333171D02*
X32904761Y-57380790D01*
X32904761Y-57380790D02*
X32952380Y-57428409D01*
X32952380Y-57428409D02*
X32999999Y-57523647D01*
X32999999Y-57523647D02*
X32999999Y-57761742D01*
X32999999Y-57761742D02*
X32952380Y-57856980D01*
X32952380Y-57856980D02*
X32904761Y-57904600D01*
X32904761Y-57904600D02*
X32809523Y-57952219D01*
X32809523Y-57952219D02*
X32571428Y-57952219D01*
X32571428Y-57952219D02*
X32476190Y-57904600D01*
X32476190Y-57904600D02*
X32428571Y-57856980D01*
X33428571Y-57856980D02*
X33476190Y-57904600D01*
X33476190Y-57904600D02*
X33428571Y-57952219D01*
X33428571Y-57952219D02*
X33380952Y-57904600D01*
X33380952Y-57904600D02*
X33428571Y-57856980D01*
X33428571Y-57856980D02*
X33428571Y-57952219D01*
X34428570Y-57952219D02*
X33857142Y-57952219D01*
X34142856Y-57952219D02*
X34142856Y-56952219D01*
X34142856Y-56952219D02*
X34047618Y-57095076D01*
X34047618Y-57095076D02*
X33952380Y-57190314D01*
X33952380Y-57190314D02*
X33857142Y-57237933D01*
X140190476Y-59904600D02*
X140333333Y-59952219D01*
X140333333Y-59952219D02*
X140571428Y-59952219D01*
X140571428Y-59952219D02*
X140666666Y-59904600D01*
X140666666Y-59904600D02*
X140714285Y-59856980D01*
X140714285Y-59856980D02*
X140761904Y-59761742D01*
X140761904Y-59761742D02*
X140761904Y-59666504D01*
X140761904Y-59666504D02*
X140714285Y-59571266D01*
X140714285Y-59571266D02*
X140666666Y-59523647D01*
X140666666Y-59523647D02*
X140571428Y-59476028D01*
X140571428Y-59476028D02*
X140380952Y-59428409D01*
X140380952Y-59428409D02*
X140285714Y-59380790D01*
X140285714Y-59380790D02*
X140238095Y-59333171D01*
X140238095Y-59333171D02*
X140190476Y-59237933D01*
X140190476Y-59237933D02*
X140190476Y-59142695D01*
X140190476Y-59142695D02*
X140238095Y-59047457D01*
X140238095Y-59047457D02*
X140285714Y-58999838D01*
X140285714Y-58999838D02*
X140380952Y-58952219D01*
X140380952Y-58952219D02*
X140619047Y-58952219D01*
X140619047Y-58952219D02*
X140761904Y-58999838D01*
X141095238Y-58952219D02*
X141333333Y-59952219D01*
X141333333Y-59952219D02*
X141523809Y-59237933D01*
X141523809Y-59237933D02*
X141714285Y-59952219D01*
X141714285Y-59952219D02*
X141952381Y-58952219D01*
X142857142Y-59952219D02*
X142285714Y-59952219D01*
X142571428Y-59952219D02*
X142571428Y-58952219D01*
X142571428Y-58952219D02*
X142476190Y-59095076D01*
X142476190Y-59095076D02*
X142380952Y-59190314D01*
X142380952Y-59190314D02*
X142285714Y-59237933D01*
X143190476Y-58952219D02*
X143809523Y-58952219D01*
X143809523Y-58952219D02*
X143476190Y-59333171D01*
X143476190Y-59333171D02*
X143619047Y-59333171D01*
X143619047Y-59333171D02*
X143714285Y-59380790D01*
X143714285Y-59380790D02*
X143761904Y-59428409D01*
X143761904Y-59428409D02*
X143809523Y-59523647D01*
X143809523Y-59523647D02*
X143809523Y-59761742D01*
X143809523Y-59761742D02*
X143761904Y-59856980D01*
X143761904Y-59856980D02*
X143714285Y-59904600D01*
X143714285Y-59904600D02*
X143619047Y-59952219D01*
X143619047Y-59952219D02*
X143333333Y-59952219D01*
X143333333Y-59952219D02*
X143238095Y-59904600D01*
X143238095Y-59904600D02*
X143190476Y-59856980D01*
X135571429Y-65904600D02*
X135714286Y-65952219D01*
X135714286Y-65952219D02*
X135952381Y-65952219D01*
X135952381Y-65952219D02*
X136047619Y-65904600D01*
X136047619Y-65904600D02*
X136095238Y-65856980D01*
X136095238Y-65856980D02*
X136142857Y-65761742D01*
X136142857Y-65761742D02*
X136142857Y-65666504D01*
X136142857Y-65666504D02*
X136095238Y-65571266D01*
X136095238Y-65571266D02*
X136047619Y-65523647D01*
X136047619Y-65523647D02*
X135952381Y-65476028D01*
X135952381Y-65476028D02*
X135761905Y-65428409D01*
X135761905Y-65428409D02*
X135666667Y-65380790D01*
X135666667Y-65380790D02*
X135619048Y-65333171D01*
X135619048Y-65333171D02*
X135571429Y-65237933D01*
X135571429Y-65237933D02*
X135571429Y-65142695D01*
X135571429Y-65142695D02*
X135619048Y-65047457D01*
X135619048Y-65047457D02*
X135666667Y-64999838D01*
X135666667Y-64999838D02*
X135761905Y-64952219D01*
X135761905Y-64952219D02*
X136000000Y-64952219D01*
X136000000Y-64952219D02*
X136142857Y-64999838D01*
X136476191Y-64952219D02*
X136714286Y-65952219D01*
X136714286Y-65952219D02*
X136904762Y-65237933D01*
X136904762Y-65237933D02*
X137095238Y-65952219D01*
X137095238Y-65952219D02*
X137333334Y-64952219D01*
X137714286Y-65571266D02*
X138476191Y-65571266D01*
X138904762Y-65904600D02*
X139047619Y-65952219D01*
X139047619Y-65952219D02*
X139285714Y-65952219D01*
X139285714Y-65952219D02*
X139380952Y-65904600D01*
X139380952Y-65904600D02*
X139428571Y-65856980D01*
X139428571Y-65856980D02*
X139476190Y-65761742D01*
X139476190Y-65761742D02*
X139476190Y-65666504D01*
X139476190Y-65666504D02*
X139428571Y-65571266D01*
X139428571Y-65571266D02*
X139380952Y-65523647D01*
X139380952Y-65523647D02*
X139285714Y-65476028D01*
X139285714Y-65476028D02*
X139095238Y-65428409D01*
X139095238Y-65428409D02*
X139000000Y-65380790D01*
X139000000Y-65380790D02*
X138952381Y-65333171D01*
X138952381Y-65333171D02*
X138904762Y-65237933D01*
X138904762Y-65237933D02*
X138904762Y-65142695D01*
X138904762Y-65142695D02*
X138952381Y-65047457D01*
X138952381Y-65047457D02*
X139000000Y-64999838D01*
X139000000Y-64999838D02*
X139095238Y-64952219D01*
X139095238Y-64952219D02*
X139333333Y-64952219D01*
X139333333Y-64952219D02*
X139476190Y-64999838D01*
X139904762Y-65952219D02*
X139904762Y-64952219D01*
X139904762Y-64952219D02*
X140238095Y-65666504D01*
X140238095Y-65666504D02*
X140571428Y-64952219D01*
X140571428Y-64952219D02*
X140571428Y-65952219D01*
X141047619Y-65952219D02*
X141047619Y-64952219D01*
X141047619Y-64952219D02*
X141285714Y-64952219D01*
X141285714Y-64952219D02*
X141428571Y-64999838D01*
X141428571Y-64999838D02*
X141523809Y-65095076D01*
X141523809Y-65095076D02*
X141571428Y-65190314D01*
X141571428Y-65190314D02*
X141619047Y-65380790D01*
X141619047Y-65380790D02*
X141619047Y-65523647D01*
X141619047Y-65523647D02*
X141571428Y-65714123D01*
X141571428Y-65714123D02*
X141523809Y-65809361D01*
X141523809Y-65809361D02*
X141428571Y-65904600D01*
X141428571Y-65904600D02*
X141285714Y-65952219D01*
X141285714Y-65952219D02*
X141047619Y-65952219D01*
X142047619Y-65571266D02*
X142809524Y-65571266D01*
X143761904Y-64952219D02*
X143285714Y-64952219D01*
X143285714Y-64952219D02*
X143238095Y-65428409D01*
X143238095Y-65428409D02*
X143285714Y-65380790D01*
X143285714Y-65380790D02*
X143380952Y-65333171D01*
X143380952Y-65333171D02*
X143619047Y-65333171D01*
X143619047Y-65333171D02*
X143714285Y-65380790D01*
X143714285Y-65380790D02*
X143761904Y-65428409D01*
X143761904Y-65428409D02*
X143809523Y-65523647D01*
X143809523Y-65523647D02*
X143809523Y-65761742D01*
X143809523Y-65761742D02*
X143761904Y-65856980D01*
X143761904Y-65856980D02*
X143714285Y-65904600D01*
X143714285Y-65904600D02*
X143619047Y-65952219D01*
X143619047Y-65952219D02*
X143380952Y-65952219D01*
X143380952Y-65952219D02*
X143285714Y-65904600D01*
X143285714Y-65904600D02*
X143238095Y-65856980D01*
X144238095Y-65856980D02*
X144285714Y-65904600D01*
X144285714Y-65904600D02*
X144238095Y-65952219D01*
X144238095Y-65952219D02*
X144190476Y-65904600D01*
X144190476Y-65904600D02*
X144238095Y-65856980D01*
X144238095Y-65856980D02*
X144238095Y-65952219D01*
X145238094Y-65952219D02*
X144666666Y-65952219D01*
X144952380Y-65952219D02*
X144952380Y-64952219D01*
X144952380Y-64952219D02*
X144857142Y-65095076D01*
X144857142Y-65095076D02*
X144761904Y-65190314D01*
X144761904Y-65190314D02*
X144666666Y-65237933D01*
X145571428Y-65952219D02*
X146095237Y-65285552D01*
X145571428Y-65285552D02*
X146095237Y-65952219D01*
X146952380Y-64952219D02*
X146476190Y-64952219D01*
X146476190Y-64952219D02*
X146428571Y-65428409D01*
X146428571Y-65428409D02*
X146476190Y-65380790D01*
X146476190Y-65380790D02*
X146571428Y-65333171D01*
X146571428Y-65333171D02*
X146809523Y-65333171D01*
X146809523Y-65333171D02*
X146904761Y-65380790D01*
X146904761Y-65380790D02*
X146952380Y-65428409D01*
X146952380Y-65428409D02*
X146999999Y-65523647D01*
X146999999Y-65523647D02*
X146999999Y-65761742D01*
X146999999Y-65761742D02*
X146952380Y-65856980D01*
X146952380Y-65856980D02*
X146904761Y-65904600D01*
X146904761Y-65904600D02*
X146809523Y-65952219D01*
X146809523Y-65952219D02*
X146571428Y-65952219D01*
X146571428Y-65952219D02*
X146476190Y-65904600D01*
X146476190Y-65904600D02*
X146428571Y-65856980D01*
X147428571Y-65856980D02*
X147476190Y-65904600D01*
X147476190Y-65904600D02*
X147428571Y-65952219D01*
X147428571Y-65952219D02*
X147380952Y-65904600D01*
X147380952Y-65904600D02*
X147428571Y-65856980D01*
X147428571Y-65856980D02*
X147428571Y-65952219D01*
X148428570Y-65952219D02*
X147857142Y-65952219D01*
X148142856Y-65952219D02*
X148142856Y-64952219D01*
X148142856Y-64952219D02*
X148047618Y-65095076D01*
X148047618Y-65095076D02*
X147952380Y-65190314D01*
X147952380Y-65190314D02*
X147857142Y-65237933D01*
M02*
