M48
; DRILL file {KiCad 9.0.7-9.0.7~ubuntu24.04.1} date 2026-02-12T11:00:31+0100
; FORMAT={-:-/ absolute / metric / decimal}
; #@! TF.CreationDate,2026-02-12T11:00:31+01:00
; #@! TF.GenerationSoftware,Kicad,Pcbnew,9.0.7-9.0.7~ubuntu24.04.1
; #@! TF.FileFunction,MixedPlating,1,4
FMAT,2
METRIC
; #@! TA.AperFunction,Plated,PTH,ViaDrill
T1C0.300
; #@! TA.AperFunction,Plated,PTH,ComponentDrill
T2C0.650
; #@! TA.AperFunction,Plated,PTH,ComponentDrill
T3C0.750
; #@! TA.AperFunction,Plated,PTH,ComponentDrill
T4C0.800
; #@! TA.AperFunction,Plated,PTH,ComponentDrill
T5C2.500
%
G90
G05
T1
X12.0Y-54.5
X13.0Y-32.5
X22.0Y-23.5
X22.0Y-41.5
X24.0Y-65.5
X26.0Y-65.5
X31.0Y-32.5
X31.0Y-65.5
X32.0Y-54.5
X33.0Y-65.5
X129.6Y-32.5
X138.0Y-22.5
X138.0Y-42.5
X142.0Y-58.5
X148.0Y-32.5
T2
X75.68Y-70.5
X75.68Y-73.5
X84.32Y-70.5
X84.32Y-73.5
T3
X79.0Y-52.5
X81.0Y-52.5
T4
X5.5Y-22.5
X8.0Y-22.5
X10.5Y-22.5
T5
X10.0Y-7.0
X10.0Y-68.0
X55.0Y-37.5
X105.0Y-37.5
X150.0Y-7.0
X150.0Y-68.0
M30
