M48
; DRILL file KiCad 10.0.0 date 2026-04-12T01:06:53
; FORMAT={-:-/ absolute / metric / decimal}
; #@! TF.CreationDate,2026-04-12T01:06:53+02:00
; #@! TF.GenerationSoftware,Kicad,Pcbnew,10.0.0
; #@! TF.FileFunction,MixedPlating,1,4
FMAT,2
METRIC
; #@! TA.AperFunction,Plated,PTH,ViaDrill
T1C0.200
; #@! TA.AperFunction,Plated,PTH,ViaDrill
T2C0.350
; #@! TA.AperFunction,Plated,PTH,ComponentDrill
T3C0.600
; #@! TA.AperFunction,NonPlated,NPTH,ComponentDrill
T4C0.700
; #@! TA.AperFunction,NonPlated,NPTH,ComponentDrill
T5C0.900
; #@! TA.AperFunction,NonPlated,NPTH,ComponentDrill
T6C1.000
; #@! TA.AperFunction,NonPlated,NPTH,ComponentDrill
T7C2.500
%
G90
G05
T1
X6.5Y-56.85
X7.5Y-34.85
X12.2Y-52.65
X12.2Y-73.955
X13.2Y-30.65
X13.2Y-64.4
X14.65Y-8.5
X16.0Y-25.85
X16.0Y-43.85
X16.85Y-7.5
X16.85Y-9.5
X16.85Y-73.42
X20.5Y-23.7
X22.2Y-21.65
X22.2Y-62.0
X22.95Y-39.65
X22.95Y-63.2
X23.35Y-67.5
X24.05Y-63.8
X24.5Y-21.5
X25.5Y-34.85
X26.5Y-27.0
X26.5Y-29.5
X26.5Y-32.0
X26.5Y-56.85
X26.825Y-24.8
X26.825Y-34.3
X27.45Y-43.9
X27.45Y-71.55
X28.095Y-23.7
X28.095Y-25.5
X28.095Y-28.1
X29.365Y-20.55
X29.365Y-28.7
X30.35Y-67.5
X31.05Y-63.8
X31.5Y-38.95
X31.905Y-25.8
X31.905Y-28.8
X31.905Y-34.3
X33.175Y-18.0
X33.175Y-32.2
X34.3Y-42.7
X34.3Y-70.8
X35.2Y-30.65
X35.2Y-65.6
X35.95Y-52.65
X35.95Y-74.46
X37.05Y-32.5
X38.0Y-25.8
X38.0Y-30.95
X38.85Y-24.5
X38.85Y-25.0
X38.85Y-34.0
X40.0Y-21.5
X41.8Y-44.5
X41.8Y-52.0
X43.95Y-57.0
X45.55Y-41.5
X45.55Y-68.0
X46.8Y-44.5
X46.8Y-52.0
X48.95Y-56.0
X51.8Y-44.5
X51.8Y-52.0
X53.1Y-23.51
X53.1Y-55.0
X53.1Y-66.8
X53.95Y-55.5
X56.8Y-44.5
X56.8Y-52.0
X58.1Y-24.78
X58.1Y-56.5
X58.1Y-65.6
X58.95Y-56.5
X60.45Y-45.1
X60.45Y-58.0
X60.45Y-74.46
X61.8Y-44.5
X61.8Y-52.0
X63.1Y-28.59
X63.1Y-55.5
X63.1Y-64.4
X63.95Y-55.0
X64.75Y-40.0
X64.75Y-57.5
X64.75Y-73.42
X65.55Y-29.86
X65.55Y-56.0
X65.55Y-63.2
X66.8Y-44.5
X66.8Y-52.0
X67.83Y-31.13
X67.83Y-57.0
X67.83Y-62.0
X68.6Y-40.0
X69.25Y-23.51
X69.25Y-24.78
X69.25Y-28.59
X69.25Y-29.86
X69.25Y-31.13
X69.55Y-41.5
X70.5Y-44.5
X71.8Y-47.5
X71.8Y-52.0
X72.2Y-26.05
X72.2Y-27.32
X72.2Y-32.4
X72.2Y-33.67
X73.015Y-40.0
X73.03Y-45.1
X73.05Y-65.5
X73.25Y-41.5
X73.555Y-42.7
X74.825Y-43.9
X74.95Y-67.4
X75.0Y-1.5
X75.0Y-27.32
X76.0Y-2.2
X76.0Y-26.05
X76.2Y-48.0
X76.2Y-65.29
X76.8Y-66.2
X76.95Y-44.5
X76.95Y-52.0
X77.0Y-2.9
X77.0Y-33.67
X77.05Y-63.8
X78.0Y-3.6
X78.0Y-32.4
X78.095Y-36.845
X78.95Y-43.0
X79.365Y-34.305
X79.75Y-64.575
X80.01Y-46.135
X80.2Y-35.0
X80.2Y-36.0
X80.6Y-65.925
X80.635Y-38.115
X81.0Y-35.5
X81.25Y-67.4
X81.8Y-44.5
X81.905Y-32.36
X82.2Y-52.0
X83.175Y-32.36
X83.95Y-43.0
X84.445Y-33.035
X85.715Y-35.575
X86.0Y-23.55
X86.0Y-28.45
X86.0Y-69.0
X86.8Y-44.5
X86.8Y-52.0
X87.7Y-18.0
X87.985Y-48.0
X88.0Y-69.0
X88.75Y-23.7
X88.95Y-58.0
X90.25Y-65.925
X90.75Y-26.05
X90.75Y-27.32
X90.75Y-28.59
X90.75Y-29.86
X90.75Y-34.94
X90.75Y-36.21
X90.95Y-59.3
X90.95Y-61.9
X91.05Y-40.0
X91.5Y-18.55
X91.5Y-23.45
X91.65Y-62.8
X92.0Y-69.35
X92.2Y-52.0
X92.95Y-40.6
X93.95Y-57.5
X96.8Y-44.5
X96.8Y-52.0
X98.0Y-60.0
X98.0Y-69.35
X98.95Y-47.0
X99.5Y-36.21
X100.45Y-34.94
X100.45Y-43.0
X100.45Y-73.955
X101.03Y-38.115
X101.6Y-36.845
X102.0Y-60.0
X102.0Y-69.35
X102.35Y-35.575
X107.65Y-35.575
X107.8Y-46.1
X108.0Y-69.35
X108.27Y-36.845
X108.5Y-45.0
X108.5Y-59.5
X108.95Y-40.5
X109.05Y-37.7
X109.3Y-44.5
X110.0Y-38.115
X110.0Y-45.0
X111.8Y-36.21
X111.9Y-16.0
X111.9Y-20.5
X113.0Y-15.0
X113.0Y-21.5
X113.0Y-56.5
X113.45Y-47.8
X114.1Y-14.0
X114.1Y-33.035
X114.65Y-47.8
X115.05Y-51.0
X115.2Y-13.0
X115.2Y-36.21
X116.3Y-12.0
X116.3Y-29.86
X117.4Y-11.0
X117.4Y-28.59
X118.5Y-10.0
X118.5Y-27.32
X119.05Y-59.0
X119.6Y-9.0
X119.6Y-26.05
X120.7Y-8.0
X120.7Y-34.305
X120.95Y-59.0
X121.8Y-7.0
X121.8Y-35.575
X122.9Y-6.0
X122.9Y-36.845
X123.5Y-64.5
X124.0Y-5.0
X124.0Y-38.115
X124.5Y-51.85
X124.5Y-52.85
X125.5Y-51.85
X125.5Y-52.85
X128.3Y-61.0
X128.3Y-64.0
X129.24Y-30.65
X129.24Y-71.55
X129.74Y-72.276
X129.83Y-40.65
X129.83Y-70.8
X130.42Y-20.65
X130.42Y-66.8
X131.0Y-15.0
X131.0Y-37.75
X131.0Y-39.75
X131.24Y-72.276
X131.7Y-16.0
X132.0Y-50.25
X132.5Y-29.25
X132.6Y-43.75
X133.6Y-25.5
X133.6Y-26.4
X133.6Y-27.4
X133.6Y-28.25
X134.5Y-14.0
X135.0Y-61.55
X135.2Y-13.0
X135.2Y-22.48
X135.2Y-25.52
X135.9Y-12.0
X135.9Y-22.48
X135.9Y-25.52
X136.6Y-11.0
X136.6Y-22.48
X136.6Y-25.52
X137.3Y-10.0
X137.3Y-22.48
X137.3Y-25.52
X138.0Y-9.0
X138.7Y-8.0
X138.86Y-71.25
X139.4Y-7.0
X139.96Y-66.0
X140.0Y-49.0
X140.1Y-6.0
X140.8Y-5.0
X141.06Y-61.724
X141.5Y-1.5
X141.5Y-66.0
X142.16Y-70.5
X142.8Y-30.65
X142.8Y-68.0
X143.26Y-61.724
X143.5Y-24.85
X143.5Y-43.75
X143.5Y-44.85
X143.5Y-50.25
X144.36Y-67.5
X144.65Y-8.5
X145.6Y-2.2
X145.6Y-67.5
X146.85Y-7.5
X146.85Y-9.5
X146.85Y-65.29
X148.0Y-66.5
X148.76Y-62.574
X152.5Y-2.9
X152.5Y-70.5
X153.5Y-3.6
X153.5Y-71.25
X154.08Y-34.85
X155.05Y-51.1
X156.0Y-51.4
X156.95Y-56.1
T2
X25.95Y-66.25
X32.95Y-66.25
X38.0Y-46.135
X39.25Y-68.3
X81.0Y-59.0
X82.4Y-61.0
X105.5Y-46.135
X107.5Y-39.095
X111.0Y-40.095
X115.25Y-54.5
X122.7Y-56.65
X125.0Y-49.35
X127.3Y-60.65
T3
X75.675Y-69.375
X75.675Y-73.575
X84.325Y-69.375
X84.325Y-73.575
T4
X77.11Y-69.895
X82.89Y-69.895
T5
X38.5Y-72.55
X41.5Y-72.55
T6
X136.95Y-72.566
X144.95Y-72.566
T7
X10.0Y-7.0
X10.0Y-68.0
X55.0Y-37.5
X105.0Y-37.5
X150.0Y-7.0
X150.0Y-68.0
M30
