%TF.GenerationSoftware,KiCad,Pcbnew,9.0.7*%
%TF.CreationDate,2026-02-26T14:37:55+01:00*%
%TF.ProjectId,esp32-emu-turbo,65737033-322d-4656-9d75-2d747572626f,rev?*%
%TF.SameCoordinates,Original*%
%TF.FileFunction,Legend,Bot*%
%TF.FilePolarity,Positive*%
%FSLAX46Y46*%
G04 Gerber Fmt 4.6, Leading zero omitted, Abs format (unit mm)*
G04 Created by KiCad (PCBNEW 9.0.7) date 2026-02-26 14:37:55*
%MOMM*%
%LPD*%
G01*
G04 APERTURE LIST*
%ADD10C,0.200000*%
%ADD11C,0.175000*%
G04 APERTURE END LIST*
D10*
X83714285Y-11428409D02*
X83380952Y-11428409D01*
X83238095Y-11952219D02*
X83714285Y-11952219D01*
X83714285Y-11952219D02*
X83714285Y-10952219D01*
X83714285Y-10952219D02*
X83238095Y-10952219D01*
X82857142Y-11904600D02*
X82714285Y-11952219D01*
X82714285Y-11952219D02*
X82476190Y-11952219D01*
X82476190Y-11952219D02*
X82380952Y-11904600D01*
X82380952Y-11904600D02*
X82333333Y-11856980D01*
X82333333Y-11856980D02*
X82285714Y-11761742D01*
X82285714Y-11761742D02*
X82285714Y-11666504D01*
X82285714Y-11666504D02*
X82333333Y-11571266D01*
X82333333Y-11571266D02*
X82380952Y-11523647D01*
X82380952Y-11523647D02*
X82476190Y-11476028D01*
X82476190Y-11476028D02*
X82666666Y-11428409D01*
X82666666Y-11428409D02*
X82761904Y-11380790D01*
X82761904Y-11380790D02*
X82809523Y-11333171D01*
X82809523Y-11333171D02*
X82857142Y-11237933D01*
X82857142Y-11237933D02*
X82857142Y-11142695D01*
X82857142Y-11142695D02*
X82809523Y-11047457D01*
X82809523Y-11047457D02*
X82761904Y-10999838D01*
X82761904Y-10999838D02*
X82666666Y-10952219D01*
X82666666Y-10952219D02*
X82428571Y-10952219D01*
X82428571Y-10952219D02*
X82285714Y-10999838D01*
X81857142Y-11952219D02*
X81857142Y-10952219D01*
X81857142Y-10952219D02*
X81476190Y-10952219D01*
X81476190Y-10952219D02*
X81380952Y-10999838D01*
X81380952Y-10999838D02*
X81333333Y-11047457D01*
X81333333Y-11047457D02*
X81285714Y-11142695D01*
X81285714Y-11142695D02*
X81285714Y-11285552D01*
X81285714Y-11285552D02*
X81333333Y-11380790D01*
X81333333Y-11380790D02*
X81380952Y-11428409D01*
X81380952Y-11428409D02*
X81476190Y-11476028D01*
X81476190Y-11476028D02*
X81857142Y-11476028D01*
X80952380Y-10952219D02*
X80333333Y-10952219D01*
X80333333Y-10952219D02*
X80666666Y-11333171D01*
X80666666Y-11333171D02*
X80523809Y-11333171D01*
X80523809Y-11333171D02*
X80428571Y-11380790D01*
X80428571Y-11380790D02*
X80380952Y-11428409D01*
X80380952Y-11428409D02*
X80333333Y-11523647D01*
X80333333Y-11523647D02*
X80333333Y-11761742D01*
X80333333Y-11761742D02*
X80380952Y-11856980D01*
X80380952Y-11856980D02*
X80428571Y-11904600D01*
X80428571Y-11904600D02*
X80523809Y-11952219D01*
X80523809Y-11952219D02*
X80809523Y-11952219D01*
X80809523Y-11952219D02*
X80904761Y-11904600D01*
X80904761Y-11904600D02*
X80952380Y-11856980D01*
X79952380Y-11047457D02*
X79904761Y-10999838D01*
X79904761Y-10999838D02*
X79809523Y-10952219D01*
X79809523Y-10952219D02*
X79571428Y-10952219D01*
X79571428Y-10952219D02*
X79476190Y-10999838D01*
X79476190Y-10999838D02*
X79428571Y-11047457D01*
X79428571Y-11047457D02*
X79380952Y-11142695D01*
X79380952Y-11142695D02*
X79380952Y-11237933D01*
X79380952Y-11237933D02*
X79428571Y-11380790D01*
X79428571Y-11380790D02*
X79999999Y-11952219D01*
X79999999Y-11952219D02*
X79380952Y-11952219D01*
X78952380Y-11571266D02*
X78190476Y-11571266D01*
X77761904Y-11904600D02*
X77619047Y-11952219D01*
X77619047Y-11952219D02*
X77380952Y-11952219D01*
X77380952Y-11952219D02*
X77285714Y-11904600D01*
X77285714Y-11904600D02*
X77238095Y-11856980D01*
X77238095Y-11856980D02*
X77190476Y-11761742D01*
X77190476Y-11761742D02*
X77190476Y-11666504D01*
X77190476Y-11666504D02*
X77238095Y-11571266D01*
X77238095Y-11571266D02*
X77285714Y-11523647D01*
X77285714Y-11523647D02*
X77380952Y-11476028D01*
X77380952Y-11476028D02*
X77571428Y-11428409D01*
X77571428Y-11428409D02*
X77666666Y-11380790D01*
X77666666Y-11380790D02*
X77714285Y-11333171D01*
X77714285Y-11333171D02*
X77761904Y-11237933D01*
X77761904Y-11237933D02*
X77761904Y-11142695D01*
X77761904Y-11142695D02*
X77714285Y-11047457D01*
X77714285Y-11047457D02*
X77666666Y-10999838D01*
X77666666Y-10999838D02*
X77571428Y-10952219D01*
X77571428Y-10952219D02*
X77333333Y-10952219D01*
X77333333Y-10952219D02*
X77190476Y-10999838D01*
X76857142Y-10952219D02*
X76238095Y-10952219D01*
X76238095Y-10952219D02*
X76571428Y-11333171D01*
X76571428Y-11333171D02*
X76428571Y-11333171D01*
X76428571Y-11333171D02*
X76333333Y-11380790D01*
X76333333Y-11380790D02*
X76285714Y-11428409D01*
X76285714Y-11428409D02*
X76238095Y-11523647D01*
X76238095Y-11523647D02*
X76238095Y-11761742D01*
X76238095Y-11761742D02*
X76285714Y-11856980D01*
X76285714Y-11856980D02*
X76333333Y-11904600D01*
X76333333Y-11904600D02*
X76428571Y-11952219D01*
X76428571Y-11952219D02*
X76714285Y-11952219D01*
X76714285Y-11952219D02*
X76809523Y-11904600D01*
X76809523Y-11904600D02*
X76857142Y-11856980D01*
X111923809Y-32859695D02*
X111923809Y-32059695D01*
X111542857Y-32859695D02*
X111542857Y-32059695D01*
X111542857Y-32059695D02*
X111238095Y-32059695D01*
X111238095Y-32059695D02*
X111161905Y-32097790D01*
X111161905Y-32097790D02*
X111123810Y-32135885D01*
X111123810Y-32135885D02*
X111085714Y-32212076D01*
X111085714Y-32212076D02*
X111085714Y-32326361D01*
X111085714Y-32326361D02*
X111123810Y-32402552D01*
X111123810Y-32402552D02*
X111161905Y-32440647D01*
X111161905Y-32440647D02*
X111238095Y-32478742D01*
X111238095Y-32478742D02*
X111542857Y-32478742D01*
X110361905Y-32059695D02*
X110742857Y-32059695D01*
X110742857Y-32059695D02*
X110780953Y-32440647D01*
X110780953Y-32440647D02*
X110742857Y-32402552D01*
X110742857Y-32402552D02*
X110666667Y-32364457D01*
X110666667Y-32364457D02*
X110476191Y-32364457D01*
X110476191Y-32364457D02*
X110400000Y-32402552D01*
X110400000Y-32402552D02*
X110361905Y-32440647D01*
X110361905Y-32440647D02*
X110323810Y-32516838D01*
X110323810Y-32516838D02*
X110323810Y-32707314D01*
X110323810Y-32707314D02*
X110361905Y-32783504D01*
X110361905Y-32783504D02*
X110400000Y-32821600D01*
X110400000Y-32821600D02*
X110476191Y-32859695D01*
X110476191Y-32859695D02*
X110666667Y-32859695D01*
X110666667Y-32859695D02*
X110742857Y-32821600D01*
X110742857Y-32821600D02*
X110780953Y-32783504D01*
X110057143Y-32059695D02*
X109561905Y-32059695D01*
X109561905Y-32059695D02*
X109828571Y-32364457D01*
X109828571Y-32364457D02*
X109714286Y-32364457D01*
X109714286Y-32364457D02*
X109638095Y-32402552D01*
X109638095Y-32402552D02*
X109600000Y-32440647D01*
X109600000Y-32440647D02*
X109561905Y-32516838D01*
X109561905Y-32516838D02*
X109561905Y-32707314D01*
X109561905Y-32707314D02*
X109600000Y-32783504D01*
X109600000Y-32783504D02*
X109638095Y-32821600D01*
X109638095Y-32821600D02*
X109714286Y-32859695D01*
X109714286Y-32859695D02*
X109942857Y-32859695D01*
X109942857Y-32859695D02*
X110019048Y-32821600D01*
X110019048Y-32821600D02*
X110057143Y-32783504D01*
X109066666Y-32059695D02*
X108990476Y-32059695D01*
X108990476Y-32059695D02*
X108914285Y-32097790D01*
X108914285Y-32097790D02*
X108876190Y-32135885D01*
X108876190Y-32135885D02*
X108838095Y-32212076D01*
X108838095Y-32212076D02*
X108800000Y-32364457D01*
X108800000Y-32364457D02*
X108800000Y-32554933D01*
X108800000Y-32554933D02*
X108838095Y-32707314D01*
X108838095Y-32707314D02*
X108876190Y-32783504D01*
X108876190Y-32783504D02*
X108914285Y-32821600D01*
X108914285Y-32821600D02*
X108990476Y-32859695D01*
X108990476Y-32859695D02*
X109066666Y-32859695D01*
X109066666Y-32859695D02*
X109142857Y-32821600D01*
X109142857Y-32821600D02*
X109180952Y-32783504D01*
X109180952Y-32783504D02*
X109219047Y-32707314D01*
X109219047Y-32707314D02*
X109257143Y-32554933D01*
X109257143Y-32554933D02*
X109257143Y-32364457D01*
X109257143Y-32364457D02*
X109219047Y-32212076D01*
X109219047Y-32212076D02*
X109180952Y-32135885D01*
X109180952Y-32135885D02*
X109142857Y-32097790D01*
X109142857Y-32097790D02*
X109066666Y-32059695D01*
X108114285Y-32059695D02*
X108266666Y-32059695D01*
X108266666Y-32059695D02*
X108342857Y-32097790D01*
X108342857Y-32097790D02*
X108380952Y-32135885D01*
X108380952Y-32135885D02*
X108457142Y-32250171D01*
X108457142Y-32250171D02*
X108495238Y-32402552D01*
X108495238Y-32402552D02*
X108495238Y-32707314D01*
X108495238Y-32707314D02*
X108457142Y-32783504D01*
X108457142Y-32783504D02*
X108419047Y-32821600D01*
X108419047Y-32821600D02*
X108342857Y-32859695D01*
X108342857Y-32859695D02*
X108190476Y-32859695D01*
X108190476Y-32859695D02*
X108114285Y-32821600D01*
X108114285Y-32821600D02*
X108076190Y-32783504D01*
X108076190Y-32783504D02*
X108038095Y-32707314D01*
X108038095Y-32707314D02*
X108038095Y-32516838D01*
X108038095Y-32516838D02*
X108076190Y-32440647D01*
X108076190Y-32440647D02*
X108114285Y-32402552D01*
X108114285Y-32402552D02*
X108190476Y-32364457D01*
X108190476Y-32364457D02*
X108342857Y-32364457D01*
X108342857Y-32364457D02*
X108419047Y-32402552D01*
X108419047Y-32402552D02*
X108457142Y-32440647D01*
X108457142Y-32440647D02*
X108495238Y-32516838D01*
X127552381Y-47631123D02*
X127171428Y-47631123D01*
X127628571Y-47859695D02*
X127361904Y-47059695D01*
X127361904Y-47059695D02*
X127095238Y-47859695D01*
X126828571Y-47859695D02*
X126828571Y-47059695D01*
X126828571Y-47059695D02*
X126561905Y-47631123D01*
X126561905Y-47631123D02*
X126295238Y-47059695D01*
X126295238Y-47059695D02*
X126295238Y-47859695D01*
X125952381Y-47821600D02*
X125838095Y-47859695D01*
X125838095Y-47859695D02*
X125647619Y-47859695D01*
X125647619Y-47859695D02*
X125571428Y-47821600D01*
X125571428Y-47821600D02*
X125533333Y-47783504D01*
X125533333Y-47783504D02*
X125495238Y-47707314D01*
X125495238Y-47707314D02*
X125495238Y-47631123D01*
X125495238Y-47631123D02*
X125533333Y-47554933D01*
X125533333Y-47554933D02*
X125571428Y-47516838D01*
X125571428Y-47516838D02*
X125647619Y-47478742D01*
X125647619Y-47478742D02*
X125800000Y-47440647D01*
X125800000Y-47440647D02*
X125876190Y-47402552D01*
X125876190Y-47402552D02*
X125914285Y-47364457D01*
X125914285Y-47364457D02*
X125952381Y-47288266D01*
X125952381Y-47288266D02*
X125952381Y-47212076D01*
X125952381Y-47212076D02*
X125914285Y-47135885D01*
X125914285Y-47135885D02*
X125876190Y-47097790D01*
X125876190Y-47097790D02*
X125800000Y-47059695D01*
X125800000Y-47059695D02*
X125609523Y-47059695D01*
X125609523Y-47059695D02*
X125495238Y-47097790D01*
X124733333Y-47859695D02*
X125190476Y-47859695D01*
X124961904Y-47859695D02*
X124961904Y-47059695D01*
X124961904Y-47059695D02*
X125038095Y-47173980D01*
X125038095Y-47173980D02*
X125114285Y-47250171D01*
X125114285Y-47250171D02*
X125190476Y-47288266D01*
X123971428Y-47859695D02*
X124428571Y-47859695D01*
X124199999Y-47859695D02*
X124199999Y-47059695D01*
X124199999Y-47059695D02*
X124276190Y-47173980D01*
X124276190Y-47173980D02*
X124352380Y-47250171D01*
X124352380Y-47250171D02*
X124428571Y-47288266D01*
X123209523Y-47859695D02*
X123666666Y-47859695D01*
X123438094Y-47859695D02*
X123438094Y-47059695D01*
X123438094Y-47059695D02*
X123514285Y-47173980D01*
X123514285Y-47173980D02*
X123590475Y-47250171D01*
X123590475Y-47250171D02*
X123666666Y-47288266D01*
X122942856Y-47059695D02*
X122409522Y-47059695D01*
X122409522Y-47059695D02*
X122752380Y-47859695D01*
X32533333Y-24859695D02*
X32533333Y-24059695D01*
X32533333Y-24059695D02*
X32228571Y-24059695D01*
X32228571Y-24059695D02*
X32152381Y-24097790D01*
X32152381Y-24097790D02*
X32114286Y-24135885D01*
X32114286Y-24135885D02*
X32076190Y-24212076D01*
X32076190Y-24212076D02*
X32076190Y-24326361D01*
X32076190Y-24326361D02*
X32114286Y-24402552D01*
X32114286Y-24402552D02*
X32152381Y-24440647D01*
X32152381Y-24440647D02*
X32228571Y-24478742D01*
X32228571Y-24478742D02*
X32533333Y-24478742D01*
X31771429Y-24631123D02*
X31390476Y-24631123D01*
X31847619Y-24859695D02*
X31580952Y-24059695D01*
X31580952Y-24059695D02*
X31314286Y-24859695D01*
X31047619Y-24859695D02*
X31047619Y-24059695D01*
X31047619Y-24059695D02*
X30780953Y-24631123D01*
X30780953Y-24631123D02*
X30514286Y-24059695D01*
X30514286Y-24059695D02*
X30514286Y-24859695D01*
X30019048Y-24402552D02*
X30095238Y-24364457D01*
X30095238Y-24364457D02*
X30133333Y-24326361D01*
X30133333Y-24326361D02*
X30171429Y-24250171D01*
X30171429Y-24250171D02*
X30171429Y-24212076D01*
X30171429Y-24212076D02*
X30133333Y-24135885D01*
X30133333Y-24135885D02*
X30095238Y-24097790D01*
X30095238Y-24097790D02*
X30019048Y-24059695D01*
X30019048Y-24059695D02*
X29866667Y-24059695D01*
X29866667Y-24059695D02*
X29790476Y-24097790D01*
X29790476Y-24097790D02*
X29752381Y-24135885D01*
X29752381Y-24135885D02*
X29714286Y-24212076D01*
X29714286Y-24212076D02*
X29714286Y-24250171D01*
X29714286Y-24250171D02*
X29752381Y-24326361D01*
X29752381Y-24326361D02*
X29790476Y-24364457D01*
X29790476Y-24364457D02*
X29866667Y-24402552D01*
X29866667Y-24402552D02*
X30019048Y-24402552D01*
X30019048Y-24402552D02*
X30095238Y-24440647D01*
X30095238Y-24440647D02*
X30133333Y-24478742D01*
X30133333Y-24478742D02*
X30171429Y-24554933D01*
X30171429Y-24554933D02*
X30171429Y-24707314D01*
X30171429Y-24707314D02*
X30133333Y-24783504D01*
X30133333Y-24783504D02*
X30095238Y-24821600D01*
X30095238Y-24821600D02*
X30019048Y-24859695D01*
X30019048Y-24859695D02*
X29866667Y-24859695D01*
X29866667Y-24859695D02*
X29790476Y-24821600D01*
X29790476Y-24821600D02*
X29752381Y-24783504D01*
X29752381Y-24783504D02*
X29714286Y-24707314D01*
X29714286Y-24707314D02*
X29714286Y-24554933D01*
X29714286Y-24554933D02*
X29752381Y-24478742D01*
X29752381Y-24478742D02*
X29790476Y-24440647D01*
X29790476Y-24440647D02*
X29866667Y-24402552D01*
X29028571Y-24326361D02*
X29028571Y-24859695D01*
X29219047Y-24021600D02*
X29409524Y-24593028D01*
X29409524Y-24593028D02*
X28914285Y-24593028D01*
X28457142Y-24059695D02*
X28380952Y-24059695D01*
X28380952Y-24059695D02*
X28304761Y-24097790D01*
X28304761Y-24097790D02*
X28266666Y-24135885D01*
X28266666Y-24135885D02*
X28228571Y-24212076D01*
X28228571Y-24212076D02*
X28190476Y-24364457D01*
X28190476Y-24364457D02*
X28190476Y-24554933D01*
X28190476Y-24554933D02*
X28228571Y-24707314D01*
X28228571Y-24707314D02*
X28266666Y-24783504D01*
X28266666Y-24783504D02*
X28304761Y-24821600D01*
X28304761Y-24821600D02*
X28380952Y-24859695D01*
X28380952Y-24859695D02*
X28457142Y-24859695D01*
X28457142Y-24859695D02*
X28533333Y-24821600D01*
X28533333Y-24821600D02*
X28571428Y-24783504D01*
X28571428Y-24783504D02*
X28609523Y-24707314D01*
X28609523Y-24707314D02*
X28647619Y-24554933D01*
X28647619Y-24554933D02*
X28647619Y-24364457D01*
X28647619Y-24364457D02*
X28609523Y-24212076D01*
X28609523Y-24212076D02*
X28571428Y-24135885D01*
X28571428Y-24135885D02*
X28533333Y-24097790D01*
X28533333Y-24097790D02*
X28457142Y-24059695D01*
X27923809Y-24059695D02*
X27428571Y-24059695D01*
X27428571Y-24059695D02*
X27695237Y-24364457D01*
X27695237Y-24364457D02*
X27580952Y-24364457D01*
X27580952Y-24364457D02*
X27504761Y-24402552D01*
X27504761Y-24402552D02*
X27466666Y-24440647D01*
X27466666Y-24440647D02*
X27428571Y-24516838D01*
X27428571Y-24516838D02*
X27428571Y-24707314D01*
X27428571Y-24707314D02*
X27466666Y-24783504D01*
X27466666Y-24783504D02*
X27504761Y-24821600D01*
X27504761Y-24821600D02*
X27580952Y-24859695D01*
X27580952Y-24859695D02*
X27809523Y-24859695D01*
X27809523Y-24859695D02*
X27885714Y-24821600D01*
X27885714Y-24821600D02*
X27923809Y-24783504D01*
X81904761Y-66559695D02*
X81904761Y-67207314D01*
X81904761Y-67207314D02*
X81866666Y-67283504D01*
X81866666Y-67283504D02*
X81828571Y-67321600D01*
X81828571Y-67321600D02*
X81752380Y-67359695D01*
X81752380Y-67359695D02*
X81599999Y-67359695D01*
X81599999Y-67359695D02*
X81523809Y-67321600D01*
X81523809Y-67321600D02*
X81485714Y-67283504D01*
X81485714Y-67283504D02*
X81447618Y-67207314D01*
X81447618Y-67207314D02*
X81447618Y-66559695D01*
X81104762Y-67321600D02*
X80990476Y-67359695D01*
X80990476Y-67359695D02*
X80800000Y-67359695D01*
X80800000Y-67359695D02*
X80723809Y-67321600D01*
X80723809Y-67321600D02*
X80685714Y-67283504D01*
X80685714Y-67283504D02*
X80647619Y-67207314D01*
X80647619Y-67207314D02*
X80647619Y-67131123D01*
X80647619Y-67131123D02*
X80685714Y-67054933D01*
X80685714Y-67054933D02*
X80723809Y-67016838D01*
X80723809Y-67016838D02*
X80800000Y-66978742D01*
X80800000Y-66978742D02*
X80952381Y-66940647D01*
X80952381Y-66940647D02*
X81028571Y-66902552D01*
X81028571Y-66902552D02*
X81066666Y-66864457D01*
X81066666Y-66864457D02*
X81104762Y-66788266D01*
X81104762Y-66788266D02*
X81104762Y-66712076D01*
X81104762Y-66712076D02*
X81066666Y-66635885D01*
X81066666Y-66635885D02*
X81028571Y-66597790D01*
X81028571Y-66597790D02*
X80952381Y-66559695D01*
X80952381Y-66559695D02*
X80761904Y-66559695D01*
X80761904Y-66559695D02*
X80647619Y-66597790D01*
X80038095Y-66940647D02*
X79923809Y-66978742D01*
X79923809Y-66978742D02*
X79885714Y-67016838D01*
X79885714Y-67016838D02*
X79847618Y-67093028D01*
X79847618Y-67093028D02*
X79847618Y-67207314D01*
X79847618Y-67207314D02*
X79885714Y-67283504D01*
X79885714Y-67283504D02*
X79923809Y-67321600D01*
X79923809Y-67321600D02*
X79999999Y-67359695D01*
X79999999Y-67359695D02*
X80304761Y-67359695D01*
X80304761Y-67359695D02*
X80304761Y-66559695D01*
X80304761Y-66559695D02*
X80038095Y-66559695D01*
X80038095Y-66559695D02*
X79961904Y-66597790D01*
X79961904Y-66597790D02*
X79923809Y-66635885D01*
X79923809Y-66635885D02*
X79885714Y-66712076D01*
X79885714Y-66712076D02*
X79885714Y-66788266D01*
X79885714Y-66788266D02*
X79923809Y-66864457D01*
X79923809Y-66864457D02*
X79961904Y-66902552D01*
X79961904Y-66902552D02*
X80038095Y-66940647D01*
X80038095Y-66940647D02*
X80304761Y-66940647D01*
X79504761Y-67054933D02*
X78895238Y-67054933D01*
X78057142Y-67283504D02*
X78095238Y-67321600D01*
X78095238Y-67321600D02*
X78209523Y-67359695D01*
X78209523Y-67359695D02*
X78285714Y-67359695D01*
X78285714Y-67359695D02*
X78400000Y-67321600D01*
X78400000Y-67321600D02*
X78476190Y-67245409D01*
X78476190Y-67245409D02*
X78514285Y-67169219D01*
X78514285Y-67169219D02*
X78552381Y-67016838D01*
X78552381Y-67016838D02*
X78552381Y-66902552D01*
X78552381Y-66902552D02*
X78514285Y-66750171D01*
X78514285Y-66750171D02*
X78476190Y-66673980D01*
X78476190Y-66673980D02*
X78400000Y-66597790D01*
X78400000Y-66597790D02*
X78285714Y-66559695D01*
X78285714Y-66559695D02*
X78209523Y-66559695D01*
X78209523Y-66559695D02*
X78095238Y-66597790D01*
X78095238Y-66597790D02*
X78057142Y-66635885D01*
X140628571Y-62321600D02*
X140514285Y-62359695D01*
X140514285Y-62359695D02*
X140323809Y-62359695D01*
X140323809Y-62359695D02*
X140247618Y-62321600D01*
X140247618Y-62321600D02*
X140209523Y-62283504D01*
X140209523Y-62283504D02*
X140171428Y-62207314D01*
X140171428Y-62207314D02*
X140171428Y-62131123D01*
X140171428Y-62131123D02*
X140209523Y-62054933D01*
X140209523Y-62054933D02*
X140247618Y-62016838D01*
X140247618Y-62016838D02*
X140323809Y-61978742D01*
X140323809Y-61978742D02*
X140476190Y-61940647D01*
X140476190Y-61940647D02*
X140552380Y-61902552D01*
X140552380Y-61902552D02*
X140590475Y-61864457D01*
X140590475Y-61864457D02*
X140628571Y-61788266D01*
X140628571Y-61788266D02*
X140628571Y-61712076D01*
X140628571Y-61712076D02*
X140590475Y-61635885D01*
X140590475Y-61635885D02*
X140552380Y-61597790D01*
X140552380Y-61597790D02*
X140476190Y-61559695D01*
X140476190Y-61559695D02*
X140285713Y-61559695D01*
X140285713Y-61559695D02*
X140171428Y-61597790D01*
X139828570Y-62359695D02*
X139828570Y-61559695D01*
X139828570Y-61559695D02*
X139638094Y-61559695D01*
X139638094Y-61559695D02*
X139523808Y-61597790D01*
X139523808Y-61597790D02*
X139447618Y-61673980D01*
X139447618Y-61673980D02*
X139409523Y-61750171D01*
X139409523Y-61750171D02*
X139371427Y-61902552D01*
X139371427Y-61902552D02*
X139371427Y-62016838D01*
X139371427Y-62016838D02*
X139409523Y-62169219D01*
X139409523Y-62169219D02*
X139447618Y-62245409D01*
X139447618Y-62245409D02*
X139523808Y-62321600D01*
X139523808Y-62321600D02*
X139638094Y-62359695D01*
X139638094Y-62359695D02*
X139828570Y-62359695D01*
D11*
X40933333Y-67314733D02*
X40933333Y-66614733D01*
X40933333Y-66614733D02*
X40666666Y-66614733D01*
X40666666Y-66614733D02*
X40600000Y-66648066D01*
X40600000Y-66648066D02*
X40566666Y-66681400D01*
X40566666Y-66681400D02*
X40533333Y-66748066D01*
X40533333Y-66748066D02*
X40533333Y-66848066D01*
X40533333Y-66848066D02*
X40566666Y-66914733D01*
X40566666Y-66914733D02*
X40600000Y-66948066D01*
X40600000Y-66948066D02*
X40666666Y-66981400D01*
X40666666Y-66981400D02*
X40933333Y-66981400D01*
X40300000Y-66614733D02*
X40133333Y-67314733D01*
X40133333Y-67314733D02*
X40000000Y-66814733D01*
X40000000Y-66814733D02*
X39866666Y-67314733D01*
X39866666Y-67314733D02*
X39700000Y-66614733D01*
X39033333Y-67314733D02*
X39266666Y-66981400D01*
X39433333Y-67314733D02*
X39433333Y-66614733D01*
X39433333Y-66614733D02*
X39166666Y-66614733D01*
X39166666Y-66614733D02*
X39100000Y-66648066D01*
X39100000Y-66648066D02*
X39066666Y-66681400D01*
X39066666Y-66681400D02*
X39033333Y-66748066D01*
X39033333Y-66748066D02*
X39033333Y-66848066D01*
X39033333Y-66848066D02*
X39066666Y-66914733D01*
X39066666Y-66914733D02*
X39100000Y-66948066D01*
X39100000Y-66948066D02*
X39166666Y-66981400D01*
X39166666Y-66981400D02*
X39433333Y-66981400D01*
D10*
X32495238Y-52821600D02*
X32380952Y-52859695D01*
X32380952Y-52859695D02*
X32190476Y-52859695D01*
X32190476Y-52859695D02*
X32114285Y-52821600D01*
X32114285Y-52821600D02*
X32076190Y-52783504D01*
X32076190Y-52783504D02*
X32038095Y-52707314D01*
X32038095Y-52707314D02*
X32038095Y-52631123D01*
X32038095Y-52631123D02*
X32076190Y-52554933D01*
X32076190Y-52554933D02*
X32114285Y-52516838D01*
X32114285Y-52516838D02*
X32190476Y-52478742D01*
X32190476Y-52478742D02*
X32342857Y-52440647D01*
X32342857Y-52440647D02*
X32419047Y-52402552D01*
X32419047Y-52402552D02*
X32457142Y-52364457D01*
X32457142Y-52364457D02*
X32495238Y-52288266D01*
X32495238Y-52288266D02*
X32495238Y-52212076D01*
X32495238Y-52212076D02*
X32457142Y-52135885D01*
X32457142Y-52135885D02*
X32419047Y-52097790D01*
X32419047Y-52097790D02*
X32342857Y-52059695D01*
X32342857Y-52059695D02*
X32152380Y-52059695D01*
X32152380Y-52059695D02*
X32038095Y-52097790D01*
X31695237Y-52859695D02*
X31695237Y-52059695D01*
X31695237Y-52059695D02*
X31390475Y-52059695D01*
X31390475Y-52059695D02*
X31314285Y-52097790D01*
X31314285Y-52097790D02*
X31276190Y-52135885D01*
X31276190Y-52135885D02*
X31238094Y-52212076D01*
X31238094Y-52212076D02*
X31238094Y-52326361D01*
X31238094Y-52326361D02*
X31276190Y-52402552D01*
X31276190Y-52402552D02*
X31314285Y-52440647D01*
X31314285Y-52440647D02*
X31390475Y-52478742D01*
X31390475Y-52478742D02*
X31695237Y-52478742D01*
X30895237Y-52440647D02*
X30628571Y-52440647D01*
X30514285Y-52859695D02*
X30895237Y-52859695D01*
X30895237Y-52859695D02*
X30895237Y-52059695D01*
X30895237Y-52059695D02*
X30514285Y-52059695D01*
X30209523Y-52631123D02*
X29828570Y-52631123D01*
X30285713Y-52859695D02*
X30019046Y-52059695D01*
X30019046Y-52059695D02*
X29752380Y-52859695D01*
X29485713Y-52859695D02*
X29485713Y-52059695D01*
X29028570Y-52859695D02*
X29371428Y-52402552D01*
X29028570Y-52059695D02*
X29485713Y-52516838D01*
X28685713Y-52440647D02*
X28419047Y-52440647D01*
X28304761Y-52859695D02*
X28685713Y-52859695D01*
X28685713Y-52859695D02*
X28685713Y-52059695D01*
X28685713Y-52059695D02*
X28304761Y-52059695D01*
X27504760Y-52859695D02*
X27771427Y-52478742D01*
X27961903Y-52859695D02*
X27961903Y-52059695D01*
X27961903Y-52059695D02*
X27657141Y-52059695D01*
X27657141Y-52059695D02*
X27580951Y-52097790D01*
X27580951Y-52097790D02*
X27542856Y-52135885D01*
X27542856Y-52135885D02*
X27504760Y-52212076D01*
X27504760Y-52212076D02*
X27504760Y-52326361D01*
X27504760Y-52326361D02*
X27542856Y-52402552D01*
X27542856Y-52402552D02*
X27580951Y-52440647D01*
X27580951Y-52440647D02*
X27657141Y-52478742D01*
X27657141Y-52478742D02*
X27961903Y-52478742D01*
D11*
X14783333Y-10814733D02*
X15116666Y-10814733D01*
X15116666Y-10814733D02*
X15116666Y-10114733D01*
X144783333Y-10814733D02*
X145016666Y-10481400D01*
X145183333Y-10814733D02*
X145183333Y-10114733D01*
X145183333Y-10114733D02*
X144916666Y-10114733D01*
X144916666Y-10114733D02*
X144850000Y-10148066D01*
X144850000Y-10148066D02*
X144816666Y-10181400D01*
X144816666Y-10181400D02*
X144783333Y-10248066D01*
X144783333Y-10248066D02*
X144783333Y-10348066D01*
X144783333Y-10348066D02*
X144816666Y-10414733D01*
X144816666Y-10414733D02*
X144850000Y-10448066D01*
X144850000Y-10448066D02*
X144916666Y-10481400D01*
X144916666Y-10481400D02*
X145183333Y-10481400D01*
D10*
%TO.C,U5*%
X24700000Y-26150000D02*
X24700000Y-32850000D01*
X24700000Y-32850000D02*
X35300000Y-32850000D01*
X35300000Y-32850000D02*
X35300000Y-26150000D01*
X35300000Y-26150000D02*
X24700000Y-26150000D01*
X26300000Y-27000000D02*
G75*
G02*
X25700000Y-27000000I-300000J0D01*
G01*
X25700000Y-27000000D02*
G75*
G02*
X26300000Y-27000000I300000J0D01*
G01*
%TD*%
M02*
