solid OpenSCAD_Model
  facet normal -0.6087614290087244 -0.7933533402912323 0
    outer loop
      vertex -76.23743686707645 -18.237436867076458 25.2
      vertex -76.23743686707645 -18.237436867076458 23
      vertex -75.875 -18.515544456622766 23
    endloop
  endfacet
  facet normal -0.793353340291235 -0.6087614290087207 0
    outer loop
      vertex -76.51554445662276 -17.875 25.2
      vertex -76.51554445662276 -17.875 23
      vertex -76.23743686707645 -18.237436867076458 23
    endloop
  endfacet
  facet normal -0.3826834323650966 -0.9238795325112839 0
    outer loop
      vertex -75.875 -18.515544456622766 25.2
      vertex -75.875 -18.515544456622766 23
      vertex -75.45293332892942 -18.69037019600587 23
    endloop
  endfacet
  facet normal -0.13052619222005057 -0.9914448613738106 0
    outer loop
      vertex -75.45293332892942 -18.69037019600587 25.2
      vertex -75.45293332892942 -18.69037019600587 23
      vertex -75 -18.75 23
    endloop
  endfacet
  facet normal -0.9238795325112806 -0.3826834323651044 0
    outer loop
      vertex -76.69037019600587 -17.45293332892941 25.2
      vertex -76.69037019600587 -17.45293332892941 23
      vertex -76.51554445662276 -17.875 23
    endloop
  endfacet
  facet normal -0.9914448613738113 -0.1305261922200449 0
    outer loop
      vertex -76.75 -17 25.2
      vertex -76.75 -17 23
      vertex -76.69037019600587 -17.45293332892941 23
    endloop
  endfacet
  facet normal -0.793353340291235 -0.6087614290087207 0
    outer loop
      vertex -76.23743686707645 -18.237436867076458 25.2
      vertex -76.51554445662276 -17.875 25.2
      vertex -76.23743686707645 -18.237436867076458 23
    endloop
  endfacet
  facet normal -0.6087614290087244 -0.7933533402912323 0
    outer loop
      vertex -75.875 -18.515544456622766 25.2
      vertex -76.23743686707645 -18.237436867076458 25.2
      vertex -75.875 -18.515544456622766 23
    endloop
  endfacet
  facet normal -0.3826834323650966 -0.9238795325112839 0
    outer loop
      vertex -75.875 -18.515544456622766 25.2
      vertex -75.45293332892942 -18.69037019600587 23
      vertex -75.45293332892942 -18.69037019600587 25.2
    endloop
  endfacet
  facet normal -0.9238795325112806 -0.3826834323651044 0
    outer loop
      vertex -76.51554445662276 -17.875 25.2
      vertex -76.69037019600587 -17.45293332892941 25.2
      vertex -76.51554445662276 -17.875 23
    endloop
  endfacet
  facet normal -0.9914448613738113 -0.1305261922200449 0
    outer loop
      vertex -76.69037019600587 -17.45293332892941 25.2
      vertex -76.75 -17 25.2
      vertex -76.69037019600587 -17.45293332892941 23
    endloop
  endfacet
  facet normal 0 0 1
    outer loop
      vertex -76.51554445662276 -17.875 25.2
      vertex -76.51554445662276 -16.125 25.2
      vertex -76.69037019600587 -17.45293332892941 25.2
    endloop
  endfacet
  facet normal 0 0 1
    outer loop
      vertex -76.23743686707645 -18.237436867076458 25.2
      vertex -76.23743686707645 -15.762563132923542 25.2
      vertex -76.51554445662276 -17.875 25.2
    endloop
  endfacet
  facet normal 0 0 1
    outer loop
      vertex -75.875 -18.515544456622766 25.2
      vertex -75.45293332892942 -18.69037019600587 25.2
      vertex -75.45293332892942 -15.309629803994131 25.2
    endloop
  endfacet
  facet normal 0 0 1
    outer loop
      vertex -75.875 -18.515544456622766 25.2
      vertex -75.875 -15.484455543377232 25.2
      vertex -76.23743686707645 -18.237436867076458 25.2
    endloop
  endfacet
  facet normal 0 -1 0
    outer loop
      vertex -75 -18.75 25.2
      vertex -75 -18.75 23
      vertex -69 -18.75 23
    endloop
  endfacet
  facet normal -0.13052619222005057 -0.9914448613738106 0
    outer loop
      vertex -75.45293332892942 -18.69037019600587 25.2
      vertex -75 -18.75 23
      vertex -75 -18.75 25.2
    endloop
  endfacet
  facet normal 0 0 1
    outer loop
      vertex -75.45293332892942 -18.69037019600587 25.2
      vertex -75 -18.75 25.2
      vertex -75 -15.25 25.2
    endloop
  endfacet
  facet normal -0.9914448613738113 0.1305261922200449 0
    outer loop
      vertex -76.69037019600587 -16.54706667107059 25.2
      vertex -76.69037019600587 -16.54706667107059 23
      vertex -76.75 -17 23
    endloop
  endfacet
  facet normal -0.9238795325112806 0.3826834323651044 0
    outer loop
      vertex -76.51554445662276 -16.125 25.2
      vertex -76.51554445662276 -16.125 23
      vertex -76.69037019600587 -16.54706667107059 23
    endloop
  endfacet
  facet normal -0.793353340291235 0.6087614290087207 0
    outer loop
      vertex -76.23743686707645 -15.762563132923542 25.2
      vertex -76.23743686707645 -15.762563132923542 23
      vertex -76.51554445662276 -16.125 23
    endloop
  endfacet
  facet normal -0.6087614290087269 0.7933533402912303 0
    outer loop
      vertex -75.875 -15.484455543377232 25.2
      vertex -75.875 -15.484455543377232 23
      vertex -76.23743686707645 -15.762563132923542 23
    endloop
  endfacet
  facet normal -0.38268343236509333 0.9238795325112853 0
    outer loop
      vertex -75.45293332892942 -15.309629803994131 25.2
      vertex -75.45293332892942 -15.309629803994131 23
      vertex -75.875 -15.484455543377232 23
    endloop
  endfacet
  facet normal -0.9914448613738113 0.1305261922200449 0
    outer loop
      vertex -76.75 -17 25.2
      vertex -76.69037019600587 -16.54706667107059 25.2
      vertex -76.75 -17 23
    endloop
  endfacet
  facet normal -0.9238795325112806 0.3826834323651044 0
    outer loop
      vertex -76.69037019600587 -16.54706667107059 25.2
      vertex -76.51554445662276 -16.125 25.2
      vertex -76.69037019600587 -16.54706667107059 23
    endloop
  endfacet
  facet normal 0 0 1
    outer loop
      vertex -76.69037019600587 -17.45293332892941 25.2
      vertex -76.69037019600587 -16.54706667107059 25.2
      vertex -76.75 -17 25.2
    endloop
  endfacet
  facet normal 0 0 1
    outer loop
      vertex -76.69037019600587 -17.45293332892941 25.2
      vertex -76.51554445662276 -16.125 25.2
      vertex -76.69037019600587 -16.54706667107059 25.2
    endloop
  endfacet
  facet normal 0 0 1
    outer loop
      vertex -76.51554445662276 -17.875 25.2
      vertex -76.23743686707645 -15.762563132923542 25.2
      vertex -76.51554445662276 -16.125 25.2
    endloop
  endfacet
  facet normal 0 0 1
    outer loop
      vertex -76.23743686707645 -18.237436867076458 25.2
      vertex -75.875 -15.484455543377232 25.2
      vertex -76.23743686707645 -15.762563132923542 25.2
    endloop
  endfacet
  facet normal 0 0 1
    outer loop
      vertex -75.875 -18.515544456622766 25.2
      vertex -75.45293332892942 -15.309629803994131 25.2
      vertex -75.875 -15.484455543377232 25.2
    endloop
  endfacet
  facet normal 0 0 1
    outer loop
      vertex -75.45293332892942 -18.69037019600587 25.2
      vertex -75 -15.25 25.2
      vertex -75.45293332892942 -15.309629803994131 25.2
    endloop
  endfacet
  facet normal -0.793353340291235 0.6087614290087207 0
    outer loop
      vertex -76.51554445662276 -16.125 25.2
      vertex -76.23743686707645 -15.762563132923542 25.2
      vertex -76.51554445662276 -16.125 23
    endloop
  endfacet
  facet normal -0.6087614290087269 0.7933533402912303 0
    outer loop
      vertex -76.23743686707645 -15.762563132923542 25.2
      vertex -75.875 -15.484455543377232 25.2
      vertex -76.23743686707645 -15.762563132923542 23
    endloop
  endfacet
  facet normal -0.38268343236509333 0.9238795325112853 0
    outer loop
      vertex -75.875 -15.484455543377232 25.2
      vertex -75.45293332892942 -15.309629803994131 25.2
      vertex -75.875 -15.484455543377232 23
    endloop
  endfacet
  facet normal -0.13052619222005057 0.9914448613738106 0
    outer loop
      vertex -75.45293332892942 -15.309629803994131 25.2
      vertex -75 -15.25 25.2
      vertex -75.45293332892942 -15.309629803994131 23
    endloop
  endfacet
  facet normal -0.13052619222005057 0.9914448613738106 0
    outer loop
      vertex -75 -15.25 25.2
      vertex -75 -15.25 23
      vertex -75.45293332892942 -15.309629803994131 23
    endloop
  endfacet
  facet normal 0 0 1
    outer loop
      vertex -75 -18.75 25.2
      vertex -69 -15.25 25.2
      vertex -75 -15.25 25.2
    endloop
  endfacet
  facet normal 0 1 0
    outer loop
      vertex -75 -15.25 25.2
      vertex -69 -15.25 25.2
      vertex -75 -15.25 23
    endloop
  endfacet
  facet normal 0.13052619222005057 -0.9914448613738106 0
    outer loop
      vertex -69 -18.75 25.2
      vertex -69 -18.75 23
      vertex -68.54706667107058 -18.69037019600587 23
    endloop
  endfacet
  facet normal 0 -1 0
    outer loop
      vertex -75 -18.75 25.2
      vertex -69 -18.75 23
      vertex -69 -18.75 25.2
    endloop
  endfacet
  facet normal 0 0 1
    outer loop
      vertex -75 -18.75 25.2
      vertex -69 -18.75 25.2
      vertex -69 -15.25 25.2
    endloop
  endfacet
  facet normal 0.3826834323650966 -0.9238795325112839 0
    outer loop
      vertex -68.54706667107058 -18.69037019600587 25.2
      vertex -68.54706667107058 -18.69037019600587 23
      vertex -68.125 -18.515544456622766 23
    endloop
  endfacet
  facet normal 0.6087614290087244 -0.7933533402912323 0
    outer loop
      vertex -68.125 -18.515544456622766 25.2
      vertex -68.125 -18.515544456622766 23
      vertex -67.76256313292355 -18.237436867076458 23
    endloop
  endfacet
  facet normal 0.793353340291235 -0.6087614290087207 0
    outer loop
      vertex -67.76256313292355 -18.237436867076458 25.2
      vertex -67.76256313292355 -18.237436867076458 23
      vertex -67.48445554337724 -17.875 23
    endloop
  endfacet
  facet normal 0.9238795325112806 -0.3826834323651044 0
    outer loop
      vertex -67.48445554337724 -17.875 25.2
      vertex -67.48445554337724 -17.875 23
      vertex -67.30962980399413 -17.45293332892941 23
    endloop
  endfacet
  facet normal 0.9914448613738113 -0.1305261922200449 0
    outer loop
      vertex -67.30962980399413 -17.45293332892941 25.2
      vertex -67.30962980399413 -17.45293332892941 23
      vertex -67.25 -17 23
    endloop
  endfacet
  facet normal 0.13052619222005057 -0.9914448613738106 0
    outer loop
      vertex -69 -18.75 25.2
      vertex -68.54706667107058 -18.69037019600587 23
      vertex -68.54706667107058 -18.69037019600587 25.2
    endloop
  endfacet
  facet normal 0.3826834323650966 -0.9238795325112839 0
    outer loop
      vertex -68.54706667107058 -18.69037019600587 25.2
      vertex -68.125 -18.515544456622766 23
      vertex -68.125 -18.515544456622766 25.2
    endloop
  endfacet
  facet normal 0.6087614290087244 -0.7933533402912323 0
    outer loop
      vertex -68.125 -18.515544456622766 25.2
      vertex -67.76256313292355 -18.237436867076458 23
      vertex -67.76256313292355 -18.237436867076458 25.2
    endloop
  endfacet
  facet normal 0.793353340291235 -0.6087614290087207 0
    outer loop
      vertex -67.76256313292355 -18.237436867076458 25.2
      vertex -67.48445554337724 -17.875 23
      vertex -67.48445554337724 -17.875 25.2
    endloop
  endfacet
  facet normal 0.9238795325112806 -0.3826834323651044 0
    outer loop
      vertex -67.48445554337724 -17.875 25.2
      vertex -67.30962980399413 -17.45293332892941 23
      vertex -67.30962980399413 -17.45293332892941 25.2
    endloop
  endfacet
  facet normal 0.9914448613738113 -0.1305261922200449 0
    outer loop
      vertex -67.30962980399413 -17.45293332892941 25.2
      vertex -67.25 -17 23
      vertex -67.25 -17 25.2
    endloop
  endfacet
  facet normal 0 0 1
    outer loop
      vertex -69 -18.75 25.2
      vertex -68.54706667107058 -18.69037019600587 25.2
      vertex -68.54706667107058 -15.309629803994131 25.2
    endloop
  endfacet
  facet normal 0 0 1
    outer loop
      vertex -68.54706667107058 -18.69037019600587 25.2
      vertex -68.125 -18.515544456622766 25.2
      vertex -68.125 -15.484455543377232 25.2
    endloop
  endfacet
  facet normal 0 0 1
    outer loop
      vertex -68.125 -18.515544456622766 25.2
      vertex -67.76256313292355 -18.237436867076458 25.2
      vertex -67.76256313292355 -15.762563132923542 25.2
    endloop
  endfacet
  facet normal 0 0 1
    outer loop
      vertex -67.76256313292355 -18.237436867076458 25.2
      vertex -67.48445554337724 -17.875 25.2
      vertex -67.48445554337724 -16.125 25.2
    endloop
  endfacet
  facet normal 0 0 1
    outer loop
      vertex -67.48445554337724 -17.875 25.2
      vertex -67.30962980399413 -17.45293332892941 25.2
      vertex -67.30962980399413 -16.54706667107059 25.2
    endloop
  endfacet
  facet normal 0 0 1
    outer loop
      vertex -69 -18.75 25.2
      vertex -68.54706667107058 -15.309629803994131 25.2
      vertex -69 -15.25 25.2
    endloop
  endfacet
  facet normal 0.13052619222005057 0.9914448613738106 0
    outer loop
      vertex -69 -15.25 25.2
      vertex -68.54706667107058 -15.309629803994131 25.2
      vertex -69 -15.25 23
    endloop
  endfacet
  facet normal 0 1 0
    outer loop
      vertex -69 -15.25 25.2
      vertex -69 -15.25 23
      vertex -75 -15.25 23
    endloop
  endfacet
  facet normal 0.9914448613738113 0.1305261922200449 0
    outer loop
      vertex -67.25 -17 25.2
      vertex -67.25 -17 23
      vertex -67.30962980399413 -16.54706667107059 23
    endloop
  endfacet
  facet normal 0.9238795325112806 0.3826834323651044 0
    outer loop
      vertex -67.30962980399413 -16.54706667107059 25.2
      vertex -67.30962980399413 -16.54706667107059 23
      vertex -67.48445554337724 -16.125 23
    endloop
  endfacet
  facet normal 0.13052619222005057 0.9914448613738106 0
    outer loop
      vertex -68.54706667107058 -15.309629803994131 25.2
      vertex -68.54706667107058 -15.309629803994131 23
      vertex -69 -15.25 23
    endloop
  endfacet
  facet normal 0.38268343236509333 0.9238795325112853 0
    outer loop
      vertex -68.125 -15.484455543377232 25.2
      vertex -68.125 -15.484455543377232 23
      vertex -68.54706667107058 -15.309629803994131 23
    endloop
  endfacet
  facet normal 0.793353340291235 0.6087614290087207 0
    outer loop
      vertex -67.48445554337724 -16.125 25.2
      vertex -67.48445554337724 -16.125 23
      vertex -67.76256313292355 -15.762563132923542 23
    endloop
  endfacet
  facet normal 0.6087614290087269 0.7933533402912303 0
    outer loop
      vertex -67.76256313292355 -15.762563132923542 25.2
      vertex -67.76256313292355 -15.762563132923542 23
      vertex -68.125 -15.484455543377232 23
    endloop
  endfacet
  facet normal 0.9914448613738113 0.1305261922200449 0
    outer loop
      vertex -67.25 -17 25.2
      vertex -67.30962980399413 -16.54706667107059 23
      vertex -67.30962980399413 -16.54706667107059 25.2
    endloop
  endfacet
  facet normal 0.9238795325112806 0.3826834323651044 0
    outer loop
      vertex -67.30962980399413 -16.54706667107059 25.2
      vertex -67.48445554337724 -16.125 23
      vertex -67.48445554337724 -16.125 25.2
    endloop
  endfacet
  facet normal 0 0 1
    outer loop
      vertex -68.125 -18.515544456622766 25.2
      vertex -67.76256313292355 -15.762563132923542 25.2
      vertex -68.125 -15.484455543377232 25.2
    endloop
  endfacet
  facet normal 0 0 1
    outer loop
      vertex -68.54706667107058 -18.69037019600587 25.2
      vertex -68.125 -15.484455543377232 25.2
      vertex -68.54706667107058 -15.309629803994131 25.2
    endloop
  endfacet
  facet normal 0 0 1
    outer loop
      vertex -67.76256313292355 -18.237436867076458 25.2
      vertex -67.48445554337724 -16.125 25.2
      vertex -67.76256313292355 -15.762563132923542 25.2
    endloop
  endfacet
  facet normal 0 0 1
    outer loop
      vertex -67.48445554337724 -17.875 25.2
      vertex -67.30962980399413 -16.54706667107059 25.2
      vertex -67.48445554337724 -16.125 25.2
    endloop
  endfacet
  facet normal 0 0 1
    outer loop
      vertex -67.30962980399413 -17.45293332892941 25.2
      vertex -67.25 -17 25.2
      vertex -67.30962980399413 -16.54706667107059 25.2
    endloop
  endfacet
  facet normal 0.38268343236509333 0.9238795325112853 0
    outer loop
      vertex -68.54706667107058 -15.309629803994131 25.2
      vertex -68.125 -15.484455543377232 25.2
      vertex -68.54706667107058 -15.309629803994131 23
    endloop
  endfacet
  facet normal 0.6087614290087269 0.7933533402912303 0
    outer loop
      vertex -67.76256313292355 -15.762563132923542 25.2
      vertex -68.125 -15.484455543377232 23
      vertex -68.125 -15.484455543377232 25.2
    endloop
  endfacet
  facet normal 0.793353340291235 0.6087614290087207 0
    outer loop
      vertex -67.48445554337724 -16.125 25.2
      vertex -67.76256313292355 -15.762563132923542 23
      vertex -67.76256313292355 -15.762563132923542 25.2
    endloop
  endfacet
  facet normal -0.6087614290087194 -0.7933533402912362 0
    outer loop
      vertex -77.47487373415292 -19.474873734152915 22.2
      vertex -76.75 -20.031088913245537 22.2
      vertex -77.47487373415292 -19.474873734152915 23
    endloop
  endfacet
  facet normal -0.793353340291235 -0.6087614290087207 0
    outer loop
      vertex -77.47487373415292 -19.474873734152915 22.2
      vertex -78.03108891324554 -18.75 23
      vertex -78.03108891324554 -18.75 22.2
    endloop
  endfacet
  facet normal -0.38268343236508784 -0.9238795325112875 0
    outer loop
      vertex -76.75 -20.031088913245537 22.2
      vertex -75.90586665785882 -20.380740392011738 22.2
      vertex -76.75 -20.031088913245537 23
    endloop
  endfacet
  facet normal -0.1305261922200526 -0.9914448613738103 0
    outer loop
      vertex -75.90586665785882 -20.380740392011738 22.2
      vertex -75 -20.5 22.2
      vertex -75.90586665785882 -20.380740392011738 23
    endloop
  endfacet
  facet normal -0.9238795325112862 -0.3826834323650911 0
    outer loop
      vertex -78.03108891324554 -18.75 22.2
      vertex -78.38074039201175 -17.905866657858823 23
      vertex -78.38074039201175 -17.905866657858823 22.2
    endloop
  endfacet
  facet normal 0 0 -1
    outer loop
      vertex -78.03108891324554 -18.75 22.2
      vertex -78.38074039201175 -17.905866657858823 22.2
      vertex -78.03108891324554 -15.25 22.2
    endloop
  endfacet
  facet normal -0.9914448613738114 -0.13052619222004494 0
    outer loop
      vertex -78.38074039201175 -17.905866657858823 22.2
      vertex -78.5 -17 23
      vertex -78.5 -17 22.2
    endloop
  endfacet
  facet normal 0 0 -1
    outer loop
      vertex -77.47487373415292 -19.474873734152915 22.2
      vertex -78.03108891324554 -18.75 22.2
      vertex -77.47487373415292 -14.525126265847083 22.2
    endloop
  endfacet
  facet normal 0 0 -1
    outer loop
      vertex -77.47487373415292 -19.474873734152915 22.2
      vertex -76.75 -13.968911086754465 22.2
      vertex -76.75 -20.031088913245537 22.2
    endloop
  endfacet
  facet normal 0 0 -1
    outer loop
      vertex -76.75 -20.031088913245537 22.2
      vertex -75.90586665785882 -13.619259607988262 22.2
      vertex -75.90586665785882 -20.380740392011738 22.2
    endloop
  endfacet
  facet normal 0 0 -1
    outer loop
      vertex -75.90586665785882 -20.380740392011738 22.2
      vertex -75 -13.5 22.2
      vertex -75 -20.5 22.2
    endloop
  endfacet
  facet normal 0 -1 0
    outer loop
      vertex -75 -20.5 22.2
      vertex -69 -20.5 22.2
      vertex -75 -20.5 23
    endloop
  endfacet
  facet normal 0 0 -1
    outer loop
      vertex -75 -20.5 22.2
      vertex -72.38268343236508 -17.923879532511286 22.2
      vertex -69 -20.5 22.2
    endloop
  endfacet
  facet normal 0 0 -1
    outer loop
      vertex -75 -20.5 22.2
      vertex -73 -17 22.2
      vertex -72.9238795325113 -17.38268343236509 22.2
    endloop
  endfacet
  facet normal 0 0 -1
    outer loop
      vertex -75 -20.5 22.2
      vertex -72.9238795325113 -16.61731656763491 22.2
      vertex -73 -17 22.2
    endloop
  endfacet
  facet normal 0 0 -1
    outer loop
      vertex -75 -20.5 22.2
      vertex -72.70710678118655 -17.707106781186546 22.2
      vertex -72.38268343236508 -17.923879532511286 22.2
    endloop
  endfacet
  facet normal 0 0 -1
    outer loop
      vertex -75 -20.5 22.2
      vertex -72.9238795325113 -17.38268343236509 22.2
      vertex -72.70710678118655 -17.707106781186546 22.2
    endloop
  endfacet
  facet normal -0.6087614290087194 -0.7933533402912362 0
    outer loop
      vertex -76.75 -20.031088913245537 22.2
      vertex -76.75 -20.031088913245537 23
      vertex -77.47487373415292 -19.474873734152915 23
    endloop
  endfacet
  facet normal -0.793353340291235 -0.6087614290087207 0
    outer loop
      vertex -77.47487373415292 -19.474873734152915 22.2
      vertex -77.47487373415292 -19.474873734152915 23
      vertex -78.03108891324554 -18.75 23
    endloop
  endfacet
  facet normal 0 0 1
    outer loop
      vertex -77.47487373415292 -19.474873734152915 23
      vertex -76.75 -20.031088913245537 23
      vertex -76.75 -17 23
    endloop
  endfacet
  facet normal -0.38268343236508784 -0.9238795325112875 0
    outer loop
      vertex -75.90586665785882 -20.380740392011738 22.2
      vertex -75.90586665785882 -20.380740392011738 23
      vertex -76.75 -20.031088913245537 23
    endloop
  endfacet
  facet normal 0 0 1
    outer loop
      vertex -76.75 -20.031088913245537 23
      vertex -75.90586665785882 -20.380740392011738 23
      vertex -75.875 -18.515544456622766 23
    endloop
  endfacet
  facet normal -0.1305261922200526 -0.9914448613738103 0
    outer loop
      vertex -75 -20.5 22.2
      vertex -75 -20.5 23
      vertex -75.90586665785882 -20.380740392011738 23
    endloop
  endfacet
  facet normal 0 0 1
    outer loop
      vertex -75.90586665785882 -20.380740392011738 23
      vertex -75 -20.5 23
      vertex -75.45293332892942 -18.69037019600587 23
    endloop
  endfacet
  facet normal 0 0 1
    outer loop
      vertex -76.75 -20.031088913245537 23
      vertex -75.875 -18.515544456622766 23
      vertex -76.23743686707645 -18.237436867076458 23
    endloop
  endfacet
  facet normal 0 0 1
    outer loop
      vertex -75.90586665785882 -20.380740392011738 23
      vertex -75.45293332892942 -18.69037019600587 23
      vertex -75.875 -18.515544456622766 23
    endloop
  endfacet
  facet normal -0.9238795325112862 -0.3826834323650911 0
    outer loop
      vertex -78.03108891324554 -18.75 22.2
      vertex -78.03108891324554 -18.75 23
      vertex -78.38074039201175 -17.905866657858823 23
    endloop
  endfacet
  facet normal -0.9914448613738114 -0.13052619222004494 0
    outer loop
      vertex -78.38074039201175 -17.905866657858823 22.2
      vertex -78.38074039201175 -17.905866657858823 23
      vertex -78.5 -17 23
    endloop
  endfacet
  facet normal 0 0 1
    outer loop
      vertex -78.03108891324554 -18.75 23
      vertex -78.03108891324554 -15.25 23
      vertex -78.38074039201175 -17.905866657858823 23
    endloop
  endfacet
  facet normal 0 0 1
    outer loop
      vertex -77.47487373415292 -19.474873734152915 23
      vertex -77.47487373415292 -14.525126265847083 23
      vertex -78.03108891324554 -18.75 23
    endloop
  endfacet
  facet normal 0 0 1
    outer loop
      vertex -76.75 -20.031088913245537 23
      vertex -76.23743686707645 -18.237436867076458 23
      vertex -76.51554445662276 -17.875 23
    endloop
  endfacet
  facet normal 0 0 1
    outer loop
      vertex -76.75 -20.031088913245537 23
      vertex -76.51554445662276 -17.875 23
      vertex -76.69037019600587 -17.45293332892941 23
    endloop
  endfacet
  facet normal 0 0 1
    outer loop
      vertex -76.75 -20.031088913245537 23
      vertex -76.69037019600587 -17.45293332892941 23
      vertex -76.75 -17 23
    endloop
  endfacet
  facet normal 0 0 1
    outer loop
      vertex -75 -20.5 23
      vertex -75 -18.75 23
      vertex -75.45293332892942 -18.69037019600587 23
    endloop
  endfacet
  facet normal 0 0 1
    outer loop
      vertex -75 -20.5 23
      vertex -69 -18.75 23
      vertex -75 -18.75 23
    endloop
  endfacet
  facet normal 0 0 -1
    outer loop
      vertex -78.38074039201175 -17.905866657858823 22.2
      vertex -78.5 -17 22.2
      vertex -78.38074039201175 -16.094133342141177 22.2
    endloop
  endfacet
  facet normal 0 0 -1
    outer loop
      vertex -78.38074039201175 -17.905866657858823 22.2
      vertex -78.38074039201175 -16.094133342141177 22.2
      vertex -78.03108891324554 -15.25 22.2
    endloop
  endfacet
  facet normal 0 0 -1
    outer loop
      vertex -78.03108891324554 -18.75 22.2
      vertex -78.03108891324554 -15.25 22.2
      vertex -77.47487373415292 -14.525126265847083 22.2
    endloop
  endfacet
  facet normal -0.9914448613738114 0.13052619222004494 0
    outer loop
      vertex -78.5 -17 22.2
      vertex -78.38074039201175 -16.094133342141177 23
      vertex -78.38074039201175 -16.094133342141177 22.2
    endloop
  endfacet
  facet normal -0.9238795325112862 0.3826834323650911 0
    outer loop
      vertex -78.38074039201175 -16.094133342141177 22.2
      vertex -78.03108891324554 -15.25 23
      vertex -78.03108891324554 -15.25 22.2
    endloop
  endfacet
  facet normal 0 0 -1
    outer loop
      vertex -77.47487373415292 -19.474873734152915 22.2
      vertex -77.47487373415292 -14.525126265847083 22.2
      vertex -76.75 -13.968911086754465 22.2
    endloop
  endfacet
  facet normal 0 0 -1
    outer loop
      vertex -76.75 -20.031088913245537 22.2
      vertex -76.75 -13.968911086754465 22.2
      vertex -75.90586665785882 -13.619259607988262 22.2
    endloop
  endfacet
  facet normal 0 0 -1
    outer loop
      vertex -75.90586665785882 -20.380740392011738 22.2
      vertex -75.90586665785882 -13.619259607988262 22.2
      vertex -75 -13.5 22.2
    endloop
  endfacet
  facet normal -0.7933533402912358 0.6087614290087198 0
    outer loop
      vertex -78.03108891324554 -15.25 22.2
      vertex -77.47487373415292 -14.525126265847083 23
      vertex -77.47487373415292 -14.525126265847083 22.2
    endloop
  endfacet
  facet normal -0.6087614290087169 0.7933533402912379 0
    outer loop
      vertex -77.47487373415292 -14.525126265847083 22.2
      vertex -76.75 -13.968911086754465 23
      vertex -76.75 -13.968911086754465 22.2
    endloop
  endfacet
  facet normal -0.3826834323650895 0.9238795325112868 0
    outer loop
      vertex -76.75 -13.968911086754465 22.2
      vertex -75.90586665785882 -13.619259607988262 23
      vertex -75.90586665785882 -13.619259607988262 22.2
    endloop
  endfacet
  facet normal -0.1305261922200526 0.9914448613738103 0
    outer loop
      vertex -75.90586665785882 -13.619259607988262 22.2
      vertex -75 -13.5 23
      vertex -75 -13.5 22.2
    endloop
  endfacet
  facet normal 0 0 -1
    outer loop
      vertex -75 -20.5 22.2
      vertex -75 -13.5 22.2
      vertex -72.9238795325113 -16.61731656763491 22.2
    endloop
  endfacet
  facet normal 0 0 -1
    outer loop
      vertex -75 -13.5 22.2
      vertex -72.70710678118655 -16.292893218813454 22.2
      vertex -72.9238795325113 -16.61731656763491 22.2
    endloop
  endfacet
  facet normal 0 0 -1
    outer loop
      vertex -75 -13.5 22.2
      vertex -72.38268343236508 -16.076120467488714 22.2
      vertex -72.70710678118655 -16.292893218813454 22.2
    endloop
  endfacet
  facet normal 0 0 -1
    outer loop
      vertex -75 -13.5 22.2
      vertex -72 -16 22.2
      vertex -72.38268343236508 -16.076120467488714 22.2
    endloop
  endfacet
  facet normal 0 0 -1
    outer loop
      vertex -75 -13.5 22.2
      vertex -71.61731656763492 -16.076120467488714 22.2
      vertex -72 -16 22.2
    endloop
  endfacet
  facet normal 0 0 1
    outer loop
      vertex -78.38074039201175 -17.905866657858823 23
      vertex -78.38074039201175 -16.094133342141177 23
      vertex -78.5 -17 23
    endloop
  endfacet
  facet normal -0.9914448613738114 0.13052619222004494 0
    outer loop
      vertex -78.5 -17 22.2
      vertex -78.5 -17 23
      vertex -78.38074039201175 -16.094133342141177 23
    endloop
  endfacet
  facet normal 0 0 1
    outer loop
      vertex -78.38074039201175 -17.905866657858823 23
      vertex -78.03108891324554 -15.25 23
      vertex -78.38074039201175 -16.094133342141177 23
    endloop
  endfacet
  facet normal 0 0 1
    outer loop
      vertex -78.03108891324554 -18.75 23
      vertex -77.47487373415292 -14.525126265847083 23
      vertex -78.03108891324554 -15.25 23
    endloop
  endfacet
  facet normal 0 0 1
    outer loop
      vertex -77.47487373415292 -19.474873734152915 23
      vertex -76.75 -17 23
      vertex -76.75 -13.968911086754465 23
    endloop
  endfacet
  facet normal -0.9238795325112862 0.3826834323650911 0
    outer loop
      vertex -78.38074039201175 -16.094133342141177 22.2
      vertex -78.38074039201175 -16.094133342141177 23
      vertex -78.03108891324554 -15.25 23
    endloop
  endfacet
  facet normal 0 0 1
    outer loop
      vertex -77.47487373415292 -19.474873734152915 23
      vertex -76.75 -13.968911086754465 23
      vertex -77.47487373415292 -14.525126265847083 23
    endloop
  endfacet
  facet normal 0 0 1
    outer loop
      vertex -76.75 -13.968911086754465 23
      vertex -76.75 -17 23
      vertex -76.69037019600587 -16.54706667107059 23
    endloop
  endfacet
  facet normal 0 0 1
    outer loop
      vertex -76.75 -13.968911086754465 23
      vertex -76.69037019600587 -16.54706667107059 23
      vertex -76.51554445662276 -16.125 23
    endloop
  endfacet
  facet normal 0 0 1
    outer loop
      vertex -76.75 -13.968911086754465 23
      vertex -76.51554445662276 -16.125 23
      vertex -76.23743686707645 -15.762563132923542 23
    endloop
  endfacet
  facet normal -0.7933533402912358 0.6087614290087198 0
    outer loop
      vertex -78.03108891324554 -15.25 22.2
      vertex -78.03108891324554 -15.25 23
      vertex -77.47487373415292 -14.525126265847083 23
    endloop
  endfacet
  facet normal -0.6087614290087169 0.7933533402912379 0
    outer loop
      vertex -77.47487373415292 -14.525126265847083 22.2
      vertex -77.47487373415292 -14.525126265847083 23
      vertex -76.75 -13.968911086754465 23
    endloop
  endfacet
  facet normal 0 0 1
    outer loop
      vertex -76.75 -13.968911086754465 23
      vertex -76.23743686707645 -15.762563132923542 23
      vertex -75.90586665785882 -13.619259607988262 23
    endloop
  endfacet
  facet normal 0 0 1
    outer loop
      vertex -75.90586665785882 -13.619259607988262 23
      vertex -76.23743686707645 -15.762563132923542 23
      vertex -75.875 -15.484455543377232 23
    endloop
  endfacet
  facet normal 0 0 1
    outer loop
      vertex -75.90586665785882 -13.619259607988262 23
      vertex -75.875 -15.484455543377232 23
      vertex -75.45293332892942 -15.309629803994131 23
    endloop
  endfacet
  facet normal -0.3826834323650895 0.9238795325112868 0
    outer loop
      vertex -76.75 -13.968911086754465 22.2
      vertex -76.75 -13.968911086754465 23
      vertex -75.90586665785882 -13.619259607988262 23
    endloop
  endfacet
  facet normal 0 0 1
    outer loop
      vertex -75.90586665785882 -13.619259607988262 23
      vertex -75.45293332892942 -15.309629803994131 23
      vertex -75 -13.5 23
    endloop
  endfacet
  facet normal -0.1305261922200526 0.9914448613738103 0
    outer loop
      vertex -75.90586665785882 -13.619259607988262 22.2
      vertex -75.90586665785882 -13.619259607988262 23
      vertex -75 -13.5 23
    endloop
  endfacet
  facet normal 0 0 1
    outer loop
      vertex -75 -13.5 23
      vertex -75.45293332892942 -15.309629803994131 23
      vertex -75 -15.25 23
    endloop
  endfacet
  facet normal 0 0 1
    outer loop
      vertex -75 -13.5 23
      vertex -75 -15.25 23
      vertex -69 -13.5 23
    endloop
  endfacet
  facet normal 0 1 0
    outer loop
      vertex -75 -13.5 22.2
      vertex -75 -13.5 23
      vertex -69 -13.5 23
    endloop
  endfacet
  facet normal 0 0 -1
    outer loop
      vertex -69 -20.5 22.2
      vertex -72.38268343236508 -17.923879532511286 22.2
      vertex -72 -18 22.2
    endloop
  endfacet
  facet normal 0 0 -1
    outer loop
      vertex -69 -20.5 22.2
      vertex -72 -18 22.2
      vertex -71.61731656763492 -17.923879532511286 22.2
    endloop
  endfacet
  facet normal 0 0 -1
    outer loop
      vertex -69 -20.5 22.2
      vertex -71.61731656763492 -17.923879532511286 22.2
      vertex -71.29289321881345 -17.707106781186546 22.2
    endloop
  endfacet
  facet normal 0 0 -1
    outer loop
      vertex -69 -20.5 22.2
      vertex -71.29289321881345 -17.707106781186546 22.2
      vertex -71.0761204674887 -17.38268343236509 22.2
    endloop
  endfacet
  facet normal 0 0 -1
    outer loop
      vertex -69 -20.5 22.2
      vertex -71.0761204674887 -17.38268343236509 22.2
      vertex -69 -13.5 22.2
    endloop
  endfacet
  facet normal 0.1305261922200526 -0.9914448613738103 0
    outer loop
      vertex -69 -20.5 22.2
      vertex -68.09413334214118 -20.380740392011738 22.2
      vertex -69 -20.5 23
    endloop
  endfacet
  facet normal 0.38268343236508784 -0.9238795325112875 0
    outer loop
      vertex -68.09413334214118 -20.380740392011738 22.2
      vertex -67.25 -20.031088913245537 22.2
      vertex -68.09413334214118 -20.380740392011738 23
    endloop
  endfacet
  facet normal 0.6087614290087194 -0.7933533402912362 0
    outer loop
      vertex -67.25 -20.031088913245537 22.2
      vertex -66.52512626584708 -19.474873734152915 22.2
      vertex -67.25 -20.031088913245537 23
    endloop
  endfacet
  facet normal 0.793353340291235 -0.6087614290087207 0
    outer loop
      vertex -66.52512626584708 -19.474873734152915 22.2
      vertex -65.96891108675446 -18.75 22.2
      vertex -66.52512626584708 -19.474873734152915 23
    endloop
  endfacet
  facet normal 0 0 -1
    outer loop
      vertex -69 -20.5 22.2
      vertex -68.09413334214118 -13.619259607988262 22.2
      vertex -68.09413334214118 -20.380740392011738 22.2
    endloop
  endfacet
  facet normal 0 0 -1
    outer loop
      vertex -68.09413334214118 -20.380740392011738 22.2
      vertex -67.25 -13.968911086754465 22.2
      vertex -67.25 -20.031088913245537 22.2
    endloop
  endfacet
  facet normal 0 0 -1
    outer loop
      vertex -67.25 -20.031088913245537 22.2
      vertex -66.52512626584708 -14.525126265847083 22.2
      vertex -66.52512626584708 -19.474873734152915 22.2
    endloop
  endfacet
  facet normal 0.9238795325112862 -0.3826834323650911 0
    outer loop
      vertex -65.96891108675446 -18.75 22.2
      vertex -65.61925960798825 -17.905866657858823 22.2
      vertex -65.96891108675446 -18.75 23
    endloop
  endfacet
  facet normal 0 0 -1
    outer loop
      vertex -66.52512626584708 -19.474873734152915 22.2
      vertex -65.96891108675446 -15.25 22.2
      vertex -65.96891108675446 -18.75 22.2
    endloop
  endfacet
  facet normal 0 0 -1
    outer loop
      vertex -65.96891108675446 -18.75 22.2
      vertex -65.61925960798825 -16.094133342141177 22.2
      vertex -65.61925960798825 -17.905866657858823 22.2
    endloop
  endfacet
  facet normal 0.9914448613738114 -0.13052619222004494 0
    outer loop
      vertex -65.61925960798825 -17.905866657858823 22.2
      vertex -65.5 -17 22.2
      vertex -65.61925960798825 -17.905866657858823 23
    endloop
  endfacet
  facet normal 0 -1 0
    outer loop
      vertex -75 -20.5 23
      vertex -69 -20.5 22.2
      vertex -69 -20.5 23
    endloop
  endfacet
  facet normal 0 0 1
    outer loop
      vertex -75 -20.5 23
      vertex -69 -20.5 23
      vertex -69 -18.75 23
    endloop
  endfacet
  facet normal 0 0 1
    outer loop
      vertex -69 -20.5 23
      vertex -68.54706667107058 -18.69037019600587 23
      vertex -69 -18.75 23
    endloop
  endfacet
  facet normal 0.1305261922200526 -0.9914448613738103 0
    outer loop
      vertex -68.09413334214118 -20.380740392011738 22.2
      vertex -68.09413334214118 -20.380740392011738 23
      vertex -69 -20.5 23
    endloop
  endfacet
  facet normal 0 0 1
    outer loop
      vertex -69 -20.5 23
      vertex -68.09413334214118 -20.380740392011738 23
      vertex -68.54706667107058 -18.69037019600587 23
    endloop
  endfacet
  facet normal 0.38268343236508784 -0.9238795325112875 0
    outer loop
      vertex -67.25 -20.031088913245537 22.2
      vertex -67.25 -20.031088913245537 23
      vertex -68.09413334214118 -20.380740392011738 23
    endloop
  endfacet
  facet normal 0 0 1
    outer loop
      vertex -68.09413334214118 -20.380740392011738 23
      vertex -68.125 -18.515544456622766 23
      vertex -68.54706667107058 -18.69037019600587 23
    endloop
  endfacet
  facet normal 0 0 1
    outer loop
      vertex -68.09413334214118 -20.380740392011738 23
      vertex -67.76256313292355 -18.237436867076458 23
      vertex -68.125 -18.515544456622766 23
    endloop
  endfacet
  facet normal 0 0 1
    outer loop
      vertex -68.09413334214118 -20.380740392011738 23
      vertex -67.25 -20.031088913245537 23
      vertex -67.76256313292355 -18.237436867076458 23
    endloop
  endfacet
  facet normal 0.6087614290087194 -0.7933533402912362 0
    outer loop
      vertex -66.52512626584708 -19.474873734152915 22.2
      vertex -66.52512626584708 -19.474873734152915 23
      vertex -67.25 -20.031088913245537 23
    endloop
  endfacet
  facet normal 0.793353340291235 -0.6087614290087207 0
    outer loop
      vertex -65.96891108675446 -18.75 22.2
      vertex -65.96891108675446 -18.75 23
      vertex -66.52512626584708 -19.474873734152915 23
    endloop
  endfacet
  facet normal 0 0 1
    outer loop
      vertex -67.25 -20.031088913245537 23
      vertex -67.48445554337724 -17.875 23
      vertex -67.76256313292355 -18.237436867076458 23
    endloop
  endfacet
  facet normal 0 0 1
    outer loop
      vertex -67.25 -20.031088913245537 23
      vertex -67.30962980399413 -17.45293332892941 23
      vertex -67.48445554337724 -17.875 23
    endloop
  endfacet
  facet normal 0 0 1
    outer loop
      vertex -67.25 -20.031088913245537 23
      vertex -67.25 -17 23
      vertex -67.30962980399413 -17.45293332892941 23
    endloop
  endfacet
  facet normal 0 0 1
    outer loop
      vertex -67.25 -20.031088913245537 23
      vertex -66.52512626584708 -19.474873734152915 23
      vertex -66.52512626584708 -14.525126265847083 23
    endloop
  endfacet
  facet normal 0.9238795325112862 -0.3826834323650911 0
    outer loop
      vertex -65.61925960798825 -17.905866657858823 22.2
      vertex -65.61925960798825 -17.905866657858823 23
      vertex -65.96891108675446 -18.75 23
    endloop
  endfacet
  facet normal 0 0 1
    outer loop
      vertex -67.25 -20.031088913245537 23
      vertex -66.52512626584708 -14.525126265847083 23
      vertex -67.25 -17 23
    endloop
  endfacet
  facet normal 0 0 1
    outer loop
      vertex -66.52512626584708 -19.474873734152915 23
      vertex -65.96891108675446 -18.75 23
      vertex -65.96891108675446 -15.25 23
    endloop
  endfacet
  facet normal 0 0 1
    outer loop
      vertex -65.96891108675446 -18.75 23
      vertex -65.61925960798825 -17.905866657858823 23
      vertex -65.61925960798825 -16.094133342141177 23
    endloop
  endfacet
  facet normal 0.9914448613738114 -0.13052619222004494 0
    outer loop
      vertex -65.61925960798825 -17.905866657858823 23
      vertex -65.5 -17 22.2
      vertex -65.5 -17 23
    endloop
  endfacet
  facet normal 0 0 -1
    outer loop
      vertex -69 -13.5 22.2
      vertex -71.0761204674887 -16.61731656763491 22.2
      vertex -71.29289321881345 -16.292893218813454 22.2
    endloop
  endfacet
  facet normal 0 0 -1
    outer loop
      vertex -69 -13.5 22.2
      vertex -71.29289321881345 -16.292893218813454 22.2
      vertex -71.61731656763492 -16.076120467488714 22.2
    endloop
  endfacet
  facet normal 0 0 -1
    outer loop
      vertex -69 -13.5 22.2
      vertex -71.0761204674887 -17.38268343236509 22.2
      vertex -71 -17 22.2
    endloop
  endfacet
  facet normal 0 0 -1
    outer loop
      vertex -69 -13.5 22.2
      vertex -71 -17 22.2
      vertex -71.0761204674887 -16.61731656763491 22.2
    endloop
  endfacet
  facet normal 0 0 -1
    outer loop
      vertex -75 -13.5 22.2
      vertex -69 -13.5 22.2
      vertex -71.61731656763492 -16.076120467488714 22.2
    endloop
  endfacet
  facet normal 0 1 0
    outer loop
      vertex -75 -13.5 22.2
      vertex -69 -13.5 23
      vertex -69 -13.5 22.2
    endloop
  endfacet
  facet normal 0 0 -1
    outer loop
      vertex -69 -20.5 22.2
      vertex -69 -13.5 22.2
      vertex -68.09413334214118 -13.619259607988262 22.2
    endloop
  endfacet
  facet normal 0 0 -1
    outer loop
      vertex -68.09413334214118 -20.380740392011738 22.2
      vertex -68.09413334214118 -13.619259607988262 22.2
      vertex -67.25 -13.968911086754465 22.2
    endloop
  endfacet
  facet normal 0 0 -1
    outer loop
      vertex -67.25 -20.031088913245537 22.2
      vertex -67.25 -13.968911086754465 22.2
      vertex -66.52512626584708 -14.525126265847083 22.2
    endloop
  endfacet
  facet normal 0 0 -1
    outer loop
      vertex -66.52512626584708 -19.474873734152915 22.2
      vertex -66.52512626584708 -14.525126265847083 22.2
      vertex -65.96891108675446 -15.25 22.2
    endloop
  endfacet
  facet normal 0 0 -1
    outer loop
      vertex -65.61925960798825 -17.905866657858823 22.2
      vertex -65.61925960798825 -16.094133342141177 22.2
      vertex -65.5 -17 22.2
    endloop
  endfacet
  facet normal 0 0 -1
    outer loop
      vertex -65.96891108675446 -18.75 22.2
      vertex -65.96891108675446 -15.25 22.2
      vertex -65.61925960798825 -16.094133342141177 22.2
    endloop
  endfacet
  facet normal 0.9914448613738114 0.13052619222004494 0
    outer loop
      vertex -65.5 -17 22.2
      vertex -65.61925960798825 -16.094133342141177 22.2
      vertex -65.5 -17 23
    endloop
  endfacet
  facet normal 0.9238795325112862 0.3826834323650911 0
    outer loop
      vertex -65.61925960798825 -16.094133342141177 22.2
      vertex -65.96891108675446 -15.25 22.2
      vertex -65.61925960798825 -16.094133342141177 23
    endloop
  endfacet
  facet normal 0.1305261922200526 0.9914448613738103 0
    outer loop
      vertex -69 -13.5 22.2
      vertex -68.09413334214118 -13.619259607988262 23
      vertex -68.09413334214118 -13.619259607988262 22.2
    endloop
  endfacet
  facet normal 0.3826834323650895 0.9238795325112868 0
    outer loop
      vertex -68.09413334214118 -13.619259607988262 22.2
      vertex -67.25 -13.968911086754465 23
      vertex -67.25 -13.968911086754465 22.2
    endloop
  endfacet
  facet normal 0.7933533402912358 0.6087614290087198 0
    outer loop
      vertex -66.52512626584708 -14.525126265847083 22.2
      vertex -65.96891108675446 -15.25 23
      vertex -65.96891108675446 -15.25 22.2
    endloop
  endfacet
  facet normal 0.6087614290087169 0.7933533402912379 0
    outer loop
      vertex -67.25 -13.968911086754465 22.2
      vertex -66.52512626584708 -14.525126265847083 23
      vertex -66.52512626584708 -14.525126265847083 22.2
    endloop
  endfacet
  facet normal 0 0 1
    outer loop
      vertex -69 -13.5 23
      vertex -75 -15.25 23
      vertex -69 -15.25 23
    endloop
  endfacet
  facet normal 0 0 1
    outer loop
      vertex -67.25 -13.968911086754465 23
      vertex -67.30962980399413 -16.54706667107059 23
      vertex -67.25 -17 23
    endloop
  endfacet
  facet normal 0 0 1
    outer loop
      vertex -67.25 -13.968911086754465 23
      vertex -67.48445554337724 -16.125 23
      vertex -67.30962980399413 -16.54706667107059 23
    endloop
  endfacet
  facet normal 0 0 1
    outer loop
      vertex -67.25 -13.968911086754465 23
      vertex -67.76256313292355 -15.762563132923542 23
      vertex -67.48445554337724 -16.125 23
    endloop
  endfacet
  facet normal 0 0 1
    outer loop
      vertex -66.52512626584708 -19.474873734152915 23
      vertex -65.96891108675446 -15.25 23
      vertex -66.52512626584708 -14.525126265847083 23
    endloop
  endfacet
  facet normal 0 0 1
    outer loop
      vertex -65.61925960798825 -17.905866657858823 23
      vertex -65.5 -17 23
      vertex -65.61925960798825 -16.094133342141177 23
    endloop
  endfacet
  facet normal 0 0 1
    outer loop
      vertex -65.96891108675446 -18.75 23
      vertex -65.61925960798825 -16.094133342141177 23
      vertex -65.96891108675446 -15.25 23
    endloop
  endfacet
  facet normal 0.9914448613738114 0.13052619222004494 0
    outer loop
      vertex -65.61925960798825 -16.094133342141177 22.2
      vertex -65.61925960798825 -16.094133342141177 23
      vertex -65.5 -17 23
    endloop
  endfacet
  facet normal 0.9238795325112862 0.3826834323650911 0
    outer loop
      vertex -65.96891108675446 -15.25 22.2
      vertex -65.96891108675446 -15.25 23
      vertex -65.61925960798825 -16.094133342141177 23
    endloop
  endfacet
  facet normal 0 0 1
    outer loop
      vertex -68.09413334214118 -13.619259607988262 23
      vertex -69 -15.25 23
      vertex -68.54706667107058 -15.309629803994131 23
    endloop
  endfacet
  facet normal 0 0 1
    outer loop
      vertex -68.09413334214118 -13.619259607988262 23
      vertex -68.54706667107058 -15.309629803994131 23
      vertex -68.125 -15.484455543377232 23
    endloop
  endfacet
  facet normal 0 0 1
    outer loop
      vertex -67.25 -13.968911086754465 23
      vertex -68.125 -15.484455543377232 23
      vertex -67.76256313292355 -15.762563132923542 23
    endloop
  endfacet
  facet normal 0 0 1
    outer loop
      vertex -69 -13.5 23
      vertex -69 -15.25 23
      vertex -68.09413334214118 -13.619259607988262 23
    endloop
  endfacet
  facet normal 0.1305261922200526 0.9914448613738103 0
    outer loop
      vertex -69 -13.5 22.2
      vertex -69 -13.5 23
      vertex -68.09413334214118 -13.619259607988262 23
    endloop
  endfacet
  facet normal 0 0 1
    outer loop
      vertex -68.09413334214118 -13.619259607988262 23
      vertex -68.125 -15.484455543377232 23
      vertex -67.25 -13.968911086754465 23
    endloop
  endfacet
  facet normal 0.3826834323650895 0.9238795325112868 0
    outer loop
      vertex -68.09413334214118 -13.619259607988262 22.2
      vertex -68.09413334214118 -13.619259607988262 23
      vertex -67.25 -13.968911086754465 23
    endloop
  endfacet
  facet normal 0 0 1
    outer loop
      vertex -67.25 -13.968911086754465 23
      vertex -67.25 -17 23
      vertex -66.52512626584708 -14.525126265847083 23
    endloop
  endfacet
  facet normal 0.7933533402912358 0.6087614290087198 0
    outer loop
      vertex -66.52512626584708 -14.525126265847083 22.2
      vertex -66.52512626584708 -14.525126265847083 23
      vertex -65.96891108675446 -15.25 23
    endloop
  endfacet
  facet normal 0.6087614290087169 0.7933533402912379 0
    outer loop
      vertex -67.25 -13.968911086754465 22.2
      vertex -67.25 -13.968911086754465 23
      vertex -66.52512626584708 -14.525126265847083 23
    endloop
  endfacet
  facet normal -0.19509032201613263 -0.9807852804032294 0
    outer loop
      vertex -72.38268343236508 -17.923879532511286 20.2
      vertex -72 -18 20.2
      vertex -72 -18 22.2
    endloop
  endfacet
  facet normal 0 0 -1
    outer loop
      vertex -72.38268343236508 -17.923879532511286 20.2
      vertex -72.70710678118655 -17.707106781186546 20.2
      vertex -72.38268343236508 -16.076120467488714 20.2
    endloop
  endfacet
  facet normal 0 0 -1
    outer loop
      vertex -72.70710678118655 -17.707106781186546 20.2
      vertex -72.9238795325113 -17.38268343236509 20.2
      vertex -72.70710678118655 -16.292893218813454 20.2
    endloop
  endfacet
  facet normal 0 0 -1
    outer loop
      vertex -72.38268343236508 -17.923879532511286 20.2
      vertex -72 -16 20.2
      vertex -72 -18 20.2
    endloop
  endfacet
  facet normal -0.831469612302542 -0.5555702330196071 0
    outer loop
      vertex -72.70710678118655 -17.707106781186546 20.2
      vertex -72.9238795325113 -17.38268343236509 22.2
      vertex -72.9238795325113 -17.38268343236509 20.2
    endloop
  endfacet
  facet normal -0.9807852804032338 -0.19509032201611162 0
    outer loop
      vertex -72.9238795325113 -17.38268343236509 20.2
      vertex -73 -17 22.2
      vertex -73 -17 20.2
    endloop
  endfacet
  facet normal -0.5555702330195902 -0.8314696123025532 0
    outer loop
      vertex -72.38268343236508 -17.923879532511286 20.2
      vertex -72.38268343236508 -17.923879532511286 22.2
      vertex -72.70710678118655 -17.707106781186546 20.2
    endloop
  endfacet
  facet normal -0.19509032201613263 -0.9807852804032294 0
    outer loop
      vertex -72.38268343236508 -17.923879532511286 20.2
      vertex -72 -18 22.2
      vertex -72.38268343236508 -17.923879532511286 22.2
    endloop
  endfacet
  facet normal -0.9807852804032338 -0.19509032201611162 0
    outer loop
      vertex -72.9238795325113 -17.38268343236509 20.2
      vertex -72.9238795325113 -17.38268343236509 22.2
      vertex -73 -17 22.2
    endloop
  endfacet
  facet normal -0.5555702330195902 -0.8314696123025532 0
    outer loop
      vertex -72.70710678118655 -17.707106781186546 20.2
      vertex -72.38268343236508 -17.923879532511286 22.2
      vertex -72.70710678118655 -17.707106781186546 22.2
    endloop
  endfacet
  facet normal -0.831469612302542 -0.5555702330196071 0
    outer loop
      vertex -72.70710678118655 -17.707106781186546 20.2
      vertex -72.70710678118655 -17.707106781186546 22.2
      vertex -72.9238795325113 -17.38268343236509 22.2
    endloop
  endfacet
  facet normal 0 0 -1
    outer loop
      vertex -72.9238795325113 -17.38268343236509 20.2
      vertex -73 -17 20.2
      vertex -72.9238795325113 -16.61731656763491 20.2
    endloop
  endfacet
  facet normal 0 0 -1
    outer loop
      vertex -72.9238795325113 -17.38268343236509 20.2
      vertex -72.9238795325113 -16.61731656763491 20.2
      vertex -72.70710678118655 -16.292893218813454 20.2
    endloop
  endfacet
  facet normal 0 0 -1
    outer loop
      vertex -72.70710678118655 -17.707106781186546 20.2
      vertex -72.70710678118655 -16.292893218813454 20.2
      vertex -72.38268343236508 -16.076120467488714 20.2
    endloop
  endfacet
  facet normal 0 0 -1
    outer loop
      vertex -72.38268343236508 -17.923879532511286 20.2
      vertex -72.38268343236508 -16.076120467488714 20.2
      vertex -72 -16 20.2
    endloop
  endfacet
  facet normal -0.9807852804032338 0.19509032201611162 0
    outer loop
      vertex -73 -17 20.2
      vertex -72.9238795325113 -16.61731656763491 22.2
      vertex -72.9238795325113 -16.61731656763491 20.2
    endloop
  endfacet
  facet normal -0.831469612302542 0.5555702330196071 0
    outer loop
      vertex -72.9238795325113 -16.61731656763491 20.2
      vertex -72.70710678118655 -16.292893218813454 22.2
      vertex -72.70710678118655 -16.292893218813454 20.2
    endloop
  endfacet
  facet normal -0.5555702330195902 0.8314696123025532 0
    outer loop
      vertex -72.70710678118655 -16.292893218813454 20.2
      vertex -72.70710678118655 -16.292893218813454 22.2
      vertex -72.38268343236508 -16.076120467488714 20.2
    endloop
  endfacet
  facet normal -0.19509032201613263 0.9807852804032294 0
    outer loop
      vertex -72.38268343236508 -16.076120467488714 20.2
      vertex -72.38268343236508 -16.076120467488714 22.2
      vertex -72 -16 20.2
    endloop
  endfacet
  facet normal -0.9807852804032338 0.19509032201611162 0
    outer loop
      vertex -73 -17 20.2
      vertex -73 -17 22.2
      vertex -72.9238795325113 -16.61731656763491 22.2
    endloop
  endfacet
  facet normal -0.831469612302542 0.5555702330196071 0
    outer loop
      vertex -72.9238795325113 -16.61731656763491 20.2
      vertex -72.9238795325113 -16.61731656763491 22.2
      vertex -72.70710678118655 -16.292893218813454 22.2
    endloop
  endfacet
  facet normal -0.5555702330195902 0.8314696123025532 0
    outer loop
      vertex -72.38268343236508 -16.076120467488714 20.2
      vertex -72.70710678118655 -16.292893218813454 22.2
      vertex -72.38268343236508 -16.076120467488714 22.2
    endloop
  endfacet
  facet normal -0.19509032201613263 0.9807852804032294 0
    outer loop
      vertex -72 -16 20.2
      vertex -72.38268343236508 -16.076120467488714 22.2
      vertex -72 -16 22.2
    endloop
  endfacet
  facet normal 0.19509032201613263 -0.9807852804032294 0
    outer loop
      vertex -72 -18 20.2
      vertex -71.61731656763492 -17.923879532511286 20.2
      vertex -71.61731656763492 -17.923879532511286 22.2
    endloop
  endfacet
  facet normal 0 0 -1
    outer loop
      vertex -72 -18 20.2
      vertex -71.61731656763492 -16.076120467488714 20.2
      vertex -71.61731656763492 -17.923879532511286 20.2
    endloop
  endfacet
  facet normal 0 0 -1
    outer loop
      vertex -71.61731656763492 -17.923879532511286 20.2
      vertex -71.29289321881345 -16.292893218813454 20.2
      vertex -71.29289321881345 -17.707106781186546 20.2
    endloop
  endfacet
  facet normal 0 0 -1
    outer loop
      vertex -71.29289321881345 -17.707106781186546 20.2
      vertex -71.0761204674887 -16.61731656763491 20.2
      vertex -71.0761204674887 -17.38268343236509 20.2
    endloop
  endfacet
  facet normal 0.5555702330195902 -0.8314696123025532 0
    outer loop
      vertex -71.61731656763492 -17.923879532511286 20.2
      vertex -71.29289321881345 -17.707106781186546 20.2
      vertex -71.29289321881345 -17.707106781186546 22.2
    endloop
  endfacet
  facet normal 0.831469612302542 -0.5555702330196071 0
    outer loop
      vertex -71.29289321881345 -17.707106781186546 20.2
      vertex -71.0761204674887 -17.38268343236509 20.2
      vertex -71.29289321881345 -17.707106781186546 22.2
    endloop
  endfacet
  facet normal 0.9807852804032338 -0.19509032201611162 0
    outer loop
      vertex -71.0761204674887 -17.38268343236509 20.2
      vertex -71 -17 20.2
      vertex -71.0761204674887 -17.38268343236509 22.2
    endloop
  endfacet
  facet normal 0.19509032201613263 -0.9807852804032294 0
    outer loop
      vertex -72 -18 20.2
      vertex -71.61731656763492 -17.923879532511286 22.2
      vertex -72 -18 22.2
    endloop
  endfacet
  facet normal 0.5555702330195902 -0.8314696123025532 0
    outer loop
      vertex -71.61731656763492 -17.923879532511286 20.2
      vertex -71.29289321881345 -17.707106781186546 22.2
      vertex -71.61731656763492 -17.923879532511286 22.2
    endloop
  endfacet
  facet normal 0.831469612302542 -0.5555702330196071 0
    outer loop
      vertex -71.0761204674887 -17.38268343236509 20.2
      vertex -71.0761204674887 -17.38268343236509 22.2
      vertex -71.29289321881345 -17.707106781186546 22.2
    endloop
  endfacet
  facet normal 0.9807852804032338 -0.19509032201611162 0
    outer loop
      vertex -71 -17 20.2
      vertex -71 -17 22.2
      vertex -71.0761204674887 -17.38268343236509 22.2
    endloop
  endfacet
  facet normal 0 0 -1
    outer loop
      vertex -72 -18 20.2
      vertex -72 -16 20.2
      vertex -71.61731656763492 -16.076120467488714 20.2
    endloop
  endfacet
  facet normal 0 0 -1
    outer loop
      vertex -71.29289321881345 -17.707106781186546 20.2
      vertex -71.29289321881345 -16.292893218813454 20.2
      vertex -71.0761204674887 -16.61731656763491 20.2
    endloop
  endfacet
  facet normal 0 0 -1
    outer loop
      vertex -71.61731656763492 -17.923879532511286 20.2
      vertex -71.61731656763492 -16.076120467488714 20.2
      vertex -71.29289321881345 -16.292893218813454 20.2
    endloop
  endfacet
  facet normal 0 0 -1
    outer loop
      vertex -71.0761204674887 -17.38268343236509 20.2
      vertex -71.0761204674887 -16.61731656763491 20.2
      vertex -71 -17 20.2
    endloop
  endfacet
  facet normal 0.5555702330195902 0.8314696123025532 0
    outer loop
      vertex -71.29289321881345 -16.292893218813454 20.2
      vertex -71.61731656763492 -16.076120467488714 20.2
      vertex -71.61731656763492 -16.076120467488714 22.2
    endloop
  endfacet
  facet normal 0.9807852804032338 0.19509032201611162 0
    outer loop
      vertex -71 -17 20.2
      vertex -71.0761204674887 -16.61731656763491 20.2
      vertex -71 -17 22.2
    endloop
  endfacet
  facet normal 0.831469612302542 0.5555702330196071 0
    outer loop
      vertex -71.0761204674887 -16.61731656763491 20.2
      vertex -71.29289321881345 -16.292893218813454 20.2
      vertex -71.0761204674887 -16.61731656763491 22.2
    endloop
  endfacet
  facet normal 0.19509032201613263 0.9807852804032294 0
    outer loop
      vertex -72 -16 20.2
      vertex -72 -16 22.2
      vertex -71.61731656763492 -16.076120467488714 20.2
    endloop
  endfacet
  facet normal 0.831469612302542 0.5555702330196071 0
    outer loop
      vertex -71.29289321881345 -16.292893218813454 20.2
      vertex -71.29289321881345 -16.292893218813454 22.2
      vertex -71.0761204674887 -16.61731656763491 22.2
    endloop
  endfacet
  facet normal 0.5555702330195902 0.8314696123025532 0
    outer loop
      vertex -71.29289321881345 -16.292893218813454 20.2
      vertex -71.61731656763492 -16.076120467488714 22.2
      vertex -71.29289321881345 -16.292893218813454 22.2
    endloop
  endfacet
  facet normal 0.9807852804032338 0.19509032201611162 0
    outer loop
      vertex -71.0761204674887 -16.61731656763491 20.2
      vertex -71.0761204674887 -16.61731656763491 22.2
      vertex -71 -17 22.2
    endloop
  endfacet
  facet normal 0.19509032201613263 0.9807852804032294 0
    outer loop
      vertex -71.61731656763492 -16.076120467488714 20.2
      vertex -72 -16 22.2
      vertex -71.61731656763492 -16.076120467488714 22.2
    endloop
  endfacet
endsolid OpenSCAD_Model
