solid OpenSCAD_Model
  facet normal -0.6087614290087169 -0.793353340291238 0
    outer loop
      vertex -56.23743686707646 -18.237436867076458 25.2
      vertex -56.23743686707646 -18.237436867076458 23
      vertex -55.875 -18.515544456622766 23
    endloop
  endfacet
  facet normal -0.793353340291235 -0.6087614290087207 0
    outer loop
      vertex -56.51554445662277 -17.875 25.2
      vertex -56.51554445662277 -17.875 23
      vertex -56.23743686707646 -18.237436867076458 23
    endloop
  endfacet
  facet normal -0.3826834323650911 -0.9238795325112861 0
    outer loop
      vertex -55.875 -18.515544456622766 25.2
      vertex -55.875 -18.515544456622766 23
      vertex -55.45293332892941 -18.69037019600587 23
    endloop
  endfacet
  facet normal -0.13052619222005257 -0.9914448613738102 0
    outer loop
      vertex -55.45293332892941 -18.69037019600587 25.2
      vertex -55.45293332892941 -18.69037019600587 23
      vertex -55 -18.75 23
    endloop
  endfacet
  facet normal -0.9238795325112861 -0.3826834323650911 0
    outer loop
      vertex -56.69037019600587 -17.45293332892941 25.2
      vertex -56.69037019600587 -17.45293332892941 23
      vertex -56.51554445662277 -17.875 23
    endloop
  endfacet
  facet normal -0.9914448613738113 -0.1305261922200449 0
    outer loop
      vertex -56.75 -17 25.2
      vertex -56.75 -17 23
      vertex -56.69037019600587 -17.45293332892941 23
    endloop
  endfacet
  facet normal -0.793353340291235 -0.6087614290087207 0
    outer loop
      vertex -56.23743686707646 -18.237436867076458 25.2
      vertex -56.51554445662277 -17.875 25.2
      vertex -56.23743686707646 -18.237436867076458 23
    endloop
  endfacet
  facet normal -0.6087614290087169 -0.793353340291238 0
    outer loop
      vertex -55.875 -18.515544456622766 25.2
      vertex -56.23743686707646 -18.237436867076458 25.2
      vertex -55.875 -18.515544456622766 23
    endloop
  endfacet
  facet normal -0.3826834323650911 -0.9238795325112861 0
    outer loop
      vertex -55.875 -18.515544456622766 25.2
      vertex -55.45293332892941 -18.69037019600587 23
      vertex -55.45293332892941 -18.69037019600587 25.2
    endloop
  endfacet
  facet normal -0.9238795325112861 -0.3826834323650911 0
    outer loop
      vertex -56.51554445662277 -17.875 25.2
      vertex -56.69037019600587 -17.45293332892941 25.2
      vertex -56.51554445662277 -17.875 23
    endloop
  endfacet
  facet normal -0.9914448613738113 -0.1305261922200449 0
    outer loop
      vertex -56.69037019600587 -17.45293332892941 25.2
      vertex -56.75 -17 25.2
      vertex -56.69037019600587 -17.45293332892941 23
    endloop
  endfacet
  facet normal 0 0 1
    outer loop
      vertex -56.51554445662277 -17.875 25.2
      vertex -56.51554445662277 -16.125 25.2
      vertex -56.69037019600587 -17.45293332892941 25.2
    endloop
  endfacet
  facet normal 0 0 1
    outer loop
      vertex -56.23743686707646 -18.237436867076458 25.2
      vertex -56.23743686707646 -15.762563132923542 25.2
      vertex -56.51554445662277 -17.875 25.2
    endloop
  endfacet
  facet normal 0 0 1
    outer loop
      vertex -55.875 -18.515544456622766 25.2
      vertex -55.45293332892941 -18.69037019600587 25.2
      vertex -55.45293332892941 -15.309629803994131 25.2
    endloop
  endfacet
  facet normal 0 0 1
    outer loop
      vertex -55.875 -18.515544456622766 25.2
      vertex -55.875 -15.484455543377232 25.2
      vertex -56.23743686707646 -18.237436867076458 25.2
    endloop
  endfacet
  facet normal 0 -1 0
    outer loop
      vertex -55 -18.75 25.2
      vertex -55 -18.75 23
      vertex -49 -18.75 23
    endloop
  endfacet
  facet normal -0.13052619222005257 -0.9914448613738102 0
    outer loop
      vertex -55.45293332892941 -18.69037019600587 25.2
      vertex -55 -18.75 23
      vertex -55 -18.75 25.2
    endloop
  endfacet
  facet normal 0 0 1
    outer loop
      vertex -55.45293332892941 -18.69037019600587 25.2
      vertex -55 -18.75 25.2
      vertex -55 -15.25 25.2
    endloop
  endfacet
  facet normal -0.9914448613738113 0.1305261922200449 0
    outer loop
      vertex -56.69037019600587 -16.54706667107059 25.2
      vertex -56.69037019600587 -16.54706667107059 23
      vertex -56.75 -17 23
    endloop
  endfacet
  facet normal -0.9238795325112861 0.3826834323650911 0
    outer loop
      vertex -56.51554445662277 -16.125 25.2
      vertex -56.51554445662277 -16.125 23
      vertex -56.69037019600587 -16.54706667107059 23
    endloop
  endfacet
  facet normal -0.793353340291235 0.6087614290087207 0
    outer loop
      vertex -56.23743686707646 -15.762563132923542 25.2
      vertex -56.23743686707646 -15.762563132923542 23
      vertex -56.51554445662277 -16.125 23
    endloop
  endfacet
  facet normal -0.6087614290087193 0.793353340291236 0
    outer loop
      vertex -55.875 -15.484455543377232 25.2
      vertex -55.875 -15.484455543377232 23
      vertex -56.23743686707646 -15.762563132923542 23
    endloop
  endfacet
  facet normal -0.38268343236508784 0.9238795325112875 0
    outer loop
      vertex -55.45293332892941 -15.309629803994131 25.2
      vertex -55.45293332892941 -15.309629803994131 23
      vertex -55.875 -15.484455543377232 23
    endloop
  endfacet
  facet normal -0.9914448613738113 0.1305261922200449 0
    outer loop
      vertex -56.75 -17 25.2
      vertex -56.69037019600587 -16.54706667107059 25.2
      vertex -56.75 -17 23
    endloop
  endfacet
  facet normal -0.9238795325112861 0.3826834323650911 0
    outer loop
      vertex -56.69037019600587 -16.54706667107059 25.2
      vertex -56.51554445662277 -16.125 25.2
      vertex -56.69037019600587 -16.54706667107059 23
    endloop
  endfacet
  facet normal 0 0 1
    outer loop
      vertex -56.69037019600587 -17.45293332892941 25.2
      vertex -56.69037019600587 -16.54706667107059 25.2
      vertex -56.75 -17 25.2
    endloop
  endfacet
  facet normal 0 0 1
    outer loop
      vertex -56.69037019600587 -17.45293332892941 25.2
      vertex -56.51554445662277 -16.125 25.2
      vertex -56.69037019600587 -16.54706667107059 25.2
    endloop
  endfacet
  facet normal 0 0 1
    outer loop
      vertex -56.51554445662277 -17.875 25.2
      vertex -56.23743686707646 -15.762563132923542 25.2
      vertex -56.51554445662277 -16.125 25.2
    endloop
  endfacet
  facet normal 0 0 1
    outer loop
      vertex -56.23743686707646 -18.237436867076458 25.2
      vertex -55.875 -15.484455543377232 25.2
      vertex -56.23743686707646 -15.762563132923542 25.2
    endloop
  endfacet
  facet normal 0 0 1
    outer loop
      vertex -55.875 -18.515544456622766 25.2
      vertex -55.45293332892941 -15.309629803994131 25.2
      vertex -55.875 -15.484455543377232 25.2
    endloop
  endfacet
  facet normal 0 0 1
    outer loop
      vertex -55.45293332892941 -18.69037019600587 25.2
      vertex -55 -15.25 25.2
      vertex -55.45293332892941 -15.309629803994131 25.2
    endloop
  endfacet
  facet normal -0.793353340291235 0.6087614290087207 0
    outer loop
      vertex -56.51554445662277 -16.125 25.2
      vertex -56.23743686707646 -15.762563132923542 25.2
      vertex -56.51554445662277 -16.125 23
    endloop
  endfacet
  facet normal -0.6087614290087193 0.793353340291236 0
    outer loop
      vertex -56.23743686707646 -15.762563132923542 25.2
      vertex -55.875 -15.484455543377232 25.2
      vertex -56.23743686707646 -15.762563132923542 23
    endloop
  endfacet
  facet normal -0.38268343236508784 0.9238795325112875 0
    outer loop
      vertex -55.875 -15.484455543377232 25.2
      vertex -55.45293332892941 -15.309629803994131 25.2
      vertex -55.875 -15.484455543377232 23
    endloop
  endfacet
  facet normal -0.13052619222005257 0.9914448613738102 0
    outer loop
      vertex -55.45293332892941 -15.309629803994131 25.2
      vertex -55 -15.25 25.2
      vertex -55.45293332892941 -15.309629803994131 23
    endloop
  endfacet
  facet normal -0.13052619222005257 0.9914448613738102 0
    outer loop
      vertex -55 -15.25 25.2
      vertex -55 -15.25 23
      vertex -55.45293332892941 -15.309629803994131 23
    endloop
  endfacet
  facet normal 0 0 1
    outer loop
      vertex -55 -18.75 25.2
      vertex -49 -15.25 25.2
      vertex -55 -15.25 25.2
    endloop
  endfacet
  facet normal 0 1 0
    outer loop
      vertex -55 -15.25 25.2
      vertex -49 -15.25 25.2
      vertex -55 -15.25 23
    endloop
  endfacet
  facet normal 0.13052619222005257 -0.9914448613738102 0
    outer loop
      vertex -49 -18.75 25.2
      vertex -49 -18.75 23
      vertex -48.54706667107059 -18.69037019600587 23
    endloop
  endfacet
  facet normal 0 -1 0
    outer loop
      vertex -55 -18.75 25.2
      vertex -49 -18.75 23
      vertex -49 -18.75 25.2
    endloop
  endfacet
  facet normal 0 0 1
    outer loop
      vertex -55 -18.75 25.2
      vertex -49 -18.75 25.2
      vertex -49 -15.25 25.2
    endloop
  endfacet
  facet normal 0.3826834323650911 -0.9238795325112861 0
    outer loop
      vertex -48.54706667107059 -18.69037019600587 25.2
      vertex -48.54706667107059 -18.69037019600587 23
      vertex -48.125 -18.515544456622766 23
    endloop
  endfacet
  facet normal 0.6087614290087169 -0.793353340291238 0
    outer loop
      vertex -48.125 -18.515544456622766 25.2
      vertex -48.125 -18.515544456622766 23
      vertex -47.76256313292354 -18.237436867076458 23
    endloop
  endfacet
  facet normal 0.793353340291235 -0.6087614290087207 0
    outer loop
      vertex -47.76256313292354 -18.237436867076458 25.2
      vertex -47.76256313292354 -18.237436867076458 23
      vertex -47.48445554337723 -17.875 23
    endloop
  endfacet
  facet normal 0.9238795325112861 -0.3826834323650911 0
    outer loop
      vertex -47.48445554337723 -17.875 25.2
      vertex -47.48445554337723 -17.875 23
      vertex -47.30962980399413 -17.45293332892941 23
    endloop
  endfacet
  facet normal 0.9914448613738113 -0.1305261922200449 0
    outer loop
      vertex -47.30962980399413 -17.45293332892941 25.2
      vertex -47.30962980399413 -17.45293332892941 23
      vertex -47.25 -17 23
    endloop
  endfacet
  facet normal 0.13052619222005257 -0.9914448613738102 0
    outer loop
      vertex -49 -18.75 25.2
      vertex -48.54706667107059 -18.69037019600587 23
      vertex -48.54706667107059 -18.69037019600587 25.2
    endloop
  endfacet
  facet normal 0.3826834323650911 -0.9238795325112861 0
    outer loop
      vertex -48.54706667107059 -18.69037019600587 25.2
      vertex -48.125 -18.515544456622766 23
      vertex -48.125 -18.515544456622766 25.2
    endloop
  endfacet
  facet normal 0.6087614290087169 -0.793353340291238 0
    outer loop
      vertex -48.125 -18.515544456622766 25.2
      vertex -47.76256313292354 -18.237436867076458 23
      vertex -47.76256313292354 -18.237436867076458 25.2
    endloop
  endfacet
  facet normal 0.793353340291235 -0.6087614290087207 0
    outer loop
      vertex -47.76256313292354 -18.237436867076458 25.2
      vertex -47.48445554337723 -17.875 23
      vertex -47.48445554337723 -17.875 25.2
    endloop
  endfacet
  facet normal 0.9238795325112861 -0.3826834323650911 0
    outer loop
      vertex -47.48445554337723 -17.875 25.2
      vertex -47.30962980399413 -17.45293332892941 23
      vertex -47.30962980399413 -17.45293332892941 25.2
    endloop
  endfacet
  facet normal 0.9914448613738113 -0.1305261922200449 0
    outer loop
      vertex -47.30962980399413 -17.45293332892941 25.2
      vertex -47.25 -17 23
      vertex -47.25 -17 25.2
    endloop
  endfacet
  facet normal 0 0 1
    outer loop
      vertex -49 -18.75 25.2
      vertex -48.54706667107059 -18.69037019600587 25.2
      vertex -48.54706667107059 -15.309629803994131 25.2
    endloop
  endfacet
  facet normal 0 0 1
    outer loop
      vertex -48.54706667107059 -18.69037019600587 25.2
      vertex -48.125 -18.515544456622766 25.2
      vertex -48.125 -15.484455543377232 25.2
    endloop
  endfacet
  facet normal 0 0 1
    outer loop
      vertex -48.125 -18.515544456622766 25.2
      vertex -47.76256313292354 -18.237436867076458 25.2
      vertex -47.76256313292354 -15.762563132923542 25.2
    endloop
  endfacet
  facet normal 0 0 1
    outer loop
      vertex -47.76256313292354 -18.237436867076458 25.2
      vertex -47.48445554337723 -17.875 25.2
      vertex -47.48445554337723 -16.125 25.2
    endloop
  endfacet
  facet normal 0 0 1
    outer loop
      vertex -47.48445554337723 -17.875 25.2
      vertex -47.30962980399413 -17.45293332892941 25.2
      vertex -47.30962980399413 -16.54706667107059 25.2
    endloop
  endfacet
  facet normal 0 0 1
    outer loop
      vertex -49 -18.75 25.2
      vertex -48.54706667107059 -15.309629803994131 25.2
      vertex -49 -15.25 25.2
    endloop
  endfacet
  facet normal 0.13052619222005257 0.9914448613738102 0
    outer loop
      vertex -49 -15.25 25.2
      vertex -48.54706667107059 -15.309629803994131 25.2
      vertex -49 -15.25 23
    endloop
  endfacet
  facet normal 0 1 0
    outer loop
      vertex -49 -15.25 25.2
      vertex -49 -15.25 23
      vertex -55 -15.25 23
    endloop
  endfacet
  facet normal 0.9914448613738113 0.1305261922200449 0
    outer loop
      vertex -47.25 -17 25.2
      vertex -47.25 -17 23
      vertex -47.30962980399413 -16.54706667107059 23
    endloop
  endfacet
  facet normal 0.9238795325112861 0.3826834323650911 0
    outer loop
      vertex -47.30962980399413 -16.54706667107059 25.2
      vertex -47.30962980399413 -16.54706667107059 23
      vertex -47.48445554337723 -16.125 23
    endloop
  endfacet
  facet normal 0.13052619222005257 0.9914448613738102 0
    outer loop
      vertex -48.54706667107059 -15.309629803994131 25.2
      vertex -48.54706667107059 -15.309629803994131 23
      vertex -49 -15.25 23
    endloop
  endfacet
  facet normal 0.38268343236508784 0.9238795325112875 0
    outer loop
      vertex -48.125 -15.484455543377232 25.2
      vertex -48.125 -15.484455543377232 23
      vertex -48.54706667107059 -15.309629803994131 23
    endloop
  endfacet
  facet normal 0.793353340291235 0.6087614290087207 0
    outer loop
      vertex -47.48445554337723 -16.125 25.2
      vertex -47.48445554337723 -16.125 23
      vertex -47.76256313292354 -15.762563132923542 23
    endloop
  endfacet
  facet normal 0.6087614290087193 0.793353340291236 0
    outer loop
      vertex -47.76256313292354 -15.762563132923542 25.2
      vertex -47.76256313292354 -15.762563132923542 23
      vertex -48.125 -15.484455543377232 23
    endloop
  endfacet
  facet normal 0.9914448613738113 0.1305261922200449 0
    outer loop
      vertex -47.25 -17 25.2
      vertex -47.30962980399413 -16.54706667107059 23
      vertex -47.30962980399413 -16.54706667107059 25.2
    endloop
  endfacet
  facet normal 0.9238795325112861 0.3826834323650911 0
    outer loop
      vertex -47.30962980399413 -16.54706667107059 25.2
      vertex -47.48445554337723 -16.125 23
      vertex -47.48445554337723 -16.125 25.2
    endloop
  endfacet
  facet normal 0 0 1
    outer loop
      vertex -48.125 -18.515544456622766 25.2
      vertex -47.76256313292354 -15.762563132923542 25.2
      vertex -48.125 -15.484455543377232 25.2
    endloop
  endfacet
  facet normal 0 0 1
    outer loop
      vertex -48.54706667107059 -18.69037019600587 25.2
      vertex -48.125 -15.484455543377232 25.2
      vertex -48.54706667107059 -15.309629803994131 25.2
    endloop
  endfacet
  facet normal 0 0 1
    outer loop
      vertex -47.76256313292354 -18.237436867076458 25.2
      vertex -47.48445554337723 -16.125 25.2
      vertex -47.76256313292354 -15.762563132923542 25.2
    endloop
  endfacet
  facet normal 0 0 1
    outer loop
      vertex -47.48445554337723 -17.875 25.2
      vertex -47.30962980399413 -16.54706667107059 25.2
      vertex -47.48445554337723 -16.125 25.2
    endloop
  endfacet
  facet normal 0 0 1
    outer loop
      vertex -47.30962980399413 -17.45293332892941 25.2
      vertex -47.25 -17 25.2
      vertex -47.30962980399413 -16.54706667107059 25.2
    endloop
  endfacet
  facet normal 0.38268343236508784 0.9238795325112875 0
    outer loop
      vertex -48.54706667107059 -15.309629803994131 25.2
      vertex -48.125 -15.484455543377232 25.2
      vertex -48.54706667107059 -15.309629803994131 23
    endloop
  endfacet
  facet normal 0.6087614290087193 0.793353340291236 0
    outer loop
      vertex -47.76256313292354 -15.762563132923542 25.2
      vertex -48.125 -15.484455543377232 23
      vertex -48.125 -15.484455543377232 25.2
    endloop
  endfacet
  facet normal 0.793353340291235 0.6087614290087207 0
    outer loop
      vertex -47.48445554337723 -16.125 25.2
      vertex -47.76256313292354 -15.762563132923542 23
      vertex -47.76256313292354 -15.762563132923542 25.2
    endloop
  endfacet
  facet normal -0.6087614290087232 -0.7933533402912333 0
    outer loop
      vertex -57.474873734152915 -19.474873734152915 22.2
      vertex -56.75 -20.031088913245537 22.2
      vertex -57.474873734152915 -19.474873734152915 23
    endloop
  endfacet
  facet normal -0.793353340291235 -0.6087614290087207 0
    outer loop
      vertex -57.474873734152915 -19.474873734152915 22.2
      vertex -58.03108891324553 -18.75 23
      vertex -58.03108891324553 -18.75 22.2
    endloop
  endfacet
  facet normal -0.38268343236508784 -0.9238795325112875 0
    outer loop
      vertex -56.75 -20.031088913245537 22.2
      vertex -55.90586665785882 -20.380740392011738 22.2
      vertex -56.75 -20.031088913245537 23
    endloop
  endfacet
  facet normal -0.1305261922200526 -0.9914448613738103 0
    outer loop
      vertex -55.90586665785882 -20.380740392011738 22.2
      vertex -55 -20.5 22.2
      vertex -55.90586665785882 -20.380740392011738 23
    endloop
  endfacet
  facet normal -0.9238795325112862 -0.3826834323650911 0
    outer loop
      vertex -58.03108891324553 -18.75 22.2
      vertex -58.38074039201174 -17.905866657858823 23
      vertex -58.38074039201174 -17.905866657858823 22.2
    endloop
  endfacet
  facet normal 0 0 -1
    outer loop
      vertex -58.03108891324553 -18.75 22.2
      vertex -58.38074039201174 -17.905866657858823 22.2
      vertex -58.03108891324553 -15.25 22.2
    endloop
  endfacet
  facet normal -0.9914448613738103 -0.1305261922200526 0
    outer loop
      vertex -58.38074039201174 -17.905866657858823 22.2
      vertex -58.5 -17 23
      vertex -58.5 -17 22.2
    endloop
  endfacet
  facet normal 0 0 -1
    outer loop
      vertex -57.474873734152915 -19.474873734152915 22.2
      vertex -58.03108891324553 -18.75 22.2
      vertex -57.474873734152915 -14.525126265847083 22.2
    endloop
  endfacet
  facet normal 0 0 -1
    outer loop
      vertex -57.474873734152915 -19.474873734152915 22.2
      vertex -56.75 -13.968911086754465 22.2
      vertex -56.75 -20.031088913245537 22.2
    endloop
  endfacet
  facet normal 0 0 -1
    outer loop
      vertex -56.75 -20.031088913245537 22.2
      vertex -55.90586665785882 -13.619259607988262 22.2
      vertex -55.90586665785882 -20.380740392011738 22.2
    endloop
  endfacet
  facet normal 0 0 -1
    outer loop
      vertex -55.90586665785882 -20.380740392011738 22.2
      vertex -55 -13.5 22.2
      vertex -55 -20.5 22.2
    endloop
  endfacet
  facet normal 0 -1 0
    outer loop
      vertex -55 -20.5 22.2
      vertex -49 -20.5 22.2
      vertex -55 -20.5 23
    endloop
  endfacet
  facet normal 0 0 -1
    outer loop
      vertex -55 -20.5 22.2
      vertex -52.38268343236509 -17.923879532511286 22.2
      vertex -49 -20.5 22.2
    endloop
  endfacet
  facet normal 0 0 -1
    outer loop
      vertex -55 -20.5 22.2
      vertex -53 -17 22.2
      vertex -52.923879532511286 -17.38268343236509 22.2
    endloop
  endfacet
  facet normal 0 0 -1
    outer loop
      vertex -55 -20.5 22.2
      vertex -52.923879532511286 -16.61731656763491 22.2
      vertex -53 -17 22.2
    endloop
  endfacet
  facet normal 0 0 -1
    outer loop
      vertex -55 -20.5 22.2
      vertex -52.707106781186546 -17.707106781186546 22.2
      vertex -52.38268343236509 -17.923879532511286 22.2
    endloop
  endfacet
  facet normal 0 0 -1
    outer loop
      vertex -55 -20.5 22.2
      vertex -52.923879532511286 -17.38268343236509 22.2
      vertex -52.707106781186546 -17.707106781186546 22.2
    endloop
  endfacet
  facet normal -0.6087614290087232 -0.7933533402912333 0
    outer loop
      vertex -56.75 -20.031088913245537 22.2
      vertex -56.75 -20.031088913245537 23
      vertex -57.474873734152915 -19.474873734152915 23
    endloop
  endfacet
  facet normal -0.793353340291235 -0.6087614290087207 0
    outer loop
      vertex -57.474873734152915 -19.474873734152915 22.2
      vertex -57.474873734152915 -19.474873734152915 23
      vertex -58.03108891324553 -18.75 23
    endloop
  endfacet
  facet normal 0 0 1
    outer loop
      vertex -57.474873734152915 -19.474873734152915 23
      vertex -56.75 -20.031088913245537 23
      vertex -56.75 -17 23
    endloop
  endfacet
  facet normal -0.38268343236508784 -0.9238795325112875 0
    outer loop
      vertex -55.90586665785882 -20.380740392011738 22.2
      vertex -55.90586665785882 -20.380740392011738 23
      vertex -56.75 -20.031088913245537 23
    endloop
  endfacet
  facet normal 0 0 1
    outer loop
      vertex -56.75 -20.031088913245537 23
      vertex -55.90586665785882 -20.380740392011738 23
      vertex -55.875 -18.515544456622766 23
    endloop
  endfacet
  facet normal -0.1305261922200526 -0.9914448613738103 0
    outer loop
      vertex -55 -20.5 22.2
      vertex -55 -20.5 23
      vertex -55.90586665785882 -20.380740392011738 23
    endloop
  endfacet
  facet normal 0 0 1
    outer loop
      vertex -55.90586665785882 -20.380740392011738 23
      vertex -55 -20.5 23
      vertex -55.45293332892941 -18.69037019600587 23
    endloop
  endfacet
  facet normal 0 0 1
    outer loop
      vertex -56.75 -20.031088913245537 23
      vertex -55.875 -18.515544456622766 23
      vertex -56.23743686707646 -18.237436867076458 23
    endloop
  endfacet
  facet normal 0 0 1
    outer loop
      vertex -55.90586665785882 -20.380740392011738 23
      vertex -55.45293332892941 -18.69037019600587 23
      vertex -55.875 -18.515544456622766 23
    endloop
  endfacet
  facet normal -0.9238795325112862 -0.3826834323650911 0
    outer loop
      vertex -58.03108891324553 -18.75 22.2
      vertex -58.03108891324553 -18.75 23
      vertex -58.38074039201174 -17.905866657858823 23
    endloop
  endfacet
  facet normal -0.9914448613738103 -0.1305261922200526 0
    outer loop
      vertex -58.38074039201174 -17.905866657858823 22.2
      vertex -58.38074039201174 -17.905866657858823 23
      vertex -58.5 -17 23
    endloop
  endfacet
  facet normal 0 0 1
    outer loop
      vertex -58.03108891324553 -18.75 23
      vertex -58.03108891324553 -15.25 23
      vertex -58.38074039201174 -17.905866657858823 23
    endloop
  endfacet
  facet normal 0 0 1
    outer loop
      vertex -57.474873734152915 -19.474873734152915 23
      vertex -57.474873734152915 -14.525126265847083 23
      vertex -58.03108891324553 -18.75 23
    endloop
  endfacet
  facet normal 0 0 1
    outer loop
      vertex -56.75 -20.031088913245537 23
      vertex -56.23743686707646 -18.237436867076458 23
      vertex -56.51554445662277 -17.875 23
    endloop
  endfacet
  facet normal 0 0 1
    outer loop
      vertex -56.75 -20.031088913245537 23
      vertex -56.51554445662277 -17.875 23
      vertex -56.69037019600587 -17.45293332892941 23
    endloop
  endfacet
  facet normal 0 0 1
    outer loop
      vertex -56.75 -20.031088913245537 23
      vertex -56.69037019600587 -17.45293332892941 23
      vertex -56.75 -17 23
    endloop
  endfacet
  facet normal 0 0 1
    outer loop
      vertex -55 -20.5 23
      vertex -55 -18.75 23
      vertex -55.45293332892941 -18.69037019600587 23
    endloop
  endfacet
  facet normal 0 0 1
    outer loop
      vertex -55 -20.5 23
      vertex -49 -18.75 23
      vertex -55 -18.75 23
    endloop
  endfacet
  facet normal 0 0 -1
    outer loop
      vertex -58.38074039201174 -17.905866657858823 22.2
      vertex -58.5 -17 22.2
      vertex -58.38074039201174 -16.094133342141177 22.2
    endloop
  endfacet
  facet normal 0 0 -1
    outer loop
      vertex -58.38074039201174 -17.905866657858823 22.2
      vertex -58.38074039201174 -16.094133342141177 22.2
      vertex -58.03108891324553 -15.25 22.2
    endloop
  endfacet
  facet normal 0 0 -1
    outer loop
      vertex -58.03108891324553 -18.75 22.2
      vertex -58.03108891324553 -15.25 22.2
      vertex -57.474873734152915 -14.525126265847083 22.2
    endloop
  endfacet
  facet normal -0.9914448613738103 0.1305261922200526 0
    outer loop
      vertex -58.5 -17 22.2
      vertex -58.38074039201174 -16.094133342141177 23
      vertex -58.38074039201174 -16.094133342141177 22.2
    endloop
  endfacet
  facet normal -0.9238795325112862 0.3826834323650911 0
    outer loop
      vertex -58.38074039201174 -16.094133342141177 22.2
      vertex -58.03108891324553 -15.25 23
      vertex -58.03108891324553 -15.25 22.2
    endloop
  endfacet
  facet normal 0 0 -1
    outer loop
      vertex -57.474873734152915 -19.474873734152915 22.2
      vertex -57.474873734152915 -14.525126265847083 22.2
      vertex -56.75 -13.968911086754465 22.2
    endloop
  endfacet
  facet normal 0 0 -1
    outer loop
      vertex -56.75 -20.031088913245537 22.2
      vertex -56.75 -13.968911086754465 22.2
      vertex -55.90586665785882 -13.619259607988262 22.2
    endloop
  endfacet
  facet normal 0 0 -1
    outer loop
      vertex -55.90586665785882 -20.380740392011738 22.2
      vertex -55.90586665785882 -13.619259607988262 22.2
      vertex -55 -13.5 22.2
    endloop
  endfacet
  facet normal -0.7933533402912358 0.6087614290087198 0
    outer loop
      vertex -58.03108891324553 -15.25 22.2
      vertex -57.474873734152915 -14.525126265847083 23
      vertex -57.474873734152915 -14.525126265847083 22.2
    endloop
  endfacet
  facet normal -0.6087614290087207 0.793353340291235 0
    outer loop
      vertex -57.474873734152915 -14.525126265847083 22.2
      vertex -56.75 -13.968911086754465 23
      vertex -56.75 -13.968911086754465 22.2
    endloop
  endfacet
  facet normal -0.3826834323650895 0.9238795325112868 0
    outer loop
      vertex -56.75 -13.968911086754465 22.2
      vertex -55.90586665785882 -13.619259607988262 23
      vertex -55.90586665785882 -13.619259607988262 22.2
    endloop
  endfacet
  facet normal -0.1305261922200526 0.9914448613738103 0
    outer loop
      vertex -55.90586665785882 -13.619259607988262 22.2
      vertex -55 -13.5 23
      vertex -55 -13.5 22.2
    endloop
  endfacet
  facet normal 0 0 -1
    outer loop
      vertex -55 -20.5 22.2
      vertex -55 -13.5 22.2
      vertex -52.923879532511286 -16.61731656763491 22.2
    endloop
  endfacet
  facet normal 0 0 -1
    outer loop
      vertex -55 -13.5 22.2
      vertex -52.707106781186546 -16.292893218813454 22.2
      vertex -52.923879532511286 -16.61731656763491 22.2
    endloop
  endfacet
  facet normal 0 0 -1
    outer loop
      vertex -55 -13.5 22.2
      vertex -52.38268343236509 -16.076120467488714 22.2
      vertex -52.707106781186546 -16.292893218813454 22.2
    endloop
  endfacet
  facet normal 0 0 -1
    outer loop
      vertex -55 -13.5 22.2
      vertex -52 -16 22.2
      vertex -52.38268343236509 -16.076120467488714 22.2
    endloop
  endfacet
  facet normal 0 0 -1
    outer loop
      vertex -55 -13.5 22.2
      vertex -51.61731656763491 -16.076120467488714 22.2
      vertex -52 -16 22.2
    endloop
  endfacet
  facet normal 0 0 1
    outer loop
      vertex -58.38074039201174 -17.905866657858823 23
      vertex -58.38074039201174 -16.094133342141177 23
      vertex -58.5 -17 23
    endloop
  endfacet
  facet normal -0.9914448613738103 0.1305261922200526 0
    outer loop
      vertex -58.5 -17 22.2
      vertex -58.5 -17 23
      vertex -58.38074039201174 -16.094133342141177 23
    endloop
  endfacet
  facet normal 0 0 1
    outer loop
      vertex -58.38074039201174 -17.905866657858823 23
      vertex -58.03108891324553 -15.25 23
      vertex -58.38074039201174 -16.094133342141177 23
    endloop
  endfacet
  facet normal 0 0 1
    outer loop
      vertex -58.03108891324553 -18.75 23
      vertex -57.474873734152915 -14.525126265847083 23
      vertex -58.03108891324553 -15.25 23
    endloop
  endfacet
  facet normal 0 0 1
    outer loop
      vertex -57.474873734152915 -19.474873734152915 23
      vertex -56.75 -17 23
      vertex -56.75 -13.968911086754465 23
    endloop
  endfacet
  facet normal -0.9238795325112862 0.3826834323650911 0
    outer loop
      vertex -58.38074039201174 -16.094133342141177 22.2
      vertex -58.38074039201174 -16.094133342141177 23
      vertex -58.03108891324553 -15.25 23
    endloop
  endfacet
  facet normal 0 0 1
    outer loop
      vertex -57.474873734152915 -19.474873734152915 23
      vertex -56.75 -13.968911086754465 23
      vertex -57.474873734152915 -14.525126265847083 23
    endloop
  endfacet
  facet normal 0 0 1
    outer loop
      vertex -56.75 -13.968911086754465 23
      vertex -56.75 -17 23
      vertex -56.69037019600587 -16.54706667107059 23
    endloop
  endfacet
  facet normal 0 0 1
    outer loop
      vertex -56.75 -13.968911086754465 23
      vertex -56.69037019600587 -16.54706667107059 23
      vertex -56.51554445662277 -16.125 23
    endloop
  endfacet
  facet normal 0 0 1
    outer loop
      vertex -56.75 -13.968911086754465 23
      vertex -56.51554445662277 -16.125 23
      vertex -56.23743686707646 -15.762563132923542 23
    endloop
  endfacet
  facet normal -0.7933533402912358 0.6087614290087198 0
    outer loop
      vertex -58.03108891324553 -15.25 22.2
      vertex -58.03108891324553 -15.25 23
      vertex -57.474873734152915 -14.525126265847083 23
    endloop
  endfacet
  facet normal -0.6087614290087207 0.793353340291235 0
    outer loop
      vertex -57.474873734152915 -14.525126265847083 22.2
      vertex -57.474873734152915 -14.525126265847083 23
      vertex -56.75 -13.968911086754465 23
    endloop
  endfacet
  facet normal 0 0 1
    outer loop
      vertex -56.75 -13.968911086754465 23
      vertex -56.23743686707646 -15.762563132923542 23
      vertex -55.90586665785882 -13.619259607988262 23
    endloop
  endfacet
  facet normal 0 0 1
    outer loop
      vertex -55.90586665785882 -13.619259607988262 23
      vertex -56.23743686707646 -15.762563132923542 23
      vertex -55.875 -15.484455543377232 23
    endloop
  endfacet
  facet normal 0 0 1
    outer loop
      vertex -55.90586665785882 -13.619259607988262 23
      vertex -55.875 -15.484455543377232 23
      vertex -55.45293332892941 -15.309629803994131 23
    endloop
  endfacet
  facet normal -0.3826834323650895 0.9238795325112868 0
    outer loop
      vertex -56.75 -13.968911086754465 22.2
      vertex -56.75 -13.968911086754465 23
      vertex -55.90586665785882 -13.619259607988262 23
    endloop
  endfacet
  facet normal 0 0 1
    outer loop
      vertex -55.90586665785882 -13.619259607988262 23
      vertex -55.45293332892941 -15.309629803994131 23
      vertex -55 -13.5 23
    endloop
  endfacet
  facet normal -0.1305261922200526 0.9914448613738103 0
    outer loop
      vertex -55.90586665785882 -13.619259607988262 22.2
      vertex -55.90586665785882 -13.619259607988262 23
      vertex -55 -13.5 23
    endloop
  endfacet
  facet normal 0 0 1
    outer loop
      vertex -55 -13.5 23
      vertex -55.45293332892941 -15.309629803994131 23
      vertex -55 -15.25 23
    endloop
  endfacet
  facet normal 0 0 1
    outer loop
      vertex -55 -13.5 23
      vertex -55 -15.25 23
      vertex -49 -13.5 23
    endloop
  endfacet
  facet normal 0 1 0
    outer loop
      vertex -55 -13.5 22.2
      vertex -55 -13.5 23
      vertex -49 -13.5 23
    endloop
  endfacet
  facet normal 0 0 -1
    outer loop
      vertex -49 -20.5 22.2
      vertex -52.38268343236509 -17.923879532511286 22.2
      vertex -52 -18 22.2
    endloop
  endfacet
  facet normal 0 0 -1
    outer loop
      vertex -49 -20.5 22.2
      vertex -52 -18 22.2
      vertex -51.61731656763491 -17.923879532511286 22.2
    endloop
  endfacet
  facet normal 0 0 -1
    outer loop
      vertex -49 -20.5 22.2
      vertex -51.61731656763491 -17.923879532511286 22.2
      vertex -51.292893218813454 -17.707106781186546 22.2
    endloop
  endfacet
  facet normal 0 0 -1
    outer loop
      vertex -49 -20.5 22.2
      vertex -51.292893218813454 -17.707106781186546 22.2
      vertex -51.076120467488714 -17.38268343236509 22.2
    endloop
  endfacet
  facet normal 0 0 -1
    outer loop
      vertex -49 -20.5 22.2
      vertex -51.076120467488714 -17.38268343236509 22.2
      vertex -49 -13.5 22.2
    endloop
  endfacet
  facet normal 0.1305261922200526 -0.9914448613738103 0
    outer loop
      vertex -49 -20.5 22.2
      vertex -48.09413334214118 -20.380740392011738 22.2
      vertex -49 -20.5 23
    endloop
  endfacet
  facet normal 0.38268343236508784 -0.9238795325112875 0
    outer loop
      vertex -48.09413334214118 -20.380740392011738 22.2
      vertex -47.25 -20.031088913245537 22.2
      vertex -48.09413334214118 -20.380740392011738 23
    endloop
  endfacet
  facet normal 0.6087614290087232 -0.7933533402912333 0
    outer loop
      vertex -47.25 -20.031088913245537 22.2
      vertex -46.525126265847085 -19.474873734152915 22.2
      vertex -47.25 -20.031088913245537 23
    endloop
  endfacet
  facet normal 0.793353340291235 -0.6087614290087207 0
    outer loop
      vertex -46.525126265847085 -19.474873734152915 22.2
      vertex -45.96891108675447 -18.75 22.2
      vertex -46.525126265847085 -19.474873734152915 23
    endloop
  endfacet
  facet normal 0 0 -1
    outer loop
      vertex -49 -20.5 22.2
      vertex -48.09413334214118 -13.619259607988262 22.2
      vertex -48.09413334214118 -20.380740392011738 22.2
    endloop
  endfacet
  facet normal 0 0 -1
    outer loop
      vertex -48.09413334214118 -20.380740392011738 22.2
      vertex -47.25 -13.968911086754465 22.2
      vertex -47.25 -20.031088913245537 22.2
    endloop
  endfacet
  facet normal 0 0 -1
    outer loop
      vertex -47.25 -20.031088913245537 22.2
      vertex -46.525126265847085 -14.525126265847083 22.2
      vertex -46.525126265847085 -19.474873734152915 22.2
    endloop
  endfacet
  facet normal 0.9238795325112862 -0.3826834323650911 0
    outer loop
      vertex -45.96891108675447 -18.75 22.2
      vertex -45.61925960798826 -17.905866657858823 22.2
      vertex -45.96891108675447 -18.75 23
    endloop
  endfacet
  facet normal 0 0 -1
    outer loop
      vertex -46.525126265847085 -19.474873734152915 22.2
      vertex -45.96891108675447 -15.25 22.2
      vertex -45.96891108675447 -18.75 22.2
    endloop
  endfacet
  facet normal 0 0 -1
    outer loop
      vertex -45.96891108675447 -18.75 22.2
      vertex -45.61925960798826 -16.094133342141177 22.2
      vertex -45.61925960798826 -17.905866657858823 22.2
    endloop
  endfacet
  facet normal 0.9914448613738103 -0.1305261922200526 0
    outer loop
      vertex -45.61925960798826 -17.905866657858823 22.2
      vertex -45.5 -17 22.2
      vertex -45.61925960798826 -17.905866657858823 23
    endloop
  endfacet
  facet normal 0 -1 0
    outer loop
      vertex -55 -20.5 23
      vertex -49 -20.5 22.2
      vertex -49 -20.5 23
    endloop
  endfacet
  facet normal 0 0 1
    outer loop
      vertex -55 -20.5 23
      vertex -49 -20.5 23
      vertex -49 -18.75 23
    endloop
  endfacet
  facet normal 0 0 1
    outer loop
      vertex -49 -20.5 23
      vertex -48.54706667107059 -18.69037019600587 23
      vertex -49 -18.75 23
    endloop
  endfacet
  facet normal 0.1305261922200526 -0.9914448613738103 0
    outer loop
      vertex -48.09413334214118 -20.380740392011738 22.2
      vertex -48.09413334214118 -20.380740392011738 23
      vertex -49 -20.5 23
    endloop
  endfacet
  facet normal 0 0 1
    outer loop
      vertex -49 -20.5 23
      vertex -48.09413334214118 -20.380740392011738 23
      vertex -48.54706667107059 -18.69037019600587 23
    endloop
  endfacet
  facet normal 0.38268343236508784 -0.9238795325112875 0
    outer loop
      vertex -47.25 -20.031088913245537 22.2
      vertex -47.25 -20.031088913245537 23
      vertex -48.09413334214118 -20.380740392011738 23
    endloop
  endfacet
  facet normal 0 0 1
    outer loop
      vertex -48.09413334214118 -20.380740392011738 23
      vertex -48.125 -18.515544456622766 23
      vertex -48.54706667107059 -18.69037019600587 23
    endloop
  endfacet
  facet normal 0 0 1
    outer loop
      vertex -48.09413334214118 -20.380740392011738 23
      vertex -47.76256313292354 -18.237436867076458 23
      vertex -48.125 -18.515544456622766 23
    endloop
  endfacet
  facet normal 0 0 1
    outer loop
      vertex -48.09413334214118 -20.380740392011738 23
      vertex -47.25 -20.031088913245537 23
      vertex -47.76256313292354 -18.237436867076458 23
    endloop
  endfacet
  facet normal 0.6087614290087232 -0.7933533402912333 0
    outer loop
      vertex -46.525126265847085 -19.474873734152915 22.2
      vertex -46.525126265847085 -19.474873734152915 23
      vertex -47.25 -20.031088913245537 23
    endloop
  endfacet
  facet normal 0.793353340291235 -0.6087614290087207 0
    outer loop
      vertex -45.96891108675447 -18.75 22.2
      vertex -45.96891108675447 -18.75 23
      vertex -46.525126265847085 -19.474873734152915 23
    endloop
  endfacet
  facet normal 0 0 1
    outer loop
      vertex -47.25 -20.031088913245537 23
      vertex -47.48445554337723 -17.875 23
      vertex -47.76256313292354 -18.237436867076458 23
    endloop
  endfacet
  facet normal 0 0 1
    outer loop
      vertex -47.25 -20.031088913245537 23
      vertex -47.30962980399413 -17.45293332892941 23
      vertex -47.48445554337723 -17.875 23
    endloop
  endfacet
  facet normal 0 0 1
    outer loop
      vertex -47.25 -20.031088913245537 23
      vertex -47.25 -17 23
      vertex -47.30962980399413 -17.45293332892941 23
    endloop
  endfacet
  facet normal 0 0 1
    outer loop
      vertex -47.25 -20.031088913245537 23
      vertex -46.525126265847085 -19.474873734152915 23
      vertex -46.525126265847085 -14.525126265847083 23
    endloop
  endfacet
  facet normal 0.9238795325112862 -0.3826834323650911 0
    outer loop
      vertex -45.61925960798826 -17.905866657858823 22.2
      vertex -45.61925960798826 -17.905866657858823 23
      vertex -45.96891108675447 -18.75 23
    endloop
  endfacet
  facet normal 0 0 1
    outer loop
      vertex -47.25 -20.031088913245537 23
      vertex -46.525126265847085 -14.525126265847083 23
      vertex -47.25 -17 23
    endloop
  endfacet
  facet normal 0 0 1
    outer loop
      vertex -46.525126265847085 -19.474873734152915 23
      vertex -45.96891108675447 -18.75 23
      vertex -45.96891108675447 -15.25 23
    endloop
  endfacet
  facet normal 0 0 1
    outer loop
      vertex -45.96891108675447 -18.75 23
      vertex -45.61925960798826 -17.905866657858823 23
      vertex -45.61925960798826 -16.094133342141177 23
    endloop
  endfacet
  facet normal 0.9914448613738103 -0.1305261922200526 0
    outer loop
      vertex -45.61925960798826 -17.905866657858823 23
      vertex -45.5 -17 22.2
      vertex -45.5 -17 23
    endloop
  endfacet
  facet normal 0 0 -1
    outer loop
      vertex -49 -13.5 22.2
      vertex -51.076120467488714 -16.61731656763491 22.2
      vertex -51.292893218813454 -16.292893218813454 22.2
    endloop
  endfacet
  facet normal 0 0 -1
    outer loop
      vertex -49 -13.5 22.2
      vertex -51.292893218813454 -16.292893218813454 22.2
      vertex -51.61731656763491 -16.076120467488714 22.2
    endloop
  endfacet
  facet normal 0 0 -1
    outer loop
      vertex -49 -13.5 22.2
      vertex -51.076120467488714 -17.38268343236509 22.2
      vertex -51 -17 22.2
    endloop
  endfacet
  facet normal 0 0 -1
    outer loop
      vertex -49 -13.5 22.2
      vertex -51 -17 22.2
      vertex -51.076120467488714 -16.61731656763491 22.2
    endloop
  endfacet
  facet normal 0 0 -1
    outer loop
      vertex -55 -13.5 22.2
      vertex -49 -13.5 22.2
      vertex -51.61731656763491 -16.076120467488714 22.2
    endloop
  endfacet
  facet normal 0 1 0
    outer loop
      vertex -55 -13.5 22.2
      vertex -49 -13.5 23
      vertex -49 -13.5 22.2
    endloop
  endfacet
  facet normal 0 0 -1
    outer loop
      vertex -49 -20.5 22.2
      vertex -49 -13.5 22.2
      vertex -48.09413334214118 -13.619259607988262 22.2
    endloop
  endfacet
  facet normal 0 0 -1
    outer loop
      vertex -48.09413334214118 -20.380740392011738 22.2
      vertex -48.09413334214118 -13.619259607988262 22.2
      vertex -47.25 -13.968911086754465 22.2
    endloop
  endfacet
  facet normal 0 0 -1
    outer loop
      vertex -47.25 -20.031088913245537 22.2
      vertex -47.25 -13.968911086754465 22.2
      vertex -46.525126265847085 -14.525126265847083 22.2
    endloop
  endfacet
  facet normal 0 0 -1
    outer loop
      vertex -46.525126265847085 -19.474873734152915 22.2
      vertex -46.525126265847085 -14.525126265847083 22.2
      vertex -45.96891108675447 -15.25 22.2
    endloop
  endfacet
  facet normal 0 0 -1
    outer loop
      vertex -45.61925960798826 -17.905866657858823 22.2
      vertex -45.61925960798826 -16.094133342141177 22.2
      vertex -45.5 -17 22.2
    endloop
  endfacet
  facet normal 0 0 -1
    outer loop
      vertex -45.96891108675447 -18.75 22.2
      vertex -45.96891108675447 -15.25 22.2
      vertex -45.61925960798826 -16.094133342141177 22.2
    endloop
  endfacet
  facet normal 0.9914448613738103 0.1305261922200526 0
    outer loop
      vertex -45.5 -17 22.2
      vertex -45.61925960798826 -16.094133342141177 22.2
      vertex -45.5 -17 23
    endloop
  endfacet
  facet normal 0.9238795325112862 0.3826834323650911 0
    outer loop
      vertex -45.61925960798826 -16.094133342141177 22.2
      vertex -45.96891108675447 -15.25 22.2
      vertex -45.61925960798826 -16.094133342141177 23
    endloop
  endfacet
  facet normal 0.1305261922200526 0.9914448613738103 0
    outer loop
      vertex -49 -13.5 22.2
      vertex -48.09413334214118 -13.619259607988262 23
      vertex -48.09413334214118 -13.619259607988262 22.2
    endloop
  endfacet
  facet normal 0.3826834323650895 0.9238795325112868 0
    outer loop
      vertex -48.09413334214118 -13.619259607988262 22.2
      vertex -47.25 -13.968911086754465 23
      vertex -47.25 -13.968911086754465 22.2
    endloop
  endfacet
  facet normal 0.7933533402912358 0.6087614290087198 0
    outer loop
      vertex -46.525126265847085 -14.525126265847083 22.2
      vertex -45.96891108675447 -15.25 23
      vertex -45.96891108675447 -15.25 22.2
    endloop
  endfacet
  facet normal 0.6087614290087207 0.793353340291235 0
    outer loop
      vertex -47.25 -13.968911086754465 22.2
      vertex -46.525126265847085 -14.525126265847083 23
      vertex -46.525126265847085 -14.525126265847083 22.2
    endloop
  endfacet
  facet normal 0 0 1
    outer loop
      vertex -49 -13.5 23
      vertex -55 -15.25 23
      vertex -49 -15.25 23
    endloop
  endfacet
  facet normal 0 0 1
    outer loop
      vertex -49 -13.5 23
      vertex -49 -15.25 23
      vertex -48.54706667107059 -15.309629803994131 23
    endloop
  endfacet
  facet normal 0 0 1
    outer loop
      vertex -47.25 -13.968911086754465 23
      vertex -47.30962980399413 -16.54706667107059 23
      vertex -47.25 -17 23
    endloop
  endfacet
  facet normal 0 0 1
    outer loop
      vertex -47.25 -13.968911086754465 23
      vertex -47.48445554337723 -16.125 23
      vertex -47.30962980399413 -16.54706667107059 23
    endloop
  endfacet
  facet normal 0 0 1
    outer loop
      vertex -47.25 -13.968911086754465 23
      vertex -47.76256313292354 -15.762563132923542 23
      vertex -47.48445554337723 -16.125 23
    endloop
  endfacet
  facet normal 0 0 1
    outer loop
      vertex -46.525126265847085 -19.474873734152915 23
      vertex -45.96891108675447 -15.25 23
      vertex -46.525126265847085 -14.525126265847083 23
    endloop
  endfacet
  facet normal 0 0 1
    outer loop
      vertex -45.61925960798826 -17.905866657858823 23
      vertex -45.5 -17 23
      vertex -45.61925960798826 -16.094133342141177 23
    endloop
  endfacet
  facet normal 0 0 1
    outer loop
      vertex -45.96891108675447 -18.75 23
      vertex -45.61925960798826 -16.094133342141177 23
      vertex -45.96891108675447 -15.25 23
    endloop
  endfacet
  facet normal 0.9914448613738103 0.1305261922200526 0
    outer loop
      vertex -45.61925960798826 -16.094133342141177 22.2
      vertex -45.61925960798826 -16.094133342141177 23
      vertex -45.5 -17 23
    endloop
  endfacet
  facet normal 0.9238795325112862 0.3826834323650911 0
    outer loop
      vertex -45.96891108675447 -15.25 22.2
      vertex -45.96891108675447 -15.25 23
      vertex -45.61925960798826 -16.094133342141177 23
    endloop
  endfacet
  facet normal 0 0 1
    outer loop
      vertex -48.09413334214118 -13.619259607988262 23
      vertex -48.54706667107059 -15.309629803994131 23
      vertex -48.125 -15.484455543377232 23
    endloop
  endfacet
  facet normal 0 0 1
    outer loop
      vertex -47.25 -13.968911086754465 23
      vertex -48.125 -15.484455543377232 23
      vertex -47.76256313292354 -15.762563132923542 23
    endloop
  endfacet
  facet normal 0 0 1
    outer loop
      vertex -49 -13.5 23
      vertex -48.54706667107059 -15.309629803994131 23
      vertex -48.09413334214118 -13.619259607988262 23
    endloop
  endfacet
  facet normal 0.1305261922200526 0.9914448613738103 0
    outer loop
      vertex -49 -13.5 22.2
      vertex -49 -13.5 23
      vertex -48.09413334214118 -13.619259607988262 23
    endloop
  endfacet
  facet normal 0 0 1
    outer loop
      vertex -48.09413334214118 -13.619259607988262 23
      vertex -48.125 -15.484455543377232 23
      vertex -47.25 -13.968911086754465 23
    endloop
  endfacet
  facet normal 0.3826834323650895 0.9238795325112868 0
    outer loop
      vertex -48.09413334214118 -13.619259607988262 22.2
      vertex -48.09413334214118 -13.619259607988262 23
      vertex -47.25 -13.968911086754465 23
    endloop
  endfacet
  facet normal 0 0 1
    outer loop
      vertex -47.25 -13.968911086754465 23
      vertex -47.25 -17 23
      vertex -46.525126265847085 -14.525126265847083 23
    endloop
  endfacet
  facet normal 0.7933533402912358 0.6087614290087198 0
    outer loop
      vertex -46.525126265847085 -14.525126265847083 22.2
      vertex -46.525126265847085 -14.525126265847083 23
      vertex -45.96891108675447 -15.25 23
    endloop
  endfacet
  facet normal 0.6087614290087207 0.793353340291235 0
    outer loop
      vertex -47.25 -13.968911086754465 22.2
      vertex -47.25 -13.968911086754465 23
      vertex -46.525126265847085 -14.525126265847083 23
    endloop
  endfacet
  facet normal -0.19509032201612916 -0.9807852804032302 0
    outer loop
      vertex -52.38268343236509 -17.923879532511286 20.2
      vertex -52 -18 20.2
      vertex -52 -18 22.2
    endloop
  endfacet
  facet normal 0 0 -1
    outer loop
      vertex -52.38268343236509 -17.923879532511286 20.2
      vertex -52.707106781186546 -17.707106781186546 20.2
      vertex -52.38268343236509 -16.076120467488714 20.2
    endloop
  endfacet
  facet normal 0 0 -1
    outer loop
      vertex -52.707106781186546 -17.707106781186546 20.2
      vertex -52.923879532511286 -17.38268343236509 20.2
      vertex -52.707106781186546 -16.292893218813454 20.2
    endloop
  endfacet
  facet normal 0 0 -1
    outer loop
      vertex -52.38268343236509 -17.923879532511286 20.2
      vertex -52 -16 20.2
      vertex -52 -18 20.2
    endloop
  endfacet
  facet normal -0.831469612302542 -0.5555702330196071 0
    outer loop
      vertex -52.707106781186546 -17.707106781186546 20.2
      vertex -52.923879532511286 -17.38268343236509 22.2
      vertex -52.923879532511286 -17.38268343236509 20.2
    endloop
  endfacet
  facet normal -0.9807852804032302 -0.19509032201612916 0
    outer loop
      vertex -52.923879532511286 -17.38268343236509 20.2
      vertex -53 -17 22.2
      vertex -53 -17 20.2
    endloop
  endfacet
  facet normal -0.5555702330196071 -0.831469612302542 0
    outer loop
      vertex -52.38268343236509 -17.923879532511286 20.2
      vertex -52.38268343236509 -17.923879532511286 22.2
      vertex -52.707106781186546 -17.707106781186546 20.2
    endloop
  endfacet
  facet normal -0.19509032201612916 -0.9807852804032302 0
    outer loop
      vertex -52.38268343236509 -17.923879532511286 20.2
      vertex -52 -18 22.2
      vertex -52.38268343236509 -17.923879532511286 22.2
    endloop
  endfacet
  facet normal -0.9807852804032302 -0.19509032201612916 0
    outer loop
      vertex -52.923879532511286 -17.38268343236509 20.2
      vertex -52.923879532511286 -17.38268343236509 22.2
      vertex -53 -17 22.2
    endloop
  endfacet
  facet normal -0.5555702330196071 -0.831469612302542 0
    outer loop
      vertex -52.707106781186546 -17.707106781186546 20.2
      vertex -52.38268343236509 -17.923879532511286 22.2
      vertex -52.707106781186546 -17.707106781186546 22.2
    endloop
  endfacet
  facet normal -0.831469612302542 -0.5555702330196071 0
    outer loop
      vertex -52.707106781186546 -17.707106781186546 20.2
      vertex -52.707106781186546 -17.707106781186546 22.2
      vertex -52.923879532511286 -17.38268343236509 22.2
    endloop
  endfacet
  facet normal 0 0 -1
    outer loop
      vertex -52.923879532511286 -17.38268343236509 20.2
      vertex -53 -17 20.2
      vertex -52.923879532511286 -16.61731656763491 20.2
    endloop
  endfacet
  facet normal 0 0 -1
    outer loop
      vertex -52.923879532511286 -17.38268343236509 20.2
      vertex -52.923879532511286 -16.61731656763491 20.2
      vertex -52.707106781186546 -16.292893218813454 20.2
    endloop
  endfacet
  facet normal 0 0 -1
    outer loop
      vertex -52.707106781186546 -17.707106781186546 20.2
      vertex -52.707106781186546 -16.292893218813454 20.2
      vertex -52.38268343236509 -16.076120467488714 20.2
    endloop
  endfacet
  facet normal 0 0 -1
    outer loop
      vertex -52.38268343236509 -17.923879532511286 20.2
      vertex -52.38268343236509 -16.076120467488714 20.2
      vertex -52 -16 20.2
    endloop
  endfacet
  facet normal -0.9807852804032302 0.19509032201612916 0
    outer loop
      vertex -53 -17 20.2
      vertex -52.923879532511286 -16.61731656763491 22.2
      vertex -52.923879532511286 -16.61731656763491 20.2
    endloop
  endfacet
  facet normal -0.831469612302542 0.5555702330196071 0
    outer loop
      vertex -52.923879532511286 -16.61731656763491 20.2
      vertex -52.707106781186546 -16.292893218813454 22.2
      vertex -52.707106781186546 -16.292893218813454 20.2
    endloop
  endfacet
  facet normal -0.5555702330196071 0.831469612302542 0
    outer loop
      vertex -52.707106781186546 -16.292893218813454 20.2
      vertex -52.707106781186546 -16.292893218813454 22.2
      vertex -52.38268343236509 -16.076120467488714 20.2
    endloop
  endfacet
  facet normal -0.19509032201612916 0.9807852804032302 0
    outer loop
      vertex -52.38268343236509 -16.076120467488714 20.2
      vertex -52.38268343236509 -16.076120467488714 22.2
      vertex -52 -16 20.2
    endloop
  endfacet
  facet normal -0.9807852804032302 0.19509032201612916 0
    outer loop
      vertex -53 -17 20.2
      vertex -53 -17 22.2
      vertex -52.923879532511286 -16.61731656763491 22.2
    endloop
  endfacet
  facet normal -0.831469612302542 0.5555702330196071 0
    outer loop
      vertex -52.923879532511286 -16.61731656763491 20.2
      vertex -52.923879532511286 -16.61731656763491 22.2
      vertex -52.707106781186546 -16.292893218813454 22.2
    endloop
  endfacet
  facet normal -0.5555702330196071 0.831469612302542 0
    outer loop
      vertex -52.38268343236509 -16.076120467488714 20.2
      vertex -52.707106781186546 -16.292893218813454 22.2
      vertex -52.38268343236509 -16.076120467488714 22.2
    endloop
  endfacet
  facet normal -0.19509032201612916 0.9807852804032302 0
    outer loop
      vertex -52 -16 20.2
      vertex -52.38268343236509 -16.076120467488714 22.2
      vertex -52 -16 22.2
    endloop
  endfacet
  facet normal 0.19509032201612916 -0.9807852804032302 0
    outer loop
      vertex -52 -18 20.2
      vertex -51.61731656763491 -17.923879532511286 20.2
      vertex -51.61731656763491 -17.923879532511286 22.2
    endloop
  endfacet
  facet normal 0 0 -1
    outer loop
      vertex -52 -18 20.2
      vertex -51.61731656763491 -16.076120467488714 20.2
      vertex -51.61731656763491 -17.923879532511286 20.2
    endloop
  endfacet
  facet normal 0 0 -1
    outer loop
      vertex -51.61731656763491 -17.923879532511286 20.2
      vertex -51.292893218813454 -16.292893218813454 20.2
      vertex -51.292893218813454 -17.707106781186546 20.2
    endloop
  endfacet
  facet normal 0 0 -1
    outer loop
      vertex -51.292893218813454 -17.707106781186546 20.2
      vertex -51.076120467488714 -16.61731656763491 20.2
      vertex -51.076120467488714 -17.38268343236509 20.2
    endloop
  endfacet
  facet normal 0.5555702330196071 -0.831469612302542 0
    outer loop
      vertex -51.61731656763491 -17.923879532511286 20.2
      vertex -51.292893218813454 -17.707106781186546 20.2
      vertex -51.292893218813454 -17.707106781186546 22.2
    endloop
  endfacet
  facet normal 0.831469612302542 -0.5555702330196071 0
    outer loop
      vertex -51.292893218813454 -17.707106781186546 20.2
      vertex -51.076120467488714 -17.38268343236509 20.2
      vertex -51.292893218813454 -17.707106781186546 22.2
    endloop
  endfacet
  facet normal 0.9807852804032302 -0.19509032201612916 0
    outer loop
      vertex -51.076120467488714 -17.38268343236509 20.2
      vertex -51 -17 20.2
      vertex -51.076120467488714 -17.38268343236509 22.2
    endloop
  endfacet
  facet normal 0.19509032201612916 -0.9807852804032302 0
    outer loop
      vertex -52 -18 20.2
      vertex -51.61731656763491 -17.923879532511286 22.2
      vertex -52 -18 22.2
    endloop
  endfacet
  facet normal 0.5555702330196071 -0.831469612302542 0
    outer loop
      vertex -51.61731656763491 -17.923879532511286 20.2
      vertex -51.292893218813454 -17.707106781186546 22.2
      vertex -51.61731656763491 -17.923879532511286 22.2
    endloop
  endfacet
  facet normal 0.831469612302542 -0.5555702330196071 0
    outer loop
      vertex -51.076120467488714 -17.38268343236509 20.2
      vertex -51.076120467488714 -17.38268343236509 22.2
      vertex -51.292893218813454 -17.707106781186546 22.2
    endloop
  endfacet
  facet normal 0.9807852804032302 -0.19509032201612916 0
    outer loop
      vertex -51 -17 20.2
      vertex -51 -17 22.2
      vertex -51.076120467488714 -17.38268343236509 22.2
    endloop
  endfacet
  facet normal 0 0 -1
    outer loop
      vertex -52 -18 20.2
      vertex -52 -16 20.2
      vertex -51.61731656763491 -16.076120467488714 20.2
    endloop
  endfacet
  facet normal 0 0 -1
    outer loop
      vertex -51.292893218813454 -17.707106781186546 20.2
      vertex -51.292893218813454 -16.292893218813454 20.2
      vertex -51.076120467488714 -16.61731656763491 20.2
    endloop
  endfacet
  facet normal 0 0 -1
    outer loop
      vertex -51.61731656763491 -17.923879532511286 20.2
      vertex -51.61731656763491 -16.076120467488714 20.2
      vertex -51.292893218813454 -16.292893218813454 20.2
    endloop
  endfacet
  facet normal 0 0 -1
    outer loop
      vertex -51.076120467488714 -17.38268343236509 20.2
      vertex -51.076120467488714 -16.61731656763491 20.2
      vertex -51 -17 20.2
    endloop
  endfacet
  facet normal 0.5555702330196071 0.831469612302542 0
    outer loop
      vertex -51.292893218813454 -16.292893218813454 20.2
      vertex -51.61731656763491 -16.076120467488714 20.2
      vertex -51.61731656763491 -16.076120467488714 22.2
    endloop
  endfacet
  facet normal 0.9807852804032302 0.19509032201612916 0
    outer loop
      vertex -51 -17 20.2
      vertex -51.076120467488714 -16.61731656763491 20.2
      vertex -51 -17 22.2
    endloop
  endfacet
  facet normal 0.831469612302542 0.5555702330196071 0
    outer loop
      vertex -51.076120467488714 -16.61731656763491 20.2
      vertex -51.292893218813454 -16.292893218813454 20.2
      vertex -51.076120467488714 -16.61731656763491 22.2
    endloop
  endfacet
  facet normal 0.19509032201612916 0.9807852804032302 0
    outer loop
      vertex -52 -16 20.2
      vertex -52 -16 22.2
      vertex -51.61731656763491 -16.076120467488714 20.2
    endloop
  endfacet
  facet normal 0.831469612302542 0.5555702330196071 0
    outer loop
      vertex -51.292893218813454 -16.292893218813454 20.2
      vertex -51.292893218813454 -16.292893218813454 22.2
      vertex -51.076120467488714 -16.61731656763491 22.2
    endloop
  endfacet
  facet normal 0.5555702330196071 0.831469612302542 0
    outer loop
      vertex -51.292893218813454 -16.292893218813454 20.2
      vertex -51.61731656763491 -16.076120467488714 22.2
      vertex -51.292893218813454 -16.292893218813454 22.2
    endloop
  endfacet
  facet normal 0.9807852804032302 0.19509032201612916 0
    outer loop
      vertex -51.076120467488714 -16.61731656763491 20.2
      vertex -51.076120467488714 -16.61731656763491 22.2
      vertex -51 -17 22.2
    endloop
  endfacet
  facet normal 0.19509032201612916 0.9807852804032302 0
    outer loop
      vertex -51.61731656763491 -16.076120467488714 20.2
      vertex -52 -16 22.2
      vertex -51.61731656763491 -16.076120467488714 22.2
    endloop
  endfacet
endsolid OpenSCAD_Model
