solid OpenSCAD_Model
  facet normal -0.7730104533627357 -0.6343932841636472 0
    outer loop
      vertex 59.08985635694109 -6.944495815568608 25.3
      vertex 59.08985635694109 -6.944495815568608 23
      vertex 59.525126265847085 -7.474873734152917 23
    endloop
  endfacet
  facet normal -0.8819212643483547 -0.4713967368259983 0
    outer loop
      vertex 58.766421636210495 -6.3393920132778145 25.3
      vertex 58.766421636210495 -6.3393920132778145 23
      vertex 59.08985635694109 -6.944495815568608 23
    endloop
  endfacet
  facet normal -0.9951847266721972 -0.09801714032955686 0
    outer loop
      vertex 58.5 -5 25.3
      vertex 58.5 -5 23
      vertex 58.56725151858869 -5.682816127056449 23
    endloop
  endfacet
  facet normal -0.9569403357322083 -0.29028467725446405 0
    outer loop
      vertex 58.56725151858869 -5.682816127056449 25.3
      vertex 58.56725151858869 -5.682816127056449 23
      vertex 58.766421636210495 -6.3393920132778145 23
    endloop
  endfacet
  facet normal -0.8819212643483547 -0.4713967368259983 0
    outer loop
      vertex 59.08985635694109 -6.944495815568608 25.3
      vertex 58.766421636210495 -6.3393920132778145 25.3
      vertex 59.08985635694109 -6.944495815568608 23
    endloop
  endfacet
  facet normal -0.9951847266721972 -0.09801714032955686 0
    outer loop
      vertex 58.56725151858869 -5.682816127056449 25.3
      vertex 58.5 -5 25.3
      vertex 58.56725151858869 -5.682816127056449 23
    endloop
  endfacet
  facet normal -0.9569403357322083 -0.29028467725446405 0
    outer loop
      vertex 58.766421636210495 -6.3393920132778145 25.3
      vertex 58.56725151858869 -5.682816127056449 25.3
      vertex 58.766421636210495 -6.3393920132778145 23
    endloop
  endfacet
  facet normal 0 0 1
    outer loop
      vertex 59.08985635694109 -6.944495815568608 25.3
      vertex 59.525126265847085 -7.474873734152917 25.3
      vertex 59.08985635694109 -3.0555041844313924 25.3
    endloop
  endfacet
  facet normal 0 0 1
    outer loop
      vertex 58.766421636210495 -6.3393920132778145 25.3
      vertex 58.56725151858869 -4.317183872943551 25.3
      vertex 58.56725151858869 -5.682816127056449 25.3
    endloop
  endfacet
  facet normal 0 0 1
    outer loop
      vertex 59.08985635694109 -6.944495815568608 25.3
      vertex 58.766421636210495 -3.6606079867221855 25.3
      vertex 58.766421636210495 -6.3393920132778145 25.3
    endloop
  endfacet
  facet normal -0.6343932841636467 -0.7730104533627359 0
    outer loop
      vertex 60.05550418443139 -7.910143643058909 25.3
      vertex 59.525126265847085 -7.474873734152917 23
      vertex 60.05550418443139 -7.910143643058909 23
    endloop
  endfacet
  facet normal -0.47139673682599736 -0.8819212643483553 0
    outer loop
      vertex 60.660607986722184 -8.233578363789503 25.3
      vertex 60.05550418443139 -7.910143643058909 23
      vertex 60.660607986722184 -8.233578363789503 23
    endloop
  endfacet
  facet normal -0.2902846772544606 -0.9569403357322094 0
    outer loop
      vertex 61.31718387294355 -8.432748481411306 25.3
      vertex 60.660607986722184 -8.233578363789503 23
      vertex 61.31718387294355 -8.432748481411306 23
    endloop
  endfacet
  facet normal -0.09801714032956213 -0.9951847266721967 0
    outer loop
      vertex 62 -8.5 25.3
      vertex 61.31718387294355 -8.432748481411306 23
      vertex 62 -8.5 23
    endloop
  endfacet
  facet normal -0.47139673682599736 -0.8819212643483553 0
    outer loop
      vertex 60.05550418443139 -7.910143643058909 25.3
      vertex 60.05550418443139 -7.910143643058909 23
      vertex 60.660607986722184 -8.233578363789503 25.3
    endloop
  endfacet
  facet normal -0.2902846772544606 -0.9569403357322094 0
    outer loop
      vertex 60.660607986722184 -8.233578363789503 25.3
      vertex 60.660607986722184 -8.233578363789503 23
      vertex 61.31718387294355 -8.432748481411306 25.3
    endloop
  endfacet
  facet normal -0.09801714032956213 -0.9951847266721967 0
    outer loop
      vertex 61.31718387294355 -8.432748481411306 25.3
      vertex 61.31718387294355 -8.432748481411306 23
      vertex 62 -8.5 25.3
    endloop
  endfacet
  facet normal -0.7730104533627357 -0.6343932841636472 0
    outer loop
      vertex 59.08985635694109 -6.944495815568608 25.3
      vertex 59.525126265847085 -7.474873734152917 23
      vertex 59.525126265847085 -7.474873734152917 25.3
    endloop
  endfacet
  facet normal -0.6343932841636467 -0.7730104533627359 0
    outer loop
      vertex 60.05550418443139 -7.910143643058909 25.3
      vertex 59.525126265847085 -7.474873734152917 25.3
      vertex 59.525126265847085 -7.474873734152917 23
    endloop
  endfacet
  facet normal 0 0 1
    outer loop
      vertex 60.05550418443139 -7.910143643058909 25.3
      vertex 59.525126265847085 -2.5251262658470837 25.3
      vertex 59.525126265847085 -7.474873734152917 25.3
    endloop
  endfacet
  facet normal 0 0 1
    outer loop
      vertex 60.05550418443139 -7.910143643058909 25.3
      vertex 60.660607986722184 -8.233578363789503 25.3
      vertex 60.05550418443139 -2.0898563569410915 25.3
    endloop
  endfacet
  facet normal 0 0 1
    outer loop
      vertex 60.660607986722184 -8.233578363789503 25.3
      vertex 61.31718387294355 -8.432748481411306 25.3
      vertex 60.660607986722184 -1.7664216362104965 25.3
    endloop
  endfacet
  facet normal 0 0 1
    outer loop
      vertex 61.31718387294355 -8.432748481411306 25.3
      vertex 62 -8.5 25.3
      vertex 61.31718387294355 -1.5672515185886935 25.3
    endloop
  endfacet
  facet normal -0.9951847266721972 0.09801714032955686 0
    outer loop
      vertex 58.56725151858869 -4.317183872943551 25.3
      vertex 58.56725151858869 -4.317183872943551 23
      vertex 58.5 -5 23
    endloop
  endfacet
  facet normal -0.9569403357322083 0.29028467725446405 0
    outer loop
      vertex 58.766421636210495 -3.6606079867221855 25.3
      vertex 58.766421636210495 -3.6606079867221855 23
      vertex 58.56725151858869 -4.317183872943551 23
    endloop
  endfacet
  facet normal -0.8819212643483545 0.47139673682599853 0
    outer loop
      vertex 59.08985635694109 -3.0555041844313924 25.3
      vertex 59.08985635694109 -3.0555041844313924 23
      vertex 58.766421636210495 -3.6606079867221855 23
    endloop
  endfacet
  facet normal -0.9951847266721972 0.09801714032955686 0
    outer loop
      vertex 58.5 -5 25.3
      vertex 58.56725151858869 -4.317183872943551 25.3
      vertex 58.5 -5 23
    endloop
  endfacet
  facet normal -0.9569403357322083 0.29028467725446405 0
    outer loop
      vertex 58.56725151858869 -4.317183872943551 25.3
      vertex 58.766421636210495 -3.6606079867221855 25.3
      vertex 58.56725151858869 -4.317183872943551 23
    endloop
  endfacet
  facet normal 0 0 1
    outer loop
      vertex 58.56725151858869 -5.682816127056449 25.3
      vertex 58.56725151858869 -4.317183872943551 25.3
      vertex 58.5 -5 25.3
    endloop
  endfacet
  facet normal 0 0 1
    outer loop
      vertex 58.766421636210495 -6.3393920132778145 25.3
      vertex 58.766421636210495 -3.6606079867221855 25.3
      vertex 58.56725151858869 -4.317183872943551 25.3
    endloop
  endfacet
  facet normal 0 0 1
    outer loop
      vertex 59.08985635694109 -6.944495815568608 25.3
      vertex 59.08985635694109 -3.0555041844313924 25.3
      vertex 58.766421636210495 -3.6606079867221855 25.3
    endloop
  endfacet
  facet normal -0.8819212643483545 0.47139673682599853 0
    outer loop
      vertex 58.766421636210495 -3.6606079867221855 25.3
      vertex 59.08985635694109 -3.0555041844313924 25.3
      vertex 58.766421636210495 -3.6606079867221855 23
    endloop
  endfacet
  facet normal -0.7730104533627357 0.6343932841636472 0
    outer loop
      vertex 59.08985635694109 -3.0555041844313924 25.3
      vertex 59.525126265847085 -2.5251262658470837 25.3
      vertex 59.08985635694109 -3.0555041844313924 23
    endloop
  endfacet
  facet normal -0.7730104533627357 0.6343932841636472 0
    outer loop
      vertex 59.525126265847085 -2.5251262658470837 25.3
      vertex 59.525126265847085 -2.5251262658470837 23
      vertex 59.08985635694109 -3.0555041844313924 23
    endloop
  endfacet
  facet normal -0.6343932841636467 0.7730104533627359 0
    outer loop
      vertex 59.525126265847085 -2.5251262658470837 25.3
      vertex 60.05550418443139 -2.0898563569410915 23
      vertex 59.525126265847085 -2.5251262658470837 23
    endloop
  endfacet
  facet normal 0 0 1
    outer loop
      vertex 59.525126265847085 -7.474873734152917 25.3
      vertex 59.525126265847085 -2.5251262658470837 25.3
      vertex 59.08985635694109 -3.0555041844313924 25.3
    endloop
  endfacet
  facet normal 0 0 1
    outer loop
      vertex 60.05550418443139 -7.910143643058909 25.3
      vertex 60.05550418443139 -2.0898563569410915 25.3
      vertex 59.525126265847085 -2.5251262658470837 25.3
    endloop
  endfacet
  facet normal 0 0 1
    outer loop
      vertex 60.660607986722184 -8.233578363789503 25.3
      vertex 60.660607986722184 -1.7664216362104965 25.3
      vertex 60.05550418443139 -2.0898563569410915 25.3
    endloop
  endfacet
  facet normal 0 0 1
    outer loop
      vertex 61.31718387294355 -8.432748481411306 25.3
      vertex 61.31718387294355 -1.5672515185886935 25.3
      vertex 60.660607986722184 -1.7664216362104965 25.3
    endloop
  endfacet
  facet normal 0 0 1
    outer loop
      vertex 61.31718387294355 -1.5672515185886935 25.3
      vertex 62 -8.5 25.3
      vertex 62 -1.5 25.3
    endloop
  endfacet
  facet normal -0.47139673682599836 0.8819212643483546 0
    outer loop
      vertex 60.05550418443139 -2.0898563569410915 25.3
      vertex 60.660607986722184 -1.7664216362104965 23
      vertex 60.05550418443139 -2.0898563569410915 23
    endloop
  endfacet
  facet normal -0.2902846772544612 0.9569403357322093 0
    outer loop
      vertex 60.660607986722184 -1.7664216362104965 25.3
      vertex 61.31718387294355 -1.5672515185886935 23
      vertex 60.660607986722184 -1.7664216362104965 23
    endloop
  endfacet
  facet normal -0.09801714032956085 0.9951847266721969 0
    outer loop
      vertex 61.31718387294355 -1.5672515185886935 25.3
      vertex 62 -1.5 23
      vertex 61.31718387294355 -1.5672515185886935 23
    endloop
  endfacet
  facet normal -0.6343932841636467 0.7730104533627359 0
    outer loop
      vertex 59.525126265847085 -2.5251262658470837 25.3
      vertex 60.05550418443139 -2.0898563569410915 25.3
      vertex 60.05550418443139 -2.0898563569410915 23
    endloop
  endfacet
  facet normal -0.47139673682599836 0.8819212643483546 0
    outer loop
      vertex 60.05550418443139 -2.0898563569410915 25.3
      vertex 60.660607986722184 -1.7664216362104965 25.3
      vertex 60.660607986722184 -1.7664216362104965 23
    endloop
  endfacet
  facet normal -0.2902846772544612 0.9569403357322093 0
    outer loop
      vertex 60.660607986722184 -1.7664216362104965 25.3
      vertex 61.31718387294355 -1.5672515185886935 25.3
      vertex 61.31718387294355 -1.5672515185886935 23
    endloop
  endfacet
  facet normal -0.09801714032956085 0.9951847266721969 0
    outer loop
      vertex 61.31718387294355 -1.5672515185886935 25.3
      vertex 62 -1.5 25.3
      vertex 62 -1.5 23
    endloop
  endfacet
  facet normal 0.09801714032956213 -0.9951847266721967 0
    outer loop
      vertex 62.68281612705645 -8.432748481411306 25.3
      vertex 62 -8.5 23
      vertex 62.68281612705645 -8.432748481411306 23
    endloop
  endfacet
  facet normal 0.2902846772544606 -0.9569403357322094 0
    outer loop
      vertex 63.339392013277816 -8.233578363789503 25.3
      vertex 62.68281612705645 -8.432748481411306 23
      vertex 63.339392013277816 -8.233578363789503 23
    endloop
  endfacet
  facet normal 0.47139673682599736 -0.8819212643483553 0
    outer loop
      vertex 63.94449581556861 -7.910143643058909 25.3
      vertex 63.339392013277816 -8.233578363789503 23
      vertex 63.94449581556861 -7.910143643058909 23
    endloop
  endfacet
  facet normal 0.09801714032956213 -0.9951847266721967 0
    outer loop
      vertex 62 -8.5 25.3
      vertex 62 -8.5 23
      vertex 62.68281612705645 -8.432748481411306 25.3
    endloop
  endfacet
  facet normal 0.2902846772544606 -0.9569403357322094 0
    outer loop
      vertex 62.68281612705645 -8.432748481411306 25.3
      vertex 62.68281612705645 -8.432748481411306 23
      vertex 63.339392013277816 -8.233578363789503 25.3
    endloop
  endfacet
  facet normal 0.47139673682599736 -0.8819212643483553 0
    outer loop
      vertex 63.339392013277816 -8.233578363789503 25.3
      vertex 63.339392013277816 -8.233578363789503 23
      vertex 63.94449581556861 -7.910143643058909 25.3
    endloop
  endfacet
  facet normal 0.6343932841636418 -0.7730104533627401 0
    outer loop
      vertex 63.94449581556861 -7.910143643058909 25.3
      vertex 63.94449581556861 -7.910143643058909 23
      vertex 64.47487373415292 -7.474873734152917 25.3
    endloop
  endfacet
  facet normal 0.6343932841636418 -0.7730104533627401 0
    outer loop
      vertex 64.47487373415292 -7.474873734152917 25.3
      vertex 63.94449581556861 -7.910143643058909 23
      vertex 64.47487373415292 -7.474873734152917 23
    endloop
  endfacet
  facet normal 0.7730104533627459 -0.6343932841636347 0
    outer loop
      vertex 64.47487373415292 -7.474873734152917 25.3
      vertex 64.47487373415292 -7.474873734152917 23
      vertex 64.9101436430589 -6.944495815568608 23
    endloop
  endfacet
  facet normal 0 0 1
    outer loop
      vertex 62 -8.5 25.3
      vertex 62.68281612705645 -8.432748481411306 25.3
      vertex 62 -1.5 25.3
    endloop
  endfacet
  facet normal 0 0 1
    outer loop
      vertex 62.68281612705645 -8.432748481411306 25.3
      vertex 63.339392013277816 -8.233578363789503 25.3
      vertex 62.68281612705645 -1.5672515185886935 25.3
    endloop
  endfacet
  facet normal 0 0 1
    outer loop
      vertex 63.339392013277816 -8.233578363789503 25.3
      vertex 63.94449581556861 -7.910143643058909 25.3
      vertex 63.339392013277816 -1.7664216362104965 25.3
    endloop
  endfacet
  facet normal 0 0 1
    outer loop
      vertex 63.94449581556861 -7.910143643058909 25.3
      vertex 64.47487373415292 -7.474873734152917 25.3
      vertex 63.94449581556861 -2.0898563569410915 25.3
    endloop
  endfacet
  facet normal 0 0 1
    outer loop
      vertex 64.47487373415292 -7.474873734152917 25.3
      vertex 64.9101436430589 -6.944495815568608 25.3
      vertex 64.47487373415292 -2.5251262658470837 25.3
    endloop
  endfacet
  facet normal 0.8819212643483503 -0.47139673682600636 0
    outer loop
      vertex 64.9101436430589 -6.944495815568608 25.3
      vertex 64.9101436430589 -6.944495815568608 23
      vertex 65.2335783637895 -6.3393920132778145 23
    endloop
  endfacet
  facet normal 0.9569403357322083 -0.29028467725446405 0
    outer loop
      vertex 65.2335783637895 -6.3393920132778145 25.3
      vertex 65.2335783637895 -6.3393920132778145 23
      vertex 65.43274848141131 -5.682816127056449 23
    endloop
  endfacet
  facet normal 0.9951847266721972 -0.09801714032955686 0
    outer loop
      vertex 65.43274848141131 -5.682816127056449 25.3
      vertex 65.43274848141131 -5.682816127056449 23
      vertex 65.5 -5 23
    endloop
  endfacet
  facet normal 0.7730104533627459 -0.6343932841636347 0
    outer loop
      vertex 64.47487373415292 -7.474873734152917 25.3
      vertex 64.9101436430589 -6.944495815568608 23
      vertex 64.9101436430589 -6.944495815568608 25.3
    endloop
  endfacet
  facet normal 0.8819212643483503 -0.47139673682600636 0
    outer loop
      vertex 64.9101436430589 -6.944495815568608 25.3
      vertex 65.2335783637895 -6.3393920132778145 23
      vertex 65.2335783637895 -6.3393920132778145 25.3
    endloop
  endfacet
  facet normal 0.9569403357322083 -0.29028467725446405 0
    outer loop
      vertex 65.2335783637895 -6.3393920132778145 25.3
      vertex 65.43274848141131 -5.682816127056449 23
      vertex 65.43274848141131 -5.682816127056449 25.3
    endloop
  endfacet
  facet normal 0.9951847266721972 -0.09801714032955686 0
    outer loop
      vertex 65.43274848141131 -5.682816127056449 25.3
      vertex 65.5 -5 23
      vertex 65.5 -5 25.3
    endloop
  endfacet
  facet normal 0 0 1
    outer loop
      vertex 64.9101436430589 -6.944495815568608 25.3
      vertex 65.2335783637895 -6.3393920132778145 25.3
      vertex 64.9101436430589 -3.0555041844313924 25.3
    endloop
  endfacet
  facet normal 0 0 1
    outer loop
      vertex 65.2335783637895 -6.3393920132778145 25.3
      vertex 65.43274848141131 -5.682816127056449 25.3
      vertex 65.2335783637895 -3.6606079867221855 25.3
    endloop
  endfacet
  facet normal 0 0 1
    outer loop
      vertex 62.68281612705645 -8.432748481411306 25.3
      vertex 62.68281612705645 -1.5672515185886935 25.3
      vertex 62 -1.5 25.3
    endloop
  endfacet
  facet normal 0 0 1
    outer loop
      vertex 63.339392013277816 -8.233578363789503 25.3
      vertex 63.339392013277816 -1.7664216362104965 25.3
      vertex 62.68281612705645 -1.5672515185886935 25.3
    endloop
  endfacet
  facet normal 0 0 1
    outer loop
      vertex 63.94449581556861 -7.910143643058909 25.3
      vertex 63.94449581556861 -2.0898563569410915 25.3
      vertex 63.339392013277816 -1.7664216362104965 25.3
    endloop
  endfacet
  facet normal 0 0 1
    outer loop
      vertex 64.47487373415292 -7.474873734152917 25.3
      vertex 64.47487373415292 -2.5251262658470837 25.3
      vertex 63.94449581556861 -2.0898563569410915 25.3
    endloop
  endfacet
  facet normal 0.6343932841636418 0.7730104533627401 0
    outer loop
      vertex 64.47487373415292 -2.5251262658470837 25.3
      vertex 64.47487373415292 -2.5251262658470837 23
      vertex 63.94449581556861 -2.0898563569410915 25.3
    endloop
  endfacet
  facet normal 0.7730104533627459 0.6343932841636347 0
    outer loop
      vertex 64.47487373415292 -2.5251262658470837 25.3
      vertex 64.9101436430589 -3.0555041844313924 25.3
      vertex 64.47487373415292 -2.5251262658470837 23
    endloop
  endfacet
  facet normal 0.09801714032956085 0.9951847266721969 0
    outer loop
      vertex 62 -1.5 25.3
      vertex 62.68281612705645 -1.5672515185886935 23
      vertex 62 -1.5 23
    endloop
  endfacet
  facet normal 0.2902846772544612 0.9569403357322093 0
    outer loop
      vertex 62.68281612705645 -1.5672515185886935 25.3
      vertex 63.339392013277816 -1.7664216362104965 23
      vertex 62.68281612705645 -1.5672515185886935 23
    endloop
  endfacet
  facet normal 0.47139673682599836 0.8819212643483546 0
    outer loop
      vertex 63.339392013277816 -1.7664216362104965 25.3
      vertex 63.94449581556861 -2.0898563569410915 23
      vertex 63.339392013277816 -1.7664216362104965 23
    endloop
  endfacet
  facet normal 0.6343932841636418 0.7730104533627401 0
    outer loop
      vertex 63.94449581556861 -2.0898563569410915 25.3
      vertex 64.47487373415292 -2.5251262658470837 23
      vertex 63.94449581556861 -2.0898563569410915 23
    endloop
  endfacet
  facet normal 0.09801714032956085 0.9951847266721969 0
    outer loop
      vertex 62 -1.5 25.3
      vertex 62.68281612705645 -1.5672515185886935 25.3
      vertex 62.68281612705645 -1.5672515185886935 23
    endloop
  endfacet
  facet normal 0.2902846772544612 0.9569403357322093 0
    outer loop
      vertex 62.68281612705645 -1.5672515185886935 25.3
      vertex 63.339392013277816 -1.7664216362104965 25.3
      vertex 63.339392013277816 -1.7664216362104965 23
    endloop
  endfacet
  facet normal 0.47139673682599836 0.8819212643483546 0
    outer loop
      vertex 63.339392013277816 -1.7664216362104965 25.3
      vertex 63.94449581556861 -2.0898563569410915 25.3
      vertex 63.94449581556861 -2.0898563569410915 23
    endloop
  endfacet
  facet normal 0.9569403357322083 0.29028467725446405 0
    outer loop
      vertex 65.43274848141131 -4.317183872943551 25.3
      vertex 65.43274848141131 -4.317183872943551 23
      vertex 65.2335783637895 -3.6606079867221855 23
    endloop
  endfacet
  facet normal 0.9951847266721972 0.09801714032955686 0
    outer loop
      vertex 65.5 -5 25.3
      vertex 65.5 -5 23
      vertex 65.43274848141131 -4.317183872943551 23
    endloop
  endfacet
  facet normal 0.8819212643483503 0.4713967368260066 0
    outer loop
      vertex 65.2335783637895 -3.6606079867221855 25.3
      vertex 65.2335783637895 -3.6606079867221855 23
      vertex 64.9101436430589 -3.0555041844313924 23
    endloop
  endfacet
  facet normal 0.7730104533627459 0.6343932841636347 0
    outer loop
      vertex 64.9101436430589 -3.0555041844313924 25.3
      vertex 64.9101436430589 -3.0555041844313924 23
      vertex 64.47487373415292 -2.5251262658470837 23
    endloop
  endfacet
  facet normal 0.9569403357322083 0.29028467725446405 0
    outer loop
      vertex 65.43274848141131 -4.317183872943551 25.3
      vertex 65.2335783637895 -3.6606079867221855 23
      vertex 65.2335783637895 -3.6606079867221855 25.3
    endloop
  endfacet
  facet normal 0.9951847266721972 0.09801714032955686 0
    outer loop
      vertex 65.5 -5 25.3
      vertex 65.43274848141131 -4.317183872943551 23
      vertex 65.43274848141131 -4.317183872943551 25.3
    endloop
  endfacet
  facet normal 0 0 1
    outer loop
      vertex 65.2335783637895 -6.3393920132778145 25.3
      vertex 65.2335783637895 -3.6606079867221855 25.3
      vertex 64.9101436430589 -3.0555041844313924 25.3
    endloop
  endfacet
  facet normal 0 0 1
    outer loop
      vertex 65.43274848141131 -5.682816127056449 25.3
      vertex 65.43274848141131 -4.317183872943551 25.3
      vertex 65.2335783637895 -3.6606079867221855 25.3
    endloop
  endfacet
  facet normal 0 0 1
    outer loop
      vertex 64.9101436430589 -6.944495815568608 25.3
      vertex 64.9101436430589 -3.0555041844313924 25.3
      vertex 64.47487373415292 -2.5251262658470837 25.3
    endloop
  endfacet
  facet normal 0 0 1
    outer loop
      vertex 65.43274848141131 -5.682816127056449 25.3
      vertex 65.5 -5 25.3
      vertex 65.43274848141131 -4.317183872943551 25.3
    endloop
  endfacet
  facet normal 0.8819212643483503 0.4713967368260066 0
    outer loop
      vertex 65.2335783637895 -3.6606079867221855 25.3
      vertex 64.9101436430589 -3.0555041844313924 23
      vertex 64.9101436430589 -3.0555041844313924 25.3
    endloop
  endfacet
  facet normal -0.7730104533627381 -0.6343932841636443 0
    outer loop
      vertex 57.426917132336 -8.055636281607812 22.2
      vertex 58.110912703473986 -8.88908729652601 22.2
      vertex 57.426917132336 -8.055636281607812 23
    endloop
  endfacet
  facet normal -0.6343932841636437 -0.7730104533627384 0
    outer loop
      vertex 58.94436371839219 -9.573082867663999 22.2
      vertex 58.94436371839219 -9.573082867663999 23
      vertex 58.110912703473986 -8.88908729652601 22.2
    endloop
  endfacet
  facet normal -0.7730104533627381 -0.6343932841636443 0
    outer loop
      vertex 58.110912703473986 -8.88908729652601 22.2
      vertex 58.110912703473986 -8.88908729652601 23
      vertex 57.426917132336 -8.055636281607812 23
    endloop
  endfacet
  facet normal -0.6343932841636437 -0.7730104533627384 0
    outer loop
      vertex 58.110912703473986 -8.88908729652601 22.2
      vertex 58.94436371839219 -9.573082867663999 23
      vertex 58.110912703473986 -8.88908729652601 23
    endloop
  endfacet
  facet normal -0.881921264348355 -0.4713967368259975 0
    outer loop
      vertex 57.426917132336 -8.055636281607812 22.2
      vertex 56.91866257118792 -7.104758878007994 23
      vertex 56.91866257118792 -7.104758878007994 22.2
    endloop
  endfacet
  facet normal -0.956940335732209 -0.2902846772544617 0
    outer loop
      vertex 56.91866257118792 -7.104758878007994 22.2
      vertex 56.91866257118792 -7.104758878007994 23
      vertex 56.60568095778223 -6.072996771088706 23
    endloop
  endfacet
  facet normal -0.956940335732209 -0.2902846772544617 0
    outer loop
      vertex 56.91866257118792 -7.104758878007994 22.2
      vertex 56.60568095778223 -6.072996771088706 23
      vertex 56.60568095778223 -6.072996771088706 22.2
    endloop
  endfacet
  facet normal -0.881921264348355 -0.4713967368259975 0
    outer loop
      vertex 57.426917132336 -8.055636281607812 22.2
      vertex 57.426917132336 -8.055636281607812 23
      vertex 56.91866257118792 -7.104758878007994 23
    endloop
  endfacet
  facet normal -0.9951847266721968 -0.0980171403295615 0
    outer loop
      vertex 56.60568095778223 -6.072996771088706 22.2
      vertex 56.60568095778223 -6.072996771088706 23
      vertex 56.5 -5 23
    endloop
  endfacet
  facet normal 0 0 -1
    outer loop
      vertex 56.91866257118792 -7.104758878007994 22.2
      vertex 56.60568095778223 -6.072996771088706 22.2
      vertex 56.91866257118792 -2.8952411219920062 22.2
    endloop
  endfacet
  facet normal -0.9951847266721968 -0.0980171403295615 0
    outer loop
      vertex 56.60568095778223 -6.072996771088706 22.2
      vertex 56.5 -5 23
      vertex 56.5 -5 22.2
    endloop
  endfacet
  facet normal 0 0 -1
    outer loop
      vertex 57.426917132336 -8.055636281607812 22.2
      vertex 56.91866257118792 -7.104758878007994 22.2
      vertex 57.426917132336 -1.944363718392188 22.2
    endloop
  endfacet
  facet normal 0 0 -1
    outer loop
      vertex 57.426917132336 -8.055636281607812 22.2
      vertex 58.110912703473986 -1.1109127034739883 22.2
      vertex 58.110912703473986 -8.88908729652601 22.2
    endloop
  endfacet
  facet normal 0 0 -1
    outer loop
      vertex 58.94436371839219 -9.573082867663999 22.2
      vertex 58.110912703473986 -8.88908729652601 22.2
      vertex 58.94436371839219 -0.42691713233600126 22.2
    endloop
  endfacet
  facet normal -0.4713967368259975 -0.881921264348355 0
    outer loop
      vertex 58.94436371839219 -9.573082867663999 22.2
      vertex 59.89524112199201 -10.081337428812077 22.2
      vertex 59.89524112199201 -10.081337428812077 23
    endloop
  endfacet
  facet normal -0.4713967368259975 -0.881921264348355 0
    outer loop
      vertex 58.94436371839219 -9.573082867663999 22.2
      vertex 59.89524112199201 -10.081337428812077 23
      vertex 58.94436371839219 -9.573082867663999 23
    endloop
  endfacet
  facet normal -0.2902846772544617 -0.956940335732209 0
    outer loop
      vertex 59.89524112199201 -10.081337428812077 22.2
      vertex 60.927003228911296 -10.394319042217766 23
      vertex 59.89524112199201 -10.081337428812077 23
    endloop
  endfacet
  facet normal -0.2902846772544617 -0.956940335732209 0
    outer loop
      vertex 59.89524112199201 -10.081337428812077 22.2
      vertex 60.927003228911296 -10.394319042217766 22.2
      vertex 60.927003228911296 -10.394319042217766 23
    endloop
  endfacet
  facet normal -0.09801714032956166 -0.9951847266721968 0
    outer loop
      vertex 60.927003228911296 -10.394319042217766 22.2
      vertex 62 -10.5 23
      vertex 60.927003228911296 -10.394319042217766 23
    endloop
  endfacet
  facet normal -0.09801714032956166 -0.9951847266721968 0
    outer loop
      vertex 60.927003228911296 -10.394319042217766 22.2
      vertex 62 -10.5 22.2
      vertex 62 -10.5 23
    endloop
  endfacet
  facet normal 0 0 -1
    outer loop
      vertex 60.927003228911296 -10.394319042217766 22.2
      vertex 62 -6 22.2
      vertex 62 -10.5 22.2
    endloop
  endfacet
  facet normal 0 0 -1
    outer loop
      vertex 58.94436371839219 -9.573082867663999 22.2
      vertex 59.89524112199201 0.08133742881207695 22.2
      vertex 59.89524112199201 -10.081337428812077 22.2
    endloop
  endfacet
  facet normal 0 0 -1
    outer loop
      vertex 59.89524112199201 -10.081337428812077 22.2
      vertex 60.927003228911296 0.39431904221776737 22.2
      vertex 60.927003228911296 -10.394319042217766 22.2
    endloop
  endfacet
  facet normal 0 0 -1
    outer loop
      vertex 60.927003228911296 -10.394319042217766 22.2
      vertex 61.076120467488714 -5.38268343236509 22.2
      vertex 61.292893218813454 -5.707106781186548 22.2
    endloop
  endfacet
  facet normal 0 0 -1
    outer loop
      vertex 60.927003228911296 -10.394319042217766 22.2
      vertex 61.292893218813454 -5.707106781186548 22.2
      vertex 61.61731656763491 -5.923879532511287 22.2
    endloop
  endfacet
  facet normal 0 0 -1
    outer loop
      vertex 60.927003228911296 -10.394319042217766 22.2
      vertex 61 -5 22.2
      vertex 61.076120467488714 -5.38268343236509 22.2
    endloop
  endfacet
  facet normal 0 0 -1
    outer loop
      vertex 60.927003228911296 -10.394319042217766 22.2
      vertex 61.61731656763491 -5.923879532511287 22.2
      vertex 62 -6 22.2
    endloop
  endfacet
  facet normal 0 0 1
    outer loop
      vertex 58.94436371839219 -9.573082867663999 23
      vertex 59.525126265847085 -7.474873734152917 23
      vertex 59.08985635694109 -6.944495815568608 23
    endloop
  endfacet
  facet normal 0 0 1
    outer loop
      vertex 56.91866257118792 -7.104758878007994 23
      vertex 56.60568095778223 -3.9270032289112944 23
      vertex 56.60568095778223 -6.072996771088706 23
    endloop
  endfacet
  facet normal 0 0 1
    outer loop
      vertex 57.426917132336 -8.055636281607812 23
      vertex 56.91866257118792 -2.8952411219920062 23
      vertex 56.91866257118792 -7.104758878007994 23
    endloop
  endfacet
  facet normal 0 0 1
    outer loop
      vertex 57.426917132336 -8.055636281607812 23
      vertex 58.110912703473986 -8.88908729652601 23
      vertex 57.426917132336 -1.944363718392188 23
    endloop
  endfacet
  facet normal 0 0 1
    outer loop
      vertex 58.94436371839219 -9.573082867663999 23
      vertex 58.110912703473986 -1.1109127034739883 23
      vertex 58.110912703473986 -8.88908729652601 23
    endloop
  endfacet
  facet normal 0 0 1
    outer loop
      vertex 58.94436371839219 -9.573082867663999 23
      vertex 58.766421636210495 -6.3393920132778145 23
      vertex 58.56725151858869 -5.682816127056449 23
    endloop
  endfacet
  facet normal 0 0 1
    outer loop
      vertex 58.94436371839219 -9.573082867663999 23
      vertex 59.08985635694109 -6.944495815568608 23
      vertex 58.766421636210495 -6.3393920132778145 23
    endloop
  endfacet
  facet normal 0 0 1
    outer loop
      vertex 58.94436371839219 -9.573082867663999 23
      vertex 58.56725151858869 -5.682816127056449 23
      vertex 58.110912703473986 -1.1109127034739883 23
    endloop
  endfacet
  facet normal 0 0 1
    outer loop
      vertex 58.94436371839219 -9.573082867663999 23
      vertex 59.89524112199201 -10.081337428812077 23
      vertex 60.05550418443139 -7.910143643058909 23
    endloop
  endfacet
  facet normal 0 0 1
    outer loop
      vertex 58.94436371839219 -9.573082867663999 23
      vertex 60.05550418443139 -7.910143643058909 23
      vertex 59.525126265847085 -7.474873734152917 23
    endloop
  endfacet
  facet normal 0 0 1
    outer loop
      vertex 59.89524112199201 -10.081337428812077 23
      vertex 60.660607986722184 -8.233578363789503 23
      vertex 60.05550418443139 -7.910143643058909 23
    endloop
  endfacet
  facet normal 0 0 1
    outer loop
      vertex 59.89524112199201 -10.081337428812077 23
      vertex 61.31718387294355 -8.432748481411306 23
      vertex 60.660607986722184 -8.233578363789503 23
    endloop
  endfacet
  facet normal 0 0 1
    outer loop
      vertex 59.89524112199201 -10.081337428812077 23
      vertex 60.927003228911296 -10.394319042217766 23
      vertex 61.31718387294355 -8.432748481411306 23
    endloop
  endfacet
  facet normal 0 0 1
    outer loop
      vertex 60.927003228911296 -10.394319042217766 23
      vertex 62 -10.5 23
      vertex 62 -8.5 23
    endloop
  endfacet
  facet normal 0 0 1
    outer loop
      vertex 60.927003228911296 -10.394319042217766 23
      vertex 62 -8.5 23
      vertex 61.31718387294355 -8.432748481411306 23
    endloop
  endfacet
  facet normal 0 0 -1
    outer loop
      vertex 56.60568095778223 -6.072996771088706 22.2
      vertex 56.5 -5 22.2
      vertex 56.60568095778223 -3.9270032289112944 22.2
    endloop
  endfacet
  facet normal -0.9951847266721968 0.0980171403295615 0
    outer loop
      vertex 56.5 -5 22.2
      vertex 56.5 -5 23
      vertex 56.60568095778223 -3.9270032289112944 23
    endloop
  endfacet
  facet normal 0 0 -1
    outer loop
      vertex 56.60568095778223 -6.072996771088706 22.2
      vertex 56.60568095778223 -3.9270032289112944 22.2
      vertex 56.91866257118792 -2.8952411219920062 22.2
    endloop
  endfacet
  facet normal 0 0 -1
    outer loop
      vertex 56.91866257118792 -7.104758878007994 22.2
      vertex 56.91866257118792 -2.8952411219920062 22.2
      vertex 57.426917132336 -1.944363718392188 22.2
    endloop
  endfacet
  facet normal -0.9951847266721968 0.0980171403295615 0
    outer loop
      vertex 56.5 -5 22.2
      vertex 56.60568095778223 -3.9270032289112944 23
      vertex 56.60568095778223 -3.9270032289112944 22.2
    endloop
  endfacet
  facet normal 0 0 -1
    outer loop
      vertex 57.426917132336 -8.055636281607812 22.2
      vertex 57.426917132336 -1.944363718392188 22.2
      vertex 58.110912703473986 -1.1109127034739883 22.2
    endloop
  endfacet
  facet normal -0.956940335732209 0.2902846772544617 0
    outer loop
      vertex 56.60568095778223 -3.9270032289112944 22.2
      vertex 56.60568095778223 -3.9270032289112944 23
      vertex 56.91866257118792 -2.8952411219920062 23
    endloop
  endfacet
  facet normal -0.956940335732209 0.2902846772544617 0
    outer loop
      vertex 56.60568095778223 -3.9270032289112944 22.2
      vertex 56.91866257118792 -2.8952411219920062 23
      vertex 56.91866257118792 -2.8952411219920062 22.2
    endloop
  endfacet
  facet normal -0.881921264348355 0.47139673682599764 0
    outer loop
      vertex 56.91866257118792 -2.8952411219920062 22.2
      vertex 56.91866257118792 -2.8952411219920062 23
      vertex 57.426917132336 -1.944363718392188 23
    endloop
  endfacet
  facet normal -0.881921264348355 0.47139673682599764 0
    outer loop
      vertex 56.91866257118792 -2.8952411219920062 22.2
      vertex 57.426917132336 -1.944363718392188 23
      vertex 57.426917132336 -1.944363718392188 22.2
    endloop
  endfacet
  facet normal 0 0 -1
    outer loop
      vertex 58.110912703473986 -8.88908729652601 22.2
      vertex 58.110912703473986 -1.1109127034739883 22.2
      vertex 58.94436371839219 -0.42691713233600126 22.2
    endloop
  endfacet
  facet normal -0.7730104533627385 0.6343932841636436 0
    outer loop
      vertex 57.426917132336 -1.944363718392188 22.2
      vertex 57.426917132336 -1.944363718392188 23
      vertex 58.110912703473986 -1.1109127034739883 23
    endloop
  endfacet
  facet normal -0.7730104533627385 0.6343932841636436 0
    outer loop
      vertex 57.426917132336 -1.944363718392188 22.2
      vertex 58.110912703473986 -1.1109127034739883 23
      vertex 58.110912703473986 -1.1109127034739883 22.2
    endloop
  endfacet
  facet normal -0.6343932841636432 0.7730104533627389 0
    outer loop
      vertex 58.110912703473986 -1.1109127034739883 22.2
      vertex 58.110912703473986 -1.1109127034739883 23
      vertex 58.94436371839219 -0.42691713233600126 22.2
    endloop
  endfacet
  facet normal -0.6343932841636432 0.7730104533627389 0
    outer loop
      vertex 58.94436371839219 -0.42691713233600126 22.2
      vertex 58.110912703473986 -1.1109127034739883 23
      vertex 58.94436371839219 -0.42691713233600126 23
    endloop
  endfacet
  facet normal 0 0 -1
    outer loop
      vertex 58.94436371839219 -9.573082867663999 22.2
      vertex 58.94436371839219 -0.42691713233600126 22.2
      vertex 59.89524112199201 0.08133742881207695 22.2
    endloop
  endfacet
  facet normal 0 0 -1
    outer loop
      vertex 59.89524112199201 -10.081337428812077 22.2
      vertex 59.89524112199201 0.08133742881207695 22.2
      vertex 60.927003228911296 0.39431904221776737 22.2
    endloop
  endfacet
  facet normal 0 0 -1
    outer loop
      vertex 60.927003228911296 -10.394319042217766 22.2
      vertex 60.927003228911296 0.39431904221776737 22.2
      vertex 61 -5 22.2
    endloop
  endfacet
  facet normal 0 0 -1
    outer loop
      vertex 60.927003228911296 0.39431904221776737 22.2
      vertex 61.076120467488714 -4.61731656763491 22.2
      vertex 61 -5 22.2
    endloop
  endfacet
  facet normal 0 0 -1
    outer loop
      vertex 60.927003228911296 0.39431904221776737 22.2
      vertex 61.292893218813454 -4.292893218813452 22.2
      vertex 61.076120467488714 -4.61731656763491 22.2
    endloop
  endfacet
  facet normal 0 0 -1
    outer loop
      vertex 60.927003228911296 0.39431904221776737 22.2
      vertex 61.61731656763491 -4.076120467488713 22.2
      vertex 61.292893218813454 -4.292893218813452 22.2
    endloop
  endfacet
  facet normal 0 0 -1
    outer loop
      vertex 62 0.5 22.2
      vertex 62 -4 22.2
      vertex 61.61731656763491 -4.076120467488713 22.2
    endloop
  endfacet
  facet normal -0.4713967368259975 0.881921264348355 0
    outer loop
      vertex 58.94436371839219 -0.42691713233600126 22.2
      vertex 58.94436371839219 -0.42691713233600126 23
      vertex 59.89524112199201 0.08133742881207695 22.2
    endloop
  endfacet
  facet normal -0.4713967368259975 0.881921264348355 0
    outer loop
      vertex 59.89524112199201 0.08133742881207695 22.2
      vertex 58.94436371839219 -0.42691713233600126 23
      vertex 59.89524112199201 0.08133742881207695 23
    endloop
  endfacet
  facet normal -0.2902846772544625 0.9569403357322088 0
    outer loop
      vertex 59.89524112199201 0.08133742881207695 22.2
      vertex 59.89524112199201 0.08133742881207695 23
      vertex 60.927003228911296 0.39431904221776737 22.2
    endloop
  endfacet
  facet normal -0.2902846772544625 0.9569403357322088 0
    outer loop
      vertex 60.927003228911296 0.39431904221776737 22.2
      vertex 59.89524112199201 0.08133742881207695 23
      vertex 60.927003228911296 0.39431904221776737 23
    endloop
  endfacet
  facet normal 0 0 -1
    outer loop
      vertex 60.927003228911296 0.39431904221776737 22.2
      vertex 62 0.5 22.2
      vertex 61.61731656763491 -4.076120467488713 22.2
    endloop
  endfacet
  facet normal -0.09801714032956084 0.9951847266721969 0
    outer loop
      vertex 60.927003228911296 0.39431904221776737 22.2
      vertex 60.927003228911296 0.39431904221776737 23
      vertex 62 0.5 22.2
    endloop
  endfacet
  facet normal -0.09801714032956084 0.9951847266721969 0
    outer loop
      vertex 60.927003228911296 0.39431904221776737 23
      vertex 62 0.5 23
      vertex 62 0.5 22.2
    endloop
  endfacet
  facet normal 0 0 1
    outer loop
      vertex 56.60568095778223 -6.072996771088706 23
      vertex 56.60568095778223 -3.9270032289112944 23
      vertex 56.5 -5 23
    endloop
  endfacet
  facet normal 0 0 1
    outer loop
      vertex 56.91866257118792 -7.104758878007994 23
      vertex 56.91866257118792 -2.8952411219920062 23
      vertex 56.60568095778223 -3.9270032289112944 23
    endloop
  endfacet
  facet normal 0 0 1
    outer loop
      vertex 57.426917132336 -8.055636281607812 23
      vertex 57.426917132336 -1.944363718392188 23
      vertex 56.91866257118792 -2.8952411219920062 23
    endloop
  endfacet
  facet normal 0 0 1
    outer loop
      vertex 58.110912703473986 -8.88908729652601 23
      vertex 58.110912703473986 -1.1109127034739883 23
      vertex 57.426917132336 -1.944363718392188 23
    endloop
  endfacet
  facet normal 0 0 1
    outer loop
      vertex 58.110912703473986 -1.1109127034739883 23
      vertex 58.56725151858869 -5.682816127056449 23
      vertex 58.5 -5 23
    endloop
  endfacet
  facet normal 0 0 1
    outer loop
      vertex 58.110912703473986 -1.1109127034739883 23
      vertex 58.5 -5 23
      vertex 58.56725151858869 -4.317183872943551 23
    endloop
  endfacet
  facet normal 0 0 1
    outer loop
      vertex 58.110912703473986 -1.1109127034739883 23
      vertex 58.56725151858869 -4.317183872943551 23
      vertex 58.766421636210495 -3.6606079867221855 23
    endloop
  endfacet
  facet normal 0 0 1
    outer loop
      vertex 58.94436371839219 -0.42691713233600126 23
      vertex 58.766421636210495 -3.6606079867221855 23
      vertex 59.08985635694109 -3.0555041844313924 23
    endloop
  endfacet
  facet normal 0 0 1
    outer loop
      vertex 58.110912703473986 -1.1109127034739883 23
      vertex 58.766421636210495 -3.6606079867221855 23
      vertex 58.94436371839219 -0.42691713233600126 23
    endloop
  endfacet
  facet normal 0 0 1
    outer loop
      vertex 58.94436371839219 -0.42691713233600126 23
      vertex 59.08985635694109 -3.0555041844313924 23
      vertex 59.525126265847085 -2.5251262658470837 23
    endloop
  endfacet
  facet normal 0 0 1
    outer loop
      vertex 58.94436371839219 -0.42691713233600126 23
      vertex 59.525126265847085 -2.5251262658470837 23
      vertex 59.89524112199201 0.08133742881207695 23
    endloop
  endfacet
  facet normal 0 0 1
    outer loop
      vertex 59.89524112199201 0.08133742881207695 23
      vertex 59.525126265847085 -2.5251262658470837 23
      vertex 60.05550418443139 -2.0898563569410915 23
    endloop
  endfacet
  facet normal 0 0 1
    outer loop
      vertex 59.89524112199201 0.08133742881207695 23
      vertex 60.05550418443139 -2.0898563569410915 23
      vertex 60.660607986722184 -1.7664216362104965 23
    endloop
  endfacet
  facet normal 0 0 1
    outer loop
      vertex 59.89524112199201 0.08133742881207695 23
      vertex 60.660607986722184 -1.7664216362104965 23
      vertex 60.927003228911296 0.39431904221776737 23
    endloop
  endfacet
  facet normal 0 0 1
    outer loop
      vertex 60.927003228911296 0.39431904221776737 23
      vertex 60.660607986722184 -1.7664216362104965 23
      vertex 61.31718387294355 -1.5672515185886935 23
    endloop
  endfacet
  facet normal 0 0 1
    outer loop
      vertex 60.927003228911296 0.39431904221776737 23
      vertex 61.31718387294355 -1.5672515185886935 23
      vertex 62 -1.5 23
    endloop
  endfacet
  facet normal 0 0 1
    outer loop
      vertex 60.927003228911296 0.39431904221776737 23
      vertex 62 -1.5 23
      vertex 62 0.5 23
    endloop
  endfacet
  facet normal 0.09801714032956166 -0.9951847266721968 0
    outer loop
      vertex 62 -10.5 22.2
      vertex 63.072996771088704 -10.394319042217766 23
      vertex 62 -10.5 23
    endloop
  endfacet
  facet normal 0.09801714032956166 -0.9951847266721968 0
    outer loop
      vertex 62 -10.5 22.2
      vertex 63.072996771088704 -10.394319042217766 22.2
      vertex 63.072996771088704 -10.394319042217766 23
    endloop
  endfacet
  facet normal 0 0 -1
    outer loop
      vertex 62 -10.5 22.2
      vertex 62.38268343236509 -5.923879532511287 22.2
      vertex 63.072996771088704 -10.394319042217766 22.2
    endloop
  endfacet
  facet normal 0.29028467725445994 -0.9569403357322096 0
    outer loop
      vertex 63.072996771088704 -10.394319042217766 22.2
      vertex 64.104758878008 -10.081337428812077 23
      vertex 63.072996771088704 -10.394319042217766 23
    endloop
  endfacet
  facet normal 0.29028467725445994 -0.9569403357322096 0
    outer loop
      vertex 63.072996771088704 -10.394319042217766 22.2
      vertex 64.104758878008 -10.081337428812077 22.2
      vertex 64.104758878008 -10.081337428812077 23
    endloop
  endfacet
  facet normal 0.4713967368259975 -0.881921264348355 0
    outer loop
      vertex 64.104758878008 -10.081337428812077 22.2
      vertex 65.05563628160782 -9.573082867663999 23
      vertex 64.104758878008 -10.081337428812077 23
    endloop
  endfacet
  facet normal 0.4713967368259975 -0.881921264348355 0
    outer loop
      vertex 64.104758878008 -10.081337428812077 22.2
      vertex 65.05563628160782 -9.573082867663999 22.2
      vertex 65.05563628160782 -9.573082867663999 23
    endloop
  endfacet
  facet normal 0 0 -1
    outer loop
      vertex 62 -10.5 22.2
      vertex 62 -6 22.2
      vertex 62.38268343236509 -5.923879532511287 22.2
    endloop
  endfacet
  facet normal 0 0 -1
    outer loop
      vertex 63.072996771088704 -10.394319042217766 22.2
      vertex 62.38268343236509 -5.923879532511287 22.2
      vertex 62.707106781186546 -5.707106781186548 22.2
    endloop
  endfacet
  facet normal 0 0 -1
    outer loop
      vertex 63.072996771088704 -10.394319042217766 22.2
      vertex 62.707106781186546 -5.707106781186548 22.2
      vertex 62.923879532511286 -5.38268343236509 22.2
    endloop
  endfacet
  facet normal 0 0 -1
    outer loop
      vertex 63.072996771088704 -10.394319042217766 22.2
      vertex 62.923879532511286 -5.38268343236509 22.2
      vertex 63 -5 22.2
    endloop
  endfacet
  facet normal 0 0 -1
    outer loop
      vertex 63.072996771088704 -10.394319042217766 22.2
      vertex 64.104758878008 0.08133742881207695 22.2
      vertex 64.104758878008 -10.081337428812077 22.2
    endloop
  endfacet
  facet normal 0 0 -1
    outer loop
      vertex 64.104758878008 -10.081337428812077 22.2
      vertex 65.05563628160782 -0.42691713233600126 22.2
      vertex 65.05563628160782 -9.573082867663999 22.2
    endloop
  endfacet
  facet normal 0.6343932841636469 -0.7730104533627358 0
    outer loop
      vertex 65.05563628160782 -9.573082867663999 22.2
      vertex 65.88908729652601 -8.88908729652601 23
      vertex 65.05563628160782 -9.573082867663999 23
    endloop
  endfacet
  facet normal 0.6343932841636469 -0.7730104533627358 0
    outer loop
      vertex 65.05563628160782 -9.573082867663999 22.2
      vertex 65.88908729652601 -8.88908729652601 22.2
      vertex 65.88908729652601 -8.88908729652601 23
    endloop
  endfacet
  facet normal 0.7730104533627381 -0.6343932841636443 0
    outer loop
      vertex 65.88908729652601 -8.88908729652601 22.2
      vertex 66.573082867664 -8.055636281607812 22.2
      vertex 65.88908729652601 -8.88908729652601 23
    endloop
  endfacet
  facet normal 0.7730104533627381 -0.6343932841636443 0
    outer loop
      vertex 66.573082867664 -8.055636281607812 22.2
      vertex 66.573082867664 -8.055636281607812 23
      vertex 65.88908729652601 -8.88908729652601 23
    endloop
  endfacet
  facet normal 0 0 -1
    outer loop
      vertex 65.05563628160782 -9.573082867663999 22.2
      vertex 65.88908729652601 -1.1109127034739883 22.2
      vertex 65.88908729652601 -8.88908729652601 22.2
    endloop
  endfacet
  facet normal 0.881921264348355 -0.4713967368259975 0
    outer loop
      vertex 66.573082867664 -8.055636281607812 22.2
      vertex 67.08133742881208 -7.104758878007994 22.2
      vertex 66.573082867664 -8.055636281607812 23
    endloop
  endfacet
  facet normal 0.881921264348355 -0.4713967368259975 0
    outer loop
      vertex 67.08133742881208 -7.104758878007994 22.2
      vertex 67.08133742881208 -7.104758878007994 23
      vertex 66.573082867664 -8.055636281607812 23
    endloop
  endfacet
  facet normal 0.9569403357322073 -0.29028467725446777 0
    outer loop
      vertex 67.08133742881208 -7.104758878007994 22.2
      vertex 67.39431904221777 -6.072996771088706 22.2
      vertex 67.08133742881208 -7.104758878007994 23
    endloop
  endfacet
  facet normal 0.9569403357322073 -0.29028467725446777 0
    outer loop
      vertex 67.39431904221777 -6.072996771088706 22.2
      vertex 67.39431904221777 -6.072996771088706 23
      vertex 67.08133742881208 -7.104758878007994 23
    endloop
  endfacet
  facet normal 0 0 -1
    outer loop
      vertex 65.88908729652601 -8.88908729652601 22.2
      vertex 66.573082867664 -1.944363718392188 22.2
      vertex 66.573082867664 -8.055636281607812 22.2
    endloop
  endfacet
  facet normal 0 0 -1
    outer loop
      vertex 66.573082867664 -8.055636281607812 22.2
      vertex 67.08133742881208 -2.8952411219920062 22.2
      vertex 67.08133742881208 -7.104758878007994 22.2
    endloop
  endfacet
  facet normal 0 0 -1
    outer loop
      vertex 67.08133742881208 -7.104758878007994 22.2
      vertex 67.39431904221777 -3.9270032289112944 22.2
      vertex 67.39431904221777 -6.072996771088706 22.2
    endloop
  endfacet
  facet normal 0.9951847266721974 -0.09801714032955497 0
    outer loop
      vertex 67.39431904221777 -6.072996771088706 22.2
      vertex 67.5 -5 22.2
      vertex 67.39431904221777 -6.072996771088706 23
    endloop
  endfacet
  facet normal 0.9951847266721974 -0.09801714032955497 0
    outer loop
      vertex 67.39431904221777 -6.072996771088706 23
      vertex 67.5 -5 22.2
      vertex 67.5 -5 23
    endloop
  endfacet
  facet normal 0 0 1
    outer loop
      vertex 62 -10.5 23
      vertex 63.072996771088704 -10.394319042217766 23
      vertex 62 -8.5 23
    endloop
  endfacet
  facet normal 0 0 1
    outer loop
      vertex 63.072996771088704 -10.394319042217766 23
      vertex 62.68281612705645 -8.432748481411306 23
      vertex 62 -8.5 23
    endloop
  endfacet
  facet normal 0 0 1
    outer loop
      vertex 63.072996771088704 -10.394319042217766 23
      vertex 63.339392013277816 -8.233578363789503 23
      vertex 62.68281612705645 -8.432748481411306 23
    endloop
  endfacet
  facet normal 0 0 1
    outer loop
      vertex 63.072996771088704 -10.394319042217766 23
      vertex 64.104758878008 -10.081337428812077 23
      vertex 63.339392013277816 -8.233578363789503 23
    endloop
  endfacet
  facet normal 0 0 1
    outer loop
      vertex 64.104758878008 -10.081337428812077 23
      vertex 63.94449581556861 -7.910143643058909 23
      vertex 63.339392013277816 -8.233578363789503 23
    endloop
  endfacet
  facet normal 0 0 1
    outer loop
      vertex 64.104758878008 -10.081337428812077 23
      vertex 64.47487373415292 -7.474873734152917 23
      vertex 63.94449581556861 -7.910143643058909 23
    endloop
  endfacet
  facet normal 0 0 1
    outer loop
      vertex 64.104758878008 -10.081337428812077 23
      vertex 65.05563628160782 -9.573082867663999 23
      vertex 64.47487373415292 -7.474873734152917 23
    endloop
  endfacet
  facet normal 0 0 1
    outer loop
      vertex 65.05563628160782 -9.573082867663999 23
      vertex 64.9101436430589 -6.944495815568608 23
      vertex 64.47487373415292 -7.474873734152917 23
    endloop
  endfacet
  facet normal 0 0 1
    outer loop
      vertex 65.05563628160782 -9.573082867663999 23
      vertex 65.88908729652601 -8.88908729652601 23
      vertex 65.2335783637895 -6.3393920132778145 23
    endloop
  endfacet
  facet normal 0 0 1
    outer loop
      vertex 65.05563628160782 -9.573082867663999 23
      vertex 65.2335783637895 -6.3393920132778145 23
      vertex 64.9101436430589 -6.944495815568608 23
    endloop
  endfacet
  facet normal 0 0 1
    outer loop
      vertex 65.88908729652601 -8.88908729652601 23
      vertex 65.43274848141131 -5.682816127056449 23
      vertex 65.2335783637895 -6.3393920132778145 23
    endloop
  endfacet
  facet normal 0 0 1
    outer loop
      vertex 65.88908729652601 -8.88908729652601 23
      vertex 65.5 -5 23
      vertex 65.43274848141131 -5.682816127056449 23
    endloop
  endfacet
  facet normal 0 0 1
    outer loop
      vertex 65.88908729652601 -8.88908729652601 23
      vertex 65.43274848141131 -4.317183872943551 23
      vertex 65.5 -5 23
    endloop
  endfacet
  facet normal 0 0 1
    outer loop
      vertex 65.88908729652601 -8.88908729652601 23
      vertex 66.573082867664 -8.055636281607812 23
      vertex 65.88908729652601 -1.1109127034739883 23
    endloop
  endfacet
  facet normal 0 0 1
    outer loop
      vertex 66.573082867664 -8.055636281607812 23
      vertex 67.08133742881208 -7.104758878007994 23
      vertex 66.573082867664 -1.944363718392188 23
    endloop
  endfacet
  facet normal 0 0 1
    outer loop
      vertex 67.08133742881208 -7.104758878007994 23
      vertex 67.39431904221777 -6.072996771088706 23
      vertex 67.08133742881208 -2.8952411219920062 23
    endloop
  endfacet
  facet normal 0 0 -1
    outer loop
      vertex 63.072996771088704 -10.394319042217766 22.2
      vertex 63 -5 22.2
      vertex 63.072996771088704 0.39431904221776737 22.2
    endloop
  endfacet
  facet normal 0 0 -1
    outer loop
      vertex 63.072996771088704 0.39431904221776737 22.2
      vertex 62.38268343236509 -4.076120467488713 22.2
      vertex 62 -4 22.2
    endloop
  endfacet
  facet normal 0 0 -1
    outer loop
      vertex 63.072996771088704 0.39431904221776737 22.2
      vertex 63 -5 22.2
      vertex 62.923879532511286 -4.61731656763491 22.2
    endloop
  endfacet
  facet normal 0 0 -1
    outer loop
      vertex 63.072996771088704 0.39431904221776737 22.2
      vertex 62.707106781186546 -4.292893218813452 22.2
      vertex 62.38268343236509 -4.076120467488713 22.2
    endloop
  endfacet
  facet normal 0 0 -1
    outer loop
      vertex 63.072996771088704 0.39431904221776737 22.2
      vertex 62.923879532511286 -4.61731656763491 22.2
      vertex 62.707106781186546 -4.292893218813452 22.2
    endloop
  endfacet
  facet normal 0 0 -1
    outer loop
      vertex 63.072996771088704 -10.394319042217766 22.2
      vertex 63.072996771088704 0.39431904221776737 22.2
      vertex 64.104758878008 0.08133742881207695 22.2
    endloop
  endfacet
  facet normal 0 0 -1
    outer loop
      vertex 64.104758878008 -10.081337428812077 22.2
      vertex 64.104758878008 0.08133742881207695 22.2
      vertex 65.05563628160782 -0.42691713233600126 22.2
    endloop
  endfacet
  facet normal 0 0 -1
    outer loop
      vertex 62 0.5 22.2
      vertex 63.072996771088704 0.39431904221776737 22.2
      vertex 62 -4 22.2
    endloop
  endfacet
  facet normal 0.09801714032956084 0.9951847266721969 0
    outer loop
      vertex 62 0.5 22.2
      vertex 62 0.5 23
      vertex 63.072996771088704 0.39431904221776737 22.2
    endloop
  endfacet
  facet normal 0.09801714032956084 0.9951847266721969 0
    outer loop
      vertex 63.072996771088704 0.39431904221776737 22.2
      vertex 62 0.5 23
      vertex 63.072996771088704 0.39431904221776737 23
    endloop
  endfacet
  facet normal 0.29028467725446067 0.9569403357322094 0
    outer loop
      vertex 63.072996771088704 0.39431904221776737 22.2
      vertex 63.072996771088704 0.39431904221776737 23
      vertex 64.104758878008 0.08133742881207695 22.2
    endloop
  endfacet
  facet normal 0.29028467725446067 0.9569403357322094 0
    outer loop
      vertex 64.104758878008 0.08133742881207695 22.2
      vertex 63.072996771088704 0.39431904221776737 23
      vertex 64.104758878008 0.08133742881207695 23
    endloop
  endfacet
  facet normal 0.4713967368259975 0.881921264348355 0
    outer loop
      vertex 65.05563628160782 -0.42691713233600126 22.2
      vertex 64.104758878008 0.08133742881207695 23
      vertex 65.05563628160782 -0.42691713233600126 23
    endloop
  endfacet
  facet normal 0.4713967368259975 0.881921264348355 0
    outer loop
      vertex 64.104758878008 0.08133742881207695 22.2
      vertex 64.104758878008 0.08133742881207695 23
      vertex 65.05563628160782 -0.42691713233600126 22.2
    endloop
  endfacet
  facet normal 0 0 -1
    outer loop
      vertex 65.05563628160782 -9.573082867663999 22.2
      vertex 65.05563628160782 -0.42691713233600126 22.2
      vertex 65.88908729652601 -1.1109127034739883 22.2
    endloop
  endfacet
  facet normal 0 0 -1
    outer loop
      vertex 65.88908729652601 -8.88908729652601 22.2
      vertex 65.88908729652601 -1.1109127034739883 22.2
      vertex 66.573082867664 -1.944363718392188 22.2
    endloop
  endfacet
  facet normal 0 0 -1
    outer loop
      vertex 66.573082867664 -8.055636281607812 22.2
      vertex 66.573082867664 -1.944363718392188 22.2
      vertex 67.08133742881208 -2.8952411219920062 22.2
    endloop
  endfacet
  facet normal 0 0 -1
    outer loop
      vertex 67.39431904221777 -6.072996771088706 22.2
      vertex 67.39431904221777 -3.9270032289112944 22.2
      vertex 67.5 -5 22.2
    endloop
  endfacet
  facet normal 0 0 -1
    outer loop
      vertex 67.08133742881208 -7.104758878007994 22.2
      vertex 67.08133742881208 -2.8952411219920062 22.2
      vertex 67.39431904221777 -3.9270032289112944 22.2
    endloop
  endfacet
  facet normal 0.9951847266721974 0.09801714032955497 0
    outer loop
      vertex 67.5 -5 22.2
      vertex 67.39431904221777 -3.9270032289112944 22.2
      vertex 67.5 -5 23
    endloop
  endfacet
  facet normal 0.9951847266721974 0.09801714032955497 0
    outer loop
      vertex 67.39431904221777 -3.9270032289112944 22.2
      vertex 67.39431904221777 -3.9270032289112944 23
      vertex 67.5 -5 23
    endloop
  endfacet
  facet normal 0.881921264348355 0.47139673682599764 0
    outer loop
      vertex 66.573082867664 -1.944363718392188 22.2
      vertex 66.573082867664 -1.944363718392188 23
      vertex 67.08133742881208 -2.8952411219920062 23
    endloop
  endfacet
  facet normal 0.9569403357322073 0.29028467725446777 0
    outer loop
      vertex 67.39431904221777 -3.9270032289112944 22.2
      vertex 67.08133742881208 -2.8952411219920062 22.2
      vertex 67.39431904221777 -3.9270032289112944 23
    endloop
  endfacet
  facet normal 0.9569403357322073 0.29028467725446777 0
    outer loop
      vertex 67.08133742881208 -2.8952411219920062 22.2
      vertex 67.08133742881208 -2.8952411219920062 23
      vertex 67.39431904221777 -3.9270032289112944 23
    endloop
  endfacet
  facet normal 0.881921264348355 0.47139673682599764 0
    outer loop
      vertex 67.08133742881208 -2.8952411219920062 22.2
      vertex 66.573082867664 -1.944363718392188 22.2
      vertex 67.08133742881208 -2.8952411219920062 23
    endloop
  endfacet
  facet normal 0.6343932841636464 0.7730104533627362 0
    outer loop
      vertex 65.88908729652601 -1.1109127034739883 22.2
      vertex 65.05563628160782 -0.42691713233600126 23
      vertex 65.88908729652601 -1.1109127034739883 23
    endloop
  endfacet
  facet normal 0.7730104533627385 0.6343932841636436 0
    outer loop
      vertex 65.88908729652601 -1.1109127034739883 22.2
      vertex 65.88908729652601 -1.1109127034739883 23
      vertex 66.573082867664 -1.944363718392188 23
    endloop
  endfacet
  facet normal 0.6343932841636464 0.7730104533627362 0
    outer loop
      vertex 65.88908729652601 -1.1109127034739883 22.2
      vertex 65.05563628160782 -0.42691713233600126 22.2
      vertex 65.05563628160782 -0.42691713233600126 23
    endloop
  endfacet
  facet normal 0.7730104533627385 0.6343932841636436 0
    outer loop
      vertex 65.88908729652601 -1.1109127034739883 22.2
      vertex 66.573082867664 -1.944363718392188 23
      vertex 66.573082867664 -1.944363718392188 22.2
    endloop
  endfacet
  facet normal 0 0 1
    outer loop
      vertex 63.072996771088704 0.39431904221776737 23
      vertex 62 -1.5 23
      vertex 62.68281612705645 -1.5672515185886935 23
    endloop
  endfacet
  facet normal 0 0 1
    outer loop
      vertex 62 0.5 23
      vertex 62 -1.5 23
      vertex 63.072996771088704 0.39431904221776737 23
    endloop
  endfacet
  facet normal 0 0 1
    outer loop
      vertex 63.072996771088704 0.39431904221776737 23
      vertex 62.68281612705645 -1.5672515185886935 23
      vertex 64.104758878008 0.08133742881207695 23
    endloop
  endfacet
  facet normal 0 0 1
    outer loop
      vertex 64.104758878008 0.08133742881207695 23
      vertex 62.68281612705645 -1.5672515185886935 23
      vertex 63.339392013277816 -1.7664216362104965 23
    endloop
  endfacet
  facet normal 0 0 1
    outer loop
      vertex 64.104758878008 0.08133742881207695 23
      vertex 63.339392013277816 -1.7664216362104965 23
      vertex 63.94449581556861 -2.0898563569410915 23
    endloop
  endfacet
  facet normal 0 0 1
    outer loop
      vertex 65.05563628160782 -0.42691713233600126 23
      vertex 63.94449581556861 -2.0898563569410915 23
      vertex 64.47487373415292 -2.5251262658470837 23
    endloop
  endfacet
  facet normal 0 0 1
    outer loop
      vertex 64.104758878008 0.08133742881207695 23
      vertex 63.94449581556861 -2.0898563569410915 23
      vertex 65.05563628160782 -0.42691713233600126 23
    endloop
  endfacet
  facet normal 0 0 1
    outer loop
      vertex 65.88908729652601 -8.88908729652601 23
      vertex 65.05563628160782 -0.42691713233600126 23
      vertex 65.43274848141131 -4.317183872943551 23
    endloop
  endfacet
  facet normal 0 0 1
    outer loop
      vertex 65.05563628160782 -0.42691713233600126 23
      vertex 64.9101436430589 -3.0555041844313924 23
      vertex 65.2335783637895 -3.6606079867221855 23
    endloop
  endfacet
  facet normal 0 0 1
    outer loop
      vertex 65.05563628160782 -0.42691713233600126 23
      vertex 65.2335783637895 -3.6606079867221855 23
      vertex 65.43274848141131 -4.317183872943551 23
    endloop
  endfacet
  facet normal 0 0 1
    outer loop
      vertex 65.88908729652601 -8.88908729652601 23
      vertex 65.88908729652601 -1.1109127034739883 23
      vertex 65.05563628160782 -0.42691713233600126 23
    endloop
  endfacet
  facet normal 0 0 1
    outer loop
      vertex 66.573082867664 -8.055636281607812 23
      vertex 66.573082867664 -1.944363718392188 23
      vertex 65.88908729652601 -1.1109127034739883 23
    endloop
  endfacet
  facet normal 0 0 1
    outer loop
      vertex 67.39431904221777 -6.072996771088706 23
      vertex 67.5 -5 23
      vertex 67.39431904221777 -3.9270032289112944 23
    endloop
  endfacet
  facet normal 0 0 1
    outer loop
      vertex 67.08133742881208 -7.104758878007994 23
      vertex 67.08133742881208 -2.8952411219920062 23
      vertex 66.573082867664 -1.944363718392188 23
    endloop
  endfacet
  facet normal 0 0 1
    outer loop
      vertex 67.39431904221777 -6.072996771088706 23
      vertex 67.39431904221777 -3.9270032289112944 23
      vertex 67.08133742881208 -2.8952411219920062 23
    endloop
  endfacet
  facet normal 0 0 1
    outer loop
      vertex 65.05563628160782 -0.42691713233600126 23
      vertex 64.47487373415292 -2.5251262658470837 23
      vertex 64.9101436430589 -3.0555041844313924 23
    endloop
  endfacet
  facet normal 0 0 -1
    outer loop
      vertex 61.076120467488714 -5.38268343236509 20.2
      vertex 61.292893218813454 -4.292893218813452 20.2
      vertex 61.292893218813454 -5.707106781186548 20.2
    endloop
  endfacet
  facet normal 0 0 -1
    outer loop
      vertex 61.61731656763491 -5.923879532511287 20.2
      vertex 61.292893218813454 -5.707106781186548 20.2
      vertex 61.61731656763491 -4.076120467488713 20.2
    endloop
  endfacet
  facet normal 0 0 -1
    outer loop
      vertex 61.61731656763491 -5.923879532511287 20.2
      vertex 62 -4 20.2
      vertex 62 -6 20.2
    endloop
  endfacet
  facet normal -0.8314696123025448 -0.5555702330196028 0
    outer loop
      vertex 61.076120467488714 -5.38268343236509 20.2
      vertex 61.292893218813454 -5.707106781186548 20.2
      vertex 61.076120467488714 -5.38268343236509 22.2
    endloop
  endfacet
  facet normal -0.98078528040323 -0.19509032201613002 0
    outer loop
      vertex 61.076120467488714 -5.38268343236509 20.2
      vertex 61 -5 22.2
      vertex 61 -5 20.2
    endloop
  endfacet
  facet normal -0.5555702330196055 -0.831469612302543 0
    outer loop
      vertex 61.61731656763491 -5.923879532511287 20.2
      vertex 61.61731656763491 -5.923879532511287 22.2
      vertex 61.292893218813454 -5.707106781186548 20.2
    endloop
  endfacet
  facet normal -0.19509032201612697 -0.9807852804032307 0
    outer loop
      vertex 61.61731656763491 -5.923879532511287 20.2
      vertex 62 -6 20.2
      vertex 62 -6 22.2
    endloop
  endfacet
  facet normal -0.8314696123025448 -0.5555702330196028 0
    outer loop
      vertex 61.292893218813454 -5.707106781186548 20.2
      vertex 61.292893218813454 -5.707106781186548 22.2
      vertex 61.076120467488714 -5.38268343236509 22.2
    endloop
  endfacet
  facet normal -0.98078528040323 -0.19509032201613002 0
    outer loop
      vertex 61.076120467488714 -5.38268343236509 20.2
      vertex 61.076120467488714 -5.38268343236509 22.2
      vertex 61 -5 22.2
    endloop
  endfacet
  facet normal -0.5555702330196055 -0.831469612302543 0
    outer loop
      vertex 61.292893218813454 -5.707106781186548 20.2
      vertex 61.61731656763491 -5.923879532511287 22.2
      vertex 61.292893218813454 -5.707106781186548 22.2
    endloop
  endfacet
  facet normal -0.19509032201612697 -0.9807852804032307 0
    outer loop
      vertex 61.61731656763491 -5.923879532511287 20.2
      vertex 62 -6 22.2
      vertex 61.61731656763491 -5.923879532511287 22.2
    endloop
  endfacet
  facet normal 0 0 -1
    outer loop
      vertex 61.076120467488714 -5.38268343236509 20.2
      vertex 61 -5 20.2
      vertex 61.076120467488714 -4.61731656763491 20.2
    endloop
  endfacet
  facet normal 0 0 -1
    outer loop
      vertex 61.076120467488714 -5.38268343236509 20.2
      vertex 61.076120467488714 -4.61731656763491 20.2
      vertex 61.292893218813454 -4.292893218813452 20.2
    endloop
  endfacet
  facet normal 0 0 -1
    outer loop
      vertex 61.292893218813454 -5.707106781186548 20.2
      vertex 61.292893218813454 -4.292893218813452 20.2
      vertex 61.61731656763491 -4.076120467488713 20.2
    endloop
  endfacet
  facet normal 0 0 -1
    outer loop
      vertex 61.61731656763491 -5.923879532511287 20.2
      vertex 61.61731656763491 -4.076120467488713 20.2
      vertex 62 -4 20.2
    endloop
  endfacet
  facet normal -0.98078528040323 0.19509032201613002 0
    outer loop
      vertex 61 -5 20.2
      vertex 61.076120467488714 -4.61731656763491 22.2
      vertex 61.076120467488714 -4.61731656763491 20.2
    endloop
  endfacet
  facet normal -0.8314696123025448 0.5555702330196028 0
    outer loop
      vertex 61.076120467488714 -4.61731656763491 20.2
      vertex 61.292893218813454 -4.292893218813452 22.2
      vertex 61.292893218813454 -4.292893218813452 20.2
    endloop
  endfacet
  facet normal -0.5555702330196055 0.831469612302543 0
    outer loop
      vertex 61.292893218813454 -4.292893218813452 20.2
      vertex 61.292893218813454 -4.292893218813452 22.2
      vertex 61.61731656763491 -4.076120467488713 20.2
    endloop
  endfacet
  facet normal -0.19509032201612697 0.9807852804032307 0
    outer loop
      vertex 61.61731656763491 -4.076120467488713 20.2
      vertex 61.61731656763491 -4.076120467488713 22.2
      vertex 62 -4 20.2
    endloop
  endfacet
  facet normal -0.98078528040323 0.19509032201613002 0
    outer loop
      vertex 61 -5 20.2
      vertex 61 -5 22.2
      vertex 61.076120467488714 -4.61731656763491 22.2
    endloop
  endfacet
  facet normal -0.8314696123025448 0.5555702330196028 0
    outer loop
      vertex 61.076120467488714 -4.61731656763491 20.2
      vertex 61.076120467488714 -4.61731656763491 22.2
      vertex 61.292893218813454 -4.292893218813452 22.2
    endloop
  endfacet
  facet normal -0.5555702330196055 0.831469612302543 0
    outer loop
      vertex 61.61731656763491 -4.076120467488713 20.2
      vertex 61.292893218813454 -4.292893218813452 22.2
      vertex 61.61731656763491 -4.076120467488713 22.2
    endloop
  endfacet
  facet normal -0.19509032201612697 0.9807852804032307 0
    outer loop
      vertex 62 -4 20.2
      vertex 61.61731656763491 -4.076120467488713 22.2
      vertex 62 -4 22.2
    endloop
  endfacet
  facet normal 0 0 -1
    outer loop
      vertex 62 -6 20.2
      vertex 62.38268343236509 -4.076120467488713 20.2
      vertex 62.38268343236509 -5.923879532511287 20.2
    endloop
  endfacet
  facet normal 0 0 -1
    outer loop
      vertex 62.38268343236509 -5.923879532511287 20.2
      vertex 62.707106781186546 -4.292893218813452 20.2
      vertex 62.707106781186546 -5.707106781186548 20.2
    endloop
  endfacet
  facet normal 0 0 -1
    outer loop
      vertex 62.707106781186546 -5.707106781186548 20.2
      vertex 62.923879532511286 -4.61731656763491 20.2
      vertex 62.923879532511286 -5.38268343236509 20.2
    endloop
  endfacet
  facet normal 0.19509032201612697 -0.9807852804032307 0
    outer loop
      vertex 62 -6 20.2
      vertex 62.38268343236509 -5.923879532511287 20.2
      vertex 62.38268343236509 -5.923879532511287 22.2
    endloop
  endfacet
  facet normal 0.5555702330196055 -0.831469612302543 0
    outer loop
      vertex 62.38268343236509 -5.923879532511287 20.2
      vertex 62.707106781186546 -5.707106781186548 20.2
      vertex 62.707106781186546 -5.707106781186548 22.2
    endloop
  endfacet
  facet normal 0.8314696123025448 -0.5555702330196028 0
    outer loop
      vertex 62.707106781186546 -5.707106781186548 20.2
      vertex 62.923879532511286 -5.38268343236509 20.2
      vertex 62.707106781186546 -5.707106781186548 22.2
    endloop
  endfacet
  facet normal 0.98078528040323 -0.19509032201613002 0
    outer loop
      vertex 62.923879532511286 -5.38268343236509 20.2
      vertex 63 -5 20.2
      vertex 62.923879532511286 -5.38268343236509 22.2
    endloop
  endfacet
  facet normal 0.19509032201612697 -0.9807852804032307 0
    outer loop
      vertex 62 -6 20.2
      vertex 62.38268343236509 -5.923879532511287 22.2
      vertex 62 -6 22.2
    endloop
  endfacet
  facet normal 0.5555702330196055 -0.831469612302543 0
    outer loop
      vertex 62.38268343236509 -5.923879532511287 20.2
      vertex 62.707106781186546 -5.707106781186548 22.2
      vertex 62.38268343236509 -5.923879532511287 22.2
    endloop
  endfacet
  facet normal 0.8314696123025448 -0.5555702330196028 0
    outer loop
      vertex 62.923879532511286 -5.38268343236509 20.2
      vertex 62.923879532511286 -5.38268343236509 22.2
      vertex 62.707106781186546 -5.707106781186548 22.2
    endloop
  endfacet
  facet normal 0.98078528040323 -0.19509032201613002 0
    outer loop
      vertex 63 -5 20.2
      vertex 63 -5 22.2
      vertex 62.923879532511286 -5.38268343236509 22.2
    endloop
  endfacet
  facet normal 0 0 -1
    outer loop
      vertex 62 -6 20.2
      vertex 62 -4 20.2
      vertex 62.38268343236509 -4.076120467488713 20.2
    endloop
  endfacet
  facet normal 0 0 -1
    outer loop
      vertex 62.38268343236509 -5.923879532511287 20.2
      vertex 62.38268343236509 -4.076120467488713 20.2
      vertex 62.707106781186546 -4.292893218813452 20.2
    endloop
  endfacet
  facet normal 0 0 -1
    outer loop
      vertex 62.707106781186546 -5.707106781186548 20.2
      vertex 62.707106781186546 -4.292893218813452 20.2
      vertex 62.923879532511286 -4.61731656763491 20.2
    endloop
  endfacet
  facet normal 0 0 -1
    outer loop
      vertex 62.923879532511286 -5.38268343236509 20.2
      vertex 62.923879532511286 -4.61731656763491 20.2
      vertex 63 -5 20.2
    endloop
  endfacet
  facet normal 0.19509032201612697 0.9807852804032307 0
    outer loop
      vertex 62 -4 20.2
      vertex 62 -4 22.2
      vertex 62.38268343236509 -4.076120467488713 20.2
    endloop
  endfacet
  facet normal 0.5555702330196055 0.831469612302543 0
    outer loop
      vertex 62.707106781186546 -4.292893218813452 20.2
      vertex 62.38268343236509 -4.076120467488713 20.2
      vertex 62.38268343236509 -4.076120467488713 22.2
    endloop
  endfacet
  facet normal 0.98078528040323 0.19509032201613002 0
    outer loop
      vertex 63 -5 20.2
      vertex 62.923879532511286 -4.61731656763491 20.2
      vertex 63 -5 22.2
    endloop
  endfacet
  facet normal 0.8314696123025448 0.5555702330196028 0
    outer loop
      vertex 62.707106781186546 -4.292893218813452 20.2
      vertex 62.923879532511286 -4.61731656763491 22.2
      vertex 62.923879532511286 -4.61731656763491 20.2
    endloop
  endfacet
  facet normal 0.19509032201612697 0.9807852804032307 0
    outer loop
      vertex 62.38268343236509 -4.076120467488713 20.2
      vertex 62 -4 22.2
      vertex 62.38268343236509 -4.076120467488713 22.2
    endloop
  endfacet
  facet normal 0.5555702330196055 0.831469612302543 0
    outer loop
      vertex 62.707106781186546 -4.292893218813452 20.2
      vertex 62.38268343236509 -4.076120467488713 22.2
      vertex 62.707106781186546 -4.292893218813452 22.2
    endloop
  endfacet
  facet normal 0.98078528040323 0.19509032201613002 0
    outer loop
      vertex 62.923879532511286 -4.61731656763491 20.2
      vertex 62.923879532511286 -4.61731656763491 22.2
      vertex 63 -5 22.2
    endloop
  endfacet
  facet normal 0.8314696123025448 0.5555702330196028 0
    outer loop
      vertex 62.707106781186546 -4.292893218813452 20.2
      vertex 62.707106781186546 -4.292893218813452 22.2
      vertex 62.923879532511286 -4.61731656763491 22.2
    endloop
  endfacet
endsolid OpenSCAD_Model
