solid OpenSCAD_Model
  facet normal 0 0 -1
    outer loop
      vertex -53.923879532511286 4.61731656763491 20.2
      vertex -53.707106781186546 5.707106781186548 20.2
      vertex -53.707106781186546 4.292893218813452 20.2
    endloop
  endfacet
  facet normal 0 0 -1
    outer loop
      vertex -53.38268343236509 4.076120467488713 20.2
      vertex -53.707106781186546 4.292893218813452 20.2
      vertex -53.38268343236509 5.923879532511287 20.2
    endloop
  endfacet
  facet normal 0 0 -1
    outer loop
      vertex -53.38268343236509 4.076120467488713 20.2
      vertex -53 6 20.2
      vertex -53 4 20.2
    endloop
  endfacet
  facet normal 0 0 -1
    outer loop
      vertex -53 4 20.2
      vertex -52.61731656763491 5.923879532511287 20.2
      vertex -52.61731656763491 4.076120467488713 20.2
    endloop
  endfacet
  facet normal 0 0 -1
    outer loop
      vertex -52.61731656763491 4.076120467488713 20.2
      vertex -52.292893218813454 5.707106781186548 20.2
      vertex -52.292893218813454 4.292893218813452 20.2
    endloop
  endfacet
  facet normal 0 0 -1
    outer loop
      vertex -52.292893218813454 4.292893218813452 20.2
      vertex -52.076120467488714 5.38268343236509 20.2
      vertex -52.076120467488714 4.61731656763491 20.2
    endloop
  endfacet
  facet normal -0.8314696123025448 -0.5555702330196028 0
    outer loop
      vertex -53.923879532511286 4.61731656763491 20.2
      vertex -53.707106781186546 4.292893218813452 20.2
      vertex -53.923879532511286 4.61731656763491 22.2
    endloop
  endfacet
  facet normal -0.98078528040323 -0.19509032201613002 0
    outer loop
      vertex -53.923879532511286 4.61731656763491 20.2
      vertex -54 5 22.2
      vertex -54 5 20.2
    endloop
  endfacet
  facet normal -0.5555702330196055 -0.831469612302543 0
    outer loop
      vertex -53.38268343236509 4.076120467488713 20.2
      vertex -53.38268343236509 4.076120467488713 22.2
      vertex -53.707106781186546 4.292893218813452 20.2
    endloop
  endfacet
  facet normal -0.19509032201612697 -0.9807852804032307 0
    outer loop
      vertex -53.38268343236509 4.076120467488713 20.2
      vertex -53 4 20.2
      vertex -53 4 22.2
    endloop
  endfacet
  facet normal 0.19509032201612697 -0.9807852804032307 0
    outer loop
      vertex -53 4 20.2
      vertex -52.61731656763491 4.076120467488713 20.2
      vertex -52.61731656763491 4.076120467488713 22.2
    endloop
  endfacet
  facet normal 0.5555702330196055 -0.831469612302543 0
    outer loop
      vertex -52.61731656763491 4.076120467488713 20.2
      vertex -52.292893218813454 4.292893218813452 20.2
      vertex -52.292893218813454 4.292893218813452 22.2
    endloop
  endfacet
  facet normal 0.8314696123025448 -0.5555702330196028 0
    outer loop
      vertex -52.292893218813454 4.292893218813452 20.2
      vertex -52.076120467488714 4.61731656763491 20.2
      vertex -52.292893218813454 4.292893218813452 22.2
    endloop
  endfacet
  facet normal 0.98078528040323 -0.19509032201613002 0
    outer loop
      vertex -52.076120467488714 4.61731656763491 20.2
      vertex -52 5 20.2
      vertex -52.076120467488714 4.61731656763491 22.2
    endloop
  endfacet
  facet normal -0.8314696123025448 -0.5555702330196028 0
    outer loop
      vertex -53.707106781186546 4.292893218813452 20.2
      vertex -53.707106781186546 4.292893218813452 22.2
      vertex -53.923879532511286 4.61731656763491 22.2
    endloop
  endfacet
  facet normal -0.5555702330196055 -0.831469612302543 0
    outer loop
      vertex -53.707106781186546 4.292893218813452 20.2
      vertex -53.38268343236509 4.076120467488713 22.2
      vertex -53.707106781186546 4.292893218813452 22.2
    endloop
  endfacet
  facet normal -0.98078528040323 -0.19509032201613002 0
    outer loop
      vertex -53.923879532511286 4.61731656763491 20.2
      vertex -53.923879532511286 4.61731656763491 22.2
      vertex -54 5 22.2
    endloop
  endfacet
  facet normal -0.19509032201612697 -0.9807852804032307 0
    outer loop
      vertex -53.38268343236509 4.076120467488713 20.2
      vertex -53 4 22.2
      vertex -53.38268343236509 4.076120467488713 22.2
    endloop
  endfacet
  facet normal 0.19509032201612697 -0.9807852804032307 0
    outer loop
      vertex -53 4 20.2
      vertex -52.61731656763491 4.076120467488713 22.2
      vertex -53 4 22.2
    endloop
  endfacet
  facet normal 0.5555702330196055 -0.831469612302543 0
    outer loop
      vertex -52.61731656763491 4.076120467488713 20.2
      vertex -52.292893218813454 4.292893218813452 22.2
      vertex -52.61731656763491 4.076120467488713 22.2
    endloop
  endfacet
  facet normal 0.8314696123025448 -0.5555702330196028 0
    outer loop
      vertex -52.076120467488714 4.61731656763491 20.2
      vertex -52.076120467488714 4.61731656763491 22.2
      vertex -52.292893218813454 4.292893218813452 22.2
    endloop
  endfacet
  facet normal 0.98078528040323 -0.19509032201613002 0
    outer loop
      vertex -52 5 20.2
      vertex -52 5 22.2
      vertex -52.076120467488714 4.61731656763491 22.2
    endloop
  endfacet
  facet normal 0 0 -1
    outer loop
      vertex -53.923879532511286 4.61731656763491 20.2
      vertex -54 5 20.2
      vertex -53.923879532511286 5.38268343236509 20.2
    endloop
  endfacet
  facet normal 0 0 -1
    outer loop
      vertex -53.923879532511286 4.61731656763491 20.2
      vertex -53.923879532511286 5.38268343236509 20.2
      vertex -53.707106781186546 5.707106781186548 20.2
    endloop
  endfacet
  facet normal 0 0 -1
    outer loop
      vertex -53.707106781186546 4.292893218813452 20.2
      vertex -53.707106781186546 5.707106781186548 20.2
      vertex -53.38268343236509 5.923879532511287 20.2
    endloop
  endfacet
  facet normal 0 0 -1
    outer loop
      vertex -53.38268343236509 4.076120467488713 20.2
      vertex -53.38268343236509 5.923879532511287 20.2
      vertex -53 6 20.2
    endloop
  endfacet
  facet normal 0 0 -1
    outer loop
      vertex -53 4 20.2
      vertex -53 6 20.2
      vertex -52.61731656763491 5.923879532511287 20.2
    endloop
  endfacet
  facet normal 0 0 -1
    outer loop
      vertex -52.61731656763491 4.076120467488713 20.2
      vertex -52.61731656763491 5.923879532511287 20.2
      vertex -52.292893218813454 5.707106781186548 20.2
    endloop
  endfacet
  facet normal 0 0 -1
    outer loop
      vertex -52.292893218813454 4.292893218813452 20.2
      vertex -52.292893218813454 5.707106781186548 20.2
      vertex -52.076120467488714 5.38268343236509 20.2
    endloop
  endfacet
  facet normal 0 0 -1
    outer loop
      vertex -52.076120467488714 4.61731656763491 20.2
      vertex -52.076120467488714 5.38268343236509 20.2
      vertex -52 5 20.2
    endloop
  endfacet
  facet normal -0.98078528040323 0.19509032201613002 0
    outer loop
      vertex -54 5 20.2
      vertex -53.923879532511286 5.38268343236509 22.2
      vertex -53.923879532511286 5.38268343236509 20.2
    endloop
  endfacet
  facet normal -0.8314696123025448 0.5555702330196028 0
    outer loop
      vertex -53.923879532511286 5.38268343236509 20.2
      vertex -53.707106781186546 5.707106781186548 22.2
      vertex -53.707106781186546 5.707106781186548 20.2
    endloop
  endfacet
  facet normal -0.5555702330196055 0.831469612302543 0
    outer loop
      vertex -53.707106781186546 5.707106781186548 20.2
      vertex -53.707106781186546 5.707106781186548 22.2
      vertex -53.38268343236509 5.923879532511287 20.2
    endloop
  endfacet
  facet normal -0.19509032201612697 0.9807852804032307 0
    outer loop
      vertex -53.38268343236509 5.923879532511287 20.2
      vertex -53.38268343236509 5.923879532511287 22.2
      vertex -53 6 20.2
    endloop
  endfacet
  facet normal 0.19509032201612697 0.9807852804032307 0
    outer loop
      vertex -53 6 20.2
      vertex -53 6 22.2
      vertex -52.61731656763491 5.923879532511287 20.2
    endloop
  endfacet
  facet normal 0.98078528040323 0.19509032201613002 0
    outer loop
      vertex -52 5 20.2
      vertex -52.076120467488714 5.38268343236509 20.2
      vertex -52 5 22.2
    endloop
  endfacet
  facet normal 0.8314696123025448 0.5555702330196028 0
    outer loop
      vertex -52.292893218813454 5.707106781186548 20.2
      vertex -52.076120467488714 5.38268343236509 22.2
      vertex -52.076120467488714 5.38268343236509 20.2
    endloop
  endfacet
  facet normal 0.5555702330196055 0.831469612302543 0
    outer loop
      vertex -52.292893218813454 5.707106781186548 20.2
      vertex -52.61731656763491 5.923879532511287 20.2
      vertex -52.61731656763491 5.923879532511287 22.2
    endloop
  endfacet
  facet normal -0.98078528040323 0.19509032201613002 0
    outer loop
      vertex -54 5 20.2
      vertex -54 5 22.2
      vertex -53.923879532511286 5.38268343236509 22.2
    endloop
  endfacet
  facet normal -0.8314696123025448 0.5555702330196028 0
    outer loop
      vertex -53.923879532511286 5.38268343236509 20.2
      vertex -53.923879532511286 5.38268343236509 22.2
      vertex -53.707106781186546 5.707106781186548 22.2
    endloop
  endfacet
  facet normal -0.5555702330196055 0.831469612302543 0
    outer loop
      vertex -53.38268343236509 5.923879532511287 20.2
      vertex -53.707106781186546 5.707106781186548 22.2
      vertex -53.38268343236509 5.923879532511287 22.2
    endloop
  endfacet
  facet normal -0.19509032201612697 0.9807852804032307 0
    outer loop
      vertex -53 6 20.2
      vertex -53.38268343236509 5.923879532511287 22.2
      vertex -53 6 22.2
    endloop
  endfacet
  facet normal 0.19509032201612697 0.9807852804032307 0
    outer loop
      vertex -52.61731656763491 5.923879532511287 20.2
      vertex -53 6 22.2
      vertex -52.61731656763491 5.923879532511287 22.2
    endloop
  endfacet
  facet normal 0.5555702330196055 0.831469612302543 0
    outer loop
      vertex -52.292893218813454 5.707106781186548 20.2
      vertex -52.61731656763491 5.923879532511287 22.2
      vertex -52.292893218813454 5.707106781186548 22.2
    endloop
  endfacet
  facet normal 0.98078528040323 0.19509032201613002 0
    outer loop
      vertex -52.076120467488714 5.38268343236509 20.2
      vertex -52.076120467488714 5.38268343236509 22.2
      vertex -52 5 22.2
    endloop
  endfacet
  facet normal 0.8314696123025448 0.5555702330196028 0
    outer loop
      vertex -52.292893218813454 5.707106781186548 20.2
      vertex -52.292893218813454 5.707106781186548 22.2
      vertex -52.076120467488714 5.38268343236509 22.2
    endloop
  endfacet
  facet normal 0 0 -1
    outer loop
      vertex -71.92387953251128 4.61731656763491 20.2
      vertex -71.70710678118655 5.707106781186548 20.2
      vertex -71.70710678118655 4.292893218813452 20.2
    endloop
  endfacet
  facet normal 0 0 -1
    outer loop
      vertex -71.38268343236508 4.076120467488713 20.2
      vertex -71.70710678118655 4.292893218813452 20.2
      vertex -71.38268343236508 5.923879532511287 20.2
    endloop
  endfacet
  facet normal 0 0 -1
    outer loop
      vertex -71.38268343236508 4.076120467488713 20.2
      vertex -71 6 20.2
      vertex -71 4 20.2
    endloop
  endfacet
  facet normal 0 0 -1
    outer loop
      vertex -71 4 20.2
      vertex -70.61731656763492 5.923879532511287 20.2
      vertex -70.61731656763492 4.076120467488713 20.2
    endloop
  endfacet
  facet normal 0 0 -1
    outer loop
      vertex -70.61731656763492 4.076120467488713 20.2
      vertex -70.29289321881345 5.707106781186548 20.2
      vertex -70.29289321881345 4.292893218813452 20.2
    endloop
  endfacet
  facet normal 0 0 -1
    outer loop
      vertex -70.29289321881345 4.292893218813452 20.2
      vertex -70.07612046748872 5.38268343236509 20.2
      vertex -70.07612046748872 4.61731656763491 20.2
    endloop
  endfacet
  facet normal -0.5555702330195886 -0.8314696123025542 0
    outer loop
      vertex -71.38268343236508 4.076120467488713 20.2
      vertex -71.38268343236508 4.076120467488713 22.2
      vertex -71.70710678118655 4.292893218813452 20.2
    endloop
  endfacet
  facet normal -0.8314696123025618 -0.5555702330195778 0
    outer loop
      vertex -71.92387953251128 4.61731656763491 20.2
      vertex -71.70710678118655 4.292893218813452 20.2
      vertex -71.92387953251128 4.61731656763491 22.2
    endloop
  endfacet
  facet normal -0.9807852804032265 -0.19509032201614754 0
    outer loop
      vertex -71.92387953251128 4.61731656763491 20.2
      vertex -72 5 22.2
      vertex -72 5 20.2
    endloop
  endfacet
  facet normal -0.19509032201613047 -0.98078528040323 0
    outer loop
      vertex -71.38268343236508 4.076120467488713 20.2
      vertex -71 4 20.2
      vertex -71 4 22.2
    endloop
  endfacet
  facet normal 0.19509032201613047 -0.98078528040323 0
    outer loop
      vertex -71 4 20.2
      vertex -70.61731656763492 4.076120467488713 20.2
      vertex -70.61731656763492 4.076120467488713 22.2
    endloop
  endfacet
  facet normal 0.5555702330195886 -0.8314696123025542 0
    outer loop
      vertex -70.61731656763492 4.076120467488713 20.2
      vertex -70.29289321881345 4.292893218813452 20.2
      vertex -70.29289321881345 4.292893218813452 22.2
    endloop
  endfacet
  facet normal 0.8314696123025618 -0.5555702330195778 0
    outer loop
      vertex -70.29289321881345 4.292893218813452 20.2
      vertex -70.07612046748872 4.61731656763491 20.2
      vertex -70.29289321881345 4.292893218813452 22.2
    endloop
  endfacet
  facet normal 0.9807852804032265 -0.19509032201614754 0
    outer loop
      vertex -70.07612046748872 4.61731656763491 20.2
      vertex -70 5 20.2
      vertex -70.07612046748872 4.61731656763491 22.2
    endloop
  endfacet
  facet normal -0.8314696123025618 -0.5555702330195778 0
    outer loop
      vertex -71.70710678118655 4.292893218813452 20.2
      vertex -71.70710678118655 4.292893218813452 22.2
      vertex -71.92387953251128 4.61731656763491 22.2
    endloop
  endfacet
  facet normal -0.9807852804032265 -0.19509032201614754 0
    outer loop
      vertex -71.92387953251128 4.61731656763491 20.2
      vertex -71.92387953251128 4.61731656763491 22.2
      vertex -72 5 22.2
    endloop
  endfacet
  facet normal -0.5555702330195886 -0.8314696123025542 0
    outer loop
      vertex -71.70710678118655 4.292893218813452 20.2
      vertex -71.38268343236508 4.076120467488713 22.2
      vertex -71.70710678118655 4.292893218813452 22.2
    endloop
  endfacet
  facet normal -0.19509032201613047 -0.98078528040323 0
    outer loop
      vertex -71.38268343236508 4.076120467488713 20.2
      vertex -71 4 22.2
      vertex -71.38268343236508 4.076120467488713 22.2
    endloop
  endfacet
  facet normal 0.19509032201613047 -0.98078528040323 0
    outer loop
      vertex -71 4 20.2
      vertex -70.61731656763492 4.076120467488713 22.2
      vertex -71 4 22.2
    endloop
  endfacet
  facet normal 0.5555702330195886 -0.8314696123025542 0
    outer loop
      vertex -70.61731656763492 4.076120467488713 20.2
      vertex -70.29289321881345 4.292893218813452 22.2
      vertex -70.61731656763492 4.076120467488713 22.2
    endloop
  endfacet
  facet normal 0.8314696123025618 -0.5555702330195778 0
    outer loop
      vertex -70.07612046748872 4.61731656763491 20.2
      vertex -70.07612046748872 4.61731656763491 22.2
      vertex -70.29289321881345 4.292893218813452 22.2
    endloop
  endfacet
  facet normal 0.9807852804032265 -0.19509032201614754 0
    outer loop
      vertex -70 5 20.2
      vertex -70 5 22.2
      vertex -70.07612046748872 4.61731656763491 22.2
    endloop
  endfacet
  facet normal 0 0 -1
    outer loop
      vertex -71.92387953251128 4.61731656763491 20.2
      vertex -72 5 20.2
      vertex -71.92387953251128 5.38268343236509 20.2
    endloop
  endfacet
  facet normal 0 0 -1
    outer loop
      vertex -71.92387953251128 4.61731656763491 20.2
      vertex -71.92387953251128 5.38268343236509 20.2
      vertex -71.70710678118655 5.707106781186548 20.2
    endloop
  endfacet
  facet normal 0 0 -1
    outer loop
      vertex -71.70710678118655 4.292893218813452 20.2
      vertex -71.70710678118655 5.707106781186548 20.2
      vertex -71.38268343236508 5.923879532511287 20.2
    endloop
  endfacet
  facet normal 0 0 -1
    outer loop
      vertex -71.38268343236508 4.076120467488713 20.2
      vertex -71.38268343236508 5.923879532511287 20.2
      vertex -71 6 20.2
    endloop
  endfacet
  facet normal 0 0 -1
    outer loop
      vertex -71 4 20.2
      vertex -71 6 20.2
      vertex -70.61731656763492 5.923879532511287 20.2
    endloop
  endfacet
  facet normal 0 0 -1
    outer loop
      vertex -70.61731656763492 4.076120467488713 20.2
      vertex -70.61731656763492 5.923879532511287 20.2
      vertex -70.29289321881345 5.707106781186548 20.2
    endloop
  endfacet
  facet normal 0 0 -1
    outer loop
      vertex -70.29289321881345 4.292893218813452 20.2
      vertex -70.29289321881345 5.707106781186548 20.2
      vertex -70.07612046748872 5.38268343236509 20.2
    endloop
  endfacet
  facet normal 0 0 -1
    outer loop
      vertex -70.07612046748872 4.61731656763491 20.2
      vertex -70.07612046748872 5.38268343236509 20.2
      vertex -70 5 20.2
    endloop
  endfacet
  facet normal -0.9807852804032265 0.19509032201614754 0
    outer loop
      vertex -72 5 20.2
      vertex -71.92387953251128 5.38268343236509 22.2
      vertex -71.92387953251128 5.38268343236509 20.2
    endloop
  endfacet
  facet normal -0.8314696123025618 0.5555702330195778 0
    outer loop
      vertex -71.92387953251128 5.38268343236509 20.2
      vertex -71.70710678118655 5.707106781186548 22.2
      vertex -71.70710678118655 5.707106781186548 20.2
    endloop
  endfacet
  facet normal -0.5555702330195886 0.8314696123025542 0
    outer loop
      vertex -71.70710678118655 5.707106781186548 20.2
      vertex -71.70710678118655 5.707106781186548 22.2
      vertex -71.38268343236508 5.923879532511287 20.2
    endloop
  endfacet
  facet normal -0.19509032201613047 0.98078528040323 0
    outer loop
      vertex -71.38268343236508 5.923879532511287 20.2
      vertex -71.38268343236508 5.923879532511287 22.2
      vertex -71 6 20.2
    endloop
  endfacet
  facet normal 0.19509032201613047 0.98078528040323 0
    outer loop
      vertex -71 6 20.2
      vertex -71 6 22.2
      vertex -70.61731656763492 5.923879532511287 20.2
    endloop
  endfacet
  facet normal 0.5555702330195886 0.8314696123025542 0
    outer loop
      vertex -70.29289321881345 5.707106781186548 20.2
      vertex -70.61731656763492 5.923879532511287 20.2
      vertex -70.61731656763492 5.923879532511287 22.2
    endloop
  endfacet
  facet normal 0.9807852804032265 0.19509032201614754 0
    outer loop
      vertex -70 5 20.2
      vertex -70.07612046748872 5.38268343236509 20.2
      vertex -70 5 22.2
    endloop
  endfacet
  facet normal 0.8314696123025618 0.5555702330195778 0
    outer loop
      vertex -70.29289321881345 5.707106781186548 20.2
      vertex -70.07612046748872 5.38268343236509 22.2
      vertex -70.07612046748872 5.38268343236509 20.2
    endloop
  endfacet
  facet normal -0.9807852804032265 0.19509032201614754 0
    outer loop
      vertex -72 5 20.2
      vertex -72 5 22.2
      vertex -71.92387953251128 5.38268343236509 22.2
    endloop
  endfacet
  facet normal -0.8314696123025618 0.5555702330195778 0
    outer loop
      vertex -71.92387953251128 5.38268343236509 20.2
      vertex -71.92387953251128 5.38268343236509 22.2
      vertex -71.70710678118655 5.707106781186548 22.2
    endloop
  endfacet
  facet normal -0.5555702330195886 0.8314696123025542 0
    outer loop
      vertex -71.38268343236508 5.923879532511287 20.2
      vertex -71.70710678118655 5.707106781186548 22.2
      vertex -71.38268343236508 5.923879532511287 22.2
    endloop
  endfacet
  facet normal -0.19509032201613047 0.98078528040323 0
    outer loop
      vertex -71 6 20.2
      vertex -71.38268343236508 5.923879532511287 22.2
      vertex -71 6 22.2
    endloop
  endfacet
  facet normal 0.19509032201613047 0.98078528040323 0
    outer loop
      vertex -70.61731656763492 5.923879532511287 20.2
      vertex -71 6 22.2
      vertex -70.61731656763492 5.923879532511287 22.2
    endloop
  endfacet
  facet normal 0.9807852804032265 0.19509032201614754 0
    outer loop
      vertex -70.07612046748872 5.38268343236509 20.2
      vertex -70.07612046748872 5.38268343236509 22.2
      vertex -70 5 22.2
    endloop
  endfacet
  facet normal 0.5555702330195886 0.8314696123025542 0
    outer loop
      vertex -70.29289321881345 5.707106781186548 20.2
      vertex -70.61731656763492 5.923879532511287 22.2
      vertex -70.29289321881345 5.707106781186548 22.2
    endloop
  endfacet
  facet normal 0.8314696123025618 0.5555702330195778 0
    outer loop
      vertex -70.29289321881345 5.707106781186548 20.2
      vertex -70.29289321881345 5.707106781186548 22.2
      vertex -70.07612046748872 5.38268343236509 22.2
    endloop
  endfacet
  facet normal 0 0 -1
    outer loop
      vertex -62.923879532511286 13.61731656763491 20.2
      vertex -63 14 20.2
      vertex -62.923879532511286 14.38268343236509 20.2
    endloop
  endfacet
  facet normal 0 0 -1
    outer loop
      vertex -62.923879532511286 13.61731656763491 20.2
      vertex -62.923879532511286 14.38268343236509 20.2
      vertex -62.707106781186546 14.707106781186548 20.2
    endloop
  endfacet
  facet normal 0 0 -1
    outer loop
      vertex -62.38268343236509 13.076120467488714 20.2
      vertex -62.707106781186546 13.292893218813452 20.2
      vertex -62.38268343236509 14.923879532511286 20.2
    endloop
  endfacet
  facet normal 0 0 -1
    outer loop
      vertex -62.923879532511286 13.61731656763491 20.2
      vertex -62.707106781186546 14.707106781186548 20.2
      vertex -62.707106781186546 13.292893218813452 20.2
    endloop
  endfacet
  facet normal 0 0 -1
    outer loop
      vertex -62.38268343236509 13.076120467488714 20.2
      vertex -62 15 20.2
      vertex -62 13 20.2
    endloop
  endfacet
  facet normal 0 0 -1
    outer loop
      vertex -62.707106781186546 13.292893218813452 20.2
      vertex -62.707106781186546 14.707106781186548 20.2
      vertex -62.38268343236509 14.923879532511286 20.2
    endloop
  endfacet
  facet normal 0 0 -1
    outer loop
      vertex -62.38268343236509 13.076120467488714 20.2
      vertex -62.38268343236509 14.923879532511286 20.2
      vertex -62 15 20.2
    endloop
  endfacet
  facet normal -0.5555702330196038 -0.8314696123025441 0
    outer loop
      vertex -62.38268343236509 13.076120467488714 20.2
      vertex -62.38268343236509 13.076120467488714 22.2
      vertex -62.707106781186546 13.292893218813452 20.2
    endloop
  endfacet
  facet normal -0.19509032201612916 -0.9807852804032302 0
    outer loop
      vertex -62.38268343236509 13.076120467488714 20.2
      vertex -62 13 20.2
      vertex -62 13 22.2
    endloop
  endfacet
  facet normal -0.8314696123025448 -0.5555702330196028 0
    outer loop
      vertex -62.923879532511286 13.61731656763491 20.2
      vertex -62.707106781186546 13.292893218813452 20.2
      vertex -62.923879532511286 13.61731656763491 22.2
    endloop
  endfacet
  facet normal -0.98078528040323 -0.19509032201613002 0
    outer loop
      vertex -62.923879532511286 13.61731656763491 20.2
      vertex -63 14 22.2
      vertex -63 14 20.2
    endloop
  endfacet
  facet normal -0.98078528040323 0.19509032201613002 0
    outer loop
      vertex -63 14 20.2
      vertex -62.923879532511286 14.38268343236509 22.2
      vertex -62.923879532511286 14.38268343236509 20.2
    endloop
  endfacet
  facet normal -0.8314696123025448 0.5555702330196028 0
    outer loop
      vertex -62.923879532511286 14.38268343236509 20.2
      vertex -62.707106781186546 14.707106781186548 22.2
      vertex -62.707106781186546 14.707106781186548 20.2
    endloop
  endfacet
  facet normal -0.5555702330196038 0.8314696123025441 0
    outer loop
      vertex -62.707106781186546 14.707106781186548 20.2
      vertex -62.707106781186546 14.707106781186548 22.2
      vertex -62.38268343236509 14.923879532511286 20.2
    endloop
  endfacet
  facet normal -0.19509032201612916 0.9807852804032302 0
    outer loop
      vertex -62.38268343236509 14.923879532511286 20.2
      vertex -62.38268343236509 14.923879532511286 22.2
      vertex -62 15 20.2
    endloop
  endfacet
  facet normal -0.8314696123025448 -0.5555702330196028 0
    outer loop
      vertex -62.707106781186546 13.292893218813452 20.2
      vertex -62.707106781186546 13.292893218813452 22.2
      vertex -62.923879532511286 13.61731656763491 22.2
    endloop
  endfacet
  facet normal -0.5555702330196038 -0.8314696123025441 0
    outer loop
      vertex -62.707106781186546 13.292893218813452 20.2
      vertex -62.38268343236509 13.076120467488714 22.2
      vertex -62.707106781186546 13.292893218813452 22.2
    endloop
  endfacet
  facet normal -0.19509032201612916 -0.9807852804032302 0
    outer loop
      vertex -62.38268343236509 13.076120467488714 20.2
      vertex -62 13 22.2
      vertex -62.38268343236509 13.076120467488714 22.2
    endloop
  endfacet
  facet normal -0.98078528040323 -0.19509032201613002 0
    outer loop
      vertex -62.923879532511286 13.61731656763491 20.2
      vertex -62.923879532511286 13.61731656763491 22.2
      vertex -63 14 22.2
    endloop
  endfacet
  facet normal -0.98078528040323 0.19509032201613002 0
    outer loop
      vertex -63 14 20.2
      vertex -63 14 22.2
      vertex -62.923879532511286 14.38268343236509 22.2
    endloop
  endfacet
  facet normal -0.8314696123025448 0.5555702330196028 0
    outer loop
      vertex -62.923879532511286 14.38268343236509 20.2
      vertex -62.923879532511286 14.38268343236509 22.2
      vertex -62.707106781186546 14.707106781186548 22.2
    endloop
  endfacet
  facet normal -0.5555702330196038 0.8314696123025441 0
    outer loop
      vertex -62.38268343236509 14.923879532511286 20.2
      vertex -62.707106781186546 14.707106781186548 22.2
      vertex -62.38268343236509 14.923879532511286 22.2
    endloop
  endfacet
  facet normal -0.19509032201612916 0.9807852804032302 0
    outer loop
      vertex -62 15 20.2
      vertex -62.38268343236509 14.923879532511286 22.2
      vertex -62 15 22.2
    endloop
  endfacet
  facet normal 0 0 -1
    outer loop
      vertex -62 13 20.2
      vertex -61.61731656763491 14.923879532511286 20.2
      vertex -61.61731656763491 13.076120467488714 20.2
    endloop
  endfacet
  facet normal 0 0 -1
    outer loop
      vertex -61.61731656763491 13.076120467488714 20.2
      vertex -61.292893218813454 14.707106781186548 20.2
      vertex -61.292893218813454 13.292893218813452 20.2
    endloop
  endfacet
  facet normal 0 0 -1
    outer loop
      vertex -61.61731656763491 13.076120467488714 20.2
      vertex -61.61731656763491 14.923879532511286 20.2
      vertex -61.292893218813454 14.707106781186548 20.2
    endloop
  endfacet
  facet normal 0 0 -1
    outer loop
      vertex -61.292893218813454 13.292893218813452 20.2
      vertex -61.292893218813454 14.707106781186548 20.2
      vertex -61.076120467488714 14.38268343236509 20.2
    endloop
  endfacet
  facet normal 0 0 -1
    outer loop
      vertex -62 13 20.2
      vertex -62 15 20.2
      vertex -61.61731656763491 14.923879532511286 20.2
    endloop
  endfacet
  facet normal 0 0 -1
    outer loop
      vertex -61.292893218813454 13.292893218813452 20.2
      vertex -61.076120467488714 14.38268343236509 20.2
      vertex -61.076120467488714 13.61731656763491 20.2
    endloop
  endfacet
  facet normal 0 0 -1
    outer loop
      vertex -61.076120467488714 13.61731656763491 20.2
      vertex -61.076120467488714 14.38268343236509 20.2
      vertex -61 14 20.2
    endloop
  endfacet
  facet normal 0.19509032201612916 -0.9807852804032302 0
    outer loop
      vertex -62 13 20.2
      vertex -61.61731656763491 13.076120467488714 20.2
      vertex -61.61731656763491 13.076120467488714 22.2
    endloop
  endfacet
  facet normal 0.5555702330196038 -0.8314696123025441 0
    outer loop
      vertex -61.61731656763491 13.076120467488714 20.2
      vertex -61.292893218813454 13.292893218813452 20.2
      vertex -61.292893218813454 13.292893218813452 22.2
    endloop
  endfacet
  facet normal 0.8314696123025448 -0.5555702330196028 0
    outer loop
      vertex -61.292893218813454 13.292893218813452 20.2
      vertex -61.076120467488714 13.61731656763491 20.2
      vertex -61.292893218813454 13.292893218813452 22.2
    endloop
  endfacet
  facet normal 0.19509032201612916 0.9807852804032302 0
    outer loop
      vertex -62 15 20.2
      vertex -62 15 22.2
      vertex -61.61731656763491 14.923879532511286 20.2
    endloop
  endfacet
  facet normal 0.5555702330196038 0.8314696123025441 0
    outer loop
      vertex -61.61731656763491 14.923879532511286 20.2
      vertex -61.61731656763491 14.923879532511286 22.2
      vertex -61.292893218813454 14.707106781186548 20.2
    endloop
  endfacet
  facet normal 0.98078528040323 -0.19509032201613002 0
    outer loop
      vertex -61.076120467488714 13.61731656763491 20.2
      vertex -61 14 20.2
      vertex -61.076120467488714 13.61731656763491 22.2
    endloop
  endfacet
  facet normal 0.98078528040323 0.19509032201613002 0
    outer loop
      vertex -61 14 20.2
      vertex -61.076120467488714 14.38268343236509 20.2
      vertex -61 14 22.2
    endloop
  endfacet
  facet normal 0.8314696123025448 0.5555702330196028 0
    outer loop
      vertex -61.292893218813454 14.707106781186548 20.2
      vertex -61.076120467488714 14.38268343236509 22.2
      vertex -61.076120467488714 14.38268343236509 20.2
    endloop
  endfacet
  facet normal 0.19509032201612916 -0.9807852804032302 0
    outer loop
      vertex -62 13 20.2
      vertex -61.61731656763491 13.076120467488714 22.2
      vertex -62 13 22.2
    endloop
  endfacet
  facet normal 0.5555702330196038 -0.8314696123025441 0
    outer loop
      vertex -61.61731656763491 13.076120467488714 20.2
      vertex -61.292893218813454 13.292893218813452 22.2
      vertex -61.61731656763491 13.076120467488714 22.2
    endloop
  endfacet
  facet normal 0.19509032201612916 0.9807852804032302 0
    outer loop
      vertex -61.61731656763491 14.923879532511286 20.2
      vertex -62 15 22.2
      vertex -61.61731656763491 14.923879532511286 22.2
    endloop
  endfacet
  facet normal 0.8314696123025448 0.5555702330196028 0
    outer loop
      vertex -61.292893218813454 14.707106781186548 20.2
      vertex -61.292893218813454 14.707106781186548 22.2
      vertex -61.076120467488714 14.38268343236509 22.2
    endloop
  endfacet
  facet normal 0.5555702330196038 0.8314696123025441 0
    outer loop
      vertex -61.292893218813454 14.707106781186548 20.2
      vertex -61.61731656763491 14.923879532511286 22.2
      vertex -61.292893218813454 14.707106781186548 22.2
    endloop
  endfacet
  facet normal 0.8314696123025448 -0.5555702330196028 0
    outer loop
      vertex -61.076120467488714 13.61731656763491 20.2
      vertex -61.076120467488714 13.61731656763491 22.2
      vertex -61.292893218813454 13.292893218813452 22.2
    endloop
  endfacet
  facet normal 0.98078528040323 -0.19509032201613002 0
    outer loop
      vertex -61 14 20.2
      vertex -61 14 22.2
      vertex -61.076120467488714 13.61731656763491 22.2
    endloop
  endfacet
  facet normal 0.98078528040323 0.19509032201613002 0
    outer loop
      vertex -61.076120467488714 14.38268343236509 20.2
      vertex -61.076120467488714 14.38268343236509 22.2
      vertex -61 14 22.2
    endloop
  endfacet
  facet normal 0 0 -1
    outer loop
      vertex -62.923879532511286 -4.38268343236509 20.2
      vertex -63 -4 20.2
      vertex -62.923879532511286 -3.6173165676349104 20.2
    endloop
  endfacet
  facet normal 0 0 -1
    outer loop
      vertex -62.923879532511286 -4.38268343236509 20.2
      vertex -62.923879532511286 -3.6173165676349104 20.2
      vertex -62.707106781186546 -3.292893218813452 20.2
    endloop
  endfacet
  facet normal 0 0 -1
    outer loop
      vertex -62.38268343236509 -4.923879532511286 20.2
      vertex -62 -3 20.2
      vertex -62 -5 20.2
    endloop
  endfacet
  facet normal 0 0 -1
    outer loop
      vertex -62.923879532511286 -4.38268343236509 20.2
      vertex -62.707106781186546 -3.292893218813452 20.2
      vertex -62.707106781186546 -4.707106781186548 20.2
    endloop
  endfacet
  facet normal 0 0 -1
    outer loop
      vertex -62.707106781186546 -4.707106781186548 20.2
      vertex -62.38268343236509 -3.076120467488714 20.2
      vertex -62.38268343236509 -4.923879532511286 20.2
    endloop
  endfacet
  facet normal 0 0 -1
    outer loop
      vertex -62.707106781186546 -4.707106781186548 20.2
      vertex -62.707106781186546 -3.292893218813452 20.2
      vertex -62.38268343236509 -3.076120467488714 20.2
    endloop
  endfacet
  facet normal 0 0 -1
    outer loop
      vertex -62.38268343236509 -4.923879532511286 20.2
      vertex -62.38268343236509 -3.076120467488714 20.2
      vertex -62 -3 20.2
    endloop
  endfacet
  facet normal -0.8314696123025448 -0.5555702330196028 0
    outer loop
      vertex -62.923879532511286 -4.38268343236509 20.2
      vertex -62.707106781186546 -4.707106781186548 20.2
      vertex -62.923879532511286 -4.38268343236509 22.2
    endloop
  endfacet
  facet normal -0.98078528040323 -0.19509032201613002 0
    outer loop
      vertex -62.923879532511286 -4.38268343236509 20.2
      vertex -63 -4 22.2
      vertex -63 -4 20.2
    endloop
  endfacet
  facet normal -0.98078528040323 0.19509032201613002 0
    outer loop
      vertex -63 -4 20.2
      vertex -62.923879532511286 -3.6173165676349104 22.2
      vertex -62.923879532511286 -3.6173165676349104 20.2
    endloop
  endfacet
  facet normal -0.5555702330196038 -0.8314696123025441 0
    outer loop
      vertex -62.707106781186546 -4.707106781186548 20.2
      vertex -62.38268343236509 -4.923879532511286 20.2
      vertex -62.38268343236509 -4.923879532511286 22.2
    endloop
  endfacet
  facet normal -0.19509032201612916 -0.9807852804032302 0
    outer loop
      vertex -62.38268343236509 -4.923879532511286 20.2
      vertex -62 -5 20.2
      vertex -62 -5 22.2
    endloop
  endfacet
  facet normal -0.8314696123025448 0.5555702330196028 0
    outer loop
      vertex -62.923879532511286 -3.6173165676349104 20.2
      vertex -62.707106781186546 -3.292893218813452 22.2
      vertex -62.707106781186546 -3.292893218813452 20.2
    endloop
  endfacet
  facet normal -0.5555702330196038 0.8314696123025441 0
    outer loop
      vertex -62.707106781186546 -3.292893218813452 20.2
      vertex -62.707106781186546 -3.292893218813452 22.2
      vertex -62.38268343236509 -3.076120467488714 20.2
    endloop
  endfacet
  facet normal -0.19509032201612916 0.9807852804032302 0
    outer loop
      vertex -62.38268343236509 -3.076120467488714 20.2
      vertex -62.38268343236509 -3.076120467488714 22.2
      vertex -62 -3 20.2
    endloop
  endfacet
  facet normal -0.98078528040323 -0.19509032201613002 0
    outer loop
      vertex -62.923879532511286 -4.38268343236509 20.2
      vertex -62.923879532511286 -4.38268343236509 22.2
      vertex -63 -4 22.2
    endloop
  endfacet
  facet normal -0.98078528040323 0.19509032201613002 0
    outer loop
      vertex -63 -4 20.2
      vertex -63 -4 22.2
      vertex -62.923879532511286 -3.6173165676349104 22.2
    endloop
  endfacet
  facet normal -0.8314696123025448 0.5555702330196028 0
    outer loop
      vertex -62.923879532511286 -3.6173165676349104 20.2
      vertex -62.923879532511286 -3.6173165676349104 22.2
      vertex -62.707106781186546 -3.292893218813452 22.2
    endloop
  endfacet
  facet normal -0.5555702330196038 -0.8314696123025441 0
    outer loop
      vertex -62.707106781186546 -4.707106781186548 20.2
      vertex -62.38268343236509 -4.923879532511286 22.2
      vertex -62.707106781186546 -4.707106781186548 22.2
    endloop
  endfacet
  facet normal -0.8314696123025448 -0.5555702330196028 0
    outer loop
      vertex -62.707106781186546 -4.707106781186548 20.2
      vertex -62.707106781186546 -4.707106781186548 22.2
      vertex -62.923879532511286 -4.38268343236509 22.2
    endloop
  endfacet
  facet normal -0.19509032201612916 -0.9807852804032302 0
    outer loop
      vertex -62.38268343236509 -4.923879532511286 20.2
      vertex -62 -5 22.2
      vertex -62.38268343236509 -4.923879532511286 22.2
    endloop
  endfacet
  facet normal -0.5555702330196038 0.8314696123025441 0
    outer loop
      vertex -62.38268343236509 -3.076120467488714 20.2
      vertex -62.707106781186546 -3.292893218813452 22.2
      vertex -62.38268343236509 -3.076120467488714 22.2
    endloop
  endfacet
  facet normal -0.19509032201612916 0.9807852804032302 0
    outer loop
      vertex -62 -3 20.2
      vertex -62.38268343236509 -3.076120467488714 22.2
      vertex -62 -3 22.2
    endloop
  endfacet
  facet normal 0 0 -1
    outer loop
      vertex -62 -5 20.2
      vertex -61.61731656763491 -3.076120467488714 20.2
      vertex -61.61731656763491 -4.923879532511286 20.2
    endloop
  endfacet
  facet normal 0 0 -1
    outer loop
      vertex -61.61731656763491 -4.923879532511286 20.2
      vertex -61.292893218813454 -3.292893218813452 20.2
      vertex -61.292893218813454 -4.707106781186548 20.2
    endloop
  endfacet
  facet normal 0 0 -1
    outer loop
      vertex -62 -5 20.2
      vertex -62 -3 20.2
      vertex -61.61731656763491 -3.076120467488714 20.2
    endloop
  endfacet
  facet normal 0 0 -1
    outer loop
      vertex -61.292893218813454 -4.707106781186548 20.2
      vertex -61.292893218813454 -3.292893218813452 20.2
      vertex -61.076120467488714 -3.6173165676349104 20.2
    endloop
  endfacet
  facet normal 0 0 -1
    outer loop
      vertex -61.61731656763491 -4.923879532511286 20.2
      vertex -61.61731656763491 -3.076120467488714 20.2
      vertex -61.292893218813454 -3.292893218813452 20.2
    endloop
  endfacet
  facet normal 0 0 -1
    outer loop
      vertex -61.292893218813454 -4.707106781186548 20.2
      vertex -61.076120467488714 -3.6173165676349104 20.2
      vertex -61.076120467488714 -4.38268343236509 20.2
    endloop
  endfacet
  facet normal 0 0 -1
    outer loop
      vertex -61.076120467488714 -4.38268343236509 20.2
      vertex -61.076120467488714 -3.6173165676349104 20.2
      vertex -61 -4 20.2
    endloop
  endfacet
  facet normal 0.19509032201612916 -0.9807852804032302 0
    outer loop
      vertex -62 -5 20.2
      vertex -61.61731656763491 -4.923879532511286 20.2
      vertex -61.61731656763491 -4.923879532511286 22.2
    endloop
  endfacet
  facet normal 0.5555702330196038 -0.8314696123025441 0
    outer loop
      vertex -61.61731656763491 -4.923879532511286 20.2
      vertex -61.292893218813454 -4.707106781186548 20.2
      vertex -61.292893218813454 -4.707106781186548 22.2
    endloop
  endfacet
  facet normal 0.8314696123025448 -0.5555702330196028 0
    outer loop
      vertex -61.292893218813454 -4.707106781186548 20.2
      vertex -61.076120467488714 -4.38268343236509 20.2
      vertex -61.292893218813454 -4.707106781186548 22.2
    endloop
  endfacet
  facet normal 0.98078528040323 -0.19509032201613002 0
    outer loop
      vertex -61.076120467488714 -4.38268343236509 20.2
      vertex -61 -4 20.2
      vertex -61.076120467488714 -4.38268343236509 22.2
    endloop
  endfacet
  facet normal 0.98078528040323 0.19509032201613002 0
    outer loop
      vertex -61 -4 20.2
      vertex -61.076120467488714 -3.6173165676349104 20.2
      vertex -61 -4 22.2
    endloop
  endfacet
  facet normal 0.8314696123025448 0.5555702330196028 0
    outer loop
      vertex -61.292893218813454 -3.292893218813452 20.2
      vertex -61.076120467488714 -3.6173165676349104 22.2
      vertex -61.076120467488714 -3.6173165676349104 20.2
    endloop
  endfacet
  facet normal 0.19509032201612916 0.9807852804032302 0
    outer loop
      vertex -62 -3 20.2
      vertex -62 -3 22.2
      vertex -61.61731656763491 -3.076120467488714 20.2
    endloop
  endfacet
  facet normal 0.5555702330196038 0.8314696123025441 0
    outer loop
      vertex -61.292893218813454 -3.292893218813452 20.2
      vertex -61.61731656763491 -3.076120467488714 20.2
      vertex -61.61731656763491 -3.076120467488714 22.2
    endloop
  endfacet
  facet normal 0.19509032201612916 -0.9807852804032302 0
    outer loop
      vertex -62 -5 20.2
      vertex -61.61731656763491 -4.923879532511286 22.2
      vertex -62 -5 22.2
    endloop
  endfacet
  facet normal 0.5555702330196038 -0.8314696123025441 0
    outer loop
      vertex -61.61731656763491 -4.923879532511286 20.2
      vertex -61.292893218813454 -4.707106781186548 22.2
      vertex -61.61731656763491 -4.923879532511286 22.2
    endloop
  endfacet
  facet normal 0.8314696123025448 -0.5555702330196028 0
    outer loop
      vertex -61.076120467488714 -4.38268343236509 20.2
      vertex -61.076120467488714 -4.38268343236509 22.2
      vertex -61.292893218813454 -4.707106781186548 22.2
    endloop
  endfacet
  facet normal 0.98078528040323 -0.19509032201613002 0
    outer loop
      vertex -61 -4 20.2
      vertex -61 -4 22.2
      vertex -61.076120467488714 -4.38268343236509 22.2
    endloop
  endfacet
  facet normal 0.98078528040323 0.19509032201613002 0
    outer loop
      vertex -61.076120467488714 -3.6173165676349104 20.2
      vertex -61.076120467488714 -3.6173165676349104 22.2
      vertex -61 -4 22.2
    endloop
  endfacet
  facet normal 0.19509032201612916 0.9807852804032302 0
    outer loop
      vertex -61.61731656763491 -3.076120467488714 20.2
      vertex -62 -3 22.2
      vertex -61.61731656763491 -3.076120467488714 22.2
    endloop
  endfacet
  facet normal 0.5555702330196038 0.8314696123025441 0
    outer loop
      vertex -61.292893218813454 -3.292893218813452 20.2
      vertex -61.61731656763491 -3.076120467488714 22.2
      vertex -61.292893218813454 -3.292893218813452 22.2
    endloop
  endfacet
  facet normal 0.8314696123025448 0.5555702330196028 0
    outer loop
      vertex -61.292893218813454 -3.292893218813452 20.2
      vertex -61.292893218813454 -3.292893218813452 22.2
      vertex -61.076120467488714 -3.6173165676349104 22.2
    endloop
  endfacet
  facet normal 0 -1 0
    outer loop
      vertex -73.5 2.75 25.3
      vertex -73.5 2.75 23
      vertex -64.25 2.75 23
    endloop
  endfacet
  facet normal -1 0 0
    outer loop
      vertex -73.5 2.75 25.3
      vertex -73.5 7.25 25.3
      vertex -73.5 2.75 23
    endloop
  endfacet
  facet normal 0 -1 0
    outer loop
      vertex -64.25 -6.5 25.3
      vertex -64.25 -6.5 23
      vertex -59.75 -6.5 23
    endloop
  endfacet
  facet normal -1 0 0
    outer loop
      vertex -64.25 -6.5 25.3
      vertex -64.25 2.75 25.3
      vertex -64.25 -6.5 23
    endloop
  endfacet
  facet normal 0 0 1
    outer loop
      vertex -64.25 -6.5 25.3
      vertex -59.75 -6.5 25.3
      vertex -64.25 2.75 25.3
    endloop
  endfacet
  facet normal -1 0 0
    outer loop
      vertex -64.25 2.75 25.3
      vertex -64.25 2.75 23
      vertex -64.25 -6.5 23
    endloop
  endfacet
  facet normal 0 -1 0
    outer loop
      vertex -73.5 2.75 25.3
      vertex -64.25 2.75 23
      vertex -64.25 2.75 25.3
    endloop
  endfacet
  facet normal 0 0 1
    outer loop
      vertex -73.5 2.75 25.3
      vertex -64.25 2.75 25.3
      vertex -64.25 7.25 25.3
    endloop
  endfacet
  facet normal 0 0 1
    outer loop
      vertex -64.25 2.75 25.3
      vertex -59.75 2.75 25.3
      vertex -64.25 7.25 25.3
    endloop
  endfacet
  facet normal -1 0 0
    outer loop
      vertex -73.5 7.25 25.3
      vertex -73.5 7.25 23
      vertex -73.5 2.75 23
    endloop
  endfacet
  facet normal 0 1 0
    outer loop
      vertex -73.5 7.25 25.3
      vertex -64.25 7.25 25.3
      vertex -73.5 7.25 23
    endloop
  endfacet
  facet normal 0 0 1
    outer loop
      vertex -73.5 2.75 25.3
      vertex -64.25 7.25 25.3
      vertex -73.5 7.25 25.3
    endloop
  endfacet
  facet normal 0 1 0
    outer loop
      vertex -64.25 7.25 25.3
      vertex -64.25 7.25 23
      vertex -73.5 7.25 23
    endloop
  endfacet
  facet normal -1 0 0
    outer loop
      vertex -64.25 7.25 25.3
      vertex -64.25 16.5 25.3
      vertex -64.25 7.25 23
    endloop
  endfacet
  facet normal 0 0 1
    outer loop
      vertex -64.25 7.25 25.3
      vertex -59.75 7.25 25.3
      vertex -64.25 16.5 25.3
    endloop
  endfacet
  facet normal -1 0 0
    outer loop
      vertex -64.25 16.5 25.3
      vertex -64.25 16.5 23
      vertex -64.25 7.25 23
    endloop
  endfacet
  facet normal 0 1 0
    outer loop
      vertex -64.25 16.5 25.3
      vertex -59.75 16.5 25.3
      vertex -64.25 16.5 23
    endloop
  endfacet
  facet normal 1 0 0
    outer loop
      vertex -59.75 -6.5 25.3
      vertex -59.75 -6.5 23
      vertex -59.75 2.75 23
    endloop
  endfacet
  facet normal 0 -1 0
    outer loop
      vertex -64.25 -6.5 25.3
      vertex -59.75 -6.5 23
      vertex -59.75 -6.5 25.3
    endloop
  endfacet
  facet normal 0 -1 0
    outer loop
      vertex -59.75 2.75 25.3
      vertex -59.75 2.75 23
      vertex -50.5 2.75 23
    endloop
  endfacet
  facet normal 1 0 0
    outer loop
      vertex -59.75 -6.5 25.3
      vertex -59.75 2.75 23
      vertex -59.75 2.75 25.3
    endloop
  endfacet
  facet normal 0 0 1
    outer loop
      vertex -64.25 2.75 25.3
      vertex -59.75 -6.5 25.3
      vertex -59.75 2.75 25.3
    endloop
  endfacet
  facet normal 1 0 0
    outer loop
      vertex -50.5 2.75 25.3
      vertex -50.5 2.75 23
      vertex -50.5 7.25 23
    endloop
  endfacet
  facet normal 0 -1 0
    outer loop
      vertex -59.75 2.75 25.3
      vertex -50.5 2.75 23
      vertex -50.5 2.75 25.3
    endloop
  endfacet
  facet normal 0 0 1
    outer loop
      vertex -59.75 2.75 25.3
      vertex -50.5 2.75 25.3
      vertex -50.5 7.25 25.3
    endloop
  endfacet
  facet normal 1 0 0
    outer loop
      vertex -59.75 7.25 25.3
      vertex -59.75 7.25 23
      vertex -59.75 16.5 23
    endloop
  endfacet
  facet normal 0 0 1
    outer loop
      vertex -64.25 7.25 25.3
      vertex -59.75 2.75 25.3
      vertex -59.75 7.25 25.3
    endloop
  endfacet
  facet normal 0 1 0
    outer loop
      vertex -59.75 7.25 25.3
      vertex -50.5 7.25 25.3
      vertex -59.75 7.25 23
    endloop
  endfacet
  facet normal 0 0 1
    outer loop
      vertex -59.75 2.75 25.3
      vertex -50.5 7.25 25.3
      vertex -59.75 7.25 25.3
    endloop
  endfacet
  facet normal 0 1 0
    outer loop
      vertex -59.75 16.5 25.3
      vertex -59.75 16.5 23
      vertex -64.25 16.5 23
    endloop
  endfacet
  facet normal 1 0 0
    outer loop
      vertex -59.75 7.25 25.3
      vertex -59.75 16.5 23
      vertex -59.75 16.5 25.3
    endloop
  endfacet
  facet normal 0 0 1
    outer loop
      vertex -64.25 16.5 25.3
      vertex -59.75 7.25 25.3
      vertex -59.75 16.5 25.3
    endloop
  endfacet
  facet normal 0 1 0
    outer loop
      vertex -50.5 7.25 25.3
      vertex -50.5 7.25 23
      vertex -59.75 7.25 23
    endloop
  endfacet
  facet normal 1 0 0
    outer loop
      vertex -50.5 2.75 25.3
      vertex -50.5 7.25 23
      vertex -50.5 7.25 25.3
    endloop
  endfacet
  facet normal 0 -1 0
    outer loop
      vertex -75.5 1 22.2
      vertex -66 1 22.2
      vertex -75.5 1 23
    endloop
  endfacet
  facet normal 0 0 -1
    outer loop
      vertex -75.5 1 22.2
      vertex -75.5 9 22.2
      vertex -71.92387953251128 4.61731656763491 22.2
    endloop
  endfacet
  facet normal -1 0 0
    outer loop
      vertex -75.5 1 22.2
      vertex -75.5 1 23
      vertex -75.5 9 23
    endloop
  endfacet
  facet normal 0 0 -1
    outer loop
      vertex -75.5 1 22.2
      vertex -71.92387953251128 4.61731656763491 22.2
      vertex -71.70710678118655 4.292893218813452 22.2
    endloop
  endfacet
  facet normal 0 0 -1
    outer loop
      vertex -75.5 1 22.2
      vertex -71.70710678118655 4.292893218813452 22.2
      vertex -71.38268343236508 4.076120467488713 22.2
    endloop
  endfacet
  facet normal 0 0 -1
    outer loop
      vertex -75.5 1 22.2
      vertex -71.38268343236508 4.076120467488713 22.2
      vertex -71 4 22.2
    endloop
  endfacet
  facet normal 0 0 -1
    outer loop
      vertex -75.5 1 22.2
      vertex -71 4 22.2
      vertex -70.61731656763492 4.076120467488713 22.2
    endloop
  endfacet
  facet normal 0 -1 0
    outer loop
      vertex -66 1 22.2
      vertex -66 1 23
      vertex -75.5 1 23
    endloop
  endfacet
  facet normal 0 0 -1
    outer loop
      vertex -75.5 1 22.2
      vertex -70.61731656763492 4.076120467488713 22.2
      vertex -66 1 22.2
    endloop
  endfacet
  facet normal 0 0 -1
    outer loop
      vertex -66 1 22.2
      vertex -70.61731656763492 4.076120467488713 22.2
      vertex -70.29289321881345 4.292893218813452 22.2
    endloop
  endfacet
  facet normal 0 0 -1
    outer loop
      vertex -66 1 22.2
      vertex -70.29289321881345 4.292893218813452 22.2
      vertex -70.07612046748872 4.61731656763491 22.2
    endloop
  endfacet
  facet normal -1 0 0
    outer loop
      vertex -66 -8.5 22.2
      vertex -66 -8.5 23
      vertex -66 1 23
    endloop
  endfacet
  facet normal -1 0 0
    outer loop
      vertex -66 -8.5 22.2
      vertex -66 1 23
      vertex -66 1 22.2
    endloop
  endfacet
  facet normal 0 0 -1
    outer loop
      vertex -66 -8.5 22.2
      vertex -62.707106781186546 -4.707106781186548 22.2
      vertex -62.38268343236509 -4.923879532511286 22.2
    endloop
  endfacet
  facet normal 0 0 -1
    outer loop
      vertex -66 -8.5 22.2
      vertex -62.923879532511286 -4.38268343236509 22.2
      vertex -62.707106781186546 -4.707106781186548 22.2
    endloop
  endfacet
  facet normal 0 -1 0
    outer loop
      vertex -66 -8.5 22.2
      vertex -58 -8.5 22.2
      vertex -66 -8.5 23
    endloop
  endfacet
  facet normal 0 0 -1
    outer loop
      vertex -66 -8.5 22.2
      vertex -62.38268343236509 -4.923879532511286 22.2
      vertex -62 -5 22.2
    endloop
  endfacet
  facet normal 0 0 -1
    outer loop
      vertex -66 -8.5 22.2
      vertex -62 -5 22.2
      vertex -61.61731656763491 -4.923879532511286 22.2
    endloop
  endfacet
  facet normal 0 0 -1
    outer loop
      vertex -66 -8.5 22.2
      vertex -66 1 22.2
      vertex -62.923879532511286 -4.38268343236509 22.2
    endloop
  endfacet
  facet normal 0 0 -1
    outer loop
      vertex -66 1 22.2
      vertex -63 -4 22.2
      vertex -62.923879532511286 -4.38268343236509 22.2
    endloop
  endfacet
  facet normal 0 0 -1
    outer loop
      vertex -66 1 22.2
      vertex -62.923879532511286 -3.6173165676349104 22.2
      vertex -63 -4 22.2
    endloop
  endfacet
  facet normal 0 0 -1
    outer loop
      vertex -66 1 22.2
      vertex -62.707106781186546 -3.292893218813452 22.2
      vertex -62.923879532511286 -3.6173165676349104 22.2
    endloop
  endfacet
  facet normal 0 0 -1
    outer loop
      vertex -66 1 22.2
      vertex -62.38268343236509 -3.076120467488714 22.2
      vertex -62.707106781186546 -3.292893218813452 22.2
    endloop
  endfacet
  facet normal 0 0 -1
    outer loop
      vertex -66 1 22.2
      vertex -70.07612046748872 4.61731656763491 22.2
      vertex -70 5 22.2
    endloop
  endfacet
  facet normal 0 0 -1
    outer loop
      vertex -66 1 22.2
      vertex -70 5 22.2
      vertex -70.07612046748872 5.38268343236509 22.2
    endloop
  endfacet
  facet normal 0 0 -1
    outer loop
      vertex -66 1 22.2
      vertex -58 1 22.2
      vertex -62.38268343236509 -3.076120467488714 22.2
    endloop
  endfacet
  facet normal 0 0 -1
    outer loop
      vertex -66 1 22.2
      vertex -66 9 22.2
      vertex -58 1 22.2
    endloop
  endfacet
  facet normal 0 0 1
    outer loop
      vertex -75.5 1 23
      vertex -73.5 2.75 23
      vertex -73.5 7.25 23
    endloop
  endfacet
  facet normal 0 0 1
    outer loop
      vertex -75.5 1 23
      vertex -64.25 2.75 23
      vertex -73.5 2.75 23
    endloop
  endfacet
  facet normal 0 0 1
    outer loop
      vertex -66 -8.5 23
      vertex -64.25 -6.5 23
      vertex -66 1 23
    endloop
  endfacet
  facet normal 0 0 1
    outer loop
      vertex -66 -8.5 23
      vertex -58 -8.5 23
      vertex -64.25 -6.5 23
    endloop
  endfacet
  facet normal 0 0 1
    outer loop
      vertex -75.5 1 23
      vertex -66 1 23
      vertex -64.25 2.75 23
    endloop
  endfacet
  facet normal 0 0 1
    outer loop
      vertex -66 1 23
      vertex -64.25 -6.5 23
      vertex -64.25 2.75 23
    endloop
  endfacet
  facet normal -1 0 0
    outer loop
      vertex -75.5 1 22.2
      vertex -75.5 9 23
      vertex -75.5 9 22.2
    endloop
  endfacet
  facet normal 0 0 -1
    outer loop
      vertex -75.5 9 22.2
      vertex -72 5 22.2
      vertex -71.92387953251128 4.61731656763491 22.2
    endloop
  endfacet
  facet normal 0 0 -1
    outer loop
      vertex -75.5 9 22.2
      vertex -71.92387953251128 5.38268343236509 22.2
      vertex -72 5 22.2
    endloop
  endfacet
  facet normal 0 0 -1
    outer loop
      vertex -75.5 9 22.2
      vertex -71.70710678118655 5.707106781186548 22.2
      vertex -71.92387953251128 5.38268343236509 22.2
    endloop
  endfacet
  facet normal 0 0 -1
    outer loop
      vertex -75.5 9 22.2
      vertex -71.38268343236508 5.923879532511287 22.2
      vertex -71.70710678118655 5.707106781186548 22.2
    endloop
  endfacet
  facet normal 0 1 0
    outer loop
      vertex -75.5 9 22.2
      vertex -75.5 9 23
      vertex -66 9 23
    endloop
  endfacet
  facet normal 0 0 -1
    outer loop
      vertex -75.5 9 22.2
      vertex -66 9 22.2
      vertex -71.38268343236508 5.923879532511287 22.2
    endloop
  endfacet
  facet normal 0 0 -1
    outer loop
      vertex -66 9 22.2
      vertex -71 6 22.2
      vertex -71.38268343236508 5.923879532511287 22.2
    endloop
  endfacet
  facet normal 0 0 -1
    outer loop
      vertex -66 9 22.2
      vertex -70.61731656763492 5.923879532511287 22.2
      vertex -71 6 22.2
    endloop
  endfacet
  facet normal 0 0 -1
    outer loop
      vertex -66 9 22.2
      vertex -70.29289321881345 5.707106781186548 22.2
      vertex -70.61731656763492 5.923879532511287 22.2
    endloop
  endfacet
  facet normal 0 0 -1
    outer loop
      vertex -66 9 22.2
      vertex -70.07612046748872 5.38268343236509 22.2
      vertex -70.29289321881345 5.707106781186548 22.2
    endloop
  endfacet
  facet normal 0 1 0
    outer loop
      vertex -75.5 9 22.2
      vertex -66 9 23
      vertex -66 9 22.2
    endloop
  endfacet
  facet normal 0 0 -1
    outer loop
      vertex -66 1 22.2
      vertex -70.07612046748872 5.38268343236509 22.2
      vertex -66 9 22.2
    endloop
  endfacet
  facet normal 0 0 -1
    outer loop
      vertex -66 9 22.2
      vertex -62.38268343236509 13.076120467488714 22.2
      vertex -62 13 22.2
    endloop
  endfacet
  facet normal 0 0 -1
    outer loop
      vertex -66 9 22.2
      vertex -62 13 22.2
      vertex -61.61731656763491 13.076120467488714 22.2
    endloop
  endfacet
  facet normal -1 0 0
    outer loop
      vertex -66 9 22.2
      vertex -66 9 23
      vertex -66 18.5 23
    endloop
  endfacet
  facet normal -1 0 0
    outer loop
      vertex -66 9 22.2
      vertex -66 18.5 23
      vertex -66 18.5 22.2
    endloop
  endfacet
  facet normal 0 0 -1
    outer loop
      vertex -66 9 22.2
      vertex -62.707106781186546 13.292893218813452 22.2
      vertex -62.38268343236509 13.076120467488714 22.2
    endloop
  endfacet
  facet normal 0 0 -1
    outer loop
      vertex -66 9 22.2
      vertex -62.923879532511286 13.61731656763491 22.2
      vertex -62.707106781186546 13.292893218813452 22.2
    endloop
  endfacet
  facet normal 0 0 -1
    outer loop
      vertex -66 9 22.2
      vertex -66 18.5 22.2
      vertex -62.923879532511286 13.61731656763491 22.2
    endloop
  endfacet
  facet normal 0 0 -1
    outer loop
      vertex -66 18.5 22.2
      vertex -63 14 22.2
      vertex -62.923879532511286 13.61731656763491 22.2
    endloop
  endfacet
  facet normal 0 0 -1
    outer loop
      vertex -66 18.5 22.2
      vertex -62.923879532511286 14.38268343236509 22.2
      vertex -63 14 22.2
    endloop
  endfacet
  facet normal 0 0 -1
    outer loop
      vertex -66 18.5 22.2
      vertex -62.707106781186546 14.707106781186548 22.2
      vertex -62.923879532511286 14.38268343236509 22.2
    endloop
  endfacet
  facet normal 0 0 -1
    outer loop
      vertex -66 18.5 22.2
      vertex -62.38268343236509 14.923879532511286 22.2
      vertex -62.707106781186546 14.707106781186548 22.2
    endloop
  endfacet
  facet normal 0 0 -1
    outer loop
      vertex -66 18.5 22.2
      vertex -58 18.5 22.2
      vertex -62.38268343236509 14.923879532511286 22.2
    endloop
  endfacet
  facet normal 0 1 0
    outer loop
      vertex -66 18.5 22.2
      vertex -66 18.5 23
      vertex -58 18.5 23
    endloop
  endfacet
  facet normal 0 0 1
    outer loop
      vertex -75.5 1 23
      vertex -73.5 7.25 23
      vertex -75.5 9 23
    endloop
  endfacet
  facet normal 0 0 1
    outer loop
      vertex -75.5 9 23
      vertex -73.5 7.25 23
      vertex -66 9 23
    endloop
  endfacet
  facet normal 0 0 1
    outer loop
      vertex -66 9 23
      vertex -73.5 7.25 23
      vertex -64.25 7.25 23
    endloop
  endfacet
  facet normal 0 0 1
    outer loop
      vertex -66 9 23
      vertex -64.25 7.25 23
      vertex -66 18.5 23
    endloop
  endfacet
  facet normal 0 0 1
    outer loop
      vertex -66 18.5 23
      vertex -64.25 7.25 23
      vertex -64.25 16.5 23
    endloop
  endfacet
  facet normal 0 0 1
    outer loop
      vertex -66 18.5 23
      vertex -64.25 16.5 23
      vertex -59.75 16.5 23
    endloop
  endfacet
  facet normal 0 0 -1
    outer loop
      vertex -66 -8.5 22.2
      vertex -61.61731656763491 -4.923879532511286 22.2
      vertex -58 -8.5 22.2
    endloop
  endfacet
  facet normal 0 -1 0
    outer loop
      vertex -66 -8.5 23
      vertex -58 -8.5 22.2
      vertex -58 -8.5 23
    endloop
  endfacet
  facet normal 0 0 -1
    outer loop
      vertex -58 -8.5 22.2
      vertex -61.61731656763491 -4.923879532511286 22.2
      vertex -61.292893218813454 -4.707106781186548 22.2
    endloop
  endfacet
  facet normal 0 0 -1
    outer loop
      vertex -58 -8.5 22.2
      vertex -61.292893218813454 -4.707106781186548 22.2
      vertex -61.076120467488714 -4.38268343236509 22.2
    endloop
  endfacet
  facet normal 0 0 -1
    outer loop
      vertex -58 -8.5 22.2
      vertex -61.076120467488714 -4.38268343236509 22.2
      vertex -61 -4 22.2
    endloop
  endfacet
  facet normal 0 0 -1
    outer loop
      vertex -58 -8.5 22.2
      vertex -61 -4 22.2
      vertex -61.076120467488714 -3.6173165676349104 22.2
    endloop
  endfacet
  facet normal 0 0 -1
    outer loop
      vertex -58 -8.5 22.2
      vertex -61.076120467488714 -3.6173165676349104 22.2
      vertex -58 1 22.2
    endloop
  endfacet
  facet normal 0 0 -1
    outer loop
      vertex -58 1 22.2
      vertex -61.076120467488714 -3.6173165676349104 22.2
      vertex -61.292893218813454 -3.292893218813452 22.2
    endloop
  endfacet
  facet normal 0 0 -1
    outer loop
      vertex -58 1 22.2
      vertex -61.292893218813454 -3.292893218813452 22.2
      vertex -61.61731656763491 -3.076120467488714 22.2
    endloop
  endfacet
  facet normal 1 0 0
    outer loop
      vertex -58 -8.5 22.2
      vertex -58 1 22.2
      vertex -58 -8.5 23
    endloop
  endfacet
  facet normal 1 0 0
    outer loop
      vertex -58 1 22.2
      vertex -58 1 23
      vertex -58 -8.5 23
    endloop
  endfacet
  facet normal 0 0 -1
    outer loop
      vertex -58 1 22.2
      vertex -62 -3 22.2
      vertex -62.38268343236509 -3.076120467488714 22.2
    endloop
  endfacet
  facet normal 0 0 -1
    outer loop
      vertex -58 1 22.2
      vertex -61.61731656763491 -3.076120467488714 22.2
      vertex -62 -3 22.2
    endloop
  endfacet
  facet normal 0 0 -1
    outer loop
      vertex -58 1 22.2
      vertex -58 9 22.2
      vertex -53.923879532511286 4.61731656763491 22.2
    endloop
  endfacet
  facet normal 0 -1 0
    outer loop
      vertex -58 1 22.2
      vertex -48.5 1 22.2
      vertex -58 1 23
    endloop
  endfacet
  facet normal 0 0 -1
    outer loop
      vertex -58 1 22.2
      vertex -53.923879532511286 4.61731656763491 22.2
      vertex -53.707106781186546 4.292893218813452 22.2
    endloop
  endfacet
  facet normal 0 0 -1
    outer loop
      vertex -58 1 22.2
      vertex -53.707106781186546 4.292893218813452 22.2
      vertex -53.38268343236509 4.076120467488713 22.2
    endloop
  endfacet
  facet normal 0 0 -1
    outer loop
      vertex -58 1 22.2
      vertex -53.38268343236509 4.076120467488713 22.2
      vertex -53 4 22.2
    endloop
  endfacet
  facet normal 0 0 -1
    outer loop
      vertex -58 1 22.2
      vertex -53 4 22.2
      vertex -52.61731656763491 4.076120467488713 22.2
    endloop
  endfacet
  facet normal 0 0 -1
    outer loop
      vertex -58 1 22.2
      vertex -52.61731656763491 4.076120467488713 22.2
      vertex -48.5 1 22.2
    endloop
  endfacet
  facet normal 0 -1 0
    outer loop
      vertex -48.5 1 22.2
      vertex -48.5 1 23
      vertex -58 1 23
    endloop
  endfacet
  facet normal 0 0 -1
    outer loop
      vertex -48.5 1 22.2
      vertex -52.61731656763491 4.076120467488713 22.2
      vertex -52.292893218813454 4.292893218813452 22.2
    endloop
  endfacet
  facet normal 0 0 -1
    outer loop
      vertex -48.5 1 22.2
      vertex -52.292893218813454 4.292893218813452 22.2
      vertex -52.076120467488714 4.61731656763491 22.2
    endloop
  endfacet
  facet normal 0 0 -1
    outer loop
      vertex -48.5 1 22.2
      vertex -52.076120467488714 4.61731656763491 22.2
      vertex -52 5 22.2
    endloop
  endfacet
  facet normal 0 0 -1
    outer loop
      vertex -48.5 1 22.2
      vertex -52 5 22.2
      vertex -52.076120467488714 5.38268343236509 22.2
    endloop
  endfacet
  facet normal 1 0 0
    outer loop
      vertex -48.5 1 22.2
      vertex -48.5 9 22.2
      vertex -48.5 1 23
    endloop
  endfacet
  facet normal 0 0 1
    outer loop
      vertex -58 -8.5 23
      vertex -59.75 -6.5 23
      vertex -64.25 -6.5 23
    endloop
  endfacet
  facet normal 0 0 1
    outer loop
      vertex -58 -8.5 23
      vertex -59.75 2.75 23
      vertex -59.75 -6.5 23
    endloop
  endfacet
  facet normal 0 0 1
    outer loop
      vertex -58 -8.5 23
      vertex -58 1 23
      vertex -59.75 2.75 23
    endloop
  endfacet
  facet normal 0 0 1
    outer loop
      vertex -58 1 23
      vertex -50.5 2.75 23
      vertex -59.75 2.75 23
    endloop
  endfacet
  facet normal 0 0 1
    outer loop
      vertex -58 1 23
      vertex -48.5 1 23
      vertex -50.5 2.75 23
    endloop
  endfacet
  facet normal 0 0 1
    outer loop
      vertex -48.5 1 23
      vertex -48.5 9 23
      vertex -50.5 2.75 23
    endloop
  endfacet
  facet normal 0 0 -1
    outer loop
      vertex -66 9 22.2
      vertex -58 9 22.2
      vertex -58 1 22.2
    endloop
  endfacet
  facet normal 0 0 -1
    outer loop
      vertex -66 9 22.2
      vertex -61.61731656763491 13.076120467488714 22.2
      vertex -58 9 22.2
    endloop
  endfacet
  facet normal 0 0 -1
    outer loop
      vertex -58 9 22.2
      vertex -54 5 22.2
      vertex -53.923879532511286 4.61731656763491 22.2
    endloop
  endfacet
  facet normal 0 0 -1
    outer loop
      vertex -58 9 22.2
      vertex -53.923879532511286 5.38268343236509 22.2
      vertex -54 5 22.2
    endloop
  endfacet
  facet normal 0 0 -1
    outer loop
      vertex -58 9 22.2
      vertex -61.61731656763491 13.076120467488714 22.2
      vertex -61.292893218813454 13.292893218813452 22.2
    endloop
  endfacet
  facet normal 0 0 -1
    outer loop
      vertex -58 9 22.2
      vertex -61.292893218813454 13.292893218813452 22.2
      vertex -61.076120467488714 13.61731656763491 22.2
    endloop
  endfacet
  facet normal 0 0 -1
    outer loop
      vertex -58 9 22.2
      vertex -61.076120467488714 13.61731656763491 22.2
      vertex -61 14 22.2
    endloop
  endfacet
  facet normal 0 0 -1
    outer loop
      vertex -58 9 22.2
      vertex -61 14 22.2
      vertex -61.076120467488714 14.38268343236509 22.2
    endloop
  endfacet
  facet normal 0 0 -1
    outer loop
      vertex -58 9 22.2
      vertex -61.076120467488714 14.38268343236509 22.2
      vertex -58 18.5 22.2
    endloop
  endfacet
  facet normal 0 0 -1
    outer loop
      vertex -58 18.5 22.2
      vertex -62 15 22.2
      vertex -62.38268343236509 14.923879532511286 22.2
    endloop
  endfacet
  facet normal 0 0 -1
    outer loop
      vertex -58 18.5 22.2
      vertex -61.61731656763491 14.923879532511286 22.2
      vertex -62 15 22.2
    endloop
  endfacet
  facet normal 0 1 0
    outer loop
      vertex -66 18.5 22.2
      vertex -58 18.5 23
      vertex -58 18.5 22.2
    endloop
  endfacet
  facet normal 0 0 -1
    outer loop
      vertex -58 18.5 22.2
      vertex -61.076120467488714 14.38268343236509 22.2
      vertex -61.292893218813454 14.707106781186548 22.2
    endloop
  endfacet
  facet normal 0 0 -1
    outer loop
      vertex -58 18.5 22.2
      vertex -61.292893218813454 14.707106781186548 22.2
      vertex -61.61731656763491 14.923879532511286 22.2
    endloop
  endfacet
  facet normal 1 0 0
    outer loop
      vertex -58 9 22.2
      vertex -58 18.5 22.2
      vertex -58 9 23
    endloop
  endfacet
  facet normal 1 0 0
    outer loop
      vertex -58 18.5 22.2
      vertex -58 18.5 23
      vertex -58 9 23
    endloop
  endfacet
  facet normal 0 0 -1
    outer loop
      vertex -58 9 22.2
      vertex -53.707106781186546 5.707106781186548 22.2
      vertex -53.923879532511286 5.38268343236509 22.2
    endloop
  endfacet
  facet normal 0 0 -1
    outer loop
      vertex -58 9 22.2
      vertex -53.38268343236509 5.923879532511287 22.2
      vertex -53.707106781186546 5.707106781186548 22.2
    endloop
  endfacet
  facet normal 0 0 -1
    outer loop
      vertex -58 9 22.2
      vertex -48.5 9 22.2
      vertex -53.38268343236509 5.923879532511287 22.2
    endloop
  endfacet
  facet normal 0 1 0
    outer loop
      vertex -58 9 22.2
      vertex -58 9 23
      vertex -48.5 9 23
    endloop
  endfacet
  facet normal 0 0 -1
    outer loop
      vertex -48.5 9 22.2
      vertex -53 6 22.2
      vertex -53.38268343236509 5.923879532511287 22.2
    endloop
  endfacet
  facet normal 0 0 -1
    outer loop
      vertex -48.5 9 22.2
      vertex -52.61731656763491 5.923879532511287 22.2
      vertex -53 6 22.2
    endloop
  endfacet
  facet normal 0 0 -1
    outer loop
      vertex -48.5 9 22.2
      vertex -52.292893218813454 5.707106781186548 22.2
      vertex -52.61731656763491 5.923879532511287 22.2
    endloop
  endfacet
  facet normal 0 0 -1
    outer loop
      vertex -48.5 9 22.2
      vertex -52.076120467488714 5.38268343236509 22.2
      vertex -52.292893218813454 5.707106781186548 22.2
    endloop
  endfacet
  facet normal 0 0 -1
    outer loop
      vertex -48.5 1 22.2
      vertex -52.076120467488714 5.38268343236509 22.2
      vertex -48.5 9 22.2
    endloop
  endfacet
  facet normal 1 0 0
    outer loop
      vertex -48.5 1 23
      vertex -48.5 9 22.2
      vertex -48.5 9 23
    endloop
  endfacet
  facet normal 0 1 0
    outer loop
      vertex -58 9 22.2
      vertex -48.5 9 23
      vertex -48.5 9 22.2
    endloop
  endfacet
  facet normal 0 0 1
    outer loop
      vertex -58 9 23
      vertex -59.75 16.5 23
      vertex -59.75 7.25 23
    endloop
  endfacet
  facet normal 0 0 1
    outer loop
      vertex -58 9 23
      vertex -59.75 7.25 23
      vertex -48.5 9 23
    endloop
  endfacet
  facet normal 0 0 1
    outer loop
      vertex -66 18.5 23
      vertex -59.75 16.5 23
      vertex -58 18.5 23
    endloop
  endfacet
  facet normal 0 0 1
    outer loop
      vertex -58 9 23
      vertex -58 18.5 23
      vertex -59.75 16.5 23
    endloop
  endfacet
  facet normal 0 0 1
    outer loop
      vertex -48.5 9 23
      vertex -59.75 7.25 23
      vertex -50.5 7.25 23
    endloop
  endfacet
  facet normal 0 0 1
    outer loop
      vertex -48.5 9 23
      vertex -50.5 7.25 23
      vertex -50.5 2.75 23
    endloop
  endfacet
endsolid OpenSCAD_Model
