<svg xmlns="http://www.w3.org/2000/svg" viewBox="0 0 1000 538" width="1000" height="538" role="img" aria-label="Which command to run"><title>Which command to run</title><defs><marker id="ah" viewBox="0 0 10 10" refX="9" refY="5" markerWidth="7" markerHeight="7" orient="auto-start-reverse"><path d="M0,0 L10,5 L0,10 z" fill="#94a3b8"/></marker><filter id="sh" x="-5%" y="-5%" width="110%" height="120%"><feDropShadow dx="0" dy="1.5" stdDeviation="1.6" flood-color="#0f172a" flood-opacity="0.12"/></filter></defs><rect x="0" y="0" width="1000" height="538" rx="16" fill="#ffffff"/><text x="290" y="40" font-family="Inter, 'Segoe UI', system-ui, -apple-system, Roboto, sans-serif" font-size="12" font-weight="700" fill="#475569" text-anchor="middle">need</text><text x="575" y="40" font-family="Inter, 'Segoe UI', system-ui, -apple-system, Roboto, sans-serif" font-size="12" font-weight="700" fill="#475569" text-anchor="middle">command</text><text x="850" y="40" font-family="Inter, 'Segoe UI', system-ui, -apple-system, Roboto, sans-serif" font-size="12" font-weight="700" fill="#475569" text-anchor="middle">pipeline</text><rect x="24" y="252.0" width="150" height="72" rx="10" fill="#eff6ff" stroke="#2563eb" stroke-width="1.6" filter="url(#sh)"/><text x="99" y="284.0" font-family="Inter, 'Segoe UI', system-ui, -apple-system, Roboto, sans-serif" font-size="14" font-weight="650" fill="#1e3a8a" text-anchor="middle">What do you</text><text x="99" y="304.0" font-family="Inter, 'Segoe UI', system-ui, -apple-system, Roboto, sans-serif" font-size="14" font-weight="650" fill="#1e3a8a" text-anchor="middle">need?</text><path d="M174,288.0 L196,288.0 L196,92 L208,92" fill="none" stroke="#94a3b8" stroke-width="1.4" marker-end="url(#ah)"/><rect x="210" y="70" width="270" height="44" rx="10" fill="#f8fafc" stroke="#64748b" stroke-width="1.6" filter="url(#sh)"/><text x="345" y="97" font-family="Inter, 'Segoe UI', system-ui, -apple-system, Roboto, sans-serif" font-size="13" font-weight="650" fill="#1e293b" text-anchor="middle">New PCB from scratch?</text><path d="M480,92 L498,92" fill="none" stroke="#94a3b8" stroke-width="1.8" marker-end="url(#ah)"/><rect x="500" y="74" width="120.5" height="36" rx="18" fill="#fff7ed" stroke="#ea580c" stroke-width="1.6" filter="url(#sh)"/><text x="560.25" y="97" font-family="'JetBrains Mono', 'Fira Code', Menlo, Consolas, monospace" font-size="12.5" font-weight="600" fill="#7c2d12" text-anchor="middle" xml:space="preserve">/design-pcb</text><path d="M620.5,92 L778,92" fill="none" stroke="#94a3b8" stroke-width="1.8" marker-end="url(#ah)"/><rect x="780" y="74" width="140" height="36" rx="10" fill="#f0fdfa" stroke="#0d9488" stroke-width="1.6" filter="url(#sh)"/><text x="850" y="97" font-family="Inter, 'Segoe UI', system-ui, -apple-system, Roboto, sans-serif" font-size="13" font-weight="650" fill="#134e4a" text-anchor="middle">Pipeline A</text><path d="M174,288.0 L196,288.0 L196,148 L208,148" fill="none" stroke="#94a3b8" stroke-width="1.4" marker-end="url(#ah)"/><rect x="210" y="126" width="270" height="44" rx="10" fill="#f8fafc" stroke="#64748b" stroke-width="1.6" filter="url(#sh)"/><text x="345" y="153" font-family="Inter, 'Segoe UI', system-ui, -apple-system, Roboto, sans-serif" font-size="13" font-weight="650" fill="#1e293b" text-anchor="middle">Change existing design?</text><path d="M480,148 L498,148" fill="none" stroke="#94a3b8" stroke-width="1.8" marker-end="url(#ah)"/><rect x="500" y="130" width="135.5" height="36" rx="18" fill="#fff7ed" stroke="#ea580c" stroke-width="1.6" filter="url(#sh)"/><text x="567.75" y="153" font-family="'JetBrains Mono', 'Fira Code', Menlo, Consolas, monospace" font-size="12.5" font-weight="600" fill="#7c2d12" text-anchor="middle" xml:space="preserve">/generate-pcb</text><path d="M635.5,148 L778,148" fill="none" stroke="#94a3b8" stroke-width="1.8" marker-end="url(#ah)"/><rect x="780" y="130" width="140" height="36" rx="10" fill="#f0fdfa" stroke="#0d9488" stroke-width="1.6" filter="url(#sh)"/><text x="850" y="153" font-family="Inter, 'Segoe UI', system-ui, -apple-system, Roboto, sans-serif" font-size="13" font-weight="650" fill="#134e4a" text-anchor="middle">Pipeline E</text><path d="M174,288.0 L196,288.0 L196,204 L208,204" fill="none" stroke="#94a3b8" stroke-width="1.4" marker-end="url(#ah)"/><rect x="210" y="182" width="270" height="44" rx="10" fill="#f8fafc" stroke="#64748b" stroke-width="1.6" filter="url(#sh)"/><text x="345" y="209" font-family="Inter, 'Segoe UI', system-ui, -apple-system, Roboto, sans-serif" font-size="13" font-weight="650" fill="#1e293b" text-anchor="middle">Fix a bug / DFM issue?</text><path d="M480,204 L498,204" fill="none" stroke="#94a3b8" stroke-width="1.8" marker-end="url(#ah)"/><rect x="500" y="186" width="98.0" height="36" rx="18" fill="#fff7ed" stroke="#ea580c" stroke-width="1.6" filter="url(#sh)"/><text x="549.0" y="209" font-family="'JetBrains Mono', 'Fira Code', Menlo, Consolas, monospace" font-size="12.5" font-weight="600" fill="#7c2d12" text-anchor="middle" xml:space="preserve">/fix-pcb</text><path d="M598.0,204 L778,204" fill="none" stroke="#94a3b8" stroke-width="1.8" marker-end="url(#ah)"/><rect x="780" y="186" width="140" height="36" rx="10" fill="#f0fdfa" stroke="#0d9488" stroke-width="1.6" filter="url(#sh)"/><text x="850" y="209" font-family="Inter, 'Segoe UI', system-ui, -apple-system, Roboto, sans-serif" font-size="13" font-weight="650" fill="#134e4a" text-anchor="middle">Pipeline B</text><path d="M174,288.0 L196,288.0 L196,260 L208,260" fill="none" stroke="#94a3b8" stroke-width="1.4" marker-end="url(#ah)"/><rect x="210" y="238" width="270" height="44" rx="10" fill="#f8fafc" stroke="#64748b" stroke-width="1.6" filter="url(#sh)"/><text x="345" y="265" font-family="Inter, 'Segoe UI', system-ui, -apple-system, Roboto, sans-serif" font-size="13" font-weight="650" fill="#1e293b" text-anchor="middle">Verify before release?</text><path d="M480,260 L498,260" fill="none" stroke="#94a3b8" stroke-width="1.8" marker-end="url(#ah)"/><rect x="500" y="242" width="120.5" height="36" rx="18" fill="#fff7ed" stroke="#ea580c" stroke-width="1.6" filter="url(#sh)"/><text x="560.25" y="265" font-family="'JetBrains Mono', 'Fira Code', Menlo, Consolas, monospace" font-size="12.5" font-weight="600" fill="#7c2d12" text-anchor="middle" xml:space="preserve">/verify-pcb</text><path d="M620.5,260 L778,260" fill="none" stroke="#94a3b8" stroke-width="1.8" marker-end="url(#ah)"/><rect x="780" y="242" width="140" height="36" rx="10" fill="#f0fdfa" stroke="#0d9488" stroke-width="1.6" filter="url(#sh)"/><text x="850" y="265" font-family="Inter, 'Segoe UI', system-ui, -apple-system, Roboto, sans-serif" font-size="13" font-weight="650" fill="#134e4a" text-anchor="middle">Pipeline C</text><path d="M174,288.0 L196,288.0 L196,316 L208,316" fill="none" stroke="#94a3b8" stroke-width="1.4" marker-end="url(#ah)"/><rect x="210" y="294" width="270" height="44" rx="10" fill="#f8fafc" stroke="#64748b" stroke-width="1.6" filter="url(#sh)"/><text x="345" y="321" font-family="Inter, 'Segoe UI', system-ui, -apple-system, Roboto, sans-serif" font-size="13" font-weight="650" fill="#1e293b" text-anchor="middle">Ship to JLCPCB?</text><path d="M480,316 L498,316" fill="none" stroke="#94a3b8" stroke-width="1.8" marker-end="url(#ah)"/><rect x="500" y="298" width="128.0" height="36" rx="18" fill="#fff7ed" stroke="#ea580c" stroke-width="1.6" filter="url(#sh)"/><text x="564.0" y="321" font-family="'JetBrains Mono', 'Fira Code', Menlo, Consolas, monospace" font-size="12.5" font-weight="600" fill="#7c2d12" text-anchor="middle" xml:space="preserve">/release-pcb</text><path d="M628.0,316 L778,316" fill="none" stroke="#94a3b8" stroke-width="1.8" marker-end="url(#ah)"/><rect x="780" y="298" width="140" height="36" rx="10" fill="#f0fdfa" stroke="#0d9488" stroke-width="1.6" filter="url(#sh)"/><text x="850" y="321" font-family="Inter, 'Segoe UI', system-ui, -apple-system, Roboto, sans-serif" font-size="13" font-weight="650" fill="#134e4a" text-anchor="middle">Pipeline D</text><path d="M174,288.0 L196,288.0 L196,372 L208,372" fill="none" stroke="#94a3b8" stroke-width="1.4" marker-end="url(#ah)"/><rect x="210" y="350" width="270" height="44" rx="10" fill="#f8fafc" stroke="#64748b" stroke-width="1.6" filter="url(#sh)"/><text x="345" y="377" font-family="Inter, 'Segoe UI', system-ui, -apple-system, Roboto, sans-serif" font-size="13" font-weight="650" fill="#1e293b" text-anchor="middle">Full hardware audit?</text><path d="M480,372 L498,372" fill="none" stroke="#94a3b8" stroke-width="1.8" marker-end="url(#ah)"/><rect x="500" y="354" width="150.5" height="36" rx="18" fill="#fff7ed" stroke="#ea580c" stroke-width="1.6" filter="url(#sh)"/><text x="575.25" y="377" font-family="'JetBrains Mono', 'Fira Code', Menlo, Consolas, monospace" font-size="12.5" font-weight="600" fill="#7c2d12" text-anchor="middle" xml:space="preserve">/hardware-audit</text><path d="M650.5,372 L778,372" fill="none" stroke="#94a3b8" stroke-width="1.8" marker-end="url(#ah)"/><rect x="780" y="354" width="140" height="36" rx="10" fill="#f0fdfa" stroke="#0d9488" stroke-width="1.6" filter="url(#sh)"/><text x="850" y="377" font-family="Inter, 'Segoe UI', system-ui, -apple-system, Roboto, sans-serif" font-size="13" font-weight="650" fill="#134e4a" text-anchor="middle">Pipeline F</text><path d="M174,288.0 L196,288.0 L196,428 L208,428" fill="none" stroke="#94a3b8" stroke-width="1.4" marker-end="url(#ah)"/><rect x="210" y="406" width="270" height="44" rx="10" fill="#f8fafc" stroke="#64748b" stroke-width="1.6" filter="url(#sh)"/><text x="345" y="433" font-family="Inter, 'Segoe UI', system-ui, -apple-system, Roboto, sans-serif" font-size="13" font-weight="650" fill="#1e293b" text-anchor="middle">Firmware change?</text><path d="M480,428 L498,428" fill="none" stroke="#94a3b8" stroke-width="1.8" marker-end="url(#ah)"/><rect x="500" y="410" width="158.0" height="36" rx="18" fill="#fff7ed" stroke="#ea580c" stroke-width="1.6" filter="url(#sh)"/><text x="579.0" y="433" font-family="'JetBrains Mono', 'Fira Code', Menlo, Consolas, monospace" font-size="12.5" font-weight="600" fill="#7c2d12" text-anchor="middle" xml:space="preserve">/pcb-to-firmware</text><path d="M174,288.0 L196,288.0 L196,484 L208,484" fill="none" stroke="#94a3b8" stroke-width="1.4" marker-end="url(#ah)"/><rect x="210" y="462" width="270" height="44" rx="10" fill="#f8fafc" stroke="#64748b" stroke-width="1.6" filter="url(#sh)"/><text x="345" y="489" font-family="Inter, 'Segoe UI', system-ui, -apple-system, Roboto, sans-serif" font-size="13" font-weight="650" fill="#1e293b" text-anchor="middle">3D enclosure?</text><path d="M480,484 L498,484" fill="none" stroke="#94a3b8" stroke-width="1.8" marker-end="url(#ah)"/><rect x="500" y="466" width="165.5" height="36" rx="18" fill="#fff7ed" stroke="#ea580c" stroke-width="1.6" filter="url(#sh)"/><text x="582.75" y="489" font-family="'JetBrains Mono', 'Fira Code', Menlo, Consolas, monospace" font-size="12.5" font-weight="600" fill="#7c2d12" text-anchor="middle" xml:space="preserve">/enclosure-design</text></svg>
