<svg xmlns="http://www.w3.org/2000/svg" viewBox="0 0 1000 250" width="1000" height="250" role="img" aria-label="DevKit power"><title>DevKit power</title><defs><marker id="ah" viewBox="0 0 10 10" refX="9" refY="5" markerWidth="7" markerHeight="7" orient="auto-start-reverse"><path d="M0,0 L10,5 L0,10 z" fill="#94a3b8"/></marker><filter id="sh" x="-5%" y="-5%" width="110%" height="120%"><feDropShadow dx="0" dy="1.5" stdDeviation="1.6" flood-color="#0f172a" flood-opacity="0.12"/></filter></defs><rect x="0" y="0" width="1000" height="250" rx="16" fill="#ffffff"/><rect x="40" y="50" width="220" height="150" rx="10" fill="#eff6ff" stroke="#2563eb" stroke-width="1.6" filter="url(#sh)"/><text x="150.0" y="118.0" font-family="Inter, 'Segoe UI', system-ui, -apple-system, Roboto, sans-serif" font-size="14" font-weight="650" fill="#1e3a8a" text-anchor="middle">ESP32-S3 DevKitC-1</text><text x="150.0" y="138.0" font-family="Inter, 'Segoe UI', system-ui, -apple-system, Roboto, sans-serif" font-size="12" font-weight="400" fill="#1e3a8a" text-anchor="middle">N16R8</text><rect x="791" y="40" width="18" height="180" rx="9" fill="#fef2f2" stroke="#dc2626" stroke-width="2"/><text x="800" y="28" font-family="Inter, 'Segoe UI', system-ui, -apple-system, Roboto, sans-serif" font-size="12.5" font-weight="700" fill="#dc2626" text-anchor="middle">5V rail</text><rect x="891" y="40" width="18" height="180" rx="9" fill="#f8fafc" stroke="#64748b" stroke-width="2"/><text x="900" y="28" font-family="Inter, 'Segoe UI', system-ui, -apple-system, Roboto, sans-serif" font-size="12.5" font-weight="700" fill="#64748b" text-anchor="middle">GND rail</text><path d="M260,80 L274,80" stroke="#334155" stroke-width="2"/><text x="250" y="84.5" font-family="'JetBrains Mono', 'Fira Code', Menlo, Consolas, monospace" font-size="12" font-weight="600" fill="#0f172a" text-anchor="end" xml:space="preserve">VIN</text><path d="M274,80 L791,80" fill="none" stroke="#334155" stroke-width="1.8" stroke-linejoin="round"/><circle cx="800" cy="80" r="4" fill="#dc2626"/><text x="530" y="72" font-family="Inter, 'Segoe UI', system-ui, -apple-system, Roboto, sans-serif" font-size="11.5" font-weight="400" fill="#475569" text-anchor="middle">if USB is not connected directly</text><path d="M260,130 L274,130" stroke="#334155" stroke-width="2"/><text x="250" y="134.5" font-family="'JetBrains Mono', 'Fira Code', Menlo, Consolas, monospace" font-size="12" font-weight="600" fill="#0f172a" text-anchor="end" xml:space="preserve">USB</text><path d="M274,130 L470,130" fill="none" stroke="#334155" stroke-width="1.8" stroke-linejoin="round"/><path d="M470,130 L498,130" fill="none" stroke="#94a3b8" stroke-width="1.8" marker-end="url(#ah)"/><rect x="500" y="110" width="230" height="40" rx="10" fill="#f8fafc" stroke="#64748b" stroke-width="1.6" filter="url(#sh)"/><text x="615.0" y="131.5" font-family="Inter, 'Segoe UI', system-ui, -apple-system, Roboto, sans-serif" font-size="13" font-weight="650" fill="#1e293b" text-anchor="middle">Direct USB-C</text><text x="615" y="170" font-family="Inter, 'Segoe UI', system-ui, -apple-system, Roboto, sans-serif" font-size="11.5" font-weight="400" fill="#475569" text-anchor="middle">programming / debug</text><rect x="340" y="94" width="64" height="20" rx="10" fill="#d97706"/><text x="372" y="108" font-family="Inter, 'Segoe UI', system-ui, -apple-system, Roboto, sans-serif" font-size="11" font-weight="700" fill="#ffffff" text-anchor="middle">— OR —</text><path d="M260,180 L274,180" stroke="#334155" stroke-width="2"/><text x="250" y="184.5" font-family="'JetBrains Mono', 'Fira Code', Menlo, Consolas, monospace" font-size="12" font-weight="600" fill="#0f172a" text-anchor="end" xml:space="preserve">GND</text><path d="M274,180 L891,180" fill="none" stroke="#334155" stroke-width="1.8" stroke-linejoin="round"/><circle cx="900" cy="180" r="4" fill="#64748b"/><path d="M800,80 L800,80" fill="none" stroke="#334155" stroke-width="1.8" stroke-linejoin="round"/></svg>
