<svg xmlns="http://www.w3.org/2000/svg" viewBox="0 0 1000 450" width="1000" height="450" role="img" aria-label="Breadboard power rail"><title>Breadboard power rail</title><defs><marker id="ah" viewBox="0 0 10 10" refX="9" refY="5" markerWidth="7" markerHeight="7" orient="auto-start-reverse"><path d="M0,0 L10,5 L0,10 z" fill="#94a3b8"/></marker><filter id="sh" x="-5%" y="-5%" width="110%" height="120%"><feDropShadow dx="0" dy="1.5" stdDeviation="1.6" flood-color="#0f172a" flood-opacity="0.12"/></filter></defs><rect x="0" y="0" width="1000" height="450" rx="16" fill="#ffffff"/><rect x="791" y="56" width="18" height="350" rx="9" fill="#fef2f2" stroke="#dc2626" stroke-width="2"/><text x="800" y="40" font-family="Inter, 'Segoe UI', system-ui, -apple-system, Roboto, sans-serif" font-size="12.5" font-weight="700" fill="#dc2626" text-anchor="middle">5V rail</text><rect x="861" y="56" width="18" height="350" rx="9" fill="#f8fafc" stroke="#64748b" stroke-width="2"/><text x="870" y="40" font-family="Inter, 'Segoe UI', system-ui, -apple-system, Roboto, sans-serif" font-size="12.5" font-weight="700" fill="#64748b" text-anchor="middle">GND rail</text><rect x="931" y="56" width="18" height="350" rx="9" fill="#fffbeb" stroke="#d97706" stroke-width="2"/><text x="940" y="40" font-family="Inter, 'Segoe UI', system-ui, -apple-system, Roboto, sans-serif" font-size="12.5" font-weight="700" fill="#d97706" text-anchor="middle">3.3V rail</text><rect x="330" y="60" width="190" height="170" rx="10" fill="#eff6ff" stroke="#2563eb" stroke-width="1.6" filter="url(#sh)"/><text x="425" y="86" font-family="Inter, 'Segoe UI', system-ui, -apple-system, Roboto, sans-serif" font-size="14" font-weight="650" fill="#1e3a8a" text-anchor="middle">IP5306 Module</text><text x="425" y="104" font-family="Inter, 'Segoe UI', system-ui, -apple-system, Roboto, sans-serif" font-size="12" font-weight="400" fill="#1e3a8a" text-anchor="middle">USB-C charge + boost</text><path d="M520,140 L534,140" stroke="#334155" stroke-width="2"/><text x="510" y="144.5" font-family="'JetBrains Mono', 'Fira Code', Menlo, Consolas, monospace" font-size="12" font-weight="600" fill="#0f172a" text-anchor="end" xml:space="preserve">OUT+</text><path d="M534,140 L791,140" fill="none" stroke="#334155" stroke-width="1.8" stroke-linejoin="round"/><circle cx="800" cy="140" r="4" fill="#dc2626"/><path d="M520,170 L534,170" stroke="#334155" stroke-width="2"/><text x="510" y="174.5" font-family="'JetBrains Mono', 'Fira Code', Menlo, Consolas, monospace" font-size="12" font-weight="600" fill="#0f172a" text-anchor="end" xml:space="preserve">OUT-</text><path d="M534,170 L861,170" fill="none" stroke="#334155" stroke-width="1.8" stroke-linejoin="round"/><circle cx="870" cy="170" r="4" fill="#64748b"/><path d="M330,180 L316,180" stroke="#334155" stroke-width="2"/><text x="340" y="184.5" font-family="'JetBrains Mono', 'Fira Code', Menlo, Consolas, monospace" font-size="12" font-weight="600" fill="#0f172a" text-anchor="start" xml:space="preserve">BAT+</text><path d="M330,206 L316,206" stroke="#334155" stroke-width="2"/><text x="340" y="210.5" font-family="'JetBrains Mono', 'Fira Code', Menlo, Consolas, monospace" font-size="12" font-weight="600" fill="#0f172a" text-anchor="start" xml:space="preserve">BAT-</text><path d="M330,140 L316,140" stroke="#334155" stroke-width="2"/><text x="340" y="144.5" font-family="'JetBrains Mono', 'Fira Code', Menlo, Consolas, monospace" font-size="12" font-weight="600" fill="#0f172a" text-anchor="start" xml:space="preserve">USB</text><rect x="40" y="110" width="170" height="60" rx="10" fill="#f8fafc" stroke="#64748b" stroke-width="1.6" filter="url(#sh)"/><text x="125.0" y="132.5" font-family="Inter, 'Segoe UI', system-ui, -apple-system, Roboto, sans-serif" font-size="13" font-weight="650" fill="#1e293b" text-anchor="middle">USB-C cable</text><text x="125.0" y="151.5" font-family="Inter, 'Segoe UI', system-ui, -apple-system, Roboto, sans-serif" font-size="12" font-weight="400" fill="#1e293b" text-anchor="middle">charging + power</text><path d="M210,140 L316,140" fill="none" stroke="#334155" stroke-width="1.8" stroke-linejoin="round"/><rect x="40" y="178" width="170" height="60" rx="10" fill="#f0fdf4" stroke="#16a34a" stroke-width="1.6" filter="url(#sh)"/><text x="125.0" y="200.5" font-family="Inter, 'Segoe UI', system-ui, -apple-system, Roboto, sans-serif" font-size="13" font-weight="650" fill="#14532d" text-anchor="middle">LiPo battery</text><text x="125.0" y="219.5" font-family="Inter, 'Segoe UI', system-ui, -apple-system, Roboto, sans-serif" font-size="12" font-weight="400" fill="#14532d" text-anchor="middle">(+) and (-)</text><path d="M210,196 L260,196 L260,180 L316,180" fill="none" stroke="#334155" stroke-width="1.8" stroke-linejoin="round"/><path d="M210,220 L260,220 L260,206 L316,206" fill="none" stroke="#334155" stroke-width="1.8" stroke-linejoin="round"/><text x="226" y="190" font-family="Inter, 'Segoe UI', system-ui, -apple-system, Roboto, sans-serif" font-size="12" font-weight="700" fill="#475569" text-anchor="middle">+</text><text x="226" y="234" font-family="Inter, 'Segoe UI', system-ui, -apple-system, Roboto, sans-serif" font-size="12" font-weight="700" fill="#475569" text-anchor="middle">-</text><rect x="300" y="262" width="220" height="140" rx="10" fill="#fff7ed" stroke="#ea580c" stroke-width="1.6" filter="url(#sh)"/><text x="410" y="288" font-family="Inter, 'Segoe UI', system-ui, -apple-system, Roboto, sans-serif" font-size="14" font-weight="650" fill="#7c2d12" text-anchor="middle">Buck 5V to 3.3V</text><text x="410" y="306" font-family="Inter, 'Segoe UI', system-ui, -apple-system, Roboto, sans-serif" font-size="11.5" font-weight="400" fill="#7c2d12" text-anchor="middle">MP1584 stand-in for the SY8089 (U3)</text><path d="M520,330 L534,330" stroke="#334155" stroke-width="2"/><text x="510" y="334.5" font-family="'JetBrains Mono', 'Fira Code', Menlo, Consolas, monospace" font-size="12" font-weight="600" fill="#0f172a" text-anchor="end" xml:space="preserve">VIN</text><path d="M534,330 L791,330" fill="none" stroke="#334155" stroke-width="1.8" stroke-linejoin="round"/><circle cx="800" cy="330" r="4" fill="#dc2626"/><rect x="590" y="319" width="120" height="22" rx="11" fill="#ffffff" stroke="#7c3aed" stroke-width="1.4"/><text x="650" y="334.5" font-family="Inter, 'Segoe UI', system-ui, -apple-system, Roboto, sans-serif" font-size="11.5" font-weight="600" fill="#4c1d95" text-anchor="middle">through 10 µF cap</text><path d="M520,356 L534,356" stroke="#334155" stroke-width="2"/><text x="510" y="360.5" font-family="'JetBrains Mono', 'Fira Code', Menlo, Consolas, monospace" font-size="12" font-weight="600" fill="#0f172a" text-anchor="end" xml:space="preserve">GND</text><path d="M534,356 L861,356" fill="none" stroke="#334155" stroke-width="1.8" stroke-linejoin="round"/><circle cx="870" cy="356" r="4" fill="#64748b"/><path d="M520,382 L534,382" stroke="#334155" stroke-width="2"/><text x="510" y="386.5" font-family="'JetBrains Mono', 'Fira Code', Menlo, Consolas, monospace" font-size="12" font-weight="600" fill="#0f172a" text-anchor="end" xml:space="preserve">VOUT</text><path d="M534,382 L931,382" fill="none" stroke="#334155" stroke-width="1.8" stroke-linejoin="round"/><circle cx="940" cy="382" r="4" fill="#d97706"/><rect x="590" y="371" width="120" height="22" rx="11" fill="#ffffff" stroke="#7c3aed" stroke-width="1.4"/><text x="650" y="386.5" font-family="Inter, 'Segoe UI', system-ui, -apple-system, Roboto, sans-serif" font-size="11.5" font-weight="600" fill="#4c1d95" text-anchor="middle">through 22 µF cap</text><text x="40" y="434" font-family="Inter, 'Segoe UI', system-ui, -apple-system, Roboto, sans-serif" font-size="11.5" font-weight="400" fill="#475569" text-anchor="start">a dot is a connection; wires that cross without a dot do not connect</text></svg>
