<?xml version="1.0" encoding="UTF-8"?>
<svg xmlns="http://www.w3.org/2000/svg"
     viewBox="0 0 680.0 340.0"
     width="680.0" height="340.0">
<title>ESP32 EMU Turbo CPJ&amp;CP — Top View</title>
<defs>
  <filter id="shadow" x="-5%" y="-5%" width="115%" height="115%">
    <feDropShadow dx="3" dy="3" stdDeviation="4" flood-color="rgba(0,0,0,0.3)" />
  </filter>
  <pattern id="grid" width="10.16" height="10.16"
           patternUnits="userSpaceOnUse"
           patternTransform="translate(20,20)">
    <rect width="10.16" height="10.16" fill="none"/>
    <path d="M 10.16 0 L 0 0 0 10.16"
          fill="none" stroke="#1f6b31" stroke-width="0.3" opacity="0.3"/>
  </pattern>
</defs>
<rect width="680.0" height="340.0" fill="#1a1a2e"/>

<clipPath id="board-clip"><path d="M 44.0,20.0 L 636.0,20.0 A 24.0,24.0 0 0 1 660.0,44.0 L 660.0,296.0 A 24.0,24.0 0 0 1 636.0,320.0 L 44.0,320.0 A 24.0,24.0 0 0 1 20.0,296.0 L 20.0,44.0 A 24.0,24.0 0 0 1 44.0,20.0 Z"/></clipPath>
<path d="M 44.0,20.0 L 636.0,20.0 A 24.0,24.0 0 0 1 660.0,44.0 L 660.0,296.0 A 24.0,24.0 0 0 1 636.0,320.0 L 44.0,320.0 A 24.0,24.0 0 0 1 20.0,296.0 L 20.0,44.0 A 24.0,24.0 0 0 1 44.0,20.0 Z" fill="none" filter="url(#shadow)"/>
<path d="M 44.0,20.0 L 636.0,20.0 A 24.0,24.0 0 0 1 660.0,44.0 L 660.0,296.0 A 24.0,24.0 0 0 1 636.0,320.0 L 44.0,320.0 A 24.0,24.0 0 0 1 20.0,296.0 L 20.0,44.0 A 24.0,24.0 0 0 1 44.0,20.0 Z" fill="#1a5c2a"/>
<path d="M 44.0,20.0 L 636.0,20.0 A 24.0,24.0 0 0 1 660.0,44.0 L 660.0,296.0 A 24.0,24.0 0 0 1 636.0,320.0 L 44.0,320.0 A 24.0,24.0 0 0 1 20.0,296.0 L 20.0,44.0 A 24.0,24.0 0 0 1 44.0,20.0 Z" fill="url(#grid)" clip-path="url(#board-clip)"/>
<path d="M 44.0,20.0 L 636.0,20.0 A 24.0,24.0 0 0 1 660.0,44.0 L 660.0,296.0 A 24.0,24.0 0 0 1 636.0,320.0 L 44.0,320.0 A 24.0,24.0 0 0 1 20.0,296.0 L 20.0,44.0 A 24.0,24.0 0 0 1 44.0,20.0 Z" fill="none" stroke="#d4af37" stroke-width="1.5"/>
<text x="340.0" y="336.0" text-anchor="middle" font-family="monospace" font-size="11" fill="#666">TOP VIEW (F.Cu)</text>
<rect x="522.0" y="114.0" width="12.0" height="96.0" rx="1" fill="#0a0a0a" stroke="#d4af37" stroke-width="1"/>
<circle cx="60.0" cy="48.0" r="10.0" fill="#c0a030" stroke="#d4af37" stroke-width="0.5"/>
<circle cx="60.0" cy="48.0" r="5.0" fill="#1a1a1a"/>
<circle cx="620.0" cy="48.0" r="10.0" fill="#c0a030" stroke="#d4af37" stroke-width="0.5"/>
<circle cx="620.0" cy="48.0" r="5.0" fill="#1a1a1a"/>
<circle cx="60.0" cy="292.0" r="10.0" fill="#c0a030" stroke="#d4af37" stroke-width="0.5"/>
<circle cx="60.0" cy="292.0" r="5.0" fill="#1a1a1a"/>
<circle cx="620.0" cy="292.0" r="10.0" fill="#c0a030" stroke="#d4af37" stroke-width="0.5"/>
<circle cx="620.0" cy="292.0" r="5.0" fill="#1a1a1a"/>
<circle cx="240.0" cy="170.0" r="10.0" fill="#c0a030" stroke="#d4af37" stroke-width="0.5"/>
<circle cx="240.0" cy="170.0" r="5.0" fill="#1a1a1a"/>
<circle cx="440.0" cy="170.0" r="10.0" fill="#c0a030" stroke="#d4af37" stroke-width="0.5"/>
<circle cx="440.0" cy="170.0" r="5.0" fill="#1a1a1a"/>
<rect x="163.2" y="28.400000000000006" width="353.6" height="267.2" rx="4" fill="#222222" stroke="#444" stroke-width="1"/>
<rect x="167.2" y="32.400000000000006" width="345.6" height="259.2" rx="1" fill="#111118"/>
<text x="340.0" y="157.0" text-anchor="middle" font-family="monospace" font-size="8" fill="#334" font-weight="bold">ILI9488 3.95"</text>
<text x="340.0" y="167.0" text-anchor="middle" font-family="monospace" font-size="6" fill="#334">320 x 480</text>
<rect x="514.8" y="147.0" width="8" height="30" rx="1" fill="#8b6914" stroke="#a0832a" stroke-width="0.5" opacity="0.7"/>

<circle cx="328.0" cy="300.0" r="1.2" fill="#d4af37" stroke="#1a1a1a" stroke-width="0.5"/>
<circle cx="328.0" cy="300.0" r="0.6" fill="#1a1a1a"/>
<circle cx="472.0" cy="202.0" r="1.2" fill="#d4af37" stroke="#1a1a1a" stroke-width="0.5"/>
<circle cx="472.0" cy="202.0" r="0.6" fill="#1a1a1a"/>
<circle cx="528.0" cy="250.0" r="1.2" fill="#d4af37" stroke="#1a1a1a" stroke-width="0.5"/>
<circle cx="528.0" cy="250.0" r="0.6" fill="#1a1a1a"/>
<circle cx="340.0" cy="186.0" r="1.2" fill="#d4af37" stroke="#1a1a1a" stroke-width="0.5"/>
<circle cx="340.0" cy="186.0" r="0.6" fill="#1a1a1a"/>
<circle cx="328.0" cy="250.0" r="1.2" fill="#d4af37" stroke="#1a1a1a" stroke-width="0.5"/>
<circle cx="328.0" cy="250.0" r="0.6" fill="#1a1a1a"/>
<circle cx="388.0" cy="160.48" r="1.2" fill="#d4af37" stroke="#1a1a1a" stroke-width="0.5"/>
<circle cx="388.0" cy="160.48" r="0.6" fill="#1a1a1a"/>
<circle cx="476.0" cy="160.48" r="1.2" fill="#d4af37" stroke="#1a1a1a" stroke-width="0.5"/>
<circle cx="476.0" cy="160.48" r="0.6" fill="#1a1a1a"/>
<circle cx="476.0" cy="252.8" r="1.2" fill="#d4af37" stroke="#1a1a1a" stroke-width="0.5"/>
<circle cx="476.0" cy="252.8" r="0.6" fill="#1a1a1a"/>
<circle cx="571.2" cy="252.8" r="1.2" fill="#d4af37" stroke="#1a1a1a" stroke-width="0.5"/>
<circle cx="571.2" cy="252.8" r="0.6" fill="#1a1a1a"/>
<circle cx="390.0" cy="165.56" r="1.2" fill="#d4af37" stroke="#1a1a1a" stroke-width="0.5"/>
<circle cx="390.0" cy="165.56" r="0.6" fill="#1a1a1a"/>
<circle cx="468.0" cy="165.56" r="1.2" fill="#d4af37" stroke="#1a1a1a" stroke-width="0.5"/>
<circle cx="468.0" cy="165.56" r="0.6" fill="#1a1a1a"/>
<circle cx="468.0" cy="248.8" r="1.2" fill="#d4af37" stroke="#1a1a1a" stroke-width="0.5"/>
<circle cx="468.0" cy="248.8" r="0.6" fill="#1a1a1a"/>
<circle cx="575.6" cy="248.8" r="1.2" fill="#d4af37" stroke="#1a1a1a" stroke-width="0.5"/>
<circle cx="575.6" cy="248.8" r="0.6" fill="#1a1a1a"/>
<circle cx="428.2" cy="228.0" r="1.2" fill="#d4af37" stroke="#1a1a1a" stroke-width="0.5"/>
<circle cx="428.2" cy="228.0" r="0.6" fill="#1a1a1a"/>
<circle cx="360.0" cy="180.0" r="1.2" fill="#d4af37" stroke="#1a1a1a" stroke-width="0.5"/>
<circle cx="360.0" cy="180.0" r="0.6" fill="#1a1a1a"/>
<circle cx="480.0" cy="238.0" r="1.2" fill="#d4af37" stroke="#1a1a1a" stroke-width="0.5"/>
<circle cx="480.0" cy="238.0" r="0.6" fill="#1a1a1a"/>
<circle cx="124.0" cy="282.0" r="1.2" fill="#d4af37" stroke="#1a1a1a" stroke-width="0.5"/>
<circle cx="124.0" cy="282.0" r="0.6" fill="#1a1a1a"/>
<circle cx="152.0" cy="282.0" r="1.2" fill="#d4af37" stroke="#1a1a1a" stroke-width="0.5"/>
<circle cx="152.0" cy="282.0" r="0.6" fill="#1a1a1a"/>
<circle cx="352.0" cy="300.0" r="1.2" fill="#d4af37" stroke="#1a1a1a" stroke-width="0.5"/>
<circle cx="352.0" cy="300.0" r="0.6" fill="#1a1a1a"/>
<circle cx="448.0" cy="300.0" r="1.2" fill="#d4af37" stroke="#1a1a1a" stroke-width="0.5"/>
<circle cx="448.0" cy="300.0" r="0.6" fill="#1a1a1a"/>
<circle cx="460.0" cy="182.0" r="1.2" fill="#d4af37" stroke="#1a1a1a" stroke-width="0.5"/>
<circle cx="460.0" cy="182.0" r="0.6" fill="#1a1a1a"/>
<circle cx="508.0" cy="242.0" r="1.2" fill="#d4af37" stroke="#1a1a1a" stroke-width="0.5"/>
<circle cx="508.0" cy="242.0" r="0.6" fill="#1a1a1a"/>
<circle cx="460.0" cy="222.0" r="1.2" fill="#d4af37" stroke="#1a1a1a" stroke-width="0.5"/>
<circle cx="460.0" cy="222.0" r="0.6" fill="#1a1a1a"/>
<circle cx="520.0" cy="214.0" r="1.2" fill="#d4af37" stroke="#1a1a1a" stroke-width="0.5"/>
<circle cx="520.0" cy="214.0" r="0.6" fill="#1a1a1a"/>
<circle cx="460.0" cy="152.0" r="1.2" fill="#d4af37" stroke="#1a1a1a" stroke-width="0.5"/>
<circle cx="460.0" cy="152.0" r="0.6" fill="#1a1a1a"/>
<circle cx="484.0" cy="162.0" r="1.2" fill="#d4af37" stroke="#1a1a1a" stroke-width="0.5"/>
<circle cx="484.0" cy="162.0" r="0.6" fill="#1a1a1a"/>
<circle cx="512.0" cy="196.0" r="1.2" fill="#d4af37" stroke="#1a1a1a" stroke-width="0.5"/>
<circle cx="512.0" cy="196.0" r="0.6" fill="#1a1a1a"/>
<circle cx="412.0" cy="196.0" r="1.2" fill="#d4af37" stroke="#1a1a1a" stroke-width="0.5"/>
<circle cx="412.0" cy="196.0" r="0.6" fill="#1a1a1a"/>
<circle cx="392.0" cy="110.0" r="1.2" fill="#d4af37" stroke="#1a1a1a" stroke-width="0.5"/>
<circle cx="392.0" cy="110.0" r="0.6" fill="#1a1a1a"/>
<circle cx="382.0" cy="109.68" r="1.2" fill="#d4af37" stroke="#1a1a1a" stroke-width="0.5"/>
<circle cx="382.0" cy="109.68" r="0.6" fill="#1a1a1a"/>
<circle cx="420.0" cy="109.68" r="1.2" fill="#d4af37" stroke="#1a1a1a" stroke-width="0.5"/>
<circle cx="420.0" cy="109.68" r="0.6" fill="#1a1a1a"/>
<circle cx="420.0" cy="78.0" r="1.2" fill="#d4af37" stroke="#1a1a1a" stroke-width="0.5"/>
<circle cx="420.0" cy="78.0" r="0.6" fill="#1a1a1a"/>
<circle cx="550.8" cy="78.0" r="1.2" fill="#d4af37" stroke="#1a1a1a" stroke-width="0.5"/>
<circle cx="550.8" cy="78.0" r="0.6" fill="#1a1a1a"/>
<circle cx="550.8" cy="133.0" r="1.2" fill="#d4af37" stroke="#1a1a1a" stroke-width="0.5"/>
<circle cx="550.8" cy="133.0" r="0.6" fill="#1a1a1a"/>
<circle cx="300.0" cy="188.0" r="1.2" fill="#d4af37" stroke="#1a1a1a" stroke-width="0.5"/>
<circle cx="300.0" cy="188.0" r="0.6" fill="#1a1a1a"/>
<circle cx="116.0" cy="282.0" r="1.2" fill="#d4af37" stroke="#1a1a1a" stroke-width="0.5"/>
<circle cx="116.0" cy="282.0" r="0.6" fill="#1a1a1a"/>
<circle cx="144.0" cy="282.0" r="1.2" fill="#d4af37" stroke="#1a1a1a" stroke-width="0.5"/>
<circle cx="144.0" cy="282.0" r="0.6" fill="#1a1a1a"/>
<circle cx="444.0" cy="202.0" r="1.2" fill="#d4af37" stroke="#1a1a1a" stroke-width="0.5"/>
<circle cx="444.0" cy="202.0" r="0.6" fill="#1a1a1a"/>
<circle cx="340.0" cy="202.0" r="1.2" fill="#d4af37" stroke="#1a1a1a" stroke-width="0.5"/>
<circle cx="340.0" cy="202.0" r="0.6" fill="#1a1a1a"/>
<circle cx="180.0" cy="202.0" r="1.2" fill="#d4af37" stroke="#1a1a1a" stroke-width="0.5"/>
<circle cx="180.0" cy="202.0" r="0.6" fill="#1a1a1a"/>
<circle cx="159.6" cy="132.0" r="1.2" fill="#d4af37" stroke="#1a1a1a" stroke-width="0.5"/>
<circle cx="159.6" cy="132.0" r="0.6" fill="#1a1a1a"/>
<circle cx="178.0" cy="132.0" r="1.2" fill="#d4af37" stroke="#1a1a1a" stroke-width="0.5"/>
<circle cx="178.0" cy="132.0" r="0.6" fill="#1a1a1a"/>
<circle cx="159.6" cy="146.0" r="1.2" fill="#d4af37" stroke="#1a1a1a" stroke-width="0.5"/>
<circle cx="159.6" cy="146.0" r="0.6" fill="#1a1a1a"/>
<circle cx="102.0" cy="146.0" r="1.2" fill="#d4af37" stroke="#1a1a1a" stroke-width="0.5"/>
<circle cx="102.0" cy="146.0" r="0.6" fill="#1a1a1a"/>
<circle cx="338.0" cy="290.0" r="1.2" fill="#d4af37" stroke="#1a1a1a" stroke-width="0.5"/>
<circle cx="338.0" cy="290.0" r="0.6" fill="#1a1a1a"/>
<circle cx="320.0" cy="290.0" r="1.2" fill="#d4af37" stroke="#1a1a1a" stroke-width="0.5"/>
<circle cx="320.0" cy="290.0" r="0.6" fill="#1a1a1a"/>
<circle cx="320.0" cy="165.56" r="1.2" fill="#d4af37" stroke="#1a1a1a" stroke-width="0.5"/>
<circle cx="320.0" cy="165.56" r="0.6" fill="#1a1a1a"/>
<circle cx="342.0" cy="294.0" r="1.2" fill="#d4af37" stroke="#1a1a1a" stroke-width="0.5"/>
<circle cx="342.0" cy="294.0" r="0.6" fill="#1a1a1a"/>
<circle cx="326.0" cy="294.0" r="1.2" fill="#d4af37" stroke="#1a1a1a" stroke-width="0.5"/>
<circle cx="326.0" cy="294.0" r="0.6" fill="#1a1a1a"/>
<circle cx="326.0" cy="160.48" r="1.2" fill="#d4af37" stroke="#1a1a1a" stroke-width="0.5"/>
<circle cx="326.0" cy="160.48" r="0.6" fill="#1a1a1a"/>
<circle cx="140.0" cy="150.0" r="1.2" fill="#d4af37" stroke="#1a1a1a" stroke-width="0.5"/>
<circle cx="140.0" cy="150.0" r="0.6" fill="#1a1a1a"/>
<circle cx="140.0" cy="216.0" r="1.2" fill="#d4af37" stroke="#1a1a1a" stroke-width="0.5"/>
<circle cx="140.0" cy="216.0" r="0.6" fill="#1a1a1a"/>
<circle cx="386.0" cy="216.0" r="1.2" fill="#d4af37" stroke="#1a1a1a" stroke-width="0.5"/>
<circle cx="386.0" cy="216.0" r="0.6" fill="#1a1a1a"/>
<circle cx="386.0" cy="190.96" r="1.2" fill="#d4af37" stroke="#1a1a1a" stroke-width="0.5"/>
<circle cx="386.0" cy="190.96" r="0.6" fill="#1a1a1a"/>
<circle cx="376.0" cy="190.96" r="1.2" fill="#d4af37" stroke="#1a1a1a" stroke-width="0.5"/>
<circle cx="376.0" cy="190.96" r="0.6" fill="#1a1a1a"/>
<circle cx="68.0" cy="150.0" r="1.2" fill="#d4af37" stroke="#1a1a1a" stroke-width="0.5"/>
<circle cx="68.0" cy="150.0" r="0.6" fill="#1a1a1a"/>
<circle cx="68.0" cy="220.0" r="1.2" fill="#d4af37" stroke="#1a1a1a" stroke-width="0.5"/>
<circle cx="68.0" cy="220.0" r="0.6" fill="#1a1a1a"/>
<circle cx="390.0" cy="220.0" r="1.2" fill="#d4af37" stroke="#1a1a1a" stroke-width="0.5"/>
<circle cx="390.0" cy="220.0" r="0.6" fill="#1a1a1a"/>
<circle cx="390.0" cy="180.8" r="1.2" fill="#d4af37" stroke="#1a1a1a" stroke-width="0.5"/>
<circle cx="390.0" cy="180.8" r="0.6" fill="#1a1a1a"/>
<circle cx="376.0" cy="180.8" r="1.2" fill="#d4af37" stroke="#1a1a1a" stroke-width="0.5"/>
<circle cx="376.0" cy="180.8" r="0.6" fill="#1a1a1a"/>
<circle cx="104.0" cy="186.0" r="1.2" fill="#d4af37" stroke="#1a1a1a" stroke-width="0.5"/>
<circle cx="104.0" cy="186.0" r="0.6" fill="#1a1a1a"/>
<circle cx="104.0" cy="224.0" r="1.2" fill="#d4af37" stroke="#1a1a1a" stroke-width="0.5"/>
<circle cx="104.0" cy="224.0" r="0.6" fill="#1a1a1a"/>
<circle cx="394.0" cy="224.0" r="1.2" fill="#d4af37" stroke="#1a1a1a" stroke-width="0.5"/>
<circle cx="394.0" cy="224.0" r="0.6" fill="#1a1a1a"/>
<circle cx="394.0" cy="175.72" r="1.2" fill="#d4af37" stroke="#1a1a1a" stroke-width="0.5"/>
<circle cx="394.0" cy="175.72" r="0.6" fill="#1a1a1a"/>
<circle cx="376.0" cy="175.72" r="1.2" fill="#d4af37" stroke="#1a1a1a" stroke-width="0.5"/>
<circle cx="376.0" cy="175.72" r="0.6" fill="#1a1a1a"/>
<circle cx="108.0" cy="114.0" r="1.2" fill="#d4af37" stroke="#1a1a1a" stroke-width="0.5"/>
<circle cx="108.0" cy="114.0" r="0.6" fill="#1a1a1a"/>
<circle cx="108.0" cy="228.0" r="1.2" fill="#d4af37" stroke="#1a1a1a" stroke-width="0.5"/>
<circle cx="108.0" cy="228.0" r="0.6" fill="#1a1a1a"/>
<circle cx="398.0" cy="228.0" r="1.2" fill="#d4af37" stroke="#1a1a1a" stroke-width="0.5"/>
<circle cx="398.0" cy="228.0" r="0.6" fill="#1a1a1a"/>
<circle cx="398.0" cy="170.64" r="1.2" fill="#d4af37" stroke="#1a1a1a" stroke-width="0.5"/>
<circle cx="398.0" cy="170.64" r="0.6" fill="#1a1a1a"/>
<circle cx="376.0" cy="170.64" r="1.2" fill="#d4af37" stroke="#1a1a1a" stroke-width="0.5"/>
<circle cx="376.0" cy="170.64" r="0.6" fill="#1a1a1a"/>
<circle cx="620.0" cy="150.0" r="1.2" fill="#d4af37" stroke="#1a1a1a" stroke-width="0.5"/>
<circle cx="620.0" cy="150.0" r="0.6" fill="#1a1a1a"/>
<circle cx="620.0" cy="236.0" r="1.2" fill="#d4af37" stroke="#1a1a1a" stroke-width="0.5"/>
<circle cx="620.0" cy="236.0" r="0.6" fill="#1a1a1a"/>
<circle cx="406.0" cy="236.0" r="1.2" fill="#d4af37" stroke="#1a1a1a" stroke-width="0.5"/>
<circle cx="406.0" cy="236.0" r="0.6" fill="#1a1a1a"/>
<circle cx="406.0" cy="130.0" r="1.2" fill="#d4af37" stroke="#1a1a1a" stroke-width="0.5"/>
<circle cx="406.0" cy="130.0" r="0.6" fill="#1a1a1a"/>
<circle cx="376.0" cy="130.0" r="1.2" fill="#d4af37" stroke="#1a1a1a" stroke-width="0.5"/>
<circle cx="376.0" cy="130.0" r="0.6" fill="#1a1a1a"/>
<circle cx="584.0" cy="190.0" r="1.2" fill="#d4af37" stroke="#1a1a1a" stroke-width="0.5"/>
<circle cx="584.0" cy="190.0" r="0.6" fill="#1a1a1a"/>
<circle cx="584.0" cy="240.0" r="1.2" fill="#d4af37" stroke="#1a1a1a" stroke-width="0.5"/>
<circle cx="584.0" cy="240.0" r="0.6" fill="#1a1a1a"/>
<circle cx="410.0" cy="240.0" r="1.2" fill="#d4af37" stroke="#1a1a1a" stroke-width="0.5"/>
<circle cx="410.0" cy="240.0" r="0.6" fill="#1a1a1a"/>
<circle cx="410.0" cy="124.92" r="1.2" fill="#d4af37" stroke="#1a1a1a" stroke-width="0.5"/>
<circle cx="410.0" cy="124.92" r="0.6" fill="#1a1a1a"/>
<circle cx="376.0" cy="124.92" r="1.2" fill="#d4af37" stroke="#1a1a1a" stroke-width="0.5"/>
<circle cx="376.0" cy="124.92" r="0.6" fill="#1a1a1a"/>
<circle cx="64.0" cy="238.0" r="1.2" fill="#d4af37" stroke="#1a1a1a" stroke-width="0.5"/>
<circle cx="64.0" cy="238.0" r="0.6" fill="#1a1a1a"/>
<circle cx="64.0" cy="248.0" r="1.2" fill="#d4af37" stroke="#1a1a1a" stroke-width="0.5"/>
<circle cx="64.0" cy="248.0" r="0.6" fill="#1a1a1a"/>
<circle cx="290.0" cy="248.0" r="1.2" fill="#d4af37" stroke="#1a1a1a" stroke-width="0.5"/>
<circle cx="290.0" cy="248.0" r="0.6" fill="#1a1a1a"/>
<circle cx="290.0" cy="145.24" r="1.2" fill="#d4af37" stroke="#1a1a1a" stroke-width="0.5"/>
<circle cx="290.0" cy="145.24" r="0.6" fill="#1a1a1a"/>
<circle cx="304.0" cy="145.24" r="1.2" fill="#d4af37" stroke="#1a1a1a" stroke-width="0.5"/>
<circle cx="304.0" cy="145.24" r="0.6" fill="#1a1a1a"/>
<circle cx="188.2" cy="204.0" r="1.2" fill="#d4af37" stroke="#1a1a1a" stroke-width="0.5"/>
<circle cx="188.2" cy="204.0" r="0.6" fill="#1a1a1a"/>
<circle cx="208.2" cy="204.0" r="1.2" fill="#d4af37" stroke="#1a1a1a" stroke-width="0.5"/>
<circle cx="208.2" cy="204.0" r="0.6" fill="#1a1a1a"/>
<circle cx="228.2" cy="204.0" r="1.2" fill="#d4af37" stroke="#1a1a1a" stroke-width="0.5"/>
<circle cx="228.2" cy="204.0" r="0.6" fill="#1a1a1a"/>
<circle cx="248.2" cy="204.0" r="1.2" fill="#d4af37" stroke="#1a1a1a" stroke-width="0.5"/>
<circle cx="248.2" cy="204.0" r="0.6" fill="#1a1a1a"/>
<circle cx="268.2" cy="204.0" r="1.2" fill="#d4af37" stroke="#1a1a1a" stroke-width="0.5"/>
<circle cx="268.2" cy="204.0" r="0.6" fill="#1a1a1a"/>
<circle cx="288.2" cy="204.0" r="1.2" fill="#d4af37" stroke="#1a1a1a" stroke-width="0.5"/>
<circle cx="288.2" cy="204.0" r="0.6" fill="#1a1a1a"/>
<circle cx="308.2" cy="204.0" r="1.2" fill="#d4af37" stroke="#1a1a1a" stroke-width="0.5"/>
<circle cx="308.2" cy="204.0" r="0.6" fill="#1a1a1a"/>
<circle cx="328.2" cy="204.0" r="1.2" fill="#d4af37" stroke="#1a1a1a" stroke-width="0.5"/>
<circle cx="328.2" cy="204.0" r="0.6" fill="#1a1a1a"/>
<circle cx="348.2" cy="204.0" r="1.2" fill="#d4af37" stroke="#1a1a1a" stroke-width="0.5"/>
<circle cx="348.2" cy="204.0" r="0.6" fill="#1a1a1a"/>
<circle cx="368.2" cy="204.0" r="1.2" fill="#d4af37" stroke="#1a1a1a" stroke-width="0.5"/>
<circle cx="368.2" cy="204.0" r="0.6" fill="#1a1a1a"/>
<circle cx="388.2" cy="204.0" r="1.2" fill="#d4af37" stroke="#1a1a1a" stroke-width="0.5"/>
<circle cx="388.2" cy="204.0" r="0.6" fill="#1a1a1a"/>
<circle cx="408.2" cy="204.0" r="1.2" fill="#d4af37" stroke="#1a1a1a" stroke-width="0.5"/>
<circle cx="408.2" cy="204.0" r="0.6" fill="#1a1a1a"/>
<circle cx="428.2" cy="204.0" r="1.2" fill="#d4af37" stroke="#1a1a1a" stroke-width="0.5"/>
<circle cx="428.2" cy="204.0" r="0.6" fill="#1a1a1a"/>
<circle cx="188.2" cy="228.0" r="1.2" fill="#d4af37" stroke="#1a1a1a" stroke-width="0.5"/>
<circle cx="188.2" cy="228.0" r="0.6" fill="#1a1a1a"/>
<circle cx="208.2" cy="228.0" r="1.2" fill="#d4af37" stroke="#1a1a1a" stroke-width="0.5"/>
<circle cx="208.2" cy="228.0" r="0.6" fill="#1a1a1a"/>
<circle cx="228.2" cy="228.0" r="1.2" fill="#d4af37" stroke="#1a1a1a" stroke-width="0.5"/>
<circle cx="228.2" cy="228.0" r="0.6" fill="#1a1a1a"/>
<circle cx="248.2" cy="228.0" r="1.2" fill="#d4af37" stroke="#1a1a1a" stroke-width="0.5"/>
<circle cx="248.2" cy="228.0" r="0.6" fill="#1a1a1a"/>
<circle cx="268.2" cy="228.0" r="1.2" fill="#d4af37" stroke="#1a1a1a" stroke-width="0.5"/>
<circle cx="268.2" cy="228.0" r="0.6" fill="#1a1a1a"/>
<circle cx="288.2" cy="228.0" r="1.2" fill="#d4af37" stroke="#1a1a1a" stroke-width="0.5"/>
<circle cx="288.2" cy="228.0" r="0.6" fill="#1a1a1a"/>
<circle cx="308.2" cy="228.0" r="1.2" fill="#d4af37" stroke="#1a1a1a" stroke-width="0.5"/>
<circle cx="308.2" cy="228.0" r="0.6" fill="#1a1a1a"/>
<circle cx="328.2" cy="228.0" r="1.2" fill="#d4af37" stroke="#1a1a1a" stroke-width="0.5"/>
<circle cx="328.2" cy="228.0" r="0.6" fill="#1a1a1a"/>
<circle cx="348.2" cy="228.0" r="1.2" fill="#d4af37" stroke="#1a1a1a" stroke-width="0.5"/>
<circle cx="348.2" cy="228.0" r="0.6" fill="#1a1a1a"/>
<circle cx="368.2" cy="228.0" r="1.2" fill="#d4af37" stroke="#1a1a1a" stroke-width="0.5"/>
<circle cx="368.2" cy="228.0" r="0.6" fill="#1a1a1a"/>
<circle cx="388.2" cy="228.0" r="1.2" fill="#d4af37" stroke="#1a1a1a" stroke-width="0.5"/>
<circle cx="388.2" cy="228.0" r="0.6" fill="#1a1a1a"/>
<circle cx="408.2" cy="228.0" r="1.2" fill="#d4af37" stroke="#1a1a1a" stroke-width="0.5"/>
<circle cx="408.2" cy="228.0" r="0.6" fill="#1a1a1a"/>
<circle cx="298.0" cy="104.6" r="1.2" fill="#d4af37" stroke="#1a1a1a" stroke-width="0.5"/>
<circle cx="298.0" cy="104.6" r="0.6" fill="#1a1a1a"/>
<circle cx="252.0" cy="104.6" r="1.2" fill="#d4af37" stroke="#1a1a1a" stroke-width="0.5"/>
<circle cx="252.0" cy="104.6" r="0.6" fill="#1a1a1a"/>
<circle cx="252.0" cy="60.0" r="1.2" fill="#d4af37" stroke="#1a1a1a" stroke-width="0.5"/>
<circle cx="252.0" cy="60.0" r="0.6" fill="#1a1a1a"/>
<circle cx="538.0" cy="60.0" r="1.2" fill="#d4af37" stroke="#1a1a1a" stroke-width="0.5"/>
<circle cx="538.0" cy="60.0" r="0.6" fill="#1a1a1a"/>
<circle cx="538.0" cy="143.0" r="1.2" fill="#d4af37" stroke="#1a1a1a" stroke-width="0.5"/>
<circle cx="538.0" cy="143.0" r="0.6" fill="#1a1a1a"/>
<circle cx="298.0" cy="109.68" r="1.2" fill="#d4af37" stroke="#1a1a1a" stroke-width="0.5"/>
<circle cx="298.0" cy="109.68" r="0.6" fill="#1a1a1a"/>
<circle cx="256.0" cy="109.68" r="1.2" fill="#d4af37" stroke="#1a1a1a" stroke-width="0.5"/>
<circle cx="256.0" cy="109.68" r="0.6" fill="#1a1a1a"/>
<circle cx="256.0" cy="62.0" r="1.2" fill="#d4af37" stroke="#1a1a1a" stroke-width="0.5"/>
<circle cx="256.0" cy="62.0" r="0.6" fill="#1a1a1a"/>
<circle cx="539.6" cy="62.0" r="1.2" fill="#d4af37" stroke="#1a1a1a" stroke-width="0.5"/>
<circle cx="539.6" cy="62.0" r="0.6" fill="#1a1a1a"/>
<circle cx="539.6" cy="145.0" r="1.2" fill="#d4af37" stroke="#1a1a1a" stroke-width="0.5"/>
<circle cx="539.6" cy="145.0" r="0.6" fill="#1a1a1a"/>
<circle cx="298.0" cy="175.72" r="1.2" fill="#d4af37" stroke="#1a1a1a" stroke-width="0.5"/>
<circle cx="298.0" cy="175.72" r="0.6" fill="#1a1a1a"/>
<circle cx="240.0" cy="175.72" r="1.2" fill="#d4af37" stroke="#1a1a1a" stroke-width="0.5"/>
<circle cx="240.0" cy="175.72" r="0.6" fill="#1a1a1a"/>
<circle cx="240.0" cy="84.0" r="1.2" fill="#d4af37" stroke="#1a1a1a" stroke-width="0.5"/>
<circle cx="240.0" cy="84.0" r="0.6" fill="#1a1a1a"/>
<circle cx="555.6" cy="84.0" r="1.2" fill="#d4af37" stroke="#1a1a1a" stroke-width="0.5"/>
<circle cx="555.6" cy="84.0" r="0.6" fill="#1a1a1a"/>
<circle cx="555.6" cy="139.0" r="1.2" fill="#d4af37" stroke="#1a1a1a" stroke-width="0.5"/>
<circle cx="555.6" cy="139.0" r="0.6" fill="#1a1a1a"/>
<circle cx="298.0" cy="170.64" r="1.2" fill="#d4af37" stroke="#1a1a1a" stroke-width="0.5"/>
<circle cx="298.0" cy="170.64" r="0.6" fill="#1a1a1a"/>
<circle cx="244.0" cy="170.64" r="1.2" fill="#d4af37" stroke="#1a1a1a" stroke-width="0.5"/>
<circle cx="244.0" cy="170.64" r="0.6" fill="#1a1a1a"/>
<circle cx="244.0" cy="86.0" r="1.2" fill="#d4af37" stroke="#1a1a1a" stroke-width="0.5"/>
<circle cx="244.0" cy="86.0" r="0.6" fill="#1a1a1a"/>
<circle cx="557.2" cy="86.0" r="1.2" fill="#d4af37" stroke="#1a1a1a" stroke-width="0.5"/>
<circle cx="557.2" cy="86.0" r="0.6" fill="#1a1a1a"/>
<circle cx="557.2" cy="141.0" r="1.2" fill="#d4af37" stroke="#1a1a1a" stroke-width="0.5"/>
<circle cx="557.2" cy="141.0" r="0.6" fill="#1a1a1a"/>
<circle cx="298.0" cy="114.76" r="1.2" fill="#d4af37" stroke="#1a1a1a" stroke-width="0.5"/>
<circle cx="298.0" cy="114.76" r="0.6" fill="#1a1a1a"/>
<circle cx="260.0" cy="114.76" r="1.2" fill="#d4af37" stroke="#1a1a1a" stroke-width="0.5"/>
<circle cx="260.0" cy="114.76" r="0.6" fill="#1a1a1a"/>
<circle cx="260.0" cy="64.0" r="1.2" fill="#d4af37" stroke="#1a1a1a" stroke-width="0.5"/>
<circle cx="260.0" cy="64.0" r="0.6" fill="#1a1a1a"/>
<circle cx="541.2" cy="64.0" r="1.2" fill="#d4af37" stroke="#1a1a1a" stroke-width="0.5"/>
<circle cx="541.2" cy="64.0" r="0.6" fill="#1a1a1a"/>
<circle cx="541.2" cy="147.0" r="1.2" fill="#d4af37" stroke="#1a1a1a" stroke-width="0.5"/>
<circle cx="541.2" cy="147.0" r="0.6" fill="#1a1a1a"/>
<circle cx="298.0" cy="119.84" r="1.2" fill="#d4af37" stroke="#1a1a1a" stroke-width="0.5"/>
<circle cx="298.0" cy="119.84" r="0.6" fill="#1a1a1a"/>
<circle cx="264.0" cy="119.84" r="1.2" fill="#d4af37" stroke="#1a1a1a" stroke-width="0.5"/>
<circle cx="264.0" cy="119.84" r="0.6" fill="#1a1a1a"/>
<circle cx="264.0" cy="66.0" r="1.2" fill="#d4af37" stroke="#1a1a1a" stroke-width="0.5"/>
<circle cx="264.0" cy="66.0" r="0.6" fill="#1a1a1a"/>
<circle cx="542.8" cy="66.0" r="1.2" fill="#d4af37" stroke="#1a1a1a" stroke-width="0.5"/>
<circle cx="542.8" cy="66.0" r="0.6" fill="#1a1a1a"/>
<circle cx="542.8" cy="149.0" r="1.2" fill="#d4af37" stroke="#1a1a1a" stroke-width="0.5"/>
<circle cx="542.8" cy="149.0" r="0.6" fill="#1a1a1a"/>
<circle cx="298.0" cy="150.32" r="1.2" fill="#d4af37" stroke="#1a1a1a" stroke-width="0.5"/>
<circle cx="298.0" cy="150.32" r="0.6" fill="#1a1a1a"/>
<circle cx="268.0" cy="150.32" r="1.2" fill="#d4af37" stroke="#1a1a1a" stroke-width="0.5"/>
<circle cx="268.0" cy="150.32" r="0.6" fill="#1a1a1a"/>
<circle cx="268.0" cy="68.0" r="1.2" fill="#d4af37" stroke="#1a1a1a" stroke-width="0.5"/>
<circle cx="268.0" cy="68.0" r="0.6" fill="#1a1a1a"/>
<circle cx="544.4" cy="68.0" r="1.2" fill="#d4af37" stroke="#1a1a1a" stroke-width="0.5"/>
<circle cx="544.4" cy="68.0" r="0.6" fill="#1a1a1a"/>
<circle cx="544.4" cy="151.0" r="1.2" fill="#d4af37" stroke="#1a1a1a" stroke-width="0.5"/>
<circle cx="544.4" cy="151.0" r="0.6" fill="#1a1a1a"/>
<circle cx="540.0" cy="150.0" r="1.2" fill="#d4af37" stroke="#1a1a1a" stroke-width="0.5"/>
<circle cx="540.0" cy="150.0" r="0.6" fill="#1a1a1a"/>
<circle cx="540.0" cy="244.0" r="1.2" fill="#d4af37" stroke="#1a1a1a" stroke-width="0.5"/>
<circle cx="540.0" cy="244.0" r="0.6" fill="#1a1a1a"/>
<circle cx="414.0" cy="244.0" r="1.2" fill="#d4af37" stroke="#1a1a1a" stroke-width="0.5"/>
<circle cx="414.0" cy="244.0" r="0.6" fill="#1a1a1a"/>
<circle cx="414.0" cy="119.84" r="1.2" fill="#d4af37" stroke="#1a1a1a" stroke-width="0.5"/>
<circle cx="414.0" cy="119.84" r="0.6" fill="#1a1a1a"/>
<circle cx="376.0" cy="119.84" r="1.2" fill="#d4af37" stroke="#1a1a1a" stroke-width="0.5"/>
<circle cx="376.0" cy="119.84" r="0.6" fill="#1a1a1a"/>
<circle cx="298.0" cy="180.8" r="1.2" fill="#d4af37" stroke="#1a1a1a" stroke-width="0.5"/>
<circle cx="298.0" cy="180.8" r="0.6" fill="#1a1a1a"/>
<circle cx="272.0" cy="180.8" r="1.2" fill="#d4af37" stroke="#1a1a1a" stroke-width="0.5"/>
<circle cx="272.0" cy="180.8" r="0.6" fill="#1a1a1a"/>
<circle cx="272.0" cy="70.0" r="1.2" fill="#d4af37" stroke="#1a1a1a" stroke-width="0.5"/>
<circle cx="272.0" cy="70.0" r="0.6" fill="#1a1a1a"/>
<circle cx="546.0" cy="70.0" r="1.2" fill="#d4af37" stroke="#1a1a1a" stroke-width="0.5"/>
<circle cx="546.0" cy="70.0" r="0.6" fill="#1a1a1a"/>
<circle cx="546.0" cy="153.0" r="1.2" fill="#d4af37" stroke="#1a1a1a" stroke-width="0.5"/>
<circle cx="546.0" cy="153.0" r="0.6" fill="#1a1a1a"/>
<circle cx="298.0" cy="185.88" r="1.2" fill="#d4af37" stroke="#1a1a1a" stroke-width="0.5"/>
<circle cx="298.0" cy="185.88" r="0.6" fill="#1a1a1a"/>
<circle cx="276.0" cy="185.88" r="1.2" fill="#d4af37" stroke="#1a1a1a" stroke-width="0.5"/>
<circle cx="276.0" cy="185.88" r="0.6" fill="#1a1a1a"/>
<circle cx="276.0" cy="72.0" r="1.2" fill="#d4af37" stroke="#1a1a1a" stroke-width="0.5"/>
<circle cx="276.0" cy="72.0" r="0.6" fill="#1a1a1a"/>
<circle cx="547.6" cy="72.0" r="1.2" fill="#d4af37" stroke="#1a1a1a" stroke-width="0.5"/>
<circle cx="547.6" cy="72.0" r="0.6" fill="#1a1a1a"/>
<circle cx="547.6" cy="155.0" r="1.2" fill="#d4af37" stroke="#1a1a1a" stroke-width="0.5"/>
<circle cx="547.6" cy="155.0" r="0.6" fill="#1a1a1a"/>
<circle cx="298.0" cy="190.96" r="1.2" fill="#d4af37" stroke="#1a1a1a" stroke-width="0.5"/>
<circle cx="298.0" cy="190.96" r="0.6" fill="#1a1a1a"/>
<circle cx="280.0" cy="190.96" r="1.2" fill="#d4af37" stroke="#1a1a1a" stroke-width="0.5"/>
<circle cx="280.0" cy="190.96" r="0.6" fill="#1a1a1a"/>
<circle cx="280.0" cy="74.0" r="1.2" fill="#d4af37" stroke="#1a1a1a" stroke-width="0.5"/>
<circle cx="280.0" cy="74.0" r="0.6" fill="#1a1a1a"/>
<circle cx="549.2" cy="74.0" r="1.2" fill="#d4af37" stroke="#1a1a1a" stroke-width="0.5"/>
<circle cx="549.2" cy="74.0" r="0.6" fill="#1a1a1a"/>
<circle cx="549.2" cy="157.0" r="1.2" fill="#d4af37" stroke="#1a1a1a" stroke-width="0.5"/>
<circle cx="549.2" cy="157.0" r="0.6" fill="#1a1a1a"/>
<circle cx="382.0" cy="104.6" r="1.2" fill="#d4af37" stroke="#1a1a1a" stroke-width="0.5"/>
<circle cx="382.0" cy="104.6" r="0.6" fill="#1a1a1a"/>
<circle cx="424.0" cy="104.6" r="1.2" fill="#d4af37" stroke="#1a1a1a" stroke-width="0.5"/>
<circle cx="424.0" cy="104.6" r="0.6" fill="#1a1a1a"/>
<circle cx="424.0" cy="80.0" r="1.2" fill="#d4af37" stroke="#1a1a1a" stroke-width="0.5"/>
<circle cx="424.0" cy="80.0" r="0.6" fill="#1a1a1a"/>
<circle cx="552.4" cy="80.0" r="1.2" fill="#d4af37" stroke="#1a1a1a" stroke-width="0.5"/>
<circle cx="552.4" cy="80.0" r="0.6" fill="#1a1a1a"/>
<circle cx="552.4" cy="135.0" r="1.2" fill="#d4af37" stroke="#1a1a1a" stroke-width="0.5"/>
<circle cx="552.4" cy="135.0" r="0.6" fill="#1a1a1a"/>
<circle cx="382.0" cy="114.76" r="1.2" fill="#d4af37" stroke="#1a1a1a" stroke-width="0.5"/>
<circle cx="382.0" cy="114.76" r="0.6" fill="#1a1a1a"/>
<circle cx="428.0" cy="114.76" r="1.2" fill="#d4af37" stroke="#1a1a1a" stroke-width="0.5"/>
<circle cx="428.0" cy="114.76" r="0.6" fill="#1a1a1a"/>
<circle cx="428.0" cy="82.0" r="1.2" fill="#d4af37" stroke="#1a1a1a" stroke-width="0.5"/>
<circle cx="428.0" cy="82.0" r="0.6" fill="#1a1a1a"/>
<circle cx="554.0" cy="82.0" r="1.2" fill="#d4af37" stroke="#1a1a1a" stroke-width="0.5"/>
<circle cx="554.0" cy="82.0" r="0.6" fill="#1a1a1a"/>
<circle cx="554.0" cy="137.0" r="1.2" fill="#d4af37" stroke="#1a1a1a" stroke-width="0.5"/>
<circle cx="554.0" cy="137.0" r="0.6" fill="#1a1a1a"/>
<circle cx="382.0" cy="135.07999999999998" r="1.2" fill="#d4af37" stroke="#1a1a1a" stroke-width="0.5"/>
<circle cx="382.0" cy="135.07999999999998" r="0.6" fill="#1a1a1a"/>
<circle cx="432.0" cy="135.07999999999998" r="1.2" fill="#d4af37" stroke="#1a1a1a" stroke-width="0.5"/>
<circle cx="432.0" cy="135.07999999999998" r="0.6" fill="#1a1a1a"/>
<circle cx="432.0" cy="88.0" r="1.2" fill="#d4af37" stroke="#1a1a1a" stroke-width="0.5"/>
<circle cx="432.0" cy="88.0" r="0.6" fill="#1a1a1a"/>
<circle cx="558.8" cy="88.0" r="1.2" fill="#d4af37" stroke="#1a1a1a" stroke-width="0.5"/>
<circle cx="558.8" cy="88.0" r="0.6" fill="#1a1a1a"/>
<circle cx="558.8" cy="127.0" r="1.2" fill="#d4af37" stroke="#1a1a1a" stroke-width="0.5"/>
<circle cx="558.8" cy="127.0" r="0.6" fill="#1a1a1a"/>
<circle cx="384.0" cy="150.32" r="1.2" fill="#d4af37" stroke="#1a1a1a" stroke-width="0.5"/>
<circle cx="384.0" cy="150.32" r="0.6" fill="#1a1a1a"/>
<circle cx="500.0" cy="150.32" r="1.2" fill="#d4af37" stroke="#1a1a1a" stroke-width="0.5"/>
<circle cx="500.0" cy="150.32" r="0.6" fill="#1a1a1a"/>
<circle cx="500.0" cy="260.8" r="1.2" fill="#d4af37" stroke="#1a1a1a" stroke-width="0.5"/>
<circle cx="500.0" cy="260.8" r="0.6" fill="#1a1a1a"/>
<circle cx="386.0" cy="155.4" r="1.2" fill="#d4af37" stroke="#1a1a1a" stroke-width="0.5"/>
<circle cx="386.0" cy="155.4" r="0.6" fill="#1a1a1a"/>
<circle cx="492.0" cy="155.4" r="1.2" fill="#d4af37" stroke="#1a1a1a" stroke-width="0.5"/>
<circle cx="492.0" cy="155.4" r="0.6" fill="#1a1a1a"/>
<circle cx="492.0" cy="256.8" r="1.2" fill="#d4af37" stroke="#1a1a1a" stroke-width="0.5"/>
<circle cx="492.0" cy="256.8" r="0.6" fill="#1a1a1a"/>
<circle cx="566.8" cy="256.8" r="1.2" fill="#d4af37" stroke="#1a1a1a" stroke-width="0.5"/>
<circle cx="566.8" cy="256.8" r="0.6" fill="#1a1a1a"/>
<circle cx="298.0" cy="130.0" r="1.2" fill="#d4af37" stroke="#1a1a1a" stroke-width="0.5"/>
<circle cx="298.0" cy="130.0" r="0.6" fill="#1a1a1a"/>
<circle cx="140.0" cy="130.0" r="1.2" fill="#d4af37" stroke="#1a1a1a" stroke-width="0.5"/>
<circle cx="140.0" cy="130.0" r="0.6" fill="#1a1a1a"/>
<circle cx="298.0" cy="135.07999999999998" r="1.2" fill="#d4af37" stroke="#1a1a1a" stroke-width="0.5"/>
<circle cx="298.0" cy="135.07999999999998" r="0.6" fill="#1a1a1a"/>
<circle cx="140.0" cy="135.07999999999998" r="1.2" fill="#d4af37" stroke="#1a1a1a" stroke-width="0.5"/>
<circle cx="140.0" cy="135.07999999999998" r="0.6" fill="#1a1a1a"/>
<circle cx="298.0" cy="140.16" r="1.2" fill="#d4af37" stroke="#1a1a1a" stroke-width="0.5"/>
<circle cx="298.0" cy="140.16" r="0.6" fill="#1a1a1a"/>
<circle cx="140.0" cy="140.16" r="1.2" fill="#d4af37" stroke="#1a1a1a" stroke-width="0.5"/>
<circle cx="140.0" cy="140.16" r="0.6" fill="#1a1a1a"/>
<circle cx="580.0" cy="110.0" r="1.2" fill="#d4af37" stroke="#1a1a1a" stroke-width="0.5"/>
<circle cx="580.0" cy="110.0" r="0.6" fill="#1a1a1a"/>
<circle cx="580.0" cy="212.0" r="1.2" fill="#d4af37" stroke="#1a1a1a" stroke-width="0.5"/>
<circle cx="580.0" cy="212.0" r="0.6" fill="#1a1a1a"/>
<circle cx="382.0" cy="212.0" r="1.2" fill="#d4af37" stroke="#1a1a1a" stroke-width="0.5"/>
<circle cx="382.0" cy="212.0" r="0.6" fill="#1a1a1a"/>
<circle cx="382.0" cy="196.04" r="1.2" fill="#d4af37" stroke="#1a1a1a" stroke-width="0.5"/>
<circle cx="382.0" cy="196.04" r="0.6" fill="#1a1a1a"/>
<circle cx="376.0" cy="196.04" r="1.2" fill="#d4af37" stroke="#1a1a1a" stroke-width="0.5"/>
<circle cx="376.0" cy="196.04" r="0.6" fill="#1a1a1a"/>
<circle cx="144.0" cy="238.0" r="1.2" fill="#d4af37" stroke="#1a1a1a" stroke-width="0.5"/>
<circle cx="144.0" cy="238.0" r="0.6" fill="#1a1a1a"/>
<circle cx="144.0" cy="232.0" r="1.2" fill="#d4af37" stroke="#1a1a1a" stroke-width="0.5"/>
<circle cx="144.0" cy="232.0" r="0.6" fill="#1a1a1a"/>
<circle cx="402.0" cy="232.0" r="1.2" fill="#d4af37" stroke="#1a1a1a" stroke-width="0.5"/>
<circle cx="402.0" cy="232.0" r="0.6" fill="#1a1a1a"/>
<circle cx="402.0" cy="140.16" r="1.2" fill="#d4af37" stroke="#1a1a1a" stroke-width="0.5"/>
<circle cx="402.0" cy="140.16" r="0.6" fill="#1a1a1a"/>
<circle cx="376.0" cy="140.16" r="1.2" fill="#d4af37" stroke="#1a1a1a" stroke-width="0.5"/>
<circle cx="376.0" cy="140.16" r="0.6" fill="#1a1a1a"/>
<circle cx="80.0" cy="252.0" r="1.2" fill="#d4af37" stroke="#1a1a1a" stroke-width="0.5"/>
<circle cx="80.0" cy="252.0" r="0.6" fill="#1a1a1a"/>
<circle cx="422.0" cy="252.0" r="1.2" fill="#d4af37" stroke="#1a1a1a" stroke-width="0.5"/>
<circle cx="422.0" cy="252.0" r="0.6" fill="#1a1a1a"/>
<circle cx="422.0" cy="145.24" r="1.2" fill="#d4af37" stroke="#1a1a1a" stroke-width="0.5"/>
<circle cx="422.0" cy="145.24" r="0.6" fill="#1a1a1a"/>
<rect x="81.8" y="103.8" width="20.4" height="20.4" rx="1" fill="#555555" stroke="#666" stroke-width="0.5"/>
<circle cx="92.0" cy="114.0" r="6.119999999999999" fill="#888888" stroke="#999" stroke-width="0.3"/>
<text x="92.0" y="115.5" text-anchor="middle" font-family="monospace" font-size="4" fill="#ffffff" font-weight="bold">Up</text>
<rect x="81.8" y="175.8" width="20.4" height="20.4" rx="1" fill="#555555" stroke="#666" stroke-width="0.5"/>
<circle cx="92.0" cy="186.0" r="6.119999999999999" fill="#888888" stroke="#999" stroke-width="0.3"/>
<text x="92.0" y="187.5" text-anchor="middle" font-family="monospace" font-size="4" fill="#ffffff" font-weight="bold">Dn</text>
<rect x="45.8" y="139.8" width="20.4" height="20.4" rx="1" fill="#555555" stroke="#666" stroke-width="0.5"/>
<circle cx="56.0" cy="150.0" r="6.119999999999999" fill="#888888" stroke="#999" stroke-width="0.3"/>
<text x="56.0" y="151.5" text-anchor="middle" font-family="monospace" font-size="4" fill="#ffffff" font-weight="bold">Lt</text>
<rect x="117.8" y="139.8" width="20.4" height="20.4" rx="1" fill="#555555" stroke="#666" stroke-width="0.5"/>
<circle cx="128.0" cy="150.0" r="6.119999999999999" fill="#888888" stroke="#999" stroke-width="0.3"/>
<text x="128.0" y="151.5" text-anchor="middle" font-family="monospace" font-size="4" fill="#ffffff" font-weight="bold">Rt</text>
<rect x="577.8" y="99.8" width="20.4" height="20.4" rx="1" fill="#555555" stroke="#666" stroke-width="0.5"/>
<circle cx="588.0" cy="110.0" r="6.119999999999999" fill="#888888" stroke="#999" stroke-width="0.3"/>
<text x="588.0" y="111.5" text-anchor="middle" font-family="monospace" font-size="4" fill="#ffffff" font-weight="bold">A</text>
<rect x="617.8" y="139.8" width="20.4" height="20.4" rx="1" fill="#555555" stroke="#666" stroke-width="0.5"/>
<circle cx="628.0" cy="150.0" r="6.119999999999999" fill="#888888" stroke="#999" stroke-width="0.3"/>
<text x="628.0" y="151.5" text-anchor="middle" font-family="monospace" font-size="4" fill="#ffffff" font-weight="bold">B</text>
<rect x="577.8" y="179.8" width="20.4" height="20.4" rx="1" fill="#555555" stroke="#666" stroke-width="0.5"/>
<circle cx="588.0" cy="190.0" r="6.119999999999999" fill="#888888" stroke="#999" stroke-width="0.3"/>
<text x="588.0" y="191.5" text-anchor="middle" font-family="monospace" font-size="4" fill="#ffffff" font-weight="bold">X</text>
<rect x="537.8" y="139.8" width="20.4" height="20.4" rx="1" fill="#555555" stroke="#666" stroke-width="0.5"/>
<circle cx="548.0" cy="150.0" r="6.119999999999999" fill="#888888" stroke="#999" stroke-width="0.3"/>
<text x="548.0" y="151.5" text-anchor="middle" font-family="monospace" font-size="4" fill="#ffffff" font-weight="bold">Y</text>
<rect x="41.8" y="227.8" width="20.4" height="20.4" rx="1" fill="#555555" stroke="#666" stroke-width="0.5"/>
<circle cx="52.0" cy="238.0" r="6.119999999999999" fill="#888888" stroke="#999" stroke-width="0.3"/>
<text x="52.0" y="239.5" text-anchor="middle" font-family="monospace" font-size="4" fill="#ffffff" font-weight="bold">St</text>
<rect x="121.8" y="227.8" width="20.4" height="20.4" rx="1" fill="#555555" stroke="#666" stroke-width="0.5"/>
<circle cx="132.0" cy="238.0" r="6.119999999999999" fill="#888888" stroke="#999" stroke-width="0.3"/>
<text x="132.0" y="239.5" text-anchor="middle" font-family="monospace" font-size="4" fill="#ffffff" font-weight="bold">Se</text>
<rect x="577.8" y="259.8" width="20.4" height="20.4" rx="1" fill="#555555" stroke="#666" stroke-width="0.5"/>
<circle cx="588.0" cy="270.0" r="6.119999999999999" fill="#888888" stroke="#999" stroke-width="0.3"/>
<text x="588.0" y="271.5" text-anchor="middle" font-family="monospace" font-size="4" fill="#ffffff" font-weight="bold">Menu</text>
<rect x="116.0" y="287.5" width="8.0" height="5.0" rx="0.5" fill="#ff3030" stroke="#fff" stroke-width="0.3" opacity="0.9"/>
<circle cx="120.0" cy="290.0" r="8.0" fill="#ff3030" opacity="0.15"/>
<rect x="144.0" y="287.5" width="8.0" height="5.0" rx="0.5" fill="#30ff30" stroke="#fff" stroke-width="0.3" opacity="0.9"/>
<circle cx="148.0" cy="290.0" r="8.0" fill="#30ff30" opacity="0.15"/>
<text x="92.0" y="90.0" text-anchor="middle" dominant-baseline="middle" font-family="monospace" font-size="3.2" fill="#e8e8e8" opacity="0.9">D-PAD</text>
<text x="588.0" y="86.0" text-anchor="middle" dominant-baseline="middle" font-family="monospace" font-size="3.2" fill="#e8e8e8" opacity="0.9">ABXY</text>
<text x="588.0" y="250.0" text-anchor="middle" dominant-baseline="middle" font-family="monospace" font-size="2.5600000000000005" fill="#e8e8e8" opacity="0.9">MENU</text>
<text x="120.0" y="302.0" text-anchor="middle" dominant-baseline="middle" font-family="monospace" font-size="1.92" fill="#e8e8e8" opacity="0.9">CHG</text>
<text x="148.0" y="302.0" text-anchor="middle" dominant-baseline="middle" font-family="monospace" font-size="1.92" fill="#e8e8e8" opacity="0.9">FULL</text>
<text x="180.0" y="308.0" text-anchor="middle" dominant-baseline="middle" font-family="monospace" font-size="3.2" fill="#e8e8e8" opacity="0.9">ESP32 EMU Turbo CPJ&amp;CP v1.0</text>
</svg>
