<?xml version="1.0" encoding="UTF-8"?>
<svg xmlns="http://www.w3.org/2000/svg"
     viewBox="0 0 680.0 340.0"
     width="680.0" height="340.0">
<title>ESP32 Emu Turbo — Bottom View</title>
<defs>
  <filter id="shadow" x="-5%" y="-5%" width="115%" height="115%">
    <feDropShadow dx="3" dy="3" stdDeviation="4" flood-color="rgba(0,0,0,0.3)" />
  </filter>
  <pattern id="grid" width="10.16" height="10.16"
           patternUnits="userSpaceOnUse"
           patternTransform="translate(20,20)">
    <rect width="10.16" height="10.16" fill="none"/>
    <path d="M 10.16 0 L 0 0 0 10.16"
          fill="none" stroke="#1f6b31" stroke-width="0.3" opacity="0.3"/>
  </pattern>
</defs>
<rect width="680.0" height="340.0" fill="#1a1a2e"/>

<clipPath id="board-clip"><path d="M 44.0,20.0 L 636.0,20.0 A 24.0,24.0 0 0 1 660.0,44.0 L 660.0,296.0 A 24.0,24.0 0 0 1 636.0,320.0 L 44.0,320.0 A 24.0,24.0 0 0 1 20.0,296.0 L 20.0,44.0 A 24.0,24.0 0 0 1 44.0,20.0 Z"/></clipPath>
<path d="M 44.0,20.0 L 636.0,20.0 A 24.0,24.0 0 0 1 660.0,44.0 L 660.0,296.0 A 24.0,24.0 0 0 1 636.0,320.0 L 44.0,320.0 A 24.0,24.0 0 0 1 20.0,296.0 L 20.0,44.0 A 24.0,24.0 0 0 1 44.0,20.0 Z" fill="none" filter="url(#shadow)"/>
<path d="M 44.0,20.0 L 636.0,20.0 A 24.0,24.0 0 0 1 660.0,44.0 L 660.0,296.0 A 24.0,24.0 0 0 1 636.0,320.0 L 44.0,320.0 A 24.0,24.0 0 0 1 20.0,296.0 L 20.0,44.0 A 24.0,24.0 0 0 1 44.0,20.0 Z" fill="#1a5c2a"/>
<path d="M 44.0,20.0 L 636.0,20.0 A 24.0,24.0 0 0 1 660.0,44.0 L 660.0,296.0 A 24.0,24.0 0 0 1 636.0,320.0 L 44.0,320.0 A 24.0,24.0 0 0 1 20.0,296.0 L 20.0,44.0 A 24.0,24.0 0 0 1 44.0,20.0 Z" fill="url(#grid)" clip-path="url(#board-clip)"/>
<path d="M 44.0,20.0 L 636.0,20.0 A 24.0,24.0 0 0 1 660.0,44.0 L 660.0,296.0 A 24.0,24.0 0 0 1 636.0,320.0 L 44.0,320.0 A 24.0,24.0 0 0 1 20.0,296.0 L 20.0,44.0 A 24.0,24.0 0 0 1 44.0,20.0 Z" fill="none" stroke="#d4af37" stroke-width="1.5"/>
<text x="340.0" y="336.0" text-anchor="middle" font-family="monospace" font-size="11" fill="#666">BOTTOM VIEW (B.Cu)</text>
<circle cx="60.0" cy="48.0" r="10.0" fill="#c0a030" stroke="#d4af37" stroke-width="0.5"/>
<circle cx="60.0" cy="48.0" r="5.0" fill="#1a1a1a"/>
<circle cx="620.0" cy="48.0" r="10.0" fill="#c0a030" stroke="#d4af37" stroke-width="0.5"/>
<circle cx="620.0" cy="48.0" r="5.0" fill="#1a1a1a"/>
<circle cx="60.0" cy="292.0" r="10.0" fill="#c0a030" stroke="#d4af37" stroke-width="0.5"/>
<circle cx="60.0" cy="292.0" r="5.0" fill="#1a1a1a"/>
<circle cx="620.0" cy="292.0" r="10.0" fill="#c0a030" stroke="#d4af37" stroke-width="0.5"/>
<circle cx="620.0" cy="292.0" r="5.0" fill="#1a1a1a"/>
<circle cx="240.0" cy="170.0" r="10.0" fill="#c0a030" stroke="#d4af37" stroke-width="0.5"/>
<circle cx="240.0" cy="170.0" r="5.0" fill="#1a1a1a"/>
<circle cx="440.0" cy="170.0" r="10.0" fill="#c0a030" stroke="#d4af37" stroke-width="0.5"/>
<circle cx="440.0" cy="170.0" r="5.0" fill="#1a1a1a"/>
<path d="M 44.0,24.0 L 636.0,24.0 A 20.0,20.0 0 0 1 656.0,44.0 L 656.0,296.0 A 20.0,20.0 0 0 1 636.0,316.0 L 44.0,316.0 A 20.0,20.0 0 0 1 24.0,296.0 L 24.0,44.0 A 20.0,20.0 0 0 1 44.0,24.0 Z" fill="#1a4a2a" opacity="0.3"/>
<line x1="328.0" y1="308.0" x2="328.0" y2="186.0" stroke="#ff4444" stroke-width="1.92" stroke-linecap="round" opacity="0.7"/>
<line x1="328.0" y1="186.0" x2="160.0" y2="186.0" stroke="#ff4444" stroke-width="1.92" stroke-linecap="round" opacity="0.7"/>
<line x1="160.0" y1="186.0" x2="160.0" y2="150.0" stroke="#ff4444" stroke-width="1.92" stroke-linecap="round" opacity="0.7"/>
<line x1="352.0" y1="308.0" x2="352.0" y2="194.0" stroke="#666666" stroke-width="1.92" stroke-linecap="round" opacity="0.7"/>
<line x1="352.0" y1="194.0" x2="184.0" y2="194.0" stroke="#666666" stroke-width="1.92" stroke-linecap="round" opacity="0.7"/>
<line x1="184.0" y1="194.0" x2="184.0" y2="150.0" stroke="#666666" stroke-width="1.92" stroke-linecap="round" opacity="0.7"/>
<line x1="148.0" y1="138.0" x2="160.0" y2="182.0" stroke="#ff8844" stroke-width="1.6" stroke-linecap="round" opacity="0.7"/>
<line x1="148.0" y1="138.0" x2="104.0" y2="138.0" stroke="#ff8844" stroke-width="1.6" stroke-linecap="round" opacity="0.7"/>
<line x1="148.0" y1="146.0" x2="104.0" y2="146.0" stroke="#666666" stroke-width="1.6" stroke-linecap="round" opacity="0.7"/>
<line x1="92.0" y1="130.0" x2="92.0" y2="110.0" stroke="#ffaa44" stroke-width="1.2800000000000002" stroke-linecap="round" opacity="0.7"/>
<line x1="92.0" y1="110.0" x2="300.0" y2="110.0" stroke="#ffaa44" stroke-width="1.2800000000000002" stroke-linecap="round" opacity="0.7"/>
<line x1="100.0" y1="130.0" x2="100.0" y2="118.0" stroke="#666666" stroke-width="1.2800000000000002" stroke-linecap="round" opacity="0.7"/>
<line x1="100.0" y1="118.0" x2="300.0" y2="118.0" stroke="#666666" stroke-width="1.2800000000000002" stroke-linecap="round" opacity="0.7"/>
<line x1="172.0" y1="150.0" x2="172.0" y2="230.0" stroke="#ff4444" stroke-width="1.92" stroke-linecap="round" opacity="0.7"/>
<line x1="172.0" y1="230.0" x2="328.0" y2="230.0" stroke="#ff4444" stroke-width="1.92" stroke-linecap="round" opacity="0.7"/>
<line x1="180.0" y1="150.0" x2="180.0" y2="238.0" stroke="#666666" stroke-width="1.92" stroke-linecap="round" opacity="0.7"/>
<line x1="180.0" y1="238.0" x2="328.0" y2="238.0" stroke="#666666" stroke-width="1.92" stroke-linecap="round" opacity="0.7"/>
<line x1="368.0" y1="78.0" x2="368.0" y2="50.0" stroke="#4488ff" stroke-width="0.8" stroke-linecap="round" opacity="0.7"/>
<line x1="360.0" y1="78.0" x2="360.0" y2="50.0" stroke="#4488ff" stroke-width="0.8" stroke-linecap="round" opacity="0.7"/>
<line x1="352.0" y1="78.0" x2="352.0" y2="50.0" stroke="#4488ff" stroke-width="0.8" stroke-linecap="round" opacity="0.7"/>
<line x1="344.0" y1="78.0" x2="344.0" y2="50.0" stroke="#4488ff" stroke-width="0.8" stroke-linecap="round" opacity="0.7"/>
<line x1="336.0" y1="78.0" x2="336.0" y2="50.0" stroke="#4488ff" stroke-width="0.8" stroke-linecap="round" opacity="0.7"/>
<line x1="328.0" y1="78.0" x2="328.0" y2="50.0" stroke="#4488ff" stroke-width="0.8" stroke-linecap="round" opacity="0.7"/>
<line x1="320.0" y1="78.0" x2="320.0" y2="50.0" stroke="#4488ff" stroke-width="0.8" stroke-linecap="round" opacity="0.7"/>
<line x1="312.0" y1="78.0" x2="312.0" y2="50.0" stroke="#4488ff" stroke-width="0.8" stroke-linecap="round" opacity="0.7"/>
<line x1="300.0" y1="118.0" x2="208.0" y2="276.0" stroke="#4488ff" stroke-width="0.8" stroke-linecap="round" opacity="0.7"/>
<line x1="300.0" y1="126.0" x2="208.0" y2="284.0" stroke="#4488ff" stroke-width="0.8" stroke-linecap="round" opacity="0.7"/>
<line x1="300.0" y1="134.0" x2="208.0" y2="292.0" stroke="#4488ff" stroke-width="0.8" stroke-linecap="round" opacity="0.7"/>
<line x1="300.0" y1="142.0" x2="208.0" y2="300.0" stroke="#4488ff" stroke-width="0.8" stroke-linecap="round" opacity="0.7"/>
<line x1="380.0" y1="122.0" x2="516.0" y2="130.0" stroke="#4488ff" stroke-width="0.8" stroke-linecap="round" opacity="0.7"/>
<line x1="380.0" y1="130.0" x2="516.0" y2="138.0" stroke="#4488ff" stroke-width="0.8" stroke-linecap="round" opacity="0.7"/>
<line x1="380.0" y1="138.0" x2="516.0" y2="146.0" stroke="#4488ff" stroke-width="0.8" stroke-linecap="round" opacity="0.7"/>
<line x1="560.0" y1="138.0" x2="496.0" y2="230.0" stroke="#44cc44" stroke-width="0.96" stroke-linecap="round" opacity="0.7"/>
<line x1="560.0" y1="146.0" x2="496.0" y2="238.0" stroke="#44cc44" stroke-width="0.96" stroke-linecap="round" opacity="0.7"/>
<line x1="344.0" y1="296.0" x2="344.0" y2="162.0" stroke="#00ccff" stroke-width="0.8" stroke-linecap="round" opacity="0.7"/>
<line x1="344.0" y1="162.0" x2="332.0" y2="142.0" stroke="#00ccff" stroke-width="0.8" stroke-linecap="round" opacity="0.7"/>
<line x1="336.0" y1="296.0" x2="336.0" y2="170.0" stroke="#00ccff" stroke-width="0.8" stroke-linecap="round" opacity="0.7"/>
<line x1="336.0" y1="170.0" x2="324.0" y2="142.0" stroke="#00ccff" stroke-width="0.8" stroke-linecap="round" opacity="0.7"/>
<rect x="304.0" y="79.0" width="72.0" height="102.0" rx="2" fill="#555" stroke="#888" stroke-width="1"/>
<rect x="306.0" y="81.0" width="68.0" height="94.0" rx="1" fill="#777" stroke="#999" stroke-width="0.5"/>
<rect x="307.0" y="171.0" width="66.0" height="8" rx="1" fill="none" stroke="#aaa" stroke-width="0.5" stroke-dasharray="2,1"/>
<text x="340.0" y="128.0" text-anchor="middle" font-family="monospace" font-size="5" fill="#ffffff" font-weight="bold">U1</text>
<text x="340.0" y="135.0" text-anchor="middle" font-family="monospace" font-size="3.5" fill="#ccc">ESP32-S3</text>
<rect x="589.8" y="19.8" width="20.4" height="20.4" rx="1" fill="#555555" stroke="#666" stroke-width="0.5"/>
<circle cx="600.0" cy="30.0" r="6.119999999999999" fill="#888888" stroke="#999" stroke-width="0.3"/>
<text x="600.0" y="31.5" text-anchor="middle" font-family="monospace" font-size="4" fill="#ffffff" font-weight="bold">L</text>
<rect x="69.8" y="19.8" width="20.4" height="20.4" rx="1" fill="#555555" stroke="#666" stroke-width="0.5"/>
<circle cx="80.0" cy="30.0" r="6.119999999999999" fill="#888888" stroke="#999" stroke-width="0.3"/>
<text x="80.0" y="31.5" text-anchor="middle" font-family="monospace" font-size="4" fill="#ffffff" font-weight="bold">R</text>
<rect x="300.0" y="36.0" width="80.0" height="12.0" rx="0.5" fill="#8b6914" stroke="#a0832a" stroke-width="0.5"/>
<rect x="301.7" y="39.0" width="0.6" height="6.0" fill="#d4af37"/>
<rect x="306.76666666666665" y="39.0" width="0.6" height="6.0" fill="#d4af37"/>
<rect x="311.8333333333333" y="39.0" width="0.6" height="6.0" fill="#d4af37"/>
<rect x="316.9" y="39.0" width="0.6" height="6.0" fill="#d4af37"/>
<rect x="321.96666666666664" y="39.0" width="0.6" height="6.0" fill="#d4af37"/>
<rect x="327.0333333333333" y="39.0" width="0.6" height="6.0" fill="#d4af37"/>
<rect x="332.09999999999997" y="39.0" width="0.6" height="6.0" fill="#d4af37"/>
<rect x="337.1666666666667" y="39.0" width="0.6" height="6.0" fill="#d4af37"/>
<rect x="342.2333333333333" y="39.0" width="0.6" height="6.0" fill="#d4af37"/>
<rect x="347.3" y="39.0" width="0.6" height="6.0" fill="#d4af37"/>
<rect x="352.3666666666667" y="39.0" width="0.6" height="6.0" fill="#d4af37"/>
<rect x="357.43333333333334" y="39.0" width="0.6" height="6.0" fill="#d4af37"/>
<rect x="362.5" y="39.0" width="0.6" height="6.0" fill="#d4af37"/>
<rect x="367.56666666666666" y="39.0" width="0.6" height="6.0" fill="#d4af37"/>
<rect x="372.6333333333333" y="39.0" width="0.6" height="6.0" fill="#d4af37"/>
<rect x="377.7" y="39.0" width="0.6" height="6.0" fill="#d4af37"/>
<rect x="322.0" y="294.0" width="36.0" height="28.0" rx="3" fill="#a0a0a0" stroke="#ccc" stroke-width="0.8"/>
<rect x="331.0" y="319.0" width="18.0" height="3" rx="1.5" fill="#444" stroke="#666" stroke-width="0.3"/>
<text x="340.0" y="308.0" text-anchor="middle" font-family="monospace" font-size="3.5" fill="#333" font-weight="bold">J1</text>
<rect x="152.0" y="258.0" width="56.0" height="60.0" rx="1" fill="#a0a0a0" stroke="#888" stroke-width="0.8"/>
<rect x="161.33333333333334" y="314.0" width="37.333333333333336" height="4" rx="0.5" fill="#444"/>
<text x="180.0" y="288.0" text-anchor="middle" font-family="monospace" font-size="3" fill="#333" font-weight="bold">SD</text>
<rect x="620.0" y="94.0" width="16.0" height="32.0" rx="1.5" fill="#444" stroke="#666" stroke-width="0.5"/>
<rect x="622.6666666666666" y="102.0" width="10.666666666666666" height="10.666666666666666" rx="1" fill="#888" stroke="#aaa" stroke-width="0.3"/>
<text x="628.0" y="131.0" text-anchor="middle" font-family="monospace" font-size="2.5" fill="#e8e8e8">PWR</text>
<circle cx="540.0" cy="230.0" r="44.0" fill="#2a2a2a" stroke="#555" stroke-width="1"/>
<circle cx="540.0" cy="230.0" r="30.799999999999997" fill="#3a3a3a" stroke="#555" stroke-width="0.5"/>
<circle cx="540.0" cy="230.0" r="15.399999999999999" fill="#4a4a4a" stroke="#666" stroke-width="0.5"/>
<circle cx="540.0" cy="230.0" r="5.279999999999999" fill="#555" stroke="#777" stroke-width="0.3"/>
<rect x="148.0" y="128.0" width="24.0" height="20.0" rx="0.5" fill="#1a1a1a" stroke="#555" stroke-width="0.5"/>
<circle cx="150.0" cy="130.0" r="0.8" fill="#888"/>
<rect x="146.0" y="131.5" width="2.5" height="1" fill="#d4af37"/>
<rect x="171.5" y="131.5" width="2.5" height="1" fill="#d4af37"/>
<rect x="146.0" y="135.5" width="2.5" height="1" fill="#d4af37"/>
<rect x="171.5" y="135.5" width="2.5" height="1" fill="#d4af37"/>
<rect x="146.0" y="139.5" width="2.5" height="1" fill="#d4af37"/>
<rect x="171.5" y="139.5" width="2.5" height="1" fill="#d4af37"/>
<rect x="146.0" y="143.5" width="2.5" height="1" fill="#d4af37"/>
<rect x="171.5" y="143.5" width="2.5" height="1" fill="#d4af37"/>
<text x="160.0" y="139.0" text-anchor="middle" font-family="monospace" font-size="3" fill="#ffffff" font-weight="bold">IP5306</text>
<rect x="78.0" y="131.0" width="28.0" height="14.0" rx="0.5" fill="#1a1a1a" stroke="#555" stroke-width="0.5"/>
<circle cx="80.0" cy="133.0" r="0.8" fill="#888"/>
<rect x="76.0" y="135.16666666666666" width="2.5" height="1" fill="#d4af37"/>
<rect x="105.5" y="135.16666666666666" width="2.5" height="1" fill="#d4af37"/>
<rect x="76.0" y="139.83333333333334" width="2.5" height="1" fill="#d4af37"/>
<rect x="105.5" y="139.83333333333334" width="2.5" height="1" fill="#d4af37"/>
<text x="92.0" y="139.0" text-anchor="middle" font-family="monospace" font-size="3" fill="#ffffff" font-weight="bold">AMS1117</text>
<rect x="520.0" y="126.0" width="40.0" height="24.0" rx="0.5" fill="#1a1a1a" stroke="#555" stroke-width="0.5"/>
<circle cx="522.0" cy="128.0" r="0.8" fill="#888"/>
<rect x="518.0" y="128.16666666666666" width="2.5" height="1" fill="#d4af37"/>
<rect x="559.5" y="128.16666666666666" width="2.5" height="1" fill="#d4af37"/>
<rect x="518.0" y="130.83333333333334" width="2.5" height="1" fill="#d4af37"/>
<rect x="559.5" y="130.83333333333334" width="2.5" height="1" fill="#d4af37"/>
<rect x="518.0" y="133.5" width="2.5" height="1" fill="#d4af37"/>
<rect x="559.5" y="133.5" width="2.5" height="1" fill="#d4af37"/>
<rect x="518.0" y="136.16666666666666" width="2.5" height="1" fill="#d4af37"/>
<rect x="559.5" y="136.16666666666666" width="2.5" height="1" fill="#d4af37"/>
<rect x="518.0" y="138.83333333333334" width="2.5" height="1" fill="#d4af37"/>
<rect x="559.5" y="138.83333333333334" width="2.5" height="1" fill="#d4af37"/>
<rect x="518.0" y="141.5" width="2.5" height="1" fill="#d4af37"/>
<rect x="559.5" y="141.5" width="2.5" height="1" fill="#d4af37"/>
<rect x="518.0" y="144.16666666666666" width="2.5" height="1" fill="#d4af37"/>
<rect x="559.5" y="144.16666666666666" width="2.5" height="1" fill="#d4af37"/>
<rect x="518.0" y="146.83333333333334" width="2.5" height="1" fill="#d4af37"/>
<rect x="559.5" y="146.83333333333334" width="2.5" height="1" fill="#d4af37"/>
<text x="540.0" y="139.0" text-anchor="middle" font-family="monospace" font-size="3" fill="#ffffff" font-weight="bold">PAM8403</text>
<rect x="152.0" y="174.0" width="16.0" height="16.0" rx="1" fill="#4a4a4a" stroke="#666" stroke-width="0.5"/>
<circle cx="160.0" cy="182.0" r="4.0" fill="none" stroke="#888" stroke-width="0.5"/>
<text x="160.0" y="194.0" text-anchor="middle" font-family="monospace" font-size="2.5" fill="#e8e8e8">L1 1uH</text>
<rect x="328.0" y="221.0" width="24.0" height="18.0" rx="0.5" fill="#e8e0d0" stroke="#ccc" stroke-width="0.5"/>
<circle cx="338.0" cy="230.0" r="1" fill="#d4af37" stroke="#a08020" stroke-width="0.3"/>
<circle cx="342.0" cy="230.0" r="1" fill="#d4af37" stroke="#a08020" stroke-width="0.3"/>
<text x="340.0" y="243.0" text-anchor="middle" font-family="monospace" font-size="2.5" fill="#e8e8e8">J3 BAT</text>
<rect x="360.0" y="325.5" width="8.0" height="5.0" rx="0.3" fill="#3a3020" stroke="#666" stroke-width="0.3"/>
<rect x="360.0" y="325.5" width="2.0" height="5.0" rx="0.2" fill="#d4af37" opacity="0.8"/>
<rect x="366.0" y="325.5" width="2.0" height="5.0" rx="0.2" fill="#d4af37" opacity="0.8"/>
<rect x="312.0" y="325.5" width="8.0" height="5.0" rx="0.3" fill="#3a3020" stroke="#666" stroke-width="0.3"/>
<rect x="312.0" y="325.5" width="2.0" height="5.0" rx="0.2" fill="#d4af37" opacity="0.8"/>
<rect x="318.0" y="325.5" width="2.0" height="5.0" rx="0.2" fill="#d4af37" opacity="0.8"/>
<rect x="396.0" y="191.5" width="8.0" height="5.0" rx="0.3" fill="#3a3020" stroke="#666" stroke-width="0.3"/>
<rect x="396.0" y="191.5" width="2.0" height="5.0" rx="0.2" fill="#d4af37" opacity="0.8"/>
<rect x="402.0" y="191.5" width="2.0" height="5.0" rx="0.2" fill="#d4af37" opacity="0.8"/>
<rect x="376.0" y="191.5" width="8.0" height="5.0" rx="0.3" fill="#8b6914" stroke="#666" stroke-width="0.3"/>
<rect x="376.0" y="191.5" width="2.0" height="5.0" rx="0.2" fill="#d4af37" opacity="0.8"/>
<rect x="382.0" y="191.5" width="2.0" height="5.0" rx="0.2" fill="#d4af37" opacity="0.8"/>
<rect x="296.0" y="191.5" width="8.0" height="5.0" rx="0.3" fill="#8b6914" stroke="#666" stroke-width="0.3"/>
<rect x="296.0" y="191.5" width="2.0" height="5.0" rx="0.2" fill="#d4af37" opacity="0.8"/>
<rect x="302.0" y="191.5" width="2.0" height="5.0" rx="0.2" fill="#d4af37" opacity="0.8"/>
<rect x="356.0" y="191.5" width="8.0" height="5.0" rx="0.3" fill="#3a3020" stroke="#666" stroke-width="0.3"/>
<rect x="356.0" y="191.5" width="2.0" height="5.0" rx="0.2" fill="#d4af37" opacity="0.8"/>
<rect x="362.0" y="191.5" width="2.0" height="5.0" rx="0.2" fill="#d4af37" opacity="0.8"/>
<rect x="316.0" y="191.5" width="8.0" height="5.0" rx="0.3" fill="#3a3020" stroke="#666" stroke-width="0.3"/>
<rect x="316.0" y="191.5" width="2.0" height="5.0" rx="0.2" fill="#d4af37" opacity="0.8"/>
<rect x="322.0" y="191.5" width="2.0" height="5.0" rx="0.2" fill="#d4af37" opacity="0.8"/>
<rect x="456.0" y="193.5" width="8.0" height="5.0" rx="0.3" fill="#3a3020" stroke="#666" stroke-width="0.3"/>
<rect x="456.0" y="193.5" width="2.0" height="5.0" rx="0.2" fill="#d4af37" opacity="0.8"/>
<rect x="462.0" y="193.5" width="2.0" height="5.0" rx="0.2" fill="#d4af37" opacity="0.8"/>
<rect x="436.0" y="193.5" width="8.0" height="5.0" rx="0.3" fill="#3a3020" stroke="#666" stroke-width="0.3"/>
<rect x="436.0" y="193.5" width="2.0" height="5.0" rx="0.2" fill="#d4af37" opacity="0.8"/>
<rect x="442.0" y="193.5" width="2.0" height="5.0" rx="0.2" fill="#d4af37" opacity="0.8"/>
<rect x="416.0" y="193.5" width="8.0" height="5.0" rx="0.3" fill="#3a3020" stroke="#666" stroke-width="0.3"/>
<rect x="416.0" y="193.5" width="2.0" height="5.0" rx="0.2" fill="#d4af37" opacity="0.8"/>
<rect x="422.0" y="193.5" width="2.0" height="5.0" rx="0.2" fill="#d4af37" opacity="0.8"/>
<rect x="396.0" y="193.5" width="8.0" height="5.0" rx="0.3" fill="#3a3020" stroke="#666" stroke-width="0.3"/>
<rect x="396.0" y="193.5" width="2.0" height="5.0" rx="0.2" fill="#d4af37" opacity="0.8"/>
<rect x="402.0" y="193.5" width="2.0" height="5.0" rx="0.2" fill="#d4af37" opacity="0.8"/>
<rect x="376.0" y="193.5" width="8.0" height="5.0" rx="0.3" fill="#3a3020" stroke="#666" stroke-width="0.3"/>
<rect x="376.0" y="193.5" width="2.0" height="5.0" rx="0.2" fill="#d4af37" opacity="0.8"/>
<rect x="382.0" y="193.5" width="2.0" height="5.0" rx="0.2" fill="#d4af37" opacity="0.8"/>
<rect x="356.0" y="193.5" width="8.0" height="5.0" rx="0.3" fill="#3a3020" stroke="#666" stroke-width="0.3"/>
<rect x="356.0" y="193.5" width="2.0" height="5.0" rx="0.2" fill="#d4af37" opacity="0.8"/>
<rect x="362.0" y="193.5" width="2.0" height="5.0" rx="0.2" fill="#d4af37" opacity="0.8"/>
<rect x="336.0" y="193.5" width="8.0" height="5.0" rx="0.3" fill="#3a3020" stroke="#666" stroke-width="0.3"/>
<rect x="336.0" y="193.5" width="2.0" height="5.0" rx="0.2" fill="#d4af37" opacity="0.8"/>
<rect x="342.0" y="193.5" width="2.0" height="5.0" rx="0.2" fill="#d4af37" opacity="0.8"/>
<rect x="316.0" y="193.5" width="8.0" height="5.0" rx="0.3" fill="#3a3020" stroke="#666" stroke-width="0.3"/>
<rect x="316.0" y="193.5" width="2.0" height="5.0" rx="0.2" fill="#d4af37" opacity="0.8"/>
<rect x="322.0" y="193.5" width="2.0" height="5.0" rx="0.2" fill="#d4af37" opacity="0.8"/>
<rect x="296.0" y="193.5" width="8.0" height="5.0" rx="0.3" fill="#3a3020" stroke="#666" stroke-width="0.3"/>
<rect x="296.0" y="193.5" width="2.0" height="5.0" rx="0.2" fill="#d4af37" opacity="0.8"/>
<rect x="302.0" y="193.5" width="2.0" height="5.0" rx="0.2" fill="#d4af37" opacity="0.8"/>
<rect x="276.0" y="193.5" width="8.0" height="5.0" rx="0.3" fill="#3a3020" stroke="#666" stroke-width="0.3"/>
<rect x="276.0" y="193.5" width="2.0" height="5.0" rx="0.2" fill="#d4af37" opacity="0.8"/>
<rect x="282.0" y="193.5" width="2.0" height="5.0" rx="0.2" fill="#d4af37" opacity="0.8"/>
<rect x="256.0" y="193.5" width="8.0" height="5.0" rx="0.3" fill="#3a3020" stroke="#666" stroke-width="0.3"/>
<rect x="256.0" y="193.5" width="2.0" height="5.0" rx="0.2" fill="#d4af37" opacity="0.8"/>
<rect x="262.0" y="193.5" width="2.0" height="5.0" rx="0.2" fill="#d4af37" opacity="0.8"/>
<rect x="236.0" y="193.5" width="8.0" height="5.0" rx="0.3" fill="#3a3020" stroke="#666" stroke-width="0.3"/>
<rect x="236.0" y="193.5" width="2.0" height="5.0" rx="0.2" fill="#d4af37" opacity="0.8"/>
<rect x="242.0" y="193.5" width="2.0" height="5.0" rx="0.2" fill="#d4af37" opacity="0.8"/>
<rect x="216.0" y="193.5" width="8.0" height="5.0" rx="0.3" fill="#3a3020" stroke="#666" stroke-width="0.3"/>
<rect x="216.0" y="193.5" width="2.0" height="5.0" rx="0.2" fill="#d4af37" opacity="0.8"/>
<rect x="222.0" y="193.5" width="2.0" height="5.0" rx="0.2" fill="#d4af37" opacity="0.8"/>
<rect x="188.0" y="159.5" width="8.0" height="5.0" rx="0.3" fill="#3a3020" stroke="#666" stroke-width="0.3"/>
<rect x="188.0" y="159.5" width="2.0" height="5.0" rx="0.2" fill="#d4af37" opacity="0.8"/>
<rect x="194.0" y="159.5" width="2.0" height="5.0" rx="0.2" fill="#d4af37" opacity="0.8"/>
<rect x="456.0" y="209.5" width="8.0" height="5.0" rx="0.3" fill="#8b6914" stroke="#666" stroke-width="0.3"/>
<rect x="456.0" y="209.5" width="2.0" height="5.0" rx="0.2" fill="#d4af37" opacity="0.8"/>
<rect x="462.0" y="209.5" width="2.0" height="5.0" rx="0.2" fill="#d4af37" opacity="0.8"/>
<rect x="436.0" y="209.5" width="8.0" height="5.0" rx="0.3" fill="#8b6914" stroke="#666" stroke-width="0.3"/>
<rect x="436.0" y="209.5" width="2.0" height="5.0" rx="0.2" fill="#d4af37" opacity="0.8"/>
<rect x="442.0" y="209.5" width="2.0" height="5.0" rx="0.2" fill="#d4af37" opacity="0.8"/>
<rect x="416.0" y="209.5" width="8.0" height="5.0" rx="0.3" fill="#8b6914" stroke="#666" stroke-width="0.3"/>
<rect x="416.0" y="209.5" width="2.0" height="5.0" rx="0.2" fill="#d4af37" opacity="0.8"/>
<rect x="422.0" y="209.5" width="2.0" height="5.0" rx="0.2" fill="#d4af37" opacity="0.8"/>
<rect x="396.0" y="209.5" width="8.0" height="5.0" rx="0.3" fill="#8b6914" stroke="#666" stroke-width="0.3"/>
<rect x="396.0" y="209.5" width="2.0" height="5.0" rx="0.2" fill="#d4af37" opacity="0.8"/>
<rect x="402.0" y="209.5" width="2.0" height="5.0" rx="0.2" fill="#d4af37" opacity="0.8"/>
<rect x="376.0" y="209.5" width="8.0" height="5.0" rx="0.3" fill="#8b6914" stroke="#666" stroke-width="0.3"/>
<rect x="376.0" y="209.5" width="2.0" height="5.0" rx="0.2" fill="#d4af37" opacity="0.8"/>
<rect x="382.0" y="209.5" width="2.0" height="5.0" rx="0.2" fill="#d4af37" opacity="0.8"/>
<rect x="356.0" y="209.5" width="8.0" height="5.0" rx="0.3" fill="#8b6914" stroke="#666" stroke-width="0.3"/>
<rect x="356.0" y="209.5" width="2.0" height="5.0" rx="0.2" fill="#d4af37" opacity="0.8"/>
<rect x="362.0" y="209.5" width="2.0" height="5.0" rx="0.2" fill="#d4af37" opacity="0.8"/>
<rect x="336.0" y="209.5" width="8.0" height="5.0" rx="0.3" fill="#8b6914" stroke="#666" stroke-width="0.3"/>
<rect x="336.0" y="209.5" width="2.0" height="5.0" rx="0.2" fill="#d4af37" opacity="0.8"/>
<rect x="342.0" y="209.5" width="2.0" height="5.0" rx="0.2" fill="#d4af37" opacity="0.8"/>
<rect x="316.0" y="209.5" width="8.0" height="5.0" rx="0.3" fill="#8b6914" stroke="#666" stroke-width="0.3"/>
<rect x="316.0" y="209.5" width="2.0" height="5.0" rx="0.2" fill="#d4af37" opacity="0.8"/>
<rect x="322.0" y="209.5" width="2.0" height="5.0" rx="0.2" fill="#d4af37" opacity="0.8"/>
<rect x="296.0" y="209.5" width="8.0" height="5.0" rx="0.3" fill="#8b6914" stroke="#666" stroke-width="0.3"/>
<rect x="296.0" y="209.5" width="2.0" height="5.0" rx="0.2" fill="#d4af37" opacity="0.8"/>
<rect x="302.0" y="209.5" width="2.0" height="5.0" rx="0.2" fill="#d4af37" opacity="0.8"/>
<rect x="276.0" y="209.5" width="8.0" height="5.0" rx="0.3" fill="#8b6914" stroke="#666" stroke-width="0.3"/>
<rect x="276.0" y="209.5" width="2.0" height="5.0" rx="0.2" fill="#d4af37" opacity="0.8"/>
<rect x="282.0" y="209.5" width="2.0" height="5.0" rx="0.2" fill="#d4af37" opacity="0.8"/>
<rect x="256.0" y="209.5" width="8.0" height="5.0" rx="0.3" fill="#8b6914" stroke="#666" stroke-width="0.3"/>
<rect x="256.0" y="209.5" width="2.0" height="5.0" rx="0.2" fill="#d4af37" opacity="0.8"/>
<rect x="262.0" y="209.5" width="2.0" height="5.0" rx="0.2" fill="#d4af37" opacity="0.8"/>
<rect x="236.0" y="209.5" width="8.0" height="5.0" rx="0.3" fill="#8b6914" stroke="#666" stroke-width="0.3"/>
<rect x="236.0" y="209.5" width="2.0" height="5.0" rx="0.2" fill="#d4af37" opacity="0.8"/>
<rect x="242.0" y="209.5" width="2.0" height="5.0" rx="0.2" fill="#d4af37" opacity="0.8"/>
<rect x="216.0" y="209.5" width="8.0" height="5.0" rx="0.3" fill="#8b6914" stroke="#666" stroke-width="0.3"/>
<rect x="216.0" y="209.5" width="2.0" height="5.0" rx="0.2" fill="#d4af37" opacity="0.8"/>
<rect x="222.0" y="209.5" width="2.0" height="5.0" rx="0.2" fill="#d4af37" opacity="0.8"/>
<rect x="180.0" y="175.5" width="8.0" height="5.0" rx="0.3" fill="#8b6914" stroke="#666" stroke-width="0.3"/>
<rect x="180.0" y="175.5" width="2.0" height="5.0" rx="0.2" fill="#d4af37" opacity="0.8"/>
<rect x="186.0" y="175.5" width="2.0" height="5.0" rx="0.2" fill="#d4af37" opacity="0.8"/>
<rect x="132.0" y="175.5" width="8.0" height="5.0" rx="0.3" fill="#8b6914" stroke="#666" stroke-width="0.3"/>
<rect x="132.0" y="175.5" width="2.0" height="5.0" rx="0.2" fill="#d4af37" opacity="0.8"/>
<rect x="138.0" y="175.5" width="2.0" height="5.0" rx="0.2" fill="#d4af37" opacity="0.8"/>
<rect x="156.0" y="203.5" width="8.0" height="5.0" rx="0.3" fill="#8b6914" stroke="#666" stroke-width="0.3"/>
<rect x="156.0" y="203.5" width="2.0" height="5.0" rx="0.2" fill="#d4af37" opacity="0.8"/>
<rect x="162.0" y="203.5" width="2.0" height="5.0" rx="0.2" fill="#d4af37" opacity="0.8"/>
<rect x="88.0" y="115.5" width="8.0" height="5.0" rx="0.3" fill="#8b6914" stroke="#666" stroke-width="0.3"/>
<rect x="88.0" y="115.5" width="2.0" height="5.0" rx="0.2" fill="#d4af37" opacity="0.8"/>
<rect x="94.0" y="115.5" width="2.0" height="5.0" rx="0.2" fill="#d4af37" opacity="0.8"/>
<rect x="88.0" y="155.5" width="8.0" height="5.0" rx="0.3" fill="#8b6914" stroke="#666" stroke-width="0.3"/>
<rect x="88.0" y="155.5" width="2.0" height="5.0" rx="0.2" fill="#d4af37" opacity="0.8"/>
<rect x="94.0" y="155.5" width="2.0" height="5.0" rx="0.2" fill="#d4af37" opacity="0.8"/>
<text x="340.0" y="66.0" text-anchor="middle" dominant-baseline="middle" font-family="monospace" font-size="3.2" fill="#e8e8e8" opacity="0.9">ESP32-S3</text>
<text x="160.0" y="118.0" text-anchor="middle" dominant-baseline="middle" font-family="monospace" font-size="2.5600000000000005" fill="#e8e8e8" opacity="0.9">IP5306</text>
<text x="92.0" y="118.0" text-anchor="middle" dominant-baseline="middle" font-family="monospace" font-size="2.5600000000000005" fill="#e8e8e8" opacity="0.9">AMS1117</text>
<text x="540.0" y="118.0" text-anchor="middle" dominant-baseline="middle" font-family="monospace" font-size="2.5600000000000005" fill="#e8e8e8" opacity="0.9">PAM8403</text>
<text x="340.0" y="288.0" text-anchor="middle" dominant-baseline="middle" font-family="monospace" font-size="2.5600000000000005" fill="#e8e8e8" opacity="0.9">USB-C</text>
<text x="180.0" y="268.0" text-anchor="middle" dominant-baseline="middle" font-family="monospace" font-size="2.5600000000000005" fill="#e8e8e8" opacity="0.9">SD</text>
<text x="628.0" y="130.0" text-anchor="middle" dominant-baseline="middle" font-family="monospace" font-size="2.2399999999999998" fill="#e8e8e8" opacity="0.9">PWR</text>
<text x="540.0" y="230.0" text-anchor="middle" dominant-baseline="middle" font-family="monospace" font-size="2.5600000000000005" fill="#e8e8e8" opacity="0.9">SPEAKER</text>
<text x="600.0" y="50.0" text-anchor="middle" dominant-baseline="middle" font-family="monospace" font-size="2.2399999999999998" fill="#e8e8e8" opacity="0.9">L</text>
<text x="80.0" y="50.0" text-anchor="middle" dominant-baseline="middle" font-family="monospace" font-size="2.2399999999999998" fill="#e8e8e8" opacity="0.9">R</text>
</svg>
