<?xml version="1.0" encoding="UTF-8"?>
<svg xmlns="http://www.w3.org/2000/svg"
     viewBox="0 0 680.0 340.0"
     width="680.0" height="340.0">
<title>ESP32 Emu Turbo — Top View</title>
<defs>
  <filter id="shadow" x="-5%" y="-5%" width="115%" height="115%">
    <feDropShadow dx="3" dy="3" stdDeviation="4" flood-color="rgba(0,0,0,0.3)" />
  </filter>
  <pattern id="grid" width="10.16" height="10.16"
           patternUnits="userSpaceOnUse"
           patternTransform="translate(20,20)">
    <rect width="10.16" height="10.16" fill="none"/>
    <path d="M 10.16 0 L 0 0 0 10.16"
          fill="none" stroke="#1f6b31" stroke-width="0.3" opacity="0.3"/>
  </pattern>
</defs>
<rect width="680.0" height="340.0" fill="#1a1a2e"/>

<clipPath id="board-clip"><path d="M 44.0,20.0 L 636.0,20.0 A 24.0,24.0 0 0 1 660.0,44.0 L 660.0,296.0 A 24.0,24.0 0 0 1 636.0,320.0 L 44.0,320.0 A 24.0,24.0 0 0 1 20.0,296.0 L 20.0,44.0 A 24.0,24.0 0 0 1 44.0,20.0 Z"/></clipPath>
<path d="M 44.0,20.0 L 636.0,20.0 A 24.0,24.0 0 0 1 660.0,44.0 L 660.0,296.0 A 24.0,24.0 0 0 1 636.0,320.0 L 44.0,320.0 A 24.0,24.0 0 0 1 20.0,296.0 L 20.0,44.0 A 24.0,24.0 0 0 1 44.0,20.0 Z" fill="none" filter="url(#shadow)"/>
<path d="M 44.0,20.0 L 636.0,20.0 A 24.0,24.0 0 0 1 660.0,44.0 L 660.0,296.0 A 24.0,24.0 0 0 1 636.0,320.0 L 44.0,320.0 A 24.0,24.0 0 0 1 20.0,296.0 L 20.0,44.0 A 24.0,24.0 0 0 1 44.0,20.0 Z" fill="#1a5c2a"/>
<path d="M 44.0,20.0 L 636.0,20.0 A 24.0,24.0 0 0 1 660.0,44.0 L 660.0,296.0 A 24.0,24.0 0 0 1 636.0,320.0 L 44.0,320.0 A 24.0,24.0 0 0 1 20.0,296.0 L 20.0,44.0 A 24.0,24.0 0 0 1 44.0,20.0 Z" fill="url(#grid)" clip-path="url(#board-clip)"/>
<path d="M 44.0,20.0 L 636.0,20.0 A 24.0,24.0 0 0 1 660.0,44.0 L 660.0,296.0 A 24.0,24.0 0 0 1 636.0,320.0 L 44.0,320.0 A 24.0,24.0 0 0 1 20.0,296.0 L 20.0,44.0 A 24.0,24.0 0 0 1 44.0,20.0 Z" fill="none" stroke="#d4af37" stroke-width="1.5"/>
<text x="340.0" y="336.0" text-anchor="middle" font-family="monospace" font-size="11" fill="#666">TOP VIEW (F.Cu)</text>
<rect x="522.0" y="114.0" width="12.0" height="96.0" rx="1" fill="#0a0a0a" stroke="#d4af37" stroke-width="1"/>
<circle cx="60.0" cy="48.0" r="10.0" fill="#c0a030" stroke="#d4af37" stroke-width="0.5"/>
<circle cx="60.0" cy="48.0" r="5.0" fill="#1a1a1a"/>
<circle cx="620.0" cy="48.0" r="10.0" fill="#c0a030" stroke="#d4af37" stroke-width="0.5"/>
<circle cx="620.0" cy="48.0" r="5.0" fill="#1a1a1a"/>
<circle cx="60.0" cy="292.0" r="10.0" fill="#c0a030" stroke="#d4af37" stroke-width="0.5"/>
<circle cx="60.0" cy="292.0" r="5.0" fill="#1a1a1a"/>
<circle cx="620.0" cy="292.0" r="10.0" fill="#c0a030" stroke="#d4af37" stroke-width="0.5"/>
<circle cx="620.0" cy="292.0" r="5.0" fill="#1a1a1a"/>
<circle cx="240.0" cy="170.0" r="10.0" fill="#c0a030" stroke="#d4af37" stroke-width="0.5"/>
<circle cx="240.0" cy="170.0" r="5.0" fill="#1a1a1a"/>
<circle cx="440.0" cy="170.0" r="10.0" fill="#c0a030" stroke="#d4af37" stroke-width="0.5"/>
<circle cx="440.0" cy="170.0" r="5.0" fill="#1a1a1a"/>
<rect x="163.2" y="28.400000000000006" width="353.6" height="267.2" rx="4" fill="#222222" stroke="#444" stroke-width="1"/>
<rect x="167.2" y="32.400000000000006" width="345.6" height="259.2" rx="1" fill="#111118"/>
<text x="340.0" y="157.0" text-anchor="middle" font-family="monospace" font-size="8" fill="#334" font-weight="bold">ILI9488 3.95"</text>
<text x="340.0" y="167.0" text-anchor="middle" font-family="monospace" font-size="6" fill="#334">320 x 480</text>
<rect x="514.8" y="147.0" width="8" height="30" rx="1" fill="#8b6914" stroke="#a0832a" stroke-width="0.5" opacity="0.7"/>
<line x1="92.0" y1="114.0" x2="108.0" y2="114.0" stroke="#c8a83e" stroke-width="0.8" stroke-linecap="round" opacity="0.7"/>
<line x1="92.0" y1="186.0" x2="108.0" y2="186.0" stroke="#c8a83e" stroke-width="0.8" stroke-linecap="round" opacity="0.7"/>
<line x1="56.0" y1="150.0" x2="72.0" y2="150.0" stroke="#c8a83e" stroke-width="0.8" stroke-linecap="round" opacity="0.7"/>
<line x1="128.0" y1="150.0" x2="144.0" y2="150.0" stroke="#c8a83e" stroke-width="0.8" stroke-linecap="round" opacity="0.7"/>
<line x1="588.0" y1="110.0" x2="572.0" y2="110.0" stroke="#c8a83e" stroke-width="0.8" stroke-linecap="round" opacity="0.7"/>
<line x1="628.0" y1="150.0" x2="612.0" y2="150.0" stroke="#c8a83e" stroke-width="0.8" stroke-linecap="round" opacity="0.7"/>
<line x1="588.0" y1="190.0" x2="572.0" y2="190.0" stroke="#c8a83e" stroke-width="0.8" stroke-linecap="round" opacity="0.7"/>
<line x1="548.0" y1="150.0" x2="538.4" y2="150.0" stroke="#c8a83e" stroke-width="0.8" stroke-linecap="round" opacity="0.7"/>
<line x1="52.0" y1="238.0" x2="68.0" y2="238.0" stroke="#c8a83e" stroke-width="0.8" stroke-linecap="round" opacity="0.7"/>
<line x1="132.0" y1="238.0" x2="148.0" y2="238.0" stroke="#c8a83e" stroke-width="0.8" stroke-linecap="round" opacity="0.7"/>
<line x1="588.0" y1="270.0" x2="588.0" y2="254.0" stroke="#c8a83e" stroke-width="0.8" stroke-linecap="round" opacity="0.7"/>
<line x1="80.0" y1="30.0" x2="96.0" y2="30.0" stroke="#c8a83e" stroke-width="0.8" stroke-linecap="round" opacity="0.7"/>
<line x1="600.0" y1="30.0" x2="584.0" y2="30.0" stroke="#c8a83e" stroke-width="0.8" stroke-linecap="round" opacity="0.7"/>
<line x1="116.0" y1="290.0" x2="116.0" y2="282.0" stroke="#ffaa44" stroke-width="0.96" stroke-linecap="round" opacity="0.7"/>
<line x1="124.0" y1="290.0" x2="124.0" y2="282.0" stroke="#666666" stroke-width="0.96" stroke-linecap="round" opacity="0.7"/>
<line x1="144.0" y1="290.0" x2="144.0" y2="282.0" stroke="#ffaa44" stroke-width="0.96" stroke-linecap="round" opacity="0.7"/>
<line x1="152.0" y1="290.0" x2="152.0" y2="282.0" stroke="#666666" stroke-width="0.96" stroke-linecap="round" opacity="0.7"/>
<circle cx="108.0" cy="114.0" r="1.2" fill="#d4af37" stroke="#1a1a1a" stroke-width="0.5"/>
<circle cx="108.0" cy="114.0" r="0.6" fill="#1a1a1a"/>
<circle cx="108.0" cy="186.0" r="1.2" fill="#d4af37" stroke="#1a1a1a" stroke-width="0.5"/>
<circle cx="108.0" cy="186.0" r="0.6" fill="#1a1a1a"/>
<circle cx="72.0" cy="150.0" r="1.2" fill="#d4af37" stroke="#1a1a1a" stroke-width="0.5"/>
<circle cx="72.0" cy="150.0" r="0.6" fill="#1a1a1a"/>
<circle cx="144.0" cy="150.0" r="1.2" fill="#d4af37" stroke="#1a1a1a" stroke-width="0.5"/>
<circle cx="144.0" cy="150.0" r="0.6" fill="#1a1a1a"/>
<circle cx="572.0" cy="110.0" r="1.2" fill="#d4af37" stroke="#1a1a1a" stroke-width="0.5"/>
<circle cx="572.0" cy="110.0" r="0.6" fill="#1a1a1a"/>
<circle cx="612.0" cy="150.0" r="1.2" fill="#d4af37" stroke="#1a1a1a" stroke-width="0.5"/>
<circle cx="612.0" cy="150.0" r="0.6" fill="#1a1a1a"/>
<circle cx="572.0" cy="190.0" r="1.2" fill="#d4af37" stroke="#1a1a1a" stroke-width="0.5"/>
<circle cx="572.0" cy="190.0" r="0.6" fill="#1a1a1a"/>
<circle cx="538.4" cy="150.0" r="1.2" fill="#d4af37" stroke="#1a1a1a" stroke-width="0.5"/>
<circle cx="538.4" cy="150.0" r="0.6" fill="#1a1a1a"/>
<circle cx="68.0" cy="238.0" r="1.2" fill="#d4af37" stroke="#1a1a1a" stroke-width="0.5"/>
<circle cx="68.0" cy="238.0" r="0.6" fill="#1a1a1a"/>
<circle cx="148.0" cy="238.0" r="1.2" fill="#d4af37" stroke="#1a1a1a" stroke-width="0.5"/>
<circle cx="148.0" cy="238.0" r="0.6" fill="#1a1a1a"/>
<circle cx="588.0" cy="254.0" r="1.2" fill="#d4af37" stroke="#1a1a1a" stroke-width="0.5"/>
<circle cx="588.0" cy="254.0" r="0.6" fill="#1a1a1a"/>
<circle cx="96.0" cy="30.0" r="1.2" fill="#d4af37" stroke="#1a1a1a" stroke-width="0.5"/>
<circle cx="96.0" cy="30.0" r="0.6" fill="#1a1a1a"/>
<circle cx="584.0" cy="30.0" r="1.2" fill="#d4af37" stroke="#1a1a1a" stroke-width="0.5"/>
<circle cx="584.0" cy="30.0" r="0.6" fill="#1a1a1a"/>
<circle cx="116.0" cy="282.0" r="1.2" fill="#d4af37" stroke="#1a1a1a" stroke-width="0.5"/>
<circle cx="116.0" cy="282.0" r="0.6" fill="#1a1a1a"/>
<circle cx="124.0" cy="282.0" r="1.2" fill="#d4af37" stroke="#1a1a1a" stroke-width="0.5"/>
<circle cx="124.0" cy="282.0" r="0.6" fill="#1a1a1a"/>
<circle cx="144.0" cy="282.0" r="1.2" fill="#d4af37" stroke="#1a1a1a" stroke-width="0.5"/>
<circle cx="144.0" cy="282.0" r="0.6" fill="#1a1a1a"/>
<circle cx="152.0" cy="282.0" r="1.2" fill="#d4af37" stroke="#1a1a1a" stroke-width="0.5"/>
<circle cx="152.0" cy="282.0" r="0.6" fill="#1a1a1a"/>
<rect x="81.8" y="103.8" width="20.4" height="20.4" rx="1" fill="#555555" stroke="#666" stroke-width="0.5"/>
<circle cx="92.0" cy="114.0" r="6.119999999999999" fill="#888888" stroke="#999" stroke-width="0.3"/>
<text x="92.0" y="115.5" text-anchor="middle" font-family="monospace" font-size="4" fill="#ffffff" font-weight="bold">Up</text>
<rect x="81.8" y="175.8" width="20.4" height="20.4" rx="1" fill="#555555" stroke="#666" stroke-width="0.5"/>
<circle cx="92.0" cy="186.0" r="6.119999999999999" fill="#888888" stroke="#999" stroke-width="0.3"/>
<text x="92.0" y="187.5" text-anchor="middle" font-family="monospace" font-size="4" fill="#ffffff" font-weight="bold">Dn</text>
<rect x="45.8" y="139.8" width="20.4" height="20.4" rx="1" fill="#555555" stroke="#666" stroke-width="0.5"/>
<circle cx="56.0" cy="150.0" r="6.119999999999999" fill="#888888" stroke="#999" stroke-width="0.3"/>
<text x="56.0" y="151.5" text-anchor="middle" font-family="monospace" font-size="4" fill="#ffffff" font-weight="bold">Lt</text>
<rect x="117.8" y="139.8" width="20.4" height="20.4" rx="1" fill="#555555" stroke="#666" stroke-width="0.5"/>
<circle cx="128.0" cy="150.0" r="6.119999999999999" fill="#888888" stroke="#999" stroke-width="0.3"/>
<text x="128.0" y="151.5" text-anchor="middle" font-family="monospace" font-size="4" fill="#ffffff" font-weight="bold">Rt</text>
<rect x="577.8" y="99.8" width="20.4" height="20.4" rx="1" fill="#555555" stroke="#666" stroke-width="0.5"/>
<circle cx="588.0" cy="110.0" r="6.119999999999999" fill="#888888" stroke="#999" stroke-width="0.3"/>
<text x="588.0" y="111.5" text-anchor="middle" font-family="monospace" font-size="4" fill="#ffffff" font-weight="bold">A</text>
<rect x="617.8" y="139.8" width="20.4" height="20.4" rx="1" fill="#555555" stroke="#666" stroke-width="0.5"/>
<circle cx="628.0" cy="150.0" r="6.119999999999999" fill="#888888" stroke="#999" stroke-width="0.3"/>
<text x="628.0" y="151.5" text-anchor="middle" font-family="monospace" font-size="4" fill="#ffffff" font-weight="bold">B</text>
<rect x="577.8" y="179.8" width="20.4" height="20.4" rx="1" fill="#555555" stroke="#666" stroke-width="0.5"/>
<circle cx="588.0" cy="190.0" r="6.119999999999999" fill="#888888" stroke="#999" stroke-width="0.3"/>
<text x="588.0" y="191.5" text-anchor="middle" font-family="monospace" font-size="4" fill="#ffffff" font-weight="bold">X</text>
<rect x="537.8" y="139.8" width="20.4" height="20.4" rx="1" fill="#555555" stroke="#666" stroke-width="0.5"/>
<circle cx="548.0" cy="150.0" r="6.119999999999999" fill="#888888" stroke="#999" stroke-width="0.3"/>
<text x="548.0" y="151.5" text-anchor="middle" font-family="monospace" font-size="4" fill="#ffffff" font-weight="bold">Y</text>
<rect x="41.8" y="227.8" width="20.4" height="20.4" rx="1" fill="#555555" stroke="#666" stroke-width="0.5"/>
<circle cx="52.0" cy="238.0" r="6.119999999999999" fill="#888888" stroke="#999" stroke-width="0.3"/>
<text x="52.0" y="239.5" text-anchor="middle" font-family="monospace" font-size="4" fill="#ffffff" font-weight="bold">St</text>
<rect x="121.8" y="227.8" width="20.4" height="20.4" rx="1" fill="#555555" stroke="#666" stroke-width="0.5"/>
<circle cx="132.0" cy="238.0" r="6.119999999999999" fill="#888888" stroke="#999" stroke-width="0.3"/>
<text x="132.0" y="239.5" text-anchor="middle" font-family="monospace" font-size="4" fill="#ffffff" font-weight="bold">Se</text>
<rect x="69.8" y="19.8" width="20.4" height="20.4" rx="1" fill="#555555" stroke="#666" stroke-width="0.5"/>
<circle cx="80.0" cy="30.0" r="6.119999999999999" fill="#888888" stroke="#999" stroke-width="0.3"/>
<text x="80.0" y="31.5" text-anchor="middle" font-family="monospace" font-size="4" fill="#ffffff" font-weight="bold">L</text>
<rect x="589.8" y="19.8" width="20.4" height="20.4" rx="1" fill="#555555" stroke="#666" stroke-width="0.5"/>
<circle cx="600.0" cy="30.0" r="6.119999999999999" fill="#888888" stroke="#999" stroke-width="0.3"/>
<text x="600.0" y="31.5" text-anchor="middle" font-family="monospace" font-size="4" fill="#ffffff" font-weight="bold">R</text>
<rect x="577.8" y="259.8" width="20.4" height="20.4" rx="1" fill="#555555" stroke="#666" stroke-width="0.5"/>
<circle cx="588.0" cy="270.0" r="6.119999999999999" fill="#888888" stroke="#999" stroke-width="0.3"/>
<text x="588.0" y="271.5" text-anchor="middle" font-family="monospace" font-size="4" fill="#ffffff" font-weight="bold">Menu</text>
<rect x="116.0" y="287.5" width="8.0" height="5.0" rx="0.5" fill="#ff3030" stroke="#fff" stroke-width="0.3" opacity="0.9"/>
<circle cx="120.0" cy="290.0" r="8.0" fill="#ff3030" opacity="0.15"/>
<rect x="144.0" y="287.5" width="8.0" height="5.0" rx="0.5" fill="#30ff30" stroke="#fff" stroke-width="0.3" opacity="0.9"/>
<circle cx="148.0" cy="290.0" r="8.0" fill="#30ff30" opacity="0.15"/>
<text x="92.0" y="90.0" text-anchor="middle" dominant-baseline="middle" font-family="monospace" font-size="3.2" fill="#e8e8e8" opacity="0.9">D-PAD</text>
<text x="588.0" y="86.0" text-anchor="middle" dominant-baseline="middle" font-family="monospace" font-size="3.2" fill="#e8e8e8" opacity="0.9">ABXY</text>
<text x="80.0" y="50.0" text-anchor="middle" dominant-baseline="middle" font-family="monospace" font-size="2.2399999999999998" fill="#e8e8e8" opacity="0.9">L</text>
<text x="600.0" y="50.0" text-anchor="middle" dominant-baseline="middle" font-family="monospace" font-size="2.2399999999999998" fill="#e8e8e8" opacity="0.9">R</text>
<text x="588.0" y="250.0" text-anchor="middle" dominant-baseline="middle" font-family="monospace" font-size="2.5600000000000005" fill="#e8e8e8" opacity="0.9">MENU</text>
<text x="120.0" y="302.0" text-anchor="middle" dominant-baseline="middle" font-family="monospace" font-size="1.92" fill="#e8e8e8" opacity="0.9">CHG</text>
<text x="148.0" y="302.0" text-anchor="middle" dominant-baseline="middle" font-family="monospace" font-size="1.92" fill="#e8e8e8" opacity="0.9">FULL</text>
<text x="180.0" y="308.0" text-anchor="middle" dominant-baseline="middle" font-family="monospace" font-size="3.2" fill="#e8e8e8" opacity="0.9">ESP32 Emu Turbo v1.0</text>
</svg>
