solid OpenSCAD_Model
  facet normal -0.7730104533627357 -0.6343932841636472 0
    outer loop
      vertex 59.08985635694109 13.055504184431392 25.3
      vertex 59.08985635694109 13.055504184431392 23
      vertex 59.525126265847085 12.525126265847083 23
    endloop
  endfacet
  facet normal -0.8819212643483547 -0.4713967368259983 0
    outer loop
      vertex 58.766421636210495 13.660607986722185 25.3
      vertex 58.766421636210495 13.660607986722185 23
      vertex 59.08985635694109 13.055504184431392 23
    endloop
  endfacet
  facet normal -0.9951847266721972 -0.09801714032955673 0
    outer loop
      vertex 58.5 15 25.3
      vertex 58.5 15 23
      vertex 58.56725151858869 14.31718387294355 23
    endloop
  endfacet
  facet normal -0.9569403357322083 -0.29028467725446444 0
    outer loop
      vertex 58.56725151858869 14.31718387294355 25.3
      vertex 58.56725151858869 14.31718387294355 23
      vertex 58.766421636210495 13.660607986722185 23
    endloop
  endfacet
  facet normal -0.8819212643483547 -0.4713967368259983 0
    outer loop
      vertex 59.08985635694109 13.055504184431392 25.3
      vertex 58.766421636210495 13.660607986722185 25.3
      vertex 59.08985635694109 13.055504184431392 23
    endloop
  endfacet
  facet normal -0.9951847266721972 -0.09801714032955673 0
    outer loop
      vertex 58.56725151858869 14.31718387294355 25.3
      vertex 58.5 15 25.3
      vertex 58.56725151858869 14.31718387294355 23
    endloop
  endfacet
  facet normal -0.9569403357322083 -0.29028467725446444 0
    outer loop
      vertex 58.766421636210495 13.660607986722185 25.3
      vertex 58.56725151858869 14.31718387294355 25.3
      vertex 58.766421636210495 13.660607986722185 23
    endloop
  endfacet
  facet normal 0 0 1
    outer loop
      vertex 59.08985635694109 13.055504184431392 25.3
      vertex 59.525126265847085 12.525126265847083 25.3
      vertex 59.08985635694109 16.944495815568608 25.3
    endloop
  endfacet
  facet normal 0 0 1
    outer loop
      vertex 58.766421636210495 13.660607986722185 25.3
      vertex 58.56725151858869 15.68281612705645 25.3
      vertex 58.56725151858869 14.31718387294355 25.3
    endloop
  endfacet
  facet normal 0 0 1
    outer loop
      vertex 59.08985635694109 13.055504184431392 25.3
      vertex 58.766421636210495 16.339392013277813 25.3
      vertex 58.766421636210495 13.660607986722185 25.3
    endloop
  endfacet
  facet normal -0.6343932841636467 -0.7730104533627359 0
    outer loop
      vertex 60.05550418443139 12.089856356941091 25.3
      vertex 59.525126265847085 12.525126265847083 23
      vertex 60.05550418443139 12.089856356941091 23
    endloop
  endfacet
  facet normal -0.47139673682599736 -0.8819212643483553 0
    outer loop
      vertex 60.660607986722184 11.766421636210497 25.3
      vertex 60.05550418443139 12.089856356941091 23
      vertex 60.660607986722184 11.766421636210497 23
    endloop
  endfacet
  facet normal -0.2902846772544606 -0.9569403357322094 0
    outer loop
      vertex 61.31718387294355 11.567251518588694 25.3
      vertex 60.660607986722184 11.766421636210497 23
      vertex 61.31718387294355 11.567251518588694 23
    endloop
  endfacet
  facet normal -0.09801714032956213 -0.9951847266721967 0
    outer loop
      vertex 62 11.5 25.3
      vertex 61.31718387294355 11.567251518588694 23
      vertex 62 11.5 23
    endloop
  endfacet
  facet normal -0.47139673682599736 -0.8819212643483553 0
    outer loop
      vertex 60.05550418443139 12.089856356941091 25.3
      vertex 60.05550418443139 12.089856356941091 23
      vertex 60.660607986722184 11.766421636210497 25.3
    endloop
  endfacet
  facet normal -0.2902846772544606 -0.9569403357322094 0
    outer loop
      vertex 60.660607986722184 11.766421636210497 25.3
      vertex 60.660607986722184 11.766421636210497 23
      vertex 61.31718387294355 11.567251518588694 25.3
    endloop
  endfacet
  facet normal -0.09801714032956213 -0.9951847266721967 0
    outer loop
      vertex 61.31718387294355 11.567251518588694 25.3
      vertex 61.31718387294355 11.567251518588694 23
      vertex 62 11.5 25.3
    endloop
  endfacet
  facet normal -0.7730104533627357 -0.6343932841636472 0
    outer loop
      vertex 59.08985635694109 13.055504184431392 25.3
      vertex 59.525126265847085 12.525126265847083 23
      vertex 59.525126265847085 12.525126265847083 25.3
    endloop
  endfacet
  facet normal -0.6343932841636467 -0.7730104533627359 0
    outer loop
      vertex 60.05550418443139 12.089856356941091 25.3
      vertex 59.525126265847085 12.525126265847083 25.3
      vertex 59.525126265847085 12.525126265847083 23
    endloop
  endfacet
  facet normal 0 0 1
    outer loop
      vertex 60.05550418443139 12.089856356941091 25.3
      vertex 59.525126265847085 17.474873734152915 25.3
      vertex 59.525126265847085 12.525126265847083 25.3
    endloop
  endfacet
  facet normal 0 0 1
    outer loop
      vertex 60.05550418443139 12.089856356941091 25.3
      vertex 60.660607986722184 11.766421636210497 25.3
      vertex 60.05550418443139 17.91014364305891 25.3
    endloop
  endfacet
  facet normal 0 0 1
    outer loop
      vertex 60.660607986722184 11.766421636210497 25.3
      vertex 61.31718387294355 11.567251518588694 25.3
      vertex 60.660607986722184 18.233578363789505 25.3
    endloop
  endfacet
  facet normal 0 0 1
    outer loop
      vertex 61.31718387294355 11.567251518588694 25.3
      vertex 62 11.5 25.3
      vertex 61.31718387294355 18.432748481411306 25.3
    endloop
  endfacet
  facet normal -0.9951847266721972 0.09801714032955673 0
    outer loop
      vertex 58.56725151858869 15.68281612705645 25.3
      vertex 58.56725151858869 15.68281612705645 23
      vertex 58.5 15 23
    endloop
  endfacet
  facet normal -0.956940335732208 0.2902846772544652 0
    outer loop
      vertex 58.766421636210495 16.339392013277813 25.3
      vertex 58.766421636210495 16.339392013277813 23
      vertex 58.56725151858869 15.68281612705645 23
    endloop
  endfacet
  facet normal -0.8819212643483553 0.4713967368259972 0
    outer loop
      vertex 59.08985635694109 16.944495815568608 25.3
      vertex 59.08985635694109 16.944495815568608 23
      vertex 58.766421636210495 16.339392013277813 23
    endloop
  endfacet
  facet normal -0.9951847266721972 0.09801714032955673 0
    outer loop
      vertex 58.5 15 25.3
      vertex 58.56725151858869 15.68281612705645 25.3
      vertex 58.5 15 23
    endloop
  endfacet
  facet normal -0.956940335732208 0.2902846772544652 0
    outer loop
      vertex 58.56725151858869 15.68281612705645 25.3
      vertex 58.766421636210495 16.339392013277813 25.3
      vertex 58.56725151858869 15.68281612705645 23
    endloop
  endfacet
  facet normal 0 0 1
    outer loop
      vertex 58.56725151858869 14.31718387294355 25.3
      vertex 58.56725151858869 15.68281612705645 25.3
      vertex 58.5 15 25.3
    endloop
  endfacet
  facet normal 0 0 1
    outer loop
      vertex 58.766421636210495 13.660607986722185 25.3
      vertex 58.766421636210495 16.339392013277813 25.3
      vertex 58.56725151858869 15.68281612705645 25.3
    endloop
  endfacet
  facet normal 0 0 1
    outer loop
      vertex 59.08985635694109 13.055504184431392 25.3
      vertex 59.08985635694109 16.944495815568608 25.3
      vertex 58.766421636210495 16.339392013277813 25.3
    endloop
  endfacet
  facet normal -0.8819212643483553 0.4713967368259972 0
    outer loop
      vertex 58.766421636210495 16.339392013277813 25.3
      vertex 59.08985635694109 16.944495815568608 25.3
      vertex 58.766421636210495 16.339392013277813 23
    endloop
  endfacet
  facet normal -0.7730104533627347 0.6343932841636484 0
    outer loop
      vertex 59.08985635694109 16.944495815568608 25.3
      vertex 59.525126265847085 17.474873734152915 25.3
      vertex 59.08985635694109 16.944495815568608 23
    endloop
  endfacet
  facet normal -0.7730104533627347 0.6343932841636484 0
    outer loop
      vertex 59.525126265847085 17.474873734152915 25.3
      vertex 59.525126265847085 17.474873734152915 23
      vertex 59.08985635694109 16.944495815568608 23
    endloop
  endfacet
  facet normal -0.6343932841636484 0.7730104533627347 0
    outer loop
      vertex 59.525126265847085 17.474873734152915 25.3
      vertex 60.05550418443139 17.91014364305891 23
      vertex 59.525126265847085 17.474873734152915 23
    endloop
  endfacet
  facet normal 0 0 1
    outer loop
      vertex 59.525126265847085 12.525126265847083 25.3
      vertex 59.525126265847085 17.474873734152915 25.3
      vertex 59.08985635694109 16.944495815568608 25.3
    endloop
  endfacet
  facet normal 0 0 1
    outer loop
      vertex 60.05550418443139 12.089856356941091 25.3
      vertex 60.05550418443139 17.91014364305891 25.3
      vertex 59.525126265847085 17.474873734152915 25.3
    endloop
  endfacet
  facet normal 0 0 1
    outer loop
      vertex 60.660607986722184 11.766421636210497 25.3
      vertex 60.660607986722184 18.233578363789505 25.3
      vertex 60.05550418443139 17.91014364305891 25.3
    endloop
  endfacet
  facet normal 0 0 1
    outer loop
      vertex 61.31718387294355 11.567251518588694 25.3
      vertex 61.31718387294355 18.432748481411306 25.3
      vertex 60.660607986722184 18.233578363789505 25.3
    endloop
  endfacet
  facet normal 0 0 1
    outer loop
      vertex 61.31718387294355 18.432748481411306 25.3
      vertex 62 11.5 25.3
      vertex 62 18.5 25.3
    endloop
  endfacet
  facet normal -0.47139673682599936 0.8819212643483542 0
    outer loop
      vertex 60.05550418443139 17.91014364305891 25.3
      vertex 60.660607986722184 18.233578363789505 23
      vertex 60.05550418443139 17.91014364305891 23
    endloop
  endfacet
  facet normal -0.2902846772544583 0.9569403357322102 0
    outer loop
      vertex 60.660607986722184 18.233578363789505 25.3
      vertex 61.31718387294355 18.432748481411306 23
      vertex 60.660607986722184 18.233578363789505 23
    endloop
  endfacet
  facet normal -0.09801714032956213 0.9951847266721967 0
    outer loop
      vertex 61.31718387294355 18.432748481411306 25.3
      vertex 62 18.5 23
      vertex 61.31718387294355 18.432748481411306 23
    endloop
  endfacet
  facet normal -0.6343932841636484 0.7730104533627347 0
    outer loop
      vertex 59.525126265847085 17.474873734152915 25.3
      vertex 60.05550418443139 17.91014364305891 25.3
      vertex 60.05550418443139 17.91014364305891 23
    endloop
  endfacet
  facet normal -0.47139673682599936 0.8819212643483542 0
    outer loop
      vertex 60.05550418443139 17.91014364305891 25.3
      vertex 60.660607986722184 18.233578363789505 25.3
      vertex 60.660607986722184 18.233578363789505 23
    endloop
  endfacet
  facet normal -0.2902846772544583 0.9569403357322102 0
    outer loop
      vertex 60.660607986722184 18.233578363789505 25.3
      vertex 61.31718387294355 18.432748481411306 25.3
      vertex 61.31718387294355 18.432748481411306 23
    endloop
  endfacet
  facet normal -0.09801714032956213 0.9951847266721967 0
    outer loop
      vertex 61.31718387294355 18.432748481411306 25.3
      vertex 62 18.5 25.3
      vertex 62 18.5 23
    endloop
  endfacet
  facet normal 0.09801714032956213 -0.9951847266721967 0
    outer loop
      vertex 62.68281612705645 11.567251518588694 25.3
      vertex 62 11.5 23
      vertex 62.68281612705645 11.567251518588694 23
    endloop
  endfacet
  facet normal 0.2902846772544606 -0.9569403357322094 0
    outer loop
      vertex 63.339392013277816 11.766421636210497 25.3
      vertex 62.68281612705645 11.567251518588694 23
      vertex 63.339392013277816 11.766421636210497 23
    endloop
  endfacet
  facet normal 0.47139673682599736 -0.8819212643483553 0
    outer loop
      vertex 63.94449581556861 12.089856356941091 25.3
      vertex 63.339392013277816 11.766421636210497 23
      vertex 63.94449581556861 12.089856356941091 23
    endloop
  endfacet
  facet normal 0.09801714032956213 -0.9951847266721967 0
    outer loop
      vertex 62 11.5 25.3
      vertex 62 11.5 23
      vertex 62.68281612705645 11.567251518588694 25.3
    endloop
  endfacet
  facet normal 0.2902846772544606 -0.9569403357322094 0
    outer loop
      vertex 62.68281612705645 11.567251518588694 25.3
      vertex 62.68281612705645 11.567251518588694 23
      vertex 63.339392013277816 11.766421636210497 25.3
    endloop
  endfacet
  facet normal 0.47139673682599736 -0.8819212643483553 0
    outer loop
      vertex 63.339392013277816 11.766421636210497 25.3
      vertex 63.339392013277816 11.766421636210497 23
      vertex 63.94449581556861 12.089856356941091 25.3
    endloop
  endfacet
  facet normal 0.6343932841636418 -0.7730104533627401 0
    outer loop
      vertex 63.94449581556861 12.089856356941091 25.3
      vertex 63.94449581556861 12.089856356941091 23
      vertex 64.47487373415292 12.525126265847083 25.3
    endloop
  endfacet
  facet normal 0.6343932841636418 -0.7730104533627401 0
    outer loop
      vertex 64.47487373415292 12.525126265847083 25.3
      vertex 63.94449581556861 12.089856356941091 23
      vertex 64.47487373415292 12.525126265847083 23
    endloop
  endfacet
  facet normal 0.7730104533627459 -0.6343932841636347 0
    outer loop
      vertex 64.47487373415292 12.525126265847083 25.3
      vertex 64.47487373415292 12.525126265847083 23
      vertex 64.9101436430589 13.055504184431392 23
    endloop
  endfacet
  facet normal 0 0 1
    outer loop
      vertex 62 11.5 25.3
      vertex 62.68281612705645 11.567251518588694 25.3
      vertex 62 18.5 25.3
    endloop
  endfacet
  facet normal 0 0 1
    outer loop
      vertex 62.68281612705645 11.567251518588694 25.3
      vertex 63.339392013277816 11.766421636210497 25.3
      vertex 62.68281612705645 18.432748481411306 25.3
    endloop
  endfacet
  facet normal 0 0 1
    outer loop
      vertex 63.339392013277816 11.766421636210497 25.3
      vertex 63.94449581556861 12.089856356941091 25.3
      vertex 63.339392013277816 18.233578363789505 25.3
    endloop
  endfacet
  facet normal 0 0 1
    outer loop
      vertex 63.94449581556861 12.089856356941091 25.3
      vertex 64.47487373415292 12.525126265847083 25.3
      vertex 63.94449581556861 17.91014364305891 25.3
    endloop
  endfacet
  facet normal 0 0 1
    outer loop
      vertex 64.47487373415292 12.525126265847083 25.3
      vertex 64.9101436430589 13.055504184431392 25.3
      vertex 64.47487373415292 17.474873734152915 25.3
    endloop
  endfacet
  facet normal 0.8819212643483503 -0.47139673682600636 0
    outer loop
      vertex 64.9101436430589 13.055504184431392 25.3
      vertex 64.9101436430589 13.055504184431392 23
      vertex 65.2335783637895 13.660607986722185 23
    endloop
  endfacet
  facet normal 0.9569403357322083 -0.29028467725446444 0
    outer loop
      vertex 65.2335783637895 13.660607986722185 25.3
      vertex 65.2335783637895 13.660607986722185 23
      vertex 65.43274848141131 14.31718387294355 23
    endloop
  endfacet
  facet normal 0.9951847266721972 -0.09801714032955673 0
    outer loop
      vertex 65.43274848141131 14.31718387294355 25.3
      vertex 65.43274848141131 14.31718387294355 23
      vertex 65.5 15 23
    endloop
  endfacet
  facet normal 0.7730104533627459 -0.6343932841636347 0
    outer loop
      vertex 64.47487373415292 12.525126265847083 25.3
      vertex 64.9101436430589 13.055504184431392 23
      vertex 64.9101436430589 13.055504184431392 25.3
    endloop
  endfacet
  facet normal 0.8819212643483503 -0.47139673682600636 0
    outer loop
      vertex 64.9101436430589 13.055504184431392 25.3
      vertex 65.2335783637895 13.660607986722185 23
      vertex 65.2335783637895 13.660607986722185 25.3
    endloop
  endfacet
  facet normal 0.9569403357322083 -0.29028467725446444 0
    outer loop
      vertex 65.2335783637895 13.660607986722185 25.3
      vertex 65.43274848141131 14.31718387294355 23
      vertex 65.43274848141131 14.31718387294355 25.3
    endloop
  endfacet
  facet normal 0.9951847266721972 -0.09801714032955673 0
    outer loop
      vertex 65.43274848141131 14.31718387294355 25.3
      vertex 65.5 15 23
      vertex 65.5 15 25.3
    endloop
  endfacet
  facet normal 0 0 1
    outer loop
      vertex 64.9101436430589 13.055504184431392 25.3
      vertex 65.2335783637895 13.660607986722185 25.3
      vertex 64.9101436430589 16.944495815568608 25.3
    endloop
  endfacet
  facet normal 0 0 1
    outer loop
      vertex 65.2335783637895 13.660607986722185 25.3
      vertex 65.43274848141131 14.31718387294355 25.3
      vertex 65.2335783637895 16.339392013277813 25.3
    endloop
  endfacet
  facet normal 0 0 1
    outer loop
      vertex 62.68281612705645 11.567251518588694 25.3
      vertex 62.68281612705645 18.432748481411306 25.3
      vertex 62 18.5 25.3
    endloop
  endfacet
  facet normal 0 0 1
    outer loop
      vertex 63.339392013277816 11.766421636210497 25.3
      vertex 63.339392013277816 18.233578363789505 25.3
      vertex 62.68281612705645 18.432748481411306 25.3
    endloop
  endfacet
  facet normal 0 0 1
    outer loop
      vertex 63.94449581556861 12.089856356941091 25.3
      vertex 63.94449581556861 17.91014364305891 25.3
      vertex 63.339392013277816 18.233578363789505 25.3
    endloop
  endfacet
  facet normal 0 0 1
    outer loop
      vertex 64.47487373415292 12.525126265847083 25.3
      vertex 64.47487373415292 17.474873734152915 25.3
      vertex 63.94449581556861 17.91014364305891 25.3
    endloop
  endfacet
  facet normal 0.6343932841636433 0.7730104533627388 0
    outer loop
      vertex 64.47487373415292 17.474873734152915 25.3
      vertex 64.47487373415292 17.474873734152915 23
      vertex 63.94449581556861 17.91014364305891 25.3
    endloop
  endfacet
  facet normal 0.7730104533627449 0.6343932841636359 0
    outer loop
      vertex 64.47487373415292 17.474873734152915 25.3
      vertex 64.9101436430589 16.944495815568608 25.3
      vertex 64.47487373415292 17.474873734152915 23
    endloop
  endfacet
  facet normal 0.09801714032956213 0.9951847266721967 0
    outer loop
      vertex 62 18.5 25.3
      vertex 62.68281612705645 18.432748481411306 23
      vertex 62 18.5 23
    endloop
  endfacet
  facet normal 0.2902846772544583 0.9569403357322102 0
    outer loop
      vertex 62.68281612705645 18.432748481411306 25.3
      vertex 63.339392013277816 18.233578363789505 23
      vertex 62.68281612705645 18.432748481411306 23
    endloop
  endfacet
  facet normal 0.47139673682599936 0.8819212643483542 0
    outer loop
      vertex 63.339392013277816 18.233578363789505 25.3
      vertex 63.94449581556861 17.91014364305891 23
      vertex 63.339392013277816 18.233578363789505 23
    endloop
  endfacet
  facet normal 0.6343932841636433 0.7730104533627388 0
    outer loop
      vertex 63.94449581556861 17.91014364305891 25.3
      vertex 64.47487373415292 17.474873734152915 23
      vertex 63.94449581556861 17.91014364305891 23
    endloop
  endfacet
  facet normal 0.09801714032956213 0.9951847266721967 0
    outer loop
      vertex 62 18.5 25.3
      vertex 62.68281612705645 18.432748481411306 25.3
      vertex 62.68281612705645 18.432748481411306 23
    endloop
  endfacet
  facet normal 0.2902846772544583 0.9569403357322102 0
    outer loop
      vertex 62.68281612705645 18.432748481411306 25.3
      vertex 63.339392013277816 18.233578363789505 25.3
      vertex 63.339392013277816 18.233578363789505 23
    endloop
  endfacet
  facet normal 0.47139673682599936 0.8819212643483542 0
    outer loop
      vertex 63.339392013277816 18.233578363789505 25.3
      vertex 63.94449581556861 17.91014364305891 25.3
      vertex 63.94449581556861 17.91014364305891 23
    endloop
  endfacet
  facet normal 0.956940335732208 0.2902846772544652 0
    outer loop
      vertex 65.43274848141131 15.68281612705645 25.3
      vertex 65.43274848141131 15.68281612705645 23
      vertex 65.2335783637895 16.339392013277813 23
    endloop
  endfacet
  facet normal 0.9951847266721972 0.09801714032955673 0
    outer loop
      vertex 65.5 15 25.3
      vertex 65.5 15 23
      vertex 65.43274848141131 15.68281612705645 23
    endloop
  endfacet
  facet normal 0.881921264348351 0.47139673682600525 0
    outer loop
      vertex 65.2335783637895 16.339392013277813 25.3
      vertex 65.2335783637895 16.339392013277813 23
      vertex 64.9101436430589 16.944495815568608 23
    endloop
  endfacet
  facet normal 0.7730104533627449 0.6343932841636359 0
    outer loop
      vertex 64.9101436430589 16.944495815568608 25.3
      vertex 64.9101436430589 16.944495815568608 23
      vertex 64.47487373415292 17.474873734152915 23
    endloop
  endfacet
  facet normal 0.956940335732208 0.2902846772544652 0
    outer loop
      vertex 65.43274848141131 15.68281612705645 25.3
      vertex 65.2335783637895 16.339392013277813 23
      vertex 65.2335783637895 16.339392013277813 25.3
    endloop
  endfacet
  facet normal 0.9951847266721972 0.09801714032955673 0
    outer loop
      vertex 65.5 15 25.3
      vertex 65.43274848141131 15.68281612705645 23
      vertex 65.43274848141131 15.68281612705645 25.3
    endloop
  endfacet
  facet normal 0 0 1
    outer loop
      vertex 65.2335783637895 13.660607986722185 25.3
      vertex 65.2335783637895 16.339392013277813 25.3
      vertex 64.9101436430589 16.944495815568608 25.3
    endloop
  endfacet
  facet normal 0 0 1
    outer loop
      vertex 65.43274848141131 14.31718387294355 25.3
      vertex 65.43274848141131 15.68281612705645 25.3
      vertex 65.2335783637895 16.339392013277813 25.3
    endloop
  endfacet
  facet normal 0 0 1
    outer loop
      vertex 64.9101436430589 13.055504184431392 25.3
      vertex 64.9101436430589 16.944495815568608 25.3
      vertex 64.47487373415292 17.474873734152915 25.3
    endloop
  endfacet
  facet normal 0 0 1
    outer loop
      vertex 65.43274848141131 14.31718387294355 25.3
      vertex 65.5 15 25.3
      vertex 65.43274848141131 15.68281612705645 25.3
    endloop
  endfacet
  facet normal 0.881921264348351 0.47139673682600525 0
    outer loop
      vertex 65.2335783637895 16.339392013277813 25.3
      vertex 64.9101436430589 16.944495815568608 23
      vertex 64.9101436430589 16.944495815568608 25.3
    endloop
  endfacet
  facet normal -0.7730104533627381 -0.6343932841636443 0
    outer loop
      vertex 57.426917132336 11.944363718392188 22.2
      vertex 58.110912703473986 11.11091270347399 22.2
      vertex 57.426917132336 11.944363718392188 23
    endloop
  endfacet
  facet normal -0.6343932841636437 -0.7730104533627384 0
    outer loop
      vertex 58.94436371839219 10.426917132336001 22.2
      vertex 58.94436371839219 10.426917132336001 23
      vertex 58.110912703473986 11.11091270347399 22.2
    endloop
  endfacet
  facet normal -0.7730104533627381 -0.6343932841636443 0
    outer loop
      vertex 58.110912703473986 11.11091270347399 22.2
      vertex 58.110912703473986 11.11091270347399 23
      vertex 57.426917132336 11.944363718392188 23
    endloop
  endfacet
  facet normal -0.6343932841636437 -0.7730104533627384 0
    outer loop
      vertex 58.110912703473986 11.11091270347399 22.2
      vertex 58.94436371839219 10.426917132336001 23
      vertex 58.110912703473986 11.11091270347399 23
    endloop
  endfacet
  facet normal -0.881921264348355 -0.4713967368259975 0
    outer loop
      vertex 57.426917132336 11.944363718392188 22.2
      vertex 56.91866257118792 12.895241121992006 23
      vertex 56.91866257118792 12.895241121992006 22.2
    endloop
  endfacet
  facet normal -0.956940335732209 -0.2902846772544617 0
    outer loop
      vertex 56.91866257118792 12.895241121992006 22.2
      vertex 56.91866257118792 12.895241121992006 23
      vertex 56.60568095778223 13.927003228911294 23
    endloop
  endfacet
  facet normal -0.956940335732209 -0.2902846772544617 0
    outer loop
      vertex 56.91866257118792 12.895241121992006 22.2
      vertex 56.60568095778223 13.927003228911294 23
      vertex 56.60568095778223 13.927003228911294 22.2
    endloop
  endfacet
  facet normal -0.881921264348355 -0.4713967368259975 0
    outer loop
      vertex 57.426917132336 11.944363718392188 22.2
      vertex 57.426917132336 11.944363718392188 23
      vertex 56.91866257118792 12.895241121992006 23
    endloop
  endfacet
  facet normal -0.9951847266721968 -0.0980171403295615 0
    outer loop
      vertex 56.60568095778223 13.927003228911294 22.2
      vertex 56.60568095778223 13.927003228911294 23
      vertex 56.5 15 23
    endloop
  endfacet
  facet normal 0 0 -1
    outer loop
      vertex 56.91866257118792 12.895241121992006 22.2
      vertex 56.60568095778223 13.927003228911294 22.2
      vertex 56.91866257118792 17.104758878007992 22.2
    endloop
  endfacet
  facet normal -0.9951847266721968 -0.0980171403295615 0
    outer loop
      vertex 56.60568095778223 13.927003228911294 22.2
      vertex 56.5 15 23
      vertex 56.5 15 22.2
    endloop
  endfacet
  facet normal 0 0 -1
    outer loop
      vertex 57.426917132336 11.944363718392188 22.2
      vertex 56.91866257118792 12.895241121992006 22.2
      vertex 57.426917132336 18.05563628160781 22.2
    endloop
  endfacet
  facet normal 0 0 -1
    outer loop
      vertex 57.426917132336 11.944363718392188 22.2
      vertex 58.110912703473986 18.88908729652601 22.2
      vertex 58.110912703473986 11.11091270347399 22.2
    endloop
  endfacet
  facet normal 0 0 -1
    outer loop
      vertex 58.94436371839219 10.426917132336001 22.2
      vertex 58.110912703473986 11.11091270347399 22.2
      vertex 58.94436371839219 19.573082867664 22.2
    endloop
  endfacet
  facet normal -0.4713967368259975 -0.881921264348355 0
    outer loop
      vertex 58.94436371839219 10.426917132336001 22.2
      vertex 59.89524112199201 9.918662571187923 22.2
      vertex 59.89524112199201 9.918662571187923 23
    endloop
  endfacet
  facet normal -0.4713967368259975 -0.881921264348355 0
    outer loop
      vertex 58.94436371839219 10.426917132336001 22.2
      vertex 59.89524112199201 9.918662571187923 23
      vertex 58.94436371839219 10.426917132336001 23
    endloop
  endfacet
  facet normal -0.2902846772544617 -0.956940335732209 0
    outer loop
      vertex 59.89524112199201 9.918662571187923 22.2
      vertex 60.927003228911296 9.605680957782234 23
      vertex 59.89524112199201 9.918662571187923 23
    endloop
  endfacet
  facet normal -0.2902846772544617 -0.956940335732209 0
    outer loop
      vertex 59.89524112199201 9.918662571187923 22.2
      vertex 60.927003228911296 9.605680957782234 22.2
      vertex 60.927003228911296 9.605680957782234 23
    endloop
  endfacet
  facet normal -0.09801714032956166 -0.9951847266721968 0
    outer loop
      vertex 60.927003228911296 9.605680957782234 22.2
      vertex 62 9.5 23
      vertex 60.927003228911296 9.605680957782234 23
    endloop
  endfacet
  facet normal -0.09801714032956166 -0.9951847266721968 0
    outer loop
      vertex 60.927003228911296 9.605680957782234 22.2
      vertex 62 9.5 22.2
      vertex 62 9.5 23
    endloop
  endfacet
  facet normal 0 0 -1
    outer loop
      vertex 60.927003228911296 9.605680957782234 22.2
      vertex 62 14 22.2
      vertex 62 9.5 22.2
    endloop
  endfacet
  facet normal 0 0 -1
    outer loop
      vertex 58.94436371839219 10.426917132336001 22.2
      vertex 59.89524112199201 20.081337428812077 22.2
      vertex 59.89524112199201 9.918662571187923 22.2
    endloop
  endfacet
  facet normal 0 0 -1
    outer loop
      vertex 59.89524112199201 9.918662571187923 22.2
      vertex 60.927003228911296 20.394319042217766 22.2
      vertex 60.927003228911296 9.605680957782234 22.2
    endloop
  endfacet
  facet normal 0 0 -1
    outer loop
      vertex 60.927003228911296 9.605680957782234 22.2
      vertex 61.076120467488714 14.61731656763491 22.2
      vertex 61.292893218813454 14.292893218813452 22.2
    endloop
  endfacet
  facet normal 0 0 -1
    outer loop
      vertex 60.927003228911296 9.605680957782234 22.2
      vertex 61.292893218813454 14.292893218813452 22.2
      vertex 61.61731656763491 14.076120467488714 22.2
    endloop
  endfacet
  facet normal 0 0 -1
    outer loop
      vertex 60.927003228911296 9.605680957782234 22.2
      vertex 61 15 22.2
      vertex 61.076120467488714 14.61731656763491 22.2
    endloop
  endfacet
  facet normal 0 0 -1
    outer loop
      vertex 60.927003228911296 9.605680957782234 22.2
      vertex 61.61731656763491 14.076120467488714 22.2
      vertex 62 14 22.2
    endloop
  endfacet
  facet normal 0 0 1
    outer loop
      vertex 58.94436371839219 10.426917132336001 23
      vertex 59.525126265847085 12.525126265847083 23
      vertex 59.08985635694109 13.055504184431392 23
    endloop
  endfacet
  facet normal 0 0 1
    outer loop
      vertex 56.91866257118792 12.895241121992006 23
      vertex 56.60568095778223 16.072996771088704 23
      vertex 56.60568095778223 13.927003228911294 23
    endloop
  endfacet
  facet normal 0 0 1
    outer loop
      vertex 57.426917132336 11.944363718392188 23
      vertex 56.91866257118792 17.104758878007992 23
      vertex 56.91866257118792 12.895241121992006 23
    endloop
  endfacet
  facet normal 0 0 1
    outer loop
      vertex 57.426917132336 11.944363718392188 23
      vertex 58.110912703473986 11.11091270347399 23
      vertex 57.426917132336 18.05563628160781 23
    endloop
  endfacet
  facet normal 0 0 1
    outer loop
      vertex 58.94436371839219 10.426917132336001 23
      vertex 58.110912703473986 18.88908729652601 23
      vertex 58.110912703473986 11.11091270347399 23
    endloop
  endfacet
  facet normal 0 0 1
    outer loop
      vertex 58.94436371839219 10.426917132336001 23
      vertex 58.766421636210495 13.660607986722185 23
      vertex 58.56725151858869 14.31718387294355 23
    endloop
  endfacet
  facet normal 0 0 1
    outer loop
      vertex 58.94436371839219 10.426917132336001 23
      vertex 59.08985635694109 13.055504184431392 23
      vertex 58.766421636210495 13.660607986722185 23
    endloop
  endfacet
  facet normal 0 0 1
    outer loop
      vertex 58.94436371839219 10.426917132336001 23
      vertex 58.56725151858869 14.31718387294355 23
      vertex 58.110912703473986 18.88908729652601 23
    endloop
  endfacet
  facet normal 0 0 1
    outer loop
      vertex 58.94436371839219 10.426917132336001 23
      vertex 59.89524112199201 9.918662571187923 23
      vertex 60.05550418443139 12.089856356941091 23
    endloop
  endfacet
  facet normal 0 0 1
    outer loop
      vertex 58.94436371839219 10.426917132336001 23
      vertex 60.05550418443139 12.089856356941091 23
      vertex 59.525126265847085 12.525126265847083 23
    endloop
  endfacet
  facet normal 0 0 1
    outer loop
      vertex 59.89524112199201 9.918662571187923 23
      vertex 60.660607986722184 11.766421636210497 23
      vertex 60.05550418443139 12.089856356941091 23
    endloop
  endfacet
  facet normal 0 0 1
    outer loop
      vertex 59.89524112199201 9.918662571187923 23
      vertex 61.31718387294355 11.567251518588694 23
      vertex 60.660607986722184 11.766421636210497 23
    endloop
  endfacet
  facet normal 0 0 1
    outer loop
      vertex 59.89524112199201 9.918662571187923 23
      vertex 60.927003228911296 9.605680957782234 23
      vertex 61.31718387294355 11.567251518588694 23
    endloop
  endfacet
  facet normal 0 0 1
    outer loop
      vertex 60.927003228911296 9.605680957782234 23
      vertex 62 9.5 23
      vertex 62 11.5 23
    endloop
  endfacet
  facet normal 0 0 1
    outer loop
      vertex 60.927003228911296 9.605680957782234 23
      vertex 62 11.5 23
      vertex 61.31718387294355 11.567251518588694 23
    endloop
  endfacet
  facet normal 0 0 -1
    outer loop
      vertex 56.60568095778223 13.927003228911294 22.2
      vertex 56.5 15 22.2
      vertex 56.60568095778223 16.072996771088704 22.2
    endloop
  endfacet
  facet normal -0.9951847266721968 0.09801714032956166 0
    outer loop
      vertex 56.5 15 22.2
      vertex 56.5 15 23
      vertex 56.60568095778223 16.072996771088704 23
    endloop
  endfacet
  facet normal 0 0 -1
    outer loop
      vertex 56.60568095778223 13.927003228911294 22.2
      vertex 56.60568095778223 16.072996771088704 22.2
      vertex 56.91866257118792 17.104758878007992 22.2
    endloop
  endfacet
  facet normal 0 0 -1
    outer loop
      vertex 56.91866257118792 12.895241121992006 22.2
      vertex 56.91866257118792 17.104758878007992 22.2
      vertex 57.426917132336 18.05563628160781 22.2
    endloop
  endfacet
  facet normal -0.9951847266721968 0.09801714032956166 0
    outer loop
      vertex 56.5 15 22.2
      vertex 56.60568095778223 16.072996771088704 23
      vertex 56.60568095778223 16.072996771088704 22.2
    endloop
  endfacet
  facet normal 0 0 -1
    outer loop
      vertex 57.426917132336 11.944363718392188 22.2
      vertex 57.426917132336 18.05563628160781 22.2
      vertex 58.110912703473986 18.88908729652601 22.2
    endloop
  endfacet
  facet normal -0.956940335732209 0.2902846772544617 0
    outer loop
      vertex 56.60568095778223 16.072996771088704 22.2
      vertex 56.60568095778223 16.072996771088704 23
      vertex 56.91866257118792 17.104758878007992 23
    endloop
  endfacet
  facet normal -0.956940335732209 0.2902846772544617 0
    outer loop
      vertex 56.60568095778223 16.072996771088704 22.2
      vertex 56.91866257118792 17.104758878007992 23
      vertex 56.91866257118792 17.104758878007992 22.2
    endloop
  endfacet
  facet normal -0.881921264348355 0.4713967368259975 0
    outer loop
      vertex 56.91866257118792 17.104758878007992 22.2
      vertex 56.91866257118792 17.104758878007992 23
      vertex 57.426917132336 18.05563628160781 23
    endloop
  endfacet
  facet normal -0.881921264348355 0.4713967368259975 0
    outer loop
      vertex 56.91866257118792 17.104758878007992 22.2
      vertex 57.426917132336 18.05563628160781 23
      vertex 57.426917132336 18.05563628160781 22.2
    endloop
  endfacet
  facet normal 0 0 -1
    outer loop
      vertex 58.110912703473986 11.11091270347399 22.2
      vertex 58.110912703473986 18.88908729652601 22.2
      vertex 58.94436371839219 19.573082867664 22.2
    endloop
  endfacet
  facet normal -0.7730104533627388 0.6343932841636434 0
    outer loop
      vertex 57.426917132336 18.05563628160781 22.2
      vertex 57.426917132336 18.05563628160781 23
      vertex 58.110912703473986 18.88908729652601 23
    endloop
  endfacet
  facet normal -0.7730104533627388 0.6343932841636434 0
    outer loop
      vertex 57.426917132336 18.05563628160781 22.2
      vertex 58.110912703473986 18.88908729652601 23
      vertex 58.110912703473986 18.88908729652601 22.2
    endloop
  endfacet
  facet normal -0.6343932841636437 0.7730104533627384 0
    outer loop
      vertex 58.110912703473986 18.88908729652601 22.2
      vertex 58.110912703473986 18.88908729652601 23
      vertex 58.94436371839219 19.573082867664 22.2
    endloop
  endfacet
  facet normal -0.6343932841636437 0.7730104533627384 0
    outer loop
      vertex 58.94436371839219 19.573082867664 22.2
      vertex 58.110912703473986 18.88908729652601 23
      vertex 58.94436371839219 19.573082867664 23
    endloop
  endfacet
  facet normal 0 0 -1
    outer loop
      vertex 58.94436371839219 10.426917132336001 22.2
      vertex 58.94436371839219 19.573082867664 22.2
      vertex 59.89524112199201 20.081337428812077 22.2
    endloop
  endfacet
  facet normal 0 0 -1
    outer loop
      vertex 59.89524112199201 9.918662571187923 22.2
      vertex 59.89524112199201 20.081337428812077 22.2
      vertex 60.927003228911296 20.394319042217766 22.2
    endloop
  endfacet
  facet normal 0 0 -1
    outer loop
      vertex 60.927003228911296 9.605680957782234 22.2
      vertex 60.927003228911296 20.394319042217766 22.2
      vertex 61 15 22.2
    endloop
  endfacet
  facet normal 0 0 -1
    outer loop
      vertex 60.927003228911296 20.394319042217766 22.2
      vertex 61.076120467488714 15.38268343236509 22.2
      vertex 61 15 22.2
    endloop
  endfacet
  facet normal 0 0 -1
    outer loop
      vertex 60.927003228911296 20.394319042217766 22.2
      vertex 61.292893218813454 15.707106781186548 22.2
      vertex 61.076120467488714 15.38268343236509 22.2
    endloop
  endfacet
  facet normal 0 0 -1
    outer loop
      vertex 60.927003228911296 20.394319042217766 22.2
      vertex 61.61731656763491 15.923879532511286 22.2
      vertex 61.292893218813454 15.707106781186548 22.2
    endloop
  endfacet
  facet normal 0 0 -1
    outer loop
      vertex 62 20.5 22.2
      vertex 62 16 22.2
      vertex 61.61731656763491 15.923879532511286 22.2
    endloop
  endfacet
  facet normal -0.4713967368259975 0.881921264348355 0
    outer loop
      vertex 58.94436371839219 19.573082867664 22.2
      vertex 58.94436371839219 19.573082867664 23
      vertex 59.89524112199201 20.081337428812077 22.2
    endloop
  endfacet
  facet normal -0.4713967368259975 0.881921264348355 0
    outer loop
      vertex 59.89524112199201 20.081337428812077 22.2
      vertex 58.94436371839219 19.573082867664 23
      vertex 59.89524112199201 20.081337428812077 23
    endloop
  endfacet
  facet normal -0.2902846772544617 0.956940335732209 0
    outer loop
      vertex 59.89524112199201 20.081337428812077 22.2
      vertex 59.89524112199201 20.081337428812077 23
      vertex 60.927003228911296 20.394319042217766 22.2
    endloop
  endfacet
  facet normal -0.2902846772544617 0.956940335732209 0
    outer loop
      vertex 60.927003228911296 20.394319042217766 22.2
      vertex 59.89524112199201 20.081337428812077 23
      vertex 60.927003228911296 20.394319042217766 23
    endloop
  endfacet
  facet normal 0 0 -1
    outer loop
      vertex 60.927003228911296 20.394319042217766 22.2
      vertex 62 20.5 22.2
      vertex 61.61731656763491 15.923879532511286 22.2
    endloop
  endfacet
  facet normal -0.09801714032956166 0.9951847266721968 0
    outer loop
      vertex 60.927003228911296 20.394319042217766 22.2
      vertex 60.927003228911296 20.394319042217766 23
      vertex 62 20.5 22.2
    endloop
  endfacet
  facet normal -0.09801714032956166 0.9951847266721968 0
    outer loop
      vertex 60.927003228911296 20.394319042217766 23
      vertex 62 20.5 23
      vertex 62 20.5 22.2
    endloop
  endfacet
  facet normal 0 0 1
    outer loop
      vertex 56.60568095778223 13.927003228911294 23
      vertex 56.60568095778223 16.072996771088704 23
      vertex 56.5 15 23
    endloop
  endfacet
  facet normal 0 0 1
    outer loop
      vertex 56.91866257118792 12.895241121992006 23
      vertex 56.91866257118792 17.104758878007992 23
      vertex 56.60568095778223 16.072996771088704 23
    endloop
  endfacet
  facet normal 0 0 1
    outer loop
      vertex 57.426917132336 11.944363718392188 23
      vertex 57.426917132336 18.05563628160781 23
      vertex 56.91866257118792 17.104758878007992 23
    endloop
  endfacet
  facet normal 0 0 1
    outer loop
      vertex 58.110912703473986 11.11091270347399 23
      vertex 58.110912703473986 18.88908729652601 23
      vertex 57.426917132336 18.05563628160781 23
    endloop
  endfacet
  facet normal 0 0 1
    outer loop
      vertex 58.110912703473986 18.88908729652601 23
      vertex 58.56725151858869 14.31718387294355 23
      vertex 58.5 15 23
    endloop
  endfacet
  facet normal 0 0 1
    outer loop
      vertex 58.110912703473986 18.88908729652601 23
      vertex 58.5 15 23
      vertex 58.56725151858869 15.68281612705645 23
    endloop
  endfacet
  facet normal 0 0 1
    outer loop
      vertex 58.110912703473986 18.88908729652601 23
      vertex 58.56725151858869 15.68281612705645 23
      vertex 58.766421636210495 16.339392013277813 23
    endloop
  endfacet
  facet normal 0 0 1
    outer loop
      vertex 58.94436371839219 19.573082867664 23
      vertex 58.766421636210495 16.339392013277813 23
      vertex 59.08985635694109 16.944495815568608 23
    endloop
  endfacet
  facet normal 0 0 1
    outer loop
      vertex 58.110912703473986 18.88908729652601 23
      vertex 58.766421636210495 16.339392013277813 23
      vertex 58.94436371839219 19.573082867664 23
    endloop
  endfacet
  facet normal 0 0 1
    outer loop
      vertex 58.94436371839219 19.573082867664 23
      vertex 59.08985635694109 16.944495815568608 23
      vertex 59.525126265847085 17.474873734152915 23
    endloop
  endfacet
  facet normal 0 0 1
    outer loop
      vertex 58.94436371839219 19.573082867664 23
      vertex 59.525126265847085 17.474873734152915 23
      vertex 59.89524112199201 20.081337428812077 23
    endloop
  endfacet
  facet normal 0 0 1
    outer loop
      vertex 59.89524112199201 20.081337428812077 23
      vertex 59.525126265847085 17.474873734152915 23
      vertex 60.05550418443139 17.91014364305891 23
    endloop
  endfacet
  facet normal 0 0 1
    outer loop
      vertex 59.89524112199201 20.081337428812077 23
      vertex 60.05550418443139 17.91014364305891 23
      vertex 60.660607986722184 18.233578363789505 23
    endloop
  endfacet
  facet normal 0 0 1
    outer loop
      vertex 59.89524112199201 20.081337428812077 23
      vertex 60.660607986722184 18.233578363789505 23
      vertex 60.927003228911296 20.394319042217766 23
    endloop
  endfacet
  facet normal 0 0 1
    outer loop
      vertex 60.927003228911296 20.394319042217766 23
      vertex 60.660607986722184 18.233578363789505 23
      vertex 61.31718387294355 18.432748481411306 23
    endloop
  endfacet
  facet normal 0 0 1
    outer loop
      vertex 60.927003228911296 20.394319042217766 23
      vertex 61.31718387294355 18.432748481411306 23
      vertex 62 18.5 23
    endloop
  endfacet
  facet normal 0 0 1
    outer loop
      vertex 60.927003228911296 20.394319042217766 23
      vertex 62 18.5 23
      vertex 62 20.5 23
    endloop
  endfacet
  facet normal 0.09801714032956166 -0.9951847266721968 0
    outer loop
      vertex 62 9.5 22.2
      vertex 63.072996771088704 9.605680957782234 23
      vertex 62 9.5 23
    endloop
  endfacet
  facet normal 0.09801714032956166 -0.9951847266721968 0
    outer loop
      vertex 62 9.5 22.2
      vertex 63.072996771088704 9.605680957782234 22.2
      vertex 63.072996771088704 9.605680957782234 23
    endloop
  endfacet
  facet normal 0 0 -1
    outer loop
      vertex 62 9.5 22.2
      vertex 62.38268343236509 14.076120467488714 22.2
      vertex 63.072996771088704 9.605680957782234 22.2
    endloop
  endfacet
  facet normal 0.29028467725445994 -0.9569403357322096 0
    outer loop
      vertex 63.072996771088704 9.605680957782234 22.2
      vertex 64.104758878008 9.918662571187923 23
      vertex 63.072996771088704 9.605680957782234 23
    endloop
  endfacet
  facet normal 0.29028467725445994 -0.9569403357322096 0
    outer loop
      vertex 63.072996771088704 9.605680957782234 22.2
      vertex 64.104758878008 9.918662571187923 22.2
      vertex 64.104758878008 9.918662571187923 23
    endloop
  endfacet
  facet normal 0.4713967368259975 -0.881921264348355 0
    outer loop
      vertex 64.104758878008 9.918662571187923 22.2
      vertex 65.05563628160782 10.426917132336001 23
      vertex 64.104758878008 9.918662571187923 23
    endloop
  endfacet
  facet normal 0.4713967368259975 -0.881921264348355 0
    outer loop
      vertex 64.104758878008 9.918662571187923 22.2
      vertex 65.05563628160782 10.426917132336001 22.2
      vertex 65.05563628160782 10.426917132336001 23
    endloop
  endfacet
  facet normal 0 0 -1
    outer loop
      vertex 62 9.5 22.2
      vertex 62 14 22.2
      vertex 62.38268343236509 14.076120467488714 22.2
    endloop
  endfacet
  facet normal 0 0 -1
    outer loop
      vertex 63.072996771088704 9.605680957782234 22.2
      vertex 62.38268343236509 14.076120467488714 22.2
      vertex 62.707106781186546 14.292893218813452 22.2
    endloop
  endfacet
  facet normal 0 0 -1
    outer loop
      vertex 63.072996771088704 9.605680957782234 22.2
      vertex 62.707106781186546 14.292893218813452 22.2
      vertex 62.923879532511286 14.61731656763491 22.2
    endloop
  endfacet
  facet normal 0 0 -1
    outer loop
      vertex 63.072996771088704 9.605680957782234 22.2
      vertex 62.923879532511286 14.61731656763491 22.2
      vertex 63 15 22.2
    endloop
  endfacet
  facet normal 0 0 -1
    outer loop
      vertex 63.072996771088704 9.605680957782234 22.2
      vertex 64.104758878008 20.081337428812077 22.2
      vertex 64.104758878008 9.918662571187923 22.2
    endloop
  endfacet
  facet normal 0 0 -1
    outer loop
      vertex 64.104758878008 9.918662571187923 22.2
      vertex 65.05563628160782 19.573082867664 22.2
      vertex 65.05563628160782 10.426917132336001 22.2
    endloop
  endfacet
  facet normal 0.6343932841636469 -0.7730104533627358 0
    outer loop
      vertex 65.05563628160782 10.426917132336001 22.2
      vertex 65.88908729652601 11.11091270347399 23
      vertex 65.05563628160782 10.426917132336001 23
    endloop
  endfacet
  facet normal 0.6343932841636469 -0.7730104533627358 0
    outer loop
      vertex 65.05563628160782 10.426917132336001 22.2
      vertex 65.88908729652601 11.11091270347399 22.2
      vertex 65.88908729652601 11.11091270347399 23
    endloop
  endfacet
  facet normal 0.7730104533627381 -0.6343932841636443 0
    outer loop
      vertex 65.88908729652601 11.11091270347399 22.2
      vertex 66.573082867664 11.944363718392188 22.2
      vertex 65.88908729652601 11.11091270347399 23
    endloop
  endfacet
  facet normal 0.7730104533627381 -0.6343932841636443 0
    outer loop
      vertex 66.573082867664 11.944363718392188 22.2
      vertex 66.573082867664 11.944363718392188 23
      vertex 65.88908729652601 11.11091270347399 23
    endloop
  endfacet
  facet normal 0 0 -1
    outer loop
      vertex 65.05563628160782 10.426917132336001 22.2
      vertex 65.88908729652601 18.88908729652601 22.2
      vertex 65.88908729652601 11.11091270347399 22.2
    endloop
  endfacet
  facet normal 0.881921264348355 -0.4713967368259975 0
    outer loop
      vertex 66.573082867664 11.944363718392188 22.2
      vertex 67.08133742881208 12.895241121992006 22.2
      vertex 66.573082867664 11.944363718392188 23
    endloop
  endfacet
  facet normal 0.881921264348355 -0.4713967368259975 0
    outer loop
      vertex 67.08133742881208 12.895241121992006 22.2
      vertex 67.08133742881208 12.895241121992006 23
      vertex 66.573082867664 11.944363718392188 23
    endloop
  endfacet
  facet normal 0.9569403357322073 -0.29028467725446777 0
    outer loop
      vertex 67.08133742881208 12.895241121992006 22.2
      vertex 67.39431904221777 13.927003228911294 22.2
      vertex 67.08133742881208 12.895241121992006 23
    endloop
  endfacet
  facet normal 0.9569403357322073 -0.29028467725446777 0
    outer loop
      vertex 67.39431904221777 13.927003228911294 22.2
      vertex 67.39431904221777 13.927003228911294 23
      vertex 67.08133742881208 12.895241121992006 23
    endloop
  endfacet
  facet normal 0 0 -1
    outer loop
      vertex 65.88908729652601 11.11091270347399 22.2
      vertex 66.573082867664 18.05563628160781 22.2
      vertex 66.573082867664 11.944363718392188 22.2
    endloop
  endfacet
  facet normal 0 0 -1
    outer loop
      vertex 66.573082867664 11.944363718392188 22.2
      vertex 67.08133742881208 17.104758878007992 22.2
      vertex 67.08133742881208 12.895241121992006 22.2
    endloop
  endfacet
  facet normal 0 0 -1
    outer loop
      vertex 67.08133742881208 12.895241121992006 22.2
      vertex 67.39431904221777 16.072996771088704 22.2
      vertex 67.39431904221777 13.927003228911294 22.2
    endloop
  endfacet
  facet normal 0.9951847266721974 -0.09801714032955497 0
    outer loop
      vertex 67.39431904221777 13.927003228911294 22.2
      vertex 67.5 15 22.2
      vertex 67.39431904221777 13.927003228911294 23
    endloop
  endfacet
  facet normal 0.9951847266721974 -0.09801714032955497 0
    outer loop
      vertex 67.39431904221777 13.927003228911294 23
      vertex 67.5 15 22.2
      vertex 67.5 15 23
    endloop
  endfacet
  facet normal 0 0 1
    outer loop
      vertex 62 9.5 23
      vertex 63.072996771088704 9.605680957782234 23
      vertex 62 11.5 23
    endloop
  endfacet
  facet normal 0 0 1
    outer loop
      vertex 63.072996771088704 9.605680957782234 23
      vertex 62.68281612705645 11.567251518588694 23
      vertex 62 11.5 23
    endloop
  endfacet
  facet normal 0 0 1
    outer loop
      vertex 63.072996771088704 9.605680957782234 23
      vertex 63.339392013277816 11.766421636210497 23
      vertex 62.68281612705645 11.567251518588694 23
    endloop
  endfacet
  facet normal 0 0 1
    outer loop
      vertex 63.072996771088704 9.605680957782234 23
      vertex 64.104758878008 9.918662571187923 23
      vertex 63.339392013277816 11.766421636210497 23
    endloop
  endfacet
  facet normal 0 0 1
    outer loop
      vertex 64.104758878008 9.918662571187923 23
      vertex 63.94449581556861 12.089856356941091 23
      vertex 63.339392013277816 11.766421636210497 23
    endloop
  endfacet
  facet normal 0 0 1
    outer loop
      vertex 64.104758878008 9.918662571187923 23
      vertex 64.47487373415292 12.525126265847083 23
      vertex 63.94449581556861 12.089856356941091 23
    endloop
  endfacet
  facet normal 0 0 1
    outer loop
      vertex 64.104758878008 9.918662571187923 23
      vertex 65.05563628160782 10.426917132336001 23
      vertex 64.47487373415292 12.525126265847083 23
    endloop
  endfacet
  facet normal 0 0 1
    outer loop
      vertex 65.05563628160782 10.426917132336001 23
      vertex 64.9101436430589 13.055504184431392 23
      vertex 64.47487373415292 12.525126265847083 23
    endloop
  endfacet
  facet normal 0 0 1
    outer loop
      vertex 65.05563628160782 10.426917132336001 23
      vertex 65.88908729652601 11.11091270347399 23
      vertex 65.2335783637895 13.660607986722185 23
    endloop
  endfacet
  facet normal 0 0 1
    outer loop
      vertex 65.05563628160782 10.426917132336001 23
      vertex 65.2335783637895 13.660607986722185 23
      vertex 64.9101436430589 13.055504184431392 23
    endloop
  endfacet
  facet normal 0 0 1
    outer loop
      vertex 65.88908729652601 11.11091270347399 23
      vertex 65.43274848141131 14.31718387294355 23
      vertex 65.2335783637895 13.660607986722185 23
    endloop
  endfacet
  facet normal 0 0 1
    outer loop
      vertex 65.88908729652601 11.11091270347399 23
      vertex 65.5 15 23
      vertex 65.43274848141131 14.31718387294355 23
    endloop
  endfacet
  facet normal 0 0 1
    outer loop
      vertex 65.88908729652601 11.11091270347399 23
      vertex 65.43274848141131 15.68281612705645 23
      vertex 65.5 15 23
    endloop
  endfacet
  facet normal 0 0 1
    outer loop
      vertex 65.88908729652601 11.11091270347399 23
      vertex 66.573082867664 11.944363718392188 23
      vertex 65.88908729652601 18.88908729652601 23
    endloop
  endfacet
  facet normal 0 0 1
    outer loop
      vertex 66.573082867664 11.944363718392188 23
      vertex 67.08133742881208 12.895241121992006 23
      vertex 66.573082867664 18.05563628160781 23
    endloop
  endfacet
  facet normal 0 0 1
    outer loop
      vertex 67.08133742881208 12.895241121992006 23
      vertex 67.39431904221777 13.927003228911294 23
      vertex 67.08133742881208 17.104758878007992 23
    endloop
  endfacet
  facet normal 0 0 -1
    outer loop
      vertex 63.072996771088704 9.605680957782234 22.2
      vertex 63 15 22.2
      vertex 63.072996771088704 20.394319042217766 22.2
    endloop
  endfacet
  facet normal 0 0 -1
    outer loop
      vertex 63.072996771088704 20.394319042217766 22.2
      vertex 62.38268343236509 15.923879532511286 22.2
      vertex 62 16 22.2
    endloop
  endfacet
  facet normal 0 0 -1
    outer loop
      vertex 63.072996771088704 20.394319042217766 22.2
      vertex 63 15 22.2
      vertex 62.923879532511286 15.38268343236509 22.2
    endloop
  endfacet
  facet normal 0 0 -1
    outer loop
      vertex 63.072996771088704 20.394319042217766 22.2
      vertex 62.707106781186546 15.707106781186548 22.2
      vertex 62.38268343236509 15.923879532511286 22.2
    endloop
  endfacet
  facet normal 0 0 -1
    outer loop
      vertex 63.072996771088704 20.394319042217766 22.2
      vertex 62.923879532511286 15.38268343236509 22.2
      vertex 62.707106781186546 15.707106781186548 22.2
    endloop
  endfacet
  facet normal 0 0 -1
    outer loop
      vertex 63.072996771088704 9.605680957782234 22.2
      vertex 63.072996771088704 20.394319042217766 22.2
      vertex 64.104758878008 20.081337428812077 22.2
    endloop
  endfacet
  facet normal 0 0 -1
    outer loop
      vertex 64.104758878008 9.918662571187923 22.2
      vertex 64.104758878008 20.081337428812077 22.2
      vertex 65.05563628160782 19.573082867664 22.2
    endloop
  endfacet
  facet normal 0 0 -1
    outer loop
      vertex 62 20.5 22.2
      vertex 63.072996771088704 20.394319042217766 22.2
      vertex 62 16 22.2
    endloop
  endfacet
  facet normal 0.09801714032956166 0.9951847266721968 0
    outer loop
      vertex 62 20.5 22.2
      vertex 62 20.5 23
      vertex 63.072996771088704 20.394319042217766 22.2
    endloop
  endfacet
  facet normal 0.09801714032956166 0.9951847266721968 0
    outer loop
      vertex 63.072996771088704 20.394319042217766 22.2
      vertex 62 20.5 23
      vertex 63.072996771088704 20.394319042217766 23
    endloop
  endfacet
  facet normal 0.29028467725445994 0.9569403357322096 0
    outer loop
      vertex 63.072996771088704 20.394319042217766 22.2
      vertex 63.072996771088704 20.394319042217766 23
      vertex 64.104758878008 20.081337428812077 22.2
    endloop
  endfacet
  facet normal 0.29028467725445994 0.9569403357322096 0
    outer loop
      vertex 64.104758878008 20.081337428812077 22.2
      vertex 63.072996771088704 20.394319042217766 23
      vertex 64.104758878008 20.081337428812077 23
    endloop
  endfacet
  facet normal 0.4713967368259975 0.881921264348355 0
    outer loop
      vertex 65.05563628160782 19.573082867664 22.2
      vertex 64.104758878008 20.081337428812077 23
      vertex 65.05563628160782 19.573082867664 23
    endloop
  endfacet
  facet normal 0.4713967368259975 0.881921264348355 0
    outer loop
      vertex 64.104758878008 20.081337428812077 22.2
      vertex 64.104758878008 20.081337428812077 23
      vertex 65.05563628160782 19.573082867664 22.2
    endloop
  endfacet
  facet normal 0 0 -1
    outer loop
      vertex 65.05563628160782 10.426917132336001 22.2
      vertex 65.05563628160782 19.573082867664 22.2
      vertex 65.88908729652601 18.88908729652601 22.2
    endloop
  endfacet
  facet normal 0 0 -1
    outer loop
      vertex 65.88908729652601 11.11091270347399 22.2
      vertex 65.88908729652601 18.88908729652601 22.2
      vertex 66.573082867664 18.05563628160781 22.2
    endloop
  endfacet
  facet normal 0 0 -1
    outer loop
      vertex 66.573082867664 11.944363718392188 22.2
      vertex 66.573082867664 18.05563628160781 22.2
      vertex 67.08133742881208 17.104758878007992 22.2
    endloop
  endfacet
  facet normal 0 0 -1
    outer loop
      vertex 67.39431904221777 13.927003228911294 22.2
      vertex 67.39431904221777 16.072996771088704 22.2
      vertex 67.5 15 22.2
    endloop
  endfacet
  facet normal 0 0 -1
    outer loop
      vertex 67.08133742881208 12.895241121992006 22.2
      vertex 67.08133742881208 17.104758878007992 22.2
      vertex 67.39431904221777 16.072996771088704 22.2
    endloop
  endfacet
  facet normal 0.9951847266721974 0.09801714032955514 0
    outer loop
      vertex 67.5 15 22.2
      vertex 67.39431904221777 16.072996771088704 22.2
      vertex 67.5 15 23
    endloop
  endfacet
  facet normal 0.9951847266721974 0.09801714032955514 0
    outer loop
      vertex 67.39431904221777 16.072996771088704 22.2
      vertex 67.39431904221777 16.072996771088704 23
      vertex 67.5 15 23
    endloop
  endfacet
  facet normal 0.881921264348355 0.4713967368259975 0
    outer loop
      vertex 66.573082867664 18.05563628160781 22.2
      vertex 66.573082867664 18.05563628160781 23
      vertex 67.08133742881208 17.104758878007992 23
    endloop
  endfacet
  facet normal 0.9569403357322073 0.29028467725446777 0
    outer loop
      vertex 67.39431904221777 16.072996771088704 22.2
      vertex 67.08133742881208 17.104758878007992 22.2
      vertex 67.39431904221777 16.072996771088704 23
    endloop
  endfacet
  facet normal 0.9569403357322073 0.29028467725446777 0
    outer loop
      vertex 67.08133742881208 17.104758878007992 22.2
      vertex 67.08133742881208 17.104758878007992 23
      vertex 67.39431904221777 16.072996771088704 23
    endloop
  endfacet
  facet normal 0.881921264348355 0.4713967368259975 0
    outer loop
      vertex 67.08133742881208 17.104758878007992 22.2
      vertex 66.573082867664 18.05563628160781 22.2
      vertex 67.08133742881208 17.104758878007992 23
    endloop
  endfacet
  facet normal 0.6343932841636469 0.7730104533627358 0
    outer loop
      vertex 65.88908729652601 18.88908729652601 22.2
      vertex 65.05563628160782 19.573082867664 23
      vertex 65.88908729652601 18.88908729652601 23
    endloop
  endfacet
  facet normal 0.7730104533627388 0.6343932841636434 0
    outer loop
      vertex 65.88908729652601 18.88908729652601 22.2
      vertex 65.88908729652601 18.88908729652601 23
      vertex 66.573082867664 18.05563628160781 23
    endloop
  endfacet
  facet normal 0.6343932841636469 0.7730104533627358 0
    outer loop
      vertex 65.88908729652601 18.88908729652601 22.2
      vertex 65.05563628160782 19.573082867664 22.2
      vertex 65.05563628160782 19.573082867664 23
    endloop
  endfacet
  facet normal 0.7730104533627388 0.6343932841636434 0
    outer loop
      vertex 65.88908729652601 18.88908729652601 22.2
      vertex 66.573082867664 18.05563628160781 23
      vertex 66.573082867664 18.05563628160781 22.2
    endloop
  endfacet
  facet normal 0 0 1
    outer loop
      vertex 63.072996771088704 20.394319042217766 23
      vertex 62 18.5 23
      vertex 62.68281612705645 18.432748481411306 23
    endloop
  endfacet
  facet normal 0 0 1
    outer loop
      vertex 62 20.5 23
      vertex 62 18.5 23
      vertex 63.072996771088704 20.394319042217766 23
    endloop
  endfacet
  facet normal 0 0 1
    outer loop
      vertex 63.072996771088704 20.394319042217766 23
      vertex 62.68281612705645 18.432748481411306 23
      vertex 64.104758878008 20.081337428812077 23
    endloop
  endfacet
  facet normal 0 0 1
    outer loop
      vertex 64.104758878008 20.081337428812077 23
      vertex 62.68281612705645 18.432748481411306 23
      vertex 63.339392013277816 18.233578363789505 23
    endloop
  endfacet
  facet normal 0 0 1
    outer loop
      vertex 64.104758878008 20.081337428812077 23
      vertex 63.339392013277816 18.233578363789505 23
      vertex 63.94449581556861 17.91014364305891 23
    endloop
  endfacet
  facet normal 0 0 1
    outer loop
      vertex 65.05563628160782 19.573082867664 23
      vertex 63.94449581556861 17.91014364305891 23
      vertex 64.47487373415292 17.474873734152915 23
    endloop
  endfacet
  facet normal 0 0 1
    outer loop
      vertex 64.104758878008 20.081337428812077 23
      vertex 63.94449581556861 17.91014364305891 23
      vertex 65.05563628160782 19.573082867664 23
    endloop
  endfacet
  facet normal 0 0 1
    outer loop
      vertex 65.88908729652601 11.11091270347399 23
      vertex 65.05563628160782 19.573082867664 23
      vertex 65.43274848141131 15.68281612705645 23
    endloop
  endfacet
  facet normal 0 0 1
    outer loop
      vertex 65.05563628160782 19.573082867664 23
      vertex 64.9101436430589 16.944495815568608 23
      vertex 65.2335783637895 16.339392013277813 23
    endloop
  endfacet
  facet normal 0 0 1
    outer loop
      vertex 65.05563628160782 19.573082867664 23
      vertex 65.2335783637895 16.339392013277813 23
      vertex 65.43274848141131 15.68281612705645 23
    endloop
  endfacet
  facet normal 0 0 1
    outer loop
      vertex 65.88908729652601 11.11091270347399 23
      vertex 65.88908729652601 18.88908729652601 23
      vertex 65.05563628160782 19.573082867664 23
    endloop
  endfacet
  facet normal 0 0 1
    outer loop
      vertex 66.573082867664 11.944363718392188 23
      vertex 66.573082867664 18.05563628160781 23
      vertex 65.88908729652601 18.88908729652601 23
    endloop
  endfacet
  facet normal 0 0 1
    outer loop
      vertex 67.39431904221777 13.927003228911294 23
      vertex 67.5 15 23
      vertex 67.39431904221777 16.072996771088704 23
    endloop
  endfacet
  facet normal 0 0 1
    outer loop
      vertex 67.08133742881208 12.895241121992006 23
      vertex 67.08133742881208 17.104758878007992 23
      vertex 66.573082867664 18.05563628160781 23
    endloop
  endfacet
  facet normal 0 0 1
    outer loop
      vertex 67.39431904221777 13.927003228911294 23
      vertex 67.39431904221777 16.072996771088704 23
      vertex 67.08133742881208 17.104758878007992 23
    endloop
  endfacet
  facet normal 0 0 1
    outer loop
      vertex 65.05563628160782 19.573082867664 23
      vertex 64.47487373415292 17.474873734152915 23
      vertex 64.9101436430589 16.944495815568608 23
    endloop
  endfacet
  facet normal 0 0 -1
    outer loop
      vertex 61.076120467488714 14.61731656763491 20.2
      vertex 61.292893218813454 15.707106781186548 20.2
      vertex 61.292893218813454 14.292893218813452 20.2
    endloop
  endfacet
  facet normal 0 0 -1
    outer loop
      vertex 61.61731656763491 14.076120467488714 20.2
      vertex 61.292893218813454 14.292893218813452 20.2
      vertex 61.61731656763491 15.923879532511286 20.2
    endloop
  endfacet
  facet normal 0 0 -1
    outer loop
      vertex 61.61731656763491 14.076120467488714 20.2
      vertex 62 16 20.2
      vertex 62 14 20.2
    endloop
  endfacet
  facet normal -0.8314696123025448 -0.5555702330196028 0
    outer loop
      vertex 61.076120467488714 14.61731656763491 20.2
      vertex 61.292893218813454 14.292893218813452 20.2
      vertex 61.076120467488714 14.61731656763491 22.2
    endloop
  endfacet
  facet normal -0.98078528040323 -0.19509032201613002 0
    outer loop
      vertex 61.076120467488714 14.61731656763491 20.2
      vertex 61 15 22.2
      vertex 61 15 20.2
    endloop
  endfacet
  facet normal -0.5555702330196038 -0.8314696123025441 0
    outer loop
      vertex 61.61731656763491 14.076120467488714 20.2
      vertex 61.61731656763491 14.076120467488714 22.2
      vertex 61.292893218813454 14.292893218813452 20.2
    endloop
  endfacet
  facet normal -0.19509032201612916 -0.9807852804032302 0
    outer loop
      vertex 61.61731656763491 14.076120467488714 20.2
      vertex 62 14 20.2
      vertex 62 14 22.2
    endloop
  endfacet
  facet normal -0.8314696123025448 -0.5555702330196028 0
    outer loop
      vertex 61.292893218813454 14.292893218813452 20.2
      vertex 61.292893218813454 14.292893218813452 22.2
      vertex 61.076120467488714 14.61731656763491 22.2
    endloop
  endfacet
  facet normal -0.98078528040323 -0.19509032201613002 0
    outer loop
      vertex 61.076120467488714 14.61731656763491 20.2
      vertex 61.076120467488714 14.61731656763491 22.2
      vertex 61 15 22.2
    endloop
  endfacet
  facet normal -0.5555702330196038 -0.8314696123025441 0
    outer loop
      vertex 61.292893218813454 14.292893218813452 20.2
      vertex 61.61731656763491 14.076120467488714 22.2
      vertex 61.292893218813454 14.292893218813452 22.2
    endloop
  endfacet
  facet normal -0.19509032201612916 -0.9807852804032302 0
    outer loop
      vertex 61.61731656763491 14.076120467488714 20.2
      vertex 62 14 22.2
      vertex 61.61731656763491 14.076120467488714 22.2
    endloop
  endfacet
  facet normal 0 0 -1
    outer loop
      vertex 61.076120467488714 14.61731656763491 20.2
      vertex 61 15 20.2
      vertex 61.076120467488714 15.38268343236509 20.2
    endloop
  endfacet
  facet normal 0 0 -1
    outer loop
      vertex 61.076120467488714 14.61731656763491 20.2
      vertex 61.076120467488714 15.38268343236509 20.2
      vertex 61.292893218813454 15.707106781186548 20.2
    endloop
  endfacet
  facet normal 0 0 -1
    outer loop
      vertex 61.292893218813454 14.292893218813452 20.2
      vertex 61.292893218813454 15.707106781186548 20.2
      vertex 61.61731656763491 15.923879532511286 20.2
    endloop
  endfacet
  facet normal 0 0 -1
    outer loop
      vertex 61.61731656763491 14.076120467488714 20.2
      vertex 61.61731656763491 15.923879532511286 20.2
      vertex 62 16 20.2
    endloop
  endfacet
  facet normal -0.98078528040323 0.19509032201613002 0
    outer loop
      vertex 61 15 20.2
      vertex 61.076120467488714 15.38268343236509 22.2
      vertex 61.076120467488714 15.38268343236509 20.2
    endloop
  endfacet
  facet normal -0.8314696123025448 0.5555702330196028 0
    outer loop
      vertex 61.076120467488714 15.38268343236509 20.2
      vertex 61.292893218813454 15.707106781186548 22.2
      vertex 61.292893218813454 15.707106781186548 20.2
    endloop
  endfacet
  facet normal -0.5555702330196038 0.8314696123025441 0
    outer loop
      vertex 61.292893218813454 15.707106781186548 20.2
      vertex 61.292893218813454 15.707106781186548 22.2
      vertex 61.61731656763491 15.923879532511286 20.2
    endloop
  endfacet
  facet normal -0.19509032201612916 0.9807852804032302 0
    outer loop
      vertex 61.61731656763491 15.923879532511286 20.2
      vertex 61.61731656763491 15.923879532511286 22.2
      vertex 62 16 20.2
    endloop
  endfacet
  facet normal -0.98078528040323 0.19509032201613002 0
    outer loop
      vertex 61 15 20.2
      vertex 61 15 22.2
      vertex 61.076120467488714 15.38268343236509 22.2
    endloop
  endfacet
  facet normal -0.8314696123025448 0.5555702330196028 0
    outer loop
      vertex 61.076120467488714 15.38268343236509 20.2
      vertex 61.076120467488714 15.38268343236509 22.2
      vertex 61.292893218813454 15.707106781186548 22.2
    endloop
  endfacet
  facet normal -0.5555702330196038 0.8314696123025441 0
    outer loop
      vertex 61.61731656763491 15.923879532511286 20.2
      vertex 61.292893218813454 15.707106781186548 22.2
      vertex 61.61731656763491 15.923879532511286 22.2
    endloop
  endfacet
  facet normal -0.19509032201612916 0.9807852804032302 0
    outer loop
      vertex 62 16 20.2
      vertex 61.61731656763491 15.923879532511286 22.2
      vertex 62 16 22.2
    endloop
  endfacet
  facet normal 0 0 -1
    outer loop
      vertex 62 14 20.2
      vertex 62.38268343236509 15.923879532511286 20.2
      vertex 62.38268343236509 14.076120467488714 20.2
    endloop
  endfacet
  facet normal 0 0 -1
    outer loop
      vertex 62.38268343236509 14.076120467488714 20.2
      vertex 62.707106781186546 15.707106781186548 20.2
      vertex 62.707106781186546 14.292893218813452 20.2
    endloop
  endfacet
  facet normal 0 0 -1
    outer loop
      vertex 62.707106781186546 14.292893218813452 20.2
      vertex 62.923879532511286 15.38268343236509 20.2
      vertex 62.923879532511286 14.61731656763491 20.2
    endloop
  endfacet
  facet normal 0.19509032201612916 -0.9807852804032302 0
    outer loop
      vertex 62 14 20.2
      vertex 62.38268343236509 14.076120467488714 20.2
      vertex 62.38268343236509 14.076120467488714 22.2
    endloop
  endfacet
  facet normal 0.5555702330196038 -0.8314696123025441 0
    outer loop
      vertex 62.38268343236509 14.076120467488714 20.2
      vertex 62.707106781186546 14.292893218813452 20.2
      vertex 62.707106781186546 14.292893218813452 22.2
    endloop
  endfacet
  facet normal 0.8314696123025448 -0.5555702330196028 0
    outer loop
      vertex 62.707106781186546 14.292893218813452 20.2
      vertex 62.923879532511286 14.61731656763491 20.2
      vertex 62.707106781186546 14.292893218813452 22.2
    endloop
  endfacet
  facet normal 0.98078528040323 -0.19509032201613002 0
    outer loop
      vertex 62.923879532511286 14.61731656763491 20.2
      vertex 63 15 20.2
      vertex 62.923879532511286 14.61731656763491 22.2
    endloop
  endfacet
  facet normal 0.19509032201612916 -0.9807852804032302 0
    outer loop
      vertex 62 14 20.2
      vertex 62.38268343236509 14.076120467488714 22.2
      vertex 62 14 22.2
    endloop
  endfacet
  facet normal 0.5555702330196038 -0.8314696123025441 0
    outer loop
      vertex 62.38268343236509 14.076120467488714 20.2
      vertex 62.707106781186546 14.292893218813452 22.2
      vertex 62.38268343236509 14.076120467488714 22.2
    endloop
  endfacet
  facet normal 0.8314696123025448 -0.5555702330196028 0
    outer loop
      vertex 62.923879532511286 14.61731656763491 20.2
      vertex 62.923879532511286 14.61731656763491 22.2
      vertex 62.707106781186546 14.292893218813452 22.2
    endloop
  endfacet
  facet normal 0.98078528040323 -0.19509032201613002 0
    outer loop
      vertex 63 15 20.2
      vertex 63 15 22.2
      vertex 62.923879532511286 14.61731656763491 22.2
    endloop
  endfacet
  facet normal 0 0 -1
    outer loop
      vertex 62 14 20.2
      vertex 62 16 20.2
      vertex 62.38268343236509 15.923879532511286 20.2
    endloop
  endfacet
  facet normal 0 0 -1
    outer loop
      vertex 62.38268343236509 14.076120467488714 20.2
      vertex 62.38268343236509 15.923879532511286 20.2
      vertex 62.707106781186546 15.707106781186548 20.2
    endloop
  endfacet
  facet normal 0 0 -1
    outer loop
      vertex 62.707106781186546 14.292893218813452 20.2
      vertex 62.707106781186546 15.707106781186548 20.2
      vertex 62.923879532511286 15.38268343236509 20.2
    endloop
  endfacet
  facet normal 0 0 -1
    outer loop
      vertex 62.923879532511286 14.61731656763491 20.2
      vertex 62.923879532511286 15.38268343236509 20.2
      vertex 63 15 20.2
    endloop
  endfacet
  facet normal 0.19509032201612916 0.9807852804032302 0
    outer loop
      vertex 62 16 20.2
      vertex 62 16 22.2
      vertex 62.38268343236509 15.923879532511286 20.2
    endloop
  endfacet
  facet normal 0.5555702330196038 0.8314696123025441 0
    outer loop
      vertex 62.707106781186546 15.707106781186548 20.2
      vertex 62.38268343236509 15.923879532511286 20.2
      vertex 62.38268343236509 15.923879532511286 22.2
    endloop
  endfacet
  facet normal 0.98078528040323 0.19509032201613002 0
    outer loop
      vertex 63 15 20.2
      vertex 62.923879532511286 15.38268343236509 20.2
      vertex 63 15 22.2
    endloop
  endfacet
  facet normal 0.8314696123025448 0.5555702330196028 0
    outer loop
      vertex 62.707106781186546 15.707106781186548 20.2
      vertex 62.923879532511286 15.38268343236509 22.2
      vertex 62.923879532511286 15.38268343236509 20.2
    endloop
  endfacet
  facet normal 0.19509032201612916 0.9807852804032302 0
    outer loop
      vertex 62.38268343236509 15.923879532511286 20.2
      vertex 62 16 22.2
      vertex 62.38268343236509 15.923879532511286 22.2
    endloop
  endfacet
  facet normal 0.5555702330196038 0.8314696123025441 0
    outer loop
      vertex 62.707106781186546 15.707106781186548 20.2
      vertex 62.38268343236509 15.923879532511286 22.2
      vertex 62.707106781186546 15.707106781186548 22.2
    endloop
  endfacet
  facet normal 0.98078528040323 0.19509032201613002 0
    outer loop
      vertex 62.923879532511286 15.38268343236509 20.2
      vertex 62.923879532511286 15.38268343236509 22.2
      vertex 63 15 22.2
    endloop
  endfacet
  facet normal 0.8314696123025448 0.5555702330196028 0
    outer loop
      vertex 62.707106781186546 15.707106781186548 20.2
      vertex 62.707106781186546 15.707106781186548 22.2
      vertex 62.923879532511286 15.38268343236509 22.2
    endloop
  endfacet
endsolid OpenSCAD_Model
