solid OpenSCAD_Model
  facet normal 0.9951847266721972 0.09801714032955686 -2.6592787427604102e-18
    outer loop
      vertex 65.5 -8 25.3
      vertex 65.43274848141131 -7.317183872943551 23.5
      vertex 65.43274848141131 -7.317183872943551 25.3
    endloop
  endfacet
  facet normal 0.9951847266721972 0.09801714032955686 -2.6592787427604102e-18
    outer loop
      vertex 65.43274848141131 -7.317183872943551 23.5
      vertex 65.5 -8 25.3
      vertex 65.5 -8 23.5
    endloop
  endfacet
  facet normal 0.9569403357322083 0.2902846772544641 -5.456976591582325e-19
    outer loop
      vertex 65.43274848141131 -7.317183872943551 25.3
      vertex 65.2335783637895 -6.6606079867221855 23.5
      vertex 65.2335783637895 -6.6606079867221855 25.3
    endloop
  endfacet
  facet normal 0.9569403357322083 0.2902846772544641 -5.456976591582325e-19
    outer loop
      vertex 65.2335783637895 -6.6606079867221855 23.5
      vertex 65.43274848141131 -7.317183872943551 25.3
      vertex 65.43274848141131 -7.317183872943551 23.5
    endloop
  endfacet
  facet normal 0.8819212643483504 0.47139673682600636 -3.604371880372028e-18
    outer loop
      vertex 65.2335783637895 -6.6606079867221855 25.3
      vertex 64.9101436430589 -6.055504184431392 23.5
      vertex 64.9101436430589 -6.055504184431392 25.3
    endloop
  endfacet
  facet normal 0.8819212643483504 0.47139673682600636 -3.604371880372028e-18
    outer loop
      vertex 64.9101436430589 -6.055504184431392 23.5
      vertex 65.2335783637895 -6.6606079867221855 25.3
      vertex 65.2335783637895 -6.6606079867221855 23.5
    endloop
  endfacet
  facet normal 0.7730104533627458 0.6343932841636346 -7.788670387394861e-18
    outer loop
      vertex 64.9101436430589 -6.055504184431392 25.3
      vertex 64.47487373415292 -5.525126265847083 23.5
      vertex 64.47487373415292 -5.525126265847083 25.3
    endloop
  endfacet
  facet normal 0.7730104533627458 0.6343932841636346 -7.788670387394861e-18
    outer loop
      vertex 64.47487373415292 -5.525126265847083 23.5
      vertex 64.9101436430589 -6.055504184431392 25.3
      vertex 64.9101436430589 -6.055504184431392 23.5
    endloop
  endfacet
  facet normal 0.6343932841636417 0.7730104533627402 0
    outer loop
      vertex 64.47487373415292 -5.525126265847083 23.5
      vertex 63.94449581556861 -5.089856356941091 25.3
      vertex 64.47487373415292 -5.525126265847083 25.3
    endloop
  endfacet
  facet normal 0.6343932841636417 0.7730104533627402 0
    outer loop
      vertex 63.94449581556861 -5.089856356941091 25.3
      vertex 64.47487373415292 -5.525126265847083 23.5
      vertex 63.94449581556861 -5.089856356941091 23.5
    endloop
  endfacet
  facet normal 0.4713967368259973 0.8819212643483552 0
    outer loop
      vertex 63.94449581556861 -5.089856356941091 23.5
      vertex 63.339392013277816 -4.766421636210497 25.3
      vertex 63.94449581556861 -5.089856356941091 25.3
    endloop
  endfacet
  facet normal 0.4713967368259973 0.8819212643483552 0
    outer loop
      vertex 63.339392013277816 -4.766421636210497 25.3
      vertex 63.94449581556861 -5.089856356941091 23.5
      vertex 63.339392013277816 -4.766421636210497 23.5
    endloop
  endfacet
  facet normal 0.2902846772544618 0.956940335732209 0
    outer loop
      vertex 63.339392013277816 -4.766421636210497 23.5
      vertex 62.68281612705645 -4.5672515185886935 25.3
      vertex 63.339392013277816 -4.766421636210497 25.3
    endloop
  endfacet
  facet normal 0.2902846772544618 0.956940335732209 0
    outer loop
      vertex 62.68281612705645 -4.5672515185886935 25.3
      vertex 63.339392013277816 -4.766421636210497 23.5
      vertex 62.68281612705645 -4.5672515185886935 23.5
    endloop
  endfacet
  facet normal 0.09801714032956084 0.9951847266721968 0
    outer loop
      vertex 62.68281612705645 -4.5672515185886935 23.5
      vertex 62 -4.5 25.3
      vertex 62.68281612705645 -4.5672515185886935 25.3
    endloop
  endfacet
  facet normal 0.09801714032956084 0.9951847266721968 0
    outer loop
      vertex 62 -4.5 25.3
      vertex 62.68281612705645 -4.5672515185886935 23.5
      vertex 62 -4.5 23.5
    endloop
  endfacet
  facet normal -0.09801714032956084 0.9951847266721968 0
    outer loop
      vertex 62 -4.5 23.5
      vertex 61.31718387294355 -4.5672515185886935 25.3
      vertex 62 -4.5 25.3
    endloop
  endfacet
  facet normal -0.09801714032956084 0.9951847266721968 0
    outer loop
      vertex 61.31718387294355 -4.5672515185886935 25.3
      vertex 62 -4.5 23.5
      vertex 61.31718387294355 -4.5672515185886935 23.5
    endloop
  endfacet
  facet normal -0.2902846772544618 0.956940335732209 0
    outer loop
      vertex 61.31718387294355 -4.5672515185886935 23.5
      vertex 60.660607986722184 -4.766421636210497 25.3
      vertex 61.31718387294355 -4.5672515185886935 25.3
    endloop
  endfacet
  facet normal -0.2902846772544618 0.956940335732209 0
    outer loop
      vertex 60.660607986722184 -4.766421636210497 25.3
      vertex 61.31718387294355 -4.5672515185886935 23.5
      vertex 60.660607986722184 -4.766421636210497 23.5
    endloop
  endfacet
  facet normal -0.4713967368259973 0.8819212643483552 0
    outer loop
      vertex 60.660607986722184 -4.766421636210497 23.5
      vertex 60.05550418443139 -5.089856356941091 25.3
      vertex 60.660607986722184 -4.766421636210497 25.3
    endloop
  endfacet
  facet normal -0.4713967368259973 0.8819212643483552 0
    outer loop
      vertex 60.05550418443139 -5.089856356941091 25.3
      vertex 60.660607986722184 -4.766421636210497 23.5
      vertex 60.05550418443139 -5.089856356941091 23.5
    endloop
  endfacet
  facet normal -0.6343932841636468 0.773010453362736 0
    outer loop
      vertex 60.05550418443139 -5.089856356941091 23.5
      vertex 59.525126265847085 -5.525126265847083 25.3
      vertex 60.05550418443139 -5.089856356941091 25.3
    endloop
  endfacet
  facet normal -0.6343932841636468 0.773010453362736 0
    outer loop
      vertex 59.525126265847085 -5.525126265847083 25.3
      vertex 60.05550418443139 -5.089856356941091 23.5
      vertex 59.525126265847085 -5.525126265847083 23.5
    endloop
  endfacet
  facet normal -0.7730104533627357 0.634393284163647 -2.2460357360863588e-18
    outer loop
      vertex 59.08985635694109 -6.055504184431392 23.5
      vertex 59.525126265847085 -5.525126265847083 25.3
      vertex 59.525126265847085 -5.525126265847083 23.5
    endloop
  endfacet
  facet normal -0.7730104533627357 0.634393284163647 -2.2460357360863588e-18
    outer loop
      vertex 59.525126265847085 -5.525126265847083 25.3
      vertex 59.08985635694109 -6.055504184431392 23.5
      vertex 59.08985635694109 -6.055504184431392 25.3
    endloop
  endfacet
  facet normal -0.8819212643483546 0.4713967368259983 5.704028487216326e-18
    outer loop
      vertex 58.766421636210495 -6.6606079867221855 23.5
      vertex 59.08985635694109 -6.055504184431392 25.3
      vertex 59.08985635694109 -6.055504184431392 23.5
    endloop
  endfacet
  facet normal -0.8819212643483546 0.4713967368259983 5.704028487216326e-18
    outer loop
      vertex 59.08985635694109 -6.055504184431392 25.3
      vertex 58.766421636210495 -6.6606079867221855 23.5
      vertex 58.766421636210495 -6.6606079867221855 25.3
    endloop
  endfacet
  facet normal -0.9569403357322083 0.2902846772544641 5.456976591582325e-19
    outer loop
      vertex 58.56725151858869 -7.317183872943551 23.5
      vertex 58.766421636210495 -6.6606079867221855 25.3
      vertex 58.766421636210495 -6.6606079867221855 23.5
    endloop
  endfacet
  facet normal -0.9569403357322083 0.2902846772544641 5.456976591582325e-19
    outer loop
      vertex 58.766421636210495 -6.6606079867221855 25.3
      vertex 58.56725151858869 -7.317183872943551 23.5
      vertex 58.56725151858869 -7.317183872943551 25.3
    endloop
  endfacet
  facet normal -0.9951847266721972 0.09801714032955686 2.6592787427604102e-18
    outer loop
      vertex 58.5 -8 23.5
      vertex 58.56725151858869 -7.317183872943551 25.3
      vertex 58.56725151858869 -7.317183872943551 23.5
    endloop
  endfacet
  facet normal -0.9951847266721972 0.09801714032955686 2.6592787427604102e-18
    outer loop
      vertex 58.56725151858869 -7.317183872943551 25.3
      vertex 58.5 -8 23.5
      vertex 58.5 -8 25.3
    endloop
  endfacet
  facet normal -0.9951847266721972 -0.09801714032955673 -4.579326041391363e-19
    outer loop
      vertex 58.56725151858869 -8.68281612705645 23.5
      vertex 58.5 -8 25.3
      vertex 58.5 -8 23.5
    endloop
  endfacet
  facet normal -0.9951847266721972 -0.09801714032955673 -4.579326041391363e-19
    outer loop
      vertex 58.5 -8 25.3
      vertex 58.56725151858869 -8.68281612705645 23.5
      vertex 58.56725151858869 -8.68281612705645 25.3
    endloop
  endfacet
  facet normal -0.9569403357322083 -0.29028467725446444 7.847025102600582e-18
    outer loop
      vertex 58.766421636210495 -9.339392013277815 23.5
      vertex 58.56725151858869 -8.68281612705645 25.3
      vertex 58.56725151858869 -8.68281612705645 23.5
    endloop
  endfacet
  facet normal -0.9569403357322083 -0.29028467725446444 7.847025102600582e-18
    outer loop
      vertex 58.56725151858869 -8.68281612705645 25.3
      vertex 58.766421636210495 -9.339392013277815 23.5
      vertex 58.766421636210495 -9.339392013277815 25.3
    endloop
  endfacet
  facet normal -0.8819212643483546 -0.4713967368259983 -5.704028487216326e-18
    outer loop
      vertex 59.08985635694109 -9.944495815568608 23.5
      vertex 58.766421636210495 -9.339392013277815 25.3
      vertex 58.766421636210495 -9.339392013277815 23.5
    endloop
  endfacet
  facet normal -0.8819212643483546 -0.4713967368259983 -5.704028487216326e-18
    outer loop
      vertex 58.766421636210495 -9.339392013277815 25.3
      vertex 59.08985635694109 -9.944495815568608 23.5
      vertex 59.08985635694109 -9.944495815568608 25.3
    endloop
  endfacet
  facet normal -0.7730104533627357 -0.634393284163647 2.2460357360863588e-18
    outer loop
      vertex 59.525126265847085 -10.474873734152917 23.5
      vertex 59.08985635694109 -9.944495815568608 25.3
      vertex 59.08985635694109 -9.944495815568608 23.5
    endloop
  endfacet
  facet normal -0.7730104533627357 -0.634393284163647 2.2460357360863588e-18
    outer loop
      vertex 59.08985635694109 -9.944495815568608 25.3
      vertex 59.525126265847085 -10.474873734152917 23.5
      vertex 59.525126265847085 -10.474873734152917 25.3
    endloop
  endfacet
  facet normal -0.6343932841636468 -0.773010453362736 0
    outer loop
      vertex 59.525126265847085 -10.474873734152917 23.5
      vertex 60.05550418443139 -10.910143643058909 25.3
      vertex 59.525126265847085 -10.474873734152917 25.3
    endloop
  endfacet
  facet normal -0.6343932841636468 -0.773010453362736 0
    outer loop
      vertex 60.05550418443139 -10.910143643058909 25.3
      vertex 59.525126265847085 -10.474873734152917 23.5
      vertex 60.05550418443139 -10.910143643058909 23.5
    endloop
  endfacet
  facet normal -0.4713967368259973 -0.8819212643483552 0
    outer loop
      vertex 60.05550418443139 -10.910143643058909 23.5
      vertex 60.660607986722184 -11.233578363789503 25.3
      vertex 60.05550418443139 -10.910143643058909 25.3
    endloop
  endfacet
  facet normal -0.4713967368259973 -0.8819212643483552 0
    outer loop
      vertex 60.660607986722184 -11.233578363789503 25.3
      vertex 60.05550418443139 -10.910143643058909 23.5
      vertex 60.660607986722184 -11.233578363789503 23.5
    endloop
  endfacet
  facet normal -0.2902846772544606 -0.9569403357322094 0
    outer loop
      vertex 60.660607986722184 -11.233578363789503 23.5
      vertex 61.31718387294355 -11.432748481411306 25.3
      vertex 60.660607986722184 -11.233578363789503 25.3
    endloop
  endfacet
  facet normal -0.2902846772544606 -0.9569403357322094 0
    outer loop
      vertex 61.31718387294355 -11.432748481411306 25.3
      vertex 60.660607986722184 -11.233578363789503 23.5
      vertex 61.31718387294355 -11.432748481411306 23.5
    endloop
  endfacet
  facet normal -0.09801714032956214 -0.9951847266721968 0
    outer loop
      vertex 61.31718387294355 -11.432748481411306 23.5
      vertex 62 -11.5 25.3
      vertex 61.31718387294355 -11.432748481411306 25.3
    endloop
  endfacet
  facet normal -0.09801714032956214 -0.9951847266721968 0
    outer loop
      vertex 62 -11.5 25.3
      vertex 61.31718387294355 -11.432748481411306 23.5
      vertex 62 -11.5 23.5
    endloop
  endfacet
  facet normal 0.09801714032956214 -0.9951847266721968 0
    outer loop
      vertex 62 -11.5 23.5
      vertex 62.68281612705645 -11.432748481411306 25.3
      vertex 62 -11.5 25.3
    endloop
  endfacet
  facet normal 0.09801714032956214 -0.9951847266721968 0
    outer loop
      vertex 62.68281612705645 -11.432748481411306 25.3
      vertex 62 -11.5 23.5
      vertex 62.68281612705645 -11.432748481411306 23.5
    endloop
  endfacet
  facet normal 0.2902846772544606 -0.9569403357322094 0
    outer loop
      vertex 62.68281612705645 -11.432748481411306 23.5
      vertex 63.339392013277816 -11.233578363789503 25.3
      vertex 62.68281612705645 -11.432748481411306 25.3
    endloop
  endfacet
  facet normal 0.2902846772544606 -0.9569403357322094 0
    outer loop
      vertex 63.339392013277816 -11.233578363789503 25.3
      vertex 62.68281612705645 -11.432748481411306 23.5
      vertex 63.339392013277816 -11.233578363789503 23.5
    endloop
  endfacet
  facet normal 0.4713967368259973 -0.8819212643483552 0
    outer loop
      vertex 63.339392013277816 -11.233578363789503 23.5
      vertex 63.94449581556861 -10.910143643058909 25.3
      vertex 63.339392013277816 -11.233578363789503 25.3
    endloop
  endfacet
  facet normal 0.4713967368259973 -0.8819212643483552 0
    outer loop
      vertex 63.94449581556861 -10.910143643058909 25.3
      vertex 63.339392013277816 -11.233578363789503 23.5
      vertex 63.94449581556861 -10.910143643058909 23.5
    endloop
  endfacet
  facet normal 0.6343932841636417 -0.7730104533627402 0
    outer loop
      vertex 63.94449581556861 -10.910143643058909 23.5
      vertex 64.47487373415292 -10.474873734152917 25.3
      vertex 63.94449581556861 -10.910143643058909 25.3
    endloop
  endfacet
  facet normal 0.6343932841636417 -0.7730104533627402 0
    outer loop
      vertex 64.47487373415292 -10.474873734152917 25.3
      vertex 63.94449581556861 -10.910143643058909 23.5
      vertex 64.47487373415292 -10.474873734152917 23.5
    endloop
  endfacet
  facet normal 0.7730104533627458 -0.6343932841636346 7.788670387394861e-18
    outer loop
      vertex 64.47487373415292 -10.474873734152917 25.3
      vertex 64.9101436430589 -9.944495815568608 23.5
      vertex 64.9101436430589 -9.944495815568608 25.3
    endloop
  endfacet
  facet normal 0.7730104533627458 -0.6343932841636346 7.788670387394861e-18
    outer loop
      vertex 64.9101436430589 -9.944495815568608 23.5
      vertex 64.47487373415292 -10.474873734152917 25.3
      vertex 64.47487373415292 -10.474873734152917 23.5
    endloop
  endfacet
  facet normal 0.8819212643483504 -0.47139673682600636 3.604371880372028e-18
    outer loop
      vertex 64.9101436430589 -9.944495815568608 25.3
      vertex 65.2335783637895 -9.339392013277815 23.5
      vertex 65.2335783637895 -9.339392013277815 25.3
    endloop
  endfacet
  facet normal 0.8819212643483504 -0.47139673682600636 3.604371880372028e-18
    outer loop
      vertex 65.2335783637895 -9.339392013277815 23.5
      vertex 64.9101436430589 -9.944495815568608 25.3
      vertex 64.9101436430589 -9.944495815568608 23.5
    endloop
  endfacet
  facet normal 0.9569403357322083 -0.29028467725446444 -7.847025102600582e-18
    outer loop
      vertex 65.2335783637895 -9.339392013277815 25.3
      vertex 65.43274848141131 -8.68281612705645 23.5
      vertex 65.43274848141131 -8.68281612705645 25.3
    endloop
  endfacet
  facet normal 0.9569403357322083 -0.29028467725446444 -7.847025102600582e-18
    outer loop
      vertex 65.43274848141131 -8.68281612705645 23.5
      vertex 65.2335783637895 -9.339392013277815 25.3
      vertex 65.2335783637895 -9.339392013277815 23.5
    endloop
  endfacet
  facet normal 0.9951847266721972 -0.09801714032955673 4.579326041391363e-19
    outer loop
      vertex 65.43274848141131 -8.68281612705645 25.3
      vertex 65.5 -8 23.5
      vertex 65.5 -8 25.3
    endloop
  endfacet
  facet normal 0.9951847266721972 -0.09801714032955673 4.579326041391363e-19
    outer loop
      vertex 65.5 -8 23.5
      vertex 65.43274848141131 -8.68281612705645 25.3
      vertex 65.43274848141131 -8.68281612705645 23.5
    endloop
  endfacet
  facet normal 0 0 -1
    outer loop
      vertex 65.43274848141131 -8.68281612705645 23.5
      vertex 65.43274848141131 -7.317183872943551 23.5
      vertex 65.5 -8 23.5
    endloop
  endfacet
  facet normal 0 0 -1
    outer loop
      vertex 65.2335783637895 -9.339392013277815 23.5
      vertex 65.43274848141131 -7.317183872943551 23.5
      vertex 65.43274848141131 -8.68281612705645 23.5
    endloop
  endfacet
  facet normal 0 0 -1
    outer loop
      vertex 65.2335783637895 -9.339392013277815 23.5
      vertex 65.2335783637895 -6.6606079867221855 23.5
      vertex 65.43274848141131 -7.317183872943551 23.5
    endloop
  endfacet
  facet normal 0 0 -1
    outer loop
      vertex 64.9101436430589 -9.944495815568608 23.5
      vertex 65.2335783637895 -6.6606079867221855 23.5
      vertex 65.2335783637895 -9.339392013277815 23.5
    endloop
  endfacet
  facet normal 0 0 -1
    outer loop
      vertex 64.9101436430589 -9.944495815568608 23.5
      vertex 64.9101436430589 -6.055504184431392 23.5
      vertex 65.2335783637895 -6.6606079867221855 23.5
    endloop
  endfacet
  facet normal 0 0 -1
    outer loop
      vertex 64.47487373415292 -10.474873734152917 23.5
      vertex 64.9101436430589 -6.055504184431392 23.5
      vertex 64.9101436430589 -9.944495815568608 23.5
    endloop
  endfacet
  facet normal 0 0 -1
    outer loop
      vertex 64.47487373415292 -10.474873734152917 23.5
      vertex 64.47487373415292 -5.525126265847083 23.5
      vertex 64.9101436430589 -6.055504184431392 23.5
    endloop
  endfacet
  facet normal 0 0 -1
    outer loop
      vertex 63.94449581556861 -10.910143643058909 23.5
      vertex 64.47487373415292 -5.525126265847083 23.5
      vertex 64.47487373415292 -10.474873734152917 23.5
    endloop
  endfacet
  facet normal 0 0 -1
    outer loop
      vertex 63.94449581556861 -10.910143643058909 23.5
      vertex 63.94449581556861 -5.089856356941091 23.5
      vertex 64.47487373415292 -5.525126265847083 23.5
    endloop
  endfacet
  facet normal 0 0 -1
    outer loop
      vertex 63.339392013277816 -11.233578363789503 23.5
      vertex 63.94449581556861 -5.089856356941091 23.5
      vertex 63.94449581556861 -10.910143643058909 23.5
    endloop
  endfacet
  facet normal 0 0 -1
    outer loop
      vertex 63.339392013277816 -11.233578363789503 23.5
      vertex 63.339392013277816 -4.766421636210497 23.5
      vertex 63.94449581556861 -5.089856356941091 23.5
    endloop
  endfacet
  facet normal 0 0 -1
    outer loop
      vertex 62.68281612705645 -11.432748481411306 23.5
      vertex 63.339392013277816 -4.766421636210497 23.5
      vertex 63.339392013277816 -11.233578363789503 23.5
    endloop
  endfacet
  facet normal 0 0 -1
    outer loop
      vertex 62.68281612705645 -11.432748481411306 23.5
      vertex 62.68281612705645 -4.5672515185886935 23.5
      vertex 63.339392013277816 -4.766421636210497 23.5
    endloop
  endfacet
  facet normal 0 0 -1
    outer loop
      vertex 62 -11.5 23.5
      vertex 62.68281612705645 -4.5672515185886935 23.5
      vertex 62.68281612705645 -11.432748481411306 23.5
    endloop
  endfacet
  facet normal 0 0 -1
    outer loop
      vertex 62 -11.5 23.5
      vertex 62 -4.5 23.5
      vertex 62.68281612705645 -4.5672515185886935 23.5
    endloop
  endfacet
  facet normal 0 0 -1
    outer loop
      vertex 61.31718387294355 -11.432748481411306 23.5
      vertex 62 -4.5 23.5
      vertex 62 -11.5 23.5
    endloop
  endfacet
  facet normal 0 0 -1
    outer loop
      vertex 61.31718387294355 -11.432748481411306 23.5
      vertex 61.31718387294355 -4.5672515185886935 23.5
      vertex 62 -4.5 23.5
    endloop
  endfacet
  facet normal 0 0 -1
    outer loop
      vertex 60.660607986722184 -11.233578363789503 23.5
      vertex 61.31718387294355 -4.5672515185886935 23.5
      vertex 61.31718387294355 -11.432748481411306 23.5
    endloop
  endfacet
  facet normal 0 0 -1
    outer loop
      vertex 60.660607986722184 -11.233578363789503 23.5
      vertex 60.660607986722184 -4.766421636210497 23.5
      vertex 61.31718387294355 -4.5672515185886935 23.5
    endloop
  endfacet
  facet normal 0 0 -1
    outer loop
      vertex 60.05550418443139 -10.910143643058909 23.5
      vertex 60.660607986722184 -4.766421636210497 23.5
      vertex 60.660607986722184 -11.233578363789503 23.5
    endloop
  endfacet
  facet normal 0 0 -1
    outer loop
      vertex 60.05550418443139 -10.910143643058909 23.5
      vertex 60.05550418443139 -5.089856356941091 23.5
      vertex 60.660607986722184 -4.766421636210497 23.5
    endloop
  endfacet
  facet normal 0 0 -1
    outer loop
      vertex 59.525126265847085 -10.474873734152917 23.5
      vertex 60.05550418443139 -5.089856356941091 23.5
      vertex 60.05550418443139 -10.910143643058909 23.5
    endloop
  endfacet
  facet normal 0 0 -1
    outer loop
      vertex 59.525126265847085 -10.474873734152917 23.5
      vertex 59.525126265847085 -5.525126265847083 23.5
      vertex 60.05550418443139 -5.089856356941091 23.5
    endloop
  endfacet
  facet normal 0 0 -1
    outer loop
      vertex 59.08985635694109 -9.944495815568608 23.5
      vertex 59.525126265847085 -5.525126265847083 23.5
      vertex 59.525126265847085 -10.474873734152917 23.5
    endloop
  endfacet
  facet normal 0 0 -1
    outer loop
      vertex 59.08985635694109 -9.944495815568608 23.5
      vertex 59.08985635694109 -6.055504184431392 23.5
      vertex 59.525126265847085 -5.525126265847083 23.5
    endloop
  endfacet
  facet normal 0 0 -1
    outer loop
      vertex 58.766421636210495 -9.339392013277815 23.5
      vertex 59.08985635694109 -6.055504184431392 23.5
      vertex 59.08985635694109 -9.944495815568608 23.5
    endloop
  endfacet
  facet normal 0 0 -1
    outer loop
      vertex 58.766421636210495 -9.339392013277815 23.5
      vertex 58.766421636210495 -6.6606079867221855 23.5
      vertex 59.08985635694109 -6.055504184431392 23.5
    endloop
  endfacet
  facet normal 0 0 -1
    outer loop
      vertex 58.56725151858869 -8.68281612705645 23.5
      vertex 58.766421636210495 -6.6606079867221855 23.5
      vertex 58.766421636210495 -9.339392013277815 23.5
    endloop
  endfacet
  facet normal 0 0 -1
    outer loop
      vertex 58.56725151858869 -8.68281612705645 23.5
      vertex 58.56725151858869 -7.317183872943551 23.5
      vertex 58.766421636210495 -6.6606079867221855 23.5
    endloop
  endfacet
  facet normal 0 0 -1
    outer loop
      vertex 58.56725151858869 -7.317183872943551 23.5
      vertex 58.56725151858869 -8.68281612705645 23.5
      vertex 58.5 -8 23.5
    endloop
  endfacet
  facet normal 0 0 1
    outer loop
      vertex 65.43274848141131 -7.317183872943551 25.3
      vertex 65.43274848141131 -8.68281612705645 25.3
      vertex 65.5 -8 25.3
    endloop
  endfacet
  facet normal 0 0 1
    outer loop
      vertex 65.2335783637895 -6.6606079867221855 25.3
      vertex 65.43274848141131 -8.68281612705645 25.3
      vertex 65.43274848141131 -7.317183872943551 25.3
    endloop
  endfacet
  facet normal 0 0 1
    outer loop
      vertex 65.2335783637895 -6.6606079867221855 25.3
      vertex 65.2335783637895 -9.339392013277815 25.3
      vertex 65.43274848141131 -8.68281612705645 25.3
    endloop
  endfacet
  facet normal 0 0 1
    outer loop
      vertex 64.9101436430589 -6.055504184431392 25.3
      vertex 65.2335783637895 -9.339392013277815 25.3
      vertex 65.2335783637895 -6.6606079867221855 25.3
    endloop
  endfacet
  facet normal 0 0 1
    outer loop
      vertex 64.9101436430589 -6.055504184431392 25.3
      vertex 64.9101436430589 -9.944495815568608 25.3
      vertex 65.2335783637895 -9.339392013277815 25.3
    endloop
  endfacet
  facet normal 0 0 1
    outer loop
      vertex 64.47487373415292 -5.525126265847083 25.3
      vertex 64.9101436430589 -9.944495815568608 25.3
      vertex 64.9101436430589 -6.055504184431392 25.3
    endloop
  endfacet
  facet normal 0 0 1
    outer loop
      vertex 64.47487373415292 -5.525126265847083 25.3
      vertex 64.47487373415292 -10.474873734152917 25.3
      vertex 64.9101436430589 -9.944495815568608 25.3
    endloop
  endfacet
  facet normal 0 0 1
    outer loop
      vertex 63.94449581556861 -5.089856356941091 25.3
      vertex 64.47487373415292 -10.474873734152917 25.3
      vertex 64.47487373415292 -5.525126265847083 25.3
    endloop
  endfacet
  facet normal 0 0 1
    outer loop
      vertex 63.94449581556861 -5.089856356941091 25.3
      vertex 63.94449581556861 -10.910143643058909 25.3
      vertex 64.47487373415292 -10.474873734152917 25.3
    endloop
  endfacet
  facet normal 0 0 1
    outer loop
      vertex 63.339392013277816 -4.766421636210497 25.3
      vertex 63.94449581556861 -10.910143643058909 25.3
      vertex 63.94449581556861 -5.089856356941091 25.3
    endloop
  endfacet
  facet normal 0 0 1
    outer loop
      vertex 63.339392013277816 -4.766421636210497 25.3
      vertex 63.339392013277816 -11.233578363789503 25.3
      vertex 63.94449581556861 -10.910143643058909 25.3
    endloop
  endfacet
  facet normal 0 0 1
    outer loop
      vertex 62.68281612705645 -4.5672515185886935 25.3
      vertex 63.339392013277816 -11.233578363789503 25.3
      vertex 63.339392013277816 -4.766421636210497 25.3
    endloop
  endfacet
  facet normal 0 0 1
    outer loop
      vertex 62.68281612705645 -4.5672515185886935 25.3
      vertex 62.68281612705645 -11.432748481411306 25.3
      vertex 63.339392013277816 -11.233578363789503 25.3
    endloop
  endfacet
  facet normal 0 0 1
    outer loop
      vertex 62 -4.5 25.3
      vertex 62.68281612705645 -11.432748481411306 25.3
      vertex 62.68281612705645 -4.5672515185886935 25.3
    endloop
  endfacet
  facet normal 0 0 1
    outer loop
      vertex 62 -4.5 25.3
      vertex 62 -11.5 25.3
      vertex 62.68281612705645 -11.432748481411306 25.3
    endloop
  endfacet
  facet normal 0 0 1
    outer loop
      vertex 61.31718387294355 -4.5672515185886935 25.3
      vertex 62 -11.5 25.3
      vertex 62 -4.5 25.3
    endloop
  endfacet
  facet normal 0 0 1
    outer loop
      vertex 61.31718387294355 -4.5672515185886935 25.3
      vertex 61.31718387294355 -11.432748481411306 25.3
      vertex 62 -11.5 25.3
    endloop
  endfacet
  facet normal 0 0 1
    outer loop
      vertex 60.660607986722184 -4.766421636210497 25.3
      vertex 61.31718387294355 -11.432748481411306 25.3
      vertex 61.31718387294355 -4.5672515185886935 25.3
    endloop
  endfacet
  facet normal 0 0 1
    outer loop
      vertex 60.660607986722184 -4.766421636210497 25.3
      vertex 60.660607986722184 -11.233578363789503 25.3
      vertex 61.31718387294355 -11.432748481411306 25.3
    endloop
  endfacet
  facet normal 0 0 1
    outer loop
      vertex 60.05550418443139 -5.089856356941091 25.3
      vertex 60.660607986722184 -11.233578363789503 25.3
      vertex 60.660607986722184 -4.766421636210497 25.3
    endloop
  endfacet
  facet normal 0 0 1
    outer loop
      vertex 60.05550418443139 -5.089856356941091 25.3
      vertex 60.05550418443139 -10.910143643058909 25.3
      vertex 60.660607986722184 -11.233578363789503 25.3
    endloop
  endfacet
  facet normal 0 0 1
    outer loop
      vertex 59.525126265847085 -5.525126265847083 25.3
      vertex 60.05550418443139 -10.910143643058909 25.3
      vertex 60.05550418443139 -5.089856356941091 25.3
    endloop
  endfacet
  facet normal 0 0 1
    outer loop
      vertex 59.525126265847085 -5.525126265847083 25.3
      vertex 59.525126265847085 -10.474873734152917 25.3
      vertex 60.05550418443139 -10.910143643058909 25.3
    endloop
  endfacet
  facet normal 0 0 1
    outer loop
      vertex 59.08985635694109 -6.055504184431392 25.3
      vertex 59.525126265847085 -10.474873734152917 25.3
      vertex 59.525126265847085 -5.525126265847083 25.3
    endloop
  endfacet
  facet normal 0 0 1
    outer loop
      vertex 59.08985635694109 -6.055504184431392 25.3
      vertex 59.08985635694109 -9.944495815568608 25.3
      vertex 59.525126265847085 -10.474873734152917 25.3
    endloop
  endfacet
  facet normal 0 0 1
    outer loop
      vertex 58.766421636210495 -6.6606079867221855 25.3
      vertex 59.08985635694109 -9.944495815568608 25.3
      vertex 59.08985635694109 -6.055504184431392 25.3
    endloop
  endfacet
  facet normal 0 0 1
    outer loop
      vertex 58.766421636210495 -6.6606079867221855 25.3
      vertex 58.766421636210495 -9.339392013277815 25.3
      vertex 59.08985635694109 -9.944495815568608 25.3
    endloop
  endfacet
  facet normal 0 0 1
    outer loop
      vertex 58.56725151858869 -7.317183872943551 25.3
      vertex 58.766421636210495 -9.339392013277815 25.3
      vertex 58.766421636210495 -6.6606079867221855 25.3
    endloop
  endfacet
  facet normal 0 0 1
    outer loop
      vertex 58.56725151858869 -7.317183872943551 25.3
      vertex 58.56725151858869 -8.68281612705645 25.3
      vertex 58.766421636210495 -9.339392013277815 25.3
    endloop
  endfacet
  facet normal 0 0 1
    outer loop
      vertex 58.56725151858869 -8.68281612705645 25.3
      vertex 58.56725151858869 -7.317183872943551 25.3
      vertex 58.5 -8 25.3
    endloop
  endfacet
endsolid OpenSCAD_Model
