solid OpenSCAD_Model
  facet normal -0.9914448613738113 -0.13052619222004494 2.0431159668124548e-18
    outer loop
      vertex -74.69037019600587 -17.45293332892941 23.5
      vertex -74.75 -17 25.2
      vertex -74.75 -17 23.5
    endloop
  endfacet
  facet normal -0.9914448613738113 -0.13052619222004494 0
    outer loop
      vertex -74.69037019600587 -17.45293332892941 23.5
      vertex -74.69037019600587 -17.45293332892941 25.2
      vertex -74.75 -17 25.2
    endloop
  endfacet
  facet normal -0.9238795325112807 -0.38268343236510444 5.9599971152445184e-18
    outer loop
      vertex -74.51554445662276 -17.875 23.5
      vertex -74.69037019600587 -17.45293332892941 25.2
      vertex -74.69037019600587 -17.45293332892941 23.5
    endloop
  endfacet
  facet normal -0.9238795325112807 -0.38268343236510444 0
    outer loop
      vertex -74.51554445662276 -17.875 23.5
      vertex -74.51554445662276 -17.875 25.2
      vertex -74.69037019600587 -17.45293332892941 25.2
    endloop
  endfacet
  facet normal -0.793353340291235 -0.6087614290087208 -8.18611016739914e-19
    outer loop
      vertex -74.23743686707645 -18.237436867076458 23.5
      vertex -74.51554445662276 -17.875 25.2
      vertex -74.51554445662276 -17.875 23.5
    endloop
  endfacet
  facet normal -0.793353340291235 -0.6087614290087208 0
    outer loop
      vertex -74.23743686707645 -18.237436867076458 23.5
      vertex -74.23743686707645 -18.237436867076458 25.2
      vertex -74.51554445662276 -17.875 25.2
    endloop
  endfacet
  facet normal -0.6087614290087244 -0.7933533402912323 2.675588610485377e-18
    outer loop
      vertex -73.875 -18.515544456622766 23.5
      vertex -74.23743686707645 -18.237436867076458 25.2
      vertex -74.23743686707645 -18.237436867076458 23.5
    endloop
  endfacet
  facet normal -0.6087614290087244 -0.7933533402912323 0
    outer loop
      vertex -73.875 -18.515544456622766 23.5
      vertex -73.875 -18.515544456622766 25.2
      vertex -74.23743686707645 -18.237436867076458 25.2
    endloop
  endfacet
  facet normal -0.38268343236509667 -0.923879532511284 -1.028402139205996e-18
    outer loop
      vertex -73.45293332892942 -18.69037019600587 23.5
      vertex -73.875 -18.515544456622766 25.2
      vertex -73.875 -18.515544456622766 23.5
    endloop
  endfacet
  facet normal -0.38268343236509667 -0.923879532511284 0
    outer loop
      vertex -73.45293332892942 -18.69037019600587 23.5
      vertex -73.45293332892942 -18.69037019600587 25.2
      vertex -73.875 -18.515544456622766 25.2
    endloop
  endfacet
  facet normal -0.13052619222005057 -0.9914448613738105 -2.0916760435707102e-18
    outer loop
      vertex -73 -18.75 23.5
      vertex -73.45293332892942 -18.69037019600587 25.2
      vertex -73.45293332892942 -18.69037019600587 23.5
    endloop
  endfacet
  facet normal -0.13052619222005057 -0.9914448613738105 0
    outer loop
      vertex -73 -18.75 23.5
      vertex -73 -18.75 25.2
      vertex -73.45293332892942 -18.69037019600587 25.2
    endloop
  endfacet
  facet normal 0 -1 0
    outer loop
      vertex -67 -18.75 23.5
      vertex -73 -18.75 25.2
      vertex -73 -18.75 23.5
    endloop
  endfacet
  facet normal 0 -1 0
    outer loop
      vertex -67 -18.75 23.5
      vertex -67 -18.75 25.2
      vertex -73 -18.75 25.2
    endloop
  endfacet
  facet normal 0.13052619222005057 -0.9914448613738105 2.0916760435707102e-18
    outer loop
      vertex -66.54706667107058 -18.69037019600587 23.5
      vertex -67 -18.75 25.2
      vertex -67 -18.75 23.5
    endloop
  endfacet
  facet normal 0.13052619222005057 -0.9914448613738105 0
    outer loop
      vertex -66.54706667107058 -18.69037019600587 23.5
      vertex -66.54706667107058 -18.69037019600587 25.2
      vertex -67 -18.75 25.2
    endloop
  endfacet
  facet normal 0.38268343236509667 -0.923879532511284 1.028402139205996e-18
    outer loop
      vertex -66.125 -18.515544456622766 23.5
      vertex -66.54706667107058 -18.69037019600587 25.2
      vertex -66.54706667107058 -18.69037019600587 23.5
    endloop
  endfacet
  facet normal 0.38268343236509667 -0.923879532511284 0
    outer loop
      vertex -66.125 -18.515544456622766 23.5
      vertex -66.125 -18.515544456622766 25.2
      vertex -66.54706667107058 -18.69037019600587 25.2
    endloop
  endfacet
  facet normal 0.6087614290087244 -0.7933533402912323 -2.675588610485377e-18
    outer loop
      vertex -65.76256313292355 -18.237436867076458 23.5
      vertex -66.125 -18.515544456622766 25.2
      vertex -66.125 -18.515544456622766 23.5
    endloop
  endfacet
  facet normal 0.6087614290087244 -0.7933533402912323 0
    outer loop
      vertex -65.76256313292355 -18.237436867076458 23.5
      vertex -65.76256313292355 -18.237436867076458 25.2
      vertex -66.125 -18.515544456622766 25.2
    endloop
  endfacet
  facet normal 0.793353340291235 -0.6087614290087208 8.18611016739914e-19
    outer loop
      vertex -65.48445554337724 -17.875 23.5
      vertex -65.76256313292355 -18.237436867076458 25.2
      vertex -65.76256313292355 -18.237436867076458 23.5
    endloop
  endfacet
  facet normal 0.793353340291235 -0.6087614290087208 0
    outer loop
      vertex -65.48445554337724 -17.875 23.5
      vertex -65.48445554337724 -17.875 25.2
      vertex -65.76256313292355 -18.237436867076458 25.2
    endloop
  endfacet
  facet normal 0.9238795325112807 -0.38268343236510444 -5.9599971152445184e-18
    outer loop
      vertex -65.30962980399413 -17.45293332892941 23.5
      vertex -65.48445554337724 -17.875 25.2
      vertex -65.48445554337724 -17.875 23.5
    endloop
  endfacet
  facet normal 0.9238795325112807 -0.38268343236510444 0
    outer loop
      vertex -65.30962980399413 -17.45293332892941 23.5
      vertex -65.30962980399413 -17.45293332892941 25.2
      vertex -65.48445554337724 -17.875 25.2
    endloop
  endfacet
  facet normal 0.9914448613738113 -0.13052619222004494 -2.0431159668124548e-18
    outer loop
      vertex -65.25 -17 23.5
      vertex -65.30962980399413 -17.45293332892941 25.2
      vertex -65.30962980399413 -17.45293332892941 23.5
    endloop
  endfacet
  facet normal 0.9914448613738113 -0.13052619222004494 0
    outer loop
      vertex -65.25 -17 23.5
      vertex -65.25 -17 25.2
      vertex -65.30962980399413 -17.45293332892941 25.2
    endloop
  endfacet
  facet normal 0.9914448613738113 0.13052619222004494 2.0431159668124548e-18
    outer loop
      vertex -65.30962980399413 -16.54706667107059 23.5
      vertex -65.25 -17 25.2
      vertex -65.25 -17 23.5
    endloop
  endfacet
  facet normal 0.9914448613738113 0.13052619222004494 0
    outer loop
      vertex -65.30962980399413 -16.54706667107059 23.5
      vertex -65.30962980399413 -16.54706667107059 25.2
      vertex -65.25 -17 25.2
    endloop
  endfacet
  facet normal 0.9238795325112807 0.38268343236510444 5.9599971152445184e-18
    outer loop
      vertex -65.48445554337724 -16.125 23.5
      vertex -65.30962980399413 -16.54706667107059 25.2
      vertex -65.30962980399413 -16.54706667107059 23.5
    endloop
  endfacet
  facet normal 0.9238795325112807 0.38268343236510444 0
    outer loop
      vertex -65.48445554337724 -16.125 23.5
      vertex -65.48445554337724 -16.125 25.2
      vertex -65.30962980399413 -16.54706667107059 25.2
    endloop
  endfacet
  facet normal 0.793353340291235 0.6087614290087208 -8.18611016739914e-19
    outer loop
      vertex -65.76256313292355 -15.762563132923542 23.5
      vertex -65.48445554337724 -16.125 25.2
      vertex -65.48445554337724 -16.125 23.5
    endloop
  endfacet
  facet normal 0.793353340291235 0.6087614290087208 0
    outer loop
      vertex -65.76256313292355 -15.762563132923542 23.5
      vertex -65.76256313292355 -15.762563132923542 25.2
      vertex -65.48445554337724 -16.125 25.2
    endloop
  endfacet
  facet normal 0.6087614290087269 0.7933533402912303 -4.3276981719660135e-18
    outer loop
      vertex -66.125 -15.484455543377232 23.5
      vertex -65.76256313292355 -15.762563132923542 25.2
      vertex -65.76256313292355 -15.762563132923542 23.5
    endloop
  endfacet
  facet normal 0.6087614290087269 0.7933533402912303 0
    outer loop
      vertex -66.125 -15.484455543377232 23.5
      vertex -66.125 -15.484455543377232 25.2
      vertex -65.76256313292355 -15.762563132923542 25.2
    endloop
  endfacet
  facet normal 0.38268343236509333 0.9238795325112853 -5.9000052291654015e-19
    outer loop
      vertex -66.54706667107058 -15.309629803994131 23.5
      vertex -66.125 -15.484455543377232 25.2
      vertex -66.125 -15.484455543377232 23.5
    endloop
  endfacet
  facet normal 0.38268343236509333 0.9238795325112853 0
    outer loop
      vertex -66.54706667107058 -15.309629803994131 23.5
      vertex -66.54706667107058 -15.309629803994131 25.2
      vertex -66.125 -15.484455543377232 25.2
    endloop
  endfacet
  facet normal 0.13052619222005057 0.9914448613738105 -2.0916760435707102e-18
    outer loop
      vertex -67 -15.25 23.5
      vertex -66.54706667107058 -15.309629803994131 25.2
      vertex -66.54706667107058 -15.309629803994131 23.5
    endloop
  endfacet
  facet normal 0.13052619222005057 0.9914448613738105 0
    outer loop
      vertex -67 -15.25 23.5
      vertex -67 -15.25 25.2
      vertex -66.54706667107058 -15.309629803994131 25.2
    endloop
  endfacet
  facet normal 0 1 0
    outer loop
      vertex -73 -15.25 23.5
      vertex -67 -15.25 25.2
      vertex -67 -15.25 23.5
    endloop
  endfacet
  facet normal 0 1 0
    outer loop
      vertex -73 -15.25 23.5
      vertex -73 -15.25 25.2
      vertex -67 -15.25 25.2
    endloop
  endfacet
  facet normal -0.13052619222005057 0.9914448613738105 2.0916760435707102e-18
    outer loop
      vertex -73.45293332892942 -15.309629803994131 23.5
      vertex -73 -15.25 25.2
      vertex -73 -15.25 23.5
    endloop
  endfacet
  facet normal -0.13052619222005057 0.9914448613738105 0
    outer loop
      vertex -73.45293332892942 -15.309629803994131 23.5
      vertex -73.45293332892942 -15.309629803994131 25.2
      vertex -73 -15.25 25.2
    endloop
  endfacet
  facet normal -0.38268343236509333 0.9238795325112853 5.9000052291654015e-19
    outer loop
      vertex -73.875 -15.484455543377232 23.5
      vertex -73.45293332892942 -15.309629803994131 25.2
      vertex -73.45293332892942 -15.309629803994131 23.5
    endloop
  endfacet
  facet normal -0.38268343236509333 0.9238795325112853 0
    outer loop
      vertex -73.875 -15.484455543377232 23.5
      vertex -73.875 -15.484455543377232 25.2
      vertex -73.45293332892942 -15.309629803994131 25.2
    endloop
  endfacet
  facet normal -0.6087614290087269 0.7933533402912303 4.3276981719660135e-18
    outer loop
      vertex -74.23743686707645 -15.762563132923542 23.5
      vertex -73.875 -15.484455543377232 25.2
      vertex -73.875 -15.484455543377232 23.5
    endloop
  endfacet
  facet normal -0.6087614290087269 0.7933533402912303 0
    outer loop
      vertex -74.23743686707645 -15.762563132923542 23.5
      vertex -74.23743686707645 -15.762563132923542 25.2
      vertex -73.875 -15.484455543377232 25.2
    endloop
  endfacet
  facet normal -0.793353340291235 0.6087614290087208 8.18611016739914e-19
    outer loop
      vertex -74.51554445662276 -16.125 23.5
      vertex -74.23743686707645 -15.762563132923542 25.2
      vertex -74.23743686707645 -15.762563132923542 23.5
    endloop
  endfacet
  facet normal -0.793353340291235 0.6087614290087208 0
    outer loop
      vertex -74.51554445662276 -16.125 23.5
      vertex -74.51554445662276 -16.125 25.2
      vertex -74.23743686707645 -15.762563132923542 25.2
    endloop
  endfacet
  facet normal -0.9238795325112807 0.38268343236510444 -5.9599971152445184e-18
    outer loop
      vertex -74.69037019600587 -16.54706667107059 23.5
      vertex -74.51554445662276 -16.125 25.2
      vertex -74.51554445662276 -16.125 23.5
    endloop
  endfacet
  facet normal -0.9238795325112807 0.38268343236510444 0
    outer loop
      vertex -74.69037019600587 -16.54706667107059 23.5
      vertex -74.69037019600587 -16.54706667107059 25.2
      vertex -74.51554445662276 -16.125 25.2
    endloop
  endfacet
  facet normal -0.9914448613738113 0.13052619222004494 -2.0431159668124548e-18
    outer loop
      vertex -74.75 -17 23.5
      vertex -74.69037019600587 -16.54706667107059 25.2
      vertex -74.69037019600587 -16.54706667107059 23.5
    endloop
  endfacet
  facet normal -0.9914448613738113 0.13052619222004494 0
    outer loop
      vertex -74.75 -17 23.5
      vertex -74.75 -17 25.2
      vertex -74.69037019600587 -16.54706667107059 25.2
    endloop
  endfacet
  facet normal 0 0 -1
    outer loop
      vertex -74.69037019600587 -16.54706667107059 23.5
      vertex -74.69037019600587 -17.45293332892941 23.5
      vertex -74.75 -17 23.5
    endloop
  endfacet
  facet normal 0 0 -1
    outer loop
      vertex -74.69037019600587 -16.54706667107059 23.5
      vertex -74.51554445662276 -16.125 23.5
      vertex -74.69037019600587 -17.45293332892941 23.5
    endloop
  endfacet
  facet normal 0 0 -1
    outer loop
      vertex -74.51554445662276 -16.125 23.5
      vertex -74.51554445662276 -17.875 23.5
      vertex -74.69037019600587 -17.45293332892941 23.5
    endloop
  endfacet
  facet normal 0 0 -1
    outer loop
      vertex -74.51554445662276 -16.125 23.5
      vertex -74.23743686707645 -15.762563132923542 23.5
      vertex -74.51554445662276 -17.875 23.5
    endloop
  endfacet
  facet normal 0 0 -1
    outer loop
      vertex -74.23743686707645 -15.762563132923542 23.5
      vertex -74.23743686707645 -18.237436867076458 23.5
      vertex -74.51554445662276 -17.875 23.5
    endloop
  endfacet
  facet normal 0 0 -1
    outer loop
      vertex -74.23743686707645 -15.762563132923542 23.5
      vertex -73.875 -15.484455543377232 23.5
      vertex -74.23743686707645 -18.237436867076458 23.5
    endloop
  endfacet
  facet normal 0 0 -1
    outer loop
      vertex -73.875 -15.484455543377232 23.5
      vertex -73.875 -18.515544456622766 23.5
      vertex -74.23743686707645 -18.237436867076458 23.5
    endloop
  endfacet
  facet normal 0 0 -1
    outer loop
      vertex -73.875 -15.484455543377232 23.5
      vertex -73.45293332892942 -15.309629803994131 23.5
      vertex -73.875 -18.515544456622766 23.5
    endloop
  endfacet
  facet normal 0 0 -1
    outer loop
      vertex -73.45293332892942 -15.309629803994131 23.5
      vertex -73.45293332892942 -18.69037019600587 23.5
      vertex -73.875 -18.515544456622766 23.5
    endloop
  endfacet
  facet normal 0 0 -1
    outer loop
      vertex -73.45293332892942 -15.309629803994131 23.5
      vertex -73 -15.25 23.5
      vertex -73.45293332892942 -18.69037019600587 23.5
    endloop
  endfacet
  facet normal 0 0 -1
    outer loop
      vertex -73 -15.25 23.5
      vertex -73 -18.75 23.5
      vertex -73.45293332892942 -18.69037019600587 23.5
    endloop
  endfacet
  facet normal 0 0 -1
    outer loop
      vertex -73 -15.25 23.5
      vertex -67 -15.25 23.5
      vertex -73 -18.75 23.5
    endloop
  endfacet
  facet normal 0 0 -1
    outer loop
      vertex -67 -15.25 23.5
      vertex -67 -18.75 23.5
      vertex -73 -18.75 23.5
    endloop
  endfacet
  facet normal 0 0 -1
    outer loop
      vertex -67 -15.25 23.5
      vertex -66.54706667107058 -15.309629803994131 23.5
      vertex -67 -18.75 23.5
    endloop
  endfacet
  facet normal 0 0 -1
    outer loop
      vertex -66.54706667107058 -15.309629803994131 23.5
      vertex -66.54706667107058 -18.69037019600587 23.5
      vertex -67 -18.75 23.5
    endloop
  endfacet
  facet normal 0 0 -1
    outer loop
      vertex -66.54706667107058 -15.309629803994131 23.5
      vertex -66.125 -15.484455543377232 23.5
      vertex -66.54706667107058 -18.69037019600587 23.5
    endloop
  endfacet
  facet normal 0 0 -1
    outer loop
      vertex -66.125 -15.484455543377232 23.5
      vertex -66.125 -18.515544456622766 23.5
      vertex -66.54706667107058 -18.69037019600587 23.5
    endloop
  endfacet
  facet normal 0 0 -1
    outer loop
      vertex -66.125 -15.484455543377232 23.5
      vertex -65.76256313292355 -15.762563132923542 23.5
      vertex -66.125 -18.515544456622766 23.5
    endloop
  endfacet
  facet normal 0 0 -1
    outer loop
      vertex -65.76256313292355 -15.762563132923542 23.5
      vertex -65.76256313292355 -18.237436867076458 23.5
      vertex -66.125 -18.515544456622766 23.5
    endloop
  endfacet
  facet normal 0 0 -1
    outer loop
      vertex -65.76256313292355 -15.762563132923542 23.5
      vertex -65.48445554337724 -16.125 23.5
      vertex -65.76256313292355 -18.237436867076458 23.5
    endloop
  endfacet
  facet normal 0 0 -1
    outer loop
      vertex -65.48445554337724 -16.125 23.5
      vertex -65.48445554337724 -17.875 23.5
      vertex -65.76256313292355 -18.237436867076458 23.5
    endloop
  endfacet
  facet normal 0 0 -1
    outer loop
      vertex -65.48445554337724 -16.125 23.5
      vertex -65.30962980399413 -16.54706667107059 23.5
      vertex -65.48445554337724 -17.875 23.5
    endloop
  endfacet
  facet normal 0 0 -1
    outer loop
      vertex -65.30962980399413 -16.54706667107059 23.5
      vertex -65.30962980399413 -17.45293332892941 23.5
      vertex -65.48445554337724 -17.875 23.5
    endloop
  endfacet
  facet normal 0 0 -1
    outer loop
      vertex -65.30962980399413 -16.54706667107059 23.5
      vertex -65.25 -17 23.5
      vertex -65.30962980399413 -17.45293332892941 23.5
    endloop
  endfacet
  facet normal 0 0 1
    outer loop
      vertex -74.75 -17 25.2
      vertex -74.69037019600587 -17.45293332892941 25.2
      vertex -74.69037019600587 -16.54706667107059 25.2
    endloop
  endfacet
  facet normal 0 0 1
    outer loop
      vertex -74.69037019600587 -17.45293332892941 25.2
      vertex -74.51554445662276 -16.125 25.2
      vertex -74.69037019600587 -16.54706667107059 25.2
    endloop
  endfacet
  facet normal 0 0 1
    outer loop
      vertex -74.69037019600587 -17.45293332892941 25.2
      vertex -74.51554445662276 -17.875 25.2
      vertex -74.51554445662276 -16.125 25.2
    endloop
  endfacet
  facet normal 0 0 1
    outer loop
      vertex -74.51554445662276 -17.875 25.2
      vertex -74.23743686707645 -15.762563132923542 25.2
      vertex -74.51554445662276 -16.125 25.2
    endloop
  endfacet
  facet normal 0 0 1
    outer loop
      vertex -74.51554445662276 -17.875 25.2
      vertex -74.23743686707645 -18.237436867076458 25.2
      vertex -74.23743686707645 -15.762563132923542 25.2
    endloop
  endfacet
  facet normal 0 0 1
    outer loop
      vertex -74.23743686707645 -18.237436867076458 25.2
      vertex -73.875 -15.484455543377232 25.2
      vertex -74.23743686707645 -15.762563132923542 25.2
    endloop
  endfacet
  facet normal 0 0 1
    outer loop
      vertex -74.23743686707645 -18.237436867076458 25.2
      vertex -73.875 -18.515544456622766 25.2
      vertex -73.875 -15.484455543377232 25.2
    endloop
  endfacet
  facet normal 0 0 1
    outer loop
      vertex -73.875 -18.515544456622766 25.2
      vertex -73.45293332892942 -15.309629803994131 25.2
      vertex -73.875 -15.484455543377232 25.2
    endloop
  endfacet
  facet normal 0 0 1
    outer loop
      vertex -73.875 -18.515544456622766 25.2
      vertex -73.45293332892942 -18.69037019600587 25.2
      vertex -73.45293332892942 -15.309629803994131 25.2
    endloop
  endfacet
  facet normal 0 0 1
    outer loop
      vertex -73.45293332892942 -18.69037019600587 25.2
      vertex -73 -15.25 25.2
      vertex -73.45293332892942 -15.309629803994131 25.2
    endloop
  endfacet
  facet normal 0 0 1
    outer loop
      vertex -73.45293332892942 -18.69037019600587 25.2
      vertex -73 -18.75 25.2
      vertex -73 -15.25 25.2
    endloop
  endfacet
  facet normal 0 0 1
    outer loop
      vertex -73 -18.75 25.2
      vertex -67 -15.25 25.2
      vertex -73 -15.25 25.2
    endloop
  endfacet
  facet normal 0 0 1
    outer loop
      vertex -73 -18.75 25.2
      vertex -67 -18.75 25.2
      vertex -67 -15.25 25.2
    endloop
  endfacet
  facet normal 0 0 1
    outer loop
      vertex -67 -18.75 25.2
      vertex -66.54706667107058 -15.309629803994131 25.2
      vertex -67 -15.25 25.2
    endloop
  endfacet
  facet normal 0 0 1
    outer loop
      vertex -67 -18.75 25.2
      vertex -66.54706667107058 -18.69037019600587 25.2
      vertex -66.54706667107058 -15.309629803994131 25.2
    endloop
  endfacet
  facet normal 0 0 1
    outer loop
      vertex -66.54706667107058 -18.69037019600587 25.2
      vertex -66.125 -15.484455543377232 25.2
      vertex -66.54706667107058 -15.309629803994131 25.2
    endloop
  endfacet
  facet normal 0 0 1
    outer loop
      vertex -66.54706667107058 -18.69037019600587 25.2
      vertex -66.125 -18.515544456622766 25.2
      vertex -66.125 -15.484455543377232 25.2
    endloop
  endfacet
  facet normal 0 0 1
    outer loop
      vertex -66.125 -18.515544456622766 25.2
      vertex -65.76256313292355 -15.762563132923542 25.2
      vertex -66.125 -15.484455543377232 25.2
    endloop
  endfacet
  facet normal 0 0 1
    outer loop
      vertex -66.125 -18.515544456622766 25.2
      vertex -65.76256313292355 -18.237436867076458 25.2
      vertex -65.76256313292355 -15.762563132923542 25.2
    endloop
  endfacet
  facet normal 0 0 1
    outer loop
      vertex -65.76256313292355 -18.237436867076458 25.2
      vertex -65.48445554337724 -16.125 25.2
      vertex -65.76256313292355 -15.762563132923542 25.2
    endloop
  endfacet
  facet normal 0 0 1
    outer loop
      vertex -65.76256313292355 -18.237436867076458 25.2
      vertex -65.48445554337724 -17.875 25.2
      vertex -65.48445554337724 -16.125 25.2
    endloop
  endfacet
  facet normal 0 0 1
    outer loop
      vertex -65.48445554337724 -17.875 25.2
      vertex -65.30962980399413 -16.54706667107059 25.2
      vertex -65.48445554337724 -16.125 25.2
    endloop
  endfacet
  facet normal 0 0 1
    outer loop
      vertex -65.48445554337724 -17.875 25.2
      vertex -65.30962980399413 -17.45293332892941 25.2
      vertex -65.30962980399413 -16.54706667107059 25.2
    endloop
  endfacet
  facet normal 0 0 1
    outer loop
      vertex -65.30962980399413 -17.45293332892941 25.2
      vertex -65.25 -17 25.2
      vertex -65.30962980399413 -16.54706667107059 25.2
    endloop
  endfacet
endsolid OpenSCAD_Model
