solid OpenSCAD_Model
  facet normal -0.7730104533627459 -0.6343932841636347 0
    outer loop
      vertex 69.0898563569411 3.0555041844313924 25.3
      vertex 69.0898563569411 3.0555041844313924 23
      vertex 69.52512626584708 2.5251262658470837 23
    endloop
  endfacet
  facet normal -0.8819212643483503 -0.4713967368260066 0
    outer loop
      vertex 68.7664216362105 3.6606079867221855 25.3
      vertex 68.7664216362105 3.6606079867221855 23
      vertex 69.0898563569411 3.0555041844313924 23
    endloop
  endfacet
  facet normal -0.9951847266721972 -0.09801714032955686 0
    outer loop
      vertex 68.5 5 25.3
      vertex 68.5 5 23
      vertex 68.56725151858869 4.317183872943551 23
    endloop
  endfacet
  facet normal -0.9569403357322083 -0.29028467725446405 0
    outer loop
      vertex 68.56725151858869 4.317183872943551 25.3
      vertex 68.56725151858869 4.317183872943551 23
      vertex 68.7664216362105 3.6606079867221855 23
    endloop
  endfacet
  facet normal -0.8819212643483503 -0.4713967368260066 0
    outer loop
      vertex 69.0898563569411 3.0555041844313924 25.3
      vertex 68.7664216362105 3.6606079867221855 25.3
      vertex 69.0898563569411 3.0555041844313924 23
    endloop
  endfacet
  facet normal -0.9951847266721972 -0.09801714032955686 0
    outer loop
      vertex 68.56725151858869 4.317183872943551 25.3
      vertex 68.5 5 25.3
      vertex 68.56725151858869 4.317183872943551 23
    endloop
  endfacet
  facet normal -0.9569403357322083 -0.29028467725446405 0
    outer loop
      vertex 68.7664216362105 3.6606079867221855 25.3
      vertex 68.56725151858869 4.317183872943551 25.3
      vertex 68.7664216362105 3.6606079867221855 23
    endloop
  endfacet
  facet normal 0 0 1
    outer loop
      vertex 69.0898563569411 3.0555041844313924 25.3
      vertex 69.52512626584708 2.5251262658470837 25.3
      vertex 69.0898563569411 6.944495815568608 25.3
    endloop
  endfacet
  facet normal 0 0 1
    outer loop
      vertex 68.7664216362105 3.6606079867221855 25.3
      vertex 68.56725151858869 5.682816127056449 25.3
      vertex 68.56725151858869 4.317183872943551 25.3
    endloop
  endfacet
  facet normal 0 0 1
    outer loop
      vertex 69.0898563569411 3.0555041844313924 25.3
      vertex 68.7664216362105 6.3393920132778145 25.3
      vertex 68.7664216362105 3.6606079867221855 25.3
    endloop
  endfacet
  facet normal -0.6343932841636367 -0.7730104533627443 0
    outer loop
      vertex 70.0555041844314 2.0898563569410915 25.3
      vertex 69.52512626584708 2.5251262658470837 23
      vertex 70.0555041844314 2.0898563569410915 23
    endloop
  endfacet
  facet normal -0.47139673682600275 -0.8819212643483524 0
    outer loop
      vertex 70.66060798672218 1.7664216362104965 25.3
      vertex 70.0555041844314 2.0898563569410915 23
      vertex 70.66060798672218 1.7664216362104965 23
    endloop
  endfacet
  facet normal -0.29028467725446416 -0.9569403357322084 0
    outer loop
      vertex 71.31718387294354 1.5672515185886935 25.3
      vertex 70.66060798672218 1.7664216362104965 23
      vertex 71.31718387294354 1.5672515185886935 23
    endloop
  endfacet
  facet normal -0.09801714032955984 -0.9951847266721969 0
    outer loop
      vertex 72 1.5 25.3
      vertex 71.31718387294354 1.5672515185886935 23
      vertex 72 1.5 23
    endloop
  endfacet
  facet normal -0.47139673682600275 -0.8819212643483524 0
    outer loop
      vertex 70.0555041844314 2.0898563569410915 25.3
      vertex 70.0555041844314 2.0898563569410915 23
      vertex 70.66060798672218 1.7664216362104965 25.3
    endloop
  endfacet
  facet normal -0.29028467725446416 -0.9569403357322084 0
    outer loop
      vertex 70.66060798672218 1.7664216362104965 25.3
      vertex 70.66060798672218 1.7664216362104965 23
      vertex 71.31718387294354 1.5672515185886935 25.3
    endloop
  endfacet
  facet normal -0.09801714032955984 -0.9951847266721969 0
    outer loop
      vertex 71.31718387294354 1.5672515185886935 25.3
      vertex 71.31718387294354 1.5672515185886935 23
      vertex 72 1.5 25.3
    endloop
  endfacet
  facet normal -0.7730104533627459 -0.6343932841636347 0
    outer loop
      vertex 69.0898563569411 3.0555041844313924 25.3
      vertex 69.52512626584708 2.5251262658470837 23
      vertex 69.52512626584708 2.5251262658470837 25.3
    endloop
  endfacet
  facet normal -0.6343932841636367 -0.7730104533627443 0
    outer loop
      vertex 70.0555041844314 2.0898563569410915 25.3
      vertex 69.52512626584708 2.5251262658470837 25.3
      vertex 69.52512626584708 2.5251262658470837 23
    endloop
  endfacet
  facet normal 0 0 1
    outer loop
      vertex 70.0555041844314 2.0898563569410915 25.3
      vertex 69.52512626584708 7.474873734152917 25.3
      vertex 69.52512626584708 2.5251262658470837 25.3
    endloop
  endfacet
  facet normal 0 0 1
    outer loop
      vertex 70.0555041844314 2.0898563569410915 25.3
      vertex 70.66060798672218 1.7664216362104965 25.3
      vertex 70.0555041844314 7.910143643058909 25.3
    endloop
  endfacet
  facet normal 0 0 1
    outer loop
      vertex 70.66060798672218 1.7664216362104965 25.3
      vertex 71.31718387294354 1.5672515185886935 25.3
      vertex 70.66060798672218 8.233578363789503 25.3
    endloop
  endfacet
  facet normal 0 0 1
    outer loop
      vertex 71.31718387294354 1.5672515185886935 25.3
      vertex 72 1.5 25.3
      vertex 71.31718387294354 8.432748481411306 25.3
    endloop
  endfacet
  facet normal -0.9951847266721972 0.09801714032955686 0
    outer loop
      vertex 68.56725151858869 5.682816127056449 25.3
      vertex 68.56725151858869 5.682816127056449 23
      vertex 68.5 5 23
    endloop
  endfacet
  facet normal -0.9569403357322083 0.29028467725446405 0
    outer loop
      vertex 68.7664216362105 6.3393920132778145 25.3
      vertex 68.7664216362105 6.3393920132778145 23
      vertex 68.56725151858869 5.682816127056449 23
    endloop
  endfacet
  facet normal -0.8819212643483503 0.47139673682600636 0
    outer loop
      vertex 69.0898563569411 6.944495815568608 25.3
      vertex 69.0898563569411 6.944495815568608 23
      vertex 68.7664216362105 6.3393920132778145 23
    endloop
  endfacet
  facet normal -0.9951847266721972 0.09801714032955686 0
    outer loop
      vertex 68.5 5 25.3
      vertex 68.56725151858869 5.682816127056449 25.3
      vertex 68.5 5 23
    endloop
  endfacet
  facet normal -0.9569403357322083 0.29028467725446405 0
    outer loop
      vertex 68.56725151858869 5.682816127056449 25.3
      vertex 68.7664216362105 6.3393920132778145 25.3
      vertex 68.56725151858869 5.682816127056449 23
    endloop
  endfacet
  facet normal 0 0 1
    outer loop
      vertex 68.56725151858869 4.317183872943551 25.3
      vertex 68.56725151858869 5.682816127056449 25.3
      vertex 68.5 5 25.3
    endloop
  endfacet
  facet normal 0 0 1
    outer loop
      vertex 68.7664216362105 3.6606079867221855 25.3
      vertex 68.7664216362105 6.3393920132778145 25.3
      vertex 68.56725151858869 5.682816127056449 25.3
    endloop
  endfacet
  facet normal 0 0 1
    outer loop
      vertex 69.0898563569411 3.0555041844313924 25.3
      vertex 69.0898563569411 6.944495815568608 25.3
      vertex 68.7664216362105 6.3393920132778145 25.3
    endloop
  endfacet
  facet normal -0.8819212643483503 0.47139673682600636 0
    outer loop
      vertex 68.7664216362105 6.3393920132778145 25.3
      vertex 69.0898563569411 6.944495815568608 25.3
      vertex 68.7664216362105 6.3393920132778145 23
    endloop
  endfacet
  facet normal -0.7730104533627459 0.6343932841636347 0
    outer loop
      vertex 69.0898563569411 6.944495815568608 25.3
      vertex 69.52512626584708 7.474873734152917 25.3
      vertex 69.0898563569411 6.944495815568608 23
    endloop
  endfacet
  facet normal -0.7730104533627459 0.6343932841636347 0
    outer loop
      vertex 69.52512626584708 7.474873734152917 25.3
      vertex 69.52512626584708 7.474873734152917 23
      vertex 69.0898563569411 6.944495815568608 23
    endloop
  endfacet
  facet normal -0.6343932841636367 0.7730104533627443 0
    outer loop
      vertex 69.52512626584708 7.474873734152917 25.3
      vertex 70.0555041844314 7.910143643058909 23
      vertex 69.52512626584708 7.474873734152917 23
    endloop
  endfacet
  facet normal 0 0 1
    outer loop
      vertex 69.52512626584708 2.5251262658470837 25.3
      vertex 69.52512626584708 7.474873734152917 25.3
      vertex 69.0898563569411 6.944495815568608 25.3
    endloop
  endfacet
  facet normal 0 0 1
    outer loop
      vertex 70.0555041844314 2.0898563569410915 25.3
      vertex 70.0555041844314 7.910143643058909 25.3
      vertex 69.52512626584708 7.474873734152917 25.3
    endloop
  endfacet
  facet normal 0 0 1
    outer loop
      vertex 70.66060798672218 1.7664216362104965 25.3
      vertex 70.66060798672218 8.233578363789503 25.3
      vertex 70.0555041844314 7.910143643058909 25.3
    endloop
  endfacet
  facet normal 0 0 1
    outer loop
      vertex 71.31718387294354 1.5672515185886935 25.3
      vertex 71.31718387294354 8.432748481411306 25.3
      vertex 70.66060798672218 8.233578363789503 25.3
    endloop
  endfacet
  facet normal 0 0 1
    outer loop
      vertex 71.31718387294354 8.432748481411306 25.3
      vertex 72 1.5 25.3
      vertex 72 8.5 25.3
    endloop
  endfacet
  facet normal -0.4713967368260017 0.8819212643483529 0
    outer loop
      vertex 70.0555041844314 7.910143643058909 25.3
      vertex 70.66060798672218 8.233578363789503 23
      vertex 70.0555041844314 7.910143643058909 23
    endloop
  endfacet
  facet normal -0.2902846772544635 0.9569403357322085 0
    outer loop
      vertex 70.66060798672218 8.233578363789503 25.3
      vertex 71.31718387294354 8.432748481411306 23
      vertex 70.66060798672218 8.233578363789503 23
    endloop
  endfacet
  facet normal -0.09801714032956112 0.9951847266721969 0
    outer loop
      vertex 71.31718387294354 8.432748481411306 25.3
      vertex 72 8.5 23
      vertex 71.31718387294354 8.432748481411306 23
    endloop
  endfacet
  facet normal -0.6343932841636367 0.7730104533627443 0
    outer loop
      vertex 69.52512626584708 7.474873734152917 25.3
      vertex 70.0555041844314 7.910143643058909 25.3
      vertex 70.0555041844314 7.910143643058909 23
    endloop
  endfacet
  facet normal -0.4713967368260017 0.8819212643483529 0
    outer loop
      vertex 70.0555041844314 7.910143643058909 25.3
      vertex 70.66060798672218 8.233578363789503 25.3
      vertex 70.66060798672218 8.233578363789503 23
    endloop
  endfacet
  facet normal -0.2902846772544635 0.9569403357322085 0
    outer loop
      vertex 70.66060798672218 8.233578363789503 25.3
      vertex 71.31718387294354 8.432748481411306 25.3
      vertex 71.31718387294354 8.432748481411306 23
    endloop
  endfacet
  facet normal -0.09801714032956112 0.9951847266721969 0
    outer loop
      vertex 71.31718387294354 8.432748481411306 25.3
      vertex 72 8.5 25.3
      vertex 72 8.5 23
    endloop
  endfacet
  facet normal 0.09801714032955984 -0.9951847266721969 0
    outer loop
      vertex 72.68281612705646 1.5672515185886935 25.3
      vertex 72 1.5 23
      vertex 72.68281612705646 1.5672515185886935 23
    endloop
  endfacet
  facet normal 0.29028467725446416 -0.9569403357322084 0
    outer loop
      vertex 73.33939201327782 1.7664216362104965 25.3
      vertex 72.68281612705646 1.5672515185886935 23
      vertex 73.33939201327782 1.7664216362104965 23
    endloop
  endfacet
  facet normal 0.47139673682600275 -0.8819212643483524 0
    outer loop
      vertex 73.9444958155686 2.0898563569410915 25.3
      vertex 73.33939201327782 1.7664216362104965 23
      vertex 73.9444958155686 2.0898563569410915 23
    endloop
  endfacet
  facet normal 0.09801714032955984 -0.9951847266721969 0
    outer loop
      vertex 72 1.5 25.3
      vertex 72 1.5 23
      vertex 72.68281612705646 1.5672515185886935 25.3
    endloop
  endfacet
  facet normal 0.29028467725446416 -0.9569403357322084 0
    outer loop
      vertex 72.68281612705646 1.5672515185886935 25.3
      vertex 72.68281612705646 1.5672515185886935 23
      vertex 73.33939201327782 1.7664216362104965 25.3
    endloop
  endfacet
  facet normal 0.47139673682600275 -0.8819212643483524 0
    outer loop
      vertex 73.33939201327782 1.7664216362104965 25.3
      vertex 73.33939201327782 1.7664216362104965 23
      vertex 73.9444958155686 2.0898563569410915 25.3
    endloop
  endfacet
  facet normal 0.6343932841636367 -0.7730104533627443 0
    outer loop
      vertex 73.9444958155686 2.0898563569410915 25.3
      vertex 73.9444958155686 2.0898563569410915 23
      vertex 74.47487373415292 2.5251262658470837 25.3
    endloop
  endfacet
  facet normal 0.6343932841636367 -0.7730104533627443 0
    outer loop
      vertex 74.47487373415292 2.5251262658470837 25.3
      vertex 73.9444958155686 2.0898563569410915 23
      vertex 74.47487373415292 2.5251262658470837 23
    endloop
  endfacet
  facet normal 0.7730104533627459 -0.6343932841636347 0
    outer loop
      vertex 74.47487373415292 2.5251262658470837 25.3
      vertex 74.47487373415292 2.5251262658470837 23
      vertex 74.9101436430589 3.0555041844313924 23
    endloop
  endfacet
  facet normal 0 0 1
    outer loop
      vertex 72 1.5 25.3
      vertex 72.68281612705646 1.5672515185886935 25.3
      vertex 72 8.5 25.3
    endloop
  endfacet
  facet normal 0 0 1
    outer loop
      vertex 72.68281612705646 1.5672515185886935 25.3
      vertex 73.33939201327782 1.7664216362104965 25.3
      vertex 72.68281612705646 8.432748481411306 25.3
    endloop
  endfacet
  facet normal 0 0 1
    outer loop
      vertex 73.33939201327782 1.7664216362104965 25.3
      vertex 73.9444958155686 2.0898563569410915 25.3
      vertex 73.33939201327782 8.233578363789503 25.3
    endloop
  endfacet
  facet normal 0 0 1
    outer loop
      vertex 73.9444958155686 2.0898563569410915 25.3
      vertex 74.47487373415292 2.5251262658470837 25.3
      vertex 73.9444958155686 7.910143643058909 25.3
    endloop
  endfacet
  facet normal 0 0 1
    outer loop
      vertex 74.47487373415292 2.5251262658470837 25.3
      vertex 74.9101436430589 3.0555041844313924 25.3
      vertex 74.47487373415292 7.474873734152917 25.3
    endloop
  endfacet
  facet normal 0.8819212643483503 -0.4713967368260066 0
    outer loop
      vertex 74.9101436430589 3.0555041844313924 25.3
      vertex 74.9101436430589 3.0555041844313924 23
      vertex 75.2335783637895 3.6606079867221855 23
    endloop
  endfacet
  facet normal 0.9569403357322083 -0.29028467725446405 0
    outer loop
      vertex 75.2335783637895 3.6606079867221855 25.3
      vertex 75.2335783637895 3.6606079867221855 23
      vertex 75.43274848141131 4.317183872943551 23
    endloop
  endfacet
  facet normal 0.9951847266721972 -0.09801714032955686 0
    outer loop
      vertex 75.43274848141131 4.317183872943551 25.3
      vertex 75.43274848141131 4.317183872943551 23
      vertex 75.5 5 23
    endloop
  endfacet
  facet normal 0.7730104533627459 -0.6343932841636347 0
    outer loop
      vertex 74.47487373415292 2.5251262658470837 25.3
      vertex 74.9101436430589 3.0555041844313924 23
      vertex 74.9101436430589 3.0555041844313924 25.3
    endloop
  endfacet
  facet normal 0.8819212643483503 -0.4713967368260066 0
    outer loop
      vertex 74.9101436430589 3.0555041844313924 25.3
      vertex 75.2335783637895 3.6606079867221855 23
      vertex 75.2335783637895 3.6606079867221855 25.3
    endloop
  endfacet
  facet normal 0.9569403357322083 -0.29028467725446405 0
    outer loop
      vertex 75.2335783637895 3.6606079867221855 25.3
      vertex 75.43274848141131 4.317183872943551 23
      vertex 75.43274848141131 4.317183872943551 25.3
    endloop
  endfacet
  facet normal 0.9951847266721972 -0.09801714032955686 0
    outer loop
      vertex 75.43274848141131 4.317183872943551 25.3
      vertex 75.5 5 23
      vertex 75.5 5 25.3
    endloop
  endfacet
  facet normal 0 0 1
    outer loop
      vertex 74.9101436430589 3.0555041844313924 25.3
      vertex 75.2335783637895 3.6606079867221855 25.3
      vertex 74.9101436430589 6.944495815568608 25.3
    endloop
  endfacet
  facet normal 0 0 1
    outer loop
      vertex 75.2335783637895 3.6606079867221855 25.3
      vertex 75.43274848141131 4.317183872943551 25.3
      vertex 75.2335783637895 6.3393920132778145 25.3
    endloop
  endfacet
  facet normal 0 0 1
    outer loop
      vertex 72.68281612705646 1.5672515185886935 25.3
      vertex 72.68281612705646 8.432748481411306 25.3
      vertex 72 8.5 25.3
    endloop
  endfacet
  facet normal 0 0 1
    outer loop
      vertex 73.33939201327782 1.7664216362104965 25.3
      vertex 73.33939201327782 8.233578363789503 25.3
      vertex 72.68281612705646 8.432748481411306 25.3
    endloop
  endfacet
  facet normal 0 0 1
    outer loop
      vertex 73.9444958155686 2.0898563569410915 25.3
      vertex 73.9444958155686 7.910143643058909 25.3
      vertex 73.33939201327782 8.233578363789503 25.3
    endloop
  endfacet
  facet normal 0 0 1
    outer loop
      vertex 74.47487373415292 2.5251262658470837 25.3
      vertex 74.47487373415292 7.474873734152917 25.3
      vertex 73.9444958155686 7.910143643058909 25.3
    endloop
  endfacet
  facet normal 0.6343932841636367 0.7730104533627443 0
    outer loop
      vertex 74.47487373415292 7.474873734152917 25.3
      vertex 74.47487373415292 7.474873734152917 23
      vertex 73.9444958155686 7.910143643058909 25.3
    endloop
  endfacet
  facet normal 0.7730104533627459 0.6343932841636347 0
    outer loop
      vertex 74.47487373415292 7.474873734152917 25.3
      vertex 74.9101436430589 6.944495815568608 25.3
      vertex 74.47487373415292 7.474873734152917 23
    endloop
  endfacet
  facet normal 0.09801714032956112 0.9951847266721969 0
    outer loop
      vertex 72 8.5 25.3
      vertex 72.68281612705646 8.432748481411306 23
      vertex 72 8.5 23
    endloop
  endfacet
  facet normal 0.2902846772544635 0.9569403357322085 0
    outer loop
      vertex 72.68281612705646 8.432748481411306 25.3
      vertex 73.33939201327782 8.233578363789503 23
      vertex 72.68281612705646 8.432748481411306 23
    endloop
  endfacet
  facet normal 0.4713967368260017 0.8819212643483529 0
    outer loop
      vertex 73.33939201327782 8.233578363789503 25.3
      vertex 73.9444958155686 7.910143643058909 23
      vertex 73.33939201327782 8.233578363789503 23
    endloop
  endfacet
  facet normal 0.6343932841636367 0.7730104533627443 0
    outer loop
      vertex 73.9444958155686 7.910143643058909 25.3
      vertex 74.47487373415292 7.474873734152917 23
      vertex 73.9444958155686 7.910143643058909 23
    endloop
  endfacet
  facet normal 0.09801714032956112 0.9951847266721969 0
    outer loop
      vertex 72 8.5 25.3
      vertex 72.68281612705646 8.432748481411306 25.3
      vertex 72.68281612705646 8.432748481411306 23
    endloop
  endfacet
  facet normal 0.2902846772544635 0.9569403357322085 0
    outer loop
      vertex 72.68281612705646 8.432748481411306 25.3
      vertex 73.33939201327782 8.233578363789503 25.3
      vertex 73.33939201327782 8.233578363789503 23
    endloop
  endfacet
  facet normal 0.4713967368260017 0.8819212643483529 0
    outer loop
      vertex 73.33939201327782 8.233578363789503 25.3
      vertex 73.9444958155686 7.910143643058909 25.3
      vertex 73.9444958155686 7.910143643058909 23
    endloop
  endfacet
  facet normal 0.9569403357322083 0.29028467725446405 0
    outer loop
      vertex 75.43274848141131 5.682816127056449 25.3
      vertex 75.43274848141131 5.682816127056449 23
      vertex 75.2335783637895 6.3393920132778145 23
    endloop
  endfacet
  facet normal 0.9951847266721972 0.09801714032955686 0
    outer loop
      vertex 75.5 5 25.3
      vertex 75.5 5 23
      vertex 75.43274848141131 5.682816127056449 23
    endloop
  endfacet
  facet normal 0.8819212643483503 0.47139673682600636 0
    outer loop
      vertex 75.2335783637895 6.3393920132778145 25.3
      vertex 75.2335783637895 6.3393920132778145 23
      vertex 74.9101436430589 6.944495815568608 23
    endloop
  endfacet
  facet normal 0.7730104533627459 0.6343932841636347 0
    outer loop
      vertex 74.9101436430589 6.944495815568608 25.3
      vertex 74.9101436430589 6.944495815568608 23
      vertex 74.47487373415292 7.474873734152917 23
    endloop
  endfacet
  facet normal 0.9569403357322083 0.29028467725446405 0
    outer loop
      vertex 75.43274848141131 5.682816127056449 25.3
      vertex 75.2335783637895 6.3393920132778145 23
      vertex 75.2335783637895 6.3393920132778145 25.3
    endloop
  endfacet
  facet normal 0.9951847266721972 0.09801714032955686 0
    outer loop
      vertex 75.5 5 25.3
      vertex 75.43274848141131 5.682816127056449 23
      vertex 75.43274848141131 5.682816127056449 25.3
    endloop
  endfacet
  facet normal 0 0 1
    outer loop
      vertex 75.2335783637895 3.6606079867221855 25.3
      vertex 75.2335783637895 6.3393920132778145 25.3
      vertex 74.9101436430589 6.944495815568608 25.3
    endloop
  endfacet
  facet normal 0 0 1
    outer loop
      vertex 75.43274848141131 4.317183872943551 25.3
      vertex 75.43274848141131 5.682816127056449 25.3
      vertex 75.2335783637895 6.3393920132778145 25.3
    endloop
  endfacet
  facet normal 0 0 1
    outer loop
      vertex 74.9101436430589 3.0555041844313924 25.3
      vertex 74.9101436430589 6.944495815568608 25.3
      vertex 74.47487373415292 7.474873734152917 25.3
    endloop
  endfacet
  facet normal 0 0 1
    outer loop
      vertex 75.43274848141131 4.317183872943551 25.3
      vertex 75.5 5 25.3
      vertex 75.43274848141131 5.682816127056449 25.3
    endloop
  endfacet
  facet normal 0.8819212643483503 0.47139673682600636 0
    outer loop
      vertex 75.2335783637895 6.3393920132778145 25.3
      vertex 74.9101436430589 6.944495815568608 23
      vertex 74.9101436430589 6.944495815568608 25.3
    endloop
  endfacet
  facet normal -0.7730104533627385 -0.6343932841636436 0
    outer loop
      vertex 67.426917132336 1.944363718392188 22.2
      vertex 68.11091270347399 1.1109127034739883 22.2
      vertex 67.426917132336 1.944363718392188 23
    endloop
  endfacet
  facet normal -0.6343932841636464 -0.7730104533627362 0
    outer loop
      vertex 68.94436371839218 0.42691713233600126 22.2
      vertex 68.94436371839218 0.42691713233600126 23
      vertex 68.11091270347399 1.1109127034739883 22.2
    endloop
  endfacet
  facet normal -0.7730104533627385 -0.6343932841636436 0
    outer loop
      vertex 68.11091270347399 1.1109127034739883 22.2
      vertex 68.11091270347399 1.1109127034739883 23
      vertex 67.426917132336 1.944363718392188 23
    endloop
  endfacet
  facet normal -0.6343932841636464 -0.7730104533627362 0
    outer loop
      vertex 68.11091270347399 1.1109127034739883 22.2
      vertex 68.94436371839218 0.42691713233600126 23
      vertex 68.11091270347399 1.1109127034739883 23
    endloop
  endfacet
  facet normal -0.881921264348355 -0.47139673682599764 0
    outer loop
      vertex 67.426917132336 1.944363718392188 22.2
      vertex 66.91866257118792 2.8952411219920062 23
      vertex 66.91866257118792 2.8952411219920062 22.2
    endloop
  endfacet
  facet normal -0.9569403357322073 -0.29028467725446777 0
    outer loop
      vertex 66.91866257118792 2.8952411219920062 22.2
      vertex 66.91866257118792 2.8952411219920062 23
      vertex 66.60568095778223 3.9270032289112944 23
    endloop
  endfacet
  facet normal -0.9569403357322073 -0.29028467725446777 0
    outer loop
      vertex 66.91866257118792 2.8952411219920062 22.2
      vertex 66.60568095778223 3.9270032289112944 23
      vertex 66.60568095778223 3.9270032289112944 22.2
    endloop
  endfacet
  facet normal -0.881921264348355 -0.47139673682599764 0
    outer loop
      vertex 67.426917132336 1.944363718392188 22.2
      vertex 67.426917132336 1.944363718392188 23
      vertex 66.91866257118792 2.8952411219920062 23
    endloop
  endfacet
  facet normal -0.9951847266721974 -0.09801714032955497 0
    outer loop
      vertex 66.60568095778223 3.9270032289112944 22.2
      vertex 66.60568095778223 3.9270032289112944 23
      vertex 66.5 5 23
    endloop
  endfacet
  facet normal 0 0 -1
    outer loop
      vertex 66.91866257118792 2.8952411219920062 22.2
      vertex 66.60568095778223 3.9270032289112944 22.2
      vertex 66.91866257118792 7.104758878007994 22.2
    endloop
  endfacet
  facet normal -0.9951847266721974 -0.09801714032955497 0
    outer loop
      vertex 66.60568095778223 3.9270032289112944 22.2
      vertex 66.5 5 23
      vertex 66.5 5 22.2
    endloop
  endfacet
  facet normal 0 0 -1
    outer loop
      vertex 67.426917132336 1.944363718392188 22.2
      vertex 66.91866257118792 2.8952411219920062 22.2
      vertex 67.426917132336 8.055636281607812 22.2
    endloop
  endfacet
  facet normal 0 0 -1
    outer loop
      vertex 67.426917132336 1.944363718392188 22.2
      vertex 68.11091270347399 8.88908729652601 22.2
      vertex 68.11091270347399 1.1109127034739883 22.2
    endloop
  endfacet
  facet normal 0 0 -1
    outer loop
      vertex 68.94436371839218 0.42691713233600126 22.2
      vertex 68.11091270347399 1.1109127034739883 22.2
      vertex 68.94436371839218 9.573082867663999 22.2
    endloop
  endfacet
  facet normal -0.4713967368259975 -0.881921264348355 0
    outer loop
      vertex 68.94436371839218 0.42691713233600126 22.2
      vertex 69.895241121992 -0.08133742881207695 22.2
      vertex 69.895241121992 -0.08133742881207695 23
    endloop
  endfacet
  facet normal -0.4713967368259975 -0.881921264348355 0
    outer loop
      vertex 68.94436371839218 0.42691713233600126 22.2
      vertex 69.895241121992 -0.08133742881207695 23
      vertex 68.94436371839218 0.42691713233600126 23
    endloop
  endfacet
  facet normal -0.2902846772544625 -0.9569403357322088 0
    outer loop
      vertex 69.895241121992 -0.08133742881207695 22.2
      vertex 70.92700322891129 -0.39431904221776737 23
      vertex 69.895241121992 -0.08133742881207695 23
    endloop
  endfacet
  facet normal -0.2902846772544625 -0.9569403357322088 0
    outer loop
      vertex 69.895241121992 -0.08133742881207695 22.2
      vertex 70.92700322891129 -0.39431904221776737 22.2
      vertex 70.92700322891129 -0.39431904221776737 23
    endloop
  endfacet
  facet normal -0.0980171403295602 -0.9951847266721969 0
    outer loop
      vertex 70.92700322891129 -0.39431904221776737 22.2
      vertex 72 -0.5 23
      vertex 70.92700322891129 -0.39431904221776737 23
    endloop
  endfacet
  facet normal -0.0980171403295602 -0.9951847266721969 0
    outer loop
      vertex 70.92700322891129 -0.39431904221776737 22.2
      vertex 72 -0.5 22.2
      vertex 72 -0.5 23
    endloop
  endfacet
  facet normal 0 0 -1
    outer loop
      vertex 70.92700322891129 -0.39431904221776737 22.2
      vertex 72 4 22.2
      vertex 72 -0.5 22.2
    endloop
  endfacet
  facet normal 0 0 -1
    outer loop
      vertex 68.94436371839218 0.42691713233600126 22.2
      vertex 69.895241121992 10.081337428812077 22.2
      vertex 69.895241121992 -0.08133742881207695 22.2
    endloop
  endfacet
  facet normal 0 0 -1
    outer loop
      vertex 69.895241121992 -0.08133742881207695 22.2
      vertex 70.92700322891129 10.394319042217766 22.2
      vertex 70.92700322891129 -0.39431904221776737 22.2
    endloop
  endfacet
  facet normal 0 0 -1
    outer loop
      vertex 70.92700322891129 -0.39431904221776737 22.2
      vertex 71.0761204674887 4.61731656763491 22.2
      vertex 71.29289321881345 4.292893218813452 22.2
    endloop
  endfacet
  facet normal 0 0 -1
    outer loop
      vertex 70.92700322891129 -0.39431904221776737 22.2
      vertex 71.29289321881345 4.292893218813452 22.2
      vertex 71.61731656763492 4.076120467488713 22.2
    endloop
  endfacet
  facet normal 0 0 -1
    outer loop
      vertex 70.92700322891129 -0.39431904221776737 22.2
      vertex 71 5 22.2
      vertex 71.0761204674887 4.61731656763491 22.2
    endloop
  endfacet
  facet normal 0 0 -1
    outer loop
      vertex 70.92700322891129 -0.39431904221776737 22.2
      vertex 71.61731656763492 4.076120467488713 22.2
      vertex 72 4 22.2
    endloop
  endfacet
  facet normal 0 0 1
    outer loop
      vertex 68.94436371839218 0.42691713233600126 23
      vertex 69.52512626584708 2.5251262658470837 23
      vertex 69.0898563569411 3.0555041844313924 23
    endloop
  endfacet
  facet normal 0 0 1
    outer loop
      vertex 66.91866257118792 2.8952411219920062 23
      vertex 66.60568095778223 6.072996771088706 23
      vertex 66.60568095778223 3.9270032289112944 23
    endloop
  endfacet
  facet normal 0 0 1
    outer loop
      vertex 67.426917132336 1.944363718392188 23
      vertex 66.91866257118792 7.104758878007994 23
      vertex 66.91866257118792 2.8952411219920062 23
    endloop
  endfacet
  facet normal 0 0 1
    outer loop
      vertex 67.426917132336 1.944363718392188 23
      vertex 68.11091270347399 1.1109127034739883 23
      vertex 67.426917132336 8.055636281607812 23
    endloop
  endfacet
  facet normal 0 0 1
    outer loop
      vertex 68.94436371839218 0.42691713233600126 23
      vertex 68.11091270347399 8.88908729652601 23
      vertex 68.11091270347399 1.1109127034739883 23
    endloop
  endfacet
  facet normal 0 0 1
    outer loop
      vertex 68.94436371839218 0.42691713233600126 23
      vertex 68.7664216362105 3.6606079867221855 23
      vertex 68.56725151858869 4.317183872943551 23
    endloop
  endfacet
  facet normal 0 0 1
    outer loop
      vertex 68.94436371839218 0.42691713233600126 23
      vertex 69.0898563569411 3.0555041844313924 23
      vertex 68.7664216362105 3.6606079867221855 23
    endloop
  endfacet
  facet normal 0 0 1
    outer loop
      vertex 68.94436371839218 0.42691713233600126 23
      vertex 68.56725151858869 4.317183872943551 23
      vertex 68.11091270347399 8.88908729652601 23
    endloop
  endfacet
  facet normal 0 0 1
    outer loop
      vertex 68.94436371839218 0.42691713233600126 23
      vertex 69.895241121992 -0.08133742881207695 23
      vertex 70.0555041844314 2.0898563569410915 23
    endloop
  endfacet
  facet normal 0 0 1
    outer loop
      vertex 68.94436371839218 0.42691713233600126 23
      vertex 70.0555041844314 2.0898563569410915 23
      vertex 69.52512626584708 2.5251262658470837 23
    endloop
  endfacet
  facet normal 0 0 1
    outer loop
      vertex 69.895241121992 -0.08133742881207695 23
      vertex 70.66060798672218 1.7664216362104965 23
      vertex 70.0555041844314 2.0898563569410915 23
    endloop
  endfacet
  facet normal 0 0 1
    outer loop
      vertex 69.895241121992 -0.08133742881207695 23
      vertex 71.31718387294354 1.5672515185886935 23
      vertex 70.66060798672218 1.7664216362104965 23
    endloop
  endfacet
  facet normal 0 0 1
    outer loop
      vertex 69.895241121992 -0.08133742881207695 23
      vertex 70.92700322891129 -0.39431904221776737 23
      vertex 71.31718387294354 1.5672515185886935 23
    endloop
  endfacet
  facet normal 0 0 1
    outer loop
      vertex 70.92700322891129 -0.39431904221776737 23
      vertex 72 -0.5 23
      vertex 72 1.5 23
    endloop
  endfacet
  facet normal 0 0 1
    outer loop
      vertex 70.92700322891129 -0.39431904221776737 23
      vertex 72 1.5 23
      vertex 71.31718387294354 1.5672515185886935 23
    endloop
  endfacet
  facet normal 0 0 -1
    outer loop
      vertex 66.60568095778223 3.9270032289112944 22.2
      vertex 66.5 5 22.2
      vertex 66.60568095778223 6.072996771088706 22.2
    endloop
  endfacet
  facet normal -0.9951847266721974 0.09801714032955497 0
    outer loop
      vertex 66.5 5 22.2
      vertex 66.5 5 23
      vertex 66.60568095778223 6.072996771088706 23
    endloop
  endfacet
  facet normal 0 0 -1
    outer loop
      vertex 66.60568095778223 3.9270032289112944 22.2
      vertex 66.60568095778223 6.072996771088706 22.2
      vertex 66.91866257118792 7.104758878007994 22.2
    endloop
  endfacet
  facet normal 0 0 -1
    outer loop
      vertex 66.91866257118792 2.8952411219920062 22.2
      vertex 66.91866257118792 7.104758878007994 22.2
      vertex 67.426917132336 8.055636281607812 22.2
    endloop
  endfacet
  facet normal -0.9951847266721974 0.09801714032955497 0
    outer loop
      vertex 66.5 5 22.2
      vertex 66.60568095778223 6.072996771088706 23
      vertex 66.60568095778223 6.072996771088706 22.2
    endloop
  endfacet
  facet normal 0 0 -1
    outer loop
      vertex 67.426917132336 1.944363718392188 22.2
      vertex 67.426917132336 8.055636281607812 22.2
      vertex 68.11091270347399 8.88908729652601 22.2
    endloop
  endfacet
  facet normal -0.9569403357322073 0.29028467725446777 0
    outer loop
      vertex 66.60568095778223 6.072996771088706 22.2
      vertex 66.60568095778223 6.072996771088706 23
      vertex 66.91866257118792 7.104758878007994 23
    endloop
  endfacet
  facet normal -0.9569403357322073 0.29028467725446777 0
    outer loop
      vertex 66.60568095778223 6.072996771088706 22.2
      vertex 66.91866257118792 7.104758878007994 23
      vertex 66.91866257118792 7.104758878007994 22.2
    endloop
  endfacet
  facet normal -0.881921264348355 0.4713967368259975 0
    outer loop
      vertex 66.91866257118792 7.104758878007994 22.2
      vertex 66.91866257118792 7.104758878007994 23
      vertex 67.426917132336 8.055636281607812 23
    endloop
  endfacet
  facet normal -0.881921264348355 0.4713967368259975 0
    outer loop
      vertex 66.91866257118792 7.104758878007994 22.2
      vertex 67.426917132336 8.055636281607812 23
      vertex 67.426917132336 8.055636281607812 22.2
    endloop
  endfacet
  facet normal 0 0 -1
    outer loop
      vertex 68.11091270347399 1.1109127034739883 22.2
      vertex 68.11091270347399 8.88908729652601 22.2
      vertex 68.94436371839218 9.573082867663999 22.2
    endloop
  endfacet
  facet normal -0.7730104533627381 0.6343932841636443 0
    outer loop
      vertex 67.426917132336 8.055636281607812 22.2
      vertex 67.426917132336 8.055636281607812 23
      vertex 68.11091270347399 8.88908729652601 23
    endloop
  endfacet
  facet normal -0.7730104533627381 0.6343932841636443 0
    outer loop
      vertex 67.426917132336 8.055636281607812 22.2
      vertex 68.11091270347399 8.88908729652601 23
      vertex 68.11091270347399 8.88908729652601 22.2
    endloop
  endfacet
  facet normal -0.6343932841636469 0.7730104533627358 0
    outer loop
      vertex 68.11091270347399 8.88908729652601 22.2
      vertex 68.11091270347399 8.88908729652601 23
      vertex 68.94436371839218 9.573082867663999 22.2
    endloop
  endfacet
  facet normal -0.6343932841636469 0.7730104533627358 0
    outer loop
      vertex 68.94436371839218 9.573082867663999 22.2
      vertex 68.11091270347399 8.88908729652601 23
      vertex 68.94436371839218 9.573082867663999 23
    endloop
  endfacet
  facet normal 0 0 -1
    outer loop
      vertex 68.94436371839218 0.42691713233600126 22.2
      vertex 68.94436371839218 9.573082867663999 22.2
      vertex 69.895241121992 10.081337428812077 22.2
    endloop
  endfacet
  facet normal 0 0 -1
    outer loop
      vertex 69.895241121992 -0.08133742881207695 22.2
      vertex 69.895241121992 10.081337428812077 22.2
      vertex 70.92700322891129 10.394319042217766 22.2
    endloop
  endfacet
  facet normal 0 0 -1
    outer loop
      vertex 70.92700322891129 -0.39431904221776737 22.2
      vertex 70.92700322891129 10.394319042217766 22.2
      vertex 71 5 22.2
    endloop
  endfacet
  facet normal 0 0 -1
    outer loop
      vertex 70.92700322891129 10.394319042217766 22.2
      vertex 71.0761204674887 5.38268343236509 22.2
      vertex 71 5 22.2
    endloop
  endfacet
  facet normal 0 0 -1
    outer loop
      vertex 70.92700322891129 10.394319042217766 22.2
      vertex 71.29289321881345 5.707106781186548 22.2
      vertex 71.0761204674887 5.38268343236509 22.2
    endloop
  endfacet
  facet normal 0 0 -1
    outer loop
      vertex 70.92700322891129 10.394319042217766 22.2
      vertex 71.61731656763492 5.923879532511287 22.2
      vertex 71.29289321881345 5.707106781186548 22.2
    endloop
  endfacet
  facet normal 0 0 -1
    outer loop
      vertex 72 10.5 22.2
      vertex 72 6 22.2
      vertex 71.61731656763492 5.923879532511287 22.2
    endloop
  endfacet
  facet normal -0.4713967368259975 0.881921264348355 0
    outer loop
      vertex 68.94436371839218 9.573082867663999 22.2
      vertex 68.94436371839218 9.573082867663999 23
      vertex 69.895241121992 10.081337428812077 22.2
    endloop
  endfacet
  facet normal -0.4713967368259975 0.881921264348355 0
    outer loop
      vertex 69.895241121992 10.081337428812077 22.2
      vertex 68.94436371839218 9.573082867663999 23
      vertex 69.895241121992 10.081337428812077 23
    endloop
  endfacet
  facet normal -0.2902846772544617 0.956940335732209 0
    outer loop
      vertex 69.895241121992 10.081337428812077 22.2
      vertex 69.895241121992 10.081337428812077 23
      vertex 70.92700322891129 10.394319042217766 22.2
    endloop
  endfacet
  facet normal -0.2902846772544617 0.956940335732209 0
    outer loop
      vertex 70.92700322891129 10.394319042217766 22.2
      vertex 69.895241121992 10.081337428812077 23
      vertex 70.92700322891129 10.394319042217766 23
    endloop
  endfacet
  facet normal 0 0 -1
    outer loop
      vertex 70.92700322891129 10.394319042217766 22.2
      vertex 72 10.5 22.2
      vertex 71.61731656763492 5.923879532511287 22.2
    endloop
  endfacet
  facet normal -0.09801714032956102 0.9951847266721968 0
    outer loop
      vertex 70.92700322891129 10.394319042217766 22.2
      vertex 70.92700322891129 10.394319042217766 23
      vertex 72 10.5 22.2
    endloop
  endfacet
  facet normal -0.09801714032956102 0.9951847266721968 0
    outer loop
      vertex 70.92700322891129 10.394319042217766 23
      vertex 72 10.5 23
      vertex 72 10.5 22.2
    endloop
  endfacet
  facet normal 0 0 1
    outer loop
      vertex 66.60568095778223 3.9270032289112944 23
      vertex 66.60568095778223 6.072996771088706 23
      vertex 66.5 5 23
    endloop
  endfacet
  facet normal 0 0 1
    outer loop
      vertex 66.91866257118792 2.8952411219920062 23
      vertex 66.91866257118792 7.104758878007994 23
      vertex 66.60568095778223 6.072996771088706 23
    endloop
  endfacet
  facet normal 0 0 1
    outer loop
      vertex 67.426917132336 1.944363718392188 23
      vertex 67.426917132336 8.055636281607812 23
      vertex 66.91866257118792 7.104758878007994 23
    endloop
  endfacet
  facet normal 0 0 1
    outer loop
      vertex 68.11091270347399 1.1109127034739883 23
      vertex 68.11091270347399 8.88908729652601 23
      vertex 67.426917132336 8.055636281607812 23
    endloop
  endfacet
  facet normal 0 0 1
    outer loop
      vertex 68.11091270347399 8.88908729652601 23
      vertex 68.56725151858869 4.317183872943551 23
      vertex 68.5 5 23
    endloop
  endfacet
  facet normal 0 0 1
    outer loop
      vertex 68.11091270347399 8.88908729652601 23
      vertex 68.5 5 23
      vertex 68.56725151858869 5.682816127056449 23
    endloop
  endfacet
  facet normal 0 0 1
    outer loop
      vertex 68.11091270347399 8.88908729652601 23
      vertex 68.56725151858869 5.682816127056449 23
      vertex 68.7664216362105 6.3393920132778145 23
    endloop
  endfacet
  facet normal 0 0 1
    outer loop
      vertex 68.94436371839218 9.573082867663999 23
      vertex 68.7664216362105 6.3393920132778145 23
      vertex 69.0898563569411 6.944495815568608 23
    endloop
  endfacet
  facet normal 0 0 1
    outer loop
      vertex 68.11091270347399 8.88908729652601 23
      vertex 68.7664216362105 6.3393920132778145 23
      vertex 68.94436371839218 9.573082867663999 23
    endloop
  endfacet
  facet normal 0 0 1
    outer loop
      vertex 68.94436371839218 9.573082867663999 23
      vertex 69.0898563569411 6.944495815568608 23
      vertex 69.52512626584708 7.474873734152917 23
    endloop
  endfacet
  facet normal 0 0 1
    outer loop
      vertex 68.94436371839218 9.573082867663999 23
      vertex 69.52512626584708 7.474873734152917 23
      vertex 69.895241121992 10.081337428812077 23
    endloop
  endfacet
  facet normal 0 0 1
    outer loop
      vertex 69.895241121992 10.081337428812077 23
      vertex 69.52512626584708 7.474873734152917 23
      vertex 70.0555041844314 7.910143643058909 23
    endloop
  endfacet
  facet normal 0 0 1
    outer loop
      vertex 69.895241121992 10.081337428812077 23
      vertex 70.0555041844314 7.910143643058909 23
      vertex 70.66060798672218 8.233578363789503 23
    endloop
  endfacet
  facet normal 0 0 1
    outer loop
      vertex 69.895241121992 10.081337428812077 23
      vertex 70.66060798672218 8.233578363789503 23
      vertex 70.92700322891129 10.394319042217766 23
    endloop
  endfacet
  facet normal 0 0 1
    outer loop
      vertex 70.92700322891129 10.394319042217766 23
      vertex 70.66060798672218 8.233578363789503 23
      vertex 71.31718387294354 8.432748481411306 23
    endloop
  endfacet
  facet normal 0 0 1
    outer loop
      vertex 70.92700322891129 10.394319042217766 23
      vertex 71.31718387294354 8.432748481411306 23
      vertex 72 8.5 23
    endloop
  endfacet
  facet normal 0 0 1
    outer loop
      vertex 70.92700322891129 10.394319042217766 23
      vertex 72 8.5 23
      vertex 72 10.5 23
    endloop
  endfacet
  facet normal 0.0980171403295602 -0.9951847266721969 0
    outer loop
      vertex 72 -0.5 22.2
      vertex 73.07299677108871 -0.39431904221776737 23
      vertex 72 -0.5 23
    endloop
  endfacet
  facet normal 0.0980171403295602 -0.9951847266721969 0
    outer loop
      vertex 72 -0.5 22.2
      vertex 73.07299677108871 -0.39431904221776737 22.2
      vertex 73.07299677108871 -0.39431904221776737 23
    endloop
  endfacet
  facet normal 0 0 -1
    outer loop
      vertex 72 -0.5 22.2
      vertex 72.38268343236508 4.076120467488713 22.2
      vertex 73.07299677108871 -0.39431904221776737 22.2
    endloop
  endfacet
  facet normal 0.2902846772544625 -0.9569403357322088 0
    outer loop
      vertex 73.07299677108871 -0.39431904221776737 22.2
      vertex 74.104758878008 -0.08133742881207695 23
      vertex 73.07299677108871 -0.39431904221776737 23
    endloop
  endfacet
  facet normal 0.2902846772544625 -0.9569403357322088 0
    outer loop
      vertex 73.07299677108871 -0.39431904221776737 22.2
      vertex 74.104758878008 -0.08133742881207695 22.2
      vertex 74.104758878008 -0.08133742881207695 23
    endloop
  endfacet
  facet normal 0.4713967368259975 -0.881921264348355 0
    outer loop
      vertex 74.104758878008 -0.08133742881207695 22.2
      vertex 75.05563628160782 0.42691713233600126 23
      vertex 74.104758878008 -0.08133742881207695 23
    endloop
  endfacet
  facet normal 0.4713967368259975 -0.881921264348355 0
    outer loop
      vertex 74.104758878008 -0.08133742881207695 22.2
      vertex 75.05563628160782 0.42691713233600126 22.2
      vertex 75.05563628160782 0.42691713233600126 23
    endloop
  endfacet
  facet normal 0 0 -1
    outer loop
      vertex 72 -0.5 22.2
      vertex 72 4 22.2
      vertex 72.38268343236508 4.076120467488713 22.2
    endloop
  endfacet
  facet normal 0 0 -1
    outer loop
      vertex 73.07299677108871 -0.39431904221776737 22.2
      vertex 72.38268343236508 4.076120467488713 22.2
      vertex 72.70710678118655 4.292893218813452 22.2
    endloop
  endfacet
  facet normal 0 0 -1
    outer loop
      vertex 73.07299677108871 -0.39431904221776737 22.2
      vertex 72.70710678118655 4.292893218813452 22.2
      vertex 72.9238795325113 4.61731656763491 22.2
    endloop
  endfacet
  facet normal 0 0 -1
    outer loop
      vertex 73.07299677108871 -0.39431904221776737 22.2
      vertex 72.9238795325113 4.61731656763491 22.2
      vertex 73 5 22.2
    endloop
  endfacet
  facet normal 0 0 -1
    outer loop
      vertex 73.07299677108871 -0.39431904221776737 22.2
      vertex 74.104758878008 10.081337428812077 22.2
      vertex 74.104758878008 -0.08133742881207695 22.2
    endloop
  endfacet
  facet normal 0 0 -1
    outer loop
      vertex 74.104758878008 -0.08133742881207695 22.2
      vertex 75.05563628160782 9.573082867663999 22.2
      vertex 75.05563628160782 0.42691713233600126 22.2
    endloop
  endfacet
  facet normal 0.6343932841636464 -0.7730104533627362 0
    outer loop
      vertex 75.05563628160782 0.42691713233600126 22.2
      vertex 75.88908729652601 1.1109127034739883 23
      vertex 75.05563628160782 0.42691713233600126 23
    endloop
  endfacet
  facet normal 0.6343932841636464 -0.7730104533627362 0
    outer loop
      vertex 75.05563628160782 0.42691713233600126 22.2
      vertex 75.88908729652601 1.1109127034739883 22.2
      vertex 75.88908729652601 1.1109127034739883 23
    endloop
  endfacet
  facet normal 0.7730104533627385 -0.6343932841636436 0
    outer loop
      vertex 75.88908729652601 1.1109127034739883 22.2
      vertex 76.573082867664 1.944363718392188 22.2
      vertex 75.88908729652601 1.1109127034739883 23
    endloop
  endfacet
  facet normal 0.7730104533627385 -0.6343932841636436 0
    outer loop
      vertex 76.573082867664 1.944363718392188 22.2
      vertex 76.573082867664 1.944363718392188 23
      vertex 75.88908729652601 1.1109127034739883 23
    endloop
  endfacet
  facet normal 0 0 -1
    outer loop
      vertex 75.05563628160782 0.42691713233600126 22.2
      vertex 75.88908729652601 8.88908729652601 22.2
      vertex 75.88908729652601 1.1109127034739883 22.2
    endloop
  endfacet
  facet normal 0.881921264348355 -0.47139673682599764 0
    outer loop
      vertex 76.573082867664 1.944363718392188 22.2
      vertex 77.08133742881208 2.8952411219920062 22.2
      vertex 76.573082867664 1.944363718392188 23
    endloop
  endfacet
  facet normal 0.881921264348355 -0.47139673682599764 0
    outer loop
      vertex 77.08133742881208 2.8952411219920062 22.2
      vertex 77.08133742881208 2.8952411219920062 23
      vertex 76.573082867664 1.944363718392188 23
    endloop
  endfacet
  facet normal 0.9569403357322073 -0.29028467725446777 0
    outer loop
      vertex 77.08133742881208 2.8952411219920062 22.2
      vertex 77.39431904221777 3.9270032289112944 22.2
      vertex 77.08133742881208 2.8952411219920062 23
    endloop
  endfacet
  facet normal 0.9569403357322073 -0.29028467725446777 0
    outer loop
      vertex 77.39431904221777 3.9270032289112944 22.2
      vertex 77.39431904221777 3.9270032289112944 23
      vertex 77.08133742881208 2.8952411219920062 23
    endloop
  endfacet
  facet normal 0 0 -1
    outer loop
      vertex 75.88908729652601 1.1109127034739883 22.2
      vertex 76.573082867664 8.055636281607812 22.2
      vertex 76.573082867664 1.944363718392188 22.2
    endloop
  endfacet
  facet normal 0 0 -1
    outer loop
      vertex 76.573082867664 1.944363718392188 22.2
      vertex 77.08133742881208 7.104758878007994 22.2
      vertex 77.08133742881208 2.8952411219920062 22.2
    endloop
  endfacet
  facet normal 0 0 -1
    outer loop
      vertex 77.08133742881208 2.8952411219920062 22.2
      vertex 77.39431904221777 6.072996771088706 22.2
      vertex 77.39431904221777 3.9270032289112944 22.2
    endloop
  endfacet
  facet normal 0.9951847266721974 -0.09801714032955497 0
    outer loop
      vertex 77.39431904221777 3.9270032289112944 22.2
      vertex 77.5 5 22.2
      vertex 77.39431904221777 3.9270032289112944 23
    endloop
  endfacet
  facet normal 0.9951847266721974 -0.09801714032955497 0
    outer loop
      vertex 77.39431904221777 3.9270032289112944 23
      vertex 77.5 5 22.2
      vertex 77.5 5 23
    endloop
  endfacet
  facet normal 0 0 1
    outer loop
      vertex 72 -0.5 23
      vertex 72.68281612705646 1.5672515185886935 23
      vertex 72 1.5 23
    endloop
  endfacet
  facet normal 0 0 1
    outer loop
      vertex 72 -0.5 23
      vertex 73.07299677108871 -0.39431904221776737 23
      vertex 72.68281612705646 1.5672515185886935 23
    endloop
  endfacet
  facet normal 0 0 1
    outer loop
      vertex 73.07299677108871 -0.39431904221776737 23
      vertex 73.33939201327782 1.7664216362104965 23
      vertex 72.68281612705646 1.5672515185886935 23
    endloop
  endfacet
  facet normal 0 0 1
    outer loop
      vertex 73.07299677108871 -0.39431904221776737 23
      vertex 74.104758878008 -0.08133742881207695 23
      vertex 73.33939201327782 1.7664216362104965 23
    endloop
  endfacet
  facet normal 0 0 1
    outer loop
      vertex 74.104758878008 -0.08133742881207695 23
      vertex 73.9444958155686 2.0898563569410915 23
      vertex 73.33939201327782 1.7664216362104965 23
    endloop
  endfacet
  facet normal 0 0 1
    outer loop
      vertex 74.104758878008 -0.08133742881207695 23
      vertex 74.47487373415292 2.5251262658470837 23
      vertex 73.9444958155686 2.0898563569410915 23
    endloop
  endfacet
  facet normal 0 0 1
    outer loop
      vertex 74.104758878008 -0.08133742881207695 23
      vertex 75.05563628160782 0.42691713233600126 23
      vertex 74.47487373415292 2.5251262658470837 23
    endloop
  endfacet
  facet normal 0 0 1
    outer loop
      vertex 75.05563628160782 0.42691713233600126 23
      vertex 74.9101436430589 3.0555041844313924 23
      vertex 74.47487373415292 2.5251262658470837 23
    endloop
  endfacet
  facet normal 0 0 1
    outer loop
      vertex 75.05563628160782 0.42691713233600126 23
      vertex 75.88908729652601 1.1109127034739883 23
      vertex 75.2335783637895 3.6606079867221855 23
    endloop
  endfacet
  facet normal 0 0 1
    outer loop
      vertex 75.05563628160782 0.42691713233600126 23
      vertex 75.2335783637895 3.6606079867221855 23
      vertex 74.9101436430589 3.0555041844313924 23
    endloop
  endfacet
  facet normal 0 0 1
    outer loop
      vertex 75.88908729652601 1.1109127034739883 23
      vertex 75.43274848141131 4.317183872943551 23
      vertex 75.2335783637895 3.6606079867221855 23
    endloop
  endfacet
  facet normal 0 0 1
    outer loop
      vertex 75.88908729652601 1.1109127034739883 23
      vertex 75.5 5 23
      vertex 75.43274848141131 4.317183872943551 23
    endloop
  endfacet
  facet normal 0 0 1
    outer loop
      vertex 75.88908729652601 1.1109127034739883 23
      vertex 75.43274848141131 5.682816127056449 23
      vertex 75.5 5 23
    endloop
  endfacet
  facet normal 0 0 1
    outer loop
      vertex 75.88908729652601 1.1109127034739883 23
      vertex 76.573082867664 1.944363718392188 23
      vertex 75.88908729652601 8.88908729652601 23
    endloop
  endfacet
  facet normal 0 0 1
    outer loop
      vertex 76.573082867664 1.944363718392188 23
      vertex 77.08133742881208 2.8952411219920062 23
      vertex 76.573082867664 8.055636281607812 23
    endloop
  endfacet
  facet normal 0 0 1
    outer loop
      vertex 77.08133742881208 2.8952411219920062 23
      vertex 77.39431904221777 3.9270032289112944 23
      vertex 77.08133742881208 7.104758878007994 23
    endloop
  endfacet
  facet normal 0 0 -1
    outer loop
      vertex 73.07299677108871 -0.39431904221776737 22.2
      vertex 73 5 22.2
      vertex 73.07299677108871 10.394319042217766 22.2
    endloop
  endfacet
  facet normal 0 0 -1
    outer loop
      vertex 73.07299677108871 10.394319042217766 22.2
      vertex 72.38268343236508 5.923879532511287 22.2
      vertex 72 6 22.2
    endloop
  endfacet
  facet normal 0 0 -1
    outer loop
      vertex 73.07299677108871 10.394319042217766 22.2
      vertex 73 5 22.2
      vertex 72.9238795325113 5.38268343236509 22.2
    endloop
  endfacet
  facet normal 0 0 -1
    outer loop
      vertex 73.07299677108871 10.394319042217766 22.2
      vertex 72.70710678118655 5.707106781186548 22.2
      vertex 72.38268343236508 5.923879532511287 22.2
    endloop
  endfacet
  facet normal 0 0 -1
    outer loop
      vertex 73.07299677108871 10.394319042217766 22.2
      vertex 72.9238795325113 5.38268343236509 22.2
      vertex 72.70710678118655 5.707106781186548 22.2
    endloop
  endfacet
  facet normal 0 0 -1
    outer loop
      vertex 73.07299677108871 -0.39431904221776737 22.2
      vertex 73.07299677108871 10.394319042217766 22.2
      vertex 74.104758878008 10.081337428812077 22.2
    endloop
  endfacet
  facet normal 0 0 -1
    outer loop
      vertex 74.104758878008 -0.08133742881207695 22.2
      vertex 74.104758878008 10.081337428812077 22.2
      vertex 75.05563628160782 9.573082867663999 22.2
    endloop
  endfacet
  facet normal 0 0 -1
    outer loop
      vertex 72 10.5 22.2
      vertex 73.07299677108871 10.394319042217766 22.2
      vertex 72 6 22.2
    endloop
  endfacet
  facet normal 0.09801714032956102 0.9951847266721968 0
    outer loop
      vertex 72 10.5 22.2
      vertex 72 10.5 23
      vertex 73.07299677108871 10.394319042217766 22.2
    endloop
  endfacet
  facet normal 0.09801714032956102 0.9951847266721968 0
    outer loop
      vertex 73.07299677108871 10.394319042217766 22.2
      vertex 72 10.5 23
      vertex 73.07299677108871 10.394319042217766 23
    endloop
  endfacet
  facet normal 0.2902846772544617 0.956940335732209 0
    outer loop
      vertex 73.07299677108871 10.394319042217766 22.2
      vertex 73.07299677108871 10.394319042217766 23
      vertex 74.104758878008 10.081337428812077 22.2
    endloop
  endfacet
  facet normal 0.2902846772544617 0.956940335732209 0
    outer loop
      vertex 74.104758878008 10.081337428812077 22.2
      vertex 73.07299677108871 10.394319042217766 23
      vertex 74.104758878008 10.081337428812077 23
    endloop
  endfacet
  facet normal 0.4713967368259975 0.881921264348355 0
    outer loop
      vertex 75.05563628160782 9.573082867663999 22.2
      vertex 74.104758878008 10.081337428812077 23
      vertex 75.05563628160782 9.573082867663999 23
    endloop
  endfacet
  facet normal 0.4713967368259975 0.881921264348355 0
    outer loop
      vertex 74.104758878008 10.081337428812077 22.2
      vertex 74.104758878008 10.081337428812077 23
      vertex 75.05563628160782 9.573082867663999 22.2
    endloop
  endfacet
  facet normal 0 0 -1
    outer loop
      vertex 75.05563628160782 0.42691713233600126 22.2
      vertex 75.05563628160782 9.573082867663999 22.2
      vertex 75.88908729652601 8.88908729652601 22.2
    endloop
  endfacet
  facet normal 0 0 -1
    outer loop
      vertex 75.88908729652601 1.1109127034739883 22.2
      vertex 75.88908729652601 8.88908729652601 22.2
      vertex 76.573082867664 8.055636281607812 22.2
    endloop
  endfacet
  facet normal 0 0 -1
    outer loop
      vertex 76.573082867664 1.944363718392188 22.2
      vertex 76.573082867664 8.055636281607812 22.2
      vertex 77.08133742881208 7.104758878007994 22.2
    endloop
  endfacet
  facet normal 0 0 -1
    outer loop
      vertex 77.39431904221777 3.9270032289112944 22.2
      vertex 77.39431904221777 6.072996771088706 22.2
      vertex 77.5 5 22.2
    endloop
  endfacet
  facet normal 0 0 -1
    outer loop
      vertex 77.08133742881208 2.8952411219920062 22.2
      vertex 77.08133742881208 7.104758878007994 22.2
      vertex 77.39431904221777 6.072996771088706 22.2
    endloop
  endfacet
  facet normal 0.9951847266721974 0.09801714032955497 0
    outer loop
      vertex 77.5 5 22.2
      vertex 77.39431904221777 6.072996771088706 22.2
      vertex 77.5 5 23
    endloop
  endfacet
  facet normal 0.9951847266721974 0.09801714032955497 0
    outer loop
      vertex 77.39431904221777 6.072996771088706 22.2
      vertex 77.39431904221777 6.072996771088706 23
      vertex 77.5 5 23
    endloop
  endfacet
  facet normal 0.881921264348355 0.4713967368259975 0
    outer loop
      vertex 76.573082867664 8.055636281607812 22.2
      vertex 76.573082867664 8.055636281607812 23
      vertex 77.08133742881208 7.104758878007994 23
    endloop
  endfacet
  facet normal 0.9569403357322073 0.29028467725446777 0
    outer loop
      vertex 77.39431904221777 6.072996771088706 22.2
      vertex 77.08133742881208 7.104758878007994 22.2
      vertex 77.39431904221777 6.072996771088706 23
    endloop
  endfacet
  facet normal 0.9569403357322073 0.29028467725446777 0
    outer loop
      vertex 77.08133742881208 7.104758878007994 22.2
      vertex 77.08133742881208 7.104758878007994 23
      vertex 77.39431904221777 6.072996771088706 23
    endloop
  endfacet
  facet normal 0.881921264348355 0.4713967368259975 0
    outer loop
      vertex 77.08133742881208 7.104758878007994 22.2
      vertex 76.573082867664 8.055636281607812 22.2
      vertex 77.08133742881208 7.104758878007994 23
    endloop
  endfacet
  facet normal 0.6343932841636469 0.7730104533627358 0
    outer loop
      vertex 75.88908729652601 8.88908729652601 22.2
      vertex 75.05563628160782 9.573082867663999 23
      vertex 75.88908729652601 8.88908729652601 23
    endloop
  endfacet
  facet normal 0.7730104533627381 0.6343932841636443 0
    outer loop
      vertex 75.88908729652601 8.88908729652601 22.2
      vertex 75.88908729652601 8.88908729652601 23
      vertex 76.573082867664 8.055636281607812 23
    endloop
  endfacet
  facet normal 0.6343932841636469 0.7730104533627358 0
    outer loop
      vertex 75.88908729652601 8.88908729652601 22.2
      vertex 75.05563628160782 9.573082867663999 22.2
      vertex 75.05563628160782 9.573082867663999 23
    endloop
  endfacet
  facet normal 0.7730104533627381 0.6343932841636443 0
    outer loop
      vertex 75.88908729652601 8.88908729652601 22.2
      vertex 76.573082867664 8.055636281607812 23
      vertex 76.573082867664 8.055636281607812 22.2
    endloop
  endfacet
  facet normal 0 0 1
    outer loop
      vertex 73.07299677108871 10.394319042217766 23
      vertex 72 8.5 23
      vertex 72.68281612705646 8.432748481411306 23
    endloop
  endfacet
  facet normal 0 0 1
    outer loop
      vertex 72 10.5 23
      vertex 72 8.5 23
      vertex 73.07299677108871 10.394319042217766 23
    endloop
  endfacet
  facet normal 0 0 1
    outer loop
      vertex 73.07299677108871 10.394319042217766 23
      vertex 72.68281612705646 8.432748481411306 23
      vertex 74.104758878008 10.081337428812077 23
    endloop
  endfacet
  facet normal 0 0 1
    outer loop
      vertex 74.104758878008 10.081337428812077 23
      vertex 72.68281612705646 8.432748481411306 23
      vertex 73.33939201327782 8.233578363789503 23
    endloop
  endfacet
  facet normal 0 0 1
    outer loop
      vertex 74.104758878008 10.081337428812077 23
      vertex 73.33939201327782 8.233578363789503 23
      vertex 73.9444958155686 7.910143643058909 23
    endloop
  endfacet
  facet normal 0 0 1
    outer loop
      vertex 75.05563628160782 9.573082867663999 23
      vertex 73.9444958155686 7.910143643058909 23
      vertex 74.47487373415292 7.474873734152917 23
    endloop
  endfacet
  facet normal 0 0 1
    outer loop
      vertex 74.104758878008 10.081337428812077 23
      vertex 73.9444958155686 7.910143643058909 23
      vertex 75.05563628160782 9.573082867663999 23
    endloop
  endfacet
  facet normal 0 0 1
    outer loop
      vertex 75.88908729652601 1.1109127034739883 23
      vertex 75.05563628160782 9.573082867663999 23
      vertex 75.43274848141131 5.682816127056449 23
    endloop
  endfacet
  facet normal 0 0 1
    outer loop
      vertex 75.05563628160782 9.573082867663999 23
      vertex 74.9101436430589 6.944495815568608 23
      vertex 75.2335783637895 6.3393920132778145 23
    endloop
  endfacet
  facet normal 0 0 1
    outer loop
      vertex 75.05563628160782 9.573082867663999 23
      vertex 75.2335783637895 6.3393920132778145 23
      vertex 75.43274848141131 5.682816127056449 23
    endloop
  endfacet
  facet normal 0 0 1
    outer loop
      vertex 75.88908729652601 1.1109127034739883 23
      vertex 75.88908729652601 8.88908729652601 23
      vertex 75.05563628160782 9.573082867663999 23
    endloop
  endfacet
  facet normal 0 0 1
    outer loop
      vertex 76.573082867664 1.944363718392188 23
      vertex 76.573082867664 8.055636281607812 23
      vertex 75.88908729652601 8.88908729652601 23
    endloop
  endfacet
  facet normal 0 0 1
    outer loop
      vertex 77.39431904221777 3.9270032289112944 23
      vertex 77.5 5 23
      vertex 77.39431904221777 6.072996771088706 23
    endloop
  endfacet
  facet normal 0 0 1
    outer loop
      vertex 77.08133742881208 2.8952411219920062 23
      vertex 77.08133742881208 7.104758878007994 23
      vertex 76.573082867664 8.055636281607812 23
    endloop
  endfacet
  facet normal 0 0 1
    outer loop
      vertex 77.39431904221777 3.9270032289112944 23
      vertex 77.39431904221777 6.072996771088706 23
      vertex 77.08133742881208 7.104758878007994 23
    endloop
  endfacet
  facet normal 0 0 1
    outer loop
      vertex 75.05563628160782 9.573082867663999 23
      vertex 74.47487373415292 7.474873734152917 23
      vertex 74.9101436430589 6.944495815568608 23
    endloop
  endfacet
  facet normal 0 0 -1
    outer loop
      vertex 71.0761204674887 4.61731656763491 20.2
      vertex 71.29289321881345 5.707106781186548 20.2
      vertex 71.29289321881345 4.292893218813452 20.2
    endloop
  endfacet
  facet normal 0 0 -1
    outer loop
      vertex 71.61731656763492 4.076120467488713 20.2
      vertex 71.29289321881345 4.292893218813452 20.2
      vertex 71.61731656763492 5.923879532511287 20.2
    endloop
  endfacet
  facet normal 0 0 -1
    outer loop
      vertex 71.61731656763492 4.076120467488713 20.2
      vertex 72 6 20.2
      vertex 72 4 20.2
    endloop
  endfacet
  facet normal -0.8314696123025448 -0.5555702330196028 0
    outer loop
      vertex 71.0761204674887 4.61731656763491 20.2
      vertex 71.29289321881345 4.292893218813452 20.2
      vertex 71.0761204674887 4.61731656763491 22.2
    endloop
  endfacet
  facet normal -0.9807852804032335 -0.19509032201611248 0
    outer loop
      vertex 71.0761204674887 4.61731656763491 20.2
      vertex 71 5 22.2
      vertex 71 5 20.2
    endloop
  endfacet
  facet normal -0.5555702330195886 -0.8314696123025542 0
    outer loop
      vertex 71.61731656763492 4.076120467488713 20.2
      vertex 71.61731656763492 4.076120467488713 22.2
      vertex 71.29289321881345 4.292893218813452 20.2
    endloop
  endfacet
  facet normal -0.19509032201613047 -0.98078528040323 0
    outer loop
      vertex 71.61731656763492 4.076120467488713 20.2
      vertex 72 4 20.2
      vertex 72 4 22.2
    endloop
  endfacet
  facet normal -0.8314696123025448 -0.5555702330196028 0
    outer loop
      vertex 71.29289321881345 4.292893218813452 20.2
      vertex 71.29289321881345 4.292893218813452 22.2
      vertex 71.0761204674887 4.61731656763491 22.2
    endloop
  endfacet
  facet normal -0.9807852804032335 -0.19509032201611248 0
    outer loop
      vertex 71.0761204674887 4.61731656763491 20.2
      vertex 71.0761204674887 4.61731656763491 22.2
      vertex 71 5 22.2
    endloop
  endfacet
  facet normal -0.5555702330195886 -0.8314696123025542 0
    outer loop
      vertex 71.29289321881345 4.292893218813452 20.2
      vertex 71.61731656763492 4.076120467488713 22.2
      vertex 71.29289321881345 4.292893218813452 22.2
    endloop
  endfacet
  facet normal -0.19509032201613047 -0.98078528040323 0
    outer loop
      vertex 71.61731656763492 4.076120467488713 20.2
      vertex 72 4 22.2
      vertex 71.61731656763492 4.076120467488713 22.2
    endloop
  endfacet
  facet normal 0 0 -1
    outer loop
      vertex 71.0761204674887 4.61731656763491 20.2
      vertex 71 5 20.2
      vertex 71.0761204674887 5.38268343236509 20.2
    endloop
  endfacet
  facet normal 0 0 -1
    outer loop
      vertex 71.0761204674887 4.61731656763491 20.2
      vertex 71.0761204674887 5.38268343236509 20.2
      vertex 71.29289321881345 5.707106781186548 20.2
    endloop
  endfacet
  facet normal 0 0 -1
    outer loop
      vertex 71.29289321881345 4.292893218813452 20.2
      vertex 71.29289321881345 5.707106781186548 20.2
      vertex 71.61731656763492 5.923879532511287 20.2
    endloop
  endfacet
  facet normal 0 0 -1
    outer loop
      vertex 71.61731656763492 4.076120467488713 20.2
      vertex 71.61731656763492 5.923879532511287 20.2
      vertex 72 6 20.2
    endloop
  endfacet
  facet normal -0.9807852804032335 0.19509032201611248 0
    outer loop
      vertex 71 5 20.2
      vertex 71.0761204674887 5.38268343236509 22.2
      vertex 71.0761204674887 5.38268343236509 20.2
    endloop
  endfacet
  facet normal -0.8314696123025448 0.5555702330196028 0
    outer loop
      vertex 71.0761204674887 5.38268343236509 20.2
      vertex 71.29289321881345 5.707106781186548 22.2
      vertex 71.29289321881345 5.707106781186548 20.2
    endloop
  endfacet
  facet normal -0.5555702330195886 0.8314696123025542 0
    outer loop
      vertex 71.29289321881345 5.707106781186548 20.2
      vertex 71.29289321881345 5.707106781186548 22.2
      vertex 71.61731656763492 5.923879532511287 20.2
    endloop
  endfacet
  facet normal -0.19509032201613047 0.98078528040323 0
    outer loop
      vertex 71.61731656763492 5.923879532511287 20.2
      vertex 71.61731656763492 5.923879532511287 22.2
      vertex 72 6 20.2
    endloop
  endfacet
  facet normal -0.9807852804032335 0.19509032201611248 0
    outer loop
      vertex 71 5 20.2
      vertex 71 5 22.2
      vertex 71.0761204674887 5.38268343236509 22.2
    endloop
  endfacet
  facet normal -0.8314696123025448 0.5555702330196028 0
    outer loop
      vertex 71.0761204674887 5.38268343236509 20.2
      vertex 71.0761204674887 5.38268343236509 22.2
      vertex 71.29289321881345 5.707106781186548 22.2
    endloop
  endfacet
  facet normal -0.5555702330195886 0.8314696123025542 0
    outer loop
      vertex 71.61731656763492 5.923879532511287 20.2
      vertex 71.29289321881345 5.707106781186548 22.2
      vertex 71.61731656763492 5.923879532511287 22.2
    endloop
  endfacet
  facet normal -0.19509032201613047 0.98078528040323 0
    outer loop
      vertex 72 6 20.2
      vertex 71.61731656763492 5.923879532511287 22.2
      vertex 72 6 22.2
    endloop
  endfacet
  facet normal 0 0 -1
    outer loop
      vertex 72 4 20.2
      vertex 72.38268343236508 5.923879532511287 20.2
      vertex 72.38268343236508 4.076120467488713 20.2
    endloop
  endfacet
  facet normal 0 0 -1
    outer loop
      vertex 72.38268343236508 4.076120467488713 20.2
      vertex 72.70710678118655 5.707106781186548 20.2
      vertex 72.70710678118655 4.292893218813452 20.2
    endloop
  endfacet
  facet normal 0 0 -1
    outer loop
      vertex 72.70710678118655 4.292893218813452 20.2
      vertex 72.9238795325113 5.38268343236509 20.2
      vertex 72.9238795325113 4.61731656763491 20.2
    endloop
  endfacet
  facet normal 0.19509032201613047 -0.98078528040323 0
    outer loop
      vertex 72 4 20.2
      vertex 72.38268343236508 4.076120467488713 20.2
      vertex 72.38268343236508 4.076120467488713 22.2
    endloop
  endfacet
  facet normal 0.5555702330195886 -0.8314696123025542 0
    outer loop
      vertex 72.38268343236508 4.076120467488713 20.2
      vertex 72.70710678118655 4.292893218813452 20.2
      vertex 72.70710678118655 4.292893218813452 22.2
    endloop
  endfacet
  facet normal 0.8314696123025448 -0.5555702330196028 0
    outer loop
      vertex 72.70710678118655 4.292893218813452 20.2
      vertex 72.9238795325113 4.61731656763491 20.2
      vertex 72.70710678118655 4.292893218813452 22.2
    endloop
  endfacet
  facet normal 0.9807852804032335 -0.19509032201611248 0
    outer loop
      vertex 72.9238795325113 4.61731656763491 20.2
      vertex 73 5 20.2
      vertex 72.9238795325113 4.61731656763491 22.2
    endloop
  endfacet
  facet normal 0.19509032201613047 -0.98078528040323 0
    outer loop
      vertex 72 4 20.2
      vertex 72.38268343236508 4.076120467488713 22.2
      vertex 72 4 22.2
    endloop
  endfacet
  facet normal 0.5555702330195886 -0.8314696123025542 0
    outer loop
      vertex 72.38268343236508 4.076120467488713 20.2
      vertex 72.70710678118655 4.292893218813452 22.2
      vertex 72.38268343236508 4.076120467488713 22.2
    endloop
  endfacet
  facet normal 0.8314696123025448 -0.5555702330196028 0
    outer loop
      vertex 72.9238795325113 4.61731656763491 20.2
      vertex 72.9238795325113 4.61731656763491 22.2
      vertex 72.70710678118655 4.292893218813452 22.2
    endloop
  endfacet
  facet normal 0.9807852804032335 -0.19509032201611248 0
    outer loop
      vertex 73 5 20.2
      vertex 73 5 22.2
      vertex 72.9238795325113 4.61731656763491 22.2
    endloop
  endfacet
  facet normal 0 0 -1
    outer loop
      vertex 72 4 20.2
      vertex 72 6 20.2
      vertex 72.38268343236508 5.923879532511287 20.2
    endloop
  endfacet
  facet normal 0 0 -1
    outer loop
      vertex 72.38268343236508 4.076120467488713 20.2
      vertex 72.38268343236508 5.923879532511287 20.2
      vertex 72.70710678118655 5.707106781186548 20.2
    endloop
  endfacet
  facet normal 0 0 -1
    outer loop
      vertex 72.70710678118655 4.292893218813452 20.2
      vertex 72.70710678118655 5.707106781186548 20.2
      vertex 72.9238795325113 5.38268343236509 20.2
    endloop
  endfacet
  facet normal 0 0 -1
    outer loop
      vertex 72.9238795325113 4.61731656763491 20.2
      vertex 72.9238795325113 5.38268343236509 20.2
      vertex 73 5 20.2
    endloop
  endfacet
  facet normal 0.19509032201613047 0.98078528040323 0
    outer loop
      vertex 72 6 20.2
      vertex 72 6 22.2
      vertex 72.38268343236508 5.923879532511287 20.2
    endloop
  endfacet
  facet normal 0.5555702330195886 0.8314696123025542 0
    outer loop
      vertex 72.70710678118655 5.707106781186548 20.2
      vertex 72.38268343236508 5.923879532511287 20.2
      vertex 72.38268343236508 5.923879532511287 22.2
    endloop
  endfacet
  facet normal 0.9807852804032335 0.19509032201611248 0
    outer loop
      vertex 73 5 20.2
      vertex 72.9238795325113 5.38268343236509 20.2
      vertex 73 5 22.2
    endloop
  endfacet
  facet normal 0.8314696123025448 0.5555702330196028 0
    outer loop
      vertex 72.70710678118655 5.707106781186548 20.2
      vertex 72.9238795325113 5.38268343236509 22.2
      vertex 72.9238795325113 5.38268343236509 20.2
    endloop
  endfacet
  facet normal 0.19509032201613047 0.98078528040323 0
    outer loop
      vertex 72.38268343236508 5.923879532511287 20.2
      vertex 72 6 22.2
      vertex 72.38268343236508 5.923879532511287 22.2
    endloop
  endfacet
  facet normal 0.5555702330195886 0.8314696123025542 0
    outer loop
      vertex 72.70710678118655 5.707106781186548 20.2
      vertex 72.38268343236508 5.923879532511287 22.2
      vertex 72.70710678118655 5.707106781186548 22.2
    endloop
  endfacet
  facet normal 0.9807852804032335 0.19509032201611248 0
    outer loop
      vertex 72.9238795325113 5.38268343236509 20.2
      vertex 72.9238795325113 5.38268343236509 22.2
      vertex 73 5 22.2
    endloop
  endfacet
  facet normal 0.8314696123025448 0.5555702330196028 0
    outer loop
      vertex 72.70710678118655 5.707106781186548 20.2
      vertex 72.70710678118655 5.707106781186548 22.2
      vertex 72.9238795325113 5.38268343236509 22.2
    endloop
  endfacet
endsolid OpenSCAD_Model
