solid OpenSCAD_Model
  facet normal 0.9951847266721972 0.098017140329557 7.578400476892731e-19
    outer loop
      vertex 65.5 18 25.3
      vertex 65.43274848141131 18.682816127056448 23.5
      vertex 65.43274848141131 18.682816127056448 25.3
    endloop
  endfacet
  facet normal 0.9951847266721972 0.098017140329557 7.578400476892731e-19
    outer loop
      vertex 65.43274848141131 18.682816127056448 23.5
      vertex 65.5 18 25.3
      vertex 65.5 18 23.5
    endloop
  endfacet
  facet normal 0.9569403357322083 0.29028467725446444 7.847025102600582e-18
    outer loop
      vertex 65.43274848141131 18.682816127056448 25.3
      vertex 65.2335783637895 19.339392013277813 23.5
      vertex 65.2335783637895 19.339392013277813 25.3
    endloop
  endfacet
  facet normal 0.9569403357322083 0.29028467725446444 7.847025102600582e-18
    outer loop
      vertex 65.2335783637895 19.339392013277813 23.5
      vertex 65.43274848141131 18.682816127056448 25.3
      vertex 65.43274848141131 18.682816127056448 23.5
    endloop
  endfacet
  facet normal 0.881921264348351 0.47139673682600525 3.1417835327877918e-18
    outer loop
      vertex 65.2335783637895 19.339392013277813 25.3
      vertex 64.9101436430589 19.944495815568608 23.5
      vertex 64.9101436430589 19.944495815568608 25.3
    endloop
  endfacet
  facet normal 0.881921264348351 0.47139673682600525 3.1417835327877918e-18
    outer loop
      vertex 64.9101436430589 19.944495815568608 23.5
      vertex 65.2335783637895 19.339392013277813 25.3
      vertex 65.2335783637895 19.339392013277813 23.5
    endloop
  endfacet
  facet normal 0.7730104533627448 0.6343932841636359 -1.0996270669093842e-17
    outer loop
      vertex 64.9101436430589 19.944495815568608 25.3
      vertex 64.47487373415292 20.474873734152915 23.5
      vertex 64.47487373415292 20.474873734152915 25.3
    endloop
  endfacet
  facet normal 0.7730104533627448 0.6343932841636359 -1.0996270669093842e-17
    outer loop
      vertex 64.47487373415292 20.474873734152915 23.5
      vertex 64.9101436430589 19.944495815568608 25.3
      vertex 64.9101436430589 19.944495815568608 23.5
    endloop
  endfacet
  facet normal 0.6343932841636433 0.7730104533627388 0
    outer loop
      vertex 64.47487373415292 20.474873734152915 23.5
      vertex 63.94449581556861 20.91014364305891 25.3
      vertex 64.47487373415292 20.474873734152915 25.3
    endloop
  endfacet
  facet normal 0.6343932841636433 0.7730104533627388 0
    outer loop
      vertex 63.94449581556861 20.91014364305891 25.3
      vertex 64.47487373415292 20.474873734152915 23.5
      vertex 63.94449581556861 20.91014364305891 23.5
    endloop
  endfacet
  facet normal 0.4713967368259993 0.881921264348354 0
    outer loop
      vertex 63.94449581556861 20.91014364305891 23.5
      vertex 63.339392013277816 21.233578363789505 25.3
      vertex 63.94449581556861 20.91014364305891 25.3
    endloop
  endfacet
  facet normal 0.4713967368259993 0.881921264348354 0
    outer loop
      vertex 63.339392013277816 21.233578363789505 25.3
      vertex 63.94449581556861 20.91014364305891 23.5
      vertex 63.339392013277816 21.233578363789505 23.5
    endloop
  endfacet
  facet normal 0.2902846772544583 0.9569403357322102 0
    outer loop
      vertex 63.339392013277816 21.233578363789505 23.5
      vertex 62.68281612705645 21.432748481411306 25.3
      vertex 63.339392013277816 21.233578363789505 25.3
    endloop
  endfacet
  facet normal 0.2902846772544583 0.9569403357322102 0
    outer loop
      vertex 62.68281612705645 21.432748481411306 25.3
      vertex 63.339392013277816 21.233578363789505 23.5
      vertex 62.68281612705645 21.432748481411306 23.5
    endloop
  endfacet
  facet normal 0.09801714032956214 0.9951847266721968 0
    outer loop
      vertex 62.68281612705645 21.432748481411306 23.5
      vertex 62 21.5 25.3
      vertex 62.68281612705645 21.432748481411306 25.3
    endloop
  endfacet
  facet normal 0.09801714032956214 0.9951847266721968 0
    outer loop
      vertex 62 21.5 25.3
      vertex 62.68281612705645 21.432748481411306 23.5
      vertex 62 21.5 23.5
    endloop
  endfacet
  facet normal -0.09801714032956214 0.9951847266721968 0
    outer loop
      vertex 62 21.5 23.5
      vertex 61.31718387294355 21.432748481411306 25.3
      vertex 62 21.5 25.3
    endloop
  endfacet
  facet normal -0.09801714032956214 0.9951847266721968 0
    outer loop
      vertex 61.31718387294355 21.432748481411306 25.3
      vertex 62 21.5 23.5
      vertex 61.31718387294355 21.432748481411306 23.5
    endloop
  endfacet
  facet normal -0.2902846772544583 0.9569403357322102 0
    outer loop
      vertex 61.31718387294355 21.432748481411306 23.5
      vertex 60.660607986722184 21.233578363789505 25.3
      vertex 61.31718387294355 21.432748481411306 25.3
    endloop
  endfacet
  facet normal -0.2902846772544583 0.9569403357322102 0
    outer loop
      vertex 60.660607986722184 21.233578363789505 25.3
      vertex 61.31718387294355 21.432748481411306 23.5
      vertex 60.660607986722184 21.233578363789505 23.5
    endloop
  endfacet
  facet normal -0.4713967368259993 0.881921264348354 0
    outer loop
      vertex 60.660607986722184 21.233578363789505 23.5
      vertex 60.05550418443139 20.91014364305891 25.3
      vertex 60.660607986722184 21.233578363789505 25.3
    endloop
  endfacet
  facet normal -0.4713967368259993 0.881921264348354 0
    outer loop
      vertex 60.05550418443139 20.91014364305891 25.3
      vertex 60.660607986722184 21.233578363789505 23.5
      vertex 60.05550418443139 20.91014364305891 23.5
    endloop
  endfacet
  facet normal -0.6343932841636483 0.7730104533627346 0
    outer loop
      vertex 60.05550418443139 20.91014364305891 23.5
      vertex 59.525126265847085 20.474873734152915 25.3
      vertex 60.05550418443139 20.91014364305891 25.3
    endloop
  endfacet
  facet normal -0.6343932841636483 0.7730104533627346 0
    outer loop
      vertex 59.525126265847085 20.474873734152915 25.3
      vertex 60.05550418443139 20.91014364305891 23.5
      vertex 59.525126265847085 20.474873734152915 23.5
    endloop
  endfacet
  facet normal -0.7730104533627346 0.6343932841636483 9.615645455921206e-19
    outer loop
      vertex 59.08985635694109 19.944495815568608 23.5
      vertex 59.525126265847085 20.474873734152915 25.3
      vertex 59.525126265847085 20.474873734152915 23.5
    endloop
  endfacet
  facet normal -0.7730104533627346 0.6343932841636483 9.615645455921206e-19
    outer loop
      vertex 59.525126265847085 20.474873734152915 25.3
      vertex 59.08985635694109 19.944495815568608 23.5
      vertex 59.08985635694109 19.944495815568608 25.3
    endloop
  endfacet
  facet normal -0.8819212643483553 0.4713967368259972 -1.0421269259537515e-18
    outer loop
      vertex 58.766421636210495 19.339392013277813 23.5
      vertex 59.08985635694109 19.944495815568608 25.3
      vertex 59.08985635694109 19.944495815568608 23.5
    endloop
  endfacet
  facet normal -0.8819212643483553 0.4713967368259972 -1.0421269259537515e-18
    outer loop
      vertex 59.08985635694109 19.944495815568608 25.3
      vertex 58.766421636210495 19.339392013277813 23.5
      vertex 58.766421636210495 19.339392013277813 25.3
    endloop
  endfacet
  facet normal -0.9569403357322083 0.29028467725446444 -7.847025102600582e-18
    outer loop
      vertex 58.56725151858869 18.682816127056448 23.5
      vertex 58.766421636210495 19.339392013277813 25.3
      vertex 58.766421636210495 19.339392013277813 23.5
    endloop
  endfacet
  facet normal -0.9569403357322083 0.29028467725446444 -7.847025102600582e-18
    outer loop
      vertex 58.766421636210495 19.339392013277813 25.3
      vertex 58.56725151858869 18.682816127056448 23.5
      vertex 58.56725151858869 18.682816127056448 25.3
    endloop
  endfacet
  facet normal -0.9951847266721972 0.098017140329557 -7.578400476892731e-19
    outer loop
      vertex 58.5 18 23.5
      vertex 58.56725151858869 18.682816127056448 25.3
      vertex 58.56725151858869 18.682816127056448 23.5
    endloop
  endfacet
  facet normal -0.9951847266721972 0.098017140329557 -7.578400476892731e-19
    outer loop
      vertex 58.56725151858869 18.682816127056448 25.3
      vertex 58.5 18 23.5
      vertex 58.5 18 25.3
    endloop
  endfacet
  facet normal -0.9951847266721972 -0.098017140329557 7.578400476892731e-19
    outer loop
      vertex 58.56725151858869 17.317183872943552 23.5
      vertex 58.5 18 25.3
      vertex 58.5 18 23.5
    endloop
  endfacet
  facet normal -0.9951847266721972 -0.098017140329557 7.578400476892731e-19
    outer loop
      vertex 58.5 18 25.3
      vertex 58.56725151858869 17.317183872943552 23.5
      vertex 58.56725151858869 17.317183872943552 25.3
    endloop
  endfacet
  facet normal -0.9569403357322083 -0.29028467725446444 7.847025102600582e-18
    outer loop
      vertex 58.766421636210495 16.660607986722187 23.5
      vertex 58.56725151858869 17.317183872943552 25.3
      vertex 58.56725151858869 17.317183872943552 23.5
    endloop
  endfacet
  facet normal -0.9569403357322083 -0.29028467725446444 7.847025102600582e-18
    outer loop
      vertex 58.56725151858869 17.317183872943552 25.3
      vertex 58.766421636210495 16.660607986722187 23.5
      vertex 58.766421636210495 16.660607986722187 25.3
    endloop
  endfacet
  facet normal -0.8819212643483553 -0.4713967368259972 1.0421269259537515e-18
    outer loop
      vertex 59.08985635694109 16.055504184431392 23.5
      vertex 58.766421636210495 16.660607986722187 25.3
      vertex 58.766421636210495 16.660607986722187 23.5
    endloop
  endfacet
  facet normal -0.8819212643483553 -0.4713967368259972 1.0421269259537515e-18
    outer loop
      vertex 58.766421636210495 16.660607986722187 25.3
      vertex 59.08985635694109 16.055504184431392 23.5
      vertex 59.08985635694109 16.055504184431392 25.3
    endloop
  endfacet
  facet normal -0.7730104533627357 -0.634393284163647 2.2460357360863588e-18
    outer loop
      vertex 59.525126265847085 15.525126265847083 23.5
      vertex 59.08985635694109 16.055504184431392 25.3
      vertex 59.08985635694109 16.055504184431392 23.5
    endloop
  endfacet
  facet normal -0.7730104533627357 -0.634393284163647 2.2460357360863588e-18
    outer loop
      vertex 59.08985635694109 16.055504184431392 25.3
      vertex 59.525126265847085 15.525126265847083 23.5
      vertex 59.525126265847085 15.525126265847083 25.3
    endloop
  endfacet
  facet normal -0.6343932841636468 -0.773010453362736 0
    outer loop
      vertex 59.525126265847085 15.525126265847083 23.5
      vertex 60.05550418443139 15.089856356941091 25.3
      vertex 59.525126265847085 15.525126265847083 25.3
    endloop
  endfacet
  facet normal -0.6343932841636468 -0.773010453362736 0
    outer loop
      vertex 60.05550418443139 15.089856356941091 25.3
      vertex 59.525126265847085 15.525126265847083 23.5
      vertex 60.05550418443139 15.089856356941091 23.5
    endloop
  endfacet
  facet normal -0.4713967368259973 -0.8819212643483552 0
    outer loop
      vertex 60.05550418443139 15.089856356941091 23.5
      vertex 60.660607986722184 14.766421636210497 25.3
      vertex 60.05550418443139 15.089856356941091 25.3
    endloop
  endfacet
  facet normal -0.4713967368259973 -0.8819212643483552 0
    outer loop
      vertex 60.660607986722184 14.766421636210497 25.3
      vertex 60.05550418443139 15.089856356941091 23.5
      vertex 60.660607986722184 14.766421636210497 23.5
    endloop
  endfacet
  facet normal -0.2902846772544606 -0.9569403357322094 0
    outer loop
      vertex 60.660607986722184 14.766421636210497 23.5
      vertex 61.31718387294355 14.567251518588694 25.3
      vertex 60.660607986722184 14.766421636210497 25.3
    endloop
  endfacet
  facet normal -0.2902846772544606 -0.9569403357322094 0
    outer loop
      vertex 61.31718387294355 14.567251518588694 25.3
      vertex 60.660607986722184 14.766421636210497 23.5
      vertex 61.31718387294355 14.567251518588694 23.5
    endloop
  endfacet
  facet normal -0.09801714032956214 -0.9951847266721968 0
    outer loop
      vertex 61.31718387294355 14.567251518588694 23.5
      vertex 62 14.5 25.3
      vertex 61.31718387294355 14.567251518588694 25.3
    endloop
  endfacet
  facet normal -0.09801714032956214 -0.9951847266721968 0
    outer loop
      vertex 62 14.5 25.3
      vertex 61.31718387294355 14.567251518588694 23.5
      vertex 62 14.5 23.5
    endloop
  endfacet
  facet normal 0.09801714032956214 -0.9951847266721968 0
    outer loop
      vertex 62 14.5 23.5
      vertex 62.68281612705645 14.567251518588694 25.3
      vertex 62 14.5 25.3
    endloop
  endfacet
  facet normal 0.09801714032956214 -0.9951847266721968 0
    outer loop
      vertex 62.68281612705645 14.567251518588694 25.3
      vertex 62 14.5 23.5
      vertex 62.68281612705645 14.567251518588694 23.5
    endloop
  endfacet
  facet normal 0.2902846772544606 -0.9569403357322094 0
    outer loop
      vertex 62.68281612705645 14.567251518588694 23.5
      vertex 63.339392013277816 14.766421636210497 25.3
      vertex 62.68281612705645 14.567251518588694 25.3
    endloop
  endfacet
  facet normal 0.2902846772544606 -0.9569403357322094 0
    outer loop
      vertex 63.339392013277816 14.766421636210497 25.3
      vertex 62.68281612705645 14.567251518588694 23.5
      vertex 63.339392013277816 14.766421636210497 23.5
    endloop
  endfacet
  facet normal 0.4713967368259973 -0.8819212643483552 0
    outer loop
      vertex 63.339392013277816 14.766421636210497 23.5
      vertex 63.94449581556861 15.089856356941091 25.3
      vertex 63.339392013277816 14.766421636210497 25.3
    endloop
  endfacet
  facet normal 0.4713967368259973 -0.8819212643483552 0
    outer loop
      vertex 63.94449581556861 15.089856356941091 25.3
      vertex 63.339392013277816 14.766421636210497 23.5
      vertex 63.94449581556861 15.089856356941091 23.5
    endloop
  endfacet
  facet normal 0.6343932841636417 -0.7730104533627402 0
    outer loop
      vertex 63.94449581556861 15.089856356941091 23.5
      vertex 64.47487373415292 15.525126265847083 25.3
      vertex 63.94449581556861 15.089856356941091 25.3
    endloop
  endfacet
  facet normal 0.6343932841636417 -0.7730104533627402 0
    outer loop
      vertex 64.47487373415292 15.525126265847083 25.3
      vertex 63.94449581556861 15.089856356941091 23.5
      vertex 64.47487373415292 15.525126265847083 23.5
    endloop
  endfacet
  facet normal 0.7730104533627458 -0.6343932841636346 7.788670387394861e-18
    outer loop
      vertex 64.47487373415292 15.525126265847083 25.3
      vertex 64.9101436430589 16.055504184431392 23.5
      vertex 64.9101436430589 16.055504184431392 25.3
    endloop
  endfacet
  facet normal 0.7730104533627458 -0.6343932841636346 7.788670387394861e-18
    outer loop
      vertex 64.9101436430589 16.055504184431392 23.5
      vertex 64.47487373415292 15.525126265847083 25.3
      vertex 64.47487373415292 15.525126265847083 23.5
    endloop
  endfacet
  facet normal 0.881921264348351 -0.47139673682600525 -3.1417835327877918e-18
    outer loop
      vertex 64.9101436430589 16.055504184431392 25.3
      vertex 65.2335783637895 16.660607986722187 23.5
      vertex 65.2335783637895 16.660607986722187 25.3
    endloop
  endfacet
  facet normal 0.881921264348351 -0.47139673682600525 -3.1417835327877918e-18
    outer loop
      vertex 65.2335783637895 16.660607986722187 23.5
      vertex 64.9101436430589 16.055504184431392 25.3
      vertex 64.9101436430589 16.055504184431392 23.5
    endloop
  endfacet
  facet normal 0.9569403357322083 -0.29028467725446444 -7.847025102600582e-18
    outer loop
      vertex 65.2335783637895 16.660607986722187 25.3
      vertex 65.43274848141131 17.317183872943552 23.5
      vertex 65.43274848141131 17.317183872943552 25.3
    endloop
  endfacet
  facet normal 0.9569403357322083 -0.29028467725446444 -7.847025102600582e-18
    outer loop
      vertex 65.43274848141131 17.317183872943552 23.5
      vertex 65.2335783637895 16.660607986722187 25.3
      vertex 65.2335783637895 16.660607986722187 23.5
    endloop
  endfacet
  facet normal 0.9951847266721972 -0.098017140329557 -7.578400476892731e-19
    outer loop
      vertex 65.43274848141131 17.317183872943552 25.3
      vertex 65.5 18 23.5
      vertex 65.5 18 25.3
    endloop
  endfacet
  facet normal 0.9951847266721972 -0.098017140329557 -7.578400476892731e-19
    outer loop
      vertex 65.5 18 23.5
      vertex 65.43274848141131 17.317183872943552 25.3
      vertex 65.43274848141131 17.317183872943552 23.5
    endloop
  endfacet
  facet normal 0 0 -1
    outer loop
      vertex 65.43274848141131 17.317183872943552 23.5
      vertex 65.43274848141131 18.682816127056448 23.5
      vertex 65.5 18 23.5
    endloop
  endfacet
  facet normal 0 0 -1
    outer loop
      vertex 65.2335783637895 16.660607986722187 23.5
      vertex 65.43274848141131 18.682816127056448 23.5
      vertex 65.43274848141131 17.317183872943552 23.5
    endloop
  endfacet
  facet normal 0 0 -1
    outer loop
      vertex 65.2335783637895 16.660607986722187 23.5
      vertex 65.2335783637895 19.339392013277813 23.5
      vertex 65.43274848141131 18.682816127056448 23.5
    endloop
  endfacet
  facet normal 0 0 -1
    outer loop
      vertex 64.9101436430589 16.055504184431392 23.5
      vertex 65.2335783637895 19.339392013277813 23.5
      vertex 65.2335783637895 16.660607986722187 23.5
    endloop
  endfacet
  facet normal 0 0 -1
    outer loop
      vertex 64.9101436430589 16.055504184431392 23.5
      vertex 64.9101436430589 19.944495815568608 23.5
      vertex 65.2335783637895 19.339392013277813 23.5
    endloop
  endfacet
  facet normal 0 0 -1
    outer loop
      vertex 64.47487373415292 15.525126265847083 23.5
      vertex 64.9101436430589 19.944495815568608 23.5
      vertex 64.9101436430589 16.055504184431392 23.5
    endloop
  endfacet
  facet normal 0 0 -1
    outer loop
      vertex 64.47487373415292 15.525126265847083 23.5
      vertex 64.47487373415292 20.474873734152915 23.5
      vertex 64.9101436430589 19.944495815568608 23.5
    endloop
  endfacet
  facet normal 0 0 -1
    outer loop
      vertex 63.94449581556861 15.089856356941091 23.5
      vertex 64.47487373415292 20.474873734152915 23.5
      vertex 64.47487373415292 15.525126265847083 23.5
    endloop
  endfacet
  facet normal 0 0 -1
    outer loop
      vertex 63.94449581556861 15.089856356941091 23.5
      vertex 63.94449581556861 20.91014364305891 23.5
      vertex 64.47487373415292 20.474873734152915 23.5
    endloop
  endfacet
  facet normal 0 0 -1
    outer loop
      vertex 63.339392013277816 14.766421636210497 23.5
      vertex 63.94449581556861 20.91014364305891 23.5
      vertex 63.94449581556861 15.089856356941091 23.5
    endloop
  endfacet
  facet normal 0 0 -1
    outer loop
      vertex 63.339392013277816 14.766421636210497 23.5
      vertex 63.339392013277816 21.233578363789505 23.5
      vertex 63.94449581556861 20.91014364305891 23.5
    endloop
  endfacet
  facet normal 0 0 -1
    outer loop
      vertex 62.68281612705645 14.567251518588694 23.5
      vertex 63.339392013277816 21.233578363789505 23.5
      vertex 63.339392013277816 14.766421636210497 23.5
    endloop
  endfacet
  facet normal 0 0 -1
    outer loop
      vertex 62.68281612705645 14.567251518588694 23.5
      vertex 62.68281612705645 21.432748481411306 23.5
      vertex 63.339392013277816 21.233578363789505 23.5
    endloop
  endfacet
  facet normal 0 0 -1
    outer loop
      vertex 62 14.5 23.5
      vertex 62.68281612705645 21.432748481411306 23.5
      vertex 62.68281612705645 14.567251518588694 23.5
    endloop
  endfacet
  facet normal 0 0 -1
    outer loop
      vertex 62 14.5 23.5
      vertex 62 21.5 23.5
      vertex 62.68281612705645 21.432748481411306 23.5
    endloop
  endfacet
  facet normal 0 0 -1
    outer loop
      vertex 61.31718387294355 14.567251518588694 23.5
      vertex 62 21.5 23.5
      vertex 62 14.5 23.5
    endloop
  endfacet
  facet normal 0 0 -1
    outer loop
      vertex 61.31718387294355 14.567251518588694 23.5
      vertex 61.31718387294355 21.432748481411306 23.5
      vertex 62 21.5 23.5
    endloop
  endfacet
  facet normal 0 0 -1
    outer loop
      vertex 60.660607986722184 14.766421636210497 23.5
      vertex 61.31718387294355 21.432748481411306 23.5
      vertex 61.31718387294355 14.567251518588694 23.5
    endloop
  endfacet
  facet normal 0 0 -1
    outer loop
      vertex 60.660607986722184 14.766421636210497 23.5
      vertex 60.660607986722184 21.233578363789505 23.5
      vertex 61.31718387294355 21.432748481411306 23.5
    endloop
  endfacet
  facet normal 0 0 -1
    outer loop
      vertex 60.05550418443139 15.089856356941091 23.5
      vertex 60.660607986722184 21.233578363789505 23.5
      vertex 60.660607986722184 14.766421636210497 23.5
    endloop
  endfacet
  facet normal 0 0 -1
    outer loop
      vertex 60.05550418443139 15.089856356941091 23.5
      vertex 60.05550418443139 20.91014364305891 23.5
      vertex 60.660607986722184 21.233578363789505 23.5
    endloop
  endfacet
  facet normal 0 0 -1
    outer loop
      vertex 59.525126265847085 15.525126265847083 23.5
      vertex 60.05550418443139 20.91014364305891 23.5
      vertex 60.05550418443139 15.089856356941091 23.5
    endloop
  endfacet
  facet normal 0 0 -1
    outer loop
      vertex 59.525126265847085 15.525126265847083 23.5
      vertex 59.525126265847085 20.474873734152915 23.5
      vertex 60.05550418443139 20.91014364305891 23.5
    endloop
  endfacet
  facet normal 0 0 -1
    outer loop
      vertex 59.08985635694109 16.055504184431392 23.5
      vertex 59.525126265847085 20.474873734152915 23.5
      vertex 59.525126265847085 15.525126265847083 23.5
    endloop
  endfacet
  facet normal 0 0 -1
    outer loop
      vertex 59.08985635694109 16.055504184431392 23.5
      vertex 59.08985635694109 19.944495815568608 23.5
      vertex 59.525126265847085 20.474873734152915 23.5
    endloop
  endfacet
  facet normal 0 0 -1
    outer loop
      vertex 58.766421636210495 16.660607986722187 23.5
      vertex 59.08985635694109 19.944495815568608 23.5
      vertex 59.08985635694109 16.055504184431392 23.5
    endloop
  endfacet
  facet normal 0 0 -1
    outer loop
      vertex 58.766421636210495 16.660607986722187 23.5
      vertex 58.766421636210495 19.339392013277813 23.5
      vertex 59.08985635694109 19.944495815568608 23.5
    endloop
  endfacet
  facet normal 0 0 -1
    outer loop
      vertex 58.56725151858869 17.317183872943552 23.5
      vertex 58.766421636210495 19.339392013277813 23.5
      vertex 58.766421636210495 16.660607986722187 23.5
    endloop
  endfacet
  facet normal 0 0 -1
    outer loop
      vertex 58.56725151858869 17.317183872943552 23.5
      vertex 58.56725151858869 18.682816127056448 23.5
      vertex 58.766421636210495 19.339392013277813 23.5
    endloop
  endfacet
  facet normal 0 0 -1
    outer loop
      vertex 58.56725151858869 18.682816127056448 23.5
      vertex 58.56725151858869 17.317183872943552 23.5
      vertex 58.5 18 23.5
    endloop
  endfacet
  facet normal 0 0 1
    outer loop
      vertex 65.43274848141131 18.682816127056448 25.3
      vertex 65.43274848141131 17.317183872943552 25.3
      vertex 65.5 18 25.3
    endloop
  endfacet
  facet normal 0 0 1
    outer loop
      vertex 65.2335783637895 19.339392013277813 25.3
      vertex 65.43274848141131 17.317183872943552 25.3
      vertex 65.43274848141131 18.682816127056448 25.3
    endloop
  endfacet
  facet normal 0 0 1
    outer loop
      vertex 65.2335783637895 19.339392013277813 25.3
      vertex 65.2335783637895 16.660607986722187 25.3
      vertex 65.43274848141131 17.317183872943552 25.3
    endloop
  endfacet
  facet normal 0 0 1
    outer loop
      vertex 64.9101436430589 19.944495815568608 25.3
      vertex 65.2335783637895 16.660607986722187 25.3
      vertex 65.2335783637895 19.339392013277813 25.3
    endloop
  endfacet
  facet normal 0 0 1
    outer loop
      vertex 64.9101436430589 19.944495815568608 25.3
      vertex 64.9101436430589 16.055504184431392 25.3
      vertex 65.2335783637895 16.660607986722187 25.3
    endloop
  endfacet
  facet normal 0 0 1
    outer loop
      vertex 64.47487373415292 20.474873734152915 25.3
      vertex 64.9101436430589 16.055504184431392 25.3
      vertex 64.9101436430589 19.944495815568608 25.3
    endloop
  endfacet
  facet normal 0 0 1
    outer loop
      vertex 64.47487373415292 20.474873734152915 25.3
      vertex 64.47487373415292 15.525126265847083 25.3
      vertex 64.9101436430589 16.055504184431392 25.3
    endloop
  endfacet
  facet normal 0 0 1
    outer loop
      vertex 63.94449581556861 20.91014364305891 25.3
      vertex 64.47487373415292 15.525126265847083 25.3
      vertex 64.47487373415292 20.474873734152915 25.3
    endloop
  endfacet
  facet normal 0 0 1
    outer loop
      vertex 63.94449581556861 20.91014364305891 25.3
      vertex 63.94449581556861 15.089856356941091 25.3
      vertex 64.47487373415292 15.525126265847083 25.3
    endloop
  endfacet
  facet normal 0 0 1
    outer loop
      vertex 63.339392013277816 21.233578363789505 25.3
      vertex 63.94449581556861 15.089856356941091 25.3
      vertex 63.94449581556861 20.91014364305891 25.3
    endloop
  endfacet
  facet normal 0 0 1
    outer loop
      vertex 63.339392013277816 21.233578363789505 25.3
      vertex 63.339392013277816 14.766421636210497 25.3
      vertex 63.94449581556861 15.089856356941091 25.3
    endloop
  endfacet
  facet normal 0 0 1
    outer loop
      vertex 62.68281612705645 21.432748481411306 25.3
      vertex 63.339392013277816 14.766421636210497 25.3
      vertex 63.339392013277816 21.233578363789505 25.3
    endloop
  endfacet
  facet normal 0 0 1
    outer loop
      vertex 62.68281612705645 21.432748481411306 25.3
      vertex 62.68281612705645 14.567251518588694 25.3
      vertex 63.339392013277816 14.766421636210497 25.3
    endloop
  endfacet
  facet normal 0 0 1
    outer loop
      vertex 62 21.5 25.3
      vertex 62.68281612705645 14.567251518588694 25.3
      vertex 62.68281612705645 21.432748481411306 25.3
    endloop
  endfacet
  facet normal 0 0 1
    outer loop
      vertex 62 21.5 25.3
      vertex 62 14.5 25.3
      vertex 62.68281612705645 14.567251518588694 25.3
    endloop
  endfacet
  facet normal 0 0 1
    outer loop
      vertex 61.31718387294355 21.432748481411306 25.3
      vertex 62 14.5 25.3
      vertex 62 21.5 25.3
    endloop
  endfacet
  facet normal 0 0 1
    outer loop
      vertex 61.31718387294355 21.432748481411306 25.3
      vertex 61.31718387294355 14.567251518588694 25.3
      vertex 62 14.5 25.3
    endloop
  endfacet
  facet normal 0 0 1
    outer loop
      vertex 60.660607986722184 21.233578363789505 25.3
      vertex 61.31718387294355 14.567251518588694 25.3
      vertex 61.31718387294355 21.432748481411306 25.3
    endloop
  endfacet
  facet normal 0 0 1
    outer loop
      vertex 60.660607986722184 21.233578363789505 25.3
      vertex 60.660607986722184 14.766421636210497 25.3
      vertex 61.31718387294355 14.567251518588694 25.3
    endloop
  endfacet
  facet normal 0 0 1
    outer loop
      vertex 60.05550418443139 20.91014364305891 25.3
      vertex 60.660607986722184 14.766421636210497 25.3
      vertex 60.660607986722184 21.233578363789505 25.3
    endloop
  endfacet
  facet normal 0 0 1
    outer loop
      vertex 60.05550418443139 20.91014364305891 25.3
      vertex 60.05550418443139 15.089856356941091 25.3
      vertex 60.660607986722184 14.766421636210497 25.3
    endloop
  endfacet
  facet normal 0 0 1
    outer loop
      vertex 59.525126265847085 20.474873734152915 25.3
      vertex 60.05550418443139 15.089856356941091 25.3
      vertex 60.05550418443139 20.91014364305891 25.3
    endloop
  endfacet
  facet normal 0 0 1
    outer loop
      vertex 59.525126265847085 20.474873734152915 25.3
      vertex 59.525126265847085 15.525126265847083 25.3
      vertex 60.05550418443139 15.089856356941091 25.3
    endloop
  endfacet
  facet normal 0 0 1
    outer loop
      vertex 59.08985635694109 19.944495815568608 25.3
      vertex 59.525126265847085 15.525126265847083 25.3
      vertex 59.525126265847085 20.474873734152915 25.3
    endloop
  endfacet
  facet normal 0 0 1
    outer loop
      vertex 59.08985635694109 19.944495815568608 25.3
      vertex 59.08985635694109 16.055504184431392 25.3
      vertex 59.525126265847085 15.525126265847083 25.3
    endloop
  endfacet
  facet normal 0 0 1
    outer loop
      vertex 58.766421636210495 19.339392013277813 25.3
      vertex 59.08985635694109 16.055504184431392 25.3
      vertex 59.08985635694109 19.944495815568608 25.3
    endloop
  endfacet
  facet normal 0 0 1
    outer loop
      vertex 58.766421636210495 19.339392013277813 25.3
      vertex 58.766421636210495 16.660607986722187 25.3
      vertex 59.08985635694109 16.055504184431392 25.3
    endloop
  endfacet
  facet normal 0 0 1
    outer loop
      vertex 58.56725151858869 18.682816127056448 25.3
      vertex 58.766421636210495 16.660607986722187 25.3
      vertex 58.766421636210495 19.339392013277813 25.3
    endloop
  endfacet
  facet normal 0 0 1
    outer loop
      vertex 58.56725151858869 18.682816127056448 25.3
      vertex 58.56725151858869 17.317183872943552 25.3
      vertex 58.766421636210495 16.660607986722187 25.3
    endloop
  endfacet
  facet normal 0 0 1
    outer loop
      vertex 58.56725151858869 17.317183872943552 25.3
      vertex 58.56725151858869 18.682816127056448 25.3
      vertex 58.5 18 25.3
    endloop
  endfacet
endsolid OpenSCAD_Model
