solid OpenSCAD_Model
  facet normal 0.9951847266721972 0.09801714032955686 -2.6592787427604102e-18
    outer loop
      vertex 52.5 5 25.3
      vertex 52.43274848141131 5.682816127056449 23.5
      vertex 52.43274848141131 5.682816127056449 25.3
    endloop
  endfacet
  facet normal 0.9951847266721972 0.09801714032955686 -2.6592787427604102e-18
    outer loop
      vertex 52.43274848141131 5.682816127056449 23.5
      vertex 52.5 5 25.3
      vertex 52.5 5 23.5
    endloop
  endfacet
  facet normal 0.9569403357322083 0.2902846772544641 -5.456976591582325e-19
    outer loop
      vertex 52.43274848141131 5.682816127056449 25.3
      vertex 52.233578363789505 6.3393920132778145 23.5
      vertex 52.233578363789505 6.3393920132778145 25.3
    endloop
  endfacet
  facet normal 0.9569403357322083 0.2902846772544641 -5.456976591582325e-19
    outer loop
      vertex 52.233578363789505 6.3393920132778145 23.5
      vertex 52.43274848141131 5.682816127056449 25.3
      vertex 52.43274848141131 5.682816127056449 23.5
    endloop
  endfacet
  facet normal 0.8819212643483546 0.4713967368259983 -5.704028487216326e-18
    outer loop
      vertex 52.233578363789505 6.3393920132778145 25.3
      vertex 51.91014364305891 6.944495815568608 23.5
      vertex 51.91014364305891 6.944495815568608 25.3
    endloop
  endfacet
  facet normal 0.8819212643483546 0.4713967368259983 -5.704028487216326e-18
    outer loop
      vertex 51.91014364305891 6.944495815568608 23.5
      vertex 52.233578363789505 6.3393920132778145 25.3
      vertex 52.233578363789505 6.3393920132778145 23.5
    endloop
  endfacet
  facet normal 0.7730104533627357 0.634393284163647 2.2460357360863588e-18
    outer loop
      vertex 51.91014364305891 6.944495815568608 25.3
      vertex 51.474873734152915 7.474873734152917 23.5
      vertex 51.474873734152915 7.474873734152917 25.3
    endloop
  endfacet
  facet normal 0.7730104533627357 0.634393284163647 2.2460357360863588e-18
    outer loop
      vertex 51.474873734152915 7.474873734152917 23.5
      vertex 51.91014364305891 6.944495815568608 25.3
      vertex 51.91014364305891 6.944495815568608 23.5
    endloop
  endfacet
  facet normal 0.6343932841636468 0.773010453362736 0
    outer loop
      vertex 51.474873734152915 7.474873734152917 23.5
      vertex 50.94449581556861 7.910143643058909 25.3
      vertex 51.474873734152915 7.474873734152917 25.3
    endloop
  endfacet
  facet normal 0.6343932841636468 0.773010453362736 0
    outer loop
      vertex 50.94449581556861 7.910143643058909 25.3
      vertex 51.474873734152915 7.474873734152917 23.5
      vertex 50.94449581556861 7.910143643058909 23.5
    endloop
  endfacet
  facet normal 0.4713967368259973 0.8819212643483552 0
    outer loop
      vertex 50.94449581556861 7.910143643058909 23.5
      vertex 50.339392013277816 8.233578363789503 25.3
      vertex 50.94449581556861 7.910143643058909 25.3
    endloop
  endfacet
  facet normal 0.4713967368259973 0.8819212643483552 0
    outer loop
      vertex 50.339392013277816 8.233578363789503 25.3
      vertex 50.94449581556861 7.910143643058909 23.5
      vertex 50.339392013277816 8.233578363789503 23.5
    endloop
  endfacet
  facet normal 0.2902846772544606 0.9569403357322094 0
    outer loop
      vertex 50.339392013277816 8.233578363789503 23.5
      vertex 49.68281612705645 8.432748481411306 25.3
      vertex 50.339392013277816 8.233578363789503 25.3
    endloop
  endfacet
  facet normal 0.2902846772544606 0.9569403357322094 0
    outer loop
      vertex 49.68281612705645 8.432748481411306 25.3
      vertex 50.339392013277816 8.233578363789503 23.5
      vertex 49.68281612705645 8.432748481411306 23.5
    endloop
  endfacet
  facet normal 0.09801714032956214 0.9951847266721968 0
    outer loop
      vertex 49.68281612705645 8.432748481411306 23.5
      vertex 49 8.5 25.3
      vertex 49.68281612705645 8.432748481411306 25.3
    endloop
  endfacet
  facet normal 0.09801714032956214 0.9951847266721968 0
    outer loop
      vertex 49 8.5 25.3
      vertex 49.68281612705645 8.432748481411306 23.5
      vertex 49 8.5 23.5
    endloop
  endfacet
  facet normal -0.09801714032956214 0.9951847266721968 0
    outer loop
      vertex 49 8.5 23.5
      vertex 48.31718387294355 8.432748481411306 25.3
      vertex 49 8.5 25.3
    endloop
  endfacet
  facet normal -0.09801714032956214 0.9951847266721968 0
    outer loop
      vertex 48.31718387294355 8.432748481411306 25.3
      vertex 49 8.5 23.5
      vertex 48.31718387294355 8.432748481411306 23.5
    endloop
  endfacet
  facet normal -0.2902846772544606 0.9569403357322094 0
    outer loop
      vertex 48.31718387294355 8.432748481411306 23.5
      vertex 47.660607986722184 8.233578363789503 25.3
      vertex 48.31718387294355 8.432748481411306 25.3
    endloop
  endfacet
  facet normal -0.2902846772544606 0.9569403357322094 0
    outer loop
      vertex 47.660607986722184 8.233578363789503 25.3
      vertex 48.31718387294355 8.432748481411306 23.5
      vertex 47.660607986722184 8.233578363789503 23.5
    endloop
  endfacet
  facet normal -0.4713967368259973 0.8819212643483552 0
    outer loop
      vertex 47.660607986722184 8.233578363789503 23.5
      vertex 47.05550418443139 7.910143643058909 25.3
      vertex 47.660607986722184 8.233578363789503 25.3
    endloop
  endfacet
  facet normal -0.4713967368259973 0.8819212643483552 0
    outer loop
      vertex 47.05550418443139 7.910143643058909 25.3
      vertex 47.660607986722184 8.233578363789503 23.5
      vertex 47.05550418443139 7.910143643058909 23.5
    endloop
  endfacet
  facet normal -0.6343932841636468 0.773010453362736 0
    outer loop
      vertex 47.05550418443139 7.910143643058909 23.5
      vertex 46.525126265847085 7.474873734152917 25.3
      vertex 47.05550418443139 7.910143643058909 25.3
    endloop
  endfacet
  facet normal -0.6343932841636468 0.773010453362736 0
    outer loop
      vertex 46.525126265847085 7.474873734152917 25.3
      vertex 47.05550418443139 7.910143643058909 23.5
      vertex 46.525126265847085 7.474873734152917 23.5
    endloop
  endfacet
  facet normal -0.7730104533627357 0.634393284163647 -2.2460357360863588e-18
    outer loop
      vertex 46.08985635694109 6.944495815568608 23.5
      vertex 46.525126265847085 7.474873734152917 25.3
      vertex 46.525126265847085 7.474873734152917 23.5
    endloop
  endfacet
  facet normal -0.7730104533627357 0.634393284163647 -2.2460357360863588e-18
    outer loop
      vertex 46.525126265847085 7.474873734152917 25.3
      vertex 46.08985635694109 6.944495815568608 23.5
      vertex 46.08985635694109 6.944495815568608 25.3
    endloop
  endfacet
  facet normal -0.8819212643483546 0.4713967368259983 5.704028487216326e-18
    outer loop
      vertex 45.766421636210495 6.3393920132778145 23.5
      vertex 46.08985635694109 6.944495815568608 25.3
      vertex 46.08985635694109 6.944495815568608 23.5
    endloop
  endfacet
  facet normal -0.8819212643483546 0.4713967368259983 5.704028487216326e-18
    outer loop
      vertex 46.08985635694109 6.944495815568608 25.3
      vertex 45.766421636210495 6.3393920132778145 23.5
      vertex 45.766421636210495 6.3393920132778145 25.3
    endloop
  endfacet
  facet normal -0.9569403357322083 0.2902846772544641 5.456976591582325e-19
    outer loop
      vertex 45.56725151858869 5.682816127056449 23.5
      vertex 45.766421636210495 6.3393920132778145 25.3
      vertex 45.766421636210495 6.3393920132778145 23.5
    endloop
  endfacet
  facet normal -0.9569403357322083 0.2902846772544641 5.456976591582325e-19
    outer loop
      vertex 45.766421636210495 6.3393920132778145 25.3
      vertex 45.56725151858869 5.682816127056449 23.5
      vertex 45.56725151858869 5.682816127056449 25.3
    endloop
  endfacet
  facet normal -0.9951847266721972 0.09801714032955686 2.6592787427604102e-18
    outer loop
      vertex 45.5 5 23.5
      vertex 45.56725151858869 5.682816127056449 25.3
      vertex 45.56725151858869 5.682816127056449 23.5
    endloop
  endfacet
  facet normal -0.9951847266721972 0.09801714032955686 2.6592787427604102e-18
    outer loop
      vertex 45.56725151858869 5.682816127056449 25.3
      vertex 45.5 5 23.5
      vertex 45.5 5 25.3
    endloop
  endfacet
  facet normal -0.9951847266721972 -0.09801714032955686 -2.6592787427604102e-18
    outer loop
      vertex 45.56725151858869 4.317183872943551 23.5
      vertex 45.5 5 25.3
      vertex 45.5 5 23.5
    endloop
  endfacet
  facet normal -0.9951847266721972 -0.09801714032955686 -2.6592787427604102e-18
    outer loop
      vertex 45.5 5 25.3
      vertex 45.56725151858869 4.317183872943551 23.5
      vertex 45.56725151858869 4.317183872943551 25.3
    endloop
  endfacet
  facet normal -0.9569403357322083 -0.2902846772544641 -5.456976591582325e-19
    outer loop
      vertex 45.766421636210495 3.6606079867221855 23.5
      vertex 45.56725151858869 4.317183872943551 25.3
      vertex 45.56725151858869 4.317183872943551 23.5
    endloop
  endfacet
  facet normal -0.9569403357322083 -0.2902846772544641 -5.456976591582325e-19
    outer loop
      vertex 45.56725151858869 4.317183872943551 25.3
      vertex 45.766421636210495 3.6606079867221855 23.5
      vertex 45.766421636210495 3.6606079867221855 25.3
    endloop
  endfacet
  facet normal -0.8819212643483546 -0.4713967368259986 -1.772102411437896e-18
    outer loop
      vertex 46.08985635694109 3.0555041844313924 23.5
      vertex 45.766421636210495 3.6606079867221855 25.3
      vertex 45.766421636210495 3.6606079867221855 23.5
    endloop
  endfacet
  facet normal -0.8819212643483546 -0.4713967368259986 -1.772102411437896e-18
    outer loop
      vertex 45.766421636210495 3.6606079867221855 25.3
      vertex 46.08985635694109 3.0555041844313924 23.5
      vertex 46.08985635694109 3.0555041844313924 25.3
    endloop
  endfacet
  facet normal -0.7730104533627357 -0.634393284163647 2.2460357360863588e-18
    outer loop
      vertex 46.525126265847085 2.5251262658470837 23.5
      vertex 46.08985635694109 3.0555041844313924 25.3
      vertex 46.08985635694109 3.0555041844313924 23.5
    endloop
  endfacet
  facet normal -0.7730104533627357 -0.634393284163647 2.2460357360863588e-18
    outer loop
      vertex 46.08985635694109 3.0555041844313924 25.3
      vertex 46.525126265847085 2.5251262658470837 23.5
      vertex 46.525126265847085 2.5251262658470837 25.3
    endloop
  endfacet
  facet normal -0.6343932841636468 -0.773010453362736 0
    outer loop
      vertex 46.525126265847085 2.5251262658470837 23.5
      vertex 47.05550418443139 2.0898563569410915 25.3
      vertex 46.525126265847085 2.5251262658470837 25.3
    endloop
  endfacet
  facet normal -0.6343932841636468 -0.773010453362736 0
    outer loop
      vertex 47.05550418443139 2.0898563569410915 25.3
      vertex 46.525126265847085 2.5251262658470837 23.5
      vertex 47.05550418443139 2.0898563569410915 23.5
    endloop
  endfacet
  facet normal -0.4713967368259984 -0.8819212643483547 0
    outer loop
      vertex 47.05550418443139 2.0898563569410915 23.5
      vertex 47.660607986722184 1.7664216362104965 25.3
      vertex 47.05550418443139 2.0898563569410915 25.3
    endloop
  endfacet
  facet normal -0.4713967368259984 -0.8819212643483547 0
    outer loop
      vertex 47.660607986722184 1.7664216362104965 25.3
      vertex 47.05550418443139 2.0898563569410915 23.5
      vertex 47.660607986722184 1.7664216362104965 23.5
    endloop
  endfacet
  facet normal -0.2902846772544612 -0.9569403357322092 0
    outer loop
      vertex 47.660607986722184 1.7664216362104965 23.5
      vertex 48.31718387294355 1.5672515185886935 25.3
      vertex 47.660607986722184 1.7664216362104965 25.3
    endloop
  endfacet
  facet normal -0.2902846772544612 -0.9569403357322092 0
    outer loop
      vertex 48.31718387294355 1.5672515185886935 25.3
      vertex 47.660607986722184 1.7664216362104965 23.5
      vertex 48.31718387294355 1.5672515185886935 23.5
    endloop
  endfacet
  facet normal -0.09801714032956084 -0.9951847266721968 0
    outer loop
      vertex 48.31718387294355 1.5672515185886935 23.5
      vertex 49 1.5 25.3
      vertex 48.31718387294355 1.5672515185886935 25.3
    endloop
  endfacet
  facet normal -0.09801714032956084 -0.9951847266721968 0
    outer loop
      vertex 49 1.5 25.3
      vertex 48.31718387294355 1.5672515185886935 23.5
      vertex 49 1.5 23.5
    endloop
  endfacet
  facet normal 0.09801714032956084 -0.9951847266721968 0
    outer loop
      vertex 49 1.5 23.5
      vertex 49.68281612705645 1.5672515185886935 25.3
      vertex 49 1.5 25.3
    endloop
  endfacet
  facet normal 0.09801714032956084 -0.9951847266721968 0
    outer loop
      vertex 49.68281612705645 1.5672515185886935 25.3
      vertex 49 1.5 23.5
      vertex 49.68281612705645 1.5672515185886935 23.5
    endloop
  endfacet
  facet normal 0.2902846772544612 -0.9569403357322092 0
    outer loop
      vertex 49.68281612705645 1.5672515185886935 23.5
      vertex 50.339392013277816 1.7664216362104965 25.3
      vertex 49.68281612705645 1.5672515185886935 25.3
    endloop
  endfacet
  facet normal 0.2902846772544612 -0.9569403357322092 0
    outer loop
      vertex 50.339392013277816 1.7664216362104965 25.3
      vertex 49.68281612705645 1.5672515185886935 23.5
      vertex 50.339392013277816 1.7664216362104965 23.5
    endloop
  endfacet
  facet normal 0.4713967368259984 -0.8819212643483547 0
    outer loop
      vertex 50.339392013277816 1.7664216362104965 23.5
      vertex 50.94449581556861 2.0898563569410915 25.3
      vertex 50.339392013277816 1.7664216362104965 25.3
    endloop
  endfacet
  facet normal 0.4713967368259984 -0.8819212643483547 0
    outer loop
      vertex 50.94449581556861 2.0898563569410915 25.3
      vertex 50.339392013277816 1.7664216362104965 23.5
      vertex 50.94449581556861 2.0898563569410915 23.5
    endloop
  endfacet
  facet normal 0.6343932841636468 -0.773010453362736 0
    outer loop
      vertex 50.94449581556861 2.0898563569410915 23.5
      vertex 51.474873734152915 2.5251262658470837 25.3
      vertex 50.94449581556861 2.0898563569410915 25.3
    endloop
  endfacet
  facet normal 0.6343932841636468 -0.773010453362736 0
    outer loop
      vertex 51.474873734152915 2.5251262658470837 25.3
      vertex 50.94449581556861 2.0898563569410915 23.5
      vertex 51.474873734152915 2.5251262658470837 23.5
    endloop
  endfacet
  facet normal 0.7730104533627357 -0.634393284163647 -2.2460357360863588e-18
    outer loop
      vertex 51.474873734152915 2.5251262658470837 25.3
      vertex 51.91014364305891 3.0555041844313924 23.5
      vertex 51.91014364305891 3.0555041844313924 25.3
    endloop
  endfacet
  facet normal 0.7730104533627357 -0.634393284163647 -2.2460357360863588e-18
    outer loop
      vertex 51.91014364305891 3.0555041844313924 23.5
      vertex 51.474873734152915 2.5251262658470837 25.3
      vertex 51.474873734152915 2.5251262658470837 23.5
    endloop
  endfacet
  facet normal 0.8819212643483546 -0.4713967368259986 1.772102411437896e-18
    outer loop
      vertex 51.91014364305891 3.0555041844313924 25.3
      vertex 52.233578363789505 3.6606079867221855 23.5
      vertex 52.233578363789505 3.6606079867221855 25.3
    endloop
  endfacet
  facet normal 0.8819212643483546 -0.4713967368259986 1.772102411437896e-18
    outer loop
      vertex 52.233578363789505 3.6606079867221855 23.5
      vertex 51.91014364305891 3.0555041844313924 25.3
      vertex 51.91014364305891 3.0555041844313924 23.5
    endloop
  endfacet
  facet normal 0.9569403357322083 -0.2902846772544641 5.456976591582325e-19
    outer loop
      vertex 52.233578363789505 3.6606079867221855 25.3
      vertex 52.43274848141131 4.317183872943551 23.5
      vertex 52.43274848141131 4.317183872943551 25.3
    endloop
  endfacet
  facet normal 0.9569403357322083 -0.2902846772544641 5.456976591582325e-19
    outer loop
      vertex 52.43274848141131 4.317183872943551 23.5
      vertex 52.233578363789505 3.6606079867221855 25.3
      vertex 52.233578363789505 3.6606079867221855 23.5
    endloop
  endfacet
  facet normal 0.9951847266721972 -0.09801714032955686 2.6592787427604102e-18
    outer loop
      vertex 52.43274848141131 4.317183872943551 25.3
      vertex 52.5 5 23.5
      vertex 52.5 5 25.3
    endloop
  endfacet
  facet normal 0.9951847266721972 -0.09801714032955686 2.6592787427604102e-18
    outer loop
      vertex 52.5 5 23.5
      vertex 52.43274848141131 4.317183872943551 25.3
      vertex 52.43274848141131 4.317183872943551 23.5
    endloop
  endfacet
  facet normal 0 0 -1
    outer loop
      vertex 52.43274848141131 4.317183872943551 23.5
      vertex 52.43274848141131 5.682816127056449 23.5
      vertex 52.5 5 23.5
    endloop
  endfacet
  facet normal 0 0 -1
    outer loop
      vertex 52.233578363789505 3.6606079867221855 23.5
      vertex 52.43274848141131 5.682816127056449 23.5
      vertex 52.43274848141131 4.317183872943551 23.5
    endloop
  endfacet
  facet normal 0 0 -1
    outer loop
      vertex 52.233578363789505 3.6606079867221855 23.5
      vertex 52.233578363789505 6.3393920132778145 23.5
      vertex 52.43274848141131 5.682816127056449 23.5
    endloop
  endfacet
  facet normal 0 0 -1
    outer loop
      vertex 51.91014364305891 3.0555041844313924 23.5
      vertex 52.233578363789505 6.3393920132778145 23.5
      vertex 52.233578363789505 3.6606079867221855 23.5
    endloop
  endfacet
  facet normal 0 0 -1
    outer loop
      vertex 51.91014364305891 3.0555041844313924 23.5
      vertex 51.91014364305891 6.944495815568608 23.5
      vertex 52.233578363789505 6.3393920132778145 23.5
    endloop
  endfacet
  facet normal 0 0 -1
    outer loop
      vertex 51.474873734152915 2.5251262658470837 23.5
      vertex 51.91014364305891 6.944495815568608 23.5
      vertex 51.91014364305891 3.0555041844313924 23.5
    endloop
  endfacet
  facet normal 0 0 -1
    outer loop
      vertex 51.474873734152915 2.5251262658470837 23.5
      vertex 51.474873734152915 7.474873734152917 23.5
      vertex 51.91014364305891 6.944495815568608 23.5
    endloop
  endfacet
  facet normal 0 0 -1
    outer loop
      vertex 50.94449581556861 2.0898563569410915 23.5
      vertex 51.474873734152915 7.474873734152917 23.5
      vertex 51.474873734152915 2.5251262658470837 23.5
    endloop
  endfacet
  facet normal 0 0 -1
    outer loop
      vertex 50.94449581556861 2.0898563569410915 23.5
      vertex 50.94449581556861 7.910143643058909 23.5
      vertex 51.474873734152915 7.474873734152917 23.5
    endloop
  endfacet
  facet normal 0 0 -1
    outer loop
      vertex 50.339392013277816 1.7664216362104965 23.5
      vertex 50.94449581556861 7.910143643058909 23.5
      vertex 50.94449581556861 2.0898563569410915 23.5
    endloop
  endfacet
  facet normal 0 0 -1
    outer loop
      vertex 50.339392013277816 1.7664216362104965 23.5
      vertex 50.339392013277816 8.233578363789503 23.5
      vertex 50.94449581556861 7.910143643058909 23.5
    endloop
  endfacet
  facet normal 0 0 -1
    outer loop
      vertex 49.68281612705645 1.5672515185886935 23.5
      vertex 50.339392013277816 8.233578363789503 23.5
      vertex 50.339392013277816 1.7664216362104965 23.5
    endloop
  endfacet
  facet normal 0 0 -1
    outer loop
      vertex 49.68281612705645 1.5672515185886935 23.5
      vertex 49.68281612705645 8.432748481411306 23.5
      vertex 50.339392013277816 8.233578363789503 23.5
    endloop
  endfacet
  facet normal 0 0 -1
    outer loop
      vertex 49 1.5 23.5
      vertex 49.68281612705645 8.432748481411306 23.5
      vertex 49.68281612705645 1.5672515185886935 23.5
    endloop
  endfacet
  facet normal 0 0 -1
    outer loop
      vertex 49 1.5 23.5
      vertex 49 8.5 23.5
      vertex 49.68281612705645 8.432748481411306 23.5
    endloop
  endfacet
  facet normal 0 0 -1
    outer loop
      vertex 48.31718387294355 1.5672515185886935 23.5
      vertex 49 8.5 23.5
      vertex 49 1.5 23.5
    endloop
  endfacet
  facet normal 0 0 -1
    outer loop
      vertex 48.31718387294355 1.5672515185886935 23.5
      vertex 48.31718387294355 8.432748481411306 23.5
      vertex 49 8.5 23.5
    endloop
  endfacet
  facet normal 0 0 -1
    outer loop
      vertex 47.660607986722184 1.7664216362104965 23.5
      vertex 48.31718387294355 8.432748481411306 23.5
      vertex 48.31718387294355 1.5672515185886935 23.5
    endloop
  endfacet
  facet normal 0 0 -1
    outer loop
      vertex 47.660607986722184 1.7664216362104965 23.5
      vertex 47.660607986722184 8.233578363789503 23.5
      vertex 48.31718387294355 8.432748481411306 23.5
    endloop
  endfacet
  facet normal 0 0 -1
    outer loop
      vertex 47.05550418443139 2.0898563569410915 23.5
      vertex 47.660607986722184 8.233578363789503 23.5
      vertex 47.660607986722184 1.7664216362104965 23.5
    endloop
  endfacet
  facet normal 0 0 -1
    outer loop
      vertex 47.05550418443139 2.0898563569410915 23.5
      vertex 47.05550418443139 7.910143643058909 23.5
      vertex 47.660607986722184 8.233578363789503 23.5
    endloop
  endfacet
  facet normal 0 0 -1
    outer loop
      vertex 46.525126265847085 2.5251262658470837 23.5
      vertex 47.05550418443139 7.910143643058909 23.5
      vertex 47.05550418443139 2.0898563569410915 23.5
    endloop
  endfacet
  facet normal 0 0 -1
    outer loop
      vertex 46.525126265847085 2.5251262658470837 23.5
      vertex 46.525126265847085 7.474873734152917 23.5
      vertex 47.05550418443139 7.910143643058909 23.5
    endloop
  endfacet
  facet normal 0 0 -1
    outer loop
      vertex 46.08985635694109 3.0555041844313924 23.5
      vertex 46.525126265847085 7.474873734152917 23.5
      vertex 46.525126265847085 2.5251262658470837 23.5
    endloop
  endfacet
  facet normal 0 0 -1
    outer loop
      vertex 46.08985635694109 3.0555041844313924 23.5
      vertex 46.08985635694109 6.944495815568608 23.5
      vertex 46.525126265847085 7.474873734152917 23.5
    endloop
  endfacet
  facet normal 0 0 -1
    outer loop
      vertex 45.766421636210495 3.6606079867221855 23.5
      vertex 46.08985635694109 6.944495815568608 23.5
      vertex 46.08985635694109 3.0555041844313924 23.5
    endloop
  endfacet
  facet normal 0 0 -1
    outer loop
      vertex 45.766421636210495 3.6606079867221855 23.5
      vertex 45.766421636210495 6.3393920132778145 23.5
      vertex 46.08985635694109 6.944495815568608 23.5
    endloop
  endfacet
  facet normal 0 0 -1
    outer loop
      vertex 45.56725151858869 4.317183872943551 23.5
      vertex 45.766421636210495 6.3393920132778145 23.5
      vertex 45.766421636210495 3.6606079867221855 23.5
    endloop
  endfacet
  facet normal 0 0 -1
    outer loop
      vertex 45.56725151858869 4.317183872943551 23.5
      vertex 45.56725151858869 5.682816127056449 23.5
      vertex 45.766421636210495 6.3393920132778145 23.5
    endloop
  endfacet
  facet normal 0 0 -1
    outer loop
      vertex 45.56725151858869 5.682816127056449 23.5
      vertex 45.56725151858869 4.317183872943551 23.5
      vertex 45.5 5 23.5
    endloop
  endfacet
  facet normal 0 0 1
    outer loop
      vertex 52.43274848141131 5.682816127056449 25.3
      vertex 52.43274848141131 4.317183872943551 25.3
      vertex 52.5 5 25.3
    endloop
  endfacet
  facet normal 0 0 1
    outer loop
      vertex 52.233578363789505 6.3393920132778145 25.3
      vertex 52.43274848141131 4.317183872943551 25.3
      vertex 52.43274848141131 5.682816127056449 25.3
    endloop
  endfacet
  facet normal 0 0 1
    outer loop
      vertex 52.233578363789505 6.3393920132778145 25.3
      vertex 52.233578363789505 3.6606079867221855 25.3
      vertex 52.43274848141131 4.317183872943551 25.3
    endloop
  endfacet
  facet normal 0 0 1
    outer loop
      vertex 51.91014364305891 6.944495815568608 25.3
      vertex 52.233578363789505 3.6606079867221855 25.3
      vertex 52.233578363789505 6.3393920132778145 25.3
    endloop
  endfacet
  facet normal 0 0 1
    outer loop
      vertex 51.91014364305891 6.944495815568608 25.3
      vertex 51.91014364305891 3.0555041844313924 25.3
      vertex 52.233578363789505 3.6606079867221855 25.3
    endloop
  endfacet
  facet normal 0 0 1
    outer loop
      vertex 51.474873734152915 7.474873734152917 25.3
      vertex 51.91014364305891 3.0555041844313924 25.3
      vertex 51.91014364305891 6.944495815568608 25.3
    endloop
  endfacet
  facet normal 0 0 1
    outer loop
      vertex 51.474873734152915 7.474873734152917 25.3
      vertex 51.474873734152915 2.5251262658470837 25.3
      vertex 51.91014364305891 3.0555041844313924 25.3
    endloop
  endfacet
  facet normal 0 0 1
    outer loop
      vertex 50.94449581556861 7.910143643058909 25.3
      vertex 51.474873734152915 2.5251262658470837 25.3
      vertex 51.474873734152915 7.474873734152917 25.3
    endloop
  endfacet
  facet normal 0 0 1
    outer loop
      vertex 50.94449581556861 7.910143643058909 25.3
      vertex 50.94449581556861 2.0898563569410915 25.3
      vertex 51.474873734152915 2.5251262658470837 25.3
    endloop
  endfacet
  facet normal 0 0 1
    outer loop
      vertex 50.339392013277816 8.233578363789503 25.3
      vertex 50.94449581556861 2.0898563569410915 25.3
      vertex 50.94449581556861 7.910143643058909 25.3
    endloop
  endfacet
  facet normal 0 0 1
    outer loop
      vertex 50.339392013277816 8.233578363789503 25.3
      vertex 50.339392013277816 1.7664216362104965 25.3
      vertex 50.94449581556861 2.0898563569410915 25.3
    endloop
  endfacet
  facet normal 0 0 1
    outer loop
      vertex 49.68281612705645 8.432748481411306 25.3
      vertex 50.339392013277816 1.7664216362104965 25.3
      vertex 50.339392013277816 8.233578363789503 25.3
    endloop
  endfacet
  facet normal 0 0 1
    outer loop
      vertex 49.68281612705645 8.432748481411306 25.3
      vertex 49.68281612705645 1.5672515185886935 25.3
      vertex 50.339392013277816 1.7664216362104965 25.3
    endloop
  endfacet
  facet normal 0 0 1
    outer loop
      vertex 49 8.5 25.3
      vertex 49.68281612705645 1.5672515185886935 25.3
      vertex 49.68281612705645 8.432748481411306 25.3
    endloop
  endfacet
  facet normal 0 0 1
    outer loop
      vertex 49 8.5 25.3
      vertex 49 1.5 25.3
      vertex 49.68281612705645 1.5672515185886935 25.3
    endloop
  endfacet
  facet normal 0 0 1
    outer loop
      vertex 48.31718387294355 8.432748481411306 25.3
      vertex 49 1.5 25.3
      vertex 49 8.5 25.3
    endloop
  endfacet
  facet normal 0 0 1
    outer loop
      vertex 48.31718387294355 8.432748481411306 25.3
      vertex 48.31718387294355 1.5672515185886935 25.3
      vertex 49 1.5 25.3
    endloop
  endfacet
  facet normal 0 0 1
    outer loop
      vertex 47.660607986722184 8.233578363789503 25.3
      vertex 48.31718387294355 1.5672515185886935 25.3
      vertex 48.31718387294355 8.432748481411306 25.3
    endloop
  endfacet
  facet normal 0 0 1
    outer loop
      vertex 47.660607986722184 8.233578363789503 25.3
      vertex 47.660607986722184 1.7664216362104965 25.3
      vertex 48.31718387294355 1.5672515185886935 25.3
    endloop
  endfacet
  facet normal 0 0 1
    outer loop
      vertex 47.05550418443139 7.910143643058909 25.3
      vertex 47.660607986722184 1.7664216362104965 25.3
      vertex 47.660607986722184 8.233578363789503 25.3
    endloop
  endfacet
  facet normal 0 0 1
    outer loop
      vertex 47.05550418443139 7.910143643058909 25.3
      vertex 47.05550418443139 2.0898563569410915 25.3
      vertex 47.660607986722184 1.7664216362104965 25.3
    endloop
  endfacet
  facet normal 0 0 1
    outer loop
      vertex 46.525126265847085 7.474873734152917 25.3
      vertex 47.05550418443139 2.0898563569410915 25.3
      vertex 47.05550418443139 7.910143643058909 25.3
    endloop
  endfacet
  facet normal 0 0 1
    outer loop
      vertex 46.525126265847085 7.474873734152917 25.3
      vertex 46.525126265847085 2.5251262658470837 25.3
      vertex 47.05550418443139 2.0898563569410915 25.3
    endloop
  endfacet
  facet normal 0 0 1
    outer loop
      vertex 46.08985635694109 6.944495815568608 25.3
      vertex 46.525126265847085 2.5251262658470837 25.3
      vertex 46.525126265847085 7.474873734152917 25.3
    endloop
  endfacet
  facet normal 0 0 1
    outer loop
      vertex 46.08985635694109 6.944495815568608 25.3
      vertex 46.08985635694109 3.0555041844313924 25.3
      vertex 46.525126265847085 2.5251262658470837 25.3
    endloop
  endfacet
  facet normal 0 0 1
    outer loop
      vertex 45.766421636210495 6.3393920132778145 25.3
      vertex 46.08985635694109 3.0555041844313924 25.3
      vertex 46.08985635694109 6.944495815568608 25.3
    endloop
  endfacet
  facet normal 0 0 1
    outer loop
      vertex 45.766421636210495 6.3393920132778145 25.3
      vertex 45.766421636210495 3.6606079867221855 25.3
      vertex 46.08985635694109 3.0555041844313924 25.3
    endloop
  endfacet
  facet normal 0 0 1
    outer loop
      vertex 45.56725151858869 5.682816127056449 25.3
      vertex 45.766421636210495 3.6606079867221855 25.3
      vertex 45.766421636210495 6.3393920132778145 25.3
    endloop
  endfacet
  facet normal 0 0 1
    outer loop
      vertex 45.56725151858869 5.682816127056449 25.3
      vertex 45.56725151858869 4.317183872943551 25.3
      vertex 45.766421636210495 3.6606079867221855 25.3
    endloop
  endfacet
  facet normal 0 0 1
    outer loop
      vertex 45.56725151858869 4.317183872943551 25.3
      vertex 45.56725151858869 5.682816127056449 25.3
      vertex 45.5 5 25.3
    endloop
  endfacet
endsolid OpenSCAD_Model
