solid OpenSCAD_Model
  facet normal -0.6087614290087213 -0.7933533402912345 0
    outer loop
      vertex 53.5 31.102885682970026 -0.2
      vertex 52.56801948466054 31.818019484660535 2
      vertex 52.56801948466054 31.818019484660535 -0.2
    endloop
  endfacet
  facet normal -0.13052619222005143 -0.9914448613738106 0
    outer loop
      vertex 54.58531429703866 30.653333781699192 -0.2
      vertex 55.75 30.5 -0.2
      vertex 54.58531429703866 30.653333781699192 2
    endloop
  endfacet
  facet normal -0.3826834323650897 -0.9238795325112867 0
    outer loop
      vertex 54.58531429703866 30.653333781699192 -0.2
      vertex 53.5 31.102885682970026 2
      vertex 53.5 31.102885682970026 -0.2
    endloop
  endfacet
  facet normal -0.6087614290087213 -0.7933533402912345 0
    outer loop
      vertex 53.5 31.102885682970026 -0.2
      vertex 53.5 31.102885682970026 2
      vertex 52.56801948466054 31.818019484660535 2
    endloop
  endfacet
  facet normal -0.3826834323650897 -0.9238795325112867 0
    outer loop
      vertex 54.58531429703866 30.653333781699192 -0.2
      vertex 54.58531429703866 30.653333781699192 2
      vertex 53.5 31.102885682970026 2
    endloop
  endfacet
  facet normal -0.13052619222005143 -0.9914448613738106 0
    outer loop
      vertex 55.75 30.5 -0.2
      vertex 55.75 30.5 2
      vertex 54.58531429703866 30.653333781699192 2
    endloop
  endfacet
  facet normal -0.7933533402912343 -0.6087614290087218 0
    outer loop
      vertex 52.56801948466054 31.818019484660535 -0.2
      vertex 51.852885682970026 32.75 2
      vertex 51.852885682970026 32.75 -0.2
    endloop
  endfacet
  facet normal 0 0 -1
    outer loop
      vertex 53.5 31.102885682970026 -0.2
      vertex 52.56801948466054 31.818019484660535 -0.2
      vertex 53.5 38.897114317029974 -0.2
    endloop
  endfacet
  facet normal 0 0 -1
    outer loop
      vertex 52.56801948466054 31.818019484660535 -0.2
      vertex 51.852885682970026 32.75 -0.2
      vertex 52.56801948466054 38.18198051533946 -0.2
    endloop
  endfacet
  facet normal 0 0 -1
    outer loop
      vertex 51.852885682970026 32.75 -0.2
      vertex 51.40333378169919 33.83531429703866 -0.2
      vertex 51.852885682970026 37.25 -0.2
    endloop
  endfacet
  facet normal -0.9914448613738109 -0.13052619222004846 0
    outer loop
      vertex 51.40333378169919 33.83531429703866 -0.2
      vertex 51.25 35 2
      vertex 51.25 35 -0.2
    endloop
  endfacet
  facet normal -0.9238795325112857 -0.38268343236509234 0
    outer loop
      vertex 51.852885682970026 32.75 -0.2
      vertex 51.40333378169919 33.83531429703866 2
      vertex 51.40333378169919 33.83531429703866 -0.2
    endloop
  endfacet
  facet normal 0 0 -1
    outer loop
      vertex 54.58531429703866 30.653333781699192 -0.2
      vertex 53.5 31.102885682970026 -0.2
      vertex 54.58531429703866 39.34666621830081 -0.2
    endloop
  endfacet
  facet normal 0 0 -1
    outer loop
      vertex 54.58531429703866 30.653333781699192 -0.2
      vertex 55.75 39.5 -0.2
      vertex 55.75 30.5 -0.2
    endloop
  endfacet
  facet normal -0.7933533402912343 -0.6087614290087218 0
    outer loop
      vertex 52.56801948466054 31.818019484660535 -0.2
      vertex 52.56801948466054 31.818019484660535 2
      vertex 51.852885682970026 32.75 2
    endloop
  endfacet
  facet normal -0.9238795325112857 -0.38268343236509234 0
    outer loop
      vertex 51.852885682970026 32.75 -0.2
      vertex 51.852885682970026 32.75 2
      vertex 51.40333378169919 33.83531429703866 2
    endloop
  endfacet
  facet normal -0.9914448613738109 -0.13052619222004846 0
    outer loop
      vertex 51.40333378169919 33.83531429703866 -0.2
      vertex 51.40333378169919 33.83531429703866 2
      vertex 51.25 35 2
    endloop
  endfacet
  facet normal 0 -1 0
    outer loop
      vertex 55.75 30.5 -0.2
      vertex 74.25 30.5 -0.2
      vertex 55.75 30.5 2
    endloop
  endfacet
  facet normal 0 0 -1
    outer loop
      vertex 51.40333378169919 33.83531429703866 -0.2
      vertex 51.25 35 -0.2
      vertex 51.40333378169919 36.16468570296134 -0.2
    endloop
  endfacet
  facet normal 0 0 -1
    outer loop
      vertex 51.40333378169919 33.83531429703866 -0.2
      vertex 51.40333378169919 36.16468570296134 -0.2
      vertex 51.852885682970026 37.25 -0.2
    endloop
  endfacet
  facet normal 0 0 -1
    outer loop
      vertex 51.852885682970026 32.75 -0.2
      vertex 51.852885682970026 37.25 -0.2
      vertex 52.56801948466054 38.18198051533946 -0.2
    endloop
  endfacet
  facet normal 0 0 -1
    outer loop
      vertex 52.56801948466054 31.818019484660535 -0.2
      vertex 52.56801948466054 38.18198051533946 -0.2
      vertex 53.5 38.897114317029974 -0.2
    endloop
  endfacet
  facet normal -0.9914448613738109 0.13052619222004846 0
    outer loop
      vertex 51.25 35 -0.2
      vertex 51.40333378169919 36.16468570296134 2
      vertex 51.40333378169919 36.16468570296134 -0.2
    endloop
  endfacet
  facet normal -0.9238795325112857 0.38268343236509234 0
    outer loop
      vertex 51.40333378169919 36.16468570296134 -0.2
      vertex 51.852885682970026 37.25 2
      vertex 51.852885682970026 37.25 -0.2
    endloop
  endfacet
  facet normal -0.7933533402912331 0.6087614290087233 0
    outer loop
      vertex 51.852885682970026 37.25 -0.2
      vertex 52.56801948466054 38.18198051533946 2
      vertex 52.56801948466054 38.18198051533946 -0.2
    endloop
  endfacet
  facet normal 0 0 -1
    outer loop
      vertex 53.5 31.102885682970026 -0.2
      vertex 53.5 38.897114317029974 -0.2
      vertex 54.58531429703866 39.34666621830081 -0.2
    endloop
  endfacet
  facet normal 0 0 -1
    outer loop
      vertex 54.58531429703866 30.653333781699192 -0.2
      vertex 54.58531429703866 39.34666621830081 -0.2
      vertex 55.75 39.5 -0.2
    endloop
  endfacet
  facet normal -0.9914448613738109 0.13052619222004846 0
    outer loop
      vertex 51.25 35 -0.2
      vertex 51.25 35 2
      vertex 51.40333378169919 36.16468570296134 2
    endloop
  endfacet
  facet normal -0.9238795325112857 0.38268343236509234 0
    outer loop
      vertex 51.40333378169919 36.16468570296134 -0.2
      vertex 51.40333378169919 36.16468570296134 2
      vertex 51.852885682970026 37.25 2
    endloop
  endfacet
  facet normal -0.7933533402912331 0.6087614290087233 0
    outer loop
      vertex 51.852885682970026 37.25 -0.2
      vertex 51.852885682970026 37.25 2
      vertex 52.56801948466054 38.18198051533946 2
    endloop
  endfacet
  facet normal -0.6087614290087233 0.7933533402912331 0
    outer loop
      vertex 52.56801948466054 38.18198051533946 -0.2
      vertex 53.5 38.897114317029974 2
      vertex 53.5 38.897114317029974 -0.2
    endloop
  endfacet
  facet normal -0.38268343236509234 0.9238795325112857 0
    outer loop
      vertex 53.5 38.897114317029974 -0.2
      vertex 54.58531429703866 39.34666621830081 2
      vertex 54.58531429703866 39.34666621830081 -0.2
    endloop
  endfacet
  facet normal -0.13052619222004846 0.9914448613738109 0
    outer loop
      vertex 54.58531429703866 39.34666621830081 -0.2
      vertex 55.75 39.5 2
      vertex 55.75 39.5 -0.2
    endloop
  endfacet
  facet normal -0.6087614290087233 0.7933533402912331 0
    outer loop
      vertex 52.56801948466054 38.18198051533946 -0.2
      vertex 52.56801948466054 38.18198051533946 2
      vertex 53.5 38.897114317029974 2
    endloop
  endfacet
  facet normal -0.38268343236509234 0.9238795325112857 0
    outer loop
      vertex 53.5 38.897114317029974 -0.2
      vertex 53.5 38.897114317029974 2
      vertex 54.58531429703866 39.34666621830081 2
    endloop
  endfacet
  facet normal -0.13052619222004846 0.9914448613738109 0
    outer loop
      vertex 54.58531429703866 39.34666621830081 -0.2
      vertex 54.58531429703866 39.34666621830081 2
      vertex 55.75 39.5 2
    endloop
  endfacet
  facet normal 0 0 -1
    outer loop
      vertex 55.75 30.5 -0.2
      vertex 55.75 39.5 -0.2
      vertex 74.25 39.5 -0.2
    endloop
  endfacet
  facet normal 0 1 0
    outer loop
      vertex 55.75 39.5 -0.2
      vertex 55.75 39.5 2
      vertex 74.25 39.5 2
    endloop
  endfacet
  facet normal 0 -1 0
    outer loop
      vertex 74.25 30.5 -0.2
      vertex 74.25 30.5 2
      vertex 55.75 30.5 2
    endloop
  endfacet
  facet normal 0 0 -1
    outer loop
      vertex 55.75 30.5 -0.2
      vertex 74.25 39.5 -0.2
      vertex 74.25 30.5 -0.2
    endloop
  endfacet
  facet normal 0.13052619222005066 -0.9914448613738106 0
    outer loop
      vertex 74.25 30.5 -0.2
      vertex 75.41468570296135 30.653333781699192 -0.2
      vertex 74.25 30.5 2
    endloop
  endfacet
  facet normal 0.3826834323650919 -0.923879532511286 0
    outer loop
      vertex 75.41468570296135 30.653333781699192 -0.2
      vertex 76.5 31.102885682970026 -0.2
      vertex 75.41468570296135 30.653333781699192 2
    endloop
  endfacet
  facet normal 0.6087614290087213 -0.7933533402912345 0
    outer loop
      vertex 76.5 31.102885682970026 -0.2
      vertex 77.43198051533946 31.818019484660535 -0.2
      vertex 76.5 31.102885682970026 2
    endloop
  endfacet
  facet normal 0.13052619222005066 -0.9914448613738106 0
    outer loop
      vertex 75.41468570296135 30.653333781699192 -0.2
      vertex 75.41468570296135 30.653333781699192 2
      vertex 74.25 30.5 2
    endloop
  endfacet
  facet normal 0.3826834323650919 -0.923879532511286 0
    outer loop
      vertex 76.5 31.102885682970026 -0.2
      vertex 76.5 31.102885682970026 2
      vertex 75.41468570296135 30.653333781699192 2
    endloop
  endfacet
  facet normal 0.6087614290087213 -0.7933533402912345 0
    outer loop
      vertex 77.43198051533946 31.818019484660535 -0.2
      vertex 77.43198051533946 31.818019484660535 2
      vertex 76.5 31.102885682970026 2
    endloop
  endfacet
  facet normal 0 0 -1
    outer loop
      vertex 74.25 30.5 -0.2
      vertex 75.41468570296135 39.34666621830081 -0.2
      vertex 75.41468570296135 30.653333781699192 -0.2
    endloop
  endfacet
  facet normal 0 0 -1
    outer loop
      vertex 75.41468570296135 30.653333781699192 -0.2
      vertex 76.5 38.897114317029974 -0.2
      vertex 76.5 31.102885682970026 -0.2
    endloop
  endfacet
  facet normal 0.7933533402912343 -0.6087614290087218 0
    outer loop
      vertex 77.43198051533946 31.818019484660535 -0.2
      vertex 78.14711431702997 32.75 -0.2
      vertex 77.43198051533946 31.818019484660535 2
    endloop
  endfacet
  facet normal 0.9238795325112857 -0.38268343236509234 0
    outer loop
      vertex 78.14711431702997 32.75 -0.2
      vertex 78.59666621830081 33.83531429703866 -0.2
      vertex 78.14711431702997 32.75 2
    endloop
  endfacet
  facet normal 0 0 -1
    outer loop
      vertex 76.5 31.102885682970026 -0.2
      vertex 77.43198051533946 38.18198051533946 -0.2
      vertex 77.43198051533946 31.818019484660535 -0.2
    endloop
  endfacet
  facet normal 0 0 -1
    outer loop
      vertex 77.43198051533946 31.818019484660535 -0.2
      vertex 78.14711431702997 37.25 -0.2
      vertex 78.14711431702997 32.75 -0.2
    endloop
  endfacet
  facet normal 0 0 -1
    outer loop
      vertex 78.14711431702997 32.75 -0.2
      vertex 78.59666621830081 36.16468570296134 -0.2
      vertex 78.59666621830081 33.83531429703866 -0.2
    endloop
  endfacet
  facet normal 0.9914448613738109 -0.13052619222004846 0
    outer loop
      vertex 78.59666621830081 33.83531429703866 -0.2
      vertex 78.75 35 -0.2
      vertex 78.59666621830081 33.83531429703866 2
    endloop
  endfacet
  facet normal 0.7933533402912343 -0.6087614290087218 0
    outer loop
      vertex 78.14711431702997 32.75 -0.2
      vertex 78.14711431702997 32.75 2
      vertex 77.43198051533946 31.818019484660535 2
    endloop
  endfacet
  facet normal 0.9238795325112857 -0.38268343236509234 0
    outer loop
      vertex 78.59666621830081 33.83531429703866 -0.2
      vertex 78.59666621830081 33.83531429703866 2
      vertex 78.14711431702997 32.75 2
    endloop
  endfacet
  facet normal 0.9914448613738109 -0.13052619222004846 0
    outer loop
      vertex 78.75 35 -0.2
      vertex 78.75 35 2
      vertex 78.59666621830081 33.83531429703866 2
    endloop
  endfacet
  facet normal 0 1 0
    outer loop
      vertex 55.75 39.5 -0.2
      vertex 74.25 39.5 2
      vertex 74.25 39.5 -0.2
    endloop
  endfacet
  facet normal 0 0 -1
    outer loop
      vertex 74.25 30.5 -0.2
      vertex 74.25 39.5 -0.2
      vertex 75.41468570296135 39.34666621830081 -0.2
    endloop
  endfacet
  facet normal 0 0 -1
    outer loop
      vertex 75.41468570296135 30.653333781699192 -0.2
      vertex 75.41468570296135 39.34666621830081 -0.2
      vertex 76.5 38.897114317029974 -0.2
    endloop
  endfacet
  facet normal 0 0 -1
    outer loop
      vertex 78.14711431702997 32.75 -0.2
      vertex 78.14711431702997 37.25 -0.2
      vertex 78.59666621830081 36.16468570296134 -0.2
    endloop
  endfacet
  facet normal 0 0 -1
    outer loop
      vertex 77.43198051533946 31.818019484660535 -0.2
      vertex 77.43198051533946 38.18198051533946 -0.2
      vertex 78.14711431702997 37.25 -0.2
    endloop
  endfacet
  facet normal 0 0 -1
    outer loop
      vertex 76.5 31.102885682970026 -0.2
      vertex 76.5 38.897114317029974 -0.2
      vertex 77.43198051533946 38.18198051533946 -0.2
    endloop
  endfacet
  facet normal 0 0 -1
    outer loop
      vertex 78.59666621830081 33.83531429703866 -0.2
      vertex 78.59666621830081 36.16468570296134 -0.2
      vertex 78.75 35 -0.2
    endloop
  endfacet
  facet normal 0.9238795325112857 0.38268343236509234 0
    outer loop
      vertex 78.59666621830081 36.16468570296134 -0.2
      vertex 78.14711431702997 37.25 -0.2
      vertex 78.59666621830081 36.16468570296134 2
    endloop
  endfacet
  facet normal 0.9914448613738109 0.13052619222004846 0
    outer loop
      vertex 78.75 35 -0.2
      vertex 78.59666621830081 36.16468570296134 -0.2
      vertex 78.75 35 2
    endloop
  endfacet
  facet normal 0.7933533402912331 0.6087614290087233 0
    outer loop
      vertex 78.14711431702997 37.25 -0.2
      vertex 77.43198051533946 38.18198051533946 -0.2
      vertex 78.14711431702997 37.25 2
    endloop
  endfacet
  facet normal 0.9914448613738109 0.13052619222004846 0
    outer loop
      vertex 78.59666621830081 36.16468570296134 -0.2
      vertex 78.59666621830081 36.16468570296134 2
      vertex 78.75 35 2
    endloop
  endfacet
  facet normal 0.9238795325112857 0.38268343236509234 0
    outer loop
      vertex 78.14711431702997 37.25 -0.2
      vertex 78.14711431702997 37.25 2
      vertex 78.59666621830081 36.16468570296134 2
    endloop
  endfacet
  facet normal 0.7933533402912331 0.6087614290087233 0
    outer loop
      vertex 77.43198051533946 38.18198051533946 -0.2
      vertex 77.43198051533946 38.18198051533946 2
      vertex 78.14711431702997 37.25 2
    endloop
  endfacet
  facet normal 0.38268343236509444 0.9238795325112849 0
    outer loop
      vertex 76.5 38.897114317029974 -0.2
      vertex 75.41468570296135 39.34666621830081 -0.2
      vertex 76.5 38.897114317029974 2
    endloop
  endfacet
  facet normal 0.13052619222004766 0.9914448613738109 0
    outer loop
      vertex 74.25 39.5 -0.2
      vertex 75.41468570296135 39.34666621830081 2
      vertex 75.41468570296135 39.34666621830081 -0.2
    endloop
  endfacet
  facet normal 0.6087614290087233 0.7933533402912331 0
    outer loop
      vertex 77.43198051533946 38.18198051533946 -0.2
      vertex 76.5 38.897114317029974 -0.2
      vertex 77.43198051533946 38.18198051533946 2
    endloop
  endfacet
  facet normal 0.13052619222004766 0.9914448613738109 0
    outer loop
      vertex 74.25 39.5 -0.2
      vertex 74.25 39.5 2
      vertex 75.41468570296135 39.34666621830081 2
    endloop
  endfacet
  facet normal 0.38268343236509444 0.9238795325112849 0
    outer loop
      vertex 75.41468570296135 39.34666621830081 -0.2
      vertex 75.41468570296135 39.34666621830081 2
      vertex 76.5 38.897114317029974 2
    endloop
  endfacet
  facet normal 0.6087614290087233 0.7933533402912331 0
    outer loop
      vertex 76.5 38.897114317029974 -0.2
      vertex 76.5 38.897114317029974 2
      vertex 77.43198051533946 38.18198051533946 2
    endloop
  endfacet
  facet normal -0.38268343236509 -0.9238795325112866 0
    outer loop
      vertex 52.75 29.37083487540115 2
      vertex 54.31767620683362 28.721482129121057 2
      vertex 52.75 29.37083487540115 2.8
    endloop
  endfacet
  facet normal -0.6087614290087188 -0.7933533402912367 0
    outer loop
      vertex 52.75 29.37083487540115 2
      vertex 51.40380592228744 30.40380592228744 2.8
      vertex 51.40380592228744 30.40380592228744 2
    endloop
  endfacet
  facet normal -0.7933533402912367 -0.6087614290087188 0
    outer loop
      vertex 51.40380592228744 30.40380592228744 2
      vertex 50.37083487540115 31.75 2.8
      vertex 50.37083487540115 31.75 2
    endloop
  endfacet
  facet normal 0 0 -1
    outer loop
      vertex 52.75 29.37083487540115 2
      vertex 51.40380592228744 30.40380592228744 2
      vertex 52.56801948466054 31.818019484660535 2
    endloop
  endfacet
  facet normal 0 0 -1
    outer loop
      vertex 52.75 29.37083487540115 2
      vertex 52.56801948466054 31.818019484660535 2
      vertex 53.5 31.102885682970026 2
    endloop
  endfacet
  facet normal 0 0 -1
    outer loop
      vertex 51.40380592228744 30.40380592228744 2
      vertex 51.852885682970026 32.75 2
      vertex 52.56801948466054 31.818019484660535 2
    endloop
  endfacet
  facet normal -0.1305261922200522 -0.9914448613738104 0
    outer loop
      vertex 54.31767620683362 28.721482129121057 2
      vertex 56 28.5 2
      vertex 54.31767620683362 28.721482129121057 2.8
    endloop
  endfacet
  facet normal 0 0 -1
    outer loop
      vertex 52.75 29.37083487540115 2
      vertex 53.5 31.102885682970026 2
      vertex 54.31767620683362 28.721482129121057 2
    endloop
  endfacet
  facet normal 0 0 -1
    outer loop
      vertex 54.31767620683362 28.721482129121057 2
      vertex 54.58531429703866 30.653333781699192 2
      vertex 55.75 30.5 2
    endloop
  endfacet
  facet normal 0 0 -1
    outer loop
      vertex 54.31767620683362 28.721482129121057 2
      vertex 55.75 30.5 2
      vertex 56 28.5 2
    endloop
  endfacet
  facet normal 0 0 -1
    outer loop
      vertex 54.31767620683362 28.721482129121057 2
      vertex 53.5 31.102885682970026 2
      vertex 54.58531429703866 30.653333781699192 2
    endloop
  endfacet
  facet normal 0 0 -1
    outer loop
      vertex 51.40380592228744 30.40380592228744 2
      vertex 50.37083487540115 31.75 2
      vertex 51.40333378169919 33.83531429703866 2
    endloop
  endfacet
  facet normal -0.9238795325112866 -0.38268343236509 0
    outer loop
      vertex 50.37083487540115 31.75 2
      vertex 49.72148212912106 33.31767620683362 2.8
      vertex 49.72148212912106 33.31767620683362 2
    endloop
  endfacet
  facet normal 0 0 -1
    outer loop
      vertex 51.40380592228744 30.40380592228744 2
      vertex 51.40333378169919 33.83531429703866 2
      vertex 51.852885682970026 32.75 2
    endloop
  endfacet
  facet normal 0 0 -1
    outer loop
      vertex 50.37083487540115 31.75 2
      vertex 51.25 35 2
      vertex 51.40333378169919 33.83531429703866 2
    endloop
  endfacet
  facet normal 0 0 -1
    outer loop
      vertex 50.37083487540115 31.75 2
      vertex 49.72148212912106 33.31767620683362 2
      vertex 50.37083487540115 38.25 2
    endloop
  endfacet
  facet normal -0.9914448613738104 -0.1305261922200522 0
    outer loop
      vertex 49.72148212912106 33.31767620683362 2
      vertex 49.5 35 2.8
      vertex 49.5 35 2
    endloop
  endfacet
  facet normal 0 -1 0
    outer loop
      vertex 56 28.5 2
      vertex 74 28.5 2
      vertex 56 28.5 2.8
    endloop
  endfacet
  facet normal 0 0 -1
    outer loop
      vertex 56 28.5 2
      vertex 55.75 30.5 2
      vertex 74 28.5 2
    endloop
  endfacet
  facet normal -0.6087614290087188 -0.7933533402912367 0
    outer loop
      vertex 52.75 29.37083487540115 2
      vertex 52.75 29.37083487540115 2.8
      vertex 51.40380592228744 30.40380592228744 2.8
    endloop
  endfacet
  facet normal -0.7933533402912367 -0.6087614290087188 0
    outer loop
      vertex 51.40380592228744 30.40380592228744 2
      vertex 51.40380592228744 30.40380592228744 2.8
      vertex 50.37083487540115 31.75 2.8
    endloop
  endfacet
  facet normal -0.38268343236509 -0.9238795325112866 0
    outer loop
      vertex 54.31767620683362 28.721482129121057 2
      vertex 54.31767620683362 28.721482129121057 2.8
      vertex 52.75 29.37083487540115 2.8
    endloop
  endfacet
  facet normal -0.1305261922200522 -0.9914448613738104 0
    outer loop
      vertex 56 28.5 2
      vertex 56 28.5 2.8
      vertex 54.31767620683362 28.721482129121057 2.8
    endloop
  endfacet
  facet normal -0.9238795325112866 -0.38268343236509 0
    outer loop
      vertex 50.37083487540115 31.75 2
      vertex 50.37083487540115 31.75 2.8
      vertex 49.72148212912106 33.31767620683362 2.8
    endloop
  endfacet
  facet normal -0.9914448613738104 -0.1305261922200522 0
    outer loop
      vertex 49.72148212912106 33.31767620683362 2
      vertex 49.72148212912106 33.31767620683362 2.8
      vertex 49.5 35 2.8
    endloop
  endfacet
  facet normal 0 0 1
    outer loop
      vertex 51.40380592228744 30.40380592228744 2.8
      vertex 51.40380592228744 39.59619407771256 2.8
      vertex 50.37083487540115 31.75 2.8
    endloop
  endfacet
  facet normal 0 0 1
    outer loop
      vertex 50.37083487540115 31.75 2.8
      vertex 50.37083487540115 38.25 2.8
      vertex 49.72148212912106 33.31767620683362 2.8
    endloop
  endfacet
  facet normal 0 0 1
    outer loop
      vertex 52.75 29.37083487540115 2.8
      vertex 52.75 40.62916512459885 2.8
      vertex 51.40380592228744 30.40380592228744 2.8
    endloop
  endfacet
  facet normal 0 0 1
    outer loop
      vertex 52.75 29.37083487540115 2.8
      vertex 54.31767620683362 28.721482129121057 2.8
      vertex 54.31767620683362 41.27851787087894 2.8
    endloop
  endfacet
  facet normal 0 0 1
    outer loop
      vertex 54.31767620683362 28.721482129121057 2.8
      vertex 56 28.5 2.8
      vertex 56 41.5 2.8
    endloop
  endfacet
  facet normal 0 0 1
    outer loop
      vertex 56 28.5 2.8
      vertex 74 28.5 2.8
      vertex 64.61731656763492 34.076120467488714 2.8
    endloop
  endfacet
  facet normal 0 0 1
    outer loop
      vertex 56 28.5 2.8
      vertex 64.0761204674887 34.61731656763491 2.8
      vertex 56 41.5 2.8
    endloop
  endfacet
  facet normal 0 0 1
    outer loop
      vertex 56 28.5 2.8
      vertex 64.29289321881345 34.292893218813454 2.8
      vertex 64.0761204674887 34.61731656763491 2.8
    endloop
  endfacet
  facet normal 0 0 1
    outer loop
      vertex 56 28.5 2.8
      vertex 64.61731656763492 34.076120467488714 2.8
      vertex 64.29289321881345 34.292893218813454 2.8
    endloop
  endfacet
  facet normal 0 0 -1
    outer loop
      vertex 49.72148212912106 33.31767620683362 2
      vertex 49.5 35 2
      vertex 49.72148212912106 36.68232379316638 2
    endloop
  endfacet
  facet normal 0 0 -1
    outer loop
      vertex 50.37083487540115 31.75 2
      vertex 51.40380592228744 39.59619407771256 2
      vertex 51.25 35 2
    endloop
  endfacet
  facet normal 0 0 -1
    outer loop
      vertex 49.72148212912106 33.31767620683362 2
      vertex 49.72148212912106 36.68232379316638 2
      vertex 50.37083487540115 38.25 2
    endloop
  endfacet
  facet normal -0.9914448613738104 0.1305261922200522 0
    outer loop
      vertex 49.5 35 2
      vertex 49.72148212912106 36.68232379316638 2.8
      vertex 49.72148212912106 36.68232379316638 2
    endloop
  endfacet
  facet normal 0 0 -1
    outer loop
      vertex 50.37083487540115 31.75 2
      vertex 50.37083487540115 38.25 2
      vertex 51.40380592228744 39.59619407771256 2
    endloop
  endfacet
  facet normal 0 0 -1
    outer loop
      vertex 51.40380592228744 39.59619407771256 2
      vertex 51.40333378169919 36.16468570296134 2
      vertex 51.25 35 2
    endloop
  endfacet
  facet normal -0.9238795325112866 0.38268343236509 0
    outer loop
      vertex 49.72148212912106 36.68232379316638 2
      vertex 50.37083487540115 38.25 2.8
      vertex 50.37083487540115 38.25 2
    endloop
  endfacet
  facet normal 0 0 -1
    outer loop
      vertex 51.40380592228744 39.59619407771256 2
      vertex 51.852885682970026 37.25 2
      vertex 51.40333378169919 36.16468570296134 2
    endloop
  endfacet
  facet normal -0.7933533402912367 0.6087614290087188 0
    outer loop
      vertex 50.37083487540115 38.25 2
      vertex 51.40380592228744 39.59619407771256 2.8
      vertex 51.40380592228744 39.59619407771256 2
    endloop
  endfacet
  facet normal 0 0 -1
    outer loop
      vertex 51.40380592228744 39.59619407771256 2
      vertex 52.56801948466054 38.18198051533946 2
      vertex 51.852885682970026 37.25 2
    endloop
  endfacet
  facet normal 0 0 -1
    outer loop
      vertex 51.40380592228744 39.59619407771256 2
      vertex 52.75 40.62916512459885 2
      vertex 52.56801948466054 38.18198051533946 2
    endloop
  endfacet
  facet normal 0 0 -1
    outer loop
      vertex 52.75 40.62916512459885 2
      vertex 53.5 38.897114317029974 2
      vertex 52.56801948466054 38.18198051533946 2
    endloop
  endfacet
  facet normal -0.6087614290087188 0.7933533402912367 0
    outer loop
      vertex 51.40380592228744 39.59619407771256 2
      vertex 52.75 40.62916512459885 2.8
      vertex 52.75 40.62916512459885 2
    endloop
  endfacet
  facet normal 0 0 -1
    outer loop
      vertex 52.75 40.62916512459885 2
      vertex 54.58531429703866 39.34666621830081 2
      vertex 53.5 38.897114317029974 2
    endloop
  endfacet
  facet normal 0 0 -1
    outer loop
      vertex 52.75 40.62916512459885 2
      vertex 54.31767620683362 41.27851787087894 2
      vertex 54.58531429703866 39.34666621830081 2
    endloop
  endfacet
  facet normal 0 0 -1
    outer loop
      vertex 54.31767620683362 41.27851787087894 2
      vertex 55.75 39.5 2
      vertex 54.58531429703866 39.34666621830081 2
    endloop
  endfacet
  facet normal -0.38268343236509 0.9238795325112866 0
    outer loop
      vertex 52.75 40.62916512459885 2
      vertex 54.31767620683362 41.27851787087894 2.8
      vertex 54.31767620683362 41.27851787087894 2
    endloop
  endfacet
  facet normal 0 0 -1
    outer loop
      vertex 54.31767620683362 41.27851787087894 2
      vertex 56 41.5 2
      vertex 55.75 39.5 2
    endloop
  endfacet
  facet normal -0.1305261922200522 0.9914448613738104 0
    outer loop
      vertex 54.31767620683362 41.27851787087894 2
      vertex 56 41.5 2.8
      vertex 56 41.5 2
    endloop
  endfacet
  facet normal 0 0 -1
    outer loop
      vertex 56 41.5 2
      vertex 74.25 39.5 2
      vertex 55.75 39.5 2
    endloop
  endfacet
  facet normal -0.9914448613738104 0.1305261922200522 0
    outer loop
      vertex 49.5 35 2
      vertex 49.5 35 2.8
      vertex 49.72148212912106 36.68232379316638 2.8
    endloop
  endfacet
  facet normal 0 0 1
    outer loop
      vertex 49.72148212912106 33.31767620683362 2.8
      vertex 49.72148212912106 36.68232379316638 2.8
      vertex 49.5 35 2.8
    endloop
  endfacet
  facet normal 0 0 1
    outer loop
      vertex 49.72148212912106 33.31767620683362 2.8
      vertex 50.37083487540115 38.25 2.8
      vertex 49.72148212912106 36.68232379316638 2.8
    endloop
  endfacet
  facet normal 0 0 1
    outer loop
      vertex 50.37083487540115 31.75 2.8
      vertex 51.40380592228744 39.59619407771256 2.8
      vertex 50.37083487540115 38.25 2.8
    endloop
  endfacet
  facet normal -0.9238795325112866 0.38268343236509 0
    outer loop
      vertex 49.72148212912106 36.68232379316638 2
      vertex 49.72148212912106 36.68232379316638 2.8
      vertex 50.37083487540115 38.25 2.8
    endloop
  endfacet
  facet normal 0 0 1
    outer loop
      vertex 51.40380592228744 30.40380592228744 2.8
      vertex 52.75 40.62916512459885 2.8
      vertex 51.40380592228744 39.59619407771256 2.8
    endloop
  endfacet
  facet normal 0 0 1
    outer loop
      vertex 52.75 29.37083487540115 2.8
      vertex 54.31767620683362 41.27851787087894 2.8
      vertex 52.75 40.62916512459885 2.8
    endloop
  endfacet
  facet normal 0 0 1
    outer loop
      vertex 54.31767620683362 28.721482129121057 2.8
      vertex 56 41.5 2.8
      vertex 54.31767620683362 41.27851787087894 2.8
    endloop
  endfacet
  facet normal -0.7933533402912367 0.6087614290087188 0
    outer loop
      vertex 50.37083487540115 38.25 2
      vertex 50.37083487540115 38.25 2.8
      vertex 51.40380592228744 39.59619407771256 2.8
    endloop
  endfacet
  facet normal -0.6087614290087188 0.7933533402912367 0
    outer loop
      vertex 51.40380592228744 39.59619407771256 2
      vertex 51.40380592228744 39.59619407771256 2.8
      vertex 52.75 40.62916512459885 2.8
    endloop
  endfacet
  facet normal -0.38268343236509 0.9238795325112866 0
    outer loop
      vertex 52.75 40.62916512459885 2
      vertex 52.75 40.62916512459885 2.8
      vertex 54.31767620683362 41.27851787087894 2.8
    endloop
  endfacet
  facet normal -0.1305261922200522 0.9914448613738104 0
    outer loop
      vertex 54.31767620683362 41.27851787087894 2
      vertex 54.31767620683362 41.27851787087894 2.8
      vertex 56 41.5 2.8
    endloop
  endfacet
  facet normal 0 0 1
    outer loop
      vertex 56 41.5 2.8
      vertex 64.0761204674887 34.61731656763491 2.8
      vertex 64 35 2.8
    endloop
  endfacet
  facet normal 0 0 1
    outer loop
      vertex 56 41.5 2.8
      vertex 64 35 2.8
      vertex 64.0761204674887 35.38268343236509 2.8
    endloop
  endfacet
  facet normal 0 0 1
    outer loop
      vertex 56 41.5 2.8
      vertex 64.0761204674887 35.38268343236509 2.8
      vertex 64.29289321881345 35.707106781186546 2.8
    endloop
  endfacet
  facet normal 0 0 1
    outer loop
      vertex 56 41.5 2.8
      vertex 64.29289321881345 35.707106781186546 2.8
      vertex 64.61731656763492 35.923879532511286 2.8
    endloop
  endfacet
  facet normal 0 0 1
    outer loop
      vertex 56 41.5 2.8
      vertex 64.61731656763492 35.923879532511286 2.8
      vertex 65 36 2.8
    endloop
  endfacet
  facet normal 0 0 1
    outer loop
      vertex 56 41.5 2.8
      vertex 65 36 2.8
      vertex 65.38268343236508 35.923879532511286 2.8
    endloop
  endfacet
  facet normal 0 1 0
    outer loop
      vertex 56 41.5 2
      vertex 56 41.5 2.8
      vertex 74 41.5 2.8
    endloop
  endfacet
  facet normal 0 0 -1
    outer loop
      vertex 74 28.5 2
      vertex 55.75 30.5 2
      vertex 74.25 30.5 2
    endloop
  endfacet
  facet normal 0.13052619222005168 -0.9914448613738104 0
    outer loop
      vertex 74 28.5 2
      vertex 75.68232379316639 28.721482129121057 2
      vertex 74 28.5 2.8
    endloop
  endfacet
  facet normal 0 0 -1
    outer loop
      vertex 74 28.5 2
      vertex 74.25 30.5 2
      vertex 75.68232379316639 28.721482129121057 2
    endloop
  endfacet
  facet normal 0.38268343236509145 -0.923879532511286 0
    outer loop
      vertex 75.68232379316639 28.721482129121057 2
      vertex 77.25 29.37083487540115 2
      vertex 75.68232379316639 28.721482129121057 2.8
    endloop
  endfacet
  facet normal 0 0 -1
    outer loop
      vertex 75.68232379316639 28.721482129121057 2
      vertex 74.25 30.5 2
      vertex 75.41468570296135 30.653333781699192 2
    endloop
  endfacet
  facet normal 0 0 -1
    outer loop
      vertex 75.68232379316639 28.721482129121057 2
      vertex 75.41468570296135 30.653333781699192 2
      vertex 77.25 29.37083487540115 2
    endloop
  endfacet
  facet normal 0 0 -1
    outer loop
      vertex 77.25 29.37083487540115 2
      vertex 75.41468570296135 30.653333781699192 2
      vertex 76.5 31.102885682970026 2
    endloop
  endfacet
  facet normal 0.6087614290087168 -0.7933533402912382 0
    outer loop
      vertex 77.25 29.37083487540115 2
      vertex 78.59619407771257 30.40380592228744 2
      vertex 77.25 29.37083487540115 2.8
    endloop
  endfacet
  facet normal 0 0 -1
    outer loop
      vertex 77.25 29.37083487540115 2
      vertex 76.5 31.102885682970026 2
      vertex 77.43198051533946 31.818019484660535 2
    endloop
  endfacet
  facet normal 0 0 -1
    outer loop
      vertex 77.25 29.37083487540115 2
      vertex 77.43198051533946 31.818019484660535 2
      vertex 78.59619407771257 30.40380592228744 2
    endloop
  endfacet
  facet normal 0 0 -1
    outer loop
      vertex 78.59619407771257 30.40380592228744 2
      vertex 77.43198051533946 31.818019484660535 2
      vertex 78.14711431702997 32.75 2
    endloop
  endfacet
  facet normal 0.7933533402912367 -0.6087614290087188 0
    outer loop
      vertex 78.59619407771257 30.40380592228744 2
      vertex 79.62916512459886 31.75 2
      vertex 78.59619407771257 30.40380592228744 2.8
    endloop
  endfacet
  facet normal 0 0 -1
    outer loop
      vertex 78.59619407771257 30.40380592228744 2
      vertex 78.14711431702997 32.75 2
      vertex 78.59666621830081 33.83531429703866 2
    endloop
  endfacet
  facet normal 0.9238795325112881 -0.38268343236508645 0
    outer loop
      vertex 79.62916512459886 31.75 2
      vertex 80.27851787087894 33.31767620683362 2
      vertex 79.62916512459886 31.75 2.8
    endloop
  endfacet
  facet normal 0 0 -1
    outer loop
      vertex 78.59619407771257 30.40380592228744 2
      vertex 78.59666621830081 33.83531429703866 2
      vertex 78.75 35 2
    endloop
  endfacet
  facet normal 0 0 -1
    outer loop
      vertex 78.59619407771257 30.40380592228744 2
      vertex 79.62916512459886 38.25 2
      vertex 79.62916512459886 31.75 2
    endloop
  endfacet
  facet normal 0 0 -1
    outer loop
      vertex 79.62916512459886 31.75 2
      vertex 80.27851787087894 36.68232379316638 2
      vertex 80.27851787087894 33.31767620683362 2
    endloop
  endfacet
  facet normal 0.9914448613738104 -0.1305261922200522 0
    outer loop
      vertex 80.27851787087894 33.31767620683362 2
      vertex 80.5 35 2
      vertex 80.27851787087894 33.31767620683362 2.8
    endloop
  endfacet
  facet normal 0 0 -1
    outer loop
      vertex 78.59619407771257 30.40380592228744 2
      vertex 78.75 35 2
      vertex 79.62916512459886 38.25 2
    endloop
  endfacet
  facet normal 0 -1 0
    outer loop
      vertex 56 28.5 2.8
      vertex 74 28.5 2
      vertex 74 28.5 2.8
    endloop
  endfacet
  facet normal 0 0 1
    outer loop
      vertex 74 28.5 2.8
      vertex 65 34 2.8
      vertex 64.61731656763492 34.076120467488714 2.8
    endloop
  endfacet
  facet normal 0 0 1
    outer loop
      vertex 74 28.5 2.8
      vertex 65.38268343236508 34.076120467488714 2.8
      vertex 65 34 2.8
    endloop
  endfacet
  facet normal 0 0 1
    outer loop
      vertex 74 28.5 2.8
      vertex 65.70710678118655 34.292893218813454 2.8
      vertex 65.38268343236508 34.076120467488714 2.8
    endloop
  endfacet
  facet normal 0 0 1
    outer loop
      vertex 74 28.5 2.8
      vertex 65.9238795325113 34.61731656763491 2.8
      vertex 65.70710678118655 34.292893218813454 2.8
    endloop
  endfacet
  facet normal 0 0 1
    outer loop
      vertex 74 28.5 2.8
      vertex 66 35 2.8
      vertex 65.9238795325113 34.61731656763491 2.8
    endloop
  endfacet
  facet normal 0 0 1
    outer loop
      vertex 74 28.5 2.8
      vertex 65.9238795325113 35.38268343236509 2.8
      vertex 66 35 2.8
    endloop
  endfacet
  facet normal 0.13052619222005168 -0.9914448613738104 0
    outer loop
      vertex 75.68232379316639 28.721482129121057 2
      vertex 75.68232379316639 28.721482129121057 2.8
      vertex 74 28.5 2.8
    endloop
  endfacet
  facet normal 0.38268343236509145 -0.923879532511286 0
    outer loop
      vertex 77.25 29.37083487540115 2
      vertex 77.25 29.37083487540115 2.8
      vertex 75.68232379316639 28.721482129121057 2.8
    endloop
  endfacet
  facet normal 0.6087614290087168 -0.7933533402912382 0
    outer loop
      vertex 78.59619407771257 30.40380592228744 2
      vertex 78.59619407771257 30.40380592228744 2.8
      vertex 77.25 29.37083487540115 2.8
    endloop
  endfacet
  facet normal 0.7933533402912367 -0.6087614290087188 0
    outer loop
      vertex 79.62916512459886 31.75 2
      vertex 79.62916512459886 31.75 2.8
      vertex 78.59619407771257 30.40380592228744 2.8
    endloop
  endfacet
  facet normal 0 0 1
    outer loop
      vertex 74 28.5 2.8
      vertex 75.68232379316639 28.721482129121057 2.8
      vertex 75.68232379316639 41.27851787087894 2.8
    endloop
  endfacet
  facet normal 0 0 1
    outer loop
      vertex 75.68232379316639 28.721482129121057 2.8
      vertex 77.25 29.37083487540115 2.8
      vertex 77.25 40.62916512459885 2.8
    endloop
  endfacet
  facet normal 0 0 1
    outer loop
      vertex 77.25 29.37083487540115 2.8
      vertex 78.59619407771257 30.40380592228744 2.8
      vertex 78.59619407771257 39.59619407771256 2.8
    endloop
  endfacet
  facet normal 0.9238795325112881 -0.38268343236508645 0
    outer loop
      vertex 80.27851787087894 33.31767620683362 2
      vertex 80.27851787087894 33.31767620683362 2.8
      vertex 79.62916512459886 31.75 2.8
    endloop
  endfacet
  facet normal 0 0 1
    outer loop
      vertex 78.59619407771257 30.40380592228744 2.8
      vertex 79.62916512459886 31.75 2.8
      vertex 79.62916512459886 38.25 2.8
    endloop
  endfacet
  facet normal 0 0 1
    outer loop
      vertex 79.62916512459886 31.75 2.8
      vertex 80.27851787087894 33.31767620683362 2.8
      vertex 80.27851787087894 36.68232379316638 2.8
    endloop
  endfacet
  facet normal 0.9914448613738104 -0.1305261922200522 0
    outer loop
      vertex 80.27851787087894 33.31767620683362 2.8
      vertex 80.5 35 2
      vertex 80.5 35 2.8
    endloop
  endfacet
  facet normal 0 0 -1
    outer loop
      vertex 56 41.5 2
      vertex 74 41.5 2
      vertex 74.25 39.5 2
    endloop
  endfacet
  facet normal 0 1 0
    outer loop
      vertex 56 41.5 2
      vertex 74 41.5 2.8
      vertex 74 41.5 2
    endloop
  endfacet
  facet normal 0 0 -1
    outer loop
      vertex 80.27851787087894 33.31767620683362 2
      vertex 80.27851787087894 36.68232379316638 2
      vertex 80.5 35 2
    endloop
  endfacet
  facet normal 0 0 -1
    outer loop
      vertex 79.62916512459886 31.75 2
      vertex 79.62916512459886 38.25 2
      vertex 80.27851787087894 36.68232379316638 2
    endloop
  endfacet
  facet normal 0.9914448613738104 0.1305261922200522 0
    outer loop
      vertex 80.5 35 2
      vertex 80.27851787087894 36.68232379316638 2
      vertex 80.5 35 2.8
    endloop
  endfacet
  facet normal 0 0 -1
    outer loop
      vertex 79.62916512459886 38.25 2
      vertex 78.75 35 2
      vertex 78.59666621830081 36.16468570296134 2
    endloop
  endfacet
  facet normal 0 0 -1
    outer loop
      vertex 78.59619407771257 39.59619407771256 2
      vertex 78.59666621830081 36.16468570296134 2
      vertex 78.14711431702997 37.25 2
    endloop
  endfacet
  facet normal 0.9238795325112881 0.38268343236508645 0
    outer loop
      vertex 80.27851787087894 36.68232379316638 2
      vertex 79.62916512459886 38.25 2
      vertex 80.27851787087894 36.68232379316638 2.8
    endloop
  endfacet
  facet normal 0 0 -1
    outer loop
      vertex 79.62916512459886 38.25 2
      vertex 78.59666621830081 36.16468570296134 2
      vertex 78.59619407771257 39.59619407771256 2
    endloop
  endfacet
  facet normal 0 0 -1
    outer loop
      vertex 75.68232379316639 41.27851787087894 2
      vertex 76.5 38.897114317029974 2
      vertex 75.41468570296135 39.34666621830081 2
    endloop
  endfacet
  facet normal 0 0 -1
    outer loop
      vertex 74 41.5 2
      vertex 75.68232379316639 41.27851787087894 2
      vertex 74.25 39.5 2
    endloop
  endfacet
  facet normal 0 0 -1
    outer loop
      vertex 75.68232379316639 41.27851787087894 2
      vertex 75.41468570296135 39.34666621830081 2
      vertex 74.25 39.5 2
    endloop
  endfacet
  facet normal 0 0 -1
    outer loop
      vertex 75.68232379316639 41.27851787087894 2
      vertex 77.25 40.62916512459885 2
      vertex 76.5 38.897114317029974 2
    endloop
  endfacet
  facet normal 0.13052619222005168 0.9914448613738104 0
    outer loop
      vertex 74 41.5 2
      vertex 75.68232379316639 41.27851787087894 2.8
      vertex 75.68232379316639 41.27851787087894 2
    endloop
  endfacet
  facet normal 0 0 -1
    outer loop
      vertex 78.59619407771257 39.59619407771256 2
      vertex 78.14711431702997 37.25 2
      vertex 77.43198051533946 38.18198051533946 2
    endloop
  endfacet
  facet normal 0 0 -1
    outer loop
      vertex 77.25 40.62916512459885 2
      vertex 77.43198051533946 38.18198051533946 2
      vertex 76.5 38.897114317029974 2
    endloop
  endfacet
  facet normal 0 0 -1
    outer loop
      vertex 78.59619407771257 39.59619407771256 2
      vertex 77.43198051533946 38.18198051533946 2
      vertex 77.25 40.62916512459885 2
    endloop
  endfacet
  facet normal 0.7933533402912367 0.6087614290087188 0
    outer loop
      vertex 79.62916512459886 38.25 2
      vertex 78.59619407771257 39.59619407771256 2
      vertex 79.62916512459886 38.25 2.8
    endloop
  endfacet
  facet normal 0.6087614290087168 0.7933533402912382 0
    outer loop
      vertex 78.59619407771257 39.59619407771256 2
      vertex 77.25 40.62916512459885 2
      vertex 78.59619407771257 39.59619407771256 2.8
    endloop
  endfacet
  facet normal 0.38268343236509145 0.923879532511286 0
    outer loop
      vertex 75.68232379316639 41.27851787087894 2
      vertex 77.25 40.62916512459885 2.8
      vertex 77.25 40.62916512459885 2
    endloop
  endfacet
  facet normal 0 0 1
    outer loop
      vertex 74 41.5 2.8
      vertex 65.38268343236508 35.923879532511286 2.8
      vertex 65.70710678118655 35.707106781186546 2.8
    endloop
  endfacet
  facet normal 0 0 1
    outer loop
      vertex 74 41.5 2.8
      vertex 65.70710678118655 35.707106781186546 2.8
      vertex 65.9238795325113 35.38268343236509 2.8
    endloop
  endfacet
  facet normal 0 0 1
    outer loop
      vertex 74 28.5 2.8
      vertex 74 41.5 2.8
      vertex 65.9238795325113 35.38268343236509 2.8
    endloop
  endfacet
  facet normal 0 0 1
    outer loop
      vertex 56 41.5 2.8
      vertex 65.38268343236508 35.923879532511286 2.8
      vertex 74 41.5 2.8
    endloop
  endfacet
  facet normal 0 0 1
    outer loop
      vertex 74 28.5 2.8
      vertex 75.68232379316639 41.27851787087894 2.8
      vertex 74 41.5 2.8
    endloop
  endfacet
  facet normal 0 0 1
    outer loop
      vertex 75.68232379316639 28.721482129121057 2.8
      vertex 77.25 40.62916512459885 2.8
      vertex 75.68232379316639 41.27851787087894 2.8
    endloop
  endfacet
  facet normal 0 0 1
    outer loop
      vertex 77.25 29.37083487540115 2.8
      vertex 78.59619407771257 39.59619407771256 2.8
      vertex 77.25 40.62916512459885 2.8
    endloop
  endfacet
  facet normal 0 0 1
    outer loop
      vertex 80.27851787087894 33.31767620683362 2.8
      vertex 80.5 35 2.8
      vertex 80.27851787087894 36.68232379316638 2.8
    endloop
  endfacet
  facet normal 0 0 1
    outer loop
      vertex 79.62916512459886 31.75 2.8
      vertex 80.27851787087894 36.68232379316638 2.8
      vertex 79.62916512459886 38.25 2.8
    endloop
  endfacet
  facet normal 0.9914448613738104 0.1305261922200522 0
    outer loop
      vertex 80.27851787087894 36.68232379316638 2
      vertex 80.27851787087894 36.68232379316638 2.8
      vertex 80.5 35 2.8
    endloop
  endfacet
  facet normal 0 0 1
    outer loop
      vertex 78.59619407771257 30.40380592228744 2.8
      vertex 79.62916512459886 38.25 2.8
      vertex 78.59619407771257 39.59619407771256 2.8
    endloop
  endfacet
  facet normal 0.9238795325112881 0.38268343236508645 0
    outer loop
      vertex 79.62916512459886 38.25 2
      vertex 79.62916512459886 38.25 2.8
      vertex 80.27851787087894 36.68232379316638 2.8
    endloop
  endfacet
  facet normal 0.13052619222005168 0.9914448613738104 0
    outer loop
      vertex 74 41.5 2
      vertex 74 41.5 2.8
      vertex 75.68232379316639 41.27851787087894 2.8
    endloop
  endfacet
  facet normal 0.38268343236509145 0.923879532511286 0
    outer loop
      vertex 75.68232379316639 41.27851787087894 2
      vertex 75.68232379316639 41.27851787087894 2.8
      vertex 77.25 40.62916512459885 2.8
    endloop
  endfacet
  facet normal 0.7933533402912367 0.6087614290087188 0
    outer loop
      vertex 78.59619407771257 39.59619407771256 2
      vertex 78.59619407771257 39.59619407771256 2.8
      vertex 79.62916512459886 38.25 2.8
    endloop
  endfacet
  facet normal 0.6087614290087168 0.7933533402912382 0
    outer loop
      vertex 77.25 40.62916512459885 2
      vertex 77.25 40.62916512459885 2.8
      vertex 78.59619407771257 39.59619407771256 2.8
    endloop
  endfacet
  facet normal -0.5555702330195902 -0.8314696123025532 0
    outer loop
      vertex 64.61731656763492 34.076120467488714 4.8
      vertex 64.29289321881345 34.292893218813454 2.8
      vertex 64.61731656763492 34.076120467488714 2.8
    endloop
  endfacet
  facet normal -0.19509032201613263 -0.9807852804032294 0
    outer loop
      vertex 65 34 4.8
      vertex 64.61731656763492 34.076120467488714 2.8
      vertex 65 34 2.8
    endloop
  endfacet
  facet normal -0.9807852804032338 -0.19509032201611162 0
    outer loop
      vertex 64 35 4.8
      vertex 64 35 2.8
      vertex 64.0761204674887 34.61731656763491 2.8
    endloop
  endfacet
  facet normal -0.831469612302542 -0.5555702330196071 0
    outer loop
      vertex 64.0761204674887 34.61731656763491 4.8
      vertex 64.0761204674887 34.61731656763491 2.8
      vertex 64.29289321881345 34.292893218813454 2.8
    endloop
  endfacet
  facet normal -0.19509032201613263 -0.9807852804032294 0
    outer loop
      vertex 64.61731656763492 34.076120467488714 4.8
      vertex 64.61731656763492 34.076120467488714 2.8
      vertex 65 34 4.8
    endloop
  endfacet
  facet normal -0.5555702330195902 -0.8314696123025532 0
    outer loop
      vertex 64.61731656763492 34.076120467488714 4.8
      vertex 64.29289321881345 34.292893218813454 4.8
      vertex 64.29289321881345 34.292893218813454 2.8
    endloop
  endfacet
  facet normal -0.831469612302542 -0.5555702330196071 0
    outer loop
      vertex 64.29289321881345 34.292893218813454 4.8
      vertex 64.0761204674887 34.61731656763491 4.8
      vertex 64.29289321881345 34.292893218813454 2.8
    endloop
  endfacet
  facet normal -0.9807852804032338 -0.19509032201611162 0
    outer loop
      vertex 64.0761204674887 34.61731656763491 4.8
      vertex 64 35 4.8
      vertex 64.0761204674887 34.61731656763491 2.8
    endloop
  endfacet
  facet normal 0 0 1
    outer loop
      vertex 64.29289321881345 34.292893218813454 4.8
      vertex 64.0761204674887 35.38268343236509 4.8
      vertex 64.0761204674887 34.61731656763491 4.8
    endloop
  endfacet
  facet normal 0 0 1
    outer loop
      vertex 64.61731656763492 34.076120467488714 4.8
      vertex 64.29289321881345 35.707106781186546 4.8
      vertex 64.29289321881345 34.292893218813454 4.8
    endloop
  endfacet
  facet normal 0 0 1
    outer loop
      vertex 64.61731656763492 34.076120467488714 4.8
      vertex 65 34 4.8
      vertex 64.61731656763492 35.923879532511286 4.8
    endloop
  endfacet
  facet normal -0.9807852804032338 0.19509032201611162 0
    outer loop
      vertex 64.0761204674887 35.38268343236509 4.8
      vertex 64.0761204674887 35.38268343236509 2.8
      vertex 64 35 2.8
    endloop
  endfacet
  facet normal -0.831469612302542 0.5555702330196071 0
    outer loop
      vertex 64.29289321881345 35.707106781186546 4.8
      vertex 64.29289321881345 35.707106781186546 2.8
      vertex 64.0761204674887 35.38268343236509 2.8
    endloop
  endfacet
  facet normal -0.5555702330195902 0.8314696123025532 0
    outer loop
      vertex 64.29289321881345 35.707106781186546 4.8
      vertex 64.61731656763492 35.923879532511286 2.8
      vertex 64.29289321881345 35.707106781186546 2.8
    endloop
  endfacet
  facet normal -0.19509032201613263 0.9807852804032294 0
    outer loop
      vertex 64.61731656763492 35.923879532511286 4.8
      vertex 65 36 2.8
      vertex 64.61731656763492 35.923879532511286 2.8
    endloop
  endfacet
  facet normal -0.9807852804032338 0.19509032201611162 0
    outer loop
      vertex 64 35 4.8
      vertex 64.0761204674887 35.38268343236509 4.8
      vertex 64 35 2.8
    endloop
  endfacet
  facet normal -0.831469612302542 0.5555702330196071 0
    outer loop
      vertex 64.0761204674887 35.38268343236509 4.8
      vertex 64.29289321881345 35.707106781186546 4.8
      vertex 64.0761204674887 35.38268343236509 2.8
    endloop
  endfacet
  facet normal -0.5555702330195902 0.8314696123025532 0
    outer loop
      vertex 64.29289321881345 35.707106781186546 4.8
      vertex 64.61731656763492 35.923879532511286 4.8
      vertex 64.61731656763492 35.923879532511286 2.8
    endloop
  endfacet
  facet normal -0.19509032201613263 0.9807852804032294 0
    outer loop
      vertex 64.61731656763492 35.923879532511286 4.8
      vertex 65 36 4.8
      vertex 65 36 2.8
    endloop
  endfacet
  facet normal 0 0 1
    outer loop
      vertex 64.0761204674887 34.61731656763491 4.8
      vertex 64.0761204674887 35.38268343236509 4.8
      vertex 64 35 4.8
    endloop
  endfacet
  facet normal 0 0 1
    outer loop
      vertex 64.29289321881345 34.292893218813454 4.8
      vertex 64.29289321881345 35.707106781186546 4.8
      vertex 64.0761204674887 35.38268343236509 4.8
    endloop
  endfacet
  facet normal 0 0 1
    outer loop
      vertex 64.61731656763492 34.076120467488714 4.8
      vertex 64.61731656763492 35.923879532511286 4.8
      vertex 64.29289321881345 35.707106781186546 4.8
    endloop
  endfacet
  facet normal 0 0 1
    outer loop
      vertex 64.61731656763492 35.923879532511286 4.8
      vertex 65 34 4.8
      vertex 65 36 4.8
    endloop
  endfacet
  facet normal 0.19509032201613263 -0.9807852804032294 0
    outer loop
      vertex 65.38268343236508 34.076120467488714 4.8
      vertex 65 34 2.8
      vertex 65.38268343236508 34.076120467488714 2.8
    endloop
  endfacet
  facet normal 0.5555702330195902 -0.8314696123025532 0
    outer loop
      vertex 65.70710678118655 34.292893218813454 4.8
      vertex 65.38268343236508 34.076120467488714 2.8
      vertex 65.70710678118655 34.292893218813454 2.8
    endloop
  endfacet
  facet normal 0.831469612302542 -0.5555702330196071 0
    outer loop
      vertex 65.70710678118655 34.292893218813454 4.8
      vertex 65.70710678118655 34.292893218813454 2.8
      vertex 65.9238795325113 34.61731656763491 2.8
    endloop
  endfacet
  facet normal 0.9807852804032338 -0.19509032201611162 0
    outer loop
      vertex 65.9238795325113 34.61731656763491 4.8
      vertex 65.9238795325113 34.61731656763491 2.8
      vertex 66 35 2.8
    endloop
  endfacet
  facet normal 0.19509032201613263 -0.9807852804032294 0
    outer loop
      vertex 65 34 4.8
      vertex 65 34 2.8
      vertex 65.38268343236508 34.076120467488714 4.8
    endloop
  endfacet
  facet normal 0.5555702330195902 -0.8314696123025532 0
    outer loop
      vertex 65.38268343236508 34.076120467488714 4.8
      vertex 65.38268343236508 34.076120467488714 2.8
      vertex 65.70710678118655 34.292893218813454 4.8
    endloop
  endfacet
  facet normal 0.831469612302542 -0.5555702330196071 0
    outer loop
      vertex 65.70710678118655 34.292893218813454 4.8
      vertex 65.9238795325113 34.61731656763491 2.8
      vertex 65.9238795325113 34.61731656763491 4.8
    endloop
  endfacet
  facet normal 0.9807852804032338 -0.19509032201611162 0
    outer loop
      vertex 65.9238795325113 34.61731656763491 4.8
      vertex 66 35 2.8
      vertex 66 35 4.8
    endloop
  endfacet
  facet normal 0 0 1
    outer loop
      vertex 65 34 4.8
      vertex 65.38268343236508 34.076120467488714 4.8
      vertex 65 36 4.8
    endloop
  endfacet
  facet normal 0 0 1
    outer loop
      vertex 65.38268343236508 34.076120467488714 4.8
      vertex 65.70710678118655 34.292893218813454 4.8
      vertex 65.38268343236508 35.923879532511286 4.8
    endloop
  endfacet
  facet normal 0 0 1
    outer loop
      vertex 65.70710678118655 34.292893218813454 4.8
      vertex 65.9238795325113 34.61731656763491 4.8
      vertex 65.70710678118655 35.707106781186546 4.8
    endloop
  endfacet
  facet normal 0.831469612302542 0.5555702330196071 0
    outer loop
      vertex 65.9238795325113 35.38268343236509 4.8
      vertex 65.9238795325113 35.38268343236509 2.8
      vertex 65.70710678118655 35.707106781186546 2.8
    endloop
  endfacet
  facet normal 0.9807852804032338 0.19509032201611162 0
    outer loop
      vertex 66 35 4.8
      vertex 66 35 2.8
      vertex 65.9238795325113 35.38268343236509 2.8
    endloop
  endfacet
  facet normal 0.19509032201613263 0.9807852804032294 0
    outer loop
      vertex 65 36 4.8
      vertex 65.38268343236508 35.923879532511286 2.8
      vertex 65 36 2.8
    endloop
  endfacet
  facet normal 0.5555702330195902 0.8314696123025532 0
    outer loop
      vertex 65.38268343236508 35.923879532511286 4.8
      vertex 65.70710678118655 35.707106781186546 2.8
      vertex 65.38268343236508 35.923879532511286 2.8
    endloop
  endfacet
  facet normal 0.9807852804032338 0.19509032201611162 0
    outer loop
      vertex 66 35 4.8
      vertex 65.9238795325113 35.38268343236509 2.8
      vertex 65.9238795325113 35.38268343236509 4.8
    endloop
  endfacet
  facet normal 0.831469612302542 0.5555702330196071 0
    outer loop
      vertex 65.9238795325113 35.38268343236509 4.8
      vertex 65.70710678118655 35.707106781186546 2.8
      vertex 65.70710678118655 35.707106781186546 4.8
    endloop
  endfacet
  facet normal 0.5555702330195902 0.8314696123025532 0
    outer loop
      vertex 65.70710678118655 35.707106781186546 4.8
      vertex 65.70710678118655 35.707106781186546 2.8
      vertex 65.38268343236508 35.923879532511286 4.8
    endloop
  endfacet
  facet normal 0.19509032201613263 0.9807852804032294 0
    outer loop
      vertex 65.38268343236508 35.923879532511286 4.8
      vertex 65.38268343236508 35.923879532511286 2.8
      vertex 65 36 4.8
    endloop
  endfacet
  facet normal 0 0 1
    outer loop
      vertex 65.38268343236508 34.076120467488714 4.8
      vertex 65.38268343236508 35.923879532511286 4.8
      vertex 65 36 4.8
    endloop
  endfacet
  facet normal 0 0 1
    outer loop
      vertex 65.9238795325113 34.61731656763491 4.8
      vertex 66 35 4.8
      vertex 65.9238795325113 35.38268343236509 4.8
    endloop
  endfacet
  facet normal 0 0 1
    outer loop
      vertex 65.70710678118655 34.292893218813454 4.8
      vertex 65.70710678118655 35.707106781186546 4.8
      vertex 65.38268343236508 35.923879532511286 4.8
    endloop
  endfacet
  facet normal 0 0 1
    outer loop
      vertex 65.9238795325113 34.61731656763491 4.8
      vertex 65.9238795325113 35.38268343236509 4.8
      vertex 65.70710678118655 35.707106781186546 4.8
    endloop
  endfacet
endsolid OpenSCAD_Model
