solid OpenSCAD_Model
  facet normal 0 -1 0
    outer loop
      vertex 42.7 -29.9 16
      vertex -42.7 -29.9 16.5
      vertex -42.7 -29.9 16
    endloop
  endfacet
  facet normal 0 -1 0
    outer loop
      vertex 42.7 -29.9 16
      vertex 42.7 -29.9 16.5
      vertex -42.7 -29.9 16.5
    endloop
  endfacet
  facet normal 1 0 0
    outer loop
      vertex 42.7 33.9 16
      vertex 42.7 -29.9 16.5
      vertex 42.7 -29.9 16
    endloop
  endfacet
  facet normal 1 0 0
    outer loop
      vertex 42.7 33.9 16
      vertex 42.7 33.9 16.5
      vertex 42.7 -29.9 16.5
    endloop
  endfacet
  facet normal 0 1 0
    outer loop
      vertex -42.7 33.9 16
      vertex 42.7 33.9 16.5
      vertex 42.7 33.9 16
    endloop
  endfacet
  facet normal 0 1 0
    outer loop
      vertex -42.7 33.9 16
      vertex -42.7 33.9 16.5
      vertex 42.7 33.9 16.5
    endloop
  endfacet
  facet normal -1 0 0
    outer loop
      vertex -42.7 -29.9 16
      vertex -42.7 33.9 16.5
      vertex -42.7 33.9 16
    endloop
  endfacet
  facet normal -1 0 0
    outer loop
      vertex -42.7 -29.9 16
      vertex -42.7 -29.9 16.5
      vertex -42.7 33.9 16.5
    endloop
  endfacet
  facet normal 0 0 -1
    outer loop
      vertex -42.7 33.9 16
      vertex 42.7 -29.9 16
      vertex -42.7 -29.9 16
    endloop
  endfacet
  facet normal 0 0 -1
    outer loop
      vertex -42.7 33.9 16
      vertex 42.7 33.9 16
      vertex 42.7 -29.9 16
    endloop
  endfacet
  facet normal 0 0 1
    outer loop
      vertex -42.7 -29.9 16.5
      vertex 42.7 -29.9 16.5
      vertex -42.7 33.9 16.5
    endloop
  endfacet
  facet normal 0 0 1
    outer loop
      vertex 42.7 -29.9 16.5
      vertex 42.7 33.9 16.5
      vertex -42.7 33.9 16.5
    endloop
  endfacet
endsolid OpenSCAD_Model
