solid OpenSCAD_Model
  facet normal -0.9914448613738104 -0.1305261922200518 -2.244451981182076e-18
    outer loop
      vertex 55.352222521132795 38.22354286469244 23.5
      vertex 55.25 39 25.2
      vertex 55.25 39 23.5
    endloop
  endfacet
  facet normal -0.9914448613738104 -0.1305261922200518 0
    outer loop
      vertex 55.352222521132795 38.22354286469244 23.5
      vertex 55.352222521132795 38.22354286469244 25.2
      vertex 55.25 39 25.2
    endloop
  endfacet
  facet normal -0.9238795325112872 -0.3826834323650886 5.7330534651448414e-18
    outer loop
      vertex 55.651923788646684 37.5 23.5
      vertex 55.352222521132795 38.22354286469244 25.2
      vertex 55.352222521132795 38.22354286469244 23.5
    endloop
  endfacet
  facet normal -0.9238795325112872 -0.3826834323650886 0
    outer loop
      vertex 55.651923788646684 37.5 23.5
      vertex 55.651923788646684 37.5 25.2
      vertex 55.352222521132795 38.22354286469244 25.2
    endloop
  endfacet
  facet normal -0.7933533402912383 -0.6087614290087165 5.430636034341625e-20
    outer loop
      vertex 56.128679656440355 36.878679656440355 23.5
      vertex 55.651923788646684 37.5 25.2
      vertex 55.651923788646684 37.5 23.5
    endloop
  endfacet
  facet normal -0.7933533402912383 -0.6087614290087165 0
    outer loop
      vertex 56.128679656440355 36.878679656440355 23.5
      vertex 56.128679656440355 36.878679656440355 25.2
      vertex 55.651923788646684 37.5 25.2
    endloop
  endfacet
  facet normal -0.6087614290087165 -0.7933533402912383 5.430636034341625e-20
    outer loop
      vertex 56.75 36.401923788646684 23.5
      vertex 56.128679656440355 36.878679656440355 25.2
      vertex 56.128679656440355 36.878679656440355 23.5
    endloop
  endfacet
  facet normal -0.6087614290087165 -0.7933533402912383 0
    outer loop
      vertex 56.75 36.401923788646684 23.5
      vertex 56.75 36.401923788646684 25.2
      vertex 56.128679656440355 36.878679656440355 25.2
    endloop
  endfacet
  facet normal -0.3826834323650886 -0.9238795325112872 5.7330534651448414e-18
    outer loop
      vertex 57.47354286469244 36.102222521132795 23.5
      vertex 56.75 36.401923788646684 25.2
      vertex 56.75 36.401923788646684 23.5
    endloop
  endfacet
  facet normal -0.3826834323650886 -0.9238795325112872 0
    outer loop
      vertex 57.47354286469244 36.102222521132795 23.5
      vertex 57.47354286469244 36.102222521132795 25.2
      vertex 56.75 36.401923788646684 25.2
    endloop
  endfacet
  facet normal -0.1305261922200518 -0.9914448613738104 -2.244451981182076e-18
    outer loop
      vertex 58.25 36 23.5
      vertex 57.47354286469244 36.102222521132795 25.2
      vertex 57.47354286469244 36.102222521132795 23.5
    endloop
  endfacet
  facet normal -0.1305261922200518 -0.9914448613738104 0
    outer loop
      vertex 58.25 36 23.5
      vertex 58.25 36 25.2
      vertex 57.47354286469244 36.102222521132795 25.2
    endloop
  endfacet
  facet normal 0 -1 0
    outer loop
      vertex 71.75 36 23.5
      vertex 58.25 36 25.2
      vertex 58.25 36 23.5
    endloop
  endfacet
  facet normal 0 -1 0
    outer loop
      vertex 71.75 36 23.5
      vertex 71.75 36 25.2
      vertex 58.25 36 25.2
    endloop
  endfacet
  facet normal 0.1305261922200506 -0.9914448613738105 -4.6567664549181214e-18
    outer loop
      vertex 72.52645713530757 36.102222521132795 23.5
      vertex 71.75 36 25.2
      vertex 71.75 36 23.5
    endloop
  endfacet
  facet normal 0.1305261922200506 -0.9914448613738105 0
    outer loop
      vertex 72.52645713530757 36.102222521132795 23.5
      vertex 72.52645713530757 36.102222521132795 25.2
      vertex 71.75 36 25.2
    endloop
  endfacet
  facet normal 0.3826834323650919 -0.9238795325112859 3.0748834761553206e-20
    outer loop
      vertex 73.25 36.401923788646684 23.5
      vertex 72.52645713530757 36.102222521132795 25.2
      vertex 72.52645713530757 36.102222521132795 23.5
    endloop
  endfacet
  facet normal 0.3826834323650919 -0.9238795325112859 0
    outer loop
      vertex 73.25 36.401923788646684 23.5
      vertex 73.25 36.401923788646684 25.2
      vertex 72.52645713530757 36.102222521132795 25.2
    endloop
  endfacet
  facet normal 0.6087614290087165 -0.7933533402912383 -5.430636034341625e-20
    outer loop
      vertex 73.87132034355965 36.878679656440355 23.5
      vertex 73.25 36.401923788646684 25.2
      vertex 73.25 36.401923788646684 23.5
    endloop
  endfacet
  facet normal 0.6087614290087165 -0.7933533402912383 0
    outer loop
      vertex 73.87132034355965 36.878679656440355 23.5
      vertex 73.87132034355965 36.878679656440355 25.2
      vertex 73.25 36.401923788646684 25.2
    endloop
  endfacet
  facet normal 0.7933533402912383 -0.6087614290087165 -5.430636034341625e-20
    outer loop
      vertex 74.34807621135332 37.5 23.5
      vertex 73.87132034355965 36.878679656440355 25.2
      vertex 73.87132034355965 36.878679656440355 23.5
    endloop
  endfacet
  facet normal 0.7933533402912383 -0.6087614290087165 0
    outer loop
      vertex 74.34807621135332 37.5 23.5
      vertex 74.34807621135332 37.5 25.2
      vertex 73.87132034355965 36.878679656440355 25.2
    endloop
  endfacet
  facet normal 0.9238795325112904 -0.38268343236508096 1.0382560588250181e-17
    outer loop
      vertex 74.6477774788672 38.22354286469244 23.5
      vertex 74.34807621135332 37.5 25.2
      vertex 74.34807621135332 37.5 23.5
    endloop
  endfacet
  facet normal 0.9238795325112904 -0.38268343236508096 0
    outer loop
      vertex 74.6477774788672 38.22354286469244 23.5
      vertex 74.6477774788672 38.22354286469244 25.2
      vertex 74.34807621135332 37.5 25.2
    endloop
  endfacet
  facet normal 0.9914448613738093 -0.13052619222006073 -2.48735790382935e-18
    outer loop
      vertex 74.75 39 23.5
      vertex 74.6477774788672 38.22354286469244 25.2
      vertex 74.6477774788672 38.22354286469244 23.5
    endloop
  endfacet
  facet normal 0.9914448613738093 -0.13052619222006073 0
    outer loop
      vertex 74.75 39 23.5
      vertex 74.75 39 25.2
      vertex 74.6477774788672 38.22354286469244 25.2
    endloop
  endfacet
  facet normal 0.9914448613738093 0.13052619222006073 2.48735790382935e-18
    outer loop
      vertex 74.6477774788672 39.77645713530756 23.5
      vertex 74.75 39 25.2
      vertex 74.75 39 23.5
    endloop
  endfacet
  facet normal 0.9914448613738093 0.13052619222006073 0
    outer loop
      vertex 74.6477774788672 39.77645713530756 23.5
      vertex 74.6477774788672 39.77645713530756 25.2
      vertex 74.75 39 25.2
    endloop
  endfacet
  facet normal 0.9238795325112904 0.38268343236508096 -1.0382560588250181e-17
    outer loop
      vertex 74.34807621135332 40.5 23.5
      vertex 74.6477774788672 39.77645713530756 25.2
      vertex 74.6477774788672 39.77645713530756 23.5
    endloop
  endfacet
  facet normal 0.9238795325112904 0.38268343236508096 0
    outer loop
      vertex 74.34807621135332 40.5 23.5
      vertex 74.34807621135332 40.5 25.2
      vertex 74.6477774788672 39.77645713530756 25.2
    endloop
  endfacet
  facet normal 0.7933533402912383 0.6087614290087165 5.430636034341625e-20
    outer loop
      vertex 73.87132034355965 41.121320343559645 23.5
      vertex 74.34807621135332 40.5 25.2
      vertex 74.34807621135332 40.5 23.5
    endloop
  endfacet
  facet normal 0.7933533402912383 0.6087614290087165 0
    outer loop
      vertex 73.87132034355965 41.121320343559645 23.5
      vertex 73.87132034355965 41.121320343559645 25.2
      vertex 74.34807621135332 40.5 25.2
    endloop
  endfacet
  facet normal 0.6087614290087165 0.7933533402912383 5.430636034341625e-20
    outer loop
      vertex 73.25 41.598076211353316 23.5
      vertex 73.87132034355965 41.121320343559645 25.2
      vertex 73.87132034355965 41.121320343559645 23.5
    endloop
  endfacet
  facet normal 0.6087614290087165 0.7933533402912383 0
    outer loop
      vertex 73.25 41.598076211353316 23.5
      vertex 73.25 41.598076211353316 25.2
      vertex 73.87132034355965 41.121320343559645 25.2
    endloop
  endfacet
  facet normal 0.3826834323650919 0.9238795325112859 -3.0748834761553206e-20
    outer loop
      vertex 72.52645713530757 41.897777478867205 23.5
      vertex 73.25 41.598076211353316 25.2
      vertex 73.25 41.598076211353316 23.5
    endloop
  endfacet
  facet normal 0.3826834323650919 0.9238795325112859 0
    outer loop
      vertex 72.52645713530757 41.897777478867205 23.5
      vertex 72.52645713530757 41.897777478867205 25.2
      vertex 73.25 41.598076211353316 25.2
    endloop
  endfacet
  facet normal 0.1305261922200506 0.9914448613738105 4.6567664549181214e-18
    outer loop
      vertex 71.75 42 23.5
      vertex 72.52645713530757 41.897777478867205 25.2
      vertex 72.52645713530757 41.897777478867205 23.5
    endloop
  endfacet
  facet normal 0.1305261922200506 0.9914448613738105 0
    outer loop
      vertex 71.75 42 23.5
      vertex 71.75 42 25.2
      vertex 72.52645713530757 41.897777478867205 25.2
    endloop
  endfacet
  facet normal 0 1 0
    outer loop
      vertex 58.25 42 23.5
      vertex 71.75 42 25.2
      vertex 71.75 42 23.5
    endloop
  endfacet
  facet normal 0 1 0
    outer loop
      vertex 58.25 42 23.5
      vertex 58.25 42 25.2
      vertex 71.75 42 25.2
    endloop
  endfacet
  facet normal -0.1305261922200518 0.9914448613738104 2.244451981182076e-18
    outer loop
      vertex 57.47354286469244 41.897777478867205 23.5
      vertex 58.25 42 25.2
      vertex 58.25 42 23.5
    endloop
  endfacet
  facet normal -0.1305261922200518 0.9914448613738104 0
    outer loop
      vertex 57.47354286469244 41.897777478867205 23.5
      vertex 57.47354286469244 41.897777478867205 25.2
      vertex 58.25 42 25.2
    endloop
  endfacet
  facet normal -0.3826834323650886 0.9238795325112872 -5.7330534651448414e-18
    outer loop
      vertex 56.75 41.598076211353316 23.5
      vertex 57.47354286469244 41.897777478867205 25.2
      vertex 57.47354286469244 41.897777478867205 23.5
    endloop
  endfacet
  facet normal -0.3826834323650886 0.9238795325112872 0
    outer loop
      vertex 56.75 41.598076211353316 23.5
      vertex 56.75 41.598076211353316 25.2
      vertex 57.47354286469244 41.897777478867205 25.2
    endloop
  endfacet
  facet normal -0.6087614290087165 0.7933533402912383 -5.430636034341625e-20
    outer loop
      vertex 56.128679656440355 41.121320343559645 23.5
      vertex 56.75 41.598076211353316 25.2
      vertex 56.75 41.598076211353316 23.5
    endloop
  endfacet
  facet normal -0.6087614290087165 0.7933533402912383 0
    outer loop
      vertex 56.128679656440355 41.121320343559645 23.5
      vertex 56.128679656440355 41.121320343559645 25.2
      vertex 56.75 41.598076211353316 25.2
    endloop
  endfacet
  facet normal -0.7933533402912383 0.6087614290087165 -5.430636034341625e-20
    outer loop
      vertex 55.651923788646684 40.5 23.5
      vertex 56.128679656440355 41.121320343559645 25.2
      vertex 56.128679656440355 41.121320343559645 23.5
    endloop
  endfacet
  facet normal -0.7933533402912383 0.6087614290087165 0
    outer loop
      vertex 55.651923788646684 40.5 23.5
      vertex 55.651923788646684 40.5 25.2
      vertex 56.128679656440355 41.121320343559645 25.2
    endloop
  endfacet
  facet normal -0.9238795325112872 0.3826834323650886 -5.7330534651448414e-18
    outer loop
      vertex 55.352222521132795 39.77645713530756 23.5
      vertex 55.651923788646684 40.5 25.2
      vertex 55.651923788646684 40.5 23.5
    endloop
  endfacet
  facet normal -0.9238795325112872 0.3826834323650886 0
    outer loop
      vertex 55.352222521132795 39.77645713530756 23.5
      vertex 55.352222521132795 39.77645713530756 25.2
      vertex 55.651923788646684 40.5 25.2
    endloop
  endfacet
  facet normal -0.9914448613738104 0.1305261922200518 2.244451981182076e-18
    outer loop
      vertex 55.25 39 23.5
      vertex 55.352222521132795 39.77645713530756 25.2
      vertex 55.352222521132795 39.77645713530756 23.5
    endloop
  endfacet
  facet normal -0.9914448613738104 0.1305261922200518 0
    outer loop
      vertex 55.25 39 23.5
      vertex 55.25 39 25.2
      vertex 55.352222521132795 39.77645713530756 25.2
    endloop
  endfacet
  facet normal 0 0 -1
    outer loop
      vertex 55.352222521132795 39.77645713530756 23.5
      vertex 55.352222521132795 38.22354286469244 23.5
      vertex 55.25 39 23.5
    endloop
  endfacet
  facet normal 0 0 -1
    outer loop
      vertex 55.352222521132795 39.77645713530756 23.5
      vertex 55.651923788646684 40.5 23.5
      vertex 55.352222521132795 38.22354286469244 23.5
    endloop
  endfacet
  facet normal 0 0 -1
    outer loop
      vertex 55.651923788646684 40.5 23.5
      vertex 55.651923788646684 37.5 23.5
      vertex 55.352222521132795 38.22354286469244 23.5
    endloop
  endfacet
  facet normal 0 0 -1
    outer loop
      vertex 55.651923788646684 40.5 23.5
      vertex 56.128679656440355 41.121320343559645 23.5
      vertex 55.651923788646684 37.5 23.5
    endloop
  endfacet
  facet normal 0 0 -1
    outer loop
      vertex 56.128679656440355 41.121320343559645 23.5
      vertex 56.128679656440355 36.878679656440355 23.5
      vertex 55.651923788646684 37.5 23.5
    endloop
  endfacet
  facet normal 0 0 -1
    outer loop
      vertex 56.128679656440355 41.121320343559645 23.5
      vertex 56.75 41.598076211353316 23.5
      vertex 56.128679656440355 36.878679656440355 23.5
    endloop
  endfacet
  facet normal 0 0 -1
    outer loop
      vertex 56.75 41.598076211353316 23.5
      vertex 56.75 36.401923788646684 23.5
      vertex 56.128679656440355 36.878679656440355 23.5
    endloop
  endfacet
  facet normal 0 0 -1
    outer loop
      vertex 56.75 41.598076211353316 23.5
      vertex 57.47354286469244 41.897777478867205 23.5
      vertex 56.75 36.401923788646684 23.5
    endloop
  endfacet
  facet normal 0 0 -1
    outer loop
      vertex 57.47354286469244 41.897777478867205 23.5
      vertex 57.47354286469244 36.102222521132795 23.5
      vertex 56.75 36.401923788646684 23.5
    endloop
  endfacet
  facet normal 0 0 -1
    outer loop
      vertex 57.47354286469244 41.897777478867205 23.5
      vertex 58.25 42 23.5
      vertex 57.47354286469244 36.102222521132795 23.5
    endloop
  endfacet
  facet normal 0 0 -1
    outer loop
      vertex 58.25 42 23.5
      vertex 58.25 36 23.5
      vertex 57.47354286469244 36.102222521132795 23.5
    endloop
  endfacet
  facet normal 0 0 -1
    outer loop
      vertex 58.25 42 23.5
      vertex 71.75 42 23.5
      vertex 58.25 36 23.5
    endloop
  endfacet
  facet normal 0 0 -1
    outer loop
      vertex 71.75 42 23.5
      vertex 71.75 36 23.5
      vertex 58.25 36 23.5
    endloop
  endfacet
  facet normal 0 0 -1
    outer loop
      vertex 71.75 42 23.5
      vertex 72.52645713530757 41.897777478867205 23.5
      vertex 71.75 36 23.5
    endloop
  endfacet
  facet normal 0 0 -1
    outer loop
      vertex 72.52645713530757 41.897777478867205 23.5
      vertex 72.52645713530757 36.102222521132795 23.5
      vertex 71.75 36 23.5
    endloop
  endfacet
  facet normal 0 0 -1
    outer loop
      vertex 72.52645713530757 41.897777478867205 23.5
      vertex 73.25 41.598076211353316 23.5
      vertex 72.52645713530757 36.102222521132795 23.5
    endloop
  endfacet
  facet normal 0 0 -1
    outer loop
      vertex 73.25 41.598076211353316 23.5
      vertex 73.25 36.401923788646684 23.5
      vertex 72.52645713530757 36.102222521132795 23.5
    endloop
  endfacet
  facet normal 0 0 -1
    outer loop
      vertex 73.25 41.598076211353316 23.5
      vertex 73.87132034355965 41.121320343559645 23.5
      vertex 73.25 36.401923788646684 23.5
    endloop
  endfacet
  facet normal 0 0 -1
    outer loop
      vertex 73.87132034355965 41.121320343559645 23.5
      vertex 73.87132034355965 36.878679656440355 23.5
      vertex 73.25 36.401923788646684 23.5
    endloop
  endfacet
  facet normal 0 0 -1
    outer loop
      vertex 73.87132034355965 41.121320343559645 23.5
      vertex 74.34807621135332 40.5 23.5
      vertex 73.87132034355965 36.878679656440355 23.5
    endloop
  endfacet
  facet normal 0 0 -1
    outer loop
      vertex 74.34807621135332 40.5 23.5
      vertex 74.34807621135332 37.5 23.5
      vertex 73.87132034355965 36.878679656440355 23.5
    endloop
  endfacet
  facet normal 0 0 -1
    outer loop
      vertex 74.34807621135332 40.5 23.5
      vertex 74.6477774788672 39.77645713530756 23.5
      vertex 74.34807621135332 37.5 23.5
    endloop
  endfacet
  facet normal 0 0 -1
    outer loop
      vertex 74.6477774788672 39.77645713530756 23.5
      vertex 74.6477774788672 38.22354286469244 23.5
      vertex 74.34807621135332 37.5 23.5
    endloop
  endfacet
  facet normal 0 0 -1
    outer loop
      vertex 74.6477774788672 39.77645713530756 23.5
      vertex 74.75 39 23.5
      vertex 74.6477774788672 38.22354286469244 23.5
    endloop
  endfacet
  facet normal 0 0 1
    outer loop
      vertex 55.25 39 25.2
      vertex 55.352222521132795 38.22354286469244 25.2
      vertex 55.352222521132795 39.77645713530756 25.2
    endloop
  endfacet
  facet normal 0 0 1
    outer loop
      vertex 55.352222521132795 38.22354286469244 25.2
      vertex 55.651923788646684 40.5 25.2
      vertex 55.352222521132795 39.77645713530756 25.2
    endloop
  endfacet
  facet normal 0 0 1
    outer loop
      vertex 55.352222521132795 38.22354286469244 25.2
      vertex 55.651923788646684 37.5 25.2
      vertex 55.651923788646684 40.5 25.2
    endloop
  endfacet
  facet normal 0 0 1
    outer loop
      vertex 55.651923788646684 37.5 25.2
      vertex 56.128679656440355 41.121320343559645 25.2
      vertex 55.651923788646684 40.5 25.2
    endloop
  endfacet
  facet normal 0 0 1
    outer loop
      vertex 55.651923788646684 37.5 25.2
      vertex 56.128679656440355 36.878679656440355 25.2
      vertex 56.128679656440355 41.121320343559645 25.2
    endloop
  endfacet
  facet normal 0 0 1
    outer loop
      vertex 56.128679656440355 36.878679656440355 25.2
      vertex 56.75 41.598076211353316 25.2
      vertex 56.128679656440355 41.121320343559645 25.2
    endloop
  endfacet
  facet normal 0 0 1
    outer loop
      vertex 56.128679656440355 36.878679656440355 25.2
      vertex 56.75 36.401923788646684 25.2
      vertex 56.75 41.598076211353316 25.2
    endloop
  endfacet
  facet normal 0 0 1
    outer loop
      vertex 56.75 36.401923788646684 25.2
      vertex 57.47354286469244 41.897777478867205 25.2
      vertex 56.75 41.598076211353316 25.2
    endloop
  endfacet
  facet normal 0 0 1
    outer loop
      vertex 56.75 36.401923788646684 25.2
      vertex 57.47354286469244 36.102222521132795 25.2
      vertex 57.47354286469244 41.897777478867205 25.2
    endloop
  endfacet
  facet normal 0 0 1
    outer loop
      vertex 57.47354286469244 36.102222521132795 25.2
      vertex 58.25 42 25.2
      vertex 57.47354286469244 41.897777478867205 25.2
    endloop
  endfacet
  facet normal 0 0 1
    outer loop
      vertex 57.47354286469244 36.102222521132795 25.2
      vertex 58.25 36 25.2
      vertex 58.25 42 25.2
    endloop
  endfacet
  facet normal 0 0 1
    outer loop
      vertex 58.25 36 25.2
      vertex 71.75 42 25.2
      vertex 58.25 42 25.2
    endloop
  endfacet
  facet normal 0 0 1
    outer loop
      vertex 58.25 36 25.2
      vertex 71.75 36 25.2
      vertex 71.75 42 25.2
    endloop
  endfacet
  facet normal 0 0 1
    outer loop
      vertex 71.75 36 25.2
      vertex 72.52645713530757 41.897777478867205 25.2
      vertex 71.75 42 25.2
    endloop
  endfacet
  facet normal 0 0 1
    outer loop
      vertex 71.75 36 25.2
      vertex 72.52645713530757 36.102222521132795 25.2
      vertex 72.52645713530757 41.897777478867205 25.2
    endloop
  endfacet
  facet normal 0 0 1
    outer loop
      vertex 72.52645713530757 36.102222521132795 25.2
      vertex 73.25 41.598076211353316 25.2
      vertex 72.52645713530757 41.897777478867205 25.2
    endloop
  endfacet
  facet normal 0 0 1
    outer loop
      vertex 72.52645713530757 36.102222521132795 25.2
      vertex 73.25 36.401923788646684 25.2
      vertex 73.25 41.598076211353316 25.2
    endloop
  endfacet
  facet normal 0 0 1
    outer loop
      vertex 73.25 36.401923788646684 25.2
      vertex 73.87132034355965 41.121320343559645 25.2
      vertex 73.25 41.598076211353316 25.2
    endloop
  endfacet
  facet normal 0 0 1
    outer loop
      vertex 73.25 36.401923788646684 25.2
      vertex 73.87132034355965 36.878679656440355 25.2
      vertex 73.87132034355965 41.121320343559645 25.2
    endloop
  endfacet
  facet normal 0 0 1
    outer loop
      vertex 73.87132034355965 36.878679656440355 25.2
      vertex 74.34807621135332 40.5 25.2
      vertex 73.87132034355965 41.121320343559645 25.2
    endloop
  endfacet
  facet normal 0 0 1
    outer loop
      vertex 73.87132034355965 36.878679656440355 25.2
      vertex 74.34807621135332 37.5 25.2
      vertex 74.34807621135332 40.5 25.2
    endloop
  endfacet
  facet normal 0 0 1
    outer loop
      vertex 74.34807621135332 37.5 25.2
      vertex 74.6477774788672 39.77645713530756 25.2
      vertex 74.34807621135332 40.5 25.2
    endloop
  endfacet
  facet normal 0 0 1
    outer loop
      vertex 74.34807621135332 37.5 25.2
      vertex 74.6477774788672 38.22354286469244 25.2
      vertex 74.6477774788672 39.77645713530756 25.2
    endloop
  endfacet
  facet normal 0 0 1
    outer loop
      vertex 74.6477774788672 38.22354286469244 25.2
      vertex 74.75 39 25.2
      vertex 74.6477774788672 39.77645713530756 25.2
    endloop
  endfacet
endsolid OpenSCAD_Model
