solid OpenSCAD_Model
  facet normal -0.7730104533627357 -0.6343932841636472 0
    outer loop
      vertex 49.08985635694109 3.0555041844313924 25.3
      vertex 49.08985635694109 3.0555041844313924 23
      vertex 49.525126265847085 2.5251262658470837 23
    endloop
  endfacet
  facet normal -0.8819212643483545 -0.47139673682599853 0
    outer loop
      vertex 48.766421636210495 3.6606079867221855 25.3
      vertex 48.766421636210495 3.6606079867221855 23
      vertex 49.08985635694109 3.0555041844313924 23
    endloop
  endfacet
  facet normal -0.9951847266721972 -0.09801714032955686 0
    outer loop
      vertex 48.5 5 25.3
      vertex 48.5 5 23
      vertex 48.56725151858869 4.317183872943551 23
    endloop
  endfacet
  facet normal -0.9569403357322083 -0.29028467725446405 0
    outer loop
      vertex 48.56725151858869 4.317183872943551 25.3
      vertex 48.56725151858869 4.317183872943551 23
      vertex 48.766421636210495 3.6606079867221855 23
    endloop
  endfacet
  facet normal -0.8819212643483545 -0.47139673682599853 0
    outer loop
      vertex 49.08985635694109 3.0555041844313924 25.3
      vertex 48.766421636210495 3.6606079867221855 25.3
      vertex 49.08985635694109 3.0555041844313924 23
    endloop
  endfacet
  facet normal -0.9951847266721972 -0.09801714032955686 0
    outer loop
      vertex 48.56725151858869 4.317183872943551 25.3
      vertex 48.5 5 25.3
      vertex 48.56725151858869 4.317183872943551 23
    endloop
  endfacet
  facet normal -0.9569403357322083 -0.29028467725446405 0
    outer loop
      vertex 48.766421636210495 3.6606079867221855 25.3
      vertex 48.56725151858869 4.317183872943551 25.3
      vertex 48.766421636210495 3.6606079867221855 23
    endloop
  endfacet
  facet normal 0 0 1
    outer loop
      vertex 49.08985635694109 3.0555041844313924 25.3
      vertex 49.525126265847085 2.5251262658470837 25.3
      vertex 49.08985635694109 6.944495815568608 25.3
    endloop
  endfacet
  facet normal 0 0 1
    outer loop
      vertex 48.766421636210495 3.6606079867221855 25.3
      vertex 48.56725151858869 5.682816127056449 25.3
      vertex 48.56725151858869 4.317183872943551 25.3
    endloop
  endfacet
  facet normal 0 0 1
    outer loop
      vertex 49.08985635694109 3.0555041844313924 25.3
      vertex 48.766421636210495 6.3393920132778145 25.3
      vertex 48.766421636210495 3.6606079867221855 25.3
    endloop
  endfacet
  facet normal -0.6343932841636467 -0.7730104533627359 0
    outer loop
      vertex 50.05550418443139 2.0898563569410915 25.3
      vertex 49.525126265847085 2.5251262658470837 23
      vertex 50.05550418443139 2.0898563569410915 23
    endloop
  endfacet
  facet normal -0.47139673682599836 -0.8819212643483546 0
    outer loop
      vertex 50.660607986722184 1.7664216362104965 25.3
      vertex 50.05550418443139 2.0898563569410915 23
      vertex 50.660607986722184 1.7664216362104965 23
    endloop
  endfacet
  facet normal -0.2902846772544612 -0.9569403357322093 0
    outer loop
      vertex 51.31718387294355 1.5672515185886935 25.3
      vertex 50.660607986722184 1.7664216362104965 23
      vertex 51.31718387294355 1.5672515185886935 23
    endloop
  endfacet
  facet normal -0.09801714032956085 -0.9951847266721969 0
    outer loop
      vertex 52 1.5 25.3
      vertex 51.31718387294355 1.5672515185886935 23
      vertex 52 1.5 23
    endloop
  endfacet
  facet normal -0.47139673682599836 -0.8819212643483546 0
    outer loop
      vertex 50.05550418443139 2.0898563569410915 25.3
      vertex 50.05550418443139 2.0898563569410915 23
      vertex 50.660607986722184 1.7664216362104965 25.3
    endloop
  endfacet
  facet normal -0.2902846772544612 -0.9569403357322093 0
    outer loop
      vertex 50.660607986722184 1.7664216362104965 25.3
      vertex 50.660607986722184 1.7664216362104965 23
      vertex 51.31718387294355 1.5672515185886935 25.3
    endloop
  endfacet
  facet normal -0.09801714032956085 -0.9951847266721969 0
    outer loop
      vertex 51.31718387294355 1.5672515185886935 25.3
      vertex 51.31718387294355 1.5672515185886935 23
      vertex 52 1.5 25.3
    endloop
  endfacet
  facet normal -0.7730104533627357 -0.6343932841636472 0
    outer loop
      vertex 49.08985635694109 3.0555041844313924 25.3
      vertex 49.525126265847085 2.5251262658470837 23
      vertex 49.525126265847085 2.5251262658470837 25.3
    endloop
  endfacet
  facet normal -0.6343932841636467 -0.7730104533627359 0
    outer loop
      vertex 50.05550418443139 2.0898563569410915 25.3
      vertex 49.525126265847085 2.5251262658470837 25.3
      vertex 49.525126265847085 2.5251262658470837 23
    endloop
  endfacet
  facet normal 0 0 1
    outer loop
      vertex 50.05550418443139 2.0898563569410915 25.3
      vertex 49.525126265847085 7.474873734152917 25.3
      vertex 49.525126265847085 2.5251262658470837 25.3
    endloop
  endfacet
  facet normal 0 0 1
    outer loop
      vertex 50.05550418443139 2.0898563569410915 25.3
      vertex 50.660607986722184 1.7664216362104965 25.3
      vertex 50.05550418443139 7.910143643058909 25.3
    endloop
  endfacet
  facet normal 0 0 1
    outer loop
      vertex 50.660607986722184 1.7664216362104965 25.3
      vertex 51.31718387294355 1.5672515185886935 25.3
      vertex 50.660607986722184 8.233578363789503 25.3
    endloop
  endfacet
  facet normal 0 0 1
    outer loop
      vertex 51.31718387294355 1.5672515185886935 25.3
      vertex 52 1.5 25.3
      vertex 51.31718387294355 8.432748481411306 25.3
    endloop
  endfacet
  facet normal -0.9951847266721972 0.09801714032955686 0
    outer loop
      vertex 48.56725151858869 5.682816127056449 25.3
      vertex 48.56725151858869 5.682816127056449 23
      vertex 48.5 5 23
    endloop
  endfacet
  facet normal -0.9569403357322083 0.29028467725446405 0
    outer loop
      vertex 48.766421636210495 6.3393920132778145 25.3
      vertex 48.766421636210495 6.3393920132778145 23
      vertex 48.56725151858869 5.682816127056449 23
    endloop
  endfacet
  facet normal -0.8819212643483547 0.4713967368259983 0
    outer loop
      vertex 49.08985635694109 6.944495815568608 25.3
      vertex 49.08985635694109 6.944495815568608 23
      vertex 48.766421636210495 6.3393920132778145 23
    endloop
  endfacet
  facet normal -0.9951847266721972 0.09801714032955686 0
    outer loop
      vertex 48.5 5 25.3
      vertex 48.56725151858869 5.682816127056449 25.3
      vertex 48.5 5 23
    endloop
  endfacet
  facet normal -0.9569403357322083 0.29028467725446405 0
    outer loop
      vertex 48.56725151858869 5.682816127056449 25.3
      vertex 48.766421636210495 6.3393920132778145 25.3
      vertex 48.56725151858869 5.682816127056449 23
    endloop
  endfacet
  facet normal 0 0 1
    outer loop
      vertex 48.56725151858869 4.317183872943551 25.3
      vertex 48.56725151858869 5.682816127056449 25.3
      vertex 48.5 5 25.3
    endloop
  endfacet
  facet normal 0 0 1
    outer loop
      vertex 48.766421636210495 3.6606079867221855 25.3
      vertex 48.766421636210495 6.3393920132778145 25.3
      vertex 48.56725151858869 5.682816127056449 25.3
    endloop
  endfacet
  facet normal 0 0 1
    outer loop
      vertex 49.08985635694109 3.0555041844313924 25.3
      vertex 49.08985635694109 6.944495815568608 25.3
      vertex 48.766421636210495 6.3393920132778145 25.3
    endloop
  endfacet
  facet normal -0.8819212643483547 0.4713967368259983 0
    outer loop
      vertex 48.766421636210495 6.3393920132778145 25.3
      vertex 49.08985635694109 6.944495815568608 25.3
      vertex 48.766421636210495 6.3393920132778145 23
    endloop
  endfacet
  facet normal -0.7730104533627357 0.6343932841636472 0
    outer loop
      vertex 49.08985635694109 6.944495815568608 25.3
      vertex 49.525126265847085 7.474873734152917 25.3
      vertex 49.08985635694109 6.944495815568608 23
    endloop
  endfacet
  facet normal -0.7730104533627357 0.6343932841636472 0
    outer loop
      vertex 49.525126265847085 7.474873734152917 25.3
      vertex 49.525126265847085 7.474873734152917 23
      vertex 49.08985635694109 6.944495815568608 23
    endloop
  endfacet
  facet normal -0.6343932841636467 0.7730104533627359 0
    outer loop
      vertex 49.525126265847085 7.474873734152917 25.3
      vertex 50.05550418443139 7.910143643058909 23
      vertex 49.525126265847085 7.474873734152917 23
    endloop
  endfacet
  facet normal 0 0 1
    outer loop
      vertex 49.525126265847085 2.5251262658470837 25.3
      vertex 49.525126265847085 7.474873734152917 25.3
      vertex 49.08985635694109 6.944495815568608 25.3
    endloop
  endfacet
  facet normal 0 0 1
    outer loop
      vertex 50.05550418443139 2.0898563569410915 25.3
      vertex 50.05550418443139 7.910143643058909 25.3
      vertex 49.525126265847085 7.474873734152917 25.3
    endloop
  endfacet
  facet normal 0 0 1
    outer loop
      vertex 50.660607986722184 1.7664216362104965 25.3
      vertex 50.660607986722184 8.233578363789503 25.3
      vertex 50.05550418443139 7.910143643058909 25.3
    endloop
  endfacet
  facet normal 0 0 1
    outer loop
      vertex 51.31718387294355 1.5672515185886935 25.3
      vertex 51.31718387294355 8.432748481411306 25.3
      vertex 50.660607986722184 8.233578363789503 25.3
    endloop
  endfacet
  facet normal 0 0 1
    outer loop
      vertex 51.31718387294355 8.432748481411306 25.3
      vertex 52 1.5 25.3
      vertex 52 8.5 25.3
    endloop
  endfacet
  facet normal -0.47139673682599736 0.8819212643483553 0
    outer loop
      vertex 50.05550418443139 7.910143643058909 25.3
      vertex 50.660607986722184 8.233578363789503 23
      vertex 50.05550418443139 7.910143643058909 23
    endloop
  endfacet
  facet normal -0.2902846772544606 0.9569403357322094 0
    outer loop
      vertex 50.660607986722184 8.233578363789503 25.3
      vertex 51.31718387294355 8.432748481411306 23
      vertex 50.660607986722184 8.233578363789503 23
    endloop
  endfacet
  facet normal -0.09801714032956213 0.9951847266721967 0
    outer loop
      vertex 51.31718387294355 8.432748481411306 25.3
      vertex 52 8.5 23
      vertex 51.31718387294355 8.432748481411306 23
    endloop
  endfacet
  facet normal -0.6343932841636467 0.7730104533627359 0
    outer loop
      vertex 49.525126265847085 7.474873734152917 25.3
      vertex 50.05550418443139 7.910143643058909 25.3
      vertex 50.05550418443139 7.910143643058909 23
    endloop
  endfacet
  facet normal -0.47139673682599736 0.8819212643483553 0
    outer loop
      vertex 50.05550418443139 7.910143643058909 25.3
      vertex 50.660607986722184 8.233578363789503 25.3
      vertex 50.660607986722184 8.233578363789503 23
    endloop
  endfacet
  facet normal -0.2902846772544606 0.9569403357322094 0
    outer loop
      vertex 50.660607986722184 8.233578363789503 25.3
      vertex 51.31718387294355 8.432748481411306 25.3
      vertex 51.31718387294355 8.432748481411306 23
    endloop
  endfacet
  facet normal -0.09801714032956213 0.9951847266721967 0
    outer loop
      vertex 51.31718387294355 8.432748481411306 25.3
      vertex 52 8.5 25.3
      vertex 52 8.5 23
    endloop
  endfacet
  facet normal 0.09801714032956085 -0.9951847266721969 0
    outer loop
      vertex 52.68281612705645 1.5672515185886935 25.3
      vertex 52 1.5 23
      vertex 52.68281612705645 1.5672515185886935 23
    endloop
  endfacet
  facet normal 0.2902846772544612 -0.9569403357322093 0
    outer loop
      vertex 53.339392013277816 1.7664216362104965 25.3
      vertex 52.68281612705645 1.5672515185886935 23
      vertex 53.339392013277816 1.7664216362104965 23
    endloop
  endfacet
  facet normal 0.47139673682599836 -0.8819212643483546 0
    outer loop
      vertex 53.94449581556861 2.0898563569410915 25.3
      vertex 53.339392013277816 1.7664216362104965 23
      vertex 53.94449581556861 2.0898563569410915 23
    endloop
  endfacet
  facet normal 0.09801714032956085 -0.9951847266721969 0
    outer loop
      vertex 52 1.5 25.3
      vertex 52 1.5 23
      vertex 52.68281612705645 1.5672515185886935 25.3
    endloop
  endfacet
  facet normal 0.2902846772544612 -0.9569403357322093 0
    outer loop
      vertex 52.68281612705645 1.5672515185886935 25.3
      vertex 52.68281612705645 1.5672515185886935 23
      vertex 53.339392013277816 1.7664216362104965 25.3
    endloop
  endfacet
  facet normal 0.47139673682599836 -0.8819212643483546 0
    outer loop
      vertex 53.339392013277816 1.7664216362104965 25.3
      vertex 53.339392013277816 1.7664216362104965 23
      vertex 53.94449581556861 2.0898563569410915 25.3
    endloop
  endfacet
  facet normal 0.6343932841636467 -0.7730104533627359 0
    outer loop
      vertex 53.94449581556861 2.0898563569410915 25.3
      vertex 53.94449581556861 2.0898563569410915 23
      vertex 54.474873734152915 2.5251262658470837 25.3
    endloop
  endfacet
  facet normal 0.6343932841636467 -0.7730104533627359 0
    outer loop
      vertex 54.474873734152915 2.5251262658470837 25.3
      vertex 53.94449581556861 2.0898563569410915 23
      vertex 54.474873734152915 2.5251262658470837 23
    endloop
  endfacet
  facet normal 0.7730104533627357 -0.6343932841636472 0
    outer loop
      vertex 54.474873734152915 2.5251262658470837 25.3
      vertex 54.474873734152915 2.5251262658470837 23
      vertex 54.91014364305891 3.0555041844313924 23
    endloop
  endfacet
  facet normal 0 0 1
    outer loop
      vertex 52 1.5 25.3
      vertex 52.68281612705645 1.5672515185886935 25.3
      vertex 52 8.5 25.3
    endloop
  endfacet
  facet normal 0 0 1
    outer loop
      vertex 52.68281612705645 1.5672515185886935 25.3
      vertex 53.339392013277816 1.7664216362104965 25.3
      vertex 52.68281612705645 8.432748481411306 25.3
    endloop
  endfacet
  facet normal 0 0 1
    outer loop
      vertex 53.339392013277816 1.7664216362104965 25.3
      vertex 53.94449581556861 2.0898563569410915 25.3
      vertex 53.339392013277816 8.233578363789503 25.3
    endloop
  endfacet
  facet normal 0 0 1
    outer loop
      vertex 53.94449581556861 2.0898563569410915 25.3
      vertex 54.474873734152915 2.5251262658470837 25.3
      vertex 53.94449581556861 7.910143643058909 25.3
    endloop
  endfacet
  facet normal 0 0 1
    outer loop
      vertex 54.474873734152915 2.5251262658470837 25.3
      vertex 54.91014364305891 3.0555041844313924 25.3
      vertex 54.474873734152915 7.474873734152917 25.3
    endloop
  endfacet
  facet normal 0.8819212643483545 -0.47139673682599853 0
    outer loop
      vertex 54.91014364305891 3.0555041844313924 25.3
      vertex 54.91014364305891 3.0555041844313924 23
      vertex 55.233578363789505 3.6606079867221855 23
    endloop
  endfacet
  facet normal 0.9569403357322083 -0.29028467725446405 0
    outer loop
      vertex 55.233578363789505 3.6606079867221855 25.3
      vertex 55.233578363789505 3.6606079867221855 23
      vertex 55.43274848141131 4.317183872943551 23
    endloop
  endfacet
  facet normal 0.9951847266721972 -0.09801714032955686 0
    outer loop
      vertex 55.43274848141131 4.317183872943551 25.3
      vertex 55.43274848141131 4.317183872943551 23
      vertex 55.5 5 23
    endloop
  endfacet
  facet normal 0.7730104533627357 -0.6343932841636472 0
    outer loop
      vertex 54.474873734152915 2.5251262658470837 25.3
      vertex 54.91014364305891 3.0555041844313924 23
      vertex 54.91014364305891 3.0555041844313924 25.3
    endloop
  endfacet
  facet normal 0.8819212643483545 -0.47139673682599853 0
    outer loop
      vertex 54.91014364305891 3.0555041844313924 25.3
      vertex 55.233578363789505 3.6606079867221855 23
      vertex 55.233578363789505 3.6606079867221855 25.3
    endloop
  endfacet
  facet normal 0.9569403357322083 -0.29028467725446405 0
    outer loop
      vertex 55.233578363789505 3.6606079867221855 25.3
      vertex 55.43274848141131 4.317183872943551 23
      vertex 55.43274848141131 4.317183872943551 25.3
    endloop
  endfacet
  facet normal 0.9951847266721972 -0.09801714032955686 0
    outer loop
      vertex 55.43274848141131 4.317183872943551 25.3
      vertex 55.5 5 23
      vertex 55.5 5 25.3
    endloop
  endfacet
  facet normal 0 0 1
    outer loop
      vertex 54.91014364305891 3.0555041844313924 25.3
      vertex 55.233578363789505 3.6606079867221855 25.3
      vertex 54.91014364305891 6.944495815568608 25.3
    endloop
  endfacet
  facet normal 0 0 1
    outer loop
      vertex 55.233578363789505 3.6606079867221855 25.3
      vertex 55.43274848141131 4.317183872943551 25.3
      vertex 55.233578363789505 6.3393920132778145 25.3
    endloop
  endfacet
  facet normal 0 0 1
    outer loop
      vertex 52.68281612705645 1.5672515185886935 25.3
      vertex 52.68281612705645 8.432748481411306 25.3
      vertex 52 8.5 25.3
    endloop
  endfacet
  facet normal 0 0 1
    outer loop
      vertex 53.339392013277816 1.7664216362104965 25.3
      vertex 53.339392013277816 8.233578363789503 25.3
      vertex 52.68281612705645 8.432748481411306 25.3
    endloop
  endfacet
  facet normal 0 0 1
    outer loop
      vertex 53.94449581556861 2.0898563569410915 25.3
      vertex 53.94449581556861 7.910143643058909 25.3
      vertex 53.339392013277816 8.233578363789503 25.3
    endloop
  endfacet
  facet normal 0 0 1
    outer loop
      vertex 54.474873734152915 2.5251262658470837 25.3
      vertex 54.474873734152915 7.474873734152917 25.3
      vertex 53.94449581556861 7.910143643058909 25.3
    endloop
  endfacet
  facet normal 0.6343932841636467 0.7730104533627359 0
    outer loop
      vertex 54.474873734152915 7.474873734152917 25.3
      vertex 54.474873734152915 7.474873734152917 23
      vertex 53.94449581556861 7.910143643058909 25.3
    endloop
  endfacet
  facet normal 0.7730104533627357 0.6343932841636472 0
    outer loop
      vertex 54.474873734152915 7.474873734152917 25.3
      vertex 54.91014364305891 6.944495815568608 25.3
      vertex 54.474873734152915 7.474873734152917 23
    endloop
  endfacet
  facet normal 0.09801714032956213 0.9951847266721967 0
    outer loop
      vertex 52 8.5 25.3
      vertex 52.68281612705645 8.432748481411306 23
      vertex 52 8.5 23
    endloop
  endfacet
  facet normal 0.2902846772544606 0.9569403357322094 0
    outer loop
      vertex 52.68281612705645 8.432748481411306 25.3
      vertex 53.339392013277816 8.233578363789503 23
      vertex 52.68281612705645 8.432748481411306 23
    endloop
  endfacet
  facet normal 0.47139673682599736 0.8819212643483553 0
    outer loop
      vertex 53.339392013277816 8.233578363789503 25.3
      vertex 53.94449581556861 7.910143643058909 23
      vertex 53.339392013277816 8.233578363789503 23
    endloop
  endfacet
  facet normal 0.6343932841636467 0.7730104533627359 0
    outer loop
      vertex 53.94449581556861 7.910143643058909 25.3
      vertex 54.474873734152915 7.474873734152917 23
      vertex 53.94449581556861 7.910143643058909 23
    endloop
  endfacet
  facet normal 0.09801714032956213 0.9951847266721967 0
    outer loop
      vertex 52 8.5 25.3
      vertex 52.68281612705645 8.432748481411306 25.3
      vertex 52.68281612705645 8.432748481411306 23
    endloop
  endfacet
  facet normal 0.2902846772544606 0.9569403357322094 0
    outer loop
      vertex 52.68281612705645 8.432748481411306 25.3
      vertex 53.339392013277816 8.233578363789503 25.3
      vertex 53.339392013277816 8.233578363789503 23
    endloop
  endfacet
  facet normal 0.47139673682599736 0.8819212643483553 0
    outer loop
      vertex 53.339392013277816 8.233578363789503 25.3
      vertex 53.94449581556861 7.910143643058909 25.3
      vertex 53.94449581556861 7.910143643058909 23
    endloop
  endfacet
  facet normal 0.9569403357322083 0.29028467725446405 0
    outer loop
      vertex 55.43274848141131 5.682816127056449 25.3
      vertex 55.43274848141131 5.682816127056449 23
      vertex 55.233578363789505 6.3393920132778145 23
    endloop
  endfacet
  facet normal 0.9951847266721972 0.09801714032955686 0
    outer loop
      vertex 55.5 5 25.3
      vertex 55.5 5 23
      vertex 55.43274848141131 5.682816127056449 23
    endloop
  endfacet
  facet normal 0.8819212643483547 0.4713967368259983 0
    outer loop
      vertex 55.233578363789505 6.3393920132778145 25.3
      vertex 55.233578363789505 6.3393920132778145 23
      vertex 54.91014364305891 6.944495815568608 23
    endloop
  endfacet
  facet normal 0.7730104533627357 0.6343932841636472 0
    outer loop
      vertex 54.91014364305891 6.944495815568608 25.3
      vertex 54.91014364305891 6.944495815568608 23
      vertex 54.474873734152915 7.474873734152917 23
    endloop
  endfacet
  facet normal 0.9569403357322083 0.29028467725446405 0
    outer loop
      vertex 55.43274848141131 5.682816127056449 25.3
      vertex 55.233578363789505 6.3393920132778145 23
      vertex 55.233578363789505 6.3393920132778145 25.3
    endloop
  endfacet
  facet normal 0.9951847266721972 0.09801714032955686 0
    outer loop
      vertex 55.5 5 25.3
      vertex 55.43274848141131 5.682816127056449 23
      vertex 55.43274848141131 5.682816127056449 25.3
    endloop
  endfacet
  facet normal 0 0 1
    outer loop
      vertex 55.233578363789505 3.6606079867221855 25.3
      vertex 55.233578363789505 6.3393920132778145 25.3
      vertex 54.91014364305891 6.944495815568608 25.3
    endloop
  endfacet
  facet normal 0 0 1
    outer loop
      vertex 55.43274848141131 4.317183872943551 25.3
      vertex 55.43274848141131 5.682816127056449 25.3
      vertex 55.233578363789505 6.3393920132778145 25.3
    endloop
  endfacet
  facet normal 0 0 1
    outer loop
      vertex 54.91014364305891 3.0555041844313924 25.3
      vertex 54.91014364305891 6.944495815568608 25.3
      vertex 54.474873734152915 7.474873734152917 25.3
    endloop
  endfacet
  facet normal 0 0 1
    outer loop
      vertex 55.43274848141131 4.317183872943551 25.3
      vertex 55.5 5 25.3
      vertex 55.43274848141131 5.682816127056449 25.3
    endloop
  endfacet
  facet normal 0.8819212643483547 0.4713967368259983 0
    outer loop
      vertex 55.233578363789505 6.3393920132778145 25.3
      vertex 54.91014364305891 6.944495815568608 23
      vertex 54.91014364305891 6.944495815568608 25.3
    endloop
  endfacet
  facet normal -0.7730104533627385 -0.6343932841636436 0
    outer loop
      vertex 47.426917132336 1.944363718392188 22.2
      vertex 48.110912703473986 1.1109127034739883 22.2
      vertex 47.426917132336 1.944363718392188 23
    endloop
  endfacet
  facet normal -0.6343932841636432 -0.7730104533627389 0
    outer loop
      vertex 48.94436371839219 0.42691713233600126 22.2
      vertex 48.94436371839219 0.42691713233600126 23
      vertex 48.110912703473986 1.1109127034739883 22.2
    endloop
  endfacet
  facet normal -0.7730104533627385 -0.6343932841636436 0
    outer loop
      vertex 48.110912703473986 1.1109127034739883 22.2
      vertex 48.110912703473986 1.1109127034739883 23
      vertex 47.426917132336 1.944363718392188 23
    endloop
  endfacet
  facet normal -0.6343932841636432 -0.7730104533627389 0
    outer loop
      vertex 48.110912703473986 1.1109127034739883 22.2
      vertex 48.94436371839219 0.42691713233600126 23
      vertex 48.110912703473986 1.1109127034739883 23
    endloop
  endfacet
  facet normal -0.881921264348355 -0.47139673682599764 0
    outer loop
      vertex 47.426917132336 1.944363718392188 22.2
      vertex 46.91866257118792 2.8952411219920062 23
      vertex 46.91866257118792 2.8952411219920062 22.2
    endloop
  endfacet
  facet normal -0.956940335732209 -0.2902846772544617 0
    outer loop
      vertex 46.91866257118792 2.8952411219920062 22.2
      vertex 46.91866257118792 2.8952411219920062 23
      vertex 46.60568095778223 3.9270032289112944 23
    endloop
  endfacet
  facet normal -0.956940335732209 -0.2902846772544617 0
    outer loop
      vertex 46.91866257118792 2.8952411219920062 22.2
      vertex 46.60568095778223 3.9270032289112944 23
      vertex 46.60568095778223 3.9270032289112944 22.2
    endloop
  endfacet
  facet normal -0.881921264348355 -0.47139673682599764 0
    outer loop
      vertex 47.426917132336 1.944363718392188 22.2
      vertex 47.426917132336 1.944363718392188 23
      vertex 46.91866257118792 2.8952411219920062 23
    endloop
  endfacet
  facet normal -0.9951847266721968 -0.0980171403295615 0
    outer loop
      vertex 46.60568095778223 3.9270032289112944 22.2
      vertex 46.60568095778223 3.9270032289112944 23
      vertex 46.5 5 23
    endloop
  endfacet
  facet normal 0 0 -1
    outer loop
      vertex 46.91866257118792 2.8952411219920062 22.2
      vertex 46.60568095778223 3.9270032289112944 22.2
      vertex 46.91866257118792 7.104758878007994 22.2
    endloop
  endfacet
  facet normal -0.9951847266721968 -0.0980171403295615 0
    outer loop
      vertex 46.60568095778223 3.9270032289112944 22.2
      vertex 46.5 5 23
      vertex 46.5 5 22.2
    endloop
  endfacet
  facet normal 0 0 -1
    outer loop
      vertex 47.426917132336 1.944363718392188 22.2
      vertex 46.91866257118792 2.8952411219920062 22.2
      vertex 47.426917132336 8.055636281607812 22.2
    endloop
  endfacet
  facet normal 0 0 -1
    outer loop
      vertex 47.426917132336 1.944363718392188 22.2
      vertex 48.110912703473986 8.88908729652601 22.2
      vertex 48.110912703473986 1.1109127034739883 22.2
    endloop
  endfacet
  facet normal 0 0 -1
    outer loop
      vertex 48.94436371839219 0.42691713233600126 22.2
      vertex 48.110912703473986 1.1109127034739883 22.2
      vertex 48.94436371839219 9.573082867663999 22.2
    endloop
  endfacet
  facet normal -0.4713967368259975 -0.881921264348355 0
    outer loop
      vertex 48.94436371839219 0.42691713233600126 22.2
      vertex 49.89524112199201 -0.08133742881207695 22.2
      vertex 49.89524112199201 -0.08133742881207695 23
    endloop
  endfacet
  facet normal -0.4713967368259975 -0.881921264348355 0
    outer loop
      vertex 48.94436371839219 0.42691713233600126 22.2
      vertex 49.89524112199201 -0.08133742881207695 23
      vertex 48.94436371839219 0.42691713233600126 23
    endloop
  endfacet
  facet normal -0.2902846772544625 -0.9569403357322088 0
    outer loop
      vertex 49.89524112199201 -0.08133742881207695 22.2
      vertex 50.927003228911296 -0.39431904221776737 23
      vertex 49.89524112199201 -0.08133742881207695 23
    endloop
  endfacet
  facet normal -0.2902846772544625 -0.9569403357322088 0
    outer loop
      vertex 49.89524112199201 -0.08133742881207695 22.2
      vertex 50.927003228911296 -0.39431904221776737 22.2
      vertex 50.927003228911296 -0.39431904221776737 23
    endloop
  endfacet
  facet normal -0.09801714032956084 -0.9951847266721969 0
    outer loop
      vertex 50.927003228911296 -0.39431904221776737 22.2
      vertex 52 -0.5 23
      vertex 50.927003228911296 -0.39431904221776737 23
    endloop
  endfacet
  facet normal -0.09801714032956084 -0.9951847266721969 0
    outer loop
      vertex 50.927003228911296 -0.39431904221776737 22.2
      vertex 52 -0.5 22.2
      vertex 52 -0.5 23
    endloop
  endfacet
  facet normal 0 0 -1
    outer loop
      vertex 50.927003228911296 -0.39431904221776737 22.2
      vertex 52 4 22.2
      vertex 52 -0.5 22.2
    endloop
  endfacet
  facet normal 0 0 -1
    outer loop
      vertex 48.94436371839219 0.42691713233600126 22.2
      vertex 49.89524112199201 10.081337428812077 22.2
      vertex 49.89524112199201 -0.08133742881207695 22.2
    endloop
  endfacet
  facet normal 0 0 -1
    outer loop
      vertex 49.89524112199201 -0.08133742881207695 22.2
      vertex 50.927003228911296 10.394319042217766 22.2
      vertex 50.927003228911296 -0.39431904221776737 22.2
    endloop
  endfacet
  facet normal 0 0 -1
    outer loop
      vertex 50.927003228911296 -0.39431904221776737 22.2
      vertex 51.076120467488714 4.61731656763491 22.2
      vertex 51.292893218813454 4.292893218813452 22.2
    endloop
  endfacet
  facet normal 0 0 -1
    outer loop
      vertex 50.927003228911296 -0.39431904221776737 22.2
      vertex 51.292893218813454 4.292893218813452 22.2
      vertex 51.61731656763491 4.076120467488713 22.2
    endloop
  endfacet
  facet normal 0 0 -1
    outer loop
      vertex 50.927003228911296 -0.39431904221776737 22.2
      vertex 51 5 22.2
      vertex 51.076120467488714 4.61731656763491 22.2
    endloop
  endfacet
  facet normal 0 0 -1
    outer loop
      vertex 50.927003228911296 -0.39431904221776737 22.2
      vertex 51.61731656763491 4.076120467488713 22.2
      vertex 52 4 22.2
    endloop
  endfacet
  facet normal 0 0 1
    outer loop
      vertex 48.94436371839219 0.42691713233600126 23
      vertex 49.525126265847085 2.5251262658470837 23
      vertex 49.08985635694109 3.0555041844313924 23
    endloop
  endfacet
  facet normal 0 0 1
    outer loop
      vertex 46.91866257118792 2.8952411219920062 23
      vertex 46.60568095778223 6.072996771088706 23
      vertex 46.60568095778223 3.9270032289112944 23
    endloop
  endfacet
  facet normal 0 0 1
    outer loop
      vertex 47.426917132336 1.944363718392188 23
      vertex 46.91866257118792 7.104758878007994 23
      vertex 46.91866257118792 2.8952411219920062 23
    endloop
  endfacet
  facet normal 0 0 1
    outer loop
      vertex 47.426917132336 1.944363718392188 23
      vertex 48.110912703473986 1.1109127034739883 23
      vertex 47.426917132336 8.055636281607812 23
    endloop
  endfacet
  facet normal 0 0 1
    outer loop
      vertex 48.94436371839219 0.42691713233600126 23
      vertex 48.110912703473986 8.88908729652601 23
      vertex 48.110912703473986 1.1109127034739883 23
    endloop
  endfacet
  facet normal 0 0 1
    outer loop
      vertex 48.94436371839219 0.42691713233600126 23
      vertex 48.766421636210495 3.6606079867221855 23
      vertex 48.56725151858869 4.317183872943551 23
    endloop
  endfacet
  facet normal 0 0 1
    outer loop
      vertex 48.94436371839219 0.42691713233600126 23
      vertex 49.08985635694109 3.0555041844313924 23
      vertex 48.766421636210495 3.6606079867221855 23
    endloop
  endfacet
  facet normal 0 0 1
    outer loop
      vertex 48.94436371839219 0.42691713233600126 23
      vertex 48.56725151858869 4.317183872943551 23
      vertex 48.110912703473986 8.88908729652601 23
    endloop
  endfacet
  facet normal 0 0 1
    outer loop
      vertex 48.94436371839219 0.42691713233600126 23
      vertex 49.89524112199201 -0.08133742881207695 23
      vertex 50.05550418443139 2.0898563569410915 23
    endloop
  endfacet
  facet normal 0 0 1
    outer loop
      vertex 48.94436371839219 0.42691713233600126 23
      vertex 50.05550418443139 2.0898563569410915 23
      vertex 49.525126265847085 2.5251262658470837 23
    endloop
  endfacet
  facet normal 0 0 1
    outer loop
      vertex 49.89524112199201 -0.08133742881207695 23
      vertex 50.660607986722184 1.7664216362104965 23
      vertex 50.05550418443139 2.0898563569410915 23
    endloop
  endfacet
  facet normal 0 0 1
    outer loop
      vertex 49.89524112199201 -0.08133742881207695 23
      vertex 51.31718387294355 1.5672515185886935 23
      vertex 50.660607986722184 1.7664216362104965 23
    endloop
  endfacet
  facet normal 0 0 1
    outer loop
      vertex 49.89524112199201 -0.08133742881207695 23
      vertex 50.927003228911296 -0.39431904221776737 23
      vertex 51.31718387294355 1.5672515185886935 23
    endloop
  endfacet
  facet normal 0 0 1
    outer loop
      vertex 50.927003228911296 -0.39431904221776737 23
      vertex 52 -0.5 23
      vertex 52 1.5 23
    endloop
  endfacet
  facet normal 0 0 1
    outer loop
      vertex 50.927003228911296 -0.39431904221776737 23
      vertex 52 1.5 23
      vertex 51.31718387294355 1.5672515185886935 23
    endloop
  endfacet
  facet normal 0 0 -1
    outer loop
      vertex 46.60568095778223 3.9270032289112944 22.2
      vertex 46.5 5 22.2
      vertex 46.60568095778223 6.072996771088706 22.2
    endloop
  endfacet
  facet normal -0.9951847266721968 0.0980171403295615 0
    outer loop
      vertex 46.5 5 22.2
      vertex 46.5 5 23
      vertex 46.60568095778223 6.072996771088706 23
    endloop
  endfacet
  facet normal 0 0 -1
    outer loop
      vertex 46.60568095778223 3.9270032289112944 22.2
      vertex 46.60568095778223 6.072996771088706 22.2
      vertex 46.91866257118792 7.104758878007994 22.2
    endloop
  endfacet
  facet normal 0 0 -1
    outer loop
      vertex 46.91866257118792 2.8952411219920062 22.2
      vertex 46.91866257118792 7.104758878007994 22.2
      vertex 47.426917132336 8.055636281607812 22.2
    endloop
  endfacet
  facet normal -0.9951847266721968 0.0980171403295615 0
    outer loop
      vertex 46.5 5 22.2
      vertex 46.60568095778223 6.072996771088706 23
      vertex 46.60568095778223 6.072996771088706 22.2
    endloop
  endfacet
  facet normal 0 0 -1
    outer loop
      vertex 47.426917132336 1.944363718392188 22.2
      vertex 47.426917132336 8.055636281607812 22.2
      vertex 48.110912703473986 8.88908729652601 22.2
    endloop
  endfacet
  facet normal -0.956940335732209 0.2902846772544617 0
    outer loop
      vertex 46.60568095778223 6.072996771088706 22.2
      vertex 46.60568095778223 6.072996771088706 23
      vertex 46.91866257118792 7.104758878007994 23
    endloop
  endfacet
  facet normal -0.956940335732209 0.2902846772544617 0
    outer loop
      vertex 46.60568095778223 6.072996771088706 22.2
      vertex 46.91866257118792 7.104758878007994 23
      vertex 46.91866257118792 7.104758878007994 22.2
    endloop
  endfacet
  facet normal -0.881921264348355 0.4713967368259975 0
    outer loop
      vertex 46.91866257118792 7.104758878007994 22.2
      vertex 46.91866257118792 7.104758878007994 23
      vertex 47.426917132336 8.055636281607812 23
    endloop
  endfacet
  facet normal -0.881921264348355 0.4713967368259975 0
    outer loop
      vertex 46.91866257118792 7.104758878007994 22.2
      vertex 47.426917132336 8.055636281607812 23
      vertex 47.426917132336 8.055636281607812 22.2
    endloop
  endfacet
  facet normal 0 0 -1
    outer loop
      vertex 48.110912703473986 1.1109127034739883 22.2
      vertex 48.110912703473986 8.88908729652601 22.2
      vertex 48.94436371839219 9.573082867663999 22.2
    endloop
  endfacet
  facet normal -0.7730104533627381 0.6343932841636443 0
    outer loop
      vertex 47.426917132336 8.055636281607812 22.2
      vertex 47.426917132336 8.055636281607812 23
      vertex 48.110912703473986 8.88908729652601 23
    endloop
  endfacet
  facet normal -0.7730104533627381 0.6343932841636443 0
    outer loop
      vertex 47.426917132336 8.055636281607812 22.2
      vertex 48.110912703473986 8.88908729652601 23
      vertex 48.110912703473986 8.88908729652601 22.2
    endloop
  endfacet
  facet normal -0.6343932841636437 0.7730104533627384 0
    outer loop
      vertex 48.110912703473986 8.88908729652601 22.2
      vertex 48.110912703473986 8.88908729652601 23
      vertex 48.94436371839219 9.573082867663999 22.2
    endloop
  endfacet
  facet normal -0.6343932841636437 0.7730104533627384 0
    outer loop
      vertex 48.94436371839219 9.573082867663999 22.2
      vertex 48.110912703473986 8.88908729652601 23
      vertex 48.94436371839219 9.573082867663999 23
    endloop
  endfacet
  facet normal 0 0 -1
    outer loop
      vertex 48.94436371839219 0.42691713233600126 22.2
      vertex 48.94436371839219 9.573082867663999 22.2
      vertex 49.89524112199201 10.081337428812077 22.2
    endloop
  endfacet
  facet normal 0 0 -1
    outer loop
      vertex 49.89524112199201 -0.08133742881207695 22.2
      vertex 49.89524112199201 10.081337428812077 22.2
      vertex 50.927003228911296 10.394319042217766 22.2
    endloop
  endfacet
  facet normal 0 0 -1
    outer loop
      vertex 50.927003228911296 -0.39431904221776737 22.2
      vertex 50.927003228911296 10.394319042217766 22.2
      vertex 51 5 22.2
    endloop
  endfacet
  facet normal 0 0 -1
    outer loop
      vertex 50.927003228911296 10.394319042217766 22.2
      vertex 51.076120467488714 5.38268343236509 22.2
      vertex 51 5 22.2
    endloop
  endfacet
  facet normal 0 0 -1
    outer loop
      vertex 50.927003228911296 10.394319042217766 22.2
      vertex 51.292893218813454 5.707106781186548 22.2
      vertex 51.076120467488714 5.38268343236509 22.2
    endloop
  endfacet
  facet normal 0 0 -1
    outer loop
      vertex 50.927003228911296 10.394319042217766 22.2
      vertex 51.61731656763491 5.923879532511287 22.2
      vertex 51.292893218813454 5.707106781186548 22.2
    endloop
  endfacet
  facet normal 0 0 -1
    outer loop
      vertex 52 10.5 22.2
      vertex 52 6 22.2
      vertex 51.61731656763491 5.923879532511287 22.2
    endloop
  endfacet
  facet normal -0.4713967368259975 0.881921264348355 0
    outer loop
      vertex 48.94436371839219 9.573082867663999 22.2
      vertex 48.94436371839219 9.573082867663999 23
      vertex 49.89524112199201 10.081337428812077 22.2
    endloop
  endfacet
  facet normal -0.4713967368259975 0.881921264348355 0
    outer loop
      vertex 49.89524112199201 10.081337428812077 22.2
      vertex 48.94436371839219 9.573082867663999 23
      vertex 49.89524112199201 10.081337428812077 23
    endloop
  endfacet
  facet normal -0.2902846772544617 0.956940335732209 0
    outer loop
      vertex 49.89524112199201 10.081337428812077 22.2
      vertex 49.89524112199201 10.081337428812077 23
      vertex 50.927003228911296 10.394319042217766 22.2
    endloop
  endfacet
  facet normal -0.2902846772544617 0.956940335732209 0
    outer loop
      vertex 50.927003228911296 10.394319042217766 22.2
      vertex 49.89524112199201 10.081337428812077 23
      vertex 50.927003228911296 10.394319042217766 23
    endloop
  endfacet
  facet normal 0 0 -1
    outer loop
      vertex 50.927003228911296 10.394319042217766 22.2
      vertex 52 10.5 22.2
      vertex 51.61731656763491 5.923879532511287 22.2
    endloop
  endfacet
  facet normal -0.09801714032956166 0.9951847266721968 0
    outer loop
      vertex 50.927003228911296 10.394319042217766 22.2
      vertex 50.927003228911296 10.394319042217766 23
      vertex 52 10.5 22.2
    endloop
  endfacet
  facet normal -0.09801714032956166 0.9951847266721968 0
    outer loop
      vertex 50.927003228911296 10.394319042217766 23
      vertex 52 10.5 23
      vertex 52 10.5 22.2
    endloop
  endfacet
  facet normal 0 0 1
    outer loop
      vertex 46.60568095778223 3.9270032289112944 23
      vertex 46.60568095778223 6.072996771088706 23
      vertex 46.5 5 23
    endloop
  endfacet
  facet normal 0 0 1
    outer loop
      vertex 46.91866257118792 2.8952411219920062 23
      vertex 46.91866257118792 7.104758878007994 23
      vertex 46.60568095778223 6.072996771088706 23
    endloop
  endfacet
  facet normal 0 0 1
    outer loop
      vertex 47.426917132336 1.944363718392188 23
      vertex 47.426917132336 8.055636281607812 23
      vertex 46.91866257118792 7.104758878007994 23
    endloop
  endfacet
  facet normal 0 0 1
    outer loop
      vertex 48.110912703473986 1.1109127034739883 23
      vertex 48.110912703473986 8.88908729652601 23
      vertex 47.426917132336 8.055636281607812 23
    endloop
  endfacet
  facet normal 0 0 1
    outer loop
      vertex 48.110912703473986 8.88908729652601 23
      vertex 48.56725151858869 4.317183872943551 23
      vertex 48.5 5 23
    endloop
  endfacet
  facet normal 0 0 1
    outer loop
      vertex 48.110912703473986 8.88908729652601 23
      vertex 48.5 5 23
      vertex 48.56725151858869 5.682816127056449 23
    endloop
  endfacet
  facet normal 0 0 1
    outer loop
      vertex 48.110912703473986 8.88908729652601 23
      vertex 48.56725151858869 5.682816127056449 23
      vertex 48.766421636210495 6.3393920132778145 23
    endloop
  endfacet
  facet normal 0 0 1
    outer loop
      vertex 48.94436371839219 9.573082867663999 23
      vertex 48.766421636210495 6.3393920132778145 23
      vertex 49.08985635694109 6.944495815568608 23
    endloop
  endfacet
  facet normal 0 0 1
    outer loop
      vertex 48.110912703473986 8.88908729652601 23
      vertex 48.766421636210495 6.3393920132778145 23
      vertex 48.94436371839219 9.573082867663999 23
    endloop
  endfacet
  facet normal 0 0 1
    outer loop
      vertex 48.94436371839219 9.573082867663999 23
      vertex 49.08985635694109 6.944495815568608 23
      vertex 49.525126265847085 7.474873734152917 23
    endloop
  endfacet
  facet normal 0 0 1
    outer loop
      vertex 48.94436371839219 9.573082867663999 23
      vertex 49.525126265847085 7.474873734152917 23
      vertex 49.89524112199201 10.081337428812077 23
    endloop
  endfacet
  facet normal 0 0 1
    outer loop
      vertex 49.89524112199201 10.081337428812077 23
      vertex 49.525126265847085 7.474873734152917 23
      vertex 50.05550418443139 7.910143643058909 23
    endloop
  endfacet
  facet normal 0 0 1
    outer loop
      vertex 49.89524112199201 10.081337428812077 23
      vertex 50.05550418443139 7.910143643058909 23
      vertex 50.660607986722184 8.233578363789503 23
    endloop
  endfacet
  facet normal 0 0 1
    outer loop
      vertex 49.89524112199201 10.081337428812077 23
      vertex 50.660607986722184 8.233578363789503 23
      vertex 50.927003228911296 10.394319042217766 23
    endloop
  endfacet
  facet normal 0 0 1
    outer loop
      vertex 50.927003228911296 10.394319042217766 23
      vertex 50.660607986722184 8.233578363789503 23
      vertex 51.31718387294355 8.432748481411306 23
    endloop
  endfacet
  facet normal 0 0 1
    outer loop
      vertex 50.927003228911296 10.394319042217766 23
      vertex 51.31718387294355 8.432748481411306 23
      vertex 52 8.5 23
    endloop
  endfacet
  facet normal 0 0 1
    outer loop
      vertex 50.927003228911296 10.394319042217766 23
      vertex 52 8.5 23
      vertex 52 10.5 23
    endloop
  endfacet
  facet normal 0.09801714032956084 -0.9951847266721969 0
    outer loop
      vertex 52 -0.5 22.2
      vertex 53.072996771088704 -0.39431904221776737 23
      vertex 52 -0.5 23
    endloop
  endfacet
  facet normal 0.09801714032956084 -0.9951847266721969 0
    outer loop
      vertex 52 -0.5 22.2
      vertex 53.072996771088704 -0.39431904221776737 22.2
      vertex 53.072996771088704 -0.39431904221776737 23
    endloop
  endfacet
  facet normal 0 0 -1
    outer loop
      vertex 52 -0.5 22.2
      vertex 52.38268343236509 4.076120467488713 22.2
      vertex 53.072996771088704 -0.39431904221776737 22.2
    endloop
  endfacet
  facet normal 0.2902846772544625 -0.9569403357322088 0
    outer loop
      vertex 53.072996771088704 -0.39431904221776737 22.2
      vertex 54.10475887800799 -0.08133742881207695 23
      vertex 53.072996771088704 -0.39431904221776737 23
    endloop
  endfacet
  facet normal 0.2902846772544625 -0.9569403357322088 0
    outer loop
      vertex 53.072996771088704 -0.39431904221776737 22.2
      vertex 54.10475887800799 -0.08133742881207695 22.2
      vertex 54.10475887800799 -0.08133742881207695 23
    endloop
  endfacet
  facet normal 0.4713967368259975 -0.881921264348355 0
    outer loop
      vertex 54.10475887800799 -0.08133742881207695 22.2
      vertex 55.05563628160781 0.42691713233600126 23
      vertex 54.10475887800799 -0.08133742881207695 23
    endloop
  endfacet
  facet normal 0.4713967368259975 -0.881921264348355 0
    outer loop
      vertex 54.10475887800799 -0.08133742881207695 22.2
      vertex 55.05563628160781 0.42691713233600126 22.2
      vertex 55.05563628160781 0.42691713233600126 23
    endloop
  endfacet
  facet normal 0 0 -1
    outer loop
      vertex 52 -0.5 22.2
      vertex 52 4 22.2
      vertex 52.38268343236509 4.076120467488713 22.2
    endloop
  endfacet
  facet normal 0 0 -1
    outer loop
      vertex 53.072996771088704 -0.39431904221776737 22.2
      vertex 52.38268343236509 4.076120467488713 22.2
      vertex 52.707106781186546 4.292893218813452 22.2
    endloop
  endfacet
  facet normal 0 0 -1
    outer loop
      vertex 53.072996771088704 -0.39431904221776737 22.2
      vertex 52.707106781186546 4.292893218813452 22.2
      vertex 52.923879532511286 4.61731656763491 22.2
    endloop
  endfacet
  facet normal 0 0 -1
    outer loop
      vertex 53.072996771088704 -0.39431904221776737 22.2
      vertex 52.923879532511286 4.61731656763491 22.2
      vertex 53 5 22.2
    endloop
  endfacet
  facet normal 0 0 -1
    outer loop
      vertex 53.072996771088704 -0.39431904221776737 22.2
      vertex 54.10475887800799 10.081337428812077 22.2
      vertex 54.10475887800799 -0.08133742881207695 22.2
    endloop
  endfacet
  facet normal 0 0 -1
    outer loop
      vertex 54.10475887800799 -0.08133742881207695 22.2
      vertex 55.05563628160781 9.573082867663999 22.2
      vertex 55.05563628160781 0.42691713233600126 22.2
    endloop
  endfacet
  facet normal 0.6343932841636432 -0.7730104533627389 0
    outer loop
      vertex 55.05563628160781 0.42691713233600126 22.2
      vertex 55.889087296526014 1.1109127034739883 23
      vertex 55.05563628160781 0.42691713233600126 23
    endloop
  endfacet
  facet normal 0.6343932841636432 -0.7730104533627389 0
    outer loop
      vertex 55.05563628160781 0.42691713233600126 22.2
      vertex 55.889087296526014 1.1109127034739883 22.2
      vertex 55.889087296526014 1.1109127034739883 23
    endloop
  endfacet
  facet normal 0.7730104533627385 -0.6343932841636436 0
    outer loop
      vertex 55.889087296526014 1.1109127034739883 22.2
      vertex 56.573082867664 1.944363718392188 22.2
      vertex 55.889087296526014 1.1109127034739883 23
    endloop
  endfacet
  facet normal 0.7730104533627385 -0.6343932841636436 0
    outer loop
      vertex 56.573082867664 1.944363718392188 22.2
      vertex 56.573082867664 1.944363718392188 23
      vertex 55.889087296526014 1.1109127034739883 23
    endloop
  endfacet
  facet normal 0 0 -1
    outer loop
      vertex 55.05563628160781 0.42691713233600126 22.2
      vertex 55.889087296526014 8.88908729652601 22.2
      vertex 55.889087296526014 1.1109127034739883 22.2
    endloop
  endfacet
  facet normal 0.881921264348355 -0.47139673682599764 0
    outer loop
      vertex 56.573082867664 1.944363718392188 22.2
      vertex 57.08133742881208 2.8952411219920062 22.2
      vertex 56.573082867664 1.944363718392188 23
    endloop
  endfacet
  facet normal 0.881921264348355 -0.47139673682599764 0
    outer loop
      vertex 57.08133742881208 2.8952411219920062 22.2
      vertex 57.08133742881208 2.8952411219920062 23
      vertex 56.573082867664 1.944363718392188 23
    endloop
  endfacet
  facet normal 0.956940335732209 -0.2902846772544617 0
    outer loop
      vertex 57.08133742881208 2.8952411219920062 22.2
      vertex 57.39431904221777 3.9270032289112944 22.2
      vertex 57.08133742881208 2.8952411219920062 23
    endloop
  endfacet
  facet normal 0.956940335732209 -0.2902846772544617 0
    outer loop
      vertex 57.39431904221777 3.9270032289112944 22.2
      vertex 57.39431904221777 3.9270032289112944 23
      vertex 57.08133742881208 2.8952411219920062 23
    endloop
  endfacet
  facet normal 0 0 -1
    outer loop
      vertex 55.889087296526014 1.1109127034739883 22.2
      vertex 56.573082867664 8.055636281607812 22.2
      vertex 56.573082867664 1.944363718392188 22.2
    endloop
  endfacet
  facet normal 0 0 -1
    outer loop
      vertex 56.573082867664 1.944363718392188 22.2
      vertex 57.08133742881208 7.104758878007994 22.2
      vertex 57.08133742881208 2.8952411219920062 22.2
    endloop
  endfacet
  facet normal 0 0 -1
    outer loop
      vertex 57.08133742881208 2.8952411219920062 22.2
      vertex 57.39431904221777 6.072996771088706 22.2
      vertex 57.39431904221777 3.9270032289112944 22.2
    endloop
  endfacet
  facet normal 0.9951847266721968 -0.0980171403295615 0
    outer loop
      vertex 57.39431904221777 3.9270032289112944 22.2
      vertex 57.5 5 22.2
      vertex 57.39431904221777 3.9270032289112944 23
    endloop
  endfacet
  facet normal 0.9951847266721968 -0.0980171403295615 0
    outer loop
      vertex 57.39431904221777 3.9270032289112944 23
      vertex 57.5 5 22.2
      vertex 57.5 5 23
    endloop
  endfacet
  facet normal 0 0 1
    outer loop
      vertex 52 -0.5 23
      vertex 53.072996771088704 -0.39431904221776737 23
      vertex 52 1.5 23
    endloop
  endfacet
  facet normal 0 0 1
    outer loop
      vertex 53.072996771088704 -0.39431904221776737 23
      vertex 52.68281612705645 1.5672515185886935 23
      vertex 52 1.5 23
    endloop
  endfacet
  facet normal 0 0 1
    outer loop
      vertex 53.072996771088704 -0.39431904221776737 23
      vertex 53.339392013277816 1.7664216362104965 23
      vertex 52.68281612705645 1.5672515185886935 23
    endloop
  endfacet
  facet normal 0 0 1
    outer loop
      vertex 53.072996771088704 -0.39431904221776737 23
      vertex 54.10475887800799 -0.08133742881207695 23
      vertex 53.339392013277816 1.7664216362104965 23
    endloop
  endfacet
  facet normal 0 0 1
    outer loop
      vertex 54.10475887800799 -0.08133742881207695 23
      vertex 53.94449581556861 2.0898563569410915 23
      vertex 53.339392013277816 1.7664216362104965 23
    endloop
  endfacet
  facet normal 0 0 1
    outer loop
      vertex 54.10475887800799 -0.08133742881207695 23
      vertex 54.474873734152915 2.5251262658470837 23
      vertex 53.94449581556861 2.0898563569410915 23
    endloop
  endfacet
  facet normal 0 0 1
    outer loop
      vertex 54.10475887800799 -0.08133742881207695 23
      vertex 55.05563628160781 0.42691713233600126 23
      vertex 54.474873734152915 2.5251262658470837 23
    endloop
  endfacet
  facet normal 0 0 1
    outer loop
      vertex 55.05563628160781 0.42691713233600126 23
      vertex 54.91014364305891 3.0555041844313924 23
      vertex 54.474873734152915 2.5251262658470837 23
    endloop
  endfacet
  facet normal 0 0 1
    outer loop
      vertex 55.05563628160781 0.42691713233600126 23
      vertex 55.889087296526014 1.1109127034739883 23
      vertex 55.233578363789505 3.6606079867221855 23
    endloop
  endfacet
  facet normal 0 0 1
    outer loop
      vertex 55.05563628160781 0.42691713233600126 23
      vertex 55.233578363789505 3.6606079867221855 23
      vertex 54.91014364305891 3.0555041844313924 23
    endloop
  endfacet
  facet normal 0 0 1
    outer loop
      vertex 55.889087296526014 1.1109127034739883 23
      vertex 55.43274848141131 4.317183872943551 23
      vertex 55.233578363789505 3.6606079867221855 23
    endloop
  endfacet
  facet normal 0 0 1
    outer loop
      vertex 55.889087296526014 1.1109127034739883 23
      vertex 55.5 5 23
      vertex 55.43274848141131 4.317183872943551 23
    endloop
  endfacet
  facet normal 0 0 1
    outer loop
      vertex 55.889087296526014 1.1109127034739883 23
      vertex 55.43274848141131 5.682816127056449 23
      vertex 55.5 5 23
    endloop
  endfacet
  facet normal 0 0 1
    outer loop
      vertex 55.889087296526014 1.1109127034739883 23
      vertex 56.573082867664 1.944363718392188 23
      vertex 55.889087296526014 8.88908729652601 23
    endloop
  endfacet
  facet normal 0 0 1
    outer loop
      vertex 56.573082867664 1.944363718392188 23
      vertex 57.08133742881208 2.8952411219920062 23
      vertex 56.573082867664 8.055636281607812 23
    endloop
  endfacet
  facet normal 0 0 1
    outer loop
      vertex 57.08133742881208 2.8952411219920062 23
      vertex 57.39431904221777 3.9270032289112944 23
      vertex 57.08133742881208 7.104758878007994 23
    endloop
  endfacet
  facet normal 0 0 -1
    outer loop
      vertex 53.072996771088704 -0.39431904221776737 22.2
      vertex 53 5 22.2
      vertex 53.072996771088704 10.394319042217766 22.2
    endloop
  endfacet
  facet normal 0 0 -1
    outer loop
      vertex 53.072996771088704 10.394319042217766 22.2
      vertex 52.38268343236509 5.923879532511287 22.2
      vertex 52 6 22.2
    endloop
  endfacet
  facet normal 0 0 -1
    outer loop
      vertex 53.072996771088704 10.394319042217766 22.2
      vertex 53 5 22.2
      vertex 52.923879532511286 5.38268343236509 22.2
    endloop
  endfacet
  facet normal 0 0 -1
    outer loop
      vertex 53.072996771088704 10.394319042217766 22.2
      vertex 52.707106781186546 5.707106781186548 22.2
      vertex 52.38268343236509 5.923879532511287 22.2
    endloop
  endfacet
  facet normal 0 0 -1
    outer loop
      vertex 53.072996771088704 10.394319042217766 22.2
      vertex 52.923879532511286 5.38268343236509 22.2
      vertex 52.707106781186546 5.707106781186548 22.2
    endloop
  endfacet
  facet normal 0 0 -1
    outer loop
      vertex 53.072996771088704 -0.39431904221776737 22.2
      vertex 53.072996771088704 10.394319042217766 22.2
      vertex 54.10475887800799 10.081337428812077 22.2
    endloop
  endfacet
  facet normal 0 0 -1
    outer loop
      vertex 54.10475887800799 -0.08133742881207695 22.2
      vertex 54.10475887800799 10.081337428812077 22.2
      vertex 55.05563628160781 9.573082867663999 22.2
    endloop
  endfacet
  facet normal 0 0 -1
    outer loop
      vertex 52 10.5 22.2
      vertex 53.072996771088704 10.394319042217766 22.2
      vertex 52 6 22.2
    endloop
  endfacet
  facet normal 0.09801714032956166 0.9951847266721968 0
    outer loop
      vertex 52 10.5 22.2
      vertex 52 10.5 23
      vertex 53.072996771088704 10.394319042217766 22.2
    endloop
  endfacet
  facet normal 0.09801714032956166 0.9951847266721968 0
    outer loop
      vertex 53.072996771088704 10.394319042217766 22.2
      vertex 52 10.5 23
      vertex 53.072996771088704 10.394319042217766 23
    endloop
  endfacet
  facet normal 0.2902846772544617 0.956940335732209 0
    outer loop
      vertex 53.072996771088704 10.394319042217766 22.2
      vertex 53.072996771088704 10.394319042217766 23
      vertex 54.10475887800799 10.081337428812077 22.2
    endloop
  endfacet
  facet normal 0.2902846772544617 0.956940335732209 0
    outer loop
      vertex 54.10475887800799 10.081337428812077 22.2
      vertex 53.072996771088704 10.394319042217766 23
      vertex 54.10475887800799 10.081337428812077 23
    endloop
  endfacet
  facet normal 0.4713967368259975 0.881921264348355 0
    outer loop
      vertex 55.05563628160781 9.573082867663999 22.2
      vertex 54.10475887800799 10.081337428812077 23
      vertex 55.05563628160781 9.573082867663999 23
    endloop
  endfacet
  facet normal 0.4713967368259975 0.881921264348355 0
    outer loop
      vertex 54.10475887800799 10.081337428812077 22.2
      vertex 54.10475887800799 10.081337428812077 23
      vertex 55.05563628160781 9.573082867663999 22.2
    endloop
  endfacet
  facet normal 0 0 -1
    outer loop
      vertex 55.05563628160781 0.42691713233600126 22.2
      vertex 55.05563628160781 9.573082867663999 22.2
      vertex 55.889087296526014 8.88908729652601 22.2
    endloop
  endfacet
  facet normal 0 0 -1
    outer loop
      vertex 55.889087296526014 1.1109127034739883 22.2
      vertex 55.889087296526014 8.88908729652601 22.2
      vertex 56.573082867664 8.055636281607812 22.2
    endloop
  endfacet
  facet normal 0 0 -1
    outer loop
      vertex 56.573082867664 1.944363718392188 22.2
      vertex 56.573082867664 8.055636281607812 22.2
      vertex 57.08133742881208 7.104758878007994 22.2
    endloop
  endfacet
  facet normal 0 0 -1
    outer loop
      vertex 57.39431904221777 3.9270032289112944 22.2
      vertex 57.39431904221777 6.072996771088706 22.2
      vertex 57.5 5 22.2
    endloop
  endfacet
  facet normal 0 0 -1
    outer loop
      vertex 57.08133742881208 2.8952411219920062 22.2
      vertex 57.08133742881208 7.104758878007994 22.2
      vertex 57.39431904221777 6.072996771088706 22.2
    endloop
  endfacet
  facet normal 0.9951847266721968 0.0980171403295615 0
    outer loop
      vertex 57.5 5 22.2
      vertex 57.39431904221777 6.072996771088706 22.2
      vertex 57.5 5 23
    endloop
  endfacet
  facet normal 0.9951847266721968 0.0980171403295615 0
    outer loop
      vertex 57.39431904221777 6.072996771088706 22.2
      vertex 57.39431904221777 6.072996771088706 23
      vertex 57.5 5 23
    endloop
  endfacet
  facet normal 0.881921264348355 0.4713967368259975 0
    outer loop
      vertex 56.573082867664 8.055636281607812 22.2
      vertex 56.573082867664 8.055636281607812 23
      vertex 57.08133742881208 7.104758878007994 23
    endloop
  endfacet
  facet normal 0.956940335732209 0.2902846772544617 0
    outer loop
      vertex 57.39431904221777 6.072996771088706 22.2
      vertex 57.08133742881208 7.104758878007994 22.2
      vertex 57.39431904221777 6.072996771088706 23
    endloop
  endfacet
  facet normal 0.956940335732209 0.2902846772544617 0
    outer loop
      vertex 57.08133742881208 7.104758878007994 22.2
      vertex 57.08133742881208 7.104758878007994 23
      vertex 57.39431904221777 6.072996771088706 23
    endloop
  endfacet
  facet normal 0.881921264348355 0.4713967368259975 0
    outer loop
      vertex 57.08133742881208 7.104758878007994 22.2
      vertex 56.573082867664 8.055636281607812 22.2
      vertex 57.08133742881208 7.104758878007994 23
    endloop
  endfacet
  facet normal 0.6343932841636437 0.7730104533627384 0
    outer loop
      vertex 55.889087296526014 8.88908729652601 22.2
      vertex 55.05563628160781 9.573082867663999 23
      vertex 55.889087296526014 8.88908729652601 23
    endloop
  endfacet
  facet normal 0.7730104533627381 0.6343932841636443 0
    outer loop
      vertex 55.889087296526014 8.88908729652601 22.2
      vertex 55.889087296526014 8.88908729652601 23
      vertex 56.573082867664 8.055636281607812 23
    endloop
  endfacet
  facet normal 0.6343932841636437 0.7730104533627384 0
    outer loop
      vertex 55.889087296526014 8.88908729652601 22.2
      vertex 55.05563628160781 9.573082867663999 22.2
      vertex 55.05563628160781 9.573082867663999 23
    endloop
  endfacet
  facet normal 0.7730104533627381 0.6343932841636443 0
    outer loop
      vertex 55.889087296526014 8.88908729652601 22.2
      vertex 56.573082867664 8.055636281607812 23
      vertex 56.573082867664 8.055636281607812 22.2
    endloop
  endfacet
  facet normal 0 0 1
    outer loop
      vertex 53.072996771088704 10.394319042217766 23
      vertex 52 8.5 23
      vertex 52.68281612705645 8.432748481411306 23
    endloop
  endfacet
  facet normal 0 0 1
    outer loop
      vertex 52 10.5 23
      vertex 52 8.5 23
      vertex 53.072996771088704 10.394319042217766 23
    endloop
  endfacet
  facet normal 0 0 1
    outer loop
      vertex 53.072996771088704 10.394319042217766 23
      vertex 52.68281612705645 8.432748481411306 23
      vertex 54.10475887800799 10.081337428812077 23
    endloop
  endfacet
  facet normal 0 0 1
    outer loop
      vertex 54.10475887800799 10.081337428812077 23
      vertex 52.68281612705645 8.432748481411306 23
      vertex 53.339392013277816 8.233578363789503 23
    endloop
  endfacet
  facet normal 0 0 1
    outer loop
      vertex 54.10475887800799 10.081337428812077 23
      vertex 53.339392013277816 8.233578363789503 23
      vertex 53.94449581556861 7.910143643058909 23
    endloop
  endfacet
  facet normal 0 0 1
    outer loop
      vertex 55.05563628160781 9.573082867663999 23
      vertex 53.94449581556861 7.910143643058909 23
      vertex 54.474873734152915 7.474873734152917 23
    endloop
  endfacet
  facet normal 0 0 1
    outer loop
      vertex 54.10475887800799 10.081337428812077 23
      vertex 53.94449581556861 7.910143643058909 23
      vertex 55.05563628160781 9.573082867663999 23
    endloop
  endfacet
  facet normal 0 0 1
    outer loop
      vertex 55.889087296526014 1.1109127034739883 23
      vertex 55.05563628160781 9.573082867663999 23
      vertex 55.43274848141131 5.682816127056449 23
    endloop
  endfacet
  facet normal 0 0 1
    outer loop
      vertex 55.05563628160781 9.573082867663999 23
      vertex 54.91014364305891 6.944495815568608 23
      vertex 55.233578363789505 6.3393920132778145 23
    endloop
  endfacet
  facet normal 0 0 1
    outer loop
      vertex 55.05563628160781 9.573082867663999 23
      vertex 55.233578363789505 6.3393920132778145 23
      vertex 55.43274848141131 5.682816127056449 23
    endloop
  endfacet
  facet normal 0 0 1
    outer loop
      vertex 55.889087296526014 1.1109127034739883 23
      vertex 55.889087296526014 8.88908729652601 23
      vertex 55.05563628160781 9.573082867663999 23
    endloop
  endfacet
  facet normal 0 0 1
    outer loop
      vertex 56.573082867664 1.944363718392188 23
      vertex 56.573082867664 8.055636281607812 23
      vertex 55.889087296526014 8.88908729652601 23
    endloop
  endfacet
  facet normal 0 0 1
    outer loop
      vertex 57.39431904221777 3.9270032289112944 23
      vertex 57.5 5 23
      vertex 57.39431904221777 6.072996771088706 23
    endloop
  endfacet
  facet normal 0 0 1
    outer loop
      vertex 57.08133742881208 2.8952411219920062 23
      vertex 57.08133742881208 7.104758878007994 23
      vertex 56.573082867664 8.055636281607812 23
    endloop
  endfacet
  facet normal 0 0 1
    outer loop
      vertex 57.39431904221777 3.9270032289112944 23
      vertex 57.39431904221777 6.072996771088706 23
      vertex 57.08133742881208 7.104758878007994 23
    endloop
  endfacet
  facet normal 0 0 1
    outer loop
      vertex 55.05563628160781 9.573082867663999 23
      vertex 54.474873734152915 7.474873734152917 23
      vertex 54.91014364305891 6.944495815568608 23
    endloop
  endfacet
  facet normal 0 0 -1
    outer loop
      vertex 51.076120467488714 4.61731656763491 20.2
      vertex 51.292893218813454 5.707106781186548 20.2
      vertex 51.292893218813454 4.292893218813452 20.2
    endloop
  endfacet
  facet normal 0 0 -1
    outer loop
      vertex 51.61731656763491 4.076120467488713 20.2
      vertex 51.292893218813454 4.292893218813452 20.2
      vertex 51.61731656763491 5.923879532511287 20.2
    endloop
  endfacet
  facet normal 0 0 -1
    outer loop
      vertex 51.61731656763491 4.076120467488713 20.2
      vertex 52 6 20.2
      vertex 52 4 20.2
    endloop
  endfacet
  facet normal -0.8314696123025448 -0.5555702330196028 0
    outer loop
      vertex 51.076120467488714 4.61731656763491 20.2
      vertex 51.292893218813454 4.292893218813452 20.2
      vertex 51.076120467488714 4.61731656763491 22.2
    endloop
  endfacet
  facet normal -0.98078528040323 -0.19509032201613002 0
    outer loop
      vertex 51.076120467488714 4.61731656763491 20.2
      vertex 51 5 22.2
      vertex 51 5 20.2
    endloop
  endfacet
  facet normal -0.5555702330196055 -0.831469612302543 0
    outer loop
      vertex 51.61731656763491 4.076120467488713 20.2
      vertex 51.61731656763491 4.076120467488713 22.2
      vertex 51.292893218813454 4.292893218813452 20.2
    endloop
  endfacet
  facet normal -0.19509032201612697 -0.9807852804032307 0
    outer loop
      vertex 51.61731656763491 4.076120467488713 20.2
      vertex 52 4 20.2
      vertex 52 4 22.2
    endloop
  endfacet
  facet normal -0.8314696123025448 -0.5555702330196028 0
    outer loop
      vertex 51.292893218813454 4.292893218813452 20.2
      vertex 51.292893218813454 4.292893218813452 22.2
      vertex 51.076120467488714 4.61731656763491 22.2
    endloop
  endfacet
  facet normal -0.98078528040323 -0.19509032201613002 0
    outer loop
      vertex 51.076120467488714 4.61731656763491 20.2
      vertex 51.076120467488714 4.61731656763491 22.2
      vertex 51 5 22.2
    endloop
  endfacet
  facet normal -0.5555702330196055 -0.831469612302543 0
    outer loop
      vertex 51.292893218813454 4.292893218813452 20.2
      vertex 51.61731656763491 4.076120467488713 22.2
      vertex 51.292893218813454 4.292893218813452 22.2
    endloop
  endfacet
  facet normal -0.19509032201612697 -0.9807852804032307 0
    outer loop
      vertex 51.61731656763491 4.076120467488713 20.2
      vertex 52 4 22.2
      vertex 51.61731656763491 4.076120467488713 22.2
    endloop
  endfacet
  facet normal 0 0 -1
    outer loop
      vertex 51.076120467488714 4.61731656763491 20.2
      vertex 51 5 20.2
      vertex 51.076120467488714 5.38268343236509 20.2
    endloop
  endfacet
  facet normal 0 0 -1
    outer loop
      vertex 51.076120467488714 4.61731656763491 20.2
      vertex 51.076120467488714 5.38268343236509 20.2
      vertex 51.292893218813454 5.707106781186548 20.2
    endloop
  endfacet
  facet normal 0 0 -1
    outer loop
      vertex 51.292893218813454 4.292893218813452 20.2
      vertex 51.292893218813454 5.707106781186548 20.2
      vertex 51.61731656763491 5.923879532511287 20.2
    endloop
  endfacet
  facet normal 0 0 -1
    outer loop
      vertex 51.61731656763491 4.076120467488713 20.2
      vertex 51.61731656763491 5.923879532511287 20.2
      vertex 52 6 20.2
    endloop
  endfacet
  facet normal -0.98078528040323 0.19509032201613002 0
    outer loop
      vertex 51 5 20.2
      vertex 51.076120467488714 5.38268343236509 22.2
      vertex 51.076120467488714 5.38268343236509 20.2
    endloop
  endfacet
  facet normal -0.8314696123025448 0.5555702330196028 0
    outer loop
      vertex 51.076120467488714 5.38268343236509 20.2
      vertex 51.292893218813454 5.707106781186548 22.2
      vertex 51.292893218813454 5.707106781186548 20.2
    endloop
  endfacet
  facet normal -0.5555702330196055 0.831469612302543 0
    outer loop
      vertex 51.292893218813454 5.707106781186548 20.2
      vertex 51.292893218813454 5.707106781186548 22.2
      vertex 51.61731656763491 5.923879532511287 20.2
    endloop
  endfacet
  facet normal -0.19509032201612697 0.9807852804032307 0
    outer loop
      vertex 51.61731656763491 5.923879532511287 20.2
      vertex 51.61731656763491 5.923879532511287 22.2
      vertex 52 6 20.2
    endloop
  endfacet
  facet normal -0.98078528040323 0.19509032201613002 0
    outer loop
      vertex 51 5 20.2
      vertex 51 5 22.2
      vertex 51.076120467488714 5.38268343236509 22.2
    endloop
  endfacet
  facet normal -0.8314696123025448 0.5555702330196028 0
    outer loop
      vertex 51.076120467488714 5.38268343236509 20.2
      vertex 51.076120467488714 5.38268343236509 22.2
      vertex 51.292893218813454 5.707106781186548 22.2
    endloop
  endfacet
  facet normal -0.5555702330196055 0.831469612302543 0
    outer loop
      vertex 51.61731656763491 5.923879532511287 20.2
      vertex 51.292893218813454 5.707106781186548 22.2
      vertex 51.61731656763491 5.923879532511287 22.2
    endloop
  endfacet
  facet normal -0.19509032201612697 0.9807852804032307 0
    outer loop
      vertex 52 6 20.2
      vertex 51.61731656763491 5.923879532511287 22.2
      vertex 52 6 22.2
    endloop
  endfacet
  facet normal 0 0 -1
    outer loop
      vertex 52 4 20.2
      vertex 52.38268343236509 5.923879532511287 20.2
      vertex 52.38268343236509 4.076120467488713 20.2
    endloop
  endfacet
  facet normal 0 0 -1
    outer loop
      vertex 52.38268343236509 4.076120467488713 20.2
      vertex 52.707106781186546 5.707106781186548 20.2
      vertex 52.707106781186546 4.292893218813452 20.2
    endloop
  endfacet
  facet normal 0 0 -1
    outer loop
      vertex 52.707106781186546 4.292893218813452 20.2
      vertex 52.923879532511286 5.38268343236509 20.2
      vertex 52.923879532511286 4.61731656763491 20.2
    endloop
  endfacet
  facet normal 0.19509032201612697 -0.9807852804032307 0
    outer loop
      vertex 52 4 20.2
      vertex 52.38268343236509 4.076120467488713 20.2
      vertex 52.38268343236509 4.076120467488713 22.2
    endloop
  endfacet
  facet normal 0.5555702330196055 -0.831469612302543 0
    outer loop
      vertex 52.38268343236509 4.076120467488713 20.2
      vertex 52.707106781186546 4.292893218813452 20.2
      vertex 52.707106781186546 4.292893218813452 22.2
    endloop
  endfacet
  facet normal 0.8314696123025448 -0.5555702330196028 0
    outer loop
      vertex 52.707106781186546 4.292893218813452 20.2
      vertex 52.923879532511286 4.61731656763491 20.2
      vertex 52.707106781186546 4.292893218813452 22.2
    endloop
  endfacet
  facet normal 0.98078528040323 -0.19509032201613002 0
    outer loop
      vertex 52.923879532511286 4.61731656763491 20.2
      vertex 53 5 20.2
      vertex 52.923879532511286 4.61731656763491 22.2
    endloop
  endfacet
  facet normal 0.19509032201612697 -0.9807852804032307 0
    outer loop
      vertex 52 4 20.2
      vertex 52.38268343236509 4.076120467488713 22.2
      vertex 52 4 22.2
    endloop
  endfacet
  facet normal 0.5555702330196055 -0.831469612302543 0
    outer loop
      vertex 52.38268343236509 4.076120467488713 20.2
      vertex 52.707106781186546 4.292893218813452 22.2
      vertex 52.38268343236509 4.076120467488713 22.2
    endloop
  endfacet
  facet normal 0.8314696123025448 -0.5555702330196028 0
    outer loop
      vertex 52.923879532511286 4.61731656763491 20.2
      vertex 52.923879532511286 4.61731656763491 22.2
      vertex 52.707106781186546 4.292893218813452 22.2
    endloop
  endfacet
  facet normal 0.98078528040323 -0.19509032201613002 0
    outer loop
      vertex 53 5 20.2
      vertex 53 5 22.2
      vertex 52.923879532511286 4.61731656763491 22.2
    endloop
  endfacet
  facet normal 0 0 -1
    outer loop
      vertex 52 4 20.2
      vertex 52 6 20.2
      vertex 52.38268343236509 5.923879532511287 20.2
    endloop
  endfacet
  facet normal 0 0 -1
    outer loop
      vertex 52.38268343236509 4.076120467488713 20.2
      vertex 52.38268343236509 5.923879532511287 20.2
      vertex 52.707106781186546 5.707106781186548 20.2
    endloop
  endfacet
  facet normal 0 0 -1
    outer loop
      vertex 52.707106781186546 4.292893218813452 20.2
      vertex 52.707106781186546 5.707106781186548 20.2
      vertex 52.923879532511286 5.38268343236509 20.2
    endloop
  endfacet
  facet normal 0 0 -1
    outer loop
      vertex 52.923879532511286 4.61731656763491 20.2
      vertex 52.923879532511286 5.38268343236509 20.2
      vertex 53 5 20.2
    endloop
  endfacet
  facet normal 0.19509032201612697 0.9807852804032307 0
    outer loop
      vertex 52 6 20.2
      vertex 52 6 22.2
      vertex 52.38268343236509 5.923879532511287 20.2
    endloop
  endfacet
  facet normal 0.5555702330196055 0.831469612302543 0
    outer loop
      vertex 52.707106781186546 5.707106781186548 20.2
      vertex 52.38268343236509 5.923879532511287 20.2
      vertex 52.38268343236509 5.923879532511287 22.2
    endloop
  endfacet
  facet normal 0.98078528040323 0.19509032201613002 0
    outer loop
      vertex 53 5 20.2
      vertex 52.923879532511286 5.38268343236509 20.2
      vertex 53 5 22.2
    endloop
  endfacet
  facet normal 0.8314696123025448 0.5555702330196028 0
    outer loop
      vertex 52.707106781186546 5.707106781186548 20.2
      vertex 52.923879532511286 5.38268343236509 22.2
      vertex 52.923879532511286 5.38268343236509 20.2
    endloop
  endfacet
  facet normal 0.19509032201612697 0.9807852804032307 0
    outer loop
      vertex 52.38268343236509 5.923879532511287 20.2
      vertex 52 6 22.2
      vertex 52.38268343236509 5.923879532511287 22.2
    endloop
  endfacet
  facet normal 0.5555702330196055 0.831469612302543 0
    outer loop
      vertex 52.707106781186546 5.707106781186548 20.2
      vertex 52.38268343236509 5.923879532511287 22.2
      vertex 52.707106781186546 5.707106781186548 22.2
    endloop
  endfacet
  facet normal 0.98078528040323 0.19509032201613002 0
    outer loop
      vertex 52.923879532511286 5.38268343236509 20.2
      vertex 52.923879532511286 5.38268343236509 22.2
      vertex 53 5 22.2
    endloop
  endfacet
  facet normal 0.8314696123025448 0.5555702330196028 0
    outer loop
      vertex 52.707106781186546 5.707106781186548 20.2
      vertex 52.707106781186546 5.707106781186548 22.2
      vertex 52.923879532511286 5.38268343236509 22.2
    endloop
  endfacet
endsolid OpenSCAD_Model
